<?xml version="1.0" encoding="UTF-8" standalone="no"?>
<!DOCTYPE svg PUBLIC "-//W3C//DTD SVG 1.1//EN"
 "http://www.w3.org/Graphics/SVG/1.1/DTD/svg11.dtd">
<!-- Generated by graphviz version 2.43.0 (0)
 -->
<!-- Title: abstract_ui.h Pages: 1 -->
<!--zoomable 324 -->

<svg id="main" version="1.1" xmlns="http://www.w3.org/2000/svg" xmlns:xlink="http://www.w3.org/1999/xlink" xml:space="preserve" onload="init(evt)">
<style type="text/css"><![CDATA[
.node, .edge {opacity: 0.7;}
.node.selected, .edge.selected {opacity: 1;}
.edge:hover path { stroke: red; }
.edge:hover polygon { stroke: red; fill: red; }
]]></style>

<defs>
  <circle id="rim" cx="0" cy="0" r="7"/>
  <circle id="rim2" cx="0" cy="0" r="3.5"/>
  <g id="zoomPlus">
    <use xlink:href="#rim" fill="#404040"><set attributeName="fill" to="#808080" begin="zoomplus.mouseover" end="zoomplus.mouseout"/></use>
    <path d="M-4,0h8M0,-4v8" fill="none" stroke="white" stroke-width="1.5" pointer-events="none"/>
  </g>
  <g id="zoomMin">
    <use xlink:href="#rim" fill="#404040"><set attributeName="fill" to="#808080" begin="zoomminus.mouseover" end="zoomminus.mouseout"/></use>
    <path d="M-4,0h8" fill="none" stroke="white" stroke-width="1.5" pointer-events="none"/>
  </g>
  <g id="arrowUp" transform="translate(30 24)">
    <use xlink:href="#rim"/>
    <path pointer-events="none" fill="none" stroke="white" stroke-width="1.5" d="M0,-3.0v7 M-2.5,-0.5L0,-3.0L2.5,-0.5"/>
  </g>
  <g id="arrowRight" transform="rotate(90) translate(36 -43)">
    <use xlink:href="#rim"/>
    <path pointer-events="none" fill="none" stroke="white" stroke-width="1.5" d="M0,-3.0v7 M-2.5,-0.5L0,-3.0L2.5,-0.5"/>
  </g>
  <g id="arrowDown" transform="rotate(180) translate(-30 -48)">
    <use xlink:href="#rim"/>
    <path pointer-events="none" fill="none" stroke="white" stroke-width="1.5" d="M0,-3.0v7 M-2.5,-0.5L0,-3.0L2.5,-0.5"/>
  </g>
  <g id="arrowLeft" transform="rotate(270) translate(-36 17)">
    <use xlink:href="#rim"/>
    <path pointer-events="none" fill="none" stroke="white" stroke-width="1.5" d="M0,-3.0v7 M-2.5,-0.5L0,-3.0L2.5,-0.5"/>
  </g>
  <g id="resetDef">
    <use xlink:href="#rim2" fill="#404040"><set attributeName="fill" to="#808080" begin="reset.mouseover" end="reset.mouseout"/></use>
  </g>
</defs>
<script type="application/ecmascript">
var viewWidth = 2002;
var viewHeight = 324;
var sectionId = 'dynsection-0';
</script>
<script type="application/ecmascript" xlink:href="svg.min.js"/>
<svg id="graph" class="graph">
<g id="viewport">
<title>abstract_ui.h</title>
<!-- Node1 -->
<g id="Node000001" class="node">
<title>Node1</title>
<g id="a_Node000001"><a xlink:title=" ">
<polygon fill="#999999" stroke="#666666" points="1146,-316 1066,-316 1066,-297 1146,-297 1146,-316"/>
<text text-anchor="middle" x="1106" y="-304" font-family="Helvetica,sans-Serif" font-size="10.00">abstract_ui.h</text>
</a>
</g>
</g>
<!-- Node2 -->
<g id="Node000002" class="node">
<title>Node2</title>
<g id="a_Node000002"><a xlink:title=" ">
<polygon fill="#e0e0e0" stroke="#999999" points="38,-24.5 0,-24.5 0,-5.5 38,-5.5 38,-24.5"/>
<text text-anchor="middle" x="19" y="-12.5" font-family="Helvetica,sans-Serif" font-size="10.00">map</text>
</a>
</g>
</g>
<!-- Node1&#45;&gt;Node2 -->
<g id="edge1_Node000001_Node000002" class="edge">
<title>Node1&#45;&gt;Node2</title>
<g id="a_edge1_Node000001_Node000002"><a xlink:title=" ">
<path fill="none" stroke="#63b8ff" d="M1065.69,-305.84C867.96,-307 10,-305.77 10,-197.5 10,-197.5 10,-197.5 10,-140.5 10,-102.9 14.13,-59.07 16.8,-34.73"/>
<polygon fill="#63b8ff" stroke="#63b8ff" points="20.28,-35.07 17.93,-24.74 13.33,-34.28 20.28,-35.07"/>
</a>
</g>
</g>
<!-- Node3 -->
<g id="Node000003" class="node">
<title>Node3</title>
<g id="a_Node000003"><a xlink:title=" ">
<polygon fill="#e0e0e0" stroke="#999999" points="1817,-24.5 1773,-24.5 1773,-5.5 1817,-5.5 1817,-24.5"/>
<text text-anchor="middle" x="1795" y="-12.5" font-family="Helvetica,sans-Serif" font-size="10.00">string</text>
</a>
</g>
</g>
<!-- Node1&#45;&gt;Node3 -->
<g id="edge2_Node000001_Node000003" class="edge">
<title>Node1&#45;&gt;Node3</title>
<g id="a_edge2_Node000001_Node000003"><a xlink:title=" ">
<path fill="none" stroke="#63b8ff" d="M1146.11,-303.96C1301.06,-297.5 1852,-269.48 1852,-197.5 1852,-197.5 1852,-197.5 1852,-140.5 1852,-98.74 1825.16,-55.66 1808.31,-32.74"/>
<polygon fill="#63b8ff" stroke="#63b8ff" points="1811.06,-30.57 1802.22,-24.73 1805.49,-34.81 1811.06,-30.57"/>
</a>
</g>
</g>
<!-- Node4 -->
<g id="Node000004" class="node">
<title>Node4</title>
<g id="a_Node000004"><a xlink:title=" ">
<polygon fill="#e0e0e0" stroke="#999999" points="1413.5,-24.5 1350.5,-24.5 1350.5,-5.5 1413.5,-5.5 1413.5,-24.5"/>
<text text-anchor="middle" x="1382" y="-12.5" font-family="Helvetica,sans-Serif" font-size="10.00">pthread.h</text>
</a>
</g>
</g>
<!-- Node1&#45;&gt;Node4 -->
<g id="edge3_Node000001_Node000004" class="edge">
<title>Node1&#45;&gt;Node4</title>
<g id="a_edge3_Node000001_Node000004"><a xlink:title=" ">
<path fill="none" stroke="#63b8ff" d="M1124.24,-296.9C1157.44,-280.91 1229.43,-244.72 1285,-206 1315.77,-184.56 1322.38,-177.42 1349,-151 1372.03,-128.15 1385.61,-126.38 1397,-96 1404.65,-75.6 1397.64,-50.74 1390.86,-34.21"/>
<polygon fill="#63b8ff" stroke="#63b8ff" points="1393.87,-32.37 1386.59,-24.67 1387.48,-35.23 1393.87,-32.37"/>
</a>
</g>
</g>
<!-- Node5 -->
<g id="Node000005" class="node">
<title>Node5</title>
<g id="a_Node000005"><a xlink:title=" ">
<polygon fill="#e0e0e0" stroke="#999999" points="434.5,-24.5 331.5,-24.5 331.5,-5.5 434.5,-5.5 434.5,-24.5"/>
<text text-anchor="middle" x="383" y="-12.5" font-family="Helvetica,sans-Serif" font-size="10.00">glibmm/threads.h</text>
</a>
</g>
</g>
<!-- Node1&#45;&gt;Node5 -->
<g id="edge4_Node000001_Node000005" class="edge">
<title>Node1&#45;&gt;Node5</title>
<g id="a_edge4_Node000001_Node000005"><a xlink:title=" ">
<path fill="none" stroke="#63b8ff" d="M1065.74,-304.28C904.75,-298.9 316,-273.98 316,-197.5 316,-197.5 316,-197.5 316,-140.5 316,-97.19 347.83,-54.43 367.61,-32.04"/>
<polygon fill="#63b8ff" stroke="#63b8ff" points="370.35,-34.24 374.51,-24.5 365.18,-29.52 370.35,-34.24"/>
</a>
</g>
</g>
<!-- Node6 -->
<g id="Node000006" class="node">
<title>Node6</title>
<g id="a_Node000006"><a xlink:href="libpbd__visibility_8h.html" target="_top" xlink:title=" ">
<polygon fill="white" stroke="#666666" points="1167,-24.5 1045,-24.5 1045,-5.5 1167,-5.5 1167,-24.5"/>
<text text-anchor="middle" x="1106" y="-12.5" font-family="Helvetica,sans-Serif" font-size="10.00">pbd/libpbd_visibility.h</text>
</a>
</g>
</g>
<!-- Node1&#45;&gt;Node6 -->
<g id="edge5_Node000001_Node000006" class="edge">
<title>Node1&#45;&gt;Node6</title>
<g id="a_edge5_Node000001_Node000006"><a xlink:title=" ">
<path fill="none" stroke="#63b8ff" d="M1106,-296.82C1106,-278.48 1106,-234.44 1106,-197.5 1106,-197.5 1106,-197.5 1106,-140.5 1106,-102.99 1106,-59.13 1106,-34.76"/>
<polygon fill="#63b8ff" stroke="#63b8ff" points="1109.5,-34.75 1106,-24.75 1102.5,-34.75 1109.5,-34.75"/>
</a>
</g>
</g>
<!-- Node7 -->
<g id="Node000007" class="node">
<title>Node7</title>
<g id="a_Node000007"><a xlink:href="receiver_8h.html" target="_top" xlink:title=" ">
<polygon fill="white" stroke="#666666" points="1035,-261 949,-261 949,-242 1035,-242 1035,-261"/>
<text text-anchor="middle" x="992" y="-249" font-family="Helvetica,sans-Serif" font-size="10.00">pbd/receiver.h</text>
</a>
</g>
</g>
<!-- Node1&#45;&gt;Node7 -->
<g id="edge6_Node000001_Node000007" class="edge">
<title>Node1&#45;&gt;Node7</title>
<g id="a_edge6_Node000001_Node000007"><a xlink:title=" ">
<path fill="none" stroke="#63b8ff" d="M1087.68,-296.98C1069.34,-288.46 1040.89,-275.23 1019.77,-265.41"/>
<polygon fill="#63b8ff" stroke="#63b8ff" points="1021.19,-262.21 1010.65,-261.17 1018.24,-268.56 1021.19,-262.21"/>
</a>
</g>
</g>
<!-- Node13 -->
<g id="Node000013" class="node">
<title>Node13</title>
<g id="a_Node000013"><a xlink:href="signals_8h.html" target="_top" xlink:title=" ">
<polygon fill="white" stroke="#666666" points="683.5,-151 602.5,-151 602.5,-132 683.5,-132 683.5,-151"/>
<text text-anchor="middle" x="643" y="-139" font-family="Helvetica,sans-Serif" font-size="10.00">pbd/signals.h</text>
</a>
</g>
</g>
<!-- Node1&#45;&gt;Node13 -->
<g id="edge50_Node000001_Node000013" class="edge">
<title>Node1&#45;&gt;Node13</title>
<g id="a_edge50_Node000001_Node000013"><a xlink:title=" ">
<path fill="none" stroke="#63b8ff" d="M1065.89,-299.9C995.25,-288.96 845.21,-260.89 730,-206 703.55,-193.4 676.89,-172.43 660.18,-158.07"/>
<polygon fill="#63b8ff" stroke="#63b8ff" points="662.23,-155.2 652.4,-151.23 657.6,-160.46 662.23,-155.2"/>
</a>
</g>
</g>
<!-- Node28 -->
<g id="Node000028" class="node">
<title>Node28</title>
<g id="a_Node000028"><a xlink:href="ringbufferNPT_8h.html" target="_top" xlink:title=" ">
<polygon fill="white" stroke="#666666" points="1993.5,-90.5 1880.5,-90.5 1880.5,-71.5 1993.5,-71.5 1993.5,-90.5"/>
<text text-anchor="middle" x="1937" y="-78.5" font-family="Helvetica,sans-Serif" font-size="10.00">pbd/ringbufferNPT.h</text>
</a>
</g>
</g>
<!-- Node1&#45;&gt;Node28 -->
<g id="edge45_Node000001_Node000028" class="edge">
<title>Node1&#45;&gt;Node28</title>
<g id="a_edge45_Node000001_Node000028"><a xlink:title=" ">
<path fill="none" stroke="#63b8ff" d="M1146.12,-305.64C1294.62,-305.81 1807.45,-303.32 1866,-261 1919.04,-222.67 1932.48,-138.3 1935.87,-100.71"/>
<polygon fill="#63b8ff" stroke="#63b8ff" points="1939.36,-100.88 1936.63,-90.65 1932.38,-100.35 1939.36,-100.88"/>
</a>
</g>
</g>
<!-- Node31 -->
<g id="Node000031" class="node">
<title>Node31</title>
<g id="a_Node000031"><a xlink:href="base__ui_8h.html" target="_top" xlink:title=" ">
<polygon fill="white" stroke="#666666" points="1454,-261 1370,-261 1370,-242 1454,-242 1454,-261"/>
<text text-anchor="middle" x="1412" y="-249" font-family="Helvetica,sans-Serif" font-size="10.00">pbd/base_ui.h</text>
</a>
</g>
</g>
<!-- Node1&#45;&gt;Node31 -->
<g id="edge51_Node000001_Node000031" class="edge">
<title>Node1&#45;&gt;Node31</title>
<g id="a_edge51_Node000001_Node000031"><a xlink:title=" ">
<path fill="none" stroke="#63b8ff" d="M1146,-298.57C1200.68,-289.1 1298.84,-272.1 1359.41,-261.61"/>
<polygon fill="#63b8ff" stroke="#63b8ff" points="1360.27,-265.01 1369.53,-259.86 1359.08,-258.11 1360.27,-265.01"/>
</a>
</g>
</g>
<!-- Node7&#45;&gt;Node6 -->
<g id="edge9_Node000007_Node000006" class="edge">
<title>Node7&#45;&gt;Node6</title>
<g id="a_edge9_Node000007_Node000006"><a xlink:title=" ">
<path fill="none" stroke="#63b8ff" d="M994.93,-241.74C999.15,-229.36 1007.39,-206.13 1016,-187 1041.85,-129.56 1078.2,-64.38 1095.74,-33.72"/>
<polygon fill="#63b8ff" stroke="#63b8ff" points="1098.97,-35.12 1100.92,-24.71 1092.9,-31.63 1098.97,-35.12"/>
</a>
</g>
</g>
<!-- Node8 -->
<g id="Node000008" class="node">
<title>Node8</title>
<g id="a_Node000008"><a xlink:title=" ">
<polygon fill="#e0e0e0" stroke="#999999" points="1305.5,-24.5 1258.5,-24.5 1258.5,-5.5 1305.5,-5.5 1305.5,-24.5"/>
<text text-anchor="middle" x="1282" y="-12.5" font-family="Helvetica,sans-Serif" font-size="10.00">vector</text>
</a>
</g>
</g>
<!-- Node7&#45;&gt;Node8 -->
<g id="edge7_Node000007_Node000008" class="edge">
<title>Node7&#45;&gt;Node8</title>
<g id="a_edge7_Node000007_Node000008"><a xlink:title=" ">
<path fill="none" stroke="#63b8ff" d="M1002.67,-241.88C1045.83,-206.97 1207.9,-75.92 1263.3,-31.12"/>
<polygon fill="#63b8ff" stroke="#63b8ff" points="1265.66,-33.71 1271.24,-24.7 1261.26,-28.27 1265.66,-33.71"/>
</a>
</g>
</g>
<!-- Node9 -->
<g id="Node000009" class="node">
<title>Node9</title>
<g id="a_Node000009"><a xlink:title=" ">
<polygon fill="#e0e0e0" stroke="#999999" points="963.5,-206 862.5,-206 862.5,-187 963.5,-187 963.5,-206"/>
<text text-anchor="middle" x="913" y="-194" font-family="Helvetica,sans-Serif" font-size="10.00">sigc++/sigc++.h</text>
</a>
</g>
</g>
<!-- Node7&#45;&gt;Node9 -->
<g id="edge8_Node000007_Node000009" class="edge">
<title>Node7&#45;&gt;Node9</title>
<g id="a_edge8_Node000007_Node000009"><a xlink:title=" ">
<path fill="none" stroke="#63b8ff" d="M979.31,-241.98C967.17,-233.84 948.64,-221.41 934.25,-211.76"/>
<polygon fill="#63b8ff" stroke="#63b8ff" points="936.18,-208.84 925.92,-206.17 932.28,-214.65 936.18,-208.84"/>
</a>
</g>
</g>
<!-- Node10 -->
<g id="Node000010" class="node">
<title>Node10</title>
<g id="a_Node000010"><a xlink:href="transmitter_8h.html" target="_top" xlink:title=" ">
<polygon fill="white" stroke="#666666" points="819,-206 739,-206 739,-187 819,-187 819,-206"/>
<text text-anchor="middle" x="779" y="-194" font-family="Helvetica,sans-Serif" font-size="10.00">transmitter.h</text>
</a>
</g>
</g>
<!-- Node7&#45;&gt;Node10 -->
<g id="edge10_Node000007_Node000010" class="edge">
<title>Node7&#45;&gt;Node10</title>
<g id="a_edge10_Node000007_Node000010"><a xlink:title=" ">
<path fill="none" stroke="#63b8ff" d="M957.78,-241.98C921.24,-232.89 863.22,-218.46 823.24,-208.51"/>
<polygon fill="#63b8ff" stroke="#63b8ff" points="824.04,-205.1 813.49,-206.08 822.35,-211.89 824.04,-205.1"/>
</a>
</g>
</g>
<!-- Node10&#45;&gt;Node6 -->
<g id="edge44_Node000010_Node000006" class="edge">
<title>Node10&#45;&gt;Node6</title>
<g id="a_edge44_Node000010_Node000006"><a xlink:title=" ">
<path fill="none" stroke="#63b8ff" d="M804.85,-186.9C848.49,-171.83 938.78,-138.18 1008,-96 1039.21,-76.99 1071.24,-48.9 1089.85,-31.56"/>
<polygon fill="#63b8ff" stroke="#63b8ff" points="1092.32,-34.04 1097.18,-24.63 1087.51,-28.95 1092.32,-34.04"/>
</a>
</g>
</g>
<!-- Node11 -->
<g id="Node000011" class="node">
<title>Node11</title>
<g id="a_Node000011"><a xlink:title=" ">
<polygon fill="#e0e0e0" stroke="#999999" points="807,-151 751,-151 751,-132 807,-132 807,-151"/>
<text text-anchor="middle" x="779" y="-139" font-family="Helvetica,sans-Serif" font-size="10.00">sstream</text>
</a>
</g>
</g>
<!-- Node10&#45;&gt;Node11 -->
<g id="edge11_Node000010_Node000011" class="edge">
<title>Node10&#45;&gt;Node11</title>
<g id="a_edge11_Node000010_Node000011"><a xlink:title=" ">
<path fill="none" stroke="#63b8ff" d="M779,-186.75C779,-179.8 779,-169.85 779,-161.13"/>
<polygon fill="#63b8ff" stroke="#63b8ff" points="782.5,-161.09 779,-151.09 775.5,-161.09 782.5,-161.09"/>
</a>
</g>
</g>
<!-- Node12 -->
<g id="Node000012" class="node">
<title>Node12</title>
<g id="a_Node000012"><a xlink:title=" ">
<polygon fill="#e0e0e0" stroke="#999999" points="116,-24.5 56,-24.5 56,-5.5 116,-5.5 116,-24.5"/>
<text text-anchor="middle" x="86" y="-12.5" font-family="Helvetica,sans-Serif" font-size="10.00">iostream</text>
</a>
</g>
</g>
<!-- Node10&#45;&gt;Node12 -->
<g id="edge12_Node000010_Node000012" class="edge">
<title>Node10&#45;&gt;Node12</title>
<g id="a_edge12_Node000010_Node000012"><a xlink:title=" ">
<path fill="none" stroke="#63b8ff" d="M738.91,-195.05C609.2,-192.76 203.78,-178.98 109,-96 91.53,-80.71 86.93,-53.1 85.93,-34.66"/>
<polygon fill="#63b8ff" stroke="#63b8ff" points="89.42,-34.47 85.68,-24.55 82.42,-34.64 89.42,-34.47"/>
</a>
</g>
</g>
<!-- Node10&#45;&gt;Node13 -->
<g id="edge13_Node000010_Node000013" class="edge">
<title>Node10&#45;&gt;Node13</title>
<g id="a_edge13_Node000010_Node000013"><a xlink:title=" ">
<path fill="none" stroke="#63b8ff" d="M757.15,-186.98C734.88,-178.3 700.1,-164.75 674.78,-154.88"/>
<polygon fill="#63b8ff" stroke="#63b8ff" points="675.84,-151.54 665.25,-151.17 673.29,-158.06 675.84,-151.54"/>
</a>
</g>
</g>
<!-- Node13&#45;&gt;Node2 -->
<g id="edge16_Node000013_Node000002" class="edge">
<title>Node13&#45;&gt;Node2</title>
<g id="a_edge16_Node000013_Node000002"><a xlink:title=" ">
<path fill="none" stroke="#63b8ff" d="M602.32,-140.41C493.45,-139.64 197.71,-134.02 109,-96 76.51,-82.07 47.67,-51.64 31.84,-32.58"/>
<polygon fill="#63b8ff" stroke="#63b8ff" points="34.51,-30.32 25.51,-24.73 29.06,-34.71 34.51,-30.32"/>
</a>
</g>
</g>
<!-- Node13&#45;&gt;Node5 -->
<g id="edge18_Node000013_Node000005" class="edge">
<title>Node13&#45;&gt;Node5</title>
<g id="a_edge18_Node000013_Node000005"><a xlink:title=" ">
<path fill="none" stroke="#63b8ff" d="M602.36,-139.96C534.32,-138.11 401.93,-130.09 373,-96 358.46,-78.87 366.09,-51.78 373.79,-33.94"/>
<polygon fill="#63b8ff" stroke="#63b8ff" points="377.07,-35.2 378.18,-24.66 370.74,-32.21 377.07,-35.2"/>
</a>
</g>
</g>
<!-- Node13&#45;&gt;Node6 -->
<g id="edge22_Node000013_Node000006" class="edge">
<title>Node13&#45;&gt;Node6</title>
<g id="a_edge22_Node000013_Node000006"><a xlink:title=" ">
<path fill="none" stroke="#63b8ff" d="M683.59,-136.11C765.81,-127.06 946.51,-106.33 973,-96 994.71,-87.54 996.23,-78.34 1016,-66 1037.3,-52.7 1062.33,-38.94 1080.58,-29.23"/>
<polygon fill="#63b8ff" stroke="#63b8ff" points="1082.24,-32.31 1089.45,-24.54 1078.97,-26.12 1082.24,-32.31"/>
</a>
</g>
</g>
<!-- Node13&#45;&gt;Node12 -->
<g id="edge43_Node000013_Node000012" class="edge">
<title>Node13&#45;&gt;Node12</title>
<g id="a_edge43_Node000013_Node000012"><a xlink:title=" ">
<path fill="none" stroke="#63b8ff" d="M602.14,-141.18C497.19,-142.24 220.89,-140.62 143,-96 118.65,-82.05 102.06,-52.99 93.31,-34"/>
<polygon fill="#63b8ff" stroke="#63b8ff" points="96.44,-32.43 89.25,-24.65 90.02,-35.21 96.44,-32.43"/>
</a>
</g>
</g>
<!-- Node14 -->
<g id="Node000014" class="node">
<title>Node14</title>
<g id="a_Node000014"><a xlink:title=" ">
<polygon fill="#e0e0e0" stroke="#999999" points="643.5,-90.5 592.5,-90.5 592.5,-71.5 643.5,-71.5 643.5,-90.5"/>
<text text-anchor="middle" x="618" y="-78.5" font-family="Helvetica,sans-Serif" font-size="10.00">csignal</text>
</a>
</g>
</g>
<!-- Node13&#45;&gt;Node14 -->
<g id="edge14_Node000013_Node000014" class="edge">
<title>Node13&#45;&gt;Node14</title>
<g id="a_edge14_Node000013_Node000014"><a xlink:title=" ">
<path fill="none" stroke="#63b8ff" d="M639.31,-131.87C635.73,-123.49 630.18,-110.51 625.65,-99.89"/>
<polygon fill="#63b8ff" stroke="#63b8ff" points="628.85,-98.49 621.7,-90.67 622.42,-101.24 628.85,-98.49"/>
</a>
</g>
</g>
<!-- Node15 -->
<g id="Node000015" class="node">
<title>Node15</title>
<g id="a_Node000015"><a xlink:title=" ">
<polygon fill="#e0e0e0" stroke="#999999" points="313,-24.5 281,-24.5 281,-5.5 313,-5.5 313,-24.5"/>
<text text-anchor="middle" x="297" y="-12.5" font-family="Helvetica,sans-Serif" font-size="10.00">list</text>
</a>
</g>
</g>
<!-- Node13&#45;&gt;Node15 -->
<g id="edge15_Node000013_Node000015" class="edge">
<title>Node13&#45;&gt;Node15</title>
<g id="a_edge15_Node000013_Node000015"><a xlink:title=" ">
<path fill="none" stroke="#63b8ff" d="M602.41,-137.7C534.49,-132.43 401.29,-119.4 361,-96 335.71,-81.31 316.5,-52.48 306,-33.74"/>
<polygon fill="#63b8ff" stroke="#63b8ff" points="308.99,-31.92 301.19,-24.75 302.82,-35.22 308.99,-31.92"/>
</a>
</g>
</g>
<!-- Node16 -->
<g id="Node000016" class="node">
<title>Node16</title>
<g id="a_Node000016"><a xlink:title=" ">
<polygon fill="#e0e0e0" stroke="#999999" points="1482,-24.5 1432,-24.5 1432,-5.5 1482,-5.5 1482,-24.5"/>
<text text-anchor="middle" x="1457" y="-12.5" font-family="Helvetica,sans-Serif" font-size="10.00">atomic</text>
</a>
</g>
</g>
<!-- Node13&#45;&gt;Node16 -->
<g id="edge17_Node000013_Node000016" class="edge">
<title>Node13&#45;&gt;Node16</title>
<g id="a_edge17_Node000013_Node000016"><a xlink:title=" ">
<path fill="none" stroke="#63b8ff" d="M683.92,-136.7C701.75,-135.12 722.9,-133.34 742,-132 814.71,-126.88 1332.73,-130.37 1397,-96 1422.31,-82.47 1439.95,-53.06 1449.27,-33.92"/>
<polygon fill="#63b8ff" stroke="#63b8ff" points="1452.49,-35.29 1453.49,-24.74 1446.13,-32.37 1452.49,-35.29"/>
</a>
</g>
</g>
<!-- Node17 -->
<g id="Node000017" class="node">
<title>Node17</title>
<g id="a_Node000017"><a xlink:title=" ">
<polygon fill="#e0e0e0" stroke="#999999" points="788,-90.5 662,-90.5 662,-71.5 788,-71.5 788,-90.5"/>
<text text-anchor="middle" x="725" y="-78.5" font-family="Helvetica,sans-Serif" font-size="10.00">boost/bind/protect.hpp</text>
</a>
</g>
</g>
<!-- Node13&#45;&gt;Node17 -->
<g id="edge19_Node000013_Node000017" class="edge">
<title>Node13&#45;&gt;Node17</title>
<g id="a_edge19_Node000013_Node000017"><a xlink:title=" ">
<path fill="none" stroke="#63b8ff" d="M655.1,-131.87C668.06,-122.62 688.86,-107.78 704.4,-96.69"/>
<polygon fill="#63b8ff" stroke="#63b8ff" points="706.74,-99.32 712.85,-90.67 702.68,-93.63 706.74,-99.32"/>
</a>
</g>
</g>
<!-- Node18 -->
<g id="Node000018" class="node">
<title>Node18</title>
<g id="a_Node000018"><a xlink:title=" ">
<polygon fill="#e0e0e0" stroke="#999999" points="500,-96 382,-96 382,-66 500,-66 500,-96"/>
<text text-anchor="start" x="390" y="-84" font-family="Helvetica,sans-Serif" font-size="10.00">boost/enable_shared</text>
<text text-anchor="middle" x="441" y="-73" font-family="Helvetica,sans-Serif" font-size="10.00">_from_this.hpp</text>
</a>
</g>
</g>
<!-- Node13&#45;&gt;Node18 -->
<g id="edge20_Node000013_Node000018" class="edge">
<title>Node13&#45;&gt;Node18</title>
<g id="a_edge20_Node000013_Node000018"><a xlink:title=" ">
<path fill="none" stroke="#63b8ff" d="M613.63,-131.99C583.79,-123.35 536.79,-109.74 499.35,-98.9"/>
<polygon fill="#63b8ff" stroke="#63b8ff" points="500.14,-95.48 489.56,-96.06 498.2,-102.21 500.14,-95.48"/>
</a>
</g>
</g>
<!-- Node19 -->
<g id="Node000019" class="node">
<title>Node19</title>
<g id="a_Node000019"><a xlink:title=" ">
<polygon fill="#e0e0e0" stroke="#999999" points="574,-90.5 518,-90.5 518,-71.5 574,-71.5 574,-90.5"/>
<text text-anchor="middle" x="546" y="-78.5" font-family="Helvetica,sans-Serif" font-size="10.00">optional</text>
</a>
</g>
</g>
<!-- Node13&#45;&gt;Node19 -->
<g id="edge21_Node000013_Node000019" class="edge">
<title>Node13&#45;&gt;Node19</title>
<g id="a_edge21_Node000013_Node000019"><a xlink:title=" ">
<path fill="none" stroke="#63b8ff" d="M628.69,-131.87C613,-122.41 587.6,-107.09 569.09,-95.92"/>
<polygon fill="#63b8ff" stroke="#63b8ff" points="570.74,-92.83 560.37,-90.67 567.13,-98.83 570.74,-92.83"/>
</a>
</g>
</g>
<!-- Node20 -->
<g id="Node000020" class="node">
<title>Node20</title>
<g id="a_Node000020"><a xlink:href="event__loop_8h.html" target="_top" xlink:title=" ">
<polygon fill="white" stroke="#666666" points="1387.5,-90.5 1286.5,-90.5 1286.5,-71.5 1387.5,-71.5 1387.5,-90.5"/>
<text text-anchor="middle" x="1337" y="-78.5" font-family="Helvetica,sans-Serif" font-size="10.00">pbd/event_loop.h</text>
</a>
</g>
</g>
<!-- Node13&#45;&gt;Node20 -->
<g id="edge23_Node000013_Node000020" class="edge">
<title>Node13&#45;&gt;Node20</title>
<g id="a_edge23_Node000013_Node000020"><a xlink:title=" ">
<path fill="none" stroke="#63b8ff" d="M683.94,-136.97C701.77,-135.43 722.92,-133.62 742,-132 937.37,-115.4 1168.86,-96.04 1276.44,-87.05"/>
<polygon fill="#63b8ff" stroke="#63b8ff" points="1276.78,-90.54 1286.45,-86.22 1276.2,-83.56 1276.78,-90.54"/>
</a>
</g>
</g>
<!-- Node22 -->
<g id="Node000022" class="node">
<title>Node22</title>
<g id="a_Node000022"><a xlink:href="stack__allocator_8h.html" target="_top" xlink:title=" ">
<polygon fill="white" stroke="#666666" points="964,-90.5 844,-90.5 844,-71.5 964,-71.5 964,-90.5"/>
<text text-anchor="middle" x="904" y="-78.5" font-family="Helvetica,sans-Serif" font-size="10.00">pbd/stack_allocator.h</text>
</a>
</g>
</g>
<!-- Node13&#45;&gt;Node22 -->
<g id="edge32_Node000013_Node000022" class="edge">
<title>Node13&#45;&gt;Node22</title>
<g id="a_edge32_Node000013_Node000022"><a xlink:title=" ">
<path fill="none" stroke="#63b8ff" d="M680.95,-131.99C727.25,-121.62 805.55,-104.07 855.99,-92.76"/>
<polygon fill="#63b8ff" stroke="#63b8ff" points="857.01,-96.12 866,-90.52 855.48,-89.29 857.01,-96.12"/>
</a>
</g>
</g>
<!-- Node25 -->
<g id="Node000025" class="node">
<title>Node25</title>
<g id="a_Node000025"><a xlink:href="stacktrace_8h.html" target="_top" xlink:title=" ">
<polygon fill="white" stroke="#666666" points="250,-90.5 152,-90.5 152,-71.5 250,-71.5 250,-90.5"/>
<text text-anchor="middle" x="201" y="-78.5" font-family="Helvetica,sans-Serif" font-size="10.00">pbd/stacktrace.h</text>
</a>
</g>
</g>
<!-- Node13&#45;&gt;Node25 -->
<g id="edge36_Node000013_Node000025" class="edge">
<title>Node13&#45;&gt;Node25</title>
<g id="a_edge36_Node000013_Node000025"><a xlink:title=" ">
<path fill="none" stroke="#63b8ff" d="M602.42,-137.1C532.86,-130.97 386.48,-116.74 264,-96 258.27,-95.03 252.27,-93.88 246.35,-92.66"/>
<polygon fill="#63b8ff" stroke="#63b8ff" points="247.04,-89.22 236.53,-90.56 245.57,-96.07 247.04,-89.22"/>
</a>
</g>
</g>
<!-- Node20&#45;&gt;Node2 -->
<g id="edge27_Node000020_Node000002" class="edge">
<title>Node20&#45;&gt;Node2</title>
<g id="a_edge27_Node000020_Node000002"><a xlink:title=" ">
<path fill="none" stroke="#63b8ff" d="M1286.47,-78.05C1048.16,-68.85 47.96,-30.25 47,-30 45.55,-29.63 44.09,-29.18 42.64,-28.66"/>
<polygon fill="#63b8ff" stroke="#63b8ff" points="43.93,-25.41 33.36,-24.64 41.15,-31.83 43.93,-25.41"/>
</a>
</g>
</g>
<!-- Node20&#45;&gt;Node3 -->
<g id="edge25_Node000020_Node000003" class="edge">
<title>Node20&#45;&gt;Node3</title>
<g id="a_edge25_Node000020_Node000003"><a xlink:title=" ">
<path fill="none" stroke="#63b8ff" d="M1387.76,-72.91C1482.52,-59.66 1683.84,-31.53 1762.52,-20.54"/>
<polygon fill="#63b8ff" stroke="#63b8ff" points="1763.37,-23.95 1772.79,-19.1 1762.4,-17.02 1763.37,-23.95"/>
</a>
</g>
</g>
<!-- Node20&#45;&gt;Node4 -->
<g id="edge29_Node000020_Node000004" class="edge">
<title>Node20&#45;&gt;Node4</title>
<g id="a_edge29_Node000020_Node000004"><a xlink:title=" ">
<path fill="none" stroke="#63b8ff" d="M1343.07,-71.37C1349.87,-61.69 1361.09,-45.74 1369.74,-33.44"/>
<polygon fill="#63b8ff" stroke="#63b8ff" points="1372.85,-35.1 1375.74,-24.91 1367.12,-31.07 1372.85,-35.1"/>
</a>
</g>
</g>
<!-- Node20&#45;&gt;Node5 -->
<g id="edge30_Node000020_Node000005" class="edge">
<title>Node20&#45;&gt;Node5</title>
<g id="a_edge30_Node000020_Node000005"><a xlink:title=" ">
<path fill="none" stroke="#63b8ff" d="M1286.38,-76.6C1124.73,-65.76 621.21,-31.98 444.8,-20.15"/>
<polygon fill="#63b8ff" stroke="#63b8ff" points="444.87,-16.64 434.66,-19.47 444.4,-23.63 444.87,-16.64"/>
</a>
</g>
</g>
<!-- Node20&#45;&gt;Node6 -->
<g id="edge31_Node000020_Node000006" class="edge">
<title>Node20&#45;&gt;Node6</title>
<g id="a_edge31_Node000020_Node000006"><a xlink:title=" ">
<path fill="none" stroke="#63b8ff" d="M1305.85,-71.37C1264.74,-59.98 1192.31,-39.91 1146.85,-27.32"/>
<polygon fill="#63b8ff" stroke="#63b8ff" points="1147.6,-23.89 1137.03,-24.6 1145.73,-30.64 1147.6,-23.89"/>
</a>
</g>
</g>
<!-- Node20&#45;&gt;Node8 -->
<g id="edge26_Node000020_Node000008" class="edge">
<title>Node20&#45;&gt;Node8</title>
<g id="a_edge26_Node000020_Node000008"><a xlink:title=" ">
<path fill="none" stroke="#63b8ff" d="M1329.58,-71.37C1321.1,-61.5 1307.02,-45.11 1296.37,-32.72"/>
<polygon fill="#63b8ff" stroke="#63b8ff" points="1298.83,-30.21 1289.65,-24.91 1293.52,-34.77 1298.83,-30.21"/>
</a>
</g>
</g>
<!-- Node20&#45;&gt;Node16 -->
<g id="edge24_Node000020_Node000016" class="edge">
<title>Node20&#45;&gt;Node16</title>
<g id="a_edge24_Node000020_Node000016"><a xlink:title=" ">
<path fill="none" stroke="#63b8ff" d="M1353.18,-71.37C1373.31,-60.63 1407.91,-42.18 1431.59,-29.55"/>
<polygon fill="#63b8ff" stroke="#63b8ff" points="1433.51,-32.49 1440.69,-24.7 1430.22,-26.32 1433.51,-32.49"/>
</a>
</g>
</g>
<!-- Node21 -->
<g id="Node000021" class="node">
<title>Node21</title>
<g id="a_Node000021"><a xlink:title=" ">
<polygon fill="#e0e0e0" stroke="#999999" points="1556.5,-24.5 1503.5,-24.5 1503.5,-5.5 1556.5,-5.5 1556.5,-24.5"/>
<text text-anchor="middle" x="1530" y="-12.5" font-family="Helvetica,sans-Serif" font-size="10.00">stdint.h</text>
</a>
</g>
</g>
<!-- Node20&#45;&gt;Node21 -->
<g id="edge28_Node000020_Node000021" class="edge">
<title>Node20&#45;&gt;Node21</title>
<g id="a_edge28_Node000020_Node000021"><a xlink:title=" ">
<path fill="none" stroke="#63b8ff" d="M1364.07,-71.49C1394.89,-61.73 1446.71,-45.13 1491,-30 1492.89,-29.35 1494.83,-28.68 1496.78,-28"/>
<polygon fill="#63b8ff" stroke="#63b8ff" points="1498.27,-31.19 1506.53,-24.56 1495.94,-24.59 1498.27,-31.19"/>
</a>
</g>
</g>
<!-- Node22&#45;&gt;Node6 -->
<g id="edge35_Node000022_Node000006" class="edge">
<title>Node22&#45;&gt;Node6</title>
<g id="a_edge35_Node000022_Node000006"><a xlink:title=" ">
<path fill="none" stroke="#63b8ff" d="M931.24,-71.37C966.88,-60.08 1029.47,-40.25 1069.27,-27.64"/>
<polygon fill="#63b8ff" stroke="#63b8ff" points="1070.39,-30.95 1078.87,-24.6 1068.28,-24.28 1070.39,-30.95"/>
</a>
</g>
</g>
<!-- Node23 -->
<g id="Node000023" class="node">
<title>Node23</title>
<g id="a_Node000023"><a xlink:title=" ">
<polygon fill="#e0e0e0" stroke="#999999" points="914,-30 776,-30 776,0 914,0 914,-30"/>
<text text-anchor="start" x="784" y="-18" font-family="Helvetica,sans-Serif" font-size="10.00">boost/type_traits/aligned</text>
<text text-anchor="middle" x="845" y="-7" font-family="Helvetica,sans-Serif" font-size="10.00">_storage.hpp</text>
</a>
</g>
</g>
<!-- Node22&#45;&gt;Node23 -->
<g id="edge33_Node000022_Node000023" class="edge">
<title>Node22&#45;&gt;Node23</title>
<g id="a_edge33_Node000022_Node000023"><a xlink:title=" ">
<path fill="none" stroke="#63b8ff" d="M896.04,-71.37C888.17,-62.83 875.8,-49.41 865.21,-37.92"/>
<polygon fill="#63b8ff" stroke="#63b8ff" points="867.59,-35.34 858.24,-30.36 862.44,-40.09 867.59,-35.34"/>
</a>
</g>
</g>
<!-- Node24 -->
<g id="Node000024" class="node">
<title>Node24</title>
<g id="a_Node000024"><a xlink:title=" ">
<polygon fill="#e0e0e0" stroke="#999999" points="976,-24.5 932,-24.5 932,-5.5 976,-5.5 976,-24.5"/>
<text text-anchor="middle" x="954" y="-12.5" font-family="Helvetica,sans-Serif" font-size="10.00">limits</text>
</a>
</g>
</g>
<!-- Node22&#45;&gt;Node24 -->
<g id="edge34_Node000022_Node000024" class="edge">
<title>Node22&#45;&gt;Node24</title>
<g id="a_edge34_Node000022_Node000024"><a xlink:title=" ">
<path fill="none" stroke="#63b8ff" d="M910.74,-71.37C918.38,-61.59 931.01,-45.42 940.66,-33.08"/>
<polygon fill="#63b8ff" stroke="#63b8ff" points="943.64,-34.94 947.04,-24.91 938.13,-30.63 943.64,-34.94"/>
</a>
</g>
</g>
<!-- Node25&#45;&gt;Node5 -->
<g id="edge40_Node000025_Node000005" class="edge">
<title>Node25&#45;&gt;Node5</title>
<g id="a_edge40_Node000025_Node000005"><a xlink:title=" ">
<path fill="none" stroke="#63b8ff" d="M225.55,-71.37C257.38,-60.17 313.09,-40.58 348.99,-27.96"/>
<polygon fill="#63b8ff" stroke="#63b8ff" points="350.28,-31.22 358.55,-24.6 347.96,-24.61 350.28,-31.22"/>
</a>
</g>
</g>
<!-- Node25&#45;&gt;Node6 -->
<g id="edge42_Node000025_Node000006" class="edge">
<title>Node25&#45;&gt;Node6</title>
<g id="a_edge42_Node000025_Node000006"><a xlink:title=" ">
<path fill="none" stroke="#63b8ff" d="M250.28,-75.69C284.66,-72.76 331.61,-68.9 373,-66 644.8,-46.95 713.56,-53.67 985,-30 1001.14,-28.59 1018.45,-26.77 1034.79,-24.92"/>
<polygon fill="#63b8ff" stroke="#63b8ff" points="1035.29,-28.38 1044.82,-23.76 1034.49,-21.43 1035.29,-28.38"/>
</a>
</g>
</g>
<!-- Node25&#45;&gt;Node12 -->
<g id="edge38_Node000025_Node000012" class="edge">
<title>Node25&#45;&gt;Node12</title>
<g id="a_edge38_Node000025_Node000012"><a xlink:title=" ">
<path fill="none" stroke="#63b8ff" d="M185.49,-71.37C166.29,-60.68 133.34,-42.35 110.65,-29.72"/>
<polygon fill="#63b8ff" stroke="#63b8ff" points="112.07,-26.5 101.63,-24.7 108.67,-32.62 112.07,-26.5"/>
</a>
</g>
</g>
<!-- Node25&#45;&gt;Node15 -->
<g id="edge41_Node000025_Node000015" class="edge">
<title>Node25&#45;&gt;Node15</title>
<g id="a_edge41_Node000025_Node000015"><a xlink:title=" ">
<path fill="none" stroke="#63b8ff" d="M213.95,-71.37C229.69,-60.87 256.5,-43 275.4,-30.4"/>
<polygon fill="#63b8ff" stroke="#63b8ff" points="277.57,-33.16 283.95,-24.7 273.69,-27.33 277.57,-33.16"/>
</a>
</g>
</g>
<!-- Node26 -->
<g id="Node000026" class="node">
<title>Node26</title>
<g id="a_Node000026"><a xlink:title=" ">
<polygon fill="#e0e0e0" stroke="#999999" points="262.5,-24.5 209.5,-24.5 209.5,-5.5 262.5,-5.5 262.5,-24.5"/>
<text text-anchor="middle" x="236" y="-12.5" font-family="Helvetica,sans-Serif" font-size="10.00">cstddef</text>
</a>
</g>
</g>
<!-- Node25&#45;&gt;Node26 -->
<g id="edge37_Node000025_Node000026" class="edge">
<title>Node25&#45;&gt;Node26</title>
<g id="a_edge37_Node000025_Node000026"><a xlink:title=" ">
<path fill="none" stroke="#63b8ff" d="M205.72,-71.37C210.96,-61.78 219.57,-46.05 226.27,-33.8"/>
<polygon fill="#63b8ff" stroke="#63b8ff" points="229.4,-35.36 231.13,-24.91 223.26,-32 229.4,-35.36"/>
</a>
</g>
</g>
<!-- Node27 -->
<g id="Node000027" class="node">
<title>Node27</title>
<g id="a_Node000027"><a xlink:title=" ">
<polygon fill="#e0e0e0" stroke="#999999" points="191.5,-24.5 134.5,-24.5 134.5,-5.5 191.5,-5.5 191.5,-24.5"/>
<text text-anchor="middle" x="163" y="-12.5" font-family="Helvetica,sans-Serif" font-size="10.00">ostream</text>
</a>
</g>
</g>
<!-- Node25&#45;&gt;Node27 -->
<g id="edge39_Node000025_Node000027" class="edge">
<title>Node25&#45;&gt;Node27</title>
<g id="a_edge39_Node000025_Node000027"><a xlink:title=" ">
<path fill="none" stroke="#63b8ff" d="M195.88,-71.37C190.18,-61.78 180.84,-46.05 173.57,-33.8"/>
<polygon fill="#63b8ff" stroke="#63b8ff" points="176.4,-31.72 168.29,-24.91 170.38,-35.29 176.4,-31.72"/>
</a>
</g>
</g>
<!-- Node28&#45;&gt;Node6 -->
<g id="edge49_Node000028_Node000006" class="edge">
<title>Node28&#45;&gt;Node6</title>
<g id="a_edge49_Node000028_Node000006"><a xlink:title=" ">
<path fill="none" stroke="#63b8ff" d="M1880.41,-76.35C1762.89,-68.66 1483.85,-49.87 1250,-30 1226.35,-27.99 1200.53,-25.56 1177.37,-23.28"/>
<polygon fill="#63b8ff" stroke="#63b8ff" points="1177.58,-19.79 1167.28,-22.29 1176.89,-26.75 1177.58,-19.79"/>
</a>
</g>
</g>
<!-- Node28&#45;&gt;Node16 -->
<g id="edge46_Node000028_Node000016" class="edge">
<title>Node28&#45;&gt;Node16</title>
<g id="a_edge46_Node000028_Node000016"><a xlink:title=" ">
<path fill="none" stroke="#63b8ff" d="M1880.44,-77.94C1795.64,-73.89 1631.01,-62.25 1495,-30 1492.49,-29.4 1489.91,-28.69 1487.34,-27.91"/>
<polygon fill="#63b8ff" stroke="#63b8ff" points="1488.22,-24.51 1477.63,-24.62 1485.98,-31.14 1488.22,-24.51"/>
</a>
</g>
</g>
<!-- Node29 -->
<g id="Node000029" class="node">
<title>Node29</title>
<g id="a_Node000029"><a xlink:title=" ">
<polygon fill="#e0e0e0" stroke="#999999" points="1994,-24.5 1944,-24.5 1944,-5.5 1994,-5.5 1994,-24.5"/>
<text text-anchor="middle" x="1969" y="-12.5" font-family="Helvetica,sans-Serif" font-size="10.00">cstring</text>
</a>
</g>
</g>
<!-- Node28&#45;&gt;Node29 -->
<g id="edge47_Node000028_Node000029" class="edge">
<title>Node28&#45;&gt;Node29</title>
<g id="a_edge47_Node000028_Node000029"><a xlink:title=" ">
<path fill="none" stroke="#63b8ff" d="M1941.32,-71.37C1946.06,-61.88 1953.82,-46.36 1959.92,-34.16"/>
<polygon fill="#63b8ff" stroke="#63b8ff" points="1963.21,-35.41 1964.55,-24.91 1956.94,-32.28 1963.21,-35.41"/>
</a>
</g>
</g>
<!-- Node30 -->
<g id="Node000030" class="node">
<title>Node30</title>
<g id="a_Node000030"><a xlink:title=" ">
<polygon fill="#e0e0e0" stroke="#999999" points="1926,-24.5 1882,-24.5 1882,-5.5 1926,-5.5 1926,-24.5"/>
<text text-anchor="middle" x="1904" y="-12.5" font-family="Helvetica,sans-Serif" font-size="10.00">glib.h</text>
</a>
</g>
</g>
<!-- Node28&#45;&gt;Node30 -->
<g id="edge48_Node000028_Node000030" class="edge">
<title>Node28&#45;&gt;Node30</title>
<g id="a_edge48_Node000028_Node000030"><a xlink:title=" ">
<path fill="none" stroke="#63b8ff" d="M1932.55,-71.37C1927.61,-61.78 1919.49,-46.05 1913.18,-33.8"/>
<polygon fill="#63b8ff" stroke="#63b8ff" points="1916.29,-32.19 1908.59,-24.91 1910.06,-35.4 1916.29,-32.19"/>
</a>
</g>
</g>
<!-- Node31&#45;&gt;Node3 -->
<g id="edge52_Node000031_Node000003" class="edge">
<title>Node31&#45;&gt;Node3</title>
<g id="a_edge52_Node000031_Node000003"><a xlink:title=" ">
<path fill="none" stroke="#63b8ff" d="M1454.12,-248.27C1545.14,-243.04 1753.8,-228.7 1776,-206 1821.38,-159.61 1808.47,-73.07 1799.88,-34.91"/>
<polygon fill="#63b8ff" stroke="#63b8ff" points="1803.17,-33.62 1797.42,-24.72 1796.36,-35.26 1803.17,-33.62"/>
</a>
</g>
</g>
<!-- Node31&#45;&gt;Node5 -->
<g id="edge56_Node000031_Node000005" class="edge">
<title>Node31&#45;&gt;Node5</title>
<g id="a_edge56_Node000031_Node000005"><a xlink:title=" ">
<path fill="none" stroke="#63b8ff" d="M1369.67,-245.43C1317.84,-238.73 1227.62,-225.45 1152,-206 1007.57,-168.85 965.79,-167.65 835,-96 816.13,-85.66 816.87,-74.27 797,-66 734.78,-40.12 544.12,-25.44 444.73,-19.35"/>
<polygon fill="#63b8ff" stroke="#63b8ff" points="444.72,-15.85 434.53,-18.74 444.3,-22.83 444.72,-15.85"/>
</a>
</g>
</g>
<!-- Node31&#45;&gt;Node6 -->
<g id="edge58_Node000031_Node000006" class="edge">
<title>Node31&#45;&gt;Node6</title>
<g id="a_edge58_Node000031_Node000006"><a xlink:title=" ">
<path fill="none" stroke="#63b8ff" d="M1369.86,-248.21C1307.03,-243.96 1192.95,-232.7 1163,-206 1159.7,-203.06 1124.96,-82.38 1111.39,-34.9"/>
<polygon fill="#63b8ff" stroke="#63b8ff" points="1114.67,-33.65 1108.56,-25 1107.94,-35.57 1114.67,-33.65"/>
</a>
</g>
</g>
<!-- Node31&#45;&gt;Node20 -->
<g id="edge62_Node000031_Node000020" class="edge">
<title>Node31&#45;&gt;Node20</title>
<g id="a_edge62_Node000031_Node000020"><a xlink:title=" ">
<path fill="none" stroke="#63b8ff" d="M1408.18,-241.91C1396.5,-215.67 1361.08,-136.11 1345.05,-100.08"/>
<polygon fill="#63b8ff" stroke="#63b8ff" points="1348.17,-98.48 1340.9,-90.77 1341.77,-101.33 1348.17,-98.48"/>
</a>
</g>
</g>
<!-- Node31&#45;&gt;Node21 -->
<g id="edge53_Node000031_Node000021" class="edge">
<title>Node31&#45;&gt;Node21</title>
<g id="a_edge53_Node000031_Node000021"><a xlink:title=" ">
<path fill="none" stroke="#63b8ff" d="M1454.06,-248.14C1541.67,-242.79 1737.26,-228.45 1757,-206 1825.26,-128.37 1646.11,-55.43 1566.2,-27.74"/>
<polygon fill="#63b8ff" stroke="#63b8ff" points="1567.11,-24.35 1556.52,-24.44 1564.86,-30.98 1567.11,-24.35"/>
</a>
</g>
</g>
<!-- Node32 -->
<g id="Node000032" class="node">
<title>Node32</title>
<g id="a_Node000032"><a xlink:title=" ">
<polygon fill="#e0e0e0" stroke="#999999" points="1619.5,-206 1536.5,-206 1536.5,-187 1619.5,-187 1619.5,-206"/>
<text text-anchor="middle" x="1578" y="-194" font-family="Helvetica,sans-Serif" font-size="10.00">sigc++/slot.h</text>
</a>
</g>
</g>
<!-- Node31&#45;&gt;Node32 -->
<g id="edge54_Node000031_Node000032" class="edge">
<title>Node31&#45;&gt;Node32</title>
<g id="a_edge54_Node000031_Node000032"><a xlink:title=" ">
<path fill="none" stroke="#63b8ff" d="M1438.67,-241.98C1466.54,-233.09 1510.45,-219.07 1541.52,-209.15"/>
<polygon fill="#63b8ff" stroke="#63b8ff" points="1542.66,-212.46 1551.12,-206.08 1540.53,-205.79 1542.66,-212.46"/>
</a>
</g>
</g>
<!-- Node33 -->
<g id="Node000033" class="node">
<title>Node33</title>
<g id="a_Node000033"><a xlink:title=" ">
<polygon fill="#e0e0e0" stroke="#999999" points="1748,-206 1638,-206 1638,-187 1748,-187 1748,-206"/>
<text text-anchor="middle" x="1693" y="-194" font-family="Helvetica,sans-Serif" font-size="10.00">sigc++/trackable.h</text>
</a>
</g>
</g>
<!-- Node31&#45;&gt;Node33 -->
<g id="edge55_Node000031_Node000033" class="edge">
<title>Node31&#45;&gt;Node33</title>
<g id="a_edge55_Node000031_Node000033"><a xlink:title=" ">
<path fill="none" stroke="#63b8ff" d="M1454.07,-242.57C1502.97,-233.34 1583.85,-218.09 1637.77,-207.92"/>
<polygon fill="#63b8ff" stroke="#63b8ff" points="1638.67,-211.31 1647.85,-206.02 1637.37,-204.43 1638.67,-211.31"/>
</a>
</g>
</g>
<!-- Node34 -->
<g id="Node000034" class="node">
<title>Node34</title>
<g id="a_Node000034"><a xlink:title=" ">
<polygon fill="#e0e0e0" stroke="#999999" points="1339.5,-151 1248.5,-151 1248.5,-132 1339.5,-132 1339.5,-151"/>
<text text-anchor="middle" x="1294" y="-139" font-family="Helvetica,sans-Serif" font-size="10.00">glibmm/main.h</text>
</a>
</g>
</g>
<!-- Node31&#45;&gt;Node34 -->
<g id="edge57_Node000031_Node000034" class="edge">
<title>Node31&#45;&gt;Node34</title>
<g id="a_edge57_Node000031_Node000034"><a xlink:title=" ">
<path fill="none" stroke="#63b8ff" d="M1402.34,-241.66C1382.36,-223.38 1336.26,-181.18 1311.12,-158.17"/>
<polygon fill="#63b8ff" stroke="#63b8ff" points="1313.2,-155.33 1303.46,-151.16 1308.47,-160.49 1313.2,-155.33"/>
</a>
</g>
</g>
<!-- Node35 -->
<g id="Node000035" class="node">
<title>Node35</title>
<g id="a_Node000035"><a xlink:href="crossthread_8h.html" target="_top" xlink:title=" ">
<polygon fill="white" stroke="#666666" points="1276,-206 1172,-206 1172,-187 1276,-187 1276,-206"/>
<text text-anchor="middle" x="1224" y="-194" font-family="Helvetica,sans-Serif" font-size="10.00">pbd/crossthread.h</text>
</a>
</g>
</g>
<!-- Node31&#45;&gt;Node35 -->
<g id="edge59_Node000031_Node000035" class="edge">
<title>Node31&#45;&gt;Node35</title>
<g id="a_edge59_Node000031_Node000035"><a xlink:title=" ">
<path fill="none" stroke="#63b8ff" d="M1381.79,-241.98C1349.96,-233.01 1299.64,-218.82 1264.4,-208.89"/>
<polygon fill="#63b8ff" stroke="#63b8ff" points="1265.02,-205.43 1254.44,-206.08 1263.12,-212.16 1265.02,-205.43"/>
</a>
</g>
</g>
<!-- Node36 -->
<g id="Node000036" class="node">
<title>Node36</title>
<g id="a_Node000036"><a xlink:href="pthread__utils_8h.html" target="_top" xlink:title=" ">
<polygon fill="white" stroke="#666666" points="1518,-206 1408,-206 1408,-187 1518,-187 1518,-206"/>
<text text-anchor="middle" x="1463" y="-194" font-family="Helvetica,sans-Serif" font-size="10.00">pbd/pthread_utils.h</text>
</a>
</g>
</g>
<!-- Node31&#45;&gt;Node36 -->
<g id="edge63_Node000031_Node000036" class="edge">
<title>Node31&#45;&gt;Node36</title>
<g id="a_edge63_Node000031_Node000036"><a xlink:title=" ">
<path fill="none" stroke="#63b8ff" d="M1420.42,-241.75C1427.77,-234.11 1438.63,-222.82 1447.54,-213.56"/>
<polygon fill="#63b8ff" stroke="#63b8ff" points="1450.32,-215.72 1454.74,-206.09 1445.28,-210.87 1450.32,-215.72"/>
</a>
</g>
</g>
<!-- Node35&#45;&gt;Node6 -->
<g id="edge61_Node000035_Node000006" class="edge">
<title>Node35&#45;&gt;Node6</title>
<g id="a_edge61_Node000035_Node000006"><a xlink:title=" ">
<path fill="none" stroke="#63b8ff" d="M1220.73,-186.76C1212.37,-165.03 1188.67,-107.35 1158,-66 1148.46,-53.14 1135.48,-40.66 1124.88,-31.38"/>
<polygon fill="#63b8ff" stroke="#63b8ff" points="1126.88,-28.49 1117,-24.68 1122.35,-33.82 1126.88,-28.49"/>
</a>
</g>
</g>
<!-- Node35&#45;&gt;Node34 -->
<g id="edge60_Node000035_Node000034" class="edge">
<title>Node35&#45;&gt;Node34</title>
<g id="a_edge60_Node000035_Node000034"><a xlink:title=" ">
<path fill="none" stroke="#63b8ff" d="M1235.25,-186.98C1245.8,-179 1261.8,-166.88 1274.44,-157.31"/>
<polygon fill="#63b8ff" stroke="#63b8ff" points="1276.69,-160 1282.55,-151.17 1272.46,-154.42 1276.69,-160"/>
</a>
</g>
</g>
<!-- Node36&#45;&gt;Node3 -->
<g id="edge66_Node000036_Node000003" class="edge">
<title>Node36&#45;&gt;Node3</title>
<g id="a_edge66_Node000036_Node000003"><a xlink:title=" ">
<path fill="none" stroke="#63b8ff" d="M1512.81,-186.93C1545.36,-180.07 1588.14,-168.64 1623,-151 1687.12,-118.56 1750.47,-60.27 1779.12,-32.11"/>
<polygon fill="#63b8ff" stroke="#63b8ff" points="1781.94,-34.24 1786.56,-24.7 1777,-29.28 1781.94,-34.24"/>
</a>
</g>
</g>
<!-- Node36&#45;&gt;Node4 -->
<g id="edge64_Node000036_Node000004" class="edge">
<title>Node36&#45;&gt;Node4</title>
<g id="a_edge64_Node000036_Node000004"><a xlink:title=" ">
<path fill="none" stroke="#63b8ff" d="M1463.19,-186.73C1463.27,-174.35 1462.68,-151.12 1458,-132 1450.43,-101.05 1447.55,-92.6 1430,-66 1421.61,-53.29 1409.79,-40.92 1399.97,-31.67"/>
<polygon fill="#63b8ff" stroke="#63b8ff" points="1402.07,-28.84 1392.32,-24.69 1397.35,-34.02 1402.07,-28.84"/>
</a>
</g>
</g>
<!-- Node36&#45;&gt;Node6 -->
<g id="edge68_Node000036_Node000006" class="edge">
<title>Node36&#45;&gt;Node6</title>
<g id="a_edge68_Node000036_Node000006"><a xlink:title=" ">
<path fill="none" stroke="#63b8ff" d="M1448.4,-186.98C1426.87,-174.51 1385.23,-150.71 1349,-132 1272.38,-92.42 1180.01,-49.65 1134.37,-28.84"/>
<polygon fill="#63b8ff" stroke="#63b8ff" points="1135.66,-25.58 1125.1,-24.62 1132.76,-31.95 1135.66,-25.58"/>
</a>
</g>
</g>
<!-- Node36&#45;&gt;Node13 -->
<g id="edge69_Node000036_Node000013" class="edge">
<title>Node36&#45;&gt;Node13</title>
<g id="a_edge69_Node000036_Node000013"><a xlink:title=" ">
<path fill="none" stroke="#63b8ff" d="M1407.79,-192.55C1287.01,-185.98 990.27,-169.32 742,-151 726.48,-149.86 709.61,-148.46 694.27,-147.14"/>
<polygon fill="#63b8ff" stroke="#63b8ff" points="694.19,-143.62 683.92,-146.24 693.58,-150.59 694.19,-143.62"/>
</a>
</g>
</g>
<!-- Node36&#45;&gt;Node21 -->
<g id="edge67_Node000036_Node000021" class="edge">
<title>Node36&#45;&gt;Node21</title>
<g id="a_edge67_Node000036_Node000021"><a xlink:title=" ">
<path fill="none" stroke="#63b8ff" d="M1474.46,-186.95C1484.44,-178.85 1498.48,-165.73 1506,-151 1525.42,-112.97 1529.41,-61.96 1530.06,-34.82"/>
<polygon fill="#63b8ff" stroke="#63b8ff" points="1533.56,-34.8 1530.16,-24.76 1526.56,-34.73 1533.56,-34.8"/>
</a>
</g>
</g>
<!-- Node37 -->
<g id="Node000037" class="node">
<title>Node37</title>
<g id="a_Node000037"><a xlink:title=" ">
<polygon fill="#e0e0e0" stroke="#999999" points="1613.5,-151 1558.5,-151 1558.5,-132 1613.5,-132 1613.5,-151"/>
<text text-anchor="middle" x="1586" y="-139" font-family="Helvetica,sans-Serif" font-size="10.00">signal.h</text>
</a>
</g>
</g>
<!-- Node36&#45;&gt;Node37 -->
<g id="edge65_Node000036_Node000037" class="edge">
<title>Node36&#45;&gt;Node37</title>
<g id="a_edge65_Node000036_Node000037"><a xlink:title=" ">
<path fill="none" stroke="#63b8ff" d="M1482.76,-186.98C1502.73,-178.38 1533.8,-164.99 1556.65,-155.15"/>
<polygon fill="#63b8ff" stroke="#63b8ff" points="1558.08,-158.34 1565.88,-151.17 1555.31,-151.91 1558.08,-158.34"/>
</a>
</g>
</g>
</g>
</svg>

<g id="navigator" transform="translate(0 0)" fill="#404254">
  <rect fill="#f2f5e9" fill-opacity="0.5" stroke="#606060" stroke-width=".5" x="0" y="0" width="60" height="60"/>
  <use id="zoomplus" xlink:href="#zoomPlus" x="17" y="9" onmousedown="handleZoom(evt,'in')"/>
  <use id="zoomminus" xlink:href="#zoomMin" x="42" y="9" onmousedown="handleZoom(evt,'out')"/>
  <use id="reset" xlink:href="#resetDef" x="30" y="36" onmousedown="handleReset()"/>
   <use id="arrowup" xlink:href="#arrowUp" x="0" y="0" onmousedown="handlePan(0,-1)"/>
  <use id="arrowright" xlink:href="#arrowRight" x="0" y="0" onmousedown="handlePan(1,0)"/>
  <use id="arrowdown" xlink:href="#arrowDown" x="0" y="0" onmousedown="handlePan(0,1)"/>
  <use id="arrowleft" xlink:href="#arrowLeft" x="0" y="0" onmousedown="handlePan(-1,0)"/>
</g>
<svg viewBox="0 0 15 15" width="100%" height="30px" preserveAspectRatio="xMaxYMin meet">
 <g id="arrow_out" transform="scale(0.3 0.3)">
  <a xlink:href="abstract__ui_8h__incl_org.svg" target="_base">
   <rect id="button" ry="5" rx="5" y="6" x="6" height="38" width="38"
        fill="#f2f5e9" fill-opacity="0.5" stroke="#606060" stroke-width="1.0"/>
   <path id="arrow"
     d="M 11.500037,31.436501 C 11.940474,20.09759 22.043105,11.32322 32.158766,21.979434 L 37.068811,17.246167 C 37.068811,17.246167 37.088388,32 37.088388,32 L 22.160133,31.978069 C 22.160133,31.978069 26.997745,27.140456 26.997745,27.140456 C 18.528582,18.264221 13.291696,25.230495 11.500037,31.436501 z"
     style="fill:#404040;"/>
  </a>
 </g>
</svg>

<style type='text/css'>
<![CDATA[
[data-mouse-over-selected='false'] { opacity: 0.7; }
[data-mouse-over-selected='true']  { opacity: 1.0; }
]]>
</style>
<script type="application/ecmascript"><![CDATA[
document.addEventListener('DOMContentLoaded', (event) => {
  highlightEdges();
  highlightAdjacentNodes();
});
]]></script>
</svg>
