<?xml version="1.0" encoding="UTF-8" standalone="no"?>
<!DOCTYPE svg PUBLIC "-//W3C//DTD SVG 1.1//EN"
 "http://www.w3.org/Graphics/SVG/1.1/DTD/svg11.dtd">
<!-- Generated by graphviz version 2.43.0 (0)
 -->
<!-- Title: abstract_ui.h Pages: 1 -->
<svg width="1948pt" height="203pt"
 viewBox="0.00 0.00 1948.00 203.00" xmlns="http://www.w3.org/2000/svg" xmlns:xlink="http://www.w3.org/1999/xlink">
<g id="graph0" class="graph" transform="scale(1 1) rotate(0) translate(4 199)">
<title>abstract_ui.h</title>
<!-- Node1 -->
<g id="Node000001" class="node">
<title>Node1</title>
<g id="a_Node000001"><a xlink:title=" ">
<polygon fill="#999999" stroke="#666666" points="775.5,-195 695.5,-195 695.5,-176 775.5,-176 775.5,-195"/>
<text text-anchor="middle" x="735.5" y="-183" font-family="Helvetica,sans-Serif" font-size="10.00">abstract_ui.h</text>
</a>
</g>
</g>
<!-- Node2 -->
<g id="Node000002" class="node">
<title>Node2</title>
<g id="a_Node000002"><a xlink:href="ardour__websockets_8h.html" target="_top" xlink:title=" ">
<polygon fill="white" stroke="#666666" points="119,-74 0,-74 0,-55 119,-55 119,-74"/>
<text text-anchor="middle" x="59.5" y="-62" font-family="Helvetica,sans-Serif" font-size="10.00">ardour_websockets.h</text>
</a>
</g>
</g>
<!-- Node1&#45;&gt;Node2 -->
<g id="edge1_Node000001_Node000002" class="edge">
<title>Node1&#45;&gt;Node2</title>
<g id="a_edge1_Node000001_Node000002"><a xlink:title=" ">
<path fill="none" stroke="#63b8ff" d="M685.29,-183.66C544.23,-180.92 151.43,-170.59 102.5,-140 78.19,-124.8 66.16,-90.49 61.66,-74.29"/>
<polygon fill="#63b8ff" stroke="#63b8ff" points="685.33,-187.16 695.4,-183.85 685.47,-180.16 685.33,-187.16"/>
</a>
</g>
</g>
<!-- Node3 -->
<g id="Node000003" class="node">
<title>Node3</title>
<g id="a_Node000003"><a xlink:href="cc121_8h.html" target="_top" xlink:title=" ">
<polygon fill="white" stroke="#666666" points="260.5,-134.5 206.5,-134.5 206.5,-115.5 260.5,-115.5 260.5,-134.5"/>
<text text-anchor="middle" x="233.5" y="-122.5" font-family="Helvetica,sans-Serif" font-size="10.00">cc121.h</text>
</a>
</g>
</g>
<!-- Node1&#45;&gt;Node3 -->
<g id="edge2_Node000001_Node000003" class="edge">
<title>Node1&#45;&gt;Node3</title>
<g id="a_edge2_Node000001_Node000003"><a xlink:title=" ">
<path fill="none" stroke="#63b8ff" d="M685.12,-183.08C600.22,-179.91 423.61,-169.99 277.5,-140 270.9,-138.65 263.9,-136.67 257.46,-134.63"/>
<polygon fill="#63b8ff" stroke="#63b8ff" points="685.14,-186.58 695.26,-183.44 685.39,-179.58 685.14,-186.58"/>
</a>
</g>
</g>
<!-- Node5 -->
<g id="Node000005" class="node">
<title>Node5</title>
<g id="a_Node000005"><a xlink:href="console1_8h.html" target="_top" xlink:title=" ">
<polygon fill="white" stroke="#666666" points="265,-74 196,-74 196,-55 265,-55 265,-74"/>
<text text-anchor="middle" x="230.5" y="-62" font-family="Helvetica,sans-Serif" font-size="10.00">console1.h</text>
</a>
</g>
</g>
<!-- Node1&#45;&gt;Node5 -->
<g id="edge4_Node000001_Node000005" class="edge">
<title>Node1&#45;&gt;Node5</title>
<g id="a_edge4_Node000001_Node000005"><a xlink:title=" ">
<path fill="none" stroke="#63b8ff" d="M685.09,-181.38C595.43,-175.38 411.96,-160.96 351.5,-140 306.75,-124.49 261.06,-90.34 241.01,-74.23"/>
<polygon fill="#63b8ff" stroke="#63b8ff" points="685.08,-184.89 695.29,-182.05 685.54,-177.9 685.08,-184.89"/>
</a>
</g>
</g>
<!-- Node8 -->
<g id="Node000008" class="node">
<title>Node8</title>
<g id="a_Node000008"><a xlink:href="contourdesign_8h.html" target="_top" xlink:title=" ">
<polygon fill="white" stroke="#666666" points="731,-134.5 636,-134.5 636,-115.5 731,-115.5 731,-134.5"/>
<text text-anchor="middle" x="683.5" y="-122.5" font-family="Helvetica,sans-Serif" font-size="10.00">contourdesign.h</text>
</a>
</g>
</g>
<!-- Node1&#45;&gt;Node8 -->
<g id="edge7_Node000001_Node000008" class="edge">
<title>Node1&#45;&gt;Node8</title>
<g id="a_edge7_Node000001_Node000008"><a xlink:title=" ">
<path fill="none" stroke="#63b8ff" d="M721.07,-168.27C711.4,-157.39 699.05,-143.49 691.2,-134.67"/>
<polygon fill="#63b8ff" stroke="#63b8ff" points="718.57,-170.72 727.83,-175.87 723.8,-166.07 718.57,-170.72"/>
</a>
</g>
</g>
<!-- Node11 -->
<g id="Node000011" class="node">
<title>Node11</title>
<g id="a_Node000011"><a xlink:href="faderport_8h.html" target="_top" xlink:title=" ">
<polygon fill="white" stroke="#666666" points="354,-74 283,-74 283,-55 354,-55 354,-74"/>
<text text-anchor="middle" x="318.5" y="-62" font-family="Helvetica,sans-Serif" font-size="10.00">faderport.h</text>
</a>
</g>
</g>
<!-- Node1&#45;&gt;Node11 -->
<g id="edge11_Node000001_Node000011" class="edge">
<title>Node1&#45;&gt;Node11</title>
<g id="a_edge11_Node000001_Node000011"><a xlink:title=" ">
<path fill="none" stroke="#63b8ff" d="M685.32,-181.91C603.09,-177.03 443.77,-164.64 393.5,-140 361.86,-124.49 335.49,-90.34 324.29,-74.23"/>
<polygon fill="#63b8ff" stroke="#63b8ff" points="685.24,-185.42 695.43,-182.5 685.65,-178.43 685.24,-185.42"/>
</a>
</g>
</g>
<!-- Node13 -->
<g id="Node000013" class="node">
<title>Node13</title>
<g id="a_Node000013"><a xlink:href="faderport8_8h.html" target="_top" xlink:title=" ">
<polygon fill="white" stroke="#666666" points="826,-134.5 749,-134.5 749,-115.5 826,-115.5 826,-134.5"/>
<text text-anchor="middle" x="787.5" y="-122.5" font-family="Helvetica,sans-Serif" font-size="10.00">faderport8.h</text>
</a>
</g>
</g>
<!-- Node1&#45;&gt;Node13 -->
<g id="edge13_Node000001_Node000013" class="edge">
<title>Node1&#45;&gt;Node13</title>
<g id="a_edge13_Node000001_Node000013"><a xlink:title=" ">
<path fill="none" stroke="#63b8ff" d="M749.93,-168.27C759.6,-157.39 771.95,-143.49 779.8,-134.67"/>
<polygon fill="#63b8ff" stroke="#63b8ff" points="747.2,-166.07 743.17,-175.87 752.43,-170.72 747.2,-166.07"/>
</a>
</g>
</g>
<!-- Node15 -->
<g id="Node000015" class="node">
<title>Node15</title>
<g id="a_Node000015"><a xlink:href="feedback_8h.html" target="_top" xlink:title=" ">
<polygon fill="white" stroke="#666666" points="183,-134.5 112,-134.5 112,-115.5 183,-115.5 183,-134.5"/>
<text text-anchor="middle" x="147.5" y="-122.5" font-family="Helvetica,sans-Serif" font-size="10.00">feedback.h</text>
</a>
</g>
</g>
<!-- Node1&#45;&gt;Node15 -->
<g id="edge15_Node000001_Node000015" class="edge">
<title>Node1&#45;&gt;Node15</title>
<g id="a_edge15_Node000001_Node000015"><a xlink:title=" ">
<path fill="none" stroke="#63b8ff" d="M685.08,-183.52C589.33,-180.97 374.88,-171.87 197.5,-140 189.87,-138.63 181.72,-136.6 174.27,-134.51"/>
<polygon fill="#63b8ff" stroke="#63b8ff" points="685.26,-187.03 695.34,-183.79 685.43,-180.03 685.26,-187.03"/>
</a>
</g>
</g>
<!-- Node16 -->
<g id="Node000016" class="node">
<title>Node16</title>
<g id="a_Node000016"><a xlink:href="generic__midi__control__protocol_8h.html" target="_top" xlink:title=" ">
<polygon fill="white" stroke="#666666" points="963,-140 844,-140 844,-110 963,-110 963,-140"/>
<text text-anchor="start" x="852" y="-128" font-family="Helvetica,sans-Serif" font-size="10.00">generic_midi_control</text>
<text text-anchor="middle" x="903.5" y="-117" font-family="Helvetica,sans-Serif" font-size="10.00">_protocol.h</text>
</a>
</g>
</g>
<!-- Node1&#45;&gt;Node16 -->
<g id="edge17_Node000001_Node000016" class="edge">
<title>Node1&#45;&gt;Node16</title>
<g id="a_edge17_Node000001_Node000016"><a xlink:title=" ">
<path fill="none" stroke="#63b8ff" d="M769.72,-172.58C796.77,-163.16 834.58,-150 863.11,-140.06"/>
<polygon fill="#63b8ff" stroke="#63b8ff" points="768.22,-169.4 759.93,-175.99 770.52,-176.01 768.22,-169.4"/>
</a>
</g>
</g>
<!-- Node17 -->
<g id="Node000017" class="node">
<title>Node17</title>
<g id="a_Node000017"><a xlink:href="gtk__ui_8h.html" target="_top" xlink:title=" ">
<polygon fill="white" stroke="#666666" points="1037.5,-134.5 981.5,-134.5 981.5,-115.5 1037.5,-115.5 1037.5,-134.5"/>
<text text-anchor="middle" x="1009.5" y="-122.5" font-family="Helvetica,sans-Serif" font-size="10.00">gtk_ui.h</text>
</a>
</g>
</g>
<!-- Node1&#45;&gt;Node17 -->
<g id="edge18_Node000001_Node000017" class="edge">
<title>Node1&#45;&gt;Node17</title>
<g id="a_edge18_Node000001_Node000017"><a xlink:title=" ">
<path fill="none" stroke="#63b8ff" d="M785.79,-177.5C833.96,-170.22 908.41,-157.44 971.5,-140 976.92,-138.5 982.67,-136.57 988,-134.63"/>
<polygon fill="#63b8ff" stroke="#63b8ff" points="785.01,-174.08 775.63,-179.02 786.04,-181.01 785.01,-174.08"/>
</a>
</g>
</g>
<!-- Node22 -->
<g id="Node000022" class="node">
<title>Node22</title>
<g id="a_Node000022"><a xlink:href="launch__control__xl_8h.html" target="_top" xlink:title=" ">
<polygon fill="white" stroke="#666666" points="1167,-134.5 1056,-134.5 1056,-115.5 1167,-115.5 1167,-134.5"/>
<text text-anchor="middle" x="1111.5" y="-122.5" font-family="Helvetica,sans-Serif" font-size="10.00">launch_control_xl.h</text>
</a>
</g>
</g>
<!-- Node1&#45;&gt;Node22 -->
<g id="edge23_Node000001_Node000022" class="edge">
<title>Node1&#45;&gt;Node22</title>
<g id="a_edge23_Node000001_Node000022"><a xlink:title=" ">
<path fill="none" stroke="#63b8ff" d="M786.14,-178.36C847.83,-170.63 955.14,-156.35 1046.5,-140 1055.48,-138.39 1065.1,-136.44 1074.12,-134.52"/>
<polygon fill="#63b8ff" stroke="#63b8ff" points="785.39,-174.93 775.9,-179.64 786.26,-181.87 785.39,-174.93"/>
</a>
</g>
</g>
<!-- Node24 -->
<g id="Node000024" class="node">
<title>Node24</title>
<g id="a_Node000024"><a xlink:href="launchkey__4_8h.html" target="_top" xlink:title=" ">
<polygon fill="white" stroke="#666666" points="458.5,-74 372.5,-74 372.5,-55 458.5,-55 458.5,-74"/>
<text text-anchor="middle" x="415.5" y="-62" font-family="Helvetica,sans-Serif" font-size="10.00">launchkey_4.h</text>
</a>
</g>
</g>
<!-- Node1&#45;&gt;Node24 -->
<g id="edge25_Node000001_Node000024" class="edge">
<title>Node1&#45;&gt;Node24</title>
<g id="a_edge25_Node000001_Node000024"><a xlink:title=" ">
<path fill="none" stroke="#63b8ff" d="M685.32,-185.43C601.92,-185.79 440.36,-181.01 404.5,-140 388.15,-121.3 402.13,-89.32 410.42,-74.07"/>
<polygon fill="#63b8ff" stroke="#63b8ff" points="685.36,-188.93 695.34,-185.36 685.31,-181.93 685.36,-188.93"/>
</a>
</g>
</g>
<!-- Node26 -->
<g id="Node000026" class="node">
<title>Node26</title>
<g id="a_Node000026"><a xlink:href="lppro_8h.html" target="_top" xlink:title=" ">
<polygon fill="white" stroke="#666666" points="526.5,-74 476.5,-74 476.5,-55 526.5,-55 526.5,-74"/>
<text text-anchor="middle" x="501.5" y="-62" font-family="Helvetica,sans-Serif" font-size="10.00">lppro.h</text>
</a>
</g>
</g>
<!-- Node1&#45;&gt;Node26 -->
<g id="edge27_Node000001_Node000026" class="edge">
<title>Node1&#45;&gt;Node26</title>
<g id="a_edge27_Node000001_Node000026"><a xlink:title=" ">
<path fill="none" stroke="#63b8ff" d="M685.57,-175.23C655.58,-168.31 617.39,-157.07 586.5,-140 553.87,-121.96 522.85,-89.66 509.03,-74.21"/>
<polygon fill="#63b8ff" stroke="#63b8ff" points="684.88,-178.66 695.4,-177.41 686.39,-171.82 684.88,-178.66"/>
</a>
</g>
</g>
<!-- Node28 -->
<g id="Node000028" class="node">
<title>Node28</title>
<g id="a_Node000028"><a xlink:href="lpx_8h.html" target="_top" xlink:title=" ">
<polygon fill="white" stroke="#666666" points="586,-74 545,-74 545,-55 586,-55 586,-74"/>
<text text-anchor="middle" x="565.5" y="-62" font-family="Helvetica,sans-Serif" font-size="10.00">lpx.h</text>
</a>
</g>
</g>
<!-- Node1&#45;&gt;Node28 -->
<g id="edge29_Node000001_Node000028" class="edge">
<title>Node1&#45;&gt;Node28</title>
<g id="a_edge29_Node000001_Node000028"><a xlink:title=" ">
<path fill="none" stroke="#63b8ff" d="M685.73,-173.59C662.65,-166.73 635.89,-156.07 615.5,-140 592.25,-121.68 575.97,-89.52 569.12,-74.15"/>
<polygon fill="#63b8ff" stroke="#63b8ff" points="684.8,-176.96 695.37,-176.3 686.69,-170.22 684.8,-176.96"/>
</a>
</g>
</g>
<!-- Node30 -->
<g id="Node000030" class="node">
<title>Node30</title>
<g id="a_Node000030"><a xlink:href="mackie__control__protocol_8h.html" target="_top" xlink:title=" ">
<polygon fill="white" stroke="#666666" points="1331.5,-134.5 1185.5,-134.5 1185.5,-115.5 1331.5,-115.5 1331.5,-134.5"/>
<text text-anchor="middle" x="1258.5" y="-122.5" font-family="Helvetica,sans-Serif" font-size="10.00">mackie_control_protocol.h</text>
</a>
</g>
</g>
<!-- Node1&#45;&gt;Node30 -->
<g id="edge31_Node000001_Node000030" class="edge">
<title>Node1&#45;&gt;Node30</title>
<g id="a_edge31_Node000001_Node000030"><a xlink:title=" ">
<path fill="none" stroke="#63b8ff" d="M785.67,-180.52C867.48,-173.77 1034.67,-158.98 1175.5,-140 1187.09,-138.44 1199.54,-136.49 1211.18,-134.54"/>
<polygon fill="#63b8ff" stroke="#63b8ff" points="785.33,-177.03 775.64,-181.34 785.9,-184.01 785.33,-177.03"/>
</a>
</g>
</g>
<!-- Node32 -->
<g id="Node000032" class="node">
<title>Node32</title>
<g id="a_Node000032"><a xlink:href="maschine2_8h.html" target="_top" xlink:title=" ">
<polygon fill="white" stroke="#666666" points="1429,-134.5 1350,-134.5 1350,-115.5 1429,-115.5 1429,-134.5"/>
<text text-anchor="middle" x="1389.5" y="-122.5" font-family="Helvetica,sans-Serif" font-size="10.00">maschine2.h</text>
</a>
</g>
</g>
<!-- Node1&#45;&gt;Node32 -->
<g id="edge33_Node000001_Node000032" class="edge">
<title>Node1&#45;&gt;Node32</title>
<g id="a_edge33_Node000001_Node000032"><a xlink:title=" ">
<path fill="none" stroke="#63b8ff" d="M786.1,-184.26C890.55,-183.02 1137.24,-176.12 1340.5,-140 1347.99,-138.67 1355.98,-136.65 1363.28,-134.56"/>
<polygon fill="#63b8ff" stroke="#63b8ff" points="785.81,-180.77 775.85,-184.37 785.89,-187.77 785.81,-180.77"/>
</a>
</g>
</g>
<!-- Node33 -->
<g id="Node000033" class="node">
<title>Node33</title>
<g id="a_Node000033"><a xlink:href="midi__surface_8h.html" target="_top" xlink:title=" ">
<polygon fill="white" stroke="#666666" points="503,-134.5 414,-134.5 414,-115.5 503,-115.5 503,-134.5"/>
<text text-anchor="middle" x="458.5" y="-122.5" font-family="Helvetica,sans-Serif" font-size="10.00">midi_surface.h</text>
</a>
</g>
</g>
<!-- Node1&#45;&gt;Node33 -->
<g id="edge34_Node000001_Node000033" class="edge">
<title>Node1&#45;&gt;Node33</title>
<g id="a_edge34_Node000001_Node000033"><a xlink:title=" ">
<path fill="none" stroke="#63b8ff" d="M685.31,-174.72C641.07,-165.99 574.89,-152.66 517.5,-140 509.79,-138.3 501.53,-136.39 493.71,-134.55"/>
<polygon fill="#63b8ff" stroke="#63b8ff" points="684.75,-178.18 695.24,-176.68 686.1,-171.31 684.75,-178.18"/>
</a>
</g>
</g>
<!-- Node34 -->
<g id="Node000034" class="node">
<title>Node34</title>
<g id="a_Node000034"><a xlink:href="push2_8h.html" target="_top" xlink:title=" ">
<polygon fill="white" stroke="#666666" points="659,-74 604,-74 604,-55 659,-55 659,-74"/>
<text text-anchor="middle" x="631.5" y="-62" font-family="Helvetica,sans-Serif" font-size="10.00">push2.h</text>
</a>
</g>
</g>
<!-- Node1&#45;&gt;Node34 -->
<g id="edge54_Node000001_Node000034" class="edge">
<title>Node1&#45;&gt;Node34</title>
<g id="a_edge54_Node000001_Node000034"><a xlink:title=" ">
<path fill="none" stroke="#63b8ff" d="M685.34,-176.82C663.43,-170.7 639.75,-159.72 626.5,-140 612.91,-119.77 621.98,-89.08 627.75,-74.2"/>
<polygon fill="#63b8ff" stroke="#63b8ff" points="684.69,-180.27 695.24,-179.3 686.39,-173.48 684.69,-180.27"/>
</a>
</g>
</g>
<!-- Node41 -->
<g id="Node000041" class="node">
<title>Node41</title>
<g id="a_Node000041"><a xlink:href="midi__ui_8h.html" target="_top" xlink:title=" ">
<polygon fill="white" stroke="#666666" points="1508.5,-134.5 1446.5,-134.5 1446.5,-115.5 1508.5,-115.5 1508.5,-134.5"/>
<text text-anchor="middle" x="1477.5" y="-122.5" font-family="Helvetica,sans-Serif" font-size="10.00">midi_ui.h</text>
</a>
</g>
</g>
<!-- Node1&#45;&gt;Node41 -->
<g id="edge47_Node000001_Node000041" class="edge">
<title>Node1&#45;&gt;Node41</title>
<g id="a_edge47_Node000001_Node000041"><a xlink:title=" ">
<path fill="none" stroke="#63b8ff" d="M786.02,-183.09C925.29,-178.91 1312.69,-165.3 1437.5,-140 1443.85,-138.71 1450.56,-136.66 1456.63,-134.51"/>
<polygon fill="#63b8ff" stroke="#63b8ff" points="785.54,-179.6 775.65,-183.4 785.74,-186.6 785.54,-179.6"/>
</a>
</g>
</g>
<!-- Node42 -->
<g id="Node000042" class="node">
<title>Node42</title>
<g id="a_Node000042"><a xlink:href="osc_8h.html" target="_top" xlink:title=" ">
<polygon fill="white" stroke="#666666" points="1568.5,-134.5 1526.5,-134.5 1526.5,-115.5 1568.5,-115.5 1568.5,-134.5"/>
<text text-anchor="middle" x="1547.5" y="-122.5" font-family="Helvetica,sans-Serif" font-size="10.00">osc.h</text>
</a>
</g>
</g>
<!-- Node1&#45;&gt;Node42 -->
<g id="edge48_Node000001_Node000042" class="edge">
<title>Node1&#45;&gt;Node42</title>
<g id="a_edge48_Node000001_Node000042"><a xlink:title=" ">
<path fill="none" stroke="#63b8ff" d="M786.21,-184.11C936.59,-182.56 1378.26,-175.07 1517.5,-140 1522.4,-138.76 1527.48,-136.72 1532.03,-134.58"/>
<polygon fill="#63b8ff" stroke="#63b8ff" points="785.86,-180.61 775.89,-184.21 785.93,-187.61 785.86,-180.61"/>
</a>
</g>
</g>
<!-- Node48 -->
<g id="Node000048" class="node">
<title>Node48</title>
<g id="a_Node000048"><a xlink:href="test__ui_8h.html" target="_top" xlink:title=" ">
<polygon fill="white" stroke="#666666" points="1646,-134.5 1587,-134.5 1587,-115.5 1646,-115.5 1646,-134.5"/>
<text text-anchor="middle" x="1616.5" y="-122.5" font-family="Helvetica,sans-Serif" font-size="10.00">test_ui.h</text>
</a>
</g>
</g>
<!-- Node1&#45;&gt;Node48 -->
<g id="edge55_Node000001_Node000048" class="edge">
<title>Node1&#45;&gt;Node48</title>
<g id="a_edge55_Node000001_Node000048"><a xlink:title=" ">
<path fill="none" stroke="#63b8ff" d="M785.89,-183.76C943.35,-181.14 1424.68,-170.77 1577.5,-140 1583.71,-138.75 1590.25,-136.71 1596.18,-134.56"/>
<polygon fill="#63b8ff" stroke="#63b8ff" points="785.5,-180.27 775.56,-183.93 785.62,-187.26 785.5,-180.27"/>
</a>
</g>
</g>
<!-- Node49 -->
<g id="Node000049" class="node">
<title>Node49</title>
<g id="a_Node000049"><a xlink:href="us2400__control__protocol_8h.html" target="_top" xlink:title=" ">
<polygon fill="white" stroke="#666666" points="1809,-134.5 1664,-134.5 1664,-115.5 1809,-115.5 1809,-134.5"/>
<text text-anchor="middle" x="1736.5" y="-122.5" font-family="Helvetica,sans-Serif" font-size="10.00">us2400_control_protocol.h</text>
</a>
</g>
</g>
<!-- Node1&#45;&gt;Node49 -->
<g id="edge56_Node000001_Node000049" class="edge">
<title>Node1&#45;&gt;Node49</title>
<g id="a_edge56_Node000001_Node000049"><a xlink:title=" ">
<path fill="none" stroke="#63b8ff" d="M785.86,-184.23C924.81,-183.03 1325.15,-176.4 1655.5,-140 1667.7,-138.66 1680.84,-136.63 1692.92,-134.54"/>
<polygon fill="#63b8ff" stroke="#63b8ff" points="785.51,-180.74 775.54,-184.32 785.57,-187.73 785.51,-180.74"/>
</a>
</g>
</g>
<!-- Node51 -->
<g id="Node000051" class="node">
<title>Node51</title>
<g id="a_Node000051"><a xlink:href="wiimote_8h.html" target="_top" xlink:title=" ">
<polygon fill="white" stroke="#666666" points="1892,-134.5 1827,-134.5 1827,-115.5 1892,-115.5 1892,-134.5"/>
<text text-anchor="middle" x="1859.5" y="-122.5" font-family="Helvetica,sans-Serif" font-size="10.00">wiimote.h</text>
</a>
</g>
</g>
<!-- Node1&#45;&gt;Node51 -->
<g id="edge58_Node000001_Node000051" class="edge">
<title>Node1&#45;&gt;Node51</title>
<g id="a_edge58_Node000001_Node000051"><a xlink:title=" ">
<path fill="none" stroke="#63b8ff" d="M785.73,-184.35C971.1,-183.49 1616.54,-177.81 1818.5,-140 1825.01,-138.78 1831.88,-136.75 1838.11,-134.6"/>
<polygon fill="#63b8ff" stroke="#63b8ff" points="785.7,-180.85 775.71,-184.39 785.73,-187.85 785.7,-180.85"/>
</a>
</g>
</g>
<!-- Node4 -->
<g id="Node000004" class="node">
<title>Node4</title>
<g id="a_Node000004"><a xlink:href="cc121_2gui_8h.html" target="_top" xlink:title=" ">
<polygon fill="white" stroke="#666666" points="178,-74 137,-74 137,-55 178,-55 178,-74"/>
<text text-anchor="middle" x="157.5" y="-62" font-family="Helvetica,sans-Serif" font-size="10.00">gui.h</text>
</a>
</g>
</g>
<!-- Node3&#45;&gt;Node4 -->
<g id="edge3_Node000003_Node000004" class="edge">
<title>Node3&#45;&gt;Node4</title>
<g id="a_edge3_Node000003_Node000004"><a xlink:title=" ">
<path fill="none" stroke="#63b8ff" d="M214.06,-109.04C199.71,-97.99 180.68,-83.34 168.76,-74.17"/>
<polygon fill="#63b8ff" stroke="#63b8ff" points="212.23,-112.04 222.29,-115.37 216.5,-106.49 212.23,-112.04"/>
</a>
</g>
</g>
<!-- Node6 -->
<g id="Node000006" class="node">
<title>Node6</title>
<g id="a_Node000006"><a xlink:href="c1__control_8h.html" target="_top" xlink:title=" ">
<polygon fill="white" stroke="#666666" points="232.5,-19 156.5,-19 156.5,0 232.5,0 232.5,-19"/>
<text text-anchor="middle" x="194.5" y="-7" font-family="Helvetica,sans-Serif" font-size="10.00">c1_control.h</text>
</a>
</g>
</g>
<!-- Node5&#45;&gt;Node6 -->
<g id="edge5_Node000005_Node000006" class="edge">
<title>Node5&#45;&gt;Node6</title>
<g id="a_edge5_Node000005_Node000006"><a xlink:title=" ">
<path fill="none" stroke="#63b8ff" d="M218.88,-46.39C212.68,-37.27 205.33,-26.45 200.33,-19.09"/>
<polygon fill="#63b8ff" stroke="#63b8ff" points="216.04,-48.44 224.56,-54.75 221.83,-44.51 216.04,-48.44"/>
</a>
</g>
</g>
<!-- Node7 -->
<g id="Node000007" class="node">
<title>Node7</title>
<g id="a_Node000007"><a xlink:href="c1__gui_8h.html" target="_top" xlink:title=" ">
<polygon fill="white" stroke="#666666" points="138,-19 81,-19 81,0 138,0 138,-19"/>
<text text-anchor="middle" x="109.5" y="-7" font-family="Helvetica,sans-Serif" font-size="10.00">c1_gui.h</text>
</a>
</g>
</g>
<!-- Node5&#45;&gt;Node7 -->
<g id="edge6_Node000005_Node000007" class="edge">
<title>Node5&#45;&gt;Node7</title>
<g id="a_edge6_Node000005_Node000007"><a xlink:title=" ">
<path fill="none" stroke="#63b8ff" d="M201.73,-50.9C179.38,-41.11 148.98,-27.79 129.29,-19.17"/>
<polygon fill="#63b8ff" stroke="#63b8ff" points="200.5,-54.18 211.06,-54.98 203.3,-47.77 200.5,-54.18"/>
</a>
</g>
</g>
<!-- Node9 -->
<g id="Node000009" class="node">
<title>Node9</title>
<g id="a_Node000009"><a xlink:href="button__config__widget_8h.html" target="_top" xlink:title=" ">
<polygon fill="white" stroke="#666666" points="1041.5,-19 911.5,-19 911.5,0 1041.5,0 1041.5,-19"/>
<text text-anchor="middle" x="976.5" y="-7" font-family="Helvetica,sans-Serif" font-size="10.00">button_config_widget.h</text>
</a>
</g>
</g>
<!-- Node8&#45;&gt;Node9 -->
<g id="edge8_Node000008_Node000009" class="edge">
<title>Node8&#45;&gt;Node9</title>
<g id="a_edge8_Node000008_Node000009"><a xlink:title=" ">
<path fill="none" stroke="#63b8ff" d="M684.6,-105.03C686.58,-89.24 691.97,-67.4 706.5,-55 714.41,-48.26 837.67,-29.94 914.89,-19.02"/>
<polygon fill="#63b8ff" stroke="#63b8ff" points="681.09,-104.97 683.68,-115.24 688.06,-105.6 681.09,-104.97"/>
</a>
</g>
</g>
<!-- Node10 -->
<g id="Node000010" class="node">
<title>Node10</title>
<g id="a_Node000010"><a xlink:href="jump__distance__widget_8h.html" target="_top" xlink:title=" ">
<polygon fill="white" stroke="#666666" points="851,-74 716,-74 716,-55 851,-55 851,-74"/>
<text text-anchor="middle" x="783.5" y="-62" font-family="Helvetica,sans-Serif" font-size="10.00">jump_distance_widget.h</text>
</a>
</g>
</g>
<!-- Node8&#45;&gt;Node10 -->
<g id="edge9_Node000008_Node000010" class="edge">
<title>Node8&#45;&gt;Node10</title>
<g id="a_edge9_Node000008_Node000010"><a xlink:title=" ">
<path fill="none" stroke="#63b8ff" d="M706.97,-110.27C726.06,-99.1 752.41,-83.69 768.68,-74.17"/>
<polygon fill="#63b8ff" stroke="#63b8ff" points="705.12,-107.3 698.26,-115.37 708.65,-113.34 705.12,-107.3"/>
</a>
</g>
</g>
<!-- Node10&#45;&gt;Node9 -->
<g id="edge10_Node000010_Node000009" class="edge">
<title>Node10&#45;&gt;Node9</title>
<g id="a_edge10_Node000010_Node000009"><a xlink:title=" ">
<path fill="none" stroke="#63b8ff" d="M824.25,-52.31C860.36,-42.39 912.33,-28.12 945.25,-19.08"/>
<polygon fill="#63b8ff" stroke="#63b8ff" points="823.22,-48.96 814.51,-54.98 825.08,-55.71 823.22,-48.96"/>
</a>
</g>
</g>
<!-- Node12 -->
<g id="Node000012" class="node">
<title>Node12</title>
<g id="a_Node000012"><a xlink:href="faderport_2gui_8h.html" target="_top" xlink:title=" ">
<polygon fill="white" stroke="#666666" points="292,-19 251,-19 251,0 292,0 292,-19"/>
<text text-anchor="middle" x="271.5" y="-7" font-family="Helvetica,sans-Serif" font-size="10.00">gui.h</text>
</a>
</g>
</g>
<!-- Node11&#45;&gt;Node12 -->
<g id="edge12_Node000011_Node000012" class="edge">
<title>Node11&#45;&gt;Node12</title>
<g id="a_edge12_Node000011_Node000012"><a xlink:title=" ">
<path fill="none" stroke="#63b8ff" d="M304.08,-47.24C295.84,-37.95 285.85,-26.68 279.12,-19.09"/>
<polygon fill="#63b8ff" stroke="#63b8ff" points="301.49,-49.59 310.74,-54.75 306.72,-44.94 301.49,-49.59"/>
</a>
</g>
</g>
<!-- Node14 -->
<g id="Node000014" class="node">
<title>Node14</title>
<g id="a_Node000014"><a xlink:href="faderport8_2gui_8h.html" target="_top" xlink:title=" ">
<polygon fill="white" stroke="#666666" points="910,-74 869,-74 869,-55 910,-55 910,-74"/>
<text text-anchor="middle" x="889.5" y="-62" font-family="Helvetica,sans-Serif" font-size="10.00">gui.h</text>
</a>
</g>
</g>
<!-- Node13&#45;&gt;Node14 -->
<g id="edge14_Node000013_Node000014" class="edge">
<title>Node13&#45;&gt;Node14</title>
<g id="a_edge14_Node000013_Node000014"><a xlink:title=" ">
<path fill="none" stroke="#63b8ff" d="M811.44,-110.27C830.91,-99.1 857.79,-83.69 874.39,-74.17"/>
<polygon fill="#63b8ff" stroke="#63b8ff" points="809.48,-107.36 802.55,-115.37 812.97,-113.43 809.48,-107.36"/>
</a>
</g>
</g>
<!-- Node15&#45;&gt;Node2 -->
<g id="edge16_Node000015_Node000002" class="edge">
<title>Node15&#45;&gt;Node2</title>
<g id="a_edge16_Node000015_Node000002"><a xlink:title=" ">
<path fill="none" stroke="#63b8ff" d="M125.93,-109.66C109.21,-98.55 86.6,-83.51 72.54,-74.17"/>
<polygon fill="#63b8ff" stroke="#63b8ff" points="124.25,-112.75 134.52,-115.37 128.13,-106.92 124.25,-112.75"/>
</a>
</g>
</g>
<!-- Node18 -->
<g id="Node000018" class="node">
<title>Node18</title>
<g id="a_Node000018"><a xlink:href="ardour__ui_8h.html" target="_top" xlink:title=" ">
<polygon fill="white" stroke="#666666" points="1116,-74 1045,-74 1045,-55 1116,-55 1116,-74"/>
<text text-anchor="middle" x="1080.5" y="-62" font-family="Helvetica,sans-Serif" font-size="10.00">ardour_ui.h</text>
</a>
</g>
</g>
<!-- Node17&#45;&gt;Node18 -->
<g id="edge19_Node000017_Node000018" class="edge">
<title>Node17&#45;&gt;Node18</title>
<g id="a_edge19_Node000017_Node000018"><a xlink:title=" ">
<path fill="none" stroke="#63b8ff" d="M1028.04,-108.72C1041.4,-97.71 1058.95,-83.25 1069.98,-74.17"/>
<polygon fill="#63b8ff" stroke="#63b8ff" points="1025.47,-106.31 1019.98,-115.37 1029.92,-111.71 1025.47,-106.31"/>
</a>
</g>
</g>
<!-- Node19 -->
<g id="Node000019" class="node">
<title>Node19</title>
<g id="a_Node000019"><a xlink:href="libs_2gtkmm2ext_2gtkmm2ext_2gui__thread_8h.html" target="_top" xlink:title=" ">
<polygon fill="white" stroke="#666666" points="1027,-74 950,-74 950,-55 1027,-55 1027,-74"/>
<text text-anchor="middle" x="988.5" y="-62" font-family="Helvetica,sans-Serif" font-size="10.00">gui_thread.h</text>
</a>
</g>
</g>
<!-- Node17&#45;&gt;Node19 -->
<g id="edge20_Node000017_Node000019" class="edge">
<title>Node17&#45;&gt;Node19</title>
<g id="a_edge20_Node000017_Node000019"><a xlink:title=" ">
<path fill="none" stroke="#63b8ff" d="M1002.97,-105.82C999.19,-95.28 994.59,-82.48 991.61,-74.17"/>
<polygon fill="#63b8ff" stroke="#63b8ff" points="999.73,-107.14 1006.4,-115.37 1006.32,-104.77 999.73,-107.14"/>
</a>
</g>
</g>
<!-- Node20 -->
<g id="Node000020" class="node">
<title>Node20</title>
<g id="a_Node000020"><a xlink:href="export__report_8h.html" target="_top" xlink:title=" ">
<polygon fill="white" stroke="#666666" points="1247.5,-19 1155.5,-19 1155.5,0 1247.5,0 1247.5,-19"/>
<text text-anchor="middle" x="1201.5" y="-7" font-family="Helvetica,sans-Serif" font-size="10.00">export_report.h</text>
</a>
</g>
</g>
<!-- Node19&#45;&gt;Node20 -->
<g id="edge21_Node000019_Node000020" class="edge">
<title>Node19&#45;&gt;Node20</title>
<g id="a_edge21_Node000019_Node000020"><a xlink:title=" ">
<path fill="none" stroke="#63b8ff" d="M1032.45,-52.56C1072.34,-42.64 1130.37,-28.2 1167.01,-19.08"/>
<polygon fill="#63b8ff" stroke="#63b8ff" points="1031.58,-49.17 1022.72,-54.98 1033.27,-55.97 1031.58,-49.17"/>
</a>
</g>
</g>
<!-- Node21 -->
<g id="Node000021" class="node">
<title>Node21</title>
<g id="a_Node000021"><a xlink:href="gtk2__ardour_2gui__thread_8h.html" target="_top" xlink:title=" ">
<polygon fill="white" stroke="#666666" points="1137,-19 1060,-19 1060,0 1137,0 1137,-19"/>
<text text-anchor="middle" x="1098.5" y="-7" font-family="Helvetica,sans-Serif" font-size="10.00">gui_thread.h</text>
</a>
</g>
</g>
<!-- Node19&#45;&gt;Node21 -->
<g id="edge22_Node000019_Node000021" class="edge">
<title>Node19&#45;&gt;Node21</title>
<g id="a_edge22_Node000019_Node000021"><a xlink:title=" ">
<path fill="none" stroke="#63b8ff" d="M1015.2,-50.63C1035.47,-40.87 1062.77,-27.71 1080.51,-19.17"/>
<polygon fill="#63b8ff" stroke="#63b8ff" points="1013.66,-47.49 1006.17,-54.98 1016.7,-53.8 1013.66,-47.49"/>
</a>
</g>
</g>
<!-- Node23 -->
<g id="Node000023" class="node">
<title>Node23</title>
<g id="a_Node000023"><a xlink:href="launch__control__xl_2gui_8h.html" target="_top" xlink:title=" ">
<polygon fill="white" stroke="#666666" points="1175,-74 1134,-74 1134,-55 1175,-55 1175,-74"/>
<text text-anchor="middle" x="1154.5" y="-62" font-family="Helvetica,sans-Serif" font-size="10.00">gui.h</text>
</a>
</g>
</g>
<!-- Node22&#45;&gt;Node23 -->
<g id="edge24_Node000022_Node000023" class="edge">
<title>Node22&#45;&gt;Node23</title>
<g id="a_edge24_Node000022_Node000023"><a xlink:title=" ">
<path fill="none" stroke="#63b8ff" d="M1123.9,-107.13C1131.82,-96.35 1141.77,-82.82 1148.13,-74.17"/>
<polygon fill="#63b8ff" stroke="#63b8ff" points="1120.95,-105.24 1117.84,-115.37 1126.59,-109.38 1120.95,-105.24"/>
</a>
</g>
</g>
<!-- Node25 -->
<g id="Node000025" class="node">
<title>Node25</title>
<g id="a_Node000025"><a xlink:href="launchkey__4_2gui_8h.html" target="_top" xlink:title=" ">
<polygon fill="white" stroke="#666666" points="351,-19 310,-19 310,0 351,0 351,-19"/>
<text text-anchor="middle" x="330.5" y="-7" font-family="Helvetica,sans-Serif" font-size="10.00">gui.h</text>
</a>
</g>
</g>
<!-- Node24&#45;&gt;Node25 -->
<g id="edge26_Node000024_Node000025" class="edge">
<title>Node24&#45;&gt;Node25</title>
<g id="a_edge26_Node000024_Node000025"><a xlink:title=" ">
<path fill="none" stroke="#63b8ff" d="M392.93,-49.42C377.5,-39.81 357.55,-27.37 344.41,-19.17"/>
<polygon fill="#63b8ff" stroke="#63b8ff" points="391.51,-52.66 401.84,-54.98 395.21,-46.72 391.51,-52.66"/>
</a>
</g>
</g>
<!-- Node27 -->
<g id="Node000027" class="node">
<title>Node27</title>
<g id="a_Node000027"><a xlink:href="launchpad__pro_2gui_8h.html" target="_top" xlink:title=" ">
<polygon fill="white" stroke="#666666" points="410,-19 369,-19 369,0 410,0 410,-19"/>
<text text-anchor="middle" x="389.5" y="-7" font-family="Helvetica,sans-Serif" font-size="10.00">gui.h</text>
</a>
</g>
</g>
<!-- Node26&#45;&gt;Node27 -->
<g id="edge28_Node000026_Node000027" class="edge">
<title>Node26&#45;&gt;Node27</title>
<g id="a_edge28_Node000026_Node000027"><a xlink:title=" ">
<path fill="none" stroke="#63b8ff" d="M474.31,-50.63C453.68,-40.87 425.88,-27.71 407.82,-19.17"/>
<polygon fill="#63b8ff" stroke="#63b8ff" points="472.97,-53.87 483.51,-54.98 475.96,-47.54 472.97,-53.87"/>
</a>
</g>
</g>
<!-- Node29 -->
<g id="Node000029" class="node">
<title>Node29</title>
<g id="a_Node000029"><a xlink:href="launchpad__x_2gui_8h.html" target="_top" xlink:title=" ">
<polygon fill="white" stroke="#666666" points="469,-19 428,-19 428,0 469,0 469,-19"/>
<text text-anchor="middle" x="448.5" y="-7" font-family="Helvetica,sans-Serif" font-size="10.00">gui.h</text>
</a>
</g>
</g>
<!-- Node28&#45;&gt;Node29 -->
<g id="edge30_Node000028_Node000029" class="edge">
<title>Node28&#45;&gt;Node29</title>
<g id="a_edge30_Node000028_Node000029"><a xlink:title=" ">
<path fill="none" stroke="#63b8ff" d="M537.39,-50.77C515.81,-40.99 486.59,-27.75 467.64,-19.17"/>
<polygon fill="#63b8ff" stroke="#63b8ff" points="536.15,-54.05 546.7,-54.98 539.04,-47.67 536.15,-54.05"/>
</a>
</g>
</g>
<!-- Node31 -->
<g id="Node000031" class="node">
<title>Node31</title>
<g id="a_Node000031"><a xlink:href="mackie_2strip_8h.html" target="_top" xlink:title=" ">
<polygon fill="white" stroke="#666666" points="1240,-74 1193,-74 1193,-55 1240,-55 1240,-74"/>
<text text-anchor="middle" x="1216.5" y="-62" font-family="Helvetica,sans-Serif" font-size="10.00">strip.h</text>
</a>
</g>
</g>
<!-- Node30&#45;&gt;Node31 -->
<g id="edge32_Node000030_Node000031" class="edge">
<title>Node30&#45;&gt;Node31</title>
<g id="a_edge32_Node000030_Node000031"><a xlink:title=" ">
<path fill="none" stroke="#63b8ff" d="M1246.39,-107.13C1238.65,-96.35 1228.94,-82.82 1222.72,-74.17"/>
<polygon fill="#63b8ff" stroke="#63b8ff" points="1243.63,-109.29 1252.3,-115.37 1249.31,-105.2 1243.63,-109.29"/>
</a>
</g>
</g>
<!-- Node33&#45;&gt;Node5 -->
<g id="edge35_Node000033_Node000005" class="edge">
<title>Node33&#45;&gt;Node5</title>
<g id="a_edge35_Node000033_Node000005"><a xlink:title=" ">
<path fill="none" stroke="#63b8ff" d="M415.5,-112.97C371.42,-101.66 303.81,-84.31 263.69,-74.02"/>
<polygon fill="#63b8ff" stroke="#63b8ff" points="414.79,-116.4 425.35,-115.49 416.53,-109.62 414.79,-116.4"/>
</a>
</g>
</g>
<!-- Node33&#45;&gt;Node11 -->
<g id="edge36_Node000033_Node000011" class="edge">
<title>Node33&#45;&gt;Node11</title>
<g id="a_edge36_Node000033_Node000011"><a xlink:title=" ">
<path fill="none" stroke="#63b8ff" d="M428.78,-111.58C401.74,-100.28 362.53,-83.9 338.88,-74.02"/>
<polygon fill="#63b8ff" stroke="#63b8ff" points="427.57,-114.87 438.14,-115.49 430.27,-108.41 427.57,-114.87"/>
</a>
</g>
</g>
<!-- Node33&#45;&gt;Node24 -->
<g id="edge37_Node000033_Node000024" class="edge">
<title>Node33&#45;&gt;Node24</title>
<g id="a_edge37_Node000033_Node000024"><a xlink:title=" ">
<path fill="none" stroke="#63b8ff" d="M446.1,-107.13C438.18,-96.35 428.23,-82.82 421.87,-74.17"/>
<polygon fill="#63b8ff" stroke="#63b8ff" points="443.41,-109.38 452.16,-115.37 449.05,-105.24 443.41,-109.38"/>
</a>
</g>
</g>
<!-- Node33&#45;&gt;Node26 -->
<g id="edge38_Node000033_Node000026" class="edge">
<title>Node33&#45;&gt;Node26</title>
<g id="a_edge38_Node000033_Node000026"><a xlink:title=" ">
<path fill="none" stroke="#63b8ff" d="M470.9,-107.13C478.82,-96.35 488.77,-82.82 495.13,-74.17"/>
<polygon fill="#63b8ff" stroke="#63b8ff" points="467.95,-105.24 464.84,-115.37 473.59,-109.38 467.95,-105.24"/>
</a>
</g>
</g>
<!-- Node33&#45;&gt;Node28 -->
<g id="edge39_Node000033_Node000028" class="edge">
<title>Node33&#45;&gt;Node28</title>
<g id="a_edge39_Node000033_Node000028"><a xlink:title=" ">
<path fill="none" stroke="#63b8ff" d="M483.33,-110.42C503.78,-99.24 532.16,-83.73 549.65,-74.17"/>
<polygon fill="#63b8ff" stroke="#63b8ff" points="481.38,-107.5 474.29,-115.37 484.74,-113.64 481.38,-107.5"/>
</a>
</g>
</g>
<!-- Node33&#45;&gt;Node34 -->
<g id="edge40_Node000033_Node000034" class="edge">
<title>Node33&#45;&gt;Node34</title>
<g id="a_edge40_Node000033_Node000034"><a xlink:title=" ">
<path fill="none" stroke="#63b8ff" d="M493.48,-112.17C526.94,-100.86 576.58,-84.07 606.31,-74.02"/>
<polygon fill="#63b8ff" stroke="#63b8ff" points="492.01,-108.97 483.66,-115.49 494.25,-115.61 492.01,-108.97"/>
</a>
</g>
</g>
<!-- Node35 -->
<g id="Node000035" class="node">
<title>Node35</title>
<g id="a_Node000035"><a xlink:href="cues_8h.html" target="_top" xlink:title=" ">
<polygon fill="white" stroke="#666666" points="771.5,-19 723.5,-19 723.5,0 771.5,0 771.5,-19"/>
<text text-anchor="middle" x="747.5" y="-7" font-family="Helvetica,sans-Serif" font-size="10.00">cues.h</text>
</a>
</g>
</g>
<!-- Node34&#45;&gt;Node35 -->
<g id="edge41_Node000034_Node000035" class="edge">
<title>Node34&#45;&gt;Node35</title>
<g id="a_edge41_Node000034_Node000035"><a xlink:title=" ">
<path fill="none" stroke="#63b8ff" d="M659.37,-50.77C680.77,-40.99 709.74,-27.75 728.52,-19.17"/>
<polygon fill="#63b8ff" stroke="#63b8ff" points="657.78,-47.65 650.14,-54.98 660.69,-54.01 657.78,-47.65"/>
</a>
</g>
</g>
<!-- Node36 -->
<g id="Node000036" class="node">
<title>Node36</title>
<g id="a_Node000036"><a xlink:href="push2_2gui_8h.html" target="_top" xlink:title=" ">
<polygon fill="white" stroke="#666666" points="831,-19 790,-19 790,0 831,0 831,-19"/>
<text text-anchor="middle" x="810.5" y="-7" font-family="Helvetica,sans-Serif" font-size="10.00">gui.h</text>
</a>
</g>
</g>
<!-- Node34&#45;&gt;Node36 -->
<g id="edge42_Node000034_Node000036" class="edge">
<title>Node34&#45;&gt;Node36</title>
<g id="a_edge42_Node000034_Node000036"><a xlink:title=" ">
<path fill="none" stroke="#63b8ff" d="M668.93,-52.42C705.67,-41.54 760.38,-25.34 789.87,-16.61"/>
<polygon fill="#63b8ff" stroke="#63b8ff" points="667.67,-49.14 659.08,-55.33 669.66,-55.85 667.67,-49.14"/>
</a>
</g>
</g>
<!-- Node37 -->
<g id="Node000037" class="node">
<title>Node37</title>
<g id="a_Node000037"><a xlink:href="surfaces_2push2_2mix_8h.html" target="_top" xlink:title=" ">
<polygon fill="white" stroke="#666666" points="893.5,-19 849.5,-19 849.5,0 893.5,0 893.5,-19"/>
<text text-anchor="middle" x="871.5" y="-7" font-family="Helvetica,sans-Serif" font-size="10.00">mix.h</text>
</a>
</g>
</g>
<!-- Node34&#45;&gt;Node37 -->
<g id="edge43_Node000034_Node000037" class="edge">
<title>Node34&#45;&gt;Node37</title>
<g id="a_edge43_Node000034_Node000037"><a xlink:title=" ">
<path fill="none" stroke="#63b8ff" d="M668.97,-55.71C719.71,-45.13 807.58,-26.65 839.5,-19 842.63,-18.25 845.92,-17.42 849.16,-16.58"/>
<polygon fill="#63b8ff" stroke="#63b8ff" points="668.12,-52.32 659.04,-57.78 669.55,-59.17 668.12,-52.32"/>
</a>
</g>
</g>
<!-- Node38 -->
<g id="Node000038" class="node">
<title>Node38</title>
<g id="a_Node000038"><a xlink:href="surfaces_2push2_2scale_8h.html" target="_top" xlink:title=" ">
<polygon fill="white" stroke="#666666" points="538,-19 487,-19 487,0 538,0 538,-19"/>
<text text-anchor="middle" x="512.5" y="-7" font-family="Helvetica,sans-Serif" font-size="10.00">scale.h</text>
</a>
</g>
</g>
<!-- Node34&#45;&gt;Node38 -->
<g id="edge44_Node000034_Node000038" class="edge">
<title>Node34&#45;&gt;Node38</title>
<g id="a_edge44_Node000034_Node000038"><a xlink:title=" ">
<path fill="none" stroke="#63b8ff" d="M603.2,-50.9C581.22,-41.11 551.32,-27.79 531.97,-19.17"/>
<polygon fill="#63b8ff" stroke="#63b8ff" points="601.82,-54.11 612.38,-54.98 604.67,-47.72 601.82,-54.11"/>
</a>
</g>
</g>
<!-- Node39 -->
<g id="Node000039" class="node">
<title>Node39</title>
<g id="a_Node000039"><a xlink:href="libs_2surfaces_2push2_2splash_8h.html" target="_top" xlink:title=" ">
<polygon fill="white" stroke="#666666" points="613,-19 556,-19 556,0 613,0 613,-19"/>
<text text-anchor="middle" x="584.5" y="-7" font-family="Helvetica,sans-Serif" font-size="10.00">splash.h</text>
</a>
</g>
</g>
<!-- Node34&#45;&gt;Node39 -->
<g id="edge45_Node000034_Node000039" class="edge">
<title>Node34&#45;&gt;Node39</title>
<g id="a_edge45_Node000034_Node000039"><a xlink:title=" ">
<path fill="none" stroke="#63b8ff" d="M617.08,-47.24C608.84,-37.95 598.85,-26.68 592.12,-19.09"/>
<polygon fill="#63b8ff" stroke="#63b8ff" points="614.49,-49.59 623.74,-54.75 619.72,-44.94 614.49,-49.59"/>
</a>
</g>
</g>
<!-- Node40 -->
<g id="Node000040" class="node">
<title>Node40</title>
<g id="a_Node000040"><a xlink:href="track__mix_8h.html" target="_top" xlink:title=" ">
<polygon fill="white" stroke="#666666" points="705.5,-19 631.5,-19 631.5,0 705.5,0 705.5,-19"/>
<text text-anchor="middle" x="668.5" y="-7" font-family="Helvetica,sans-Serif" font-size="10.00">track_mix.h</text>
</a>
</g>
</g>
<!-- Node34&#45;&gt;Node40 -->
<g id="edge46_Node000034_Node000040" class="edge">
<title>Node34&#45;&gt;Node40</title>
<g id="a_edge46_Node000034_Node000040"><a xlink:title=" ">
<path fill="none" stroke="#63b8ff" d="M643.45,-46.39C649.81,-37.27 657.37,-26.45 662.5,-19.09"/>
<polygon fill="#63b8ff" stroke="#63b8ff" points="640.46,-44.55 637.61,-54.75 646.2,-48.55 640.46,-44.55"/>
</a>
</g>
</g>
<!-- Node43 -->
<g id="Node000043" class="node">
<title>Node43</title>
<g id="a_Node000043"><a xlink:href="osc__cue__observer_8h.html" target="_top" xlink:title=" ">
<polygon fill="white" stroke="#666666" points="1650.5,-74 1538.5,-74 1538.5,-55 1650.5,-55 1650.5,-74"/>
<text text-anchor="middle" x="1594.5" y="-62" font-family="Helvetica,sans-Serif" font-size="10.00">osc_cue_observer.h</text>
</a>
</g>
</g>
<!-- Node42&#45;&gt;Node43 -->
<g id="edge49_Node000042_Node000043" class="edge">
<title>Node42&#45;&gt;Node43</title>
<g id="a_edge49_Node000042_Node000043"><a xlink:title=" ">
<path fill="none" stroke="#63b8ff" d="M1560.8,-107.45C1569.5,-96.62 1580.51,-82.91 1587.54,-74.17"/>
<polygon fill="#63b8ff" stroke="#63b8ff" points="1557.97,-105.38 1554.44,-115.37 1563.43,-109.76 1557.97,-105.38"/>
</a>
</g>
</g>
<!-- Node44 -->
<g id="Node000044" class="node">
<title>Node44</title>
<g id="a_Node000044"><a xlink:href="osc__global__observer_8h.html" target="_top" xlink:title=" ">
<polygon fill="white" stroke="#666666" points="1794,-74 1669,-74 1669,-55 1794,-55 1794,-74"/>
<text text-anchor="middle" x="1731.5" y="-62" font-family="Helvetica,sans-Serif" font-size="10.00">osc_global_observer.h</text>
</a>
</g>
</g>
<!-- Node42&#45;&gt;Node44 -->
<g id="edge50_Node000042_Node000044" class="edge">
<title>Node42&#45;&gt;Node44</title>
<g id="a_edge50_Node000042_Node000044"><a xlink:title=" ">
<path fill="none" stroke="#63b8ff" d="M1574.81,-111.42C1576.05,-110.92 1577.28,-110.45 1578.5,-110 1618.47,-95.25 1665.71,-82.14 1697.02,-74.04"/>
<polygon fill="#63b8ff" stroke="#63b8ff" points="1573.2,-108.3 1565.35,-115.42 1575.93,-114.74 1573.2,-108.3"/>
</a>
</g>
</g>
<!-- Node45 -->
<g id="Node000045" class="node">
<title>Node45</title>
<g id="a_Node000045"><a xlink:href="osc__gui_8h.html" target="_top" xlink:title=" ">
<polygon fill="white" stroke="#666666" points="1874.5,-74 1812.5,-74 1812.5,-55 1874.5,-55 1874.5,-74"/>
<text text-anchor="middle" x="1843.5" y="-62" font-family="Helvetica,sans-Serif" font-size="10.00">osc_gui.h</text>
</a>
</g>
</g>
<!-- Node42&#45;&gt;Node45 -->
<g id="edge51_Node000042_Node000045" class="edge">
<title>Node42&#45;&gt;Node45</title>
<g id="a_edge51_Node000042_Node000045"><a xlink:title=" ">
<path fill="none" stroke="#63b8ff" d="M1573.55,-111.65C1575.21,-111.05 1576.87,-110.49 1578.5,-110 1675.5,-80.9 1703.94,-92.53 1803.5,-74 1806.29,-73.48 1809.19,-72.92 1812.09,-72.33"/>
<polygon fill="#63b8ff" stroke="#63b8ff" points="1572.17,-108.43 1564.24,-115.46 1574.82,-114.91 1572.17,-108.43"/>
</a>
</g>
</g>
<!-- Node46 -->
<g id="Node000046" class="node">
<title>Node46</title>
<g id="a_Node000046"><a xlink:href="osc__route__observer_8h.html" target="_top" xlink:title=" ">
<polygon fill="white" stroke="#666666" points="1378.5,-74 1258.5,-74 1258.5,-55 1378.5,-55 1378.5,-74"/>
<text text-anchor="middle" x="1318.5" y="-62" font-family="Helvetica,sans-Serif" font-size="10.00">osc_route_observer.h</text>
</a>
</g>
</g>
<!-- Node42&#45;&gt;Node46 -->
<g id="edge52_Node000042_Node000046" class="edge">
<title>Node42&#45;&gt;Node46</title>
<g id="a_edge52_Node000042_Node000046"><a xlink:title=" ">
<path fill="none" stroke="#63b8ff" d="M1521.73,-111.55C1520.31,-111 1518.89,-110.47 1517.5,-110 1468.91,-93.45 1411.52,-81.37 1370.89,-74.01"/>
<polygon fill="#63b8ff" stroke="#63b8ff" points="1520.37,-114.77 1530.95,-115.5 1523.13,-108.34 1520.37,-114.77"/>
</a>
</g>
</g>
<!-- Node47 -->
<g id="Node000047" class="node">
<title>Node47</title>
<g id="a_Node000047"><a xlink:href="osc__select__observer_8h.html" target="_top" xlink:title=" ">
<polygon fill="white" stroke="#666666" points="1520.5,-74 1396.5,-74 1396.5,-55 1520.5,-55 1520.5,-74"/>
<text text-anchor="middle" x="1458.5" y="-62" font-family="Helvetica,sans-Serif" font-size="10.00">osc_select_observer.h</text>
</a>
</g>
</g>
<!-- Node42&#45;&gt;Node47 -->
<g id="edge53_Node000042_Node000047" class="edge">
<title>Node42&#45;&gt;Node47</title>
<g id="a_edge53_Node000042_Node000047"><a xlink:title=" ">
<path fill="none" stroke="#63b8ff" d="M1525.68,-109.66C1508.77,-98.55 1485.91,-83.51 1471.69,-74.17"/>
<polygon fill="#63b8ff" stroke="#63b8ff" points="1524.09,-112.8 1534.37,-115.37 1527.93,-106.95 1524.09,-112.8"/>
</a>
</g>
</g>
<!-- Node50 -->
<g id="Node000050" class="node">
<title>Node50</title>
<g id="a_Node000050"><a xlink:href="us2400_2strip_8h.html" target="_top" xlink:title=" ">
<polygon fill="white" stroke="#666666" points="1940,-74 1893,-74 1893,-55 1940,-55 1940,-74"/>
<text text-anchor="middle" x="1916.5" y="-62" font-family="Helvetica,sans-Serif" font-size="10.00">strip.h</text>
</a>
</g>
</g>
<!-- Node49&#45;&gt;Node50 -->
<g id="edge57_Node000049_Node000050" class="edge">
<title>Node49&#45;&gt;Node50</title>
<g id="a_edge57_Node000049_Node000050"><a xlink:title=" ">
<path fill="none" stroke="#63b8ff" d="M1772.25,-112.38C1808.05,-100.75 1862.11,-83.18 1892.88,-73.18"/>
<polygon fill="#63b8ff" stroke="#63b8ff" points="1771.1,-109.07 1762.67,-115.49 1773.27,-115.73 1771.1,-109.07"/>
</a>
</g>
</g>
</g>
</svg>
