<?xml version="1.0" encoding="UTF-8" standalone="no"?>
<!DOCTYPE svg PUBLIC "-//W3C//DTD SVG 1.1//EN"
 "http://www.w3.org/Graphics/SVG/1.1/DTD/svg11.dtd">
<!-- Generated by graphviz version 2.43.0 (0)
 -->
<!-- Title: alsa_slave.h Pages: 1 -->
<!--zoomable 214 -->

<svg id="main" version="1.1" xmlns="http://www.w3.org/2000/svg" xmlns:xlink="http://www.w3.org/1999/xlink" xml:space="preserve" onload="init(evt)">
<style type="text/css"><![CDATA[
.node, .edge {opacity: 0.7;}
.node.selected, .edge.selected {opacity: 1;}
.edge:hover path { stroke: red; }
.edge:hover polygon { stroke: red; fill: red; }
]]></style>

<defs>
  <circle id="rim" cx="0" cy="0" r="7"/>
  <circle id="rim2" cx="0" cy="0" r="3.5"/>
  <g id="zoomPlus">
    <use xlink:href="#rim" fill="#404040"><set attributeName="fill" to="#808080" begin="zoomplus.mouseover" end="zoomplus.mouseout"/></use>
    <path d="M-4,0h8M0,-4v8" fill="none" stroke="white" stroke-width="1.5" pointer-events="none"/>
  </g>
  <g id="zoomMin">
    <use xlink:href="#rim" fill="#404040"><set attributeName="fill" to="#808080" begin="zoomminus.mouseover" end="zoomminus.mouseout"/></use>
    <path d="M-4,0h8" fill="none" stroke="white" stroke-width="1.5" pointer-events="none"/>
  </g>
  <g id="arrowUp" transform="translate(30 24)">
    <use xlink:href="#rim"/>
    <path pointer-events="none" fill="none" stroke="white" stroke-width="1.5" d="M0,-3.0v7 M-2.5,-0.5L0,-3.0L2.5,-0.5"/>
  </g>
  <g id="arrowRight" transform="rotate(90) translate(36 -43)">
    <use xlink:href="#rim"/>
    <path pointer-events="none" fill="none" stroke="white" stroke-width="1.5" d="M0,-3.0v7 M-2.5,-0.5L0,-3.0L2.5,-0.5"/>
  </g>
  <g id="arrowDown" transform="rotate(180) translate(-30 -48)">
    <use xlink:href="#rim"/>
    <path pointer-events="none" fill="none" stroke="white" stroke-width="1.5" d="M0,-3.0v7 M-2.5,-0.5L0,-3.0L2.5,-0.5"/>
  </g>
  <g id="arrowLeft" transform="rotate(270) translate(-36 17)">
    <use xlink:href="#rim"/>
    <path pointer-events="none" fill="none" stroke="white" stroke-width="1.5" d="M0,-3.0v7 M-2.5,-0.5L0,-3.0L2.5,-0.5"/>
  </g>
  <g id="resetDef">
    <use xlink:href="#rim2" fill="#404040"><set attributeName="fill" to="#808080" begin="reset.mouseover" end="reset.mouseout"/></use>
  </g>
</defs>
<script type="application/ecmascript">
var viewWidth = 1554;
var viewHeight = 214;
var sectionId = 'dynsection-0';
</script>
<script type="application/ecmascript" xlink:href="svg.min.js"/>
<svg id="graph" class="graph">
<g id="viewport">
<title>alsa_slave.h</title>
<!-- Node1 -->
<g id="Node000001" class="node">
<title>Node1</title>
<g id="a_Node000001"><a xlink:title=" ">
<polygon fill="#999999" stroke="#666666" points="890.65,-206 813.65,-206 813.65,-187 890.65,-187 890.65,-206"/>
<text text-anchor="middle" x="852.15" y="-194" font-family="Helvetica,sans-Serif" font-size="10.00">alsa_slave.h</text>
</a>
</g>
</g>
<!-- Node2 -->
<g id="Node000002" class="node">
<title>Node2</title>
<g id="a_Node000002"><a xlink:title=" ">
<polygon fill="#e0e0e0" stroke="#999999" points="159.15,-24.5 109.15,-24.5 109.15,-5.5 159.15,-5.5 159.15,-24.5"/>
<text text-anchor="middle" x="134.15" y="-12.5" font-family="Helvetica,sans-Serif" font-size="10.00">atomic</text>
</a>
</g>
</g>
<!-- Node1&#45;&gt;Node2 -->
<g id="edge1_Node000001_Node000002" class="edge">
<title>Node1&#45;&gt;Node2</title>
<g id="a_edge1_Node000001_Node000002"><a xlink:title=" ">
<path fill="none" stroke="#63b8ff" d="M813.64,-193.97C655.22,-187.3 59.57,-158.2 6.15,-96 -2.54,-85.88 -1.37,-77.01 6.15,-66 7.59,-63.89 64.35,-42.24 101.79,-28.13"/>
<polygon fill="#63b8ff" stroke="#63b8ff" points="103.19,-31.34 111.32,-24.55 100.73,-24.79 103.19,-31.34"/>
</a>
</g>
</g>
<!-- Node3 -->
<g id="Node000003" class="node">
<title>Node3</title>
<g id="a_Node000003"><a xlink:title=" ">
<polygon fill="#e0e0e0" stroke="#999999" points="1345.65,-24.5 1282.65,-24.5 1282.65,-5.5 1345.65,-5.5 1345.65,-24.5"/>
<text text-anchor="middle" x="1314.15" y="-12.5" font-family="Helvetica,sans-Serif" font-size="10.00">pthread.h</text>
</a>
</g>
</g>
<!-- Node1&#45;&gt;Node3 -->
<g id="edge2_Node000001_Node000003" class="edge">
<title>Node1&#45;&gt;Node3</title>
<g id="a_edge2_Node000001_Node000003"><a xlink:title=" ">
<path fill="none" stroke="#63b8ff" d="M890.69,-192.02C987.57,-182.5 1237.6,-152.85 1295.15,-96 1311.22,-80.12 1314.68,-53.31 1314.99,-35.14"/>
<polygon fill="#63b8ff" stroke="#63b8ff" points="1318.48,-34.84 1314.84,-24.89 1311.48,-34.94 1318.48,-34.84"/>
</a>
</g>
</g>
<!-- Node4 -->
<g id="Node000004" class="node">
<title>Node4</title>
<g id="a_Node000004"><a xlink:href="ringbuffer_8h.html" target="_top" xlink:title=" ">
<polygon fill="white" stroke="#666666" points="108.65,-90.5 15.65,-90.5 15.65,-71.5 108.65,-71.5 108.65,-90.5"/>
<text text-anchor="middle" x="62.15" y="-78.5" font-family="Helvetica,sans-Serif" font-size="10.00">pbd/ringbuffer.h</text>
</a>
</g>
</g>
<!-- Node1&#45;&gt;Node4 -->
<g id="edge3_Node000001_Node000004" class="edge">
<title>Node1&#45;&gt;Node4</title>
<g id="a_edge3_Node000001_Node000004"><a xlink:title=" ">
<path fill="none" stroke="#63b8ff" d="M813.51,-190.9C705.72,-177.89 392.67,-139.01 134.15,-96 127.57,-94.9 120.66,-93.67 113.84,-92.4"/>
<polygon fill="#63b8ff" stroke="#63b8ff" points="114.44,-88.95 103.96,-90.53 113.13,-95.83 114.44,-88.95"/>
</a>
</g>
</g>
<!-- Node7 -->
<g id="Node000007" class="node">
<title>Node7</title>
<g id="a_Node000007"><a xlink:href="signals_8h.html" target="_top" xlink:title=" ">
<polygon fill="white" stroke="#666666" points="727.65,-151 646.65,-151 646.65,-132 727.65,-132 727.65,-151"/>
<text text-anchor="middle" x="687.15" y="-139" font-family="Helvetica,sans-Serif" font-size="10.00">pbd/signals.h</text>
</a>
</g>
</g>
<!-- Node1&#45;&gt;Node7 -->
<g id="edge7_Node000001_Node000007" class="edge">
<title>Node1&#45;&gt;Node7</title>
<g id="a_edge7_Node000001_Node000007"><a xlink:title=" ">
<path fill="none" stroke="#63b8ff" d="M825.64,-186.98C797.94,-178.09 754.29,-164.07 723.41,-154.15"/>
<polygon fill="#63b8ff" stroke="#63b8ff" points="724.46,-150.81 713.87,-151.08 722.32,-157.47 724.46,-150.81"/>
</a>
</g>
</g>
<!-- Node26 -->
<g id="Node000026" class="node">
<title>Node26</title>
<g id="a_Node000026"><a xlink:href="vresampler_8h.html" target="_top" xlink:title=" ">
<polygon fill="white" stroke="#666666" points="1497.65,-151 1342.65,-151 1342.65,-132 1497.65,-132 1497.65,-151"/>
<text text-anchor="middle" x="1420.15" y="-139" font-family="Helvetica,sans-Serif" font-size="10.00">zita&#45;resampler/vresampler.h</text>
</a>
</g>
</g>
<!-- Node1&#45;&gt;Node26 -->
<g id="edge38_Node000001_Node000026" class="edge">
<title>Node1&#45;&gt;Node26</title>
<g id="a_edge38_Node000001_Node000026"><a xlink:title=" ">
<path fill="none" stroke="#63b8ff" d="M890.74,-191.9C980.82,-183.49 1206.76,-162.41 1332.41,-150.69"/>
<polygon fill="#63b8ff" stroke="#63b8ff" points="1332.76,-154.17 1342.39,-149.76 1332.11,-147.2 1332.76,-154.17"/>
</a>
</g>
</g>
<!-- Node29 -->
<g id="Node000029" class="node">
<title>Node29</title>
<g id="a_Node000029"><a xlink:href="zita-alsa-pcmi_8h.html" target="_top" xlink:title=" ">
<polygon fill="white" stroke="#666666" points="1017.65,-151 922.65,-151 922.65,-132 1017.65,-132 1017.65,-151"/>
<text text-anchor="middle" x="970.15" y="-139" font-family="Helvetica,sans-Serif" font-size="10.00">zita&#45;alsa&#45;pcmi.h</text>
</a>
</g>
</g>
<!-- Node1&#45;&gt;Node29 -->
<g id="edge43_Node000001_Node000029" class="edge">
<title>Node1&#45;&gt;Node29</title>
<g id="a_edge43_Node000001_Node000029"><a xlink:title=" ">
<path fill="none" stroke="#63b8ff" d="M871.11,-186.98C890.18,-178.42 919.81,-165.11 941.7,-155.28"/>
<polygon fill="#63b8ff" stroke="#63b8ff" points="943.16,-158.46 950.85,-151.17 940.29,-152.07 943.16,-158.46"/>
</a>
</g>
</g>
<!-- Node4&#45;&gt;Node2 -->
<g id="edge4_Node000004_Node000002" class="edge">
<title>Node4&#45;&gt;Node2</title>
<g id="a_edge4_Node000004_Node000002"><a xlink:title=" ">
<path fill="none" stroke="#63b8ff" d="M71.86,-71.37C83.28,-61.21 102.47,-44.16 116.54,-31.65"/>
<polygon fill="#63b8ff" stroke="#63b8ff" points="118.98,-34.16 124.13,-24.91 114.33,-28.93 118.98,-34.16"/>
</a>
</g>
</g>
<!-- Node5 -->
<g id="Node000005" class="node">
<title>Node5</title>
<g id="a_Node000005"><a xlink:title=" ">
<polygon fill="#e0e0e0" stroke="#999999" points="87.15,-24.5 37.15,-24.5 37.15,-5.5 87.15,-5.5 87.15,-24.5"/>
<text text-anchor="middle" x="62.15" y="-12.5" font-family="Helvetica,sans-Serif" font-size="10.00">cstring</text>
</a>
</g>
</g>
<!-- Node4&#45;&gt;Node5 -->
<g id="edge5_Node000004_Node000005" class="edge">
<title>Node4&#45;&gt;Node5</title>
<g id="a_edge5_Node000004_Node000005"><a xlink:title=" ">
<path fill="none" stroke="#63b8ff" d="M62.15,-71.37C62.15,-62.16 62.15,-47.29 62.15,-35.27"/>
<polygon fill="#63b8ff" stroke="#63b8ff" points="65.65,-34.91 62.15,-24.91 58.65,-34.91 65.65,-34.91"/>
</a>
</g>
</g>
<!-- Node6 -->
<g id="Node000006" class="node">
<title>Node6</title>
<g id="a_Node000006"><a xlink:href="libpbd__visibility_8h.html" target="_top" xlink:title=" ">
<polygon fill="white" stroke="#666666" points="584.15,-24.5 462.15,-24.5 462.15,-5.5 584.15,-5.5 584.15,-24.5"/>
<text text-anchor="middle" x="523.15" y="-12.5" font-family="Helvetica,sans-Serif" font-size="10.00">pbd/libpbd_visibility.h</text>
</a>
</g>
</g>
<!-- Node4&#45;&gt;Node6 -->
<g id="edge6_Node000004_Node000006" class="edge">
<title>Node4&#45;&gt;Node6</title>
<g id="a_edge6_Node000004_Node000006"><a xlink:title=" ">
<path fill="none" stroke="#63b8ff" d="M108.97,-72.77C124.02,-70.51 140.78,-68.08 156.15,-66 287.92,-48.2 321.86,-51.05 453.15,-30 459.73,-28.95 466.63,-27.72 473.43,-26.43"/>
<polygon fill="#63b8ff" stroke="#63b8ff" points="474.12,-29.86 483.27,-24.53 472.78,-22.99 474.12,-29.86"/>
</a>
</g>
</g>
<!-- Node7&#45;&gt;Node2 -->
<g id="edge11_Node000007_Node000002" class="edge">
<title>Node7&#45;&gt;Node2</title>
<g id="a_edge11_Node000007_Node000002"><a xlink:title=" ">
<path fill="none" stroke="#63b8ff" d="M646.34,-139.73C528.48,-137.14 193.6,-127.1 156.15,-96 138.35,-81.22 134.22,-53.48 133.62,-34.87"/>
<polygon fill="#63b8ff" stroke="#63b8ff" points="137.12,-34.66 133.61,-24.66 130.12,-34.67 137.12,-34.66"/>
</a>
</g>
</g>
<!-- Node7&#45;&gt;Node6 -->
<g id="edge16_Node000007_Node000006" class="edge">
<title>Node7&#45;&gt;Node6</title>
<g id="a_edge16_Node000007_Node000006"><a xlink:title=" ">
<path fill="none" stroke="#63b8ff" d="M647.35,-131.96C623.52,-125.28 593.77,-114.03 572.15,-96 552.08,-79.26 537.91,-52.06 530.14,-34.1"/>
<polygon fill="#63b8ff" stroke="#63b8ff" points="533.33,-32.67 526.3,-24.74 526.86,-35.32 533.33,-32.67"/>
</a>
</g>
</g>
<!-- Node8 -->
<g id="Node000008" class="node">
<title>Node8</title>
<g id="a_Node000008"><a xlink:title=" ">
<polygon fill="#e0e0e0" stroke="#999999" points="759.65,-90.5 708.65,-90.5 708.65,-71.5 759.65,-71.5 759.65,-90.5"/>
<text text-anchor="middle" x="734.15" y="-78.5" font-family="Helvetica,sans-Serif" font-size="10.00">csignal</text>
</a>
</g>
</g>
<!-- Node7&#45;&gt;Node8 -->
<g id="edge8_Node000007_Node000008" class="edge">
<title>Node7&#45;&gt;Node8</title>
<g id="a_edge8_Node000007_Node000008"><a xlink:title=" ">
<path fill="none" stroke="#63b8ff" d="M694.09,-131.87C701.1,-123.14 712.11,-109.43 720.82,-98.59"/>
<polygon fill="#63b8ff" stroke="#63b8ff" points="723.65,-100.66 727.19,-90.67 718.2,-96.27 723.65,-100.66"/>
</a>
</g>
</g>
<!-- Node9 -->
<g id="Node000009" class="node">
<title>Node9</title>
<g id="a_Node000009"><a xlink:title=" ">
<polygon fill="#e0e0e0" stroke="#999999" points="1235.15,-24.5 1203.15,-24.5 1203.15,-5.5 1235.15,-5.5 1235.15,-24.5"/>
<text text-anchor="middle" x="1219.15" y="-12.5" font-family="Helvetica,sans-Serif" font-size="10.00">list</text>
</a>
</g>
</g>
<!-- Node7&#45;&gt;Node9 -->
<g id="edge9_Node000007_Node000009" class="edge">
<title>Node7&#45;&gt;Node9</title>
<g id="a_edge9_Node000007_Node000009"><a xlink:title=" ">
<path fill="none" stroke="#63b8ff" d="M727.95,-138.15C832.84,-131.88 1106.29,-113.99 1143.15,-96 1158.28,-88.61 1188.47,-53.65 1205.9,-32.47"/>
<polygon fill="#63b8ff" stroke="#63b8ff" points="1208.7,-34.57 1212.3,-24.6 1203.27,-30.15 1208.7,-34.57"/>
</a>
</g>
</g>
<!-- Node10 -->
<g id="Node000010" class="node">
<title>Node10</title>
<g id="a_Node000010"><a xlink:title=" ">
<polygon fill="#e0e0e0" stroke="#999999" points="640.15,-24.5 602.15,-24.5 602.15,-5.5 640.15,-5.5 640.15,-24.5"/>
<text text-anchor="middle" x="621.15" y="-12.5" font-family="Helvetica,sans-Serif" font-size="10.00">map</text>
</a>
</g>
</g>
<!-- Node7&#45;&gt;Node10 -->
<g id="edge10_Node000007_Node000010" class="edge">
<title>Node7&#45;&gt;Node10</title>
<g id="a_edge10_Node000007_Node000010"><a xlink:title=" ">
<path fill="none" stroke="#63b8ff" d="M646.63,-134.67C623.25,-129 595.68,-117.86 581.15,-96 567.19,-75 587.04,-48.44 603.43,-31.83"/>
<polygon fill="#63b8ff" stroke="#63b8ff" points="606.23,-34 611.03,-24.55 601.39,-28.94 606.23,-34"/>
</a>
</g>
</g>
<!-- Node11 -->
<g id="Node000011" class="node">
<title>Node11</title>
<g id="a_Node000011"><a xlink:title=" ">
<polygon fill="#e0e0e0" stroke="#999999" points="959.65,-24.5 856.65,-24.5 856.65,-5.5 959.65,-5.5 959.65,-24.5"/>
<text text-anchor="middle" x="908.15" y="-12.5" font-family="Helvetica,sans-Serif" font-size="10.00">glibmm/threads.h</text>
</a>
</g>
</g>
<!-- Node7&#45;&gt;Node11 -->
<g id="edge12_Node000007_Node000011" class="edge">
<title>Node7&#45;&gt;Node11</title>
<g id="a_edge12_Node000007_Node000011"><a xlink:title=" ">
<path fill="none" stroke="#63b8ff" d="M728.06,-138.48C786.71,-134.62 890.16,-123.95 913.15,-96 927.27,-78.83 921.82,-51.94 915.73,-34.14"/>
<polygon fill="#63b8ff" stroke="#63b8ff" points="918.94,-32.74 912.11,-24.63 912.39,-35.22 918.94,-32.74"/>
</a>
</g>
</g>
<!-- Node12 -->
<g id="Node000012" class="node">
<title>Node12</title>
<g id="a_Node000012"><a xlink:title=" ">
<polygon fill="#e0e0e0" stroke="#999999" points="904.15,-90.5 778.15,-90.5 778.15,-71.5 904.15,-71.5 904.15,-90.5"/>
<text text-anchor="middle" x="841.15" y="-78.5" font-family="Helvetica,sans-Serif" font-size="10.00">boost/bind/protect.hpp</text>
</a>
</g>
</g>
<!-- Node7&#45;&gt;Node12 -->
<g id="edge13_Node000007_Node000012" class="edge">
<title>Node7&#45;&gt;Node12</title>
<g id="a_edge13_Node000007_Node000012"><a xlink:title=" ">
<path fill="none" stroke="#63b8ff" d="M709.54,-131.99C735.78,-122.03 779.43,-105.45 809.21,-94.13"/>
<polygon fill="#63b8ff" stroke="#63b8ff" points="810.63,-97.34 818.73,-90.52 808.14,-90.8 810.63,-97.34"/>
</a>
</g>
</g>
<!-- Node13 -->
<g id="Node000013" class="node">
<title>Node13</title>
<g id="a_Node000013"><a xlink:title=" ">
<polygon fill="#e0e0e0" stroke="#999999" points="283.15,-96 165.15,-96 165.15,-66 283.15,-66 283.15,-96"/>
<text text-anchor="start" x="173.15" y="-84" font-family="Helvetica,sans-Serif" font-size="10.00">boost/enable_shared</text>
<text text-anchor="middle" x="224.15" y="-73" font-family="Helvetica,sans-Serif" font-size="10.00">_from_this.hpp</text>
</a>
</g>
</g>
<!-- Node7&#45;&gt;Node13 -->
<g id="edge14_Node000007_Node000013" class="edge">
<title>Node7&#45;&gt;Node13</title>
<g id="a_edge14_Node000007_Node000013"><a xlink:title=" ">
<path fill="none" stroke="#63b8ff" d="M646.61,-137.16C576.63,-131.12 428.43,-117.18 293.53,-96.13"/>
<polygon fill="#63b8ff" stroke="#63b8ff" points="293.85,-92.64 283.43,-94.54 292.76,-99.55 293.85,-92.64"/>
</a>
</g>
</g>
<!-- Node14 -->
<g id="Node000014" class="node">
<title>Node14</title>
<g id="a_Node000014"><a xlink:title=" ">
<polygon fill="#e0e0e0" stroke="#999999" points="357.15,-90.5 301.15,-90.5 301.15,-71.5 357.15,-71.5 357.15,-90.5"/>
<text text-anchor="middle" x="329.15" y="-78.5" font-family="Helvetica,sans-Serif" font-size="10.00">optional</text>
</a>
</g>
</g>
<!-- Node7&#45;&gt;Node14 -->
<g id="edge15_Node000007_Node000014" class="edge">
<title>Node7&#45;&gt;Node14</title>
<g id="a_edge15_Node000007_Node000014"><a xlink:title=" ">
<path fill="none" stroke="#63b8ff" d="M646.56,-137.8C585.09,-133.06 465.1,-121.24 366.15,-96 363.7,-95.38 361.2,-94.64 358.7,-93.84"/>
<polygon fill="#63b8ff" stroke="#63b8ff" points="359.84,-90.53 349.24,-90.54 357.53,-97.14 359.84,-90.53"/>
</a>
</g>
</g>
<!-- Node15 -->
<g id="Node000015" class="node">
<title>Node15</title>
<g id="a_Node000015"><a xlink:href="event__loop_8h.html" target="_top" xlink:title=" ">
<polygon fill="white" stroke="#666666" points="690.65,-90.5 589.65,-90.5 589.65,-71.5 690.65,-71.5 690.65,-90.5"/>
<text text-anchor="middle" x="640.15" y="-78.5" font-family="Helvetica,sans-Serif" font-size="10.00">pbd/event_loop.h</text>
</a>
</g>
</g>
<!-- Node7&#45;&gt;Node15 -->
<g id="edge17_Node000007_Node000015" class="edge">
<title>Node7&#45;&gt;Node15</title>
<g id="a_edge17_Node000007_Node000015"><a xlink:title=" ">
<path fill="none" stroke="#63b8ff" d="M680.22,-131.87C673.2,-123.14 662.19,-109.43 653.48,-98.59"/>
<polygon fill="#63b8ff" stroke="#63b8ff" points="656.11,-96.27 647.11,-90.67 650.65,-100.66 656.11,-96.27"/>
</a>
</g>
</g>
<!-- Node19 -->
<g id="Node000019" class="node">
<title>Node19</title>
<g id="a_Node000019"><a xlink:href="stack__allocator_8h.html" target="_top" xlink:title=" ">
<polygon fill="white" stroke="#666666" points="495.15,-90.5 375.15,-90.5 375.15,-71.5 495.15,-71.5 495.15,-90.5"/>
<text text-anchor="middle" x="435.15" y="-78.5" font-family="Helvetica,sans-Serif" font-size="10.00">pbd/stack_allocator.h</text>
</a>
</g>
</g>
<!-- Node7&#45;&gt;Node19 -->
<g id="edge26_Node000007_Node000019" class="edge">
<title>Node7&#45;&gt;Node19</title>
<g id="a_edge26_Node000007_Node000019"><a xlink:title=" ">
<path fill="none" stroke="#63b8ff" d="M650.51,-131.99C605.9,-121.64 530.52,-104.14 481.81,-92.83"/>
<polygon fill="#63b8ff" stroke="#63b8ff" points="482.37,-89.37 471.84,-90.52 480.79,-96.19 482.37,-89.37"/>
</a>
</g>
</g>
<!-- Node22 -->
<g id="Node000022" class="node">
<title>Node22</title>
<g id="a_Node000022"><a xlink:href="stacktrace_8h.html" target="_top" xlink:title=" ">
<polygon fill="white" stroke="#666666" points="1134.15,-90.5 1036.15,-90.5 1036.15,-71.5 1134.15,-71.5 1134.15,-90.5"/>
<text text-anchor="middle" x="1085.15" y="-78.5" font-family="Helvetica,sans-Serif" font-size="10.00">pbd/stacktrace.h</text>
</a>
</g>
</g>
<!-- Node7&#45;&gt;Node22 -->
<g id="edge30_Node000007_Node000022" class="edge">
<title>Node7&#45;&gt;Node22</title>
<g id="a_edge30_Node000007_Node000022"><a xlink:title=" ">
<path fill="none" stroke="#63b8ff" d="M727.81,-136.25C791.01,-129.38 916.57,-114.71 1022.15,-96 1027.67,-95.02 1033.43,-93.89 1039.14,-92.71"/>
<polygon fill="#63b8ff" stroke="#63b8ff" points="1040.23,-96.05 1049.28,-90.54 1038.77,-89.21 1040.23,-96.05"/>
</a>
</g>
</g>
<!-- Node24 -->
<g id="Node000024" class="node">
<title>Node24</title>
<g id="a_Node000024"><a xlink:title=" ">
<polygon fill="#e0e0e0" stroke="#999999" points="1038.15,-24.5 978.15,-24.5 978.15,-5.5 1038.15,-5.5 1038.15,-24.5"/>
<text text-anchor="middle" x="1008.15" y="-12.5" font-family="Helvetica,sans-Serif" font-size="10.00">iostream</text>
</a>
</g>
</g>
<!-- Node7&#45;&gt;Node24 -->
<g id="edge37_Node000007_Node000024" class="edge">
<title>Node7&#45;&gt;Node24</title>
<g id="a_edge37_Node000007_Node000024"><a xlink:title=" ">
<path fill="none" stroke="#63b8ff" d="M728.08,-140.57C778.69,-139.02 866.08,-130.91 931.15,-96 959.34,-80.87 983.34,-51.74 996.74,-33.11"/>
<polygon fill="#63b8ff" stroke="#63b8ff" points="999.76,-34.9 1002.59,-24.69 994.01,-30.91 999.76,-34.9"/>
</a>
</g>
</g>
<!-- Node15&#45;&gt;Node2 -->
<g id="edge18_Node000015_Node000002" class="edge">
<title>Node15&#45;&gt;Node2</title>
<g id="a_edge18_Node000015_Node000002"><a xlink:title=" ">
<path fill="none" stroke="#63b8ff" d="M589.61,-74.01C512.93,-64.86 362.65,-46.71 235.15,-30 213.28,-27.13 188.77,-23.74 169.37,-21.01"/>
<polygon fill="#63b8ff" stroke="#63b8ff" points="169.85,-17.55 159.46,-19.61 168.87,-24.48 169.85,-17.55"/>
</a>
</g>
</g>
<!-- Node15&#45;&gt;Node3 -->
<g id="edge23_Node000015_Node000003" class="edge">
<title>Node15&#45;&gt;Node3</title>
<g id="a_edge23_Node000015_Node000003"><a xlink:title=" ">
<path fill="none" stroke="#63b8ff" d="M672.35,-71.47C681.29,-69.38 691.05,-67.35 700.15,-66 939.82,-30.35 1003.94,-61.83 1244.15,-30 1253.44,-28.77 1263.36,-27.04 1272.71,-25.22"/>
<polygon fill="#63b8ff" stroke="#63b8ff" points="1273.48,-28.64 1282.59,-23.23 1272.09,-21.78 1273.48,-28.64"/>
</a>
</g>
</g>
<!-- Node15&#45;&gt;Node6 -->
<g id="edge25_Node000015_Node000006" class="edge">
<title>Node15&#45;&gt;Node6</title>
<g id="a_edge25_Node000015_Node000006"><a xlink:title=" ">
<path fill="none" stroke="#63b8ff" d="M624.37,-71.37C604.75,-60.63 571.01,-42.18 547.93,-29.55"/>
<polygon fill="#63b8ff" stroke="#63b8ff" points="549.51,-26.43 539.05,-24.7 546.15,-32.57 549.51,-26.43"/>
</a>
</g>
</g>
<!-- Node15&#45;&gt;Node10 -->
<g id="edge21_Node000015_Node000010" class="edge">
<title>Node15&#45;&gt;Node10</title>
<g id="a_edge21_Node000015_Node000010"><a xlink:title=" ">
<path fill="none" stroke="#63b8ff" d="M637.59,-71.37C634.8,-61.97 630.26,-46.67 626.65,-34.53"/>
<polygon fill="#63b8ff" stroke="#63b8ff" points="630,-33.5 623.79,-24.91 623.29,-35.49 630,-33.5"/>
</a>
</g>
</g>
<!-- Node15&#45;&gt;Node11 -->
<g id="edge24_Node000015_Node000011" class="edge">
<title>Node15&#45;&gt;Node11</title>
<g id="a_edge24_Node000015_Node000011"><a xlink:title=" ">
<path fill="none" stroke="#63b8ff" d="M676.02,-71.44C724.25,-59.92 810.05,-39.43 862.74,-26.84"/>
<polygon fill="#63b8ff" stroke="#63b8ff" points="863.58,-30.24 872.5,-24.51 861.96,-23.43 863.58,-30.24"/>
</a>
</g>
</g>
<!-- Node16 -->
<g id="Node000016" class="node">
<title>Node16</title>
<g id="a_Node000016"><a xlink:title=" ">
<polygon fill="#e0e0e0" stroke="#999999" points="702.15,-24.5 658.15,-24.5 658.15,-5.5 702.15,-5.5 702.15,-24.5"/>
<text text-anchor="middle" x="680.15" y="-12.5" font-family="Helvetica,sans-Serif" font-size="10.00">string</text>
</a>
</g>
</g>
<!-- Node15&#45;&gt;Node16 -->
<g id="edge19_Node000015_Node000016" class="edge">
<title>Node15&#45;&gt;Node16</title>
<g id="a_edge19_Node000015_Node000016"><a xlink:title=" ">
<path fill="none" stroke="#63b8ff" d="M645.55,-71.37C651.59,-61.69 661.56,-45.74 669.25,-33.44"/>
<polygon fill="#63b8ff" stroke="#63b8ff" points="672.25,-35.24 674.58,-24.91 666.32,-31.53 672.25,-35.24"/>
</a>
</g>
</g>
<!-- Node17 -->
<g id="Node000017" class="node">
<title>Node17</title>
<g id="a_Node000017"><a xlink:title=" ">
<polygon fill="#e0e0e0" stroke="#999999" points="767.65,-24.5 720.65,-24.5 720.65,-5.5 767.65,-5.5 767.65,-24.5"/>
<text text-anchor="middle" x="744.15" y="-12.5" font-family="Helvetica,sans-Serif" font-size="10.00">vector</text>
</a>
</g>
</g>
<!-- Node15&#45;&gt;Node17 -->
<g id="edge20_Node000015_Node000017" class="edge">
<title>Node15&#45;&gt;Node17</title>
<g id="a_edge20_Node000015_Node000017"><a xlink:title=" ">
<path fill="none" stroke="#63b8ff" d="M654.18,-71.37C671.39,-60.78 700.81,-42.67 721.3,-30.06"/>
<polygon fill="#63b8ff" stroke="#63b8ff" points="723.33,-32.92 730.01,-24.7 719.66,-26.96 723.33,-32.92"/>
</a>
</g>
</g>
<!-- Node18 -->
<g id="Node000018" class="node">
<title>Node18</title>
<g id="a_Node000018"><a xlink:title=" ">
<polygon fill="#e0e0e0" stroke="#999999" points="838.65,-24.5 785.65,-24.5 785.65,-5.5 838.65,-5.5 838.65,-24.5"/>
<text text-anchor="middle" x="812.15" y="-12.5" font-family="Helvetica,sans-Serif" font-size="10.00">stdint.h</text>
</a>
</g>
</g>
<!-- Node15&#45;&gt;Node18 -->
<g id="edge22_Node000015_Node000018" class="edge">
<title>Node15&#45;&gt;Node18</title>
<g id="a_edge22_Node000015_Node000018"><a xlink:title=" ">
<path fill="none" stroke="#63b8ff" d="M664.49,-71.37C691.94,-61.58 737.89,-45.01 777.15,-30 778.56,-29.46 780.01,-28.9 781.46,-28.34"/>
<polygon fill="#63b8ff" stroke="#63b8ff" points="783.07,-31.47 791.09,-24.54 780.51,-24.95 783.07,-31.47"/>
</a>
</g>
</g>
<!-- Node19&#45;&gt;Node6 -->
<g id="edge29_Node000019_Node000006" class="edge">
<title>Node19&#45;&gt;Node6</title>
<g id="a_edge29_Node000019_Node000006"><a xlink:title=" ">
<path fill="none" stroke="#63b8ff" d="M447.02,-71.37C461.32,-60.97 485.58,-43.32 502.87,-30.75"/>
<polygon fill="#63b8ff" stroke="#63b8ff" points="505.16,-33.41 511.19,-24.7 501.04,-27.75 505.16,-33.41"/>
</a>
</g>
</g>
<!-- Node20 -->
<g id="Node000020" class="node">
<title>Node20</title>
<g id="a_Node000020"><a xlink:title=" ">
<polygon fill="#e0e0e0" stroke="#999999" points="444.15,-30 306.15,-30 306.15,0 444.15,0 444.15,-30"/>
<text text-anchor="start" x="314.15" y="-18" font-family="Helvetica,sans-Serif" font-size="10.00">boost/type_traits/aligned</text>
<text text-anchor="middle" x="375.15" y="-7" font-family="Helvetica,sans-Serif" font-size="10.00">_storage.hpp</text>
</a>
</g>
</g>
<!-- Node19&#45;&gt;Node20 -->
<g id="edge27_Node000019_Node000020" class="edge">
<title>Node19&#45;&gt;Node20</title>
<g id="a_edge27_Node000019_Node000020"><a xlink:title=" ">
<path fill="none" stroke="#63b8ff" d="M427.06,-71.37C419.05,-62.83 406.47,-49.41 395.7,-37.92"/>
<polygon fill="#63b8ff" stroke="#63b8ff" points="398.01,-35.26 388.61,-30.36 392.9,-40.05 398.01,-35.26"/>
</a>
</g>
</g>
<!-- Node21 -->
<g id="Node000021" class="node">
<title>Node21</title>
<g id="a_Node000021"><a xlink:title=" ">
<polygon fill="#e0e0e0" stroke="#999999" points="288.15,-24.5 244.15,-24.5 244.15,-5.5 288.15,-5.5 288.15,-24.5"/>
<text text-anchor="middle" x="266.15" y="-12.5" font-family="Helvetica,sans-Serif" font-size="10.00">limits</text>
</a>
</g>
</g>
<!-- Node19&#45;&gt;Node21 -->
<g id="edge28_Node000019_Node000021" class="edge">
<title>Node19&#45;&gt;Node21</title>
<g id="a_edge28_Node000019_Node000021"><a xlink:title=" ">
<path fill="none" stroke="#63b8ff" d="M409.75,-71.45C381.89,-61.92 335.99,-45.78 297.15,-30 295.98,-29.52 294.79,-29.03 293.59,-28.53"/>
<polygon fill="#63b8ff" stroke="#63b8ff" points="294.97,-25.31 284.41,-24.53 292.18,-31.73 294.97,-25.31"/>
</a>
</g>
</g>
<!-- Node22&#45;&gt;Node6 -->
<g id="edge36_Node000022_Node000006" class="edge">
<title>Node22&#45;&gt;Node6</title>
<g id="a_edge36_Node000022_Node000006"><a xlink:title=" ">
<path fill="none" stroke="#63b8ff" d="M1035.81,-75.59C928.7,-65.93 677.73,-42.73 593.15,-30 586.4,-28.98 579.31,-27.76 572.34,-26.46"/>
<polygon fill="#63b8ff" stroke="#63b8ff" points="572.76,-22.97 562.28,-24.52 571.43,-29.85 572.76,-22.97"/>
</a>
</g>
</g>
<!-- Node22&#45;&gt;Node9 -->
<g id="edge35_Node000022_Node000009" class="edge">
<title>Node22&#45;&gt;Node9</title>
<g id="a_edge35_Node000022_Node000009"><a xlink:title=" ">
<path fill="none" stroke="#63b8ff" d="M1105.07,-71.44C1127.1,-61.84 1163.53,-45.57 1194.15,-30 1194.46,-29.84 1194.77,-29.69 1195.08,-29.53"/>
<polygon fill="#63b8ff" stroke="#63b8ff" points="1197.03,-32.45 1204.19,-24.64 1193.72,-26.28 1197.03,-32.45"/>
</a>
</g>
</g>
<!-- Node22&#45;&gt;Node11 -->
<g id="edge34_Node000022_Node000011" class="edge">
<title>Node22&#45;&gt;Node11</title>
<g id="a_edge34_Node000022_Node000011"><a xlink:title=" ">
<path fill="none" stroke="#63b8ff" d="M1061.28,-71.37C1030.45,-60.22 976.6,-40.75 941.68,-28.12"/>
<polygon fill="#63b8ff" stroke="#63b8ff" points="942.52,-24.71 931.93,-24.6 940.14,-31.29 942.52,-24.71"/>
</a>
</g>
</g>
<!-- Node23 -->
<g id="Node000023" class="node">
<title>Node23</title>
<g id="a_Node000023"><a xlink:title=" ">
<polygon fill="#e0e0e0" stroke="#999999" points="1184.65,-24.5 1131.65,-24.5 1131.65,-5.5 1184.65,-5.5 1184.65,-24.5"/>
<text text-anchor="middle" x="1158.15" y="-12.5" font-family="Helvetica,sans-Serif" font-size="10.00">cstddef</text>
</a>
</g>
</g>
<!-- Node22&#45;&gt;Node23 -->
<g id="edge31_Node000022_Node000023" class="edge">
<title>Node22&#45;&gt;Node23</title>
<g id="a_edge31_Node000022_Node000023"><a xlink:title=" ">
<path fill="none" stroke="#63b8ff" d="M1095,-71.37C1106.58,-61.21 1126.03,-44.16 1140.29,-31.65"/>
<polygon fill="#63b8ff" stroke="#63b8ff" points="1142.78,-34.13 1147.99,-24.91 1138.17,-28.87 1142.78,-34.13"/>
</a>
</g>
</g>
<!-- Node22&#45;&gt;Node24 -->
<g id="edge32_Node000022_Node000024" class="edge">
<title>Node22&#45;&gt;Node24</title>
<g id="a_edge32_Node000022_Node000024"><a xlink:title=" ">
<path fill="none" stroke="#63b8ff" d="M1074.77,-71.37C1062.44,-61.12 1041.65,-43.84 1026.56,-31.31"/>
<polygon fill="#63b8ff" stroke="#63b8ff" points="1028.79,-28.61 1018.86,-24.91 1024.32,-33.99 1028.79,-28.61"/>
</a>
</g>
</g>
<!-- Node25 -->
<g id="Node000025" class="node">
<title>Node25</title>
<g id="a_Node000025"><a xlink:title=" ">
<polygon fill="#e0e0e0" stroke="#999999" points="1113.65,-24.5 1056.65,-24.5 1056.65,-5.5 1113.65,-5.5 1113.65,-24.5"/>
<text text-anchor="middle" x="1085.15" y="-12.5" font-family="Helvetica,sans-Serif" font-size="10.00">ostream</text>
</a>
</g>
</g>
<!-- Node22&#45;&gt;Node25 -->
<g id="edge33_Node000022_Node000025" class="edge">
<title>Node22&#45;&gt;Node25</title>
<g id="a_edge33_Node000022_Node000025"><a xlink:title=" ">
<path fill="none" stroke="#63b8ff" d="M1085.15,-71.37C1085.15,-62.16 1085.15,-47.29 1085.15,-35.27"/>
<polygon fill="#63b8ff" stroke="#63b8ff" points="1088.65,-34.91 1085.15,-24.91 1081.65,-34.91 1088.65,-34.91"/>
</a>
</g>
</g>
<!-- Node27 -->
<g id="Node000027" class="node">
<title>Node27</title>
<g id="a_Node000027"><a xlink:href="zresampler__visibility_8h.html" target="_top" xlink:title=" ">
<polygon fill="white" stroke="#666666" points="1546.15,-30 1400.15,-30 1400.15,0 1546.15,0 1546.15,-30"/>
<text text-anchor="start" x="1408.15" y="-18" font-family="Helvetica,sans-Serif" font-size="10.00">zita&#45;resampler/zresampler</text>
<text text-anchor="middle" x="1473.15" y="-7" font-family="Helvetica,sans-Serif" font-size="10.00">_visibility.h</text>
</a>
</g>
</g>
<!-- Node26&#45;&gt;Node27 -->
<g id="edge39_Node000026_Node000027" class="edge">
<title>Node26&#45;&gt;Node27</title>
<g id="a_edge39_Node000026_Node000027"><a xlink:title=" ">
<path fill="none" stroke="#63b8ff" d="M1445.66,-131.9C1461.84,-124.96 1481.5,-113.44 1491.15,-96 1500.89,-78.4 1494.4,-55.86 1486.62,-39.2"/>
<polygon fill="#63b8ff" stroke="#63b8ff" points="1489.67,-37.47 1482.01,-30.14 1483.43,-40.64 1489.67,-37.47"/>
</a>
</g>
</g>
<!-- Node28 -->
<g id="Node000028" class="node">
<title>Node28</title>
<g id="a_Node000028"><a xlink:href="resampler-table_8h.html" target="_top" xlink:title=" ">
<polygon fill="white" stroke="#666666" points="1482.15,-96 1342.15,-96 1342.15,-66 1482.15,-66 1482.15,-96"/>
<text text-anchor="start" x="1350.15" y="-84" font-family="Helvetica,sans-Serif" font-size="10.00">zita&#45;resampler/resampler</text>
<text text-anchor="middle" x="1412.15" y="-73" font-family="Helvetica,sans-Serif" font-size="10.00">&#45;table.h</text>
</a>
</g>
</g>
<!-- Node26&#45;&gt;Node28 -->
<g id="edge40_Node000026_Node000028" class="edge">
<title>Node26&#45;&gt;Node28</title>
<g id="a_edge40_Node000026_Node000028"><a xlink:title=" ">
<path fill="none" stroke="#63b8ff" d="M1418.97,-131.87C1418.05,-125.11 1416.71,-115.35 1415.47,-106.26"/>
<polygon fill="#63b8ff" stroke="#63b8ff" points="1418.9,-105.55 1414.08,-96.11 1411.97,-106.5 1418.9,-105.55"/>
</a>
</g>
</g>
<!-- Node28&#45;&gt;Node3 -->
<g id="edge41_Node000028_Node000003" class="edge">
<title>Node28&#45;&gt;Node3</title>
<g id="a_edge41_Node000028_Node000003"><a xlink:title=" ">
<path fill="none" stroke="#63b8ff" d="M1390.4,-65.8C1374.28,-55.27 1352.39,-40.97 1336.2,-30.4"/>
<polygon fill="#63b8ff" stroke="#63b8ff" points="1337.7,-27.2 1327.41,-24.66 1333.87,-33.06 1337.7,-27.2"/>
</a>
</g>
</g>
<!-- Node28&#45;&gt;Node27 -->
<g id="edge42_Node000028_Node000027" class="edge">
<title>Node28&#45;&gt;Node27</title>
<g id="a_edge42_Node000028_Node000027"><a xlink:title=" ">
<path fill="none" stroke="#63b8ff" d="M1425.69,-65.8C1433.59,-57.51 1443.71,-46.89 1452.57,-37.59"/>
<polygon fill="#63b8ff" stroke="#63b8ff" points="1455.28,-39.82 1459.65,-30.16 1450.22,-34.99 1455.28,-39.82"/>
</a>
</g>
</g>
<!-- Node29&#45;&gt;Node18 -->
<g id="edge45_Node000029_Node000018" class="edge">
<title>Node29&#45;&gt;Node18</title>
<g id="a_edge45_Node000029_Node000018"><a xlink:title=" ">
<path fill="none" stroke="#63b8ff" d="M965.23,-131.64C956.45,-116.52 936.79,-85.46 913.15,-66 901.43,-56.35 866.81,-40.03 841.36,-28.67"/>
<polygon fill="#63b8ff" stroke="#63b8ff" points="842.68,-25.43 832.12,-24.58 839.85,-31.83 842.68,-25.43"/>
</a>
</g>
</g>
<!-- Node30 -->
<g id="Node000030" class="node">
<title>Node30</title>
<g id="a_Node000030"><a xlink:title=" ">
<polygon fill="#e0e0e0" stroke="#999999" points="1286.15,-90.5 1190.15,-90.5 1190.15,-71.5 1286.15,-71.5 1286.15,-90.5"/>
<text text-anchor="middle" x="1238.15" y="-78.5" font-family="Helvetica,sans-Serif" font-size="10.00">alsa/asoundlib.h</text>
</a>
</g>
</g>
<!-- Node29&#45;&gt;Node30 -->
<g id="edge44_Node000029_Node000030" class="edge">
<title>Node29&#45;&gt;Node30</title>
<g id="a_edge44_Node000029_Node000030"><a xlink:title=" ">
<path fill="none" stroke="#63b8ff" d="M1010.05,-132C1051.57,-123.12 1118.45,-108.75 1176.15,-96 1180.82,-94.97 1185.69,-93.88 1190.55,-92.8"/>
<polygon fill="#63b8ff" stroke="#63b8ff" points="1191.47,-96.18 1200.46,-90.57 1189.93,-89.35 1191.47,-96.18"/>
</a>
</g>
</g>
</g>
</svg>

<g id="navigator" transform="translate(0 0)" fill="#404254">
  <rect fill="#f2f5e9" fill-opacity="0.5" stroke="#606060" stroke-width=".5" x="0" y="0" width="60" height="60"/>
  <use id="zoomplus" xlink:href="#zoomPlus" x="17" y="9" onmousedown="handleZoom(evt,'in')"/>
  <use id="zoomminus" xlink:href="#zoomMin" x="42" y="9" onmousedown="handleZoom(evt,'out')"/>
  <use id="reset" xlink:href="#resetDef" x="30" y="36" onmousedown="handleReset()"/>
   <use id="arrowup" xlink:href="#arrowUp" x="0" y="0" onmousedown="handlePan(0,-1)"/>
  <use id="arrowright" xlink:href="#arrowRight" x="0" y="0" onmousedown="handlePan(1,0)"/>
  <use id="arrowdown" xlink:href="#arrowDown" x="0" y="0" onmousedown="handlePan(0,1)"/>
  <use id="arrowleft" xlink:href="#arrowLeft" x="0" y="0" onmousedown="handlePan(-1,0)"/>
</g>
<svg viewBox="0 0 15 15" width="100%" height="30px" preserveAspectRatio="xMaxYMin meet">
 <g id="arrow_out" transform="scale(0.3 0.3)">
  <a xlink:href="alsa__slave_8h__incl_org.svg" target="_base">
   <rect id="button" ry="5" rx="5" y="6" x="6" height="38" width="38"
        fill="#f2f5e9" fill-opacity="0.5" stroke="#606060" stroke-width="1.0"/>
   <path id="arrow"
     d="M 11.500037,31.436501 C 11.940474,20.09759 22.043105,11.32322 32.158766,21.979434 L 37.068811,17.246167 C 37.068811,17.246167 37.088388,32 37.088388,32 L 22.160133,31.978069 C 22.160133,31.978069 26.997745,27.140456 26.997745,27.140456 C 18.528582,18.264221 13.291696,25.230495 11.500037,31.436501 z"
     style="fill:#404040;"/>
  </a>
 </g>
</svg>

<style type='text/css'>
<![CDATA[
[data-mouse-over-selected='false'] { opacity: 0.7; }
[data-mouse-over-selected='true']  { opacity: 1.0; }
]]>
</style>
<script type="application/ecmascript"><![CDATA[
document.addEventListener('DOMContentLoaded', (event) => {
  highlightEdges();
  highlightAdjacentNodes();
});
]]></script>
</svg>
