<?xml version="1.0" encoding="UTF-8" standalone="no"?>
<!DOCTYPE svg PUBLIC "-//W3C//DTD SVG 1.1//EN"
 "http://www.w3.org/Graphics/SVG/1.1/DTD/svg11.dtd">
<!-- Generated by graphviz version 2.43.0 (0)
 -->
<!-- Title: broadcast_info.h Pages: 1 -->
<svg width="884pt" height="412pt"
 viewBox="0.00 0.00 884.00 412.00" xmlns="http://www.w3.org/2000/svg" xmlns:xlink="http://www.w3.org/1999/xlink">
<g id="graph0" class="graph" transform="scale(1 1) rotate(0) translate(4 408)">
<title>broadcast_info.h</title>
<!-- Node1 -->
<g id="Node000001" class="node">
<title>Node1</title>
<g id="a_Node000001"><a xlink:title=" ">
<polygon fill="#999999" stroke="#666666" points="568,-404 470,-404 470,-385 568,-385 568,-404"/>
<text text-anchor="middle" x="519" y="-392" font-family="Helvetica,sans-Serif" font-size="10.00">broadcast_info.h</text>
</a>
</g>
</g>
<!-- Node2 -->
<g id="Node000002" class="node">
<title>Node2</title>
<g id="a_Node000002"><a xlink:href="ardour_2ardour_2broadcast__info_8h.html" target="_top" xlink:title=" ">
<polygon fill="white" stroke="#666666" points="329,-294 231,-294 231,-275 329,-275 329,-294"/>
<text text-anchor="middle" x="280" y="-282" font-family="Helvetica,sans-Serif" font-size="10.00">broadcast_info.h</text>
</a>
</g>
</g>
<!-- Node1&#45;&gt;Node2 -->
<g id="edge1_Node000001_Node000002" class="edge">
<title>Node1&#45;&gt;Node2</title>
<g id="a_edge1_Node000001_Node000002"><a xlink:title=" ">
<path fill="none" stroke="#63b8ff" d="M490.69,-380.71C441.31,-358.4 340.75,-312.95 298.91,-294.05"/>
<polygon fill="#63b8ff" stroke="#63b8ff" points="489.29,-383.92 499.85,-384.84 492.17,-377.54 489.29,-383.92"/>
</a>
</g>
</g>
<!-- Node4 -->
<g id="Node000004" class="node">
<title>Node4</title>
<g id="a_Node000004"><a xlink:href="sndfile__writer_8h.html" target="_top" xlink:title=" ">
<polygon fill="white" stroke="#666666" points="778.5,-349 687.5,-349 687.5,-330 778.5,-330 778.5,-349"/>
<text text-anchor="middle" x="733" y="-337" font-family="Helvetica,sans-Serif" font-size="10.00">sndfile_writer.h</text>
</a>
</g>
</g>
<!-- Node1&#45;&gt;Node4 -->
<g id="edge3_Node000001_Node000004" class="edge">
<title>Node1&#45;&gt;Node4</title>
<g id="a_edge3_Node000001_Node000004"><a xlink:title=" ">
<path fill="none" stroke="#63b8ff" d="M563.16,-382.56C603.24,-372.64 661.54,-358.2 698.35,-349.08"/>
<polygon fill="#63b8ff" stroke="#63b8ff" points="562.25,-379.18 553.38,-384.98 563.93,-385.98 562.25,-379.18"/>
</a>
</g>
</g>
<!-- Node3 -->
<g id="Node000003" class="node">
<title>Node3</title>
<g id="a_Node000003"><a xlink:href="sndfilesource_8h.html" target="_top" xlink:title=" ">
<polygon fill="white" stroke="#666666" points="182,-239 92,-239 92,-220 182,-220 182,-239"/>
<text text-anchor="middle" x="137" y="-227" font-family="Helvetica,sans-Serif" font-size="10.00">sndfilesource.h</text>
</a>
</g>
</g>
<!-- Node2&#45;&gt;Node3 -->
<g id="edge2_Node000002_Node000003" class="edge">
<title>Node2&#45;&gt;Node3</title>
<g id="a_edge2_Node000002_Node000003"><a xlink:title=" ">
<path fill="none" stroke="#63b8ff" d="M247.41,-271.42C220.88,-261.59 184.07,-247.95 160.39,-239.17"/>
<polygon fill="#63b8ff" stroke="#63b8ff" points="246.43,-274.79 257.02,-274.98 248.86,-268.23 246.43,-274.79"/>
</a>
</g>
</g>
<!-- Node5 -->
<g id="Node000005" class="node">
<title>Node5</title>
<g id="a_Node000005"><a xlink:href="sndfile_8h.html" target="_top" xlink:title=" ">
<polygon fill="white" stroke="#666666" points="548,-294 490,-294 490,-275 548,-275 548,-294"/>
<text text-anchor="middle" x="519" y="-282" font-family="Helvetica,sans-Serif" font-size="10.00">sndfile.h</text>
</a>
</g>
</g>
<!-- Node4&#45;&gt;Node5 -->
<g id="edge4_Node000004_Node000005" class="edge">
<title>Node4&#45;&gt;Node5</title>
<g id="a_edge4_Node000004_Node000005"><a xlink:title=" ">
<path fill="none" stroke="#63b8ff" d="M688.89,-327.58C646.75,-317.14 584.42,-301.7 548.14,-292.72"/>
<polygon fill="#63b8ff" stroke="#63b8ff" points="688.07,-330.98 698.62,-329.98 689.75,-324.18 688.07,-330.98"/>
</a>
</g>
</g>
<!-- Node16 -->
<g id="Node000016" class="node">
<title>Node16</title>
<g id="a_Node000016"><a xlink:href="tmp__file_8h.html" target="_top" xlink:title=" ">
<polygon fill="white" stroke="#666666" points="847.5,-74 782.5,-74 782.5,-55 847.5,-55 847.5,-74"/>
<text text-anchor="middle" x="815" y="-62" font-family="Helvetica,sans-Serif" font-size="10.00">tmp_file.h</text>
</a>
</g>
</g>
<!-- Node4&#45;&gt;Node16 -->
<g id="edge28_Node000004_Node000016" class="edge">
<title>Node4&#45;&gt;Node16</title>
<g id="a_edge28_Node000004_Node000016"><a xlink:title=" ">
<path fill="none" stroke="#63b8ff" d="M757.69,-324.67C785.84,-306.86 828,-273.09 828,-230.5 828,-230.5 828,-230.5 828,-173.5 828,-136.3 820.3,-92.4 816.75,-74.14"/>
<polygon fill="#63b8ff" stroke="#63b8ff" points="755.84,-321.69 749.12,-329.88 759.48,-327.68 755.84,-321.69"/>
</a>
</g>
</g>
<!-- Node17 -->
<g id="Node000017" class="node">
<title>Node17</title>
<g id="a_Node000017"><a xlink:href="tmp__file__rt_8h.html" target="_top" xlink:title=" ">
<polygon fill="white" stroke="#666666" points="856,-19 778,-19 778,0 856,0 856,-19"/>
<text text-anchor="middle" x="817" y="-7" font-family="Helvetica,sans-Serif" font-size="10.00">tmp_file_rt.h</text>
</a>
</g>
</g>
<!-- Node4&#45;&gt;Node17 -->
<g id="edge29_Node000004_Node000017" class="edge">
<title>Node4&#45;&gt;Node17</title>
<g id="a_edge29_Node000004_Node000017"><a xlink:title=" ">
<path fill="none" stroke="#63b8ff" d="M774.26,-326.76C816.5,-311.91 876,-281.88 876,-230.5 876,-230.5 876,-230.5 876,-118.5 876,-88.91 870.51,-80.79 856,-55 848.14,-41.03 835.38,-27.56 826.61,-19.17"/>
<polygon fill="#63b8ff" stroke="#63b8ff" points="773.1,-323.45 764.74,-329.95 775.33,-330.09 773.1,-323.45"/>
</a>
</g>
</g>
<!-- Node18 -->
<g id="Node000018" class="node">
<title>Node18</title>
<g id="a_Node000018"><a xlink:href="tmp__file__sync_8h.html" target="_top" xlink:title=" ">
<polygon fill="white" stroke="#666666" points="759.5,-19 666.5,-19 666.5,0 759.5,0 759.5,-19"/>
<text text-anchor="middle" x="713" y="-7" font-family="Helvetica,sans-Serif" font-size="10.00">tmp_file_sync.h</text>
</a>
</g>
</g>
<!-- Node4&#45;&gt;Node18 -->
<g id="edge30_Node000004_Node000018" class="edge">
<title>Node4&#45;&gt;Node18</title>
<g id="a_edge30_Node000004_Node000018"><a xlink:title=" ">
<path fill="none" stroke="#63b8ff" d="M727.07,-320.01C715.31,-281.28 690.71,-188.7 697,-110 699.7,-76.17 707.5,-36.47 711.11,-19.23"/>
<polygon fill="#63b8ff" stroke="#63b8ff" points="723.81,-321.34 730.13,-329.84 730.5,-319.25 723.81,-321.34"/>
</a>
</g>
</g>
<!-- Node5&#45;&gt;Node1 -->
<g id="edge5_Node000005_Node000001" class="edge">
<title>Node5&#45;&gt;Node1</title>
<g id="a_edge5_Node000005_Node000001"><a xlink:title=" ">
<path fill="none" stroke="#63b8ff" d="M519,-304.27C519,-327.8 519,-367.17 519,-384.66"/>
<polygon fill="#63b8ff" stroke="#63b8ff" points="522.5,-304.16 519,-294.16 515.5,-304.16 522.5,-304.16"/>
</a>
</g>
</g>
<!-- Node5&#45;&gt;Node3 -->
<g id="edge27_Node000005_Node000003" class="edge">
<title>Node5&#45;&gt;Node3</title>
<g id="a_edge27_Node000005_Node000003"><a xlink:title=" ">
<path fill="none" stroke="#63b8ff" d="M479.5,-278.42C417.84,-270.42 295.01,-254.24 191,-239 188.09,-238.57 185.09,-238.13 182.07,-237.67"/>
<polygon fill="#63b8ff" stroke="#63b8ff" points="479.2,-281.91 489.57,-279.72 480.1,-274.97 479.2,-281.91"/>
</a>
</g>
</g>
<!-- Node6 -->
<g id="Node000006" class="node">
<title>Node6</title>
<g id="a_Node000006"><a xlink:href="export__format__base_8h.html" target="_top" xlink:title=" ">
<polygon fill="white" stroke="#666666" points="324,-239 200,-239 200,-220 324,-220 324,-239"/>
<text text-anchor="middle" x="262" y="-227" font-family="Helvetica,sans-Serif" font-size="10.00">export_format_base.h</text>
</a>
</g>
</g>
<!-- Node5&#45;&gt;Node6 -->
<g id="edge6_Node000005_Node000006" class="edge">
<title>Node5&#45;&gt;Node6</title>
<g id="a_edge6_Node000005_Node000006"><a xlink:title=" ">
<path fill="none" stroke="#63b8ff" d="M479.57,-275.37C431.87,-265.53 351.96,-249.05 303.4,-239.04"/>
<polygon fill="#63b8ff" stroke="#63b8ff" points="479.02,-278.83 489.52,-277.42 480.43,-271.97 479.02,-278.83"/>
</a>
</g>
</g>
<!-- Node12 -->
<g id="Node000012" class="node">
<title>Node12</title>
<g id="a_Node000012"><a xlink:href="ltc__file__reader_8h.html" target="_top" xlink:title=" ">
<polygon fill="white" stroke="#666666" points="566,-239 472,-239 472,-220 566,-220 566,-239"/>
<text text-anchor="middle" x="519" y="-227" font-family="Helvetica,sans-Serif" font-size="10.00">ltc_file_reader.h</text>
</a>
</g>
</g>
<!-- Node5&#45;&gt;Node12 -->
<g id="edge15_Node000005_Node000012" class="edge">
<title>Node5&#45;&gt;Node12</title>
<g id="a_edge15_Node000005_Node000012"><a xlink:title=" ">
<path fill="none" stroke="#63b8ff" d="M519,-264.66C519,-255.93 519,-245.99 519,-239.09"/>
<polygon fill="#63b8ff" stroke="#63b8ff" points="515.5,-264.75 519,-274.75 522.5,-264.75 515.5,-264.75"/>
</a>
</g>
</g>
<!-- Node13 -->
<g id="Node000013" class="node">
<title>Node13</title>
<g id="a_Node000013"><a xlink:href="sndfile_8hh.html" target="_top" xlink:title=" ">
<polygon fill="white" stroke="#666666" points="686,-239 622,-239 622,-220 686,-220 686,-239"/>
<text text-anchor="middle" x="654" y="-227" font-family="Helvetica,sans-Serif" font-size="10.00">sndfile.hh</text>
</a>
</g>
</g>
<!-- Node5&#45;&gt;Node13 -->
<g id="edge16_Node000005_Node000013" class="edge">
<title>Node5&#45;&gt;Node13</title>
<g id="a_edge16_Node000005_Node000013"><a xlink:title=" ">
<path fill="none" stroke="#63b8ff" d="M550.1,-271.29C575.12,-261.47 609.66,-247.91 631.92,-239.17"/>
<polygon fill="#63b8ff" stroke="#63b8ff" points="548.72,-268.07 540.69,-274.98 551.28,-274.59 548.72,-268.07"/>
</a>
</g>
</g>
<!-- Node19 -->
<g id="Node000019" class="node">
<title>Node19</title>
<g id="a_Node000019"><a xlink:href="sndfileimportable_8h.html" target="_top" xlink:title=" ">
<polygon fill="white" stroke="#666666" points="453.5,-239 342.5,-239 342.5,-220 453.5,-220 453.5,-239"/>
<text text-anchor="middle" x="398" y="-227" font-family="Helvetica,sans-Serif" font-size="10.00">sndfileimportable.h</text>
</a>
</g>
</g>
<!-- Node5&#45;&gt;Node19 -->
<g id="edge26_Node000005_Node000019" class="edge">
<title>Node5&#45;&gt;Node19</title>
<g id="a_edge26_Node000005_Node000019"><a xlink:title=" ">
<path fill="none" stroke="#63b8ff" d="M490.23,-270.9C467.88,-261.11 437.48,-247.79 417.79,-239.17"/>
<polygon fill="#63b8ff" stroke="#63b8ff" points="489,-274.18 499.56,-274.98 491.8,-267.77 489,-274.18"/>
</a>
</g>
</g>
<!-- Node7 -->
<g id="Node000007" class="node">
<title>Node7</title>
<g id="a_Node000007"><a xlink:href="export__format__compatibility_8h.html" target="_top" xlink:title=" ">
<polygon fill="white" stroke="#666666" points="344,-184 180,-184 180,-165 344,-165 344,-184"/>
<text text-anchor="middle" x="262" y="-172" font-family="Helvetica,sans-Serif" font-size="10.00">export_format_compatibility.h</text>
</a>
</g>
</g>
<!-- Node6&#45;&gt;Node7 -->
<g id="edge7_Node000006_Node000007" class="edge">
<title>Node6&#45;&gt;Node7</title>
<g id="a_edge7_Node000006_Node000007"><a xlink:title=" ">
<path fill="none" stroke="#63b8ff" d="M262,-209.66C262,-200.93 262,-190.99 262,-184.09"/>
<polygon fill="#63b8ff" stroke="#63b8ff" points="258.5,-209.75 262,-219.75 265.5,-209.75 258.5,-209.75"/>
</a>
</g>
</g>
<!-- Node9 -->
<g id="Node000009" class="node">
<title>Node9</title>
<g id="a_Node000009"><a xlink:href="export__formats_8h.html" target="_top" xlink:title=" ">
<polygon fill="white" stroke="#666666" points="417.5,-129 316.5,-129 316.5,-110 417.5,-110 417.5,-129"/>
<text text-anchor="middle" x="367" y="-117" font-family="Helvetica,sans-Serif" font-size="10.00">export_formats.h</text>
</a>
</g>
</g>
<!-- Node6&#45;&gt;Node9 -->
<g id="edge14_Node000006_Node000009" class="edge">
<title>Node6&#45;&gt;Node9</title>
<g id="a_edge14_Node000006_Node000009"><a xlink:title=" ">
<path fill="none" stroke="#63b8ff" d="M305.12,-216.52C322.38,-209.66 340.98,-199.28 353,-184 365.7,-167.85 367.42,-142.57 367.35,-129.3"/>
<polygon fill="#63b8ff" stroke="#63b8ff" points="303.89,-213.25 295.71,-219.98 306.31,-219.81 303.89,-213.25"/>
</a>
</g>
</g>
<!-- Node11 -->
<g id="Node000011" class="node">
<title>Node11</title>
<g id="a_Node000011"><a xlink:href="export__format__specification_8h.html" target="_top" xlink:title=" ">
<polygon fill="white" stroke="#666666" points="162,-184 0,-184 0,-165 162,-165 162,-184"/>
<text text-anchor="middle" x="81" y="-172" font-family="Helvetica,sans-Serif" font-size="10.00">export_format_specification.h</text>
</a>
</g>
</g>
<!-- Node6&#45;&gt;Node11 -->
<g id="edge13_Node000006_Node000011" class="edge">
<title>Node6&#45;&gt;Node11</title>
<g id="a_edge13_Node000006_Node000011"><a xlink:title=" ">
<path fill="none" stroke="#63b8ff" d="M222.92,-217.06C189.09,-207.15 140.92,-193.04 110.31,-184.08"/>
<polygon fill="#63b8ff" stroke="#63b8ff" points="222.34,-220.53 232.92,-219.98 224.31,-213.82 222.34,-220.53"/>
</a>
</g>
</g>
<!-- Node8 -->
<g id="Node000008" class="node">
<title>Node8</title>
<g id="a_Node000008"><a xlink:href="export__format__dialog_8h.html" target="_top" xlink:title=" ">
<polygon fill="white" stroke="#666666" points="427.5,-19 296.5,-19 296.5,0 427.5,0 427.5,-19"/>
<text text-anchor="middle" x="362" y="-7" font-family="Helvetica,sans-Serif" font-size="10.00">export_format_dialog.h</text>
</a>
</g>
</g>
<!-- Node7&#45;&gt;Node8 -->
<g id="edge8_Node000007_Node000008" class="edge">
<title>Node7&#45;&gt;Node8</title>
<g id="a_edge8_Node000007_Node000008"><a xlink:title=" ">
<path fill="none" stroke="#63b8ff" d="M260.22,-154.82C258.82,-129.77 259.88,-84.99 281,-55 293.47,-37.29 315.32,-25.89 333.18,-19.06"/>
<polygon fill="#63b8ff" stroke="#63b8ff" points="256.73,-155.1 260.97,-164.81 263.71,-154.58 256.73,-155.1"/>
</a>
</g>
</g>
<!-- Node7&#45;&gt;Node9 -->
<g id="edge9_Node000007_Node000009" class="edge">
<title>Node7&#45;&gt;Node9</title>
<g id="a_edge9_Node000007_Node000009"><a xlink:title=" ">
<path fill="none" stroke="#63b8ff" d="M288.02,-160.37C307.3,-150.63 333.05,-137.64 349.82,-129.17"/>
<polygon fill="#63b8ff" stroke="#63b8ff" points="286.22,-157.35 278.87,-164.98 289.37,-163.6 286.22,-157.35"/>
</a>
</g>
</g>
<!-- Node9&#45;&gt;Node8 -->
<g id="edge10_Node000009_Node000008" class="edge">
<title>Node9&#45;&gt;Node8</title>
<g id="a_edge10_Node000009_Node000008"><a xlink:title=" ">
<path fill="none" stroke="#63b8ff" d="M402.12,-105.97C427.38,-94.82 454.88,-76.91 442,-55 431.45,-37.05 410.75,-25.82 393.05,-19.13"/>
<polygon fill="#63b8ff" stroke="#63b8ff" points="400.54,-102.84 392.64,-109.91 403.22,-109.3 400.54,-102.84"/>
</a>
</g>
</g>
<!-- Node10 -->
<g id="Node000010" class="node">
<title>Node10</title>
<g id="a_Node000010"><a xlink:href="export__format__manager_8h.html" target="_top" xlink:title=" ">
<polygon fill="white" stroke="#666666" points="433.5,-74 290.5,-74 290.5,-55 433.5,-55 433.5,-74"/>
<text text-anchor="middle" x="362" y="-62" font-family="Helvetica,sans-Serif" font-size="10.00">export_format_manager.h</text>
</a>
</g>
</g>
<!-- Node9&#45;&gt;Node10 -->
<g id="edge11_Node000009_Node000010" class="edge">
<title>Node9&#45;&gt;Node10</title>
<g id="a_edge11_Node000009_Node000010"><a xlink:title=" ">
<path fill="none" stroke="#63b8ff" d="M365.22,-99.66C364.4,-90.93 363.46,-80.99 362.81,-74.09"/>
<polygon fill="#63b8ff" stroke="#63b8ff" points="361.75,-100.12 366.17,-109.75 368.72,-99.46 361.75,-100.12"/>
</a>
</g>
</g>
<!-- Node10&#45;&gt;Node8 -->
<g id="edge12_Node000010_Node000008" class="edge">
<title>Node10&#45;&gt;Node8</title>
<g id="a_edge12_Node000010_Node000008"><a xlink:title=" ">
<path fill="none" stroke="#63b8ff" d="M362,-44.66C362,-35.93 362,-25.99 362,-19.09"/>
<polygon fill="#63b8ff" stroke="#63b8ff" points="358.5,-44.75 362,-54.75 365.5,-44.75 358.5,-44.75"/>
</a>
</g>
</g>
<!-- Node14 -->
<g id="Node000014" class="node">
<title>Node14</title>
<g id="a_Node000014"><a xlink:href="sndfile__base_8h.html" target="_top" xlink:title=" ">
<polygon fill="white" stroke="#666666" points="795,-184 709,-184 709,-165 795,-165 795,-184"/>
<text text-anchor="middle" x="752" y="-172" font-family="Helvetica,sans-Serif" font-size="10.00">sndfile_base.h</text>
</a>
</g>
</g>
<!-- Node13&#45;&gt;Node14 -->
<g id="edge17_Node000013_Node000014" class="edge">
<title>Node13&#45;&gt;Node14</title>
<g id="a_edge17_Node000013_Node000014"><a xlink:title=" ">
<path fill="none" stroke="#63b8ff" d="M679.03,-214.97C696.94,-205.28 720.53,-192.52 735.97,-184.17"/>
<polygon fill="#63b8ff" stroke="#63b8ff" points="676.88,-212.15 669.75,-219.98 680.21,-218.31 676.88,-212.15"/>
</a>
</g>
</g>
<!-- Node14&#45;&gt;Node4 -->
<g id="edge25_Node000014_Node000004" class="edge">
<title>Node14&#45;&gt;Node4</title>
<g id="a_edge25_Node000014_Node000004"><a xlink:title=" ">
<path fill="none" stroke="#63b8ff" d="M749.76,-194.69C745.64,-230.08 736.99,-304.31 734.02,-329.74"/>
<polygon fill="#63b8ff" stroke="#63b8ff" points="753.29,-194.64 750.97,-184.31 746.34,-193.83 753.29,-194.64"/>
</a>
</g>
</g>
<!-- Node15 -->
<g id="Node000015" class="node">
<title>Node15</title>
<g id="a_Node000015"><a xlink:href="sndfile__reader_8h.html" target="_top" xlink:title=" ">
<polygon fill="white" stroke="#666666" points="800,-129 706,-129 706,-110 800,-110 800,-129"/>
<text text-anchor="middle" x="753" y="-117" font-family="Helvetica,sans-Serif" font-size="10.00">sndfile_reader.h</text>
</a>
</g>
</g>
<!-- Node14&#45;&gt;Node15 -->
<g id="edge18_Node000014_Node000015" class="edge">
<title>Node14&#45;&gt;Node15</title>
<g id="a_edge18_Node000014_Node000015"><a xlink:title=" ">
<path fill="none" stroke="#63b8ff" d="M752.36,-154.66C752.52,-145.93 752.71,-135.99 752.84,-129.09"/>
<polygon fill="#63b8ff" stroke="#63b8ff" points="748.85,-154.68 752.17,-164.75 755.85,-154.82 748.85,-154.68"/>
</a>
</g>
</g>
<!-- Node15&#45;&gt;Node5 -->
<g id="edge19_Node000015_Node000005" class="edge">
<title>Node15&#45;&gt;Node5</title>
<g id="a_edge19_Node000015_Node000005"><a xlink:title=" ">
<path fill="none" stroke="#63b8ff" d="M732.29,-134.93C684.78,-168.02 569.15,-248.57 531.25,-274.97"/>
<polygon fill="#63b8ff" stroke="#63b8ff" points="734.38,-137.73 740.59,-129.15 730.38,-131.99 734.38,-137.73"/>
</a>
</g>
</g>
<!-- Node15&#45;&gt;Node16 -->
<g id="edge20_Node000015_Node000016" class="edge">
<title>Node15&#45;&gt;Node16</title>
<g id="a_edge20_Node000015_Node000016"><a xlink:title=" ">
<path fill="none" stroke="#63b8ff" d="M770.75,-103.32C781.81,-93.87 795.63,-82.06 804.86,-74.17"/>
<polygon fill="#63b8ff" stroke="#63b8ff" points="768.29,-100.83 762.96,-109.98 772.84,-106.15 768.29,-100.83"/>
</a>
</g>
</g>
<!-- Node15&#45;&gt;Node17 -->
<g id="edge23_Node000015_Node000017" class="edge">
<title>Node15&#45;&gt;Node17</title>
<g id="a_edge23_Node000015_Node000017"><a xlink:title=" ">
<path fill="none" stroke="#63b8ff" d="M756.41,-99.91C759.4,-86.71 764.61,-68.92 773,-55 781.64,-40.67 795.81,-27.48 805.72,-19.24"/>
<polygon fill="#63b8ff" stroke="#63b8ff" points="752.98,-99.25 754.4,-109.74 759.83,-100.65 752.98,-99.25"/>
</a>
</g>
</g>
<!-- Node15&#45;&gt;Node18 -->
<g id="edge24_Node000015_Node000018" class="edge">
<title>Node15&#45;&gt;Node18</title>
<g id="a_edge24_Node000015_Node000018"><a xlink:title=" ">
<path fill="none" stroke="#63b8ff" d="M746.19,-100.12C737.47,-76.56 722.69,-36.66 716.21,-19.16"/>
<polygon fill="#63b8ff" stroke="#63b8ff" points="742.97,-101.5 749.73,-109.66 749.54,-99.07 742.97,-101.5"/>
</a>
</g>
</g>
<!-- Node16&#45;&gt;Node17 -->
<g id="edge21_Node000016_Node000017" class="edge">
<title>Node16&#45;&gt;Node17</title>
<g id="a_edge21_Node000016_Node000017"><a xlink:title=" ">
<path fill="none" stroke="#63b8ff" d="M815.71,-44.66C816.04,-35.93 816.42,-25.99 816.68,-19.09"/>
<polygon fill="#63b8ff" stroke="#63b8ff" points="812.21,-44.62 815.33,-54.75 819.2,-44.89 812.21,-44.62"/>
</a>
</g>
</g>
<!-- Node16&#45;&gt;Node18 -->
<g id="edge22_Node000016_Node000018" class="edge">
<title>Node16&#45;&gt;Node18</title>
<g id="a_edge22_Node000016_Node000018"><a xlink:title=" ">
<path fill="none" stroke="#63b8ff" d="M789.73,-50.37C770.99,-40.63 745.98,-27.64 729.69,-19.17"/>
<polygon fill="#63b8ff" stroke="#63b8ff" points="788.12,-53.48 798.61,-54.98 791.35,-47.27 788.12,-53.48"/>
</a>
</g>
</g>
</g>
</svg>
