<?xml version="1.0" encoding="UTF-8" standalone="no"?>
<!DOCTYPE svg PUBLIC "-//W3C//DTD SVG 1.1//EN"
 "http://www.w3.org/Graphics/SVG/1.1/DTD/svg11.dtd">
<!-- Generated by graphviz version 2.43.0 (0)
 -->
<!-- Title: source.h Pages: 1 -->
<svg width="1039pt" height="368pt"
 viewBox="0.00 0.00 1039.00 368.00" xmlns="http://www.w3.org/2000/svg" xmlns:xlink="http://www.w3.org/1999/xlink">
<g id="graph0" class="graph" transform="scale(1 1) rotate(0) translate(4 364)">
<title>source.h</title>
<!-- Node1 -->
<g id="Node000001" class="node">
<title>Node1</title>
<g id="a_Node000001"><a xlink:title=" ">
<polygon fill="#999999" stroke="#666666" points="105,-360 47,-360 47,-341 105,-341 105,-360"/>
<text text-anchor="middle" x="76" y="-348" font-family="Helvetica,sans-Serif" font-size="10.00">source.h</text>
</a>
</g>
</g>
<!-- Node2 -->
<g id="Node000002" class="node">
<title>Node2</title>
<g id="a_Node000002"><a xlink:title=" ">
<polygon fill="#e0e0e0" stroke="#999999" points="86,-134.5 28,-134.5 28,-115.5 86,-115.5 86,-134.5"/>
<text text-anchor="middle" x="57" y="-122.5" font-family="Helvetica,sans-Serif" font-size="10.00">memory</text>
</a>
</g>
</g>
<!-- Node1&#45;&gt;Node2 -->
<g id="edge1_Node000001_Node000002" class="edge">
<title>Node1&#45;&gt;Node2</title>
<g id="a_edge1_Node000001_Node000002"><a xlink:title=" ">
<path fill="none" stroke="#63b8ff" d="M74.69,-340.99C73.36,-332.05 71.3,-317.56 70,-305 63.96,-246.76 59.78,-177.57 57.99,-144.89"/>
<polygon fill="#63b8ff" stroke="#63b8ff" points="61.47,-144.38 57.44,-134.59 54.48,-144.76 61.47,-144.38"/>
</a>
</g>
</g>
<!-- Node3 -->
<g id="Node000003" class="node">
<title>Node3</title>
<g id="a_Node000003"><a xlink:href="audiographer_2audiographer_2types_8h.html" target="_top" xlink:title=" ">
<polygon fill="white" stroke="#666666" points="459.5,-134.5 406.5,-134.5 406.5,-115.5 459.5,-115.5 459.5,-134.5"/>
<text text-anchor="middle" x="433" y="-122.5" font-family="Helvetica,sans-Serif" font-size="10.00">types.h</text>
</a>
</g>
</g>
<!-- Node1&#45;&gt;Node3 -->
<g id="edge2_Node000001_Node000003" class="edge">
<title>Node1&#45;&gt;Node3</title>
<g id="a_edge2_Node000001_Node000003"><a xlink:title=" ">
<path fill="none" stroke="#63b8ff" d="M105.14,-345.47C181.26,-334.3 383.03,-300.41 424,-250 448.42,-219.95 443.04,-171.13 437.63,-144.6"/>
<polygon fill="#63b8ff" stroke="#63b8ff" points="441.01,-143.7 435.39,-134.71 434.18,-145.24 441.01,-143.7"/>
</a>
</g>
</g>
<!-- Node5 -->
<g id="Node000005" class="node">
<title>Node5</title>
<g id="a_Node000005"><a xlink:href="audiographer_2audiographer_2visibility_8h.html" target="_top" xlink:title=" ">
<polygon fill="white" stroke="#666666" points="295,-19 161,-19 161,0 295,0 295,-19"/>
<text text-anchor="middle" x="228" y="-7" font-family="Helvetica,sans-Serif" font-size="10.00">audiographer/visibility.h</text>
</a>
</g>
</g>
<!-- Node1&#45;&gt;Node5 -->
<g id="edge42_Node000001_Node000005" class="edge">
<title>Node1&#45;&gt;Node5</title>
<g id="a_edge42_Node000001_Node000005"><a xlink:title=" ">
<path fill="none" stroke="#63b8ff" d="M64.12,-340.88C42.75,-324.26 0,-285.52 0,-241.5 0,-241.5 0,-241.5 0,-124 0,-55.03 84.66,-27.97 150.8,-17.35"/>
<polygon fill="#63b8ff" stroke="#63b8ff" points="151.46,-20.79 160.83,-15.84 150.42,-13.87 151.46,-20.79"/>
</a>
</g>
</g>
<!-- Node6 -->
<g id="Node000006" class="node">
<title>Node6</title>
<g id="a_Node000006"><a xlink:href="sink_8h.html" target="_top" xlink:title=" ">
<polygon fill="white" stroke="#666666" points="125,-305 79,-305 79,-286 125,-286 125,-305"/>
<text text-anchor="middle" x="102" y="-293" font-family="Helvetica,sans-Serif" font-size="10.00">sink.h</text>
</a>
</g>
</g>
<!-- Node1&#45;&gt;Node6 -->
<g id="edge5_Node000001_Node000006" class="edge">
<title>Node1&#45;&gt;Node6</title>
<g id="a_edge5_Node000001_Node000006"><a xlink:title=" ">
<path fill="none" stroke="#63b8ff" d="M80.29,-340.75C83.81,-333.57 88.91,-323.18 93.28,-314.27"/>
<polygon fill="#63b8ff" stroke="#63b8ff" points="96.52,-315.61 97.79,-305.09 90.24,-312.53 96.52,-315.61"/>
</a>
</g>
</g>
<!-- Node4 -->
<g id="Node000004" class="node">
<title>Node4</title>
<g id="a_Node000004"><a xlink:title=" ">
<polygon fill="#e0e0e0" stroke="#999999" points="566.5,-19 513.5,-19 513.5,0 566.5,0 566.5,-19"/>
<text text-anchor="middle" x="540" y="-7" font-family="Helvetica,sans-Serif" font-size="10.00">stdint.h</text>
</a>
</g>
</g>
<!-- Node3&#45;&gt;Node4 -->
<g id="edge3_Node000003_Node000004" class="edge">
<title>Node3&#45;&gt;Node4</title>
<g id="a_edge3_Node000003_Node000004"><a xlink:title=" ">
<path fill="none" stroke="#63b8ff" d="M424.08,-115.29C411.09,-101.53 389.97,-74.36 404,-55 426.4,-24.1 470.9,-14.26 502.9,-11.33"/>
<polygon fill="#63b8ff" stroke="#63b8ff" points="503.5,-14.8 513.22,-10.58 503,-7.82 503.5,-14.8"/>
</a>
</g>
</g>
<!-- Node3&#45;&gt;Node5 -->
<g id="edge4_Node000003_Node000005" class="edge">
<title>Node3&#45;&gt;Node5</title>
<g id="a_edge4_Node000003_Node000005"><a xlink:title=" ">
<path fill="none" stroke="#63b8ff" d="M417.59,-115.47C382.27,-95.91 295.23,-47.72 252.48,-24.06"/>
<polygon fill="#63b8ff" stroke="#63b8ff" points="254.03,-20.91 243.59,-19.13 250.64,-27.04 254.03,-20.91"/>
</a>
</g>
</g>
<!-- Node6&#45;&gt;Node2 -->
<g id="edge6_Node000006_Node000002" class="edge">
<title>Node6&#45;&gt;Node2</title>
<g id="a_edge6_Node000006_Node000002"><a xlink:title=" ">
<path fill="none" stroke="#63b8ff" d="M99.71,-285.91C92.73,-259.78 71.63,-180.79 61.95,-144.54"/>
<polygon fill="#63b8ff" stroke="#63b8ff" points="65.3,-143.53 59.34,-134.77 58.54,-145.34 65.3,-143.53"/>
</a>
</g>
</g>
<!-- Node6&#45;&gt;Node5 -->
<g id="edge41_Node000006_Node000005" class="edge">
<title>Node6&#45;&gt;Node5</title>
<g id="a_edge41_Node000006_Node000005"><a xlink:title=" ">
<path fill="none" stroke="#63b8ff" d="M103.62,-285.86C106.89,-267.59 114,-223.66 114,-186.5 114,-186.5 114,-186.5 114,-124 114,-75.88 165.64,-41.12 199.41,-23.53"/>
<polygon fill="#63b8ff" stroke="#63b8ff" points="201.03,-26.64 208.4,-19.03 197.89,-20.38 201.03,-26.64"/>
</a>
</g>
</g>
<!-- Node7 -->
<g id="Node000007" class="node">
<title>Node7</title>
<g id="a_Node000007"><a xlink:href="process__context_8h.html" target="_top" xlink:title=" ">
<polygon fill="white" stroke="#666666" points="415.5,-250 310.5,-250 310.5,-231 415.5,-231 415.5,-250"/>
<text text-anchor="middle" x="363" y="-238" font-family="Helvetica,sans-Serif" font-size="10.00">process_context.h</text>
</a>
</g>
</g>
<!-- Node6&#45;&gt;Node7 -->
<g id="edge7_Node000006_Node000007" class="edge">
<title>Node6&#45;&gt;Node7</title>
<g id="a_edge7_Node000006_Node000007"><a xlink:title=" ">
<path fill="none" stroke="#63b8ff" d="M125.16,-289.8C166.59,-281.38 254.32,-263.57 310.87,-252.09"/>
<polygon fill="#63b8ff" stroke="#63b8ff" points="311.6,-255.51 320.7,-250.09 310.21,-248.65 311.6,-255.51"/>
</a>
</g>
</g>
<!-- Node7&#45;&gt;Node3 -->
<g id="edge31_Node000007_Node000003" class="edge">
<title>Node7&#45;&gt;Node3</title>
<g id="a_edge31_Node000007_Node000003"><a xlink:title=" ">
<path fill="none" stroke="#63b8ff" d="M366.1,-230.93C370.81,-218.38 380.46,-194.51 392,-176 399.53,-163.92 409.67,-151.53 417.98,-142.11"/>
<polygon fill="#63b8ff" stroke="#63b8ff" points="420.59,-144.44 424.69,-134.68 415.39,-139.75 420.59,-144.44"/>
</a>
</g>
</g>
<!-- Node7&#45;&gt;Node5 -->
<g id="edge14_Node000007_Node000005" class="edge">
<title>Node7&#45;&gt;Node5</title>
<g id="a_edge14_Node000007_Node000005"><a xlink:title=" ">
<path fill="none" stroke="#63b8ff" d="M325.02,-230.99C302.86,-224.36 275.68,-213.15 257,-195 211.47,-150.78 218.61,-66.31 224.5,-29"/>
<polygon fill="#63b8ff" stroke="#63b8ff" points="227.97,-29.48 226.22,-19.03 221.07,-28.29 227.97,-29.48"/>
</a>
</g>
</g>
<!-- Node8 -->
<g id="Node000008" class="node">
<title>Node8</title>
<g id="a_Node000008"><a xlink:href="compose_8h.html" target="_top" xlink:title=" ">
<polygon fill="white" stroke="#666666" points="607.5,-134.5 516.5,-134.5 516.5,-115.5 607.5,-115.5 607.5,-134.5"/>
<text text-anchor="middle" x="562" y="-122.5" font-family="Helvetica,sans-Serif" font-size="10.00">pbd/compose.h</text>
</a>
</g>
</g>
<!-- Node7&#45;&gt;Node8 -->
<g id="edge8_Node000007_Node000008" class="edge">
<title>Node7&#45;&gt;Node8</title>
<g id="a_edge8_Node000007_Node000008"><a xlink:title=" ">
<path fill="none" stroke="#63b8ff" d="M377.96,-230.97C412.17,-211.46 496.39,-163.42 537.97,-139.71"/>
<polygon fill="#63b8ff" stroke="#63b8ff" points="539.92,-142.62 546.87,-134.63 536.45,-136.54 539.92,-142.62"/>
</a>
</g>
</g>
<!-- Node14 -->
<g id="Node000014" class="node">
<title>Node14</title>
<g id="a_Node000014"><a xlink:href="exception_8h.html" target="_top" xlink:title=" ">
<polygon fill="white" stroke="#666666" points="636,-195 562,-195 562,-176 636,-176 636,-195"/>
<text text-anchor="middle" x="599" y="-183" font-family="Helvetica,sans-Serif" font-size="10.00">exception.h</text>
</a>
</g>
</g>
<!-- Node7&#45;&gt;Node14 -->
<g id="edge15_Node000007_Node000014" class="edge">
<title>Node7&#45;&gt;Node14</title>
<g id="a_edge15_Node000007_Node000014"><a xlink:title=" ">
<path fill="none" stroke="#63b8ff" d="M400.92,-230.98C442.02,-221.75 507.66,-207.01 552,-197.05"/>
<polygon fill="#63b8ff" stroke="#63b8ff" points="552.96,-200.43 561.95,-194.82 551.43,-193.6 552.96,-200.43"/>
</a>
</g>
</g>
<!-- Node16 -->
<g id="Node000016" class="node">
<title>Node16</title>
<g id="a_Node000016"><a xlink:href="debug__utils_8h.html" target="_top" xlink:title=" ">
<polygon fill="white" stroke="#666666" points="862,-140 748,-140 748,-110 862,-110 862,-140"/>
<text text-anchor="start" x="756" y="-128" font-family="Helvetica,sans-Serif" font-size="10.00">audiographer/debug</text>
<text text-anchor="middle" x="805" y="-117" font-family="Helvetica,sans-Serif" font-size="10.00">_utils.h</text>
</a>
</g>
</g>
<!-- Node7&#45;&gt;Node16 -->
<g id="edge30_Node000007_Node000016" class="edge">
<title>Node7&#45;&gt;Node16</title>
<g id="a_edge30_Node000007_Node000016"><a xlink:title=" ">
<path fill="none" stroke="#63b8ff" d="M415.57,-235.17C472.86,-229.55 566.8,-217.64 645,-195 688.98,-182.27 736.88,-160.47 768.69,-144.78"/>
<polygon fill="#63b8ff" stroke="#63b8ff" points="770.64,-147.72 778.03,-140.13 767.52,-141.46 770.64,-147.72"/>
</a>
</g>
</g>
<!-- Node17 -->
<g id="Node000017" class="node">
<title>Node17</title>
<g id="a_Node000017"><a xlink:href="flag__field_8h.html" target="_top" xlink:title=" ">
<polygon fill="white" stroke="#666666" points="971,-74 901,-74 901,-55 971,-55 971,-74"/>
<text text-anchor="middle" x="936" y="-62" font-family="Helvetica,sans-Serif" font-size="10.00">flag_field.h</text>
</a>
</g>
</g>
<!-- Node7&#45;&gt;Node17 -->
<g id="edge32_Node000007_Node000017" class="edge">
<title>Node7&#45;&gt;Node17</title>
<g id="a_edge32_Node000007_Node000017"><a xlink:title=" ">
<path fill="none" stroke="#63b8ff" d="M415.72,-234.14C529.87,-221.74 795.68,-188.4 871,-140 894.15,-125.12 913.8,-99.66 925.25,-82.71"/>
<polygon fill="#63b8ff" stroke="#63b8ff" points="928.21,-84.58 930.74,-74.29 922.34,-80.75 928.21,-84.58"/>
</a>
</g>
</g>
<!-- Node22 -->
<g id="Node000022" class="node">
<title>Node22</title>
<g id="a_Node000022"><a xlink:href="throwing_8h.html" target="_top" xlink:title=" ">
<polygon fill="white" stroke="#666666" points="210,-195 142,-195 142,-176 210,-176 210,-195"/>
<text text-anchor="middle" x="176" y="-183" font-family="Helvetica,sans-Serif" font-size="10.00">throwing.h</text>
</a>
</g>
</g>
<!-- Node7&#45;&gt;Node22 -->
<g id="edge33_Node000007_Node000022" class="edge">
<title>Node7&#45;&gt;Node22</title>
<g id="a_edge33_Node000007_Node000022"><a xlink:title=" ">
<path fill="none" stroke="#63b8ff" d="M332.96,-230.98C301.29,-222.01 251.23,-207.82 216.19,-197.89"/>
<polygon fill="#63b8ff" stroke="#63b8ff" points="216.86,-194.44 206.28,-195.08 214.95,-201.18 216.86,-194.44"/>
</a>
</g>
</g>
<!-- Node23 -->
<g id="Node000023" class="node">
<title>Node23</title>
<g id="a_Node000023"><a xlink:href="type__utils_8h.html" target="_top" xlink:title=" ">
<polygon fill="white" stroke="#666666" points="340,-195 266,-195 266,-176 340,-176 340,-195"/>
<text text-anchor="middle" x="303" y="-183" font-family="Helvetica,sans-Serif" font-size="10.00">type_utils.h</text>
</a>
</g>
</g>
<!-- Node7&#45;&gt;Node23 -->
<g id="edge35_Node000007_Node000023" class="edge">
<title>Node7&#45;&gt;Node23</title>
<g id="a_edge35_Node000007_Node000023"><a xlink:title=" ">
<path fill="none" stroke="#63b8ff" d="M353.36,-230.98C344.49,-223.15 331.13,-211.34 320.39,-201.86"/>
<polygon fill="#63b8ff" stroke="#63b8ff" points="322.63,-199.17 312.82,-195.17 317.99,-204.41 322.63,-199.17"/>
</a>
</g>
</g>
<!-- Node9 -->
<g id="Node000009" class="node">
<title>Node9</title>
<g id="a_Node000009"><a xlink:title=" ">
<polygon fill="#e0e0e0" stroke="#999999" points="469,-74 413,-74 413,-55 469,-55 469,-74"/>
<text text-anchor="middle" x="441" y="-62" font-family="Helvetica,sans-Serif" font-size="10.00">sstream</text>
</a>
</g>
</g>
<!-- Node8&#45;&gt;Node9 -->
<g id="edge9_Node000008_Node000009" class="edge">
<title>Node8&#45;&gt;Node9</title>
<g id="a_edge9_Node000008_Node000009"><a xlink:title=" ">
<path fill="none" stroke="#63b8ff" d="M544.41,-115.49C524.24,-105.75 490.98,-89.66 467.64,-78.38"/>
<polygon fill="#63b8ff" stroke="#63b8ff" points="469.14,-75.22 458.62,-74.02 466.1,-81.52 469.14,-75.22"/>
</a>
</g>
</g>
<!-- Node10 -->
<g id="Node000010" class="node">
<title>Node10</title>
<g id="a_Node000010"><a xlink:title=" ">
<polygon fill="#e0e0e0" stroke="#999999" points="777,-74 733,-74 733,-55 777,-55 777,-74"/>
<text text-anchor="middle" x="755" y="-62" font-family="Helvetica,sans-Serif" font-size="10.00">string</text>
</a>
</g>
</g>
<!-- Node8&#45;&gt;Node10 -->
<g id="edge10_Node000008_Node000010" class="edge">
<title>Node8&#45;&gt;Node10</title>
<g id="a_edge10_Node000008_Node000010"><a xlink:title=" ">
<path fill="none" stroke="#63b8ff" d="M590.06,-115.49C625.42,-104.78 686.03,-86.4 723.11,-75.17"/>
<polygon fill="#63b8ff" stroke="#63b8ff" points="724.35,-78.45 732.9,-72.2 722.32,-71.75 724.35,-78.45"/>
</a>
</g>
</g>
<!-- Node11 -->
<g id="Node000011" class="node">
<title>Node11</title>
<g id="a_Node000011"><a xlink:title=" ">
<polygon fill="#e0e0e0" stroke="#999999" points="519,-74 487,-74 487,-55 519,-55 519,-74"/>
<text text-anchor="middle" x="503" y="-62" font-family="Helvetica,sans-Serif" font-size="10.00">list</text>
</a>
</g>
</g>
<!-- Node8&#45;&gt;Node11 -->
<g id="edge11_Node000008_Node000011" class="edge">
<title>Node8&#45;&gt;Node11</title>
<g id="a_edge11_Node000008_Node000011"><a xlink:title=" ">
<path fill="none" stroke="#63b8ff" d="M553.29,-115.37C544.32,-106.47 530.12,-92.39 519.09,-81.45"/>
<polygon fill="#63b8ff" stroke="#63b8ff" points="521.31,-78.72 511.74,-74.17 516.38,-83.69 521.31,-78.72"/>
</a>
</g>
</g>
<!-- Node12 -->
<g id="Node000012" class="node">
<title>Node12</title>
<g id="a_Node000012"><a xlink:title=" ">
<polygon fill="#e0e0e0" stroke="#999999" points="575,-74 537,-74 537,-55 575,-55 575,-74"/>
<text text-anchor="middle" x="556" y="-62" font-family="Helvetica,sans-Serif" font-size="10.00">map</text>
</a>
</g>
</g>
<!-- Node8&#45;&gt;Node12 -->
<g id="edge12_Node000008_Node000012" class="edge">
<title>Node8&#45;&gt;Node12</title>
<g id="a_edge12_Node000008_Node000012"><a xlink:title=" ">
<path fill="none" stroke="#63b8ff" d="M561.11,-115.37C560.28,-107.25 559.01,-94.81 557.94,-84.39"/>
<polygon fill="#63b8ff" stroke="#63b8ff" points="561.39,-83.76 556.89,-74.17 554.43,-84.47 561.39,-83.76"/>
</a>
</g>
</g>
<!-- Node13 -->
<g id="Node000013" class="node">
<title>Node13</title>
<g id="a_Node000013"><a xlink:href="libpbd__visibility_8h.html" target="_top" xlink:title=" ">
<polygon fill="white" stroke="#666666" points="715,-74 593,-74 593,-55 715,-55 715,-74"/>
<text text-anchor="middle" x="654" y="-62" font-family="Helvetica,sans-Serif" font-size="10.00">pbd/libpbd_visibility.h</text>
</a>
</g>
</g>
<!-- Node8&#45;&gt;Node13 -->
<g id="edge13_Node000008_Node000013" class="edge">
<title>Node8&#45;&gt;Node13</title>
<g id="a_edge13_Node000008_Node000013"><a xlink:title=" ">
<path fill="none" stroke="#63b8ff" d="M575.57,-115.37C590.39,-105.95 614.33,-90.73 631.86,-79.58"/>
<polygon fill="#63b8ff" stroke="#63b8ff" points="633.81,-82.49 640.37,-74.17 630.05,-76.58 633.81,-82.49"/>
</a>
</g>
</g>
<!-- Node14&#45;&gt;Node5 -->
<g id="edge19_Node000014_Node000005" class="edge">
<title>Node14&#45;&gt;Node5</title>
<g id="a_edge19_Node000014_Node000005"><a xlink:title=" ">
<path fill="none" stroke="#63b8ff" d="M578.27,-175.93C559.19,-167.71 530.4,-154.45 507,-140 488.39,-128.51 486.88,-121.04 468,-110 414.2,-78.53 396.6,-78.82 339,-55 312.09,-43.87 281.35,-31.58 259.06,-22.74"/>
<polygon fill="#63b8ff" stroke="#63b8ff" points="260.34,-19.48 249.75,-19.06 257.76,-25.99 260.34,-19.48"/>
</a>
</g>
</g>
<!-- Node14&#45;&gt;Node8 -->
<g id="edge18_Node000014_Node000008" class="edge">
<title>Node14&#45;&gt;Node8</title>
<g id="a_edge18_Node000014_Node000008"><a xlink:title=" ">
<path fill="none" stroke="#63b8ff" d="M593.54,-175.87C588.13,-167.31 579.69,-153.97 572.9,-143.24"/>
<polygon fill="#63b8ff" stroke="#63b8ff" points="575.79,-141.25 567.48,-134.67 569.87,-144.99 575.79,-141.25"/>
</a>
</g>
</g>
<!-- Node14&#45;&gt;Node10 -->
<g id="edge17_Node000014_Node000010" class="edge">
<title>Node14&#45;&gt;Node10</title>
<g id="a_edge17_Node000014_Node000010"><a xlink:title=" ">
<path fill="none" stroke="#63b8ff" d="M603.85,-175.55C612.51,-160.28 632,-129.01 656,-110 676.05,-94.11 702.69,-82.56 723.28,-75.21"/>
<polygon fill="#63b8ff" stroke="#63b8ff" points="724.51,-78.49 732.84,-71.94 722.25,-71.86 724.51,-78.49"/>
</a>
</g>
</g>
<!-- Node15 -->
<g id="Node000015" class="node">
<title>Node15</title>
<g id="a_Node000015"><a xlink:title=" ">
<polygon fill="#e0e0e0" stroke="#999999" points="729.5,-134.5 664.5,-134.5 664.5,-115.5 729.5,-115.5 729.5,-134.5"/>
<text text-anchor="middle" x="697" y="-122.5" font-family="Helvetica,sans-Serif" font-size="10.00">exception</text>
</a>
</g>
</g>
<!-- Node14&#45;&gt;Node15 -->
<g id="edge16_Node000014_Node000015" class="edge">
<title>Node14&#45;&gt;Node15</title>
<g id="a_edge16_Node000014_Node000015"><a xlink:title=" ">
<path fill="none" stroke="#63b8ff" d="M613.46,-175.87C629.31,-166.41 654.97,-151.09 673.68,-139.92"/>
<polygon fill="#63b8ff" stroke="#63b8ff" points="675.69,-142.8 682.48,-134.67 672.1,-136.79 675.69,-142.8"/>
</a>
</g>
</g>
<!-- Node14&#45;&gt;Node16 -->
<g id="edge20_Node000014_Node000016" class="edge">
<title>Node14&#45;&gt;Node16</title>
<g id="a_edge20_Node000014_Node000016"><a xlink:title=" ">
<path fill="none" stroke="#63b8ff" d="M628.95,-175.99C659.38,-167.35 707.32,-153.74 745.49,-142.9"/>
<polygon fill="#63b8ff" stroke="#63b8ff" points="746.81,-146.16 755.47,-140.06 744.9,-139.43 746.81,-146.16"/>
</a>
</g>
</g>
<!-- Node16&#45;&gt;Node5 -->
<g id="edge29_Node000016_Node000005" class="edge">
<title>Node16&#45;&gt;Node5</title>
<g id="a_edge29_Node000016_Node000005"><a xlink:title=" ">
<path fill="none" stroke="#63b8ff" d="M805.51,-109.86C805.24,-93.86 802.09,-68.3 786,-55 767.75,-39.91 453.87,-22.01 305.07,-14.32"/>
<polygon fill="#63b8ff" stroke="#63b8ff" points="305.25,-10.82 295.08,-13.8 304.89,-17.81 305.25,-10.82"/>
</a>
</g>
</g>
<!-- Node16&#45;&gt;Node10 -->
<g id="edge28_Node000016_Node000010" class="edge">
<title>Node16&#45;&gt;Node10</title>
<g id="a_edge28_Node000016_Node000010"><a xlink:title=" ">
<path fill="none" stroke="#63b8ff" d="M792.9,-109.84C785.71,-101.43 776.57,-90.74 769.07,-81.96"/>
<polygon fill="#63b8ff" stroke="#63b8ff" points="771.65,-79.59 762.49,-74.27 766.33,-84.14 771.65,-79.59"/>
</a>
</g>
</g>
<!-- Node16&#45;&gt;Node17 -->
<g id="edge21_Node000016_Node000017" class="edge">
<title>Node16&#45;&gt;Node17</title>
<g id="a_edge21_Node000016_Node000017"><a xlink:title=" ">
<path fill="none" stroke="#63b8ff" d="M836.38,-109.99C857.94,-100.36 886.35,-87.67 907.31,-78.31"/>
<polygon fill="#63b8ff" stroke="#63b8ff" points="908.95,-81.41 916.65,-74.14 906.1,-75.02 908.95,-81.41"/>
</a>
</g>
</g>
<!-- Node21 -->
<g id="Node000021" class="node">
<title>Node21</title>
<g id="a_Node000021"><a xlink:title=" ">
<polygon fill="#e0e0e0" stroke="#999999" points="882.5,-74 833.5,-74 833.5,-55 882.5,-55 882.5,-74"/>
<text text-anchor="middle" x="858" y="-62" font-family="Helvetica,sans-Serif" font-size="10.00">cstdlib</text>
</a>
</g>
</g>
<!-- Node16&#45;&gt;Node21 -->
<g id="edge27_Node000016_Node000021" class="edge">
<title>Node16&#45;&gt;Node21</title>
<g id="a_edge27_Node000016_Node000021"><a xlink:title=" ">
<path fill="none" stroke="#63b8ff" d="M817.83,-109.84C825.52,-101.35 835.33,-90.52 843.33,-81.69"/>
<polygon fill="#63b8ff" stroke="#63b8ff" points="845.94,-84.03 850.06,-74.27 840.75,-79.33 845.94,-84.03"/>
</a>
</g>
</g>
<!-- Node17&#45;&gt;Node4 -->
<g id="edge22_Node000017_Node000004" class="edge">
<title>Node17&#45;&gt;Node4</title>
<g id="a_edge22_Node000017_Node000004"><a xlink:title=" ">
<path fill="none" stroke="#63b8ff" d="M900.97,-56.52C897.94,-55.98 894.92,-55.47 892,-55 777.34,-36.7 640.68,-21.22 576.59,-14.33"/>
<polygon fill="#63b8ff" stroke="#63b8ff" points="576.89,-10.84 566.58,-13.26 576.15,-17.8 576.89,-10.84"/>
</a>
</g>
</g>
<!-- Node17&#45;&gt;Node5 -->
<g id="edge26_Node000017_Node000005" class="edge">
<title>Node17&#45;&gt;Node5</title>
<g id="a_edge26_Node000017_Node000005"><a xlink:title=" ">
<path fill="none" stroke="#63b8ff" d="M901,-56.33C897.96,-55.83 894.93,-55.38 892,-55 680.81,-27.63 429.52,-16.6 305.35,-12.58"/>
<polygon fill="#63b8ff" stroke="#63b8ff" points="305.29,-9.07 295.18,-12.25 305.07,-16.07 305.29,-9.07"/>
</a>
</g>
</g>
<!-- Node18 -->
<g id="Node000018" class="node">
<title>Node18</title>
<g id="a_Node000018"><a xlink:title=" ">
<polygon fill="#e0e0e0" stroke="#999999" points="962.5,-19 909.5,-19 909.5,0 962.5,0 962.5,-19"/>
<text text-anchor="middle" x="936" y="-7" font-family="Helvetica,sans-Serif" font-size="10.00">iterator</text>
</a>
</g>
</g>
<!-- Node17&#45;&gt;Node18 -->
<g id="edge23_Node000017_Node000018" class="edge">
<title>Node17&#45;&gt;Node18</title>
<g id="a_edge23_Node000017_Node000018"><a xlink:title=" ">
<path fill="none" stroke="#63b8ff" d="M936,-54.75C936,-47.8 936,-37.85 936,-29.13"/>
<polygon fill="#63b8ff" stroke="#63b8ff" points="939.5,-29.09 936,-19.09 932.5,-29.09 939.5,-29.09"/>
</a>
</g>
</g>
<!-- Node19 -->
<g id="Node000019" class="node">
<title>Node19</title>
<g id="a_Node000019"><a xlink:title=" ">
<polygon fill="#e0e0e0" stroke="#999999" points="1031,-19 981,-19 981,0 1031,0 1031,-19"/>
<text text-anchor="middle" x="1006" y="-7" font-family="Helvetica,sans-Serif" font-size="10.00">climits</text>
</a>
</g>
</g>
<!-- Node17&#45;&gt;Node19 -->
<g id="edge24_Node000017_Node000019" class="edge">
<title>Node17&#45;&gt;Node19</title>
<g id="a_edge24_Node000017_Node000019"><a xlink:title=" ">
<path fill="none" stroke="#63b8ff" d="M947.25,-54.98C957.8,-47 973.8,-34.88 986.44,-25.31"/>
<polygon fill="#63b8ff" stroke="#63b8ff" points="988.69,-28 994.55,-19.17 984.46,-22.42 988.69,-28"/>
</a>
</g>
</g>
<!-- Node20 -->
<g id="Node000020" class="node">
<title>Node20</title>
<g id="a_Node000020"><a xlink:title=" ">
<polygon fill="#e0e0e0" stroke="#999999" points="891,-19 777,-19 777,0 891,0 891,-19"/>
<text text-anchor="middle" x="834" y="-7" font-family="Helvetica,sans-Serif" font-size="10.00">boost/operators.hpp</text>
</a>
</g>
</g>
<!-- Node17&#45;&gt;Node20 -->
<g id="edge25_Node000017_Node000020" class="edge">
<title>Node17&#45;&gt;Node20</title>
<g id="a_edge25_Node000017_Node000020"><a xlink:title=" ">
<path fill="none" stroke="#63b8ff" d="M919.61,-54.98C903.43,-46.57 878.43,-33.59 859.62,-23.81"/>
<polygon fill="#63b8ff" stroke="#63b8ff" points="861.17,-20.68 850.69,-19.17 857.95,-26.89 861.17,-20.68"/>
</a>
</g>
</g>
<!-- Node22&#45;&gt;Node5 -->
<g id="edge34_Node000022_Node000005" class="edge">
<title>Node22&#45;&gt;Node5</title>
<g id="a_edge34_Node000022_Node000005"><a xlink:title=" ">
<path fill="none" stroke="#63b8ff" d="M173.63,-175.8C168.21,-154.16 156.82,-96.66 176,-55 181.75,-42.52 192.91,-32.24 203.42,-24.71"/>
<polygon fill="#63b8ff" stroke="#63b8ff" points="205.57,-27.49 211.97,-19.05 201.7,-21.65 205.57,-27.49"/>
</a>
</g>
</g>
<!-- Node23&#45;&gt;Node2 -->
<g id="edge36_Node000023_Node000002" class="edge">
<title>Node23&#45;&gt;Node2</title>
<g id="a_edge36_Node000023_Node000002"><a xlink:title=" ">
<path fill="none" stroke="#63b8ff" d="M267.23,-175.99C221.67,-165.16 143.21,-146.5 96.1,-135.3"/>
<polygon fill="#63b8ff" stroke="#63b8ff" points="96.8,-131.87 86.27,-132.96 95.19,-138.68 96.8,-131.87"/>
</a>
</g>
</g>
<!-- Node23&#45;&gt;Node3 -->
<g id="edge40_Node000023_Node000003" class="edge">
<title>Node23&#45;&gt;Node3</title>
<g id="a_edge40_Node000023_Node000003"><a xlink:title=" ">
<path fill="none" stroke="#63b8ff" d="M321.9,-175.99C343.66,-166.2 379.62,-150.02 404.71,-138.73"/>
<polygon fill="#63b8ff" stroke="#63b8ff" points="406.39,-141.81 414.07,-134.52 403.52,-135.43 406.39,-141.81"/>
</a>
</g>
</g>
<!-- Node23&#45;&gt;Node5 -->
<g id="edge39_Node000023_Node000005" class="edge">
<title>Node23&#45;&gt;Node5</title>
<g id="a_edge39_Node000023_Node000005"><a xlink:title=" ">
<path fill="none" stroke="#63b8ff" d="M286.41,-175.93C273.46,-168.31 256.17,-155.93 247,-140 226.75,-104.84 225.51,-55.72 226.61,-29.22"/>
<polygon fill="#63b8ff" stroke="#63b8ff" points="230.11,-29.25 227.19,-19.06 223.12,-28.85 230.11,-29.25"/>
</a>
</g>
</g>
<!-- Node24 -->
<g id="Node000024" class="node">
<title>Node24</title>
<g id="a_Node000024"><a xlink:title=" ">
<polygon fill="#e0e0e0" stroke="#999999" points="320,-134.5 256,-134.5 256,-115.5 320,-115.5 320,-134.5"/>
<text text-anchor="middle" x="288" y="-122.5" font-family="Helvetica,sans-Serif" font-size="10.00">algorithm</text>
</a>
</g>
</g>
<!-- Node23&#45;&gt;Node24 -->
<g id="edge37_Node000023_Node000024" class="edge">
<title>Node23&#45;&gt;Node24</title>
<g id="a_edge37_Node000023_Node000024"><a xlink:title=" ">
<path fill="none" stroke="#63b8ff" d="M300.79,-175.87C298.68,-167.66 295.45,-155.04 292.76,-144.55"/>
<polygon fill="#63b8ff" stroke="#63b8ff" points="296.1,-143.48 290.22,-134.67 289.32,-145.22 296.1,-143.48"/>
</a>
</g>
</g>
<!-- Node25 -->
<g id="Node000025" class="node">
<title>Node25</title>
<g id="a_Node000025"><a xlink:title=" ">
<polygon fill="#e0e0e0" stroke="#999999" points="388,-134.5 338,-134.5 338,-115.5 388,-115.5 388,-134.5"/>
<text text-anchor="middle" x="363" y="-122.5" font-family="Helvetica,sans-Serif" font-size="10.00">cstring</text>
</a>
</g>
</g>
<!-- Node23&#45;&gt;Node25 -->
<g id="edge38_Node000023_Node000025" class="edge">
<title>Node23&#45;&gt;Node25</title>
<g id="a_edge38_Node000023_Node000025"><a xlink:title=" ">
<path fill="none" stroke="#63b8ff" d="M311.85,-175.87C320.98,-166.97 335.42,-152.89 346.64,-141.95"/>
<polygon fill="#63b8ff" stroke="#63b8ff" points="349.39,-144.15 354.11,-134.67 344.51,-139.14 349.39,-144.15"/>
</a>
</g>
</g>
</g>
</svg>
