<?xml version="1.0" encoding="UTF-8" standalone="no"?>
<!DOCTYPE svg PUBLIC "-//W3C//DTD SVG 1.1//EN"
 "http://www.w3.org/Graphics/SVG/1.1/DTD/svg11.dtd">
<!-- Generated by graphviz version 2.43.0 (0)
 -->
<!-- Title: auto_bundle.h Pages: 1 -->
<svg width="2142pt" height="324pt"
 viewBox="0.00 0.00 2142.15 324.00" xmlns="http://www.w3.org/2000/svg" xmlns:xlink="http://www.w3.org/1999/xlink">
<g id="graph0" class="graph" transform="scale(1 1) rotate(0) translate(4 320)">
<title>auto_bundle.h</title>
<!-- Node1 -->
<g id="Node000001" class="node">
<title>Node1</title>
<g id="a_Node000001"><a xlink:title=" ">
<polygon fill="#999999" stroke="#666666" points="1442.65,-316 1356.65,-316 1356.65,-297 1442.65,-297 1442.65,-316"/>
<text text-anchor="middle" x="1399.65" y="-304" font-family="Helvetica,sans-Serif" font-size="10.00">auto_bundle.h</text>
</a>
</g>
</g>
<!-- Node2 -->
<g id="Node000002" class="node">
<title>Node2</title>
<g id="a_Node000002"><a xlink:title=" ">
<polygon fill="#e0e0e0" stroke="#999999" points="2134.15,-79.5 2087.15,-79.5 2087.15,-60.5 2134.15,-60.5 2134.15,-79.5"/>
<text text-anchor="middle" x="2110.65" y="-67.5" font-family="Helvetica,sans-Serif" font-size="10.00">vector</text>
</a>
</g>
</g>
<!-- Node1&#45;&gt;Node2 -->
<g id="edge1_Node000001_Node000002" class="edge">
<title>Node1&#45;&gt;Node2</title>
<g id="a_edge1_Node000001_Node000002"><a xlink:title=" ">
<path fill="none" stroke="#63b8ff" d="M1432.97,-296.98C1516.18,-275.41 1739.41,-215.75 1920.65,-151 1979.34,-130.03 2046.1,-100.58 2082.79,-83.88"/>
<polygon fill="#63b8ff" stroke="#63b8ff" points="2084.67,-86.87 2092.31,-79.53 2081.76,-80.5 2084.67,-86.87"/>
</a>
</g>
</g>
<!-- Node3 -->
<g id="Node000003" class="node">
<title>Node3</title>
<g id="a_Node000003"><a xlink:title=" ">
<polygon fill="#e0e0e0" stroke="#999999" points="347.15,-79.5 244.15,-79.5 244.15,-60.5 347.15,-60.5 347.15,-79.5"/>
<text text-anchor="middle" x="295.65" y="-67.5" font-family="Helvetica,sans-Serif" font-size="10.00">glibmm/threads.h</text>
</a>
</g>
</g>
<!-- Node1&#45;&gt;Node3 -->
<g id="edge2_Node000001_Node000003" class="edge">
<title>Node1&#45;&gt;Node3</title>
<g id="a_edge2_Node000001_Node000003"><a xlink:title=" ">
<path fill="none" stroke="#63b8ff" d="M1356.37,-303.3C1191.31,-294.57 601.64,-260.19 422.65,-206 372.61,-190.85 351.62,-191.59 318.65,-151 304.38,-133.42 298.96,-107.4 296.9,-89.84"/>
<polygon fill="#63b8ff" stroke="#63b8ff" points="300.37,-89.35 295.98,-79.71 293.4,-89.99 300.37,-89.35"/>
</a>
</g>
</g>
<!-- Node4 -->
<g id="Node000004" class="node">
<title>Node4</title>
<g id="a_Node000004"><a xlink:href="bundle_8h.html" target="_top" xlink:title=" ">
<polygon fill="white" stroke="#666666" points="1446.15,-261 1353.15,-261 1353.15,-242 1446.15,-242 1446.15,-261"/>
<text text-anchor="middle" x="1399.65" y="-249" font-family="Helvetica,sans-Serif" font-size="10.00">ardour/bundle.h</text>
</a>
</g>
</g>
<!-- Node1&#45;&gt;Node4 -->
<g id="edge3_Node000001_Node000004" class="edge">
<title>Node1&#45;&gt;Node4</title>
<g id="a_edge3_Node000001_Node000004"><a xlink:title=" ">
<path fill="none" stroke="#63b8ff" d="M1399.65,-296.75C1399.65,-289.8 1399.65,-279.85 1399.65,-271.13"/>
<polygon fill="#63b8ff" stroke="#63b8ff" points="1403.15,-271.09 1399.65,-261.09 1396.15,-271.09 1403.15,-271.09"/>
</a>
</g>
</g>
<!-- Node4&#45;&gt;Node2 -->
<g id="edge6_Node000004_Node000002" class="edge">
<title>Node4&#45;&gt;Node2</title>
<g id="a_edge6_Node000004_Node000002"><a xlink:title=" ">
<path fill="none" stroke="#63b8ff" d="M1445.6,-241.96C1556.09,-220.85 1844.77,-162.26 2077.65,-85 2079.28,-84.46 2080.93,-83.88 2082.59,-83.26"/>
<polygon fill="#63b8ff" stroke="#63b8ff" points="2084,-86.47 2092.01,-79.53 2081.42,-79.96 2084,-86.47"/>
</a>
</g>
</g>
<!-- Node4&#45;&gt;Node3 -->
<g id="edge7_Node000004_Node000003" class="edge">
<title>Node4&#45;&gt;Node3</title>
<g id="a_edge7_Node000004_Node000003"><a xlink:title=" ">
<path fill="none" stroke="#63b8ff" d="M1352.93,-249.19C1239.03,-245.64 938.14,-234.16 688.65,-206 538.28,-189.03 481.1,-230.99 352.65,-151 328.96,-136.24 312.26,-107.65 303.3,-88.95"/>
<polygon fill="#63b8ff" stroke="#63b8ff" points="306.43,-87.39 299.12,-79.73 300.06,-90.28 306.43,-87.39"/>
</a>
</g>
</g>
<!-- Node5 -->
<g id="Node000005" class="node">
<title>Node5</title>
<g id="a_Node000005"><a xlink:title=" ">
<polygon fill="#e0e0e0" stroke="#999999" points="1571.65,-79.5 1513.65,-79.5 1513.65,-60.5 1571.65,-60.5 1571.65,-79.5"/>
<text text-anchor="middle" x="1542.65" y="-67.5" font-family="Helvetica,sans-Serif" font-size="10.00">memory</text>
</a>
</g>
</g>
<!-- Node4&#45;&gt;Node5 -->
<g id="edge4_Node000004_Node000005" class="edge">
<title>Node4&#45;&gt;Node5</title>
<g id="a_edge4_Node000004_Node000005"><a xlink:title=" ">
<path fill="none" stroke="#63b8ff" d="M1436.99,-241.99C1458.04,-235.42 1483.3,-224.26 1499.65,-206 1529.5,-172.66 1538.64,-118.52 1541.43,-89.99"/>
<polygon fill="#63b8ff" stroke="#63b8ff" points="1544.94,-90.03 1542.26,-79.78 1537.96,-89.46 1544.94,-90.03"/>
</a>
</g>
</g>
<!-- Node6 -->
<g id="Node000006" class="node">
<title>Node6</title>
<g id="a_Node000006"><a xlink:title=" ">
<polygon fill="#e0e0e0" stroke="#999999" points="1469.65,-19 1425.65,-19 1425.65,0 1469.65,0 1469.65,-19"/>
<text text-anchor="middle" x="1447.65" y="-7" font-family="Helvetica,sans-Serif" font-size="10.00">string</text>
</a>
</g>
</g>
<!-- Node4&#45;&gt;Node6 -->
<g id="edge5_Node000004_Node000006" class="edge">
<title>Node4&#45;&gt;Node6</title>
<g id="a_edge5_Node000004_Node000006"><a xlink:title=" ">
<path fill="none" stroke="#63b8ff" d="M1422.76,-241.98C1438.24,-234.92 1457.41,-223.23 1466.65,-206 1498.04,-147.47 1470.67,-64.83 1455.78,-28.65"/>
<polygon fill="#63b8ff" stroke="#63b8ff" points="1458.96,-27.18 1451.8,-19.37 1452.52,-29.94 1458.96,-27.18"/>
</a>
</g>
</g>
<!-- Node7 -->
<g id="Node000007" class="node">
<title>Node7</title>
<g id="a_Node000007"><a xlink:href="signals_8h.html" target="_top" xlink:title=" ">
<polygon fill="white" stroke="#666666" points="778.15,-206 697.15,-206 697.15,-187 778.15,-187 778.15,-206"/>
<text text-anchor="middle" x="737.65" y="-194" font-family="Helvetica,sans-Serif" font-size="10.00">pbd/signals.h</text>
</a>
</g>
</g>
<!-- Node4&#45;&gt;Node7 -->
<g id="edge8_Node000004_Node000007" class="edge">
<title>Node4&#45;&gt;Node7</title>
<g id="a_edge8_Node000004_Node000007"><a xlink:title=" ">
<path fill="none" stroke="#63b8ff" d="M1353.1,-246.77C1233.01,-237.16 913.46,-211.58 788.63,-201.58"/>
<polygon fill="#63b8ff" stroke="#63b8ff" points="788.81,-198.09 778.57,-200.78 788.26,-205.06 788.81,-198.09"/>
</a>
</g>
</g>
<!-- Node26 -->
<g id="Node000026" class="node">
<title>Node26</title>
<g id="a_Node000026"><a xlink:href="data__type_8h.html" target="_top" xlink:title=" ">
<polygon fill="white" stroke="#666666" points="1368.15,-145.5 1259.15,-145.5 1259.15,-126.5 1368.15,-126.5 1368.15,-145.5"/>
<text text-anchor="middle" x="1313.65" y="-133.5" font-family="Helvetica,sans-Serif" font-size="10.00">ardour/data_type.h</text>
</a>
</g>
</g>
<!-- Node4&#45;&gt;Node26 -->
<g id="edge39_Node000004_Node000026" class="edge">
<title>Node4&#45;&gt;Node26</title>
<g id="a_edge39_Node000004_Node000026"><a xlink:title=" ">
<path fill="none" stroke="#63b8ff" d="M1379.48,-241.91C1364.44,-234.5 1344.52,-222.4 1332.65,-206 1321.97,-191.24 1317.29,-170.75 1315.24,-155.94"/>
<polygon fill="#63b8ff" stroke="#63b8ff" points="1318.71,-155.46 1314.13,-145.91 1311.75,-156.23 1318.71,-155.46"/>
</a>
</g>
</g>
<!-- Node29 -->
<g id="Node000029" class="node">
<title>Node29</title>
<g id="a_Node000029"><a xlink:href="chan__count_8h.html" target="_top" xlink:title=" ">
<polygon fill="white" stroke="#666666" points="1457.65,-206 1341.65,-206 1341.65,-187 1457.65,-187 1457.65,-206"/>
<text text-anchor="middle" x="1399.65" y="-194" font-family="Helvetica,sans-Serif" font-size="10.00">ardour/chan_count.h</text>
</a>
</g>
</g>
<!-- Node4&#45;&gt;Node29 -->
<g id="edge44_Node000004_Node000029" class="edge">
<title>Node4&#45;&gt;Node29</title>
<g id="a_edge44_Node000004_Node000029"><a xlink:title=" ">
<path fill="none" stroke="#63b8ff" d="M1399.65,-241.75C1399.65,-234.8 1399.65,-224.85 1399.65,-216.13"/>
<polygon fill="#63b8ff" stroke="#63b8ff" points="1403.15,-216.09 1399.65,-206.09 1396.15,-216.09 1403.15,-216.09"/>
</a>
</g>
</g>
<!-- Node7&#45;&gt;Node3 -->
<g id="edge13_Node000007_Node000003" class="edge">
<title>Node7&#45;&gt;Node3</title>
<g id="a_edge13_Node000007_Node000003"><a xlink:title=" ">
<path fill="none" stroke="#63b8ff" d="M696.94,-192.75C619.39,-187.09 453.5,-172.8 400.65,-151 381.7,-143.18 337.96,-107.22 313.33,-86.27"/>
<polygon fill="#63b8ff" stroke="#63b8ff" points="315.36,-83.4 305.48,-79.56 310.8,-88.72 315.36,-83.4"/>
</a>
</g>
</g>
<!-- Node8 -->
<g id="Node000008" class="node">
<title>Node8</title>
<g id="a_Node000008"><a xlink:title=" ">
<polygon fill="#e0e0e0" stroke="#999999" points="810.15,-145.5 759.15,-145.5 759.15,-126.5 810.15,-126.5 810.15,-145.5"/>
<text text-anchor="middle" x="784.65" y="-133.5" font-family="Helvetica,sans-Serif" font-size="10.00">csignal</text>
</a>
</g>
</g>
<!-- Node7&#45;&gt;Node8 -->
<g id="edge9_Node000007_Node000008" class="edge">
<title>Node7&#45;&gt;Node8</title>
<g id="a_edge9_Node000007_Node000008"><a xlink:title=" ">
<path fill="none" stroke="#63b8ff" d="M744.59,-186.87C751.6,-178.14 762.61,-164.43 771.32,-153.59"/>
<polygon fill="#63b8ff" stroke="#63b8ff" points="774.15,-155.66 777.69,-145.67 768.7,-151.27 774.15,-155.66"/>
</a>
</g>
</g>
<!-- Node9 -->
<g id="Node000009" class="node">
<title>Node9</title>
<g id="a_Node000009"><a xlink:title=" ">
<polygon fill="#e0e0e0" stroke="#999999" points="585.65,-79.5 553.65,-79.5 553.65,-60.5 585.65,-60.5 585.65,-79.5"/>
<text text-anchor="middle" x="569.65" y="-67.5" font-family="Helvetica,sans-Serif" font-size="10.00">list</text>
</a>
</g>
</g>
<!-- Node7&#45;&gt;Node9 -->
<g id="edge10_Node000007_Node000009" class="edge">
<title>Node7&#45;&gt;Node9</title>
<g id="a_edge10_Node000007_Node000009"><a xlink:title=" ">
<path fill="none" stroke="#63b8ff" d="M697.11,-192.28C666.14,-187.77 624.36,-176.95 597.65,-151 580.95,-134.77 574.2,-108.04 571.48,-89.99"/>
<polygon fill="#63b8ff" stroke="#63b8ff" points="574.92,-89.31 570.23,-79.81 567.97,-90.16 574.92,-89.31"/>
</a>
</g>
</g>
<!-- Node10 -->
<g id="Node000010" class="node">
<title>Node10</title>
<g id="a_Node000010"><a xlink:title=" ">
<polygon fill="#e0e0e0" stroke="#999999" points="875.65,-79.5 837.65,-79.5 837.65,-60.5 875.65,-60.5 875.65,-79.5"/>
<text text-anchor="middle" x="856.65" y="-67.5" font-family="Helvetica,sans-Serif" font-size="10.00">map</text>
</a>
</g>
</g>
<!-- Node7&#45;&gt;Node10 -->
<g id="edge11_Node000007_Node000010" class="edge">
<title>Node7&#45;&gt;Node10</title>
<g id="a_edge11_Node000007_Node000010"><a xlink:title=" ">
<path fill="none" stroke="#63b8ff" d="M762.59,-186.87C780.41,-179.63 803.92,-167.78 819.65,-151 836.21,-133.35 846.43,-106.97 851.83,-89.38"/>
<polygon fill="#63b8ff" stroke="#63b8ff" points="855.2,-90.31 854.57,-79.73 848.47,-88.39 855.2,-90.31"/>
</a>
</g>
</g>
<!-- Node11 -->
<g id="Node000011" class="node">
<title>Node11</title>
<g id="a_Node000011"><a xlink:title=" ">
<polygon fill="#e0e0e0" stroke="#999999" points="943.65,-79.5 893.65,-79.5 893.65,-60.5 943.65,-60.5 943.65,-79.5"/>
<text text-anchor="middle" x="918.65" y="-67.5" font-family="Helvetica,sans-Serif" font-size="10.00">atomic</text>
</a>
</g>
</g>
<!-- Node7&#45;&gt;Node11 -->
<g id="edge12_Node000007_Node000011" class="edge">
<title>Node7&#45;&gt;Node11</title>
<g id="a_edge12_Node000007_Node000011"><a xlink:title=" ">
<path fill="none" stroke="#63b8ff" d="M778.34,-194.75C887.89,-192.29 1182.72,-182.78 1211.65,-151 1220.63,-141.14 1220.41,-131.06 1211.65,-121 1173.5,-77.17 1008.74,-100.18 952.65,-85 950.71,-84.47 948.73,-83.87 946.76,-83.2"/>
<polygon fill="#63b8ff" stroke="#63b8ff" points="947.65,-79.8 937.06,-79.57 945.2,-86.36 947.65,-79.8"/>
</a>
</g>
</g>
<!-- Node12 -->
<g id="Node000012" class="node">
<title>Node12</title>
<g id="a_Node000012"><a xlink:title=" ">
<polygon fill="#e0e0e0" stroke="#999999" points="992.65,-145.5 866.65,-145.5 866.65,-126.5 992.65,-126.5 992.65,-145.5"/>
<text text-anchor="middle" x="929.65" y="-133.5" font-family="Helvetica,sans-Serif" font-size="10.00">boost/bind/protect.hpp</text>
</a>
</g>
</g>
<!-- Node7&#45;&gt;Node12 -->
<g id="edge14_Node000007_Node000012" class="edge">
<title>Node7&#45;&gt;Node12</title>
<g id="a_edge14_Node000007_Node000012"><a xlink:title=" ">
<path fill="none" stroke="#63b8ff" d="M765.57,-186.99C798.84,-176.86 854.6,-159.87 891.75,-148.55"/>
<polygon fill="#63b8ff" stroke="#63b8ff" points="893.15,-151.78 901.7,-145.52 891.11,-145.08 893.15,-151.78"/>
</a>
</g>
</g>
<!-- Node13 -->
<g id="Node000013" class="node">
<title>Node13</title>
<g id="a_Node000013"><a xlink:title=" ">
<polygon fill="#e0e0e0" stroke="#999999" points="1128.65,-151 1010.65,-151 1010.65,-121 1128.65,-121 1128.65,-151"/>
<text text-anchor="start" x="1018.65" y="-139" font-family="Helvetica,sans-Serif" font-size="10.00">boost/enable_shared</text>
<text text-anchor="middle" x="1069.65" y="-128" font-family="Helvetica,sans-Serif" font-size="10.00">_from_this.hpp</text>
</a>
</g>
</g>
<!-- Node7&#45;&gt;Node13 -->
<g id="edge15_Node000007_Node000013" class="edge">
<title>Node7&#45;&gt;Node13</title>
<g id="a_edge15_Node000007_Node000013"><a xlink:title=" ">
<path fill="none" stroke="#63b8ff" d="M778.44,-189.09C828.39,-181.14 915.86,-166.89 1000.32,-151.21"/>
<polygon fill="#63b8ff" stroke="#63b8ff" points="1001.15,-154.62 1010.34,-149.34 999.87,-147.74 1001.15,-154.62"/>
</a>
</g>
</g>
<!-- Node14 -->
<g id="Node000014" class="node">
<title>Node14</title>
<g id="a_Node000014"><a xlink:title=" ">
<polygon fill="#e0e0e0" stroke="#999999" points="1202.65,-145.5 1146.65,-145.5 1146.65,-126.5 1202.65,-126.5 1202.65,-145.5"/>
<text text-anchor="middle" x="1174.65" y="-133.5" font-family="Helvetica,sans-Serif" font-size="10.00">optional</text>
</a>
</g>
</g>
<!-- Node7&#45;&gt;Node14 -->
<g id="edge16_Node000007_Node000014" class="edge">
<title>Node7&#45;&gt;Node14</title>
<g id="a_edge16_Node000007_Node000014"><a xlink:title=" ">
<path fill="none" stroke="#63b8ff" d="M778.25,-194.34C851.18,-191.51 1008.75,-182.03 1137.65,-151 1140.11,-150.41 1142.62,-149.7 1145.12,-148.92"/>
<polygon fill="#63b8ff" stroke="#63b8ff" points="1146.28,-152.22 1154.58,-145.64 1143.99,-145.6 1146.28,-152.22"/>
</a>
</g>
</g>
<!-- Node15 -->
<g id="Node000015" class="node">
<title>Node15</title>
<g id="a_Node000015"><a xlink:href="libpbd__visibility_8h.html" target="_top" xlink:title=" ">
<polygon fill="white" stroke="#666666" points="593.65,-19 471.65,-19 471.65,0 593.65,0 593.65,-19"/>
<text text-anchor="middle" x="532.65" y="-7" font-family="Helvetica,sans-Serif" font-size="10.00">pbd/libpbd_visibility.h</text>
</a>
</g>
</g>
<!-- Node7&#45;&gt;Node15 -->
<g id="edge17_Node000007_Node000015" class="edge">
<title>Node7&#45;&gt;Node15</title>
<g id="a_edge17_Node000007_Node000015"><a xlink:title=" ">
<path fill="none" stroke="#63b8ff" d="M696.79,-194.28C561.94,-190.03 136.38,-174.85 79.65,-151 39.02,-133.92 23.67,-125.22 5.65,-85 0.2,-72.83 -3.37,-64.82 5.65,-55 35.85,-22.14 324.18,-13.52 461.11,-11.28"/>
<polygon fill="#63b8ff" stroke="#63b8ff" points="461.56,-14.78 471.5,-11.12 461.45,-7.78 461.56,-14.78"/>
</a>
</g>
</g>
<!-- Node16 -->
<g id="Node000016" class="node">
<title>Node16</title>
<g id="a_Node000016"><a xlink:href="event__loop_8h.html" target="_top" xlink:title=" ">
<polygon fill="white" stroke="#666666" points="741.15,-145.5 640.15,-145.5 640.15,-126.5 741.15,-126.5 741.15,-145.5"/>
<text text-anchor="middle" x="690.65" y="-133.5" font-family="Helvetica,sans-Serif" font-size="10.00">pbd/event_loop.h</text>
</a>
</g>
</g>
<!-- Node7&#45;&gt;Node16 -->
<g id="edge18_Node000007_Node000016" class="edge">
<title>Node7&#45;&gt;Node16</title>
<g id="a_edge18_Node000007_Node000016"><a xlink:title=" ">
<path fill="none" stroke="#63b8ff" d="M730.72,-186.87C723.7,-178.14 712.69,-164.43 703.98,-153.59"/>
<polygon fill="#63b8ff" stroke="#63b8ff" points="706.61,-151.27 697.61,-145.67 701.15,-155.66 706.61,-151.27"/>
</a>
</g>
</g>
<!-- Node19 -->
<g id="Node000019" class="node">
<title>Node19</title>
<g id="a_Node000019"><a xlink:href="stack__allocator_8h.html" target="_top" xlink:title=" ">
<polygon fill="white" stroke="#666666" points="208.65,-145.5 88.65,-145.5 88.65,-126.5 208.65,-126.5 208.65,-145.5"/>
<text text-anchor="middle" x="148.65" y="-133.5" font-family="Helvetica,sans-Serif" font-size="10.00">pbd/stack_allocator.h</text>
</a>
</g>
</g>
<!-- Node7&#45;&gt;Node19 -->
<g id="edge27_Node000007_Node000019" class="edge">
<title>Node7&#45;&gt;Node19</title>
<g id="a_edge27_Node000007_Node000019"><a xlink:title=" ">
<path fill="none" stroke="#63b8ff" d="M696.7,-191.43C597.49,-181.58 343.28,-156.33 219.08,-144"/>
<polygon fill="#63b8ff" stroke="#63b8ff" points="219.22,-140.49 208.92,-142.99 218.52,-147.46 219.22,-140.49"/>
</a>
</g>
</g>
<!-- Node22 -->
<g id="Node000022" class="node">
<title>Node22</title>
<g id="a_Node000022"><a xlink:href="stacktrace_8h.html" target="_top" xlink:title=" ">
<polygon fill="white" stroke="#666666" points="507.65,-145.5 409.65,-145.5 409.65,-126.5 507.65,-126.5 507.65,-145.5"/>
<text text-anchor="middle" x="458.65" y="-133.5" font-family="Helvetica,sans-Serif" font-size="10.00">pbd/stacktrace.h</text>
</a>
</g>
</g>
<!-- Node7&#45;&gt;Node22 -->
<g id="edge31_Node000007_Node000022" class="edge">
<title>Node7&#45;&gt;Node22</title>
<g id="a_edge31_Node000007_Node000022"><a xlink:title=" ">
<path fill="none" stroke="#63b8ff" d="M697.01,-187.32C653.56,-178.53 582.68,-164.07 521.65,-151 516.71,-149.94 511.56,-148.82 506.42,-147.7"/>
<polygon fill="#63b8ff" stroke="#63b8ff" points="507.13,-144.27 496.61,-145.53 505.62,-151.1 507.13,-144.27"/>
</a>
</g>
</g>
<!-- Node24 -->
<g id="Node000024" class="node">
<title>Node24</title>
<g id="a_Node000024"><a xlink:title=" ">
<polygon fill="#e0e0e0" stroke="#999999" points="535.65,-79.5 475.65,-79.5 475.65,-60.5 535.65,-60.5 535.65,-79.5"/>
<text text-anchor="middle" x="505.65" y="-67.5" font-family="Helvetica,sans-Serif" font-size="10.00">iostream</text>
</a>
</g>
</g>
<!-- Node7&#45;&gt;Node24 -->
<g id="edge38_Node000007_Node000024" class="edge">
<title>Node7&#45;&gt;Node24</title>
<g id="a_edge38_Node000007_Node000024"><a xlink:title=" ">
<path fill="none" stroke="#63b8ff" d="M697.08,-190.99C662.62,-185.67 612.97,-174.4 575.65,-151 549.95,-134.89 528.4,-106.49 516.26,-88.22"/>
<polygon fill="#63b8ff" stroke="#63b8ff" points="519.15,-86.24 510.8,-79.71 513.26,-90.02 519.15,-86.24"/>
</a>
</g>
</g>
<!-- Node16&#45;&gt;Node2 -->
<g id="edge21_Node000016_Node000002" class="edge">
<title>Node16&#45;&gt;Node2</title>
<g id="a_edge21_Node000016_Node000002"><a xlink:title=" ">
<path fill="none" stroke="#63b8ff" d="M721.88,-126.45C731.08,-124.28 741.21,-122.22 750.65,-121 1043.23,-83.29 1789.39,-147.7 2077.65,-85 2079.87,-84.52 2082.14,-83.89 2084.38,-83.16"/>
<polygon fill="#63b8ff" stroke="#63b8ff" points="2085.82,-86.35 2093.92,-79.52 2083.33,-79.81 2085.82,-86.35"/>
</a>
</g>
</g>
<!-- Node16&#45;&gt;Node3 -->
<g id="edge25_Node000016_Node000003" class="edge">
<title>Node16&#45;&gt;Node3</title>
<g id="a_edge25_Node000016_Node000003"><a xlink:title=" ">
<path fill="none" stroke="#63b8ff" d="M639.82,-126.76C567.53,-115.05 435.19,-93.61 357.37,-81"/>
<polygon fill="#63b8ff" stroke="#63b8ff" points="357.66,-77.5 347.23,-79.36 356.54,-84.41 357.66,-77.5"/>
</a>
</g>
</g>
<!-- Node16&#45;&gt;Node6 -->
<g id="edge20_Node000016_Node000006" class="edge">
<title>Node16&#45;&gt;Node6</title>
<g id="a_edge20_Node000016_Node000006"><a xlink:title=" ">
<path fill="none" stroke="#63b8ff" d="M722.53,-126.48C731.56,-124.36 741.44,-122.32 750.65,-121 891.65,-100.74 1264.76,-151.66 1390.65,-85 1413.86,-72.71 1430.45,-46.35 1439.54,-28.51"/>
<polygon fill="#63b8ff" stroke="#63b8ff" points="1442.75,-29.93 1443.93,-19.4 1436.44,-26.89 1442.75,-29.93"/>
</a>
</g>
</g>
<!-- Node16&#45;&gt;Node10 -->
<g id="edge22_Node000016_Node000010" class="edge">
<title>Node16&#45;&gt;Node10</title>
<g id="a_edge22_Node000016_Node000010"><a xlink:title=" ">
<path fill="none" stroke="#63b8ff" d="M714.31,-126.44C740.99,-116.71 785.63,-100.2 823.65,-85 825.06,-84.44 826.5,-83.85 827.95,-83.26"/>
<polygon fill="#63b8ff" stroke="#63b8ff" points="829.63,-86.35 837.51,-79.28 826.94,-79.89 829.63,-86.35"/>
</a>
</g>
</g>
<!-- Node16&#45;&gt;Node11 -->
<g id="edge19_Node000016_Node000011" class="edge">
<title>Node16&#45;&gt;Node11</title>
<g id="a_edge19_Node000016_Node000011"><a xlink:title=" ">
<path fill="none" stroke="#63b8ff" d="M726.33,-126.43C773.89,-114.9 855.45,-94.72 884.65,-85 886.28,-84.46 887.93,-83.88 889.6,-83.27"/>
<polygon fill="#63b8ff" stroke="#63b8ff" points="890.99,-86.49 899.05,-79.61 888.46,-79.96 890.99,-86.49"/>
</a>
</g>
</g>
<!-- Node16&#45;&gt;Node15 -->
<g id="edge26_Node000016_Node000015" class="edge">
<title>Node16&#45;&gt;Node15</title>
<g id="a_edge26_Node000016_Node000015"><a xlink:title=" ">
<path fill="none" stroke="#63b8ff" d="M691.05,-126.26C691.29,-110.04 689.43,-75.08 670.65,-55 653.2,-36.34 627.89,-25.48 603.69,-19.17"/>
<polygon fill="#63b8ff" stroke="#63b8ff" points="604.32,-15.72 593.78,-16.81 602.7,-22.53 604.32,-15.72"/>
</a>
</g>
</g>
<!-- Node17 -->
<g id="Node000017" class="node">
<title>Node17</title>
<g id="a_Node000017"><a xlink:title=" ">
<polygon fill="#e0e0e0" stroke="#999999" points="1264.15,-19 1211.15,-19 1211.15,0 1264.15,0 1264.15,-19"/>
<text text-anchor="middle" x="1237.65" y="-7" font-family="Helvetica,sans-Serif" font-size="10.00">stdint.h</text>
</a>
</g>
</g>
<!-- Node16&#45;&gt;Node17 -->
<g id="edge23_Node000016_Node000017" class="edge">
<title>Node16&#45;&gt;Node17</title>
<g id="a_edge23_Node000016_Node000017"><a xlink:title=" ">
<path fill="none" stroke="#63b8ff" d="M710.85,-126.38C731.52,-117.21 764.27,-101.76 790.65,-85 808.81,-73.46 808.74,-63.15 828.65,-55 895.68,-27.58 1113.17,-15.68 1200.68,-11.91"/>
<polygon fill="#63b8ff" stroke="#63b8ff" points="1201.08,-15.4 1210.93,-11.49 1200.79,-8.41 1201.08,-15.4"/>
</a>
</g>
</g>
<!-- Node18 -->
<g id="Node000018" class="node">
<title>Node18</title>
<g id="a_Node000018"><a xlink:title=" ">
<polygon fill="#e0e0e0" stroke="#999999" points="781.15,-79.5 718.15,-79.5 718.15,-60.5 781.15,-60.5 781.15,-79.5"/>
<text text-anchor="middle" x="749.65" y="-67.5" font-family="Helvetica,sans-Serif" font-size="10.00">pthread.h</text>
</a>
</g>
</g>
<!-- Node16&#45;&gt;Node18 -->
<g id="edge24_Node000016_Node000018" class="edge">
<title>Node16&#45;&gt;Node18</title>
<g id="a_edge24_Node000016_Node000018"><a xlink:title=" ">
<path fill="none" stroke="#63b8ff" d="M698.61,-126.37C707.79,-116.4 723.11,-99.79 734.57,-87.36"/>
<polygon fill="#63b8ff" stroke="#63b8ff" points="737.24,-89.63 741.44,-79.91 732.09,-84.89 737.24,-89.63"/>
</a>
</g>
</g>
<!-- Node19&#45;&gt;Node15 -->
<g id="edge30_Node000019_Node000015" class="edge">
<title>Node19&#45;&gt;Node15</title>
<g id="a_edge30_Node000019_Node000015"><a xlink:title=" ">
<path fill="none" stroke="#63b8ff" d="M107.85,-126.42C58.27,-114.25 -15.05,-89.55 16.65,-55 46.09,-22.92 326.4,-13.91 461.08,-11.42"/>
<polygon fill="#63b8ff" stroke="#63b8ff" points="461.37,-14.92 471.31,-11.24 461.25,-7.92 461.37,-14.92"/>
</a>
</g>
</g>
<!-- Node20 -->
<g id="Node000020" class="node">
<title>Node20</title>
<g id="a_Node000020"><a xlink:title=" ">
<polygon fill="#e0e0e0" stroke="#999999" points="163.65,-85 25.65,-85 25.65,-55 163.65,-55 163.65,-85"/>
<text text-anchor="start" x="33.65" y="-73" font-family="Helvetica,sans-Serif" font-size="10.00">boost/type_traits/aligned</text>
<text text-anchor="middle" x="94.65" y="-62" font-family="Helvetica,sans-Serif" font-size="10.00">_storage.hpp</text>
</a>
</g>
</g>
<!-- Node19&#45;&gt;Node20 -->
<g id="edge28_Node000019_Node000020" class="edge">
<title>Node19&#45;&gt;Node20</title>
<g id="a_edge28_Node000019_Node000020"><a xlink:title=" ">
<path fill="none" stroke="#63b8ff" d="M141.37,-126.37C134.23,-117.91 123.06,-104.67 113.43,-93.25"/>
<polygon fill="#63b8ff" stroke="#63b8ff" points="115.89,-90.75 106.77,-85.36 110.54,-95.26 115.89,-90.75"/>
</a>
</g>
</g>
<!-- Node21 -->
<g id="Node000021" class="node">
<title>Node21</title>
<g id="a_Node000021"><a xlink:title=" ">
<polygon fill="#e0e0e0" stroke="#999999" points="225.65,-79.5 181.65,-79.5 181.65,-60.5 225.65,-60.5 225.65,-79.5"/>
<text text-anchor="middle" x="203.65" y="-67.5" font-family="Helvetica,sans-Serif" font-size="10.00">limits</text>
</a>
</g>
</g>
<!-- Node19&#45;&gt;Node21 -->
<g id="edge29_Node000019_Node000021" class="edge">
<title>Node19&#45;&gt;Node21</title>
<g id="a_edge29_Node000019_Node000021"><a xlink:title=" ">
<path fill="none" stroke="#63b8ff" d="M156.07,-126.37C164.55,-116.5 178.63,-100.11 189.28,-87.72"/>
<polygon fill="#63b8ff" stroke="#63b8ff" points="192.14,-89.77 196,-79.91 186.83,-85.21 192.14,-89.77"/>
</a>
</g>
</g>
<!-- Node22&#45;&gt;Node3 -->
<g id="edge35_Node000022_Node000003" class="edge">
<title>Node22&#45;&gt;Node3</title>
<g id="a_edge35_Node000022_Node000003"><a xlink:title=" ">
<path fill="none" stroke="#63b8ff" d="M436.67,-126.37C408.4,-115.27 359.11,-95.92 326.94,-83.28"/>
<polygon fill="#63b8ff" stroke="#63b8ff" points="328.13,-79.99 317.55,-79.6 325.57,-86.51 328.13,-79.99"/>
</a>
</g>
</g>
<!-- Node22&#45;&gt;Node9 -->
<g id="edge36_Node000022_Node000009" class="edge">
<title>Node22&#45;&gt;Node9</title>
<g id="a_edge36_Node000022_Node000009"><a xlink:title=" ">
<path fill="none" stroke="#63b8ff" d="M473.62,-126.37C492.16,-115.68 523.96,-97.35 545.85,-84.72"/>
<polygon fill="#63b8ff" stroke="#63b8ff" points="547.65,-87.73 554.56,-79.7 544.15,-81.66 547.65,-87.73"/>
</a>
</g>
</g>
<!-- Node22&#45;&gt;Node15 -->
<g id="edge37_Node000022_Node000015" class="edge">
<title>Node22&#45;&gt;Node15</title>
<g id="a_edge37_Node000022_Node000015"><a xlink:title=" ">
<path fill="none" stroke="#63b8ff" d="M442.76,-126.29C418.34,-111.78 376.32,-81.6 395.65,-55 411.03,-33.84 436.72,-22.54 461.72,-16.58"/>
<polygon fill="#63b8ff" stroke="#63b8ff" points="462.56,-19.98 471.62,-14.47 461.11,-13.13 462.56,-19.98"/>
</a>
</g>
</g>
<!-- Node23 -->
<g id="Node000023" class="node">
<title>Node23</title>
<g id="a_Node000023"><a xlink:title=" ">
<polygon fill="#e0e0e0" stroke="#999999" points="457.15,-79.5 404.15,-79.5 404.15,-60.5 457.15,-60.5 457.15,-79.5"/>
<text text-anchor="middle" x="430.65" y="-67.5" font-family="Helvetica,sans-Serif" font-size="10.00">cstddef</text>
</a>
</g>
</g>
<!-- Node22&#45;&gt;Node23 -->
<g id="edge32_Node000022_Node000023" class="edge">
<title>Node22&#45;&gt;Node23</title>
<g id="a_edge32_Node000022_Node000023"><a xlink:title=" ">
<path fill="none" stroke="#63b8ff" d="M454.87,-126.37C450.72,-116.88 443.93,-101.36 438.6,-89.16"/>
<polygon fill="#63b8ff" stroke="#63b8ff" points="441.76,-87.66 434.55,-79.91 435.35,-90.47 441.76,-87.66"/>
</a>
</g>
</g>
<!-- Node22&#45;&gt;Node24 -->
<g id="edge33_Node000022_Node000024" class="edge">
<title>Node22&#45;&gt;Node24</title>
<g id="a_edge33_Node000022_Node000024"><a xlink:title=" ">
<path fill="none" stroke="#63b8ff" d="M464.99,-126.37C472.17,-116.59 484.04,-100.42 493.11,-88.08"/>
<polygon fill="#63b8ff" stroke="#63b8ff" points="496.01,-90.04 499.11,-79.91 490.37,-85.89 496.01,-90.04"/>
</a>
</g>
</g>
<!-- Node25 -->
<g id="Node000025" class="node">
<title>Node25</title>
<g id="a_Node000025"><a xlink:title=" ">
<polygon fill="#e0e0e0" stroke="#999999" points="661.15,-79.5 604.15,-79.5 604.15,-60.5 661.15,-60.5 661.15,-79.5"/>
<text text-anchor="middle" x="632.65" y="-67.5" font-family="Helvetica,sans-Serif" font-size="10.00">ostream</text>
</a>
</g>
</g>
<!-- Node22&#45;&gt;Node25 -->
<g id="edge34_Node000022_Node000025" class="edge">
<title>Node22&#45;&gt;Node25</title>
<g id="a_edge34_Node000022_Node000025"><a xlink:title=" ">
<path fill="none" stroke="#63b8ff" d="M482.24,-126.33C509.36,-116.37 555.23,-99.51 594.65,-85 596.28,-84.4 597.96,-83.78 599.65,-83.16"/>
<polygon fill="#63b8ff" stroke="#63b8ff" points="601.17,-86.33 609.34,-79.59 598.75,-79.76 601.17,-86.33"/>
</a>
</g>
</g>
<!-- Node26&#45;&gt;Node6 -->
<g id="edge40_Node000026_Node000006" class="edge">
<title>Node26&#45;&gt;Node6</title>
<g id="a_edge40_Node000026_Node000006"><a xlink:title=" ">
<path fill="none" stroke="#63b8ff" d="M1350.73,-126.46C1374.59,-119.17 1404.6,-106.38 1423.65,-85 1437.46,-69.5 1443.34,-45.98 1445.83,-29.52"/>
<polygon fill="#63b8ff" stroke="#63b8ff" points="1449.32,-29.79 1447.07,-19.44 1442.37,-28.94 1449.32,-29.79"/>
</a>
</g>
</g>
<!-- Node26&#45;&gt;Node17 -->
<g id="edge41_Node000026_Node000017" class="edge">
<title>Node26&#45;&gt;Node17</title>
<g id="a_edge41_Node000026_Node000017"><a xlink:title=" ">
<path fill="none" stroke="#63b8ff" d="M1299.77,-126.42C1286.69,-117.62 1267.53,-102.73 1256.65,-85 1246.21,-67.97 1241.48,-45.39 1239.36,-29.57"/>
<polygon fill="#63b8ff" stroke="#63b8ff" points="1242.81,-28.97 1238.22,-19.42 1235.85,-29.74 1242.81,-28.97"/>
</a>
</g>
</g>
<!-- Node27 -->
<g id="Node000027" class="node">
<title>Node27</title>
<g id="a_Node000027"><a xlink:title=" ">
<polygon fill="#e0e0e0" stroke="#999999" points="1005.65,-79.5 961.65,-79.5 961.65,-60.5 1005.65,-60.5 1005.65,-79.5"/>
<text text-anchor="middle" x="983.65" y="-67.5" font-family="Helvetica,sans-Serif" font-size="10.00">glib.h</text>
</a>
</g>
</g>
<!-- Node26&#45;&gt;Node27 -->
<g id="edge42_Node000026_Node000027" class="edge">
<title>Node26&#45;&gt;Node27</title>
<g id="a_edge42_Node000026_Node000027"><a xlink:title=" ">
<path fill="none" stroke="#63b8ff" d="M1273.21,-126.48C1263.85,-124.59 1253.91,-122.66 1244.65,-121 1142.81,-102.71 1113.81,-114.56 1014.65,-85 1013.02,-84.51 1011.36,-83.96 1009.7,-83.36"/>
<polygon fill="#63b8ff" stroke="#63b8ff" points="1010.97,-80.09 1000.39,-79.55 1008.32,-86.57 1010.97,-80.09"/>
</a>
</g>
</g>
<!-- Node28 -->
<g id="Node000028" class="node">
<title>Node28</title>
<g id="a_Node000028"><a xlink:href="libardour__visibility_8h.html" target="_top" xlink:title=" ">
<polygon fill="white" stroke="#666666" points="1172.15,-79.5 1023.15,-79.5 1023.15,-60.5 1172.15,-60.5 1172.15,-79.5"/>
<text text-anchor="middle" x="1097.65" y="-67.5" font-family="Helvetica,sans-Serif" font-size="10.00">ardour/libardour_visibility.h</text>
</a>
</g>
</g>
<!-- Node26&#45;&gt;Node28 -->
<g id="edge43_Node000026_Node000028" class="edge">
<title>Node26&#45;&gt;Node28</title>
<g id="a_edge43_Node000026_Node000028"><a xlink:title=" ">
<path fill="none" stroke="#63b8ff" d="M1284.52,-126.37C1246.25,-115.03 1178.92,-95.08 1136.39,-82.48"/>
<polygon fill="#63b8ff" stroke="#63b8ff" points="1137.25,-79.08 1126.66,-79.6 1135.26,-85.79 1137.25,-79.08"/>
</a>
</g>
</g>
<!-- Node29&#45;&gt;Node25 -->
<g id="edge46_Node000029_Node000025" class="edge">
<title>Node29&#45;&gt;Node25</title>
<g id="a_edge46_Node000029_Node000025"><a xlink:title=" ">
<path fill="none" stroke="#63b8ff" d="M1341.54,-194.29C1166.69,-190.37 655.94,-176.74 631.65,-151 616.42,-134.86 620.59,-107.71 625.87,-89.58"/>
<polygon fill="#63b8ff" stroke="#63b8ff" points="629.27,-90.46 629.06,-79.86 622.62,-88.27 629.27,-90.46"/>
</a>
</g>
</g>
<!-- Node29&#45;&gt;Node26 -->
<g id="edge61_Node000029_Node000026" class="edge">
<title>Node29&#45;&gt;Node26</title>
<g id="a_edge61_Node000029_Node000026"><a xlink:title=" ">
<path fill="none" stroke="#63b8ff" d="M1386.96,-186.87C1373.24,-177.54 1351.15,-162.51 1334.8,-151.38"/>
<polygon fill="#63b8ff" stroke="#63b8ff" points="1336.63,-148.4 1326.39,-145.67 1332.69,-154.19 1336.63,-148.4"/>
</a>
</g>
</g>
<!-- Node30 -->
<g id="Node000030" class="node">
<title>Node30</title>
<g id="a_Node000030"><a xlink:title=" ">
<polygon fill="#e0e0e0" stroke="#999999" points="1438.65,-145.5 1386.65,-145.5 1386.65,-126.5 1438.65,-126.5 1438.65,-145.5"/>
<text text-anchor="middle" x="1412.65" y="-133.5" font-family="Helvetica,sans-Serif" font-size="10.00">cassert</text>
</a>
</g>
</g>
<!-- Node29&#45;&gt;Node30 -->
<g id="edge45_Node000029_Node000030" class="edge">
<title>Node29&#45;&gt;Node30</title>
<g id="a_edge45_Node000029_Node000030"><a xlink:title=" ">
<path fill="none" stroke="#63b8ff" d="M1401.57,-186.87C1403.39,-178.66 1406.2,-166.04 1408.53,-155.55"/>
<polygon fill="#63b8ff" stroke="#63b8ff" points="1411.97,-156.19 1410.73,-145.67 1405.14,-154.67 1411.97,-156.19"/>
</a>
</g>
</g>
<!-- Node31 -->
<g id="Node000031" class="node">
<title>Node31</title>
<g id="a_Node000031"><a xlink:href="xml_09_09_8h.html" target="_top" xlink:title=" ">
<polygon fill="white" stroke="#666666" points="1695.65,-145.5 1613.65,-145.5 1613.65,-126.5 1695.65,-126.5 1695.65,-145.5"/>
<text text-anchor="middle" x="1654.65" y="-133.5" font-family="Helvetica,sans-Serif" font-size="10.00">pbd/xml++.h</text>
</a>
</g>
</g>
<!-- Node29&#45;&gt;Node31 -->
<g id="edge47_Node000029_Node000031" class="edge">
<title>Node29&#45;&gt;Node31</title>
<g id="a_edge47_Node000029_Node000031"><a xlink:title=" ">
<path fill="none" stroke="#63b8ff" d="M1436.73,-186.99C1481.96,-176.62 1558.47,-159.07 1607.75,-147.76"/>
<polygon fill="#63b8ff" stroke="#63b8ff" points="1608.56,-151.16 1617.53,-145.52 1607,-144.34 1608.56,-151.16"/>
</a>
</g>
</g>
<!-- Node31&#45;&gt;Node2 -->
<g id="edge52_Node000031_Node000002" class="edge">
<title>Node31&#45;&gt;Node2</title>
<g id="a_edge52_Node000031_Node000002"><a xlink:title=" ">
<path fill="none" stroke="#63b8ff" d="M1695.91,-133.99C1772.42,-131.26 1940.96,-121.28 2077.65,-85 2079.59,-84.49 2081.57,-83.88 2083.54,-83.21"/>
<polygon fill="#63b8ff" stroke="#63b8ff" points="2085.09,-86.36 2093.17,-79.51 2082.58,-79.83 2085.09,-86.36"/>
</a>
</g>
</g>
<!-- Node31&#45;&gt;Node5 -->
<g id="edge50_Node000031_Node000005" class="edge">
<title>Node31&#45;&gt;Node5</title>
<g id="a_edge50_Node000031_Node000005"><a xlink:title=" ">
<path fill="none" stroke="#63b8ff" d="M1639.55,-126.37C1620.84,-115.68 1588.76,-97.35 1566.66,-84.72"/>
<polygon fill="#63b8ff" stroke="#63b8ff" points="1568.29,-81.62 1557.87,-79.7 1564.82,-87.7 1568.29,-81.62"/>
</a>
</g>
</g>
<!-- Node31&#45;&gt;Node6 -->
<g id="edge51_Node000031_Node000006" class="edge">
<title>Node31&#45;&gt;Node6</title>
<g id="a_edge51_Node000031_Node000006"><a xlink:title=" ">
<path fill="none" stroke="#63b8ff" d="M1648.81,-126.2C1637.53,-109.86 1611.16,-74.71 1580.65,-55 1549.46,-34.85 1508.23,-22.91 1479.99,-16.56"/>
<polygon fill="#63b8ff" stroke="#63b8ff" points="1480.36,-13.06 1469.85,-14.39 1478.9,-19.9 1480.36,-13.06"/>
</a>
</g>
</g>
<!-- Node31&#45;&gt;Node15 -->
<g id="edge60_Node000031_Node000015" class="edge">
<title>Node31&#45;&gt;Node15</title>
<g id="a_edge60_Node000031_Node000015"><a xlink:title=" ">
<path fill="none" stroke="#63b8ff" d="M1613.61,-133.3C1540.7,-129.51 1384.26,-117.96 1256.65,-85 1221.89,-76.02 1216.65,-62.99 1181.65,-55 1073.46,-30.3 748.88,-17.3 603.93,-12.59"/>
<polygon fill="#63b8ff" stroke="#63b8ff" points="603.91,-9.09 593.81,-12.26 603.69,-16.08 603.91,-9.09"/>
</a>
</g>
</g>
<!-- Node32 -->
<g id="Node000032" class="node">
<title>Node32</title>
<g id="a_Node000032"><a xlink:title=" ">
<polygon fill="#e0e0e0" stroke="#999999" points="1681.15,-79.5 1628.15,-79.5 1628.15,-60.5 1681.15,-60.5 1681.15,-79.5"/>
<text text-anchor="middle" x="1654.65" y="-67.5" font-family="Helvetica,sans-Serif" font-size="10.00">cstdarg</text>
</a>
</g>
</g>
<!-- Node31&#45;&gt;Node32 -->
<g id="edge48_Node000031_Node000032" class="edge">
<title>Node31&#45;&gt;Node32</title>
<g id="a_edge48_Node000031_Node000032"><a xlink:title=" ">
<path fill="none" stroke="#63b8ff" d="M1654.65,-126.37C1654.65,-117.16 1654.65,-102.29 1654.65,-90.27"/>
<polygon fill="#63b8ff" stroke="#63b8ff" points="1658.15,-89.91 1654.65,-79.91 1651.15,-89.91 1658.15,-89.91"/>
</a>
</g>
</g>
<!-- Node33 -->
<g id="Node000033" class="node">
<title>Node33</title>
<g id="a_Node000033"><a xlink:title=" ">
<polygon fill="#e0e0e0" stroke="#999999" points="1745.65,-79.5 1699.65,-79.5 1699.65,-60.5 1745.65,-60.5 1745.65,-79.5"/>
<text text-anchor="middle" x="1722.65" y="-67.5" font-family="Helvetica,sans-Serif" font-size="10.00">cstdio</text>
</a>
</g>
</g>
<!-- Node31&#45;&gt;Node33 -->
<g id="edge49_Node000031_Node000033" class="edge">
<title>Node31&#45;&gt;Node33</title>
<g id="a_edge49_Node000031_Node000033"><a xlink:title=" ">
<path fill="none" stroke="#63b8ff" d="M1663.82,-126.37C1674.51,-116.31 1692.39,-99.48 1705.64,-87.01"/>
<polygon fill="#63b8ff" stroke="#63b8ff" points="1708.31,-89.31 1713.19,-79.91 1703.51,-84.21 1708.31,-89.31"/>
</a>
</g>
</g>
<!-- Node34 -->
<g id="Node000034" class="node">
<title>Node34</title>
<g id="a_Node000034"><a xlink:title=" ">
<polygon fill="#e0e0e0" stroke="#999999" points="1853.15,-79.5 1764.15,-79.5 1764.15,-60.5 1853.15,-60.5 1853.15,-79.5"/>
<text text-anchor="middle" x="1808.65" y="-67.5" font-family="Helvetica,sans-Serif" font-size="10.00">libxml/parser.h</text>
</a>
</g>
</g>
<!-- Node31&#45;&gt;Node34 -->
<g id="edge53_Node000031_Node000034" class="edge">
<title>Node31&#45;&gt;Node34</title>
<g id="a_edge53_Node000031_Node000034"><a xlink:title=" ">
<path fill="none" stroke="#63b8ff" d="M1675.42,-126.37C1701.94,-115.35 1748.03,-96.19 1778.44,-83.55"/>
<polygon fill="#63b8ff" stroke="#63b8ff" points="1779.83,-86.77 1787.72,-79.7 1777.14,-80.3 1779.83,-86.77"/>
</a>
</g>
</g>
<!-- Node35 -->
<g id="Node000035" class="node">
<title>Node35</title>
<g id="a_Node000035"><a xlink:title=" ">
<polygon fill="#e0e0e0" stroke="#999999" points="1950.15,-79.5 1871.15,-79.5 1871.15,-60.5 1950.15,-60.5 1950.15,-79.5"/>
<text text-anchor="middle" x="1910.65" y="-67.5" font-family="Helvetica,sans-Serif" font-size="10.00">libxml/tree.h</text>
</a>
</g>
</g>
<!-- Node31&#45;&gt;Node35 -->
<g id="edge54_Node000031_Node000035" class="edge">
<title>Node31&#45;&gt;Node35</title>
<g id="a_edge54_Node000031_Node000035"><a xlink:title=" ">
<path fill="none" stroke="#63b8ff" d="M1692.74,-126.42C1734.56,-116.87 1803.61,-100.7 1862.65,-85 1865.84,-84.15 1869.14,-83.25 1872.45,-82.32"/>
<polygon fill="#63b8ff" stroke="#63b8ff" points="1873.63,-85.62 1882.29,-79.52 1871.71,-78.89 1873.63,-85.62"/>
</a>
</g>
</g>
<!-- Node36 -->
<g id="Node000036" class="node">
<title>Node36</title>
<g id="a_Node000036"><a xlink:title=" ">
<polygon fill="#e0e0e0" stroke="#999999" points="2068.65,-79.5 1968.65,-79.5 1968.65,-60.5 2068.65,-60.5 2068.65,-79.5"/>
<text text-anchor="middle" x="2018.65" y="-67.5" font-family="Helvetica,sans-Serif" font-size="10.00">glibmm/ustring.h</text>
</a>
</g>
</g>
<!-- Node31&#45;&gt;Node36 -->
<g id="edge55_Node000031_Node000036" class="edge">
<title>Node31&#45;&gt;Node36</title>
<g id="a_edge55_Node000031_Node000036"><a xlink:title=" ">
<path fill="none" stroke="#63b8ff" d="M1695.76,-129.2C1754.5,-120.7 1865.74,-103.82 1959.65,-85 1964.43,-84.04 1969.41,-82.97 1974.37,-81.86"/>
<polygon fill="#63b8ff" stroke="#63b8ff" points="1975.46,-85.2 1984.42,-79.55 1973.89,-78.38 1975.46,-85.2"/>
</a>
</g>
</g>
<!-- Node37 -->
<g id="Node000037" class="node">
<title>Node37</title>
<g id="a_Node000037"><a xlink:href="string__convert_8h.html" target="_top" xlink:title=" ">
<polygon fill="white" stroke="#666666" points="1381.65,-79.5 1265.65,-79.5 1265.65,-60.5 1381.65,-60.5 1381.65,-79.5"/>
<text text-anchor="middle" x="1323.65" y="-67.5" font-family="Helvetica,sans-Serif" font-size="10.00">pbd/string_convert.h</text>
</a>
</g>
</g>
<!-- Node31&#45;&gt;Node37 -->
<g id="edge56_Node000031_Node000037" class="edge">
<title>Node31&#45;&gt;Node37</title>
<g id="a_edge56_Node000031_Node000037"><a xlink:title=" ">
<path fill="none" stroke="#63b8ff" d="M1613.4,-127.02C1553.93,-115.53 1444.03,-94.28 1378.01,-81.51"/>
<polygon fill="#63b8ff" stroke="#63b8ff" points="1378.28,-78 1367.8,-79.54 1376.95,-84.87 1378.28,-78"/>
</a>
</g>
</g>
<!-- Node37&#45;&gt;Node6 -->
<g id="edge57_Node000037_Node000006" class="edge">
<title>Node37&#45;&gt;Node6</title>
<g id="a_edge57_Node000037_Node000006"><a xlink:title=" ">
<path fill="none" stroke="#63b8ff" d="M1341.68,-60.49C1362.34,-50.75 1396.43,-34.66 1420.35,-23.38"/>
<polygon fill="#63b8ff" stroke="#63b8ff" points="1422.05,-26.45 1429.6,-19.02 1419.06,-20.12 1422.05,-26.45"/>
</a>
</g>
</g>
<!-- Node37&#45;&gt;Node15 -->
<g id="edge59_Node000037_Node000015" class="edge">
<title>Node37&#45;&gt;Node15</title>
<g id="a_edge59_Node000037_Node000015"><a xlink:title=" ">
<path fill="none" stroke="#63b8ff" d="M1265.5,-60.92C1248.78,-58.78 1230.51,-56.62 1213.65,-55 991.68,-33.64 728.01,-19.64 603.93,-13.72"/>
<polygon fill="#63b8ff" stroke="#63b8ff" points="603.95,-10.21 593.8,-13.24 603.62,-17.21 603.95,-10.21"/>
</a>
</g>
</g>
<!-- Node37&#45;&gt;Node17 -->
<g id="edge58_Node000037_Node000017" class="edge">
<title>Node37&#45;&gt;Node17</title>
<g id="a_edge58_Node000037_Node000017"><a xlink:title=" ">
<path fill="none" stroke="#63b8ff" d="M1310.96,-60.37C1297.24,-51.04 1275.15,-36.01 1258.8,-24.88"/>
<polygon fill="#63b8ff" stroke="#63b8ff" points="1260.63,-21.9 1250.39,-19.17 1256.69,-27.69 1260.63,-21.9"/>
</a>
</g>
</g>
</g>
</svg>
