<?xml version="1.0" encoding="UTF-8" standalone="no"?>
<!DOCTYPE svg PUBLIC "-//W3C//DTD SVG 1.1//EN"
 "http://www.w3.org/Graphics/SVG/1.1/DTD/svg11.dtd">
<!-- Generated by graphviz version 2.43.0 (0)
 -->
<!-- Title: axis_provider.h Pages: 1 -->
<svg width="1071pt" height="258pt"
 viewBox="0.00 0.00 1071.00 258.00" xmlns="http://www.w3.org/2000/svg" xmlns:xlink="http://www.w3.org/1999/xlink">
<g id="graph0" class="graph" transform="scale(1 1) rotate(0) translate(4 254)">
<title>axis_provider.h</title>
<!-- Node1 -->
<g id="Node000001" class="node">
<title>Node1</title>
<g id="a_Node000001"><a xlink:title=" ">
<polygon fill="#999999" stroke="#666666" points="1012.5,-250 921.5,-250 921.5,-231 1012.5,-231 1012.5,-250"/>
<text text-anchor="middle" x="967" y="-238" font-family="Helvetica,sans-Serif" font-size="10.00">axis_provider.h</text>
</a>
</g>
</g>
<!-- Node2 -->
<g id="Node000002" class="node">
<title>Node2</title>
<g id="a_Node000002"><a xlink:href="editing__context_8h.html" target="_top" xlink:title=" ">
<polygon fill="white" stroke="#666666" points="569.5,-195 468.5,-195 468.5,-176 569.5,-176 569.5,-195"/>
<text text-anchor="middle" x="519" y="-183" font-family="Helvetica,sans-Serif" font-size="10.00">editing_context.h</text>
</a>
</g>
</g>
<!-- Node1&#45;&gt;Node2 -->
<g id="edge1_Node000001_Node000002" class="edge">
<title>Node1&#45;&gt;Node2</title>
<g id="a_edge1_Node000001_Node000002"><a xlink:title=" ">
<path fill="none" stroke="#63b8ff" d="M911.11,-232.89C823.22,-222.49 654.02,-202.47 569.55,-192.48"/>
<polygon fill="#63b8ff" stroke="#63b8ff" points="910.82,-236.38 921.16,-234.08 911.64,-229.43 910.82,-236.38"/>
</a>
</g>
</g>
<!-- Node5 -->
<g id="Node000005" class="node">
<title>Node5</title>
<g id="a_Node000005"><a xlink:href="trigger__page_8h.html" target="_top" xlink:title=" ">
<polygon fill="white" stroke="#666666" points="553.5,-19 466.5,-19 466.5,0 553.5,0 553.5,-19"/>
<text text-anchor="middle" x="510" y="-7" font-family="Helvetica,sans-Serif" font-size="10.00">trigger_page.h</text>
</a>
</g>
</g>
<!-- Node1&#45;&gt;Node5 -->
<g id="edge14_Node000001_Node000005" class="edge">
<title>Node1&#45;&gt;Node5</title>
<g id="a_edge14_Node000001_Node000005"><a xlink:title=" ">
<path fill="none" stroke="#63b8ff" d="M971.75,-221.05C980.1,-183.84 992.6,-99.54 948,-55 920.45,-27.49 659.3,-15.58 553.85,-11.87"/>
<polygon fill="#63b8ff" stroke="#63b8ff" points="968.29,-220.45 969.36,-230.99 975.1,-222.09 968.29,-220.45"/>
</a>
</g>
</g>
<!-- Node14 -->
<g id="Node000014" class="node">
<title>Node14</title>
<g id="a_Node000014"><a xlink:href="mixer__ui_8h.html" target="_top" xlink:title=" ">
<polygon fill="white" stroke="#666666" points="1063,-195 995,-195 995,-176 1063,-176 1063,-195"/>
<text text-anchor="middle" x="1029" y="-183" font-family="Helvetica,sans-Serif" font-size="10.00">mixer_ui.h</text>
</a>
</g>
</g>
<!-- Node1&#45;&gt;Node14 -->
<g id="edge13_Node000001_Node000014" class="edge">
<title>Node1&#45;&gt;Node14</title>
<g id="a_edge13_Node000001_Node000014"><a xlink:title=" ">
<path fill="none" stroke="#63b8ff" d="M984.75,-224.32C995.81,-214.87 1009.63,-203.06 1018.86,-195.17"/>
<polygon fill="#63b8ff" stroke="#63b8ff" points="982.29,-221.83 976.96,-230.98 986.84,-227.15 982.29,-221.83"/>
</a>
</g>
</g>
<!-- Node3 -->
<g id="Node000003" class="node">
<title>Node3</title>
<g id="a_Node000003"><a xlink:href="cue__editor_8h.html" target="_top" xlink:title=" ">
<polygon fill="white" stroke="#666666" points="198,-140 122,-140 122,-121 198,-121 198,-140"/>
<text text-anchor="middle" x="160" y="-128" font-family="Helvetica,sans-Serif" font-size="10.00">cue_editor.h</text>
</a>
</g>
</g>
<!-- Node2&#45;&gt;Node3 -->
<g id="edge2_Node000002_Node000003" class="edge">
<title>Node2&#45;&gt;Node3</title>
<g id="a_edge2_Node000002_Node000003"><a xlink:title=" ">
<path fill="none" stroke="#63b8ff" d="M458.17,-175.52C383.79,-164.54 260.16,-146.29 198.06,-137.12"/>
<polygon fill="#63b8ff" stroke="#63b8ff" points="457.92,-179.02 468.33,-177.02 458.94,-172.1 457.92,-179.02"/>
</a>
</g>
</g>
<!-- Node7 -->
<g id="Node000007" class="node">
<title>Node7</title>
<g id="a_Node000007"><a xlink:href="public__editor_8h.html" target="_top" xlink:title=" ">
<polygon fill="white" stroke="#666666" points="563,-140 475,-140 475,-121 563,-121 563,-140"/>
<text text-anchor="middle" x="519" y="-128" font-family="Helvetica,sans-Serif" font-size="10.00">public_editor.h</text>
</a>
</g>
</g>
<!-- Node2&#45;&gt;Node7 -->
<g id="edge6_Node000002_Node000007" class="edge">
<title>Node2&#45;&gt;Node7</title>
<g id="a_edge6_Node000002_Node000007"><a xlink:title=" ">
<path fill="none" stroke="#63b8ff" d="M519,-165.66C519,-156.93 519,-146.99 519,-140.09"/>
<polygon fill="#63b8ff" stroke="#63b8ff" points="515.5,-165.75 519,-175.75 522.5,-165.75 515.5,-165.75"/>
</a>
</g>
</g>
<!-- Node4 -->
<g id="Node000004" class="node">
<title>Node4</title>
<g id="a_Node000004"><a xlink:href="audio__clip__editor_8h.html" target="_top" xlink:title=" ">
<polygon fill="white" stroke="#666666" points="108,-79.5 0,-79.5 0,-60.5 108,-60.5 108,-79.5"/>
<text text-anchor="middle" x="54" y="-67.5" font-family="Helvetica,sans-Serif" font-size="10.00">audio_clip_editor.h</text>
</a>
</g>
</g>
<!-- Node3&#45;&gt;Node4 -->
<g id="edge3_Node000003_Node000004" class="edge">
<title>Node3&#45;&gt;Node4</title>
<g id="a_edge3_Node000003_Node000004"><a xlink:title=" ">
<path fill="none" stroke="#63b8ff" d="M135.4,-115.92C115.14,-104.74 87.03,-89.23 69.7,-79.67"/>
<polygon fill="#63b8ff" stroke="#63b8ff" points="133.91,-119.1 144.36,-120.87 137.3,-112.97 133.91,-119.1"/>
</a>
</g>
</g>
<!-- Node6 -->
<g id="Node000006" class="node">
<title>Node6</title>
<g id="a_Node000006"><a xlink:href="pianoroll_8h.html" target="_top" xlink:title=" ">
<polygon fill="white" stroke="#666666" points="194,-79.5 126,-79.5 126,-60.5 194,-60.5 194,-79.5"/>
<text text-anchor="middle" x="160" y="-67.5" font-family="Helvetica,sans-Serif" font-size="10.00">pianoroll.h</text>
</a>
</g>
</g>
<!-- Node3&#45;&gt;Node6 -->
<g id="edge5_Node000003_Node000006" class="edge">
<title>Node3&#45;&gt;Node6</title>
<g id="a_edge5_Node000003_Node000006"><a xlink:title=" ">
<path fill="none" stroke="#63b8ff" d="M160,-110.66C160,-100.24 160,-87.8 160,-79.67"/>
<polygon fill="#63b8ff" stroke="#63b8ff" points="156.5,-110.87 160,-120.87 163.5,-110.87 156.5,-110.87"/>
</a>
</g>
</g>
<!-- Node4&#45;&gt;Node5 -->
<g id="edge4_Node000004_Node000005" class="edge">
<title>Node4&#45;&gt;Node5</title>
<g id="a_edge4_Node000004_Node000005"><a xlink:title=" ">
<path fill="none" stroke="#63b8ff" d="M99.13,-58.37C105.12,-57.13 111.19,-55.97 117,-55 243.14,-33.9 393.75,-19.95 466.47,-13.91"/>
<polygon fill="#63b8ff" stroke="#63b8ff" points="98.24,-54.98 89.19,-60.49 99.7,-61.82 98.24,-54.98"/>
</a>
</g>
</g>
<!-- Node8 -->
<g id="Node000008" class="node">
<title>Node8</title>
<g id="a_Node000008"><a xlink:href="editor_8h.html" target="_top" xlink:title=" ">
<polygon fill="white" stroke="#666666" points="265.5,-79.5 212.5,-79.5 212.5,-60.5 265.5,-60.5 265.5,-79.5"/>
<text text-anchor="middle" x="239" y="-67.5" font-family="Helvetica,sans-Serif" font-size="10.00">editor.h</text>
</a>
</g>
</g>
<!-- Node7&#45;&gt;Node8 -->
<g id="edge7_Node000007_Node000008" class="edge">
<title>Node7&#45;&gt;Node8</title>
<g id="a_edge7_Node000007_Node000008"><a xlink:title=" ">
<path fill="none" stroke="#63b8ff" d="M464.86,-122.65C414.96,-115.62 339.15,-103.15 275,-85 269.71,-83.5 264.11,-81.53 258.95,-79.54"/>
<polygon fill="#63b8ff" stroke="#63b8ff" points="464.4,-126.12 474.79,-124.02 465.36,-119.18 464.4,-126.12"/>
</a>
</g>
</g>
<!-- Node9 -->
<g id="Node000009" class="node">
<title>Node9</title>
<g id="a_Node000009"><a xlink:href="export__dialog_8h.html" target="_top" xlink:title=" ">
<polygon fill="white" stroke="#666666" points="376,-79.5 284,-79.5 284,-60.5 376,-60.5 376,-79.5"/>
<text text-anchor="middle" x="330" y="-67.5" font-family="Helvetica,sans-Serif" font-size="10.00">export_dialog.h</text>
</a>
</g>
</g>
<!-- Node7&#45;&gt;Node9 -->
<g id="edge8_Node000007_Node000009" class="edge">
<title>Node7&#45;&gt;Node9</title>
<g id="a_edge8_Node000007_Node000009"><a xlink:title=" ">
<path fill="none" stroke="#63b8ff" d="M481.73,-117.96C445.17,-106.65 390.28,-89.66 357.52,-79.52"/>
<polygon fill="#63b8ff" stroke="#63b8ff" points="480.93,-121.38 491.52,-120.99 483,-114.69 480.93,-121.38"/>
</a>
</g>
</g>
<!-- Node10 -->
<g id="Node000010" class="node">
<title>Node10</title>
<g id="a_Node000010"><a xlink:href="insert__remove__time__dialog_8h.html" target="_top" xlink:title=" ">
<polygon fill="white" stroke="#666666" points="509.5,-85 394.5,-85 394.5,-55 509.5,-55 509.5,-85"/>
<text text-anchor="start" x="402.5" y="-73" font-family="Helvetica,sans-Serif" font-size="10.00">insert_remove_time</text>
<text text-anchor="middle" x="452" y="-62" font-family="Helvetica,sans-Serif" font-size="10.00">_dialog.h</text>
</a>
</g>
</g>
<!-- Node7&#45;&gt;Node10 -->
<g id="edge9_Node000007_Node000010" class="edge">
<title>Node7&#45;&gt;Node10</title>
<g id="a_edge9_Node000007_Node000010"><a xlink:title=" ">
<path fill="none" stroke="#63b8ff" d="M501.52,-114.23C491.2,-105.23 478.24,-93.91 468.17,-85.11"/>
<polygon fill="#63b8ff" stroke="#63b8ff" points="499.28,-116.93 509.11,-120.87 503.88,-111.65 499.28,-116.93"/>
</a>
</g>
</g>
<!-- Node11 -->
<g id="Node000011" class="node">
<title>Node11</title>
<g id="a_Node000011"><a xlink:href="midi__export__dialog_8h.html" target="_top" xlink:title=" ">
<polygon fill="white" stroke="#666666" points="646.5,-79.5 527.5,-79.5 527.5,-60.5 646.5,-60.5 646.5,-79.5"/>
<text text-anchor="middle" x="587" y="-67.5" font-family="Helvetica,sans-Serif" font-size="10.00">midi_export_dialog.h</text>
</a>
</g>
</g>
<!-- Node7&#45;&gt;Node11 -->
<g id="edge10_Node000007_Node000011" class="edge">
<title>Node7&#45;&gt;Node11</title>
<g id="a_edge10_Node000007_Node000011"><a xlink:title=" ">
<path fill="none" stroke="#63b8ff" d="M536.76,-114.22C549.55,-103.21 566.36,-88.75 576.93,-79.67"/>
<polygon fill="#63b8ff" stroke="#63b8ff" points="534.33,-111.69 529.03,-120.87 538.9,-117 534.33,-111.69"/>
</a>
</g>
</g>
<!-- Node12 -->
<g id="Node000012" class="node">
<title>Node12</title>
<g id="a_Node000012"><a xlink:href="simple__export__dialog_8h.html" target="_top" xlink:title=" ">
<polygon fill="white" stroke="#666666" points="795.5,-79.5 664.5,-79.5 664.5,-60.5 795.5,-60.5 795.5,-79.5"/>
<text text-anchor="middle" x="730" y="-67.5" font-family="Helvetica,sans-Serif" font-size="10.00">simple_export_dialog.h</text>
</a>
</g>
</g>
<!-- Node7&#45;&gt;Node12 -->
<g id="edge11_Node000007_Node000012" class="edge">
<title>Node7&#45;&gt;Node12</title>
<g id="a_edge11_Node000007_Node000012"><a xlink:title=" ">
<path fill="none" stroke="#63b8ff" d="M559.57,-118.25C600.38,-106.94 662.39,-89.75 699.28,-79.52"/>
<polygon fill="#63b8ff" stroke="#63b8ff" points="558.38,-114.95 549.68,-120.99 560.25,-121.69 558.38,-114.95"/>
</a>
</g>
</g>
<!-- Node13 -->
<g id="Node000013" class="node">
<title>Node13</title>
<g id="a_Node000013"><a xlink:href="tempo__map__change_8h.html" target="_top" xlink:title=" ">
<polygon fill="white" stroke="#666666" points="938.5,-79.5 813.5,-79.5 813.5,-60.5 938.5,-60.5 938.5,-79.5"/>
<text text-anchor="middle" x="876" y="-67.5" font-family="Helvetica,sans-Serif" font-size="10.00">tempo_map_change.h</text>
</a>
</g>
</g>
<!-- Node7&#45;&gt;Node13 -->
<g id="edge12_Node000007_Node000013" class="edge">
<title>Node7&#45;&gt;Node13</title>
<g id="a_edge12_Node000007_Node000013"><a xlink:title=" ">
<path fill="none" stroke="#63b8ff" d="M573.16,-121.74C630.76,-113.33 724.47,-99.2 805,-85 814.4,-83.34 824.48,-81.43 834,-79.57"/>
<polygon fill="#63b8ff" stroke="#63b8ff" points="572.58,-118.29 563.19,-123.19 573.59,-125.21 572.58,-118.29"/>
</a>
</g>
</g>
</g>
</svg>
