<?xml version="1.0" encoding="UTF-8" standalone="no"?>
<!DOCTYPE svg PUBLIC "-//W3C//DTD SVG 1.1//EN"
 "http://www.w3.org/Graphics/SVG/1.1/DTD/svg11.dtd">
<!-- Generated by graphviz version 2.43.0 (0)
 -->
<!-- Title: bin_p.h Pages: 1 -->
<svg width="2588pt" height="247pt"
 viewBox="0.00 0.00 2588.00 247.00" xmlns="http://www.w3.org/2000/svg" xmlns:xlink="http://www.w3.org/1999/xlink">
<g id="graph0" class="graph" transform="scale(1 1) rotate(0) translate(4 243)">
<title>bin_p.h</title>
<!-- Node1 -->
<g id="Node000001" class="node">
<title>Node1</title>
<g id="a_Node000001"><a xlink:title=" ">
<polygon fill="#999999" stroke="#666666" points="917,-239 865,-239 865,-220 917,-220 917,-239"/>
<text text-anchor="middle" x="891" y="-227" font-family="Helvetica,sans-Serif" font-size="10.00">bin_p.h</text>
</a>
</g>
</g>
<!-- Node2 -->
<g id="Node000002" class="node">
<title>Node2</title>
<g id="a_Node000002"><a xlink:href="alignment__p_8h.html" target="_top" xlink:title=" ">
<polygon fill="white" stroke="#666666" points="357,-184 271,-184 271,-165 357,-165 357,-184"/>
<text text-anchor="middle" x="314" y="-172" font-family="Helvetica,sans-Serif" font-size="10.00">alignment_p.h</text>
</a>
</g>
</g>
<!-- Node1&#45;&gt;Node2 -->
<g id="edge1_Node000001_Node000002" class="edge">
<title>Node1&#45;&gt;Node2</title>
<g id="a_edge1_Node000001_Node000002"><a xlink:title=" ">
<path fill="none" stroke="#63b8ff" d="M854.78,-226.4C769.42,-221.24 549.03,-206.68 366,-184 363.09,-183.64 360.1,-183.24 357.09,-182.81"/>
<polygon fill="#63b8ff" stroke="#63b8ff" points="854.79,-229.91 864.98,-227.01 855.21,-222.92 854.79,-229.91"/>
</a>
</g>
</g>
<!-- Node3 -->
<g id="Node000003" class="node">
<title>Node3</title>
<g id="a_Node000003"><a xlink:href="button__p_8h.html" target="_top" xlink:title=" ">
<polygon fill="white" stroke="#666666" points="443,-184 375,-184 375,-165 443,-165 443,-184"/>
<text text-anchor="middle" x="409" y="-172" font-family="Helvetica,sans-Serif" font-size="10.00">button_p.h</text>
</a>
</g>
</g>
<!-- Node1&#45;&gt;Node3 -->
<g id="edge2_Node000001_Node000003" class="edge">
<title>Node1&#45;&gt;Node3</title>
<g id="a_edge2_Node000001_Node000003"><a xlink:title=" ">
<path fill="none" stroke="#63b8ff" d="M854.72,-224.51C764.49,-214.59 530.96,-188.91 443.1,-179.25"/>
<polygon fill="#63b8ff" stroke="#63b8ff" points="854.42,-228 864.74,-225.61 855.19,-221.04 854.42,-228"/>
</a>
</g>
</g>
<!-- Node12 -->
<g id="Node000012" class="node">
<title>Node12</title>
<g id="a_Node000012"><a xlink:href="combobox__p_8h.html" target="_top" xlink:title=" ">
<polygon fill="white" stroke="#666666" points="590,-184 502,-184 502,-165 590,-165 590,-184"/>
<text text-anchor="middle" x="546" y="-172" font-family="Helvetica,sans-Serif" font-size="10.00">combobox_p.h</text>
</a>
</g>
</g>
<!-- Node1&#45;&gt;Node12 -->
<g id="edge11_Node000001_Node000012" class="edge">
<title>Node1&#45;&gt;Node12</title>
<g id="a_edge11_Node000001_Node000012"><a xlink:title=" ">
<path fill="none" stroke="#63b8ff" d="M854.83,-223.08C799.64,-214.79 691.1,-198.4 599,-184 596.15,-183.55 593.21,-183.09 590.24,-182.62"/>
<polygon fill="#63b8ff" stroke="#63b8ff" points="854.41,-226.56 864.81,-224.58 855.45,-219.63 854.41,-226.56"/>
</a>
</g>
</g>
<!-- Node14 -->
<g id="Node000014" class="node">
<title>Node14</title>
<g id="a_Node000014"><a xlink:href="eventbox__p_8h.html" target="_top" xlink:title=" ">
<polygon fill="white" stroke="#666666" points="691.5,-184 608.5,-184 608.5,-165 691.5,-165 691.5,-184"/>
<text text-anchor="middle" x="650" y="-172" font-family="Helvetica,sans-Serif" font-size="10.00">eventbox_p.h</text>
</a>
</g>
</g>
<!-- Node1&#45;&gt;Node14 -->
<g id="edge13_Node000001_Node000014" class="edge">
<title>Node1&#45;&gt;Node14</title>
<g id="a_edge13_Node000001_Node000014"><a xlink:title=" ">
<path fill="none" stroke="#63b8ff" d="M854.92,-220.57C810.34,-210.76 734.77,-194.14 688.92,-184.06"/>
<polygon fill="#63b8ff" stroke="#63b8ff" points="854.23,-224 864.75,-222.73 855.74,-217.16 854.23,-224"/>
</a>
</g>
</g>
<!-- Node15 -->
<g id="Node000015" class="node">
<title>Node15</title>
<g id="a_Node000015"><a xlink:href="expander__p_8h.html" target="_top" xlink:title=" ">
<polygon fill="white" stroke="#666666" points="792.5,-184 709.5,-184 709.5,-165 792.5,-165 792.5,-184"/>
<text text-anchor="middle" x="751" y="-172" font-family="Helvetica,sans-Serif" font-size="10.00">expander_p.h</text>
</a>
</g>
</g>
<!-- Node1&#45;&gt;Node15 -->
<g id="edge14_Node000001_Node000015" class="edge">
<title>Node1&#45;&gt;Node15</title>
<g id="a_edge14_Node000001_Node000015"><a xlink:title=" ">
<path fill="none" stroke="#63b8ff" d="M859.09,-216.42C833.12,-206.59 797.08,-192.95 773.9,-184.17"/>
<polygon fill="#63b8ff" stroke="#63b8ff" points="857.92,-219.72 868.51,-219.98 860.39,-213.17 857.92,-219.72"/>
</a>
</g>
</g>
<!-- Node16 -->
<g id="Node000016" class="node">
<title>Node16</title>
<g id="a_Node000016"><a xlink:href="frame__p_8h.html" target="_top" xlink:title=" ">
<polygon fill="white" stroke="#666666" points="877,-184 811,-184 811,-165 877,-165 877,-184"/>
<text text-anchor="middle" x="844" y="-172" font-family="Helvetica,sans-Serif" font-size="10.00">frame_p.h</text>
</a>
</g>
</g>
<!-- Node1&#45;&gt;Node16 -->
<g id="edge15_Node000001_Node000016" class="edge">
<title>Node1&#45;&gt;Node16</title>
<g id="a_edge15_Node000001_Node000016"><a xlink:title=" ">
<path fill="none" stroke="#63b8ff" d="M876.58,-212.24C868.34,-202.95 858.35,-191.68 851.62,-184.09"/>
<polygon fill="#63b8ff" stroke="#63b8ff" points="873.99,-214.59 883.24,-219.75 879.22,-209.94 873.99,-214.59"/>
</a>
</g>
</g>
<!-- Node18 -->
<g id="Node000018" class="node">
<title>Node18</title>
<g id="a_Node000018"><a xlink:href="handlebox__p_8h.html" target="_top" xlink:title=" ">
<polygon fill="white" stroke="#666666" points="983,-184 895,-184 895,-165 983,-165 983,-184"/>
<text text-anchor="middle" x="939" y="-172" font-family="Helvetica,sans-Serif" font-size="10.00">handlebox_p.h</text>
</a>
</g>
</g>
<!-- Node1&#45;&gt;Node18 -->
<g id="edge17_Node000001_Node000018" class="edge">
<title>Node1&#45;&gt;Node18</title>
<g id="a_edge17_Node000001_Node000018"><a xlink:title=" ">
<path fill="none" stroke="#63b8ff" d="M905.73,-212.24C914.14,-202.95 924.35,-191.68 931.22,-184.09"/>
<polygon fill="#63b8ff" stroke="#63b8ff" points="903.04,-209.99 898.93,-219.75 908.23,-214.69 903.04,-209.99"/>
</a>
</g>
</g>
<!-- Node19 -->
<g id="Node000019" class="node">
<title>Node19</title>
<g id="a_Node000019"><a xlink:href="item__p_8h.html" target="_top" xlink:title=" ">
<polygon fill="white" stroke="#666666" points="1060.5,-184 1001.5,-184 1001.5,-165 1060.5,-165 1060.5,-184"/>
<text text-anchor="middle" x="1031" y="-172" font-family="Helvetica,sans-Serif" font-size="10.00">item_p.h</text>
</a>
</g>
</g>
<!-- Node1&#45;&gt;Node19 -->
<g id="edge18_Node000001_Node000019" class="edge">
<title>Node1&#45;&gt;Node19</title>
<g id="a_edge18_Node000001_Node000019"><a xlink:title=" ">
<path fill="none" stroke="#63b8ff" d="M922.91,-216.42C948.88,-206.59 984.92,-192.95 1008.1,-184.17"/>
<polygon fill="#63b8ff" stroke="#63b8ff" points="921.61,-213.17 913.49,-219.98 924.08,-219.72 921.61,-213.17"/>
</a>
</g>
</g>
<!-- Node27 -->
<g id="Node000027" class="node">
<title>Node27</title>
<g id="a_Node000027"><a xlink:href="scrolledwindow__p_8h.html" target="_top" xlink:title=" ">
<polygon fill="white" stroke="#666666" points="1191.5,-184 1078.5,-184 1078.5,-165 1191.5,-165 1191.5,-184"/>
<text text-anchor="middle" x="1135" y="-172" font-family="Helvetica,sans-Serif" font-size="10.00">scrolledwindow_p.h</text>
</a>
</g>
</g>
<!-- Node1&#45;&gt;Node27 -->
<g id="edge26_Node000001_Node000027" class="edge">
<title>Node1&#45;&gt;Node27</title>
<g id="a_edge26_Node000001_Node000027"><a xlink:title=" ">
<path fill="none" stroke="#63b8ff" d="M927.05,-220.67C972.21,-210.86 1049.3,-194.12 1095.86,-184"/>
<polygon fill="#63b8ff" stroke="#63b8ff" points="926.14,-217.29 917.11,-222.83 927.63,-224.13 926.14,-217.29"/>
</a>
</g>
</g>
<!-- Node28 -->
<g id="Node000028" class="node">
<title>Node28</title>
<g id="a_Node000028"><a xlink:href="toolitem__p_8h.html" target="_top" xlink:title=" ">
<polygon fill="white" stroke="#666666" points="1288,-184 1210,-184 1210,-165 1288,-165 1288,-184"/>
<text text-anchor="middle" x="1249" y="-172" font-family="Helvetica,sans-Serif" font-size="10.00">toolitem_p.h</text>
</a>
</g>
</g>
<!-- Node1&#45;&gt;Node28 -->
<g id="edge27_Node000001_Node000028" class="edge">
<title>Node1&#45;&gt;Node28</title>
<g id="a_edge27_Node000001_Node000028"><a xlink:title=" ">
<path fill="none" stroke="#63b8ff" d="M927.16,-223.64C984.91,-215.79 1101.48,-199.64 1200,-184 1203.24,-183.49 1206.6,-182.94 1209.97,-182.37"/>
<polygon fill="#63b8ff" stroke="#63b8ff" points="926.52,-220.19 917.08,-225 927.46,-227.13 926.52,-220.19"/>
</a>
</g>
</g>
<!-- Node34 -->
<g id="Node000034" class="node">
<title>Node34</title>
<g id="a_Node000034"><a xlink:href="viewport__p_8h.html" target="_top" xlink:title=" ">
<polygon fill="white" stroke="#666666" points="1386,-184 1306,-184 1306,-165 1386,-165 1386,-184"/>
<text text-anchor="middle" x="1346" y="-172" font-family="Helvetica,sans-Serif" font-size="10.00">viewport_p.h</text>
</a>
</g>
</g>
<!-- Node1&#45;&gt;Node34 -->
<g id="edge33_Node000001_Node000034" class="edge">
<title>Node1&#45;&gt;Node34</title>
<g id="a_edge33_Node000001_Node000034"><a xlink:title=" ">
<path fill="none" stroke="#63b8ff" d="M927.42,-225.28C998.6,-218.81 1161.1,-203.22 1297,-184 1299.91,-183.59 1302.91,-183.14 1305.92,-182.66"/>
<polygon fill="#63b8ff" stroke="#63b8ff" points="926.84,-221.82 917.2,-226.2 927.47,-228.79 926.84,-221.82"/>
</a>
</g>
</g>
<!-- Node35 -->
<g id="Node000035" class="node">
<title>Node35</title>
<g id="a_Node000035"><a xlink:href="ytkmm_2ytkmm_2private_2window__p_8h.html" target="_top" xlink:title=" ">
<polygon fill="white" stroke="#666666" points="1998,-184 1924,-184 1924,-165 1998,-165 1998,-184"/>
<text text-anchor="middle" x="1961" y="-172" font-family="Helvetica,sans-Serif" font-size="10.00">window_p.h</text>
</a>
</g>
</g>
<!-- Node1&#45;&gt;Node35 -->
<g id="edge34_Node000001_Node000035" class="edge">
<title>Node1&#45;&gt;Node35</title>
<g id="a_edge34_Node000001_Node000035"><a xlink:title=" ">
<path fill="none" stroke="#63b8ff" d="M927.2,-226.71C1090.56,-218.62 1758.2,-185.55 1923.73,-177.35"/>
<polygon fill="#63b8ff" stroke="#63b8ff" points="927,-223.21 917.18,-227.2 927.34,-230.2 927,-223.21"/>
</a>
</g>
</g>
<!-- Node4 -->
<g id="Node000004" class="node">
<title>Node4</title>
<g id="a_Node000004"><a xlink:href="colorbutton__p_8h.html" target="_top" xlink:title=" ">
<polygon fill="white" stroke="#666666" points="92,-129 0,-129 0,-110 92,-110 92,-129"/>
<text text-anchor="middle" x="46" y="-117" font-family="Helvetica,sans-Serif" font-size="10.00">colorbutton_p.h</text>
</a>
</g>
</g>
<!-- Node3&#45;&gt;Node4 -->
<g id="edge3_Node000003_Node000004" class="edge">
<title>Node3&#45;&gt;Node4</title>
<g id="a_edge3_Node000003_Node000004"><a xlink:title=" ">
<path fill="none" stroke="#63b8ff" d="M364.64,-164.86C247.04,-145.49 215.41,-145.61 101,-129 98.13,-128.58 95.18,-128.15 92.2,-127.7"/>
<polygon fill="#63b8ff" stroke="#63b8ff" points="364.33,-168.36 374.77,-166.54 365.47,-161.45 364.33,-168.36"/>
</a>
</g>
</g>
<!-- Node5 -->
<g id="Node000005" class="node">
<title>Node5</title>
<g id="a_Node000005"><a xlink:href="fontbutton__p_8h.html" target="_top" xlink:title=" ">
<polygon fill="white" stroke="#666666" points="198,-129 110,-129 110,-110 198,-110 198,-129"/>
<text text-anchor="middle" x="154" y="-117" font-family="Helvetica,sans-Serif" font-size="10.00">fontbutton_p.h</text>
</a>
</g>
</g>
<!-- Node3&#45;&gt;Node5 -->
<g id="edge4_Node000003_Node000005" class="edge">
<title>Node3&#45;&gt;Node5</title>
<g id="a_edge4_Node000003_Node000005"><a xlink:title=" ">
<path fill="none" stroke="#63b8ff" d="M364.83,-164.32C317.09,-154.4 241.6,-138.71 195.09,-129.04"/>
<polygon fill="#63b8ff" stroke="#63b8ff" points="364.37,-167.8 374.87,-166.41 365.8,-160.95 364.37,-167.8"/>
</a>
</g>
</g>
<!-- Node6 -->
<g id="Node000006" class="node">
<title>Node6</title>
<g id="a_Node000006"><a xlink:href="linkbutton__p_8h.html" target="_top" xlink:title=" ">
<polygon fill="white" stroke="#666666" points="302,-129 216,-129 216,-110 302,-110 302,-129"/>
<text text-anchor="middle" x="259" y="-117" font-family="Helvetica,sans-Serif" font-size="10.00">linkbutton_p.h</text>
</a>
</g>
</g>
<!-- Node3&#45;&gt;Node6 -->
<g id="edge5_Node000003_Node000006" class="edge">
<title>Node3&#45;&gt;Node6</title>
<g id="a_edge5_Node000003_Node000006"><a xlink:title=" ">
<path fill="none" stroke="#63b8ff" d="M375.18,-161.55C347.32,-151.71 308.49,-137.98 283.54,-129.17"/>
<polygon fill="#63b8ff" stroke="#63b8ff" points="374.31,-164.95 384.9,-164.98 376.64,-158.35 374.31,-164.95"/>
</a>
</g>
</g>
<!-- Node7 -->
<g id="Node000007" class="node">
<title>Node7</title>
<g id="a_Node000007"><a xlink:href="optionmenu__p_8h.html" target="_top" xlink:title=" ">
<polygon fill="white" stroke="#666666" points="415.5,-129 320.5,-129 320.5,-110 415.5,-110 415.5,-129"/>
<text text-anchor="middle" x="368" y="-117" font-family="Helvetica,sans-Serif" font-size="10.00">optionmenu_p.h</text>
</a>
</g>
</g>
<!-- Node3&#45;&gt;Node7 -->
<g id="edge6_Node000003_Node000007" class="edge">
<title>Node3&#45;&gt;Node7</title>
<g id="a_edge6_Node000003_Node000007"><a xlink:title=" ">
<path fill="none" stroke="#63b8ff" d="M395.98,-156.67C388.88,-147.5 380.4,-136.52 374.64,-129.09"/>
<polygon fill="#63b8ff" stroke="#63b8ff" points="393.34,-158.98 402.23,-164.75 398.88,-154.7 393.34,-158.98"/>
</a>
</g>
</g>
<!-- Node8 -->
<g id="Node000008" class="node">
<title>Node8</title>
<g id="a_Node000008"><a xlink:href="scalebutton__p_8h.html" target="_top" xlink:title=" ">
<polygon fill="white" stroke="#666666" points="528,-129 434,-129 434,-110 528,-110 528,-129"/>
<text text-anchor="middle" x="481" y="-117" font-family="Helvetica,sans-Serif" font-size="10.00">scalebutton_p.h</text>
</a>
</g>
</g>
<!-- Node3&#45;&gt;Node8 -->
<g id="edge7_Node000003_Node000008" class="edge">
<title>Node3&#45;&gt;Node8</title>
<g id="a_edge7_Node000003_Node000008"><a xlink:title=" ">
<path fill="none" stroke="#63b8ff" d="M428.87,-158.88C441.82,-149.34 458.3,-137.21 469.22,-129.17"/>
<polygon fill="#63b8ff" stroke="#63b8ff" points="426.55,-156.24 420.57,-164.98 430.7,-161.88 426.55,-156.24"/>
</a>
</g>
</g>
<!-- Node9 -->
<g id="Node000009" class="node">
<title>Node9</title>
<g id="a_Node000009"><a xlink:href="togglebutton__p_8h.html" target="_top" xlink:title=" ">
<polygon fill="white" stroke="#666666" points="645.5,-129 546.5,-129 546.5,-110 645.5,-110 645.5,-129"/>
<text text-anchor="middle" x="596" y="-117" font-family="Helvetica,sans-Serif" font-size="10.00">togglebutton_p.h</text>
</a>
</g>
</g>
<!-- Node3&#45;&gt;Node9 -->
<g id="edge8_Node000003_Node000009" class="edge">
<title>Node3&#45;&gt;Node9</title>
<g id="a_edge8_Node000003_Node000009"><a xlink:title=" ">
<path fill="none" stroke="#63b8ff" d="M448.93,-162.18C483.9,-152.27 533.96,-138.08 565.72,-129.08"/>
<polygon fill="#63b8ff" stroke="#63b8ff" points="447.71,-158.89 439.04,-164.98 449.62,-165.63 447.71,-158.89"/>
</a>
</g>
</g>
<!-- Node10 -->
<g id="Node000010" class="node">
<title>Node10</title>
<g id="a_Node000010"><a xlink:href="checkbutton__p_8h.html" target="_top" xlink:title=" ">
<polygon fill="white" stroke="#666666" points="644.5,-74 547.5,-74 547.5,-55 644.5,-55 644.5,-74"/>
<text text-anchor="middle" x="596" y="-62" font-family="Helvetica,sans-Serif" font-size="10.00">checkbutton_p.h</text>
</a>
</g>
</g>
<!-- Node9&#45;&gt;Node10 -->
<g id="edge9_Node000009_Node000010" class="edge">
<title>Node9&#45;&gt;Node10</title>
<g id="a_edge9_Node000009_Node000010"><a xlink:title=" ">
<path fill="none" stroke="#63b8ff" d="M596,-99.66C596,-90.93 596,-80.99 596,-74.09"/>
<polygon fill="#63b8ff" stroke="#63b8ff" points="592.5,-99.75 596,-109.75 599.5,-99.75 592.5,-99.75"/>
</a>
</g>
</g>
<!-- Node11 -->
<g id="Node000011" class="node">
<title>Node11</title>
<g id="a_Node000011"><a xlink:href="radiobutton__p_8h.html" target="_top" xlink:title=" ">
<polygon fill="white" stroke="#666666" points="642.5,-19 549.5,-19 549.5,0 642.5,0 642.5,-19"/>
<text text-anchor="middle" x="596" y="-7" font-family="Helvetica,sans-Serif" font-size="10.00">radiobutton_p.h</text>
</a>
</g>
</g>
<!-- Node10&#45;&gt;Node11 -->
<g id="edge10_Node000010_Node000011" class="edge">
<title>Node10&#45;&gt;Node11</title>
<g id="a_edge10_Node000010_Node000011"><a xlink:title=" ">
<path fill="none" stroke="#63b8ff" d="M596,-44.66C596,-35.93 596,-25.99 596,-19.09"/>
<polygon fill="#63b8ff" stroke="#63b8ff" points="592.5,-44.75 596,-54.75 599.5,-44.75 592.5,-44.75"/>
</a>
</g>
</g>
<!-- Node13 -->
<g id="Node000013" class="node">
<title>Node13</title>
<g id="a_Node000013"><a xlink:href="comboboxentry__p_8h.html" target="_top" xlink:title=" ">
<polygon fill="white" stroke="#666666" points="776.5,-129 663.5,-129 663.5,-110 776.5,-110 776.5,-129"/>
<text text-anchor="middle" x="720" y="-117" font-family="Helvetica,sans-Serif" font-size="10.00">comboboxentry_p.h</text>
</a>
</g>
</g>
<!-- Node12&#45;&gt;Node13 -->
<g id="edge12_Node000012_Node000013" class="edge">
<title>Node12&#45;&gt;Node13</title>
<g id="a_edge12_Node000012_Node000013"><a xlink:title=" ">
<path fill="none" stroke="#63b8ff" d="M583.57,-162.06C616.09,-152.15 662.4,-138.04 691.82,-129.08"/>
<polygon fill="#63b8ff" stroke="#63b8ff" points="582.5,-158.72 573.96,-164.98 584.54,-165.42 582.5,-158.72"/>
</a>
</g>
</g>
<!-- Node17 -->
<g id="Node000017" class="node">
<title>Node17</title>
<g id="a_Node000017"><a xlink:href="aspectframe__p_8h.html" target="_top" xlink:title=" ">
<polygon fill="white" stroke="#666666" points="893,-129 795,-129 795,-110 893,-110 893,-129"/>
<text text-anchor="middle" x="844" y="-117" font-family="Helvetica,sans-Serif" font-size="10.00">aspectframe_p.h</text>
</a>
</g>
</g>
<!-- Node16&#45;&gt;Node17 -->
<g id="edge16_Node000016_Node000017" class="edge">
<title>Node16&#45;&gt;Node17</title>
<g id="a_edge16_Node000016_Node000017"><a xlink:title=" ">
<path fill="none" stroke="#63b8ff" d="M844,-154.66C844,-145.93 844,-135.99 844,-129.09"/>
<polygon fill="#63b8ff" stroke="#63b8ff" points="840.5,-154.75 844,-164.75 847.5,-154.75 840.5,-154.75"/>
</a>
</g>
</g>
<!-- Node20 -->
<g id="Node000020" class="node">
<title>Node20</title>
<g id="a_Node000020"><a xlink:href="combo__p_8h.html" target="_top" xlink:title=" ">
<polygon fill="white" stroke="#666666" points="981,-129 911,-129 911,-110 981,-110 981,-129"/>
<text text-anchor="middle" x="946" y="-117" font-family="Helvetica,sans-Serif" font-size="10.00">combo_p.h</text>
</a>
</g>
</g>
<!-- Node19&#45;&gt;Node20 -->
<g id="edge19_Node000019_Node000020" class="edge">
<title>Node19&#45;&gt;Node20</title>
<g id="a_edge19_Node000019_Node000020"><a xlink:title=" ">
<path fill="none" stroke="#63b8ff" d="M1008.43,-159.42C993,-149.81 973.05,-137.37 959.91,-129.17"/>
<polygon fill="#63b8ff" stroke="#63b8ff" points="1007.01,-162.66 1017.34,-164.98 1010.71,-156.72 1007.01,-162.66"/>
</a>
</g>
</g>
<!-- Node21 -->
<g id="Node000021" class="node">
<title>Node21</title>
<g id="a_Node000021"><a xlink:href="menuitem__p_8h.html" target="_top" xlink:title=" ">
<polygon fill="white" stroke="#666666" points="1086.5,-129 999.5,-129 999.5,-110 1086.5,-110 1086.5,-129"/>
<text text-anchor="middle" x="1043" y="-117" font-family="Helvetica,sans-Serif" font-size="10.00">menuitem_p.h</text>
</a>
</g>
</g>
<!-- Node19&#45;&gt;Node21 -->
<g id="edge20_Node000019_Node000021" class="edge">
<title>Node19&#45;&gt;Node21</title>
<g id="a_edge20_Node000019_Node000021"><a xlink:title=" ">
<path fill="none" stroke="#63b8ff" d="M1035.2,-154.95C1037.19,-146.15 1039.48,-136.06 1041.06,-129.09"/>
<polygon fill="#63b8ff" stroke="#63b8ff" points="1031.78,-154.22 1032.98,-164.75 1038.6,-155.77 1031.78,-154.22"/>
</a>
</g>
</g>
<!-- Node22 -->
<g id="Node000022" class="node">
<title>Node22</title>
<g id="a_Node000022"><a xlink:href="checkmenuitem__p_8h.html" target="_top" xlink:title=" ">
<polygon fill="white" stroke="#666666" points="822,-74 706,-74 706,-55 822,-55 822,-74"/>
<text text-anchor="middle" x="764" y="-62" font-family="Helvetica,sans-Serif" font-size="10.00">checkmenuitem_p.h</text>
</a>
</g>
</g>
<!-- Node21&#45;&gt;Node22 -->
<g id="edge21_Node000021_Node000022" class="edge">
<title>Node21&#45;&gt;Node22</title>
<g id="a_edge21_Node000021_Node000022"><a xlink:title=" ">
<path fill="none" stroke="#63b8ff" d="M989.31,-108.3C936.99,-98.36 858.33,-83.42 809.14,-74.07"/>
<polygon fill="#63b8ff" stroke="#63b8ff" points="988.93,-111.79 999.41,-110.22 990.24,-104.91 988.93,-111.79"/>
</a>
</g>
</g>
<!-- Node24 -->
<g id="Node000024" class="node">
<title>Node24</title>
<g id="a_Node000024"><a xlink:href="imagemenuitem__p_8h.html" target="_top" xlink:title=" ">
<polygon fill="white" stroke="#666666" points="958,-74 840,-74 840,-55 958,-55 958,-74"/>
<text text-anchor="middle" x="899" y="-62" font-family="Helvetica,sans-Serif" font-size="10.00">imagemenuitem_p.h</text>
</a>
</g>
</g>
<!-- Node21&#45;&gt;Node24 -->
<g id="edge23_Node000021_Node000024" class="edge">
<title>Node21&#45;&gt;Node24</title>
<g id="a_edge23_Node000021_Node000024"><a xlink:title=" ">
<path fill="none" stroke="#63b8ff" d="M1010.18,-106.42C983.47,-96.59 946.4,-82.95 922.56,-74.17"/>
<polygon fill="#63b8ff" stroke="#63b8ff" points="1009.27,-109.82 1019.86,-109.98 1011.69,-103.25 1009.27,-109.82"/>
</a>
</g>
</g>
<!-- Node25 -->
<g id="Node000025" class="node">
<title>Node25</title>
<g id="a_Node000025"><a xlink:href="separatormenuitem__p_8h.html" target="_top" xlink:title=" ">
<polygon fill="white" stroke="#666666" points="1110,-74 976,-74 976,-55 1110,-55 1110,-74"/>
<text text-anchor="middle" x="1043" y="-62" font-family="Helvetica,sans-Serif" font-size="10.00">separatormenuitem_p.h</text>
</a>
</g>
</g>
<!-- Node21&#45;&gt;Node25 -->
<g id="edge24_Node000021_Node000025" class="edge">
<title>Node21&#45;&gt;Node25</title>
<g id="a_edge24_Node000021_Node000025"><a xlink:title=" ">
<path fill="none" stroke="#63b8ff" d="M1043,-99.66C1043,-90.93 1043,-80.99 1043,-74.09"/>
<polygon fill="#63b8ff" stroke="#63b8ff" points="1039.5,-99.75 1043,-109.75 1046.5,-99.75 1039.5,-99.75"/>
</a>
</g>
</g>
<!-- Node26 -->
<g id="Node000026" class="node">
<title>Node26</title>
<g id="a_Node000026"><a xlink:href="tearoffmenuitem__p_8h.html" target="_top" xlink:title=" ">
<polygon fill="white" stroke="#666666" points="1247.5,-74 1128.5,-74 1128.5,-55 1247.5,-55 1247.5,-74"/>
<text text-anchor="middle" x="1188" y="-62" font-family="Helvetica,sans-Serif" font-size="10.00">tearoffmenuitem_p.h</text>
</a>
</g>
</g>
<!-- Node21&#45;&gt;Node26 -->
<g id="edge25_Node000021_Node000026" class="edge">
<title>Node21&#45;&gt;Node26</title>
<g id="a_edge25_Node000021_Node000026"><a xlink:title=" ">
<path fill="none" stroke="#63b8ff" d="M1075.69,-106.55C1102.62,-96.71 1140.16,-82.98 1164.28,-74.17"/>
<polygon fill="#63b8ff" stroke="#63b8ff" points="1074.49,-103.26 1066.3,-109.98 1076.89,-109.84 1074.49,-103.26"/>
</a>
</g>
</g>
<!-- Node23 -->
<g id="Node000023" class="node">
<title>Node23</title>
<g id="a_Node000023"><a xlink:href="radiomenuitem__p_8h.html" target="_top" xlink:title=" ">
<polygon fill="white" stroke="#666666" points="820,-19 708,-19 708,0 820,0 820,-19"/>
<text text-anchor="middle" x="764" y="-7" font-family="Helvetica,sans-Serif" font-size="10.00">radiomenuitem_p.h</text>
</a>
</g>
</g>
<!-- Node22&#45;&gt;Node23 -->
<g id="edge22_Node000022_Node000023" class="edge">
<title>Node22&#45;&gt;Node23</title>
<g id="a_edge22_Node000022_Node000023"><a xlink:title=" ">
<path fill="none" stroke="#63b8ff" d="M764,-44.66C764,-35.93 764,-25.99 764,-19.09"/>
<polygon fill="#63b8ff" stroke="#63b8ff" points="760.5,-44.75 764,-54.75 767.5,-44.75 760.5,-44.75"/>
</a>
</g>
</g>
<!-- Node29 -->
<g id="Node000029" class="node">
<title>Node29</title>
<g id="a_Node000029"><a xlink:href="separatortoolitem__p_8h.html" target="_top" xlink:title=" ">
<polygon fill="white" stroke="#666666" points="1286.5,-129 1161.5,-129 1161.5,-110 1286.5,-110 1286.5,-129"/>
<text text-anchor="middle" x="1224" y="-117" font-family="Helvetica,sans-Serif" font-size="10.00">separatortoolitem_p.h</text>
</a>
</g>
</g>
<!-- Node28&#45;&gt;Node29 -->
<g id="edge28_Node000028_Node000029" class="edge">
<title>Node28&#45;&gt;Node29</title>
<g id="a_edge28_Node000028_Node000029"><a xlink:title=" ">
<path fill="none" stroke="#63b8ff" d="M1240.52,-155.53C1236.31,-146.6 1231.41,-136.22 1228.05,-129.09"/>
<polygon fill="#63b8ff" stroke="#63b8ff" points="1237.44,-157.2 1244.87,-164.75 1243.77,-154.21 1237.44,-157.2"/>
</a>
</g>
</g>
<!-- Node30 -->
<g id="Node000030" class="node">
<title>Node30</title>
<g id="a_Node000030"><a xlink:href="toolbutton__p_8h.html" target="_top" xlink:title=" ">
<polygon fill="white" stroke="#666666" points="1391.5,-129 1304.5,-129 1304.5,-110 1391.5,-110 1391.5,-129"/>
<text text-anchor="middle" x="1348" y="-117" font-family="Helvetica,sans-Serif" font-size="10.00">toolbutton_p.h</text>
</a>
</g>
</g>
<!-- Node28&#45;&gt;Node30 -->
<g id="edge29_Node000028_Node000030" class="edge">
<title>Node28&#45;&gt;Node30</title>
<g id="a_edge29_Node000028_Node000030"><a xlink:title=" ">
<path fill="none" stroke="#63b8ff" d="M1273.78,-160.23C1291.94,-150.51 1316.06,-137.6 1331.8,-129.17"/>
<polygon fill="#63b8ff" stroke="#63b8ff" points="1272.07,-157.18 1264.91,-164.98 1275.37,-163.35 1272.07,-157.18"/>
</a>
</g>
</g>
<!-- Node31 -->
<g id="Node000031" class="node">
<title>Node31</title>
<g id="a_Node000031"><a xlink:href="menutoolbutton__p_8h.html" target="_top" xlink:title=" ">
<polygon fill="white" stroke="#666666" points="1380.5,-74 1265.5,-74 1265.5,-55 1380.5,-55 1380.5,-74"/>
<text text-anchor="middle" x="1323" y="-62" font-family="Helvetica,sans-Serif" font-size="10.00">menutoolbutton_p.h</text>
</a>
</g>
</g>
<!-- Node30&#45;&gt;Node31 -->
<g id="edge30_Node000030_Node000031" class="edge">
<title>Node30&#45;&gt;Node31</title>
<g id="a_edge30_Node000030_Node000031"><a xlink:title=" ">
<path fill="none" stroke="#63b8ff" d="M1339.52,-100.53C1335.31,-91.6 1330.41,-81.22 1327.05,-74.09"/>
<polygon fill="#63b8ff" stroke="#63b8ff" points="1336.44,-102.2 1343.87,-109.75 1342.77,-99.21 1336.44,-102.2"/>
</a>
</g>
</g>
<!-- Node32 -->
<g id="Node000032" class="node">
<title>Node32</title>
<g id="a_Node000032"><a xlink:href="toggletoolbutton__p_8h.html" target="_top" xlink:title=" ">
<polygon fill="white" stroke="#666666" points="1517,-74 1399,-74 1399,-55 1517,-55 1517,-74"/>
<text text-anchor="middle" x="1458" y="-62" font-family="Helvetica,sans-Serif" font-size="10.00">toggletoolbutton_p.h</text>
</a>
</g>
</g>
<!-- Node30&#45;&gt;Node32 -->
<g id="edge31_Node000030_Node000032" class="edge">
<title>Node30&#45;&gt;Node32</title>
<g id="a_edge31_Node000030_Node000032"><a xlink:title=" ">
<path fill="none" stroke="#63b8ff" d="M1374.7,-105.63C1394.97,-95.87 1422.27,-82.71 1440.01,-74.17"/>
<polygon fill="#63b8ff" stroke="#63b8ff" points="1373.16,-102.49 1365.67,-109.98 1376.2,-108.8 1373.16,-102.49"/>
</a>
</g>
</g>
<!-- Node33 -->
<g id="Node000033" class="node">
<title>Node33</title>
<g id="a_Node000033"><a xlink:href="radiotoolbutton__p_8h.html" target="_top" xlink:title=" ">
<polygon fill="white" stroke="#666666" points="1514,-19 1402,-19 1402,0 1514,0 1514,-19"/>
<text text-anchor="middle" x="1458" y="-7" font-family="Helvetica,sans-Serif" font-size="10.00">radiotoolbutton_p.h</text>
</a>
</g>
</g>
<!-- Node32&#45;&gt;Node33 -->
<g id="edge32_Node000032_Node000033" class="edge">
<title>Node32&#45;&gt;Node33</title>
<g id="a_edge32_Node000032_Node000033"><a xlink:title=" ">
<path fill="none" stroke="#63b8ff" d="M1458,-44.66C1458,-35.93 1458,-25.99 1458,-19.09"/>
<polygon fill="#63b8ff" stroke="#63b8ff" points="1454.5,-44.75 1458,-54.75 1461.5,-44.75 1454.5,-44.75"/>
</a>
</g>
</g>
<!-- Node36 -->
<g id="Node000036" class="node">
<title>Node36</title>
<g id="a_Node000036"><a xlink:href="assistant__p_8h.html" target="_top" xlink:title=" ">
<polygon fill="white" stroke="#666666" points="1909.5,-129 1828.5,-129 1828.5,-110 1909.5,-110 1909.5,-129"/>
<text text-anchor="middle" x="1869" y="-117" font-family="Helvetica,sans-Serif" font-size="10.00">assistant_p.h</text>
</a>
</g>
</g>
<!-- Node35&#45;&gt;Node36 -->
<g id="edge35_Node000035_Node000036" class="edge">
<title>Node35&#45;&gt;Node36</title>
<g id="a_edge35_Node000035_Node000036"><a xlink:title=" ">
<path fill="none" stroke="#63b8ff" d="M1937.51,-159.97C1920.69,-150.28 1898.55,-137.52 1884.05,-129.17"/>
<polygon fill="#63b8ff" stroke="#63b8ff" points="1935.81,-163.03 1946.22,-164.98 1939.3,-156.96 1935.81,-163.03"/>
</a>
</g>
</g>
<!-- Node37 -->
<g id="Node000037" class="node">
<title>Node37</title>
<g id="a_Node000037"><a xlink:href="dialog__p_8h.html" target="_top" xlink:title=" ">
<polygon fill="white" stroke="#666666" points="1994.5,-129 1927.5,-129 1927.5,-110 1994.5,-110 1994.5,-129"/>
<text text-anchor="middle" x="1961" y="-117" font-family="Helvetica,sans-Serif" font-size="10.00">dialog_p.h</text>
</a>
</g>
</g>
<!-- Node35&#45;&gt;Node37 -->
<g id="edge36_Node000035_Node000037" class="edge">
<title>Node35&#45;&gt;Node37</title>
<g id="a_edge36_Node000035_Node000037"><a xlink:title=" ">
<path fill="none" stroke="#63b8ff" d="M1961,-154.66C1961,-145.93 1961,-135.99 1961,-129.09"/>
<polygon fill="#63b8ff" stroke="#63b8ff" points="1957.5,-154.75 1961,-164.75 1964.5,-154.75 1957.5,-154.75"/>
</a>
</g>
</g>
<!-- Node46 -->
<g id="Node000046" class="node">
<title>Node46</title>
<g id="a_Node000046"><a xlink:href="offscreenwindow__p_8h.html" target="_top" xlink:title=" ">
<polygon fill="white" stroke="#666666" points="2131.5,-129 2012.5,-129 2012.5,-110 2131.5,-110 2131.5,-129"/>
<text text-anchor="middle" x="2072" y="-117" font-family="Helvetica,sans-Serif" font-size="10.00">offscreenwindow_p.h</text>
</a>
</g>
</g>
<!-- Node35&#45;&gt;Node46 -->
<g id="edge45_Node000035_Node000046" class="edge">
<title>Node35&#45;&gt;Node46</title>
<g id="a_edge45_Node000035_Node000046"><a xlink:title=" ">
<path fill="none" stroke="#63b8ff" d="M1987.95,-160.63C2008.39,-150.87 2035.95,-137.71 2053.84,-129.17"/>
<polygon fill="#63b8ff" stroke="#63b8ff" points="1986.35,-157.52 1978.83,-164.98 1989.37,-163.83 1986.35,-157.52"/>
</a>
</g>
</g>
<!-- Node47 -->
<g id="Node000047" class="node">
<title>Node47</title>
<g id="a_Node000047"><a xlink:href="plug__p_8h.html" target="_top" xlink:title=" ">
<polygon fill="white" stroke="#666666" points="2208,-129 2150,-129 2150,-110 2208,-110 2208,-129"/>
<text text-anchor="middle" x="2179" y="-117" font-family="Helvetica,sans-Serif" font-size="10.00">plug_p.h</text>
</a>
</g>
</g>
<!-- Node35&#45;&gt;Node47 -->
<g id="edge46_Node000035_Node000047" class="edge">
<title>Node35&#45;&gt;Node47</title>
<g id="a_edge46_Node000035_Node000047"><a xlink:title=" ">
<path fill="none" stroke="#63b8ff" d="M2005.99,-162.56C2049.18,-152.06 2113.15,-136.51 2149.99,-127.55"/>
<polygon fill="#63b8ff" stroke="#63b8ff" points="2004.92,-159.22 1996.03,-164.98 2006.57,-166.02 2004.92,-159.22"/>
</a>
</g>
</g>
<!-- Node38 -->
<g id="Node000038" class="node">
<title>Node38</title>
<g id="a_Node000038"><a xlink:href="aboutdialog__p_8h.html" target="_top" xlink:title=" ">
<polygon fill="white" stroke="#666666" points="1630.5,-74 1535.5,-74 1535.5,-55 1630.5,-55 1630.5,-74"/>
<text text-anchor="middle" x="1583" y="-62" font-family="Helvetica,sans-Serif" font-size="10.00">aboutdialog_p.h</text>
</a>
</g>
</g>
<!-- Node37&#45;&gt;Node38 -->
<g id="edge37_Node000037_Node000038" class="edge">
<title>Node37&#45;&gt;Node38</title>
<g id="a_edge37_Node000037_Node000038"><a xlink:title=" ">
<path fill="none" stroke="#63b8ff" d="M1917.33,-109.99C1792.93,-89.93 1759.67,-90.94 1639,-74 1636.27,-73.62 1633.47,-73.22 1630.65,-72.81"/>
<polygon fill="#63b8ff" stroke="#63b8ff" points="1916.81,-113.45 1927.24,-111.6 1917.93,-106.54 1916.81,-113.45"/>
</a>
</g>
</g>
<!-- Node39 -->
<g id="Node000039" class="node">
<title>Node39</title>
<g id="a_Node000039"><a xlink:href="colorselection__p_8h.html" target="_top" xlink:title=" ">
<polygon fill="white" stroke="#666666" points="1753.5,-74 1648.5,-74 1648.5,-55 1753.5,-55 1753.5,-74"/>
<text text-anchor="middle" x="1701" y="-62" font-family="Helvetica,sans-Serif" font-size="10.00">colorselection_p.h</text>
</a>
</g>
</g>
<!-- Node37&#45;&gt;Node39 -->
<g id="edge38_Node000037_Node000039" class="edge">
<title>Node37&#45;&gt;Node39</title>
<g id="a_edge38_Node000037_Node000039"><a xlink:title=" ">
<path fill="none" stroke="#63b8ff" d="M1917.37,-109.61C1868.75,-99.7 1790.71,-83.79 1742.83,-74.03"/>
<polygon fill="#63b8ff" stroke="#63b8ff" points="1916.78,-113.06 1927.28,-111.63 1918.18,-106.2 1916.78,-113.06"/>
</a>
</g>
</g>
<!-- Node40 -->
<g id="Node000040" class="node">
<title>Node40</title>
<g id="a_Node000040"><a xlink:href="filechooserdialog__p_8h.html" target="_top" xlink:title=" ">
<polygon fill="white" stroke="#666666" points="1892,-74 1772,-74 1772,-55 1892,-55 1892,-74"/>
<text text-anchor="middle" x="1832" y="-62" font-family="Helvetica,sans-Serif" font-size="10.00">filechooserdialog_p.h</text>
</a>
</g>
</g>
<!-- Node37&#45;&gt;Node40 -->
<g id="edge39_Node000037_Node000040" class="edge">
<title>Node37&#45;&gt;Node40</title>
<g id="a_edge39_Node000037_Node000040"><a xlink:title=" ">
<path fill="none" stroke="#63b8ff" d="M1930.96,-106.16C1907.08,-96.35 1874.28,-82.87 1853.1,-74.17"/>
<polygon fill="#63b8ff" stroke="#63b8ff" points="1929.69,-109.42 1940.27,-109.98 1932.35,-102.95 1929.69,-109.42"/>
</a>
</g>
</g>
<!-- Node41 -->
<g id="Node000041" class="node">
<title>Node41</title>
<g id="a_Node000041"><a xlink:href="fontselection__p_8h.html" target="_top" xlink:title=" ">
<polygon fill="white" stroke="#666666" points="2011.5,-74 1910.5,-74 1910.5,-55 2011.5,-55 2011.5,-74"/>
<text text-anchor="middle" x="1961" y="-62" font-family="Helvetica,sans-Serif" font-size="10.00">fontselection_p.h</text>
</a>
</g>
</g>
<!-- Node37&#45;&gt;Node41 -->
<g id="edge40_Node000037_Node000041" class="edge">
<title>Node37&#45;&gt;Node41</title>
<g id="a_edge40_Node000037_Node000041"><a xlink:title=" ">
<path fill="none" stroke="#63b8ff" d="M1961,-99.66C1961,-90.93 1961,-80.99 1961,-74.09"/>
<polygon fill="#63b8ff" stroke="#63b8ff" points="1957.5,-99.75 1961,-109.75 1964.5,-99.75 1957.5,-99.75"/>
</a>
</g>
</g>
<!-- Node42 -->
<g id="Node000042" class="node">
<title>Node42</title>
<g id="a_Node000042"><a xlink:href="messagedialog__p_8h.html" target="_top" xlink:title=" ">
<polygon fill="white" stroke="#666666" points="2140.5,-74 2029.5,-74 2029.5,-55 2140.5,-55 2140.5,-74"/>
<text text-anchor="middle" x="2085" y="-62" font-family="Helvetica,sans-Serif" font-size="10.00">messagedialog_p.h</text>
</a>
</g>
</g>
<!-- Node37&#45;&gt;Node42 -->
<g id="edge41_Node000037_Node000042" class="edge">
<title>Node37&#45;&gt;Node42</title>
<g id="a_edge41_Node000037_Node000042"><a xlink:title=" ">
<path fill="none" stroke="#63b8ff" d="M1990.18,-106.03C2013.11,-96.23 2044.45,-82.83 2064.71,-74.17"/>
<polygon fill="#63b8ff" stroke="#63b8ff" points="1988.74,-102.84 1980.92,-109.98 1991.49,-109.27 1988.74,-102.84"/>
</a>
</g>
</g>
<!-- Node43 -->
<g id="Node000043" class="node">
<title>Node43</title>
<g id="a_Node000043"><a xlink:href="pagesetupunixdialog__p_8h.html" target="_top" xlink:title=" ">
<polygon fill="white" stroke="#666666" points="2297.5,-74 2158.5,-74 2158.5,-55 2297.5,-55 2297.5,-74"/>
<text text-anchor="middle" x="2228" y="-62" font-family="Helvetica,sans-Serif" font-size="10.00">pagesetupunixdialog_p.h</text>
</a>
</g>
</g>
<!-- Node37&#45;&gt;Node43 -->
<g id="edge42_Node000037_Node000043" class="edge">
<title>Node37&#45;&gt;Node43</title>
<g id="a_edge42_Node000037_Node000043"><a xlink:title=" ">
<path fill="none" stroke="#63b8ff" d="M2004.38,-109.89C2054.21,-100 2135.48,-83.86 2185.11,-74.01"/>
<polygon fill="#63b8ff" stroke="#63b8ff" points="2003.67,-106.46 1994.55,-111.84 2005.04,-113.33 2003.67,-106.46"/>
</a>
</g>
</g>
<!-- Node44 -->
<g id="Node000044" class="node">
<title>Node44</title>
<g id="a_Node000044"><a xlink:href="printunixdialog__p_8h.html" target="_top" xlink:title=" ">
<polygon fill="white" stroke="#666666" points="2426,-74 2316,-74 2316,-55 2426,-55 2426,-74"/>
<text text-anchor="middle" x="2371" y="-62" font-family="Helvetica,sans-Serif" font-size="10.00">printunixdialog_p.h</text>
</a>
</g>
</g>
<!-- Node37&#45;&gt;Node44 -->
<g id="edge43_Node000037_Node000044" class="edge">
<title>Node37&#45;&gt;Node44</title>
<g id="a_edge43_Node000037_Node000044"><a xlink:title=" ">
<path fill="none" stroke="#63b8ff" d="M2004.65,-110.01C2139.62,-88.92 2175.6,-90.53 2307,-74 2309.89,-73.64 2312.86,-73.26 2315.85,-72.87"/>
<polygon fill="#63b8ff" stroke="#63b8ff" points="2004.09,-106.56 1994.76,-111.57 2005.18,-113.47 2004.09,-106.56"/>
</a>
</g>
</g>
<!-- Node45 -->
<g id="Node000045" class="node">
<title>Node45</title>
<g id="a_Node000045"><a xlink:href="recentchooserdialog__p_8h.html" target="_top" xlink:title=" ">
<polygon fill="white" stroke="#666666" points="2580,-74 2444,-74 2444,-55 2580,-55 2580,-74"/>
<text text-anchor="middle" x="2512" y="-62" font-family="Helvetica,sans-Serif" font-size="10.00">recentchooserdialog_p.h</text>
</a>
</g>
</g>
<!-- Node37&#45;&gt;Node45 -->
<g id="edge44_Node000037_Node000045" class="edge">
<title>Node37&#45;&gt;Node45</title>
<g id="a_edge44_Node000037_Node000045"><a xlink:title=" ">
<path fill="none" stroke="#63b8ff" d="M2004.84,-110.05C2196.09,-83.63 2246.94,-92.23 2435,-74 2437.95,-73.71 2440.95,-73.42 2443.99,-73.11"/>
<polygon fill="#63b8ff" stroke="#63b8ff" points="2004.16,-106.61 1994.74,-111.46 2005.13,-113.54 2004.16,-106.61"/>
</a>
</g>
</g>
</g>
</svg>
