<?xml version="1.0" encoding="UTF-8" standalone="no"?>
<!DOCTYPE svg PUBLIC "-//W3C//DTD SVG 1.1//EN"
 "http://www.w3.org/Graphics/SVG/1.1/DTD/svg11.dtd">
<!-- Generated by graphviz version 2.43.0 (0)
 -->
<!-- Title: button_p.h Pages: 1 -->
<svg width="654pt" height="192pt"
 viewBox="0.00 0.00 653.50 192.00" xmlns="http://www.w3.org/2000/svg" xmlns:xlink="http://www.w3.org/1999/xlink">
<g id="graph0" class="graph" transform="scale(1 1) rotate(0) translate(4 188)">
<title>button_p.h</title>
<!-- Node1 -->
<g id="Node000001" class="node">
<title>Node1</title>
<g id="a_Node000001"><a xlink:title=" ">
<polygon fill="#999999" stroke="#666666" points="347,-184 279,-184 279,-165 347,-165 347,-184"/>
<text text-anchor="middle" x="313" y="-172" font-family="Helvetica,sans-Serif" font-size="10.00">button_p.h</text>
</a>
</g>
</g>
<!-- Node2 -->
<g id="Node000002" class="node">
<title>Node2</title>
<g id="a_Node000002"><a xlink:href="colorbutton__p_8h.html" target="_top" xlink:title=" ">
<polygon fill="white" stroke="#666666" points="92,-129 0,-129 0,-110 92,-110 92,-129"/>
<text text-anchor="middle" x="46" y="-117" font-family="Helvetica,sans-Serif" font-size="10.00">colorbutton_p.h</text>
</a>
</g>
</g>
<!-- Node1&#45;&gt;Node2 -->
<g id="edge1_Node000001_Node000002" class="edge">
<title>Node1&#45;&gt;Node2</title>
<g id="a_edge1_Node000001_Node000002"><a xlink:title=" ">
<path fill="none" stroke="#63b8ff" d="M269.08,-164.78C219.29,-154.9 138.63,-138.89 89.15,-129.07"/>
<polygon fill="#63b8ff" stroke="#63b8ff" points="268.42,-168.22 278.91,-166.73 269.79,-161.35 268.42,-168.22"/>
</a>
</g>
</g>
<!-- Node3 -->
<g id="Node000003" class="node">
<title>Node3</title>
<g id="a_Node000003"><a xlink:href="fontbutton__p_8h.html" target="_top" xlink:title=" ">
<polygon fill="white" stroke="#666666" points="198,-129 110,-129 110,-110 198,-110 198,-129"/>
<text text-anchor="middle" x="154" y="-117" font-family="Helvetica,sans-Serif" font-size="10.00">fontbutton_p.h</text>
</a>
</g>
</g>
<!-- Node1&#45;&gt;Node3 -->
<g id="edge2_Node000001_Node000003" class="edge">
<title>Node1&#45;&gt;Node3</title>
<g id="a_edge2_Node000001_Node000003"><a xlink:title=" ">
<path fill="none" stroke="#63b8ff" d="M277.9,-161.8C248.22,-151.91 206.4,-137.97 179.75,-129.08"/>
<polygon fill="#63b8ff" stroke="#63b8ff" points="276.86,-165.14 287.45,-164.98 279.07,-158.5 276.86,-165.14"/>
</a>
</g>
</g>
<!-- Node4 -->
<g id="Node000004" class="node">
<title>Node4</title>
<g id="a_Node000004"><a xlink:href="linkbutton__p_8h.html" target="_top" xlink:title=" ">
<polygon fill="white" stroke="#666666" points="302,-129 216,-129 216,-110 302,-110 302,-129"/>
<text text-anchor="middle" x="259" y="-117" font-family="Helvetica,sans-Serif" font-size="10.00">linkbutton_p.h</text>
</a>
</g>
</g>
<!-- Node1&#45;&gt;Node4 -->
<g id="edge3_Node000001_Node000004" class="edge">
<title>Node1&#45;&gt;Node4</title>
<g id="a_edge3_Node000001_Node000004"><a xlink:title=" ">
<path fill="none" stroke="#63b8ff" d="M296.72,-157.52C287.2,-148.18 275.56,-136.75 267.75,-129.09"/>
<polygon fill="#63b8ff" stroke="#63b8ff" points="294.49,-160.24 304.08,-164.75 299.4,-155.25 294.49,-160.24"/>
</a>
</g>
</g>
<!-- Node5 -->
<g id="Node000005" class="node">
<title>Node5</title>
<g id="a_Node000005"><a xlink:href="optionmenu__p_8h.html" target="_top" xlink:title=" ">
<polygon fill="white" stroke="#666666" points="415.5,-129 320.5,-129 320.5,-110 415.5,-110 415.5,-129"/>
<text text-anchor="middle" x="368" y="-117" font-family="Helvetica,sans-Serif" font-size="10.00">optionmenu_p.h</text>
</a>
</g>
</g>
<!-- Node1&#45;&gt;Node5 -->
<g id="edge4_Node000001_Node000005" class="edge">
<title>Node1&#45;&gt;Node5</title>
<g id="a_edge4_Node000001_Node000005"><a xlink:title=" ">
<path fill="none" stroke="#63b8ff" d="M329.29,-157.8C339.04,-148.41 351.05,-136.83 359.09,-129.09"/>
<polygon fill="#63b8ff" stroke="#63b8ff" points="326.85,-155.29 322.08,-164.75 331.71,-160.33 326.85,-155.29"/>
</a>
</g>
</g>
<!-- Node6 -->
<g id="Node000006" class="node">
<title>Node6</title>
<g id="a_Node000006"><a xlink:href="scalebutton__p_8h.html" target="_top" xlink:title=" ">
<polygon fill="white" stroke="#666666" points="528,-129 434,-129 434,-110 528,-110 528,-129"/>
<text text-anchor="middle" x="481" y="-117" font-family="Helvetica,sans-Serif" font-size="10.00">scalebutton_p.h</text>
</a>
</g>
</g>
<!-- Node1&#45;&gt;Node6 -->
<g id="edge5_Node000001_Node000006" class="edge">
<title>Node1&#45;&gt;Node6</title>
<g id="a_edge5_Node000001_Node000006"><a xlink:title=" ">
<path fill="none" stroke="#63b8ff" d="M349.68,-161.93C381.06,-152.03 425.51,-138.01 453.8,-129.08"/>
<polygon fill="#63b8ff" stroke="#63b8ff" points="348.48,-158.64 339.99,-164.98 350.58,-165.31 348.48,-158.64"/>
</a>
</g>
</g>
<!-- Node7 -->
<g id="Node000007" class="node">
<title>Node7</title>
<g id="a_Node000007"><a xlink:href="togglebutton__p_8h.html" target="_top" xlink:title=" ">
<polygon fill="white" stroke="#666666" points="645.5,-129 546.5,-129 546.5,-110 645.5,-110 645.5,-129"/>
<text text-anchor="middle" x="596" y="-117" font-family="Helvetica,sans-Serif" font-size="10.00">togglebutton_p.h</text>
</a>
</g>
</g>
<!-- Node1&#45;&gt;Node7 -->
<g id="edge6_Node000001_Node000007" class="edge">
<title>Node1&#45;&gt;Node7</title>
<g id="a_edge6_Node000001_Node000007"><a xlink:title=" ">
<path fill="none" stroke="#63b8ff" d="M357.18,-165.23C409.82,-155.37 497.32,-138.98 550.52,-129.02"/>
<polygon fill="#63b8ff" stroke="#63b8ff" points="356.32,-161.83 347.14,-167.11 357.61,-168.71 356.32,-161.83"/>
</a>
</g>
</g>
<!-- Node8 -->
<g id="Node000008" class="node">
<title>Node8</title>
<g id="a_Node000008"><a xlink:href="checkbutton__p_8h.html" target="_top" xlink:title=" ">
<polygon fill="white" stroke="#666666" points="644.5,-74 547.5,-74 547.5,-55 644.5,-55 644.5,-74"/>
<text text-anchor="middle" x="596" y="-62" font-family="Helvetica,sans-Serif" font-size="10.00">checkbutton_p.h</text>
</a>
</g>
</g>
<!-- Node7&#45;&gt;Node8 -->
<g id="edge7_Node000007_Node000008" class="edge">
<title>Node7&#45;&gt;Node8</title>
<g id="a_edge7_Node000007_Node000008"><a xlink:title=" ">
<path fill="none" stroke="#63b8ff" d="M596,-99.66C596,-90.93 596,-80.99 596,-74.09"/>
<polygon fill="#63b8ff" stroke="#63b8ff" points="592.5,-99.75 596,-109.75 599.5,-99.75 592.5,-99.75"/>
</a>
</g>
</g>
<!-- Node9 -->
<g id="Node000009" class="node">
<title>Node9</title>
<g id="a_Node000009"><a xlink:href="radiobutton__p_8h.html" target="_top" xlink:title=" ">
<polygon fill="white" stroke="#666666" points="642.5,-19 549.5,-19 549.5,0 642.5,0 642.5,-19"/>
<text text-anchor="middle" x="596" y="-7" font-family="Helvetica,sans-Serif" font-size="10.00">radiobutton_p.h</text>
</a>
</g>
</g>
<!-- Node8&#45;&gt;Node9 -->
<g id="edge8_Node000008_Node000009" class="edge">
<title>Node8&#45;&gt;Node9</title>
<g id="a_edge8_Node000008_Node000009"><a xlink:title=" ">
<path fill="none" stroke="#63b8ff" d="M596,-44.66C596,-35.93 596,-25.99 596,-19.09"/>
<polygon fill="#63b8ff" stroke="#63b8ff" points="592.5,-44.75 596,-54.75 599.5,-44.75 592.5,-44.75"/>
</a>
</g>
</g>
</g>
</svg>
