<?xml version="1.0" encoding="UTF-8" standalone="no"?>
<!DOCTYPE svg PUBLIC "-//W3C//DTD SVG 1.1//EN"
 "http://www.w3.org/Graphics/SVG/1.1/DTD/svg11.dtd">
<!-- Generated by graphviz version 2.43.0 (0)
 -->
<!-- Title: cairo_packer.h Pages: 1 -->
<svg width="526pt" height="148pt"
 viewBox="0.00 0.00 525.50 148.00" xmlns="http://www.w3.org/2000/svg" xmlns:xlink="http://www.w3.org/1999/xlink">
<g id="graph0" class="graph" transform="scale(1 1) rotate(0) translate(4 144)">
<title>cairo_packer.h</title>
<!-- Node1 -->
<g id="Node000001" class="node">
<title>Node1</title>
<g id="a_Node000001"><a xlink:title=" ">
<polygon fill="#999999" stroke="#666666" points="312,-140 226,-140 226,-121 312,-121 312,-140"/>
<text text-anchor="middle" x="269" y="-128" font-family="Helvetica,sans-Serif" font-size="10.00">cairo_packer.h</text>
</a>
</g>
</g>
<!-- Node2 -->
<g id="Node000002" class="node">
<title>Node2</title>
<g id="a_Node000002"><a xlink:href="audio__clip__editor_8h.html" target="_top" xlink:title=" ">
<polygon fill="white" stroke="#666666" points="108,-79.5 0,-79.5 0,-60.5 108,-60.5 108,-79.5"/>
<text text-anchor="middle" x="54" y="-67.5" font-family="Helvetica,sans-Serif" font-size="10.00">audio_clip_editor.h</text>
</a>
</g>
</g>
<!-- Node1&#45;&gt;Node2 -->
<g id="edge1_Node000001_Node000002" class="edge">
<title>Node1&#45;&gt;Node2</title>
<g id="a_edge1_Node000001_Node000002"><a xlink:title=" ">
<path fill="none" stroke="#63b8ff" d="M227.92,-118.32C186.35,-107.01 122.98,-89.77 85.3,-79.52"/>
<polygon fill="#63b8ff" stroke="#63b8ff" points="227.17,-121.75 237.74,-120.99 229.01,-114.99 227.17,-121.75"/>
</a>
</g>
</g>
<!-- Node4 -->
<g id="Node000004" class="node">
<title>Node4</title>
<g id="a_Node000004"><a xlink:href="audio__region__operations__box_8h.html" target="_top" xlink:title=" ">
<polygon fill="white" stroke="#666666" points="263.5,-85 126.5,-85 126.5,-55 263.5,-55 263.5,-85"/>
<text text-anchor="start" x="134.5" y="-73" font-family="Helvetica,sans-Serif" font-size="10.00">audio_region_operations</text>
<text text-anchor="middle" x="195" y="-62" font-family="Helvetica,sans-Serif" font-size="10.00">_box.h</text>
</a>
</g>
</g>
<!-- Node1&#45;&gt;Node4 -->
<g id="edge3_Node000001_Node000004" class="edge">
<title>Node1&#45;&gt;Node4</title>
<g id="a_edge3_Node000001_Node000004"><a xlink:title=" ">
<path fill="none" stroke="#63b8ff" d="M250.03,-114.5C238.58,-105.45 224.09,-94 212.85,-85.11"/>
<polygon fill="#63b8ff" stroke="#63b8ff" points="248.07,-117.41 258.08,-120.87 252.41,-111.92 248.07,-117.41"/>
</a>
</g>
</g>
<!-- Node5 -->
<g id="Node000005" class="node">
<title>Node5</title>
<g id="a_Node000005"><a xlink:href="slot__properties__box_8h.html" target="_top" xlink:title=" ">
<polygon fill="white" stroke="#666666" points="404,-79.5 282,-79.5 282,-60.5 404,-60.5 404,-79.5"/>
<text text-anchor="middle" x="343" y="-67.5" font-family="Helvetica,sans-Serif" font-size="10.00">slot_properties_box.h</text>
</a>
</g>
</g>
<!-- Node1&#45;&gt;Node5 -->
<g id="edge5_Node000001_Node000005" class="edge">
<title>Node1&#45;&gt;Node5</title>
<g id="a_edge5_Node000001_Node000005"><a xlink:title=" ">
<path fill="none" stroke="#63b8ff" d="M287.93,-114.54C301.9,-103.49 320.43,-88.84 332.04,-79.67"/>
<polygon fill="#63b8ff" stroke="#63b8ff" points="285.59,-111.92 279.92,-120.87 289.93,-117.41 285.59,-111.92"/>
</a>
</g>
</g>
<!-- Node6 -->
<g id="Node000006" class="node">
<title>Node6</title>
<g id="a_Node000006"><a xlink:href="time__info__box_8h.html" target="_top" xlink:title=" ">
<polygon fill="white" stroke="#666666" points="517.5,-79.5 422.5,-79.5 422.5,-60.5 517.5,-60.5 517.5,-79.5"/>
<text text-anchor="middle" x="470" y="-67.5" font-family="Helvetica,sans-Serif" font-size="10.00">time_info_box.h</text>
</a>
</g>
</g>
<!-- Node1&#45;&gt;Node6 -->
<g id="edge6_Node000001_Node000006" class="edge">
<title>Node1&#45;&gt;Node6</title>
<g id="a_edge6_Node000001_Node000006"><a xlink:title=" ">
<path fill="none" stroke="#63b8ff" d="M308.14,-118.11C347.02,-106.79 405.74,-89.7 440.74,-79.52"/>
<polygon fill="#63b8ff" stroke="#63b8ff" points="306.85,-114.84 298.23,-120.99 308.81,-121.56 306.85,-114.84"/>
</a>
</g>
</g>
<!-- Node3 -->
<g id="Node000003" class="node">
<title>Node3</title>
<g id="a_Node000003"><a xlink:href="trigger__page_8h.html" target="_top" xlink:title=" ">
<polygon fill="white" stroke="#666666" points="167.5,-19 80.5,-19 80.5,0 167.5,0 167.5,-19"/>
<text text-anchor="middle" x="124" y="-7" font-family="Helvetica,sans-Serif" font-size="10.00">trigger_page.h</text>
</a>
</g>
</g>
<!-- Node2&#45;&gt;Node3 -->
<g id="edge2_Node000002_Node000003" class="edge">
<title>Node2&#45;&gt;Node3</title>
<g id="a_edge2_Node000002_Node000003"><a xlink:title=" ">
<path fill="none" stroke="#63b8ff" d="M72.28,-53.72C85.45,-42.71 102.76,-28.25 113.63,-19.17"/>
<polygon fill="#63b8ff" stroke="#63b8ff" points="69.76,-51.27 64.33,-60.37 74.25,-56.64 69.76,-51.27"/>
</a>
</g>
</g>
<!-- Node4&#45;&gt;Node3 -->
<g id="edge4_Node000004_Node000003" class="edge">
<title>Node4&#45;&gt;Node3</title>
<g id="a_edge4_Node000004_Node000003"><a xlink:title=" ">
<path fill="none" stroke="#63b8ff" d="M169.81,-48.24C157.73,-38.29 143.91,-26.91 134.64,-19.27"/>
<polygon fill="#63b8ff" stroke="#63b8ff" points="167.87,-51.18 177.81,-54.84 172.32,-45.78 167.87,-51.18"/>
</a>
</g>
</g>
</g>
</svg>
