<?xml version="1.0" encoding="UTF-8" standalone="no"?>
<!DOCTYPE svg PUBLIC "-//W3C//DTD SVG 1.1//EN"
 "http://www.w3.org/Graphics/SVG/1.1/DTD/svg11.dtd">
<!-- Generated by graphviz version 2.43.0 (0)
 -->
<!-- Title: cartesian.h Pages: 1 -->
<svg width="922pt" height="247pt"
 viewBox="0.00 0.00 921.50 247.00" xmlns="http://www.w3.org/2000/svg" xmlns:xlink="http://www.w3.org/1999/xlink">
<g id="graph0" class="graph" transform="scale(1 1) rotate(0) translate(4 243)">
<title>cartesian.h</title>
<!-- Node1 -->
<g id="Node000001" class="node">
<title>Node1</title>
<g id="a_Node000001"><a xlink:title=" ">
<polygon fill="#999999" stroke="#666666" points="546,-239 475,-239 475,-220 546,-220 546,-239"/>
<text text-anchor="middle" x="510.5" y="-227" font-family="Helvetica,sans-Serif" font-size="10.00">cartesian.h</text>
</a>
</g>
</g>
<!-- Node2 -->
<g id="Node000002" class="node">
<title>Node2</title>
<g id="a_Node000002"><a xlink:href="panner_8h.html" target="_top" xlink:title=" ">
<polygon fill="white" stroke="#666666" points="442,-184 383,-184 383,-165 442,-165 442,-184"/>
<text text-anchor="middle" x="412.5" y="-172" font-family="Helvetica,sans-Serif" font-size="10.00">panner.h</text>
</a>
</g>
</g>
<!-- Node1&#45;&gt;Node2 -->
<g id="edge1_Node000001_Node000002" class="edge">
<title>Node1&#45;&gt;Node2</title>
<g id="a_edge1_Node000001_Node000002"><a xlink:title=" ">
<path fill="none" stroke="#63b8ff" d="M485.47,-214.97C467.56,-205.28 443.97,-192.52 428.53,-184.17"/>
<polygon fill="#63b8ff" stroke="#63b8ff" points="484.29,-218.31 494.75,-219.98 487.62,-212.15 484.29,-218.31"/>
</a>
</g>
</g>
<!-- Node3 -->
<g id="Node000003" class="node">
<title>Node3</title>
<g id="a_Node000003"><a xlink:href="panner__1in2out_8h.html" target="_top" xlink:title=" ">
<polygon fill="white" stroke="#666666" points="101,-129 0,-129 0,-110 101,-110 101,-129"/>
<text text-anchor="middle" x="50.5" y="-117" font-family="Helvetica,sans-Serif" font-size="10.00">panner_1in2out.h</text>
</a>
</g>
</g>
<!-- Node1&#45;&gt;Node3 -->
<g id="edge10_Node000001_Node000003" class="edge">
<title>Node1&#45;&gt;Node3</title>
<g id="a_edge10_Node000001_Node000003"><a xlink:title=" ">
<path fill="none" stroke="#63b8ff" d="M464.8,-220.48C419,-212.21 346.59,-198.52 284.5,-184 210.11,-166.6 123.58,-141.96 79.52,-129.08"/>
<polygon fill="#63b8ff" stroke="#63b8ff" points="464.25,-223.94 474.71,-222.26 465.49,-217.05 464.25,-223.94"/>
</a>
</g>
</g>
<!-- Node4 -->
<g id="Node000004" class="node">
<title>Node4</title>
<g id="a_Node000004"><a xlink:href="panner__2in2out_8h.html" target="_top" xlink:title=" ">
<polygon fill="white" stroke="#666666" points="220,-129 119,-129 119,-110 220,-110 220,-129"/>
<text text-anchor="middle" x="169.5" y="-117" font-family="Helvetica,sans-Serif" font-size="10.00">panner_2in2out.h</text>
</a>
</g>
</g>
<!-- Node1&#45;&gt;Node4 -->
<g id="edge11_Node000001_Node000004" class="edge">
<title>Node1&#45;&gt;Node4</title>
<g id="a_edge11_Node000001_Node000004"><a xlink:title=" ">
<path fill="none" stroke="#63b8ff" d="M464.94,-217.88C430.51,-209.54 382.2,-197.17 340.5,-184 285.54,-166.65 222.3,-141.87 190.33,-129"/>
<polygon fill="#63b8ff" stroke="#63b8ff" points="464.17,-221.3 474.72,-220.23 465.81,-214.49 464.17,-221.3"/>
</a>
</g>
</g>
<!-- Node5 -->
<g id="Node000005" class="node">
<title>Node5</title>
<g id="a_Node000005"><a xlink:href="panner__balance_8h.html" target="_top" xlink:title=" ">
<polygon fill="white" stroke="#666666" points="341,-129 238,-129 238,-110 341,-110 341,-129"/>
<text text-anchor="middle" x="289.5" y="-117" font-family="Helvetica,sans-Serif" font-size="10.00">panner_balance.h</text>
</a>
</g>
</g>
<!-- Node1&#45;&gt;Node5 -->
<g id="edge12_Node000001_Node000005" class="edge">
<title>Node1&#45;&gt;Node5</title>
<g id="a_edge12_Node000001_Node000005"><a xlink:title=" ">
<path fill="none" stroke="#63b8ff" d="M465.14,-217.85C437.7,-210.43 402.53,-199.14 373.5,-184 343.67,-168.45 313.33,-142.45 298.62,-129.05"/>
<polygon fill="#63b8ff" stroke="#63b8ff" points="464.31,-221.25 474.87,-220.41 466.09,-214.48 464.31,-221.25"/>
</a>
</g>
</g>
<!-- Node7 -->
<g id="Node000007" class="node">
<title>Node7</title>
<g id="a_Node000007"><a xlink:href="vbap_8h.html" target="_top" xlink:title=" ">
<polygon fill="white" stroke="#666666" points="595.5,-19 545.5,-19 545.5,0 595.5,0 595.5,-19"/>
<text text-anchor="middle" x="570.5" y="-7" font-family="Helvetica,sans-Serif" font-size="10.00">vbap.h</text>
</a>
</g>
</g>
<!-- Node1&#45;&gt;Node7 -->
<g id="edge20_Node000001_Node000007" class="edge">
<title>Node1&#45;&gt;Node7</title>
<g id="a_edge20_Node000001_Node000007"><a xlink:title=" ">
<path fill="none" stroke="#63b8ff" d="M523,-211.25C542.01,-183.81 577.39,-127.82 590.5,-74 595.37,-54.01 583.8,-31.12 576.29,-19.03"/>
<polygon fill="#63b8ff" stroke="#63b8ff" points="519.93,-209.52 517.02,-219.71 525.65,-213.56 519.93,-209.52"/>
</a>
</g>
</g>
<!-- Node9 -->
<g id="Node000009" class="node">
<title>Node9</title>
<g id="a_Node000009"><a xlink:href="panner2d_8h.html" target="_top" xlink:title=" ">
<polygon fill="white" stroke="#666666" points="898,-184 827,-184 827,-165 898,-165 898,-184"/>
<text text-anchor="middle" x="862.5" y="-172" font-family="Helvetica,sans-Serif" font-size="10.00">panner2d.h</text>
</a>
</g>
</g>
<!-- Node1&#45;&gt;Node9 -->
<g id="edge9_Node000001_Node000009" class="edge">
<title>Node1&#45;&gt;Node9</title>
<g id="a_edge9_Node000001_Node000009"><a xlink:title=" ">
<path fill="none" stroke="#63b8ff" d="M556.31,-222.48C616.4,-214.45 725.04,-199.43 817.5,-184 820.48,-183.5 823.57,-182.97 826.66,-182.41"/>
<polygon fill="#63b8ff" stroke="#63b8ff" points="555.48,-219.06 546.03,-223.85 556.41,-226 555.48,-219.06"/>
</a>
</g>
</g>
<!-- Node10 -->
<g id="Node000010" class="node">
<title>Node10</title>
<g id="a_Node000010"><a xlink:href="panner__shell_8h.html" target="_top" xlink:title=" ">
<polygon fill="white" stroke="#666666" points="808.5,-184 720.5,-184 720.5,-165 808.5,-165 808.5,-184"/>
<text text-anchor="middle" x="764.5" y="-172" font-family="Helvetica,sans-Serif" font-size="10.00">panner_shell.h</text>
</a>
</g>
</g>
<!-- Node1&#45;&gt;Node10 -->
<g id="edge13_Node000001_Node000010" class="edge">
<title>Node1&#45;&gt;Node10</title>
<g id="a_edge13_Node000001_Node000010"><a xlink:title=" ">
<path fill="none" stroke="#63b8ff" d="M556.13,-218.98C603.81,-209.03 677.91,-193.57 723.7,-184.01"/>
<polygon fill="#63b8ff" stroke="#63b8ff" points="555.16,-215.61 546.09,-221.07 556.59,-222.46 555.16,-215.61"/>
</a>
</g>
</g>
<!-- Node12 -->
<g id="Node000012" class="node">
<title>Node12</title>
<g id="a_Node000012"><a xlink:href="speaker_8h.html" target="_top" xlink:title=" ">
<polygon fill="white" stroke="#666666" points="702,-184 639,-184 639,-165 702,-165 702,-184"/>
<text text-anchor="middle" x="670.5" y="-172" font-family="Helvetica,sans-Serif" font-size="10.00">speaker.h</text>
</a>
</g>
</g>
<!-- Node1&#45;&gt;Node12 -->
<g id="edge16_Node000001_Node000012" class="edge">
<title>Node1&#45;&gt;Node12</title>
<g id="a_edge16_Node000001_Node000012"><a xlink:title=" ">
<path fill="none" stroke="#63b8ff" d="M545.83,-216.8C575.69,-206.91 617.77,-192.97 644.59,-184.08"/>
<polygon fill="#63b8ff" stroke="#63b8ff" points="544.6,-213.52 536.21,-219.98 546.8,-220.16 544.6,-213.52"/>
</a>
</g>
</g>
<!-- Node2&#45;&gt;Node3 -->
<g id="edge2_Node000002_Node000003" class="edge">
<title>Node2&#45;&gt;Node3</title>
<g id="a_edge2_Node000002_Node000003"><a xlink:title=" ">
<path fill="none" stroke="#63b8ff" d="M372.85,-167.69C306.69,-158.01 173.89,-138.57 101.09,-127.91"/>
<polygon fill="#63b8ff" stroke="#63b8ff" points="372.47,-171.18 382.88,-169.16 373.49,-164.25 372.47,-171.18"/>
</a>
</g>
</g>
<!-- Node2&#45;&gt;Node4 -->
<g id="edge3_Node000002_Node000004" class="edge">
<title>Node2&#45;&gt;Node4</title>
<g id="a_edge3_Node000002_Node000004"><a xlink:title=" ">
<path fill="none" stroke="#63b8ff" d="M372.66,-164.81C327.36,-154.93 253.87,-138.9 208.8,-129.07"/>
<polygon fill="#63b8ff" stroke="#63b8ff" points="372.19,-168.29 382.7,-167 373.68,-161.45 372.19,-168.29"/>
</a>
</g>
</g>
<!-- Node2&#45;&gt;Node5 -->
<g id="edge4_Node000002_Node000005" class="edge">
<title>Node2&#45;&gt;Node5</title>
<g id="a_edge4_Node000002_Node000005"><a xlink:title=" ">
<path fill="none" stroke="#63b8ff" d="M383.25,-160.9C360.53,-151.11 329.63,-137.79 309.62,-129.17"/>
<polygon fill="#63b8ff" stroke="#63b8ff" points="382.17,-164.24 392.74,-164.98 384.94,-157.81 382.17,-164.24"/>
</a>
</g>
</g>
<!-- Node6 -->
<g id="Node000006" class="node">
<title>Node6</title>
<g id="a_Node000006"><a xlink:href="panner__manager_8h.html" target="_top" xlink:title=" ">
<polygon fill="white" stroke="#666666" points="466,-129 359,-129 359,-110 466,-110 466,-129"/>
<text text-anchor="middle" x="412.5" y="-117" font-family="Helvetica,sans-Serif" font-size="10.00">panner_manager.h</text>
</a>
</g>
</g>
<!-- Node2&#45;&gt;Node6 -->
<g id="edge5_Node000002_Node000006" class="edge">
<title>Node2&#45;&gt;Node6</title>
<g id="a_edge5_Node000002_Node000006"><a xlink:title=" ">
<path fill="none" stroke="#63b8ff" d="M412.5,-154.66C412.5,-145.93 412.5,-135.99 412.5,-129.09"/>
<polygon fill="#63b8ff" stroke="#63b8ff" points="409,-154.75 412.5,-164.75 416,-154.75 409,-154.75"/>
</a>
</g>
</g>
<!-- Node2&#45;&gt;Node7 -->
<g id="edge6_Node000002_Node000007" class="edge">
<title>Node2&#45;&gt;Node7</title>
<g id="a_edge6_Node000002_Node000007"><a xlink:title=" ">
<path fill="none" stroke="#63b8ff" d="M441.85,-160.22C454.31,-152.93 467.54,-142.56 474.5,-129 489.52,-99.74 456.8,-82.72 474.5,-55 490.02,-30.69 522.61,-19.46 545.5,-14.41"/>
<polygon fill="#63b8ff" stroke="#63b8ff" points="440.15,-157.16 433.02,-165 443.48,-163.32 440.15,-157.16"/>
</a>
</g>
</g>
<!-- Node8 -->
<g id="Node000008" class="node">
<title>Node8</title>
<g id="a_Node000008"><a xlink:href="vbap__speakers_8h.html" target="_top" xlink:title=" ">
<polygon fill="white" stroke="#666666" points="581.5,-74 483.5,-74 483.5,-55 581.5,-55 581.5,-74"/>
<text text-anchor="middle" x="532.5" y="-62" font-family="Helvetica,sans-Serif" font-size="10.00">vbap_speakers.h</text>
</a>
</g>
</g>
<!-- Node2&#45;&gt;Node8 -->
<g id="edge7_Node000002_Node000008" class="edge">
<title>Node2&#45;&gt;Node8</title>
<g id="a_edge7_Node000002_Node000008"><a xlink:title=" ">
<path fill="none" stroke="#63b8ff" d="M451.58,-163.09C470.91,-156.2 493.3,-145.34 508.5,-129 523.11,-113.29 529.07,-87.82 531.3,-74.41"/>
<polygon fill="#63b8ff" stroke="#63b8ff" points="450.47,-159.77 442.09,-166.25 452.68,-166.41 450.47,-159.77"/>
</a>
</g>
</g>
<!-- Node8&#45;&gt;Node7 -->
<g id="edge8_Node000008_Node000007" class="edge">
<title>Node8&#45;&gt;Node7</title>
<g id="a_edge8_Node000008_Node000007"><a xlink:title=" ">
<path fill="none" stroke="#63b8ff" d="M544.77,-46.39C551.31,-37.27 559.07,-26.45 564.34,-19.09"/>
<polygon fill="#63b8ff" stroke="#63b8ff" points="541.76,-44.58 538.77,-54.75 547.45,-48.66 541.76,-44.58"/>
</a>
</g>
</g>
<!-- Node10&#45;&gt;Node7 -->
<g id="edge15_Node000010_Node000007" class="edge">
<title>Node10&#45;&gt;Node7</title>
<g id="a_edge15_Node000010_Node000007"><a xlink:title=" ">
<path fill="none" stroke="#63b8ff" d="M767.26,-154.7C769.93,-128.82 770.48,-82.33 745.5,-55 725.46,-33.07 639.2,-19.22 595.73,-13.51"/>
<polygon fill="#63b8ff" stroke="#63b8ff" points="763.78,-154.35 766.02,-164.7 770.73,-155.21 763.78,-154.35"/>
</a>
</g>
</g>
<!-- Node11 -->
<g id="Node000011" class="node">
<title>Node11</title>
<g id="a_Node000011"><a xlink:href="osc__route__observer_8h.html" target="_top" xlink:title=" ">
<polygon fill="white" stroke="#666666" points="913.5,-129 793.5,-129 793.5,-110 913.5,-110 913.5,-129"/>
<text text-anchor="middle" x="853.5" y="-117" font-family="Helvetica,sans-Serif" font-size="10.00">osc_route_observer.h</text>
</a>
</g>
</g>
<!-- Node10&#45;&gt;Node11 -->
<g id="edge14_Node000010_Node000011" class="edge">
<title>Node10&#45;&gt;Node11</title>
<g id="a_edge14_Node000010_Node000011"><a xlink:title=" ">
<path fill="none" stroke="#63b8ff" d="M787.68,-159.7C803.89,-150.04 825.05,-137.44 838.94,-129.17"/>
<polygon fill="#63b8ff" stroke="#63b8ff" points="785.6,-156.86 778.8,-164.98 789.18,-162.88 785.6,-156.86"/>
</a>
</g>
</g>
<!-- Node13 -->
<g id="Node000013" class="node">
<title>Node13</title>
<g id="a_Node000013"><a xlink:href="speakers_8h.html" target="_top" xlink:title=" ">
<polygon fill="white" stroke="#666666" points="707,-129 638,-129 638,-110 707,-110 707,-129"/>
<text text-anchor="middle" x="672.5" y="-117" font-family="Helvetica,sans-Serif" font-size="10.00">speakers.h</text>
</a>
</g>
</g>
<!-- Node12&#45;&gt;Node13 -->
<g id="edge17_Node000012_Node000013" class="edge">
<title>Node12&#45;&gt;Node13</title>
<g id="a_edge17_Node000012_Node000013"><a xlink:title=" ">
<path fill="none" stroke="#63b8ff" d="M671.21,-154.66C671.54,-145.93 671.92,-135.99 672.18,-129.09"/>
<polygon fill="#63b8ff" stroke="#63b8ff" points="667.71,-154.62 670.83,-164.75 674.7,-154.89 667.71,-154.62"/>
</a>
</g>
</g>
<!-- Node13&#45;&gt;Node8 -->
<g id="edge19_Node000013_Node000008" class="edge">
<title>Node13&#45;&gt;Node8</title>
<g id="a_edge19_Node000013_Node000008"><a xlink:title=" ">
<path fill="none" stroke="#63b8ff" d="M640.59,-106.42C614.62,-96.59 578.58,-82.95 555.4,-74.17"/>
<polygon fill="#63b8ff" stroke="#63b8ff" points="639.42,-109.72 650.01,-109.98 641.89,-103.17 639.42,-109.72"/>
</a>
</g>
</g>
<!-- Node14 -->
<g id="Node000014" class="node">
<title>Node14</title>
<g id="a_Node000014"><a xlink:href="speaker__dialog_8h.html" target="_top" xlink:title=" ">
<polygon fill="white" stroke="#666666" points="737,-74 638,-74 638,-55 737,-55 737,-74"/>
<text text-anchor="middle" x="687.5" y="-62" font-family="Helvetica,sans-Serif" font-size="10.00">speaker_dialog.h</text>
</a>
</g>
</g>
<!-- Node13&#45;&gt;Node14 -->
<g id="edge18_Node000013_Node000014" class="edge">
<title>Node13&#45;&gt;Node14</title>
<g id="a_edge18_Node000013_Node000014"><a xlink:title=" ">
<path fill="none" stroke="#63b8ff" d="M677.75,-99.95C680.24,-91.15 683.1,-81.06 685.07,-74.09"/>
<polygon fill="#63b8ff" stroke="#63b8ff" points="674.33,-99.17 674.98,-109.75 681.07,-101.08 674.33,-99.17"/>
</a>
</g>
</g>
</g>
</svg>
