<?xml version="1.0" encoding="UTF-8" standalone="no"?>
<!DOCTYPE svg PUBLIC "-//W3C//DTD SVG 1.1//EN"
 "http://www.w3.org/Graphics/SVG/1.1/DTD/svg11.dtd">
<!-- Generated by graphviz version 2.43.0 (0)
 -->
<!-- Title: cellrenderer_p.h Pages: 1 -->
<svg width="716pt" height="137pt"
 viewBox="0.00 0.00 716.00 137.00" xmlns="http://www.w3.org/2000/svg" xmlns:xlink="http://www.w3.org/1999/xlink">
<g id="graph0" class="graph" transform="scale(1 1) rotate(0) translate(4 133)">
<title>cellrenderer_p.h</title>
<!-- Node1 -->
<g id="Node000001" class="node">
<title>Node1</title>
<g id="a_Node000001"><a xlink:title=" ">
<polygon fill="#999999" stroke="#666666" points="412.5,-129 317.5,-129 317.5,-110 412.5,-110 412.5,-129"/>
<text text-anchor="middle" x="365" y="-117" font-family="Helvetica,sans-Serif" font-size="10.00">cellrenderer_p.h</text>
</a>
</g>
</g>
<!-- Node2 -->
<g id="Node000002" class="node">
<title>Node2</title>
<g id="a_Node000002"><a xlink:href="cellrendererpixbuf__p_8h.html" target="_top" xlink:title=" ">
<polygon fill="white" stroke="#666666" points="126,-74 0,-74 0,-55 126,-55 126,-74"/>
<text text-anchor="middle" x="63" y="-62" font-family="Helvetica,sans-Serif" font-size="10.00">cellrendererpixbuf_p.h</text>
</a>
</g>
</g>
<!-- Node1&#45;&gt;Node2 -->
<g id="edge1_Node000001_Node000002" class="edge">
<title>Node1&#45;&gt;Node2</title>
<g id="a_edge1_Node000001_Node000002"><a xlink:title=" ">
<path fill="none" stroke="#63b8ff" d="M307.58,-108.42C250.82,-98.46 164.93,-83.39 111.49,-74.01"/>
<polygon fill="#63b8ff" stroke="#63b8ff" points="307.03,-111.88 317.48,-110.16 308.24,-104.98 307.03,-111.88"/>
</a>
</g>
</g>
<!-- Node3 -->
<g id="Node000003" class="node">
<title>Node3</title>
<g id="a_Node000003"><a xlink:href="cellrendererprogress__p_8h.html" target="_top" xlink:title=" ">
<polygon fill="white" stroke="#666666" points="281.5,-74 144.5,-74 144.5,-55 281.5,-55 281.5,-74"/>
<text text-anchor="middle" x="213" y="-62" font-family="Helvetica,sans-Serif" font-size="10.00">cellrendererprogress_p.h</text>
</a>
</g>
</g>
<!-- Node1&#45;&gt;Node3 -->
<g id="edge2_Node000001_Node000003" class="edge">
<title>Node1&#45;&gt;Node3</title>
<g id="a_edge2_Node000001_Node000003"><a xlink:title=" ">
<path fill="none" stroke="#63b8ff" d="M331.07,-106.67C302.73,-96.79 262.98,-82.93 237.61,-74.08"/>
<polygon fill="#63b8ff" stroke="#63b8ff" points="329.98,-110 340.58,-109.98 332.29,-103.39 329.98,-110"/>
</a>
</g>
</g>
<!-- Node4 -->
<g id="Node000004" class="node">
<title>Node4</title>
<g id="a_Node000004"><a xlink:href="cellrendererspinner__p_8h.html" target="_top" xlink:title=" ">
<polygon fill="white" stroke="#666666" points="430.5,-74 299.5,-74 299.5,-55 430.5,-55 430.5,-74"/>
<text text-anchor="middle" x="365" y="-62" font-family="Helvetica,sans-Serif" font-size="10.00">cellrendererspinner_p.h</text>
</a>
</g>
</g>
<!-- Node1&#45;&gt;Node4 -->
<g id="edge3_Node000001_Node000004" class="edge">
<title>Node1&#45;&gt;Node4</title>
<g id="a_edge3_Node000001_Node000004"><a xlink:title=" ">
<path fill="none" stroke="#63b8ff" d="M365,-99.66C365,-90.93 365,-80.99 365,-74.09"/>
<polygon fill="#63b8ff" stroke="#63b8ff" points="361.5,-99.75 365,-109.75 368.5,-99.75 361.5,-99.75"/>
</a>
</g>
</g>
<!-- Node5 -->
<g id="Node000005" class="node">
<title>Node5</title>
<g id="a_Node000005"><a xlink:href="cellrenderertext__p_8h.html" target="_top" xlink:title=" ">
<polygon fill="white" stroke="#666666" points="563.5,-74 448.5,-74 448.5,-55 563.5,-55 563.5,-74"/>
<text text-anchor="middle" x="506" y="-62" font-family="Helvetica,sans-Serif" font-size="10.00">cellrenderertext_p.h</text>
</a>
</g>
</g>
<!-- Node1&#45;&gt;Node5 -->
<g id="edge4_Node000001_Node000005" class="edge">
<title>Node1&#45;&gt;Node5</title>
<g id="a_edge4_Node000001_Node000005"><a xlink:title=" ">
<path fill="none" stroke="#63b8ff" d="M397.14,-106.42C423.29,-96.59 459.59,-82.95 482.93,-74.17"/>
<polygon fill="#63b8ff" stroke="#63b8ff" points="395.78,-103.19 387.65,-109.98 398.25,-109.74 395.78,-103.19"/>
</a>
</g>
</g>
<!-- Node9 -->
<g id="Node000009" class="node">
<title>Node9</title>
<g id="a_Node000009"><a xlink:href="cellrenderertoggle__p_8h.html" target="_top" xlink:title=" ">
<polygon fill="white" stroke="#666666" points="708,-74 582,-74 582,-55 708,-55 708,-74"/>
<text text-anchor="middle" x="645" y="-62" font-family="Helvetica,sans-Serif" font-size="10.00">cellrenderertoggle_p.h</text>
</a>
</g>
</g>
<!-- Node1&#45;&gt;Node9 -->
<g id="edge8_Node000001_Node000009" class="edge">
<title>Node1&#45;&gt;Node9</title>
<g id="a_edge8_Node000001_Node000009"><a xlink:title=" ">
<path fill="none" stroke="#63b8ff" d="M420.13,-108.07C472.62,-98.13 550.68,-83.35 599.66,-74.08"/>
<polygon fill="#63b8ff" stroke="#63b8ff" points="419.16,-104.69 409.99,-109.98 420.46,-111.56 419.16,-104.69"/>
</a>
</g>
</g>
<!-- Node6 -->
<g id="Node000006" class="node">
<title>Node6</title>
<g id="a_Node000006"><a xlink:href="cellrendereraccel__p_8h.html" target="_top" xlink:title=" ">
<polygon fill="white" stroke="#666666" points="423.5,-19 302.5,-19 302.5,0 423.5,0 423.5,-19"/>
<text text-anchor="middle" x="363" y="-7" font-family="Helvetica,sans-Serif" font-size="10.00">cellrendereraccel_p.h</text>
</a>
</g>
</g>
<!-- Node5&#45;&gt;Node6 -->
<g id="edge5_Node000005_Node000006" class="edge">
<title>Node5&#45;&gt;Node6</title>
<g id="a_edge5_Node000005_Node000006"><a xlink:title=" ">
<path fill="none" stroke="#63b8ff" d="M473.41,-51.42C446.88,-41.59 410.07,-27.95 386.39,-19.17"/>
<polygon fill="#63b8ff" stroke="#63b8ff" points="472.43,-54.79 483.02,-54.98 474.86,-48.23 472.43,-54.79"/>
</a>
</g>
</g>
<!-- Node7 -->
<g id="Node000007" class="node">
<title>Node7</title>
<g id="a_Node000007"><a xlink:href="cellrenderercombo__p_8h.html" target="_top" xlink:title=" ">
<polygon fill="white" stroke="#666666" points="570,-19 442,-19 442,0 570,0 570,-19"/>
<text text-anchor="middle" x="506" y="-7" font-family="Helvetica,sans-Serif" font-size="10.00">cellrenderercombo_p.h</text>
</a>
</g>
</g>
<!-- Node5&#45;&gt;Node7 -->
<g id="edge6_Node000005_Node000007" class="edge">
<title>Node5&#45;&gt;Node7</title>
<g id="a_edge6_Node000005_Node000007"><a xlink:title=" ">
<path fill="none" stroke="#63b8ff" d="M506,-44.66C506,-35.93 506,-25.99 506,-19.09"/>
<polygon fill="#63b8ff" stroke="#63b8ff" points="502.5,-44.75 506,-54.75 509.5,-44.75 502.5,-44.75"/>
</a>
</g>
</g>
<!-- Node8 -->
<g id="Node000008" class="node">
<title>Node8</title>
<g id="a_Node000008"><a xlink:href="cellrendererspin__p_8h.html" target="_top" xlink:title=" ">
<polygon fill="white" stroke="#666666" points="704,-19 588,-19 588,0 704,0 704,-19"/>
<text text-anchor="middle" x="646" y="-7" font-family="Helvetica,sans-Serif" font-size="10.00">cellrendererspin_p.h</text>
</a>
</g>
</g>
<!-- Node5&#45;&gt;Node8 -->
<g id="edge7_Node000005_Node000008" class="edge">
<title>Node5&#45;&gt;Node8</title>
<g id="a_edge7_Node000005_Node000008"><a xlink:title=" ">
<path fill="none" stroke="#63b8ff" d="M537.91,-51.42C563.88,-41.59 599.92,-27.95 623.1,-19.17"/>
<polygon fill="#63b8ff" stroke="#63b8ff" points="536.61,-48.17 528.49,-54.98 539.08,-54.72 536.61,-48.17"/>
</a>
</g>
</g>
</g>
</svg>
