<?xml version="1.0" encoding="UTF-8" standalone="no"?>
<!DOCTYPE svg PUBLIC "-//W3C//DTD SVG 1.1//EN"
 "http://www.w3.org/Graphics/SVG/1.1/DTD/svg11.dtd">
<!-- Generated by graphviz version 2.43.0 (0)
 -->
<!-- Title: chunker.h Pages: 1 -->
<svg width="1399pt" height="478pt"
 viewBox="0.00 0.00 1398.50 478.00" xmlns="http://www.w3.org/2000/svg" xmlns:xlink="http://www.w3.org/1999/xlink">
<g id="graph0" class="graph" transform="scale(1 1) rotate(0) translate(4 474)">
<title>chunker.h</title>
<!-- Node1 -->
<g id="Node000001" class="node">
<title>Node1</title>
<g id="a_Node000001"><a xlink:title=" ">
<polygon fill="#999999" stroke="#666666" points="920.5,-470 857.5,-470 857.5,-451 920.5,-451 920.5,-470"/>
<text text-anchor="middle" x="889" y="-458" font-family="Helvetica,sans-Serif" font-size="10.00">chunker.h</text>
</a>
</g>
</g>
<!-- Node2 -->
<g id="Node000002" class="node">
<title>Node2</title>
<g id="a_Node000002"><a xlink:href="audiographer_2audiographer_2visibility_8h.html" target="_top" xlink:title=" ">
<polygon fill="white" stroke="#666666" points="795,-19 661,-19 661,0 795,0 795,-19"/>
<text text-anchor="middle" x="728" y="-7" font-family="Helvetica,sans-Serif" font-size="10.00">audiographer/visibility.h</text>
</a>
</g>
</g>
<!-- Node1&#45;&gt;Node2 -->
<g id="edge1_Node000001_Node000002" class="edge">
<title>Node1&#45;&gt;Node2</title>
<g id="a_edge1_Node000001_Node000002"><a xlink:title=" ">
<path fill="none" stroke="#63b8ff" d="M857.36,-458.67C698.99,-454.09 0,-428.87 0,-340.5 0,-340.5 0,-340.5 0,-118.5 0,-79.98 24.22,-71.56 59,-55 111.25,-30.13 485.92,-17.05 650.64,-12.45"/>
<polygon fill="#63b8ff" stroke="#63b8ff" points="650.81,-15.94 660.71,-12.17 650.62,-8.95 650.81,-15.94"/>
</a>
</g>
</g>
<!-- Node3 -->
<g id="Node000003" class="node">
<title>Node3</title>
<g id="a_Node000003"><a xlink:href="flag__debuggable_8h.html" target="_top" xlink:title=" ">
<polygon fill="white" stroke="#666666" points="423.5,-294 250.5,-294 250.5,-275 423.5,-275 423.5,-294"/>
<text text-anchor="middle" x="337" y="-282" font-family="Helvetica,sans-Serif" font-size="10.00">audiographer/flag_debuggable.h</text>
</a>
</g>
</g>
<!-- Node1&#45;&gt;Node3 -->
<g id="edge2_Node000001_Node000003" class="edge">
<title>Node1&#45;&gt;Node3</title>
<g id="a_edge2_Node000001_Node000003"><a xlink:title=" ">
<path fill="none" stroke="#63b8ff" d="M862,-450.99C771.4,-422.43 478.07,-329.97 374.02,-297.17"/>
<polygon fill="#63b8ff" stroke="#63b8ff" points="374.86,-293.76 364.27,-294.1 372.76,-300.44 374.86,-293.76"/>
</a>
</g>
</g>
<!-- Node24 -->
<g id="Node000024" class="node">
<title>Node24</title>
<g id="a_Node000024"><a xlink:href="type__utils_8h.html" target="_top" xlink:title=" ">
<polygon fill="white" stroke="#666666" points="926,-184 852,-184 852,-165 926,-165 926,-184"/>
<text text-anchor="middle" x="889" y="-172" font-family="Helvetica,sans-Serif" font-size="10.00">type_utils.h</text>
</a>
</g>
</g>
<!-- Node1&#45;&gt;Node24 -->
<g id="edge49_Node000001_Node000024" class="edge">
<title>Node1&#45;&gt;Node24</title>
<g id="a_edge49_Node000001_Node000024"><a xlink:title=" ">
<path fill="none" stroke="#63b8ff" d="M889,-450.84C889,-431.21 889,-381.82 889,-340.5 889,-340.5 889,-340.5 889,-283.5 889,-252.19 889,-215.77 889,-194.23"/>
<polygon fill="#63b8ff" stroke="#63b8ff" points="892.5,-194.18 889,-184.18 885.5,-194.18 892.5,-194.18"/>
</a>
</g>
</g>
<!-- Node28 -->
<g id="Node000028" class="node">
<title>Node28</title>
<g id="a_Node000028"><a xlink:href="sink_8h.html" target="_top" xlink:title=" ">
<polygon fill="white" stroke="#666666" points="1103.5,-294 990.5,-294 990.5,-275 1103.5,-275 1103.5,-294"/>
<text text-anchor="middle" x="1047" y="-282" font-family="Helvetica,sans-Serif" font-size="10.00">audiographer/sink.h</text>
</a>
</g>
</g>
<!-- Node1&#45;&gt;Node28 -->
<g id="edge45_Node000001_Node000028" class="edge">
<title>Node1&#45;&gt;Node28</title>
<g id="a_edge45_Node000001_Node000028"><a xlink:title=" ">
<path fill="none" stroke="#63b8ff" d="M897.05,-450.63C922.2,-422.94 999.55,-337.75 1032.21,-301.79"/>
<polygon fill="#63b8ff" stroke="#63b8ff" points="1035.02,-303.9 1039.15,-294.14 1029.84,-299.19 1035.02,-303.9"/>
</a>
</g>
</g>
<!-- Node29 -->
<g id="Node000029" class="node">
<title>Node29</title>
<g id="a_Node000029"><a xlink:href="listed__source_8h.html" target="_top" xlink:title=" ">
<polygon fill="white" stroke="#666666" points="1251.5,-415 1146.5,-415 1146.5,-385 1251.5,-385 1251.5,-415"/>
<text text-anchor="start" x="1154.5" y="-403" font-family="Helvetica,sans-Serif" font-size="10.00">audiographer/utils</text>
<text text-anchor="middle" x="1199" y="-392" font-family="Helvetica,sans-Serif" font-size="10.00">/listed_source.h</text>
</a>
</g>
</g>
<!-- Node1&#45;&gt;Node29 -->
<g id="edge50_Node000001_Node000029" class="edge">
<title>Node1&#45;&gt;Node29</title>
<g id="a_edge50_Node000001_Node000029"><a xlink:title=" ">
<path fill="none" stroke="#63b8ff" d="M920.72,-453.51C971.25,-443.98 1070.99,-425.16 1136.31,-412.83"/>
<polygon fill="#63b8ff" stroke="#63b8ff" points="1137.31,-416.2 1146.49,-410.91 1136.01,-409.32 1137.31,-416.2"/>
</a>
</g>
</g>
<!-- Node3&#45;&gt;Node2 -->
<g id="edge3_Node000003_Node000002" class="edge">
<title>Node3&#45;&gt;Node2</title>
<g id="a_edge3_Node000003_Node000002"><a xlink:title=" ">
<path fill="none" stroke="#63b8ff" d="M250.38,-280.63C202.66,-275.91 143.79,-264.73 97,-239 63.24,-220.44 38,-214.02 38,-175.5 38,-175.5 38,-175.5 38,-118.5 38,-78.43 65.52,-71.57 102,-55 150.81,-32.84 494.54,-18.45 650.89,-12.98"/>
<polygon fill="#63b8ff" stroke="#63b8ff" points="651.04,-16.48 660.92,-12.64 650.8,-9.48 651.04,-16.48"/>
</a>
</g>
</g>
<!-- Node4 -->
<g id="Node000004" class="node">
<title>Node4</title>
<g id="a_Node000004"><a xlink:href="debuggable_8h.html" target="_top" xlink:title=" ">
<polygon fill="white" stroke="#666666" points="189.5,-239 106.5,-239 106.5,-220 189.5,-220 189.5,-239"/>
<text text-anchor="middle" x="148" y="-227" font-family="Helvetica,sans-Serif" font-size="10.00">debuggable.h</text>
</a>
</g>
</g>
<!-- Node3&#45;&gt;Node4 -->
<g id="edge4_Node000003_Node000004" class="edge">
<title>Node3&#45;&gt;Node4</title>
<g id="a_edge4_Node000003_Node000004"><a xlink:title=" ">
<path fill="none" stroke="#63b8ff" d="M306.63,-274.98C274.63,-266.01 224.04,-251.82 188.62,-241.89"/>
<polygon fill="#63b8ff" stroke="#63b8ff" points="189.18,-238.41 178.6,-239.08 187.29,-245.15 189.18,-238.41"/>
</a>
</g>
</g>
<!-- Node6 -->
<g id="Node000006" class="node">
<title>Node6</title>
<g id="a_Node000006"><a xlink:href="debug__utils_8h.html" target="_top" xlink:title=" ">
<polygon fill="white" stroke="#666666" points="283,-129 201,-129 201,-110 283,-110 283,-129"/>
<text text-anchor="middle" x="242" y="-117" font-family="Helvetica,sans-Serif" font-size="10.00">debug_utils.h</text>
</a>
</g>
</g>
<!-- Node3&#45;&gt;Node6 -->
<g id="edge7_Node000003_Node000006" class="edge">
<title>Node3&#45;&gt;Node6</title>
<g id="a_edge7_Node000003_Node000006"><a xlink:title=" ">
<path fill="none" stroke="#63b8ff" d="M330.85,-274.97C318.79,-258.06 291.54,-218.94 272,-184 263.64,-169.05 255.42,-151.39 249.71,-138.5"/>
<polygon fill="#63b8ff" stroke="#63b8ff" points="252.91,-137.09 245.71,-129.32 246.49,-139.88 252.91,-137.09"/>
</a>
</g>
</g>
<!-- Node14 -->
<g id="Node000014" class="node">
<title>Node14</title>
<g id="a_Node000014"><a xlink:href="process__context_8h.html" target="_top" xlink:title=" ">
<polygon fill="white" stroke="#666666" points="518.5,-239 413.5,-239 413.5,-220 518.5,-220 518.5,-239"/>
<text text-anchor="middle" x="466" y="-227" font-family="Helvetica,sans-Serif" font-size="10.00">process_context.h</text>
</a>
</g>
</g>
<!-- Node3&#45;&gt;Node14 -->
<g id="edge17_Node000003_Node000014" class="edge">
<title>Node3&#45;&gt;Node14</title>
<g id="a_edge17_Node000003_Node000014"><a xlink:title=" ">
<path fill="none" stroke="#63b8ff" d="M357.73,-274.98C378.76,-266.34 411.55,-252.87 435.54,-243.02"/>
<polygon fill="#63b8ff" stroke="#63b8ff" points="436.98,-246.21 444.9,-239.17 434.32,-239.73 436.98,-246.21"/>
</a>
</g>
</g>
<!-- Node22 -->
<g id="Node000022" class="node">
<title>Node22</title>
<g id="a_Node000022"><a xlink:href="audiographer_2audiographer_2types_8h.html" target="_top" xlink:title=" ">
<polygon fill="white" stroke="#666666" points="830.5,-129 777.5,-129 777.5,-110 830.5,-110 830.5,-129"/>
<text text-anchor="middle" x="804" y="-117" font-family="Helvetica,sans-Serif" font-size="10.00">types.h</text>
</a>
</g>
</g>
<!-- Node3&#45;&gt;Node22 -->
<g id="edge44_Node000003_Node000022" class="edge">
<title>Node3&#45;&gt;Node22</title>
<g id="a_edge44_Node000003_Node000022"><a xlink:title=" ">
<path fill="none" stroke="#63b8ff" d="M403.5,-274.96C482.53,-262.89 616.8,-236.23 721,-184 746.41,-171.26 771.81,-150.33 787.69,-136"/>
<polygon fill="#63b8ff" stroke="#63b8ff" points="790.1,-138.54 795.08,-129.19 785.35,-133.4 790.1,-138.54"/>
</a>
</g>
</g>
<!-- Node4&#45;&gt;Node2 -->
<g id="edge6_Node000004_Node000002" class="edge">
<title>Node4&#45;&gt;Node2</title>
<g id="a_edge6_Node000004_Node000002"><a xlink:title=" ">
<path fill="none" stroke="#63b8ff" d="M137.01,-219.99C127.55,-211.9 114.57,-198.81 109,-184 94.79,-146.22 59.79,-114.94 123,-55 141.87,-37.11 491.85,-20.33 650.71,-13.6"/>
<polygon fill="#63b8ff" stroke="#63b8ff" points="651.05,-17.09 660.89,-13.17 650.75,-10.1 651.05,-17.09"/>
</a>
</g>
</g>
<!-- Node5 -->
<g id="Node000005" class="node">
<title>Node5</title>
<g id="a_Node000005"><a xlink:title=" ">
<polygon fill="#e0e0e0" stroke="#999999" points="178,-184 118,-184 118,-165 178,-165 178,-184"/>
<text text-anchor="middle" x="148" y="-172" font-family="Helvetica,sans-Serif" font-size="10.00">iostream</text>
</a>
</g>
</g>
<!-- Node4&#45;&gt;Node5 -->
<g id="edge5_Node000004_Node000005" class="edge">
<title>Node4&#45;&gt;Node5</title>
<g id="a_edge5_Node000004_Node000005"><a xlink:title=" ">
<path fill="none" stroke="#63b8ff" d="M148,-219.75C148,-212.8 148,-202.85 148,-194.13"/>
<polygon fill="#63b8ff" stroke="#63b8ff" points="151.5,-194.09 148,-184.09 144.5,-194.09 151.5,-194.09"/>
</a>
</g>
</g>
<!-- Node6&#45;&gt;Node2 -->
<g id="edge16_Node000006_Node000002" class="edge">
<title>Node6&#45;&gt;Node2</title>
<g id="a_edge16_Node000006_Node000002"><a xlink:title=" ">
<path fill="none" stroke="#63b8ff" d="M200.79,-110.08C160.49,-100.1 108.49,-81.41 133,-55 150.37,-36.29 493.94,-20 650.93,-13.51"/>
<polygon fill="#63b8ff" stroke="#63b8ff" points="651.15,-17 660.99,-13.09 650.86,-10.01 651.15,-17"/>
</a>
</g>
</g>
<!-- Node7 -->
<g id="Node000007" class="node">
<title>Node7</title>
<g id="a_Node000007"><a xlink:href="flag__field_8h.html" target="_top" xlink:title=" ">
<polygon fill="white" stroke="#666666" points="280,-74 210,-74 210,-55 280,-55 280,-74"/>
<text text-anchor="middle" x="245" y="-62" font-family="Helvetica,sans-Serif" font-size="10.00">flag_field.h</text>
</a>
</g>
</g>
<!-- Node6&#45;&gt;Node7 -->
<g id="edge8_Node000006_Node000007" class="edge">
<title>Node6&#45;&gt;Node7</title>
<g id="a_edge8_Node000006_Node000007"><a xlink:title=" ">
<path fill="none" stroke="#63b8ff" d="M242.5,-109.75C242.89,-102.8 243.45,-92.85 243.95,-84.13"/>
<polygon fill="#63b8ff" stroke="#63b8ff" points="247.44,-84.27 244.51,-74.09 240.45,-83.88 247.44,-84.27"/>
</a>
</g>
</g>
<!-- Node12 -->
<g id="Node000012" class="node">
<title>Node12</title>
<g id="a_Node000012"><a xlink:title=" ">
<polygon fill="#e0e0e0" stroke="#999999" points="191.5,-74 142.5,-74 142.5,-55 191.5,-55 191.5,-74"/>
<text text-anchor="middle" x="167" y="-62" font-family="Helvetica,sans-Serif" font-size="10.00">cstdlib</text>
</a>
</g>
</g>
<!-- Node6&#45;&gt;Node12 -->
<g id="edge14_Node000006_Node000012" class="edge">
<title>Node6&#45;&gt;Node12</title>
<g id="a_edge14_Node000006_Node000012"><a xlink:title=" ">
<path fill="none" stroke="#63b8ff" d="M229.95,-109.98C218.54,-101.92 201.17,-89.65 187.57,-80.03"/>
<polygon fill="#63b8ff" stroke="#63b8ff" points="189.46,-77.08 179.27,-74.17 185.42,-82.8 189.46,-77.08"/>
</a>
</g>
</g>
<!-- Node13 -->
<g id="Node000013" class="node">
<title>Node13</title>
<g id="a_Node000013"><a xlink:title=" ">
<polygon fill="#e0e0e0" stroke="#999999" points="380,-74 336,-74 336,-55 380,-55 380,-74"/>
<text text-anchor="middle" x="358" y="-62" font-family="Helvetica,sans-Serif" font-size="10.00">string</text>
</a>
</g>
</g>
<!-- Node6&#45;&gt;Node13 -->
<g id="edge15_Node000006_Node000013" class="edge">
<title>Node6&#45;&gt;Node13</title>
<g id="a_edge15_Node000006_Node000013"><a xlink:title=" ">
<path fill="none" stroke="#63b8ff" d="M260.64,-109.98C279.3,-101.46 308.25,-88.23 329.74,-78.41"/>
<polygon fill="#63b8ff" stroke="#63b8ff" points="331.38,-81.51 339.02,-74.17 328.47,-75.14 331.38,-81.51"/>
</a>
</g>
</g>
<!-- Node7&#45;&gt;Node2 -->
<g id="edge13_Node000007_Node000002" class="edge">
<title>Node7&#45;&gt;Node2</title>
<g id="a_edge13_Node000007_Node000002"><a xlink:title=" ">
<path fill="none" stroke="#63b8ff" d="M280.02,-57.12C284.71,-56.36 289.47,-55.62 294,-55 418.5,-37.84 563.94,-24.23 650.87,-16.78"/>
<polygon fill="#63b8ff" stroke="#63b8ff" points="651.25,-20.26 660.91,-15.92 650.65,-13.28 651.25,-20.26"/>
</a>
</g>
</g>
<!-- Node8 -->
<g id="Node000008" class="node">
<title>Node8</title>
<g id="a_Node000008"><a xlink:title=" ">
<polygon fill="#e0e0e0" stroke="#999999" points="867.5,-19 814.5,-19 814.5,0 867.5,0 867.5,-19"/>
<text text-anchor="middle" x="841" y="-7" font-family="Helvetica,sans-Serif" font-size="10.00">stdint.h</text>
</a>
</g>
</g>
<!-- Node7&#45;&gt;Node8 -->
<g id="edge9_Node000007_Node000008" class="edge">
<title>Node7&#45;&gt;Node8</title>
<g id="a_edge9_Node000007_Node000008"><a xlink:title=" ">
<path fill="none" stroke="#63b8ff" d="M280.09,-59.64C294.6,-58.11 311.6,-56.38 327,-55 538.76,-36.04 593.8,-50.89 804,-19 804.11,-18.98 804.21,-18.97 804.32,-18.95"/>
<polygon fill="#63b8ff" stroke="#63b8ff" points="805.2,-22.35 814.41,-17.11 803.95,-15.46 805.2,-22.35"/>
</a>
</g>
</g>
<!-- Node9 -->
<g id="Node000009" class="node">
<title>Node9</title>
<g id="a_Node000009"><a xlink:title=" ">
<polygon fill="#e0e0e0" stroke="#999999" points="201.5,-19 148.5,-19 148.5,0 201.5,0 201.5,-19"/>
<text text-anchor="middle" x="175" y="-7" font-family="Helvetica,sans-Serif" font-size="10.00">iterator</text>
</a>
</g>
</g>
<!-- Node7&#45;&gt;Node9 -->
<g id="edge10_Node000007_Node000009" class="edge">
<title>Node7&#45;&gt;Node9</title>
<g id="a_edge10_Node000007_Node000009"><a xlink:title=" ">
<path fill="none" stroke="#63b8ff" d="M233.75,-54.98C223.2,-47 207.2,-34.88 194.56,-25.31"/>
<polygon fill="#63b8ff" stroke="#63b8ff" points="196.54,-22.42 186.45,-19.17 192.31,-28 196.54,-22.42"/>
</a>
</g>
</g>
<!-- Node10 -->
<g id="Node000010" class="node">
<title>Node10</title>
<g id="a_Node000010"><a xlink:title=" ">
<polygon fill="#e0e0e0" stroke="#999999" points="270,-19 220,-19 220,0 270,0 270,-19"/>
<text text-anchor="middle" x="245" y="-7" font-family="Helvetica,sans-Serif" font-size="10.00">climits</text>
</a>
</g>
</g>
<!-- Node7&#45;&gt;Node10 -->
<g id="edge11_Node000007_Node000010" class="edge">
<title>Node7&#45;&gt;Node10</title>
<g id="a_edge11_Node000007_Node000010"><a xlink:title=" ">
<path fill="none" stroke="#63b8ff" d="M245,-54.75C245,-47.8 245,-37.85 245,-29.13"/>
<polygon fill="#63b8ff" stroke="#63b8ff" points="248.5,-29.09 245,-19.09 241.5,-29.09 248.5,-29.09"/>
</a>
</g>
</g>
<!-- Node11 -->
<g id="Node000011" class="node">
<title>Node11</title>
<g id="a_Node000011"><a xlink:title=" ">
<polygon fill="#e0e0e0" stroke="#999999" points="402,-19 288,-19 288,0 402,0 402,-19"/>
<text text-anchor="middle" x="345" y="-7" font-family="Helvetica,sans-Serif" font-size="10.00">boost/operators.hpp</text>
</a>
</g>
</g>
<!-- Node7&#45;&gt;Node11 -->
<g id="edge12_Node000007_Node000011" class="edge">
<title>Node7&#45;&gt;Node11</title>
<g id="a_edge12_Node000007_Node000011"><a xlink:title=" ">
<path fill="none" stroke="#63b8ff" d="M261.07,-54.98C276.86,-46.61 301.22,-33.7 319.63,-23.95"/>
<polygon fill="#63b8ff" stroke="#63b8ff" points="321.44,-26.95 328.64,-19.17 318.17,-20.76 321.44,-26.95"/>
</a>
</g>
</g>
<!-- Node14&#45;&gt;Node2 -->
<g id="edge24_Node000014_Node000002" class="edge">
<title>Node14&#45;&gt;Node2</title>
<g id="a_edge24_Node000014_Node000002"><a xlink:title=" ">
<path fill="none" stroke="#63b8ff" d="M449.59,-219.93C402.33,-194.2 272.68,-115.68 327,-55 348.15,-31.37 540.05,-18.9 650.53,-13.63"/>
<polygon fill="#63b8ff" stroke="#63b8ff" points="650.81,-17.12 660.63,-13.16 650.48,-10.13 650.81,-17.12"/>
</a>
</g>
</g>
<!-- Node14&#45;&gt;Node6 -->
<g id="edge31_Node000014_Node000006" class="edge">
<title>Node14&#45;&gt;Node6</title>
<g id="a_edge31_Node000014_Node000006"><a xlink:title=" ">
<path fill="none" stroke="#63b8ff" d="M413.27,-222.84C378.2,-217.18 332.28,-205.98 297,-184 278.32,-172.36 262.55,-152.37 252.75,-137.92"/>
<polygon fill="#63b8ff" stroke="#63b8ff" points="255.58,-135.86 247.2,-129.38 249.71,-139.67 255.58,-135.86"/>
</a>
</g>
</g>
<!-- Node14&#45;&gt;Node7 -->
<g id="edge35_Node000014_Node000007" class="edge">
<title>Node14&#45;&gt;Node7</title>
<g id="a_edge35_Node000014_Node000007"><a xlink:title=" ">
<path fill="none" stroke="#63b8ff" d="M454.43,-219.97C418.71,-193.62 309.88,-113.35 264.84,-80.13"/>
<polygon fill="#63b8ff" stroke="#63b8ff" points="266.85,-77.27 256.72,-74.15 262.69,-82.9 266.85,-77.27"/>
</a>
</g>
</g>
<!-- Node15 -->
<g id="Node000015" class="node">
<title>Node15</title>
<g id="a_Node000015"><a xlink:href="compose_8h.html" target="_top" xlink:title=" ">
<polygon fill="white" stroke="#666666" points="536.5,-129 445.5,-129 445.5,-110 536.5,-110 536.5,-129"/>
<text text-anchor="middle" x="491" y="-117" font-family="Helvetica,sans-Serif" font-size="10.00">pbd/compose.h</text>
</a>
</g>
</g>
<!-- Node14&#45;&gt;Node15 -->
<g id="edge18_Node000014_Node000015" class="edge">
<title>Node14&#45;&gt;Node15</title>
<g id="a_edge18_Node000014_Node000015"><a xlink:title=" ">
<path fill="none" stroke="#63b8ff" d="M460.92,-219.65C454.46,-207.16 444.92,-183.81 452,-165 456.18,-153.89 464.52,-143.75 472.43,-135.96"/>
<polygon fill="#63b8ff" stroke="#63b8ff" points="475.01,-138.35 480.01,-129.01 470.28,-133.19 475.01,-138.35"/>
</a>
</g>
</g>
<!-- Node20 -->
<g id="Node000020" class="node">
<title>Node20</title>
<g id="a_Node000020"><a xlink:href="exception_8h.html" target="_top" xlink:title=" ">
<polygon fill="white" stroke="#666666" points="535,-184 461,-184 461,-165 535,-165 535,-184"/>
<text text-anchor="middle" x="498" y="-172" font-family="Helvetica,sans-Serif" font-size="10.00">exception.h</text>
</a>
</g>
</g>
<!-- Node14&#45;&gt;Node20 -->
<g id="edge25_Node000014_Node000020" class="edge">
<title>Node14&#45;&gt;Node20</title>
<g id="a_edge25_Node000014_Node000020"><a xlink:title=" ">
<path fill="none" stroke="#63b8ff" d="M471.28,-219.75C475.71,-212.42 482.16,-201.73 487.62,-192.7"/>
<polygon fill="#63b8ff" stroke="#63b8ff" points="490.64,-194.46 492.81,-184.09 484.65,-190.84 490.64,-194.46"/>
</a>
</g>
</g>
<!-- Node14&#45;&gt;Node22 -->
<g id="edge32_Node000014_Node000022" class="edge">
<title>Node14&#45;&gt;Node22</title>
<g id="a_edge32_Node000014_Node000022"><a xlink:title=" ">
<path fill="none" stroke="#63b8ff" d="M518.55,-222.42C564.09,-216.09 631.26,-204.22 687,-184 722.33,-171.19 759.98,-149.03 782.75,-134.57"/>
<polygon fill="#63b8ff" stroke="#63b8ff" points="784.76,-137.44 791.27,-129.08 780.97,-131.56 784.76,-137.44"/>
</a>
</g>
</g>
<!-- Node23 -->
<g id="Node000023" class="node">
<title>Node23</title>
<g id="a_Node000023"><a xlink:href="throwing_8h.html" target="_top" xlink:title=" ">
<polygon fill="white" stroke="#666666" points="678,-184 610,-184 610,-165 678,-165 678,-184"/>
<text text-anchor="middle" x="644" y="-172" font-family="Helvetica,sans-Serif" font-size="10.00">throwing.h</text>
</a>
</g>
</g>
<!-- Node14&#45;&gt;Node23 -->
<g id="edge36_Node000014_Node000023" class="edge">
<title>Node14&#45;&gt;Node23</title>
<g id="a_edge36_Node000014_Node000023"><a xlink:title=" ">
<path fill="none" stroke="#63b8ff" d="M494.6,-219.98C524.61,-211.05 571.98,-196.94 605.32,-187.02"/>
<polygon fill="#63b8ff" stroke="#63b8ff" points="606.59,-190.29 615.18,-184.08 604.59,-183.58 606.59,-190.29"/>
</a>
</g>
</g>
<!-- Node14&#45;&gt;Node24 -->
<g id="edge38_Node000014_Node000024" class="edge">
<title>Node14&#45;&gt;Node24</title>
<g id="a_edge38_Node000014_Node000024"><a xlink:title=" ">
<path fill="none" stroke="#63b8ff" d="M518.72,-221.89C601.8,-211.48 761.93,-191.42 841.59,-181.44"/>
<polygon fill="#63b8ff" stroke="#63b8ff" points="842.33,-184.87 851.82,-180.16 841.46,-177.93 842.33,-184.87"/>
</a>
</g>
</g>
<!-- Node15&#45;&gt;Node13 -->
<g id="edge20_Node000015_Node000013" class="edge">
<title>Node15&#45;&gt;Node13</title>
<g id="a_edge20_Node000015_Node000013"><a xlink:title=" ">
<path fill="none" stroke="#63b8ff" d="M469.63,-109.98C447.85,-101.3 413.84,-87.75 389.08,-77.88"/>
<polygon fill="#63b8ff" stroke="#63b8ff" points="390.34,-74.62 379.76,-74.17 387.75,-81.12 390.34,-74.62"/>
</a>
</g>
</g>
<!-- Node16 -->
<g id="Node000016" class="node">
<title>Node16</title>
<g id="a_Node000016"><a xlink:title=" ">
<polygon fill="#e0e0e0" stroke="#999999" points="454,-74 398,-74 398,-55 454,-55 454,-74"/>
<text text-anchor="middle" x="426" y="-62" font-family="Helvetica,sans-Serif" font-size="10.00">sstream</text>
</a>
</g>
</g>
<!-- Node15&#45;&gt;Node16 -->
<g id="edge19_Node000015_Node000016" class="edge">
<title>Node15&#45;&gt;Node16</title>
<g id="a_edge19_Node000015_Node000016"><a xlink:title=" ">
<path fill="none" stroke="#63b8ff" d="M480.56,-109.98C470.85,-102.07 456.18,-90.11 444.5,-80.58"/>
<polygon fill="#63b8ff" stroke="#63b8ff" points="446.6,-77.78 436.63,-74.17 442.17,-83.2 446.6,-77.78"/>
</a>
</g>
</g>
<!-- Node17 -->
<g id="Node000017" class="node">
<title>Node17</title>
<g id="a_Node000017"><a xlink:title=" ">
<polygon fill="#e0e0e0" stroke="#999999" points="700,-74 668,-74 668,-55 700,-55 700,-74"/>
<text text-anchor="middle" x="684" y="-62" font-family="Helvetica,sans-Serif" font-size="10.00">list</text>
</a>
</g>
</g>
<!-- Node15&#45;&gt;Node17 -->
<g id="edge21_Node000015_Node000017" class="edge">
<title>Node15&#45;&gt;Node17</title>
<g id="a_edge21_Node000015_Node000017"><a xlink:title=" ">
<path fill="none" stroke="#63b8ff" d="M525.95,-109.99C558.07,-102 607.18,-89.37 658.34,-74.04"/>
<polygon fill="#63b8ff" stroke="#63b8ff" points="659.36,-77.39 667.91,-71.15 657.33,-70.69 659.36,-77.39"/>
</a>
</g>
</g>
<!-- Node18 -->
<g id="Node000018" class="node">
<title>Node18</title>
<g id="a_Node000018"><a xlink:title=" ">
<polygon fill="#e0e0e0" stroke="#999999" points="510,-74 472,-74 472,-55 510,-55 510,-74"/>
<text text-anchor="middle" x="491" y="-62" font-family="Helvetica,sans-Serif" font-size="10.00">map</text>
</a>
</g>
</g>
<!-- Node15&#45;&gt;Node18 -->
<g id="edge22_Node000015_Node000018" class="edge">
<title>Node15&#45;&gt;Node18</title>
<g id="a_edge22_Node000015_Node000018"><a xlink:title=" ">
<path fill="none" stroke="#63b8ff" d="M491,-109.75C491,-102.8 491,-92.85 491,-84.13"/>
<polygon fill="#63b8ff" stroke="#63b8ff" points="494.5,-84.09 491,-74.09 487.5,-84.09 494.5,-84.09"/>
</a>
</g>
</g>
<!-- Node19 -->
<g id="Node000019" class="node">
<title>Node19</title>
<g id="a_Node000019"><a xlink:href="libpbd__visibility_8h.html" target="_top" xlink:title=" ">
<polygon fill="white" stroke="#666666" points="650,-74 528,-74 528,-55 650,-55 650,-74"/>
<text text-anchor="middle" x="589" y="-62" font-family="Helvetica,sans-Serif" font-size="10.00">pbd/libpbd_visibility.h</text>
</a>
</g>
</g>
<!-- Node15&#45;&gt;Node19 -->
<g id="edge23_Node000015_Node000019" class="edge">
<title>Node15&#45;&gt;Node19</title>
<g id="a_edge23_Node000015_Node000019"><a xlink:title=" ">
<path fill="none" stroke="#63b8ff" d="M506.75,-109.98C522.23,-101.61 546.09,-88.7 564.14,-78.95"/>
<polygon fill="#63b8ff" stroke="#63b8ff" points="565.84,-82.01 572.97,-74.17 562.51,-75.85 565.84,-82.01"/>
</a>
</g>
</g>
<!-- Node20&#45;&gt;Node2 -->
<g id="edge29_Node000020_Node000002" class="edge">
<title>Node20&#45;&gt;Node2</title>
<g id="a_edge29_Node000020_Node000002"><a xlink:title=" ">
<path fill="none" stroke="#63b8ff" d="M518.54,-164.95C568.92,-143.81 695.5,-89.7 709,-74 719.67,-61.6 724.35,-43.38 726.4,-29.64"/>
<polygon fill="#63b8ff" stroke="#63b8ff" points="729.92,-29.7 727.58,-19.37 722.96,-28.91 729.92,-29.7"/>
</a>
</g>
</g>
<!-- Node20&#45;&gt;Node6 -->
<g id="edge30_Node000020_Node000006" class="edge">
<title>Node20&#45;&gt;Node6</title>
<g id="a_edge30_Node000020_Node000006"><a xlink:title=" ">
<path fill="none" stroke="#63b8ff" d="M460.78,-165.79C416.54,-156.63 342.49,-141.3 292.96,-131.05"/>
<polygon fill="#63b8ff" stroke="#63b8ff" points="293.59,-127.61 283.09,-129.01 292.17,-134.46 293.59,-127.61"/>
</a>
</g>
</g>
<!-- Node20&#45;&gt;Node13 -->
<g id="edge27_Node000020_Node000013" class="edge">
<title>Node20&#45;&gt;Node13</title>
<g id="a_edge27_Node000020_Node000013"><a xlink:title=" ">
<path fill="none" stroke="#63b8ff" d="M485.49,-164.85C472.85,-156.04 452.84,-141.88 436,-129 415.17,-113.07 391.93,-93.97 376.28,-80.91"/>
<polygon fill="#63b8ff" stroke="#63b8ff" points="378.35,-78.07 368.43,-74.33 373.85,-83.44 378.35,-78.07"/>
</a>
</g>
</g>
<!-- Node20&#45;&gt;Node15 -->
<g id="edge28_Node000020_Node000015" class="edge">
<title>Node20&#45;&gt;Node15</title>
<g id="a_edge28_Node000020_Node000015"><a xlink:title=" ">
<path fill="none" stroke="#63b8ff" d="M496.84,-164.75C495.93,-157.8 494.61,-147.85 493.46,-139.13"/>
<polygon fill="#63b8ff" stroke="#63b8ff" points="496.91,-138.54 492.13,-129.09 489.97,-139.46 496.91,-138.54"/>
</a>
</g>
</g>
<!-- Node21 -->
<g id="Node000021" class="node">
<title>Node21</title>
<g id="a_Node000021"><a xlink:title=" ">
<polygon fill="#e0e0e0" stroke="#999999" points="720.5,-129 655.5,-129 655.5,-110 720.5,-110 720.5,-129"/>
<text text-anchor="middle" x="688" y="-117" font-family="Helvetica,sans-Serif" font-size="10.00">exception</text>
</a>
</g>
</g>
<!-- Node20&#45;&gt;Node21 -->
<g id="edge26_Node000020_Node000021" class="edge">
<title>Node20&#45;&gt;Node21</title>
<g id="a_edge26_Node000020_Node000021"><a xlink:title=" ">
<path fill="none" stroke="#63b8ff" d="M528.53,-164.98C560.7,-156.01 611.56,-141.82 647.17,-131.89"/>
<polygon fill="#63b8ff" stroke="#63b8ff" points="648.54,-135.14 657.23,-129.08 646.66,-128.4 648.54,-135.14"/>
</a>
</g>
</g>
<!-- Node22&#45;&gt;Node2 -->
<g id="edge34_Node000022_Node000002" class="edge">
<title>Node22&#45;&gt;Node2</title>
<g id="a_edge34_Node000022_Node000002"><a xlink:title=" ">
<path fill="none" stroke="#63b8ff" d="M802.13,-109.62C799.1,-96.7 792.19,-72.36 780,-55 771.89,-43.45 760.12,-33.04 749.82,-25.2"/>
<polygon fill="#63b8ff" stroke="#63b8ff" points="751.78,-22.3 741.63,-19.25 747.66,-27.96 751.78,-22.3"/>
</a>
</g>
</g>
<!-- Node22&#45;&gt;Node8 -->
<g id="edge33_Node000022_Node000008" class="edge">
<title>Node22&#45;&gt;Node8</title>
<g id="a_edge33_Node000022_Node000008"><a xlink:title=" ">
<path fill="none" stroke="#63b8ff" d="M807.03,-109.66C813.07,-92.01 826.75,-52.09 834.79,-28.64"/>
<polygon fill="#63b8ff" stroke="#63b8ff" points="838.1,-29.75 838.03,-19.16 831.48,-27.48 838.1,-29.75"/>
</a>
</g>
</g>
<!-- Node23&#45;&gt;Node2 -->
<g id="edge37_Node000023_Node000002" class="edge">
<title>Node23&#45;&gt;Node2</title>
<g id="a_edge37_Node000023_Node000002"><a xlink:title=" ">
<path fill="none" stroke="#63b8ff" d="M674.64,-164.99C693.37,-158.23 716.29,-146.88 730,-129 750.27,-102.56 747.06,-87.93 742,-55 740.65,-46.19 737.87,-36.74 735.15,-28.82"/>
<polygon fill="#63b8ff" stroke="#63b8ff" points="738.34,-27.35 731.6,-19.18 731.77,-29.77 738.34,-27.35"/>
</a>
</g>
</g>
<!-- Node24&#45;&gt;Node2 -->
<g id="edge42_Node000024_Node000002" class="edge">
<title>Node24&#45;&gt;Node2</title>
<g id="a_edge42_Node000024_Node000002"><a xlink:title=" ">
<path fill="none" stroke="#63b8ff" d="M883.91,-164.94C871.31,-144.23 836.85,-90.55 798,-55 784.79,-42.91 767.91,-32.07 754.03,-24.12"/>
<polygon fill="#63b8ff" stroke="#63b8ff" points="755.42,-20.89 744.98,-19.09 752.02,-27.01 755.42,-20.89"/>
</a>
</g>
</g>
<!-- Node24&#45;&gt;Node22 -->
<g id="edge43_Node000024_Node000022" class="edge">
<title>Node24&#45;&gt;Node22</title>
<g id="a_edge43_Node000024_Node000022"><a xlink:title=" ">
<path fill="none" stroke="#63b8ff" d="M875.34,-164.98C862.16,-156.77 841.97,-144.18 826.43,-134.49"/>
<polygon fill="#63b8ff" stroke="#63b8ff" points="828.24,-131.49 817.91,-129.17 824.54,-137.43 828.24,-131.49"/>
</a>
</g>
</g>
<!-- Node25 -->
<g id="Node000025" class="node">
<title>Node25</title>
<g id="a_Node000025"><a xlink:title=" ">
<polygon fill="#e0e0e0" stroke="#999999" points="1133,-129 1075,-129 1075,-110 1133,-110 1133,-129"/>
<text text-anchor="middle" x="1104" y="-117" font-family="Helvetica,sans-Serif" font-size="10.00">memory</text>
</a>
</g>
</g>
<!-- Node24&#45;&gt;Node25 -->
<g id="edge39_Node000024_Node000025" class="edge">
<title>Node24&#45;&gt;Node25</title>
<g id="a_edge39_Node000024_Node000025"><a xlink:title=" ">
<path fill="none" stroke="#63b8ff" d="M923.54,-164.98C962.17,-155.46 1024.6,-140.07 1064.96,-130.12"/>
<polygon fill="#63b8ff" stroke="#63b8ff" points="1065.85,-133.51 1074.72,-127.72 1064.18,-126.71 1065.85,-133.51"/>
</a>
</g>
</g>
<!-- Node26 -->
<g id="Node000026" class="node">
<title>Node26</title>
<g id="a_Node000026"><a xlink:title=" ">
<polygon fill="#e0e0e0" stroke="#999999" points="951,-129 887,-129 887,-110 951,-110 951,-129"/>
<text text-anchor="middle" x="919" y="-117" font-family="Helvetica,sans-Serif" font-size="10.00">algorithm</text>
</a>
</g>
</g>
<!-- Node24&#45;&gt;Node26 -->
<g id="edge40_Node000024_Node000026" class="edge">
<title>Node24&#45;&gt;Node26</title>
<g id="a_edge40_Node000024_Node000026"><a xlink:title=" ">
<path fill="none" stroke="#63b8ff" d="M893.95,-164.75C898.06,-157.49 904.03,-146.95 909.1,-137.98"/>
<polygon fill="#63b8ff" stroke="#63b8ff" points="912.26,-139.52 914.14,-129.09 906.17,-136.07 912.26,-139.52"/>
</a>
</g>
</g>
<!-- Node27 -->
<g id="Node000027" class="node">
<title>Node27</title>
<g id="a_Node000027"><a xlink:title=" ">
<polygon fill="#e0e0e0" stroke="#999999" points="1019,-129 969,-129 969,-110 1019,-110 1019,-129"/>
<text text-anchor="middle" x="994" y="-117" font-family="Helvetica,sans-Serif" font-size="10.00">cstring</text>
</a>
</g>
</g>
<!-- Node24&#45;&gt;Node27 -->
<g id="edge41_Node000024_Node000027" class="edge">
<title>Node24&#45;&gt;Node27</title>
<g id="a_edge41_Node000024_Node000027"><a xlink:title=" ">
<path fill="none" stroke="#63b8ff" d="M905.87,-164.98C922.61,-156.54 948.5,-143.47 967.89,-133.68"/>
<polygon fill="#63b8ff" stroke="#63b8ff" points="969.47,-136.8 976.82,-129.17 966.32,-130.55 969.47,-136.8"/>
</a>
</g>
</g>
<!-- Node28&#45;&gt;Node2 -->
<g id="edge48_Node000028_Node000002" class="edge">
<title>Node28&#45;&gt;Node2</title>
<g id="a_edge48_Node000028_Node000002"><a xlink:title=" ">
<path fill="none" stroke="#63b8ff" d="M1047,-274.82C1047,-256.48 1047,-212.44 1047,-175.5 1047,-175.5 1047,-175.5 1047,-118.5 1047,-67.16 896.9,-35.44 802.63,-20.58"/>
<polygon fill="#63b8ff" stroke="#63b8ff" points="802.97,-17.09 792.55,-19.02 801.9,-24 802.97,-17.09"/>
</a>
</g>
</g>
<!-- Node28&#45;&gt;Node14 -->
<g id="edge47_Node000028_Node000014" class="edge">
<title>Node28&#45;&gt;Node14</title>
<g id="a_edge47_Node000028_Node000014"><a xlink:title=" ">
<path fill="none" stroke="#63b8ff" d="M990.5,-278.35C881.44,-268.4 642.65,-246.61 528.79,-236.23"/>
<polygon fill="#63b8ff" stroke="#63b8ff" points="529.11,-232.74 518.83,-235.32 528.47,-239.71 529.11,-232.74"/>
</a>
</g>
</g>
<!-- Node28&#45;&gt;Node25 -->
<g id="edge46_Node000028_Node000025" class="edge">
<title>Node28&#45;&gt;Node25</title>
<g id="a_edge46_Node000028_Node000025"><a xlink:title=" ">
<path fill="none" stroke="#63b8ff" d="M1050.06,-274.74C1059.03,-249.09 1085.37,-173.78 1097.61,-138.78"/>
<polygon fill="#63b8ff" stroke="#63b8ff" points="1100.92,-139.9 1100.92,-129.31 1094.32,-137.59 1100.92,-139.9"/>
</a>
</g>
</g>
<!-- Node29&#45;&gt;Node2 -->
<g id="edge51_Node000029_Node000002" class="edge">
<title>Node29&#45;&gt;Node2</title>
<g id="a_edge51_Node000029_Node000002"><a xlink:title=" ">
<path fill="none" stroke="#63b8ff" d="M1190.94,-384.82C1179.79,-363.82 1161,-322.9 1161,-285.5 1161,-285.5 1161,-285.5 1161,-118.5 1161,-111.95 1228.25,-117.45 995,-55 932.1,-38.16 859.06,-26.51 805.29,-19.37"/>
<polygon fill="#63b8ff" stroke="#63b8ff" points="805.52,-15.87 795.15,-18.04 804.61,-22.81 805.52,-15.87"/>
</a>
</g>
</g>
<!-- Node29&#45;&gt;Node17 -->
<g id="edge58_Node000029_Node000017" class="edge">
<title>Node29&#45;&gt;Node17</title>
<g id="a_edge58_Node000029_Node000017"><a xlink:title=" ">
<path fill="none" stroke="#63b8ff" d="M1199,-384.67C1199,-363.14 1199,-321.17 1199,-285.5 1199,-285.5 1199,-285.5 1199,-173.5 1199,-135.58 1175.85,-127.11 1142,-110 1065.67,-71.41 796.63,-66.24 710.64,-65.59"/>
<polygon fill="#63b8ff" stroke="#63b8ff" points="710.44,-62.08 700.42,-65.52 710.4,-69.08 710.44,-62.08"/>
</a>
</g>
</g>
<!-- Node29&#45;&gt;Node22 -->
<g id="edge52_Node000029_Node000022" class="edge">
<title>Node29&#45;&gt;Node22</title>
<g id="a_edge52_Node000029_Node000022"><a xlink:title=" ">
<path fill="none" stroke="#63b8ff" d="M1207.06,-384.82C1218.21,-363.82 1237,-322.9 1237,-285.5 1237,-285.5 1237,-285.5 1237,-228.5 1237,-187.82 945.53,-141.19 840.86,-125.76"/>
<polygon fill="#63b8ff" stroke="#63b8ff" points="841.16,-122.27 830.76,-124.28 840.15,-129.19 841.16,-122.27"/>
</a>
</g>
</g>
<!-- Node30 -->
<g id="Node000030" class="node">
<title>Node30</title>
<g id="a_Node000030"><a xlink:href="audiographer_2audiographer_2source_8h.html" target="_top" xlink:title=" ">
<polygon fill="white" stroke="#666666" points="1390.5,-349 1265.5,-349 1265.5,-330 1390.5,-330 1390.5,-349"/>
<text text-anchor="middle" x="1328" y="-337" font-family="Helvetica,sans-Serif" font-size="10.00">audiographer/source.h</text>
</a>
</g>
</g>
<!-- Node29&#45;&gt;Node30 -->
<g id="edge53_Node000029_Node000030" class="edge">
<title>Node29&#45;&gt;Node30</title>
<g id="a_edge53_Node000029_Node000030"><a xlink:title=" ">
<path fill="none" stroke="#63b8ff" d="M1229.9,-384.99C1251.13,-375.36 1279.11,-362.67 1299.75,-353.31"/>
<polygon fill="#63b8ff" stroke="#63b8ff" points="1301.29,-356.46 1308.95,-349.14 1298.4,-350.08 1301.29,-356.46"/>
</a>
</g>
</g>
<!-- Node30&#45;&gt;Node2 -->
<g id="edge57_Node000030_Node000002" class="edge">
<title>Node30&#45;&gt;Node2</title>
<g id="a_edge57_Node000030_Node000002"><a xlink:title=" ">
<path fill="none" stroke="#63b8ff" d="M1320.41,-329.96C1305.75,-312.57 1275,-271.23 1275,-230.5 1275,-230.5 1275,-230.5 1275,-118.5 1275,27.36 1114.28,-50.83 806,-19 805.78,-18.98 805.56,-18.95 805.34,-18.93"/>
<polygon fill="#63b8ff" stroke="#63b8ff" points="805.53,-15.43 795.22,-17.87 804.8,-22.39 805.53,-15.43"/>
</a>
</g>
</g>
<!-- Node30&#45;&gt;Node22 -->
<g id="edge55_Node000030_Node000022" class="edge">
<title>Node30&#45;&gt;Node22</title>
<g id="a_edge55_Node000030_Node000022"><a xlink:title=" ">
<path fill="none" stroke="#63b8ff" d="M1327.13,-329.76C1323.72,-300.65 1308.47,-206.44 1251,-165 1183.45,-116.3 960.81,-137.75 878,-129 865.87,-127.72 852.62,-126.23 840.74,-124.85"/>
<polygon fill="#63b8ff" stroke="#63b8ff" points="841.04,-121.36 830.7,-123.69 840.23,-128.32 841.04,-121.36"/>
</a>
</g>
</g>
<!-- Node30&#45;&gt;Node25 -->
<g id="edge54_Node000030_Node000025" class="edge">
<title>Node30&#45;&gt;Node25</title>
<g id="a_edge54_Node000030_Node000025"><a xlink:title=" ">
<path fill="none" stroke="#63b8ff" d="M1331.38,-329.65C1341.41,-301.74 1367.83,-214.49 1327,-165 1304.12,-137.26 1200.89,-126.47 1143.24,-122.55"/>
<polygon fill="#63b8ff" stroke="#63b8ff" points="1143.24,-119.04 1133.04,-121.89 1142.79,-126.03 1143.24,-119.04"/>
</a>
</g>
</g>
<!-- Node30&#45;&gt;Node28 -->
<g id="edge56_Node000030_Node000028" class="edge">
<title>Node30&#45;&gt;Node28</title>
<g id="a_edge56_Node000030_Node000028"><a xlink:title=" ">
<path fill="none" stroke="#63b8ff" d="M1282.85,-329.98C1233.74,-320.72 1155.18,-305.9 1102.38,-295.94"/>
<polygon fill="#63b8ff" stroke="#63b8ff" points="1102.98,-292.5 1092.5,-294.08 1101.68,-299.37 1102.98,-292.5"/>
</a>
</g>
</g>
</g>
</svg>
