<?xml version="1.0" encoding="UTF-8" standalone="no"?>
<!DOCTYPE svg PUBLIC "-//W3C//DTD SVG 1.1//EN"
 "http://www.w3.org/Graphics/SVG/1.1/DTD/svg11.dtd">
<!-- Generated by graphviz version 2.43.0 (0)
 -->
<!-- Title: StripableTimeAxisView Pages: 1 -->
<svg width="424pt" height="357pt"
 viewBox="0.00 0.00 423.50 357.00" xmlns="http://www.w3.org/2000/svg" xmlns:xlink="http://www.w3.org/1999/xlink">
<g id="graph0" class="graph" transform="scale(1 1) rotate(0) translate(4 353)">
<title>StripableTimeAxisView</title>
<!-- Node1 -->
<g id="Node000001" class="node">
<title>Node1</title>
<g id="a_Node000001"><a xlink:title=" ">
<polygon fill="#999999" stroke="#666666" points="358,-129 228,-129 228,-110 358,-110 358,-129"/>
<text text-anchor="middle" x="293" y="-117" font-family="Helvetica,sans-Serif" font-size="10.00">StripableTimeAxisView</text>
</a>
</g>
</g>
<!-- Node9 -->
<g id="Node000009" class="node">
<title>Node9</title>
<g id="a_Node000009"><a xlink:href="classRouteTimeAxisView.html" target="_top" xlink:title=" ">
<polygon fill="white" stroke="#666666" points="286.5,-74 171.5,-74 171.5,-55 286.5,-55 286.5,-74"/>
<text text-anchor="middle" x="229" y="-62" font-family="Helvetica,sans-Serif" font-size="10.00">RouteTimeAxisView</text>
</a>
</g>
</g>
<!-- Node1&#45;&gt;Node9 -->
<g id="edge8_Node000001_Node000009" class="edge">
<title>Node1&#45;&gt;Node9</title>
<g id="a_edge8_Node000001_Node000009"><a xlink:title=" ">
<path fill="none" stroke="#63b8ff" d="M275.01,-103.6C263.54,-94.11 249.09,-82.13 239.47,-74.17"/>
<polygon fill="#63b8ff" stroke="#63b8ff" points="272.78,-106.3 282.72,-109.98 277.25,-100.91 272.78,-106.3"/>
</a>
</g>
</g>
<!-- Node12 -->
<g id="Node000012" class="node">
<title>Node12</title>
<g id="a_Node000012"><a xlink:href="classVCATimeAxisView.html" target="_top" xlink:title=" ">
<polygon fill="white" stroke="#666666" points="411,-74 305,-74 305,-55 411,-55 411,-74"/>
<text text-anchor="middle" x="358" y="-62" font-family="Helvetica,sans-Serif" font-size="10.00">VCATimeAxisView</text>
</a>
</g>
</g>
<!-- Node1&#45;&gt;Node12 -->
<g id="edge11_Node000001_Node000012" class="edge">
<title>Node1&#45;&gt;Node12</title>
<g id="a_edge11_Node000001_Node000012"><a xlink:title=" ">
<path fill="none" stroke="#63b8ff" d="M311.27,-103.6C322.92,-94.11 337.6,-82.13 347.37,-74.17"/>
<polygon fill="#63b8ff" stroke="#63b8ff" points="308.98,-100.95 303.44,-109.98 313.41,-106.38 308.98,-100.95"/>
</a>
</g>
</g>
<!-- Node2 -->
<g id="Node000002" class="node">
<title>Node2</title>
<g id="a_Node000002"><a xlink:href="classTimeAxisView.html" target="_top" xlink:title=" ">
<polygon fill="white" stroke="#666666" points="336,-184 250,-184 250,-165 336,-165 336,-184"/>
<text text-anchor="middle" x="293" y="-172" font-family="Helvetica,sans-Serif" font-size="10.00">TimeAxisView</text>
</a>
</g>
</g>
<!-- Node2&#45;&gt;Node1 -->
<g id="edge1_Node000001_Node000002" class="edge">
<title>Node2&#45;&gt;Node1</title>
<g id="a_edge1_Node000001_Node000002"><a xlink:title=" ">
<path fill="none" stroke="#63b8ff" d="M293,-154.66C293,-145.93 293,-135.99 293,-129.09"/>
<polygon fill="#63b8ff" stroke="#63b8ff" points="289.5,-154.75 293,-164.75 296.5,-154.75 289.5,-154.75"/>
</a>
</g>
</g>
<!-- Node3 -->
<g id="Node000003" class="node">
<title>Node3</title>
<g id="a_Node000003"><a xlink:href="classAxisView.html" target="_top" xlink:title=" ">
<polygon fill="white" stroke="#666666" points="275,-239 213,-239 213,-220 275,-220 275,-239"/>
<text text-anchor="middle" x="244" y="-227" font-family="Helvetica,sans-Serif" font-size="10.00">AxisView</text>
</a>
</g>
</g>
<!-- Node3&#45;&gt;Node2 -->
<g id="edge2_Node000002_Node000003" class="edge">
<title>Node3&#45;&gt;Node2</title>
<g id="a_edge2_Node000002_Node000003"><a xlink:title=" ">
<path fill="none" stroke="#63b8ff" d="M259.03,-212.24C267.62,-202.95 278.04,-191.68 285.06,-184.09"/>
<polygon fill="#63b8ff" stroke="#63b8ff" points="256.31,-210.03 252.09,-219.75 261.45,-214.78 256.31,-210.03"/>
</a>
</g>
</g>
<!-- Node4 -->
<g id="Node000004" class="node">
<title>Node4</title>
<g id="a_Node000004"><a xlink:href="classPBD_1_1ScopedConnectionList.html" target="_top" xlink:title=" ">
<polygon fill="white" stroke="#666666" points="150,-294 0,-294 0,-275 150,-275 150,-294"/>
<text text-anchor="middle" x="75" y="-282" font-family="Helvetica,sans-Serif" font-size="10.00">PBD::ScopedConnectionList</text>
</a>
</g>
</g>
<!-- Node4&#45;&gt;Node3 -->
<g id="edge3_Node000003_Node000004" class="edge">
<title>Node4&#45;&gt;Node3</title>
<g id="a_edge3_Node000003_Node000004"><a xlink:title=" ">
<path fill="none" stroke="#63b8ff" d="M111.9,-271.93C143.47,-262.03 188.18,-248.01 216.63,-239.08"/>
<polygon fill="#63b8ff" stroke="#63b8ff" points="110.65,-268.65 102.15,-274.98 112.74,-275.33 110.65,-268.65"/>
</a>
</g>
</g>
<!-- Node5 -->
<g id="Node000005" class="node">
<title>Node5</title>
<g id="a_Node000005"><a xlink:href="classARDOUR_1_1SessionHandlePtr.html" target="_top" xlink:title=" ">
<polygon fill="white" stroke="#666666" points="319.5,-294 168.5,-294 168.5,-275 319.5,-275 319.5,-294"/>
<text text-anchor="middle" x="244" y="-282" font-family="Helvetica,sans-Serif" font-size="10.00">ARDOUR::SessionHandlePtr</text>
</a>
</g>
</g>
<!-- Node5&#45;&gt;Node3 -->
<g id="edge4_Node000003_Node000005" class="edge">
<title>Node5&#45;&gt;Node3</title>
<g id="a_edge4_Node000003_Node000005"><a xlink:title=" ">
<path fill="none" stroke="#63b8ff" d="M244,-264.66C244,-255.93 244,-245.99 244,-239.09"/>
<polygon fill="#63b8ff" stroke="#63b8ff" points="240.5,-264.75 244,-274.75 247.5,-264.75 240.5,-264.75"/>
</a>
</g>
</g>
<!-- Node6 -->
<g id="Node000006" class="node">
<title>Node6</title>
<g id="a_Node000006"><a xlink:href="classSelectable.html" target="_top" xlink:title=" ">
<polygon fill="white" stroke="#666666" points="406,-294 338,-294 338,-275 406,-275 406,-294"/>
<text text-anchor="middle" x="372" y="-282" font-family="Helvetica,sans-Serif" font-size="10.00">Selectable</text>
</a>
</g>
</g>
<!-- Node6&#45;&gt;Node3 -->
<g id="edge5_Node000003_Node000006" class="edge">
<title>Node6&#45;&gt;Node3</title>
<g id="a_edge5_Node000003_Node000006"><a xlink:title=" ">
<path fill="none" stroke="#63b8ff" d="M341.88,-271.03C318.21,-261.23 285.85,-247.83 264.94,-239.17"/>
<polygon fill="#63b8ff" stroke="#63b8ff" points="340.86,-274.39 351.43,-274.98 343.53,-267.93 340.86,-274.39"/>
</a>
</g>
</g>
<!-- Node7 -->
<g id="Node000007" class="node">
<title>Node7</title>
<g id="a_Node000007"><a xlink:title=" ">
<polygon fill="white" stroke="#666666" points="415.5,-349 328.5,-349 328.5,-330 415.5,-330 415.5,-349"/>
<text text-anchor="middle" x="372" y="-337" font-family="Helvetica,sans-Serif" font-size="10.00">sigc::trackable</text>
</a>
</g>
</g>
<!-- Node7&#45;&gt;Node6 -->
<g id="edge6_Node000006_Node000007" class="edge">
<title>Node7&#45;&gt;Node6</title>
<g id="a_edge6_Node000006_Node000007"><a xlink:title=" ">
<path fill="none" stroke="#63b8ff" d="M372,-319.66C372,-310.93 372,-300.99 372,-294.09"/>
<polygon fill="#63b8ff" stroke="#63b8ff" points="368.5,-319.75 372,-329.75 375.5,-319.75 368.5,-319.75"/>
</a>
</g>
</g>
<!-- Node8 -->
<g id="Node000008" class="node">
<title>Node8</title>
<g id="a_Node000008"><a xlink:href="classSelectableOwner.html" target="_top" xlink:title=" ">
<polygon fill="white" stroke="#666666" points="392.5,-239 293.5,-239 293.5,-220 392.5,-220 392.5,-239"/>
<text text-anchor="middle" x="343" y="-227" font-family="Helvetica,sans-Serif" font-size="10.00">SelectableOwner</text>
</a>
</g>
</g>
<!-- Node8&#45;&gt;Node2 -->
<g id="edge7_Node000002_Node000008" class="edge">
<title>Node8&#45;&gt;Node2</title>
<g id="a_edge7_Node000002_Node000008"><a xlink:title=" ">
<path fill="none" stroke="#63b8ff" d="M327.66,-212.24C318.9,-202.95 308.26,-191.68 301.1,-184.09"/>
<polygon fill="#63b8ff" stroke="#63b8ff" points="325.34,-214.88 334.74,-219.75 330.43,-210.07 325.34,-214.88"/>
</a>
</g>
</g>
<!-- Node10 -->
<g id="Node000010" class="node">
<title>Node10</title>
<g id="a_Node000010"><a xlink:href="classAudioTimeAxisView.html" target="_top" xlink:title=" ">
<polygon fill="white" stroke="#666666" points="222,-19 108,-19 108,0 222,0 222,-19"/>
<text text-anchor="middle" x="165" y="-7" font-family="Helvetica,sans-Serif" font-size="10.00">AudioTimeAxisView</text>
</a>
</g>
</g>
<!-- Node9&#45;&gt;Node10 -->
<g id="edge9_Node000009_Node000010" class="edge">
<title>Node9&#45;&gt;Node10</title>
<g id="a_edge9_Node000009_Node000010"><a xlink:title=" ">
<path fill="none" stroke="#63b8ff" d="M211.01,-48.6C199.54,-39.11 185.09,-27.13 175.47,-19.17"/>
<polygon fill="#63b8ff" stroke="#63b8ff" points="208.78,-51.3 218.72,-54.98 213.25,-45.91 208.78,-51.3"/>
</a>
</g>
</g>
<!-- Node11 -->
<g id="Node000011" class="node">
<title>Node11</title>
<g id="a_Node000011"><a xlink:href="classMidiTimeAxisView.html" target="_top" xlink:title=" ">
<polygon fill="white" stroke="#666666" points="347.5,-19 240.5,-19 240.5,0 347.5,0 347.5,-19"/>
<text text-anchor="middle" x="294" y="-7" font-family="Helvetica,sans-Serif" font-size="10.00">MidiTimeAxisView</text>
</a>
</g>
</g>
<!-- Node9&#45;&gt;Node11 -->
<g id="edge10_Node000009_Node000011" class="edge">
<title>Node9&#45;&gt;Node11</title>
<g id="a_edge10_Node000009_Node000011"><a xlink:title=" ">
<path fill="none" stroke="#63b8ff" d="M247.27,-48.6C258.92,-39.11 273.6,-27.13 283.37,-19.17"/>
<polygon fill="#63b8ff" stroke="#63b8ff" points="244.98,-45.95 239.44,-54.98 249.41,-51.38 244.98,-45.95"/>
</a>
</g>
</g>
</g>
</svg>
