<?xml version="1.0" encoding="UTF-8" standalone="no"?>
<!DOCTYPE svg PUBLIC "-//W3C//DTD SVG 1.1//EN"
 "http://www.w3.org/Graphics/SVG/1.1/DTD/svg11.dtd">
<!-- Generated by graphviz version 2.43.0 (0)
 -->
<!-- Title: ARDOUR::ExportFormatBWF Pages: 1 -->
<svg width="544pt" height="113pt"
 viewBox="0.00 0.00 544.00 113.00" xmlns="http://www.w3.org/2000/svg" xmlns:xlink="http://www.w3.org/1999/xlink">
<g id="graph0" class="graph" transform="scale(1 1) rotate(0) translate(4 109)">
<title>ARDOUR::ExportFormatBWF</title>
<!-- Node1 -->
<g id="Node000001" class="node">
<title>Node1</title>
<g id="a_Node000001"><a xlink:title=" ">
<polygon fill="#999999" stroke="#666666" points="536,-40 382,-40 382,-21 536,-21 536,-40"/>
<text text-anchor="middle" x="459" y="-28" font-family="Helvetica,sans-Serif" font-size="10.00">ARDOUR::ExportFormatBWF</text>
</a>
</g>
</g>
<!-- Node2 -->
<g id="Node000002" class="node">
<title>Node2</title>
<g id="a_Node000002"><a xlink:href="classARDOUR_1_1ExportFormat.html" target="_top" xlink:title="Base class for formats.">
<polygon fill="white" stroke="#666666" points="334,-62 203,-62 203,-43 334,-43 334,-62"/>
<text text-anchor="middle" x="268.5" y="-50" font-family="Helvetica,sans-Serif" font-size="10.00">ARDOUR::ExportFormat</text>
</a>
</g>
</g>
<!-- Node2&#45;&gt;Node1 -->
<g id="edge1_Node000001_Node000002" class="edge">
<title>Node2&#45;&gt;Node1</title>
<g id="a_edge1_Node000001_Node000002"><a xlink:title=" ">
<path fill="none" stroke="#63b8ff" d="M344.33,-43.77C356.65,-42.33 369.43,-40.84 381.78,-39.4"/>
<polygon fill="#63b8ff" stroke="#63b8ff" points="343.63,-40.32 334.11,-44.96 344.45,-47.28 343.63,-40.32"/>
</a>
</g>
</g>
<!-- Node3 -->
<g id="Node000003" class="node">
<title>Node3</title>
<g id="a_Node000003"><a xlink:href="classARDOUR_1_1ExportFormatBase.html" target="_top" xlink:title=" ">
<polygon fill="white" stroke="#666666" points="155,-105 0,-105 0,-86 155,-86 155,-105"/>
<text text-anchor="middle" x="77.5" y="-93" font-family="Helvetica,sans-Serif" font-size="10.00">ARDOUR::ExportFormatBase</text>
</a>
</g>
</g>
<!-- Node3&#45;&gt;Node2 -->
<g id="edge2_Node000002_Node000003" class="edge">
<title>Node3&#45;&gt;Node2</title>
<g id="a_edge2_Node000002_Node000003"><a xlink:title=" ">
<path fill="none" stroke="#63b8ff" d="M130.31,-83.71C160.3,-76.89 197.56,-68.41 225.67,-62.02"/>
<polygon fill="#63b8ff" stroke="#63b8ff" points="129.42,-80.33 120.45,-85.96 130.97,-87.15 129.42,-80.33"/>
</a>
</g>
</g>
<!-- Node4 -->
<g id="Node000004" class="node">
<title>Node4</title>
<g id="a_Node000004"><a xlink:href="classARDOUR_1_1ExportFormatBase_1_1SelectableCompatible.html" target="_top" xlink:title="Class for managing selection and compatibility states.">
<polygon fill="white" stroke="#666666" points="155,-67.5 0,-67.5 0,-37.5 155,-37.5 155,-67.5"/>
<text text-anchor="start" x="8" y="-55.5" font-family="Helvetica,sans-Serif" font-size="10.00">ARDOUR::ExportFormatBase</text>
<text text-anchor="middle" x="77.5" y="-44.5" font-family="Helvetica,sans-Serif" font-size="10.00">::SelectableCompatible</text>
</a>
</g>
</g>
<!-- Node4&#45;&gt;Node2 -->
<g id="edge3_Node000002_Node000004" class="edge">
<title>Node4&#45;&gt;Node2</title>
<g id="a_edge3_Node000002_Node000004"><a xlink:title=" ">
<path fill="none" stroke="#63b8ff" d="M165.21,-52.5C177.89,-52.5 190.76,-52.5 202.9,-52.5"/>
<polygon fill="#63b8ff" stroke="#63b8ff" points="165.1,-49 155.1,-52.5 165.1,-56 165.1,-49"/>
</a>
</g>
</g>
<!-- Node5 -->
<g id="Node000005" class="node">
<title>Node5</title>
<g id="a_Node000005"><a xlink:href="classARDOUR_1_1HasSampleFormat.html" target="_top" xlink:title="Class to be inherited by export formats that have a selectable sample format.">
<polygon fill="white" stroke="#666666" points="346,-22 191,-22 191,-3 346,-3 346,-22"/>
<text text-anchor="middle" x="268.5" y="-10" font-family="Helvetica,sans-Serif" font-size="10.00">ARDOUR::HasSampleFormat</text>
</a>
</g>
</g>
<!-- Node5&#45;&gt;Node1 -->
<g id="edge4_Node000001_Node000005" class="edge">
<title>Node5&#45;&gt;Node1</title>
<g id="a_edge4_Node000001_Node000005"><a xlink:title=" ">
<path fill="none" stroke="#63b8ff" d="M356.13,-20.77C364.67,-21.59 373.28,-22.41 381.7,-23.21"/>
<polygon fill="#63b8ff" stroke="#63b8ff" points="356.46,-17.29 346.17,-19.82 355.79,-24.26 356.46,-17.29"/>
</a>
</g>
</g>
<!-- Node6 -->
<g id="Node000006" class="node">
<title>Node6</title>
<g id="a_Node000006"><a xlink:href="classPBD_1_1ScopedConnectionList.html" target="_top" xlink:title=" ">
<polygon fill="white" stroke="#666666" points="152.5,-19 2.5,-19 2.5,0 152.5,0 152.5,-19"/>
<text text-anchor="middle" x="77.5" y="-7" font-family="Helvetica,sans-Serif" font-size="10.00">PBD::ScopedConnectionList</text>
</a>
</g>
</g>
<!-- Node6&#45;&gt;Node5 -->
<g id="edge5_Node000005_Node000006" class="edge">
<title>Node6&#45;&gt;Node5</title>
<g id="a_edge5_Node000005_Node000006"><a xlink:title=" ">
<path fill="none" stroke="#63b8ff" d="M162.72,-10.84C172.05,-10.98 181.52,-11.14 190.76,-11.28"/>
<polygon fill="#63b8ff" stroke="#63b8ff" points="162.71,-7.34 152.66,-10.68 162.6,-14.34 162.71,-7.34"/>
</a>
</g>
</g>
</g>
</svg>
