<?xml version="1.0" encoding="UTF-8" standalone="no"?>
<!DOCTYPE svg PUBLIC "-//W3C//DTD SVG 1.1//EN"
 "http://www.w3.org/Graphics/SVG/1.1/DTD/svg11.dtd">
<!-- Generated by graphviz version 2.43.0 (0)
 -->
<!-- Title: ARDOUR::MidiRegion Pages: 1 -->
<svg width="828pt" height="224pt"
 viewBox="0.00 0.00 828.00 224.00" xmlns="http://www.w3.org/2000/svg" xmlns:xlink="http://www.w3.org/1999/xlink">
<g id="graph0" class="graph" transform="scale(1 1) rotate(0) translate(4 220)">
<title>ARDOUR::MidiRegion</title>
<!-- Node1 -->
<g id="Node000001" class="node">
<title>Node1</title>
<g id="a_Node000001"><a xlink:title=" ">
<polygon fill="#999999" stroke="#666666" points="820,-99 700,-99 700,-80 820,-80 820,-99"/>
<text text-anchor="middle" x="760" y="-87" font-family="Helvetica,sans-Serif" font-size="10.00">ARDOUR::MidiRegion</text>
</a>
</g>
</g>
<!-- Node2 -->
<g id="Node000002" class="node">
<title>Node2</title>
<g id="a_Node000002"><a xlink:href="classARDOUR_1_1Region.html" target="_top" xlink:title=" ">
<polygon fill="white" stroke="#666666" points="664,-99 565,-99 565,-80 664,-80 664,-99"/>
<text text-anchor="middle" x="614.5" y="-87" font-family="Helvetica,sans-Serif" font-size="10.00">ARDOUR::Region</text>
</a>
</g>
</g>
<!-- Node2&#45;&gt;Node1 -->
<g id="edge1_Node000001_Node000002" class="edge">
<title>Node2&#45;&gt;Node1</title>
<g id="a_edge1_Node000001_Node000002"><a xlink:title=" ">
<path fill="none" stroke="#63b8ff" d="M674.21,-89.5C682.65,-89.5 691.33,-89.5 699.77,-89.5"/>
<polygon fill="#63b8ff" stroke="#63b8ff" points="674.08,-86 664.08,-89.5 674.08,-93 674.08,-86"/>
</a>
</g>
</g>
<!-- Node3 -->
<g id="Node000003" class="node">
<title>Node3</title>
<g id="a_Node000003"><a xlink:href="classARDOUR_1_1SessionObject.html" target="_top" xlink:title=" ">
<polygon fill="white" stroke="#666666" points="529,-180 395,-180 395,-161 529,-161 529,-180"/>
<text text-anchor="middle" x="462" y="-168" font-family="Helvetica,sans-Serif" font-size="10.00">ARDOUR::SessionObject</text>
</a>
</g>
</g>
<!-- Node3&#45;&gt;Node2 -->
<g id="edge2_Node000002_Node000003" class="edge">
<title>Node3&#45;&gt;Node2</title>
<g id="a_edge2_Node000002_Node000003"><a xlink:title=" ">
<path fill="none" stroke="#63b8ff" d="M503.67,-157.48C512.2,-154.27 521.03,-150.56 529,-146.5 556.28,-132.61 585.28,-111.46 601.21,-99.21"/>
<polygon fill="#63b8ff" stroke="#63b8ff" points="502.43,-154.21 494.22,-160.91 504.81,-160.79 502.43,-154.21"/>
</a>
</g>
</g>
<!-- Node4 -->
<g id="Node000004" class="node">
<title>Node4</title>
<g id="a_Node000004"><a xlink:href="classARDOUR_1_1SessionHandleRef.html" target="_top" xlink:title=" ">
<polygon fill="white" stroke="#666666" points="349.5,-216 195.5,-216 195.5,-197 349.5,-197 349.5,-216"/>
<text text-anchor="middle" x="272.5" y="-204" font-family="Helvetica,sans-Serif" font-size="10.00">ARDOUR::SessionHandleRef</text>
</a>
</g>
</g>
<!-- Node4&#45;&gt;Node3 -->
<g id="edge3_Node000003_Node000004" class="edge">
<title>Node4&#45;&gt;Node3</title>
<g id="a_edge3_Node000003_Node000004"><a xlink:title=" ">
<path fill="none" stroke="#63b8ff" d="M333.41,-195C358.54,-190.17 387.42,-184.63 411.34,-180.03"/>
<polygon fill="#63b8ff" stroke="#63b8ff" points="332.41,-191.62 323.25,-196.95 333.73,-198.5 332.41,-191.62"/>
</a>
</g>
</g>
<!-- Node5 -->
<g id="Node000005" class="node">
<title>Node5</title>
<g id="a_Node000005"><a xlink:href="classPBD_1_1ScopedConnectionList.html" target="_top" xlink:title=" ">
<polygon fill="white" stroke="#666666" points="150,-216 0,-216 0,-197 150,-197 150,-216"/>
<text text-anchor="middle" x="75" y="-204" font-family="Helvetica,sans-Serif" font-size="10.00">PBD::ScopedConnectionList</text>
</a>
</g>
</g>
<!-- Node5&#45;&gt;Node4 -->
<g id="edge4_Node000004_Node000005" class="edge">
<title>Node5&#45;&gt;Node4</title>
<g id="a_edge4_Node000004_Node000005"><a xlink:title=" ">
<path fill="none" stroke="#63b8ff" d="M160.35,-206.5C172,-206.5 183.92,-206.5 195.41,-206.5"/>
<polygon fill="#63b8ff" stroke="#63b8ff" points="160.19,-203 150.19,-206.5 160.19,-210 160.19,-203"/>
</a>
</g>
</g>
<!-- Node6 -->
<g id="Node000006" class="node">
<title>Node6</title>
<g id="a_Node000006"><a xlink:href="classPBD_1_1StatefulDestructible.html" target="_top" xlink:title=" ">
<polygon fill="white" stroke="#666666" points="342.5,-179 202.5,-179 202.5,-160 342.5,-160 342.5,-179"/>
<text text-anchor="middle" x="272.5" y="-167" font-family="Helvetica,sans-Serif" font-size="10.00">PBD::StatefulDestructible</text>
</a>
</g>
</g>
<!-- Node6&#45;&gt;Node3 -->
<g id="edge5_Node000003_Node000006" class="edge">
<title>Node6&#45;&gt;Node3</title>
<g id="a_edge5_Node000003_Node000006"><a xlink:title=" ">
<path fill="none" stroke="#63b8ff" d="M352.67,-169.92C366.75,-170 381.27,-170.07 394.93,-170.15"/>
<polygon fill="#63b8ff" stroke="#63b8ff" points="352.54,-166.42 342.52,-169.87 352.5,-173.42 352.54,-166.42"/>
</a>
</g>
</g>
<!-- Node7 -->
<g id="Node000007" class="node">
<title>Node7</title>
<g id="a_Node000007"><a xlink:href="classPBD_1_1Stateful.html" target="_top" xlink:title=" ">
<polygon fill="white" stroke="#666666" points="115.5,-179 34.5,-179 34.5,-160 115.5,-160 115.5,-179"/>
<text text-anchor="middle" x="75" y="-167" font-family="Helvetica,sans-Serif" font-size="10.00">PBD::Stateful</text>
</a>
</g>
</g>
<!-- Node7&#45;&gt;Node6 -->
<g id="edge6_Node000006_Node000007" class="edge">
<title>Node7&#45;&gt;Node6</title>
<g id="a_edge6_Node000006_Node000007"><a xlink:title=" ">
<path fill="none" stroke="#63b8ff" d="M125.87,-169.5C149.09,-169.5 177.1,-169.5 202.32,-169.5"/>
<polygon fill="#63b8ff" stroke="#63b8ff" points="125.56,-166 115.56,-169.5 125.56,-173 125.56,-166"/>
</a>
</g>
</g>
<!-- Node8 -->
<g id="Node000008" class="node">
<title>Node8</title>
<g id="a_Node000008"><a xlink:href="classPBD_1_1Destructible.html" target="_top" xlink:title=" ">
<polygon fill="white" stroke="#666666" points="126,-142 24,-142 24,-123 126,-123 126,-142"/>
<text text-anchor="middle" x="75" y="-130" font-family="Helvetica,sans-Serif" font-size="10.00">PBD::Destructible</text>
</a>
</g>
</g>
<!-- Node8&#45;&gt;Node6 -->
<g id="edge7_Node000006_Node000008" class="edge">
<title>Node8&#45;&gt;Node6</title>
<g id="a_edge7_Node000006_Node000008"><a xlink:title=" ">
<path fill="none" stroke="#63b8ff" d="M135.92,-143.84C163.22,-149.01 195.17,-155.05 221.2,-159.98"/>
<polygon fill="#63b8ff" stroke="#63b8ff" points="136.57,-140.4 126.09,-141.98 135.27,-147.28 136.57,-140.4"/>
</a>
</g>
</g>
<!-- Node12 -->
<g id="Node000012" class="node">
<title>Node12</title>
<g id="a_Node000012"><a xlink:href="structTemporal_1_1TimeDomainSwapper.html" target="_top" xlink:title=" ">
<polygon fill="white" stroke="#666666" points="359,-142 186,-142 186,-123 359,-123 359,-142"/>
<text text-anchor="middle" x="272.5" y="-130" font-family="Helvetica,sans-Serif" font-size="10.00">Temporal::TimeDomainSwapper</text>
</a>
</g>
</g>
<!-- Node8&#45;&gt;Node12 -->
<g id="edge12_Node000012_Node000008" class="edge">
<title>Node8&#45;&gt;Node12</title>
<g id="a_edge12_Node000012_Node000008"><a xlink:title=" ">
<path fill="none" stroke="#63b8ff" d="M136.17,-132.5C151.88,-132.5 169.11,-132.5 185.86,-132.5"/>
<polygon fill="#63b8ff" stroke="#63b8ff" points="136.09,-129 126.09,-132.5 136.09,-136 136.09,-129"/>
</a>
</g>
</g>
<!-- Node9 -->
<g id="Node000009" class="node">
<title>Node9</title>
<g id="a_Node000009"><a xlink:title=" ">
<polygon fill="white" stroke="#666666" points="524.5,-104.5 399.5,-104.5 399.5,-74.5 524.5,-74.5 524.5,-104.5"/>
<text text-anchor="start" x="407.5" y="-92.5" font-family="Helvetica,sans-Serif" font-size="10.00">std::enable_shared</text>
<text text-anchor="middle" x="462" y="-81.5" font-family="Helvetica,sans-Serif" font-size="10.00">_from_this&lt; Region &gt;</text>
</a>
</g>
</g>
<!-- Node9&#45;&gt;Node2 -->
<g id="edge8_Node000002_Node000009" class="edge">
<title>Node9&#45;&gt;Node2</title>
<g id="a_edge8_Node000002_Node000009"><a xlink:title=" ">
<path fill="none" stroke="#63b8ff" d="M534.72,-89.5C544.84,-89.5 555.05,-89.5 564.61,-89.5"/>
<polygon fill="#63b8ff" stroke="#63b8ff" points="534.65,-86 524.65,-89.5 534.65,-93 534.65,-86"/>
</a>
</g>
</g>
<!-- Node10 -->
<g id="Node000010" class="node">
<title>Node10</title>
<g id="a_Node000010"><a xlink:href="classARDOUR_1_1Trimmable.html" target="_top" xlink:title=" ">
<polygon fill="white" stroke="#666666" points="520.5,-56 403.5,-56 403.5,-37 520.5,-37 520.5,-56"/>
<text text-anchor="middle" x="462" y="-44" font-family="Helvetica,sans-Serif" font-size="10.00">ARDOUR::Trimmable</text>
</a>
</g>
</g>
<!-- Node10&#45;&gt;Node2 -->
<g id="edge9_Node000002_Node000010" class="edge">
<title>Node10&#45;&gt;Node2</title>
<g id="a_edge9_Node000002_Node000010"><a xlink:title=" ">
<path fill="none" stroke="#63b8ff" d="M506.14,-58.83C529.68,-65.55 558.39,-73.75 580.19,-79.98"/>
<polygon fill="#63b8ff" stroke="#63b8ff" points="506.98,-55.43 496.4,-56.04 505.05,-62.16 506.98,-55.43"/>
</a>
</g>
</g>
<!-- Node11 -->
<g id="Node000011" class="node">
<title>Node11</title>
<g id="a_Node000011"><a xlink:href="classARDOUR_1_1Movable.html" target="_top" xlink:title=" ">
<polygon fill="white" stroke="#666666" points="515.5,-19 408.5,-19 408.5,0 515.5,0 515.5,-19"/>
<text text-anchor="middle" x="462" y="-7" font-family="Helvetica,sans-Serif" font-size="10.00">ARDOUR::Movable</text>
</a>
</g>
</g>
<!-- Node11&#45;&gt;Node2 -->
<g id="edge10_Node000002_Node000011" class="edge">
<title>Node11&#45;&gt;Node2</title>
<g id="a_edge10_Node000002_Node000011"><a xlink:title=" ">
<path fill="none" stroke="#63b8ff" d="M516.37,-22.21C520.72,-23.8 524.98,-25.56 529,-27.5 558.33,-41.66 587.96,-66.33 603.13,-79.89"/>
<polygon fill="#63b8ff" stroke="#63b8ff" points="517.38,-18.86 506.79,-19 515.16,-25.5 517.38,-18.86"/>
</a>
</g>
</g>
<!-- Node12&#45;&gt;Node2 -->
<g id="edge11_Node000002_Node000012" class="edge">
<title>Node12&#45;&gt;Node2</title>
<g id="a_edge11_Node000002_Node000012"><a xlink:title=" ">
<path fill="none" stroke="#63b8ff" d="M369.32,-129.97C417.51,-127.54 476.66,-122.78 529,-113.5 548.07,-110.12 569.02,-104.19 585.28,-99.06"/>
<polygon fill="#63b8ff" stroke="#63b8ff" points="369.03,-126.48 359.2,-130.45 369.36,-133.47 369.03,-126.48"/>
</a>
</g>
</g>
</g>
</svg>
