<?xml version="1.0" encoding="UTF-8" standalone="no"?>
<!DOCTYPE svg PUBLIC "-//W3C//DTD SVG 1.1//EN"
 "http://www.w3.org/Graphics/SVG/1.1/DTD/svg11.dtd">
<!-- Generated by graphviz version 2.43.0 (0)
 -->
<!-- Title: Gtkmm2ext::Activatable Pages: 1 -->
<!--zoomable 193 -->

<svg id="main" version="1.1" xmlns="http://www.w3.org/2000/svg" xmlns:xlink="http://www.w3.org/1999/xlink" xml:space="preserve" onload="init(evt)">
<style type="text/css"><![CDATA[
.node, .edge {opacity: 0.7;}
.node.selected, .edge.selected {opacity: 1;}
.edge:hover path { stroke: red; }
.edge:hover polygon { stroke: red; fill: red; }
]]></style>

<defs>
  <circle id="rim" cx="0" cy="0" r="7"/>
  <circle id="rim2" cx="0" cy="0" r="3.5"/>
  <g id="zoomPlus">
    <use xlink:href="#rim" fill="#404040"><set attributeName="fill" to="#808080" begin="zoomplus.mouseover" end="zoomplus.mouseout"/></use>
    <path d="M-4,0h8M0,-4v8" fill="none" stroke="white" stroke-width="1.5" pointer-events="none"/>
  </g>
  <g id="zoomMin">
    <use xlink:href="#rim" fill="#404040"><set attributeName="fill" to="#808080" begin="zoomminus.mouseover" end="zoomminus.mouseout"/></use>
    <path d="M-4,0h8" fill="none" stroke="white" stroke-width="1.5" pointer-events="none"/>
  </g>
  <g id="arrowUp" transform="translate(30 24)">
    <use xlink:href="#rim"/>
    <path pointer-events="none" fill="none" stroke="white" stroke-width="1.5" d="M0,-3.0v7 M-2.5,-0.5L0,-3.0L2.5,-0.5"/>
  </g>
  <g id="arrowRight" transform="rotate(90) translate(36 -43)">
    <use xlink:href="#rim"/>
    <path pointer-events="none" fill="none" stroke="white" stroke-width="1.5" d="M0,-3.0v7 M-2.5,-0.5L0,-3.0L2.5,-0.5"/>
  </g>
  <g id="arrowDown" transform="rotate(180) translate(-30 -48)">
    <use xlink:href="#rim"/>
    <path pointer-events="none" fill="none" stroke="white" stroke-width="1.5" d="M0,-3.0v7 M-2.5,-0.5L0,-3.0L2.5,-0.5"/>
  </g>
  <g id="arrowLeft" transform="rotate(270) translate(-36 17)">
    <use xlink:href="#rim"/>
    <path pointer-events="none" fill="none" stroke="white" stroke-width="1.5" d="M0,-3.0v7 M-2.5,-0.5L0,-3.0L2.5,-0.5"/>
  </g>
  <g id="resetDef">
    <use xlink:href="#rim2" fill="#404040"><set attributeName="fill" to="#808080" begin="reset.mouseover" end="reset.mouseout"/></use>
  </g>
</defs>
<script type="application/ecmascript">
var viewWidth = 761;
var viewHeight = 193;
var sectionId = 'dynsection-0';
</script>
<script type="application/ecmascript" xlink:href="svg.min.js"/>
<svg id="graph" class="graph">
<g id="viewport">
<title>Gtkmm2ext::Activatable</title>
<!-- Node1 -->
<g id="Node000001" class="node">
<title>Node1</title>
<g id="a_Node000001"><a xlink:title=" ">
<polygon fill="#999999" stroke="#666666" points="137,-56 0,-56 0,-37 137,-37 137,-56"/>
<text text-anchor="middle" x="68.5" y="-44" font-family="Helvetica,sans-Serif" font-size="10.00">Gtkmm2ext::Activatable</text>
</a>
</g>
</g>
<!-- Node2 -->
<g id="Node000002" class="node">
<title>Node2</title>
<g id="a_Node000002"><a xlink:href="classArdourWidgets_1_1ArdourButton.html" target="_top" xlink:title=" ">
<polygon fill="white" stroke="#666666" points="336.5,-111 177.5,-111 177.5,-92 336.5,-92 336.5,-111"/>
<text text-anchor="middle" x="257" y="-99" font-family="Helvetica,sans-Serif" font-size="10.00">ArdourWidgets::ArdourButton</text>
</a>
</g>
</g>
<!-- Node1&#45;&gt;Node2 -->
<g id="edge1_Node000001_Node000002" class="edge">
<title>Node1&#45;&gt;Node2</title>
<g id="a_edge1_Node000001_Node000002"><a xlink:title=" ">
<path fill="none" stroke="#63b8ff" d="M111.62,-58.92C145.54,-68.93 192.53,-82.78 223.57,-91.94"/>
<polygon fill="#63b8ff" stroke="#63b8ff" points="112.57,-55.55 101.99,-56.08 110.59,-62.27 112.57,-55.55"/>
</a>
</g>
</g>
<!-- Node10 -->
<g id="Node000010" class="node">
<title>Node10</title>
<g id="a_Node000010"><a xlink:href="classArdourWidgets_1_1ArdourCtrlBase.html" target="_top" xlink:title=" ">
<polygon fill="white" stroke="#666666" points="341,-56 173,-56 173,-37 341,-37 341,-56"/>
<text text-anchor="middle" x="257" y="-44" font-family="Helvetica,sans-Serif" font-size="10.00">ArdourWidgets::ArdourCtrlBase</text>
</a>
</g>
</g>
<!-- Node1&#45;&gt;Node10 -->
<g id="edge9_Node000001_Node000010" class="edge">
<title>Node1&#45;&gt;Node10</title>
<g id="a_edge9_Node000001_Node000010"><a xlink:title=" ">
<path fill="none" stroke="#63b8ff" d="M147.25,-46.5C155.67,-46.5 164.25,-46.5 172.73,-46.5"/>
<polygon fill="#63b8ff" stroke="#63b8ff" points="147.09,-43 137.09,-46.5 147.09,-50 147.09,-43"/>
</a>
</g>
</g>
<!-- Node12 -->
<g id="Node000012" class="node">
<title>Node12</title>
<g id="a_Node000012"><a xlink:href="classCheckOption.html" target="_top" xlink:title=" ">
<polygon fill="white" stroke="#666666" points="296.5,-19 217.5,-19 217.5,0 296.5,0 296.5,-19"/>
<text text-anchor="middle" x="257" y="-7" font-family="Helvetica,sans-Serif" font-size="10.00">CheckOption</text>
</a>
</g>
</g>
<!-- Node1&#45;&gt;Node12 -->
<g id="edge11_Node000001_Node000012" class="edge">
<title>Node1&#45;&gt;Node12</title>
<g id="a_edge11_Node000001_Node000012"><a xlink:title=" ">
<path fill="none" stroke="#63b8ff" d="M127.6,-34.97C156.77,-29.19 191.32,-22.33 217.22,-17.19"/>
<polygon fill="#63b8ff" stroke="#63b8ff" points="126.66,-31.59 117.53,-36.97 128.02,-38.46 126.66,-31.59"/>
</a>
</g>
</g>
<!-- Node3 -->
<g id="Node000003" class="node">
<title>Node3</title>
<g id="a_Node000003"><a xlink:href="classArdourWidgets_1_1ArdourDropdown.html" target="_top" xlink:title=" ">
<polygon fill="white" stroke="#666666" points="553,-185 377,-185 377,-166 553,-166 553,-185"/>
<text text-anchor="middle" x="465" y="-173" font-family="Helvetica,sans-Serif" font-size="10.00">ArdourWidgets::ArdourDropdown</text>
</a>
</g>
</g>
<!-- Node2&#45;&gt;Node3 -->
<g id="edge2_Node000002_Node000003" class="edge">
<title>Node2&#45;&gt;Node3</title>
<g id="a_edge2_Node000002_Node000003"><a xlink:title=" ">
<path fill="none" stroke="#63b8ff" d="M284.23,-116.05C307.86,-128.62 343.88,-146.45 377,-157.5 386.8,-160.77 397.43,-163.56 407.79,-165.9"/>
<polygon fill="#63b8ff" stroke="#63b8ff" points="285.67,-112.85 275.21,-111.19 282.35,-119.01 285.67,-112.85"/>
</a>
</g>
</g>
<!-- Node5 -->
<g id="Node000005" class="node">
<title>Node5</title>
<g id="a_Node000005"><a xlink:href="classArdourWidgets_1_1MetaButton.html" target="_top" xlink:title=" ">
<polygon fill="white" stroke="#666666" points="541,-148 389,-148 389,-129 541,-129 541,-148"/>
<text text-anchor="middle" x="465" y="-136" font-family="Helvetica,sans-Serif" font-size="10.00">ArdourWidgets::MetaButton</text>
</a>
</g>
</g>
<!-- Node2&#45;&gt;Node5 -->
<g id="edge4_Node000002_Node000005" class="edge">
<title>Node2&#45;&gt;Node5</title>
<g id="a_edge4_Node000002_Node000005"><a xlink:title=" ">
<path fill="none" stroke="#63b8ff" d="M320.99,-112.81C349.7,-117.97 383.34,-124.01 410.77,-128.94"/>
<polygon fill="#63b8ff" stroke="#63b8ff" points="321.51,-109.35 311.05,-111.03 320.27,-116.24 321.51,-109.35"/>
</a>
</g>
</g>
<!-- Node6 -->
<g id="Node000006" class="node">
<title>Node6</title>
<g id="a_Node000006"><a xlink:href="classIOButtonBase.html" target="_top" xlink:title=" ">
<polygon fill="white" stroke="#666666" points="506.5,-111 423.5,-111 423.5,-92 506.5,-92 506.5,-111"/>
<text text-anchor="middle" x="465" y="-99" font-family="Helvetica,sans-Serif" font-size="10.00">IOButtonBase</text>
</a>
</g>
</g>
<!-- Node2&#45;&gt;Node6 -->
<g id="edge5_Node000002_Node000006" class="edge">
<title>Node2&#45;&gt;Node6</title>
<g id="a_edge5_Node000002_Node000006"><a xlink:title=" ">
<path fill="none" stroke="#63b8ff" d="M346.89,-101.5C373.52,-101.5 401.44,-101.5 423.33,-101.5"/>
<polygon fill="#63b8ff" stroke="#63b8ff" points="346.76,-98 336.76,-101.5 346.76,-105 346.76,-98"/>
</a>
</g>
</g>
<!-- Node9 -->
<g id="Node000009" class="node">
<title>Node9</title>
<g id="a_Node000009"><a xlink:href="classShuttleInfoButton.html" target="_top" xlink:title=" ">
<polygon fill="white" stroke="#666666" points="516,-74 414,-74 414,-55 516,-55 516,-74"/>
<text text-anchor="middle" x="465" y="-62" font-family="Helvetica,sans-Serif" font-size="10.00">ShuttleInfoButton</text>
</a>
</g>
</g>
<!-- Node2&#45;&gt;Node9 -->
<g id="edge8_Node000002_Node000009" class="edge">
<title>Node2&#45;&gt;Node9</title>
<g id="a_edge8_Node000002_Node000009"><a xlink:title=" ">
<path fill="none" stroke="#63b8ff" d="M320.95,-90.19C350.8,-84.83 385.97,-78.52 413.96,-73.49"/>
<polygon fill="#63b8ff" stroke="#63b8ff" points="320.27,-86.76 311.05,-91.97 321.51,-93.65 320.27,-86.76"/>
</a>
</g>
</g>
<!-- Node4 -->
<g id="Node000004" class="node">
<title>Node4</title>
<g id="a_Node000004"><a xlink:href="classArdourWidgets_1_1ArdourDisplay.html" target="_top" xlink:title=" ">
<polygon fill="white" stroke="#666666" points="753,-185 589,-185 589,-166 753,-166 753,-185"/>
<text text-anchor="middle" x="671" y="-173" font-family="Helvetica,sans-Serif" font-size="10.00">ArdourWidgets::ArdourDisplay</text>
</a>
</g>
</g>
<!-- Node3&#45;&gt;Node4 -->
<g id="edge3_Node000003_Node000004" class="edge">
<title>Node3&#45;&gt;Node4</title>
<g id="a_edge3_Node000003_Node000004"><a xlink:title=" ">
<path fill="none" stroke="#63b8ff" d="M563.12,-175.5C571.67,-175.5 580.28,-175.5 588.68,-175.5"/>
<polygon fill="#63b8ff" stroke="#63b8ff" points="563.11,-172 553.11,-175.5 563.11,-179 563.11,-172"/>
</a>
</g>
</g>
<!-- Node7 -->
<g id="Node000007" class="node">
<title>Node7</title>
<g id="a_Node000007"><a xlink:href="classIOButton.html" target="_top" xlink:title=" ">
<polygon fill="white" stroke="#666666" points="700.5,-130 641.5,-130 641.5,-111 700.5,-111 700.5,-130"/>
<text text-anchor="middle" x="671" y="-118" font-family="Helvetica,sans-Serif" font-size="10.00">IOButton</text>
</a>
</g>
</g>
<!-- Node6&#45;&gt;Node7 -->
<g id="edge6_Node000006_Node000007" class="edge">
<title>Node6&#45;&gt;Node7</title>
<g id="a_edge6_Node000006_Node000007"><a xlink:title=" ">
<path fill="none" stroke="#63b8ff" d="M516.98,-106.25C556.3,-109.91 609.24,-114.84 641.43,-117.84"/>
<polygon fill="#63b8ff" stroke="#63b8ff" points="517.07,-102.74 506.79,-105.3 516.42,-109.71 517.07,-102.74"/>
</a>
</g>
</g>
<!-- Node8 -->
<g id="Node000008" class="node">
<title>Node8</title>
<g id="a_Node000008"><a xlink:href="classIOPluginWindow_1_1IOButton.html" target="_top" xlink:title=" ">
<polygon fill="white" stroke="#666666" points="743,-93 599,-93 599,-74 743,-74 743,-93"/>
<text text-anchor="middle" x="671" y="-81" font-family="Helvetica,sans-Serif" font-size="10.00">IOPluginWindow::IOButton</text>
</a>
</g>
</g>
<!-- Node6&#45;&gt;Node8 -->
<g id="edge7_Node000006_Node000008" class="edge">
<title>Node6&#45;&gt;Node8</title>
<g id="a_edge7_Node000006_Node000008"><a xlink:title=" ">
<path fill="none" stroke="#63b8ff" d="M517.02,-97C541.73,-94.82 571.79,-92.17 598.72,-89.79"/>
<polygon fill="#63b8ff" stroke="#63b8ff" points="516.45,-93.54 506.79,-97.9 517.06,-100.51 516.45,-93.54"/>
</a>
</g>
</g>
<!-- Node11 -->
<g id="Node000011" class="node">
<title>Node11</title>
<g id="a_Node000011"><a xlink:href="classArdourWidgets_1_1ArdourKnob.html" target="_top" xlink:title=" ">
<polygon fill="white" stroke="#666666" points="541,-37 389,-37 389,-18 541,-18 541,-37"/>
<text text-anchor="middle" x="465" y="-25" font-family="Helvetica,sans-Serif" font-size="10.00">ArdourWidgets::ArdourKnob</text>
</a>
</g>
</g>
<!-- Node10&#45;&gt;Node11 -->
<g id="edge10_Node000010_Node000011" class="edge">
<title>Node10&#45;&gt;Node11</title>
<g id="a_edge10_Node000010_Node000011"><a xlink:title=" ">
<path fill="none" stroke="#63b8ff" d="M351.23,-37.9C363.81,-36.74 376.59,-35.56 388.81,-34.44"/>
<polygon fill="#63b8ff" stroke="#63b8ff" points="350.83,-34.42 341.19,-38.83 351.47,-41.39 350.83,-34.42"/>
</a>
</g>
</g>
</g>
</svg>

<g id="navigator" transform="translate(0 0)" fill="#404254">
  <rect fill="#f2f5e9" fill-opacity="0.5" stroke="#606060" stroke-width=".5" x="0" y="0" width="60" height="60"/>
  <use id="zoomplus" xlink:href="#zoomPlus" x="17" y="9" onmousedown="handleZoom(evt,'in')"/>
  <use id="zoomminus" xlink:href="#zoomMin" x="42" y="9" onmousedown="handleZoom(evt,'out')"/>
  <use id="reset" xlink:href="#resetDef" x="30" y="36" onmousedown="handleReset()"/>
   <use id="arrowup" xlink:href="#arrowUp" x="0" y="0" onmousedown="handlePan(0,-1)"/>
  <use id="arrowright" xlink:href="#arrowRight" x="0" y="0" onmousedown="handlePan(1,0)"/>
  <use id="arrowdown" xlink:href="#arrowDown" x="0" y="0" onmousedown="handlePan(0,1)"/>
  <use id="arrowleft" xlink:href="#arrowLeft" x="0" y="0" onmousedown="handlePan(-1,0)"/>
</g>
<svg viewBox="0 0 15 15" width="100%" height="30px" preserveAspectRatio="xMaxYMin meet">
 <g id="arrow_out" transform="scale(0.3 0.3)">
  <a xlink:href="classGtkmm2ext_1_1Activatable__inherit__graph_org.svg" target="_base">
   <rect id="button" ry="5" rx="5" y="6" x="6" height="38" width="38"
        fill="#f2f5e9" fill-opacity="0.5" stroke="#606060" stroke-width="1.0"/>
   <path id="arrow"
     d="M 11.500037,31.436501 C 11.940474,20.09759 22.043105,11.32322 32.158766,21.979434 L 37.068811,17.246167 C 37.068811,17.246167 37.088388,32 37.088388,32 L 22.160133,31.978069 C 22.160133,31.978069 26.997745,27.140456 26.997745,27.140456 C 18.528582,18.264221 13.291696,25.230495 11.500037,31.436501 z"
     style="fill:#404040;"/>
  </a>
 </g>
</svg>

<style type='text/css'>
<![CDATA[
[data-mouse-over-selected='false'] { opacity: 0.7; }
[data-mouse-over-selected='true']  { opacity: 1.0; }
]]>
</style>
<script type="application/ecmascript"><![CDATA[
document.addEventListener('DOMContentLoaded', (event) => {
  highlightEdges();
  highlightAdjacentNodes();
});
]]></script>
</svg>
