<?xml version="1.0" encoding="UTF-8" standalone="no"?>
<!DOCTYPE svg PUBLIC "-//W3C//DTD SVG 1.1//EN"
 "http://www.w3.org/Graphics/SVG/1.1/DTD/svg11.dtd">
<!-- Generated by graphviz version 2.43.0 (0)
 -->
<!-- Title: ARDOUR::ExportFormatBase::SelectableCompatible Pages: 1 -->
<svg width="815pt" height="368pt"
 viewBox="0.00 0.00 815.00 367.50" xmlns="http://www.w3.org/2000/svg" xmlns:xlink="http://www.w3.org/1999/xlink">
<g id="graph0" class="graph" transform="scale(1 1) rotate(0) translate(4 363.5)">
<title>ARDOUR::ExportFormatBase::SelectableCompatible</title>
<!-- Node1 -->
<g id="Node000001" class="node">
<title>Node1</title>
<g id="a_Node000001"><a xlink:title="Class for managing selection and compatibility states.">
<polygon fill="#999999" stroke="#666666" points="155,-150 0,-150 0,-120 155,-120 155,-150"/>
<text text-anchor="start" x="8" y="-138" font-family="Helvetica,sans-Serif" font-size="10.00">ARDOUR::ExportFormatBase</text>
<text text-anchor="middle" x="77.5" y="-127" font-family="Helvetica,sans-Serif" font-size="10.00">::SelectableCompatible</text>
</a>
</g>
</g>
<!-- Node2 -->
<g id="Node000002" class="node">
<title>Node2</title>
<g id="a_Node000002"><a xlink:href="classARDOUR_1_1ExportFormat.html" target="_top" xlink:title="Base class for formats.">
<polygon fill="white" stroke="#666666" points="355,-248.5 224,-248.5 224,-229.5 355,-229.5 355,-248.5"/>
<text text-anchor="middle" x="289.5" y="-236.5" font-family="Helvetica,sans-Serif" font-size="10.00">ARDOUR::ExportFormat</text>
</a>
</g>
</g>
<!-- Node1&#45;&gt;Node2 -->
<g id="edge1_Node000001_Node000002" class="edge">
<title>Node1&#45;&gt;Node2</title>
<g id="a_edge1_Node000001_Node000002"><a xlink:title=" ">
<path fill="none" stroke="#63b8ff" d="M100.6,-157.05C121.9,-176.96 155.98,-205.46 191,-221 201.23,-225.54 212.55,-228.93 223.74,-231.47"/>
<polygon fill="#63b8ff" stroke="#63b8ff" points="103,-154.51 93.35,-150.14 98.17,-159.57 103,-154.51"/>
</a>
</g>
</g>
<!-- Node11 -->
<g id="Node000011" class="node">
<title>Node11</title>
<g id="a_Node000011"><a xlink:href="classARDOUR_1_1ExportFormatCompatibility.html" target="_top" xlink:title="Allows adding to all sets. A format should be able to test if it is compatible with this.">
<polygon fill="white" stroke="#666666" points="388,-211.5 191,-211.5 191,-192.5 388,-192.5 388,-211.5"/>
<text text-anchor="middle" x="289.5" y="-199.5" font-family="Helvetica,sans-Serif" font-size="10.00">ARDOUR::ExportFormatCompatibility</text>
</a>
</g>
</g>
<!-- Node1&#45;&gt;Node11 -->
<g id="edge10_Node000001_Node000011" class="edge">
<title>Node1&#45;&gt;Node11</title>
<g id="a_edge10_Node000001_Node000011"><a xlink:title=" ">
<path fill="none" stroke="#63b8ff" d="M118.2,-154.37C139.4,-164.09 166.18,-175.38 191,-183 203.12,-186.72 216.31,-189.87 228.97,-192.47"/>
<polygon fill="#63b8ff" stroke="#63b8ff" points="119.43,-151.08 108.88,-150.04 116.47,-157.43 119.43,-151.08"/>
</a>
</g>
</g>
<!-- Node12 -->
<g id="Node000012" class="node">
<title>Node12</title>
<g id="a_Node000012"><a xlink:href="classARDOUR_1_1ExportFormatManager_1_1QualityState.html" target="_top" xlink:title=" ">
<polygon fill="white" stroke="#666666" points="376.5,-174 202.5,-174 202.5,-144 376.5,-144 376.5,-174"/>
<text text-anchor="start" x="210.5" y="-162" font-family="Helvetica,sans-Serif" font-size="10.00">ARDOUR::ExportFormatManager</text>
<text text-anchor="middle" x="289.5" y="-151" font-family="Helvetica,sans-Serif" font-size="10.00">::QualityState</text>
</a>
</g>
</g>
<!-- Node1&#45;&gt;Node12 -->
<g id="edge11_Node000001_Node000012" class="edge">
<title>Node1&#45;&gt;Node12</title>
<g id="a_edge11_Node000001_Node000012"><a xlink:title=" ">
<path fill="none" stroke="#63b8ff" d="M165.39,-144.93C177.62,-146.33 190.2,-147.77 202.42,-149.16"/>
<polygon fill="#63b8ff" stroke="#63b8ff" points="165.54,-141.42 155.21,-143.77 164.74,-148.38 165.54,-141.42"/>
</a>
</g>
</g>
<!-- Node13 -->
<g id="Node000013" class="node">
<title>Node13</title>
<g id="a_Node000013"><a xlink:href="classARDOUR_1_1ExportFormatManager_1_1SampleRateState.html" target="_top" xlink:title=" ">
<polygon fill="white" stroke="#666666" points="376.5,-126 202.5,-126 202.5,-96 376.5,-96 376.5,-126"/>
<text text-anchor="start" x="210.5" y="-114" font-family="Helvetica,sans-Serif" font-size="10.00">ARDOUR::ExportFormatManager</text>
<text text-anchor="middle" x="289.5" y="-103" font-family="Helvetica,sans-Serif" font-size="10.00">::SampleRateState</text>
</a>
</g>
</g>
<!-- Node1&#45;&gt;Node13 -->
<g id="edge12_Node000001_Node000013" class="edge">
<title>Node1&#45;&gt;Node13</title>
<g id="a_edge12_Node000001_Node000013"><a xlink:title=" ">
<path fill="none" stroke="#63b8ff" d="M165.39,-125.07C177.62,-123.67 190.2,-122.23 202.42,-120.84"/>
<polygon fill="#63b8ff" stroke="#63b8ff" points="164.74,-121.62 155.21,-126.23 165.54,-128.58 164.74,-121.62"/>
</a>
</g>
</g>
<!-- Node14 -->
<g id="Node000014" class="node">
<title>Node14</title>
<g id="a_Node000014"><a xlink:href="classARDOUR_1_1HasSampleFormat_1_1DitherTypeState.html" target="_top" xlink:title=" ">
<polygon fill="white" stroke="#666666" points="367,-78 212,-78 212,-48 367,-48 367,-78"/>
<text text-anchor="start" x="220" y="-66" font-family="Helvetica,sans-Serif" font-size="10.00">ARDOUR::HasSampleFormat</text>
<text text-anchor="middle" x="289.5" y="-55" font-family="Helvetica,sans-Serif" font-size="10.00">::DitherTypeState</text>
</a>
</g>
</g>
<!-- Node1&#45;&gt;Node14 -->
<g id="edge13_Node000001_Node000014" class="edge">
<title>Node1&#45;&gt;Node14</title>
<g id="a_edge13_Node000001_Node000014"><a xlink:title=" ">
<path fill="none" stroke="#63b8ff" d="M119.27,-115.71C140.36,-106.22 166.72,-95.11 191,-87 200.67,-83.77 211.02,-80.76 221.22,-78.04"/>
<polygon fill="#63b8ff" stroke="#63b8ff" points="117.63,-112.62 109.97,-119.95 120.53,-118.99 117.63,-112.62"/>
</a>
</g>
</g>
<!-- Node15 -->
<g id="Node000015" class="node">
<title>Node15</title>
<g id="a_Node000015"><a xlink:href="classARDOUR_1_1HasSampleFormat_1_1SampleFormatState.html" target="_top" xlink:title=" ">
<polygon fill="white" stroke="#666666" points="367,-30 212,-30 212,0 367,0 367,-30"/>
<text text-anchor="start" x="220" y="-18" font-family="Helvetica,sans-Serif" font-size="10.00">ARDOUR::HasSampleFormat</text>
<text text-anchor="middle" x="289.5" y="-7" font-family="Helvetica,sans-Serif" font-size="10.00">::SampleFormatState</text>
</a>
</g>
</g>
<!-- Node1&#45;&gt;Node15 -->
<g id="edge14_Node000001_Node000015" class="edge">
<title>Node1&#45;&gt;Node15</title>
<g id="a_edge14_Node000001_Node000015"><a xlink:title=" ">
<path fill="none" stroke="#63b8ff" d="M98.9,-112.3C119.89,-90.32 154.58,-57.68 191,-39 197.75,-35.54 205.02,-32.56 212.44,-30"/>
<polygon fill="#63b8ff" stroke="#63b8ff" points="96.1,-110.17 91.81,-119.86 101.2,-114.96 96.1,-110.17"/>
</a>
</g>
</g>
<!-- Node3 -->
<g id="Node000003" class="node">
<title>Node3</title>
<g id="a_Node000003"><a xlink:href="classARDOUR_1_1ExportFormatBWF.html" target="_top" xlink:title=" ">
<polygon fill="white" stroke="#666666" points="591.5,-359.5 437.5,-359.5 437.5,-340.5 591.5,-340.5 591.5,-359.5"/>
<text text-anchor="middle" x="514.5" y="-347.5" font-family="Helvetica,sans-Serif" font-size="10.00">ARDOUR::ExportFormatBWF</text>
</a>
</g>
</g>
<!-- Node2&#45;&gt;Node3 -->
<g id="edge2_Node000002_Node000003" class="edge">
<title>Node2&#45;&gt;Node3</title>
<g id="a_edge2_Node000002_Node000003"><a xlink:title=" ">
<path fill="none" stroke="#63b8ff" d="M308.72,-255.42C333.14,-276.5 378.68,-312.66 424,-332 432.02,-335.42 440.72,-338.21 449.45,-340.46"/>
<polygon fill="#63b8ff" stroke="#63b8ff" points="310.82,-252.6 301,-248.64 306.21,-257.87 310.82,-252.6"/>
</a>
</g>
</g>
<!-- Node4 -->
<g id="Node000004" class="node">
<title>Node4</title>
<g id="a_Node000004"><a xlink:href="classARDOUR_1_1ExportFormatFFMPEG.html" target="_top" xlink:title=" ">
<polygon fill="white" stroke="#666666" points="600.5,-322.5 428.5,-322.5 428.5,-303.5 600.5,-303.5 600.5,-322.5"/>
<text text-anchor="middle" x="514.5" y="-310.5" font-family="Helvetica,sans-Serif" font-size="10.00">ARDOUR::ExportFormatFFMPEG</text>
</a>
</g>
</g>
<!-- Node2&#45;&gt;Node4 -->
<g id="edge3_Node000002_Node000004" class="edge">
<title>Node2&#45;&gt;Node4</title>
<g id="a_edge3_Node000002_Node000004"><a xlink:title=" ">
<path fill="none" stroke="#63b8ff" d="M319.07,-252.94C345.69,-265.46 386.77,-283.57 424,-295 434.61,-298.26 446.1,-301.08 457.21,-303.46"/>
<polygon fill="#63b8ff" stroke="#63b8ff" points="320.48,-249.74 309.95,-248.61 317.48,-256.06 320.48,-249.74"/>
</a>
</g>
</g>
<!-- Node5 -->
<g id="Node000005" class="node">
<title>Node5</title>
<g id="a_Node000005"><a xlink:href="classARDOUR_1_1ExportFormatFLAC.html" target="_top" xlink:title=" ">
<polygon fill="white" stroke="#666666" points="593,-285.5 436,-285.5 436,-266.5 593,-266.5 593,-285.5"/>
<text text-anchor="middle" x="514.5" y="-273.5" font-family="Helvetica,sans-Serif" font-size="10.00">ARDOUR::ExportFormatFLAC</text>
</a>
</g>
</g>
<!-- Node2&#45;&gt;Node5 -->
<g id="edge4_Node000002_Node000005" class="edge">
<title>Node2&#45;&gt;Node5</title>
<g id="a_edge4_Node000002_Node000005"><a xlink:title=" ">
<path fill="none" stroke="#63b8ff" d="M357.87,-250.18C389.14,-255.37 425.92,-261.47 455.88,-266.44"/>
<polygon fill="#63b8ff" stroke="#63b8ff" points="358.37,-246.71 347.93,-248.53 357.22,-253.62 358.37,-246.71"/>
</a>
</g>
</g>
<!-- Node6 -->
<g id="Node000006" class="node">
<title>Node6</title>
<g id="a_Node000006"><a xlink:href="classARDOUR_1_1ExportFormatLinear.html" target="_top" xlink:title=" ">
<polygon fill="white" stroke="#666666" points="595,-248.5 434,-248.5 434,-229.5 595,-229.5 595,-248.5"/>
<text text-anchor="middle" x="514.5" y="-236.5" font-family="Helvetica,sans-Serif" font-size="10.00">ARDOUR::ExportFormatLinear</text>
</a>
</g>
</g>
<!-- Node2&#45;&gt;Node6 -->
<g id="edge5_Node000002_Node000006" class="edge">
<title>Node2&#45;&gt;Node6</title>
<g id="a_edge5_Node000002_Node000006"><a xlink:title=" ">
<path fill="none" stroke="#63b8ff" d="M365.27,-239C387.26,-239 411.4,-239 433.69,-239"/>
<polygon fill="#63b8ff" stroke="#63b8ff" points="365,-235.5 355,-239 365,-242.5 365,-235.5"/>
</a>
</g>
</g>
<!-- Node8 -->
<g id="Node000008" class="node">
<title>Node8</title>
<g id="a_Node000008"><a xlink:href="classARDOUR_1_1ExportFormatMPEG.html" target="_top" xlink:title=" ">
<polygon fill="white" stroke="#666666" points="594.5,-211.5 434.5,-211.5 434.5,-192.5 594.5,-192.5 594.5,-211.5"/>
<text text-anchor="middle" x="514.5" y="-199.5" font-family="Helvetica,sans-Serif" font-size="10.00">ARDOUR::ExportFormatMPEG</text>
</a>
</g>
</g>
<!-- Node2&#45;&gt;Node8 -->
<g id="edge7_Node000002_Node000008" class="edge">
<title>Node2&#45;&gt;Node8</title>
<g id="a_edge7_Node000002_Node000008"><a xlink:title=" ">
<path fill="none" stroke="#63b8ff" d="M357.87,-227.82C389.14,-222.63 425.92,-216.53 455.88,-211.56"/>
<polygon fill="#63b8ff" stroke="#63b8ff" points="357.22,-224.38 347.93,-229.47 358.37,-231.29 357.22,-224.38"/>
</a>
</g>
</g>
<!-- Node9 -->
<g id="Node000009" class="node">
<title>Node9</title>
<g id="a_Node000009"><a xlink:href="classARDOUR_1_1ExportFormatOggOpus.html" target="_top" xlink:title=" ">
<polygon fill="white" stroke="#666666" points="602.5,-174.5 426.5,-174.5 426.5,-155.5 602.5,-155.5 602.5,-174.5"/>
<text text-anchor="middle" x="514.5" y="-162.5" font-family="Helvetica,sans-Serif" font-size="10.00">ARDOUR::ExportFormatOggOpus</text>
</a>
</g>
</g>
<!-- Node2&#45;&gt;Node9 -->
<g id="edge8_Node000002_Node000009" class="edge">
<title>Node2&#45;&gt;Node9</title>
<g id="a_edge8_Node000002_Node000009"><a xlink:title=" ">
<path fill="none" stroke="#63b8ff" d="M364.94,-230.26C372.97,-227.87 380.82,-224.84 388,-221 408.24,-210.19 403.91,-195.08 424,-184 431.09,-180.09 438.91,-176.98 446.89,-174.51"/>
<polygon fill="#63b8ff" stroke="#63b8ff" points="363.85,-226.93 355.09,-232.88 365.65,-233.7 363.85,-226.93"/>
</a>
</g>
</g>
<!-- Node10 -->
<g id="Node000010" class="node">
<title>Node10</title>
<g id="a_Node000010"><a xlink:href="classARDOUR_1_1ExportFormatOggVorbis.html" target="_top" xlink:title=" ">
<polygon fill="white" stroke="#666666" points="605,-137.5 424,-137.5 424,-118.5 605,-118.5 605,-137.5"/>
<text text-anchor="middle" x="514.5" y="-125.5" font-family="Helvetica,sans-Serif" font-size="10.00">ARDOUR::ExportFormatOggVorbis</text>
</a>
</g>
</g>
<!-- Node2&#45;&gt;Node10 -->
<g id="edge9_Node000002_Node000010" class="edge">
<title>Node2&#45;&gt;Node10</title>
<g id="a_edge9_Node000002_Node000010"><a xlink:title=" ">
<path fill="none" stroke="#63b8ff" d="M365.01,-232.91C373.27,-230.07 381.16,-226.21 388,-221 417.11,-198.86 395.19,-169.53 424,-147 428.88,-143.18 434.35,-140.09 440.12,-137.59"/>
<polygon fill="#63b8ff" stroke="#63b8ff" points="363.79,-229.62 355.18,-235.79 365.76,-236.33 363.79,-229.62"/>
</a>
</g>
</g>
<!-- Node7 -->
<g id="Node000007" class="node">
<title>Node7</title>
<g id="a_Node000007"><a xlink:href="classARDOUR_1_1ExportFormatTaggedLinear.html" target="_top" xlink:title=" ">
<polygon fill="white" stroke="#666666" points="807,-254 641,-254 641,-224 807,-224 807,-254"/>
<text text-anchor="start" x="649" y="-242" font-family="Helvetica,sans-Serif" font-size="10.00">ARDOUR::ExportFormatTagged</text>
<text text-anchor="middle" x="724" y="-231" font-family="Helvetica,sans-Serif" font-size="10.00">Linear</text>
</a>
</g>
</g>
<!-- Node6&#45;&gt;Node7 -->
<g id="edge6_Node000006_Node000007" class="edge">
<title>Node6&#45;&gt;Node7</title>
<g id="a_edge6_Node000006_Node000007"><a xlink:title=" ">
<path fill="none" stroke="#63b8ff" d="M605.4,-239C617.18,-239 629.19,-239 640.83,-239"/>
<polygon fill="#63b8ff" stroke="#63b8ff" points="605.13,-235.5 595.13,-239 605.13,-242.5 605.13,-235.5"/>
</a>
</g>
</g>
</g>
</svg>
