<?xml version="1.0" encoding="UTF-8" standalone="no"?>
<!DOCTYPE svg PUBLIC "-//W3C//DTD SVG 1.1//EN"
 "http://www.w3.org/Graphics/SVG/1.1/DTD/svg11.dtd">
<!-- Generated by graphviz version 2.43.0 (0)
 -->
<!-- Title: ARDOUR::AudioRegion Pages: 1 -->
<!--zoomable 224 -->

<svg id="main" version="1.1" xmlns="http://www.w3.org/2000/svg" xmlns:xlink="http://www.w3.org/1999/xlink" xml:space="preserve" onload="init(evt)">
<style type="text/css"><![CDATA[
.node, .edge {opacity: 0.7;}
.node.selected, .edge.selected {opacity: 1;}
.edge:hover path { stroke: red; }
.edge:hover polygon { stroke: red; fill: red; }
]]></style>

<defs>
  <circle id="rim" cx="0" cy="0" r="7"/>
  <circle id="rim2" cx="0" cy="0" r="3.5"/>
  <g id="zoomPlus">
    <use xlink:href="#rim" fill="#404040"><set attributeName="fill" to="#808080" begin="zoomplus.mouseover" end="zoomplus.mouseout"/></use>
    <path d="M-4,0h8M0,-4v8" fill="none" stroke="white" stroke-width="1.5" pointer-events="none"/>
  </g>
  <g id="zoomMin">
    <use xlink:href="#rim" fill="#404040"><set attributeName="fill" to="#808080" begin="zoomminus.mouseover" end="zoomminus.mouseout"/></use>
    <path d="M-4,0h8" fill="none" stroke="white" stroke-width="1.5" pointer-events="none"/>
  </g>
  <g id="arrowUp" transform="translate(30 24)">
    <use xlink:href="#rim"/>
    <path pointer-events="none" fill="none" stroke="white" stroke-width="1.5" d="M0,-3.0v7 M-2.5,-0.5L0,-3.0L2.5,-0.5"/>
  </g>
  <g id="arrowRight" transform="rotate(90) translate(36 -43)">
    <use xlink:href="#rim"/>
    <path pointer-events="none" fill="none" stroke="white" stroke-width="1.5" d="M0,-3.0v7 M-2.5,-0.5L0,-3.0L2.5,-0.5"/>
  </g>
  <g id="arrowDown" transform="rotate(180) translate(-30 -48)">
    <use xlink:href="#rim"/>
    <path pointer-events="none" fill="none" stroke="white" stroke-width="1.5" d="M0,-3.0v7 M-2.5,-0.5L0,-3.0L2.5,-0.5"/>
  </g>
  <g id="arrowLeft" transform="rotate(270) translate(-36 17)">
    <use xlink:href="#rim"/>
    <path pointer-events="none" fill="none" stroke="white" stroke-width="1.5" d="M0,-3.0v7 M-2.5,-0.5L0,-3.0L2.5,-0.5"/>
  </g>
  <g id="resetDef">
    <use xlink:href="#rim2" fill="#404040"><set attributeName="fill" to="#808080" begin="reset.mouseover" end="reset.mouseout"/></use>
  </g>
</defs>
<script type="application/ecmascript">
var viewWidth = 875;
var viewHeight = 224;
var sectionId = 'dynsection-0';
</script>
<script type="application/ecmascript" xlink:href="svg.min.js"/>
<svg id="graph" class="graph">
<g id="viewport">
<title>ARDOUR::AudioRegion</title>
<!-- Node1 -->
<g id="Node000001" class="node">
<title>Node1</title>
<g id="a_Node000001"><a xlink:title=" ">
<polygon fill="#999999" stroke="#666666" points="867,-80 740,-80 740,-61 867,-61 867,-80"/>
<text text-anchor="middle" x="803.5" y="-68" font-family="Helvetica,sans-Serif" font-size="10.00">ARDOUR::AudioRegion</text>
</a>
</g>
</g>
<!-- Node2 -->
<g id="Node000002" class="node">
<title>Node2</title>
<g id="a_Node000002"><a xlink:href="classARDOUR_1_1Region.html" target="_top" xlink:title=" ">
<polygon fill="white" stroke="#666666" points="684,-99 585,-99 585,-80 684,-80 684,-99"/>
<text text-anchor="middle" x="634.5" y="-87" font-family="Helvetica,sans-Serif" font-size="10.00">ARDOUR::Region</text>
</a>
</g>
</g>
<!-- Node2&#45;&gt;Node1 -->
<g id="edge1_Node000001_Node000002" class="edge">
<title>Node2&#45;&gt;Node1</title>
<g id="a_edge1_Node000001_Node000002"><a xlink:title=" ">
<path fill="none" stroke="#63b8ff" d="M694.29,-82.81C709.08,-81.13 725.02,-79.32 739.99,-77.61"/>
<polygon fill="#63b8ff" stroke="#63b8ff" points="693.79,-79.35 684.25,-83.95 694.58,-86.3 693.79,-79.35"/>
</a>
</g>
</g>
<!-- Node3 -->
<g id="Node000003" class="node">
<title>Node3</title>
<g id="a_Node000003"><a xlink:href="classARDOUR_1_1SessionObject.html" target="_top" xlink:title=" ">
<polygon fill="white" stroke="#666666" points="529,-180 395,-180 395,-161 529,-161 529,-180"/>
<text text-anchor="middle" x="462" y="-168" font-family="Helvetica,sans-Serif" font-size="10.00">ARDOUR::SessionObject</text>
</a>
</g>
</g>
<!-- Node3&#45;&gt;Node2 -->
<g id="edge2_Node000002_Node000003" class="edge">
<title>Node3&#45;&gt;Node2</title>
<g id="a_edge2_Node000002_Node000003"><a xlink:title=" ">
<path fill="none" stroke="#63b8ff" d="M501.84,-157.48C510.86,-154.15 520.35,-150.41 529,-146.5 561.4,-131.87 597.43,-111.17 617.59,-99.16"/>
<polygon fill="#63b8ff" stroke="#63b8ff" points="500.52,-154.24 492.29,-160.91 502.89,-160.82 500.52,-154.24"/>
</a>
</g>
</g>
<!-- Node4 -->
<g id="Node000004" class="node">
<title>Node4</title>
<g id="a_Node000004"><a xlink:href="classARDOUR_1_1SessionHandleRef.html" target="_top" xlink:title=" ">
<polygon fill="white" stroke="#666666" points="349.5,-216 195.5,-216 195.5,-197 349.5,-197 349.5,-216"/>
<text text-anchor="middle" x="272.5" y="-204" font-family="Helvetica,sans-Serif" font-size="10.00">ARDOUR::SessionHandleRef</text>
</a>
</g>
</g>
<!-- Node4&#45;&gt;Node3 -->
<g id="edge3_Node000003_Node000004" class="edge">
<title>Node4&#45;&gt;Node3</title>
<g id="a_edge3_Node000003_Node000004"><a xlink:title=" ">
<path fill="none" stroke="#63b8ff" d="M333.41,-195C358.54,-190.17 387.42,-184.63 411.34,-180.03"/>
<polygon fill="#63b8ff" stroke="#63b8ff" points="332.41,-191.62 323.25,-196.95 333.73,-198.5 332.41,-191.62"/>
</a>
</g>
</g>
<!-- Node5 -->
<g id="Node000005" class="node">
<title>Node5</title>
<g id="a_Node000005"><a xlink:href="classPBD_1_1ScopedConnectionList.html" target="_top" xlink:title=" ">
<polygon fill="white" stroke="#666666" points="150,-216 0,-216 0,-197 150,-197 150,-216"/>
<text text-anchor="middle" x="75" y="-204" font-family="Helvetica,sans-Serif" font-size="10.00">PBD::ScopedConnectionList</text>
</a>
</g>
</g>
<!-- Node5&#45;&gt;Node4 -->
<g id="edge4_Node000004_Node000005" class="edge">
<title>Node5&#45;&gt;Node4</title>
<g id="a_edge4_Node000004_Node000005"><a xlink:title=" ">
<path fill="none" stroke="#63b8ff" d="M160.35,-206.5C172,-206.5 183.92,-206.5 195.41,-206.5"/>
<polygon fill="#63b8ff" stroke="#63b8ff" points="160.19,-203 150.19,-206.5 160.19,-210 160.19,-203"/>
</a>
</g>
</g>
<!-- Node6 -->
<g id="Node000006" class="node">
<title>Node6</title>
<g id="a_Node000006"><a xlink:href="classPBD_1_1StatefulDestructible.html" target="_top" xlink:title=" ">
<polygon fill="white" stroke="#666666" points="342.5,-179 202.5,-179 202.5,-160 342.5,-160 342.5,-179"/>
<text text-anchor="middle" x="272.5" y="-167" font-family="Helvetica,sans-Serif" font-size="10.00">PBD::StatefulDestructible</text>
</a>
</g>
</g>
<!-- Node6&#45;&gt;Node3 -->
<g id="edge5_Node000003_Node000006" class="edge">
<title>Node6&#45;&gt;Node3</title>
<g id="a_edge5_Node000003_Node000006"><a xlink:title=" ">
<path fill="none" stroke="#63b8ff" d="M352.67,-169.92C366.75,-170 381.27,-170.07 394.93,-170.15"/>
<polygon fill="#63b8ff" stroke="#63b8ff" points="352.54,-166.42 342.52,-169.87 352.5,-173.42 352.54,-166.42"/>
</a>
</g>
</g>
<!-- Node7 -->
<g id="Node000007" class="node">
<title>Node7</title>
<g id="a_Node000007"><a xlink:href="classPBD_1_1Stateful.html" target="_top" xlink:title=" ">
<polygon fill="white" stroke="#666666" points="115.5,-179 34.5,-179 34.5,-160 115.5,-160 115.5,-179"/>
<text text-anchor="middle" x="75" y="-167" font-family="Helvetica,sans-Serif" font-size="10.00">PBD::Stateful</text>
</a>
</g>
</g>
<!-- Node7&#45;&gt;Node6 -->
<g id="edge6_Node000006_Node000007" class="edge">
<title>Node7&#45;&gt;Node6</title>
<g id="a_edge6_Node000006_Node000007"><a xlink:title=" ">
<path fill="none" stroke="#63b8ff" d="M125.87,-169.5C149.09,-169.5 177.1,-169.5 202.32,-169.5"/>
<polygon fill="#63b8ff" stroke="#63b8ff" points="125.56,-166 115.56,-169.5 125.56,-173 125.56,-166"/>
</a>
</g>
</g>
<!-- Node8 -->
<g id="Node000008" class="node">
<title>Node8</title>
<g id="a_Node000008"><a xlink:href="classPBD_1_1Destructible.html" target="_top" xlink:title=" ">
<polygon fill="white" stroke="#666666" points="126,-142 24,-142 24,-123 126,-123 126,-142"/>
<text text-anchor="middle" x="75" y="-130" font-family="Helvetica,sans-Serif" font-size="10.00">PBD::Destructible</text>
</a>
</g>
</g>
<!-- Node8&#45;&gt;Node6 -->
<g id="edge7_Node000006_Node000008" class="edge">
<title>Node8&#45;&gt;Node6</title>
<g id="a_edge7_Node000006_Node000008"><a xlink:title=" ">
<path fill="none" stroke="#63b8ff" d="M135.92,-143.84C163.22,-149.01 195.17,-155.05 221.2,-159.98"/>
<polygon fill="#63b8ff" stroke="#63b8ff" points="136.57,-140.4 126.09,-141.98 135.27,-147.28 136.57,-140.4"/>
</a>
</g>
</g>
<!-- Node12 -->
<g id="Node000012" class="node">
<title>Node12</title>
<g id="a_Node000012"><a xlink:href="structTemporal_1_1TimeDomainSwapper.html" target="_top" xlink:title=" ">
<polygon fill="white" stroke="#666666" points="359,-142 186,-142 186,-123 359,-123 359,-142"/>
<text text-anchor="middle" x="272.5" y="-130" font-family="Helvetica,sans-Serif" font-size="10.00">Temporal::TimeDomainSwapper</text>
</a>
</g>
</g>
<!-- Node8&#45;&gt;Node12 -->
<g id="edge12_Node000012_Node000008" class="edge">
<title>Node8&#45;&gt;Node12</title>
<g id="a_edge12_Node000012_Node000008"><a xlink:title=" ">
<path fill="none" stroke="#63b8ff" d="M136.17,-132.5C151.88,-132.5 169.11,-132.5 185.86,-132.5"/>
<polygon fill="#63b8ff" stroke="#63b8ff" points="136.09,-129 126.09,-132.5 136.09,-136 136.09,-129"/>
</a>
</g>
</g>
<!-- Node9 -->
<g id="Node000009" class="node">
<title>Node9</title>
<g id="a_Node000009"><a xlink:title=" ">
<polygon fill="white" stroke="#666666" points="524.5,-104.5 399.5,-104.5 399.5,-74.5 524.5,-74.5 524.5,-104.5"/>
<text text-anchor="start" x="407.5" y="-92.5" font-family="Helvetica,sans-Serif" font-size="10.00">std::enable_shared</text>
<text text-anchor="middle" x="462" y="-81.5" font-family="Helvetica,sans-Serif" font-size="10.00">_from_this&lt; Region &gt;</text>
</a>
</g>
</g>
<!-- Node9&#45;&gt;Node2 -->
<g id="edge8_Node000002_Node000009" class="edge">
<title>Node9&#45;&gt;Node2</title>
<g id="a_edge8_Node000002_Node000009"><a xlink:title=" ">
<path fill="none" stroke="#63b8ff" d="M534.93,-89.5C551.77,-89.5 569.32,-89.5 584.87,-89.5"/>
<polygon fill="#63b8ff" stroke="#63b8ff" points="534.55,-86 524.55,-89.5 534.55,-93 534.55,-86"/>
</a>
</g>
</g>
<!-- Node10 -->
<g id="Node000010" class="node">
<title>Node10</title>
<g id="a_Node000010"><a xlink:href="classARDOUR_1_1Trimmable.html" target="_top" xlink:title=" ">
<polygon fill="white" stroke="#666666" points="520.5,-56 403.5,-56 403.5,-37 520.5,-37 520.5,-56"/>
<text text-anchor="middle" x="462" y="-44" font-family="Helvetica,sans-Serif" font-size="10.00">ARDOUR::Trimmable</text>
</a>
</g>
</g>
<!-- Node10&#45;&gt;Node2 -->
<g id="edge9_Node000002_Node000010" class="edge">
<title>Node10&#45;&gt;Node2</title>
<g id="a_edge9_Node000002_Node000010"><a xlink:title=" ">
<path fill="none" stroke="#63b8ff" d="M510.8,-58.56C537.67,-65.33 570.73,-73.67 595.77,-79.98"/>
<polygon fill="#63b8ff" stroke="#63b8ff" points="511.39,-55.09 500.84,-56.04 509.68,-61.88 511.39,-55.09"/>
</a>
</g>
</g>
<!-- Node11 -->
<g id="Node000011" class="node">
<title>Node11</title>
<g id="a_Node000011"><a xlink:href="classARDOUR_1_1Movable.html" target="_top" xlink:title=" ">
<polygon fill="white" stroke="#666666" points="515.5,-19 408.5,-19 408.5,0 515.5,0 515.5,-19"/>
<text text-anchor="middle" x="462" y="-7" font-family="Helvetica,sans-Serif" font-size="10.00">ARDOUR::Movable</text>
</a>
</g>
</g>
<!-- Node11&#45;&gt;Node2 -->
<g id="edge10_Node000002_Node000011" class="edge">
<title>Node11&#45;&gt;Node2</title>
<g id="a_edge10_Node000002_Node000011"><a xlink:title=" ">
<path fill="none" stroke="#63b8ff" d="M520.93,-22.96C523.73,-24.33 526.44,-25.84 529,-27.5 550.19,-41.26 543.74,-57.84 565,-71.5 571,-75.35 577.8,-78.39 584.72,-80.77"/>
<polygon fill="#63b8ff" stroke="#63b8ff" points="522.3,-19.74 511.72,-19.04 519.55,-26.18 522.3,-19.74"/>
</a>
</g>
</g>
<!-- Node12&#45;&gt;Node2 -->
<g id="edge11_Node000002_Node000012" class="edge">
<title>Node12&#45;&gt;Node2</title>
<g id="a_edge11_Node000002_Node000012"><a xlink:title=" ">
<path fill="none" stroke="#63b8ff" d="M369.13,-128.83C417.28,-126.11 476.44,-121.44 529,-113.5 552.19,-110 577.87,-104.13 597.97,-99.07"/>
<polygon fill="#63b8ff" stroke="#63b8ff" points="368.82,-125.34 359.03,-129.38 369.2,-132.33 368.82,-125.34"/>
</a>
</g>
</g>
<!-- Node13 -->
<g id="Node000013" class="node">
<title>Node13</title>
<g id="a_Node000013"><a xlink:href="classARDOUR_1_1AudioReadable.html" target="_top" xlink:title=" ">
<polygon fill="white" stroke="#666666" points="704,-62 565,-62 565,-43 704,-43 704,-62"/>
<text text-anchor="middle" x="634.5" y="-50" font-family="Helvetica,sans-Serif" font-size="10.00">ARDOUR::AudioReadable</text>
</a>
</g>
</g>
<!-- Node13&#45;&gt;Node1 -->
<g id="edge13_Node000001_Node000013" class="edge">
<title>Node13&#45;&gt;Node1</title>
<g id="a_edge13_Node000001_Node000013"><a xlink:title=" ">
<path fill="none" stroke="#63b8ff" d="M714.39,-61C722.96,-61.93 731.59,-62.86 739.92,-63.76"/>
<polygon fill="#63b8ff" stroke="#63b8ff" points="714.71,-57.52 704.39,-59.93 713.96,-64.48 714.71,-57.52"/>
</a>
</g>
</g>
</g>
</svg>

<g id="navigator" transform="translate(0 0)" fill="#404254">
  <rect fill="#f2f5e9" fill-opacity="0.5" stroke="#606060" stroke-width=".5" x="0" y="0" width="60" height="60"/>
  <use id="zoomplus" xlink:href="#zoomPlus" x="17" y="9" onmousedown="handleZoom(evt,'in')"/>
  <use id="zoomminus" xlink:href="#zoomMin" x="42" y="9" onmousedown="handleZoom(evt,'out')"/>
  <use id="reset" xlink:href="#resetDef" x="30" y="36" onmousedown="handleReset()"/>
   <use id="arrowup" xlink:href="#arrowUp" x="0" y="0" onmousedown="handlePan(0,-1)"/>
  <use id="arrowright" xlink:href="#arrowRight" x="0" y="0" onmousedown="handlePan(1,0)"/>
  <use id="arrowdown" xlink:href="#arrowDown" x="0" y="0" onmousedown="handlePan(0,1)"/>
  <use id="arrowleft" xlink:href="#arrowLeft" x="0" y="0" onmousedown="handlePan(-1,0)"/>
</g>
<svg viewBox="0 0 15 15" width="100%" height="30px" preserveAspectRatio="xMaxYMin meet">
 <g id="arrow_out" transform="scale(0.3 0.3)">
  <a xlink:href="classARDOUR_1_1AudioRegion__inherit__graph_org.svg" target="_base">
   <rect id="button" ry="5" rx="5" y="6" x="6" height="38" width="38"
        fill="#f2f5e9" fill-opacity="0.5" stroke="#606060" stroke-width="1.0"/>
   <path id="arrow"
     d="M 11.500037,31.436501 C 11.940474,20.09759 22.043105,11.32322 32.158766,21.979434 L 37.068811,17.246167 C 37.068811,17.246167 37.088388,32 37.088388,32 L 22.160133,31.978069 C 22.160133,31.978069 26.997745,27.140456 26.997745,27.140456 C 18.528582,18.264221 13.291696,25.230495 11.500037,31.436501 z"
     style="fill:#404040;"/>
  </a>
 </g>
</svg>

<style type='text/css'>
<![CDATA[
[data-mouse-over-selected='false'] { opacity: 0.7; }
[data-mouse-over-selected='true']  { opacity: 1.0; }
]]>
</style>
<script type="application/ecmascript"><![CDATA[
document.addEventListener('DOMContentLoaded', (event) => {
  highlightEdges();
  highlightAdjacentNodes();
});
]]></script>
</svg>
