<?xml version="1.0" encoding="UTF-8" standalone="no"?>
<!DOCTYPE svg PUBLIC "-//W3C//DTD SVG 1.1//EN"
 "http://www.w3.org/Graphics/SVG/1.1/DTD/svg11.dtd">
<!-- Generated by graphviz version 2.43.0 (0)
 -->
<!-- Title: ArdourCanvas::Container Pages: 1 -->
<!--zoomable 495 -->

<svg id="main" version="1.1" xmlns="http://www.w3.org/2000/svg" xmlns:xlink="http://www.w3.org/1999/xlink" xml:space="preserve" onload="init(evt)">
<style type="text/css"><![CDATA[
.node, .edge {opacity: 0.7;}
.node.selected, .edge.selected {opacity: 1;}
.edge:hover path { stroke: red; }
.edge:hover polygon { stroke: red; fill: red; }
]]></style>

<defs>
  <circle id="rim" cx="0" cy="0" r="7"/>
  <circle id="rim2" cx="0" cy="0" r="3.5"/>
  <g id="zoomPlus">
    <use xlink:href="#rim" fill="#404040"><set attributeName="fill" to="#808080" begin="zoomplus.mouseover" end="zoomplus.mouseout"/></use>
    <path d="M-4,0h8M0,-4v8" fill="none" stroke="white" stroke-width="1.5" pointer-events="none"/>
  </g>
  <g id="zoomMin">
    <use xlink:href="#rim" fill="#404040"><set attributeName="fill" to="#808080" begin="zoomminus.mouseover" end="zoomminus.mouseout"/></use>
    <path d="M-4,0h8" fill="none" stroke="white" stroke-width="1.5" pointer-events="none"/>
  </g>
  <g id="arrowUp" transform="translate(30 24)">
    <use xlink:href="#rim"/>
    <path pointer-events="none" fill="none" stroke="white" stroke-width="1.5" d="M0,-3.0v7 M-2.5,-0.5L0,-3.0L2.5,-0.5"/>
  </g>
  <g id="arrowRight" transform="rotate(90) translate(36 -43)">
    <use xlink:href="#rim"/>
    <path pointer-events="none" fill="none" stroke="white" stroke-width="1.5" d="M0,-3.0v7 M-2.5,-0.5L0,-3.0L2.5,-0.5"/>
  </g>
  <g id="arrowDown" transform="rotate(180) translate(-30 -48)">
    <use xlink:href="#rim"/>
    <path pointer-events="none" fill="none" stroke="white" stroke-width="1.5" d="M0,-3.0v7 M-2.5,-0.5L0,-3.0L2.5,-0.5"/>
  </g>
  <g id="arrowLeft" transform="rotate(270) translate(-36 17)">
    <use xlink:href="#rim"/>
    <path pointer-events="none" fill="none" stroke="white" stroke-width="1.5" d="M0,-3.0v7 M-2.5,-0.5L0,-3.0L2.5,-0.5"/>
  </g>
  <g id="resetDef">
    <use xlink:href="#rim2" fill="#404040"><set attributeName="fill" to="#808080" begin="reset.mouseover" end="reset.mouseout"/></use>
  </g>
</defs>
<script type="application/ecmascript">
var viewWidth = 868;
var viewHeight = 495;
var sectionId = 'dynsection-0';
</script>
<script type="application/ecmascript" xlink:href="svg.min.js"/>
<svg id="graph" class="graph">
<g id="viewport">
<title>ArdourCanvas::Container</title>
<!-- Node1 -->
<g id="Node000001" class="node">
<title>Node1</title>
<g id="a_Node000001"><a xlink:title=" ">
<polygon fill="#999999" stroke="#666666" points="449,-280 311,-280 311,-261 449,-261 449,-280"/>
<text text-anchor="middle" x="380" y="-268" font-family="Helvetica,sans-Serif" font-size="10.00">ArdourCanvas::Container</text>
</a>
</g>
</g>
<!-- Node5 -->
<g id="Node000005" class="node">
<title>Node5</title>
<g id="a_Node000005"><a xlink:href="classArdourCanvas_1_1Arrow.html" target="_top" xlink:title=" ">
<polygon fill="white" stroke="#666666" points="630,-487 511,-487 511,-468 630,-468 630,-487"/>
<text text-anchor="middle" x="570.5" y="-475" font-family="Helvetica,sans-Serif" font-size="10.00">ArdourCanvas::Arrow</text>
</a>
</g>
</g>
<!-- Node1&#45;&gt;Node5 -->
<g id="edge4_Node000001_Node000005" class="edge">
<title>Node1&#45;&gt;Node5</title>
<g id="a_edge4_Node000001_Node000005"><a xlink:title=" ">
<path fill="none" stroke="#63b8ff" d="M385.95,-290.3C396.79,-329.29 426.44,-416.01 485,-459.5 492.59,-465.13 501.56,-469.09 510.77,-471.84"/>
<polygon fill="#63b8ff" stroke="#63b8ff" points="389.23,-289 383.28,-280.23 382.46,-290.8 389.23,-289"/>
</a>
</g>
</g>
<!-- Node6 -->
<g id="Node000006" class="node">
<title>Node6</title>
<g id="a_Node000006"><a xlink:href="classArdourCanvas_1_1Flag.html" target="_top" xlink:title=" ">
<polygon fill="white" stroke="#666666" points="626.5,-450 514.5,-450 514.5,-431 626.5,-431 626.5,-450"/>
<text text-anchor="middle" x="570.5" y="-438" font-family="Helvetica,sans-Serif" font-size="10.00">ArdourCanvas::Flag</text>
</a>
</g>
</g>
<!-- Node1&#45;&gt;Node6 -->
<g id="edge5_Node000001_Node000006" class="edge">
<title>Node1&#45;&gt;Node6</title>
<g id="a_edge5_Node000001_Node000006"><a xlink:title=" ">
<path fill="none" stroke="#63b8ff" d="M388.42,-289.59C402.18,-322.33 434.9,-388.94 485,-422.5 493.72,-428.34 503.99,-432.34 514.31,-435.06"/>
<polygon fill="#63b8ff" stroke="#63b8ff" points="391.62,-288.18 384.62,-280.23 385.13,-290.81 391.62,-288.18"/>
</a>
</g>
</g>
<!-- Node7 -->
<g id="Node000007" class="node">
<title>Node7</title>
<g id="a_Node000007"><a xlink:href="classArdourCanvas_1_1Root.html" target="_top" xlink:title=" ">
<polygon fill="white" stroke="#666666" points="627,-413 514,-413 514,-394 627,-394 627,-413"/>
<text text-anchor="middle" x="570.5" y="-401" font-family="Helvetica,sans-Serif" font-size="10.00">ArdourCanvas::Root</text>
</a>
</g>
</g>
<!-- Node1&#45;&gt;Node7 -->
<g id="edge6_Node000001_Node000007" class="edge">
<title>Node1&#45;&gt;Node7</title>
<g id="a_edge6_Node000001_Node000007"><a xlink:title=" ">
<path fill="none" stroke="#63b8ff" d="M391.98,-288.53C408.69,-314.33 443.04,-361.32 485,-385.5 493.71,-390.52 503.65,-394.14 513.57,-396.76"/>
<polygon fill="#63b8ff" stroke="#63b8ff" points="394.94,-286.66 386.64,-280.07 389.02,-290.39 394.94,-286.66"/>
</a>
</g>
</g>
<!-- Node8 -->
<g id="Node000008" class="node">
<title>Node8</title>
<g id="a_Node000008"><a xlink:href="classArdourCanvas_1_1ScrollGroup.html" target="_top" xlink:title=" ">
<polygon fill="white" stroke="#666666" points="644,-376 497,-376 497,-357 644,-357 644,-376"/>
<text text-anchor="middle" x="570.5" y="-364" font-family="Helvetica,sans-Serif" font-size="10.00">ArdourCanvas::ScrollGroup</text>
</a>
</g>
</g>
<!-- Node1&#45;&gt;Node8 -->
<g id="edge7_Node000001_Node000008" class="edge">
<title>Node1&#45;&gt;Node8</title>
<g id="a_edge7_Node000001_Node000008"><a xlink:title=" ">
<path fill="none" stroke="#63b8ff" d="M398.1,-287.1C417.54,-305.01 451.02,-333.05 485,-348.5 492.51,-351.91 500.69,-354.69 508.91,-356.95"/>
<polygon fill="#63b8ff" stroke="#63b8ff" points="400.35,-284.41 390.66,-280.1 395.55,-289.5 400.35,-284.41"/>
</a>
</g>
</g>
<!-- Node9 -->
<g id="Node000009" class="node">
<title>Node9</title>
<g id="a_Node000009"><a xlink:href="classArdourSurface_1_1LevelMeter.html" target="_top" xlink:title=" ">
<polygon fill="white" stroke="#666666" points="643.5,-339 497.5,-339 497.5,-320 643.5,-320 643.5,-339"/>
<text text-anchor="middle" x="570.5" y="-327" font-family="Helvetica,sans-Serif" font-size="10.00">ArdourSurface::LevelMeter</text>
</a>
</g>
</g>
<!-- Node1&#45;&gt;Node9 -->
<g id="edge8_Node000001_Node000009" class="edge">
<title>Node1&#45;&gt;Node9</title>
<g id="a_edge8_Node000001_Node000009"><a xlink:title=" ">
<path fill="none" stroke="#63b8ff" d="M411.57,-284.1C432.05,-292.82 459.77,-303.9 485,-311.5 495.63,-314.7 507.17,-317.56 518.21,-320"/>
<polygon fill="#63b8ff" stroke="#63b8ff" points="412.71,-280.78 402.15,-280.04 409.94,-287.21 412.71,-280.78"/>
</a>
</g>
</g>
<!-- Node10 -->
<g id="Node000010" class="node">
<title>Node10</title>
<g id="a_Node000010"><a xlink:href="classArdourSurface_1_1Maschine2Knob.html" target="_top" xlink:title=" ">
<polygon fill="white" stroke="#666666" points="655,-302 486,-302 486,-283 655,-283 655,-302"/>
<text text-anchor="middle" x="570.5" y="-290" font-family="Helvetica,sans-Serif" font-size="10.00">ArdourSurface::Maschine2Knob</text>
</a>
</g>
</g>
<!-- Node1&#45;&gt;Node10 -->
<g id="edge9_Node000001_Node000010" class="edge">
<title>Node1&#45;&gt;Node10</title>
<g id="a_edge9_Node000001_Node000010"><a xlink:title=" ">
<path fill="none" stroke="#63b8ff" d="M459.26,-279.63C468.77,-280.74 478.5,-281.88 488.05,-282.99"/>
<polygon fill="#63b8ff" stroke="#63b8ff" points="459.39,-276.13 449.05,-278.44 458.58,-283.08 459.39,-276.13"/>
</a>
</g>
</g>
<!-- Node11 -->
<g id="Node000011" class="node">
<title>Node11</title>
<g id="a_Node000011"><a xlink:href="classArdourSurface_1_1Maschine2Layout.html" target="_top" xlink:title=" ">
<polygon fill="white" stroke="#666666" points="642.5,-264.5 498.5,-264.5 498.5,-234.5 642.5,-234.5 642.5,-264.5"/>
<text text-anchor="start" x="506.5" y="-252.5" font-family="Helvetica,sans-Serif" font-size="10.00">ArdourSurface::Maschine2</text>
<text text-anchor="middle" x="570.5" y="-241.5" font-family="Helvetica,sans-Serif" font-size="10.00">Layout</text>
</a>
</g>
</g>
<!-- Node1&#45;&gt;Node11 -->
<g id="edge10_Node000001_Node000011" class="edge">
<title>Node1&#45;&gt;Node11</title>
<g id="a_edge10_Node000001_Node000011"><a xlink:title=" ">
<path fill="none" stroke="#63b8ff" d="M459.32,-261.77C472.26,-260.33 485.62,-258.84 498.37,-257.42"/>
<polygon fill="#63b8ff" stroke="#63b8ff" points="458.6,-258.33 449.05,-262.92 459.38,-265.29 458.6,-258.33"/>
</a>
</g>
</g>
<!-- Node12 -->
<g id="Node000012" class="node">
<title>Node12</title>
<g id="a_Node000012"><a xlink:href="classArdourSurface_1_1Maschine2Menu.html" target="_top" xlink:title=" ">
<polygon fill="white" stroke="#666666" points="656,-216 485,-216 485,-197 656,-197 656,-216"/>
<text text-anchor="middle" x="570.5" y="-204" font-family="Helvetica,sans-Serif" font-size="10.00">ArdourSurface::Maschine2Menu</text>
</a>
</g>
</g>
<!-- Node1&#45;&gt;Node12 -->
<g id="edge11_Node000001_Node000012" class="edge">
<title>Node1&#45;&gt;Node12</title>
<g id="a_edge11_Node000001_Node000012"><a xlink:title=" ">
<path fill="none" stroke="#63b8ff" d="M409.26,-256.56C429.87,-246.82 458.68,-234.07 485,-225.5 496.15,-221.87 508.35,-218.69 519.93,-216.02"/>
<polygon fill="#63b8ff" stroke="#63b8ff" points="407.64,-253.45 400.13,-260.93 410.66,-259.77 407.64,-253.45"/>
</a>
</g>
</g>
<!-- Node13 -->
<g id="Node000013" class="node">
<title>Node13</title>
<g id="a_Node000013"><a xlink:href="structArdourSurface_1_1MixLayout_1_1GainMeter.html" target="_top" xlink:title=" ">
<polygon fill="white" stroke="#666666" points="642,-178.5 499,-178.5 499,-148.5 642,-148.5 642,-178.5"/>
<text text-anchor="start" x="507" y="-166.5" font-family="Helvetica,sans-Serif" font-size="10.00">ArdourSurface::MixLayout</text>
<text text-anchor="middle" x="570.5" y="-155.5" font-family="Helvetica,sans-Serif" font-size="10.00">::GainMeter</text>
</a>
</g>
</g>
<!-- Node1&#45;&gt;Node13 -->
<g id="edge12_Node000001_Node000013" class="edge">
<title>Node1&#45;&gt;Node13</title>
<g id="a_edge12_Node000001_Node000013"><a xlink:title=" ">
<path fill="none" stroke="#63b8ff" d="M397.53,-253.78C416.89,-235.09 450.7,-205.15 485,-187.5 491.51,-184.15 498.55,-181.21 505.69,-178.65"/>
<polygon fill="#63b8ff" stroke="#63b8ff" points="395.07,-251.29 390.39,-260.8 399.98,-256.28 395.07,-251.29"/>
</a>
</g>
</g>
<!-- Node14 -->
<g id="Node000014" class="node">
<title>Node14</title>
<g id="a_Node000014"><a xlink:href="classArdourSurface_1_1Push2Knob.html" target="_top" xlink:title=" ">
<polygon fill="white" stroke="#666666" points="643.5,-130 497.5,-130 497.5,-111 643.5,-111 643.5,-130"/>
<text text-anchor="middle" x="570.5" y="-118" font-family="Helvetica,sans-Serif" font-size="10.00">ArdourSurface::Push2Knob</text>
</a>
</g>
</g>
<!-- Node1&#45;&gt;Node14 -->
<g id="edge13_Node000001_Node000014" class="edge">
<title>Node1&#45;&gt;Node14</title>
<g id="a_edge13_Node000001_Node000014"><a xlink:title=" ">
<path fill="none" stroke="#63b8ff" d="M390.47,-251.69C406.05,-222.78 439.9,-167.81 485,-139.5 491.11,-135.66 497.9,-132.6 504.91,-130.15"/>
<polygon fill="#63b8ff" stroke="#63b8ff" points="387.27,-250.26 385.73,-260.74 393.47,-253.5 387.27,-250.26"/>
</a>
</g>
</g>
<!-- Node15 -->
<g id="Node000015" class="node">
<title>Node15</title>
<g id="a_Node000015"><a xlink:href="classArdourSurface_1_1Push2Layout.html" target="_top" xlink:title=" ">
<polygon fill="white" stroke="#666666" points="647.5,-93 493.5,-93 493.5,-74 647.5,-74 647.5,-93"/>
<text text-anchor="middle" x="570.5" y="-81" font-family="Helvetica,sans-Serif" font-size="10.00">ArdourSurface::Push2Layout</text>
</a>
</g>
</g>
<!-- Node1&#45;&gt;Node15 -->
<g id="edge14_Node000001_Node000015" class="edge">
<title>Node1&#45;&gt;Node15</title>
<g id="a_edge14_Node000001_Node000015"><a xlink:title=" ">
<path fill="none" stroke="#63b8ff" d="M387.09,-251.31C399.44,-215.73 430.92,-139.66 485,-101.5 489.78,-98.13 495.06,-95.36 500.59,-93.1"/>
<polygon fill="#63b8ff" stroke="#63b8ff" points="383.72,-250.38 383.87,-260.97 390.36,-252.59 383.72,-250.38"/>
</a>
</g>
</g>
<!-- Node21 -->
<g id="Node000021" class="node">
<title>Node21</title>
<g id="a_Node000021"><a xlink:href="classArdourSurface_1_1Push2Menu.html" target="_top" xlink:title=" ">
<polygon fill="white" stroke="#666666" points="644.5,-56 496.5,-56 496.5,-37 644.5,-37 644.5,-56"/>
<text text-anchor="middle" x="570.5" y="-44" font-family="Helvetica,sans-Serif" font-size="10.00">ArdourSurface::Push2Menu</text>
</a>
</g>
</g>
<!-- Node1&#45;&gt;Node21 -->
<g id="edge20_Node000001_Node000021" class="edge">
<title>Node1&#45;&gt;Node21</title>
<g id="a_edge20_Node000001_Node000021"><a xlink:title=" ">
<path fill="none" stroke="#63b8ff" d="M384.94,-250.94C394.36,-209.53 422.21,-112.89 485,-64.5 489.4,-61.11 494.29,-58.33 499.44,-56.04"/>
<polygon fill="#63b8ff" stroke="#63b8ff" points="381.49,-250.34 382.8,-260.85 388.33,-251.81 381.49,-250.34"/>
</a>
</g>
</g>
<!-- Node2 -->
<g id="Node000002" class="node">
<title>Node2</title>
<g id="a_Node000002"><a xlink:href="classArdourCanvas_1_1Item.html" target="_top" xlink:title=" ">
<polygon fill="white" stroke="#666666" points="275,-280 162,-280 162,-261 275,-261 275,-280"/>
<text text-anchor="middle" x="218.5" y="-268" font-family="Helvetica,sans-Serif" font-size="10.00">ArdourCanvas::Item</text>
</a>
</g>
</g>
<!-- Node2&#45;&gt;Node1 -->
<g id="edge1_Node000001_Node000002" class="edge">
<title>Node2&#45;&gt;Node1</title>
<g id="a_edge1_Node000001_Node000002"><a xlink:title=" ">
<path fill="none" stroke="#63b8ff" d="M285.41,-270.5C293.83,-270.5 302.45,-270.5 310.89,-270.5"/>
<polygon fill="#63b8ff" stroke="#63b8ff" points="285.29,-267 275.29,-270.5 285.29,-274 285.29,-267"/>
</a>
</g>
</g>
<!-- Node3 -->
<g id="Node000003" class="node">
<title>Node3</title>
<g id="a_Node000003"><a xlink:href="classArdourCanvas_1_1Fill.html" target="_top" xlink:title=" ">
<polygon fill="white" stroke="#666666" points="115.5,-299 10.5,-299 10.5,-280 115.5,-280 115.5,-299"/>
<text text-anchor="middle" x="63" y="-287" font-family="Helvetica,sans-Serif" font-size="10.00">ArdourCanvas::Fill</text>
</a>
</g>
</g>
<!-- Node3&#45;&gt;Node2 -->
<g id="edge2_Node000002_Node000003" class="edge">
<title>Node3&#45;&gt;Node2</title>
<g id="a_edge2_Node000002_Node000003"><a xlink:title=" ">
<path fill="none" stroke="#63b8ff" d="M125.49,-281.89C137.52,-280.4 150.06,-278.85 161.88,-277.38"/>
<polygon fill="#63b8ff" stroke="#63b8ff" points="125.03,-278.42 115.54,-283.12 125.89,-285.37 125.03,-278.42"/>
</a>
</g>
</g>
<!-- Node4 -->
<g id="Node000004" class="node">
<title>Node4</title>
<g id="a_Node000004"><a xlink:href="classArdourCanvas_1_1Outline.html" target="_top" xlink:title=" ">
<polygon fill="white" stroke="#666666" points="126,-262 0,-262 0,-243 126,-243 126,-262"/>
<text text-anchor="middle" x="63" y="-250" font-family="Helvetica,sans-Serif" font-size="10.00">ArdourCanvas::Outline</text>
</a>
</g>
</g>
<!-- Node4&#45;&gt;Node2 -->
<g id="edge3_Node000002_Node000004" class="edge">
<title>Node4&#45;&gt;Node2</title>
<g id="a_edge3_Node000002_Node000004"><a xlink:title=" ">
<path fill="none" stroke="#63b8ff" d="M136.6,-261.01C144.98,-262 153.43,-262.99 161.54,-263.94"/>
<polygon fill="#63b8ff" stroke="#63b8ff" points="136.77,-257.51 126.43,-259.82 135.96,-264.46 136.77,-257.51"/>
</a>
</g>
</g>
<!-- Node16 -->
<g id="Node000016" class="node">
<title>Node16</title>
<g id="a_Node000016"><a xlink:href="classArdourSurface_1_1CueLayout.html" target="_top" xlink:title=" ">
<polygon fill="white" stroke="#666666" points="847.5,-167 704.5,-167 704.5,-148 847.5,-148 847.5,-167"/>
<text text-anchor="middle" x="776" y="-155" font-family="Helvetica,sans-Serif" font-size="10.00">ArdourSurface::CueLayout</text>
</a>
</g>
</g>
<!-- Node15&#45;&gt;Node16 -->
<g id="edge15_Node000015_Node000016" class="edge">
<title>Node15&#45;&gt;Node16</title>
<g id="a_edge15_Node000015_Node000016"><a xlink:title=" ">
<path fill="none" stroke="#63b8ff" d="M645.73,-96.6C649.28,-98.06 652.72,-99.69 656,-101.5 676.09,-112.59 672,-127.26 692,-138.5 698.96,-142.41 706.67,-145.52 714.52,-147.99"/>
<polygon fill="#63b8ff" stroke="#63b8ff" points="646.75,-93.24 636.16,-93.09 644.35,-99.82 646.75,-93.24"/>
</a>
</g>
</g>
<!-- Node17 -->
<g id="Node000017" class="node">
<title>Node17</title>
<g id="a_Node000017"><a xlink:href="classArdourSurface_1_1MixLayout.html" target="_top" xlink:title=" ">
<polygon fill="white" stroke="#666666" points="847.5,-130 704.5,-130 704.5,-111 847.5,-111 847.5,-130"/>
<text text-anchor="middle" x="776" y="-118" font-family="Helvetica,sans-Serif" font-size="10.00">ArdourSurface::MixLayout</text>
</a>
</g>
</g>
<!-- Node15&#45;&gt;Node17 -->
<g id="edge16_Node000015_Node000017" class="edge">
<title>Node15&#45;&gt;Node17</title>
<g id="a_edge16_Node000015_Node000017"><a xlink:title=" ">
<path fill="none" stroke="#63b8ff" d="M634.09,-94.88C662.38,-100.02 695.44,-106.03 722.42,-110.94"/>
<polygon fill="#63b8ff" stroke="#63b8ff" points="634.37,-91.37 623.91,-93.03 633.12,-98.26 634.37,-91.37"/>
</a>
</g>
</g>
<!-- Node18 -->
<g id="Node000018" class="node">
<title>Node18</title>
<g id="a_Node000018"><a xlink:href="classArdourSurface_1_1ScaleLayout.html" target="_top" xlink:title=" ">
<polygon fill="white" stroke="#666666" points="851.5,-93 700.5,-93 700.5,-74 851.5,-74 851.5,-93"/>
<text text-anchor="middle" x="776" y="-81" font-family="Helvetica,sans-Serif" font-size="10.00">ArdourSurface::ScaleLayout</text>
</a>
</g>
</g>
<!-- Node15&#45;&gt;Node18 -->
<g id="edge17_Node000015_Node000018" class="edge">
<title>Node15&#45;&gt;Node18</title>
<g id="a_edge17_Node000015_Node000018"><a xlink:title=" ">
<path fill="none" stroke="#63b8ff" d="M657.79,-83.5C671.96,-83.5 686.53,-83.5 700.38,-83.5"/>
<polygon fill="#63b8ff" stroke="#63b8ff" points="657.57,-80 647.57,-83.5 657.57,-87 657.57,-80"/>
</a>
</g>
</g>
<!-- Node19 -->
<g id="Node000019" class="node">
<title>Node19</title>
<g id="a_Node000019"><a xlink:href="classArdourSurface_1_1SplashLayout.html" target="_top" xlink:title=" ">
<polygon fill="white" stroke="#666666" points="854.5,-56 697.5,-56 697.5,-37 854.5,-37 854.5,-56"/>
<text text-anchor="middle" x="776" y="-44" font-family="Helvetica,sans-Serif" font-size="10.00">ArdourSurface::SplashLayout</text>
</a>
</g>
</g>
<!-- Node15&#45;&gt;Node19 -->
<g id="edge18_Node000015_Node000019" class="edge">
<title>Node15&#45;&gt;Node19</title>
<g id="a_edge18_Node000015_Node000019"><a xlink:title=" ">
<path fill="none" stroke="#63b8ff" d="M634.09,-72.12C662.38,-66.98 695.44,-60.97 722.42,-56.06"/>
<polygon fill="#63b8ff" stroke="#63b8ff" points="633.12,-68.74 623.91,-73.97 634.37,-75.63 633.12,-68.74"/>
</a>
</g>
</g>
<!-- Node20 -->
<g id="Node000020" class="node">
<title>Node20</title>
<g id="a_Node000020"><a xlink:href="classArdourSurface_1_1TrackMixLayout.html" target="_top" xlink:title=" ">
<polygon fill="white" stroke="#666666" points="860,-19 692,-19 692,0 860,0 860,-19"/>
<text text-anchor="middle" x="776" y="-7" font-family="Helvetica,sans-Serif" font-size="10.00">ArdourSurface::TrackMixLayout</text>
</a>
</g>
</g>
<!-- Node15&#45;&gt;Node20 -->
<g id="edge19_Node000015_Node000020" class="edge">
<title>Node15&#45;&gt;Node20</title>
<g id="a_edge19_Node000015_Node000020"><a xlink:title=" ">
<path fill="none" stroke="#63b8ff" d="M642.95,-70.62C647.48,-68.84 651.87,-66.81 656,-64.5 676.02,-53.3 671.93,-38.63 692,-27.5 698.19,-24.07 704.98,-21.29 711.92,-19.04"/>
<polygon fill="#63b8ff" stroke="#63b8ff" points="641.78,-67.32 633.51,-73.95 644.11,-73.93 641.78,-67.32"/>
</a>
</g>
</g>
</g>
</svg>

<g id="navigator" transform="translate(0 0)" fill="#404254">
  <rect fill="#f2f5e9" fill-opacity="0.5" stroke="#606060" stroke-width=".5" x="0" y="0" width="60" height="60"/>
  <use id="zoomplus" xlink:href="#zoomPlus" x="17" y="9" onmousedown="handleZoom(evt,'in')"/>
  <use id="zoomminus" xlink:href="#zoomMin" x="42" y="9" onmousedown="handleZoom(evt,'out')"/>
  <use id="reset" xlink:href="#resetDef" x="30" y="36" onmousedown="handleReset()"/>
   <use id="arrowup" xlink:href="#arrowUp" x="0" y="0" onmousedown="handlePan(0,-1)"/>
  <use id="arrowright" xlink:href="#arrowRight" x="0" y="0" onmousedown="handlePan(1,0)"/>
  <use id="arrowdown" xlink:href="#arrowDown" x="0" y="0" onmousedown="handlePan(0,1)"/>
  <use id="arrowleft" xlink:href="#arrowLeft" x="0" y="0" onmousedown="handlePan(-1,0)"/>
</g>
<svg viewBox="0 0 15 15" width="100%" height="30px" preserveAspectRatio="xMaxYMin meet">
 <g id="arrow_out" transform="scale(0.3 0.3)">
  <a xlink:href="classArdourCanvas_1_1Container__inherit__graph_org.svg" target="_base">
   <rect id="button" ry="5" rx="5" y="6" x="6" height="38" width="38"
        fill="#f2f5e9" fill-opacity="0.5" stroke="#606060" stroke-width="1.0"/>
   <path id="arrow"
     d="M 11.500037,31.436501 C 11.940474,20.09759 22.043105,11.32322 32.158766,21.979434 L 37.068811,17.246167 C 37.068811,17.246167 37.088388,32 37.088388,32 L 22.160133,31.978069 C 22.160133,31.978069 26.997745,27.140456 26.997745,27.140456 C 18.528582,18.264221 13.291696,25.230495 11.500037,31.436501 z"
     style="fill:#404040;"/>
  </a>
 </g>
</svg>

<style type='text/css'>
<![CDATA[
[data-mouse-over-selected='false'] { opacity: 0.7; }
[data-mouse-over-selected='true']  { opacity: 1.0; }
]]>
</style>
<script type="application/ecmascript"><![CDATA[
document.addEventListener('DOMContentLoaded', (event) => {
  highlightEdges();
  highlightAdjacentNodes();
});
]]></script>
</svg>
