<?xml version="1.0" encoding="UTF-8" standalone="no"?>
<!DOCTYPE svg PUBLIC "-//W3C//DTD SVG 1.1//EN"
 "http://www.w3.org/Graphics/SVG/1.1/DTD/svg11.dtd">
<!-- Generated by graphviz version 2.43.0 (0)
 -->
<!-- Title: ARDOUR::ExportFormatOggOpus Pages: 1 -->
<svg width="404pt" height="148pt"
 viewBox="0.00 0.00 404.00 148.00" xmlns="http://www.w3.org/2000/svg" xmlns:xlink="http://www.w3.org/1999/xlink">
<g id="graph0" class="graph" transform="scale(1 1) rotate(0) translate(4 144)">
<title>ARDOUR::ExportFormatOggOpus</title>
<!-- Node1 -->
<g id="Node000001" class="node">
<title>Node1</title>
<g id="a_Node000001"><a xlink:title=" ">
<polygon fill="#999999" stroke="#666666" points="330.5,-19 154.5,-19 154.5,0 330.5,0 330.5,-19"/>
<text text-anchor="middle" x="242.5" y="-7" font-family="Helvetica,sans-Serif" font-size="10.00">ARDOUR::ExportFormatOggOpus</text>
</a>
</g>
</g>
<!-- Node2 -->
<g id="Node000002" class="node">
<title>Node2</title>
<g id="a_Node000002"><a xlink:href="classARDOUR_1_1ExportFormat.html" target="_top" xlink:title="Base class for formats.">
<polygon fill="white" stroke="#666666" points="229,-74 98,-74 98,-55 229,-55 229,-74"/>
<text text-anchor="middle" x="163.5" y="-62" font-family="Helvetica,sans-Serif" font-size="10.00">ARDOUR::ExportFormat</text>
</a>
</g>
</g>
<!-- Node2&#45;&gt;Node1 -->
<g id="edge1_Node000001_Node000002" class="edge">
<title>Node2&#45;&gt;Node1</title>
<g id="a_edge1_Node000001_Node000002"><a xlink:title=" ">
<path fill="none" stroke="#63b8ff" d="M184.89,-49.15C199.17,-39.57 217.47,-27.29 229.58,-19.17"/>
<polygon fill="#63b8ff" stroke="#63b8ff" points="182.55,-46.51 176.19,-54.98 186.45,-52.32 182.55,-46.51"/>
</a>
</g>
</g>
<!-- Node3 -->
<g id="Node000003" class="node">
<title>Node3</title>
<g id="a_Node000003"><a xlink:href="classARDOUR_1_1ExportFormatBase.html" target="_top" xlink:title=" ">
<polygon fill="white" stroke="#666666" points="155,-134.5 0,-134.5 0,-115.5 155,-115.5 155,-134.5"/>
<text text-anchor="middle" x="77.5" y="-122.5" font-family="Helvetica,sans-Serif" font-size="10.00">ARDOUR::ExportFormatBase</text>
</a>
</g>
</g>
<!-- Node3&#45;&gt;Node2 -->
<g id="edge2_Node000002_Node000003" class="edge">
<title>Node3&#45;&gt;Node2</title>
<g id="a_edge2_Node000002_Node000003"><a xlink:title=" ">
<path fill="none" stroke="#63b8ff" d="M98.58,-109.66C114.92,-98.55 137.02,-83.51 150.76,-74.17"/>
<polygon fill="#63b8ff" stroke="#63b8ff" points="96.49,-106.85 90.19,-115.37 100.43,-112.64 96.49,-106.85"/>
</a>
</g>
</g>
<!-- Node4 -->
<g id="Node000004" class="node">
<title>Node4</title>
<g id="a_Node000004"><a xlink:href="classARDOUR_1_1ExportFormatBase_1_1SelectableCompatible.html" target="_top" xlink:title="Class for managing selection and compatibility states.">
<polygon fill="white" stroke="#666666" points="328,-140 173,-140 173,-110 328,-110 328,-140"/>
<text text-anchor="start" x="181" y="-128" font-family="Helvetica,sans-Serif" font-size="10.00">ARDOUR::ExportFormatBase</text>
<text text-anchor="middle" x="250.5" y="-117" font-family="Helvetica,sans-Serif" font-size="10.00">::SelectableCompatible</text>
</a>
</g>
</g>
<!-- Node4&#45;&gt;Node2 -->
<g id="edge3_Node000002_Node000004" class="edge">
<title>Node4&#45;&gt;Node2</title>
<g id="a_edge3_Node000002_Node000004"><a xlink:title=" ">
<path fill="none" stroke="#63b8ff" d="M220.85,-104.06C205.66,-93.85 187.96,-81.95 176.28,-74.09"/>
<polygon fill="#63b8ff" stroke="#63b8ff" points="219.19,-107.16 229.44,-109.84 223.09,-101.35 219.19,-107.16"/>
</a>
</g>
</g>
<!-- Node5 -->
<g id="Node000005" class="node">
<title>Node5</title>
<g id="a_Node000005"><a xlink:href="classARDOUR_1_1HasCodecQuality.html" target="_top" xlink:title=" ">
<polygon fill="white" stroke="#666666" points="396,-74 247,-74 247,-55 396,-55 396,-74"/>
<text text-anchor="middle" x="321.5" y="-62" font-family="Helvetica,sans-Serif" font-size="10.00">ARDOUR::HasCodecQuality</text>
</a>
</g>
</g>
<!-- Node5&#45;&gt;Node1 -->
<g id="edge4_Node000001_Node000005" class="edge">
<title>Node5&#45;&gt;Node1</title>
<g id="a_edge4_Node000001_Node000005"><a xlink:title=" ">
<path fill="none" stroke="#63b8ff" d="M300.11,-49.15C285.83,-39.57 267.53,-27.29 255.42,-19.17"/>
<polygon fill="#63b8ff" stroke="#63b8ff" points="298.55,-52.32 308.81,-54.98 302.45,-46.51 298.55,-52.32"/>
</a>
</g>
</g>
</g>
</svg>
