<?xml version="1.0" encoding="UTF-8" standalone="no"?>
<!DOCTYPE svg PUBLIC "-//W3C//DTD SVG 1.1//EN"
 "http://www.w3.org/Graphics/SVG/1.1/DTD/svg11.dtd">
<!-- Generated by graphviz version 2.43.0 (0)
 -->
<!-- Title: ArdourSurface::Console1 Pages: 1 -->
<svg width="473pt" height="247pt"
 viewBox="0.00 0.00 472.50 247.00" xmlns="http://www.w3.org/2000/svg" xmlns:xlink="http://www.w3.org/1999/xlink">

<svg id="main" version="1.1" xmlns="http://www.w3.org/2000/svg" xmlns:xlink="http://www.w3.org/1999/xlink" xml:space="preserve" onload="init(evt)">
<style type="text/css"><![CDATA[
.node, .edge {opacity: 0.7;}
.node.selected, .edge.selected {opacity: 1;}
.edge:hover path { stroke: red; }
.edge:hover polygon { stroke: red; fill: red; }
]]></style>
<script type="application/ecmascript" xlink:href="svg.min.js"/>
<svg id="graph" class="graph">
<g id="graph0" class="graph" transform="scale(1 1) rotate(0) translate(4 243)">
<title>ArdourSurface::Console1</title>
<!-- Node1 -->
<g id="Node000001" class="node">
<title>Node1</title>
<g id="a_Node000001"><a xlink:title=" ">
<polygon fill="#999999" stroke="#666666" points="337,-19 200,-19 200,0 337,0 337,-19"/>
<text text-anchor="middle" x="268.5" y="-7" font-family="Helvetica,sans-Serif" font-size="10.00">ArdourSurface::Console1</text>
</a>
</g>
</g>
<!-- Node2 -->
<g id="Node000002" class="node">
<title>Node2</title>
<g id="a_Node000002"><a xlink:href="classMIDISurface.html" target="_top" xlink:title=" ">
<polygon fill="white" stroke="#666666" points="306.5,-74 230.5,-74 230.5,-55 306.5,-55 306.5,-74"/>
<text text-anchor="middle" x="268.5" y="-62" font-family="Helvetica,sans-Serif" font-size="10.00">MIDISurface</text>
</a>
</g>
</g>
<!-- Node2&#45;&gt;Node1 -->
<g id="edge1_Node000001_Node000002" class="edge">
<title>Node2&#45;&gt;Node1</title>
<g id="a_edge1_Node000001_Node000002"><a xlink:title=" ">
<path fill="none" stroke="#63b8ff" d="M268.5,-44.66C268.5,-35.93 268.5,-25.99 268.5,-19.09"/>
<polygon fill="#63b8ff" stroke="#63b8ff" points="265,-44.75 268.5,-54.75 272,-44.75 265,-44.75"/>
</a>
</g>
</g>
<!-- Node3 -->
<g id="Node000003" class="node">
<title>Node3</title>
<g id="a_Node000003"><a xlink:href="classARDOUR_1_1ControlProtocol.html" target="_top" xlink:title=" ">
<polygon fill="white" stroke="#666666" points="247.5,-129 107.5,-129 107.5,-110 247.5,-110 247.5,-129"/>
<text text-anchor="middle" x="177.5" y="-117" font-family="Helvetica,sans-Serif" font-size="10.00">ARDOUR::ControlProtocol</text>
</a>
</g>
</g>
<!-- Node3&#45;&gt;Node2 -->
<g id="edge2_Node000002_Node000003" class="edge">
<title>Node3&#45;&gt;Node2</title>
<g id="a_edge2_Node000002_Node000003"><a xlink:title=" ">
<path fill="none" stroke="#63b8ff" d="M201.2,-104.7C217.78,-95.04 239.41,-82.44 253.61,-74.17"/>
<polygon fill="#63b8ff" stroke="#63b8ff" points="199,-101.93 192.12,-109.98 202.52,-107.98 199,-101.93"/>
</a>
</g>
</g>
<!-- Node4 -->
<g id="Node000004" class="node">
<title>Node4</title>
<g id="a_Node000004"><a xlink:href="classPBD_1_1Stateful.html" target="_top" xlink:title=" ">
<polygon fill="white" stroke="#666666" points="81,-184 0,-184 0,-165 81,-165 81,-184"/>
<text text-anchor="middle" x="40.5" y="-172" font-family="Helvetica,sans-Serif" font-size="10.00">PBD::Stateful</text>
</a>
</g>
</g>
<!-- Node4&#45;&gt;Node3 -->
<g id="edge3_Node000003_Node000004" class="edge">
<title>Node4&#45;&gt;Node3</title>
<g id="a_edge3_Node000003_Node000004"><a xlink:title=" ">
<path fill="none" stroke="#63b8ff" d="M72.06,-161.29C97.45,-151.47 132.5,-137.91 155.09,-129.17"/>
<polygon fill="#63b8ff" stroke="#63b8ff" points="70.58,-158.11 62.51,-164.98 73.1,-164.64 70.58,-158.11"/>
</a>
</g>
</g>
<!-- Node5 -->
<g id="Node000005" class="node">
<title>Node5</title>
<g id="a_Node000005"><a xlink:href="classPBD_1_1ScopedConnectionList.html" target="_top" xlink:title=" ">
<polygon fill="white" stroke="#666666" points="249.5,-184 99.5,-184 99.5,-165 249.5,-165 249.5,-184"/>
<text text-anchor="middle" x="174.5" y="-172" font-family="Helvetica,sans-Serif" font-size="10.00">PBD::ScopedConnectionList</text>
</a>
</g>
</g>
<!-- Node5&#45;&gt;Node3 -->
<g id="edge4_Node000003_Node000005" class="edge">
<title>Node5&#45;&gt;Node3</title>
<g id="a_edge4_Node000003_Node000005"><a xlink:title=" ">
<path fill="none" stroke="#63b8ff" d="M175.57,-154.66C176.06,-145.93 176.62,-135.99 177.01,-129.09"/>
<polygon fill="#63b8ff" stroke="#63b8ff" points="172.07,-154.57 175,-164.75 179.06,-154.96 172.07,-154.57"/>
</a>
</g>
</g>
<!-- Node6 -->
<g id="Node000006" class="node">
<title>Node6</title>
<g id="a_Node000006"><a xlink:href="classBasicUI.html" target="_top" xlink:title=" ">
<polygon fill="white" stroke="#666666" points="320,-184 267,-184 267,-165 320,-165 320,-184"/>
<text text-anchor="middle" x="293.5" y="-172" font-family="Helvetica,sans-Serif" font-size="10.00">BasicUI</text>
</a>
</g>
</g>
<!-- Node6&#45;&gt;Node3 -->
<g id="edge5_Node000003_Node000006" class="edge">
<title>Node6&#45;&gt;Node3</title>
<g id="a_edge5_Node000003_Node000006"><a xlink:title=" ">
<path fill="none" stroke="#63b8ff" d="M265.63,-160.77C244.23,-150.99 215.26,-137.75 196.48,-129.17"/>
<polygon fill="#63b8ff" stroke="#63b8ff" points="264.31,-164.01 274.86,-164.98 267.22,-157.65 264.31,-164.01"/>
</a>
</g>
</g>
<!-- Node7 -->
<g id="Node000007" class="node">
<title>Node7</title>
<g id="a_Node000007"><a xlink:href="classAbstractUI.html" target="_top" xlink:title=" ">
<polygon fill="white" stroke="#666666" points="455.5,-129 267.5,-129 267.5,-110 455.5,-110 455.5,-129"/>
<text text-anchor="middle" x="361.5" y="-117" font-family="Helvetica,sans-Serif" font-size="10.00">AbstractUI&lt; MidiSurfaceRequest &gt;</text>
</a>
</g>
</g>
<!-- Node7&#45;&gt;Node2 -->
<g id="edge6_Node000002_Node000007" class="edge">
<title>Node7&#45;&gt;Node2</title>
<g id="a_edge6_Node000002_Node000007"><a xlink:title=" ">
<path fill="none" stroke="#63b8ff" d="M337.75,-104.97C320.75,-95.28 298.37,-82.52 283.71,-74.17"/>
<polygon fill="#63b8ff" stroke="#63b8ff" points="336.14,-108.07 346.56,-109.98 339.6,-101.99 336.14,-108.07"/>
</a>
</g>
</g>
<!-- Node8 -->
<g id="Node000008" class="node">
<title>Node8</title>
<g id="a_Node000008"><a xlink:href="classBaseUI.html" target="_top" xlink:title=" ">
<polygon fill="white" stroke="#666666" points="389,-184 338,-184 338,-165 389,-165 389,-184"/>
<text text-anchor="middle" x="363.5" y="-172" font-family="Helvetica,sans-Serif" font-size="10.00">BaseUI</text>
</a>
</g>
</g>
<!-- Node8&#45;&gt;Node7 -->
<g id="edge7_Node000007_Node000008" class="edge">
<title>Node8&#45;&gt;Node7</title>
<g id="a_edge7_Node000007_Node000008"><a xlink:title=" ">
<path fill="none" stroke="#63b8ff" d="M362.79,-154.66C362.46,-145.93 362.08,-135.99 361.82,-129.09"/>
<polygon fill="#63b8ff" stroke="#63b8ff" points="359.3,-154.89 363.17,-164.75 366.29,-154.62 359.3,-154.89"/>
</a>
</g>
</g>
<!-- Node9 -->
<g id="Node000009" class="node">
<title>Node9</title>
<g id="a_Node000009"><a xlink:title=" ">
<polygon fill="white" stroke="#666666" points="352,-239 265,-239 265,-220 352,-220 352,-239"/>
<text text-anchor="middle" x="308.5" y="-227" font-family="Helvetica,sans-Serif" font-size="10.00">sigc::trackable</text>
</a>
</g>
</g>
<!-- Node9&#45;&gt;Node8 -->
<g id="edge8_Node000008_Node000009" class="edge">
<title>Node9&#45;&gt;Node8</title>
<g id="a_edge8_Node000008_Node000009"><a xlink:title=" ">
<path fill="none" stroke="#63b8ff" d="M324.79,-212.8C334.54,-203.41 346.55,-191.83 354.59,-184.09"/>
<polygon fill="#63b8ff" stroke="#63b8ff" points="322.35,-210.29 317.58,-219.75 327.21,-215.33 322.35,-210.29"/>
</a>
</g>
</g>
<!-- Node10 -->
<g id="Node000010" class="node">
<title>Node10</title>
<g id="a_Node000010"><a xlink:href="classPBD_1_1EventLoop.html" target="_top" xlink:title=" ">
<polygon fill="white" stroke="#666666" points="464.5,-239 370.5,-239 370.5,-220 464.5,-220 464.5,-239"/>
<text text-anchor="middle" x="417.5" y="-227" font-family="Helvetica,sans-Serif" font-size="10.00">PBD::EventLoop</text>
</a>
</g>
</g>
<!-- Node10&#45;&gt;Node8 -->
<g id="edge9_Node000008_Node000010" class="edge">
<title>Node10&#45;&gt;Node8</title>
<g id="a_edge9_Node000008_Node000010"><a xlink:title=" ">
<path fill="none" stroke="#63b8ff" d="M401.22,-212.52C391.7,-203.18 380.06,-191.75 372.25,-184.09"/>
<polygon fill="#63b8ff" stroke="#63b8ff" points="398.99,-215.24 408.58,-219.75 403.9,-210.25 398.99,-215.24"/>
</a>
</g>
</g>
</g>
</svg>
</svg>

<style type='text/css'>
<![CDATA[
[data-mouse-over-selected='false'] { opacity: 0.7; }
[data-mouse-over-selected='true']  { opacity: 1.0; }
]]>
</style>
<script type="application/ecmascript"><![CDATA[
document.addEventListener('DOMContentLoaded', (event) => {
  highlightEdges();
  highlightAdjacentNodes();
});
]]></script>
</svg>
