<?xml version="1.0" encoding="UTF-8" standalone="no"?>
<!DOCTYPE svg PUBLIC "-//W3C//DTD SVG 1.1//EN"
 "http://www.w3.org/Graphics/SVG/1.1/DTD/svg11.dtd">
<!-- Generated by graphviz version 2.43.0 (0)
 -->
<!-- Title: LuaInstance Pages: 1 -->
<svg width="328pt" height="82pt"
 viewBox="0.00 0.00 327.50 82.00" xmlns="http://www.w3.org/2000/svg" xmlns:xlink="http://www.w3.org/1999/xlink">
<g id="graph0" class="graph" transform="scale(1 1) rotate(0) translate(4 78)">
<title>LuaInstance</title>
<!-- Node1 -->
<g id="Node000001" class="node">
<title>Node1</title>
<g id="a_Node000001"><a xlink:title=" ">
<polygon fill="#999999" stroke="#666666" points="196.5,-19 121.5,-19 121.5,0 196.5,0 196.5,-19"/>
<text text-anchor="middle" x="159" y="-7" font-family="Helvetica,sans-Serif" font-size="10.00">LuaInstance</text>
</a>
</g>
</g>
<!-- Node2 -->
<g id="Node000002" class="node">
<title>Node2</title>
<g id="a_Node000002"><a xlink:href="classPBD_1_1ScopedConnectionList.html" target="_top" xlink:title=" ">
<polygon fill="white" stroke="#666666" points="150,-74 0,-74 0,-55 150,-55 150,-74"/>
<text text-anchor="middle" x="75" y="-62" font-family="Helvetica,sans-Serif" font-size="10.00">PBD::ScopedConnectionList</text>
</a>
</g>
</g>
<!-- Node2&#45;&gt;Node1 -->
<g id="edge1_Node000001_Node000002" class="edge">
<title>Node2&#45;&gt;Node1</title>
<g id="a_edge1_Node000001_Node000002"><a xlink:title=" ">
<path fill="none" stroke="#63b8ff" d="M97.31,-49.42C112.55,-39.81 132.27,-27.37 145.26,-19.17"/>
<polygon fill="#63b8ff" stroke="#63b8ff" points="95.09,-46.69 88.5,-54.98 98.82,-52.61 95.09,-46.69"/>
</a>
</g>
</g>
<!-- Node3 -->
<g id="Node000003" class="node">
<title>Node3</title>
<g id="a_Node000003"><a xlink:href="classARDOUR_1_1SessionHandlePtr.html" target="_top" xlink:title=" ">
<polygon fill="white" stroke="#666666" points="319.5,-74 168.5,-74 168.5,-55 319.5,-55 319.5,-74"/>
<text text-anchor="middle" x="244" y="-62" font-family="Helvetica,sans-Serif" font-size="10.00">ARDOUR::SessionHandlePtr</text>
</a>
</g>
</g>
<!-- Node3&#45;&gt;Node1 -->
<g id="edge2_Node000001_Node000003" class="edge">
<title>Node3&#45;&gt;Node1</title>
<g id="a_edge2_Node000001_Node000003"><a xlink:title=" ">
<path fill="none" stroke="#63b8ff" d="M221.43,-49.42C206,-39.81 186.05,-27.37 172.91,-19.17"/>
<polygon fill="#63b8ff" stroke="#63b8ff" points="220.01,-52.66 230.34,-54.98 223.71,-46.72 220.01,-52.66"/>
</a>
</g>
</g>
</g>
</svg>
