<?xml version="1.0" encoding="UTF-8" standalone="no"?>
<!DOCTYPE svg PUBLIC "-//W3C//DTD SVG 1.1//EN"
 "http://www.w3.org/Graphics/SVG/1.1/DTD/svg11.dtd">
<!-- Generated by graphviz version 2.43.0 (0)
 -->
<!-- Title: ArdourCanvas::Canvas Pages: 1 -->
<svg width="519pt" height="203pt"
 viewBox="0.00 0.00 519.00 203.00" xmlns="http://www.w3.org/2000/svg" xmlns:xlink="http://www.w3.org/1999/xlink">
<g id="graph0" class="graph" transform="scale(1 1) rotate(0) translate(4 199)">
<title>ArdourCanvas::Canvas</title>
<!-- Node1 -->
<g id="Node000001" class="node">
<title>Node1</title>
<g id="a_Node000001"><a xlink:title=" ">
<polygon fill="#999999" stroke="#666666" points="327,-195 200,-195 200,-176 327,-176 327,-195"/>
<text text-anchor="middle" x="263.5" y="-183" font-family="Helvetica,sans-Serif" font-size="10.00">ArdourCanvas::Canvas</text>
</a>
</g>
</g>
<!-- Node2 -->
<g id="Node000002" class="node">
<title>Node2</title>
<g id="a_Node000002"><a xlink:href="classArdourCanvas_1_1GtkCanvas.html" target="_top" xlink:title=" ">
<polygon fill="white" stroke="#666666" points="173.5,-134.5 29.5,-134.5 29.5,-115.5 173.5,-115.5 173.5,-134.5"/>
<text text-anchor="middle" x="101.5" y="-122.5" font-family="Helvetica,sans-Serif" font-size="10.00">ArdourCanvas::GtkCanvas</text>
</a>
</g>
</g>
<!-- Node1&#45;&gt;Node2 -->
<g id="edge1_Node000001_Node000002" class="edge">
<title>Node1&#45;&gt;Node2</title>
<g id="a_edge1_Node000001_Node000002"><a xlink:title=" ">
<path fill="none" stroke="#63b8ff" d="M230.34,-172.52C199.01,-161.21 152.81,-144.53 125.08,-134.52"/>
<polygon fill="#63b8ff" stroke="#63b8ff" points="229.35,-175.89 239.94,-175.99 231.73,-169.31 229.35,-175.89"/>
</a>
</g>
</g>
<!-- Node6 -->
<g id="Node000006" class="node">
<title>Node6</title>
<g id="a_Node000006"><a xlink:href="classArdourSurface_1_1Maschine2Canvas.html" target="_top" xlink:title=" ">
<polygon fill="white" stroke="#666666" points="335.5,-140 191.5,-140 191.5,-110 335.5,-110 335.5,-140"/>
<text text-anchor="start" x="199.5" y="-128" font-family="Helvetica,sans-Serif" font-size="10.00">ArdourSurface::Maschine2</text>
<text text-anchor="middle" x="263.5" y="-117" font-family="Helvetica,sans-Serif" font-size="10.00">Canvas</text>
</a>
</g>
</g>
<!-- Node1&#45;&gt;Node6 -->
<g id="edge5_Node000001_Node000006" class="edge">
<title>Node1&#45;&gt;Node6</title>
<g id="a_edge5_Node000001_Node000006"><a xlink:title=" ">
<path fill="none" stroke="#63b8ff" d="M263.5,-165.65C263.5,-157.36 263.5,-147.78 263.5,-140.11"/>
<polygon fill="#63b8ff" stroke="#63b8ff" points="260,-165.87 263.5,-175.87 267,-165.87 260,-165.87"/>
</a>
</g>
</g>
<!-- Node7 -->
<g id="Node000007" class="node">
<title>Node7</title>
<g id="a_Node000007"><a xlink:href="classArdourSurface_1_1Push2Canvas.html" target="_top" xlink:title=" ">
<polygon fill="white" stroke="#666666" points="511,-134.5 354,-134.5 354,-115.5 511,-115.5 511,-134.5"/>
<text text-anchor="middle" x="432.5" y="-122.5" font-family="Helvetica,sans-Serif" font-size="10.00">ArdourSurface::Push2Canvas</text>
</a>
</g>
</g>
<!-- Node1&#45;&gt;Node7 -->
<g id="edge6_Node000001_Node000007" class="edge">
<title>Node1&#45;&gt;Node7</title>
<g id="a_edge6_Node000001_Node000007"><a xlink:title=" ">
<path fill="none" stroke="#63b8ff" d="M297.67,-172.67C330.36,-161.36 378.85,-144.57 407.9,-134.52"/>
<polygon fill="#63b8ff" stroke="#63b8ff" points="296.38,-169.41 288.07,-175.99 298.67,-176.03 296.38,-169.41"/>
</a>
</g>
</g>
<!-- Node3 -->
<g id="Node000003" class="node">
<title>Node3</title>
<g id="a_Node000003"><a xlink:href="classFittedCanvasWidget.html" target="_top" xlink:title=" ">
<polygon fill="white" stroke="#666666" points="159,-74 44,-74 44,-55 159,-55 159,-74"/>
<text text-anchor="middle" x="101.5" y="-62" font-family="Helvetica,sans-Serif" font-size="10.00">FittedCanvasWidget</text>
</a>
</g>
</g>
<!-- Node2&#45;&gt;Node3 -->
<g id="edge2_Node000002_Node000003" class="edge">
<title>Node2&#45;&gt;Node3</title>
<g id="a_edge2_Node000002_Node000003"><a xlink:title=" ">
<path fill="none" stroke="#63b8ff" d="M101.5,-105.16C101.5,-94.74 101.5,-82.3 101.5,-74.17"/>
<polygon fill="#63b8ff" stroke="#63b8ff" points="98,-105.37 101.5,-115.37 105,-105.37 98,-105.37"/>
</a>
</g>
</g>
<!-- Node4 -->
<g id="Node000004" class="node">
<title>Node4</title>
<g id="a_Node000004"><a xlink:href="classCueBoxWidget.html" target="_top" xlink:title=" ">
<polygon fill="white" stroke="#666666" points="89,-19 0,-19 0,0 89,0 89,-19"/>
<text text-anchor="middle" x="44.5" y="-7" font-family="Helvetica,sans-Serif" font-size="10.00">CueBoxWidget</text>
</a>
</g>
</g>
<!-- Node3&#45;&gt;Node4 -->
<g id="edge3_Node000003_Node000004" class="edge">
<title>Node3&#45;&gt;Node4</title>
<g id="a_edge3_Node000003_Node000004"><a xlink:title=" ">
<path fill="none" stroke="#63b8ff" d="M84.88,-48.04C74.77,-38.64 62.22,-26.98 53.82,-19.17"/>
<polygon fill="#63b8ff" stroke="#63b8ff" points="82.64,-50.74 92.34,-54.98 87.4,-45.61 82.64,-50.74"/>
</a>
</g>
</g>
<!-- Node5 -->
<g id="Node000005" class="node">
<title>Node5</title>
<g id="a_Node000005"><a xlink:href="classTriggerBoxWidget.html" target="_top" xlink:title=" ">
<polygon fill="white" stroke="#666666" points="210,-19 107,-19 107,0 210,0 210,-19"/>
<text text-anchor="middle" x="158.5" y="-7" font-family="Helvetica,sans-Serif" font-size="10.00">TriggerBoxWidget</text>
</a>
</g>
</g>
<!-- Node3&#45;&gt;Node5 -->
<g id="edge4_Node000003_Node000005" class="edge">
<title>Node3&#45;&gt;Node5</title>
<g id="a_edge4_Node000003_Node000005"><a xlink:title=" ">
<path fill="none" stroke="#63b8ff" d="M118.12,-48.04C128.23,-38.64 140.78,-26.98 149.18,-19.17"/>
<polygon fill="#63b8ff" stroke="#63b8ff" points="115.6,-45.61 110.66,-54.98 120.36,-50.74 115.6,-45.61"/>
</a>
</g>
</g>
</g>
</svg>
