<?xml version="1.0" encoding="UTF-8" standalone="no"?>
<!DOCTYPE svg PUBLIC "-//W3C//DTD SVG 1.1//EN"
 "http://www.w3.org/Graphics/SVG/1.1/DTD/svg11.dtd">
<!-- Generated by graphviz version 2.43.0 (0)
 -->
<!-- Title: Gtk::HScrollbar Pages: 1 -->
<svg width="98pt" height="302pt"
 viewBox="0.00 0.00 98.00 302.00" xmlns="http://www.w3.org/2000/svg" xmlns:xlink="http://www.w3.org/1999/xlink">

<svg id="main" version="1.1" xmlns="http://www.w3.org/2000/svg" xmlns:xlink="http://www.w3.org/1999/xlink" xml:space="preserve" onload="init(evt)">
<style type="text/css"><![CDATA[
.node, .edge {opacity: 0.7;}
.node.selected, .edge.selected {opacity: 1;}
.edge:hover path { stroke: red; }
.edge:hover polygon { stroke: red; fill: red; }
]]></style>
<script type="application/ecmascript" xlink:href="svg.min.js"/>
<svg id="graph" class="graph">
<g id="graph0" class="graph" transform="scale(1 1) rotate(0) translate(4 298)">
<title>Gtk::HScrollbar</title>
<!-- Node1 -->
<g id="Node000001" class="node">
<title>Node1</title>
<g id="a_Node000001"><a xlink:title=" ">
<polygon fill="#999999" stroke="#666666" points="90,-19 0,-19 0,0 90,0 90,-19"/>
<text text-anchor="middle" x="45" y="-7" font-family="Helvetica,sans-Serif" font-size="10.00">Gtk::HScrollbar</text>
</a>
</g>
</g>
<!-- Node2 -->
<g id="Node000002" class="node">
<title>Node2</title>
<g id="a_Node000002"><a xlink:href="classGtk_1_1Scrollbar.html" target="_top" xlink:title=" ">
<polygon fill="white" stroke="#666666" points="86.5,-74 3.5,-74 3.5,-55 86.5,-55 86.5,-74"/>
<text text-anchor="middle" x="45" y="-62" font-family="Helvetica,sans-Serif" font-size="10.00">Gtk::Scrollbar</text>
</a>
</g>
</g>
<!-- Node2&#45;&gt;Node1 -->
<g id="edge1_Node000001_Node000002" class="edge">
<title>Node2&#45;&gt;Node1</title>
<g id="a_edge1_Node000001_Node000002"><a xlink:title=" ">
<path fill="none" stroke="#63b8ff" d="M45,-44.66C45,-35.93 45,-25.99 45,-19.09"/>
<polygon fill="#63b8ff" stroke="#63b8ff" points="41.5,-44.75 45,-54.75 48.5,-44.75 41.5,-44.75"/>
</a>
</g>
</g>
<!-- Node3 -->
<g id="Node000003" class="node">
<title>Node3</title>
<g id="a_Node000003"><a xlink:href="classGtk_1_1Range.html" target="_top" xlink:title=" ">
<polygon fill="white" stroke="#666666" points="80.5,-129 9.5,-129 9.5,-110 80.5,-110 80.5,-129"/>
<text text-anchor="middle" x="45" y="-117" font-family="Helvetica,sans-Serif" font-size="10.00">Gtk::Range</text>
</a>
</g>
</g>
<!-- Node3&#45;&gt;Node2 -->
<g id="edge2_Node000002_Node000003" class="edge">
<title>Node3&#45;&gt;Node2</title>
<g id="a_edge2_Node000002_Node000003"><a xlink:title=" ">
<path fill="none" stroke="#63b8ff" d="M45,-99.66C45,-90.93 45,-80.99 45,-74.09"/>
<polygon fill="#63b8ff" stroke="#63b8ff" points="41.5,-99.75 45,-109.75 48.5,-99.75 41.5,-99.75"/>
</a>
</g>
</g>
<!-- Node4 -->
<g id="Node000004" class="node">
<title>Node4</title>
<g id="a_Node000004"><a xlink:href="classGtk_1_1Widget.html" target="_top" xlink:title=" ">
<polygon fill="white" stroke="#666666" points="82,-184 8,-184 8,-165 82,-165 82,-184"/>
<text text-anchor="middle" x="45" y="-172" font-family="Helvetica,sans-Serif" font-size="10.00">Gtk::Widget</text>
</a>
</g>
</g>
<!-- Node4&#45;&gt;Node3 -->
<g id="edge3_Node000003_Node000004" class="edge">
<title>Node4&#45;&gt;Node3</title>
<g id="a_edge3_Node000003_Node000004"><a xlink:title=" ">
<path fill="none" stroke="#63b8ff" d="M45,-154.66C45,-145.93 45,-135.99 45,-129.09"/>
<polygon fill="#63b8ff" stroke="#63b8ff" points="41.5,-154.75 45,-164.75 48.5,-154.75 41.5,-154.75"/>
</a>
</g>
</g>
<!-- Node5 -->
<g id="Node000005" class="node">
<title>Node5</title>
<g id="a_Node000005"><a xlink:href="classGtk_1_1Object.html" target="_top" xlink:title=" ">
<polygon fill="white" stroke="#666666" points="80.5,-239 9.5,-239 9.5,-220 80.5,-220 80.5,-239"/>
<text text-anchor="middle" x="45" y="-227" font-family="Helvetica,sans-Serif" font-size="10.00">Gtk::Object</text>
</a>
</g>
</g>
<!-- Node5&#45;&gt;Node4 -->
<g id="edge4_Node000004_Node000005" class="edge">
<title>Node5&#45;&gt;Node4</title>
<g id="a_edge4_Node000004_Node000005"><a xlink:title=" ">
<path fill="none" stroke="#63b8ff" d="M45,-209.66C45,-200.93 45,-190.99 45,-184.09"/>
<polygon fill="#63b8ff" stroke="#63b8ff" points="41.5,-209.75 45,-219.75 48.5,-209.75 41.5,-209.75"/>
</a>
</g>
</g>
<!-- Node6 -->
<g id="Node000006" class="node">
<title>Node6</title>
<g id="a_Node000006"><a xlink:title=" ">
<polygon fill="white" stroke="#666666" points="82,-294 8,-294 8,-275 82,-275 82,-294"/>
<text text-anchor="middle" x="45" y="-282" font-family="Helvetica,sans-Serif" font-size="10.00">Glib::Object</text>
</a>
</g>
</g>
<!-- Node6&#45;&gt;Node5 -->
<g id="edge5_Node000005_Node000006" class="edge">
<title>Node6&#45;&gt;Node5</title>
<g id="a_edge5_Node000005_Node000006"><a xlink:title=" ">
<path fill="none" stroke="#63b8ff" d="M45,-264.66C45,-255.93 45,-245.99 45,-239.09"/>
<polygon fill="#63b8ff" stroke="#63b8ff" points="41.5,-264.75 45,-274.75 48.5,-264.75 41.5,-264.75"/>
</a>
</g>
</g>
</g>
</svg>
</svg>

<style type='text/css'>
<![CDATA[
[data-mouse-over-selected='false'] { opacity: 0.7; }
[data-mouse-over-selected='true']  { opacity: 1.0; }
]]>
</style>
<script type="application/ecmascript"><![CDATA[
document.addEventListener('DOMContentLoaded', (event) => {
  highlightEdges();
  highlightAdjacentNodes();
});
]]></script>
</svg>
