<?xml version="1.0" encoding="UTF-8" standalone="no"?>
<!DOCTYPE svg PUBLIC "-//W3C//DTD SVG 1.1//EN"
 "http://www.w3.org/Graphics/SVG/1.1/DTD/svg11.dtd">
<!-- Generated by graphviz version 2.43.0 (0)
 -->
<!-- Title: TriggerPage Pages: 1 -->
<svg width="766pt" height="175pt"
 viewBox="0.00 0.00 766.00 175.00" xmlns="http://www.w3.org/2000/svg" xmlns:xlink="http://www.w3.org/1999/xlink">
<g id="graph0" class="graph" transform="scale(1 1) rotate(0) translate(4 171)">
<title>TriggerPage</title>
<!-- Node1 -->
<g id="Node000001" class="node">
<title>Node1</title>
<g id="a_Node000001"><a xlink:title=" ">
<polygon fill="#999999" stroke="#666666" points="758,-74 685,-74 685,-55 758,-55 758,-74"/>
<text text-anchor="middle" x="721.5" y="-62" font-family="Helvetica,sans-Serif" font-size="10.00">TriggerPage</text>
</a>
</g>
</g>
<!-- Node2 -->
<g id="Node000002" class="node">
<title>Node2</title>
<g id="a_Node000002"><a xlink:href="classArdourWidgets_1_1Tabbable.html" target="_top" xlink:title=" ">
<polygon fill="white" stroke="#666666" points="642.5,-130 504.5,-130 504.5,-111 642.5,-111 642.5,-130"/>
<text text-anchor="middle" x="573.5" y="-118" font-family="Helvetica,sans-Serif" font-size="10.00">ArdourWidgets::Tabbable</text>
</a>
</g>
</g>
<!-- Node2&#45;&gt;Node1 -->
<g id="edge1_Node000001_Node000002" class="edge">
<title>Node2&#45;&gt;Node1</title>
<g id="a_edge1_Node000001_Node000002"><a xlink:title=" ">
<path fill="none" stroke="#63b8ff" d="M628.78,-108.21C635.66,-106.2 642.55,-103.96 649,-101.5 668.86,-93.94 690.34,-82.32 704.52,-74.12"/>
<polygon fill="#63b8ff" stroke="#63b8ff" points="627.45,-104.94 618.75,-110.98 629.32,-111.69 627.45,-104.94"/>
</a>
</g>
</g>
<!-- Node3 -->
<g id="Node000003" class="node">
<title>Node3</title>
<g id="a_Node000003"><a xlink:href="classGtkmm2ext_1_1WindowProxy.html" target="_top" xlink:title=" ">
<polygon fill="white" stroke="#666666" points="462,-130 314,-130 314,-111 462,-111 462,-130"/>
<text text-anchor="middle" x="388" y="-118" font-family="Helvetica,sans-Serif" font-size="10.00">Gtkmm2ext::WindowProxy</text>
</a>
</g>
</g>
<!-- Node3&#45;&gt;Node2 -->
<g id="edge2_Node000002_Node000003" class="edge">
<title>Node3&#45;&gt;Node2</title>
<g id="a_edge2_Node000002_Node000003"><a xlink:title=" ">
<path fill="none" stroke="#63b8ff" d="M472.3,-120.5C483.07,-120.5 493.99,-120.5 504.47,-120.5"/>
<polygon fill="#63b8ff" stroke="#63b8ff" points="472.05,-117 462.05,-120.5 472.05,-124 472.05,-117"/>
</a>
</g>
</g>
<!-- Node4 -->
<g id="Node000004" class="node">
<title>Node4</title>
<g id="a_Node000004"><a xlink:href="classPBD_1_1StatefulDestructible.html" target="_top" xlink:title=" ">
<polygon fill="white" stroke="#666666" points="278,-149 138,-149 138,-130 278,-130 278,-149"/>
<text text-anchor="middle" x="208" y="-137" font-family="Helvetica,sans-Serif" font-size="10.00">PBD::StatefulDestructible</text>
</a>
</g>
</g>
<!-- Node4&#45;&gt;Node3 -->
<g id="edge3_Node000003_Node000004" class="edge">
<title>Node4&#45;&gt;Node3</title>
<g id="a_edge3_Node000003_Node000004"><a xlink:title=" ">
<path fill="none" stroke="#63b8ff" d="M288.06,-131.06C296.64,-130.15 305.34,-129.22 313.84,-128.31"/>
<polygon fill="#63b8ff" stroke="#63b8ff" points="287.65,-127.59 278.07,-132.13 288.39,-134.55 287.65,-127.59"/>
</a>
</g>
</g>
<!-- Node5 -->
<g id="Node000005" class="node">
<title>Node5</title>
<g id="a_Node000005"><a xlink:href="classPBD_1_1Stateful.html" target="_top" xlink:title=" ">
<polygon fill="white" stroke="#666666" points="91.5,-167 10.5,-167 10.5,-148 91.5,-148 91.5,-167"/>
<text text-anchor="middle" x="51" y="-155" font-family="Helvetica,sans-Serif" font-size="10.00">PBD::Stateful</text>
</a>
</g>
</g>
<!-- Node5&#45;&gt;Node4 -->
<g id="edge4_Node000004_Node000005" class="edge">
<title>Node5&#45;&gt;Node4</title>
<g id="a_edge4_Node000004_Node000005"><a xlink:title=" ">
<path fill="none" stroke="#63b8ff" d="M101.75,-151.72C113.21,-150.39 125.61,-148.95 137.74,-147.54"/>
<polygon fill="#63b8ff" stroke="#63b8ff" points="101.04,-148.28 91.51,-152.91 101.85,-155.23 101.04,-148.28"/>
</a>
</g>
</g>
<!-- Node6 -->
<g id="Node000006" class="node">
<title>Node6</title>
<g id="a_Node000006"><a xlink:href="classPBD_1_1Destructible.html" target="_top" xlink:title=" ">
<polygon fill="white" stroke="#666666" points="102,-130 0,-130 0,-111 102,-111 102,-130"/>
<text text-anchor="middle" x="51" y="-118" font-family="Helvetica,sans-Serif" font-size="10.00">PBD::Destructible</text>
</a>
</g>
</g>
<!-- Node6&#45;&gt;Node4 -->
<g id="edge5_Node000004_Node000006" class="edge">
<title>Node6&#45;&gt;Node4</title>
<g id="a_edge5_Node000004_Node000006"><a xlink:title=" ">
<path fill="none" stroke="#63b8ff" d="M112.33,-127.9C120.67,-128.92 129.29,-129.97 137.77,-131.01"/>
<polygon fill="#63b8ff" stroke="#63b8ff" points="112.68,-124.41 102.32,-126.67 111.82,-131.36 112.68,-124.41"/>
</a>
</g>
</g>
<!-- Node7 -->
<g id="Node000007" class="node">
<title>Node7</title>
<g id="a_Node000007"><a xlink:title=" ">
<polygon fill="white" stroke="#666666" points="251.5,-112 164.5,-112 164.5,-93 251.5,-93 251.5,-112"/>
<text text-anchor="middle" x="208" y="-100" font-family="Helvetica,sans-Serif" font-size="10.00">sigc::trackable</text>
</a>
</g>
</g>
<!-- Node7&#45;&gt;Node3 -->
<g id="edge6_Node000003_Node000007" class="edge">
<title>Node7&#45;&gt;Node3</title>
<g id="a_edge6_Node000003_Node000007"><a xlink:title=" ">
<path fill="none" stroke="#63b8ff" d="M262.01,-107.86C278.25,-109.5 296.42,-111.34 313.77,-113.09"/>
<polygon fill="#63b8ff" stroke="#63b8ff" points="261.94,-104.34 251.64,-106.81 261.23,-111.3 261.94,-104.34"/>
</a>
</g>
</g>
<!-- Node8 -->
<g id="Node000008" class="node">
<title>Node8</title>
<g id="a_Node000008"><a xlink:href="classARDOUR_1_1SessionHandlePtr.html" target="_top" xlink:title=" ">
<polygon fill="white" stroke="#666666" points="649,-93 498,-93 498,-74 649,-74 649,-93"/>
<text text-anchor="middle" x="573.5" y="-81" font-family="Helvetica,sans-Serif" font-size="10.00">ARDOUR::SessionHandlePtr</text>
</a>
</g>
</g>
<!-- Node8&#45;&gt;Node1 -->
<g id="edge7_Node000001_Node000008" class="edge">
<title>Node8&#45;&gt;Node1</title>
<g id="a_edge7_Node000001_Node000008"><a xlink:title=" ">
<path fill="none" stroke="#63b8ff" d="M658.08,-72.62C667.38,-71.41 676.44,-70.23 684.65,-69.17"/>
<polygon fill="#63b8ff" stroke="#63b8ff" points="657.39,-69.18 647.93,-73.94 658.3,-76.12 657.39,-69.18"/>
</a>
</g>
</g>
<!-- Node9 -->
<g id="Node000009" class="node">
<title>Node9</title>
<g id="a_Node000009"><a xlink:href="classPBD_1_1ScopedConnectionList.html" target="_top" xlink:title=" ">
<polygon fill="white" stroke="#666666" points="648.5,-56 498.5,-56 498.5,-37 648.5,-37 648.5,-56"/>
<text text-anchor="middle" x="573.5" y="-44" font-family="Helvetica,sans-Serif" font-size="10.00">PBD::ScopedConnectionList</text>
</a>
</g>
</g>
<!-- Node9&#45;&gt;Node1 -->
<g id="edge8_Node000001_Node000009" class="edge">
<title>Node9&#45;&gt;Node1</title>
<g id="a_edge8_Node000001_Node000009"><a xlink:title=" ">
<path fill="none" stroke="#63b8ff" d="M658.74,-56.89C667.85,-58.01 676.72,-59.1 684.77,-60.09"/>
<polygon fill="#63b8ff" stroke="#63b8ff" points="659.14,-53.41 648.78,-55.66 658.28,-60.36 659.14,-53.41"/>
</a>
</g>
</g>
<!-- Node10 -->
<g id="Node000010" class="node">
<title>Node10</title>
<g id="a_Node000010"><a xlink:href="classAxisViewProvider.html" target="_top" xlink:title=" ">
<polygon fill="white" stroke="#666666" points="624.5,-19 522.5,-19 522.5,0 624.5,0 624.5,-19"/>
<text text-anchor="middle" x="573.5" y="-7" font-family="Helvetica,sans-Serif" font-size="10.00">AxisViewProvider</text>
</a>
</g>
</g>
<!-- Node10&#45;&gt;Node1 -->
<g id="edge9_Node000001_Node000010" class="edge">
<title>Node10&#45;&gt;Node1</title>
<g id="a_edge9_Node000001_Node000010"><a xlink:title=" ">
<path fill="none" stroke="#63b8ff" d="M631.53,-21.78C637.49,-23.5 643.41,-25.41 649,-27.5 669.03,-34.98 690.66,-46.73 704.82,-54.98"/>
<polygon fill="#63b8ff" stroke="#63b8ff" points="632.09,-18.3 621.52,-19.04 630.24,-25.05 632.09,-18.3"/>
</a>
</g>
</g>
</g>
</svg>
