<?xml version="1.0" encoding="UTF-8" standalone="no"?>
<!DOCTYPE svg PUBLIC "-//W3C//DTD SVG 1.1//EN"
 "http://www.w3.org/Graphics/SVG/1.1/DTD/svg11.dtd">
<!-- Generated by graphviz version 2.43.0 (0)
 -->
<!-- Title: VCATimeAxisView Pages: 1 -->
<svg width="424pt" height="302pt"
 viewBox="0.00 0.00 423.50 302.00" xmlns="http://www.w3.org/2000/svg" xmlns:xlink="http://www.w3.org/1999/xlink">
<g id="graph0" class="graph" transform="scale(1 1) rotate(0) translate(4 298)">
<title>VCATimeAxisView</title>
<!-- Node1 -->
<g id="Node000001" class="node">
<title>Node1</title>
<g id="a_Node000001"><a xlink:title=" ">
<polygon fill="#999999" stroke="#666666" points="346,-19 240,-19 240,0 346,0 346,-19"/>
<text text-anchor="middle" x="293" y="-7" font-family="Helvetica,sans-Serif" font-size="10.00">VCATimeAxisView</text>
</a>
</g>
</g>
<!-- Node2 -->
<g id="Node000002" class="node">
<title>Node2</title>
<g id="a_Node000002"><a xlink:href="classStripableTimeAxisView.html" target="_top" xlink:title=" ">
<polygon fill="white" stroke="#666666" points="358,-74 228,-74 228,-55 358,-55 358,-74"/>
<text text-anchor="middle" x="293" y="-62" font-family="Helvetica,sans-Serif" font-size="10.00">StripableTimeAxisView</text>
</a>
</g>
</g>
<!-- Node2&#45;&gt;Node1 -->
<g id="edge1_Node000001_Node000002" class="edge">
<title>Node2&#45;&gt;Node1</title>
<g id="a_edge1_Node000001_Node000002"><a xlink:title=" ">
<path fill="none" stroke="#63b8ff" d="M293,-44.66C293,-35.93 293,-25.99 293,-19.09"/>
<polygon fill="#63b8ff" stroke="#63b8ff" points="289.5,-44.75 293,-54.75 296.5,-44.75 289.5,-44.75"/>
</a>
</g>
</g>
<!-- Node3 -->
<g id="Node000003" class="node">
<title>Node3</title>
<g id="a_Node000003"><a xlink:href="classTimeAxisView.html" target="_top" xlink:title=" ">
<polygon fill="white" stroke="#666666" points="336,-129 250,-129 250,-110 336,-110 336,-129"/>
<text text-anchor="middle" x="293" y="-117" font-family="Helvetica,sans-Serif" font-size="10.00">TimeAxisView</text>
</a>
</g>
</g>
<!-- Node3&#45;&gt;Node2 -->
<g id="edge2_Node000002_Node000003" class="edge">
<title>Node3&#45;&gt;Node2</title>
<g id="a_edge2_Node000002_Node000003"><a xlink:title=" ">
<path fill="none" stroke="#63b8ff" d="M293,-99.66C293,-90.93 293,-80.99 293,-74.09"/>
<polygon fill="#63b8ff" stroke="#63b8ff" points="289.5,-99.75 293,-109.75 296.5,-99.75 289.5,-99.75"/>
</a>
</g>
</g>
<!-- Node4 -->
<g id="Node000004" class="node">
<title>Node4</title>
<g id="a_Node000004"><a xlink:href="classAxisView.html" target="_top" xlink:title=" ">
<polygon fill="white" stroke="#666666" points="275,-184 213,-184 213,-165 275,-165 275,-184"/>
<text text-anchor="middle" x="244" y="-172" font-family="Helvetica,sans-Serif" font-size="10.00">AxisView</text>
</a>
</g>
</g>
<!-- Node4&#45;&gt;Node3 -->
<g id="edge3_Node000003_Node000004" class="edge">
<title>Node4&#45;&gt;Node3</title>
<g id="a_edge3_Node000003_Node000004"><a xlink:title=" ">
<path fill="none" stroke="#63b8ff" d="M259.03,-157.24C267.62,-147.95 278.04,-136.68 285.06,-129.09"/>
<polygon fill="#63b8ff" stroke="#63b8ff" points="256.31,-155.03 252.09,-164.75 261.45,-159.78 256.31,-155.03"/>
</a>
</g>
</g>
<!-- Node5 -->
<g id="Node000005" class="node">
<title>Node5</title>
<g id="a_Node000005"><a xlink:href="classPBD_1_1ScopedConnectionList.html" target="_top" xlink:title=" ">
<polygon fill="white" stroke="#666666" points="150,-239 0,-239 0,-220 150,-220 150,-239"/>
<text text-anchor="middle" x="75" y="-227" font-family="Helvetica,sans-Serif" font-size="10.00">PBD::ScopedConnectionList</text>
</a>
</g>
</g>
<!-- Node5&#45;&gt;Node4 -->
<g id="edge4_Node000004_Node000005" class="edge">
<title>Node5&#45;&gt;Node4</title>
<g id="a_edge4_Node000004_Node000005"><a xlink:title=" ">
<path fill="none" stroke="#63b8ff" d="M111.9,-216.93C143.47,-207.03 188.18,-193.01 216.63,-184.08"/>
<polygon fill="#63b8ff" stroke="#63b8ff" points="110.65,-213.65 102.15,-219.98 112.74,-220.33 110.65,-213.65"/>
</a>
</g>
</g>
<!-- Node6 -->
<g id="Node000006" class="node">
<title>Node6</title>
<g id="a_Node000006"><a xlink:href="classARDOUR_1_1SessionHandlePtr.html" target="_top" xlink:title=" ">
<polygon fill="white" stroke="#666666" points="319.5,-239 168.5,-239 168.5,-220 319.5,-220 319.5,-239"/>
<text text-anchor="middle" x="244" y="-227" font-family="Helvetica,sans-Serif" font-size="10.00">ARDOUR::SessionHandlePtr</text>
</a>
</g>
</g>
<!-- Node6&#45;&gt;Node4 -->
<g id="edge5_Node000004_Node000006" class="edge">
<title>Node6&#45;&gt;Node4</title>
<g id="a_edge5_Node000004_Node000006"><a xlink:title=" ">
<path fill="none" stroke="#63b8ff" d="M244,-209.66C244,-200.93 244,-190.99 244,-184.09"/>
<polygon fill="#63b8ff" stroke="#63b8ff" points="240.5,-209.75 244,-219.75 247.5,-209.75 240.5,-209.75"/>
</a>
</g>
</g>
<!-- Node7 -->
<g id="Node000007" class="node">
<title>Node7</title>
<g id="a_Node000007"><a xlink:href="classSelectable.html" target="_top" xlink:title=" ">
<polygon fill="white" stroke="#666666" points="406,-239 338,-239 338,-220 406,-220 406,-239"/>
<text text-anchor="middle" x="372" y="-227" font-family="Helvetica,sans-Serif" font-size="10.00">Selectable</text>
</a>
</g>
</g>
<!-- Node7&#45;&gt;Node4 -->
<g id="edge6_Node000004_Node000007" class="edge">
<title>Node7&#45;&gt;Node4</title>
<g id="a_edge6_Node000004_Node000007"><a xlink:title=" ">
<path fill="none" stroke="#63b8ff" d="M341.88,-216.03C318.21,-206.23 285.85,-192.83 264.94,-184.17"/>
<polygon fill="#63b8ff" stroke="#63b8ff" points="340.86,-219.39 351.43,-219.98 343.53,-212.93 340.86,-219.39"/>
</a>
</g>
</g>
<!-- Node8 -->
<g id="Node000008" class="node">
<title>Node8</title>
<g id="a_Node000008"><a xlink:title=" ">
<polygon fill="white" stroke="#666666" points="415.5,-294 328.5,-294 328.5,-275 415.5,-275 415.5,-294"/>
<text text-anchor="middle" x="372" y="-282" font-family="Helvetica,sans-Serif" font-size="10.00">sigc::trackable</text>
</a>
</g>
</g>
<!-- Node8&#45;&gt;Node7 -->
<g id="edge7_Node000007_Node000008" class="edge">
<title>Node8&#45;&gt;Node7</title>
<g id="a_edge7_Node000007_Node000008"><a xlink:title=" ">
<path fill="none" stroke="#63b8ff" d="M372,-264.66C372,-255.93 372,-245.99 372,-239.09"/>
<polygon fill="#63b8ff" stroke="#63b8ff" points="368.5,-264.75 372,-274.75 375.5,-264.75 368.5,-264.75"/>
</a>
</g>
</g>
<!-- Node9 -->
<g id="Node000009" class="node">
<title>Node9</title>
<g id="a_Node000009"><a xlink:href="classSelectableOwner.html" target="_top" xlink:title=" ">
<polygon fill="white" stroke="#666666" points="392.5,-184 293.5,-184 293.5,-165 392.5,-165 392.5,-184"/>
<text text-anchor="middle" x="343" y="-172" font-family="Helvetica,sans-Serif" font-size="10.00">SelectableOwner</text>
</a>
</g>
</g>
<!-- Node9&#45;&gt;Node3 -->
<g id="edge8_Node000003_Node000009" class="edge">
<title>Node9&#45;&gt;Node3</title>
<g id="a_edge8_Node000003_Node000009"><a xlink:title=" ">
<path fill="none" stroke="#63b8ff" d="M327.66,-157.24C318.9,-147.95 308.26,-136.68 301.1,-129.09"/>
<polygon fill="#63b8ff" stroke="#63b8ff" points="325.34,-159.88 334.74,-164.75 330.43,-155.07 325.34,-159.88"/>
</a>
</g>
</g>
</g>
</svg>
