<?xml version="1.0" encoding="UTF-8" standalone="no"?>
<!DOCTYPE svg PUBLIC "-//W3C//DTD SVG 1.1//EN"
 "http://www.w3.org/Graphics/SVG/1.1/DTD/svg11.dtd">
<!-- Generated by graphviz version 2.43.0 (0)
 -->
<!-- Title: TriggerUI Pages: 1 -->
<svg width="555pt" height="192pt"
 viewBox="0.00 0.00 554.50 192.00" xmlns="http://www.w3.org/2000/svg" xmlns:xlink="http://www.w3.org/1999/xlink">
<g id="graph0" class="graph" transform="scale(1 1) rotate(0) translate(4 188)">
<title>TriggerUI</title>
<!-- Node1 -->
<g id="Node000001" class="node">
<title>Node1</title>
<g id="a_Node000001"><a xlink:title=" ">
<polygon fill="#999999" stroke="#666666" points="242,-129 182,-129 182,-110 242,-110 242,-129"/>
<text text-anchor="middle" x="212" y="-117" font-family="Helvetica,sans-Serif" font-size="10.00">TriggerUI</text>
</a>
</g>
</g>
<!-- Node3 -->
<g id="Node000003" class="node">
<title>Node3</title>
<g id="a_Node000003"><a xlink:href="classSlotPropertyTable.html" target="_top" xlink:title=" ">
<polygon fill="white" stroke="#666666" points="102,-74 0,-74 0,-55 102,-55 102,-74"/>
<text text-anchor="middle" x="51" y="-62" font-family="Helvetica,sans-Serif" font-size="10.00">SlotPropertyTable</text>
</a>
</g>
</g>
<!-- Node1&#45;&gt;Node3 -->
<g id="edge2_Node000001_Node000003" class="edge">
<title>Node1&#45;&gt;Node3</title>
<g id="a_edge2_Node000001_Node000003"><a xlink:title=" ">
<path fill="none" stroke="#63b8ff" d="M176.45,-106.8C146.41,-96.91 104.06,-82.97 77.07,-74.08"/>
<polygon fill="#63b8ff" stroke="#63b8ff" points="175.54,-110.18 186.13,-109.98 177.73,-103.53 175.54,-110.18"/>
</a>
</g>
</g>
<!-- Node4 -->
<g id="Node000004" class="node">
<title>Node4</title>
<g id="a_Node000004"><a xlink:href="classTriggerEntry.html" target="_top" xlink:title=" ">
<polygon fill="white" stroke="#666666" points="195.5,-74 120.5,-74 120.5,-55 195.5,-55 195.5,-74"/>
<text text-anchor="middle" x="158" y="-62" font-family="Helvetica,sans-Serif" font-size="10.00">TriggerEntry</text>
</a>
</g>
</g>
<!-- Node1&#45;&gt;Node4 -->
<g id="edge3_Node000001_Node000004" class="edge">
<title>Node1&#45;&gt;Node4</title>
<g id="a_edge3_Node000001_Node000004"><a xlink:title=" ">
<path fill="none" stroke="#63b8ff" d="M195.72,-102.52C186.2,-93.18 174.56,-81.75 166.75,-74.09"/>
<polygon fill="#63b8ff" stroke="#63b8ff" points="193.49,-105.24 203.08,-109.75 198.4,-100.25 193.49,-105.24"/>
</a>
</g>
</g>
<!-- Node5 -->
<g id="Node000005" class="node">
<title>Node5</title>
<g id="a_Node000005"><a xlink:href="classTriggerJumpDialog.html" target="_top" xlink:title=" ">
<polygon fill="white" stroke="#666666" points="319,-74 213,-74 213,-55 319,-55 319,-74"/>
<text text-anchor="middle" x="266" y="-62" font-family="Helvetica,sans-Serif" font-size="10.00">TriggerJumpDialog</text>
</a>
</g>
</g>
<!-- Node1&#45;&gt;Node5 -->
<g id="edge4_Node000001_Node000005" class="edge">
<title>Node1&#45;&gt;Node5</title>
<g id="a_edge4_Node000001_Node000005"><a xlink:title=" ">
<path fill="none" stroke="#63b8ff" d="M228.28,-102.52C237.8,-93.18 249.44,-81.75 257.25,-74.09"/>
<polygon fill="#63b8ff" stroke="#63b8ff" points="225.6,-100.25 220.92,-109.75 230.51,-105.24 225.6,-100.25"/>
</a>
</g>
</g>
<!-- Node6 -->
<g id="Node000006" class="node">
<title>Node6</title>
<g id="a_Node000006"><a xlink:href="classTriggerPropertiesBox.html" target="_top" xlink:title=" ">
<polygon fill="white" stroke="#666666" points="455,-74 337,-74 337,-55 455,-55 455,-74"/>
<text text-anchor="middle" x="396" y="-62" font-family="Helvetica,sans-Serif" font-size="10.00">TriggerPropertiesBox</text>
</a>
</g>
</g>
<!-- Node1&#45;&gt;Node6 -->
<g id="edge5_Node000001_Node000006" class="edge">
<title>Node1&#45;&gt;Node6</title>
<g id="a_edge5_Node000001_Node000006"><a xlink:title=" ">
<path fill="none" stroke="#63b8ff" d="M251.29,-107.18C285.7,-97.27 334.96,-83.08 366.21,-74.08"/>
<polygon fill="#63b8ff" stroke="#63b8ff" points="250.2,-103.85 241.56,-109.98 252.14,-110.58 250.2,-103.85"/>
</a>
</g>
</g>
<!-- Node2 -->
<g id="Node000002" class="node">
<title>Node2</title>
<g id="a_Node000002"><a xlink:title=" ">
<polygon fill="white" stroke="#666666" points="255.5,-184 168.5,-184 168.5,-165 255.5,-165 255.5,-184"/>
<text text-anchor="middle" x="212" y="-172" font-family="Helvetica,sans-Serif" font-size="10.00">sigc::trackable</text>
</a>
</g>
</g>
<!-- Node2&#45;&gt;Node1 -->
<g id="edge1_Node000001_Node000002" class="edge">
<title>Node2&#45;&gt;Node1</title>
<g id="a_edge1_Node000001_Node000002"><a xlink:title=" ">
<path fill="none" stroke="#63b8ff" d="M212,-154.66C212,-145.93 212,-135.99 212,-129.09"/>
<polygon fill="#63b8ff" stroke="#63b8ff" points="208.5,-154.75 212,-164.75 215.5,-154.75 208.5,-154.75"/>
</a>
</g>
</g>
<!-- Node7 -->
<g id="Node000007" class="node">
<title>Node7</title>
<g id="a_Node000007"><a xlink:href="classAudioTriggerPropertiesBox.html" target="_top" xlink:title=" ">
<polygon fill="white" stroke="#666666" points="389,-19 243,-19 243,0 389,0 389,-19"/>
<text text-anchor="middle" x="316" y="-7" font-family="Helvetica,sans-Serif" font-size="10.00">AudioTriggerPropertiesBox</text>
</a>
</g>
</g>
<!-- Node6&#45;&gt;Node7 -->
<g id="edge6_Node000006_Node000007" class="edge">
<title>Node6&#45;&gt;Node7</title>
<g id="a_edge6_Node000006_Node000007"><a xlink:title=" ">
<path fill="none" stroke="#63b8ff" d="M374.75,-49.42C360.24,-39.81 341.46,-27.37 329.09,-19.17"/>
<polygon fill="#63b8ff" stroke="#63b8ff" points="372.88,-52.38 383.15,-54.98 376.74,-46.54 372.88,-52.38"/>
</a>
</g>
</g>
<!-- Node8 -->
<g id="Node000008" class="node">
<title>Node8</title>
<g id="a_Node000008"><a xlink:href="classMidiTriggerPropertiesBox.html" target="_top" xlink:title=" ">
<polygon fill="white" stroke="#666666" points="546.5,-19 407.5,-19 407.5,0 546.5,0 546.5,-19"/>
<text text-anchor="middle" x="477" y="-7" font-family="Helvetica,sans-Serif" font-size="10.00">MidiTriggerPropertiesBox</text>
</a>
</g>
</g>
<!-- Node6&#45;&gt;Node8 -->
<g id="edge7_Node000006_Node000008" class="edge">
<title>Node6&#45;&gt;Node8</title>
<g id="a_edge7_Node000006_Node000008"><a xlink:title=" ">
<path fill="none" stroke="#63b8ff" d="M417.51,-49.42C432.21,-39.81 451.22,-27.37 463.75,-19.17"/>
<polygon fill="#63b8ff" stroke="#63b8ff" points="415.47,-46.58 409.01,-54.98 419.3,-52.44 415.47,-46.58"/>
</a>
</g>
</g>
</g>
</svg>
