<?xml version="1.0" encoding="UTF-8" standalone="no"?>
<!DOCTYPE svg PUBLIC "-//W3C//DTD SVG 1.1//EN"
 "http://www.w3.org/Graphics/SVG/1.1/DTD/svg11.dtd">
<!-- Generated by graphviz version 2.43.0 (0)
 -->
<!-- Title: Editor Pages: 1 -->
<svg width="927pt" height="205pt"
 viewBox="0.00 0.00 927.00 205.00" xmlns="http://www.w3.org/2000/svg" xmlns:xlink="http://www.w3.org/1999/xlink">
<g id="graph0" class="graph" transform="scale(1 1) rotate(0) translate(4 201)">
<title>Editor</title>
<!-- Node1 -->
<g id="Node000001" class="node">
<title>Node1</title>
<g id="a_Node000001"><a xlink:title=" ">
<polygon fill="#999999" stroke="#666666" points="919,-77 874,-77 874,-58 919,-58 919,-77"/>
<text text-anchor="middle" x="896.5" y="-65" font-family="Helvetica,sans-Serif" font-size="10.00">Editor</text>
</a>
</g>
</g>
<!-- Node2 -->
<g id="Node000002" class="node">
<title>Node2</title>
<g id="a_Node000002"><a xlink:href="classPublicEditor.html" target="_top" xlink:title="Representation of the interface of the Editor class.">
<polygon fill="white" stroke="#666666" points="800,-96 726,-96 726,-77 800,-77 800,-96"/>
<text text-anchor="middle" x="763" y="-84" font-family="Helvetica,sans-Serif" font-size="10.00">PublicEditor</text>
</a>
</g>
</g>
<!-- Node2&#45;&gt;Node1 -->
<g id="edge1_Node000001_Node000002" class="edge">
<title>Node2&#45;&gt;Node1</title>
<g id="a_edge1_Node000001_Node000002"><a xlink:title=" ">
<path fill="none" stroke="#63b8ff" d="M810.26,-79.82C831.85,-76.7 856.51,-73.13 873.74,-70.64"/>
<polygon fill="#63b8ff" stroke="#63b8ff" points="809.68,-76.36 800.28,-81.26 810.68,-83.29 809.68,-76.36"/>
</a>
</g>
</g>
<!-- Node3 -->
<g id="Node000003" class="node">
<title>Node3</title>
<g id="a_Node000003"><a xlink:href="classEditingContext.html" target="_top" xlink:title=" ">
<polygon fill="white" stroke="#666666" points="448.5,-117 359.5,-117 359.5,-98 448.5,-98 448.5,-117"/>
<text text-anchor="middle" x="404" y="-105" font-family="Helvetica,sans-Serif" font-size="10.00">EditingContext</text>
</a>
</g>
</g>
<!-- Node3&#45;&gt;Node2 -->
<g id="edge2_Node000002_Node000003" class="edge">
<title>Node3&#45;&gt;Node2</title>
<g id="a_edge2_Node000002_Node000003"><a xlink:title=" ">
<path fill="none" stroke="#63b8ff" d="M458.79,-104.34C532.51,-100 662.95,-92.33 725.95,-88.62"/>
<polygon fill="#63b8ff" stroke="#63b8ff" points="458.55,-100.84 448.78,-104.92 458.96,-107.83 458.55,-100.84"/>
</a>
</g>
</g>
<!-- Node4 -->
<g id="Node000004" class="node">
<title>Node4</title>
<g id="a_Node000004"><a xlink:href="classARDOUR_1_1SessionHandlePtr.html" target="_top" xlink:title=" ">
<polygon fill="white" stroke="#666666" points="291.5,-197 140.5,-197 140.5,-178 291.5,-178 291.5,-197"/>
<text text-anchor="middle" x="216" y="-185" font-family="Helvetica,sans-Serif" font-size="10.00">ARDOUR::SessionHandlePtr</text>
</a>
</g>
</g>
<!-- Node4&#45;&gt;Node3 -->
<g id="edge3_Node000003_Node000004" class="edge">
<title>Node4&#45;&gt;Node3</title>
<g id="a_edge3_Node000003_Node000004"><a xlink:title=" ">
<path fill="none" stroke="#63b8ff" d="M277.09,-175.24C282.88,-173.53 288.6,-171.62 294,-169.5 330.28,-155.28 369.12,-130.64 389.2,-117.09"/>
<polygon fill="#63b8ff" stroke="#63b8ff" points="276.05,-171.9 267.34,-177.93 277.91,-178.64 276.05,-171.9"/>
</a>
</g>
</g>
<!-- Node5 -->
<g id="Node000005" class="node">
<title>Node5</title>
<g id="a_Node000005"><a xlink:href="classAxisViewProvider.html" target="_top" xlink:title=" ">
<polygon fill="white" stroke="#666666" points="267,-160 165,-160 165,-141 267,-141 267,-160"/>
<text text-anchor="middle" x="216" y="-148" font-family="Helvetica,sans-Serif" font-size="10.00">AxisViewProvider</text>
</a>
</g>
</g>
<!-- Node5&#45;&gt;Node3 -->
<g id="edge4_Node000003_Node000005" class="edge">
<title>Node5&#45;&gt;Node3</title>
<g id="a_edge4_Node000003_Node000005"><a xlink:title=" ">
<path fill="none" stroke="#63b8ff" d="M268.38,-138.62C297.83,-131.81 334.29,-123.38 361.84,-117.02"/>
<polygon fill="#63b8ff" stroke="#63b8ff" points="267.23,-135.29 258.28,-140.96 268.81,-142.11 267.23,-135.29"/>
</a>
</g>
</g>
<!-- Node6 -->
<g id="Node000006" class="node">
<title>Node6</title>
<g id="a_Node000006"><a xlink:href="classTemporal_1_1ScopedTempoMapOwner.html" target="_top" xlink:title=" ">
<polygon fill="white" stroke="#666666" points="294,-122.5 138,-122.5 138,-92.5 294,-92.5 294,-122.5"/>
<text text-anchor="start" x="146" y="-110.5" font-family="Helvetica,sans-Serif" font-size="10.00">Temporal::ScopedTempoMap</text>
<text text-anchor="middle" x="216" y="-99.5" font-family="Helvetica,sans-Serif" font-size="10.00">Owner</text>
</a>
</g>
</g>
<!-- Node6&#45;&gt;Node3 -->
<g id="edge5_Node000003_Node000006" class="edge">
<title>Node6&#45;&gt;Node3</title>
<g id="a_edge5_Node000003_Node000006"><a xlink:title=" ">
<path fill="none" stroke="#63b8ff" d="M304.5,-107.5C323.59,-107.5 342.98,-107.5 359.45,-107.5"/>
<polygon fill="#63b8ff" stroke="#63b8ff" points="304.26,-104 294.26,-107.5 304.26,-111 304.26,-104"/>
</a>
</g>
</g>
<!-- Node7 -->
<g id="Node000007" class="node">
<title>Node7</title>
<g id="a_Node000007"><a xlink:title=" ">
<polygon fill="white" stroke="#666666" points="259.5,-74 172.5,-74 172.5,-55 259.5,-55 259.5,-74"/>
<text text-anchor="middle" x="216" y="-62" font-family="Helvetica,sans-Serif" font-size="10.00">sigc::trackable</text>
</a>
</g>
</g>
<!-- Node7&#45;&gt;Node3 -->
<g id="edge6_Node000003_Node000007" class="edge">
<title>Node7&#45;&gt;Node3</title>
<g id="a_edge6_Node000003_Node000007"><a xlink:title=" ">
<path fill="none" stroke="#63b8ff" d="M268.38,-76.38C297.83,-83.19 334.29,-91.62 361.84,-97.98"/>
<polygon fill="#63b8ff" stroke="#63b8ff" points="268.81,-72.89 258.28,-74.04 267.23,-79.71 268.81,-72.89"/>
</a>
</g>
</g>
<!-- Node9 -->
<g id="Node000009" class="node">
<title>Node9</title>
<g id="a_Node000009"><a xlink:href="classGtkmm2ext_1_1WindowProxy.html" target="_top" xlink:title=" ">
<polygon fill="white" stroke="#666666" points="478,-74 330,-74 330,-55 478,-55 478,-74"/>
<text text-anchor="middle" x="404" y="-62" font-family="Helvetica,sans-Serif" font-size="10.00">Gtkmm2ext::WindowProxy</text>
</a>
</g>
</g>
<!-- Node7&#45;&gt;Node9 -->
<g id="edge12_Node000009_Node000007" class="edge">
<title>Node7&#45;&gt;Node9</title>
<g id="a_edge12_Node000009_Node000007"><a xlink:title=" ">
<path fill="none" stroke="#63b8ff" d="M269.75,-64.5C288.44,-64.5 309.81,-64.5 329.89,-64.5"/>
<polygon fill="#63b8ff" stroke="#63b8ff" points="269.67,-61 259.67,-64.5 269.67,-68 269.67,-61"/>
</a>
</g>
</g>
<!-- Node8 -->
<g id="Node000008" class="node">
<title>Node8</title>
<g id="a_Node000008"><a xlink:href="classArdourWidgets_1_1Tabbable.html" target="_top" xlink:title=" ">
<polygon fill="white" stroke="#666666" points="652,-76 514,-76 514,-57 652,-57 652,-76"/>
<text text-anchor="middle" x="583" y="-64" font-family="Helvetica,sans-Serif" font-size="10.00">ArdourWidgets::Tabbable</text>
</a>
</g>
</g>
<!-- Node8&#45;&gt;Node2 -->
<g id="edge7_Node000002_Node000008" class="edge">
<title>Node8&#45;&gt;Node2</title>
<g id="a_edge7_Node000002_Node000008"><a xlink:title=" ">
<path fill="none" stroke="#63b8ff" d="M662.17,-75.28C684.37,-77.78 707.48,-80.37 725.87,-82.44"/>
<polygon fill="#63b8ff" stroke="#63b8ff" points="662.38,-71.79 652.06,-74.15 661.6,-78.74 662.38,-71.79"/>
</a>
</g>
</g>
<!-- Node9&#45;&gt;Node8 -->
<g id="edge8_Node000008_Node000009" class="edge">
<title>Node9&#45;&gt;Node8</title>
<g id="a_edge8_Node000008_Node000009"><a xlink:title=" ">
<path fill="none" stroke="#63b8ff" d="M488.13,-65.44C496.79,-65.54 505.52,-65.64 513.98,-65.73"/>
<polygon fill="#63b8ff" stroke="#63b8ff" points="488.05,-61.94 478.01,-65.33 487.97,-68.94 488.05,-61.94"/>
</a>
</g>
</g>
<!-- Node10 -->
<g id="Node000010" class="node">
<title>Node10</title>
<g id="a_Node000010"><a xlink:href="classPBD_1_1StatefulDestructible.html" target="_top" xlink:title=" ">
<polygon fill="white" stroke="#666666" points="286,-37 146,-37 146,-18 286,-18 286,-37"/>
<text text-anchor="middle" x="216" y="-25" font-family="Helvetica,sans-Serif" font-size="10.00">PBD::StatefulDestructible</text>
</a>
</g>
</g>
<!-- Node10&#45;&gt;Node9 -->
<g id="edge9_Node000009_Node000010" class="edge">
<title>Node10&#45;&gt;Node9</title>
<g id="a_edge9_Node000009_Node000010"><a xlink:title=" ">
<path fill="none" stroke="#63b8ff" d="M274.89,-39.02C300.6,-44.13 330.49,-50.08 354.94,-54.94"/>
<polygon fill="#63b8ff" stroke="#63b8ff" points="275.39,-35.55 264.9,-37.03 274.02,-42.41 275.39,-35.55"/>
</a>
</g>
</g>
<!-- Node11 -->
<g id="Node000011" class="node">
<title>Node11</title>
<g id="a_Node000011"><a xlink:href="classPBD_1_1Stateful.html" target="_top" xlink:title=" ">
<polygon fill="white" stroke="#666666" points="91.5,-56 10.5,-56 10.5,-37 91.5,-37 91.5,-56"/>
<text text-anchor="middle" x="51" y="-44" font-family="Helvetica,sans-Serif" font-size="10.00">PBD::Stateful</text>
</a>
</g>
</g>
<!-- Node11&#45;&gt;Node10 -->
<g id="edge10_Node000010_Node000011" class="edge">
<title>Node11&#45;&gt;Node10</title>
<g id="a_edge10_Node000010_Node000011"><a xlink:title=" ">
<path fill="none" stroke="#63b8ff" d="M102.15,-40.65C116,-39.04 131.27,-37.26 145.99,-35.54"/>
<polygon fill="#63b8ff" stroke="#63b8ff" points="101.4,-37.22 91.87,-41.85 102.21,-44.17 101.4,-37.22"/>
</a>
</g>
</g>
<!-- Node12 -->
<g id="Node000012" class="node">
<title>Node12</title>
<g id="a_Node000012"><a xlink:href="classPBD_1_1Destructible.html" target="_top" xlink:title=" ">
<polygon fill="white" stroke="#666666" points="102,-19 0,-19 0,0 102,0 102,-19"/>
<text text-anchor="middle" x="51" y="-7" font-family="Helvetica,sans-Serif" font-size="10.00">PBD::Destructible</text>
</a>
</g>
</g>
<!-- Node12&#45;&gt;Node10 -->
<g id="edge11_Node000010_Node000012" class="edge">
<title>Node12&#45;&gt;Node10</title>
<g id="a_edge11_Node000010_Node000012"><a xlink:title=" ">
<path fill="none" stroke="#63b8ff" d="M112.44,-16.17C123.29,-17.37 134.68,-18.63 145.75,-19.85"/>
<polygon fill="#63b8ff" stroke="#63b8ff" points="112.56,-12.67 102.24,-15.05 111.79,-19.62 112.56,-12.67"/>
</a>
</g>
</g>
<!-- Node13 -->
<g id="Node000013" class="node">
<title>Node13</title>
<g id="a_Node000013"><a xlink:href="classPBD_1_1ScopedConnectionList.html" target="_top" xlink:title=" ">
<polygon fill="white" stroke="#666666" points="838,-59 688,-59 688,-40 838,-40 838,-59"/>
<text text-anchor="middle" x="763" y="-47" font-family="Helvetica,sans-Serif" font-size="10.00">PBD::ScopedConnectionList</text>
</a>
</g>
</g>
<!-- Node13&#45;&gt;Node1 -->
<g id="edge13_Node000001_Node000013" class="edge">
<title>Node13&#45;&gt;Node1</title>
<g id="a_edge13_Node000001_Node000013"><a xlink:title=" ">
<path fill="none" stroke="#63b8ff" d="M843.83,-60.43C854.84,-61.93 865.3,-63.37 873.89,-64.54"/>
<polygon fill="#63b8ff" stroke="#63b8ff" points="843.98,-56.92 833.6,-59.03 843.03,-63.85 843.98,-56.92"/>
</a>
</g>
</g>
</g>
</svg>
