<?xml version="1.0" encoding="UTF-8" standalone="no"?>
<!DOCTYPE svg PUBLIC "-//W3C//DTD SVG 1.1//EN"
 "http://www.w3.org/Graphics/SVG/1.1/DTD/svg11.dtd">
<!-- Generated by graphviz version 2.43.0 (0)
 -->
<!-- Title: BaseUI Pages: 1 -->
<!--zoomable 707 -->

<svg id="main" version="1.1" xmlns="http://www.w3.org/2000/svg" xmlns:xlink="http://www.w3.org/1999/xlink" xml:space="preserve" onload="init(evt)">
<style type="text/css"><![CDATA[
.node, .edge {opacity: 0.7;}
.node.selected, .edge.selected {opacity: 1;}
.edge:hover path { stroke: red; }
.edge:hover polygon { stroke: red; fill: red; }
]]></style>

<defs>
  <circle id="rim" cx="0" cy="0" r="7"/>
  <circle id="rim2" cx="0" cy="0" r="3.5"/>
  <g id="zoomPlus">
    <use xlink:href="#rim" fill="#404040"><set attributeName="fill" to="#808080" begin="zoomplus.mouseover" end="zoomplus.mouseout"/></use>
    <path d="M-4,0h8M0,-4v8" fill="none" stroke="white" stroke-width="1.5" pointer-events="none"/>
  </g>
  <g id="zoomMin">
    <use xlink:href="#rim" fill="#404040"><set attributeName="fill" to="#808080" begin="zoomminus.mouseover" end="zoomminus.mouseout"/></use>
    <path d="M-4,0h8" fill="none" stroke="white" stroke-width="1.5" pointer-events="none"/>
  </g>
  <g id="arrowUp" transform="translate(30 24)">
    <use xlink:href="#rim"/>
    <path pointer-events="none" fill="none" stroke="white" stroke-width="1.5" d="M0,-3.0v7 M-2.5,-0.5L0,-3.0L2.5,-0.5"/>
  </g>
  <g id="arrowRight" transform="rotate(90) translate(36 -43)">
    <use xlink:href="#rim"/>
    <path pointer-events="none" fill="none" stroke="white" stroke-width="1.5" d="M0,-3.0v7 M-2.5,-0.5L0,-3.0L2.5,-0.5"/>
  </g>
  <g id="arrowDown" transform="rotate(180) translate(-30 -48)">
    <use xlink:href="#rim"/>
    <path pointer-events="none" fill="none" stroke="white" stroke-width="1.5" d="M0,-3.0v7 M-2.5,-0.5L0,-3.0L2.5,-0.5"/>
  </g>
  <g id="arrowLeft" transform="rotate(270) translate(-36 17)">
    <use xlink:href="#rim"/>
    <path pointer-events="none" fill="none" stroke="white" stroke-width="1.5" d="M0,-3.0v7 M-2.5,-0.5L0,-3.0L2.5,-0.5"/>
  </g>
  <g id="resetDef">
    <use xlink:href="#rim2" fill="#404040"><set attributeName="fill" to="#808080" begin="reset.mouseover" end="reset.mouseout"/></use>
  </g>
</defs>
<script type="application/ecmascript">
var viewWidth = 828;
var viewHeight = 707;
var sectionId = 'dynsection-0';
</script>
<script type="application/ecmascript" xlink:href="svg.min.js"/>
<svg id="graph" class="graph">
<g id="viewport">
<title>BaseUI</title>
<!-- Node1 -->
<g id="Node000001" class="node">
<title>Node1</title>
<g id="a_Node000001"><a xlink:title=" ">
<polygon fill="#999999" stroke="#666666" points="181,-350 130,-350 130,-331 181,-331 181,-350"/>
<text text-anchor="middle" x="155.5" y="-338" font-family="Helvetica,sans-Serif" font-size="10.00">BaseUI</text>
</a>
</g>
</g>
<!-- Node4 -->
<g id="Node000004" class="node">
<title>Node4</title>
<g id="a_Node000004"><a xlink:href="classAbstractUI.html" target="_top" xlink:title=" ">
<polygon fill="white" stroke="#666666" points="392.5,-699 231.5,-699 231.5,-680 392.5,-680 392.5,-699"/>
<text text-anchor="middle" x="312" y="-687" font-family="Helvetica,sans-Serif" font-size="10.00">AbstractUI&lt; MidiUIRequest &gt;</text>
</a>
</g>
</g>
<!-- Node1&#45;&gt;Node4 -->
<g id="edge3_Node000001_Node000004" class="edge">
<title>Node1&#45;&gt;Node4</title>
<g id="a_edge3_Node000001_Node000004"><a xlink:title=" ">
<path fill="none" stroke="#63b8ff" d="M157.32,-360.49C160.37,-424.99 173.3,-626 217,-670.5 221.2,-674.78 226.08,-678.23 231.36,-681"/>
<polygon fill="#63b8ff" stroke="#63b8ff" points="160.8,-359.94 156.86,-350.1 153.8,-360.25 160.8,-359.94"/>
</a>
</g>
</g>
<!-- Node6 -->
<g id="Node000006" class="node">
<title>Node6</title>
<g id="a_Node000006"><a xlink:href="classAbstractUI.html" target="_top" xlink:title=" ">
<polygon fill="white" stroke="#666666" points="396.5,-661.5 227.5,-661.5 227.5,-631.5 396.5,-631.5 396.5,-661.5"/>
<text text-anchor="start" x="235.5" y="-649.5" font-family="Helvetica,sans-Serif" font-size="10.00">AbstractUI&lt; ArdourWebsockets</text>
<text text-anchor="middle" x="312" y="-638.5" font-family="Helvetica,sans-Serif" font-size="10.00">UIRequest &gt;</text>
</a>
</g>
</g>
<!-- Node1&#45;&gt;Node6 -->
<g id="edge5_Node000001_Node000006" class="edge">
<title>Node1&#45;&gt;Node6</title>
<g id="a_edge5_Node000001_Node000006"><a xlink:title=" ">
<path fill="none" stroke="#63b8ff" d="M158.06,-360.1C163.03,-417.64 180.39,-584.44 217,-622.5 220.27,-625.9 223.95,-628.84 227.91,-631.39"/>
<polygon fill="#63b8ff" stroke="#63b8ff" points="161.55,-359.79 157.23,-350.12 154.57,-360.37 161.55,-359.79"/>
</a>
</g>
</g>
<!-- Node8 -->
<g id="Node000008" class="node">
<title>Node8</title>
<g id="a_Node000008"><a xlink:href="classAbstractUI.html" target="_top" xlink:title=" ">
<polygon fill="white" stroke="#666666" points="392.5,-613 231.5,-613 231.5,-594 392.5,-594 392.5,-613"/>
<text text-anchor="middle" x="312" y="-601" font-family="Helvetica,sans-Serif" font-size="10.00">AbstractUI&lt; CC121Request &gt;</text>
</a>
</g>
</g>
<!-- Node1&#45;&gt;Node8 -->
<g id="edge7_Node000001_Node000008" class="edge">
<title>Node1&#45;&gt;Node8</title>
<g id="a_edge7_Node000001_Node000008"><a xlink:title=" ">
<path fill="none" stroke="#63b8ff" d="M158.69,-360.24C164.9,-412.62 184.32,-553.22 217,-584.5 221.21,-588.53 226.02,-591.81 231.2,-594.48"/>
<polygon fill="#63b8ff" stroke="#63b8ff" points="162.16,-359.75 157.54,-350.22 155.2,-360.55 162.16,-359.75"/>
</a>
</g>
</g>
<!-- Node10 -->
<g id="Node000010" class="node">
<title>Node10</title>
<g id="a_Node000010"><a xlink:href="classAbstractUI.html" target="_top" xlink:title=" ">
<polygon fill="white" stroke="#666666" points="387.5,-575.5 236.5,-575.5 236.5,-545.5 387.5,-545.5 387.5,-575.5"/>
<text text-anchor="start" x="244.5" y="-563.5" font-family="Helvetica,sans-Serif" font-size="10.00">AbstractUI&lt; ContourDesign</text>
<text text-anchor="middle" x="312" y="-552.5" font-family="Helvetica,sans-Serif" font-size="10.00">ControlUIRequest &gt;</text>
</a>
</g>
</g>
<!-- Node1&#45;&gt;Node10 -->
<g id="edge9_Node000001_Node000010" class="edge">
<title>Node1&#45;&gt;Node10</title>
<g id="a_edge9_Node000001_Node000010"><a xlink:title=" ">
<path fill="none" stroke="#63b8ff" d="M156.6,-360.57C157.95,-400.17 166.76,-488.68 217,-536.5 222.61,-541.84 229.24,-546.04 236.34,-549.33"/>
<polygon fill="#63b8ff" stroke="#63b8ff" points="160.1,-360.28 156.39,-350.35 153.1,-360.42 160.1,-360.28"/>
</a>
</g>
</g>
<!-- Node12 -->
<g id="Node000012" class="node">
<title>Node12</title>
<g id="a_Node000012"><a xlink:href="classAbstractUI.html" target="_top" xlink:title=" ">
<polygon fill="white" stroke="#666666" points="403,-527 221,-527 221,-508 403,-508 403,-527"/>
<text text-anchor="middle" x="312" y="-515" font-family="Helvetica,sans-Serif" font-size="10.00">AbstractUI&lt; FaderPort8Request &gt;</text>
</a>
</g>
</g>
<!-- Node1&#45;&gt;Node12 -->
<g id="edge11_Node000001_Node000012" class="edge">
<title>Node1&#45;&gt;Node12</title>
<g id="a_edge11_Node000001_Node000012"><a xlink:title=" ">
<path fill="none" stroke="#63b8ff" d="M158.07,-360.11C161.89,-393.85 174.7,-462.7 217,-498.5 221.45,-502.26 226.44,-505.35 231.74,-507.88"/>
<polygon fill="#63b8ff" stroke="#63b8ff" points="161.55,-359.72 157.1,-350.11 154.59,-360.4 161.55,-359.72"/>
</a>
</g>
</g>
<!-- Node14 -->
<g id="Node000014" class="node">
<title>Node14</title>
<g id="a_Node000014"><a xlink:href="classAbstractUI.html" target="_top" xlink:title=" ">
<polygon fill="white" stroke="#666666" points="376.5,-489.5 247.5,-489.5 247.5,-459.5 376.5,-459.5 376.5,-489.5"/>
<text text-anchor="start" x="255.5" y="-477.5" font-family="Helvetica,sans-Serif" font-size="10.00">AbstractUI&lt; BaseUI</text>
<text text-anchor="middle" x="312" y="-466.5" font-family="Helvetica,sans-Serif" font-size="10.00">::BaseRequestObject &gt;</text>
</a>
</g>
</g>
<!-- Node1&#45;&gt;Node14 -->
<g id="edge13_Node000001_Node000014" class="edge">
<title>Node1&#45;&gt;Node14</title>
<g id="a_edge13_Node000001_Node000014"><a xlink:title=" ">
<path fill="none" stroke="#63b8ff" d="M161.89,-359.89C169.8,-384.7 186.98,-427.25 217,-450.5 225.79,-457.31 236.29,-462.2 247.05,-465.71"/>
<polygon fill="#63b8ff" stroke="#63b8ff" points="165.19,-358.73 158.97,-350.16 158.49,-360.74 165.19,-358.73"/>
</a>
</g>
</g>
<!-- Node16 -->
<g id="Node000016" class="node">
<title>Node16</title>
<g id="a_Node000016"><a xlink:href="classAbstractUI.html" target="_top" xlink:title=" ">
<polygon fill="white" stroke="#666666" points="386.5,-441.5 237.5,-441.5 237.5,-411.5 386.5,-411.5 386.5,-441.5"/>
<text text-anchor="start" x="245.5" y="-429.5" font-family="Helvetica,sans-Serif" font-size="10.00">AbstractUI&lt; LaunchControl</text>
<text text-anchor="middle" x="312" y="-418.5" font-family="Helvetica,sans-Serif" font-size="10.00">Request &gt;</text>
</a>
</g>
</g>
<!-- Node1&#45;&gt;Node16 -->
<g id="edge15_Node000001_Node000016" class="edge">
<title>Node1&#45;&gt;Node16</title>
<g id="a_edge15_Node000001_Node000016"><a xlink:title=" ">
<path fill="none" stroke="#63b8ff" d="M169.19,-358.05C180.27,-372.11 197.59,-391.29 217,-402.5 223.27,-406.12 230.09,-409.21 237.09,-411.83"/>
<polygon fill="#63b8ff" stroke="#63b8ff" points="171.97,-355.92 163.13,-350.07 166.39,-360.15 171.97,-355.92"/>
</a>
</g>
</g>
<!-- Node18 -->
<g id="Node000018" class="node">
<title>Node18</title>
<g id="a_Node000018"><a xlink:href="classAbstractUI.html" target="_top" xlink:title=" ">
<polygon fill="white" stroke="#666666" points="403,-393 221,-393 221,-374 403,-374 403,-393"/>
<text text-anchor="middle" x="312" y="-381" font-family="Helvetica,sans-Serif" font-size="10.00">AbstractUI&lt; Maschine2Request &gt;</text>
</a>
</g>
</g>
<!-- Node1&#45;&gt;Node18 -->
<g id="edge17_Node000001_Node000018" class="edge">
<title>Node1&#45;&gt;Node18</title>
<g id="a_edge17_Node000001_Node000018"><a xlink:title=" ">
<path fill="none" stroke="#63b8ff" d="M187.13,-353.88C196.58,-357.67 207.11,-361.56 217,-364.5 229.29,-368.15 242.69,-371.32 255.42,-373.97"/>
<polygon fill="#63b8ff" stroke="#63b8ff" points="188.31,-350.58 177.73,-350 185.64,-357.05 188.31,-350.58"/>
</a>
</g>
</g>
<!-- Node20 -->
<g id="Node000020" class="node">
<title>Node20</title>
<g id="a_Node000020"><a xlink:href="classAbstractUI.html" target="_top" xlink:title=" ">
<polygon fill="white" stroke="#666666" points="386.5,-355.5 237.5,-355.5 237.5,-325.5 386.5,-325.5 386.5,-355.5"/>
<text text-anchor="start" x="245.5" y="-343.5" font-family="Helvetica,sans-Serif" font-size="10.00">AbstractUI&lt; MackieControl</text>
<text text-anchor="middle" x="312" y="-332.5" font-family="Helvetica,sans-Serif" font-size="10.00">UIRequest &gt;</text>
</a>
</g>
</g>
<!-- Node1&#45;&gt;Node20 -->
<g id="edge19_Node000001_Node000020" class="edge">
<title>Node1&#45;&gt;Node20</title>
<g id="a_edge19_Node000001_Node000020"><a xlink:title=" ">
<path fill="none" stroke="#63b8ff" d="M191.62,-340.5C205.2,-340.5 221.28,-340.5 237.17,-340.5"/>
<polygon fill="#63b8ff" stroke="#63b8ff" points="191.32,-337 181.32,-340.5 191.32,-344 191.32,-337"/>
</a>
</g>
</g>
<!-- Node22 -->
<g id="Node000022" class="node">
<title>Node22</title>
<g id="a_Node000022"><a xlink:href="classAbstractUI.html" target="_top" xlink:title=" ">
<polygon fill="white" stroke="#666666" points="392.5,-307 231.5,-307 231.5,-288 392.5,-288 392.5,-307"/>
<text text-anchor="middle" x="312" y="-295" font-family="Helvetica,sans-Serif" font-size="10.00">AbstractUI&lt; OSCUIRequest &gt;</text>
</a>
</g>
</g>
<!-- Node1&#45;&gt;Node22 -->
<g id="edge21_Node000001_Node000022" class="edge">
<title>Node1&#45;&gt;Node22</title>
<g id="a_edge21_Node000001_Node000022"><a xlink:title=" ">
<path fill="none" stroke="#63b8ff" d="M187.13,-327.12C196.58,-323.33 207.11,-319.44 217,-316.5 229.29,-312.85 242.69,-309.68 255.42,-307.03"/>
<polygon fill="#63b8ff" stroke="#63b8ff" points="185.64,-323.95 177.73,-331 188.31,-330.42 185.64,-323.95"/>
</a>
</g>
</g>
<!-- Node24 -->
<g id="Node000024" class="node">
<title>Node24</title>
<g id="a_Node000024"><a xlink:href="classAbstractUI.html" target="_top" xlink:title=" ">
<polygon fill="white" stroke="#666666" points="388,-269.5 236,-269.5 236,-239.5 388,-239.5 388,-269.5"/>
<text text-anchor="start" x="244" y="-257.5" font-family="Helvetica,sans-Serif" font-size="10.00">AbstractUI&lt; US2400Control</text>
<text text-anchor="middle" x="312" y="-246.5" font-family="Helvetica,sans-Serif" font-size="10.00">UIRequest &gt;</text>
</a>
</g>
</g>
<!-- Node1&#45;&gt;Node24 -->
<g id="edge23_Node000001_Node000024" class="edge">
<title>Node1&#45;&gt;Node24</title>
<g id="a_edge23_Node000001_Node000024"><a xlink:title=" ">
<path fill="none" stroke="#63b8ff" d="M169.19,-322.95C180.27,-308.89 197.59,-289.71 217,-278.5 222.98,-275.05 229.46,-272.08 236.11,-269.54"/>
<polygon fill="#63b8ff" stroke="#63b8ff" points="166.39,-320.85 163.13,-330.93 171.97,-325.08 166.39,-320.85"/>
</a>
</g>
</g>
<!-- Node26 -->
<g id="Node000026" class="node">
<title>Node26</title>
<g id="a_Node000026"><a xlink:href="classAbstractUI.html" target="_top" xlink:title=" ">
<polygon fill="white" stroke="#666666" points="407,-221 217,-221 217,-202 407,-202 407,-221"/>
<text text-anchor="middle" x="312" y="-209" font-family="Helvetica,sans-Serif" font-size="10.00">AbstractUI&lt; GenericMIDIRequest &gt;</text>
</a>
</g>
</g>
<!-- Node1&#45;&gt;Node26 -->
<g id="edge25_Node000001_Node000026" class="edge">
<title>Node1&#45;&gt;Node26</title>
<g id="a_edge25_Node000001_Node000026"><a xlink:title=" ">
<path fill="none" stroke="#63b8ff" d="M161.71,-320.88C169.43,-295.81 186.4,-252.98 217,-230.5 222.23,-226.66 228.05,-223.54 234.16,-221.02"/>
<polygon fill="#63b8ff" stroke="#63b8ff" points="158.28,-320.14 158.88,-330.72 165.01,-322.08 158.28,-320.14"/>
</a>
</g>
</g>
<!-- Node28 -->
<g id="Node000028" class="node">
<title>Node28</title>
<g id="a_Node000028"><a xlink:href="classAbstractUI.html" target="_top" xlink:title=" ">
<polygon fill="white" stroke="#666666" points="382,-184 242,-184 242,-165 382,-165 382,-184"/>
<text text-anchor="middle" x="312" y="-172" font-family="Helvetica,sans-Serif" font-size="10.00">AbstractUI&lt; UIRequest &gt;</text>
</a>
</g>
</g>
<!-- Node1&#45;&gt;Node28 -->
<g id="edge27_Node000001_Node000028" class="edge">
<title>Node1&#45;&gt;Node28</title>
<g id="a_edge27_Node000001_Node000028"><a xlink:title=" ">
<path fill="none" stroke="#63b8ff" d="M158.63,-320.72C163.2,-288.56 177.03,-225.22 217,-192.5 224.2,-186.61 232.75,-182.43 241.71,-179.5"/>
<polygon fill="#63b8ff" stroke="#63b8ff" points="155.15,-320.34 157.37,-330.7 162.1,-321.22 155.15,-320.34"/>
</a>
</g>
</g>
<!-- Node31 -->
<g id="Node000031" class="node">
<title>Node31</title>
<g id="a_Node000031"><a xlink:href="classAbstractUI.html" target="_top" xlink:title=" ">
<polygon fill="white" stroke="#666666" points="406,-147 218,-147 218,-128 406,-128 406,-147"/>
<text text-anchor="middle" x="312" y="-135" font-family="Helvetica,sans-Serif" font-size="10.00">AbstractUI&lt; MidiSurfaceRequest &gt;</text>
</a>
</g>
</g>
<!-- Node1&#45;&gt;Node31 -->
<g id="edge30_Node000001_Node000031" class="edge">
<title>Node1&#45;&gt;Node31</title>
<g id="a_edge30_Node000001_Node000031"><a xlink:title=" ">
<path fill="none" stroke="#63b8ff" d="M156.79,-320.25C158.52,-281.89 168.05,-198.61 217,-155.5 220.74,-152.21 224.9,-149.44 229.32,-147.11"/>
<polygon fill="#63b8ff" stroke="#63b8ff" points="153.29,-320.52 156.48,-330.62 160.28,-320.73 153.29,-320.52"/>
</a>
</g>
</g>
<!-- Node39 -->
<g id="Node000039" class="node">
<title>Node39</title>
<g id="a_Node000039"><a xlink:href="classAbstractUI.html" target="_top" xlink:title=" ">
<polygon fill="white" stroke="#666666" points="392,-110 232,-110 232,-91 392,-91 392,-110"/>
<text text-anchor="middle" x="312" y="-98" font-family="Helvetica,sans-Serif" font-size="10.00">AbstractUI&lt; TestUIRequest &gt;</text>
</a>
</g>
</g>
<!-- Node1&#45;&gt;Node39 -->
<g id="edge38_Node000001_Node000039" class="edge">
<title>Node1&#45;&gt;Node39</title>
<g id="a_edge38_Node000001_Node000039"><a xlink:title=" ">
<path fill="none" stroke="#63b8ff" d="M159.17,-320.91C166.23,-271.98 186.95,-146.32 217,-118.5 221.39,-114.44 226.4,-111.16 231.78,-108.53"/>
<polygon fill="#63b8ff" stroke="#63b8ff" points="155.69,-320.48 157.77,-330.87 162.62,-321.45 155.69,-320.48"/>
</a>
</g>
</g>
<!-- Node41 -->
<g id="Node000041" class="node">
<title>Node41</title>
<g id="a_Node000041"><a xlink:href="classAbstractUI.html" target="_top" xlink:title=" ">
<polygon fill="white" stroke="#666666" points="389.5,-72.5 234.5,-72.5 234.5,-42.5 389.5,-42.5 389.5,-72.5"/>
<text text-anchor="start" x="242.5" y="-60.5" font-family="Helvetica,sans-Serif" font-size="10.00">AbstractUI&lt; WiimoteControl</text>
<text text-anchor="middle" x="312" y="-49.5" font-family="Helvetica,sans-Serif" font-size="10.00">UIRequest &gt;</text>
</a>
</g>
</g>
<!-- Node1&#45;&gt;Node41 -->
<g id="edge40_Node000001_Node000041" class="edge">
<title>Node1&#45;&gt;Node41</title>
<g id="a_edge40_Node000001_Node000041"><a xlink:title=" ">
<path fill="none" stroke="#63b8ff" d="M158.48,-320.73C164.34,-266.29 183.29,-115.91 217,-81.5 221.95,-76.45 227.81,-72.41 234.14,-69.18"/>
<polygon fill="#63b8ff" stroke="#63b8ff" points="154.99,-320.51 157.43,-330.82 161.95,-321.24 154.99,-320.51"/>
</a>
</g>
</g>
<!-- Node43 -->
<g id="Node000043" class="node">
<title>Node43</title>
<g id="a_Node000043"><a xlink:href="classAbstractUI.html" target="_top" xlink:title=" ">
<polygon fill="white" stroke="#666666" points="392.5,-24 231.5,-24 231.5,-5 392.5,-5 392.5,-24"/>
<text text-anchor="middle" x="312" y="-12" font-family="Helvetica,sans-Serif" font-size="10.00">AbstractUI&lt; RequestObject &gt;</text>
</a>
</g>
</g>
<!-- Node1&#45;&gt;Node43 -->
<g id="edge42_Node000001_Node000043" class="edge">
<title>Node1&#45;&gt;Node43</title>
<g id="a_edge42_Node000001_Node000043"><a xlink:title=" ">
<path fill="none" stroke="#63b8ff" d="M157.6,-320.71C161.44,-259.43 176.23,-74.47 217,-33.5 221.23,-29.25 226.13,-25.82 231.42,-23.07"/>
<polygon fill="#63b8ff" stroke="#63b8ff" points="154.1,-320.76 157,-330.95 161.08,-321.17 154.1,-320.76"/>
</a>
</g>
</g>
<!-- Node2 -->
<g id="Node000002" class="node">
<title>Node2</title>
<g id="a_Node000002"><a xlink:title=" ">
<polygon fill="white" stroke="#666666" points="90.5,-369 3.5,-369 3.5,-350 90.5,-350 90.5,-369"/>
<text text-anchor="middle" x="47" y="-357" font-family="Helvetica,sans-Serif" font-size="10.00">sigc::trackable</text>
</a>
</g>
</g>
<!-- Node2&#45;&gt;Node1 -->
<g id="edge1_Node000001_Node000002" class="edge">
<title>Node2&#45;&gt;Node1</title>
<g id="a_edge1_Node000001_Node000002"><a xlink:title=" ">
<path fill="none" stroke="#63b8ff" d="M100.8,-350.08C110.96,-348.27 121.15,-346.45 129.87,-344.89"/>
<polygon fill="#63b8ff" stroke="#63b8ff" points="99.93,-346.68 90.7,-351.88 101.16,-353.57 99.93,-346.68"/>
</a>
</g>
</g>
<!-- Node3 -->
<g id="Node000003" class="node">
<title>Node3</title>
<g id="a_Node000003"><a xlink:href="classPBD_1_1EventLoop.html" target="_top" xlink:title=" ">
<polygon fill="white" stroke="#666666" points="94,-332 0,-332 0,-313 94,-313 94,-332"/>
<text text-anchor="middle" x="47" y="-320" font-family="Helvetica,sans-Serif" font-size="10.00">PBD::EventLoop</text>
</a>
</g>
</g>
<!-- Node3&#45;&gt;Node1 -->
<g id="edge2_Node000001_Node000003" class="edge">
<title>Node3&#45;&gt;Node1</title>
<g id="a_edge2_Node000001_Node000003"><a xlink:title=" ">
<path fill="none" stroke="#63b8ff" d="M104.21,-332C113.17,-333.51 122.02,-335.01 129.74,-336.32"/>
<polygon fill="#63b8ff" stroke="#63b8ff" points="104.54,-328.51 94.09,-330.29 103.37,-335.41 104.54,-328.51"/>
</a>
</g>
</g>
<!-- Node5 -->
<g id="Node000005" class="node">
<title>Node5</title>
<g id="a_Node000005"><a xlink:href="classARDOUR_1_1MidiControlUI.html" target="_top" xlink:title=" ">
<polygon fill="white" stroke="#666666" points="600,-699 468,-699 468,-680 600,-680 600,-699"/>
<text text-anchor="middle" x="534" y="-687" font-family="Helvetica,sans-Serif" font-size="10.00">ARDOUR::MidiControlUI</text>
</a>
</g>
</g>
<!-- Node4&#45;&gt;Node5 -->
<g id="edge4_Node000004_Node000005" class="edge">
<title>Node4&#45;&gt;Node5</title>
<g id="a_edge4_Node000004_Node000005"><a xlink:title=" ">
<path fill="none" stroke="#63b8ff" d="M402.98,-689.5C424.75,-689.5 447.61,-689.5 467.97,-689.5"/>
<polygon fill="#63b8ff" stroke="#63b8ff" points="402.74,-686 392.74,-689.5 402.74,-693 402.74,-686"/>
</a>
</g>
</g>
<!-- Node7 -->
<g id="Node000007" class="node">
<title>Node7</title>
<g id="a_Node000007"><a xlink:href="classArdourSurface_1_1ArdourWebsockets.html" target="_top" xlink:title=" ">
<polygon fill="white" stroke="#666666" points="625,-656 443,-656 443,-637 625,-637 625,-656"/>
<text text-anchor="middle" x="534" y="-644" font-family="Helvetica,sans-Serif" font-size="10.00">ArdourSurface::ArdourWebsockets</text>
</a>
</g>
</g>
<!-- Node6&#45;&gt;Node7 -->
<g id="edge6_Node000006_Node000007" class="edge">
<title>Node6&#45;&gt;Node7</title>
<g id="a_edge6_Node000006_Node000007"><a xlink:title=" ">
<path fill="none" stroke="#63b8ff" d="M407.13,-646.5C418.97,-646.5 431.06,-646.5 442.84,-646.5"/>
<polygon fill="#63b8ff" stroke="#63b8ff" points="406.8,-643 396.8,-646.5 406.8,-650 406.8,-643"/>
</a>
</g>
</g>
<!-- Node9 -->
<g id="Node000009" class="node">
<title>Node9</title>
<g id="a_Node000009"><a xlink:href="classArdourSurface_1_1CC121.html" target="_top" xlink:title=" ">
<polygon fill="white" stroke="#666666" points="595.5,-615 472.5,-615 472.5,-596 595.5,-596 595.5,-615"/>
<text text-anchor="middle" x="534" y="-603" font-family="Helvetica,sans-Serif" font-size="10.00">ArdourSurface::CC121</text>
</a>
</g>
</g>
<!-- Node8&#45;&gt;Node9 -->
<g id="edge8_Node000008_Node000009" class="edge">
<title>Node8&#45;&gt;Node9</title>
<g id="a_edge8_Node000008_Node000009"><a xlink:title=" ">
<path fill="none" stroke="#63b8ff" d="M402.97,-604.32C426.25,-604.53 450.77,-604.75 472.16,-604.95"/>
<polygon fill="#63b8ff" stroke="#63b8ff" points="402.77,-600.82 392.74,-604.22 402.7,-607.82 402.77,-600.82"/>
</a>
</g>
</g>
<!-- Node11 -->
<g id="Node000011" class="node">
<title>Node11</title>
<g id="a_Node000011"><a xlink:href="classArdourSurface_1_1ContourDesignControlProtocol.html" target="_top" xlink:title=" ">
<polygon fill="white" stroke="#666666" points="616,-577.5 452,-577.5 452,-547.5 616,-547.5 616,-577.5"/>
<text text-anchor="start" x="460" y="-565.5" font-family="Helvetica,sans-Serif" font-size="10.00">ArdourSurface::ContourDesign</text>
<text text-anchor="middle" x="534" y="-554.5" font-family="Helvetica,sans-Serif" font-size="10.00">ControlProtocol</text>
</a>
</g>
</g>
<!-- Node10&#45;&gt;Node11 -->
<g id="edge10_Node000010_Node000011" class="edge">
<title>Node10&#45;&gt;Node11</title>
<g id="a_edge10_Node000010_Node000011"><a xlink:title=" ">
<path fill="none" stroke="#63b8ff" d="M398.04,-561.27C415.65,-561.43 434.16,-561.6 451.63,-561.76"/>
<polygon fill="#63b8ff" stroke="#63b8ff" points="397.82,-557.77 387.79,-561.18 397.76,-564.77 397.82,-557.77"/>
</a>
</g>
</g>
<!-- Node13 -->
<g id="Node000013" class="node">
<title>Node13</title>
<g id="a_Node000013"><a xlink:href="classArdourSurface_1_1FP8_1_1FaderPort8.html" target="_top" xlink:title=" ">
<polygon fill="white" stroke="#666666" points="589,-529.5 479,-529.5 479,-499.5 589,-499.5 589,-529.5"/>
<text text-anchor="start" x="487" y="-517.5" font-family="Helvetica,sans-Serif" font-size="10.00">ArdourSurface::FP8</text>
<text text-anchor="middle" x="534" y="-506.5" font-family="Helvetica,sans-Serif" font-size="10.00">::FaderPort8</text>
</a>
</g>
</g>
<!-- Node12&#45;&gt;Node13 -->
<g id="edge12_Node000012_Node000013" class="edge">
<title>Node12&#45;&gt;Node13</title>
<g id="a_edge12_Node000012_Node000013"><a xlink:title=" ">
<path fill="none" stroke="#63b8ff" d="M413.14,-516.13C435.82,-515.83 459.07,-515.51 478.98,-515.24"/>
<polygon fill="#63b8ff" stroke="#63b8ff" points="413.07,-512.64 403.12,-516.27 413.16,-519.63 413.07,-512.64"/>
</a>
</g>
</g>
<!-- Node15 -->
<g id="Node000015" class="node">
<title>Node15</title>
<g id="a_Node000015"><a xlink:href="classArdourSurface_1_1FeedbackHelperUI.html" target="_top" xlink:title=" ">
<polygon fill="white" stroke="#666666" points="624.5,-481 443.5,-481 443.5,-462 624.5,-462 624.5,-481"/>
<text text-anchor="middle" x="534" y="-469" font-family="Helvetica,sans-Serif" font-size="10.00">ArdourSurface::FeedbackHelperUI</text>
</a>
</g>
</g>
<!-- Node14&#45;&gt;Node15 -->
<g id="edge14_Node000014_Node000015" class="edge">
<title>Node14&#45;&gt;Node15</title>
<g id="a_edge14_Node000014_Node000015"><a xlink:title=" ">
<path fill="none" stroke="#63b8ff" d="M386.83,-473.49C404.95,-473.25 424.55,-472.98 443.33,-472.72"/>
<polygon fill="#63b8ff" stroke="#63b8ff" points="386.58,-470 376.63,-473.63 386.68,-477 386.58,-470"/>
</a>
</g>
</g>
<!-- Node17 -->
<g id="Node000017" class="node">
<title>Node17</title>
<g id="a_Node000017"><a xlink:href="classArdourSurface_1_1LaunchControlXL.html" target="_top" xlink:title=" ">
<polygon fill="white" stroke="#666666" points="620.5,-436 447.5,-436 447.5,-417 620.5,-417 620.5,-436"/>
<text text-anchor="middle" x="534" y="-424" font-family="Helvetica,sans-Serif" font-size="10.00">ArdourSurface::LaunchControlXL</text>
</a>
</g>
</g>
<!-- Node16&#45;&gt;Node17 -->
<g id="edge16_Node000016_Node000017" class="edge">
<title>Node16&#45;&gt;Node17</title>
<g id="a_edge16_Node000016_Node000017"><a xlink:title=" ">
<path fill="none" stroke="#63b8ff" d="M396.75,-426.5C413.31,-426.5 430.7,-426.5 447.32,-426.5"/>
<polygon fill="#63b8ff" stroke="#63b8ff" points="396.56,-423 386.56,-426.5 396.56,-430 396.56,-423"/>
</a>
</g>
</g>
<!-- Node19 -->
<g id="Node000019" class="node">
<title>Node19</title>
<g id="a_Node000019"><a xlink:href="classArdourSurface_1_1Maschine2.html" target="_top" xlink:title=" ">
<polygon fill="white" stroke="#666666" points="606,-393 462,-393 462,-374 606,-374 606,-393"/>
<text text-anchor="middle" x="534" y="-381" font-family="Helvetica,sans-Serif" font-size="10.00">ArdourSurface::Maschine2</text>
</a>
</g>
</g>
<!-- Node18&#45;&gt;Node19 -->
<g id="edge18_Node000018_Node000019" class="edge">
<title>Node18&#45;&gt;Node19</title>
<g id="a_edge18_Node000018_Node000019"><a xlink:title=" ">
<path fill="none" stroke="#63b8ff" d="M413.28,-383.5C429.68,-383.5 446.36,-383.5 461.87,-383.5"/>
<polygon fill="#63b8ff" stroke="#63b8ff" points="413.12,-380 403.12,-383.5 413.12,-387 413.12,-380"/>
</a>
</g>
</g>
<!-- Node21 -->
<g id="Node000021" class="node">
<title>Node21</title>
<g id="a_Node000021"><a xlink:href="classArdourSurface_1_1NS__MCU_1_1MackieControlProtocol.html" target="_top" xlink:title=" ">
<polygon fill="white" stroke="#666666" points="601,-355.5 467,-355.5 467,-325.5 601,-325.5 601,-355.5"/>
<text text-anchor="start" x="475" y="-343.5" font-family="Helvetica,sans-Serif" font-size="10.00">ArdourSurface::NS_MCU</text>
<text text-anchor="middle" x="534" y="-332.5" font-family="Helvetica,sans-Serif" font-size="10.00">::MackieControlProtocol</text>
</a>
</g>
</g>
<!-- Node20&#45;&gt;Node21 -->
<g id="edge20_Node000020_Node000021" class="edge">
<title>Node20&#45;&gt;Node21</title>
<g id="a_edge20_Node000020_Node000021"><a xlink:title=" ">
<path fill="none" stroke="#63b8ff" d="M396.75,-340.5C419.97,-340.5 444.85,-340.5 466.91,-340.5"/>
<polygon fill="#63b8ff" stroke="#63b8ff" points="396.56,-337 386.56,-340.5 396.56,-344 396.56,-337"/>
</a>
</g>
</g>
<!-- Node23 -->
<g id="Node000023" class="node">
<title>Node23</title>
<g id="a_Node000023"><a xlink:href="classArdourSurface_1_1OSC.html" target="_top" xlink:title=" ">
<polygon fill="white" stroke="#666666" points="590,-307 478,-307 478,-288 590,-288 590,-307"/>
<text text-anchor="middle" x="534" y="-295" font-family="Helvetica,sans-Serif" font-size="10.00">ArdourSurface::OSC</text>
</a>
</g>
</g>
<!-- Node22&#45;&gt;Node23 -->
<g id="edge22_Node000022_Node000023" class="edge">
<title>Node22&#45;&gt;Node23</title>
<g id="a_edge22_Node000022_Node000023"><a xlink:title=" ">
<path fill="none" stroke="#63b8ff" d="M402.79,-297.5C428.25,-297.5 455.22,-297.5 477.96,-297.5"/>
<polygon fill="#63b8ff" stroke="#63b8ff" points="402.74,-294 392.74,-297.5 402.74,-301 402.74,-294"/>
</a>
</g>
</g>
<!-- Node25 -->
<g id="Node000025" class="node">
<title>Node25</title>
<g id="a_Node000025"><a xlink:href="classArdourSurface_1_1US2400Protocol.html" target="_top" xlink:title=" ">
<polygon fill="white" stroke="#666666" points="618.5,-264 449.5,-264 449.5,-245 618.5,-245 618.5,-264"/>
<text text-anchor="middle" x="534" y="-252" font-family="Helvetica,sans-Serif" font-size="10.00">ArdourSurface::US2400Protocol</text>
</a>
</g>
</g>
<!-- Node24&#45;&gt;Node25 -->
<g id="edge24_Node000024_Node000025" class="edge">
<title>Node24&#45;&gt;Node25</title>
<g id="a_edge24_Node000024_Node000025"><a xlink:title=" ">
<path fill="none" stroke="#63b8ff" d="M398.37,-254.5C415.06,-254.5 432.54,-254.5 449.18,-254.5"/>
<polygon fill="#63b8ff" stroke="#63b8ff" points="398.1,-251 388.1,-254.5 398.1,-258 398.1,-251"/>
</a>
</g>
</g>
<!-- Node27 -->
<g id="Node000027" class="node">
<title>Node27</title>
<g id="a_Node000027"><a xlink:href="classGenericMidiControlProtocol.html" target="_top" xlink:title=" ">
<polygon fill="white" stroke="#666666" points="609,-221 459,-221 459,-202 609,-202 609,-221"/>
<text text-anchor="middle" x="534" y="-209" font-family="Helvetica,sans-Serif" font-size="10.00">GenericMidiControlProtocol</text>
</a>
</g>
</g>
<!-- Node26&#45;&gt;Node27 -->
<g id="edge26_Node000026_Node000027" class="edge">
<title>Node26&#45;&gt;Node27</title>
<g id="a_edge26_Node000026_Node000027"><a xlink:title=" ">
<path fill="none" stroke="#63b8ff" d="M417.42,-211.5C431.42,-211.5 445.54,-211.5 458.88,-211.5"/>
<polygon fill="#63b8ff" stroke="#63b8ff" points="417.26,-208 407.26,-211.5 417.26,-215 417.26,-208"/>
</a>
</g>
</g>
<!-- Node29 -->
<g id="Node000029" class="node">
<title>Node29</title>
<g id="a_Node000029"><a xlink:href="classGtkmm2ext_1_1UI.html" target="_top" xlink:title=" ">
<polygon fill="white" stroke="#666666" points="580,-184 488,-184 488,-165 580,-165 580,-184"/>
<text text-anchor="middle" x="534" y="-172" font-family="Helvetica,sans-Serif" font-size="10.00">Gtkmm2ext::UI</text>
</a>
</g>
</g>
<!-- Node28&#45;&gt;Node29 -->
<g id="edge28_Node000028_Node000029" class="edge">
<title>Node28&#45;&gt;Node29</title>
<g id="a_edge28_Node000028_Node000029"><a xlink:title=" ">
<path fill="none" stroke="#63b8ff" d="M392.29,-174.5C424.41,-174.5 460.33,-174.5 487.83,-174.5"/>
<polygon fill="#63b8ff" stroke="#63b8ff" points="392.01,-171 382.01,-174.5 392.01,-178 392.01,-171"/>
</a>
</g>
</g>
<!-- Node30 -->
<g id="Node000030" class="node">
<title>Node30</title>
<g id="a_Node000030"><a xlink:href="classARDOUR__UI.html" target="_top" xlink:title=" ">
<polygon fill="white" stroke="#666666" points="778,-264 703,-264 703,-245 778,-245 778,-264"/>
<text text-anchor="middle" x="740.5" y="-252" font-family="Helvetica,sans-Serif" font-size="10.00">ARDOUR_UI</text>
</a>
</g>
</g>
<!-- Node29&#45;&gt;Node30 -->
<g id="edge29_Node000029_Node000030" class="edge">
<title>Node29&#45;&gt;Node30</title>
<g id="a_edge29_Node000029_Node000030"><a xlink:title=" ">
<path fill="none" stroke="#63b8ff" d="M590.2,-179.46C602.24,-182.16 614.51,-186.27 625,-192.5 646.43,-205.22 639.82,-222.35 661,-235.5 673.51,-243.27 688.96,-247.86 702.84,-250.57"/>
<polygon fill="#63b8ff" stroke="#63b8ff" points="590.67,-175.98 580.18,-177.5 589.33,-182.85 590.67,-175.98"/>
</a>
</g>
</g>
<!-- Node32 -->
<g id="Node000032" class="node">
<title>Node32</title>
<g id="a_Node000032"><a xlink:href="classMIDISurface.html" target="_top" xlink:title=" ">
<polygon fill="white" stroke="#666666" points="572,-147 496,-147 496,-128 572,-128 572,-147"/>
<text text-anchor="middle" x="534" y="-135" font-family="Helvetica,sans-Serif" font-size="10.00">MIDISurface</text>
</a>
</g>
</g>
<!-- Node31&#45;&gt;Node32 -->
<g id="edge31_Node000031_Node000032" class="edge">
<title>Node31&#45;&gt;Node32</title>
<g id="a_edge31_Node000031_Node000032"><a xlink:title=" ">
<path fill="none" stroke="#63b8ff" d="M416.32,-137.5C444.74,-137.5 473.77,-137.5 495.76,-137.5"/>
<polygon fill="#63b8ff" stroke="#63b8ff" points="416.3,-134 406.3,-137.5 416.3,-141 416.3,-134"/>
</a>
</g>
</g>
<!-- Node33 -->
<g id="Node000033" class="node">
<title>Node33</title>
<g id="a_Node000033"><a xlink:href="classArdourSurface_1_1Console1.html" target="_top" xlink:title=" ">
<polygon fill="white" stroke="#666666" points="809,-227 672,-227 672,-208 809,-208 809,-227"/>
<text text-anchor="middle" x="740.5" y="-215" font-family="Helvetica,sans-Serif" font-size="10.00">ArdourSurface::Console1</text>
</a>
</g>
</g>
<!-- Node32&#45;&gt;Node33 -->
<g id="edge32_Node000032_Node000033" class="edge">
<title>Node32&#45;&gt;Node33</title>
<g id="a_edge32_Node000032_Node000033"><a xlink:title=" ">
<path fill="none" stroke="#63b8ff" d="M582.34,-140.87C596.78,-143.46 612.21,-147.91 625,-155.5 646.43,-168.22 639.82,-185.35 661,-198.5 667.19,-202.35 674.11,-205.41 681.2,-207.86"/>
<polygon fill="#63b8ff" stroke="#63b8ff" points="582.46,-137.35 572.05,-139.3 581.4,-144.27 582.46,-137.35"/>
</a>
</g>
</g>
<!-- Node34 -->
<g id="Node000034" class="node">
<title>Node34</title>
<g id="a_Node000034"><a xlink:href="classArdourSurface_1_1FaderPort.html" target="_top" xlink:title=" ">
<polygon fill="white" stroke="#666666" points="809,-190 672,-190 672,-171 809,-171 809,-190"/>
<text text-anchor="middle" x="740.5" y="-178" font-family="Helvetica,sans-Serif" font-size="10.00">ArdourSurface::FaderPort</text>
</a>
</g>
</g>
<!-- Node32&#45;&gt;Node34 -->
<g id="edge33_Node000032_Node000034" class="edge">
<title>Node32&#45;&gt;Node34</title>
<g id="a_edge33_Node000032_Node000034"><a xlink:title=" ">
<path fill="none" stroke="#63b8ff" d="M582.06,-146.75C595.9,-149.51 611.07,-152.59 625,-155.5 648.7,-160.46 675.11,-166.21 696.58,-170.94"/>
<polygon fill="#63b8ff" stroke="#63b8ff" points="582.74,-143.32 572.25,-144.8 581.37,-150.18 582.74,-143.32"/>
</a>
</g>
</g>
<!-- Node35 -->
<g id="Node000035" class="node">
<title>Node35</title>
<g id="a_Node000035"><a xlink:href="classArdourSurface_1_1LP__X_1_1LaunchKey4.html" target="_top" xlink:title=" ">
<polygon fill="white" stroke="#666666" points="798,-152.5 683,-152.5 683,-122.5 798,-122.5 798,-152.5"/>
<text text-anchor="start" x="691" y="-140.5" font-family="Helvetica,sans-Serif" font-size="10.00">ArdourSurface::LP_X</text>
<text text-anchor="middle" x="740.5" y="-129.5" font-family="Helvetica,sans-Serif" font-size="10.00">::LaunchKey4</text>
</a>
</g>
</g>
<!-- Node32&#45;&gt;Node35 -->
<g id="edge34_Node000032_Node000035" class="edge">
<title>Node32&#45;&gt;Node35</title>
<g id="a_edge34_Node000032_Node000035"><a xlink:title=" ">
<path fill="none" stroke="#63b8ff" d="M582.22,-137.5C612.15,-137.5 651.05,-137.5 682.67,-137.5"/>
<polygon fill="#63b8ff" stroke="#63b8ff" points="582.03,-134 572.03,-137.5 582.03,-141 582.03,-134"/>
</a>
</g>
</g>
<!-- Node36 -->
<g id="Node000036" class="node">
<title>Node36</title>
<g id="a_Node000036"><a xlink:href="classArdourSurface_1_1LP__X_1_1LaunchPadX.html" target="_top" xlink:title=" ">
<polygon fill="white" stroke="#666666" points="798,-104.5 683,-104.5 683,-74.5 798,-74.5 798,-104.5"/>
<text text-anchor="start" x="691" y="-92.5" font-family="Helvetica,sans-Serif" font-size="10.00">ArdourSurface::LP_X</text>
<text text-anchor="middle" x="740.5" y="-81.5" font-family="Helvetica,sans-Serif" font-size="10.00">::LaunchPadX</text>
</a>
</g>
</g>
<!-- Node32&#45;&gt;Node36 -->
<g id="edge35_Node000032_Node000036" class="edge">
<title>Node32&#45;&gt;Node36</title>
<g id="a_edge35_Node000032_Node000036"><a xlink:title=" ">
<path fill="none" stroke="#63b8ff" d="M582.11,-127.93C595.95,-125.01 611.11,-121.72 625,-118.5 643.88,-114.12 664.42,-109.02 682.83,-104.33"/>
<polygon fill="#63b8ff" stroke="#63b8ff" points="581.37,-124.51 572.29,-129.98 582.8,-131.36 581.37,-124.51"/>
</a>
</g>
</g>
<!-- Node37 -->
<g id="Node000037" class="node">
<title>Node37</title>
<g id="a_Node000037"><a xlink:href="classArdourSurface_1_1LaunchPadPro.html" target="_top" xlink:title=" ">
<polygon fill="white" stroke="#666666" points="820,-56 661,-56 661,-37 820,-37 820,-56"/>
<text text-anchor="middle" x="740.5" y="-44" font-family="Helvetica,sans-Serif" font-size="10.00">ArdourSurface::LaunchPadPro</text>
</a>
</g>
</g>
<!-- Node32&#45;&gt;Node37 -->
<g id="edge36_Node000032_Node000037" class="edge">
<title>Node32&#45;&gt;Node37</title>
<g id="a_edge36_Node000032_Node000037"><a xlink:title=" ">
<path fill="none" stroke="#63b8ff" d="M582.04,-134.44C596.74,-131.76 612.39,-126.96 625,-118.5 648.64,-102.63 637.59,-81.71 661,-65.5 666.65,-61.59 673.01,-58.48 679.61,-56"/>
<polygon fill="#63b8ff" stroke="#63b8ff" points="581.41,-131 572.07,-135.99 582.48,-137.92 581.41,-131"/>
</a>
</g>
</g>
<!-- Node38 -->
<g id="Node000038" class="node">
<title>Node38</title>
<g id="a_Node000038"><a xlink:href="classArdourSurface_1_1Push2.html" target="_top" xlink:title=" ">
<polygon fill="white" stroke="#666666" points="801,-19 680,-19 680,0 801,0 801,-19"/>
<text text-anchor="middle" x="740.5" y="-7" font-family="Helvetica,sans-Serif" font-size="10.00">ArdourSurface::Push2</text>
</a>
</g>
</g>
<!-- Node32&#45;&gt;Node38 -->
<g id="edge37_Node000032_Node000038" class="edge">
<title>Node32&#45;&gt;Node38</title>
<g id="a_edge37_Node000032_Node000038"><a xlink:title=" ">
<path fill="none" stroke="#63b8ff" d="M582.47,-136.15C597.48,-133.61 613.2,-128.46 625,-118.5 658.24,-90.44 628.01,-55.84 661,-27.5 666.52,-22.76 673.03,-19.21 679.91,-16.55"/>
<polygon fill="#63b8ff" stroke="#63b8ff" points="581.7,-132.73 572.26,-137.53 582.64,-139.66 581.7,-132.73"/>
</a>
</g>
</g>
<!-- Node40 -->
<g id="Node000040" class="node">
<title>Node40</title>
<g id="a_Node000040"><a xlink:href="classTestUI.html" target="_top" xlink:title=" ">
<polygon fill="white" stroke="#666666" points="557.5,-110 510.5,-110 510.5,-91 557.5,-91 557.5,-110"/>
<text text-anchor="middle" x="534" y="-98" font-family="Helvetica,sans-Serif" font-size="10.00">TestUI</text>
</a>
</g>
</g>
<!-- Node39&#45;&gt;Node40 -->
<g id="edge39_Node000039_Node000040" class="edge">
<title>Node39&#45;&gt;Node40</title>
<g id="a_edge39_Node000039_Node000040"><a xlink:title=" ">
<path fill="none" stroke="#63b8ff" d="M402.29,-100.5C441.61,-100.5 484.61,-100.5 510.16,-100.5"/>
<polygon fill="#63b8ff" stroke="#63b8ff" points="402.11,-97 392.11,-100.5 402.11,-104 402.11,-97"/>
</a>
</g>
</g>
<!-- Node42 -->
<g id="Node000042" class="node">
<title>Node42</title>
<g id="a_Node000042"><a xlink:href="classWiimoteControlProtocol.html" target="_top" xlink:title=" ">
<polygon fill="white" stroke="#666666" points="600.5,-67 467.5,-67 467.5,-48 600.5,-48 600.5,-67"/>
<text text-anchor="middle" x="534" y="-55" font-family="Helvetica,sans-Serif" font-size="10.00">WiimoteControlProtocol</text>
</a>
</g>
</g>
<!-- Node41&#45;&gt;Node42 -->
<g id="edge41_Node000041_Node000042" class="edge">
<title>Node41&#45;&gt;Node42</title>
<g id="a_edge41_Node000041_Node000042"><a xlink:title=" ">
<path fill="none" stroke="#63b8ff" d="M399.84,-57.5C422.28,-57.5 446.07,-57.5 467.24,-57.5"/>
<polygon fill="#63b8ff" stroke="#63b8ff" points="399.64,-54 389.64,-57.5 399.64,-61 399.64,-54"/>
</a>
</g>
</g>
</g>
</svg>

<g id="navigator" transform="translate(0 0)" fill="#404254">
  <rect fill="#f2f5e9" fill-opacity="0.5" stroke="#606060" stroke-width=".5" x="0" y="0" width="60" height="60"/>
  <use id="zoomplus" xlink:href="#zoomPlus" x="17" y="9" onmousedown="handleZoom(evt,'in')"/>
  <use id="zoomminus" xlink:href="#zoomMin" x="42" y="9" onmousedown="handleZoom(evt,'out')"/>
  <use id="reset" xlink:href="#resetDef" x="30" y="36" onmousedown="handleReset()"/>
   <use id="arrowup" xlink:href="#arrowUp" x="0" y="0" onmousedown="handlePan(0,-1)"/>
  <use id="arrowright" xlink:href="#arrowRight" x="0" y="0" onmousedown="handlePan(1,0)"/>
  <use id="arrowdown" xlink:href="#arrowDown" x="0" y="0" onmousedown="handlePan(0,1)"/>
  <use id="arrowleft" xlink:href="#arrowLeft" x="0" y="0" onmousedown="handlePan(-1,0)"/>
</g>
<svg viewBox="0 0 15 15" width="100%" height="30px" preserveAspectRatio="xMaxYMin meet">
 <g id="arrow_out" transform="scale(0.3 0.3)">
  <a xlink:href="classBaseUI__inherit__graph_org.svg" target="_base">
   <rect id="button" ry="5" rx="5" y="6" x="6" height="38" width="38"
        fill="#f2f5e9" fill-opacity="0.5" stroke="#606060" stroke-width="1.0"/>
   <path id="arrow"
     d="M 11.500037,31.436501 C 11.940474,20.09759 22.043105,11.32322 32.158766,21.979434 L 37.068811,17.246167 C 37.068811,17.246167 37.088388,32 37.088388,32 L 22.160133,31.978069 C 22.160133,31.978069 26.997745,27.140456 26.997745,27.140456 C 18.528582,18.264221 13.291696,25.230495 11.500037,31.436501 z"
     style="fill:#404040;"/>
  </a>
 </g>
</svg>

<style type='text/css'>
<![CDATA[
[data-mouse-over-selected='false'] { opacity: 0.7; }
[data-mouse-over-selected='true']  { opacity: 1.0; }
]]>
</style>
<script type="application/ecmascript"><![CDATA[
document.addEventListener('DOMContentLoaded', (event) => {
  highlightEdges();
  highlightAdjacentNodes();
});
]]></script>
</svg>
