<?xml version="1.0" encoding="UTF-8" standalone="no"?>
<!DOCTYPE svg PUBLIC "-//W3C//DTD SVG 1.1//EN"
 "http://www.w3.org/Graphics/SVG/1.1/DTD/svg11.dtd">
<!-- Generated by graphviz version 2.43.0 (0)
 -->
<!-- Title: ARDOUR::ExportFormatBase Pages: 1 -->
<!--zoomable 249 -->

<svg id="main" version="1.1" xmlns="http://www.w3.org/2000/svg" xmlns:xlink="http://www.w3.org/1999/xlink" xml:space="preserve" onload="init(evt)">
<style type="text/css"><![CDATA[
.node, .edge {opacity: 0.7;}
.node.selected, .edge.selected {opacity: 1;}
.edge:hover path { stroke: red; }
.edge:hover polygon { stroke: red; fill: red; }
]]></style>

<defs>
  <circle id="rim" cx="0" cy="0" r="7"/>
  <circle id="rim2" cx="0" cy="0" r="3.5"/>
  <g id="zoomPlus">
    <use xlink:href="#rim" fill="#404040"><set attributeName="fill" to="#808080" begin="zoomplus.mouseover" end="zoomplus.mouseout"/></use>
    <path d="M-4,0h8M0,-4v8" fill="none" stroke="white" stroke-width="1.5" pointer-events="none"/>
  </g>
  <g id="zoomMin">
    <use xlink:href="#rim" fill="#404040"><set attributeName="fill" to="#808080" begin="zoomminus.mouseover" end="zoomminus.mouseout"/></use>
    <path d="M-4,0h8" fill="none" stroke="white" stroke-width="1.5" pointer-events="none"/>
  </g>
  <g id="arrowUp" transform="translate(30 24)">
    <use xlink:href="#rim"/>
    <path pointer-events="none" fill="none" stroke="white" stroke-width="1.5" d="M0,-3.0v7 M-2.5,-0.5L0,-3.0L2.5,-0.5"/>
  </g>
  <g id="arrowRight" transform="rotate(90) translate(36 -43)">
    <use xlink:href="#rim"/>
    <path pointer-events="none" fill="none" stroke="white" stroke-width="1.5" d="M0,-3.0v7 M-2.5,-0.5L0,-3.0L2.5,-0.5"/>
  </g>
  <g id="arrowDown" transform="rotate(180) translate(-30 -48)">
    <use xlink:href="#rim"/>
    <path pointer-events="none" fill="none" stroke="white" stroke-width="1.5" d="M0,-3.0v7 M-2.5,-0.5L0,-3.0L2.5,-0.5"/>
  </g>
  <g id="arrowLeft" transform="rotate(270) translate(-36 17)">
    <use xlink:href="#rim"/>
    <path pointer-events="none" fill="none" stroke="white" stroke-width="1.5" d="M0,-3.0v7 M-2.5,-0.5L0,-3.0L2.5,-0.5"/>
  </g>
  <g id="resetDef">
    <use xlink:href="#rim2" fill="#404040"><set attributeName="fill" to="#808080" begin="reset.mouseover" end="reset.mouseout"/></use>
  </g>
</defs>
<script type="application/ecmascript">
var viewWidth = 815;
var viewHeight = 249;
var sectionId = 'dynsection-0';
</script>
<script type="application/ecmascript" xlink:href="svg.min.js"/>
<svg id="graph" class="graph">
<g id="viewport">
<title>ARDOUR::ExportFormatBase</title>
<!-- Node1 -->
<g id="Node000001" class="node">
<title>Node1</title>
<g id="a_Node000001"><a xlink:title=" ">
<polygon fill="#999999" stroke="#666666" points="155,-93 0,-93 0,-74 155,-74 155,-93"/>
<text text-anchor="middle" x="77.5" y="-81" font-family="Helvetica,sans-Serif" font-size="10.00">ARDOUR::ExportFormatBase</text>
</a>
</g>
</g>
<!-- Node2 -->
<g id="Node000002" class="node">
<title>Node2</title>
<g id="a_Node000002"><a xlink:href="classARDOUR_1_1ExportFormat.html" target="_top" xlink:title="Base class for formats.">
<polygon fill="white" stroke="#666666" points="355,-130 224,-130 224,-111 355,-111 355,-130"/>
<text text-anchor="middle" x="289.5" y="-118" font-family="Helvetica,sans-Serif" font-size="10.00">ARDOUR::ExportFormat</text>
</a>
</g>
</g>
<!-- Node1&#45;&gt;Node2 -->
<g id="edge1_Node000001_Node000002" class="edge">
<title>Node1&#45;&gt;Node2</title>
<g id="a_edge1_Node000001_Node000002"><a xlink:title=" ">
<path fill="none" stroke="#63b8ff" d="M142.71,-94.81C171.99,-99.97 206.27,-106.01 234.24,-110.94"/>
<polygon fill="#63b8ff" stroke="#63b8ff" points="143.04,-91.32 132.58,-93.03 141.82,-98.21 143.04,-91.32"/>
</a>
</g>
</g>
<!-- Node11 -->
<g id="Node000011" class="node">
<title>Node11</title>
<g id="a_Node000011"><a xlink:href="classARDOUR_1_1ExportFormatCompatibility.html" target="_top" xlink:title="Allows adding to all sets. A format should be able to test if it is compatible with this.">
<polygon fill="white" stroke="#666666" points="388,-93 191,-93 191,-74 388,-74 388,-93"/>
<text text-anchor="middle" x="289.5" y="-81" font-family="Helvetica,sans-Serif" font-size="10.00">ARDOUR::ExportFormatCompatibility</text>
</a>
</g>
</g>
<!-- Node1&#45;&gt;Node11 -->
<g id="edge10_Node000001_Node000011" class="edge">
<title>Node1&#45;&gt;Node11</title>
<g id="a_edge10_Node000001_Node000011"><a xlink:title=" ">
<path fill="none" stroke="#63b8ff" d="M165.37,-83.5C173.79,-83.5 182.36,-83.5 190.87,-83.5"/>
<polygon fill="#63b8ff" stroke="#63b8ff" points="165.21,-80 155.21,-83.5 165.21,-87 165.21,-80"/>
</a>
</g>
</g>
<!-- Node12 -->
<g id="Node000012" class="node">
<title>Node12</title>
<g id="a_Node000012"><a xlink:href="classARDOUR_1_1ExportFormatSpecification.html" target="_top" xlink:title=" ">
<polygon fill="white" stroke="#666666" points="386.5,-56 192.5,-56 192.5,-37 386.5,-37 386.5,-56"/>
<text text-anchor="middle" x="289.5" y="-44" font-family="Helvetica,sans-Serif" font-size="10.00">ARDOUR::ExportFormatSpecification</text>
</a>
</g>
</g>
<!-- Node1&#45;&gt;Node12 -->
<g id="edge11_Node000001_Node000012" class="edge">
<title>Node1&#45;&gt;Node12</title>
<g id="a_edge11_Node000001_Node000012"><a xlink:title=" ">
<path fill="none" stroke="#63b8ff" d="M142.71,-72.19C171.99,-67.03 206.27,-60.99 234.24,-56.06"/>
<polygon fill="#63b8ff" stroke="#63b8ff" points="141.82,-68.79 132.58,-73.97 143.04,-75.68 141.82,-68.79"/>
</a>
</g>
</g>
<!-- Node3 -->
<g id="Node000003" class="node">
<title>Node3</title>
<g id="a_Node000003"><a xlink:href="classARDOUR_1_1ExportFormatBWF.html" target="_top" xlink:title=" ">
<polygon fill="white" stroke="#666666" points="591.5,-241 437.5,-241 437.5,-222 591.5,-222 591.5,-241"/>
<text text-anchor="middle" x="514.5" y="-229" font-family="Helvetica,sans-Serif" font-size="10.00">ARDOUR::ExportFormatBWF</text>
</a>
</g>
</g>
<!-- Node2&#45;&gt;Node3 -->
<g id="edge2_Node000002_Node000003" class="edge">
<title>Node2&#45;&gt;Node3</title>
<g id="a_edge2_Node000002_Node000003"><a xlink:title=" ">
<path fill="none" stroke="#63b8ff" d="M308.72,-136.92C333.14,-158 378.68,-194.16 424,-213.5 432.02,-216.92 440.72,-219.71 449.45,-221.96"/>
<polygon fill="#63b8ff" stroke="#63b8ff" points="310.82,-134.1 301,-130.14 306.21,-139.37 310.82,-134.1"/>
</a>
</g>
</g>
<!-- Node4 -->
<g id="Node000004" class="node">
<title>Node4</title>
<g id="a_Node000004"><a xlink:href="classARDOUR_1_1ExportFormatFFMPEG.html" target="_top" xlink:title=" ">
<polygon fill="white" stroke="#666666" points="600.5,-204 428.5,-204 428.5,-185 600.5,-185 600.5,-204"/>
<text text-anchor="middle" x="514.5" y="-192" font-family="Helvetica,sans-Serif" font-size="10.00">ARDOUR::ExportFormatFFMPEG</text>
</a>
</g>
</g>
<!-- Node2&#45;&gt;Node4 -->
<g id="edge3_Node000002_Node000004" class="edge">
<title>Node2&#45;&gt;Node4</title>
<g id="a_edge3_Node000002_Node000004"><a xlink:title=" ">
<path fill="none" stroke="#63b8ff" d="M319.07,-134.44C345.69,-146.96 386.77,-165.07 424,-176.5 434.61,-179.76 446.1,-182.58 457.21,-184.96"/>
<polygon fill="#63b8ff" stroke="#63b8ff" points="320.48,-131.24 309.95,-130.11 317.48,-137.56 320.48,-131.24"/>
</a>
</g>
</g>
<!-- Node5 -->
<g id="Node000005" class="node">
<title>Node5</title>
<g id="a_Node000005"><a xlink:href="classARDOUR_1_1ExportFormatFLAC.html" target="_top" xlink:title=" ">
<polygon fill="white" stroke="#666666" points="593,-167 436,-167 436,-148 593,-148 593,-167"/>
<text text-anchor="middle" x="514.5" y="-155" font-family="Helvetica,sans-Serif" font-size="10.00">ARDOUR::ExportFormatFLAC</text>
</a>
</g>
</g>
<!-- Node2&#45;&gt;Node5 -->
<g id="edge4_Node000002_Node000005" class="edge">
<title>Node2&#45;&gt;Node5</title>
<g id="a_edge4_Node000002_Node000005"><a xlink:title=" ">
<path fill="none" stroke="#63b8ff" d="M357.87,-131.68C389.14,-136.87 425.92,-142.97 455.88,-147.94"/>
<polygon fill="#63b8ff" stroke="#63b8ff" points="358.37,-128.21 347.93,-130.03 357.22,-135.12 358.37,-128.21"/>
</a>
</g>
</g>
<!-- Node6 -->
<g id="Node000006" class="node">
<title>Node6</title>
<g id="a_Node000006"><a xlink:href="classARDOUR_1_1ExportFormatLinear.html" target="_top" xlink:title=" ">
<polygon fill="white" stroke="#666666" points="595,-130 434,-130 434,-111 595,-111 595,-130"/>
<text text-anchor="middle" x="514.5" y="-118" font-family="Helvetica,sans-Serif" font-size="10.00">ARDOUR::ExportFormatLinear</text>
</a>
</g>
</g>
<!-- Node2&#45;&gt;Node6 -->
<g id="edge5_Node000002_Node000006" class="edge">
<title>Node2&#45;&gt;Node6</title>
<g id="a_edge5_Node000002_Node000006"><a xlink:title=" ">
<path fill="none" stroke="#63b8ff" d="M365.27,-120.5C387.26,-120.5 411.4,-120.5 433.69,-120.5"/>
<polygon fill="#63b8ff" stroke="#63b8ff" points="365,-117 355,-120.5 365,-124 365,-117"/>
</a>
</g>
</g>
<!-- Node8 -->
<g id="Node000008" class="node">
<title>Node8</title>
<g id="a_Node000008"><a xlink:href="classARDOUR_1_1ExportFormatMPEG.html" target="_top" xlink:title=" ">
<polygon fill="white" stroke="#666666" points="594.5,-93 434.5,-93 434.5,-74 594.5,-74 594.5,-93"/>
<text text-anchor="middle" x="514.5" y="-81" font-family="Helvetica,sans-Serif" font-size="10.00">ARDOUR::ExportFormatMPEG</text>
</a>
</g>
</g>
<!-- Node2&#45;&gt;Node8 -->
<g id="edge7_Node000002_Node000008" class="edge">
<title>Node2&#45;&gt;Node8</title>
<g id="a_edge7_Node000002_Node000008"><a xlink:title=" ">
<path fill="none" stroke="#63b8ff" d="M357.87,-109.32C389.14,-104.13 425.92,-98.03 455.88,-93.06"/>
<polygon fill="#63b8ff" stroke="#63b8ff" points="357.22,-105.88 347.93,-110.97 358.37,-112.79 357.22,-105.88"/>
</a>
</g>
</g>
<!-- Node9 -->
<g id="Node000009" class="node">
<title>Node9</title>
<g id="a_Node000009"><a xlink:href="classARDOUR_1_1ExportFormatOggOpus.html" target="_top" xlink:title=" ">
<polygon fill="white" stroke="#666666" points="602.5,-56 426.5,-56 426.5,-37 602.5,-37 602.5,-56"/>
<text text-anchor="middle" x="514.5" y="-44" font-family="Helvetica,sans-Serif" font-size="10.00">ARDOUR::ExportFormatOggOpus</text>
</a>
</g>
</g>
<!-- Node2&#45;&gt;Node9 -->
<g id="edge8_Node000002_Node000009" class="edge">
<title>Node2&#45;&gt;Node9</title>
<g id="a_edge8_Node000002_Node000009"><a xlink:title=" ">
<path fill="none" stroke="#63b8ff" d="M364.94,-111.76C372.97,-109.37 380.82,-106.34 388,-102.5 408.24,-91.69 403.91,-76.58 424,-65.5 431.09,-61.59 438.91,-58.48 446.89,-56.01"/>
<polygon fill="#63b8ff" stroke="#63b8ff" points="363.85,-108.43 355.09,-114.38 365.65,-115.2 363.85,-108.43"/>
</a>
</g>
</g>
<!-- Node10 -->
<g id="Node000010" class="node">
<title>Node10</title>
<g id="a_Node000010"><a xlink:href="classARDOUR_1_1ExportFormatOggVorbis.html" target="_top" xlink:title=" ">
<polygon fill="white" stroke="#666666" points="605,-19 424,-19 424,0 605,0 605,-19"/>
<text text-anchor="middle" x="514.5" y="-7" font-family="Helvetica,sans-Serif" font-size="10.00">ARDOUR::ExportFormatOggVorbis</text>
</a>
</g>
</g>
<!-- Node2&#45;&gt;Node10 -->
<g id="edge9_Node000002_Node000010" class="edge">
<title>Node2&#45;&gt;Node10</title>
<g id="a_edge9_Node000002_Node000010"><a xlink:title=" ">
<path fill="none" stroke="#63b8ff" d="M365.01,-114.41C373.27,-111.57 381.16,-107.71 388,-102.5 417.11,-80.36 395.19,-51.03 424,-28.5 428.88,-24.68 434.35,-21.59 440.12,-19.09"/>
<polygon fill="#63b8ff" stroke="#63b8ff" points="363.79,-111.12 355.18,-117.29 365.76,-117.83 363.79,-111.12"/>
</a>
</g>
</g>
<!-- Node7 -->
<g id="Node000007" class="node">
<title>Node7</title>
<g id="a_Node000007"><a xlink:href="classARDOUR_1_1ExportFormatTaggedLinear.html" target="_top" xlink:title=" ">
<polygon fill="white" stroke="#666666" points="807,-135.5 641,-135.5 641,-105.5 807,-105.5 807,-135.5"/>
<text text-anchor="start" x="649" y="-123.5" font-family="Helvetica,sans-Serif" font-size="10.00">ARDOUR::ExportFormatTagged</text>
<text text-anchor="middle" x="724" y="-112.5" font-family="Helvetica,sans-Serif" font-size="10.00">Linear</text>
</a>
</g>
</g>
<!-- Node6&#45;&gt;Node7 -->
<g id="edge6_Node000006_Node000007" class="edge">
<title>Node6&#45;&gt;Node7</title>
<g id="a_edge6_Node000006_Node000007"><a xlink:title=" ">
<path fill="none" stroke="#63b8ff" d="M605.4,-120.5C617.18,-120.5 629.19,-120.5 640.83,-120.5"/>
<polygon fill="#63b8ff" stroke="#63b8ff" points="605.13,-117 595.13,-120.5 605.13,-124 605.13,-117"/>
</a>
</g>
</g>
</g>
</svg>

<g id="navigator" transform="translate(0 0)" fill="#404254">
  <rect fill="#f2f5e9" fill-opacity="0.5" stroke="#606060" stroke-width=".5" x="0" y="0" width="60" height="60"/>
  <use id="zoomplus" xlink:href="#zoomPlus" x="17" y="9" onmousedown="handleZoom(evt,'in')"/>
  <use id="zoomminus" xlink:href="#zoomMin" x="42" y="9" onmousedown="handleZoom(evt,'out')"/>
  <use id="reset" xlink:href="#resetDef" x="30" y="36" onmousedown="handleReset()"/>
   <use id="arrowup" xlink:href="#arrowUp" x="0" y="0" onmousedown="handlePan(0,-1)"/>
  <use id="arrowright" xlink:href="#arrowRight" x="0" y="0" onmousedown="handlePan(1,0)"/>
  <use id="arrowdown" xlink:href="#arrowDown" x="0" y="0" onmousedown="handlePan(0,1)"/>
  <use id="arrowleft" xlink:href="#arrowLeft" x="0" y="0" onmousedown="handlePan(-1,0)"/>
</g>
<svg viewBox="0 0 15 15" width="100%" height="30px" preserveAspectRatio="xMaxYMin meet">
 <g id="arrow_out" transform="scale(0.3 0.3)">
  <a xlink:href="classARDOUR_1_1ExportFormatBase__inherit__graph_org.svg" target="_base">
   <rect id="button" ry="5" rx="5" y="6" x="6" height="38" width="38"
        fill="#f2f5e9" fill-opacity="0.5" stroke="#606060" stroke-width="1.0"/>
   <path id="arrow"
     d="M 11.500037,31.436501 C 11.940474,20.09759 22.043105,11.32322 32.158766,21.979434 L 37.068811,17.246167 C 37.068811,17.246167 37.088388,32 37.088388,32 L 22.160133,31.978069 C 22.160133,31.978069 26.997745,27.140456 26.997745,27.140456 C 18.528582,18.264221 13.291696,25.230495 11.500037,31.436501 z"
     style="fill:#404040;"/>
  </a>
 </g>
</svg>

<style type='text/css'>
<![CDATA[
[data-mouse-over-selected='false'] { opacity: 0.7; }
[data-mouse-over-selected='true']  { opacity: 1.0; }
]]>
</style>
<script type="application/ecmascript"><![CDATA[
document.addEventListener('DOMContentLoaded', (event) => {
  highlightEdges();
  highlightAdjacentNodes();
});
]]></script>
</svg>
