<?xml version="1.0" encoding="UTF-8" standalone="no"?>
<!DOCTYPE svg PUBLIC "-//W3C//DTD SVG 1.1//EN"
 "http://www.w3.org/Graphics/SVG/1.1/DTD/svg11.dtd">
<!-- Generated by graphviz version 2.43.0 (0)
 -->
<!-- Title: Gtk::DrawingArea Pages: 1 -->
<!--zoomable 360 -->

<svg id="main" version="1.1" xmlns="http://www.w3.org/2000/svg" xmlns:xlink="http://www.w3.org/1999/xlink" xml:space="preserve" onload="init(evt)">
<style type="text/css"><![CDATA[
.node, .edge {opacity: 0.7;}
.node.selected, .edge.selected {opacity: 1;}
.edge:hover path { stroke: red; }
.edge:hover polygon { stroke: red; fill: red; }
]]></style>

<defs>
  <circle id="rim" cx="0" cy="0" r="7"/>
  <circle id="rim2" cx="0" cy="0" r="3.5"/>
  <g id="zoomPlus">
    <use xlink:href="#rim" fill="#404040"><set attributeName="fill" to="#808080" begin="zoomplus.mouseover" end="zoomplus.mouseout"/></use>
    <path d="M-4,0h8M0,-4v8" fill="none" stroke="white" stroke-width="1.5" pointer-events="none"/>
  </g>
  <g id="zoomMin">
    <use xlink:href="#rim" fill="#404040"><set attributeName="fill" to="#808080" begin="zoomminus.mouseover" end="zoomminus.mouseout"/></use>
    <path d="M-4,0h8" fill="none" stroke="white" stroke-width="1.5" pointer-events="none"/>
  </g>
  <g id="arrowUp" transform="translate(30 24)">
    <use xlink:href="#rim"/>
    <path pointer-events="none" fill="none" stroke="white" stroke-width="1.5" d="M0,-3.0v7 M-2.5,-0.5L0,-3.0L2.5,-0.5"/>
  </g>
  <g id="arrowRight" transform="rotate(90) translate(36 -43)">
    <use xlink:href="#rim"/>
    <path pointer-events="none" fill="none" stroke="white" stroke-width="1.5" d="M0,-3.0v7 M-2.5,-0.5L0,-3.0L2.5,-0.5"/>
  </g>
  <g id="arrowDown" transform="rotate(180) translate(-30 -48)">
    <use xlink:href="#rim"/>
    <path pointer-events="none" fill="none" stroke="white" stroke-width="1.5" d="M0,-3.0v7 M-2.5,-0.5L0,-3.0L2.5,-0.5"/>
  </g>
  <g id="arrowLeft" transform="rotate(270) translate(-36 17)">
    <use xlink:href="#rim"/>
    <path pointer-events="none" fill="none" stroke="white" stroke-width="1.5" d="M0,-3.0v7 M-2.5,-0.5L0,-3.0L2.5,-0.5"/>
  </g>
  <g id="resetDef">
    <use xlink:href="#rim2" fill="#404040"><set attributeName="fill" to="#808080" begin="reset.mouseover" end="reset.mouseout"/></use>
  </g>
</defs>
<script type="application/ecmascript">
var viewWidth = 992;
var viewHeight = 360;
var sectionId = 'dynsection-0';
</script>
<script type="application/ecmascript" xlink:href="svg.min.js"/>
<svg id="graph" class="graph">
<g id="viewport">
<title>Gtk::DrawingArea</title>
<!-- Node1 -->
<g id="Node000001" class="node">
<title>Node1</title>
<g id="a_Node000001"><a xlink:title=" ">
<polygon fill="#999999" stroke="#666666" points="430,-185 327,-185 327,-166 430,-166 430,-185"/>
<text text-anchor="middle" x="378.5" y="-173" font-family="Helvetica,sans-Serif" font-size="10.00">Gtk::DrawingArea</text>
</a>
</g>
</g>
<!-- Node5 -->
<g id="Node000005" class="node">
<title>Node5</title>
<g id="a_Node000005"><a xlink:href="classAPianoKeyboard.html" target="_top" xlink:title=" ">
<polygon fill="white" stroke="#666666" points="590,-352 494,-352 494,-333 590,-333 590,-352"/>
<text text-anchor="middle" x="542" y="-340" font-family="Helvetica,sans-Serif" font-size="10.00">APianoKeyboard</text>
</a>
</g>
</g>
<!-- Node1&#45;&gt;Node5 -->
<g id="edge4_Node000001_Node000005" class="edge">
<title>Node1&#45;&gt;Node5</title>
<g id="a_edge4_Node000001_Node000005"><a xlink:title=" ">
<path fill="none" stroke="#63b8ff" d="M385.21,-194.92C395.7,-227.07 421.17,-291.11 466,-324.5 474.05,-330.5 483.83,-334.53 493.62,-337.23"/>
<polygon fill="#63b8ff" stroke="#63b8ff" points="388.54,-193.84 382.22,-185.33 381.85,-195.92 388.54,-193.84"/>
</a>
</g>
</g>
<!-- Node6 -->
<g id="Node000006" class="node">
<title>Node6</title>
<g id="a_Node000006"><a xlink:href="classArdourWidgets_1_1Scroomer.html" target="_top" xlink:title=" ">
<polygon fill="white" stroke="#666666" points="612.5,-315 471.5,-315 471.5,-296 612.5,-296 612.5,-315"/>
<text text-anchor="middle" x="542" y="-303" font-family="Helvetica,sans-Serif" font-size="10.00">ArdourWidgets::Scroomer</text>
</a>
</g>
</g>
<!-- Node1&#45;&gt;Node6 -->
<g id="edge5_Node000001_Node000006" class="edge">
<title>Node1&#45;&gt;Node6</title>
<g id="a_edge5_Node000001_Node000006"><a xlink:title=" ">
<path fill="none" stroke="#63b8ff" d="M388.6,-193.97C401.98,-219.15 429.4,-263.81 466,-287.5 471.28,-290.92 477.16,-293.69 483.22,-295.93"/>
<polygon fill="#63b8ff" stroke="#63b8ff" points="391.71,-192.37 384.02,-185.07 385.48,-195.57 391.71,-192.37"/>
</a>
</g>
</g>
<!-- Node7 -->
<g id="Node000007" class="node">
<title>Node7</title>
<g id="a_Node000007"><a xlink:href="classFFTGraph.html" target="_top" xlink:title=" ">
<polygon fill="white" stroke="#666666" points="573.5,-278 510.5,-278 510.5,-259 573.5,-259 573.5,-278"/>
<text text-anchor="middle" x="542" y="-266" font-family="Helvetica,sans-Serif" font-size="10.00">FFTGraph</text>
</a>
</g>
</g>
<!-- Node1&#45;&gt;Node7 -->
<g id="edge6_Node000001_Node000007" class="edge">
<title>Node1&#45;&gt;Node7</title>
<g id="a_edge6_Node000001_Node000007"><a xlink:title=" ">
<path fill="none" stroke="#63b8ff" d="M394.73,-192.87C410.76,-210.07 437.59,-235.89 466,-250.5 479.69,-257.54 496.22,-261.89 510.27,-264.54"/>
<polygon fill="#63b8ff" stroke="#63b8ff" points="397.08,-190.25 387.76,-185.2 391.9,-194.96 397.08,-190.25"/>
</a>
</g>
</g>
<!-- Node8 -->
<g id="Node000008" class="node">
<title>Node8</title>
<g id="a_Node000008"><a xlink:href="classGtk_1_1Spinner.html" target="_top" xlink:title=" ">
<polygon fill="white" stroke="#666666" points="580.5,-241 503.5,-241 503.5,-222 580.5,-222 580.5,-241"/>
<text text-anchor="middle" x="542" y="-229" font-family="Helvetica,sans-Serif" font-size="10.00">Gtk::Spinner</text>
</a>
</g>
</g>
<!-- Node1&#45;&gt;Node8 -->
<g id="edge7_Node000001_Node000008" class="edge">
<title>Node1&#45;&gt;Node8</title>
<g id="a_edge7_Node000001_Node000008"><a xlink:title=" ">
<path fill="none" stroke="#63b8ff" d="M408.59,-189.29C425.17,-196.81 446.47,-205.89 466,-212.5 477.96,-216.55 491.25,-220.18 503.28,-223.16"/>
<polygon fill="#63b8ff" stroke="#63b8ff" points="409.97,-186.08 399.43,-185.08 407.05,-192.44 409.97,-186.08"/>
</a>
</g>
</g>
<!-- Node9 -->
<g id="Node000009" class="node">
<title>Node9</title>
<g id="a_Node000009"><a xlink:href="classPanner2d.html" target="_top" xlink:title=" ">
<polygon fill="white" stroke="#666666" points="573,-204 511,-204 511,-185 573,-185 573,-204"/>
<text text-anchor="middle" x="542" y="-192" font-family="Helvetica,sans-Serif" font-size="10.00">Panner2d</text>
</a>
</g>
</g>
<!-- Node1&#45;&gt;Node9 -->
<g id="edge8_Node000001_Node000009" class="edge">
<title>Node1&#45;&gt;Node9</title>
<g id="a_edge8_Node000001_Node000009"><a xlink:title=" ">
<path fill="none" stroke="#63b8ff" d="M440.29,-182.65C464.35,-185.48 490.93,-188.61 510.74,-190.94"/>
<polygon fill="#63b8ff" stroke="#63b8ff" points="440.5,-179.15 430.16,-181.46 439.68,-186.1 440.5,-179.15"/>
</a>
</g>
</g>
<!-- Node10 -->
<g id="Node000010" class="node">
<title>Node10</title>
<g id="a_Node000010"><a xlink:href="classPannerInterface.html" target="_top" xlink:title=" ">
<polygon fill="white" stroke="#666666" points="588.5,-167 495.5,-167 495.5,-148 588.5,-148 588.5,-167"/>
<text text-anchor="middle" x="542" y="-155" font-family="Helvetica,sans-Serif" font-size="10.00">PannerInterface</text>
</a>
</g>
</g>
<!-- Node1&#45;&gt;Node10 -->
<g id="edge9_Node000001_Node000010" class="edge">
<title>Node1&#45;&gt;Node10</title>
<g id="a_edge9_Node000001_Node000010"><a xlink:title=" ">
<path fill="none" stroke="#63b8ff" d="M440.16,-168.74C458.49,-166.7 478.29,-164.49 495.45,-162.58"/>
<polygon fill="#63b8ff" stroke="#63b8ff" points="439.71,-165.27 430.16,-169.85 440.48,-172.22 439.71,-165.27"/>
</a>
</g>
</g>
<!-- Node13 -->
<g id="Node000013" class="node">
<title>Node13</title>
<g id="a_Node000013"><a xlink:href="classPianoRollHeader.html" target="_top" xlink:title=" ">
<polygon fill="white" stroke="#666666" points="591,-130 493,-130 493,-111 591,-111 591,-130"/>
<text text-anchor="middle" x="542" y="-118" font-family="Helvetica,sans-Serif" font-size="10.00">PianoRollHeader</text>
</a>
</g>
</g>
<!-- Node1&#45;&gt;Node13 -->
<g id="edge12_Node000001_Node000013" class="edge">
<title>Node1&#45;&gt;Node13</title>
<g id="a_edge12_Node000001_Node000013"><a xlink:title=" ">
<path fill="none" stroke="#63b8ff" d="M408.56,-161.61C425.13,-154.07 446.43,-144.98 466,-138.5 475.53,-135.34 485.92,-132.49 495.84,-130.03"/>
<polygon fill="#63b8ff" stroke="#63b8ff" points="407.01,-158.47 399.4,-165.85 409.95,-164.83 407.01,-158.47"/>
</a>
</g>
</g>
<!-- Node14 -->
<g id="Node000014" class="node">
<title>Node14</title>
<g id="a_Node000014"><a xlink:href="classPluginDisplay.html" target="_top" xlink:title=" ">
<polygon fill="white" stroke="#666666" points="583.5,-93 500.5,-93 500.5,-74 583.5,-74 583.5,-93"/>
<text text-anchor="middle" x="542" y="-81" font-family="Helvetica,sans-Serif" font-size="10.00">PluginDisplay</text>
</a>
</g>
</g>
<!-- Node1&#45;&gt;Node14 -->
<g id="edge13_Node000001_Node000014" class="edge">
<title>Node1&#45;&gt;Node14</title>
<g id="a_edge13_Node000001_Node000014"><a xlink:title=" ">
<path fill="none" stroke="#63b8ff" d="M394.77,-158.37C410.85,-141.4 437.71,-115.93 466,-101.5 476.62,-96.09 488.92,-92.26 500.45,-89.57"/>
<polygon fill="#63b8ff" stroke="#63b8ff" points="392,-156.21 387.79,-165.93 397.15,-160.96 392,-156.21"/>
</a>
</g>
</g>
<!-- Node17 -->
<g id="Node000017" class="node">
<title>Node17</title>
<g id="a_Node000017"><a xlink:href="classProcessorEntry_1_1PortIcon.html" target="_top" xlink:title=" ">
<polygon fill="white" stroke="#666666" points="609,-56 475,-56 475,-37 609,-37 609,-56"/>
<text text-anchor="middle" x="542" y="-44" font-family="Helvetica,sans-Serif" font-size="10.00">ProcessorEntry::PortIcon</text>
</a>
</g>
</g>
<!-- Node1&#45;&gt;Node17 -->
<g id="edge16_Node000001_Node000017" class="edge">
<title>Node1&#45;&gt;Node17</title>
<g id="a_edge16_Node000001_Node000017"><a xlink:title=" ">
<path fill="none" stroke="#63b8ff" d="M388.84,-156.82C402.35,-131.8 429.73,-87.86 466,-64.5 471.29,-61.09 477.17,-58.33 483.24,-56.09"/>
<polygon fill="#63b8ff" stroke="#63b8ff" points="385.74,-155.2 384.21,-165.69 391.94,-158.44 385.74,-155.2"/>
</a>
</g>
</g>
<!-- Node18 -->
<g id="Node000018" class="node">
<title>Node18</title>
<g id="a_Node000018"><a xlink:href="classProcessorEntry_1_1RoutingIcon.html" target="_top" xlink:title=" ">
<polygon fill="white" stroke="#666666" points="618,-19 466,-19 466,0 618,0 618,-19"/>
<text text-anchor="middle" x="542" y="-7" font-family="Helvetica,sans-Serif" font-size="10.00">ProcessorEntry::RoutingIcon</text>
</a>
</g>
</g>
<!-- Node1&#45;&gt;Node18 -->
<g id="edge17_Node000001_Node000018" class="edge">
<title>Node1&#45;&gt;Node18</title>
<g id="a_edge17_Node000001_Node000018"><a xlink:title=" ">
<path fill="none" stroke="#63b8ff" d="M385.39,-155.79C396.02,-123.72 421.54,-60.51 466,-27.5 470.62,-24.07 475.81,-21.28 481.24,-19.02"/>
<polygon fill="#63b8ff" stroke="#63b8ff" points="381.92,-155.14 382.24,-165.73 388.59,-157.25 381.92,-155.14"/>
</a>
</g>
</g>
<!-- Node2 -->
<g id="Node000002" class="node">
<title>Node2</title>
<g id="a_Node000002"><a xlink:href="classGtk_1_1Widget.html" target="_top" xlink:title=" ">
<polygon fill="white" stroke="#666666" points="291,-185 217,-185 217,-166 291,-166 291,-185"/>
<text text-anchor="middle" x="254" y="-173" font-family="Helvetica,sans-Serif" font-size="10.00">Gtk::Widget</text>
</a>
</g>
</g>
<!-- Node2&#45;&gt;Node1 -->
<g id="edge1_Node000001_Node000002" class="edge">
<title>Node2&#45;&gt;Node1</title>
<g id="a_edge1_Node000001_Node000002"><a xlink:title=" ">
<path fill="none" stroke="#63b8ff" d="M301.33,-175.5C309.61,-175.5 318.29,-175.5 326.69,-175.5"/>
<polygon fill="#63b8ff" stroke="#63b8ff" points="301.09,-172 291.09,-175.5 301.09,-179 301.09,-172"/>
</a>
</g>
</g>
<!-- Node3 -->
<g id="Node000003" class="node">
<title>Node3</title>
<g id="a_Node000003"><a xlink:href="classGtk_1_1Object.html" target="_top" xlink:title=" ">
<polygon fill="white" stroke="#666666" points="181,-185 110,-185 110,-166 181,-166 181,-185"/>
<text text-anchor="middle" x="145.5" y="-173" font-family="Helvetica,sans-Serif" font-size="10.00">Gtk::Object</text>
</a>
</g>
</g>
<!-- Node3&#45;&gt;Node2 -->
<g id="edge2_Node000002_Node000003" class="edge">
<title>Node3&#45;&gt;Node2</title>
<g id="a_edge2_Node000002_Node000003"><a xlink:title=" ">
<path fill="none" stroke="#63b8ff" d="M191.25,-175.5C199.76,-175.5 208.56,-175.5 216.77,-175.5"/>
<polygon fill="#63b8ff" stroke="#63b8ff" points="191.08,-172 181.08,-175.5 191.08,-179 191.08,-172"/>
</a>
</g>
</g>
<!-- Node4 -->
<g id="Node000004" class="node">
<title>Node4</title>
<g id="a_Node000004"><a xlink:title=" ">
<polygon fill="white" stroke="#666666" points="74,-185 0,-185 0,-166 74,-166 74,-185"/>
<text text-anchor="middle" x="37" y="-173" font-family="Helvetica,sans-Serif" font-size="10.00">Glib::Object</text>
</a>
</g>
</g>
<!-- Node4&#45;&gt;Node3 -->
<g id="edge3_Node000003_Node000004" class="edge">
<title>Node4&#45;&gt;Node3</title>
<g id="a_edge3_Node000003_Node000004"><a xlink:title=" ">
<path fill="none" stroke="#63b8ff" d="M84.06,-175.5C92.74,-175.5 101.67,-175.5 109.92,-175.5"/>
<polygon fill="#63b8ff" stroke="#63b8ff" points="84.06,-172 74.06,-175.5 84.06,-179 84.06,-172"/>
</a>
</g>
</g>
<!-- Node11 -->
<g id="Node000011" class="node">
<title>Node11</title>
<g id="a_Node000011"><a xlink:href="classMonoPanner.html" target="_top" xlink:title=" ">
<polygon fill="white" stroke="#666666" points="768.5,-188 691.5,-188 691.5,-169 768.5,-169 768.5,-188"/>
<text text-anchor="middle" x="730" y="-176" font-family="Helvetica,sans-Serif" font-size="10.00">MonoPanner</text>
</a>
</g>
</g>
<!-- Node10&#45;&gt;Node11 -->
<g id="edge10_Node000010_Node000011" class="edge">
<title>Node10&#45;&gt;Node11</title>
<g id="a_edge10_Node000010_Node000011"><a xlink:title=" ">
<path fill="none" stroke="#63b8ff" d="M598.81,-163.8C628.77,-167.18 664.89,-171.26 691.47,-174.26"/>
<polygon fill="#63b8ff" stroke="#63b8ff" points="598.83,-160.28 588.5,-162.64 598.04,-167.24 598.83,-160.28"/>
</a>
</g>
</g>
<!-- Node12 -->
<g id="Node000012" class="node">
<title>Node12</title>
<g id="a_Node000012"><a xlink:href="classStereoPanner.html" target="_top" xlink:title=" ">
<polygon fill="white" stroke="#666666" points="770.5,-151 689.5,-151 689.5,-132 770.5,-132 770.5,-151"/>
<text text-anchor="middle" x="730" y="-139" font-family="Helvetica,sans-Serif" font-size="10.00">StereoPanner</text>
</a>
</g>
</g>
<!-- Node10&#45;&gt;Node12 -->
<g id="edge11_Node000010_Node000012" class="edge">
<title>Node10&#45;&gt;Node12</title>
<g id="a_edge11_Node000010_Node000012"><a xlink:title=" ">
<path fill="none" stroke="#63b8ff" d="M598.56,-152.72C627.77,-150.21 662.89,-147.19 689.33,-144.91"/>
<polygon fill="#63b8ff" stroke="#63b8ff" points="598.16,-149.24 588.5,-153.59 598.76,-156.22 598.16,-149.24"/>
</a>
</g>
</g>
<!-- Node15 -->
<g id="Node000015" class="node">
<title>Node15</title>
<g id="a_Node000015"><a xlink:href="classProcessorEntry_1_1PluginInlineDisplay.html" target="_top" xlink:title=" ">
<polygon fill="white" stroke="#666666" points="806,-98.5 654,-98.5 654,-68.5 806,-68.5 806,-98.5"/>
<text text-anchor="start" x="662" y="-86.5" font-family="Helvetica,sans-Serif" font-size="10.00">ProcessorEntry::PluginInline</text>
<text text-anchor="middle" x="730" y="-75.5" font-family="Helvetica,sans-Serif" font-size="10.00">Display</text>
</a>
</g>
</g>
<!-- Node14&#45;&gt;Node15 -->
<g id="edge14_Node000014_Node000015" class="edge">
<title>Node14&#45;&gt;Node15</title>
<g id="a_edge14_Node000014_Node000015"><a xlink:title=" ">
<path fill="none" stroke="#63b8ff" d="M594.04,-83.5C612.49,-83.5 633.73,-83.5 653.82,-83.5"/>
<polygon fill="#63b8ff" stroke="#63b8ff" points="593.82,-80 583.82,-83.5 593.82,-87 593.82,-80"/>
</a>
</g>
</g>
<!-- Node16 -->
<g id="Node000016" class="node">
<title>Node16</title>
<g id="a_Node000016"><a xlink:href="classProcessorEntry_1_1LuaPluginDisplay.html" target="_top" xlink:title=" ">
<polygon fill="white" stroke="#666666" points="984,-98.5 842,-98.5 842,-68.5 984,-68.5 984,-98.5"/>
<text text-anchor="start" x="850" y="-86.5" font-family="Helvetica,sans-Serif" font-size="10.00">ProcessorEntry::LuaPlugin</text>
<text text-anchor="middle" x="913" y="-75.5" font-family="Helvetica,sans-Serif" font-size="10.00">Display</text>
</a>
</g>
</g>
<!-- Node15&#45;&gt;Node16 -->
<g id="edge15_Node000015_Node000016" class="edge">
<title>Node15&#45;&gt;Node16</title>
<g id="a_edge15_Node000015_Node000016"><a xlink:title=" ">
<path fill="none" stroke="#63b8ff" d="M816.25,-83.5C824.87,-83.5 833.55,-83.5 841.97,-83.5"/>
<polygon fill="#63b8ff" stroke="#63b8ff" points="816.19,-80 806.19,-83.5 816.19,-87 816.19,-80"/>
</a>
</g>
</g>
</g>
</svg>

<g id="navigator" transform="translate(0 0)" fill="#404254">
  <rect fill="#f2f5e9" fill-opacity="0.5" stroke="#606060" stroke-width=".5" x="0" y="0" width="60" height="60"/>
  <use id="zoomplus" xlink:href="#zoomPlus" x="17" y="9" onmousedown="handleZoom(evt,'in')"/>
  <use id="zoomminus" xlink:href="#zoomMin" x="42" y="9" onmousedown="handleZoom(evt,'out')"/>
  <use id="reset" xlink:href="#resetDef" x="30" y="36" onmousedown="handleReset()"/>
   <use id="arrowup" xlink:href="#arrowUp" x="0" y="0" onmousedown="handlePan(0,-1)"/>
  <use id="arrowright" xlink:href="#arrowRight" x="0" y="0" onmousedown="handlePan(1,0)"/>
  <use id="arrowdown" xlink:href="#arrowDown" x="0" y="0" onmousedown="handlePan(0,1)"/>
  <use id="arrowleft" xlink:href="#arrowLeft" x="0" y="0" onmousedown="handlePan(-1,0)"/>
</g>
<svg viewBox="0 0 15 15" width="100%" height="30px" preserveAspectRatio="xMaxYMin meet">
 <g id="arrow_out" transform="scale(0.3 0.3)">
  <a xlink:href="classGtk_1_1DrawingArea__inherit__graph_org.svg" target="_base">
   <rect id="button" ry="5" rx="5" y="6" x="6" height="38" width="38"
        fill="#f2f5e9" fill-opacity="0.5" stroke="#606060" stroke-width="1.0"/>
   <path id="arrow"
     d="M 11.500037,31.436501 C 11.940474,20.09759 22.043105,11.32322 32.158766,21.979434 L 37.068811,17.246167 C 37.068811,17.246167 37.088388,32 37.088388,32 L 22.160133,31.978069 C 22.160133,31.978069 26.997745,27.140456 26.997745,27.140456 C 18.528582,18.264221 13.291696,25.230495 11.500037,31.436501 z"
     style="fill:#404040;"/>
  </a>
 </g>
</svg>

<style type='text/css'>
<![CDATA[
[data-mouse-over-selected='false'] { opacity: 0.7; }
[data-mouse-over-selected='true']  { opacity: 1.0; }
]]>
</style>
<script type="application/ecmascript"><![CDATA[
document.addEventListener('DOMContentLoaded', (event) => {
  highlightEdges();
  highlightAdjacentNodes();
});
]]></script>
</svg>
