<?xml version="1.0" encoding="UTF-8" standalone="no"?>
<!DOCTYPE svg PUBLIC "-//W3C//DTD SVG 1.1//EN"
 "http://www.w3.org/Graphics/SVG/1.1/DTD/svg11.dtd">
<!-- Generated by graphviz version 2.43.0 (0)
 -->
<!-- Title: ARDOUR::MacVSTPlugin Pages: 1 -->
<svg width="457pt" height="247pt"
 viewBox="0.00 0.00 457.00 247.00" xmlns="http://www.w3.org/2000/svg" xmlns:xlink="http://www.w3.org/1999/xlink">
<g id="graph0" class="graph" transform="scale(1 1) rotate(0) translate(4 243)">
<title>ARDOUR::MacVSTPlugin</title>
<!-- Node1 -->
<g id="Node000001" class="node">
<title>Node1</title>
<g id="a_Node000001"><a xlink:title=" ">
<polygon fill="#999999" stroke="#666666" points="311.5,-19 177.5,-19 177.5,0 311.5,0 311.5,-19"/>
<text text-anchor="middle" x="244.5" y="-7" font-family="Helvetica,sans-Serif" font-size="10.00">ARDOUR::MacVSTPlugin</text>
</a>
</g>
</g>
<!-- Node2 -->
<g id="Node000002" class="node">
<title>Node2</title>
<g id="a_Node000002"><a xlink:href="classARDOUR_1_1VSTPlugin.html" target="_top" xlink:title=" ">
<polygon fill="white" stroke="#666666" points="301.5,-74 187.5,-74 187.5,-55 301.5,-55 301.5,-74"/>
<text text-anchor="middle" x="244.5" y="-62" font-family="Helvetica,sans-Serif" font-size="10.00">ARDOUR::VSTPlugin</text>
</a>
</g>
</g>
<!-- Node2&#45;&gt;Node1 -->
<g id="edge1_Node000001_Node000002" class="edge">
<title>Node2&#45;&gt;Node1</title>
<g id="a_edge1_Node000001_Node000002"><a xlink:title=" ">
<path fill="none" stroke="#63b8ff" d="M244.5,-44.66C244.5,-35.93 244.5,-25.99 244.5,-19.09"/>
<polygon fill="#63b8ff" stroke="#63b8ff" points="241,-44.75 244.5,-54.75 248,-44.75 241,-44.75"/>
</a>
</g>
</g>
<!-- Node3 -->
<g id="Node000003" class="node">
<title>Node3</title>
<g id="a_Node000003"><a xlink:href="classARDOUR_1_1Plugin.html" target="_top" xlink:title=" ">
<polygon fill="white" stroke="#666666" points="292,-129 197,-129 197,-110 292,-110 292,-129"/>
<text text-anchor="middle" x="244.5" y="-117" font-family="Helvetica,sans-Serif" font-size="10.00">ARDOUR::Plugin</text>
</a>
</g>
</g>
<!-- Node3&#45;&gt;Node2 -->
<g id="edge2_Node000002_Node000003" class="edge">
<title>Node3&#45;&gt;Node2</title>
<g id="a_edge2_Node000002_Node000003"><a xlink:title=" ">
<path fill="none" stroke="#63b8ff" d="M244.5,-99.66C244.5,-90.93 244.5,-80.99 244.5,-74.09"/>
<polygon fill="#63b8ff" stroke="#63b8ff" points="241,-99.75 244.5,-109.75 248,-99.75 241,-99.75"/>
</a>
</g>
</g>
<!-- Node4 -->
<g id="Node000004" class="node">
<title>Node4</title>
<g id="a_Node000004"><a xlink:href="classPBD_1_1StatefulDestructible.html" target="_top" xlink:title=" ">
<polygon fill="white" stroke="#666666" points="165.5,-184 25.5,-184 25.5,-165 165.5,-165 165.5,-184"/>
<text text-anchor="middle" x="95.5" y="-172" font-family="Helvetica,sans-Serif" font-size="10.00">PBD::StatefulDestructible</text>
</a>
</g>
</g>
<!-- Node4&#45;&gt;Node3 -->
<g id="edge3_Node000003_Node000004" class="edge">
<title>Node4&#45;&gt;Node3</title>
<g id="a_edge3_Node000003_Node000004"><a xlink:title=" ">
<path fill="none" stroke="#63b8ff" d="M129.09,-161.55C156.76,-151.71 195.34,-137.98 220.12,-129.17"/>
<polygon fill="#63b8ff" stroke="#63b8ff" points="127.69,-158.34 119.44,-164.98 130.03,-164.93 127.69,-158.34"/>
</a>
</g>
</g>
<!-- Node5 -->
<g id="Node000005" class="node">
<title>Node5</title>
<g id="a_Node000005"><a xlink:href="classPBD_1_1Stateful.html" target="_top" xlink:title=" ">
<polygon fill="white" stroke="#666666" points="81,-239 0,-239 0,-220 81,-220 81,-239"/>
<text text-anchor="middle" x="40.5" y="-227" font-family="Helvetica,sans-Serif" font-size="10.00">PBD::Stateful</text>
</a>
</g>
</g>
<!-- Node5&#45;&gt;Node4 -->
<g id="edge4_Node000004_Node000005" class="edge">
<title>Node5&#45;&gt;Node4</title>
<g id="a_edge4_Node000004_Node000005"><a xlink:title=" ">
<path fill="none" stroke="#63b8ff" d="M56.79,-212.8C66.54,-203.41 78.55,-191.83 86.59,-184.09"/>
<polygon fill="#63b8ff" stroke="#63b8ff" points="54.35,-210.29 49.58,-219.75 59.21,-215.33 54.35,-210.29"/>
</a>
</g>
</g>
<!-- Node6 -->
<g id="Node000006" class="node">
<title>Node6</title>
<g id="a_Node000006"><a xlink:href="classPBD_1_1Destructible.html" target="_top" xlink:title=" ">
<polygon fill="white" stroke="#666666" points="201.5,-239 99.5,-239 99.5,-220 201.5,-220 201.5,-239"/>
<text text-anchor="middle" x="150.5" y="-227" font-family="Helvetica,sans-Serif" font-size="10.00">PBD::Destructible</text>
</a>
</g>
</g>
<!-- Node6&#45;&gt;Node4 -->
<g id="edge5_Node000004_Node000006" class="edge">
<title>Node6&#45;&gt;Node4</title>
<g id="a_edge5_Node000004_Node000006"><a xlink:title=" ">
<path fill="none" stroke="#63b8ff" d="M134.21,-212.8C124.46,-203.41 112.45,-191.83 104.41,-184.09"/>
<polygon fill="#63b8ff" stroke="#63b8ff" points="131.79,-215.33 141.42,-219.75 136.65,-210.29 131.79,-215.33"/>
</a>
</g>
</g>
<!-- Node7 -->
<g id="Node000007" class="node">
<title>Node7</title>
<g id="a_Node000007"><a xlink:href="classARDOUR_1_1HasLatency.html" target="_top" xlink:title=" ">
<polygon fill="white" stroke="#666666" points="305.5,-184 183.5,-184 183.5,-165 305.5,-165 305.5,-184"/>
<text text-anchor="middle" x="244.5" y="-172" font-family="Helvetica,sans-Serif" font-size="10.00">ARDOUR::HasLatency</text>
</a>
</g>
</g>
<!-- Node7&#45;&gt;Node3 -->
<g id="edge6_Node000003_Node000007" class="edge">
<title>Node7&#45;&gt;Node3</title>
<g id="a_edge6_Node000003_Node000007"><a xlink:title=" ">
<path fill="none" stroke="#63b8ff" d="M244.5,-154.66C244.5,-145.93 244.5,-135.99 244.5,-129.09"/>
<polygon fill="#63b8ff" stroke="#63b8ff" points="241,-154.75 244.5,-164.75 248,-154.75 241,-154.75"/>
</a>
</g>
</g>
<!-- Node8 -->
<g id="Node000008" class="node">
<title>Node8</title>
<g id="a_Node000008"><a xlink:href="classARDOUR_1_1HasTailTime.html" target="_top" xlink:title=" ">
<polygon fill="white" stroke="#666666" points="449,-184 324,-184 324,-165 449,-165 449,-184"/>
<text text-anchor="middle" x="386.5" y="-172" font-family="Helvetica,sans-Serif" font-size="10.00">ARDOUR::HasTailTime</text>
</a>
</g>
</g>
<!-- Node8&#45;&gt;Node3 -->
<g id="edge7_Node000003_Node000008" class="edge">
<title>Node8&#45;&gt;Node3</title>
<g id="a_edge7_Node000003_Node000008"><a xlink:title=" ">
<path fill="none" stroke="#63b8ff" d="M354.14,-161.42C327.79,-151.59 291.24,-137.95 267.73,-129.17"/>
<polygon fill="#63b8ff" stroke="#63b8ff" points="353.09,-164.77 363.69,-164.98 355.54,-158.21 353.09,-164.77"/>
</a>
</g>
</g>
</g>
</svg>
