<?xml version="1.0" encoding="UTF-8" standalone="no"?>
<!DOCTYPE svg PUBLIC "-//W3C//DTD SVG 1.1//EN"
 "http://www.w3.org/Graphics/SVG/1.1/DTD/svg11.dtd">
<!-- Generated by graphviz version 2.43.0 (0)
 -->
<!-- Title: ArdourSurface::FP8::FP8MomentaryButton Pages: 1 -->
<svg width="137pt" height="170pt"
 viewBox="0.00 0.00 137.00 170.00" xmlns="http://www.w3.org/2000/svg" xmlns:xlink="http://www.w3.org/1999/xlink">
<g id="graph0" class="graph" transform="scale(1 1) rotate(0) translate(4 166)">
<title>ArdourSurface::FP8::FP8MomentaryButton</title>
<!-- Node1 -->
<g id="Node000001" class="node">
<title>Node1</title>
<g id="a_Node000001"><a xlink:title=" ">
<polygon fill="#999999" stroke="#666666" points="129,-30 0,-30 0,0 129,0 129,-30"/>
<text text-anchor="start" x="8" y="-18" font-family="Helvetica,sans-Serif" font-size="10.00">ArdourSurface::FP8</text>
<text text-anchor="middle" x="64.5" y="-7" font-family="Helvetica,sans-Serif" font-size="10.00">::FP8MomentaryButton</text>
</a>
</g>
</g>
<!-- Node2 -->
<g id="Node000002" class="node">
<title>Node2</title>
<g id="a_Node000002"><a xlink:href="classArdourSurface_1_1FP8_1_1FP8ButtonBase.html" target="_top" xlink:title=" ">
<polygon fill="white" stroke="#666666" points="119.5,-96 9.5,-96 9.5,-66 119.5,-66 119.5,-96"/>
<text text-anchor="start" x="17.5" y="-84" font-family="Helvetica,sans-Serif" font-size="10.00">ArdourSurface::FP8</text>
<text text-anchor="middle" x="64.5" y="-73" font-family="Helvetica,sans-Serif" font-size="10.00">::FP8ButtonBase</text>
</a>
</g>
</g>
<!-- Node2&#45;&gt;Node1 -->
<g id="edge1_Node000001_Node000002" class="edge">
<title>Node2&#45;&gt;Node1</title>
<g id="a_edge1_Node000001_Node000002"><a xlink:title=" ">
<path fill="none" stroke="#63b8ff" d="M64.5,-55.54C64.5,-46.96 64.5,-37.61 64.5,-30.16"/>
<polygon fill="#63b8ff" stroke="#63b8ff" points="61,-55.8 64.5,-65.8 68,-55.8 61,-55.8"/>
</a>
</g>
</g>
<!-- Node3 -->
<g id="Node000003" class="node">
<title>Node3</title>
<g id="a_Node000003"><a xlink:href="classArdourSurface_1_1FP8_1_1FP8ButtonInterface.html" target="_top" xlink:title=" ">
<polygon fill="white" stroke="#666666" points="122.5,-162 6.5,-162 6.5,-132 122.5,-132 122.5,-162"/>
<text text-anchor="start" x="14.5" y="-150" font-family="Helvetica,sans-Serif" font-size="10.00">ArdourSurface::FP8</text>
<text text-anchor="middle" x="64.5" y="-139" font-family="Helvetica,sans-Serif" font-size="10.00">::FP8ButtonInterface</text>
</a>
</g>
</g>
<!-- Node3&#45;&gt;Node2 -->
<g id="edge2_Node000002_Node000003" class="edge">
<title>Node3&#45;&gt;Node2</title>
<g id="a_edge2_Node000002_Node000003"><a xlink:title=" ">
<path fill="none" stroke="#63b8ff" d="M64.5,-121.54C64.5,-112.96 64.5,-103.61 64.5,-96.16"/>
<polygon fill="#63b8ff" stroke="#63b8ff" points="61,-121.8 64.5,-131.8 68,-121.8 61,-121.8"/>
</a>
</g>
</g>
</g>
</svg>
