<?xml version="1.0" encoding="UTF-8" standalone="no"?>
<!DOCTYPE svg PUBLIC "-//W3C//DTD SVG 1.1//EN"
 "http://www.w3.org/Graphics/SVG/1.1/DTD/svg11.dtd">
<!-- Generated by graphviz version 2.43.0 (0)
 -->
<!-- Title: PBD::PropertyTemplate&lt; T &gt; Pages: 1 -->
<!--zoomable 641 -->

<svg id="main" version="1.1" xmlns="http://www.w3.org/2000/svg" xmlns:xlink="http://www.w3.org/1999/xlink" xml:space="preserve" onload="init(evt)">
<style type="text/css"><![CDATA[
.node, .edge {opacity: 0.7;}
.node.selected, .edge.selected {opacity: 1;}
.edge:hover path { stroke: red; }
.edge:hover polygon { stroke: red; fill: red; }
]]></style>

<defs>
  <circle id="rim" cx="0" cy="0" r="7"/>
  <circle id="rim2" cx="0" cy="0" r="3.5"/>
  <g id="zoomPlus">
    <use xlink:href="#rim" fill="#404040"><set attributeName="fill" to="#808080" begin="zoomplus.mouseover" end="zoomplus.mouseout"/></use>
    <path d="M-4,0h8M0,-4v8" fill="none" stroke="white" stroke-width="1.5" pointer-events="none"/>
  </g>
  <g id="zoomMin">
    <use xlink:href="#rim" fill="#404040"><set attributeName="fill" to="#808080" begin="zoomminus.mouseover" end="zoomminus.mouseout"/></use>
    <path d="M-4,0h8" fill="none" stroke="white" stroke-width="1.5" pointer-events="none"/>
  </g>
  <g id="arrowUp" transform="translate(30 24)">
    <use xlink:href="#rim"/>
    <path pointer-events="none" fill="none" stroke="white" stroke-width="1.5" d="M0,-3.0v7 M-2.5,-0.5L0,-3.0L2.5,-0.5"/>
  </g>
  <g id="arrowRight" transform="rotate(90) translate(36 -43)">
    <use xlink:href="#rim"/>
    <path pointer-events="none" fill="none" stroke="white" stroke-width="1.5" d="M0,-3.0v7 M-2.5,-0.5L0,-3.0L2.5,-0.5"/>
  </g>
  <g id="arrowDown" transform="rotate(180) translate(-30 -48)">
    <use xlink:href="#rim"/>
    <path pointer-events="none" fill="none" stroke="white" stroke-width="1.5" d="M0,-3.0v7 M-2.5,-0.5L0,-3.0L2.5,-0.5"/>
  </g>
  <g id="arrowLeft" transform="rotate(270) translate(-36 17)">
    <use xlink:href="#rim"/>
    <path pointer-events="none" fill="none" stroke="white" stroke-width="1.5" d="M0,-3.0v7 M-2.5,-0.5L0,-3.0L2.5,-0.5"/>
  </g>
  <g id="resetDef">
    <use xlink:href="#rim2" fill="#404040"><set attributeName="fill" to="#808080" begin="reset.mouseover" end="reset.mouseout"/></use>
  </g>
</defs>
<script type="application/ecmascript">
var viewWidth = 690;
var viewHeight = 641;
var sectionId = 'dynsection-0';
</script>
<script type="application/ecmascript" xlink:href="svg.min.js"/>
<svg id="graph" class="graph">
<g id="viewport">
<title>PBD::PropertyTemplate&lt; T &gt;</title>
<!-- Node1 -->
<g id="Node000001" class="node">
<title>Node1</title>
<g id="a_Node000001"><a xlink:title=" ">
<polygon fill="#999999" stroke="#666666" points="302,-323 144,-323 144,-304 302,-304 302,-323"/>
<text text-anchor="middle" x="223" y="-311" font-family="Helvetica,sans-Serif" font-size="10.00">PBD::PropertyTemplate&lt; T &gt;</text>
</a>
</g>
</g>
<!-- Node3 -->
<g id="Node000003" class="node">
<title>Node3</title>
<g id="a_Node000003"><a xlink:href="classPBD_1_1Property.html" target="_top" xlink:title=" ">
<polygon fill="white" stroke="#666666" points="486,-633 358,-633 358,-614 486,-614 486,-633"/>
<text text-anchor="middle" x="422" y="-621" font-family="Helvetica,sans-Serif" font-size="10.00">PBD::Property&lt; bool &gt;</text>
</a>
</g>
</g>
<!-- Node1&#45;&gt;Node3 -->
<g id="edge2_Node000001_Node000003" class="edge">
<title>Node1&#45;&gt;Node3</title>
<g id="a_edge2_Node000001_Node000003"><a xlink:title=" ">
<path fill="none" stroke="#63b8ff" d="M225.49,-333.24C230.59,-386.19 252.16,-532.3 338,-605.5 343.83,-610.47 350.72,-614.17 358,-616.9"/>
<polygon fill="#63b8ff" stroke="#63b8ff" points="228.96,-332.82 224.61,-323.16 221.99,-333.42 228.96,-332.82"/>
</a>
</g>
</g>
<!-- Node4 -->
<g id="Node000004" class="node">
<title>Node4</title>
<g id="a_Node000004"><a xlink:href="classPBD_1_1Property.html" target="_top" xlink:title=" ">
<polygon fill="white" stroke="#666666" points="490.5,-596 353.5,-596 353.5,-577 490.5,-577 490.5,-596"/>
<text text-anchor="middle" x="422" y="-584" font-family="Helvetica,sans-Serif" font-size="10.00">PBD::Property&lt; gain_t &gt;</text>
</a>
</g>
</g>
<!-- Node1&#45;&gt;Node4 -->
<g id="edge3_Node000001_Node000004" class="edge">
<title>Node1&#45;&gt;Node4</title>
<g id="a_edge3_Node000001_Node000004"><a xlink:title=" ">
<path fill="none" stroke="#63b8ff" d="M226.8,-333.17C234.73,-381.2 261.89,-505.07 338,-567.5 342.69,-571.34 348,-574.44 353.62,-576.94"/>
<polygon fill="#63b8ff" stroke="#63b8ff" points="230.24,-332.5 225.25,-323.16 223.32,-333.57 230.24,-332.5"/>
</a>
</g>
</g>
<!-- Node5 -->
<g id="Node000005" class="node">
<title>Node5</title>
<g id="a_Node000005"><a xlink:href="classPBD_1_1Property.html" target="_top" xlink:title=" ">
<polygon fill="white" stroke="#666666" points="492,-558.5 352,-558.5 352,-528.5 492,-528.5 492,-558.5"/>
<text text-anchor="start" x="360" y="-546.5" font-family="Helvetica,sans-Serif" font-size="10.00">PBD::Property&lt; Temporal</text>
<text text-anchor="middle" x="422" y="-535.5" font-family="Helvetica,sans-Serif" font-size="10.00">::timepos_t &gt;</text>
</a>
</g>
</g>
<!-- Node1&#45;&gt;Node5 -->
<g id="edge4_Node000001_Node000005" class="edge">
<title>Node1&#45;&gt;Node5</title>
<g id="a_edge4_Node000001_Node000005"><a xlink:title=" ">
<path fill="none" stroke="#63b8ff" d="M229.35,-333.32C241.5,-374.42 275.07,-469.3 338,-519.5 342.34,-522.96 347.16,-525.92 352.23,-528.46"/>
<polygon fill="#63b8ff" stroke="#63b8ff" points="232.65,-332.1 226.55,-323.44 225.92,-334.02 232.65,-332.1"/>
</a>
</g>
</g>
<!-- Node6 -->
<g id="Node000006" class="node">
<title>Node6</title>
<g id="a_Node000006"><a xlink:href="classPBD_1_1Property.html" target="_top" xlink:title=" ">
<polygon fill="white" stroke="#666666" points="492,-510.5 352,-510.5 352,-480.5 492,-480.5 492,-510.5"/>
<text text-anchor="start" x="360" y="-498.5" font-family="Helvetica,sans-Serif" font-size="10.00">PBD::Property&lt; Temporal</text>
<text text-anchor="middle" x="422" y="-487.5" font-family="Helvetica,sans-Serif" font-size="10.00">::timecnt_t &gt;</text>
</a>
</g>
</g>
<!-- Node1&#45;&gt;Node6 -->
<g id="edge5_Node000001_Node000006" class="edge">
<title>Node1&#45;&gt;Node6</title>
<g id="a_edge5_Node000001_Node000006"><a xlink:title=" ">
<path fill="none" stroke="#63b8ff" d="M232.47,-332.48C248.31,-365.75 285.6,-434.59 338,-471.5 342.91,-474.96 348.3,-477.92 353.92,-480.45"/>
<polygon fill="#63b8ff" stroke="#63b8ff" points="235.47,-330.62 228.09,-323.01 229.12,-333.55 235.47,-330.62"/>
</a>
</g>
</g>
<!-- Node7 -->
<g id="Node000007" class="node">
<title>Node7</title>
<g id="a_Node000007"><a xlink:href="classPBD_1_1Property.html" target="_top" xlink:title=" ">
<polygon fill="white" stroke="#666666" points="486,-462 358,-462 358,-443 486,-443 486,-462"/>
<text text-anchor="middle" x="422" y="-450" font-family="Helvetica,sans-Serif" font-size="10.00">PBD::Property&lt; float &gt;</text>
</a>
</g>
</g>
<!-- Node1&#45;&gt;Node7 -->
<g id="edge6_Node000001_Node000007" class="edge">
<title>Node1&#45;&gt;Node7</title>
<g id="a_edge6_Node000001_Node000007"><a xlink:title=" ">
<path fill="none" stroke="#63b8ff" d="M235.73,-331.69C254.12,-358.63 292.37,-408.72 338,-434.5 344.16,-437.98 350.93,-440.79 357.86,-443.06"/>
<polygon fill="#63b8ff" stroke="#63b8ff" points="238.53,-329.59 230.08,-323.2 232.71,-333.47 238.53,-329.59"/>
</a>
</g>
</g>
<!-- Node8 -->
<g id="Node000008" class="node">
<title>Node8</title>
<g id="a_Node000008"><a xlink:href="classPBD_1_1Property.html" target="_top" xlink:title=" ">
<polygon fill="white" stroke="#666666" points="495,-425 349,-425 349,-406 495,-406 495,-425"/>
<text text-anchor="middle" x="422" y="-413" font-family="Helvetica,sans-Serif" font-size="10.00">PBD::Property&lt; uint64_t &gt;</text>
</a>
</g>
</g>
<!-- Node1&#45;&gt;Node8 -->
<g id="edge7_Node000001_Node000008" class="edge">
<title>Node1&#45;&gt;Node8</title>
<g id="a_edge7_Node000001_Node000008"><a xlink:title=" ">
<path fill="none" stroke="#63b8ff" d="M241.57,-330.21C262.75,-349.41 300.22,-380.43 338,-397.5 345.52,-400.9 353.73,-403.67 361.96,-405.93"/>
<polygon fill="#63b8ff" stroke="#63b8ff" points="243.76,-327.47 234.04,-323.26 239.01,-332.61 243.76,-327.47"/>
</a>
</g>
</g>
<!-- Node9 -->
<g id="Node000009" class="node">
<title>Node9</title>
<g id="a_Node000009"><a xlink:href="classPBD_1_1Property.html" target="_top" xlink:title=" ">
<polygon fill="white" stroke="#666666" points="492,-388 352,-388 352,-369 492,-369 492,-388"/>
<text text-anchor="middle" x="422" y="-376" font-family="Helvetica,sans-Serif" font-size="10.00">PBD::Property&lt; int32_t &gt;</text>
</a>
</g>
</g>
<!-- Node1&#45;&gt;Node9 -->
<g id="edge8_Node000001_Node000009" class="edge">
<title>Node1&#45;&gt;Node9</title>
<g id="a_edge8_Node000001_Node000009"><a xlink:title=" ">
<path fill="none" stroke="#63b8ff" d="M254.49,-327.34C277.18,-337.26 309.09,-350.42 338,-359.5 349.28,-363.04 361.62,-366.23 373.25,-368.93"/>
<polygon fill="#63b8ff" stroke="#63b8ff" points="255.62,-324.02 245.06,-323.17 252.79,-330.42 255.62,-324.02"/>
</a>
</g>
</g>
<!-- Node10 -->
<g id="Node000010" class="node">
<title>Node10</title>
<g id="a_Node000010"><a xlink:href="classPBD_1_1Property.html" target="_top" xlink:title=" ">
<polygon fill="white" stroke="#666666" points="492,-350.5 352,-350.5 352,-320.5 492,-320.5 492,-350.5"/>
<text text-anchor="start" x="360" y="-338.5" font-family="Helvetica,sans-Serif" font-size="10.00">PBD::Property&lt; Transport</text>
<text text-anchor="middle" x="422" y="-327.5" font-family="Helvetica,sans-Serif" font-size="10.00">RequestType &gt;</text>
</a>
</g>
</g>
<!-- Node1&#45;&gt;Node10 -->
<g id="edge9_Node000001_Node000010" class="edge">
<title>Node1&#45;&gt;Node10</title>
<g id="a_edge9_Node000001_Node000010"><a xlink:title=" ">
<path fill="none" stroke="#63b8ff" d="M312.24,-323.35C325.53,-324.84 339.07,-326.35 351.88,-327.78"/>
<polygon fill="#63b8ff" stroke="#63b8ff" points="312.47,-319.86 302.14,-322.23 311.69,-326.81 312.47,-319.86"/>
</a>
</g>
</g>
<!-- Node11 -->
<g id="Node000011" class="node">
<title>Node11</title>
<g id="a_Node000011"><a xlink:href="classPBD_1_1Property.html" target="_top" xlink:title=" ">
<polygon fill="white" stroke="#666666" points="505,-302 339,-302 339,-283 505,-283 505,-302"/>
<text text-anchor="middle" x="422" y="-290" font-family="Helvetica,sans-Serif" font-size="10.00">PBD::Property&lt; LaunchStyle &gt;</text>
</a>
</g>
</g>
<!-- Node1&#45;&gt;Node11 -->
<g id="edge10_Node000001_Node000011" class="edge">
<title>Node1&#45;&gt;Node11</title>
<g id="a_edge10_Node000001_Node000011"><a xlink:title=" ">
<path fill="none" stroke="#63b8ff" d="M312.09,-304.11C320.96,-303.16 329.94,-302.21 338.75,-301.27"/>
<polygon fill="#63b8ff" stroke="#63b8ff" points="311.72,-300.63 302.14,-305.17 312.46,-307.59 311.72,-300.63"/>
</a>
</g>
</g>
<!-- Node12 -->
<g id="Node000012" class="node">
<title>Node12</title>
<g id="a_Node000012"><a xlink:href="classPBD_1_1Property.html" target="_top" xlink:title=" ">
<polygon fill="white" stroke="#666666" points="491,-264.5 353,-264.5 353,-234.5 491,-234.5 491,-264.5"/>
<text text-anchor="start" x="361" y="-252.5" font-family="Helvetica,sans-Serif" font-size="10.00">PBD::Property&lt; ARDOUR</text>
<text text-anchor="middle" x="422" y="-241.5" font-family="Helvetica,sans-Serif" font-size="10.00">::FollowAction &gt;</text>
</a>
</g>
</g>
<!-- Node1&#45;&gt;Node12 -->
<g id="edge11_Node000001_Node000012" class="edge">
<title>Node1&#45;&gt;Node12</title>
<g id="a_edge11_Node000001_Node000012"><a xlink:title=" ">
<path fill="none" stroke="#63b8ff" d="M259.56,-300.45C281.96,-292.37 311.55,-281.96 338,-273.5 347.43,-270.48 357.51,-267.43 367.29,-264.55"/>
<polygon fill="#63b8ff" stroke="#63b8ff" points="258.33,-297.17 250.12,-303.87 260.72,-303.75 258.33,-297.17"/>
</a>
</g>
</g>
<!-- Node13 -->
<g id="Node000013" class="node">
<title>Node13</title>
<g id="a_Node000013"><a xlink:href="classPBD_1_1Property.html" target="_top" xlink:title=" ">
<polygon fill="white" stroke="#666666" points="481.5,-216 362.5,-216 362.5,-197 481.5,-197 481.5,-216"/>
<text text-anchor="middle" x="422" y="-204" font-family="Helvetica,sans-Serif" font-size="10.00">PBD::Property&lt; int &gt;</text>
</a>
</g>
</g>
<!-- Node1&#45;&gt;Node13 -->
<g id="edge12_Node000001_Node000013" class="edge">
<title>Node1&#45;&gt;Node13</title>
<g id="a_edge12_Node000001_Node000013"><a xlink:title=" ">
<path fill="none" stroke="#63b8ff" d="M240.8,-296.66C261.74,-276.65 299.48,-243.69 338,-225.5 346.15,-221.65 355.13,-218.55 364.08,-216.08"/>
<polygon fill="#63b8ff" stroke="#63b8ff" points="238.11,-294.39 233.39,-303.88 242.99,-299.41 238.11,-294.39"/>
</a>
</g>
</g>
<!-- Node14 -->
<g id="Node000014" class="node">
<title>Node14</title>
<g id="a_Node000014"><a xlink:href="classPBD_1_1Property.html" target="_top" xlink:title=" ">
<polygon fill="white" stroke="#666666" points="495,-179 349,-179 349,-160 495,-160 495,-179"/>
<text text-anchor="middle" x="422" y="-167" font-family="Helvetica,sans-Serif" font-size="10.00">PBD::Property&lt; uint32_t &gt;</text>
</a>
</g>
</g>
<!-- Node1&#45;&gt;Node14 -->
<g id="edge13_Node000001_Node000014" class="edge">
<title>Node1&#45;&gt;Node14</title>
<g id="a_edge13_Node000001_Node000014"><a xlink:title=" ">
<path fill="none" stroke="#63b8ff" d="M235.28,-294.96C253.31,-267.01 291.4,-214.46 338,-187.5 343.87,-184.1 350.31,-181.35 356.93,-179.11"/>
<polygon fill="#63b8ff" stroke="#63b8ff" points="232.11,-293.42 229.75,-303.75 238.04,-297.14 232.11,-293.42"/>
</a>
</g>
</g>
<!-- Node15 -->
<g id="Node000015" class="node">
<title>Node15</title>
<g id="a_Node000015"><a xlink:href="classPBD_1_1Property.html" target="_top" xlink:title=" ">
<polygon fill="white" stroke="#666666" points="492,-141.5 352,-141.5 352,-111.5 492,-111.5 492,-141.5"/>
<text text-anchor="start" x="360" y="-129.5" font-family="Helvetica,sans-Serif" font-size="10.00">PBD::Property&lt; Temporal</text>
<text text-anchor="middle" x="422" y="-118.5" font-family="Helvetica,sans-Serif" font-size="10.00">::BBT_Offset &gt;</text>
</a>
</g>
</g>
<!-- Node1&#45;&gt;Node15 -->
<g id="edge14_Node000001_Node000015" class="edge">
<title>Node1&#45;&gt;Node15</title>
<g id="a_edge14_Node000001_Node000015"><a xlink:title=" ">
<path fill="none" stroke="#63b8ff" d="M232.11,-294.36C247.57,-260.21 284.55,-188.74 338,-150.5 342.76,-147.1 347.99,-144.17 353.45,-141.66"/>
<polygon fill="#63b8ff" stroke="#63b8ff" points="228.83,-293.13 228.01,-303.69 235.24,-295.94 228.83,-293.13"/>
</a>
</g>
</g>
<!-- Node16 -->
<g id="Node000016" class="node">
<title>Node16</title>
<g id="a_Node000016"><a xlink:href="classPBD_1_1Property.html" target="_top" xlink:title=" ">
<polygon fill="white" stroke="#666666" points="506,-93 338,-93 338,-74 506,-74 506,-93"/>
<text text-anchor="middle" x="422" y="-81" font-family="Helvetica,sans-Serif" font-size="10.00">PBD::Property&lt; StretchMode &gt;</text>
</a>
</g>
</g>
<!-- Node1&#45;&gt;Node16 -->
<g id="edge15_Node000001_Node000016" class="edge">
<title>Node1&#45;&gt;Node16</title>
<g id="a_edge15_Node000001_Node000016"><a xlink:title=" ">
<path fill="none" stroke="#63b8ff" d="M228.75,-293.78C239.98,-251.62 272.29,-152.48 338,-102.5 343.06,-98.65 348.76,-95.56 354.75,-93.08"/>
<polygon fill="#63b8ff" stroke="#63b8ff" points="225.32,-293.09 226.24,-303.64 232.1,-294.82 225.32,-293.09"/>
</a>
</g>
</g>
<!-- Node17 -->
<g id="Node000017" class="node">
<title>Node17</title>
<g id="a_Node000017"><a xlink:href="classPBD_1_1Property.html" target="_top" xlink:title=" ">
<polygon fill="white" stroke="#666666" points="492,-56 352,-56 352,-37 492,-37 492,-56"/>
<text text-anchor="middle" x="422" y="-44" font-family="Helvetica,sans-Serif" font-size="10.00">PBD::Property&lt; color_t &gt;</text>
</a>
</g>
</g>
<!-- Node1&#45;&gt;Node17 -->
<g id="edge16_Node000001_Node000017" class="edge">
<title>Node1&#45;&gt;Node17</title>
<g id="a_edge16_Node000001_Node000017"><a xlink:title=" ">
<path fill="none" stroke="#63b8ff" d="M226.94,-293.83C235.12,-246.37 262.72,-125.06 338,-64.5 342.14,-61.17 346.75,-58.43 351.63,-56.16"/>
<polygon fill="#63b8ff" stroke="#63b8ff" points="223.48,-293.32 225.33,-303.75 230.39,-294.44 223.48,-293.32"/>
</a>
</g>
</g>
<!-- Node18 -->
<g id="Node000018" class="node">
<title>Node18</title>
<g id="a_Node000018"><a xlink:href="classPBD_1_1Property.html" target="_top" xlink:title=" ">
<polygon fill="white" stroke="#666666" points="478.5,-19 365.5,-19 365.5,0 478.5,0 478.5,-19"/>
<text text-anchor="middle" x="422" y="-7" font-family="Helvetica,sans-Serif" font-size="10.00">PBD::Property&lt; T &gt;</text>
</a>
</g>
</g>
<!-- Node1&#45;&gt;Node18 -->
<g id="edge17_Node000001_Node000018" class="edge">
<title>Node1&#45;&gt;Node18</title>
<g id="a_edge17_Node000001_Node000018"><a xlink:title=" ">
<path fill="none" stroke="#63b8ff" d="M225.66,-293.8C231.18,-241.62 253.63,-98.93 338,-27.5 345.76,-20.93 355.37,-16.59 365.27,-13.76"/>
<polygon fill="#63b8ff" stroke="#63b8ff" points="222.18,-293.47 224.71,-303.76 229.15,-294.14 222.18,-293.47"/>
</a>
</g>
</g>
<!-- Node2 -->
<g id="Node000002" class="node">
<title>Node2</title>
<g id="a_Node000002"><a xlink:href="classPBD_1_1PropertyBase.html" target="_top" xlink:title=" ">
<polygon fill="white" stroke="#666666" points="108,-323 0,-323 0,-304 108,-304 108,-323"/>
<text text-anchor="middle" x="54" y="-311" font-family="Helvetica,sans-Serif" font-size="10.00">PBD::PropertyBase</text>
</a>
</g>
</g>
<!-- Node2&#45;&gt;Node1 -->
<g id="edge1_Node000001_Node000002" class="edge">
<title>Node2&#45;&gt;Node1</title>
<g id="a_edge1_Node000001_Node000002"><a xlink:title=" ">
<path fill="none" stroke="#63b8ff" d="M118.34,-313.5C126.71,-313.5 135.37,-313.5 143.95,-313.5"/>
<polygon fill="#63b8ff" stroke="#63b8ff" points="118.3,-310 108.3,-313.5 118.3,-317 118.3,-310"/>
</a>
</g>
</g>
<!-- Node19 -->
<g id="Node000019" class="node">
<title>Node19</title>
<g id="a_Node000019"><a xlink:href="classPBD_1_1EnumProperty.html" target="_top" xlink:title=" ">
<polygon fill="white" stroke="#666666" points="682,-19 542,-19 542,0 682,0 682,-19"/>
<text text-anchor="middle" x="612" y="-7" font-family="Helvetica,sans-Serif" font-size="10.00">PBD::EnumProperty&lt; T &gt;</text>
</a>
</g>
</g>
<!-- Node18&#45;&gt;Node19 -->
<g id="edge18_Node000018_Node000019" class="edge">
<title>Node18&#45;&gt;Node19</title>
<g id="a_edge18_Node000018_Node000019"><a xlink:title=" ">
<path fill="none" stroke="#63b8ff" d="M489.08,-9.5C506.16,-9.5 524.59,-9.5 541.83,-9.5"/>
<polygon fill="#63b8ff" stroke="#63b8ff" points="488.64,-6 478.64,-9.5 488.64,-13 488.64,-6"/>
</a>
</g>
</g>
</g>
</svg>

<g id="navigator" transform="translate(0 0)" fill="#404254">
  <rect fill="#f2f5e9" fill-opacity="0.5" stroke="#606060" stroke-width=".5" x="0" y="0" width="60" height="60"/>
  <use id="zoomplus" xlink:href="#zoomPlus" x="17" y="9" onmousedown="handleZoom(evt,'in')"/>
  <use id="zoomminus" xlink:href="#zoomMin" x="42" y="9" onmousedown="handleZoom(evt,'out')"/>
  <use id="reset" xlink:href="#resetDef" x="30" y="36" onmousedown="handleReset()"/>
   <use id="arrowup" xlink:href="#arrowUp" x="0" y="0" onmousedown="handlePan(0,-1)"/>
  <use id="arrowright" xlink:href="#arrowRight" x="0" y="0" onmousedown="handlePan(1,0)"/>
  <use id="arrowdown" xlink:href="#arrowDown" x="0" y="0" onmousedown="handlePan(0,1)"/>
  <use id="arrowleft" xlink:href="#arrowLeft" x="0" y="0" onmousedown="handlePan(-1,0)"/>
</g>
<svg viewBox="0 0 15 15" width="100%" height="30px" preserveAspectRatio="xMaxYMin meet">
 <g id="arrow_out" transform="scale(0.3 0.3)">
  <a xlink:href="classPBD_1_1PropertyTemplate__inherit__graph_org.svg" target="_base">
   <rect id="button" ry="5" rx="5" y="6" x="6" height="38" width="38"
        fill="#f2f5e9" fill-opacity="0.5" stroke="#606060" stroke-width="1.0"/>
   <path id="arrow"
     d="M 11.500037,31.436501 C 11.940474,20.09759 22.043105,11.32322 32.158766,21.979434 L 37.068811,17.246167 C 37.068811,17.246167 37.088388,32 37.088388,32 L 22.160133,31.978069 C 22.160133,31.978069 26.997745,27.140456 26.997745,27.140456 C 18.528582,18.264221 13.291696,25.230495 11.500037,31.436501 z"
     style="fill:#404040;"/>
  </a>
 </g>
</svg>

<style type='text/css'>
<![CDATA[
[data-mouse-over-selected='false'] { opacity: 0.7; }
[data-mouse-over-selected='true']  { opacity: 1.0; }
]]>
</style>
<script type="application/ecmascript"><![CDATA[
document.addEventListener('DOMContentLoaded', (event) => {
  highlightEdges();
  highlightAdjacentNodes();
});
]]></script>
</svg>
