<?xml version="1.0" encoding="UTF-8" standalone="no"?>
<!DOCTYPE svg PUBLIC "-//W3C//DTD SVG 1.1//EN"
 "http://www.w3.org/Graphics/SVG/1.1/DTD/svg11.dtd">
<!-- Generated by graphviz version 2.43.0 (0)
 -->
<!-- Title: ArdourSurface::FP8::FaderPort8 Pages: 1 -->
<svg width="652pt" height="158pt"
 viewBox="0.00 0.00 652.00 157.50" xmlns="http://www.w3.org/2000/svg" xmlns:xlink="http://www.w3.org/1999/xlink">
<g id="graph0" class="graph" transform="scale(1 1) rotate(0) translate(4 153.5)">
<title>ArdourSurface::FP8::FaderPort8</title>
<!-- Node1 -->
<g id="Node000001" class="node">
<title>Node1</title>
<g id="a_Node000001"><a xlink:title=" ">
<polygon fill="#999999" stroke="#666666" points="644,-106.5 534,-106.5 534,-76.5 644,-76.5 644,-106.5"/>
<text text-anchor="start" x="542" y="-94.5" font-family="Helvetica,sans-Serif" font-size="10.00">ArdourSurface::FP8</text>
<text text-anchor="middle" x="589" y="-83.5" font-family="Helvetica,sans-Serif" font-size="10.00">::FaderPort8</text>
</a>
</g>
</g>
<!-- Node2 -->
<g id="Node000002" class="node">
<title>Node2</title>
<g id="a_Node000002"><a xlink:href="classArdourSurface_1_1FP8_1_1FP8Base.html" target="_top" xlink:title=" ">
<polygon fill="white" stroke="#666666" points="462,-149.5 352,-149.5 352,-119.5 462,-119.5 462,-149.5"/>
<text text-anchor="start" x="360" y="-137.5" font-family="Helvetica,sans-Serif" font-size="10.00">ArdourSurface::FP8</text>
<text text-anchor="middle" x="407" y="-126.5" font-family="Helvetica,sans-Serif" font-size="10.00">::FP8Base</text>
</a>
</g>
</g>
<!-- Node2&#45;&gt;Node1 -->
<g id="edge1_Node000001_Node000002" class="edge">
<title>Node2&#45;&gt;Node1</title>
<g id="a_edge1_Node000001_Node000002"><a xlink:title=" ">
<path fill="none" stroke="#63b8ff" d="M471.77,-119.27C492.02,-114.43 514.21,-109.13 533.72,-104.47"/>
<polygon fill="#63b8ff" stroke="#63b8ff" points="470.92,-115.87 462.01,-121.6 472.55,-122.68 470.92,-115.87"/>
</a>
</g>
</g>
<!-- Node3 -->
<g id="Node000003" class="node">
<title>Node3</title>
<g id="a_Node000003"><a xlink:href="classARDOUR_1_1ControlProtocol.html" target="_top" xlink:title=" ">
<polygon fill="white" stroke="#666666" points="477,-101 337,-101 337,-82 477,-82 477,-101"/>
<text text-anchor="middle" x="407" y="-89" font-family="Helvetica,sans-Serif" font-size="10.00">ARDOUR::ControlProtocol</text>
</a>
</g>
</g>
<!-- Node3&#45;&gt;Node1 -->
<g id="edge2_Node000001_Node000003" class="edge">
<title>Node3&#45;&gt;Node1</title>
<g id="a_edge2_Node000001_Node000003"><a xlink:title=" ">
<path fill="none" stroke="#63b8ff" d="M487.34,-91.5C503.08,-91.5 519.26,-91.5 533.92,-91.5"/>
<polygon fill="#63b8ff" stroke="#63b8ff" points="487.08,-88 477.08,-91.5 487.08,-95 487.08,-88"/>
</a>
</g>
</g>
<!-- Node4 -->
<g id="Node000004" class="node">
<title>Node4</title>
<g id="a_Node000004"><a xlink:href="classPBD_1_1Stateful.html" target="_top" xlink:title=" ">
<polygon fill="white" stroke="#666666" points="245.5,-148 164.5,-148 164.5,-129 245.5,-129 245.5,-148"/>
<text text-anchor="middle" x="205" y="-136" font-family="Helvetica,sans-Serif" font-size="10.00">PBD::Stateful</text>
</a>
</g>
</g>
<!-- Node4&#45;&gt;Node3 -->
<g id="edge3_Node000003_Node000004" class="edge">
<title>Node4&#45;&gt;Node3</title>
<g id="a_edge3_Node000003_Node000004"><a xlink:title=" ">
<path fill="none" stroke="#63b8ff" d="M255.47,-126.7C263.68,-124.68 272.09,-122.56 280,-120.5 296.07,-116.31 299.87,-114.44 316,-110.5 329.65,-107.17 344.55,-103.88 358.23,-101"/>
<polygon fill="#63b8ff" stroke="#63b8ff" points="254.5,-123.34 245.62,-129.11 256.16,-130.14 254.5,-123.34"/>
</a>
</g>
</g>
<!-- Node5 -->
<g id="Node000005" class="node">
<title>Node5</title>
<g id="a_Node000005"><a xlink:href="classPBD_1_1ScopedConnectionList.html" target="_top" xlink:title=" ">
<polygon fill="white" stroke="#666666" points="280,-111 130,-111 130,-92 280,-92 280,-111"/>
<text text-anchor="middle" x="205" y="-99" font-family="Helvetica,sans-Serif" font-size="10.00">PBD::ScopedConnectionList</text>
</a>
</g>
</g>
<!-- Node5&#45;&gt;Node3 -->
<g id="edge4_Node000003_Node000005" class="edge">
<title>Node5&#45;&gt;Node3</title>
<g id="a_edge4_Node000003_Node000005"><a xlink:title=" ">
<path fill="none" stroke="#63b8ff" d="M290.3,-97.28C305.83,-96.51 321.88,-95.71 336.9,-94.96"/>
<polygon fill="#63b8ff" stroke="#63b8ff" points="290,-93.8 280.19,-97.79 290.35,-100.79 290,-93.8"/>
</a>
</g>
</g>
<!-- Node6 -->
<g id="Node000006" class="node">
<title>Node6</title>
<g id="a_Node000006"><a xlink:href="classBasicUI.html" target="_top" xlink:title=" ">
<polygon fill="white" stroke="#666666" points="231.5,-74 178.5,-74 178.5,-55 231.5,-55 231.5,-74"/>
<text text-anchor="middle" x="205" y="-62" font-family="Helvetica,sans-Serif" font-size="10.00">BasicUI</text>
</a>
</g>
</g>
<!-- Node6&#45;&gt;Node3 -->
<g id="edge5_Node000003_Node000006" class="edge">
<title>Node6&#45;&gt;Node3</title>
<g id="a_edge5_Node000003_Node000006"><a xlink:title=" ">
<path fill="none" stroke="#63b8ff" d="M241.67,-69.32C268.07,-72.88 304.87,-77.85 336.96,-82.18"/>
<polygon fill="#63b8ff" stroke="#63b8ff" points="242.12,-65.84 231.74,-67.97 241.18,-72.78 242.12,-65.84"/>
</a>
</g>
</g>
<!-- Node7 -->
<g id="Node000007" class="node">
<title>Node7</title>
<g id="a_Node000007"><a xlink:href="classAbstractUI.html" target="_top" xlink:title=" ">
<polygon fill="white" stroke="#666666" points="498,-55 316,-55 316,-36 498,-36 498,-55"/>
<text text-anchor="middle" x="407" y="-43" font-family="Helvetica,sans-Serif" font-size="10.00">AbstractUI&lt; FaderPort8Request &gt;</text>
</a>
</g>
</g>
<!-- Node7&#45;&gt;Node1 -->
<g id="edge6_Node000001_Node000007" class="edge">
<title>Node7&#45;&gt;Node1</title>
<g id="a_edge6_Node000001_Node000007"><a xlink:title=" ">
<path fill="none" stroke="#63b8ff" d="M455.25,-57.58C479.31,-63.72 508.68,-71.23 533.67,-77.62"/>
<polygon fill="#63b8ff" stroke="#63b8ff" points="455.85,-54.12 445.3,-55.03 454.12,-60.9 455.85,-54.12"/>
</a>
</g>
</g>
<!-- Node8 -->
<g id="Node000008" class="node">
<title>Node8</title>
<g id="a_Node000008"><a xlink:href="classBaseUI.html" target="_top" xlink:title=" ">
<polygon fill="white" stroke="#666666" points="230.5,-37 179.5,-37 179.5,-18 230.5,-18 230.5,-37"/>
<text text-anchor="middle" x="205" y="-25" font-family="Helvetica,sans-Serif" font-size="10.00">BaseUI</text>
</a>
</g>
</g>
<!-- Node8&#45;&gt;Node7 -->
<g id="edge7_Node000007_Node000008" class="edge">
<title>Node8&#45;&gt;Node7</title>
<g id="a_edge7_Node000007_Node000008"><a xlink:title=" ">
<path fill="none" stroke="#63b8ff" d="M240.5,-30.6C261.41,-32.49 289.14,-34.98 315.91,-37.39"/>
<polygon fill="#63b8ff" stroke="#63b8ff" points="240.8,-27.12 230.52,-29.71 240.17,-34.09 240.8,-27.12"/>
</a>
</g>
</g>
<!-- Node9 -->
<g id="Node000009" class="node">
<title>Node9</title>
<g id="a_Node000009"><a xlink:title=" ">
<polygon fill="white" stroke="#666666" points="90.5,-56 3.5,-56 3.5,-37 90.5,-37 90.5,-56"/>
<text text-anchor="middle" x="47" y="-44" font-family="Helvetica,sans-Serif" font-size="10.00">sigc::trackable</text>
</a>
</g>
</g>
<!-- Node9&#45;&gt;Node8 -->
<g id="edge8_Node000008_Node000009" class="edge">
<title>Node9&#45;&gt;Node8</title>
<g id="a_edge8_Node000008_Node000009"><a xlink:title=" ">
<path fill="none" stroke="#63b8ff" d="M100.59,-40.09C127.24,-36.85 158.33,-33.06 179.41,-30.49"/>
<polygon fill="#63b8ff" stroke="#63b8ff" points="100.13,-36.62 90.63,-41.31 100.98,-43.57 100.13,-36.62"/>
</a>
</g>
</g>
<!-- Node10 -->
<g id="Node000010" class="node">
<title>Node10</title>
<g id="a_Node000010"><a xlink:href="classPBD_1_1EventLoop.html" target="_top" xlink:title=" ">
<polygon fill="white" stroke="#666666" points="94,-19 0,-19 0,0 94,0 94,-19"/>
<text text-anchor="middle" x="47" y="-7" font-family="Helvetica,sans-Serif" font-size="10.00">PBD::EventLoop</text>
</a>
</g>
</g>
<!-- Node10&#45;&gt;Node8 -->
<g id="edge9_Node000008_Node000010" class="edge">
<title>Node10&#45;&gt;Node8</title>
<g id="a_edge9_Node000008_Node000010"><a xlink:title=" ">
<path fill="none" stroke="#63b8ff" d="M104.41,-16.01C130.11,-18.97 159.2,-22.33 179.28,-24.65"/>
<polygon fill="#63b8ff" stroke="#63b8ff" points="104.72,-12.52 94.38,-14.85 103.92,-19.48 104.72,-12.52"/>
</a>
</g>
</g>
</g>
</svg>
