<?xml version="1.0" encoding="UTF-8" standalone="no"?>
<!DOCTYPE svg PUBLIC "-//W3C//DTD SVG 1.1//EN"
 "http://www.w3.org/Graphics/SVG/1.1/DTD/svg11.dtd">
<!-- Generated by graphviz version 2.43.0 (0)
 -->
<!-- Title: About Pages: 1 -->
<svg width="278pt" height="467pt"
 viewBox="0.00 0.00 277.50 467.00" xmlns="http://www.w3.org/2000/svg" xmlns:xlink="http://www.w3.org/1999/xlink">
<g id="graph0" class="graph" transform="scale(1 1) rotate(0) translate(4 463)">
<title>About</title>
<!-- Node1 -->
<g id="Node000001" class="node">
<title>Node1</title>
<g id="a_Node000001"><a xlink:title=" ">
<polygon fill="#999999" stroke="#666666" points="144.5,-19 99.5,-19 99.5,0 144.5,0 144.5,-19"/>
<text text-anchor="middle" x="122" y="-7" font-family="Helvetica,sans-Serif" font-size="10.00">About</text>
</a>
</g>
</g>
<!-- Node2 -->
<g id="Node000002" class="node">
<title>Node2</title>
<g id="a_Node000002"><a xlink:href="classGtk_1_1AboutDialog.html" target="_top" xlink:title=" ">
<polygon fill="white" stroke="#666666" points="100,-74 0,-74 0,-55 100,-55 100,-74"/>
<text text-anchor="middle" x="50" y="-62" font-family="Helvetica,sans-Serif" font-size="10.00">Gtk::AboutDialog</text>
</a>
</g>
</g>
<!-- Node2&#45;&gt;Node1 -->
<g id="edge1_Node000001_Node000002" class="edge">
<title>Node2&#45;&gt;Node1</title>
<g id="a_edge1_Node000001_Node000002"><a xlink:title=" ">
<path fill="none" stroke="#63b8ff" d="M69.87,-48.88C82.82,-39.34 99.3,-27.21 110.22,-19.17"/>
<polygon fill="#63b8ff" stroke="#63b8ff" points="67.55,-46.24 61.57,-54.98 71.7,-51.88 67.55,-46.24"/>
</a>
</g>
</g>
<!-- Node3 -->
<g id="Node000003" class="node">
<title>Node3</title>
<g id="a_Node000003"><a xlink:href="classGtk_1_1Dialog.html" target="_top" xlink:title=" ">
<polygon fill="white" stroke="#666666" points="85.5,-129 14.5,-129 14.5,-110 85.5,-110 85.5,-129"/>
<text text-anchor="middle" x="50" y="-117" font-family="Helvetica,sans-Serif" font-size="10.00">Gtk::Dialog</text>
</a>
</g>
</g>
<!-- Node3&#45;&gt;Node2 -->
<g id="edge2_Node000002_Node000003" class="edge">
<title>Node3&#45;&gt;Node2</title>
<g id="a_edge2_Node000002_Node000003"><a xlink:title=" ">
<path fill="none" stroke="#63b8ff" d="M50,-99.66C50,-90.93 50,-80.99 50,-74.09"/>
<polygon fill="#63b8ff" stroke="#63b8ff" points="46.5,-99.75 50,-109.75 53.5,-99.75 46.5,-99.75"/>
</a>
</g>
</g>
<!-- Node4 -->
<g id="Node000004" class="node">
<title>Node4</title>
<g id="a_Node000004"><a xlink:href="classGtk_1_1Window.html" target="_top" xlink:title=" ">
<polygon fill="white" stroke="#666666" points="89.5,-184 10.5,-184 10.5,-165 89.5,-165 89.5,-184"/>
<text text-anchor="middle" x="50" y="-172" font-family="Helvetica,sans-Serif" font-size="10.00">Gtk::Window</text>
</a>
</g>
</g>
<!-- Node4&#45;&gt;Node3 -->
<g id="edge3_Node000003_Node000004" class="edge">
<title>Node4&#45;&gt;Node3</title>
<g id="a_edge3_Node000003_Node000004"><a xlink:title=" ">
<path fill="none" stroke="#63b8ff" d="M50,-154.66C50,-145.93 50,-135.99 50,-129.09"/>
<polygon fill="#63b8ff" stroke="#63b8ff" points="46.5,-154.75 50,-164.75 53.5,-154.75 46.5,-154.75"/>
</a>
</g>
</g>
<!-- Node5 -->
<g id="Node000005" class="node">
<title>Node5</title>
<g id="a_Node000005"><a xlink:href="classGtk_1_1Bin.html" target="_top" xlink:title=" ">
<polygon fill="white" stroke="#666666" points="78,-239 22,-239 22,-220 78,-220 78,-239"/>
<text text-anchor="middle" x="50" y="-227" font-family="Helvetica,sans-Serif" font-size="10.00">Gtk::Bin</text>
</a>
</g>
</g>
<!-- Node5&#45;&gt;Node4 -->
<g id="edge4_Node000004_Node000005" class="edge">
<title>Node5&#45;&gt;Node4</title>
<g id="a_edge4_Node000004_Node000005"><a xlink:title=" ">
<path fill="none" stroke="#63b8ff" d="M50,-209.66C50,-200.93 50,-190.99 50,-184.09"/>
<polygon fill="#63b8ff" stroke="#63b8ff" points="46.5,-209.75 50,-219.75 53.5,-209.75 46.5,-209.75"/>
</a>
</g>
</g>
<!-- Node6 -->
<g id="Node000006" class="node">
<title>Node6</title>
<g id="a_Node000006"><a xlink:href="classGtk_1_1Container.html" target="_top" xlink:title=" ">
<polygon fill="white" stroke="#666666" points="93.5,-294 6.5,-294 6.5,-275 93.5,-275 93.5,-294"/>
<text text-anchor="middle" x="50" y="-282" font-family="Helvetica,sans-Serif" font-size="10.00">Gtk::Container</text>
</a>
</g>
</g>
<!-- Node6&#45;&gt;Node5 -->
<g id="edge5_Node000005_Node000006" class="edge">
<title>Node6&#45;&gt;Node5</title>
<g id="a_edge5_Node000005_Node000006"><a xlink:title=" ">
<path fill="none" stroke="#63b8ff" d="M50,-264.66C50,-255.93 50,-245.99 50,-239.09"/>
<polygon fill="#63b8ff" stroke="#63b8ff" points="46.5,-264.75 50,-274.75 53.5,-264.75 46.5,-264.75"/>
</a>
</g>
</g>
<!-- Node7 -->
<g id="Node000007" class="node">
<title>Node7</title>
<g id="a_Node000007"><a xlink:href="classGtk_1_1Widget.html" target="_top" xlink:title=" ">
<polygon fill="white" stroke="#666666" points="87,-349 13,-349 13,-330 87,-330 87,-349"/>
<text text-anchor="middle" x="50" y="-337" font-family="Helvetica,sans-Serif" font-size="10.00">Gtk::Widget</text>
</a>
</g>
</g>
<!-- Node7&#45;&gt;Node6 -->
<g id="edge6_Node000006_Node000007" class="edge">
<title>Node7&#45;&gt;Node6</title>
<g id="a_edge6_Node000006_Node000007"><a xlink:title=" ">
<path fill="none" stroke="#63b8ff" d="M50,-319.66C50,-310.93 50,-300.99 50,-294.09"/>
<polygon fill="#63b8ff" stroke="#63b8ff" points="46.5,-319.75 50,-329.75 53.5,-319.75 46.5,-319.75"/>
</a>
</g>
</g>
<!-- Node8 -->
<g id="Node000008" class="node">
<title>Node8</title>
<g id="a_Node000008"><a xlink:href="classGtk_1_1Object.html" target="_top" xlink:title=" ">
<polygon fill="white" stroke="#666666" points="85.5,-404 14.5,-404 14.5,-385 85.5,-385 85.5,-404"/>
<text text-anchor="middle" x="50" y="-392" font-family="Helvetica,sans-Serif" font-size="10.00">Gtk::Object</text>
</a>
</g>
</g>
<!-- Node8&#45;&gt;Node7 -->
<g id="edge7_Node000007_Node000008" class="edge">
<title>Node8&#45;&gt;Node7</title>
<g id="a_edge7_Node000007_Node000008"><a xlink:title=" ">
<path fill="none" stroke="#63b8ff" d="M50,-374.66C50,-365.93 50,-355.99 50,-349.09"/>
<polygon fill="#63b8ff" stroke="#63b8ff" points="46.5,-374.75 50,-384.75 53.5,-374.75 46.5,-374.75"/>
</a>
</g>
</g>
<!-- Node9 -->
<g id="Node000009" class="node">
<title>Node9</title>
<g id="a_Node000009"><a xlink:title=" ">
<polygon fill="white" stroke="#666666" points="87,-459 13,-459 13,-440 87,-440 87,-459"/>
<text text-anchor="middle" x="50" y="-447" font-family="Helvetica,sans-Serif" font-size="10.00">Glib::Object</text>
</a>
</g>
</g>
<!-- Node9&#45;&gt;Node8 -->
<g id="edge8_Node000008_Node000009" class="edge">
<title>Node9&#45;&gt;Node8</title>
<g id="a_edge8_Node000008_Node000009"><a xlink:title=" ">
<path fill="none" stroke="#63b8ff" d="M50,-429.66C50,-420.93 50,-410.99 50,-404.09"/>
<polygon fill="#63b8ff" stroke="#63b8ff" points="46.5,-429.75 50,-439.75 53.5,-429.75 46.5,-429.75"/>
</a>
</g>
</g>
<!-- Node10 -->
<g id="Node000010" class="node">
<title>Node10</title>
<g id="a_Node000010"><a xlink:href="classARDOUR_1_1SessionHandlePtr.html" target="_top" xlink:title=" ">
<polygon fill="white" stroke="#666666" points="269.5,-74 118.5,-74 118.5,-55 269.5,-55 269.5,-74"/>
<text text-anchor="middle" x="194" y="-62" font-family="Helvetica,sans-Serif" font-size="10.00">ARDOUR::SessionHandlePtr</text>
</a>
</g>
</g>
<!-- Node10&#45;&gt;Node1 -->
<g id="edge9_Node000001_Node000010" class="edge">
<title>Node10&#45;&gt;Node1</title>
<g id="a_edge9_Node000001_Node000010"><a xlink:title=" ">
<path fill="none" stroke="#63b8ff" d="M174.13,-48.88C161.18,-39.34 144.7,-27.21 133.78,-19.17"/>
<polygon fill="#63b8ff" stroke="#63b8ff" points="172.3,-51.88 182.43,-54.98 176.45,-46.24 172.3,-51.88"/>
</a>
</g>
</g>
</g>
</svg>
