<?xml version="1.0" encoding="UTF-8" standalone="no"?>
<!DOCTYPE svg PUBLIC "-//W3C//DTD SVG 1.1//EN"
 "http://www.w3.org/Graphics/SVG/1.1/DTD/svg11.dtd">
<!-- Generated by graphviz version 2.43.0 (0)
 -->
<!-- Title: ARDOUR::HasCodecQuality Pages: 1 -->
<svg width="374pt" height="138pt"
 viewBox="0.00 0.00 374.00 138.00" xmlns="http://www.w3.org/2000/svg" xmlns:xlink="http://www.w3.org/1999/xlink">
<g id="graph0" class="graph" transform="scale(1 1) rotate(0) translate(4 134)">
<title>ARDOUR::HasCodecQuality</title>
<!-- Node1 -->
<g id="Node000001" class="node">
<title>Node1</title>
<g id="a_Node000001"><a xlink:title=" ">
<polygon fill="#999999" stroke="#666666" points="149,-74 0,-74 0,-55 149,-55 149,-74"/>
<text text-anchor="middle" x="74.5" y="-62" font-family="Helvetica,sans-Serif" font-size="10.00">ARDOUR::HasCodecQuality</text>
</a>
</g>
</g>
<!-- Node2 -->
<g id="Node000002" class="node">
<title>Node2</title>
<g id="a_Node000002"><a xlink:href="classARDOUR_1_1ExportFormatFFMPEG.html" target="_top" xlink:title=" ">
<polygon fill="white" stroke="#666666" points="361.5,-130 189.5,-130 189.5,-111 361.5,-111 361.5,-130"/>
<text text-anchor="middle" x="275.5" y="-118" font-family="Helvetica,sans-Serif" font-size="10.00">ARDOUR::ExportFormatFFMPEG</text>
</a>
</g>
</g>
<!-- Node1&#45;&gt;Node2 -->
<g id="edge1_Node000001_Node000002" class="edge">
<title>Node1&#45;&gt;Node2</title>
<g id="a_edge1_Node000001_Node000002"><a xlink:title=" ">
<path fill="none" stroke="#63b8ff" d="M109.61,-77.68C131.03,-85.61 159.36,-95.51 185,-102.5 196.47,-105.63 208.9,-108.47 220.74,-110.92"/>
<polygon fill="#63b8ff" stroke="#63b8ff" points="110.58,-74.3 99.99,-74.07 108.12,-80.86 110.58,-74.3"/>
</a>
</g>
</g>
<!-- Node3 -->
<g id="Node000003" class="node">
<title>Node3</title>
<g id="a_Node000003"><a xlink:href="classARDOUR_1_1ExportFormatMPEG.html" target="_top" xlink:title=" ">
<polygon fill="white" stroke="#666666" points="355.5,-93 195.5,-93 195.5,-74 355.5,-74 355.5,-93"/>
<text text-anchor="middle" x="275.5" y="-81" font-family="Helvetica,sans-Serif" font-size="10.00">ARDOUR::ExportFormatMPEG</text>
</a>
</g>
</g>
<!-- Node1&#45;&gt;Node3 -->
<g id="edge2_Node000001_Node000003" class="edge">
<title>Node1&#45;&gt;Node3</title>
<g id="a_edge2_Node000001_Node000003"><a xlink:title=" ">
<path fill="none" stroke="#63b8ff" d="M159.02,-72.47C171.02,-73.62 183.34,-74.8 195.25,-75.93"/>
<polygon fill="#63b8ff" stroke="#63b8ff" points="159.32,-68.99 149.03,-71.52 158.66,-75.96 159.32,-68.99"/>
</a>
</g>
</g>
<!-- Node4 -->
<g id="Node000004" class="node">
<title>Node4</title>
<g id="a_Node000004"><a xlink:href="classARDOUR_1_1ExportFormatOggOpus.html" target="_top" xlink:title=" ">
<polygon fill="white" stroke="#666666" points="363.5,-56 187.5,-56 187.5,-37 363.5,-37 363.5,-56"/>
<text text-anchor="middle" x="275.5" y="-44" font-family="Helvetica,sans-Serif" font-size="10.00">ARDOUR::ExportFormatOggOpus</text>
</a>
</g>
</g>
<!-- Node1&#45;&gt;Node4 -->
<g id="edge3_Node000001_Node000004" class="edge">
<title>Node1&#45;&gt;Node4</title>
<g id="a_edge3_Node000001_Node000004"><a xlink:title=" ">
<path fill="none" stroke="#63b8ff" d="M159.11,-56.94C168.49,-56.09 178.05,-55.22 187.47,-54.37"/>
<polygon fill="#63b8ff" stroke="#63b8ff" points="158.68,-53.46 149.03,-57.85 159.31,-60.43 158.68,-53.46"/>
</a>
</g>
</g>
<!-- Node5 -->
<g id="Node000005" class="node">
<title>Node5</title>
<g id="a_Node000005"><a xlink:href="classARDOUR_1_1ExportFormatOggVorbis.html" target="_top" xlink:title=" ">
<polygon fill="white" stroke="#666666" points="366,-19 185,-19 185,0 366,0 366,-19"/>
<text text-anchor="middle" x="275.5" y="-7" font-family="Helvetica,sans-Serif" font-size="10.00">ARDOUR::ExportFormatOggVorbis</text>
</a>
</g>
</g>
<!-- Node1&#45;&gt;Node5 -->
<g id="edge4_Node000001_Node000005" class="edge">
<title>Node1&#45;&gt;Node5</title>
<g id="a_edge4_Node000001_Node000005"><a xlink:title=" ">
<path fill="none" stroke="#63b8ff" d="M111.39,-51.61C132.62,-44.26 160.15,-35.2 185,-28.5 197.88,-25.03 211.95,-21.79 225.03,-19"/>
<polygon fill="#63b8ff" stroke="#63b8ff" points="110.09,-48.36 101.81,-54.96 112.4,-54.96 110.09,-48.36"/>
</a>
</g>
</g>
</g>
</svg>
