<?xml version="1.0" encoding="UTF-8" standalone="no"?>
<!DOCTYPE svg PUBLIC "-//W3C//DTD SVG 1.1//EN"
 "http://www.w3.org/Graphics/SVG/1.1/DTD/svg11.dtd">
<!-- Generated by graphviz version 2.43.0 (0)
 -->
<!-- Title: ArdourSurface::FP8::FP8ButtonBase Pages: 1 -->
<svg width="591pt" height="158pt"
 viewBox="0.00 0.00 591.00 158.00" xmlns="http://www.w3.org/2000/svg" xmlns:xlink="http://www.w3.org/1999/xlink">
<g id="graph0" class="graph" transform="scale(1 1) rotate(0) translate(4 154)">
<title>ArdourSurface::FP8::FP8ButtonBase</title>
<!-- Node1 -->
<g id="Node000001" class="node">
<title>Node1</title>
<g id="a_Node000001"><a xlink:title=" ">
<polygon fill="#999999" stroke="#666666" points="262,-78 152,-78 152,-48 262,-48 262,-78"/>
<text text-anchor="start" x="160" y="-66" font-family="Helvetica,sans-Serif" font-size="10.00">ArdourSurface::FP8</text>
<text text-anchor="middle" x="207" y="-55" font-family="Helvetica,sans-Serif" font-size="10.00">::FP8ButtonBase</text>
</a>
</g>
</g>
<!-- Node3 -->
<g id="Node000003" class="node">
<title>Node3</title>
<g id="a_Node000003"><a xlink:href="classArdourSurface_1_1FP8_1_1FP8Button.html" target="_top" xlink:title=" ">
<polygon fill="white" stroke="#666666" points="417.5,-126 307.5,-126 307.5,-96 417.5,-96 417.5,-126"/>
<text text-anchor="start" x="315.5" y="-114" font-family="Helvetica,sans-Serif" font-size="10.00">ArdourSurface::FP8</text>
<text text-anchor="middle" x="362.5" y="-103" font-family="Helvetica,sans-Serif" font-size="10.00">::FP8Button</text>
</a>
</g>
</g>
<!-- Node1&#45;&gt;Node3 -->
<g id="edge2_Node000001_Node000003" class="edge">
<title>Node1&#45;&gt;Node3</title>
<g id="a_edge2_Node000001_Node000003"><a xlink:title=" ">
<path fill="none" stroke="#63b8ff" d="M265.78,-81.07C281.52,-85.99 298.39,-91.27 313.52,-96"/>
<polygon fill="#63b8ff" stroke="#63b8ff" points="266.74,-77.7 256.15,-78.06 264.65,-84.38 266.74,-77.7"/>
</a>
</g>
</g>
<!-- Node6 -->
<g id="Node000006" class="node">
<title>Node6</title>
<g id="a_Node000006"><a xlink:href="classArdourSurface_1_1FP8_1_1FP8MomentaryButton.html" target="_top" xlink:title=" ">
<polygon fill="white" stroke="#666666" points="427,-78 298,-78 298,-48 427,-48 427,-78"/>
<text text-anchor="start" x="306" y="-66" font-family="Helvetica,sans-Serif" font-size="10.00">ArdourSurface::FP8</text>
<text text-anchor="middle" x="362.5" y="-55" font-family="Helvetica,sans-Serif" font-size="10.00">::FP8MomentaryButton</text>
</a>
</g>
</g>
<!-- Node1&#45;&gt;Node6 -->
<g id="edge5_Node000001_Node000006" class="edge">
<title>Node1&#45;&gt;Node6</title>
<g id="a_edge5_Node000001_Node000006"><a xlink:title=" ">
<path fill="none" stroke="#63b8ff" d="M272.31,-63C280.77,-63 289.44,-63 297.89,-63"/>
<polygon fill="#63b8ff" stroke="#63b8ff" points="272.12,-59.5 262.12,-63 272.12,-66.5 272.12,-59.5"/>
</a>
</g>
</g>
<!-- Node7 -->
<g id="Node000007" class="node">
<title>Node7</title>
<g id="a_Node000007"><a xlink:href="classArdourSurface_1_1FP8_1_1ShadowButton.html" target="_top" xlink:title=" ">
<polygon fill="white" stroke="#666666" points="417.5,-30 307.5,-30 307.5,0 417.5,0 417.5,-30"/>
<text text-anchor="start" x="315.5" y="-18" font-family="Helvetica,sans-Serif" font-size="10.00">ArdourSurface::FP8</text>
<text text-anchor="middle" x="362.5" y="-7" font-family="Helvetica,sans-Serif" font-size="10.00">::ShadowButton</text>
</a>
</g>
</g>
<!-- Node1&#45;&gt;Node7 -->
<g id="edge6_Node000001_Node000007" class="edge">
<title>Node1&#45;&gt;Node7</title>
<g id="a_edge6_Node000001_Node000007"><a xlink:title=" ">
<path fill="none" stroke="#63b8ff" d="M265.78,-44.93C281.52,-40.01 298.39,-34.73 313.52,-30"/>
<polygon fill="#63b8ff" stroke="#63b8ff" points="264.65,-41.62 256.15,-47.94 266.74,-48.3 264.65,-41.62"/>
</a>
</g>
</g>
<!-- Node2 -->
<g id="Node000002" class="node">
<title>Node2</title>
<g id="a_Node000002"><a xlink:href="classArdourSurface_1_1FP8_1_1FP8ButtonInterface.html" target="_top" xlink:title=" ">
<polygon fill="white" stroke="#666666" points="116,-78 0,-78 0,-48 116,-48 116,-78"/>
<text text-anchor="start" x="8" y="-66" font-family="Helvetica,sans-Serif" font-size="10.00">ArdourSurface::FP8</text>
<text text-anchor="middle" x="58" y="-55" font-family="Helvetica,sans-Serif" font-size="10.00">::FP8ButtonInterface</text>
</a>
</g>
</g>
<!-- Node2&#45;&gt;Node1 -->
<g id="edge1_Node000001_Node000002" class="edge">
<title>Node2&#45;&gt;Node1</title>
<g id="a_edge1_Node000001_Node000002"><a xlink:title=" ">
<path fill="none" stroke="#63b8ff" d="M126.43,-63C134.85,-63 143.37,-63 151.55,-63"/>
<polygon fill="#63b8ff" stroke="#63b8ff" points="126.25,-59.5 116.25,-63 126.25,-66.5 126.25,-59.5"/>
</a>
</g>
</g>
<!-- Node4 -->
<g id="Node000004" class="node">
<title>Node4</title>
<g id="a_Node000004"><a xlink:href="classArdourSurface_1_1FP8_1_1FP8ReadOnlyButton.html" target="_top" xlink:title=" ">
<polygon fill="white" stroke="#666666" points="583,-150 463,-150 463,-120 583,-120 583,-150"/>
<text text-anchor="start" x="471" y="-138" font-family="Helvetica,sans-Serif" font-size="10.00">ArdourSurface::FP8</text>
<text text-anchor="middle" x="523" y="-127" font-family="Helvetica,sans-Serif" font-size="10.00">::FP8ReadOnlyButton</text>
</a>
</g>
</g>
<!-- Node3&#45;&gt;Node4 -->
<g id="edge3_Node000003_Node000004" class="edge">
<title>Node3&#45;&gt;Node4</title>
<g id="a_edge3_Node000003_Node000004"><a xlink:title=" ">
<path fill="none" stroke="#63b8ff" d="M427.71,-120.72C439.37,-122.49 451.48,-124.32 462.98,-126.06"/>
<polygon fill="#63b8ff" stroke="#63b8ff" points="428.01,-117.23 417.6,-119.19 426.97,-124.15 428.01,-117.23"/>
</a>
</g>
</g>
<!-- Node5 -->
<g id="Node000005" class="node">
<title>Node5</title>
<g id="a_Node000005"><a xlink:href="classArdourSurface_1_1FP8_1_1FP8RepeatButton.html" target="_top" xlink:title=" ">
<polygon fill="white" stroke="#666666" points="578,-102 468,-102 468,-72 578,-72 578,-102"/>
<text text-anchor="start" x="476" y="-90" font-family="Helvetica,sans-Serif" font-size="10.00">ArdourSurface::FP8</text>
<text text-anchor="middle" x="523" y="-79" font-family="Helvetica,sans-Serif" font-size="10.00">::FP8RepeatButton</text>
</a>
</g>
</g>
<!-- Node3&#45;&gt;Node5 -->
<g id="edge4_Node000003_Node000005" class="edge">
<title>Node3&#45;&gt;Node5</title>
<g id="a_edge4_Node000003_Node000005"><a xlink:title=" ">
<path fill="none" stroke="#63b8ff" d="M427.66,-101.28C441,-99.26 454.94,-97.15 467.87,-95.2"/>
<polygon fill="#63b8ff" stroke="#63b8ff" points="426.97,-97.85 417.6,-102.81 428.01,-104.77 426.97,-97.85"/>
</a>
</g>
</g>
</g>
</svg>
