<?xml version="1.0" encoding="UTF-8" standalone="no"?>
<!DOCTYPE svg PUBLIC "-//W3C//DTD SVG 1.1//EN"
 "http://www.w3.org/Graphics/SVG/1.1/DTD/svg11.dtd">
<!-- Generated by graphviz version 2.43.0 (0)
 -->
<!-- Title: ArdourCanvas::InterpolatedCurve Pages: 1 -->
<svg width="469pt" height="93pt"
 viewBox="0.00 0.00 469.00 93.00" xmlns="http://www.w3.org/2000/svg" xmlns:xlink="http://www.w3.org/1999/xlink">
<g id="graph0" class="graph" transform="scale(1 1) rotate(0) translate(4 89)">
<title>ArdourCanvas::InterpolatedCurve</title>
<!-- Node1 -->
<g id="Node000001" class="node">
<title>Node1</title>
<g id="a_Node000001"><a xlink:title=" ">
<polygon fill="#999999" stroke="#666666" points="290.5,-85 140.5,-85 140.5,-55 290.5,-55 290.5,-85"/>
<text text-anchor="start" x="148.5" y="-73" font-family="Helvetica,sans-Serif" font-size="10.00">ArdourCanvas::Interpolated</text>
<text text-anchor="middle" x="215.5" y="-62" font-family="Helvetica,sans-Serif" font-size="10.00">Curve</text>
</a>
</g>
</g>
<!-- Node2 -->
<g id="Node000002" class="node">
<title>Node2</title>
<g id="a_Node000002"><a xlink:href="classArdourCanvas_1_1Curve.html" target="_top" xlink:title=" ">
<polygon fill="white" stroke="#666666" points="119,-19 0,-19 0,0 119,0 119,-19"/>
<text text-anchor="middle" x="59.5" y="-7" font-family="Helvetica,sans-Serif" font-size="10.00">ArdourCanvas::Curve</text>
</a>
</g>
</g>
<!-- Node1&#45;&gt;Node2 -->
<g id="edge1_Node000001_Node000002" class="edge">
<title>Node1&#45;&gt;Node2</title>
<g id="a_edge1_Node000001_Node000002"><a xlink:title=" ">
<path fill="none" stroke="#63b8ff" d="M168.76,-51.47C140.28,-40.79 105.15,-27.62 82.54,-19.14"/>
<polygon fill="#63b8ff" stroke="#63b8ff" points="167.54,-54.75 178.13,-54.99 170,-48.2 167.54,-54.75"/>
</a>
</g>
</g>
<!-- Node3 -->
<g id="Node000003" class="node">
<title>Node3</title>
<g id="a_Node000003"><a xlink:href="classArdourCanvas_1_1FramedCurve.html" target="_top" xlink:title=" ">
<polygon fill="white" stroke="#666666" points="293.5,-19 137.5,-19 137.5,0 293.5,0 293.5,-19"/>
<text text-anchor="middle" x="215.5" y="-7" font-family="Helvetica,sans-Serif" font-size="10.00">ArdourCanvas::FramedCurve</text>
</a>
</g>
</g>
<!-- Node1&#45;&gt;Node3 -->
<g id="edge2_Node000001_Node000003" class="edge">
<title>Node1&#45;&gt;Node3</title>
<g id="a_edge2_Node000001_Node000003"><a xlink:title=" ">
<path fill="none" stroke="#63b8ff" d="M215.5,-44.75C215.5,-35.72 215.5,-26.03 215.5,-19.27"/>
<polygon fill="#63b8ff" stroke="#63b8ff" points="212,-44.84 215.5,-54.84 219,-44.84 212,-44.84"/>
</a>
</g>
</g>
<!-- Node4 -->
<g id="Node000004" class="node">
<title>Node4</title>
<g id="a_Node000004"><a xlink:href="classArdourCanvas_1_1XFadeCurve.html" target="_top" xlink:title=" ">
<polygon fill="white" stroke="#666666" points="461,-19 312,-19 312,0 461,0 461,-19"/>
<text text-anchor="middle" x="386.5" y="-7" font-family="Helvetica,sans-Serif" font-size="10.00">ArdourCanvas::XFadeCurve</text>
</a>
</g>
</g>
<!-- Node1&#45;&gt;Node4 -->
<g id="edge3_Node000001_Node000004" class="edge">
<title>Node1&#45;&gt;Node4</title>
<g id="a_edge3_Node000001_Node000004"><a xlink:title=" ">
<path fill="none" stroke="#63b8ff" d="M265.92,-51.75C297.28,-41.02 336.25,-27.69 361.25,-19.14"/>
<polygon fill="#63b8ff" stroke="#63b8ff" points="264.79,-48.44 256.46,-54.99 267.05,-55.06 264.79,-48.44"/>
</a>
</g>
</g>
</g>
</svg>
