<?xml version="1.0" encoding="UTF-8" standalone="no"?>
<!DOCTYPE svg PUBLIC "-//W3C//DTD SVG 1.1//EN"
 "http://www.w3.org/Graphics/SVG/1.1/DTD/svg11.dtd">
<!-- Generated by graphviz version 2.43.0 (0)
 -->
<!-- Title: ArdourSurface::LP_X::LaunchPadX Pages: 1 -->
<svg width="473pt" height="258pt"
 viewBox="0.00 0.00 472.50 258.00" xmlns="http://www.w3.org/2000/svg" xmlns:xlink="http://www.w3.org/1999/xlink">
<g id="graph0" class="graph" transform="scale(1 1) rotate(0) translate(4 254)">
<title>ArdourSurface::LP_X::LaunchPadX</title>
<!-- Node1 -->
<g id="Node000001" class="node">
<title>Node1</title>
<g id="a_Node000001"><a xlink:title=" ">
<polygon fill="#999999" stroke="#666666" points="326,-30 211,-30 211,0 326,0 326,-30"/>
<text text-anchor="start" x="219" y="-18" font-family="Helvetica,sans-Serif" font-size="10.00">ArdourSurface::LP_X</text>
<text text-anchor="middle" x="268.5" y="-7" font-family="Helvetica,sans-Serif" font-size="10.00">::LaunchPadX</text>
</a>
</g>
</g>
<!-- Node2 -->
<g id="Node000002" class="node">
<title>Node2</title>
<g id="a_Node000002"><a xlink:href="classMIDISurface.html" target="_top" xlink:title=" ">
<polygon fill="white" stroke="#666666" points="306.5,-85 230.5,-85 230.5,-66 306.5,-66 306.5,-85"/>
<text text-anchor="middle" x="268.5" y="-73" font-family="Helvetica,sans-Serif" font-size="10.00">MIDISurface</text>
</a>
</g>
</g>
<!-- Node2&#45;&gt;Node1 -->
<g id="edge1_Node000001_Node000002" class="edge">
<title>Node2&#45;&gt;Node1</title>
<g id="a_edge1_Node000001_Node000002"><a xlink:title=" ">
<path fill="none" stroke="#63b8ff" d="M268.5,-55.65C268.5,-47.36 268.5,-37.78 268.5,-30.11"/>
<polygon fill="#63b8ff" stroke="#63b8ff" points="265,-55.87 268.5,-65.87 272,-55.87 265,-55.87"/>
</a>
</g>
</g>
<!-- Node3 -->
<g id="Node000003" class="node">
<title>Node3</title>
<g id="a_Node000003"><a xlink:href="classARDOUR_1_1ControlProtocol.html" target="_top" xlink:title=" ">
<polygon fill="white" stroke="#666666" points="247.5,-140 107.5,-140 107.5,-121 247.5,-121 247.5,-140"/>
<text text-anchor="middle" x="177.5" y="-128" font-family="Helvetica,sans-Serif" font-size="10.00">ARDOUR::ControlProtocol</text>
</a>
</g>
</g>
<!-- Node3&#45;&gt;Node2 -->
<g id="edge2_Node000002_Node000003" class="edge">
<title>Node3&#45;&gt;Node2</title>
<g id="a_edge2_Node000002_Node000003"><a xlink:title=" ">
<path fill="none" stroke="#63b8ff" d="M201.2,-115.7C217.78,-106.04 239.41,-93.44 253.61,-85.17"/>
<polygon fill="#63b8ff" stroke="#63b8ff" points="199,-112.93 192.12,-120.98 202.52,-118.98 199,-112.93"/>
</a>
</g>
</g>
<!-- Node4 -->
<g id="Node000004" class="node">
<title>Node4</title>
<g id="a_Node000004"><a xlink:href="classPBD_1_1Stateful.html" target="_top" xlink:title=" ">
<polygon fill="white" stroke="#666666" points="81,-195 0,-195 0,-176 81,-176 81,-195"/>
<text text-anchor="middle" x="40.5" y="-183" font-family="Helvetica,sans-Serif" font-size="10.00">PBD::Stateful</text>
</a>
</g>
</g>
<!-- Node4&#45;&gt;Node3 -->
<g id="edge3_Node000003_Node000004" class="edge">
<title>Node4&#45;&gt;Node3</title>
<g id="a_edge3_Node000003_Node000004"><a xlink:title=" ">
<path fill="none" stroke="#63b8ff" d="M72.06,-172.29C97.45,-162.47 132.5,-148.91 155.09,-140.17"/>
<polygon fill="#63b8ff" stroke="#63b8ff" points="70.58,-169.11 62.51,-175.98 73.1,-175.64 70.58,-169.11"/>
</a>
</g>
</g>
<!-- Node5 -->
<g id="Node000005" class="node">
<title>Node5</title>
<g id="a_Node000005"><a xlink:href="classPBD_1_1ScopedConnectionList.html" target="_top" xlink:title=" ">
<polygon fill="white" stroke="#666666" points="249.5,-195 99.5,-195 99.5,-176 249.5,-176 249.5,-195"/>
<text text-anchor="middle" x="174.5" y="-183" font-family="Helvetica,sans-Serif" font-size="10.00">PBD::ScopedConnectionList</text>
</a>
</g>
</g>
<!-- Node5&#45;&gt;Node3 -->
<g id="edge4_Node000003_Node000005" class="edge">
<title>Node5&#45;&gt;Node3</title>
<g id="a_edge4_Node000003_Node000005"><a xlink:title=" ">
<path fill="none" stroke="#63b8ff" d="M175.57,-165.66C176.06,-156.93 176.62,-146.99 177.01,-140.09"/>
<polygon fill="#63b8ff" stroke="#63b8ff" points="172.07,-165.57 175,-175.75 179.06,-165.96 172.07,-165.57"/>
</a>
</g>
</g>
<!-- Node6 -->
<g id="Node000006" class="node">
<title>Node6</title>
<g id="a_Node000006"><a xlink:href="classBasicUI.html" target="_top" xlink:title=" ">
<polygon fill="white" stroke="#666666" points="320,-195 267,-195 267,-176 320,-176 320,-195"/>
<text text-anchor="middle" x="293.5" y="-183" font-family="Helvetica,sans-Serif" font-size="10.00">BasicUI</text>
</a>
</g>
</g>
<!-- Node6&#45;&gt;Node3 -->
<g id="edge5_Node000003_Node000006" class="edge">
<title>Node6&#45;&gt;Node3</title>
<g id="a_edge5_Node000003_Node000006"><a xlink:title=" ">
<path fill="none" stroke="#63b8ff" d="M265.63,-171.77C244.23,-161.99 215.26,-148.75 196.48,-140.17"/>
<polygon fill="#63b8ff" stroke="#63b8ff" points="264.31,-175.01 274.86,-175.98 267.22,-168.65 264.31,-175.01"/>
</a>
</g>
</g>
<!-- Node7 -->
<g id="Node000007" class="node">
<title>Node7</title>
<g id="a_Node000007"><a xlink:href="classAbstractUI.html" target="_top" xlink:title=" ">
<polygon fill="white" stroke="#666666" points="455.5,-140 267.5,-140 267.5,-121 455.5,-121 455.5,-140"/>
<text text-anchor="middle" x="361.5" y="-128" font-family="Helvetica,sans-Serif" font-size="10.00">AbstractUI&lt; MidiSurfaceRequest &gt;</text>
</a>
</g>
</g>
<!-- Node7&#45;&gt;Node2 -->
<g id="edge6_Node000002_Node000007" class="edge">
<title>Node7&#45;&gt;Node2</title>
<g id="a_edge6_Node000002_Node000007"><a xlink:title=" ">
<path fill="none" stroke="#63b8ff" d="M337.75,-115.97C320.75,-106.28 298.37,-93.52 283.71,-85.17"/>
<polygon fill="#63b8ff" stroke="#63b8ff" points="336.14,-119.07 346.56,-120.98 339.6,-112.99 336.14,-119.07"/>
</a>
</g>
</g>
<!-- Node8 -->
<g id="Node000008" class="node">
<title>Node8</title>
<g id="a_Node000008"><a xlink:href="classBaseUI.html" target="_top" xlink:title=" ">
<polygon fill="white" stroke="#666666" points="389,-195 338,-195 338,-176 389,-176 389,-195"/>
<text text-anchor="middle" x="363.5" y="-183" font-family="Helvetica,sans-Serif" font-size="10.00">BaseUI</text>
</a>
</g>
</g>
<!-- Node8&#45;&gt;Node7 -->
<g id="edge7_Node000007_Node000008" class="edge">
<title>Node8&#45;&gt;Node7</title>
<g id="a_edge7_Node000007_Node000008"><a xlink:title=" ">
<path fill="none" stroke="#63b8ff" d="M362.79,-165.66C362.46,-156.93 362.08,-146.99 361.82,-140.09"/>
<polygon fill="#63b8ff" stroke="#63b8ff" points="359.3,-165.89 363.17,-175.75 366.29,-165.62 359.3,-165.89"/>
</a>
</g>
</g>
<!-- Node9 -->
<g id="Node000009" class="node">
<title>Node9</title>
<g id="a_Node000009"><a xlink:title=" ">
<polygon fill="white" stroke="#666666" points="352,-250 265,-250 265,-231 352,-231 352,-250"/>
<text text-anchor="middle" x="308.5" y="-238" font-family="Helvetica,sans-Serif" font-size="10.00">sigc::trackable</text>
</a>
</g>
</g>
<!-- Node9&#45;&gt;Node8 -->
<g id="edge8_Node000008_Node000009" class="edge">
<title>Node9&#45;&gt;Node8</title>
<g id="a_edge8_Node000008_Node000009"><a xlink:title=" ">
<path fill="none" stroke="#63b8ff" d="M324.79,-223.8C334.54,-214.41 346.55,-202.83 354.59,-195.09"/>
<polygon fill="#63b8ff" stroke="#63b8ff" points="322.35,-221.29 317.58,-230.75 327.21,-226.33 322.35,-221.29"/>
</a>
</g>
</g>
<!-- Node10 -->
<g id="Node000010" class="node">
<title>Node10</title>
<g id="a_Node000010"><a xlink:href="classPBD_1_1EventLoop.html" target="_top" xlink:title=" ">
<polygon fill="white" stroke="#666666" points="464.5,-250 370.5,-250 370.5,-231 464.5,-231 464.5,-250"/>
<text text-anchor="middle" x="417.5" y="-238" font-family="Helvetica,sans-Serif" font-size="10.00">PBD::EventLoop</text>
</a>
</g>
</g>
<!-- Node10&#45;&gt;Node8 -->
<g id="edge9_Node000008_Node000010" class="edge">
<title>Node10&#45;&gt;Node8</title>
<g id="a_edge9_Node000008_Node000010"><a xlink:title=" ">
<path fill="none" stroke="#63b8ff" d="M401.22,-223.52C391.7,-214.18 380.06,-202.75 372.25,-195.09"/>
<polygon fill="#63b8ff" stroke="#63b8ff" points="398.99,-226.24 408.58,-230.75 403.9,-221.25 398.99,-226.24"/>
</a>
</g>
</g>
</g>
</svg>
