<?xml version="1.0" encoding="UTF-8" standalone="no"?>
<!DOCTYPE svg PUBLIC "-//W3C//DTD SVG 1.1//EN"
 "http://www.w3.org/Graphics/SVG/1.1/DTD/svg11.dtd">
<!-- Generated by graphviz version 2.43.0 (0)
 -->
<!-- Title: AudioGrapher::Sink&lt; T &gt; Pages: 1 -->
<svg width="786pt" height="890pt"
 viewBox="0.00 0.00 786.00 889.50" xmlns="http://www.w3.org/2000/svg" xmlns:xlink="http://www.w3.org/1999/xlink">
<g id="graph0" class="graph" transform="scale(1 1) rotate(0) translate(4 885.5)">
<title>AudioGrapher::Sink&lt; T &gt;</title>
<!-- Node1 -->
<g id="Node000001" class="node">
<title>Node1</title>
<g id="a_Node000001"><a xlink:title=" ">
<polygon fill="#999999" stroke="#666666" points="139,-401 0,-401 0,-382 139,-382 139,-401"/>
<text text-anchor="middle" x="69.5" y="-389" font-family="Helvetica,sans-Serif" font-size="10.00">AudioGrapher::Sink&lt; T &gt;</text>
</a>
</g>
</g>
<!-- Node2 -->
<g id="Node000002" class="node">
<title>Node2</title>
<g id="a_Node000002"><a xlink:href="classAudioGrapher_1_1Chunker.html" target="_top" xlink:title=" ">
<polygon fill="white" stroke="#666666" points="336.5,-881.5 207.5,-881.5 207.5,-851.5 336.5,-851.5 336.5,-881.5"/>
<text text-anchor="start" x="215.5" y="-869.5" font-family="Helvetica,sans-Serif" font-size="10.00">AudioGrapher::Chunker</text>
<text text-anchor="middle" x="272" y="-858.5" font-family="Helvetica,sans-Serif" font-size="10.00">&lt; float &gt;</text>
</a>
</g>
</g>
<!-- Node1&#45;&gt;Node2 -->
<g id="edge1_Node000001_Node000002" class="edge">
<title>Node1&#45;&gt;Node2</title>
<g id="a_edge1_Node000001_Node000002"><a xlink:title=" ">
<path fill="none" stroke="#63b8ff" d="M72.37,-411.31C80.2,-489.99 112.84,-779.26 175,-842.5 183.79,-851.44 195.37,-857.24 207.44,-860.95"/>
<polygon fill="#63b8ff" stroke="#63b8ff" points="75.85,-410.89 71.4,-401.28 68.88,-411.57 75.85,-410.89"/>
</a>
</g>
</g>
<!-- Node3 -->
<g id="Node000003" class="node">
<title>Node3</title>
<g id="a_Node000003"><a xlink:href="classAudioGrapher_1_1Chunker.html" target="_top" xlink:title=" ">
<polygon fill="white" stroke="#666666" points="336.5,-833.5 207.5,-833.5 207.5,-803.5 336.5,-803.5 336.5,-833.5"/>
<text text-anchor="start" x="215.5" y="-821.5" font-family="Helvetica,sans-Serif" font-size="10.00">AudioGrapher::Chunker</text>
<text text-anchor="middle" x="272" y="-810.5" font-family="Helvetica,sans-Serif" font-size="10.00">&lt; Sample &gt;</text>
</a>
</g>
</g>
<!-- Node1&#45;&gt;Node3 -->
<g id="edge2_Node000001_Node000003" class="edge">
<title>Node1&#45;&gt;Node3</title>
<g id="a_edge2_Node000001_Node000003"><a xlink:title=" ">
<path fill="none" stroke="#63b8ff" d="M72.98,-411.51C82.5,-485.05 118.97,-738.95 175,-794.5 183.78,-803.21 195.22,-808.92 207.12,-812.62"/>
<polygon fill="#63b8ff" stroke="#63b8ff" points="76.42,-410.79 71.69,-401.32 69.48,-411.68 76.42,-410.79"/>
</a>
</g>
</g>
<!-- Node4 -->
<g id="Node000004" class="node">
<title>Node4</title>
<g id="a_Node000004"><a xlink:href="classAudioGrapher_1_1CmdPipeWriter.html" target="_top" xlink:title=" ">
<polygon fill="white" stroke="#666666" points="353.5,-785.5 190.5,-785.5 190.5,-755.5 353.5,-755.5 353.5,-785.5"/>
<text text-anchor="start" x="198.5" y="-773.5" font-family="Helvetica,sans-Serif" font-size="10.00">AudioGrapher::CmdPipeWriter</text>
<text text-anchor="middle" x="272" y="-762.5" font-family="Helvetica,sans-Serif" font-size="10.00">&lt; Sample &gt;</text>
</a>
</g>
</g>
<!-- Node1&#45;&gt;Node4 -->
<g id="edge3_Node000001_Node000004" class="edge">
<title>Node1&#45;&gt;Node4</title>
<g id="a_edge3_Node000001_Node000004"><a xlink:title=" ">
<path fill="none" stroke="#63b8ff" d="M69.99,-411.5C69.59,-471.64 77,-652.46 175,-746.5 179.46,-750.78 184.57,-754.33 190.05,-757.28"/>
<polygon fill="#63b8ff" stroke="#63b8ff" points="73.49,-411.2 70.14,-401.15 66.49,-411.09 73.49,-411.2"/>
</a>
</g>
</g>
<!-- Node5 -->
<g id="Node000005" class="node">
<title>Node5</title>
<g id="a_Node000005"><a xlink:href="classAudioGrapher_1_1IdentityVertex.html" target="_top" xlink:title=" ">
<polygon fill="white" stroke="#666666" points="351,-737.5 193,-737.5 193,-707.5 351,-707.5 351,-737.5"/>
<text text-anchor="start" x="201" y="-725.5" font-family="Helvetica,sans-Serif" font-size="10.00">AudioGrapher::IdentityVertex</text>
<text text-anchor="middle" x="272" y="-714.5" font-family="Helvetica,sans-Serif" font-size="10.00">&lt; Sample &gt;</text>
</a>
</g>
</g>
<!-- Node1&#45;&gt;Node5 -->
<g id="edge4_Node000001_Node000005" class="edge">
<title>Node1&#45;&gt;Node5</title>
<g id="a_edge4_Node000001_Node000005"><a xlink:title=" ">
<path fill="none" stroke="#8b1a1a" d="M71.05,-411.32C73.67,-465.81 88.74,-619.13 175,-698.5 180.18,-703.27 186.17,-707.13 192.57,-710.24"/>
<polygon fill="#8b1a1a" stroke="#8b1a1a" points="74.54,-411.11 70.66,-401.25 67.55,-411.38 74.54,-411.11"/>
</a>
</g>
</g>
<!-- Node6 -->
<g id="Node000006" class="node">
<title>Node6</title>
<g id="a_Node000006"><a xlink:href="classAudioGrapher_1_1SilenceTrimmer.html" target="_top" xlink:title=" ">
<polygon fill="white" stroke="#666666" points="354.5,-689.5 189.5,-689.5 189.5,-659.5 354.5,-659.5 354.5,-689.5"/>
<text text-anchor="start" x="197.5" y="-677.5" font-family="Helvetica,sans-Serif" font-size="10.00">AudioGrapher::SilenceTrimmer</text>
<text text-anchor="middle" x="272" y="-666.5" font-family="Helvetica,sans-Serif" font-size="10.00">&lt; Sample &gt;</text>
</a>
</g>
</g>
<!-- Node1&#45;&gt;Node6 -->
<g id="edge5_Node000001_Node000006" class="edge">
<title>Node1&#45;&gt;Node6</title>
<g id="a_edge5_Node000001_Node000006"><a xlink:title=" ">
<path fill="none" stroke="#63b8ff" d="M72.44,-411.08C78.3,-459.49 100.34,-585.52 175,-650.5 179.28,-654.22 184.05,-657.38 189.11,-660.07"/>
<polygon fill="#63b8ff" stroke="#63b8ff" points="75.9,-410.56 71.32,-401.01 68.94,-411.34 75.9,-410.56"/>
</a>
</g>
</g>
<!-- Node7 -->
<g id="Node000007" class="node">
<title>Node7</title>
<g id="a_Node000007"><a xlink:href="classAudioGrapher_1_1SndfileWriter.html" target="_top" xlink:title=" ">
<polygon fill="white" stroke="#666666" points="348,-641.5 196,-641.5 196,-611.5 348,-611.5 348,-641.5"/>
<text text-anchor="start" x="204" y="-629.5" font-family="Helvetica,sans-Serif" font-size="10.00">AudioGrapher::SndfileWriter</text>
<text text-anchor="middle" x="272" y="-618.5" font-family="Helvetica,sans-Serif" font-size="10.00">&lt; DefaultSampleType &gt;</text>
</a>
</g>
</g>
<!-- Node1&#45;&gt;Node7 -->
<g id="edge6_Node000001_Node000007" class="edge">
<title>Node1&#45;&gt;Node7</title>
<g id="a_edge6_Node000001_Node000007"><a xlink:title=" ">
<path fill="none" stroke="#63b8ff" d="M74.41,-411.09C83.84,-453 111.87,-551.66 175,-602.5 181.15,-607.46 188.2,-611.41 195.61,-614.55"/>
<polygon fill="#63b8ff" stroke="#63b8ff" points="77.83,-410.34 72.32,-401.29 70.99,-411.8 77.83,-410.34"/>
</a>
</g>
</g>
<!-- Node8 -->
<g id="Node000008" class="node">
<title>Node8</title>
<g id="a_Node000008"><a xlink:href="classAudioGrapher_1_1SndfileWriter.html" target="_top" xlink:title=" ">
<polygon fill="white" stroke="#666666" points="348,-593.5 196,-593.5 196,-563.5 348,-563.5 348,-593.5"/>
<text text-anchor="start" x="204" y="-581.5" font-family="Helvetica,sans-Serif" font-size="10.00">AudioGrapher::SndfileWriter</text>
<text text-anchor="middle" x="272" y="-570.5" font-family="Helvetica,sans-Serif" font-size="10.00">&lt; Sample &gt;</text>
</a>
</g>
</g>
<!-- Node1&#45;&gt;Node8 -->
<g id="edge7_Node000001_Node000008" class="edge">
<title>Node1&#45;&gt;Node8</title>
<g id="a_edge7_Node000001_Node000008"><a xlink:title=" ">
<path fill="none" stroke="#63b8ff" d="M77.33,-410.77C90.55,-445.2 123.02,-517.17 175,-554.5 181.28,-559.01 188.32,-562.68 195.65,-565.65"/>
<polygon fill="#63b8ff" stroke="#63b8ff" points="80.47,-409.17 73.71,-401 73.9,-411.6 80.47,-409.17"/>
</a>
</g>
</g>
<!-- Node9 -->
<g id="Node000009" class="node">
<title>Node9</title>
<g id="a_Node000009"><a xlink:href="classAudioGrapher_1_1SndfileWriter.html" target="_top" xlink:title=" ">
<polygon fill="white" stroke="#666666" points="348,-545.5 196,-545.5 196,-515.5 348,-515.5 348,-545.5"/>
<text text-anchor="start" x="204" y="-533.5" font-family="Helvetica,sans-Serif" font-size="10.00">AudioGrapher::SndfileWriter</text>
<text text-anchor="middle" x="272" y="-522.5" font-family="Helvetica,sans-Serif" font-size="10.00">&lt; int &gt;</text>
</a>
</g>
</g>
<!-- Node1&#45;&gt;Node9 -->
<g id="edge8_Node000001_Node000009" class="edge">
<title>Node1&#45;&gt;Node9</title>
<g id="a_edge8_Node000001_Node000009"><a xlink:title=" ">
<path fill="none" stroke="#63b8ff" d="M81.92,-409.72C98.97,-435.36 133.56,-481.71 175,-506.5 181.49,-510.38 188.58,-513.64 195.88,-516.37"/>
<polygon fill="#63b8ff" stroke="#63b8ff" points="84.83,-407.77 76.45,-401.29 78.96,-411.58 84.83,-407.77"/>
</a>
</g>
</g>
<!-- Node10 -->
<g id="Node000010" class="node">
<title>Node10</title>
<g id="a_Node000010"><a xlink:href="classAudioGrapher_1_1SndfileWriter.html" target="_top" xlink:title=" ">
<polygon fill="white" stroke="#666666" points="348,-497.5 196,-497.5 196,-467.5 348,-467.5 348,-497.5"/>
<text text-anchor="start" x="204" y="-485.5" font-family="Helvetica,sans-Serif" font-size="10.00">AudioGrapher::SndfileWriter</text>
<text text-anchor="middle" x="272" y="-474.5" font-family="Helvetica,sans-Serif" font-size="10.00">&lt; short &gt;</text>
</a>
</g>
</g>
<!-- Node1&#45;&gt;Node10 -->
<g id="edge9_Node000001_Node000010" class="edge">
<title>Node1&#45;&gt;Node10</title>
<g id="a_edge9_Node000001_Node000010"><a xlink:title=" ">
<path fill="none" stroke="#63b8ff" d="M90.77,-407.35C111.04,-422.49 143.63,-444.96 175,-458.5 182.81,-461.87 191.18,-464.84 199.62,-467.42"/>
<polygon fill="#63b8ff" stroke="#63b8ff" points="92.7,-404.42 82.62,-401.16 88.47,-410 92.7,-404.42"/>
</a>
</g>
</g>
<!-- Node11 -->
<g id="Node000011" class="node">
<title>Node11</title>
<g id="a_Node000011"><a xlink:href="classAudioGrapher_1_1Threader.html" target="_top" xlink:title=" ">
<polygon fill="white" stroke="#666666" points="338.5,-449.5 205.5,-449.5 205.5,-419.5 338.5,-419.5 338.5,-449.5"/>
<text text-anchor="start" x="213.5" y="-437.5" font-family="Helvetica,sans-Serif" font-size="10.00">AudioGrapher::Threader</text>
<text text-anchor="middle" x="272" y="-426.5" font-family="Helvetica,sans-Serif" font-size="10.00">&lt; Sample &gt;</text>
</a>
</g>
</g>
<!-- Node1&#45;&gt;Node11 -->
<g id="edge10_Node000001_Node000011" class="edge">
<title>Node1&#45;&gt;Node11</title>
<g id="a_edge10_Node000001_Node000011"><a xlink:title=" ">
<path fill="none" stroke="#63b8ff" d="M124.95,-403.18C149.74,-408.49 179.29,-414.83 205.31,-420.41"/>
<polygon fill="#63b8ff" stroke="#63b8ff" points="125.51,-399.72 115,-401.04 124.04,-406.56 125.51,-399.72"/>
</a>
</g>
</g>
<!-- Node12 -->
<g id="Node000012" class="node">
<title>Node12</title>
<g id="a_Node000012"><a xlink:href="classAudioGrapher_1_1Chunker.html" target="_top" xlink:title="A class that chunks process cycles into equal sized samples.">
<polygon fill="white" stroke="#666666" points="351,-401 193,-401 193,-382 351,-382 351,-401"/>
<text text-anchor="middle" x="272" y="-389" font-family="Helvetica,sans-Serif" font-size="10.00">AudioGrapher::Chunker&lt; T &gt;</text>
</a>
</g>
</g>
<!-- Node1&#45;&gt;Node12 -->
<g id="edge11_Node000001_Node000012" class="edge">
<title>Node1&#45;&gt;Node12</title>
<g id="a_edge11_Node000001_Node000012"><a xlink:title=" ">
<path fill="none" stroke="#63b8ff" d="M149.46,-391.5C163.69,-391.5 178.51,-391.5 192.72,-391.5"/>
<polygon fill="#63b8ff" stroke="#63b8ff" points="149.22,-388 139.22,-391.5 149.22,-395 149.22,-388"/>
</a>
</g>
</g>
<!-- Node13 -->
<g id="Node000013" class="node">
<title>Node13</title>
<g id="a_Node000013"><a xlink:href="classAudioGrapher_1_1CmdPipeWriter.html" target="_top" xlink:title=" ">
<polygon fill="white" stroke="#666666" points="367.5,-364 176.5,-364 176.5,-345 367.5,-345 367.5,-364"/>
<text text-anchor="middle" x="272" y="-352" font-family="Helvetica,sans-Serif" font-size="10.00">AudioGrapher::CmdPipeWriter&lt; T &gt;</text>
</a>
</g>
</g>
<!-- Node1&#45;&gt;Node13 -->
<g id="edge12_Node000001_Node000013" class="edge">
<title>Node1&#45;&gt;Node13</title>
<g id="a_edge12_Node000001_Node000013"><a xlink:title=" ">
<path fill="none" stroke="#63b8ff" d="M132.17,-380.12C160.04,-374.98 192.61,-368.97 219.19,-364.06"/>
<polygon fill="#63b8ff" stroke="#63b8ff" points="131.33,-376.71 122.13,-381.97 132.6,-383.6 131.33,-376.71"/>
</a>
</g>
</g>
<!-- Node14 -->
<g id="Node000014" class="node">
<title>Node14</title>
<g id="a_Node000014"><a xlink:href="classAudioGrapher_1_1DeInterleaver.html" target="_top" xlink:title="Converts on stream of interleaved data to many streams of uninterleaved data.">
<polygon fill="white" stroke="#666666" points="364.5,-327 179.5,-327 179.5,-308 364.5,-308 364.5,-327"/>
<text text-anchor="middle" x="272" y="-315" font-family="Helvetica,sans-Serif" font-size="10.00">AudioGrapher::DeInterleaver&lt; T &gt;</text>
</a>
</g>
</g>
<!-- Node1&#45;&gt;Node14 -->
<g id="edge13_Node000001_Node000014" class="edge">
<title>Node1&#45;&gt;Node14</title>
<g id="a_edge13_Node000001_Node000014"><a xlink:title=" ">
<path fill="none" stroke="#63b8ff" d="M94.13,-376.51C114.75,-364.08 145.84,-346.81 175,-336.5 185.81,-332.68 197.6,-329.55 209.09,-327.01"/>
<polygon fill="#63b8ff" stroke="#63b8ff" points="92.14,-373.63 85.44,-381.85 95.8,-379.6 92.14,-373.63"/>
</a>
</g>
</g>
<!-- Node15 -->
<g id="Node000015" class="node">
<title>Node15</title>
<g id="a_Node000015"><a xlink:href="classAudioGrapher_1_1IdentityVertex.html" target="_top" xlink:title="Outputs its input directly to a number of Sinks.">
<polygon fill="white" stroke="#666666" points="365.5,-290 178.5,-290 178.5,-271 365.5,-271 365.5,-290"/>
<text text-anchor="middle" x="272" y="-278" font-family="Helvetica,sans-Serif" font-size="10.00">AudioGrapher::IdentityVertex&lt; T &gt;</text>
</a>
</g>
</g>
<!-- Node1&#45;&gt;Node15 -->
<g id="edge14_Node000001_Node000015" class="edge">
<title>Node1&#45;&gt;Node15</title>
<g id="a_edge14_Node000001_Node000015"><a xlink:title=" ">
<path fill="none" stroke="#8b1a1a" d="M85.03,-374C103.61,-352.86 137.85,-317.84 175,-299.5 182.92,-295.59 191.59,-292.48 200.36,-290.02"/>
<polygon fill="#8b1a1a" stroke="#8b1a1a" points="82.13,-372.01 78.27,-381.87 87.44,-376.56 82.13,-372.01"/>
</a>
</g>
</g>
<!-- Node16 -->
<g id="Node000016" class="node">
<title>Node16</title>
<g id="a_Node000016"><a xlink:href="classAudioGrapher_1_1Interleaver_1_1Input.html" target="_top" xlink:title=" ">
<polygon fill="white" stroke="#666666" points="343.5,-252.5 200.5,-252.5 200.5,-222.5 343.5,-222.5 343.5,-252.5"/>
<text text-anchor="start" x="208.5" y="-240.5" font-family="Helvetica,sans-Serif" font-size="10.00">AudioGrapher::Interleaver</text>
<text text-anchor="middle" x="272" y="-229.5" font-family="Helvetica,sans-Serif" font-size="10.00">&lt; T &gt;::Input</text>
</a>
</g>
</g>
<!-- Node1&#45;&gt;Node16 -->
<g id="edge15_Node000001_Node000016" class="edge">
<title>Node1&#45;&gt;Node16</title>
<g id="a_edge15_Node000001_Node000016"><a xlink:title=" ">
<path fill="none" stroke="#63b8ff" d="M80.23,-373.16C96.17,-344.93 130.57,-291.13 175,-262.5 182.75,-257.51 191.45,-253.51 200.37,-250.31"/>
<polygon fill="#63b8ff" stroke="#63b8ff" points="77.13,-371.54 75.38,-381.99 83.26,-374.91 77.13,-371.54"/>
</a>
</g>
</g>
<!-- Node17 -->
<g id="Node000017" class="node">
<title>Node17</title>
<g id="a_Node000017"><a xlink:href="classAudioGrapher_1_1SilenceTrimmer.html" target="_top" xlink:title="Removes and adds silent samples to beginning and/or end of stream.">
<polygon fill="white" stroke="#666666" points="369,-204 175,-204 175,-185 369,-185 369,-204"/>
<text text-anchor="middle" x="272" y="-192" font-family="Helvetica,sans-Serif" font-size="10.00">AudioGrapher::SilenceTrimmer&lt; T &gt;</text>
</a>
</g>
</g>
<!-- Node1&#45;&gt;Node17 -->
<g id="edge16_Node000001_Node000017" class="edge">
<title>Node1&#45;&gt;Node17</title>
<g id="a_edge16_Node000001_Node000017"><a xlink:title=" ">
<path fill="none" stroke="#63b8ff" d="M75.97,-372.24C87.58,-335.11 118.37,-253.73 175,-213.5 180.4,-209.66 186.39,-206.55 192.65,-204.04"/>
<polygon fill="#63b8ff" stroke="#63b8ff" points="72.61,-371.28 73.09,-381.86 79.31,-373.29 72.61,-371.28"/>
</a>
</g>
</g>
<!-- Node18 -->
<g id="Node000018" class="node">
<title>Node18</title>
<g id="a_Node000018"><a xlink:href="classAudioGrapher_1_1SndfileWriter.html" target="_top" xlink:title=" ">
<polygon fill="white" stroke="#666666" points="362.5,-167 181.5,-167 181.5,-148 362.5,-148 362.5,-167"/>
<text text-anchor="middle" x="272" y="-155" font-family="Helvetica,sans-Serif" font-size="10.00">AudioGrapher::SndfileWriter&lt; T &gt;</text>
</a>
</g>
</g>
<!-- Node1&#45;&gt;Node18 -->
<g id="edge17_Node000001_Node000018" class="edge">
<title>Node1&#45;&gt;Node18</title>
<g id="a_edge17_Node000001_Node000018"><a xlink:title=" ">
<path fill="none" stroke="#63b8ff" d="M73.98,-371.9C82.68,-329.08 109.53,-226.98 175,-176.5 179.84,-172.77 185.22,-169.7 190.89,-167.2"/>
<polygon fill="#63b8ff" stroke="#63b8ff" points="70.51,-371.4 72.07,-381.88 77.39,-372.72 70.51,-371.4"/>
</a>
</g>
</g>
<!-- Node25 -->
<g id="Node000025" class="node">
<title>Node25</title>
<g id="a_Node000025"><a xlink:href="classAudioGrapher_1_1Threader.html" target="_top" xlink:title="Class for distributing processing across several threads.">
<polygon fill="white" stroke="#666666" points="352.5,-130 191.5,-130 191.5,-111 352.5,-111 352.5,-130"/>
<text text-anchor="middle" x="272" y="-118" font-family="Helvetica,sans-Serif" font-size="10.00">AudioGrapher::Threader&lt; T &gt;</text>
</a>
</g>
</g>
<!-- Node1&#45;&gt;Node25 -->
<g id="edge24_Node000001_Node000025" class="edge">
<title>Node1&#45;&gt;Node25</title>
<g id="a_edge24_Node000001_Node000025"><a xlink:title=" ">
<path fill="none" stroke="#63b8ff" d="M72.46,-371.88C78.35,-324.01 100.39,-200.65 175,-139.5 179.86,-135.52 185.32,-132.29 191.11,-129.68"/>
<polygon fill="#63b8ff" stroke="#63b8ff" points="68.98,-371.54 71.34,-381.87 75.93,-372.32 68.98,-371.54"/>
</a>
</g>
</g>
<!-- Node26 -->
<g id="Node000026" class="node">
<title>Node26</title>
<g id="a_Node000026"><a xlink:href="classProcessContextGrabber.html" target="_top" xlink:title=" ">
<polygon fill="white" stroke="#666666" points="352,-93 192,-93 192,-74 352,-74 352,-93"/>
<text text-anchor="middle" x="272" y="-81" font-family="Helvetica,sans-Serif" font-size="10.00">ProcessContextGrabber&lt; T &gt;</text>
</a>
</g>
</g>
<!-- Node1&#45;&gt;Node26 -->
<g id="edge25_Node000001_Node000026" class="edge">
<title>Node1&#45;&gt;Node26</title>
<g id="a_edge25_Node000001_Node000026"><a xlink:title=" ">
<path fill="none" stroke="#63b8ff" d="M71.3,-371.92C74.56,-319.41 91.1,-174.56 175,-102.5 180.03,-98.18 185.75,-94.74 191.84,-92.01"/>
<polygon fill="#63b8ff" stroke="#63b8ff" points="67.8,-371.75 70.77,-381.92 74.79,-372.12 67.8,-371.75"/>
</a>
</g>
</g>
<!-- Node27 -->
<g id="Node000027" class="node">
<title>Node27</title>
<g id="a_Node000027"><a xlink:href="classThrowingSink.html" target="_top" xlink:title=" ">
<polygon fill="white" stroke="#666666" points="327.5,-56 216.5,-56 216.5,-37 327.5,-37 327.5,-56"/>
<text text-anchor="middle" x="272" y="-44" font-family="Helvetica,sans-Serif" font-size="10.00">ThrowingSink&lt; T &gt;</text>
</a>
</g>
</g>
<!-- Node1&#45;&gt;Node27 -->
<g id="edge26_Node000001_Node000027" class="edge">
<title>Node1&#45;&gt;Node27</title>
<g id="a_edge26_Node000001_Node000027"><a xlink:title=" ">
<path fill="none" stroke="#63b8ff" d="M70.38,-371.77C71.19,-314.76 81.81,-148.56 175,-65.5 186.29,-55.44 201.33,-50.08 216.15,-47.36"/>
<polygon fill="#63b8ff" stroke="#63b8ff" points="66.88,-371.92 70.33,-381.94 73.88,-371.96 66.88,-371.92"/>
</a>
</g>
</g>
<!-- Node28 -->
<g id="Node000028" class="node">
<title>Node28</title>
<g id="a_Node000028"><a xlink:href="classVectorSink.html" target="_top" xlink:title=" ">
<polygon fill="white" stroke="#666666" points="320.5,-19 223.5,-19 223.5,0 320.5,0 320.5,-19"/>
<text text-anchor="middle" x="272" y="-7" font-family="Helvetica,sans-Serif" font-size="10.00">VectorSink&lt; T &gt;</text>
</a>
</g>
</g>
<!-- Node1&#45;&gt;Node28 -->
<g id="edge27_Node000001_Node000028" class="edge">
<title>Node1&#45;&gt;Node28</title>
<g id="a_edge27_Node000001_Node000028"><a xlink:title=" ">
<path fill="none" stroke="#63b8ff" d="M73.47,-371.65C84.13,-302.89 122.72,-76.52 175,-28.5 188.01,-16.55 206.3,-11.17 223.42,-9"/>
<polygon fill="#63b8ff" stroke="#63b8ff" points="69.94,-371.52 71.9,-381.93 76.86,-372.58 69.94,-371.52"/>
</a>
</g>
</g>
<!-- Node19 -->
<g id="Node000019" class="node">
<title>Node19</title>
<g id="a_Node000019"><a xlink:href="classAudioGrapher_1_1TmpFile.html" target="_top" xlink:title=" ">
<polygon fill="white" stroke="#666666" points="550.5,-241.5 416.5,-241.5 416.5,-211.5 550.5,-211.5 550.5,-241.5"/>
<text text-anchor="start" x="424.5" y="-229.5" font-family="Helvetica,sans-Serif" font-size="10.00">AudioGrapher::TmpFile</text>
<text text-anchor="middle" x="483.5" y="-218.5" font-family="Helvetica,sans-Serif" font-size="10.00">&lt; DefaultSampleType &gt;</text>
</a>
</g>
</g>
<!-- Node18&#45;&gt;Node19 -->
<g id="edge18_Node000018_Node000019" class="edge">
<title>Node18&#45;&gt;Node19</title>
<g id="a_edge18_Node000018_Node000019"><a xlink:title=" ">
<path fill="none" stroke="#63b8ff" d="M350.54,-169.8C356.89,-171.73 363.12,-173.94 369,-176.5 387.1,-184.38 387.34,-193.69 405,-202.5 411.68,-205.83 418.92,-208.82 426.19,-211.45"/>
<polygon fill="#63b8ff" stroke="#63b8ff" points="351.06,-166.32 340.49,-167.02 349.19,-173.06 351.06,-166.32"/>
</a>
</g>
</g>
<!-- Node20 -->
<g id="Node000020" class="node">
<title>Node20</title>
<g id="a_Node000020"><a xlink:href="classAudioGrapher_1_1TmpFile.html" target="_top" xlink:title=" ">
<polygon fill="white" stroke="#666666" points="547.5,-193.5 419.5,-193.5 419.5,-163.5 547.5,-163.5 547.5,-193.5"/>
<text text-anchor="start" x="427.5" y="-181.5" font-family="Helvetica,sans-Serif" font-size="10.00">AudioGrapher::TmpFile</text>
<text text-anchor="middle" x="483.5" y="-170.5" font-family="Helvetica,sans-Serif" font-size="10.00">&lt; Sample &gt;</text>
</a>
</g>
</g>
<!-- Node18&#45;&gt;Node20 -->
<g id="edge19_Node000018_Node000020" class="edge">
<title>Node18&#45;&gt;Node20</title>
<g id="a_edge19_Node000018_Node000020"><a xlink:title=" ">
<path fill="none" stroke="#63b8ff" d="M373.11,-167.53C388.91,-169.12 404.85,-170.72 419.49,-172.18"/>
<polygon fill="#63b8ff" stroke="#63b8ff" points="373.06,-164.01 362.76,-166.5 372.36,-170.98 373.06,-164.01"/>
</a>
</g>
</g>
<!-- Node21 -->
<g id="Node000021" class="node">
<title>Node21</title>
<g id="a_Node000021"><a xlink:href="classAudioGrapher_1_1Sndfile.html" target="_top" xlink:title=" ">
<polygon fill="white" stroke="#666666" points="559,-145 408,-145 408,-126 559,-126 559,-145"/>
<text text-anchor="middle" x="483.5" y="-133" font-family="Helvetica,sans-Serif" font-size="10.00">AudioGrapher::Sndfile&lt; T &gt;</text>
</a>
</g>
</g>
<!-- Node18&#45;&gt;Node21 -->
<g id="edge20_Node000018_Node000021" class="edge">
<title>Node18&#45;&gt;Node21</title>
<g id="a_edge20_Node000018_Node000021"><a xlink:title=" ">
<path fill="none" stroke="#63b8ff" d="M373,-147C384.69,-145.77 396.46,-144.53 407.73,-143.35"/>
<polygon fill="#63b8ff" stroke="#63b8ff" points="372.34,-143.55 362.76,-148.07 373.07,-150.51 372.34,-143.55"/>
</a>
</g>
</g>
<!-- Node22 -->
<g id="Node000022" class="node">
<title>Node22</title>
<g id="a_Node000022"><a xlink:href="classAudioGrapher_1_1TmpFile.html" target="_top" xlink:title="A temporary file deleted after this class is destructed.">
<polygon fill="white" stroke="#666666" points="562,-108 405,-108 405,-89 562,-89 562,-108"/>
<text text-anchor="middle" x="483.5" y="-96" font-family="Helvetica,sans-Serif" font-size="10.00">AudioGrapher::TmpFile&lt; T &gt;</text>
</a>
</g>
</g>
<!-- Node18&#45;&gt;Node22 -->
<g id="edge21_Node000018_Node000022" class="edge">
<title>Node18&#45;&gt;Node22</title>
<g id="a_edge21_Node000018_Node000022"><a xlink:title=" ">
<path fill="none" stroke="#63b8ff" d="M350.83,-145.43C357.06,-143.7 363.18,-141.74 369,-139.5 386.5,-132.77 387.69,-124.71 405,-117.5 414.08,-113.72 424.09,-110.57 433.8,-108"/>
<polygon fill="#63b8ff" stroke="#63b8ff" points="349.82,-142.07 341,-147.95 351.55,-148.85 349.82,-142.07"/>
</a>
</g>
</g>
<!-- Node23 -->
<g id="Node000023" class="node">
<title>Node23</title>
<g id="a_Node000023"><a xlink:href="classAudioGrapher_1_1TmpFileRt.html" target="_top" xlink:title=" ">
<polygon fill="white" stroke="#666666" points="771.5,-126 604.5,-126 604.5,-107 771.5,-107 771.5,-126"/>
<text text-anchor="middle" x="688" y="-114" font-family="Helvetica,sans-Serif" font-size="10.00">AudioGrapher::TmpFileRt&lt; T &gt;</text>
</a>
</g>
</g>
<!-- Node22&#45;&gt;Node23 -->
<g id="edge22_Node000022_Node000023" class="edge">
<title>Node22&#45;&gt;Node23</title>
<g id="a_edge22_Node000022_Node000023"><a xlink:title=" ">
<path fill="none" stroke="#63b8ff" d="M572.35,-106.31C583.01,-107.26 593.87,-108.22 604.45,-109.16"/>
<polygon fill="#63b8ff" stroke="#63b8ff" points="572.48,-102.81 562.21,-105.41 571.86,-109.78 572.48,-102.81"/>
</a>
</g>
</g>
<!-- Node24 -->
<g id="Node000024" class="node">
<title>Node24</title>
<g id="a_Node000024"><a xlink:href="classAudioGrapher_1_1TmpFileSync.html" target="_top" xlink:title="A temporary file deleted after this class is destructed.">
<polygon fill="white" stroke="#666666" points="778,-89 598,-89 598,-70 778,-70 778,-89"/>
<text text-anchor="middle" x="688" y="-77" font-family="Helvetica,sans-Serif" font-size="10.00">AudioGrapher::TmpFileSync&lt; T &gt;</text>
</a>
</g>
</g>
<!-- Node22&#45;&gt;Node24 -->
<g id="edge23_Node000022_Node000024" class="edge">
<title>Node22&#45;&gt;Node24</title>
<g id="a_edge23_Node000022_Node000024"><a xlink:title=" ">
<path fill="none" stroke="#63b8ff" d="M572.37,-90.26C580.75,-89.47 589.26,-88.67 597.66,-87.88"/>
<polygon fill="#63b8ff" stroke="#63b8ff" points="571.84,-86.79 562.21,-91.21 572.5,-93.76 571.84,-86.79"/>
</a>
</g>
</g>
<!-- Node29 -->
<g id="Node000029" class="node">
<title>Node29</title>
<g id="a_Node000029"><a xlink:href="classAppendingVectorSink.html" target="_top" xlink:title=" ">
<polygon fill="white" stroke="#666666" points="558,-19 409,-19 409,0 558,0 558,-19"/>
<text text-anchor="middle" x="483.5" y="-7" font-family="Helvetica,sans-Serif" font-size="10.00">AppendingVectorSink&lt; T &gt;</text>
</a>
</g>
</g>
<!-- Node28&#45;&gt;Node29 -->
<g id="edge28_Node000028_Node000029" class="edge">
<title>Node28&#45;&gt;Node29</title>
<g id="a_edge28_Node000028_Node000029"><a xlink:title=" ">
<path fill="none" stroke="#63b8ff" d="M330.62,-9.5C354.78,-9.5 383.18,-9.5 408.84,-9.5"/>
<polygon fill="#63b8ff" stroke="#63b8ff" points="330.54,-6 320.54,-9.5 330.54,-13 330.54,-6"/>
</a>
</g>
</g>
</g>
</svg>
