<?xml version="1.0" encoding="UTF-8" standalone="no"?>
<!DOCTYPE svg PUBLIC "-//W3C//DTD SVG 1.1//EN"
 "http://www.w3.org/Graphics/SVG/1.1/DTD/svg11.dtd">
<!-- Generated by graphviz version 2.43.0 (0)
 -->
<!-- Title: MidiMultipleChannelSelector Pages: 1 -->
<svg width="165pt" height="357pt"
 viewBox="0.00 0.00 165.00 357.00" xmlns="http://www.w3.org/2000/svg" xmlns:xlink="http://www.w3.org/1999/xlink">
<g id="graph0" class="graph" transform="scale(1 1) rotate(0) translate(4 353)">
<title>MidiMultipleChannelSelector</title>
<!-- Node1 -->
<g id="Node000001" class="node">
<title>Node1</title>
<g id="a_Node000001"><a xlink:title=" ">
<polygon fill="#999999" stroke="#666666" points="157,-19 0,-19 0,0 157,0 157,-19"/>
<text text-anchor="middle" x="78.5" y="-7" font-family="Helvetica,sans-Serif" font-size="10.00">MidiMultipleChannelSelector</text>
</a>
</g>
</g>
<!-- Node2 -->
<g id="Node000002" class="node">
<title>Node2</title>
<g id="a_Node000002"><a xlink:href="classMidiChannelSelector.html" target="_top" xlink:title=" ">
<polygon fill="white" stroke="#666666" points="137,-74 20,-74 20,-55 137,-55 137,-74"/>
<text text-anchor="middle" x="78.5" y="-62" font-family="Helvetica,sans-Serif" font-size="10.00">MidiChannelSelector</text>
</a>
</g>
</g>
<!-- Node2&#45;&gt;Node1 -->
<g id="edge1_Node000001_Node000002" class="edge">
<title>Node2&#45;&gt;Node1</title>
<g id="a_edge1_Node000001_Node000002"><a xlink:title=" ">
<path fill="none" stroke="#63b8ff" d="M78.5,-44.66C78.5,-35.93 78.5,-25.99 78.5,-19.09"/>
<polygon fill="#63b8ff" stroke="#63b8ff" points="75,-44.75 78.5,-54.75 82,-44.75 75,-44.75"/>
</a>
</g>
</g>
<!-- Node3 -->
<g id="Node000003" class="node">
<title>Node3</title>
<g id="a_Node000003"><a xlink:href="classGtk_1_1Table.html" target="_top" xlink:title=" ">
<polygon fill="white" stroke="#666666" points="111,-129 46,-129 46,-110 111,-110 111,-129"/>
<text text-anchor="middle" x="78.5" y="-117" font-family="Helvetica,sans-Serif" font-size="10.00">Gtk::Table</text>
</a>
</g>
</g>
<!-- Node3&#45;&gt;Node2 -->
<g id="edge2_Node000002_Node000003" class="edge">
<title>Node3&#45;&gt;Node2</title>
<g id="a_edge2_Node000002_Node000003"><a xlink:title=" ">
<path fill="none" stroke="#63b8ff" d="M78.5,-99.66C78.5,-90.93 78.5,-80.99 78.5,-74.09"/>
<polygon fill="#63b8ff" stroke="#63b8ff" points="75,-99.75 78.5,-109.75 82,-99.75 75,-99.75"/>
</a>
</g>
</g>
<!-- Node4 -->
<g id="Node000004" class="node">
<title>Node4</title>
<g id="a_Node000004"><a xlink:href="classGtk_1_1Container.html" target="_top" xlink:title=" ">
<polygon fill="white" stroke="#666666" points="122,-184 35,-184 35,-165 122,-165 122,-184"/>
<text text-anchor="middle" x="78.5" y="-172" font-family="Helvetica,sans-Serif" font-size="10.00">Gtk::Container</text>
</a>
</g>
</g>
<!-- Node4&#45;&gt;Node3 -->
<g id="edge3_Node000003_Node000004" class="edge">
<title>Node4&#45;&gt;Node3</title>
<g id="a_edge3_Node000003_Node000004"><a xlink:title=" ">
<path fill="none" stroke="#63b8ff" d="M78.5,-154.66C78.5,-145.93 78.5,-135.99 78.5,-129.09"/>
<polygon fill="#63b8ff" stroke="#63b8ff" points="75,-154.75 78.5,-164.75 82,-154.75 75,-154.75"/>
</a>
</g>
</g>
<!-- Node5 -->
<g id="Node000005" class="node">
<title>Node5</title>
<g id="a_Node000005"><a xlink:href="classGtk_1_1Widget.html" target="_top" xlink:title=" ">
<polygon fill="white" stroke="#666666" points="115.5,-239 41.5,-239 41.5,-220 115.5,-220 115.5,-239"/>
<text text-anchor="middle" x="78.5" y="-227" font-family="Helvetica,sans-Serif" font-size="10.00">Gtk::Widget</text>
</a>
</g>
</g>
<!-- Node5&#45;&gt;Node4 -->
<g id="edge4_Node000004_Node000005" class="edge">
<title>Node5&#45;&gt;Node4</title>
<g id="a_edge4_Node000004_Node000005"><a xlink:title=" ">
<path fill="none" stroke="#63b8ff" d="M78.5,-209.66C78.5,-200.93 78.5,-190.99 78.5,-184.09"/>
<polygon fill="#63b8ff" stroke="#63b8ff" points="75,-209.75 78.5,-219.75 82,-209.75 75,-209.75"/>
</a>
</g>
</g>
<!-- Node6 -->
<g id="Node000006" class="node">
<title>Node6</title>
<g id="a_Node000006"><a xlink:href="classGtk_1_1Object.html" target="_top" xlink:title=" ">
<polygon fill="white" stroke="#666666" points="114,-294 43,-294 43,-275 114,-275 114,-294"/>
<text text-anchor="middle" x="78.5" y="-282" font-family="Helvetica,sans-Serif" font-size="10.00">Gtk::Object</text>
</a>
</g>
</g>
<!-- Node6&#45;&gt;Node5 -->
<g id="edge5_Node000005_Node000006" class="edge">
<title>Node6&#45;&gt;Node5</title>
<g id="a_edge5_Node000005_Node000006"><a xlink:title=" ">
<path fill="none" stroke="#63b8ff" d="M78.5,-264.66C78.5,-255.93 78.5,-245.99 78.5,-239.09"/>
<polygon fill="#63b8ff" stroke="#63b8ff" points="75,-264.75 78.5,-274.75 82,-264.75 75,-264.75"/>
</a>
</g>
</g>
<!-- Node7 -->
<g id="Node000007" class="node">
<title>Node7</title>
<g id="a_Node000007"><a xlink:title=" ">
<polygon fill="white" stroke="#666666" points="115.5,-349 41.5,-349 41.5,-330 115.5,-330 115.5,-349"/>
<text text-anchor="middle" x="78.5" y="-337" font-family="Helvetica,sans-Serif" font-size="10.00">Glib::Object</text>
</a>
</g>
</g>
<!-- Node7&#45;&gt;Node6 -->
<g id="edge6_Node000006_Node000007" class="edge">
<title>Node7&#45;&gt;Node6</title>
<g id="a_edge6_Node000006_Node000007"><a xlink:title=" ">
<path fill="none" stroke="#63b8ff" d="M78.5,-319.66C78.5,-310.93 78.5,-300.99 78.5,-294.09"/>
<polygon fill="#63b8ff" stroke="#63b8ff" points="75,-319.75 78.5,-329.75 82,-319.75 75,-319.75"/>
</a>
</g>
</g>
</g>
</svg>
