<?xml version="1.0" encoding="UTF-8" standalone="no"?>
<!DOCTYPE svg PUBLIC "-//W3C//DTD SVG 1.1//EN"
 "http://www.w3.org/Graphics/SVG/1.1/DTD/svg11.dtd">
<!-- Generated by graphviz version 2.43.0 (0)
 -->
<!-- Title: ARDOUR::Session Pages: 1 -->
<svg width="458pt" height="212pt"
 viewBox="0.00 0.00 458.00 212.00" xmlns="http://www.w3.org/2000/svg" xmlns:xlink="http://www.w3.org/1999/xlink">
<g id="graph0" class="graph" transform="scale(1 1) rotate(0) translate(4 208)">
<title>ARDOUR::Session</title>
<!-- Node1 -->
<g id="Node000001" class="node">
<title>Node1</title>
<g id="a_Node000001"><a xlink:title=" ">
<polygon fill="#999999" stroke="#666666" points="450,-111 347,-111 347,-92 450,-92 450,-111"/>
<text text-anchor="middle" x="398.5" y="-99" font-family="Helvetica,sans-Serif" font-size="10.00">ARDOUR::Session</text>
</a>
</g>
</g>
<!-- Node2 -->
<g id="Node000002" class="node">
<title>Node2</title>
<g id="a_Node000002"><a xlink:href="classPBD_1_1HistoryOwner.html" target="_top" xlink:title=" ">
<polygon fill="white" stroke="#666666" points="279.5,-204 169.5,-204 169.5,-185 279.5,-185 279.5,-204"/>
<text text-anchor="middle" x="224.5" y="-192" font-family="Helvetica,sans-Serif" font-size="10.00">PBD::HistoryOwner</text>
</a>
</g>
</g>
<!-- Node2&#45;&gt;Node1 -->
<g id="edge1_Node000001_Node000002" class="edge">
<title>Node2&#45;&gt;Node1</title>
<g id="a_edge1_Node000001_Node000002"><a xlink:title=" ">
<path fill="none" stroke="#63b8ff" d="M289.58,-184.76C296.99,-182.55 304.29,-179.83 311,-176.5 344.47,-159.88 375.43,-127.22 389.52,-111.05"/>
<polygon fill="#63b8ff" stroke="#63b8ff" points="288.55,-181.41 279.81,-187.39 290.37,-188.17 288.55,-181.41"/>
</a>
</g>
</g>
<!-- Node3 -->
<g id="Node000003" class="node">
<title>Node3</title>
<g id="a_Node000003"><a xlink:href="classPBD_1_1StatefulDestructible.html" target="_top" xlink:title=" ">
<polygon fill="white" stroke="#666666" points="294.5,-167 154.5,-167 154.5,-148 294.5,-148 294.5,-167"/>
<text text-anchor="middle" x="224.5" y="-155" font-family="Helvetica,sans-Serif" font-size="10.00">PBD::StatefulDestructible</text>
</a>
</g>
</g>
<!-- Node3&#45;&gt;Node1 -->
<g id="edge2_Node000001_Node000003" class="edge">
<title>Node3&#45;&gt;Node1</title>
<g id="a_edge2_Node000001_Node000003"><a xlink:title=" ">
<path fill="none" stroke="#63b8ff" d="M289.07,-145.65C296.52,-143.81 303.97,-141.76 311,-139.5 335.05,-131.78 361.47,-119.59 378.7,-111.11"/>
<polygon fill="#63b8ff" stroke="#63b8ff" points="288.24,-142.25 279.31,-147.94 289.84,-149.06 288.24,-142.25"/>
</a>
</g>
</g>
<!-- Node4 -->
<g id="Node000004" class="node">
<title>Node4</title>
<g id="a_Node000004"><a xlink:href="classPBD_1_1Stateful.html" target="_top" xlink:title=" ">
<polygon fill="white" stroke="#666666" points="91.5,-185 10.5,-185 10.5,-166 91.5,-166 91.5,-185"/>
<text text-anchor="middle" x="51" y="-173" font-family="Helvetica,sans-Serif" font-size="10.00">PBD::Stateful</text>
</a>
</g>
</g>
<!-- Node4&#45;&gt;Node3 -->
<g id="edge3_Node000003_Node000004" class="edge">
<title>Node4&#45;&gt;Node3</title>
<g id="a_edge3_Node000003_Node000004"><a xlink:title=" ">
<path fill="none" stroke="#63b8ff" d="M102.17,-170.23C118.49,-168.52 136.9,-166.59 154.36,-164.76"/>
<polygon fill="#63b8ff" stroke="#63b8ff" points="101.36,-166.8 91.78,-171.33 102.09,-173.76 101.36,-166.8"/>
</a>
</g>
</g>
<!-- Node5 -->
<g id="Node000005" class="node">
<title>Node5</title>
<g id="a_Node000005"><a xlink:href="classPBD_1_1Destructible.html" target="_top" xlink:title=" ">
<polygon fill="white" stroke="#666666" points="102,-148 0,-148 0,-129 102,-129 102,-148"/>
<text text-anchor="middle" x="51" y="-136" font-family="Helvetica,sans-Serif" font-size="10.00">PBD::Destructible</text>
</a>
</g>
</g>
<!-- Node5&#45;&gt;Node3 -->
<g id="edge4_Node000003_Node000005" class="edge">
<title>Node5&#45;&gt;Node3</title>
<g id="a_edge4_Node000003_Node000005"><a xlink:title=" ">
<path fill="none" stroke="#63b8ff" d="M112.24,-145.17C125.82,-146.68 140.34,-148.29 154.25,-149.83"/>
<polygon fill="#63b8ff" stroke="#63b8ff" points="112.39,-141.67 102.07,-144.05 111.62,-148.63 112.39,-141.67"/>
</a>
</g>
</g>
<!-- Node6 -->
<g id="Node000006" class="node">
<title>Node6</title>
<g id="a_Node000006"><a xlink:href="classPBD_1_1ScopedConnectionList.html" target="_top" xlink:title=" ">
<polygon fill="white" stroke="#666666" points="299.5,-130 149.5,-130 149.5,-111 299.5,-111 299.5,-130"/>
<text text-anchor="middle" x="224.5" y="-118" font-family="Helvetica,sans-Serif" font-size="10.00">PBD::ScopedConnectionList</text>
</a>
</g>
</g>
<!-- Node6&#45;&gt;Node1 -->
<g id="edge5_Node000001_Node000006" class="edge">
<title>Node6&#45;&gt;Node1</title>
<g id="a_edge5_Node000001_Node000006"><a xlink:title=" ">
<path fill="none" stroke="#63b8ff" d="M309.81,-111.19C322.47,-109.79 335.18,-108.38 346.84,-107.1"/>
<polygon fill="#63b8ff" stroke="#63b8ff" points="309.25,-107.73 299.69,-112.3 310.02,-114.69 309.25,-107.73"/>
</a>
</g>
</g>
<!-- Node7 -->
<g id="Node000007" class="node">
<title>Node7</title>
<g id="a_Node000007"><a xlink:href="classARDOUR_1_1SessionEventManager.html" target="_top" xlink:title=" ">
<polygon fill="white" stroke="#666666" points="311,-93 138,-93 138,-74 311,-74 311,-93"/>
<text text-anchor="middle" x="224.5" y="-81" font-family="Helvetica,sans-Serif" font-size="10.00">ARDOUR::SessionEventManager</text>
</a>
</g>
</g>
<!-- Node7&#45;&gt;Node1 -->
<g id="edge6_Node000001_Node000007" class="edge">
<title>Node7&#45;&gt;Node1</title>
<g id="a_edge6_Node000001_Node000007"><a xlink:title=" ">
<path fill="none" stroke="#63b8ff" d="M321.45,-93.54C330.11,-94.45 338.63,-95.34 346.66,-96.18"/>
<polygon fill="#63b8ff" stroke="#63b8ff" points="321.56,-90.03 311.25,-92.47 320.83,-97 321.56,-90.03"/>
</a>
</g>
</g>
<!-- Node8 -->
<g id="Node000008" class="node">
<title>Node8</title>
<g id="a_Node000008"><a xlink:href="classARDOUR_1_1TransportAPI.html" target="_top" xlink:title=" ">
<polygon fill="white" stroke="#666666" points="287.5,-56 161.5,-56 161.5,-37 287.5,-37 287.5,-56"/>
<text text-anchor="middle" x="224.5" y="-44" font-family="Helvetica,sans-Serif" font-size="10.00">ARDOUR::TransportAPI</text>
</a>
</g>
</g>
<!-- Node8&#45;&gt;Node1 -->
<g id="edge7_Node000001_Node000008" class="edge">
<title>Node8&#45;&gt;Node1</title>
<g id="a_edge7_Node000001_Node000008"><a xlink:title=" ">
<path fill="none" stroke="#63b8ff" d="M288.73,-58.34C296.29,-60.19 303.86,-62.25 311,-64.5 334.67,-71.98 360.73,-83.62 377.99,-91.84"/>
<polygon fill="#63b8ff" stroke="#63b8ff" points="289.36,-54.9 278.83,-56.03 287.77,-61.71 289.36,-54.9"/>
</a>
</g>
</g>
<!-- Node9 -->
<g id="Node000009" class="node">
<title>Node9</title>
<g id="a_Node000009"><a xlink:href="classTemporal_1_1TimeDomainProvider.html" target="_top" xlink:title=" ">
<polygon fill="white" stroke="#666666" points="310,-19 139,-19 139,0 310,0 310,-19"/>
<text text-anchor="middle" x="224.5" y="-7" font-family="Helvetica,sans-Serif" font-size="10.00">Temporal::TimeDomainProvider</text>
</a>
</g>
</g>
<!-- Node9&#45;&gt;Node1 -->
<g id="edge8_Node000001_Node000009" class="edge">
<title>Node9&#45;&gt;Node1</title>
<g id="a_edge8_Node000001_Node000009"><a xlink:title=" ">
<path fill="none" stroke="#63b8ff" d="M298.43,-22.2C302.77,-23.76 306.99,-25.52 311,-27.5 344.15,-43.83 375.03,-75.79 389.26,-91.83"/>
<polygon fill="#63b8ff" stroke="#63b8ff" points="299.41,-18.84 288.82,-19.07 297.24,-25.49 299.41,-18.84"/>
</a>
</g>
</g>
</g>
</svg>
