<?xml version="1.0" encoding="UTF-8" standalone="no"?>
<!DOCTYPE svg PUBLIC "-//W3C//DTD SVG 1.1//EN"
 "http://www.w3.org/Graphics/SVG/1.1/DTD/svg11.dtd">
<!-- Generated by graphviz version 2.43.0 (0)
 -->
<!-- Title: Gtk::ToggleButton Pages: 1 -->
<svg width="292pt" height="478pt"
 viewBox="0.00 0.00 292.00 478.00" xmlns="http://www.w3.org/2000/svg" xmlns:xlink="http://www.w3.org/1999/xlink">
<g id="graph0" class="graph" transform="scale(1 1) rotate(0) translate(4 474)">
<title>Gtk::ToggleButton</title>
<!-- Node1 -->
<g id="Node000001" class="node">
<title>Node1</title>
<g id="a_Node000001"><a xlink:title=" ">
<polygon fill="#999999" stroke="#666666" points="209,-140 105,-140 105,-121 209,-121 209,-140"/>
<text text-anchor="middle" x="157" y="-128" font-family="Helvetica,sans-Serif" font-size="10.00">Gtk::ToggleButton</text>
</a>
</g>
</g>
<!-- Node8 -->
<g id="Node000008" class="node">
<title>Node8</title>
<g id="a_Node000008"><a xlink:href="classArdourWidgets_1_1StatefulToggleButton.html" target="_top" xlink:title=" ">
<polygon fill="white" stroke="#666666" points="164,-85 0,-85 0,-55 164,-55 164,-85"/>
<text text-anchor="start" x="8" y="-73" font-family="Helvetica,sans-Serif" font-size="10.00">ArdourWidgets::StatefulToggle</text>
<text text-anchor="middle" x="82" y="-62" font-family="Helvetica,sans-Serif" font-size="10.00">Button</text>
</a>
</g>
</g>
<!-- Node1&#45;&gt;Node8 -->
<g id="edge7_Node000001_Node000008" class="edge">
<title>Node1&#45;&gt;Node8</title>
<g id="a_edge7_Node000001_Node000008"><a xlink:title=" ">
<path fill="none" stroke="#63b8ff" d="M137.77,-114.5C126.17,-105.45 111.49,-94 100.1,-85.11"/>
<polygon fill="#63b8ff" stroke="#63b8ff" points="135.9,-117.48 145.93,-120.87 140.2,-111.96 135.9,-117.48"/>
</a>
</g>
</g>
<!-- Node9 -->
<g id="Node000009" class="node">
<title>Node9</title>
<g id="a_Node000009"><a xlink:href="classGtk_1_1CheckButton.html" target="_top" xlink:title=" ">
<polygon fill="white" stroke="#666666" points="284,-79.5 182,-79.5 182,-60.5 284,-60.5 284,-79.5"/>
<text text-anchor="middle" x="233" y="-67.5" font-family="Helvetica,sans-Serif" font-size="10.00">Gtk::CheckButton</text>
</a>
</g>
</g>
<!-- Node1&#45;&gt;Node9 -->
<g id="edge8_Node000001_Node000009" class="edge">
<title>Node1&#45;&gt;Node9</title>
<g id="a_edge8_Node000001_Node000009"><a xlink:title=" ">
<path fill="none" stroke="#63b8ff" d="M176.44,-114.54C190.79,-103.49 209.82,-88.84 221.74,-79.67"/>
<polygon fill="#63b8ff" stroke="#63b8ff" points="174,-111.99 168.21,-120.87 178.27,-117.54 174,-111.99"/>
</a>
</g>
</g>
<!-- Node2 -->
<g id="Node000002" class="node">
<title>Node2</title>
<g id="a_Node000002"><a xlink:href="classGtk_1_1Button.html" target="_top" xlink:title=" ">
<polygon fill="white" stroke="#666666" points="193,-195 121,-195 121,-176 193,-176 193,-195"/>
<text text-anchor="middle" x="157" y="-183" font-family="Helvetica,sans-Serif" font-size="10.00">Gtk::Button</text>
</a>
</g>
</g>
<!-- Node2&#45;&gt;Node1 -->
<g id="edge1_Node000001_Node000002" class="edge">
<title>Node2&#45;&gt;Node1</title>
<g id="a_edge1_Node000001_Node000002"><a xlink:title=" ">
<path fill="none" stroke="#63b8ff" d="M157,-165.66C157,-156.93 157,-146.99 157,-140.09"/>
<polygon fill="#63b8ff" stroke="#63b8ff" points="153.5,-165.75 157,-175.75 160.5,-165.75 153.5,-165.75"/>
</a>
</g>
</g>
<!-- Node3 -->
<g id="Node000003" class="node">
<title>Node3</title>
<g id="a_Node000003"><a xlink:href="classGtk_1_1Bin.html" target="_top" xlink:title=" ">
<polygon fill="white" stroke="#666666" points="185,-250 129,-250 129,-231 185,-231 185,-250"/>
<text text-anchor="middle" x="157" y="-238" font-family="Helvetica,sans-Serif" font-size="10.00">Gtk::Bin</text>
</a>
</g>
</g>
<!-- Node3&#45;&gt;Node2 -->
<g id="edge2_Node000002_Node000003" class="edge">
<title>Node3&#45;&gt;Node2</title>
<g id="a_edge2_Node000002_Node000003"><a xlink:title=" ">
<path fill="none" stroke="#63b8ff" d="M157,-220.66C157,-211.93 157,-201.99 157,-195.09"/>
<polygon fill="#63b8ff" stroke="#63b8ff" points="153.5,-220.75 157,-230.75 160.5,-220.75 153.5,-220.75"/>
</a>
</g>
</g>
<!-- Node4 -->
<g id="Node000004" class="node">
<title>Node4</title>
<g id="a_Node000004"><a xlink:href="classGtk_1_1Container.html" target="_top" xlink:title=" ">
<polygon fill="white" stroke="#666666" points="200.5,-305 113.5,-305 113.5,-286 200.5,-286 200.5,-305"/>
<text text-anchor="middle" x="157" y="-293" font-family="Helvetica,sans-Serif" font-size="10.00">Gtk::Container</text>
</a>
</g>
</g>
<!-- Node4&#45;&gt;Node3 -->
<g id="edge3_Node000003_Node000004" class="edge">
<title>Node4&#45;&gt;Node3</title>
<g id="a_edge3_Node000003_Node000004"><a xlink:title=" ">
<path fill="none" stroke="#63b8ff" d="M157,-275.66C157,-266.93 157,-256.99 157,-250.09"/>
<polygon fill="#63b8ff" stroke="#63b8ff" points="153.5,-275.75 157,-285.75 160.5,-275.75 153.5,-275.75"/>
</a>
</g>
</g>
<!-- Node5 -->
<g id="Node000005" class="node">
<title>Node5</title>
<g id="a_Node000005"><a xlink:href="classGtk_1_1Widget.html" target="_top" xlink:title=" ">
<polygon fill="white" stroke="#666666" points="194,-360 120,-360 120,-341 194,-341 194,-360"/>
<text text-anchor="middle" x="157" y="-348" font-family="Helvetica,sans-Serif" font-size="10.00">Gtk::Widget</text>
</a>
</g>
</g>
<!-- Node5&#45;&gt;Node4 -->
<g id="edge4_Node000004_Node000005" class="edge">
<title>Node5&#45;&gt;Node4</title>
<g id="a_edge4_Node000004_Node000005"><a xlink:title=" ">
<path fill="none" stroke="#63b8ff" d="M157,-330.66C157,-321.93 157,-311.99 157,-305.09"/>
<polygon fill="#63b8ff" stroke="#63b8ff" points="153.5,-330.75 157,-340.75 160.5,-330.75 153.5,-330.75"/>
</a>
</g>
</g>
<!-- Node6 -->
<g id="Node000006" class="node">
<title>Node6</title>
<g id="a_Node000006"><a xlink:href="classGtk_1_1Object.html" target="_top" xlink:title=" ">
<polygon fill="white" stroke="#666666" points="192.5,-415 121.5,-415 121.5,-396 192.5,-396 192.5,-415"/>
<text text-anchor="middle" x="157" y="-403" font-family="Helvetica,sans-Serif" font-size="10.00">Gtk::Object</text>
</a>
</g>
</g>
<!-- Node6&#45;&gt;Node5 -->
<g id="edge5_Node000005_Node000006" class="edge">
<title>Node6&#45;&gt;Node5</title>
<g id="a_edge5_Node000005_Node000006"><a xlink:title=" ">
<path fill="none" stroke="#63b8ff" d="M157,-385.66C157,-376.93 157,-366.99 157,-360.09"/>
<polygon fill="#63b8ff" stroke="#63b8ff" points="153.5,-385.75 157,-395.75 160.5,-385.75 153.5,-385.75"/>
</a>
</g>
</g>
<!-- Node7 -->
<g id="Node000007" class="node">
<title>Node7</title>
<g id="a_Node000007"><a xlink:title=" ">
<polygon fill="white" stroke="#666666" points="194,-470 120,-470 120,-451 194,-451 194,-470"/>
<text text-anchor="middle" x="157" y="-458" font-family="Helvetica,sans-Serif" font-size="10.00">Glib::Object</text>
</a>
</g>
</g>
<!-- Node7&#45;&gt;Node6 -->
<g id="edge6_Node000006_Node000007" class="edge">
<title>Node7&#45;&gt;Node6</title>
<g id="a_edge6_Node000006_Node000007"><a xlink:title=" ">
<path fill="none" stroke="#63b8ff" d="M157,-440.66C157,-431.93 157,-421.99 157,-415.09"/>
<polygon fill="#63b8ff" stroke="#63b8ff" points="153.5,-440.75 157,-450.75 160.5,-440.75 153.5,-440.75"/>
</a>
</g>
</g>
<!-- Node10 -->
<g id="Node000010" class="node">
<title>Node10</title>
<g id="a_Node000010"><a xlink:href="classGtk_1_1RadioButton.html" target="_top" xlink:title=" ">
<polygon fill="white" stroke="#666666" points="283,-19 183,-19 183,0 283,0 283,-19"/>
<text text-anchor="middle" x="233" y="-7" font-family="Helvetica,sans-Serif" font-size="10.00">Gtk::RadioButton</text>
</a>
</g>
</g>
<!-- Node9&#45;&gt;Node10 -->
<g id="edge9_Node000009_Node000010" class="edge">
<title>Node9&#45;&gt;Node10</title>
<g id="a_edge9_Node000009_Node000010"><a xlink:title=" ">
<path fill="none" stroke="#63b8ff" d="M233,-50.16C233,-39.74 233,-27.3 233,-19.17"/>
<polygon fill="#63b8ff" stroke="#63b8ff" points="229.5,-50.37 233,-60.37 236.5,-50.37 229.5,-50.37"/>
</a>
</g>
</g>
</g>
</svg>
