<?xml version="1.0" encoding="UTF-8" standalone="no"?>
<!DOCTYPE svg PUBLIC "-//W3C//DTD SVG 1.1//EN"
 "http://www.w3.org/Graphics/SVG/1.1/DTD/svg11.dtd">
<!-- Generated by graphviz version 2.43.0 (0)
 -->
<!-- Title: PBD::ConfigVariableBase Pages: 1 -->
<svg width="567pt" height="76pt"
 viewBox="0.00 0.00 567.00 75.50" xmlns="http://www.w3.org/2000/svg" xmlns:xlink="http://www.w3.org/1999/xlink">
<g id="graph0" class="graph" transform="scale(1 1) rotate(0) translate(4 71.5)">
<title>PBD::ConfigVariableBase</title>
<!-- Node1 -->
<g id="Node000001" class="node">
<title>Node1</title>
<g id="a_Node000001"><a xlink:title=" ">
<polygon fill="#999999" stroke="#666666" points="137,-45.5 0,-45.5 0,-26.5 137,-26.5 137,-45.5"/>
<text text-anchor="middle" x="68.5" y="-33.5" font-family="Helvetica,sans-Serif" font-size="10.00">PBD::ConfigVariableBase</text>
</a>
</g>
</g>
<!-- Node2 -->
<g id="Node000002" class="node">
<title>Node2</title>
<g id="a_Node000002"><a xlink:href="classPBD_1_1ConfigVariable.html" target="_top" xlink:title=" ">
<polygon fill="white" stroke="#666666" points="315,-67.5 173,-67.5 173,-48.5 315,-48.5 315,-67.5"/>
<text text-anchor="middle" x="244" y="-55.5" font-family="Helvetica,sans-Serif" font-size="10.00">PBD::ConfigVariable&lt; T &gt;</text>
</a>
</g>
</g>
<!-- Node1&#45;&gt;Node2 -->
<g id="edge1_Node000001_Node000002" class="edge">
<title>Node1&#45;&gt;Node2</title>
<g id="a_edge1_Node000001_Node000002"><a xlink:title=" ">
<path fill="none" stroke="#63b8ff" d="M147.05,-45.83C155.61,-46.92 164.28,-48.02 172.75,-49.09"/>
<polygon fill="#63b8ff" stroke="#63b8ff" points="147.44,-42.35 137.08,-44.57 146.56,-49.3 147.44,-42.35"/>
</a>
</g>
</g>
<!-- Node4 -->
<g id="Node000004" class="node">
<title>Node4</title>
<g id="a_Node000004"><a xlink:href="classPBD_1_1ConfigVariable_3_01std_1_1string_01_4.html" target="_top" xlink:title=" ">
<polygon fill="white" stroke="#666666" points="300.5,-30 187.5,-30 187.5,0 300.5,0 300.5,-30"/>
<text text-anchor="start" x="195.5" y="-18" font-family="Helvetica,sans-Serif" font-size="10.00">PBD::ConfigVariable</text>
<text text-anchor="middle" x="244" y="-7" font-family="Helvetica,sans-Serif" font-size="10.00">&lt; std::string &gt;</text>
</a>
</g>
</g>
<!-- Node1&#45;&gt;Node4 -->
<g id="edge3_Node000001_Node000004" class="edge">
<title>Node1&#45;&gt;Node4</title>
<g id="a_edge3_Node000001_Node000004"><a xlink:title=" ">
<path fill="none" stroke="#63b8ff" d="M147.32,-26.58C160.83,-24.95 174.62,-23.28 187.38,-21.73"/>
<polygon fill="#63b8ff" stroke="#63b8ff" points="146.58,-23.14 137.08,-27.82 147.42,-30.09 146.58,-23.14"/>
</a>
</g>
</g>
<!-- Node3 -->
<g id="Node000003" class="node">
<title>Node3</title>
<g id="a_Node000003"><a xlink:href="classPBD_1_1ConfigVariableWithMutation.html" target="_top" xlink:title=" ">
<polygon fill="white" stroke="#666666" points="559,-67.5 351,-67.5 351,-48.5 559,-48.5 559,-67.5"/>
<text text-anchor="middle" x="455" y="-55.5" font-family="Helvetica,sans-Serif" font-size="10.00">PBD::ConfigVariableWithMutation&lt; T &gt;</text>
</a>
</g>
</g>
<!-- Node2&#45;&gt;Node3 -->
<g id="edge2_Node000002_Node000003" class="edge">
<title>Node2&#45;&gt;Node3</title>
<g id="a_edge2_Node000002_Node000003"><a xlink:title=" ">
<path fill="none" stroke="#63b8ff" d="M325.29,-58C333.69,-58 342.3,-58 350.91,-58"/>
<polygon fill="#63b8ff" stroke="#63b8ff" points="325.18,-54.5 315.18,-58 325.18,-61.5 325.18,-54.5"/>
</a>
</g>
</g>
<!-- Node5 -->
<g id="Node000005" class="node">
<title>Node5</title>
<g id="a_Node000005"><a xlink:href="classPBD_1_1ConfigVariableWithMutation_3_01std_1_1string_01_4.html" target="_top" xlink:title=" ">
<polygon fill="white" stroke="#666666" points="544.5,-30 365.5,-30 365.5,0 544.5,0 544.5,-30"/>
<text text-anchor="start" x="373.5" y="-18" font-family="Helvetica,sans-Serif" font-size="10.00">PBD::ConfigVariableWithMutation</text>
<text text-anchor="middle" x="455" y="-7" font-family="Helvetica,sans-Serif" font-size="10.00">&lt; std::string &gt;</text>
</a>
</g>
</g>
<!-- Node4&#45;&gt;Node5 -->
<g id="edge4_Node000004_Node000005" class="edge">
<title>Node4&#45;&gt;Node5</title>
<g id="a_edge4_Node000004_Node000005"><a xlink:title=" ">
<path fill="none" stroke="#63b8ff" d="M311.21,-15C328.39,-15 347.18,-15 365.32,-15"/>
<polygon fill="#63b8ff" stroke="#63b8ff" points="310.73,-11.5 300.73,-15 310.73,-18.5 310.73,-11.5"/>
</a>
</g>
</g>
</g>
</svg>
