<?xml version="1.0" encoding="UTF-8" standalone="no"?>
<!DOCTYPE svg PUBLIC "-//W3C//DTD SVG 1.1//EN"
 "http://www.w3.org/Graphics/SVG/1.1/DTD/svg11.dtd">
<!-- Generated by graphviz version 2.43.0 (0)
 -->
<!-- Title: ARDOUR::Plugin Pages: 1 -->
<!--zoomable 249 -->

<svg id="main" version="1.1" xmlns="http://www.w3.org/2000/svg" xmlns:xlink="http://www.w3.org/1999/xlink" xml:space="preserve" onload="init(evt)">
<style type="text/css"><![CDATA[
.node, .edge {opacity: 0.7;}
.node.selected, .edge.selected {opacity: 1;}
.edge:hover path { stroke: red; }
.edge:hover polygon { stroke: red; fill: red; }
]]></style>

<defs>
  <circle id="rim" cx="0" cy="0" r="7"/>
  <circle id="rim2" cx="0" cy="0" r="3.5"/>
  <g id="zoomPlus">
    <use xlink:href="#rim" fill="#404040"><set attributeName="fill" to="#808080" begin="zoomplus.mouseover" end="zoomplus.mouseout"/></use>
    <path d="M-4,0h8M0,-4v8" fill="none" stroke="white" stroke-width="1.5" pointer-events="none"/>
  </g>
  <g id="zoomMin">
    <use xlink:href="#rim" fill="#404040"><set attributeName="fill" to="#808080" begin="zoomminus.mouseover" end="zoomminus.mouseout"/></use>
    <path d="M-4,0h8" fill="none" stroke="white" stroke-width="1.5" pointer-events="none"/>
  </g>
  <g id="arrowUp" transform="translate(30 24)">
    <use xlink:href="#rim"/>
    <path pointer-events="none" fill="none" stroke="white" stroke-width="1.5" d="M0,-3.0v7 M-2.5,-0.5L0,-3.0L2.5,-0.5"/>
  </g>
  <g id="arrowRight" transform="rotate(90) translate(36 -43)">
    <use xlink:href="#rim"/>
    <path pointer-events="none" fill="none" stroke="white" stroke-width="1.5" d="M0,-3.0v7 M-2.5,-0.5L0,-3.0L2.5,-0.5"/>
  </g>
  <g id="arrowDown" transform="rotate(180) translate(-30 -48)">
    <use xlink:href="#rim"/>
    <path pointer-events="none" fill="none" stroke="white" stroke-width="1.5" d="M0,-3.0v7 M-2.5,-0.5L0,-3.0L2.5,-0.5"/>
  </g>
  <g id="arrowLeft" transform="rotate(270) translate(-36 17)">
    <use xlink:href="#rim"/>
    <path pointer-events="none" fill="none" stroke="white" stroke-width="1.5" d="M0,-3.0v7 M-2.5,-0.5L0,-3.0L2.5,-0.5"/>
  </g>
  <g id="resetDef">
    <use xlink:href="#rim2" fill="#404040"><set attributeName="fill" to="#808080" begin="reset.mouseover" end="reset.mouseout"/></use>
  </g>
</defs>
<script type="application/ecmascript">
var viewWidth = 777;
var viewHeight = 249;
var sectionId = 'dynsection-0';
</script>
<script type="application/ecmascript" xlink:href="svg.min.js"/>
<svg id="graph" class="graph">
<g id="viewport">
<title>ARDOUR::Plugin</title>
<!-- Node1 -->
<g id="Node000001" class="node">
<title>Node1</title>
<g id="a_Node000001"><a xlink:title=" ">
<polygon fill="#999999" stroke="#666666" points="409,-148 314,-148 314,-129 409,-129 409,-148"/>
<text text-anchor="middle" x="361.5" y="-136" font-family="Helvetica,sans-Serif" font-size="10.00">ARDOUR::Plugin</text>
</a>
</g>
</g>
<!-- Node7 -->
<g id="Node000007" class="node">
<title>Node7</title>
<g id="a_Node000007"><a xlink:href="classARDOUR_1_1AUPlugin.html" target="_top" xlink:title=" ">
<polygon fill="white" stroke="#666666" points="565,-241 455,-241 455,-222 565,-222 565,-241"/>
<text text-anchor="middle" x="510" y="-229" font-family="Helvetica,sans-Serif" font-size="10.00">ARDOUR::AUPlugin</text>
</a>
</g>
</g>
<!-- Node1&#45;&gt;Node7 -->
<g id="edge6_Node000001_Node000007" class="edge">
<title>Node1&#45;&gt;Node7</title>
<g id="a_edge6_Node000001_Node000007"><a xlink:title=" ">
<path fill="none" stroke="#63b8ff" d="M376.97,-155.67C392.23,-172.72 417.79,-198.42 445,-213.5 451.06,-216.86 457.79,-219.63 464.55,-221.91"/>
<polygon fill="#63b8ff" stroke="#63b8ff" points="379.56,-153.32 370.35,-148.08 374.29,-157.92 379.56,-153.32"/>
</a>
</g>
</g>
<!-- Node8 -->
<g id="Node000008" class="node">
<title>Node8</title>
<g id="a_Node000008"><a xlink:href="classARDOUR_1_1LV2Plugin.html" target="_top" xlink:title=" ">
<polygon fill="white" stroke="#666666" points="566.5,-204 453.5,-204 453.5,-185 566.5,-185 566.5,-204"/>
<text text-anchor="middle" x="510" y="-192" font-family="Helvetica,sans-Serif" font-size="10.00">ARDOUR::LV2Plugin</text>
</a>
</g>
</g>
<!-- Node1&#45;&gt;Node8 -->
<g id="edge7_Node000001_Node000008" class="edge">
<title>Node1&#45;&gt;Node8</title>
<g id="a_edge7_Node000001_Node000008"><a xlink:title=" ">
<path fill="none" stroke="#63b8ff" d="M390.34,-152.66C406.12,-160.34 426.37,-169.64 445,-176.5 453.34,-179.57 462.45,-182.42 471.12,-184.91"/>
<polygon fill="#63b8ff" stroke="#63b8ff" points="391.66,-149.41 381.15,-148.12 388.57,-155.68 391.66,-149.41"/>
</a>
</g>
</g>
<!-- Node9 -->
<g id="Node000009" class="node">
<title>Node9</title>
<g id="a_Node000009"><a xlink:href="classARDOUR_1_1LadspaPlugin.html" target="_top" xlink:title=" ">
<polygon fill="white" stroke="#666666" points="575,-167 445,-167 445,-148 575,-148 575,-167"/>
<text text-anchor="middle" x="510" y="-155" font-family="Helvetica,sans-Serif" font-size="10.00">ARDOUR::LadspaPlugin</text>
</a>
</g>
</g>
<!-- Node1&#45;&gt;Node9 -->
<g id="edge8_Node000001_Node000009" class="edge">
<title>Node1&#45;&gt;Node9</title>
<g id="a_edge8_Node000001_Node000009"><a xlink:title=" ">
<path fill="none" stroke="#63b8ff" d="M419.27,-145.86C427.63,-146.95 436.29,-148.07 444.79,-149.17"/>
<polygon fill="#63b8ff" stroke="#63b8ff" points="419.62,-142.38 409.26,-144.56 418.72,-149.32 419.62,-142.38"/>
</a>
</g>
</g>
<!-- Node10 -->
<g id="Node000010" class="node">
<title>Node10</title>
<g id="a_Node000010"><a xlink:href="classARDOUR_1_1LuaProc.html" target="_top" xlink:title=" ">
<polygon fill="white" stroke="#666666" points="562,-130 458,-130 458,-111 562,-111 562,-130"/>
<text text-anchor="middle" x="510" y="-118" font-family="Helvetica,sans-Serif" font-size="10.00">ARDOUR::LuaProc</text>
</a>
</g>
</g>
<!-- Node1&#45;&gt;Node10 -->
<g id="edge9_Node000001_Node000010" class="edge">
<title>Node1&#45;&gt;Node10</title>
<g id="a_edge9_Node000001_Node000010"><a xlink:title=" ">
<path fill="none" stroke="#63b8ff" d="M419.27,-131.52C431.99,-129.96 445.4,-128.31 457.87,-126.78"/>
<polygon fill="#63b8ff" stroke="#63b8ff" points="418.75,-128.06 409.26,-132.76 419.61,-135.01 418.75,-128.06"/>
</a>
</g>
</g>
<!-- Node11 -->
<g id="Node000011" class="node">
<title>Node11</title>
<g id="a_Node000011"><a xlink:href="classARDOUR_1_1VST3Plugin.html" target="_top" xlink:title=" ">
<polygon fill="white" stroke="#666666" points="570,-93 450,-93 450,-74 570,-74 570,-93"/>
<text text-anchor="middle" x="510" y="-81" font-family="Helvetica,sans-Serif" font-size="10.00">ARDOUR::VST3Plugin</text>
</a>
</g>
</g>
<!-- Node1&#45;&gt;Node11 -->
<g id="edge10_Node000001_Node000011" class="edge">
<title>Node1&#45;&gt;Node11</title>
<g id="a_edge10_Node000001_Node000011"><a xlink:title=" ">
<path fill="none" stroke="#63b8ff" d="M391,-124.46C406.7,-117.06 426.67,-108.15 445,-101.5 453.46,-98.43 462.71,-95.56 471.48,-93.05"/>
<polygon fill="#63b8ff" stroke="#63b8ff" points="389.35,-121.38 381.83,-128.85 392.37,-127.69 389.35,-121.38"/>
</a>
</g>
</g>
<!-- Node12 -->
<g id="Node000012" class="node">
<title>Node12</title>
<g id="a_Node000012"><a xlink:href="classARDOUR_1_1VSTPlugin.html" target="_top" xlink:title=" ">
<polygon fill="white" stroke="#666666" points="567,-56 453,-56 453,-37 567,-37 567,-56"/>
<text text-anchor="middle" x="510" y="-44" font-family="Helvetica,sans-Serif" font-size="10.00">ARDOUR::VSTPlugin</text>
</a>
</g>
</g>
<!-- Node1&#45;&gt;Node12 -->
<g id="edge11_Node000001_Node000012" class="edge">
<title>Node1&#45;&gt;Node12</title>
<g id="a_edge11_Node000001_Node000012"><a xlink:title=" ">
<path fill="none" stroke="#63b8ff" d="M377.27,-121.29C392.59,-104.48 418.05,-79.32 445,-64.5 451.17,-61.11 458.03,-58.31 464.91,-56.02"/>
<polygon fill="#63b8ff" stroke="#63b8ff" points="374.63,-119 370.6,-128.79 379.86,-123.65 374.63,-119"/>
</a>
</g>
</g>
<!-- Node2 -->
<g id="Node000002" class="node">
<title>Node2</title>
<g id="a_Node000002"><a xlink:href="classPBD_1_1StatefulDestructible.html" target="_top" xlink:title=" ">
<polygon fill="white" stroke="#666666" points="278,-185 138,-185 138,-166 278,-166 278,-185"/>
<text text-anchor="middle" x="208" y="-173" font-family="Helvetica,sans-Serif" font-size="10.00">PBD::StatefulDestructible</text>
</a>
</g>
</g>
<!-- Node2&#45;&gt;Node1 -->
<g id="edge1_Node000001_Node000002" class="edge">
<title>Node2&#45;&gt;Node1</title>
<g id="a_edge1_Node000001_Node000002"><a xlink:title=" ">
<path fill="none" stroke="#63b8ff" d="M257.83,-163.57C278.38,-158.56 301.97,-152.79 321.35,-148.06"/>
<polygon fill="#63b8ff" stroke="#63b8ff" points="256.9,-160.2 248.02,-165.97 258.56,-167 256.9,-160.2"/>
</a>
</g>
</g>
<!-- Node3 -->
<g id="Node000003" class="node">
<title>Node3</title>
<g id="a_Node000003"><a xlink:href="classPBD_1_1Stateful.html" target="_top" xlink:title=" ">
<polygon fill="white" stroke="#666666" points="91.5,-203 10.5,-203 10.5,-184 91.5,-184 91.5,-203"/>
<text text-anchor="middle" x="51" y="-191" font-family="Helvetica,sans-Serif" font-size="10.00">PBD::Stateful</text>
</a>
</g>
</g>
<!-- Node3&#45;&gt;Node2 -->
<g id="edge2_Node000002_Node000003" class="edge">
<title>Node3&#45;&gt;Node2</title>
<g id="a_edge2_Node000002_Node000003"><a xlink:title=" ">
<path fill="none" stroke="#63b8ff" d="M101.75,-187.72C113.21,-186.39 125.61,-184.95 137.74,-183.54"/>
<polygon fill="#63b8ff" stroke="#63b8ff" points="101.04,-184.28 91.51,-188.91 101.85,-191.23 101.04,-184.28"/>
</a>
</g>
</g>
<!-- Node4 -->
<g id="Node000004" class="node">
<title>Node4</title>
<g id="a_Node000004"><a xlink:href="classPBD_1_1Destructible.html" target="_top" xlink:title=" ">
<polygon fill="white" stroke="#666666" points="102,-166 0,-166 0,-147 102,-147 102,-166"/>
<text text-anchor="middle" x="51" y="-154" font-family="Helvetica,sans-Serif" font-size="10.00">PBD::Destructible</text>
</a>
</g>
</g>
<!-- Node4&#45;&gt;Node2 -->
<g id="edge3_Node000002_Node000004" class="edge">
<title>Node4&#45;&gt;Node2</title>
<g id="a_edge3_Node000002_Node000004"><a xlink:title=" ">
<path fill="none" stroke="#63b8ff" d="M112.33,-163.9C120.67,-164.92 129.29,-165.97 137.77,-167.01"/>
<polygon fill="#63b8ff" stroke="#63b8ff" points="112.68,-160.41 102.32,-162.67 111.82,-167.36 112.68,-160.41"/>
</a>
</g>
</g>
<!-- Node5 -->
<g id="Node000005" class="node">
<title>Node5</title>
<g id="a_Node000005"><a xlink:href="classARDOUR_1_1HasLatency.html" target="_top" xlink:title=" ">
<polygon fill="white" stroke="#666666" points="269,-148 147,-148 147,-129 269,-129 269,-148"/>
<text text-anchor="middle" x="208" y="-136" font-family="Helvetica,sans-Serif" font-size="10.00">ARDOUR::HasLatency</text>
</a>
</g>
</g>
<!-- Node5&#45;&gt;Node1 -->
<g id="edge4_Node000001_Node000005" class="edge">
<title>Node5&#45;&gt;Node1</title>
<g id="a_edge4_Node000001_Node000005"><a xlink:title=" ">
<path fill="none" stroke="#63b8ff" d="M279.51,-138.5C291.19,-138.5 303.04,-138.5 313.93,-138.5"/>
<polygon fill="#63b8ff" stroke="#63b8ff" points="279.31,-135 269.31,-138.5 279.31,-142 279.31,-135"/>
</a>
</g>
</g>
<!-- Node6 -->
<g id="Node000006" class="node">
<title>Node6</title>
<g id="a_Node000006"><a xlink:href="classARDOUR_1_1HasTailTime.html" target="_top" xlink:title=" ">
<polygon fill="white" stroke="#666666" points="270.5,-111 145.5,-111 145.5,-92 270.5,-92 270.5,-111"/>
<text text-anchor="middle" x="208" y="-99" font-family="Helvetica,sans-Serif" font-size="10.00">ARDOUR::HasTailTime</text>
</a>
</g>
</g>
<!-- Node6&#45;&gt;Node1 -->
<g id="edge5_Node000001_Node000006" class="edge">
<title>Node6&#45;&gt;Node1</title>
<g id="a_edge5_Node000001_Node000006"><a xlink:title=" ">
<path fill="none" stroke="#63b8ff" d="M257.83,-113.43C278.38,-118.44 301.97,-124.21 321.35,-128.94"/>
<polygon fill="#63b8ff" stroke="#63b8ff" points="258.56,-110 248.02,-111.03 256.9,-116.8 258.56,-110"/>
</a>
</g>
</g>
<!-- Node13 -->
<g id="Node000013" class="node">
<title>Node13</title>
<g id="a_Node000013"><a xlink:href="classARDOUR_1_1LXVSTPlugin.html" target="_top" xlink:title=" ">
<polygon fill="white" stroke="#666666" points="753,-93 627,-93 627,-74 753,-74 753,-93"/>
<text text-anchor="middle" x="690" y="-81" font-family="Helvetica,sans-Serif" font-size="10.00">ARDOUR::LXVSTPlugin</text>
</a>
</g>
</g>
<!-- Node12&#45;&gt;Node13 -->
<g id="edge12_Node000012_Node000013" class="edge">
<title>Node12&#45;&gt;Node13</title>
<g id="a_edge12_Node000012_Node000013"><a xlink:title=" ">
<path fill="none" stroke="#63b8ff" d="M566.73,-58.08C591.25,-63.18 619.72,-69.1 643.01,-73.94"/>
<polygon fill="#63b8ff" stroke="#63b8ff" points="567.34,-54.64 556.84,-56.03 565.92,-61.49 567.34,-54.64"/>
</a>
</g>
</g>
<!-- Node14 -->
<g id="Node000014" class="node">
<title>Node14</title>
<g id="a_Node000014"><a xlink:href="classARDOUR_1_1MacVSTPlugin.html" target="_top" xlink:title=" ">
<polygon fill="white" stroke="#666666" points="757,-56 623,-56 623,-37 757,-37 757,-56"/>
<text text-anchor="middle" x="690" y="-44" font-family="Helvetica,sans-Serif" font-size="10.00">ARDOUR::MacVSTPlugin</text>
</a>
</g>
</g>
<!-- Node12&#45;&gt;Node14 -->
<g id="edge13_Node000012_Node000014" class="edge">
<title>Node12&#45;&gt;Node14</title>
<g id="a_edge13_Node000012_Node000014"><a xlink:title=" ">
<path fill="none" stroke="#63b8ff" d="M577.42,-46.5C592.24,-46.5 607.97,-46.5 622.78,-46.5"/>
<polygon fill="#63b8ff" stroke="#63b8ff" points="577.32,-43 567.32,-46.5 577.32,-50 577.32,-43"/>
</a>
</g>
</g>
<!-- Node15 -->
<g id="Node000015" class="node">
<title>Node15</title>
<g id="a_Node000015"><a xlink:href="classARDOUR_1_1WindowsVSTPlugin.html" target="_top" xlink:title=" ">
<polygon fill="white" stroke="#666666" points="769,-19 611,-19 611,0 769,0 769,-19"/>
<text text-anchor="middle" x="690" y="-7" font-family="Helvetica,sans-Serif" font-size="10.00">ARDOUR::WindowsVSTPlugin</text>
</a>
</g>
</g>
<!-- Node12&#45;&gt;Node15 -->
<g id="edge14_Node000012_Node000015" class="edge">
<title>Node12&#45;&gt;Node15</title>
<g id="a_edge14_Node000012_Node000015"><a xlink:title=" ">
<path fill="none" stroke="#63b8ff" d="M566.73,-34.92C591.25,-29.82 619.72,-23.9 643.01,-19.06"/>
<polygon fill="#63b8ff" stroke="#63b8ff" points="565.92,-31.51 556.84,-36.97 567.34,-38.36 565.92,-31.51"/>
</a>
</g>
</g>
</g>
</svg>

<g id="navigator" transform="translate(0 0)" fill="#404254">
  <rect fill="#f2f5e9" fill-opacity="0.5" stroke="#606060" stroke-width=".5" x="0" y="0" width="60" height="60"/>
  <use id="zoomplus" xlink:href="#zoomPlus" x="17" y="9" onmousedown="handleZoom(evt,'in')"/>
  <use id="zoomminus" xlink:href="#zoomMin" x="42" y="9" onmousedown="handleZoom(evt,'out')"/>
  <use id="reset" xlink:href="#resetDef" x="30" y="36" onmousedown="handleReset()"/>
   <use id="arrowup" xlink:href="#arrowUp" x="0" y="0" onmousedown="handlePan(0,-1)"/>
  <use id="arrowright" xlink:href="#arrowRight" x="0" y="0" onmousedown="handlePan(1,0)"/>
  <use id="arrowdown" xlink:href="#arrowDown" x="0" y="0" onmousedown="handlePan(0,1)"/>
  <use id="arrowleft" xlink:href="#arrowLeft" x="0" y="0" onmousedown="handlePan(-1,0)"/>
</g>
<svg viewBox="0 0 15 15" width="100%" height="30px" preserveAspectRatio="xMaxYMin meet">
 <g id="arrow_out" transform="scale(0.3 0.3)">
  <a xlink:href="classARDOUR_1_1Plugin__inherit__graph_org.svg" target="_base">
   <rect id="button" ry="5" rx="5" y="6" x="6" height="38" width="38"
        fill="#f2f5e9" fill-opacity="0.5" stroke="#606060" stroke-width="1.0"/>
   <path id="arrow"
     d="M 11.500037,31.436501 C 11.940474,20.09759 22.043105,11.32322 32.158766,21.979434 L 37.068811,17.246167 C 37.068811,17.246167 37.088388,32 37.088388,32 L 22.160133,31.978069 C 22.160133,31.978069 26.997745,27.140456 26.997745,27.140456 C 18.528582,18.264221 13.291696,25.230495 11.500037,31.436501 z"
     style="fill:#404040;"/>
  </a>
 </g>
</svg>

<style type='text/css'>
<![CDATA[
[data-mouse-over-selected='false'] { opacity: 0.7; }
[data-mouse-over-selected='true']  { opacity: 1.0; }
]]>
</style>
<script type="application/ecmascript"><![CDATA[
document.addEventListener('DOMContentLoaded', (event) => {
  highlightEdges();
  highlightAdjacentNodes();
});
]]></script>
</svg>
