<?xml version="1.0" encoding="UTF-8" standalone="no"?>
<!DOCTYPE svg PUBLIC "-//W3C//DTD SVG 1.1//EN"
 "http://www.w3.org/Graphics/SVG/1.1/DTD/svg11.dtd">
<!-- Generated by graphviz version 2.43.0 (0)
 -->
<!-- Title: ARDOUR::Panner1in2out Pages: 1 -->
<svg width="258pt" height="137pt"
 viewBox="0.00 0.00 257.50 137.00" xmlns="http://www.w3.org/2000/svg" xmlns:xlink="http://www.w3.org/1999/xlink">
<g id="graph0" class="graph" transform="scale(1 1) rotate(0) translate(4 133)">
<title>ARDOUR::Panner1in2out</title>
<!-- Node1 -->
<g id="Node000001" class="node">
<title>Node1</title>
<g id="a_Node000001"><a xlink:title=" ">
<polygon fill="#999999" stroke="#666666" points="175,-19 40,-19 40,0 175,0 175,-19"/>
<text text-anchor="middle" x="107.5" y="-7" font-family="Helvetica,sans-Serif" font-size="10.00">ARDOUR::Panner1in2out</text>
</a>
</g>
</g>
<!-- Node2 -->
<g id="Node000002" class="node">
<title>Node2</title>
<g id="a_Node000002"><a xlink:href="classARDOUR_1_1Panner.html" target="_top" xlink:title=" ">
<polygon fill="white" stroke="#666666" points="156.5,-74 58.5,-74 58.5,-55 156.5,-55 156.5,-74"/>
<text text-anchor="middle" x="107.5" y="-62" font-family="Helvetica,sans-Serif" font-size="10.00">ARDOUR::Panner</text>
</a>
</g>
</g>
<!-- Node2&#45;&gt;Node1 -->
<g id="edge1_Node000001_Node000002" class="edge">
<title>Node2&#45;&gt;Node1</title>
<g id="a_edge1_Node000001_Node000002"><a xlink:title=" ">
<path fill="none" stroke="#63b8ff" d="M107.5,-44.66C107.5,-35.93 107.5,-25.99 107.5,-19.09"/>
<polygon fill="#63b8ff" stroke="#63b8ff" points="104,-44.75 107.5,-54.75 111,-44.75 104,-44.75"/>
</a>
</g>
</g>
<!-- Node3 -->
<g id="Node000003" class="node">
<title>Node3</title>
<g id="a_Node000003"><a xlink:href="classPBD_1_1Stateful.html" target="_top" xlink:title=" ">
<polygon fill="white" stroke="#666666" points="81,-129 0,-129 0,-110 81,-110 81,-129"/>
<text text-anchor="middle" x="40.5" y="-117" font-family="Helvetica,sans-Serif" font-size="10.00">PBD::Stateful</text>
</a>
</g>
</g>
<!-- Node3&#45;&gt;Node2 -->
<g id="edge2_Node000002_Node000003" class="edge">
<title>Node3&#45;&gt;Node2</title>
<g id="a_edge2_Node000002_Node000003"><a xlink:title=" ">
<path fill="none" stroke="#63b8ff" d="M59.33,-103.6C71.34,-94.11 86.47,-82.13 96.54,-74.17"/>
<polygon fill="#63b8ff" stroke="#63b8ff" points="56.94,-101.04 51.26,-109.98 61.28,-106.53 56.94,-101.04"/>
</a>
</g>
</g>
<!-- Node4 -->
<g id="Node000004" class="node">
<title>Node4</title>
<g id="a_Node000004"><a xlink:href="classPBD_1_1ScopedConnectionList.html" target="_top" xlink:title=" ">
<polygon fill="white" stroke="#666666" points="249.5,-129 99.5,-129 99.5,-110 249.5,-110 249.5,-129"/>
<text text-anchor="middle" x="174.5" y="-117" font-family="Helvetica,sans-Serif" font-size="10.00">PBD::ScopedConnectionList</text>
</a>
</g>
</g>
<!-- Node4&#45;&gt;Node2 -->
<g id="edge3_Node000002_Node000004" class="edge">
<title>Node4&#45;&gt;Node2</title>
<g id="a_edge3_Node000002_Node000004"><a xlink:title=" ">
<path fill="none" stroke="#63b8ff" d="M155.67,-103.6C143.66,-94.11 128.53,-82.13 118.46,-74.17"/>
<polygon fill="#63b8ff" stroke="#63b8ff" points="153.72,-106.53 163.74,-109.98 158.06,-101.04 153.72,-106.53"/>
</a>
</g>
</g>
</g>
</svg>
