<?xml version="1.0" encoding="UTF-8" standalone="no"?>
<!DOCTYPE svg PUBLIC "-//W3C//DTD SVG 1.1//EN"
 "http://www.w3.org/Graphics/SVG/1.1/DTD/svg11.dtd">
<!-- Generated by graphviz version 2.43.0 (0)
 -->
<!-- Title: OptionEditorWindow Pages: 1 -->
<!--zoomable 467 -->

<svg id="main" version="1.1" xmlns="http://www.w3.org/2000/svg" xmlns:xlink="http://www.w3.org/1999/xlink" xml:space="preserve" onload="init(evt)">
<style type="text/css"><![CDATA[
.node, .edge {opacity: 0.7;}
.node.selected, .edge.selected {opacity: 1;}
.edge:hover path { stroke: red; }
.edge:hover polygon { stroke: red; fill: red; }
]]></style>

<defs>
  <circle id="rim" cx="0" cy="0" r="7"/>
  <circle id="rim2" cx="0" cy="0" r="3.5"/>
  <g id="zoomPlus">
    <use xlink:href="#rim" fill="#404040"><set attributeName="fill" to="#808080" begin="zoomplus.mouseover" end="zoomplus.mouseout"/></use>
    <path d="M-4,0h8M0,-4v8" fill="none" stroke="white" stroke-width="1.5" pointer-events="none"/>
  </g>
  <g id="zoomMin">
    <use xlink:href="#rim" fill="#404040"><set attributeName="fill" to="#808080" begin="zoomminus.mouseover" end="zoomminus.mouseout"/></use>
    <path d="M-4,0h8" fill="none" stroke="white" stroke-width="1.5" pointer-events="none"/>
  </g>
  <g id="arrowUp" transform="translate(30 24)">
    <use xlink:href="#rim"/>
    <path pointer-events="none" fill="none" stroke="white" stroke-width="1.5" d="M0,-3.0v7 M-2.5,-0.5L0,-3.0L2.5,-0.5"/>
  </g>
  <g id="arrowRight" transform="rotate(90) translate(36 -43)">
    <use xlink:href="#rim"/>
    <path pointer-events="none" fill="none" stroke="white" stroke-width="1.5" d="M0,-3.0v7 M-2.5,-0.5L0,-3.0L2.5,-0.5"/>
  </g>
  <g id="arrowDown" transform="rotate(180) translate(-30 -48)">
    <use xlink:href="#rim"/>
    <path pointer-events="none" fill="none" stroke="white" stroke-width="1.5" d="M0,-3.0v7 M-2.5,-0.5L0,-3.0L2.5,-0.5"/>
  </g>
  <g id="arrowLeft" transform="rotate(270) translate(-36 17)">
    <use xlink:href="#rim"/>
    <path pointer-events="none" fill="none" stroke="white" stroke-width="1.5" d="M0,-3.0v7 M-2.5,-0.5L0,-3.0L2.5,-0.5"/>
  </g>
  <g id="resetDef">
    <use xlink:href="#rim2" fill="#404040"><set attributeName="fill" to="#808080" begin="reset.mouseover" end="reset.mouseout"/></use>
  </g>
</defs>
<script type="application/ecmascript">
var viewWidth = 449;
var viewHeight = 467;
var sectionId = 'dynsection-0';
</script>
<script type="application/ecmascript" xlink:href="svg.min.js"/>
<svg id="graph" class="graph">
<g id="viewport">
<title>OptionEditorWindow</title>
<!-- Node1 -->
<g id="Node000001" class="node">
<title>Node1</title>
<g id="a_Node000001"><a xlink:title=" ">
<polygon fill="#999999" stroke="#666666" points="168.5,-74 52.5,-74 52.5,-55 168.5,-55 168.5,-74"/>
<text text-anchor="middle" x="110.5" y="-62" font-family="Helvetica,sans-Serif" font-size="10.00">OptionEditorWindow</text>
</a>
</g>
</g>
<!-- Node13 -->
<g id="Node000013" class="node">
<title>Node13</title>
<g id="a_Node000013"><a xlink:href="classSessionOptionEditor.html" target="_top" xlink:title=" ">
<polygon fill="white" stroke="#666666" points="168,-19 53,-19 53,0 168,0 168,-19"/>
<text text-anchor="middle" x="110.5" y="-7" font-family="Helvetica,sans-Serif" font-size="10.00">SessionOptionEditor</text>
</a>
</g>
</g>
<!-- Node1&#45;&gt;Node13 -->
<g id="edge13_Node000001_Node000013" class="edge">
<title>Node1&#45;&gt;Node13</title>
<g id="a_edge13_Node000001_Node000013"><a xlink:title=" ">
<path fill="none" stroke="#63b8ff" d="M110.5,-44.66C110.5,-35.93 110.5,-25.99 110.5,-19.09"/>
<polygon fill="#63b8ff" stroke="#63b8ff" points="107,-44.75 110.5,-54.75 114,-44.75 107,-44.75"/>
</a>
</g>
</g>
<!-- Node2 -->
<g id="Node000002" class="node">
<title>Node2</title>
<g id="a_Node000002"><a xlink:href="classOptionEditor.html" target="_top" xlink:title=" ">
<polygon fill="white" stroke="#666666" points="99,-129 22,-129 22,-110 99,-110 99,-129"/>
<text text-anchor="middle" x="60.5" y="-117" font-family="Helvetica,sans-Serif" font-size="10.00">OptionEditor</text>
</a>
</g>
</g>
<!-- Node2&#45;&gt;Node1 -->
<g id="edge1_Node000001_Node000002" class="edge">
<title>Node2&#45;&gt;Node1</title>
<g id="a_edge1_Node000001_Node000002"><a xlink:title=" ">
<path fill="none" stroke="#63b8ff" d="M75.84,-102.24C84.6,-92.95 95.24,-81.68 102.4,-74.09"/>
<polygon fill="#63b8ff" stroke="#63b8ff" points="73.07,-100.07 68.76,-109.75 78.16,-104.88 73.07,-100.07"/>
</a>
</g>
</g>
<!-- Node3 -->
<g id="Node000003" class="node">
<title>Node3</title>
<g id="a_Node000003"><a xlink:title=" ">
<polygon fill="white" stroke="#666666" points="87,-239 0,-239 0,-220 87,-220 87,-239"/>
<text text-anchor="middle" x="43.5" y="-227" font-family="Helvetica,sans-Serif" font-size="10.00">sigc::trackable</text>
</a>
</g>
</g>
<!-- Node3&#45;&gt;Node2 -->
<g id="edge2_Node000002_Node000003" class="edge">
<title>Node3&#45;&gt;Node2</title>
<g id="a_edge2_Node000002_Node000003"><a xlink:title=" ">
<path fill="none" stroke="#63b8ff" d="M25.35,-212.58C13.24,-199.94 0.83,-181.67 8.5,-165 15.85,-149.03 32.09,-136.65 44.47,-129.05"/>
<polygon fill="#63b8ff" stroke="#63b8ff" points="23.05,-215.23 32.67,-219.67 27.92,-210.2 23.05,-215.23"/>
</a>
</g>
</g>
<!-- Node12 -->
<g id="Node000012" class="node">
<title>Node12</title>
<g id="a_Node000012"><a xlink:href="classGtkmm2ext_1_1VisibilityTracker.html" target="_top" xlink:title=" ">
<polygon fill="white" stroke="#666666" points="175.5,-184 17.5,-184 17.5,-165 175.5,-165 175.5,-184"/>
<text text-anchor="middle" x="96.5" y="-172" font-family="Helvetica,sans-Serif" font-size="10.00">Gtkmm2ext::VisibilityTracker</text>
</a>
</g>
</g>
<!-- Node3&#45;&gt;Node12 -->
<g id="edge12_Node000012_Node000003" class="edge">
<title>Node3&#45;&gt;Node12</title>
<g id="a_edge12_Node000012_Node000003"><a xlink:title=" ">
<path fill="none" stroke="#63b8ff" d="M59.48,-212.52C68.82,-203.18 80.25,-191.75 87.91,-184.09"/>
<polygon fill="#63b8ff" stroke="#63b8ff" points="56.85,-210.2 52.25,-219.75 61.8,-215.15 56.85,-210.2"/>
</a>
</g>
</g>
<!-- Node4 -->
<g id="Node000004" class="node">
<title>Node4</title>
<g id="a_Node000004"><a xlink:href="classArdourWindow.html" target="_top" xlink:title=" ">
<polygon fill="white" stroke="#666666" points="208.5,-129 120.5,-129 120.5,-110 208.5,-110 208.5,-129"/>
<text text-anchor="middle" x="164.5" y="-117" font-family="Helvetica,sans-Serif" font-size="10.00">ArdourWindow</text>
</a>
</g>
</g>
<!-- Node4&#45;&gt;Node1 -->
<g id="edge3_Node000001_Node000004" class="edge">
<title>Node4&#45;&gt;Node1</title>
<g id="a_edge3_Node000001_Node000004"><a xlink:title=" ">
<path fill="none" stroke="#63b8ff" d="M148.22,-102.52C138.7,-93.18 127.06,-81.75 119.25,-74.09"/>
<polygon fill="#63b8ff" stroke="#63b8ff" points="145.99,-105.24 155.58,-109.75 150.9,-100.25 145.99,-105.24"/>
</a>
</g>
</g>
<!-- Node5 -->
<g id="Node000005" class="node">
<title>Node5</title>
<g id="a_Node000005"><a xlink:href="classGtk_1_1Window.html" target="_top" xlink:title=" ">
<polygon fill="white" stroke="#666666" points="272,-184 193,-184 193,-165 272,-165 272,-184"/>
<text text-anchor="middle" x="232.5" y="-172" font-family="Helvetica,sans-Serif" font-size="10.00">Gtk::Window</text>
</a>
</g>
</g>
<!-- Node5&#45;&gt;Node4 -->
<g id="edge4_Node000004_Node000005" class="edge">
<title>Node5&#45;&gt;Node4</title>
<g id="a_edge4_Node000004_Node000005"><a xlink:title=" ">
<path fill="none" stroke="#63b8ff" d="M213.38,-158.6C201.2,-149.11 185.84,-137.13 175.62,-129.17"/>
<polygon fill="#63b8ff" stroke="#63b8ff" points="211.54,-161.6 221.57,-164.98 215.84,-156.08 211.54,-161.6"/>
</a>
</g>
</g>
<!-- Node6 -->
<g id="Node000006" class="node">
<title>Node6</title>
<g id="a_Node000006"><a xlink:href="classGtk_1_1Bin.html" target="_top" xlink:title=" ">
<polygon fill="white" stroke="#666666" points="260.5,-239 204.5,-239 204.5,-220 260.5,-220 260.5,-239"/>
<text text-anchor="middle" x="232.5" y="-227" font-family="Helvetica,sans-Serif" font-size="10.00">Gtk::Bin</text>
</a>
</g>
</g>
<!-- Node6&#45;&gt;Node5 -->
<g id="edge5_Node000005_Node000006" class="edge">
<title>Node6&#45;&gt;Node5</title>
<g id="a_edge5_Node000005_Node000006"><a xlink:title=" ">
<path fill="none" stroke="#63b8ff" d="M232.5,-209.66C232.5,-200.93 232.5,-190.99 232.5,-184.09"/>
<polygon fill="#63b8ff" stroke="#63b8ff" points="229,-209.75 232.5,-219.75 236,-209.75 229,-209.75"/>
</a>
</g>
</g>
<!-- Node7 -->
<g id="Node000007" class="node">
<title>Node7</title>
<g id="a_Node000007"><a xlink:href="classGtk_1_1Container.html" target="_top" xlink:title=" ">
<polygon fill="white" stroke="#666666" points="276,-294 189,-294 189,-275 276,-275 276,-294"/>
<text text-anchor="middle" x="232.5" y="-282" font-family="Helvetica,sans-Serif" font-size="10.00">Gtk::Container</text>
</a>
</g>
</g>
<!-- Node7&#45;&gt;Node6 -->
<g id="edge6_Node000006_Node000007" class="edge">
<title>Node7&#45;&gt;Node6</title>
<g id="a_edge6_Node000006_Node000007"><a xlink:title=" ">
<path fill="none" stroke="#63b8ff" d="M232.5,-264.66C232.5,-255.93 232.5,-245.99 232.5,-239.09"/>
<polygon fill="#63b8ff" stroke="#63b8ff" points="229,-264.75 232.5,-274.75 236,-264.75 229,-264.75"/>
</a>
</g>
</g>
<!-- Node8 -->
<g id="Node000008" class="node">
<title>Node8</title>
<g id="a_Node000008"><a xlink:href="classGtk_1_1Widget.html" target="_top" xlink:title=" ">
<polygon fill="white" stroke="#666666" points="269.5,-349 195.5,-349 195.5,-330 269.5,-330 269.5,-349"/>
<text text-anchor="middle" x="232.5" y="-337" font-family="Helvetica,sans-Serif" font-size="10.00">Gtk::Widget</text>
</a>
</g>
</g>
<!-- Node8&#45;&gt;Node7 -->
<g id="edge7_Node000007_Node000008" class="edge">
<title>Node8&#45;&gt;Node7</title>
<g id="a_edge7_Node000007_Node000008"><a xlink:title=" ">
<path fill="none" stroke="#63b8ff" d="M232.5,-319.66C232.5,-310.93 232.5,-300.99 232.5,-294.09"/>
<polygon fill="#63b8ff" stroke="#63b8ff" points="229,-319.75 232.5,-329.75 236,-319.75 229,-319.75"/>
</a>
</g>
</g>
<!-- Node9 -->
<g id="Node000009" class="node">
<title>Node9</title>
<g id="a_Node000009"><a xlink:href="classGtk_1_1Object.html" target="_top" xlink:title=" ">
<polygon fill="white" stroke="#666666" points="268,-404 197,-404 197,-385 268,-385 268,-404"/>
<text text-anchor="middle" x="232.5" y="-392" font-family="Helvetica,sans-Serif" font-size="10.00">Gtk::Object</text>
</a>
</g>
</g>
<!-- Node9&#45;&gt;Node8 -->
<g id="edge8_Node000008_Node000009" class="edge">
<title>Node9&#45;&gt;Node8</title>
<g id="a_edge8_Node000008_Node000009"><a xlink:title=" ">
<path fill="none" stroke="#63b8ff" d="M232.5,-374.66C232.5,-365.93 232.5,-355.99 232.5,-349.09"/>
<polygon fill="#63b8ff" stroke="#63b8ff" points="229,-374.75 232.5,-384.75 236,-374.75 229,-374.75"/>
</a>
</g>
</g>
<!-- Node10 -->
<g id="Node000010" class="node">
<title>Node10</title>
<g id="a_Node000010"><a xlink:title=" ">
<polygon fill="white" stroke="#666666" points="269.5,-459 195.5,-459 195.5,-440 269.5,-440 269.5,-459"/>
<text text-anchor="middle" x="232.5" y="-447" font-family="Helvetica,sans-Serif" font-size="10.00">Glib::Object</text>
</a>
</g>
</g>
<!-- Node10&#45;&gt;Node9 -->
<g id="edge9_Node000009_Node000010" class="edge">
<title>Node10&#45;&gt;Node9</title>
<g id="a_edge9_Node000009_Node000010"><a xlink:title=" ">
<path fill="none" stroke="#63b8ff" d="M232.5,-429.66C232.5,-420.93 232.5,-410.99 232.5,-404.09"/>
<polygon fill="#63b8ff" stroke="#63b8ff" points="229,-429.75 232.5,-439.75 236,-429.75 229,-429.75"/>
</a>
</g>
</g>
<!-- Node11 -->
<g id="Node000011" class="node">
<title>Node11</title>
<g id="a_Node000011"><a xlink:href="classARDOUR_1_1SessionHandlePtr.html" target="_top" xlink:title=" ">
<polygon fill="white" stroke="#666666" points="441,-184 290,-184 290,-165 441,-165 441,-184"/>
<text text-anchor="middle" x="365.5" y="-172" font-family="Helvetica,sans-Serif" font-size="10.00">ARDOUR::SessionHandlePtr</text>
</a>
</g>
</g>
<!-- Node11&#45;&gt;Node4 -->
<g id="edge10_Node000004_Node000011" class="edge">
<title>Node11&#45;&gt;Node4</title>
<g id="a_edge10_Node000004_Node000011"><a xlink:title=" ">
<path fill="none" stroke="#63b8ff" d="M323.07,-162.31C285.46,-152.39 231.33,-138.12 197.05,-129.08"/>
<polygon fill="#63b8ff" stroke="#63b8ff" points="322.64,-165.82 333.21,-164.98 324.43,-159.05 322.64,-165.82"/>
</a>
</g>
</g>
<!-- Node12&#45;&gt;Node4 -->
<g id="edge11_Node000004_Node000012" class="edge">
<title>Node12&#45;&gt;Node4</title>
<g id="a_edge11_Node000004_Node000012"><a xlink:title=" ">
<path fill="none" stroke="#63b8ff" d="M115.62,-158.6C127.8,-149.11 143.16,-137.13 153.38,-129.17"/>
<polygon fill="#63b8ff" stroke="#63b8ff" points="113.16,-156.08 107.43,-164.98 117.46,-161.6 113.16,-156.08"/>
</a>
</g>
</g>
</g>
</svg>

<g id="navigator" transform="translate(0 0)" fill="#404254">
  <rect fill="#f2f5e9" fill-opacity="0.5" stroke="#606060" stroke-width=".5" x="0" y="0" width="60" height="60"/>
  <use id="zoomplus" xlink:href="#zoomPlus" x="17" y="9" onmousedown="handleZoom(evt,'in')"/>
  <use id="zoomminus" xlink:href="#zoomMin" x="42" y="9" onmousedown="handleZoom(evt,'out')"/>
  <use id="reset" xlink:href="#resetDef" x="30" y="36" onmousedown="handleReset()"/>
   <use id="arrowup" xlink:href="#arrowUp" x="0" y="0" onmousedown="handlePan(0,-1)"/>
  <use id="arrowright" xlink:href="#arrowRight" x="0" y="0" onmousedown="handlePan(1,0)"/>
  <use id="arrowdown" xlink:href="#arrowDown" x="0" y="0" onmousedown="handlePan(0,1)"/>
  <use id="arrowleft" xlink:href="#arrowLeft" x="0" y="0" onmousedown="handlePan(-1,0)"/>
</g>
<svg viewBox="0 0 15 15" width="100%" height="30px" preserveAspectRatio="xMaxYMin meet">
 <g id="arrow_out" transform="scale(0.3 0.3)">
  <a xlink:href="classOptionEditorWindow__inherit__graph_org.svg" target="_base">
   <rect id="button" ry="5" rx="5" y="6" x="6" height="38" width="38"
        fill="#f2f5e9" fill-opacity="0.5" stroke="#606060" stroke-width="1.0"/>
   <path id="arrow"
     d="M 11.500037,31.436501 C 11.940474,20.09759 22.043105,11.32322 32.158766,21.979434 L 37.068811,17.246167 C 37.068811,17.246167 37.088388,32 37.088388,32 L 22.160133,31.978069 C 22.160133,31.978069 26.997745,27.140456 26.997745,27.140456 C 18.528582,18.264221 13.291696,25.230495 11.500037,31.436501 z"
     style="fill:#404040;"/>
  </a>
 </g>
</svg>

<style type='text/css'>
<![CDATA[
[data-mouse-over-selected='false'] { opacity: 0.7; }
[data-mouse-over-selected='true']  { opacity: 1.0; }
]]>
</style>
<script type="application/ecmascript"><![CDATA[
document.addEventListener('DOMContentLoaded', (event) => {
  highlightEdges();
  highlightAdjacentNodes();
});
]]></script>
</svg>
