<?xml version="1.0" encoding="UTF-8" standalone="no"?>
<!DOCTYPE svg PUBLIC "-//W3C//DTD SVG 1.1//EN"
 "http://www.w3.org/Graphics/SVG/1.1/DTD/svg11.dtd">
<!-- Generated by graphviz version 2.43.0 (0)
 -->
<!-- Title: ARDOUR::TransportMaster Pages: 1 -->
<svg width="676pt" height="160pt"
 viewBox="0.00 0.00 676.00 159.50" xmlns="http://www.w3.org/2000/svg" xmlns:xlink="http://www.w3.org/1999/xlink">
<g id="graph0" class="graph" transform="scale(1 1) rotate(0) translate(4 155.5)">
<title>ARDOUR::TransportMaster</title>
<!-- Node1 -->
<g id="Node000001" class="node">
<title>Node1</title>
<g id="a_Node000001"><a xlink:title="The TransportMaster interface can be used to sync ARDOURs tempo to an external source like MTC,...">
<polygon fill="#999999" stroke="#666666" points="261,-98 117,-98 117,-79 261,-79 261,-98"/>
<text text-anchor="middle" x="189" y="-86" font-family="Helvetica,sans-Serif" font-size="10.00">ARDOUR::TransportMaster</text>
</a>
</g>
</g>
<!-- Node3 -->
<g id="Node000003" class="node">
<title>Node3</title>
<g id="a_Node000003"><a xlink:href="classARDOUR_1_1Engine__TransportMaster.html" target="_top" xlink:title=" ">
<polygon fill="white" stroke="#666666" points="454,-151.5 305,-151.5 305,-121.5 454,-121.5 454,-151.5"/>
<text text-anchor="start" x="313" y="-139.5" font-family="Helvetica,sans-Serif" font-size="10.00">ARDOUR::Engine_Transport</text>
<text text-anchor="middle" x="379.5" y="-128.5" font-family="Helvetica,sans-Serif" font-size="10.00">Master</text>
</a>
</g>
</g>
<!-- Node1&#45;&gt;Node3 -->
<g id="edge2_Node000001_Node000003" class="edge">
<title>Node1&#45;&gt;Node3</title>
<g id="a_edge2_Node000001_Node000003"><a xlink:title=" ">
<path fill="none" stroke="#63b8ff" d="M237.6,-100.62C262.42,-106.94 293.01,-114.73 319.35,-121.44"/>
<polygon fill="#63b8ff" stroke="#63b8ff" points="238.25,-97.17 227.69,-98.1 236.52,-103.96 238.25,-97.17"/>
</a>
</g>
</g>
<!-- Node4 -->
<g id="Node000004" class="node">
<title>Node4</title>
<g id="a_Node000004"><a xlink:href="classARDOUR_1_1MIDIClock__TransportMaster.html" target="_top" xlink:title=" ">
<polygon fill="white" stroke="#666666" points="462,-103.5 297,-103.5 297,-73.5 462,-73.5 462,-103.5"/>
<text text-anchor="start" x="305" y="-91.5" font-family="Helvetica,sans-Serif" font-size="10.00">ARDOUR::MIDIClock_Transport</text>
<text text-anchor="middle" x="379.5" y="-80.5" font-family="Helvetica,sans-Serif" font-size="10.00">Master</text>
</a>
</g>
</g>
<!-- Node1&#45;&gt;Node4 -->
<g id="edge3_Node000001_Node000004" class="edge">
<title>Node1&#45;&gt;Node4</title>
<g id="a_edge3_Node000001_Node000004"><a xlink:title=" ">
<path fill="none" stroke="#63b8ff" d="M271.4,-88.5C279.79,-88.5 288.31,-88.5 296.7,-88.5"/>
<polygon fill="#63b8ff" stroke="#63b8ff" points="271.26,-85 261.26,-88.5 271.26,-92 271.26,-85"/>
</a>
</g>
</g>
<!-- Node6 -->
<g id="Node000006" class="node">
<title>Node6</title>
<g id="a_Node000006"><a xlink:href="classARDOUR_1_1TimecodeTransportMaster.html" target="_top" xlink:title=" ">
<polygon fill="white" stroke="#666666" points="458.5,-55.5 300.5,-55.5 300.5,-25.5 458.5,-25.5 458.5,-55.5"/>
<text text-anchor="start" x="308.5" y="-43.5" font-family="Helvetica,sans-Serif" font-size="10.00">ARDOUR::TimecodeTransport</text>
<text text-anchor="middle" x="379.5" y="-32.5" font-family="Helvetica,sans-Serif" font-size="10.00">Master</text>
</a>
</g>
</g>
<!-- Node1&#45;&gt;Node6 -->
<g id="edge5_Node000001_Node000006" class="edge">
<title>Node1&#45;&gt;Node6</title>
<g id="a_edge5_Node000001_Node000006"><a xlink:title=" ">
<path fill="none" stroke="#63b8ff" d="M237.6,-76.38C262.42,-70.06 293.01,-62.27 319.35,-55.56"/>
<polygon fill="#63b8ff" stroke="#63b8ff" points="236.52,-73.04 227.69,-78.9 238.25,-79.83 236.52,-73.04"/>
</a>
</g>
</g>
<!-- Node2 -->
<g id="Node000002" class="node">
<title>Node2</title>
<g id="a_Node000002"><a xlink:href="classPBD_1_1Stateful.html" target="_top" xlink:title=" ">
<polygon fill="white" stroke="#666666" points="81,-98 0,-98 0,-79 81,-79 81,-98"/>
<text text-anchor="middle" x="40.5" y="-86" font-family="Helvetica,sans-Serif" font-size="10.00">PBD::Stateful</text>
</a>
</g>
</g>
<!-- Node2&#45;&gt;Node1 -->
<g id="edge1_Node000001_Node000002" class="edge">
<title>Node2&#45;&gt;Node1</title>
<g id="a_edge1_Node000001_Node000002"><a xlink:title=" ">
<path fill="none" stroke="#63b8ff" d="M91.34,-88.5C99.61,-88.5 108.32,-88.5 116.99,-88.5"/>
<polygon fill="#63b8ff" stroke="#63b8ff" points="91.15,-85 81.15,-88.5 91.14,-92 91.15,-85"/>
</a>
</g>
</g>
<!-- Node5 -->
<g id="Node000005" class="node">
<title>Node5</title>
<g id="a_Node000005"><a xlink:href="classARDOUR_1_1MclkTestMaster.html" target="_top" xlink:title=" ">
<polygon fill="white" stroke="#666666" points="654,-98 512,-98 512,-79 654,-79 654,-98"/>
<text text-anchor="middle" x="583" y="-86" font-family="Helvetica,sans-Serif" font-size="10.00">ARDOUR::MclkTestMaster</text>
</a>
</g>
</g>
<!-- Node4&#45;&gt;Node5 -->
<g id="edge4_Node000004_Node000005" class="edge">
<title>Node4&#45;&gt;Node5</title>
<g id="a_edge4_Node000004_Node000005"><a xlink:title=" ">
<path fill="none" stroke="#63b8ff" d="M472.28,-88.5C485.57,-88.5 499.08,-88.5 511.86,-88.5"/>
<polygon fill="#63b8ff" stroke="#63b8ff" points="472.17,-85 462.17,-88.5 472.17,-92 472.17,-85"/>
</a>
</g>
</g>
<!-- Node7 -->
<g id="Node000007" class="node">
<title>Node7</title>
<g id="a_Node000007"><a xlink:href="classARDOUR_1_1LTC__TransportMaster.html" target="_top" xlink:title=" ">
<polygon fill="white" stroke="#666666" points="666,-56 500,-56 500,-37 666,-37 666,-56"/>
<text text-anchor="middle" x="583" y="-44" font-family="Helvetica,sans-Serif" font-size="10.00">ARDOUR::LTC_TransportMaster</text>
</a>
</g>
</g>
<!-- Node6&#45;&gt;Node7 -->
<g id="edge6_Node000006_Node000007" class="edge">
<title>Node6&#45;&gt;Node7</title>
<g id="a_edge6_Node000006_Node000007"><a xlink:title=" ">
<path fill="none" stroke="#63b8ff" d="M468.91,-43.13C479.19,-43.44 489.65,-43.75 499.85,-44.05"/>
<polygon fill="#63b8ff" stroke="#63b8ff" points="468.79,-39.63 458.69,-42.83 468.58,-46.62 468.79,-39.63"/>
</a>
</g>
</g>
<!-- Node8 -->
<g id="Node000008" class="node">
<title>Node8</title>
<g id="a_Node000008"><a xlink:href="classARDOUR_1_1MTC__TransportMaster.html" target="_top" xlink:title=" ">
<polygon fill="white" stroke="#666666" points="668,-19 498,-19 498,0 668,0 668,-19"/>
<text text-anchor="middle" x="583" y="-7" font-family="Helvetica,sans-Serif" font-size="10.00">ARDOUR::MTC_TransportMaster</text>
</a>
</g>
</g>
<!-- Node6&#45;&gt;Node8 -->
<g id="edge7_Node000006_Node000008" class="edge">
<title>Node6&#45;&gt;Node8</title>
<g id="a_edge7_Node000006_Node000008"><a xlink:title=" ">
<path fill="none" stroke="#63b8ff" d="M468.8,-26.92C486.09,-24.26 503.88,-21.52 520.08,-19.03"/>
<polygon fill="#63b8ff" stroke="#63b8ff" points="468.05,-23.49 458.69,-28.47 469.11,-30.41 468.05,-23.49"/>
</a>
</g>
</g>
</g>
</svg>
