<?xml version="1.0" encoding="UTF-8" standalone="no"?>
<!DOCTYPE svg PUBLIC "-//W3C//DTD SVG 1.1//EN"
 "http://www.w3.org/Graphics/SVG/1.1/DTD/svg11.dtd">
<!-- Generated by graphviz version 2.43.0 (0)
 -->
<!-- Title: Evoral::ControlSet Pages: 1 -->
<svg width="1577pt" height="693pt"
 viewBox="0.00 0.00 1577.00 693.00" xmlns="http://www.w3.org/2000/svg" xmlns:xlink="http://www.w3.org/1999/xlink">
<g id="graph0" class="graph" transform="scale(1 1) rotate(0) translate(4 689)">
<title>Evoral::ControlSet</title>
<!-- Node1 -->
<g id="Node000001" class="node">
<title>Node1</title>
<g id="a_Node000001"><a xlink:title=" ">
<polygon fill="#999999" stroke="#666666" points="451,-342 347,-342 347,-323 451,-323 451,-342"/>
<text text-anchor="middle" x="399" y="-330" font-family="Helvetica,sans-Serif" font-size="10.00">Evoral::ControlSet</text>
</a>
</g>
</g>
<!-- Node5 -->
<g id="Node000005" class="node">
<title>Node5</title>
<g id="a_Node000005"><a xlink:href="classEvoral_1_1Sequence.html" target="_top" xlink:title=" ">
<polygon fill="white" stroke="#666666" points="630,-389 501,-389 501,-370 630,-370 630,-389"/>
<text text-anchor="middle" x="565.5" y="-377" font-family="Helvetica,sans-Serif" font-size="10.00">Evoral::Sequence&lt; T &gt;</text>
</a>
</g>
</g>
<!-- Node1&#45;&gt;Node5 -->
<g id="edge4_Node000001_Node000005" class="edge">
<title>Node1&#45;&gt;Node5</title>
<g id="a_edge4_Node000001_Node000005"><a xlink:title=" ">
<path fill="none" stroke="#63b8ff" d="M443.03,-344.79C470.5,-352.64 505.58,-362.67 530.98,-369.92"/>
<polygon fill="#63b8ff" stroke="#63b8ff" points="443.87,-341.39 433.29,-342.01 441.94,-348.12 443.87,-341.39"/>
</a>
</g>
</g>
<!-- Node7 -->
<g id="Node000007" class="node">
<title>Node7</title>
<g id="a_Node000007"><a xlink:href="classEvoral_1_1Sequence.html" target="_top" xlink:title=" ">
<polygon fill="white" stroke="#666666" points="644,-184.5 487,-184.5 487,-154.5 644,-154.5 644,-184.5"/>
<text text-anchor="start" x="495" y="-172.5" font-family="Helvetica,sans-Serif" font-size="10.00">Evoral::Sequence&lt; Temporal</text>
<text text-anchor="middle" x="565.5" y="-161.5" font-family="Helvetica,sans-Serif" font-size="10.00">::Beats &gt;</text>
</a>
</g>
</g>
<!-- Node1&#45;&gt;Node7 -->
<g id="edge6_Node000001_Node000007" class="edge">
<title>Node1&#45;&gt;Node7</title>
<g id="a_edge6_Node000001_Node000007"><a xlink:title=" ">
<path fill="none" stroke="#63b8ff" d="M407.03,-313.02C418.86,-282.94 445.61,-225.36 487,-193.5 491.46,-190.06 496.43,-187.12 501.62,-184.59"/>
<polygon fill="#63b8ff" stroke="#63b8ff" points="403.61,-312.17 403.34,-322.76 410.15,-314.64 403.61,-312.17"/>
</a>
</g>
</g>
<!-- Node8 -->
<g id="Node000008" class="node">
<title>Node8</title>
<g id="a_Node000008"><a xlink:href="classARDOUR_1_1Automatable.html" target="_top" xlink:title=" ">
<polygon fill="white" stroke="#666666" points="629.5,-342 501.5,-342 501.5,-323 629.5,-323 629.5,-342"/>
<text text-anchor="middle" x="565.5" y="-330" font-family="Helvetica,sans-Serif" font-size="10.00">ARDOUR::Automatable</text>
</a>
</g>
</g>
<!-- Node1&#45;&gt;Node8 -->
<g id="edge7_Node000001_Node000008" class="edge">
<title>Node1&#45;&gt;Node8</title>
<g id="a_edge7_Node000001_Node000008"><a xlink:title=" ">
<path fill="none" stroke="#63b8ff" d="M461.39,-332.5C474.39,-332.5 488.14,-332.5 501.21,-332.5"/>
<polygon fill="#63b8ff" stroke="#63b8ff" points="461.15,-329 451.15,-332.5 461.15,-336 461.15,-329"/>
</a>
</g>
</g>
<!-- Node46 -->
<g id="Node000046" class="node">
<title>Node46</title>
<g id="a_Node000046"><a xlink:href="classARDOUR_1_1PlugInsertBase.html" target="_top" xlink:title=" ">
<polygon fill="white" stroke="#666666" points="634.5,-222 496.5,-222 496.5,-203 634.5,-203 634.5,-222"/>
<text text-anchor="middle" x="565.5" y="-210" font-family="Helvetica,sans-Serif" font-size="10.00">ARDOUR::PlugInsertBase</text>
</a>
</g>
</g>
<!-- Node1&#45;&gt;Node46 -->
<g id="edge46_Node000001_Node000046" class="edge">
<title>Node1&#45;&gt;Node46</title>
<g id="a_edge46_Node000001_Node000046"><a xlink:title=" ">
<path fill="none" stroke="#63b8ff" d="M421.63,-316.72C456.21,-291.49 522.92,-242.83 551.25,-222.16"/>
<polygon fill="#63b8ff" stroke="#63b8ff" points="419.2,-314.16 413.18,-322.88 423.33,-319.82 419.2,-314.16"/>
</a>
</g>
</g>
<!-- Node49 -->
<g id="Node000049" class="node">
<title>Node49</title>
<g id="a_Node000049"><a xlink:href="classEvoral_1_1Sequence.html" target="_top" xlink:title=" ">
<polygon fill="white" stroke="#666666" points="639.5,-582 491.5,-582 491.5,-563 639.5,-563 639.5,-582"/>
<text text-anchor="middle" x="565.5" y="-570" font-family="Helvetica,sans-Serif" font-size="10.00">Evoral::Sequence&lt; Time &gt;</text>
</a>
</g>
</g>
<!-- Node1&#45;&gt;Node49 -->
<g id="edge50_Node000001_Node000049" class="edge">
<title>Node1&#45;&gt;Node49</title>
<g id="a_edge50_Node000001_Node000049"><a xlink:title=" ">
<path fill="none" stroke="#63b8ff" d="M412.44,-350.65C445.23,-398.49 533.2,-526.84 557.95,-562.94"/>
<polygon fill="#63b8ff" stroke="#63b8ff" points="415.19,-348.48 406.65,-342.21 409.42,-352.43 415.19,-348.48"/>
</a>
</g>
</g>
<!-- Node2 -->
<g id="Node000002" class="node">
<title>Node2</title>
<g id="a_Node000002"><a xlink:title=" ">
<polygon fill="white" stroke="#666666" points="280.5,-361 168.5,-361 168.5,-342 280.5,-342 280.5,-361"/>
<text text-anchor="middle" x="224.5" y="-349" font-family="Helvetica,sans-Serif" font-size="10.00">boost::noncopyable</text>
</a>
</g>
</g>
<!-- Node2&#45;&gt;Node1 -->
<g id="edge1_Node000001_Node000002" class="edge">
<title>Node2&#45;&gt;Node1</title>
<g id="a_edge1_Node000001_Node000002"><a xlink:title=" ">
<path fill="none" stroke="#63b8ff" d="M290.73,-344.32C309.34,-342.27 329.35,-340.06 346.98,-338.12"/>
<polygon fill="#63b8ff" stroke="#63b8ff" points="290.11,-340.86 280.55,-345.44 290.88,-347.82 290.11,-340.86"/>
</a>
</g>
</g>
<!-- Node3 -->
<g id="Node000003" class="node">
<title>Node3</title>
<g id="a_Node000003"><a xlink:href="structTemporal_1_1TimeDomainSwapper.html" target="_top" xlink:title=" ">
<polygon fill="white" stroke="#666666" points="311,-324 138,-324 138,-305 311,-305 311,-324"/>
<text text-anchor="middle" x="224.5" y="-312" font-family="Helvetica,sans-Serif" font-size="10.00">Temporal::TimeDomainSwapper</text>
</a>
</g>
</g>
<!-- Node3&#45;&gt;Node1 -->
<g id="edge2_Node000001_Node000003" class="edge">
<title>Node3&#45;&gt;Node1</title>
<g id="a_edge2_Node000001_Node000003"><a xlink:title=" ">
<path fill="none" stroke="#63b8ff" d="M321.22,-324.49C330.02,-325.41 338.68,-326.31 346.84,-327.16"/>
<polygon fill="#63b8ff" stroke="#63b8ff" points="321.55,-321 311.24,-323.45 320.83,-327.97 321.55,-321"/>
</a>
</g>
</g>
<!-- Node4 -->
<g id="Node000004" class="node">
<title>Node4</title>
<g id="a_Node000004"><a xlink:href="classPBD_1_1Destructible.html" target="_top" xlink:title=" ">
<polygon fill="white" stroke="#666666" points="102,-324 0,-324 0,-305 102,-305 102,-324"/>
<text text-anchor="middle" x="51" y="-312" font-family="Helvetica,sans-Serif" font-size="10.00">PBD::Destructible</text>
</a>
</g>
</g>
<!-- Node4&#45;&gt;Node3 -->
<g id="edge3_Node000003_Node000004" class="edge">
<title>Node4&#45;&gt;Node3</title>
<g id="a_edge3_Node000003_Node000004"><a xlink:title=" ">
<path fill="none" stroke="#63b8ff" d="M112.07,-314.5C120.43,-314.5 129.16,-314.5 137.88,-314.5"/>
<polygon fill="#63b8ff" stroke="#63b8ff" points="112.07,-311 102.07,-314.5 112.07,-318 112.07,-311"/>
</a>
</g>
</g>
<!-- Node6 -->
<g id="Node000006" class="node">
<title>Node6</title>
<g id="a_Node000006"><a xlink:href="classARDOUR_1_1AutomatableSequence.html" target="_top" xlink:title=" ">
<polygon fill="white" stroke="#666666" points="884,-407 680,-407 680,-388 884,-388 884,-407"/>
<text text-anchor="middle" x="782" y="-395" font-family="Helvetica,sans-Serif" font-size="10.00">ARDOUR::AutomatableSequence&lt; T &gt;</text>
</a>
</g>
</g>
<!-- Node5&#45;&gt;Node6 -->
<g id="edge5_Node000005_Node000006" class="edge">
<title>Node5&#45;&gt;Node6</title>
<g id="a_edge5_Node000005_Node000006"><a xlink:title=" ">
<path fill="none" stroke="#63b8ff" d="M640.3,-385.69C653.01,-386.76 666.42,-387.88 679.7,-389"/>
<polygon fill="#63b8ff" stroke="#63b8ff" points="640.53,-382.2 630.28,-384.85 639.95,-389.18 640.53,-382.2"/>
</a>
</g>
</g>
<!-- Node8&#45;&gt;Node6 -->
<g id="edge11_Node000008_Node000006" class="edge">
<title>Node8&#45;&gt;Node6</title>
<g id="a_edge11_Node000008_Node000006"><a xlink:title=" ">
<path fill="none" stroke="#63b8ff" d="M605.21,-345.48C617.71,-349.94 631.55,-355.16 644,-360.5 660.44,-367.55 663.05,-372.79 680,-378.5 691.33,-382.31 703.65,-385.43 715.66,-387.96"/>
<polygon fill="#63b8ff" stroke="#63b8ff" points="606.11,-342.09 595.52,-342.08 603.8,-348.7 606.11,-342.09"/>
</a>
</g>
</g>
<!-- Node9 -->
<g id="Node000009" class="node">
<title>Node9</title>
<g id="a_Node000009"><a xlink:href="classARDOUR_1_1AutomatableSequence.html" target="_top" xlink:title=" ">
<polygon fill="white" stroke="#666666" points="870,-563.5 694,-563.5 694,-533.5 870,-533.5 870,-563.5"/>
<text text-anchor="start" x="702" y="-551.5" font-family="Helvetica,sans-Serif" font-size="10.00">ARDOUR::AutomatableSequence</text>
<text text-anchor="middle" x="782" y="-540.5" font-family="Helvetica,sans-Serif" font-size="10.00">&lt; Temporal::Beats &gt;</text>
</a>
</g>
</g>
<!-- Node8&#45;&gt;Node9 -->
<g id="edge8_Node000008_Node000009" class="edge">
<title>Node8&#45;&gt;Node9</title>
<g id="a_edge8_Node000008_Node000009"><a xlink:title=" ">
<path fill="none" stroke="#63b8ff" d="M617.45,-345.57C626.86,-349.42 636.17,-354.31 644,-360.5 666.92,-378.62 663.16,-391.63 680,-415.5 710.76,-459.09 749.48,-508.73 768.83,-533.2"/>
<polygon fill="#63b8ff" stroke="#63b8ff" points="618.65,-342.28 608.05,-342.06 616.2,-348.84 618.65,-342.28"/>
</a>
</g>
</g>
<!-- Node12 -->
<g id="Node000012" class="node">
<title>Node12</title>
<g id="a_Node000012"><a xlink:href="classARDOUR_1_1Pannable.html" target="_top" xlink:title=" ">
<polygon fill="white" stroke="#666666" points="837,-259 727,-259 727,-240 837,-240 837,-259"/>
<text text-anchor="middle" x="782" y="-247" font-family="Helvetica,sans-Serif" font-size="10.00">ARDOUR::Pannable</text>
</a>
</g>
</g>
<!-- Node8&#45;&gt;Node12 -->
<g id="edge12_Node000008_Node000012" class="edge">
<title>Node8&#45;&gt;Node12</title>
<g id="a_edge12_Node000008_Node000012"><a xlink:title=" ">
<path fill="none" stroke="#63b8ff" d="M588.02,-317.15C610.07,-302.18 645.86,-279.89 680,-267.5 694.82,-262.12 711.46,-258.31 726.9,-255.63"/>
<polygon fill="#63b8ff" stroke="#63b8ff" points="585.97,-314.32 579.73,-322.88 589.95,-320.08 585.97,-314.32"/>
</a>
</g>
</g>
<!-- Node13 -->
<g id="Node000013" class="node">
<title>Node13</title>
<g id="a_Node000013"><a xlink:href="classARDOUR_1_1Processor.html" target="_top" xlink:title=" ">
<polygon fill="white" stroke="#666666" points="838.5,-333 725.5,-333 725.5,-314 838.5,-314 838.5,-333"/>
<text text-anchor="middle" x="782" y="-321" font-family="Helvetica,sans-Serif" font-size="10.00">ARDOUR::Processor</text>
</a>
</g>
</g>
<!-- Node8&#45;&gt;Node13 -->
<g id="edge13_Node000008_Node000013" class="edge">
<title>Node8&#45;&gt;Node13</title>
<g id="a_edge13_Node000008_Node000013"><a xlink:title=" ">
<path fill="none" stroke="#63b8ff" d="M639.82,-329.42C667.76,-328.25 699.12,-326.94 725.18,-325.84"/>
<polygon fill="#63b8ff" stroke="#63b8ff" points="639.54,-325.93 629.7,-329.85 639.83,-332.93 639.54,-325.93"/>
</a>
</g>
</g>
<!-- Node38 -->
<g id="Node000038" class="node">
<title>Node38</title>
<g id="a_Node000038"><a xlink:href="classARDOUR_1_1Stripable.html" target="_top" xlink:title=" ">
<polygon fill="white" stroke="#666666" points="836.5,-370 727.5,-370 727.5,-351 836.5,-351 836.5,-370"/>
<text text-anchor="middle" x="782" y="-358" font-family="Helvetica,sans-Serif" font-size="10.00">ARDOUR::Stripable</text>
</a>
</g>
</g>
<!-- Node8&#45;&gt;Node38 -->
<g id="edge38_Node000008_Node000038" class="edge">
<title>Node8&#45;&gt;Node38</title>
<g id="a_edge38_Node000008_Node000038"><a xlink:title=" ">
<path fill="none" stroke="#63b8ff" d="M639.69,-342.05C668.43,-345.81 700.81,-350.03 727.31,-353.49"/>
<polygon fill="#63b8ff" stroke="#63b8ff" points="640.07,-338.57 629.7,-340.75 639.16,-345.51 640.07,-338.57"/>
</a>
</g>
</g>
<!-- Node45 -->
<g id="Node000045" class="node">
<title>Node45</title>
<g id="a_Node000045"><a xlink:href="classARDOUR_1_1SurroundPannable.html" target="_top" xlink:title=" ">
<polygon fill="white" stroke="#666666" points="858.5,-296 705.5,-296 705.5,-277 858.5,-277 858.5,-296"/>
<text text-anchor="middle" x="782" y="-284" font-family="Helvetica,sans-Serif" font-size="10.00">ARDOUR::SurroundPannable</text>
</a>
</g>
</g>
<!-- Node8&#45;&gt;Node45 -->
<g id="edge45_Node000008_Node000045" class="edge">
<title>Node8&#45;&gt;Node45</title>
<g id="a_edge45_Node000008_Node000045"><a xlink:title=" ">
<path fill="none" stroke="#63b8ff" d="M612.41,-320.45C633.01,-315.23 657.65,-309.24 680,-304.5 694.11,-301.51 709.41,-298.6 723.72,-296.04"/>
<polygon fill="#63b8ff" stroke="#63b8ff" points="611.48,-317.07 602.65,-322.94 613.21,-323.86 611.48,-317.07"/>
</a>
</g>
</g>
<!-- Node10 -->
<g id="Node000010" class="node">
<title>Node10</title>
<g id="a_Node000010"><a xlink:href="classARDOUR_1_1MidiModel.html" target="_top" xlink:title=" ">
<polygon fill="white" stroke="#666666" points="1058,-685 942,-685 942,-666 1058,-666 1058,-685"/>
<text text-anchor="middle" x="1000" y="-673" font-family="Helvetica,sans-Serif" font-size="10.00">ARDOUR::MidiModel</text>
</a>
</g>
</g>
<!-- Node9&#45;&gt;Node10 -->
<g id="edge9_Node000009_Node000010" class="edge">
<title>Node9&#45;&gt;Node10</title>
<g id="a_edge9_Node000009_Node000010"><a xlink:title=" ">
<path fill="none" stroke="#63b8ff" d="M878.59,-568.36C880.46,-569.66 882.27,-571.03 884,-572.5 915.33,-598.98 888.54,-631.16 920,-657.5 926.36,-662.83 933.99,-666.66 941.96,-669.39"/>
<polygon fill="#63b8ff" stroke="#63b8ff" points="880.39,-565.36 870.03,-563.17 876.77,-571.35 880.39,-565.36"/>
</a>
</g>
</g>
<!-- Node11 -->
<g id="Node000011" class="node">
<title>Node11</title>
<g id="a_Node000011"><a xlink:href="classMidiCutBuffer.html" target="_top" xlink:title=" ">
<polygon fill="white" stroke="#666666" points="1041.5,-648 958.5,-648 958.5,-629 1041.5,-629 1041.5,-648"/>
<text text-anchor="middle" x="1000" y="-636" font-family="Helvetica,sans-Serif" font-size="10.00">MidiCutBuffer</text>
</a>
</g>
</g>
<!-- Node9&#45;&gt;Node11 -->
<g id="edge10_Node000009_Node000011" class="edge">
<title>Node9&#45;&gt;Node11</title>
<g id="a_edge10_Node000009_Node000011"><a xlink:title=" ">
<path fill="none" stroke="#63b8ff" d="M876.31,-567.96C878.96,-569.37 881.53,-570.88 884,-572.5 906.3,-587.12 897.63,-605.98 920,-620.5 931.33,-627.85 945.27,-632.22 958.27,-634.81"/>
<polygon fill="#63b8ff" stroke="#63b8ff" points="877.59,-564.69 867.06,-563.54 874.58,-571.01 877.59,-564.69"/>
</a>
</g>
</g>
<!-- Node14 -->
<g id="Node000014" class="node">
<title>Node14</title>
<g id="a_Node000014"><a xlink:href="classARDOUR_1_1Amp.html" target="_top" xlink:title=" ">
<polygon fill="white" stroke="#666666" points="1044,-389 956,-389 956,-370 1044,-370 1044,-389"/>
<text text-anchor="middle" x="1000" y="-377" font-family="Helvetica,sans-Serif" font-size="10.00">ARDOUR::Amp</text>
</a>
</g>
</g>
<!-- Node13&#45;&gt;Node14 -->
<g id="edge14_Node000013_Node000014" class="edge">
<title>Node13&#45;&gt;Node14</title>
<g id="a_edge14_Node000013_Node000014"><a xlink:title=" ">
<path fill="none" stroke="#63b8ff" d="M848.52,-332.13C860.49,-334.56 872.75,-337.63 884,-341.5 901.11,-347.38 903.07,-354.11 920,-360.5 931.35,-364.78 943.99,-368.33 955.77,-371.16"/>
<polygon fill="#63b8ff" stroke="#63b8ff" points="849.04,-328.66 838.56,-330.23 847.73,-335.54 849.04,-328.66"/>
</a>
</g>
</g>
<!-- Node15 -->
<g id="Node000015" class="node">
<title>Node15</title>
<g id="a_Node000015"><a xlink:href="classARDOUR_1_1BeatBox.html" target="_top" xlink:title=" ">
<polygon fill="white" stroke="#666666" points="1053.5,-352 946.5,-352 946.5,-333 1053.5,-333 1053.5,-352"/>
<text text-anchor="middle" x="1000" y="-340" font-family="Helvetica,sans-Serif" font-size="10.00">ARDOUR::BeatBox</text>
</a>
</g>
</g>
<!-- Node13&#45;&gt;Node15 -->
<g id="edge15_Node000013_Node000015" class="edge">
<title>Node13&#45;&gt;Node15</title>
<g id="a_edge15_Node000013_Node000015"><a xlink:title=" ">
<path fill="none" stroke="#63b8ff" d="M848.97,-329.3C880.15,-332.05 916.86,-335.27 946.17,-337.85"/>
<polygon fill="#63b8ff" stroke="#63b8ff" points="848.89,-325.78 838.63,-328.39 848.28,-332.76 848.89,-325.78"/>
</a>
</g>
</g>
<!-- Node16 -->
<g id="Node000016" class="node">
<title>Node16</title>
<g id="a_Node000016"><a xlink:href="classARDOUR_1_1CapturingProcessor.html" target="_top" xlink:title=" ">
<polygon fill="white" stroke="#666666" points="1080,-315 920,-315 920,-296 1080,-296 1080,-315"/>
<text text-anchor="middle" x="1000" y="-303" font-family="Helvetica,sans-Serif" font-size="10.00">ARDOUR::CapturingProcessor</text>
</a>
</g>
</g>
<!-- Node13&#45;&gt;Node16 -->
<g id="edge16_Node000013_Node000016" class="edge">
<title>Node13&#45;&gt;Node16</title>
<g id="a_edge16_Node000013_Node000016"><a xlink:title=" ">
<path fill="none" stroke="#63b8ff" d="M848.73,-318.02C871.19,-316.15 896.55,-314.04 919.95,-312.09"/>
<polygon fill="#63b8ff" stroke="#63b8ff" points="848.3,-314.55 838.63,-318.86 848.88,-321.52 848.3,-314.55"/>
</a>
</g>
</g>
<!-- Node17 -->
<g id="Node000017" class="node">
<title>Node17</title>
<g id="a_Node000017"><a xlink:href="classARDOUR_1_1DelayLine.html" target="_top" xlink:title=" ">
<polygon fill="white" stroke="#666666" points="1057,-278 943,-278 943,-259 1057,-259 1057,-278"/>
<text text-anchor="middle" x="1000" y="-266" font-family="Helvetica,sans-Serif" font-size="10.00">ARDOUR::DelayLine</text>
</a>
</g>
</g>
<!-- Node13&#45;&gt;Node17 -->
<g id="edge17_Node000013_Node000017" class="edge">
<title>Node13&#45;&gt;Node17</title>
<g id="a_edge17_Node000013_Node000017"><a xlink:title=" ">
<path fill="none" stroke="#63b8ff" d="M848.66,-313.89C860.57,-311.38 872.77,-308.28 884,-304.5 900.95,-298.79 903.16,-292.53 920,-286.5 929.14,-283.23 939.09,-280.41 948.75,-278.04"/>
<polygon fill="#63b8ff" stroke="#63b8ff" points="847.87,-310.48 838.75,-315.87 849.24,-317.35 847.87,-310.48"/>
</a>
</g>
</g>
<!-- Node18 -->
<g id="Node000018" class="node">
<title>Node18</title>
<g id="a_Node000018"><a xlink:href="classARDOUR_1_1DiskIOProcessor.html" target="_top" xlink:title=" ">
<polygon fill="white" stroke="#666666" points="1072.5,-241 927.5,-241 927.5,-222 1072.5,-222 1072.5,-241"/>
<text text-anchor="middle" x="1000" y="-229" font-family="Helvetica,sans-Serif" font-size="10.00">ARDOUR::DiskIOProcessor</text>
</a>
</g>
</g>
<!-- Node13&#45;&gt;Node18 -->
<g id="edge18_Node000013_Node000018" class="edge">
<title>Node13&#45;&gt;Node18</title>
<g id="a_edge18_Node000013_Node000018"><a xlink:title=" ">
<path fill="none" stroke="#63b8ff" d="M848.7,-319.04C861.14,-316.08 873.52,-311.5 884,-304.5 908.3,-288.28 896.01,-266.18 920,-249.5 924.85,-246.13 930.24,-243.38 935.85,-241.13"/>
<polygon fill="#63b8ff" stroke="#63b8ff" points="847.83,-315.65 838.74,-321.09 849.24,-322.51 847.83,-315.65"/>
</a>
</g>
</g>
<!-- Node21 -->
<g id="Node000021" class="node">
<title>Node21</title>
<g id="a_Node000021"><a xlink:href="classARDOUR_1_1IOProcessor.html" target="_top" xlink:title=" ">
<polygon fill="white" stroke="#666666" points="1061.5,-204 938.5,-204 938.5,-185 1061.5,-185 1061.5,-204"/>
<text text-anchor="middle" x="1000" y="-192" font-family="Helvetica,sans-Serif" font-size="10.00">ARDOUR::IOProcessor</text>
</a>
</g>
</g>
<!-- Node13&#45;&gt;Node21 -->
<g id="edge21_Node000013_Node000021" class="edge">
<title>Node13&#45;&gt;Node21</title>
<g id="a_edge21_Node000013_Node000021"><a xlink:title=" ">
<path fill="none" stroke="#63b8ff" d="M848.51,-321.03C861.34,-317.97 873.93,-312.85 884,-304.5 917.81,-276.49 886.73,-241.15 920,-212.5 925.33,-207.91 931.59,-204.43 938.22,-201.79"/>
<polygon fill="#63b8ff" stroke="#63b8ff" points="847.8,-317.6 838.68,-322.99 849.17,-324.47 847.8,-317.6"/>
</a>
</g>
</g>
<!-- Node28 -->
<g id="Node000028" class="node">
<title>Node28</title>
<g id="a_Node000028"><a xlink:href="classARDOUR_1_1InternalReturn.html" target="_top" xlink:title=" ">
<polygon fill="white" stroke="#666666" points="1067.5,-167 932.5,-167 932.5,-148 1067.5,-148 1067.5,-167"/>
<text text-anchor="middle" x="1000" y="-155" font-family="Helvetica,sans-Serif" font-size="10.00">ARDOUR::InternalReturn</text>
</a>
</g>
</g>
<!-- Node13&#45;&gt;Node28 -->
<g id="edge28_Node000013_Node000028" class="edge">
<title>Node13&#45;&gt;Node28</title>
<g id="a_edge28_Node000013_Node000028"><a xlink:title=" ">
<path fill="none" stroke="#63b8ff" d="M848.54,-321.94C861.55,-318.85 874.2,-313.49 884,-304.5 927.86,-264.26 876.91,-216.57 920,-175.5 923.67,-172.01 927.86,-169.14 932.37,-166.79"/>
<polygon fill="#63b8ff" stroke="#63b8ff" points="847.71,-318.54 838.56,-323.88 849.05,-325.41 847.71,-318.54"/>
</a>
</g>
</g>
<!-- Node30 -->
<g id="Node000030" class="node">
<title>Node30</title>
<g id="a_Node000030"><a xlink:href="classARDOUR_1_1MonitorProcessor.html" target="_top" xlink:title=" ">
<polygon fill="white" stroke="#666666" points="1075,-130 925,-130 925,-111 1075,-111 1075,-130"/>
<text text-anchor="middle" x="1000" y="-118" font-family="Helvetica,sans-Serif" font-size="10.00">ARDOUR::MonitorProcessor</text>
</a>
</g>
</g>
<!-- Node13&#45;&gt;Node30 -->
<g id="edge30_Node000013_Node000030" class="edge">
<title>Node13&#45;&gt;Node30</title>
<g id="a_edge30_Node000013_Node000030"><a xlink:title=" ">
<path fill="none" stroke="#63b8ff" d="M848.74,-322.42C861.8,-319.31 874.42,-313.82 884,-304.5 938.11,-251.86 866.9,-192.16 920,-138.5 923.27,-135.2 927,-132.45 931.03,-130.17"/>
<polygon fill="#63b8ff" stroke="#63b8ff" points="847.86,-319.02 838.71,-324.35 849.19,-325.9 847.86,-319.02"/>
</a>
</g>
</g>
<!-- Node31 -->
<g id="Node000031" class="node">
<title>Node31</title>
<g id="a_Node000031"><a xlink:href="classARDOUR_1_1PeakMeter.html" target="_top" xlink:title=" ">
<polygon fill="white" stroke="#666666" points="1059,-93 941,-93 941,-74 1059,-74 1059,-93"/>
<text text-anchor="middle" x="1000" y="-81" font-family="Helvetica,sans-Serif" font-size="10.00">ARDOUR::PeakMeter</text>
</a>
</g>
</g>
<!-- Node13&#45;&gt;Node31 -->
<g id="edge31_Node000013_Node000031" class="edge">
<title>Node13&#45;&gt;Node31</title>
<g id="a_edge31_Node000013_Node000031"><a xlink:title=" ">
<path fill="none" stroke="#63b8ff" d="M848.8,-322.74C861.92,-319.63 874.55,-314.05 884,-304.5 948.45,-239.37 856.8,-167.84 920,-101.5 925.72,-95.49 933.01,-91.3 940.82,-88.4"/>
<polygon fill="#63b8ff" stroke="#63b8ff" points="847.88,-319.35 838.71,-324.66 849.19,-326.23 847.88,-319.35"/>
</a>
</g>
</g>
<!-- Node32 -->
<g id="Node000032" class="node">
<title>Node32</title>
<g id="a_Node000032"><a xlink:href="classARDOUR_1_1PluginInsert.html" target="_top" xlink:title=" ">
<polygon fill="white" stroke="#666666" points="1061.5,-19 938.5,-19 938.5,0 1061.5,0 1061.5,-19"/>
<text text-anchor="middle" x="1000" y="-7" font-family="Helvetica,sans-Serif" font-size="10.00">ARDOUR::PluginInsert</text>
</a>
</g>
</g>
<!-- Node13&#45;&gt;Node32 -->
<g id="edge32_Node000013_Node000032" class="edge">
<title>Node13&#45;&gt;Node32</title>
<g id="a_edge32_Node000013_Node000032"><a xlink:title=" ">
<path fill="none" stroke="#63b8ff" d="M848.72,-323.16C861.97,-320.05 874.67,-314.37 884,-304.5 969.26,-214.26 836.47,-119.34 920,-27.5 925.02,-21.98 931.34,-17.98 938.22,-15.1"/>
<polygon fill="#63b8ff" stroke="#63b8ff" points="847.71,-319.79 838.52,-325.06 848.99,-326.67 847.71,-319.79"/>
</a>
</g>
</g>
<!-- Node33 -->
<g id="Node000033" class="node">
<title>Node33</title>
<g id="a_Node000033"><a xlink:href="classARDOUR_1_1PolarityProcessor.html" target="_top" xlink:title=" ">
<polygon fill="white" stroke="#666666" points="1075,-56 925,-56 925,-37 1075,-37 1075,-56"/>
<text text-anchor="middle" x="1000" y="-44" font-family="Helvetica,sans-Serif" font-size="10.00">ARDOUR::PolarityProcessor</text>
</a>
</g>
</g>
<!-- Node13&#45;&gt;Node33 -->
<g id="edge33_Node000013_Node000033" class="edge">
<title>Node13&#45;&gt;Node33</title>
<g id="a_edge33_Node000013_Node000033"><a xlink:title=" ">
<path fill="none" stroke="#63b8ff" d="M848.78,-322.98C861.97,-319.86 874.63,-314.23 884,-304.5 958.84,-226.83 846.65,-143.58 920,-64.5 923.06,-61.2 926.59,-58.44 930.43,-56.15"/>
<polygon fill="#63b8ff" stroke="#63b8ff" points="847.82,-319.6 838.64,-324.89 849.12,-326.47 847.82,-319.6"/>
</a>
</g>
</g>
<!-- Node34 -->
<g id="Node000034" class="node">
<title>Node34</title>
<g id="a_Node000034"><a xlink:href="classARDOUR_1_1SurroundReturn.html" target="_top" xlink:title=" ">
<polygon fill="white" stroke="#666666" points="1070.5,-537 929.5,-537 929.5,-518 1070.5,-518 1070.5,-537"/>
<text text-anchor="middle" x="1000" y="-525" font-family="Helvetica,sans-Serif" font-size="10.00">ARDOUR::SurroundReturn</text>
</a>
</g>
</g>
<!-- Node13&#45;&gt;Node34 -->
<g id="edge34_Node000013_Node000034" class="edge">
<title>Node13&#45;&gt;Node34</title>
<g id="a_edge34_Node000013_Node000034"><a xlink:title=" ">
<path fill="none" stroke="#63b8ff" d="M848.7,-323.87C861.77,-326.85 874.4,-332.24 884,-341.5 938.65,-394.21 866.95,-454.18 920,-508.5 923.75,-512.34 928.12,-515.45 932.85,-517.97"/>
<polygon fill="#63b8ff" stroke="#63b8ff" points="849.14,-320.39 838.67,-322.04 847.88,-327.28 849.14,-320.39"/>
</a>
</g>
</g>
<!-- Node35 -->
<g id="Node000035" class="node">
<title>Node35</title>
<g id="a_Node000035"><a xlink:href="classARDOUR_1_1SurroundSend.html" target="_top" xlink:title=" ">
<polygon fill="white" stroke="#666666" points="1066.5,-500 933.5,-500 933.5,-481 1066.5,-481 1066.5,-500"/>
<text text-anchor="middle" x="1000" y="-488" font-family="Helvetica,sans-Serif" font-size="10.00">ARDOUR::SurroundSend</text>
</a>
</g>
</g>
<!-- Node13&#45;&gt;Node35 -->
<g id="edge35_Node000013_Node000035" class="edge">
<title>Node13&#45;&gt;Node35</title>
<g id="a_edge35_Node000013_Node000035"><a xlink:title=" ">
<path fill="none" stroke="#63b8ff" d="M848.52,-324.34C861.53,-327.31 874.19,-332.57 884,-341.5 928.33,-381.86 876.89,-429.84 920,-471.5 923.96,-475.32 928.54,-478.42 933.47,-480.93"/>
<polygon fill="#63b8ff" stroke="#63b8ff" points="849.01,-320.87 838.54,-322.5 847.73,-327.76 849.01,-320.87"/>
</a>
</g>
</g>
<!-- Node36 -->
<g id="Node000036" class="node">
<title>Node36</title>
<g id="a_Node000036"><a xlink:href="classARDOUR_1_1TriggerBox.html" target="_top" xlink:title=" ">
<polygon fill="white" stroke="#666666" points="1058.5,-463 941.5,-463 941.5,-444 1058.5,-444 1058.5,-463"/>
<text text-anchor="middle" x="1000" y="-451" font-family="Helvetica,sans-Serif" font-size="10.00">ARDOUR::TriggerBox</text>
</a>
</g>
</g>
<!-- Node13&#45;&gt;Node36 -->
<g id="edge36_Node000013_Node000036" class="edge">
<title>Node13&#45;&gt;Node36</title>
<g id="a_edge36_Node000013_Node000036"><a xlink:title=" ">
<path fill="none" stroke="#63b8ff" d="M848.5,-325.24C861.33,-328.18 873.92,-333.2 884,-341.5 918.21,-369.68 886.64,-405.32 920,-434.5 926.16,-439.89 933.58,-443.81 941.38,-446.65"/>
<polygon fill="#63b8ff" stroke="#63b8ff" points="849.15,-321.8 838.67,-323.37 847.84,-328.67 849.15,-321.8"/>
</a>
</g>
</g>
<!-- Node37 -->
<g id="Node000037" class="node">
<title>Node37</title>
<g id="a_Node000037"><a xlink:href="classARDOUR_1_1UnknownProcessor.html" target="_top" xlink:title=" ">
<polygon fill="white" stroke="#666666" points="1079,-426 921,-426 921,-407 1079,-407 1079,-426"/>
<text text-anchor="middle" x="1000" y="-414" font-family="Helvetica,sans-Serif" font-size="10.00">ARDOUR::UnknownProcessor</text>
</a>
</g>
</g>
<!-- Node13&#45;&gt;Node37 -->
<g id="edge37_Node000013_Node000037" class="edge">
<title>Node13&#45;&gt;Node37</title>
<g id="a_edge37_Node000013_Node000037"><a xlink:title=" ">
<path fill="none" stroke="#63b8ff" d="M848.51,-327.12C861.02,-329.98 873.48,-334.48 884,-341.5 908.62,-357.91 895.88,-380.36 920,-397.5 925.4,-401.34 931.49,-404.41 937.82,-406.86"/>
<polygon fill="#63b8ff" stroke="#63b8ff" points="848.99,-323.65 838.5,-325.18 847.65,-330.52 848.99,-323.65"/>
</a>
</g>
</g>
<!-- Node19 -->
<g id="Node000019" class="node">
<title>Node19</title>
<g id="a_Node000019"><a xlink:href="classARDOUR_1_1DiskReader.html" target="_top" xlink:title=" ">
<polygon fill="white" stroke="#666666" points="1244.5,-315 1122.5,-315 1122.5,-296 1244.5,-296 1244.5,-315"/>
<text text-anchor="middle" x="1183.5" y="-303" font-family="Helvetica,sans-Serif" font-size="10.00">ARDOUR::DiskReader</text>
</a>
</g>
</g>
<!-- Node18&#45;&gt;Node19 -->
<g id="edge19_Node000018_Node000019" class="edge">
<title>Node18&#45;&gt;Node19</title>
<g id="a_edge19_Node000018_Node000019"><a xlink:title=" ">
<path fill="none" stroke="#63b8ff" d="M1069.77,-244.55C1073.31,-246.03 1076.74,-247.67 1080,-249.5 1100.01,-260.73 1096.31,-274.73 1116,-286.5 1122.39,-290.32 1129.59,-293.4 1136.82,-295.88"/>
<polygon fill="#63b8ff" stroke="#63b8ff" points="1070.82,-241.2 1060.22,-241.02 1068.39,-247.77 1070.82,-241.2"/>
</a>
</g>
</g>
<!-- Node20 -->
<g id="Node000020" class="node">
<title>Node20</title>
<g id="a_Node000020"><a xlink:href="classARDOUR_1_1DiskWriter.html" target="_top" xlink:title=" ">
<polygon fill="white" stroke="#666666" points="1242,-278 1125,-278 1125,-259 1242,-259 1242,-278"/>
<text text-anchor="middle" x="1183.5" y="-266" font-family="Helvetica,sans-Serif" font-size="10.00">ARDOUR::DiskWriter</text>
</a>
</g>
</g>
<!-- Node18&#45;&gt;Node20 -->
<g id="edge20_Node000018_Node000020" class="edge">
<title>Node18&#45;&gt;Node20</title>
<g id="a_edge20_Node000018_Node000020"><a xlink:title=" ">
<path fill="none" stroke="#63b8ff" d="M1057.82,-243.08C1082.83,-248.18 1111.85,-254.1 1135.6,-258.94"/>
<polygon fill="#63b8ff" stroke="#63b8ff" points="1058.24,-239.6 1047.74,-241.03 1056.84,-246.46 1058.24,-239.6"/>
</a>
</g>
</g>
<!-- Node22 -->
<g id="Node000022" class="node">
<title>Node22</title>
<g id="a_Node000022"><a xlink:href="classARDOUR_1_1Delivery.html" target="_top" xlink:title=" ">
<polygon fill="white" stroke="#666666" points="1237,-167 1130,-167 1130,-148 1237,-148 1237,-167"/>
<text text-anchor="middle" x="1183.5" y="-155" font-family="Helvetica,sans-Serif" font-size="10.00">ARDOUR::Delivery</text>
</a>
</g>
</g>
<!-- Node21&#45;&gt;Node22 -->
<g id="edge22_Node000021_Node000022" class="edge">
<title>Node21&#45;&gt;Node22</title>
<g id="a_edge22_Node000021_Node000022"><a xlink:title=" ">
<path fill="none" stroke="#63b8ff" d="M1057.82,-182.92C1082.83,-177.82 1111.85,-171.9 1135.6,-167.06"/>
<polygon fill="#63b8ff" stroke="#63b8ff" points="1056.84,-179.54 1047.74,-184.97 1058.24,-186.4 1056.84,-179.54"/>
</a>
</g>
</g>
<!-- Node25 -->
<g id="Node000025" class="node">
<title>Node25</title>
<g id="a_Node000025"><a xlink:href="classARDOUR_1_1PortInsert.html" target="_top" xlink:title=" ">
<polygon fill="white" stroke="#666666" points="1240,-130 1127,-130 1127,-111 1240,-111 1240,-130"/>
<text text-anchor="middle" x="1183.5" y="-118" font-family="Helvetica,sans-Serif" font-size="10.00">ARDOUR::PortInsert</text>
</a>
</g>
</g>
<!-- Node21&#45;&gt;Node25 -->
<g id="edge25_Node000021_Node000025" class="edge">
<title>Node21&#45;&gt;Node25</title>
<g id="a_edge25_Node000021_Node000025"><a xlink:title=" ">
<path fill="none" stroke="#63b8ff" d="M1067.44,-181.51C1071.8,-179.75 1076.03,-177.76 1080,-175.5 1099.94,-164.15 1096.22,-150.13 1116,-138.5 1121.77,-135.1 1128.2,-132.33 1134.73,-130.07"/>
<polygon fill="#63b8ff" stroke="#63b8ff" points="1065.97,-178.32 1057.74,-184.99 1068.34,-184.91 1065.97,-178.32"/>
</a>
</g>
</g>
<!-- Node26 -->
<g id="Node000026" class="node">
<title>Node26</title>
<g id="a_Node000026"><a xlink:href="classARDOUR_1_1Return.html" target="_top" xlink:title=" ">
<polygon fill="white" stroke="#666666" points="1232.5,-241 1134.5,-241 1134.5,-222 1232.5,-222 1232.5,-241"/>
<text text-anchor="middle" x="1183.5" y="-229" font-family="Helvetica,sans-Serif" font-size="10.00">ARDOUR::Return</text>
</a>
</g>
</g>
<!-- Node21&#45;&gt;Node26 -->
<g id="edge26_Node000021_Node000026" class="edge">
<title>Node21&#45;&gt;Node26</title>
<g id="a_edge26_Node000021_Node000026"><a xlink:title=" ">
<path fill="none" stroke="#63b8ff" d="M1057.82,-206.08C1082.83,-211.18 1111.85,-217.1 1135.6,-221.94"/>
<polygon fill="#63b8ff" stroke="#63b8ff" points="1058.24,-202.6 1047.74,-204.03 1056.84,-209.46 1058.24,-202.6"/>
</a>
</g>
</g>
<!-- Node27 -->
<g id="Node000027" class="node">
<title>Node27</title>
<g id="a_Node000027"><a xlink:href="classARDOUR_1_1SideChain.html" target="_top" xlink:title=" ">
<polygon fill="white" stroke="#666666" points="1240.5,-204 1126.5,-204 1126.5,-185 1240.5,-185 1240.5,-204"/>
<text text-anchor="middle" x="1183.5" y="-192" font-family="Helvetica,sans-Serif" font-size="10.00">ARDOUR::SideChain</text>
</a>
</g>
</g>
<!-- Node21&#45;&gt;Node27 -->
<g id="edge27_Node000021_Node000027" class="edge">
<title>Node21&#45;&gt;Node27</title>
<g id="a_edge27_Node000021_Node000027"><a xlink:title=" ">
<path fill="none" stroke="#63b8ff" d="M1071.9,-194.5C1090.01,-194.5 1109.22,-194.5 1126.46,-194.5"/>
<polygon fill="#63b8ff" stroke="#63b8ff" points="1071.69,-191 1061.69,-194.5 1071.69,-198 1071.69,-191"/>
</a>
</g>
</g>
<!-- Node23 -->
<g id="Node000023" class="node">
<title>Node23</title>
<g id="a_Node000023"><a xlink:href="classARDOUR_1_1Send.html" target="_top" xlink:title=" ">
<polygon fill="white" stroke="#666666" points="1391,-167 1302,-167 1302,-148 1391,-148 1391,-167"/>
<text text-anchor="middle" x="1346.5" y="-155" font-family="Helvetica,sans-Serif" font-size="10.00">ARDOUR::Send</text>
</a>
</g>
</g>
<!-- Node22&#45;&gt;Node23 -->
<g id="edge23_Node000022_Node000023" class="edge">
<title>Node22&#45;&gt;Node23</title>
<g id="a_edge23_Node000022_Node000023"><a xlink:title=" ">
<path fill="none" stroke="#63b8ff" d="M1247.46,-157.5C1265.64,-157.5 1285.08,-157.5 1301.81,-157.5"/>
<polygon fill="#63b8ff" stroke="#63b8ff" points="1247.22,-154 1237.22,-157.5 1247.22,-161 1247.22,-154"/>
</a>
</g>
</g>
<!-- Node24 -->
<g id="Node000024" class="node">
<title>Node24</title>
<g id="a_Node000024"><a xlink:href="classARDOUR_1_1InternalSend.html" target="_top" xlink:title=" ">
<polygon fill="white" stroke="#666666" points="1569,-167 1442,-167 1442,-148 1569,-148 1569,-167"/>
<text text-anchor="middle" x="1505.5" y="-155" font-family="Helvetica,sans-Serif" font-size="10.00">ARDOUR::InternalSend</text>
</a>
</g>
</g>
<!-- Node23&#45;&gt;Node24 -->
<g id="edge24_Node000023_Node000024" class="edge">
<title>Node23&#45;&gt;Node24</title>
<g id="a_edge24_Node000023_Node000024"><a xlink:title=" ">
<path fill="none" stroke="#63b8ff" d="M1401.45,-157.5C1414.49,-157.5 1428.53,-157.5 1441.93,-157.5"/>
<polygon fill="#63b8ff" stroke="#63b8ff" points="1401.23,-154 1391.23,-157.5 1401.23,-161 1401.23,-154"/>
</a>
</g>
</g>
<!-- Node29 -->
<g id="Node000029" class="node">
<title>Node29</title>
<g id="a_Node000029"><a xlink:href="classARDOUR_1_1MonitorReturn.html" target="_top" xlink:title=" ">
<polygon fill="white" stroke="#666666" points="1251,-93 1116,-93 1116,-74 1251,-74 1251,-93"/>
<text text-anchor="middle" x="1183.5" y="-81" font-family="Helvetica,sans-Serif" font-size="10.00">ARDOUR::MonitorReturn</text>
</a>
</g>
</g>
<!-- Node28&#45;&gt;Node29 -->
<g id="edge29_Node000028_Node000029" class="edge">
<title>Node28&#45;&gt;Node29</title>
<g id="a_edge29_Node000028_Node000029"><a xlink:title=" ">
<path fill="none" stroke="#63b8ff" d="M1067.44,-144.51C1071.8,-142.75 1076.03,-140.76 1080,-138.5 1099.94,-127.15 1096.22,-113.13 1116,-101.5 1121.77,-98.1 1128.2,-95.33 1134.73,-93.07"/>
<polygon fill="#63b8ff" stroke="#63b8ff" points="1065.97,-141.32 1057.74,-147.99 1068.34,-147.91 1065.97,-141.32"/>
</a>
</g>
</g>
<!-- Node39 -->
<g id="Node000039" class="node">
<title>Node39</title>
<g id="a_Node000039"><a xlink:href="classARDOUR_1_1Route.html" target="_top" xlink:title=" ">
<polygon fill="white" stroke="#666666" points="1047,-611 953,-611 953,-592 1047,-592 1047,-611"/>
<text text-anchor="middle" x="1000" y="-599" font-family="Helvetica,sans-Serif" font-size="10.00">ARDOUR::Route</text>
</a>
</g>
</g>
<!-- Node38&#45;&gt;Node39 -->
<g id="edge39_Node000038_Node000039" class="edge">
<title>Node38&#45;&gt;Node39</title>
<g id="a_edge39_Node000038_Node000039"><a xlink:title=" ">
<path fill="none" stroke="#63b8ff" d="M846.69,-360.1C860.55,-362.97 874.03,-368.5 884,-378.5 949.33,-443.99 856.25,-516.47 920,-583.5 928.53,-592.47 940.53,-597.4 952.61,-600.01"/>
<polygon fill="#63b8ff" stroke="#63b8ff" points="847.01,-356.61 836.58,-358.45 845.89,-363.51 847.01,-356.61"/>
</a>
</g>
</g>
<!-- Node44 -->
<g id="Node000044" class="node">
<title>Node44</title>
<g id="a_Node000044"><a xlink:href="classARDOUR_1_1VCA.html" target="_top" xlink:title=" ">
<polygon fill="white" stroke="#666666" points="1043,-574 957,-574 957,-555 1043,-555 1043,-574"/>
<text text-anchor="middle" x="1000" y="-562" font-family="Helvetica,sans-Serif" font-size="10.00">ARDOUR::VCA</text>
</a>
</g>
</g>
<!-- Node38&#45;&gt;Node44 -->
<g id="edge44_Node000038_Node000044" class="edge">
<title>Node38&#45;&gt;Node44</title>
<g id="a_edge44_Node000038_Node000044"><a xlink:title=" ">
<path fill="none" stroke="#63b8ff" d="M846.64,-360.41C860.43,-363.29 873.9,-368.74 884,-378.5 938.93,-431.55 866.35,-492.16 920,-546.5 929.68,-556.31 943.53,-561.25 956.93,-563.61"/>
<polygon fill="#63b8ff" stroke="#63b8ff" points="847.02,-356.93 836.58,-358.75 845.88,-363.83 847.02,-356.93"/>
</a>
</g>
</g>
<!-- Node40 -->
<g id="Node000040" class="node">
<title>Node40</title>
<g id="a_Node000040"><a xlink:href="classARDOUR_1_1Track.html" target="_top" xlink:title=" ">
<polygon fill="white" stroke="#666666" points="1229,-611 1138,-611 1138,-592 1229,-592 1229,-611"/>
<text text-anchor="middle" x="1183.5" y="-599" font-family="Helvetica,sans-Serif" font-size="10.00">ARDOUR::Track</text>
</a>
</g>
</g>
<!-- Node39&#45;&gt;Node40 -->
<g id="edge40_Node000039_Node000040" class="edge">
<title>Node39&#45;&gt;Node40</title>
<g id="a_edge40_Node000039_Node000040"><a xlink:title=" ">
<path fill="none" stroke="#63b8ff" d="M1057.34,-601.5C1083.26,-601.5 1113.58,-601.5 1137.88,-601.5"/>
<polygon fill="#63b8ff" stroke="#63b8ff" points="1057.27,-598 1047.27,-601.5 1057.27,-605 1057.27,-598"/>
</a>
</g>
</g>
<!-- Node41 -->
<g id="Node000041" class="node">
<title>Node41</title>
<g id="a_Node000041"><a xlink:href="classARDOUR_1_1AudioTrack.html" target="_top" xlink:title=" ">
<polygon fill="white" stroke="#666666" points="1406,-611 1287,-611 1287,-592 1406,-592 1406,-611"/>
<text text-anchor="middle" x="1346.5" y="-599" font-family="Helvetica,sans-Serif" font-size="10.00">ARDOUR::AudioTrack</text>
</a>
</g>
</g>
<!-- Node40&#45;&gt;Node41 -->
<g id="edge41_Node000040_Node000041" class="edge">
<title>Node40&#45;&gt;Node41</title>
<g id="a_edge41_Node000040_Node000041"><a xlink:title=" ">
<path fill="none" stroke="#63b8ff" d="M1239.62,-601.5C1254.81,-601.5 1271.35,-601.5 1286.74,-601.5"/>
<polygon fill="#63b8ff" stroke="#63b8ff" points="1239.35,-598 1229.35,-601.5 1239.35,-605 1239.35,-598"/>
</a>
</g>
</g>
<!-- Node42 -->
<g id="Node000042" class="node">
<title>Node42</title>
<g id="a_Node000042"><a xlink:href="classARDOUR_1_1Auditioner.html" target="_top" xlink:title=" ">
<polygon fill="white" stroke="#666666" points="1404.5,-574 1288.5,-574 1288.5,-555 1404.5,-555 1404.5,-574"/>
<text text-anchor="middle" x="1346.5" y="-562" font-family="Helvetica,sans-Serif" font-size="10.00">ARDOUR::Auditioner</text>
</a>
</g>
</g>
<!-- Node40&#45;&gt;Node42 -->
<g id="edge42_Node000040_Node000042" class="edge">
<title>Node40&#45;&gt;Node42</title>
<g id="a_edge42_Node000040_Node000042"><a xlink:title=" ">
<path fill="none" stroke="#63b8ff" d="M1235.8,-589.71C1257.77,-584.66 1283.11,-578.84 1303.9,-574.06"/>
<polygon fill="#63b8ff" stroke="#63b8ff" points="1234.92,-586.32 1225.96,-591.97 1236.49,-593.14 1234.92,-586.32"/>
</a>
</g>
</g>
<!-- Node43 -->
<g id="Node000043" class="node">
<title>Node43</title>
<g id="a_Node000043"><a xlink:href="classARDOUR_1_1MidiTrack.html" target="_top" xlink:title=" ">
<polygon fill="white" stroke="#666666" points="1402.5,-648 1290.5,-648 1290.5,-629 1402.5,-629 1402.5,-648"/>
<text text-anchor="middle" x="1346.5" y="-636" font-family="Helvetica,sans-Serif" font-size="10.00">ARDOUR::MidiTrack</text>
</a>
</g>
</g>
<!-- Node40&#45;&gt;Node43 -->
<g id="edge43_Node000040_Node000043" class="edge">
<title>Node40&#45;&gt;Node43</title>
<g id="a_edge43_Node000040_Node000043"><a xlink:title=" ">
<path fill="none" stroke="#63b8ff" d="M1235.8,-613.29C1257.77,-618.34 1283.11,-624.16 1303.9,-628.94"/>
<polygon fill="#63b8ff" stroke="#63b8ff" points="1236.49,-609.86 1225.96,-611.03 1234.92,-616.68 1236.49,-609.86"/>
</a>
</g>
</g>
<!-- Node46&#45;&gt;Node32 -->
<g id="edge48_Node000046_Node000032" class="edge">
<title>Node46&#45;&gt;Node32</title>
<g id="a_edge48_Node000046_Node000032"><a xlink:title=" ">
<path fill="none" stroke="#63b8ff" d="M631.68,-199.43C635.96,-197.7 640.11,-195.73 644,-193.5 663.91,-182.1 661.68,-170.31 680,-156.5 776.69,-83.58 806.6,-70 920,-27.5 928.83,-24.19 938.44,-21.38 947.83,-19.04"/>
<polygon fill="#63b8ff" stroke="#63b8ff" points="630.38,-196.19 622.17,-202.88 632.76,-202.77 630.38,-196.19"/>
</a>
</g>
</g>
<!-- Node47 -->
<g id="Node000047" class="node">
<title>Node47</title>
<g id="a_Node000047"><a xlink:href="classARDOUR_1_1IOPlug.html" target="_top" xlink:title=" ">
<polygon fill="white" stroke="#666666" points="830.5,-185 733.5,-185 733.5,-166 830.5,-166 830.5,-185"/>
<text text-anchor="middle" x="782" y="-173" font-family="Helvetica,sans-Serif" font-size="10.00">ARDOUR::IOPlug</text>
</a>
</g>
</g>
<!-- Node46&#45;&gt;Node47 -->
<g id="edge47_Node000046_Node000047" class="edge">
<title>Node46&#45;&gt;Node47</title>
<g id="a_edge47_Node000046_Node000047"><a xlink:title=" ">
<path fill="none" stroke="#63b8ff" d="M631.68,-201.26C664.4,-195.61 703.33,-188.9 733.23,-183.74"/>
<polygon fill="#63b8ff" stroke="#63b8ff" points="631,-197.82 621.74,-202.97 632.19,-204.72 631,-197.82"/>
</a>
</g>
</g>
<!-- Node48 -->
<g id="Node000048" class="node">
<title>Node48</title>
<g id="a_Node000048"><a xlink:href="classARDOUR_1_1RegionFxPlugin.html" target="_top" xlink:title=" ">
<polygon fill="white" stroke="#666666" points="852.5,-222 711.5,-222 711.5,-203 852.5,-203 852.5,-222"/>
<text text-anchor="middle" x="782" y="-210" font-family="Helvetica,sans-Serif" font-size="10.00">ARDOUR::RegionFxPlugin</text>
</a>
</g>
</g>
<!-- Node46&#45;&gt;Node48 -->
<g id="edge49_Node000046_Node000048" class="edge">
<title>Node46&#45;&gt;Node48</title>
<g id="a_edge49_Node000046_Node000048"><a xlink:title=" ">
<path fill="none" stroke="#63b8ff" d="M644.84,-212.5C666.55,-212.5 689.97,-212.5 711.17,-212.5"/>
<polygon fill="#63b8ff" stroke="#63b8ff" points="644.66,-209 634.66,-212.5 644.66,-216 644.66,-209"/>
</a>
</g>
</g>
<!-- Node49&#45;&gt;Node9 -->
<g id="edge51_Node000049_Node000009" class="edge">
<title>Node49&#45;&gt;Node9</title>
<g id="a_edge51_Node000049_Node000009"><a xlink:title=" ">
<path fill="none" stroke="#63b8ff" d="M650.02,-563.15C664.34,-561.55 679.25,-559.88 693.67,-558.27"/>
<polygon fill="#63b8ff" stroke="#63b8ff" points="649.27,-559.72 639.72,-564.31 650.05,-566.67 649.27,-559.72"/>
</a>
</g>
</g>
<!-- Node50 -->
<g id="Node000050" class="node">
<title>Node50</title>
<g id="a_Node000050"><a xlink:href="classMySequence.html" target="_top" xlink:title=" ">
<polygon fill="white" stroke="#666666" points="849.5,-611.5 714.5,-611.5 714.5,-581.5 849.5,-581.5 849.5,-611.5"/>
<text text-anchor="start" x="722.5" y="-599.5" font-family="Helvetica,sans-Serif" font-size="10.00">MySequence&lt; Temporal</text>
<text text-anchor="middle" x="782" y="-588.5" font-family="Helvetica,sans-Serif" font-size="10.00">::Beats &gt;</text>
</a>
</g>
</g>
<!-- Node49&#45;&gt;Node50 -->
<g id="edge52_Node000049_Node000050" class="edge">
<title>Node49&#45;&gt;Node50</title>
<g id="a_edge52_Node000049_Node000050"><a xlink:title=" ">
<path fill="none" stroke="#63b8ff" d="M649.75,-581.82C671.12,-584.21 693.82,-586.75 714.23,-589.03"/>
<polygon fill="#63b8ff" stroke="#63b8ff" points="650.05,-578.33 639.72,-580.69 649.27,-585.28 650.05,-578.33"/>
</a>
</g>
</g>
<!-- Node51 -->
<g id="Node000051" class="node">
<title>Node51</title>
<g id="a_Node000051"><a xlink:href="classMySequence.html" target="_top" xlink:title=" ">
<polygon fill="white" stroke="#666666" points="845,-649 719,-649 719,-630 845,-630 845,-649"/>
<text text-anchor="middle" x="782" y="-637" font-family="Helvetica,sans-Serif" font-size="10.00">MySequence&lt; Time &gt;</text>
</a>
</g>
</g>
<!-- Node49&#45;&gt;Node51 -->
<g id="edge53_Node000049_Node000051" class="edge">
<title>Node49&#45;&gt;Node51</title>
<g id="a_edge53_Node000049_Node000051"><a xlink:title=" ">
<path fill="none" stroke="#63b8ff" d="M594.74,-586.45C617.33,-597.11 650.07,-611.47 680,-620.5 692.38,-624.24 705.85,-627.38 718.8,-629.97"/>
<polygon fill="#63b8ff" stroke="#63b8ff" points="596.24,-583.29 585.71,-582.13 593.22,-589.6 596.24,-583.29"/>
</a>
</g>
</g>
</g>
</svg>
