<?xml version="1.0" encoding="UTF-8" standalone="no"?>
<!DOCTYPE svg PUBLIC "-//W3C//DTD SVG 1.1//EN"
 "http://www.w3.org/Graphics/SVG/1.1/DTD/svg11.dtd">
<!-- Generated by graphviz version 2.43.0 (0)
 -->
<!-- Title: Gtk::CellRenderer Pages: 1 -->
<svg width="712pt" height="320pt"
 viewBox="0.00 0.00 712.00 319.50" xmlns="http://www.w3.org/2000/svg" xmlns:xlink="http://www.w3.org/1999/xlink">
<g id="graph0" class="graph" transform="scale(1 1) rotate(0) translate(4 315.5)">
<title>Gtk::CellRenderer</title>
<!-- Node1 -->
<g id="Node000001" class="node">
<title>Node1</title>
<g id="a_Node000001"><a xlink:title=" ">
<polygon fill="#999999" stroke="#666666" points="320,-181.5 217,-181.5 217,-162.5 320,-162.5 320,-181.5"/>
<text text-anchor="middle" x="268.5" y="-169.5" font-family="Helvetica,sans-Serif" font-size="10.00">Gtk::CellRenderer</text>
</a>
</g>
</g>
<!-- Node4 -->
<g id="Node000004" class="node">
<title>Node4</title>
<g id="a_Node000004"><a xlink:href="classGtk_1_1CellRendererPixbuf.html" target="_top" xlink:title=" ">
<polygon fill="white" stroke="#666666" points="510.5,-311.5 376.5,-311.5 376.5,-292.5 510.5,-292.5 510.5,-311.5"/>
<text text-anchor="middle" x="443.5" y="-299.5" font-family="Helvetica,sans-Serif" font-size="10.00">Gtk::CellRendererPixbuf</text>
</a>
</g>
</g>
<!-- Node1&#45;&gt;Node4 -->
<g id="edge3_Node000001_Node000004" class="edge">
<title>Node1&#45;&gt;Node4</title>
<g id="a_edge3_Node000001_Node000004"><a xlink:title=" ">
<path fill="none" stroke="#63b8ff" d="M278.5,-190.63C291.76,-216 319.04,-260.87 356,-284 362.24,-287.91 369.18,-290.98 376.34,-293.4"/>
<polygon fill="#63b8ff" stroke="#63b8ff" points="281.6,-189.01 273.97,-181.66 275.35,-192.16 281.6,-189.01"/>
</a>
</g>
</g>
<!-- Node5 -->
<g id="Node000005" class="node">
<title>Node5</title>
<g id="a_Node000005"><a xlink:href="classGtk_1_1CellRendererProgress.html" target="_top" xlink:title=" ">
<polygon fill="white" stroke="#666666" points="516,-274.5 371,-274.5 371,-255.5 516,-255.5 516,-274.5"/>
<text text-anchor="middle" x="443.5" y="-262.5" font-family="Helvetica,sans-Serif" font-size="10.00">Gtk::CellRendererProgress</text>
</a>
</g>
</g>
<!-- Node1&#45;&gt;Node5 -->
<g id="edge4_Node000001_Node000005" class="edge">
<title>Node1&#45;&gt;Node5</title>
<g id="a_edge4_Node000001_Node000005"><a xlink:title=" ">
<path fill="none" stroke="#63b8ff" d="M284.72,-189.24C300.75,-206.3 327.57,-231.85 356,-246 363.85,-249.91 372.49,-253.01 381.18,-255.49"/>
<polygon fill="#63b8ff" stroke="#63b8ff" points="287.09,-186.65 277.75,-181.64 281.93,-191.38 287.09,-186.65"/>
</a>
</g>
</g>
<!-- Node6 -->
<g id="Node000006" class="node">
<title>Node6</title>
<g id="a_Node000006"><a xlink:href="classGtk_1_1CellRendererSpinner.html" target="_top" xlink:title=" ">
<polygon fill="white" stroke="#666666" points="513.5,-237.5 373.5,-237.5 373.5,-218.5 513.5,-218.5 513.5,-237.5"/>
<text text-anchor="middle" x="443.5" y="-225.5" font-family="Helvetica,sans-Serif" font-size="10.00">Gtk::CellRendererSpinner</text>
</a>
</g>
</g>
<!-- Node1&#45;&gt;Node6 -->
<g id="edge5_Node000001_Node000006" class="edge">
<title>Node1&#45;&gt;Node6</title>
<g id="a_edge5_Node000001_Node000006"><a xlink:title=" ">
<path fill="none" stroke="#63b8ff" d="M298.18,-185.88C314.78,-193.5 336.24,-202.66 356,-209 367.27,-212.61 379.59,-215.77 391.3,-218.42"/>
<polygon fill="#63b8ff" stroke="#63b8ff" points="299.56,-182.66 289.02,-181.61 296.6,-189.01 299.56,-182.66"/>
</a>
</g>
</g>
<!-- Node7 -->
<g id="Node000007" class="node">
<title>Node7</title>
<g id="a_Node000007"><a xlink:href="classGtk_1_1CellRendererText.html" target="_top" xlink:title=" ">
<polygon fill="white" stroke="#666666" points="505,-200.5 382,-200.5 382,-181.5 505,-181.5 505,-200.5"/>
<text text-anchor="middle" x="443.5" y="-188.5" font-family="Helvetica,sans-Serif" font-size="10.00">Gtk::CellRendererText</text>
</a>
</g>
</g>
<!-- Node1&#45;&gt;Node7 -->
<g id="edge6_Node000001_Node000007" class="edge">
<title>Node1&#45;&gt;Node7</title>
<g id="a_edge6_Node000001_Node000007"><a xlink:title=" ">
<path fill="none" stroke="#63b8ff" d="M330.21,-178.67C346.95,-180.51 365.1,-182.5 381.83,-184.34"/>
<polygon fill="#63b8ff" stroke="#63b8ff" points="330.33,-175.16 320,-177.55 329.56,-182.12 330.33,-175.16"/>
</a>
</g>
</g>
<!-- Node11 -->
<g id="Node000011" class="node">
<title>Node11</title>
<g id="a_Node000011"><a xlink:href="classGtk_1_1CellRendererToggle.html" target="_top" xlink:title=" ">
<polygon fill="white" stroke="#666666" points="510.5,-163.5 376.5,-163.5 376.5,-144.5 510.5,-144.5 510.5,-163.5"/>
<text text-anchor="middle" x="443.5" y="-151.5" font-family="Helvetica,sans-Serif" font-size="10.00">Gtk::CellRendererToggle</text>
</a>
</g>
</g>
<!-- Node1&#45;&gt;Node11 -->
<g id="edge10_Node000001_Node000011" class="edge">
<title>Node1&#45;&gt;Node11</title>
<g id="a_edge10_Node000001_Node000011"><a xlink:title=" ">
<path fill="none" stroke="#63b8ff" d="M330.17,-165.69C345.14,-164.13 361.26,-162.45 376.47,-160.87"/>
<polygon fill="#63b8ff" stroke="#63b8ff" points="329.59,-162.23 320,-166.75 330.31,-169.19 329.59,-162.23"/>
</a>
</g>
</g>
<!-- Node12 -->
<g id="Node000012" class="node">
<title>Node12</title>
<g id="a_Node000012"><a xlink:href="classGtkmm2ext_1_1CellRendererColorSelector.html" target="_top" xlink:title=" ">
<polygon fill="white" stroke="#666666" points="528.5,-126 358.5,-126 358.5,-96 528.5,-96 528.5,-126"/>
<text text-anchor="start" x="366.5" y="-114" font-family="Helvetica,sans-Serif" font-size="10.00">Gtkmm2ext::CellRendererColor</text>
<text text-anchor="middle" x="443.5" y="-103" font-family="Helvetica,sans-Serif" font-size="10.00">Selector</text>
</a>
</g>
</g>
<!-- Node1&#45;&gt;Node12 -->
<g id="edge11_Node000001_Node000012" class="edge">
<title>Node1&#45;&gt;Node12</title>
<g id="a_edge11_Node000001_Node000012"><a xlink:title=" ">
<path fill="none" stroke="#63b8ff" d="M298.98,-158.23C315.53,-150.8 336.67,-141.78 356,-135 364.97,-131.85 374.58,-128.84 384.01,-126.08"/>
<polygon fill="#63b8ff" stroke="#63b8ff" points="297.47,-155.07 289.82,-162.39 300.37,-161.44 297.47,-155.07"/>
</a>
</g>
</g>
<!-- Node13 -->
<g id="Node000013" class="node">
<title>Node13</title>
<g id="a_Node000013"><a xlink:href="classGtkmm2ext_1_1CellRendererPixbufMulti.html" target="_top" xlink:title=" ">
<polygon fill="white" stroke="#666666" points="531,-78 356,-78 356,-48 531,-48 531,-78"/>
<text text-anchor="start" x="364" y="-66" font-family="Helvetica,sans-Serif" font-size="10.00">Gtkmm2ext::CellRendererPixbuf</text>
<text text-anchor="middle" x="443.5" y="-55" font-family="Helvetica,sans-Serif" font-size="10.00">Multi</text>
</a>
</g>
</g>
<!-- Node1&#45;&gt;Node13 -->
<g id="edge12_Node000001_Node000013" class="edge">
<title>Node1&#45;&gt;Node13</title>
<g id="a_edge12_Node000001_Node000013"><a xlink:title=" ">
<path fill="none" stroke="#63b8ff" d="M282.94,-154.22C298.47,-134.89 325.8,-104.44 356,-87 361.94,-83.57 368.39,-80.61 375,-78.06"/>
<polygon fill="#63b8ff" stroke="#63b8ff" points="280.07,-152.2 276.66,-162.23 285.58,-156.52 280.07,-152.2"/>
</a>
</g>
</g>
<!-- Node14 -->
<g id="Node000014" class="node">
<title>Node14</title>
<g id="a_Node000014"><a xlink:href="classGtkmm2ext_1_1CellRendererPixbufToggle.html" target="_top" xlink:title=" ">
<polygon fill="white" stroke="#666666" points="531,-30 356,-30 356,0 531,0 531,-30"/>
<text text-anchor="start" x="364" y="-18" font-family="Helvetica,sans-Serif" font-size="10.00">Gtkmm2ext::CellRendererPixbuf</text>
<text text-anchor="middle" x="443.5" y="-7" font-family="Helvetica,sans-Serif" font-size="10.00">Toggle</text>
</a>
</g>
</g>
<!-- Node1&#45;&gt;Node14 -->
<g id="edge13_Node000001_Node000014" class="edge">
<title>Node1&#45;&gt;Node14</title>
<g id="a_edge13_Node000001_Node000014"><a xlink:title=" ">
<path fill="none" stroke="#63b8ff" d="M276.75,-152.79C288.73,-123.7 315.44,-68.73 356,-39 360.65,-35.59 365.76,-32.67 371.11,-30.16"/>
<polygon fill="#63b8ff" stroke="#63b8ff" points="273.44,-151.66 273.01,-162.24 279.95,-154.23 273.44,-151.66"/>
</a>
</g>
</g>
<!-- Node2 -->
<g id="Node000002" class="node">
<title>Node2</title>
<g id="a_Node000002"><a xlink:href="classGtk_1_1Object.html" target="_top" xlink:title=" ">
<polygon fill="white" stroke="#666666" points="181,-181.5 110,-181.5 110,-162.5 181,-162.5 181,-181.5"/>
<text text-anchor="middle" x="145.5" y="-169.5" font-family="Helvetica,sans-Serif" font-size="10.00">Gtk::Object</text>
</a>
</g>
</g>
<!-- Node2&#45;&gt;Node1 -->
<g id="edge1_Node000001_Node000002" class="edge">
<title>Node2&#45;&gt;Node1</title>
<g id="a_edge1_Node000001_Node000002"><a xlink:title=" ">
<path fill="none" stroke="#63b8ff" d="M191.32,-172C199.55,-172 208.2,-172 216.59,-172"/>
<polygon fill="#63b8ff" stroke="#63b8ff" points="191.17,-168.5 181.17,-172 191.17,-175.5 191.17,-168.5"/>
</a>
</g>
</g>
<!-- Node3 -->
<g id="Node000003" class="node">
<title>Node3</title>
<g id="a_Node000003"><a xlink:title=" ">
<polygon fill="white" stroke="#666666" points="74,-181.5 0,-181.5 0,-162.5 74,-162.5 74,-181.5"/>
<text text-anchor="middle" x="37" y="-169.5" font-family="Helvetica,sans-Serif" font-size="10.00">Glib::Object</text>
</a>
</g>
</g>
<!-- Node3&#45;&gt;Node2 -->
<g id="edge2_Node000002_Node000003" class="edge">
<title>Node3&#45;&gt;Node2</title>
<g id="a_edge2_Node000002_Node000003"><a xlink:title=" ">
<path fill="none" stroke="#63b8ff" d="M84.06,-172C92.74,-172 101.67,-172 109.92,-172"/>
<polygon fill="#63b8ff" stroke="#63b8ff" points="84.06,-168.5 74.06,-172 84.06,-175.5 84.06,-168.5"/>
</a>
</g>
</g>
<!-- Node8 -->
<g id="Node000008" class="node">
<title>Node8</title>
<g id="a_Node000008"><a xlink:href="classGtk_1_1CellRendererAccel.html" target="_top" xlink:title=" ">
<polygon fill="white" stroke="#666666" points="700,-237.5 571,-237.5 571,-218.5 700,-218.5 700,-237.5"/>
<text text-anchor="middle" x="635.5" y="-225.5" font-family="Helvetica,sans-Serif" font-size="10.00">Gtk::CellRendererAccel</text>
</a>
</g>
</g>
<!-- Node7&#45;&gt;Node8 -->
<g id="edge7_Node000007_Node000008" class="edge">
<title>Node7&#45;&gt;Node8</title>
<g id="a_edge7_Node000007_Node000008"><a xlink:title=" ">
<path fill="none" stroke="#63b8ff" d="M503.29,-202.45C529.62,-207.58 560.32,-213.56 585.41,-218.44"/>
<polygon fill="#63b8ff" stroke="#63b8ff" points="503.91,-199 493.43,-200.53 502.58,-205.88 503.91,-199"/>
</a>
</g>
</g>
<!-- Node9 -->
<g id="Node000009" class="node">
<title>Node9</title>
<g id="a_Node000009"><a xlink:href="classGtk_1_1CellRendererCombo.html" target="_top" xlink:title=" ">
<polygon fill="white" stroke="#666666" points="704,-200.5 567,-200.5 567,-181.5 704,-181.5 704,-200.5"/>
<text text-anchor="middle" x="635.5" y="-188.5" font-family="Helvetica,sans-Serif" font-size="10.00">Gtk::CellRendererCombo</text>
</a>
</g>
</g>
<!-- Node7&#45;&gt;Node9 -->
<g id="edge8_Node000007_Node000009" class="edge">
<title>Node7&#45;&gt;Node9</title>
<g id="a_edge8_Node000007_Node000009"><a xlink:title=" ">
<path fill="none" stroke="#63b8ff" d="M515.46,-191C532.28,-191 550.18,-191 566.86,-191"/>
<polygon fill="#63b8ff" stroke="#63b8ff" points="515.14,-187.5 505.14,-191 515.14,-194.5 515.14,-187.5"/>
</a>
</g>
</g>
<!-- Node10 -->
<g id="Node000010" class="node">
<title>Node10</title>
<g id="a_Node000010"><a xlink:href="classGtk_1_1CellRendererSpin.html" target="_top" xlink:title=" ">
<polygon fill="white" stroke="#666666" points="697.5,-163.5 573.5,-163.5 573.5,-144.5 697.5,-144.5 697.5,-163.5"/>
<text text-anchor="middle" x="635.5" y="-151.5" font-family="Helvetica,sans-Serif" font-size="10.00">Gtk::CellRendererSpin</text>
</a>
</g>
</g>
<!-- Node7&#45;&gt;Node10 -->
<g id="edge9_Node000007_Node000010" class="edge">
<title>Node7&#45;&gt;Node10</title>
<g id="a_edge9_Node000007_Node000010"><a xlink:title=" ">
<path fill="none" stroke="#63b8ff" d="M503.29,-179.55C529.62,-174.42 560.32,-168.44 585.41,-163.56"/>
<polygon fill="#63b8ff" stroke="#63b8ff" points="502.58,-176.12 493.43,-181.47 503.91,-183 502.58,-176.12"/>
</a>
</g>
</g>
</g>
</svg>
