<?xml version="1.0" encoding="UTF-8" standalone="no"?>
<!DOCTYPE svg PUBLIC "-//W3C//DTD SVG 1.1//EN"
 "http://www.w3.org/Graphics/SVG/1.1/DTD/svg11.dtd">
<!-- Generated by graphviz version 2.43.0 (0)
 -->
<!-- Title: PluginInterestedObject Pages: 1 -->
<svg width="427pt" height="82pt"
 viewBox="0.00 0.00 426.50 82.00" xmlns="http://www.w3.org/2000/svg" xmlns:xlink="http://www.w3.org/1999/xlink">
<g id="graph0" class="graph" transform="scale(1 1) rotate(0) translate(4 78)">
<title>PluginInterestedObject</title>
<!-- Node1 -->
<g id="Node000001" class="node">
<title>Node1</title>
<g id="a_Node000001"><a xlink:title=" ">
<polygon fill="#999999" stroke="#666666" points="274,-74 146,-74 146,-55 274,-55 274,-74"/>
<text text-anchor="middle" x="210" y="-62" font-family="Helvetica,sans-Serif" font-size="10.00">PluginInterestedObject</text>
</a>
</g>
</g>
<!-- Node2 -->
<g id="Node000002" class="node">
<title>Node2</title>
<g id="a_Node000002"><a xlink:href="classIOPluginWindow_1_1PluginBox.html" target="_top" xlink:title=" ">
<polygon fill="white" stroke="#666666" points="150,-19 0,-19 0,0 150,0 150,-19"/>
<text text-anchor="middle" x="75" y="-7" font-family="Helvetica,sans-Serif" font-size="10.00">IOPluginWindow::PluginBox</text>
</a>
</g>
</g>
<!-- Node1&#45;&gt;Node2 -->
<g id="edge1_Node000001_Node000002" class="edge">
<title>Node1&#45;&gt;Node2</title>
<g id="a_edge1_Node000001_Node000002"><a xlink:title=" ">
<path fill="none" stroke="#63b8ff" d="M178.9,-51.29C153.88,-41.47 119.34,-27.91 97.08,-19.17"/>
<polygon fill="#63b8ff" stroke="#63b8ff" points="177.72,-54.59 188.31,-54.98 180.28,-48.07 177.72,-54.59"/>
</a>
</g>
</g>
<!-- Node3 -->
<g id="Node000003" class="node">
<title>Node3</title>
<g id="a_Node000003"><a xlink:href="classProcessorBox.html" target="_top" xlink:title=" ">
<polygon fill="white" stroke="#666666" points="251.5,-19 168.5,-19 168.5,0 251.5,0 251.5,-19"/>
<text text-anchor="middle" x="210" y="-7" font-family="Helvetica,sans-Serif" font-size="10.00">ProcessorBox</text>
</a>
</g>
</g>
<!-- Node1&#45;&gt;Node3 -->
<g id="edge2_Node000001_Node000003" class="edge">
<title>Node1&#45;&gt;Node3</title>
<g id="a_edge2_Node000001_Node000003"><a xlink:title=" ">
<path fill="none" stroke="#63b8ff" d="M210,-44.66C210,-35.93 210,-25.99 210,-19.09"/>
<polygon fill="#63b8ff" stroke="#63b8ff" points="206.5,-44.75 210,-54.75 213.5,-44.75 206.5,-44.75"/>
</a>
</g>
</g>
<!-- Node4 -->
<g id="Node000004" class="node">
<title>Node4</title>
<g id="a_Node000004"><a xlink:href="classRegionEditor_1_1RegionFxBox.html" target="_top" xlink:title=" ">
<polygon fill="white" stroke="#666666" points="418.5,-19 269.5,-19 269.5,0 418.5,0 418.5,-19"/>
<text text-anchor="middle" x="344" y="-7" font-family="Helvetica,sans-Serif" font-size="10.00">RegionEditor::RegionFxBox</text>
</a>
</g>
</g>
<!-- Node1&#45;&gt;Node4 -->
<g id="edge3_Node000001_Node000004" class="edge">
<title>Node1&#45;&gt;Node4</title>
<g id="a_edge3_Node000001_Node000004"><a xlink:title=" ">
<path fill="none" stroke="#63b8ff" d="M240.87,-51.29C265.7,-41.47 299.99,-27.91 322.08,-19.17"/>
<polygon fill="#63b8ff" stroke="#63b8ff" points="239.54,-48.05 231.53,-54.98 242.12,-54.56 239.54,-48.05"/>
</a>
</g>
</g>
</g>
</svg>
