<?xml version="1.0" encoding="UTF-8" standalone="no"?>
<!DOCTYPE svg PUBLIC "-//W3C//DTD SVG 1.1//EN"
 "http://www.w3.org/Graphics/SVG/1.1/DTD/svg11.dtd">
<!-- Generated by graphviz version 2.43.0 (0)
 -->
<!-- Title: Gtk::ButtonBox Pages: 1 -->
<svg width="222pt" height="357pt"
 viewBox="0.00 0.00 222.00 357.00" xmlns="http://www.w3.org/2000/svg" xmlns:xlink="http://www.w3.org/1999/xlink">
<g id="graph0" class="graph" transform="scale(1 1) rotate(0) translate(4 353)">
<title>Gtk::ButtonBox</title>
<!-- Node1 -->
<g id="Node000001" class="node">
<title>Node1</title>
<g id="a_Node000001"><a xlink:title=" ">
<polygon fill="#999999" stroke="#666666" points="152.5,-74 61.5,-74 61.5,-55 152.5,-55 152.5,-74"/>
<text text-anchor="middle" x="107" y="-62" font-family="Helvetica,sans-Serif" font-size="10.00">Gtk::ButtonBox</text>
</a>
</g>
</g>
<!-- Node7 -->
<g id="Node000007" class="node">
<title>Node7</title>
<g id="a_Node000007"><a xlink:href="classGtk_1_1HButtonBox.html" target="_top" xlink:title=" ">
<polygon fill="white" stroke="#666666" points="98,-19 0,-19 0,0 98,0 98,-19"/>
<text text-anchor="middle" x="49" y="-7" font-family="Helvetica,sans-Serif" font-size="10.00">Gtk::HButtonBox</text>
</a>
</g>
</g>
<!-- Node1&#45;&gt;Node7 -->
<g id="edge6_Node000001_Node000007" class="edge">
<title>Node1&#45;&gt;Node7</title>
<g id="a_edge6_Node000001_Node000007"><a xlink:title=" ">
<path fill="none" stroke="#63b8ff" d="M90.09,-48.04C79.8,-38.64 67.03,-26.98 58.49,-19.17"/>
<polygon fill="#63b8ff" stroke="#63b8ff" points="87.94,-50.82 97.68,-54.98 92.66,-45.66 87.94,-50.82"/>
</a>
</g>
</g>
<!-- Node8 -->
<g id="Node000008" class="node">
<title>Node8</title>
<g id="a_Node000008"><a xlink:href="classGtk_1_1VButtonBox.html" target="_top" xlink:title=" ">
<polygon fill="white" stroke="#666666" points="214,-19 116,-19 116,0 214,0 214,-19"/>
<text text-anchor="middle" x="165" y="-7" font-family="Helvetica,sans-Serif" font-size="10.00">Gtk::VButtonBox</text>
</a>
</g>
</g>
<!-- Node1&#45;&gt;Node8 -->
<g id="edge7_Node000001_Node000008" class="edge">
<title>Node1&#45;&gt;Node8</title>
<g id="a_edge7_Node000001_Node000008"><a xlink:title=" ">
<path fill="none" stroke="#63b8ff" d="M123.91,-48.04C134.2,-38.64 146.97,-26.98 155.51,-19.17"/>
<polygon fill="#63b8ff" stroke="#63b8ff" points="121.34,-45.66 116.32,-54.98 126.06,-50.82 121.34,-45.66"/>
</a>
</g>
</g>
<!-- Node2 -->
<g id="Node000002" class="node">
<title>Node2</title>
<g id="a_Node000002"><a xlink:href="classGtk_1_1Box.html" target="_top" xlink:title=" ">
<polygon fill="white" stroke="#666666" points="136.5,-129 77.5,-129 77.5,-110 136.5,-110 136.5,-129"/>
<text text-anchor="middle" x="107" y="-117" font-family="Helvetica,sans-Serif" font-size="10.00">Gtk::Box</text>
</a>
</g>
</g>
<!-- Node2&#45;&gt;Node1 -->
<g id="edge1_Node000001_Node000002" class="edge">
<title>Node2&#45;&gt;Node1</title>
<g id="a_edge1_Node000001_Node000002"><a xlink:title=" ">
<path fill="none" stroke="#63b8ff" d="M107,-99.66C107,-90.93 107,-80.99 107,-74.09"/>
<polygon fill="#63b8ff" stroke="#63b8ff" points="103.5,-99.75 107,-109.75 110.5,-99.75 103.5,-99.75"/>
</a>
</g>
</g>
<!-- Node3 -->
<g id="Node000003" class="node">
<title>Node3</title>
<g id="a_Node000003"><a xlink:href="classGtk_1_1Container.html" target="_top" xlink:title=" ">
<polygon fill="white" stroke="#666666" points="150.5,-184 63.5,-184 63.5,-165 150.5,-165 150.5,-184"/>
<text text-anchor="middle" x="107" y="-172" font-family="Helvetica,sans-Serif" font-size="10.00">Gtk::Container</text>
</a>
</g>
</g>
<!-- Node3&#45;&gt;Node2 -->
<g id="edge2_Node000002_Node000003" class="edge">
<title>Node3&#45;&gt;Node2</title>
<g id="a_edge2_Node000002_Node000003"><a xlink:title=" ">
<path fill="none" stroke="#63b8ff" d="M107,-154.66C107,-145.93 107,-135.99 107,-129.09"/>
<polygon fill="#63b8ff" stroke="#63b8ff" points="103.5,-154.75 107,-164.75 110.5,-154.75 103.5,-154.75"/>
</a>
</g>
</g>
<!-- Node4 -->
<g id="Node000004" class="node">
<title>Node4</title>
<g id="a_Node000004"><a xlink:href="classGtk_1_1Widget.html" target="_top" xlink:title=" ">
<polygon fill="white" stroke="#666666" points="144,-239 70,-239 70,-220 144,-220 144,-239"/>
<text text-anchor="middle" x="107" y="-227" font-family="Helvetica,sans-Serif" font-size="10.00">Gtk::Widget</text>
</a>
</g>
</g>
<!-- Node4&#45;&gt;Node3 -->
<g id="edge3_Node000003_Node000004" class="edge">
<title>Node4&#45;&gt;Node3</title>
<g id="a_edge3_Node000003_Node000004"><a xlink:title=" ">
<path fill="none" stroke="#63b8ff" d="M107,-209.66C107,-200.93 107,-190.99 107,-184.09"/>
<polygon fill="#63b8ff" stroke="#63b8ff" points="103.5,-209.75 107,-219.75 110.5,-209.75 103.5,-209.75"/>
</a>
</g>
</g>
<!-- Node5 -->
<g id="Node000005" class="node">
<title>Node5</title>
<g id="a_Node000005"><a xlink:href="classGtk_1_1Object.html" target="_top" xlink:title=" ">
<polygon fill="white" stroke="#666666" points="142.5,-294 71.5,-294 71.5,-275 142.5,-275 142.5,-294"/>
<text text-anchor="middle" x="107" y="-282" font-family="Helvetica,sans-Serif" font-size="10.00">Gtk::Object</text>
</a>
</g>
</g>
<!-- Node5&#45;&gt;Node4 -->
<g id="edge4_Node000004_Node000005" class="edge">
<title>Node5&#45;&gt;Node4</title>
<g id="a_edge4_Node000004_Node000005"><a xlink:title=" ">
<path fill="none" stroke="#63b8ff" d="M107,-264.66C107,-255.93 107,-245.99 107,-239.09"/>
<polygon fill="#63b8ff" stroke="#63b8ff" points="103.5,-264.75 107,-274.75 110.5,-264.75 103.5,-264.75"/>
</a>
</g>
</g>
<!-- Node6 -->
<g id="Node000006" class="node">
<title>Node6</title>
<g id="a_Node000006"><a xlink:title=" ">
<polygon fill="white" stroke="#666666" points="144,-349 70,-349 70,-330 144,-330 144,-349"/>
<text text-anchor="middle" x="107" y="-337" font-family="Helvetica,sans-Serif" font-size="10.00">Glib::Object</text>
</a>
</g>
</g>
<!-- Node6&#45;&gt;Node5 -->
<g id="edge5_Node000005_Node000006" class="edge">
<title>Node6&#45;&gt;Node5</title>
<g id="a_edge5_Node000005_Node000006"><a xlink:title=" ">
<path fill="none" stroke="#63b8ff" d="M107,-319.66C107,-310.93 107,-300.99 107,-294.09"/>
<polygon fill="#63b8ff" stroke="#63b8ff" points="103.5,-319.75 107,-329.75 110.5,-319.75 103.5,-319.75"/>
</a>
</g>
</g>
</g>
</svg>
