<?xml version="1.0" encoding="UTF-8" standalone="no"?>
<!DOCTYPE svg PUBLIC "-//W3C//DTD SVG 1.1//EN"
 "http://www.w3.org/Graphics/SVG/1.1/DTD/svg11.dtd">
<!-- Generated by graphviz version 2.43.0 (0)
 -->
<!-- Title: Meterbridge Pages: 1 -->
<!--zoomable 138 -->

<svg id="main" version="1.1" xmlns="http://www.w3.org/2000/svg" xmlns:xlink="http://www.w3.org/1999/xlink" xml:space="preserve" onload="init(evt)">
<style type="text/css"><![CDATA[
.node, .edge {opacity: 0.7;}
.node.selected, .edge.selected {opacity: 1;}
.edge:hover path { stroke: red; }
.edge:hover polygon { stroke: red; fill: red; }
]]></style>

<defs>
  <circle id="rim" cx="0" cy="0" r="7"/>
  <circle id="rim2" cx="0" cy="0" r="3.5"/>
  <g id="zoomPlus">
    <use xlink:href="#rim" fill="#404040"><set attributeName="fill" to="#808080" begin="zoomplus.mouseover" end="zoomplus.mouseout"/></use>
    <path d="M-4,0h8M0,-4v8" fill="none" stroke="white" stroke-width="1.5" pointer-events="none"/>
  </g>
  <g id="zoomMin">
    <use xlink:href="#rim" fill="#404040"><set attributeName="fill" to="#808080" begin="zoomminus.mouseover" end="zoomminus.mouseout"/></use>
    <path d="M-4,0h8" fill="none" stroke="white" stroke-width="1.5" pointer-events="none"/>
  </g>
  <g id="arrowUp" transform="translate(30 24)">
    <use xlink:href="#rim"/>
    <path pointer-events="none" fill="none" stroke="white" stroke-width="1.5" d="M0,-3.0v7 M-2.5,-0.5L0,-3.0L2.5,-0.5"/>
  </g>
  <g id="arrowRight" transform="rotate(90) translate(36 -43)">
    <use xlink:href="#rim"/>
    <path pointer-events="none" fill="none" stroke="white" stroke-width="1.5" d="M0,-3.0v7 M-2.5,-0.5L0,-3.0L2.5,-0.5"/>
  </g>
  <g id="arrowDown" transform="rotate(180) translate(-30 -48)">
    <use xlink:href="#rim"/>
    <path pointer-events="none" fill="none" stroke="white" stroke-width="1.5" d="M0,-3.0v7 M-2.5,-0.5L0,-3.0L2.5,-0.5"/>
  </g>
  <g id="arrowLeft" transform="rotate(270) translate(-36 17)">
    <use xlink:href="#rim"/>
    <path pointer-events="none" fill="none" stroke="white" stroke-width="1.5" d="M0,-3.0v7 M-2.5,-0.5L0,-3.0L2.5,-0.5"/>
  </g>
  <g id="resetDef">
    <use xlink:href="#rim2" fill="#404040"><set attributeName="fill" to="#808080" begin="reset.mouseover" end="reset.mouseout"/></use>
  </g>
</defs>
<script type="application/ecmascript">
var viewWidth = 851;
var viewHeight = 138;
var sectionId = 'dynsection-0';
</script>
<script type="application/ecmascript" xlink:href="svg.min.js"/>
<svg id="graph" class="graph">
<g id="viewport">
<title>Meterbridge</title>
<!-- Node1 -->
<g id="Node000001" class="node">
<title>Node1</title>
<g id="a_Node000001"><a xlink:title=" ">
<polygon fill="#999999" stroke="#666666" points="843,-74 767,-74 767,-55 843,-55 843,-74"/>
<text text-anchor="middle" x="805" y="-62" font-family="Helvetica,sans-Serif" font-size="10.00">Meterbridge</text>
</a>
</g>
</g>
<!-- Node2 -->
<g id="Node000002" class="node">
<title>Node2</title>
<g id="a_Node000002"><a xlink:href="classGtk_1_1Window.html" target="_top" xlink:title=" ">
<polygon fill="white" stroke="#666666" points="691.5,-130 612.5,-130 612.5,-111 691.5,-111 691.5,-130"/>
<text text-anchor="middle" x="652" y="-118" font-family="Helvetica,sans-Serif" font-size="10.00">Gtk::Window</text>
</a>
</g>
</g>
<!-- Node2&#45;&gt;Node1 -->
<g id="edge1_Node000001_Node000002" class="edge">
<title>Node2&#45;&gt;Node1</title>
<g id="a_edge1_Node000001_Node000002"><a xlink:title=" ">
<path fill="none" stroke="#63b8ff" d="M701.41,-111.34C711.33,-108.9 721.61,-105.96 731,-102.5 751.64,-94.89 773.87,-82.68 788.3,-74.16"/>
<polygon fill="#63b8ff" stroke="#63b8ff" points="700.6,-107.93 691.65,-113.61 702.18,-114.75 700.6,-107.93"/>
</a>
</g>
</g>
<!-- Node3 -->
<g id="Node000003" class="node">
<title>Node3</title>
<g id="a_Node000003"><a xlink:href="classGtk_1_1Bin.html" target="_top" xlink:title=" ">
<polygon fill="white" stroke="#666666" points="521.5,-130 465.5,-130 465.5,-111 521.5,-111 521.5,-130"/>
<text text-anchor="middle" x="493.5" y="-118" font-family="Helvetica,sans-Serif" font-size="10.00">Gtk::Bin</text>
</a>
</g>
</g>
<!-- Node3&#45;&gt;Node2 -->
<g id="edge2_Node000002_Node000003" class="edge">
<title>Node3&#45;&gt;Node2</title>
<g id="a_edge2_Node000002_Node000003"><a xlink:title=" ">
<path fill="none" stroke="#63b8ff" d="M532.02,-120.5C556.29,-120.5 587.82,-120.5 612.33,-120.5"/>
<polygon fill="#63b8ff" stroke="#63b8ff" points="531.76,-117 521.76,-120.5 531.76,-124 531.76,-117"/>
</a>
</g>
</g>
<!-- Node4 -->
<g id="Node000004" class="node">
<title>Node4</title>
<g id="a_Node000004"><a xlink:href="classGtk_1_1Container.html" target="_top" xlink:title=" ">
<polygon fill="white" stroke="#666666" points="414,-130 327,-130 327,-111 414,-111 414,-130"/>
<text text-anchor="middle" x="370.5" y="-118" font-family="Helvetica,sans-Serif" font-size="10.00">Gtk::Container</text>
</a>
</g>
</g>
<!-- Node4&#45;&gt;Node3 -->
<g id="edge3_Node000003_Node000004" class="edge">
<title>Node4&#45;&gt;Node3</title>
<g id="a_edge3_Node000003_Node000004"><a xlink:title=" ">
<path fill="none" stroke="#63b8ff" d="M424.32,-120.5C438.47,-120.5 453.19,-120.5 465.32,-120.5"/>
<polygon fill="#63b8ff" stroke="#63b8ff" points="424.16,-117 414.16,-120.5 424.16,-124 424.16,-117"/>
</a>
</g>
</g>
<!-- Node5 -->
<g id="Node000005" class="node">
<title>Node5</title>
<g id="a_Node000005"><a xlink:href="classGtk_1_1Widget.html" target="_top" xlink:title=" ">
<polygon fill="white" stroke="#666666" points="291,-130 217,-130 217,-111 291,-111 291,-130"/>
<text text-anchor="middle" x="254" y="-118" font-family="Helvetica,sans-Serif" font-size="10.00">Gtk::Widget</text>
</a>
</g>
</g>
<!-- Node5&#45;&gt;Node4 -->
<g id="edge4_Node000004_Node000005" class="edge">
<title>Node5&#45;&gt;Node4</title>
<g id="a_edge4_Node000004_Node000005"><a xlink:title=" ">
<path fill="none" stroke="#63b8ff" d="M301.27,-120.5C309.67,-120.5 318.4,-120.5 326.7,-120.5"/>
<polygon fill="#63b8ff" stroke="#63b8ff" points="301.23,-117 291.23,-120.5 301.23,-124 301.23,-117"/>
</a>
</g>
</g>
<!-- Node6 -->
<g id="Node000006" class="node">
<title>Node6</title>
<g id="a_Node000006"><a xlink:href="classGtk_1_1Object.html" target="_top" xlink:title=" ">
<polygon fill="white" stroke="#666666" points="181,-130 110,-130 110,-111 181,-111 181,-130"/>
<text text-anchor="middle" x="145.5" y="-118" font-family="Helvetica,sans-Serif" font-size="10.00">Gtk::Object</text>
</a>
</g>
</g>
<!-- Node6&#45;&gt;Node5 -->
<g id="edge5_Node000005_Node000006" class="edge">
<title>Node6&#45;&gt;Node5</title>
<g id="a_edge5_Node000005_Node000006"><a xlink:title=" ">
<path fill="none" stroke="#63b8ff" d="M191.25,-120.5C199.76,-120.5 208.56,-120.5 216.77,-120.5"/>
<polygon fill="#63b8ff" stroke="#63b8ff" points="191.08,-117 181.08,-120.5 191.08,-124 191.08,-117"/>
</a>
</g>
</g>
<!-- Node7 -->
<g id="Node000007" class="node">
<title>Node7</title>
<g id="a_Node000007"><a xlink:title=" ">
<polygon fill="white" stroke="#666666" points="74,-130 0,-130 0,-111 74,-111 74,-130"/>
<text text-anchor="middle" x="37" y="-118" font-family="Helvetica,sans-Serif" font-size="10.00">Glib::Object</text>
</a>
</g>
</g>
<!-- Node7&#45;&gt;Node6 -->
<g id="edge6_Node000006_Node000007" class="edge">
<title>Node7&#45;&gt;Node6</title>
<g id="a_edge6_Node000006_Node000007"><a xlink:title=" ">
<path fill="none" stroke="#63b8ff" d="M84.06,-120.5C92.74,-120.5 101.67,-120.5 109.92,-120.5"/>
<polygon fill="#63b8ff" stroke="#63b8ff" points="84.06,-117 74.06,-120.5 84.06,-124 84.06,-117"/>
</a>
</g>
</g>
<!-- Node8 -->
<g id="Node000008" class="node">
<title>Node8</title>
<g id="a_Node000008"><a xlink:href="classPBD_1_1ScopedConnectionList.html" target="_top" xlink:title=" ">
<polygon fill="white" stroke="#666666" points="727,-93 577,-93 577,-74 727,-74 727,-93"/>
<text text-anchor="middle" x="652" y="-81" font-family="Helvetica,sans-Serif" font-size="10.00">PBD::ScopedConnectionList</text>
</a>
</g>
</g>
<!-- Node8&#45;&gt;Node1 -->
<g id="edge7_Node000001_Node000008" class="edge">
<title>Node8&#45;&gt;Node1</title>
<g id="a_edge7_Node000001_Node000008"><a xlink:title=" ">
<path fill="none" stroke="#63b8ff" d="M737.13,-72.91C747.47,-71.61 757.59,-70.34 766.7,-69.19"/>
<polygon fill="#63b8ff" stroke="#63b8ff" points="736.66,-69.45 727.17,-74.17 737.53,-76.39 736.66,-69.45"/>
</a>
</g>
</g>
<!-- Node9 -->
<g id="Node000009" class="node">
<title>Node9</title>
<g id="a_Node000009"><a xlink:href="classARDOUR_1_1SessionHandlePtr.html" target="_top" xlink:title=" ">
<polygon fill="white" stroke="#666666" points="727.5,-56 576.5,-56 576.5,-37 727.5,-37 727.5,-56"/>
<text text-anchor="middle" x="652" y="-44" font-family="Helvetica,sans-Serif" font-size="10.00">ARDOUR::SessionHandlePtr</text>
</a>
</g>
</g>
<!-- Node9&#45;&gt;Node1 -->
<g id="edge8_Node000001_Node000009" class="edge">
<title>Node9&#45;&gt;Node1</title>
<g id="a_edge8_Node000001_Node000009"><a xlink:title=" ">
<path fill="none" stroke="#63b8ff" d="M737.85,-56.61C748.03,-57.83 757.99,-59.01 766.95,-60.08"/>
<polygon fill="#63b8ff" stroke="#63b8ff" points="737.96,-53.1 727.62,-55.39 737.13,-60.05 737.96,-53.1"/>
</a>
</g>
</g>
<!-- Node10 -->
<g id="Node000010" class="node">
<title>Node10</title>
<g id="a_Node000010"><a xlink:href="classGtkmm2ext_1_1VisibilityTracker.html" target="_top" xlink:title=" ">
<polygon fill="white" stroke="#666666" points="731,-19 573,-19 573,0 731,0 731,-19"/>
<text text-anchor="middle" x="652" y="-7" font-family="Helvetica,sans-Serif" font-size="10.00">Gtkmm2ext::VisibilityTracker</text>
</a>
</g>
</g>
<!-- Node10&#45;&gt;Node1 -->
<g id="edge9_Node000001_Node000010" class="edge">
<title>Node10&#45;&gt;Node1</title>
<g id="a_edge9_Node000001_Node000010"><a xlink:title=" ">
<path fill="none" stroke="#63b8ff" d="M712.52,-21.65C718.82,-23.4 725.08,-25.35 731,-27.5 751.44,-34.91 773.52,-46.68 787.98,-54.95"/>
<polygon fill="#63b8ff" stroke="#63b8ff" points="713.19,-18.21 702.62,-19.05 711.41,-24.98 713.19,-18.21"/>
</a>
</g>
</g>
<!-- Node11 -->
<g id="Node000011" class="node">
<title>Node11</title>
<g id="a_Node000011"><a xlink:title=" ">
<polygon fill="white" stroke="#666666" points="537,-19 450,-19 450,0 537,0 537,-19"/>
<text text-anchor="middle" x="493.5" y="-7" font-family="Helvetica,sans-Serif" font-size="10.00">sigc::trackable</text>
</a>
</g>
</g>
<!-- Node11&#45;&gt;Node10 -->
<g id="edge10_Node000010_Node000011" class="edge">
<title>Node11&#45;&gt;Node10</title>
<g id="a_edge10_Node000010_Node000011"><a xlink:title=" ">
<path fill="none" stroke="#63b8ff" d="M547.38,-9.5C555.57,-9.5 564.18,-9.5 572.78,-9.5"/>
<polygon fill="#63b8ff" stroke="#63b8ff" points="547.26,-6 537.26,-9.5 547.26,-13 547.26,-6"/>
</a>
</g>
</g>
</g>
</svg>

<g id="navigator" transform="translate(0 0)" fill="#404254">
  <rect fill="#f2f5e9" fill-opacity="0.5" stroke="#606060" stroke-width=".5" x="0" y="0" width="60" height="60"/>
  <use id="zoomplus" xlink:href="#zoomPlus" x="17" y="9" onmousedown="handleZoom(evt,'in')"/>
  <use id="zoomminus" xlink:href="#zoomMin" x="42" y="9" onmousedown="handleZoom(evt,'out')"/>
  <use id="reset" xlink:href="#resetDef" x="30" y="36" onmousedown="handleReset()"/>
   <use id="arrowup" xlink:href="#arrowUp" x="0" y="0" onmousedown="handlePan(0,-1)"/>
  <use id="arrowright" xlink:href="#arrowRight" x="0" y="0" onmousedown="handlePan(1,0)"/>
  <use id="arrowdown" xlink:href="#arrowDown" x="0" y="0" onmousedown="handlePan(0,1)"/>
  <use id="arrowleft" xlink:href="#arrowLeft" x="0" y="0" onmousedown="handlePan(-1,0)"/>
</g>
<svg viewBox="0 0 15 15" width="100%" height="30px" preserveAspectRatio="xMaxYMin meet">
 <g id="arrow_out" transform="scale(0.3 0.3)">
  <a xlink:href="classMeterbridge__inherit__graph_org.svg" target="_base">
   <rect id="button" ry="5" rx="5" y="6" x="6" height="38" width="38"
        fill="#f2f5e9" fill-opacity="0.5" stroke="#606060" stroke-width="1.0"/>
   <path id="arrow"
     d="M 11.500037,31.436501 C 11.940474,20.09759 22.043105,11.32322 32.158766,21.979434 L 37.068811,17.246167 C 37.068811,17.246167 37.088388,32 37.088388,32 L 22.160133,31.978069 C 22.160133,31.978069 26.997745,27.140456 26.997745,27.140456 C 18.528582,18.264221 13.291696,25.230495 11.500037,31.436501 z"
     style="fill:#404040;"/>
  </a>
 </g>
</svg>

<style type='text/css'>
<![CDATA[
[data-mouse-over-selected='false'] { opacity: 0.7; }
[data-mouse-over-selected='true']  { opacity: 1.0; }
]]>
</style>
<script type="application/ecmascript"><![CDATA[
document.addEventListener('DOMContentLoaded', (event) => {
  highlightEdges();
  highlightAdjacentNodes();
});
]]></script>
</svg>
