<?xml version="1.0" encoding="UTF-8" standalone="no"?>
<!DOCTYPE svg PUBLIC "-//W3C//DTD SVG 1.1//EN"
 "http://www.w3.org/Graphics/SVG/1.1/DTD/svg11.dtd">
<!-- Generated by graphviz version 2.43.0 (0)
 -->
<!-- Title: EditingContext Pages: 1 -->
<svg width="527pt" height="150pt"
 viewBox="0.00 0.00 527.00 150.00" xmlns="http://www.w3.org/2000/svg" xmlns:xlink="http://www.w3.org/1999/xlink">
<g id="graph0" class="graph" transform="scale(1 1) rotate(0) translate(4 146)">
<title>EditingContext</title>
<!-- Node1 -->
<g id="Node000001" class="node">
<title>Node1</title>
<g id="a_Node000001"><a xlink:title=" ">
<polygon fill="#999999" stroke="#666666" points="281,-83 192,-83 192,-64 281,-64 281,-83"/>
<text text-anchor="middle" x="236.5" y="-71" font-family="Helvetica,sans-Serif" font-size="10.00">EditingContext</text>
</a>
</g>
</g>
<!-- Node6 -->
<g id="Node000006" class="node">
<title>Node6</title>
<g id="a_Node000006"><a xlink:href="classCueEditor.html" target="_top" xlink:title=" ">
<polygon fill="white" stroke="#666666" points="386,-102 322,-102 322,-83 386,-83 386,-102"/>
<text text-anchor="middle" x="354" y="-90" font-family="Helvetica,sans-Serif" font-size="10.00">CueEditor</text>
</a>
</g>
</g>
<!-- Node1&#45;&gt;Node6 -->
<g id="edge5_Node000001_Node000006" class="edge">
<title>Node1&#45;&gt;Node6</title>
<g id="a_edge5_Node000001_Node000006"><a xlink:title=" ">
<path fill="none" stroke="#63b8ff" d="M291.15,-82.33C301.68,-84.06 312.38,-85.82 321.86,-87.38"/>
<polygon fill="#63b8ff" stroke="#63b8ff" points="291.6,-78.85 281.17,-80.68 290.46,-85.76 291.6,-78.85"/>
</a>
</g>
</g>
<!-- Node9 -->
<g id="Node000009" class="node">
<title>Node9</title>
<g id="a_Node000009"><a xlink:href="classPublicEditor.html" target="_top" xlink:title="Representation of the interface of the Editor class.">
<polygon fill="white" stroke="#666666" points="391,-65 317,-65 317,-46 391,-46 391,-65"/>
<text text-anchor="middle" x="354" y="-53" font-family="Helvetica,sans-Serif" font-size="10.00">PublicEditor</text>
</a>
</g>
</g>
<!-- Node1&#45;&gt;Node9 -->
<g id="edge8_Node000001_Node000009" class="edge">
<title>Node1&#45;&gt;Node9</title>
<g id="a_edge8_Node000001_Node000009"><a xlink:title=" ">
<path fill="none" stroke="#63b8ff" d="M291.23,-65.13C299.9,-63.78 308.68,-62.41 316.8,-61.14"/>
<polygon fill="#63b8ff" stroke="#63b8ff" points="290.51,-61.7 281.17,-66.69 291.59,-68.61 290.51,-61.7"/>
</a>
</g>
</g>
<!-- Node2 -->
<g id="Node000002" class="node">
<title>Node2</title>
<g id="a_Node000002"><a xlink:href="classARDOUR_1_1SessionHandlePtr.html" target="_top" xlink:title=" ">
<polygon fill="white" stroke="#666666" points="153.5,-142 2.5,-142 2.5,-123 153.5,-123 153.5,-142"/>
<text text-anchor="middle" x="78" y="-130" font-family="Helvetica,sans-Serif" font-size="10.00">ARDOUR::SessionHandlePtr</text>
</a>
</g>
</g>
<!-- Node2&#45;&gt;Node1 -->
<g id="edge1_Node000001_Node000002" class="edge">
<title>Node2&#45;&gt;Node1</title>
<g id="a_edge1_Node000001_Node000002"><a xlink:title=" ">
<path fill="none" stroke="#63b8ff" d="M137.77,-120.36C143.99,-118.6 150.17,-116.65 156,-114.5 179.17,-105.97 204.23,-92.22 219.89,-83.02"/>
<polygon fill="#63b8ff" stroke="#63b8ff" points="136.77,-117 128.01,-122.96 138.57,-123.77 136.77,-117"/>
</a>
</g>
</g>
<!-- Node3 -->
<g id="Node000003" class="node">
<title>Node3</title>
<g id="a_Node000003"><a xlink:href="classAxisViewProvider.html" target="_top" xlink:title=" ">
<polygon fill="white" stroke="#666666" points="129,-105 27,-105 27,-86 129,-86 129,-105"/>
<text text-anchor="middle" x="78" y="-93" font-family="Helvetica,sans-Serif" font-size="10.00">AxisViewProvider</text>
</a>
</g>
</g>
<!-- Node3&#45;&gt;Node1 -->
<g id="edge2_Node000001_Node000003" class="edge">
<title>Node3&#45;&gt;Node1</title>
<g id="a_edge2_Node000001_Node000003"><a xlink:title=" ">
<path fill="none" stroke="#63b8ff" d="M139.47,-87C156.91,-84.55 175.59,-81.92 191.8,-79.64"/>
<polygon fill="#63b8ff" stroke="#63b8ff" points="138.79,-83.56 129.38,-88.42 139.77,-90.49 138.79,-83.56"/>
</a>
</g>
</g>
<!-- Node4 -->
<g id="Node000004" class="node">
<title>Node4</title>
<g id="a_Node000004"><a xlink:href="classTemporal_1_1ScopedTempoMapOwner.html" target="_top" xlink:title=" ">
<polygon fill="white" stroke="#666666" points="156,-67.5 0,-67.5 0,-37.5 156,-37.5 156,-67.5"/>
<text text-anchor="start" x="8" y="-55.5" font-family="Helvetica,sans-Serif" font-size="10.00">Temporal::ScopedTempoMap</text>
<text text-anchor="middle" x="78" y="-44.5" font-family="Helvetica,sans-Serif" font-size="10.00">Owner</text>
</a>
</g>
</g>
<!-- Node4&#45;&gt;Node1 -->
<g id="edge3_Node000001_Node000004" class="edge">
<title>Node4&#45;&gt;Node1</title>
<g id="a_edge3_Node000001_Node000004"><a xlink:title=" ">
<path fill="none" stroke="#63b8ff" d="M166.3,-64.21C175.08,-65.39 183.72,-66.55 191.75,-67.63"/>
<polygon fill="#63b8ff" stroke="#63b8ff" points="166.71,-60.74 156.33,-62.88 165.78,-67.68 166.71,-60.74"/>
</a>
</g>
</g>
<!-- Node5 -->
<g id="Node000005" class="node">
<title>Node5</title>
<g id="a_Node000005"><a xlink:title=" ">
<polygon fill="white" stroke="#666666" points="121.5,-19 34.5,-19 34.5,0 121.5,0 121.5,-19"/>
<text text-anchor="middle" x="78" y="-7" font-family="Helvetica,sans-Serif" font-size="10.00">sigc::trackable</text>
</a>
</g>
</g>
<!-- Node5&#45;&gt;Node1 -->
<g id="edge4_Node000001_Node000005" class="edge">
<title>Node5&#45;&gt;Node1</title>
<g id="a_edge4_Node000001_Node000005"><a xlink:title=" ">
<path fill="none" stroke="#63b8ff" d="M131.34,-20.36C139.71,-22.68 148.18,-25.39 156,-28.5 180.17,-38.11 206,-53.88 221.44,-63.97"/>
<polygon fill="#63b8ff" stroke="#63b8ff" points="132.17,-16.96 121.61,-17.82 130.4,-23.74 132.17,-16.96"/>
</a>
</g>
</g>
<!-- Node7 -->
<g id="Node000007" class="node">
<title>Node7</title>
<g id="a_Node000007"><a xlink:href="classAudioClipEditor.html" target="_top" xlink:title=" ">
<polygon fill="white" stroke="#666666" points="519,-139 427,-139 427,-120 519,-120 519,-139"/>
<text text-anchor="middle" x="473" y="-127" font-family="Helvetica,sans-Serif" font-size="10.00">AudioClipEditor</text>
</a>
</g>
</g>
<!-- Node6&#45;&gt;Node7 -->
<g id="edge6_Node000006_Node000007" class="edge">
<title>Node6&#45;&gt;Node7</title>
<g id="a_edge6_Node000006_Node000007"><a xlink:title=" ">
<path fill="none" stroke="#63b8ff" d="M394.85,-105.1C410.13,-109.93 427.3,-115.37 441.57,-119.88"/>
<polygon fill="#63b8ff" stroke="#63b8ff" points="395.72,-101.71 385.13,-102.03 393.61,-108.38 395.72,-101.71"/>
</a>
</g>
</g>
<!-- Node8 -->
<g id="Node000008" class="node">
<title>Node8</title>
<g id="a_Node000008"><a xlink:href="classPianoroll.html" target="_top" xlink:title=" ">
<polygon fill="white" stroke="#666666" points="502.5,-102 443.5,-102 443.5,-83 502.5,-83 502.5,-102"/>
<text text-anchor="middle" x="473" y="-90" font-family="Helvetica,sans-Serif" font-size="10.00">Pianoroll</text>
</a>
</g>
</g>
<!-- Node6&#45;&gt;Node8 -->
<g id="edge7_Node000006_Node000008" class="edge">
<title>Node6&#45;&gt;Node8</title>
<g id="a_edge7_Node000006_Node000008"><a xlink:title=" ">
<path fill="none" stroke="#63b8ff" d="M396.42,-92.5C411.9,-92.5 429.13,-92.5 443.22,-92.5"/>
<polygon fill="#63b8ff" stroke="#63b8ff" points="396.05,-89 386.05,-92.5 396.05,-96 396.05,-89"/>
</a>
</g>
</g>
<!-- Node10 -->
<g id="Node000010" class="node">
<title>Node10</title>
<g id="a_Node000010"><a xlink:href="classEditor.html" target="_top" xlink:title=" ">
<polygon fill="white" stroke="#666666" points="495.5,-65 450.5,-65 450.5,-46 495.5,-46 495.5,-65"/>
<text text-anchor="middle" x="473" y="-53" font-family="Helvetica,sans-Serif" font-size="10.00">Editor</text>
</a>
</g>
</g>
<!-- Node9&#45;&gt;Node10 -->
<g id="edge9_Node000009_Node000010" class="edge">
<title>Node9&#45;&gt;Node10</title>
<g id="a_edge9_Node000009_Node000010"><a xlink:title=" ">
<path fill="none" stroke="#63b8ff" d="M401.32,-55.5C418.17,-55.5 436.44,-55.5 450.18,-55.5"/>
<polygon fill="#63b8ff" stroke="#63b8ff" points="401.06,-52 391.06,-55.5 401.06,-59 401.06,-52"/>
</a>
</g>
</g>
</g>
</svg>
