<?xml version="1.0" encoding="UTF-8" standalone="no"?>
<!DOCTYPE svg PUBLIC "-//W3C//DTD SVG 1.1//EN"
 "http://www.w3.org/Graphics/SVG/1.1/DTD/svg11.dtd">
<!-- Generated by graphviz version 2.43.0 (0)
 -->
<!-- Title: RouteUI Pages: 1 -->
<!--zoomable 286 -->

<svg id="main" version="1.1" xmlns="http://www.w3.org/2000/svg" xmlns:xlink="http://www.w3.org/1999/xlink" xml:space="preserve" onload="init(evt)">
<style type="text/css"><![CDATA[
.node, .edge {opacity: 0.7;}
.node.selected, .edge.selected {opacity: 1;}
.edge:hover path { stroke: red; }
.edge:hover polygon { stroke: red; fill: red; }
]]></style>

<defs>
  <circle id="rim" cx="0" cy="0" r="7"/>
  <circle id="rim2" cx="0" cy="0" r="3.5"/>
  <g id="zoomPlus">
    <use xlink:href="#rim" fill="#404040"><set attributeName="fill" to="#808080" begin="zoomplus.mouseover" end="zoomplus.mouseout"/></use>
    <path d="M-4,0h8M0,-4v8" fill="none" stroke="white" stroke-width="1.5" pointer-events="none"/>
  </g>
  <g id="zoomMin">
    <use xlink:href="#rim" fill="#404040"><set attributeName="fill" to="#808080" begin="zoomminus.mouseover" end="zoomminus.mouseout"/></use>
    <path d="M-4,0h8" fill="none" stroke="white" stroke-width="1.5" pointer-events="none"/>
  </g>
  <g id="arrowUp" transform="translate(30 24)">
    <use xlink:href="#rim"/>
    <path pointer-events="none" fill="none" stroke="white" stroke-width="1.5" d="M0,-3.0v7 M-2.5,-0.5L0,-3.0L2.5,-0.5"/>
  </g>
  <g id="arrowRight" transform="rotate(90) translate(36 -43)">
    <use xlink:href="#rim"/>
    <path pointer-events="none" fill="none" stroke="white" stroke-width="1.5" d="M0,-3.0v7 M-2.5,-0.5L0,-3.0L2.5,-0.5"/>
  </g>
  <g id="arrowDown" transform="rotate(180) translate(-30 -48)">
    <use xlink:href="#rim"/>
    <path pointer-events="none" fill="none" stroke="white" stroke-width="1.5" d="M0,-3.0v7 M-2.5,-0.5L0,-3.0L2.5,-0.5"/>
  </g>
  <g id="arrowLeft" transform="rotate(270) translate(-36 17)">
    <use xlink:href="#rim"/>
    <path pointer-events="none" fill="none" stroke="white" stroke-width="1.5" d="M0,-3.0v7 M-2.5,-0.5L0,-3.0L2.5,-0.5"/>
  </g>
  <g id="resetDef">
    <use xlink:href="#rim2" fill="#404040"><set attributeName="fill" to="#808080" begin="reset.mouseover" end="reset.mouseout"/></use>
  </g>
</defs>
<script type="application/ecmascript">
var viewWidth = 675;
var viewHeight = 286;
var sectionId = 'dynsection-0';
</script>
<script type="application/ecmascript" xlink:href="svg.min.js"/>
<svg id="graph" class="graph">
<g id="viewport">
<title>RouteUI</title>
<!-- Node1 -->
<g id="Node000001" class="node">
<title>Node1</title>
<g id="a_Node000001"><a xlink:title=" ">
<polygon fill="#999999" stroke="#666666" points="366,-148 310,-148 310,-129 366,-129 366,-148"/>
<text text-anchor="middle" x="338" y="-136" font-family="Helvetica,sans-Serif" font-size="10.00">RouteUI</text>
</a>
</g>
</g>
<!-- Node6 -->
<g id="Node000006" class="node">
<title>Node6</title>
<g id="a_Node000006"><a xlink:href="classFoldbackStrip.html" target="_top" xlink:title=" ">
<polygon fill="white" stroke="#666666" points="501,-278 418,-278 418,-259 501,-259 501,-278"/>
<text text-anchor="middle" x="459.5" y="-266" font-family="Helvetica,sans-Serif" font-size="10.00">FoldbackStrip</text>
</a>
</g>
</g>
<!-- Node1&#45;&gt;Node6 -->
<g id="edge6_Node000001_Node000006" class="edge">
<title>Node1&#45;&gt;Node6</title>
<g id="a_edge6_Node000001_Node000006"><a xlink:title=" ">
<path fill="none" stroke="#63b8ff" d="M344.95,-157.97C353.57,-182.95 371.86,-225.96 402,-250.5 406.71,-254.34 412.25,-257.36 417.99,-259.74"/>
<polygon fill="#63b8ff" stroke="#63b8ff" points="348.19,-156.61 341.76,-148.19 341.54,-158.78 348.19,-156.61"/>
</a>
</g>
</g>
<!-- Node7 -->
<g id="Node000007" class="node">
<title>Node7</title>
<g id="a_Node000007"><a xlink:href="classMeterStrip.html" target="_top" xlink:title=" ">
<polygon fill="white" stroke="#666666" points="493.5,-241 425.5,-241 425.5,-222 493.5,-222 493.5,-241"/>
<text text-anchor="middle" x="459.5" y="-229" font-family="Helvetica,sans-Serif" font-size="10.00">MeterStrip</text>
</a>
</g>
</g>
<!-- Node1&#45;&gt;Node7 -->
<g id="edge7_Node000001_Node000007" class="edge">
<title>Node1&#45;&gt;Node7</title>
<g id="a_edge7_Node000001_Node000007"><a xlink:title=" ">
<path fill="none" stroke="#63b8ff" d="M349.86,-156.55C360.96,-173.55 379.71,-198.57 402,-213.5 409.01,-218.2 417.33,-221.73 425.4,-224.37"/>
<polygon fill="#63b8ff" stroke="#63b8ff" points="352.8,-154.65 344.51,-148.05 346.87,-158.38 352.8,-154.65"/>
</a>
</g>
</g>
<!-- Node8 -->
<g id="Node000008" class="node">
<title>Node8</title>
<g id="a_Node000008"><a xlink:href="classMixerStrip.html" target="_top" xlink:title=" ">
<polygon fill="white" stroke="#666666" points="492.5,-204 426.5,-204 426.5,-185 492.5,-185 492.5,-204"/>
<text text-anchor="middle" x="459.5" y="-192" font-family="Helvetica,sans-Serif" font-size="10.00">MixerStrip</text>
</a>
</g>
</g>
<!-- Node1&#45;&gt;Node8 -->
<g id="edge8_Node000001_Node000008" class="edge">
<title>Node1&#45;&gt;Node8</title>
<g id="a_edge8_Node000001_Node000008"><a xlink:title=" ">
<path fill="none" stroke="#63b8ff" d="M361.65,-153.93C373.34,-161.44 388.05,-170.18 402,-176.5 409.69,-179.99 418.25,-183.08 426.33,-185.69"/>
<polygon fill="#63b8ff" stroke="#63b8ff" points="363.27,-150.81 352.99,-148.25 359.43,-156.66 363.27,-150.81"/>
</a>
</g>
</g>
<!-- Node9 -->
<g id="Node000009" class="node">
<title>Node9</title>
<g id="a_Node000009"><a xlink:href="classMonitorSection.html" target="_top" xlink:title=" ">
<polygon fill="white" stroke="#666666" points="504.5,-167 414.5,-167 414.5,-148 504.5,-148 504.5,-167"/>
<text text-anchor="middle" x="459.5" y="-155" font-family="Helvetica,sans-Serif" font-size="10.00">MonitorSection</text>
</a>
</g>
</g>
<!-- Node1&#45;&gt;Node9 -->
<g id="edge9_Node000001_Node000009" class="edge">
<title>Node1&#45;&gt;Node9</title>
<g id="a_edge9_Node000001_Node000009"><a xlink:title=" ">
<path fill="none" stroke="#63b8ff" d="M376.24,-144.42C388.25,-146.33 401.68,-148.47 414.15,-150.45"/>
<polygon fill="#63b8ff" stroke="#63b8ff" points="376.54,-140.93 366.12,-142.81 375.44,-147.84 376.54,-140.93"/>
</a>
</g>
</g>
<!-- Node10 -->
<g id="Node000010" class="node">
<title>Node10</title>
<g id="a_Node000010"><a xlink:href="classRouteTimeAxisView.html" target="_top" xlink:title=" ">
<polygon fill="white" stroke="#666666" points="517,-130 402,-130 402,-111 517,-111 517,-130"/>
<text text-anchor="middle" x="459.5" y="-118" font-family="Helvetica,sans-Serif" font-size="10.00">RouteTimeAxisView</text>
</a>
</g>
</g>
<!-- Node1&#45;&gt;Node10 -->
<g id="edge10_Node000001_Node000010" class="edge">
<title>Node1&#45;&gt;Node10</title>
<g id="a_edge10_Node000001_Node000010"><a xlink:title=" ">
<path fill="none" stroke="#63b8ff" d="M376.03,-132.92C384.18,-131.7 392.99,-130.37 401.72,-129.05"/>
<polygon fill="#63b8ff" stroke="#63b8ff" points="375.48,-129.47 366.12,-134.42 376.53,-136.39 375.48,-129.47"/>
</a>
</g>
</g>
<!-- Node13 -->
<g id="Node000013" class="node">
<title>Node13</title>
<g id="a_Node000013"><a xlink:href="classSurroundStrip.html" target="_top" xlink:title=" ">
<polygon fill="white" stroke="#666666" points="501,-93 418,-93 418,-74 501,-74 501,-93"/>
<text text-anchor="middle" x="459.5" y="-81" font-family="Helvetica,sans-Serif" font-size="10.00">SurroundStrip</text>
</a>
</g>
</g>
<!-- Node1&#45;&gt;Node13 -->
<g id="edge13_Node000001_Node000013" class="edge">
<title>Node1&#45;&gt;Node13</title>
<g id="a_edge13_Node000001_Node000013"><a xlink:title=" ">
<path fill="none" stroke="#63b8ff" d="M361.93,-123.36C373.6,-116.1 388.2,-107.66 402,-101.5 409.05,-98.35 416.82,-95.51 424.28,-93.05"/>
<polygon fill="#63b8ff" stroke="#63b8ff" points="359.83,-120.55 353.27,-128.87 363.59,-126.46 359.83,-120.55"/>
</a>
</g>
</g>
<!-- Node14 -->
<g id="Node000014" class="node">
<title>Node14</title>
<g id="a_Node000014"><a xlink:href="classTrackRecordAxis.html" target="_top" xlink:title=" ">
<polygon fill="white" stroke="#666666" points="508,-56 411,-56 411,-37 508,-37 508,-56"/>
<text text-anchor="middle" x="459.5" y="-44" font-family="Helvetica,sans-Serif" font-size="10.00">TrackRecordAxis</text>
</a>
</g>
</g>
<!-- Node1&#45;&gt;Node14 -->
<g id="edge14_Node000001_Node000014" class="edge">
<title>Node1&#45;&gt;Node14</title>
<g id="a_edge14_Node000001_Node000014"><a xlink:title=" ">
<path fill="none" stroke="#63b8ff" d="M350.41,-119.95C361.61,-103.21 380.16,-79.03 402,-64.5 407.06,-61.14 412.78,-58.37 418.6,-56.1"/>
<polygon fill="#63b8ff" stroke="#63b8ff" points="347.17,-118.52 344.69,-128.83 353.05,-122.31 347.17,-118.52"/>
</a>
</g>
</g>
<!-- Node15 -->
<g id="Node000015" class="node">
<title>Node15</title>
<g id="a_Node000015"><a xlink:href="classTriggerStrip.html" target="_top" xlink:title=" ">
<polygon fill="white" stroke="#666666" points="495.5,-19 423.5,-19 423.5,0 495.5,0 495.5,-19"/>
<text text-anchor="middle" x="459.5" y="-7" font-family="Helvetica,sans-Serif" font-size="10.00">TriggerStrip</text>
</a>
</g>
</g>
<!-- Node1&#45;&gt;Node15 -->
<g id="edge15_Node000001_Node000015" class="edge">
<title>Node1&#45;&gt;Node15</title>
<g id="a_edge15_Node000001_Node000015"><a xlink:title=" ">
<path fill="none" stroke="#63b8ff" d="M345,-119.2C353.67,-94.45 372.02,-51.82 402,-27.5 408.16,-22.51 415.72,-18.89 423.29,-16.27"/>
<polygon fill="#63b8ff" stroke="#63b8ff" points="341.61,-118.3 341.78,-128.9 348.25,-120.51 341.61,-118.3"/>
</a>
</g>
</g>
<!-- Node2 -->
<g id="Node000002" class="node">
<title>Node2</title>
<g id="a_Node000002"><a xlink:href="classSelectable.html" target="_top" xlink:title=" ">
<polygon fill="white" stroke="#666666" points="232.5,-167 164.5,-167 164.5,-148 232.5,-148 232.5,-167"/>
<text text-anchor="middle" x="198.5" y="-155" font-family="Helvetica,sans-Serif" font-size="10.00">Selectable</text>
</a>
</g>
</g>
<!-- Node2&#45;&gt;Node1 -->
<g id="edge1_Node000001_Node000002" class="edge">
<title>Node2&#45;&gt;Node1</title>
<g id="a_edge1_Node000001_Node000002"><a xlink:title=" ">
<path fill="none" stroke="#63b8ff" d="M242.82,-151.51C264.66,-148.5 290.49,-144.93 309.57,-142.29"/>
<polygon fill="#63b8ff" stroke="#63b8ff" points="242.21,-148.06 232.78,-152.9 243.17,-155 242.21,-148.06"/>
</a>
</g>
</g>
<!-- Node3 -->
<g id="Node000003" class="node">
<title>Node3</title>
<g id="a_Node000003"><a xlink:title=" ">
<polygon fill="white" stroke="#666666" points="87,-186 0,-186 0,-167 87,-167 87,-186"/>
<text text-anchor="middle" x="43.5" y="-174" font-family="Helvetica,sans-Serif" font-size="10.00">sigc::trackable</text>
</a>
</g>
</g>
<!-- Node3&#45;&gt;Node1 -->
<g id="edge5_Node000001_Node000003" class="edge">
<title>Node3&#45;&gt;Node1</title>
<g id="a_edge5_Node000001_Node000003"><a xlink:title=" ">
<path fill="none" stroke="#63b8ff" d="M97.3,-184.41C144.53,-189.64 215.17,-192.87 274,-176.5 293.69,-171.02 313.38,-157.55 325.37,-148.21"/>
<polygon fill="#63b8ff" stroke="#63b8ff" points="97.64,-180.93 87.3,-183.23 96.82,-187.88 97.64,-180.93"/>
</a>
</g>
</g>
<!-- Node3&#45;&gt;Node2 -->
<g id="edge2_Node000002_Node000003" class="edge">
<title>Node3&#45;&gt;Node2</title>
<g id="a_edge2_Node000002_Node000003"><a xlink:title=" ">
<path fill="none" stroke="#63b8ff" d="M97.12,-169.97C119.4,-167.2 144.7,-164.06 164.32,-161.62"/>
<polygon fill="#63b8ff" stroke="#63b8ff" points="96.61,-166.5 87.12,-171.21 97.47,-173.45 96.61,-166.5"/>
</a>
</g>
</g>
<!-- Node4 -->
<g id="Node000004" class="node">
<title>Node4</title>
<g id="a_Node000004"><a xlink:href="classARDOUR_1_1SessionHandlePtr.html" target="_top" xlink:title=" ">
<polygon fill="white" stroke="#666666" points="274,-130 123,-130 123,-111 274,-111 274,-130"/>
<text text-anchor="middle" x="198.5" y="-118" font-family="Helvetica,sans-Serif" font-size="10.00">ARDOUR::SessionHandlePtr</text>
</a>
</g>
</g>
<!-- Node4&#45;&gt;Node1 -->
<g id="edge3_Node000001_Node000004" class="edge">
<title>Node4&#45;&gt;Node1</title>
<g id="a_edge3_Node000001_Node000004"><a xlink:title=" ">
<path fill="none" stroke="#63b8ff" d="M282.26,-131.33C292.13,-132.63 301.61,-133.87 309.81,-134.94"/>
<polygon fill="#63b8ff" stroke="#63b8ff" points="282.65,-127.85 272.28,-130.03 281.74,-134.8 282.65,-127.85"/>
</a>
</g>
</g>
<!-- Node5 -->
<g id="Node000005" class="node">
<title>Node5</title>
<g id="a_Node000005"><a xlink:href="classPBD_1_1ScopedConnectionList.html" target="_top" xlink:title=" ">
<polygon fill="white" stroke="#666666" points="273.5,-93 123.5,-93 123.5,-74 273.5,-74 273.5,-93"/>
<text text-anchor="middle" x="198.5" y="-81" font-family="Helvetica,sans-Serif" font-size="10.00">PBD::ScopedConnectionList</text>
</a>
</g>
</g>
<!-- Node5&#45;&gt;Node1 -->
<g id="edge4_Node000001_Node000005" class="edge">
<title>Node5&#45;&gt;Node1</title>
<g id="a_edge4_Node000001_Node000005"><a xlink:title=" ">
<path fill="none" stroke="#63b8ff" d="M258.08,-95.91C263.53,-97.58 268.91,-99.44 274,-101.5 291.88,-108.72 310.73,-120.41 323.11,-128.72"/>
<polygon fill="#63b8ff" stroke="#63b8ff" points="258.82,-92.48 248.24,-93.09 256.89,-99.21 258.82,-92.48"/>
</a>
</g>
</g>
<!-- Node11 -->
<g id="Node000011" class="node">
<title>Node11</title>
<g id="a_Node000011"><a xlink:href="classAudioTimeAxisView.html" target="_top" xlink:title=" ">
<polygon fill="white" stroke="#666666" points="667,-148 553,-148 553,-129 667,-129 667,-148"/>
<text text-anchor="middle" x="610" y="-136" font-family="Helvetica,sans-Serif" font-size="10.00">AudioTimeAxisView</text>
</a>
</g>
</g>
<!-- Node10&#45;&gt;Node11 -->
<g id="edge11_Node000010_Node000011" class="edge">
<title>Node10&#45;&gt;Node11</title>
<g id="a_edge11_Node000010_Node000011"><a xlink:title=" ">
<path fill="none" stroke="#63b8ff" d="M527,-128.56C535.55,-129.6 544.23,-130.65 552.59,-131.66"/>
<polygon fill="#63b8ff" stroke="#63b8ff" points="527.41,-125.09 517.07,-127.36 526.57,-132.03 527.41,-125.09"/>
</a>
</g>
</g>
<!-- Node12 -->
<g id="Node000012" class="node">
<title>Node12</title>
<g id="a_Node000012"><a xlink:href="classMidiTimeAxisView.html" target="_top" xlink:title=" ">
<polygon fill="white" stroke="#666666" points="663.5,-111 556.5,-111 556.5,-92 663.5,-92 663.5,-111"/>
<text text-anchor="middle" x="610" y="-99" font-family="Helvetica,sans-Serif" font-size="10.00">MidiTimeAxisView</text>
</a>
</g>
</g>
<!-- Node10&#45;&gt;Node12 -->
<g id="edge12_Node000010_Node000012" class="edge">
<title>Node10&#45;&gt;Node12</title>
<g id="a_edge12_Node000010_Node000012"><a xlink:title=" ">
<path fill="none" stroke="#63b8ff" d="M527.2,-111.97C537.02,-110.71 547.02,-109.43 556.5,-108.22"/>
<polygon fill="#63b8ff" stroke="#63b8ff" points="526.54,-108.52 517.07,-113.26 527.43,-115.47 526.54,-108.52"/>
</a>
</g>
</g>
</g>
</svg>

<g id="navigator" transform="translate(0 0)" fill="#404254">
  <rect fill="#f2f5e9" fill-opacity="0.5" stroke="#606060" stroke-width=".5" x="0" y="0" width="60" height="60"/>
  <use id="zoomplus" xlink:href="#zoomPlus" x="17" y="9" onmousedown="handleZoom(evt,'in')"/>
  <use id="zoomminus" xlink:href="#zoomMin" x="42" y="9" onmousedown="handleZoom(evt,'out')"/>
  <use id="reset" xlink:href="#resetDef" x="30" y="36" onmousedown="handleReset()"/>
   <use id="arrowup" xlink:href="#arrowUp" x="0" y="0" onmousedown="handlePan(0,-1)"/>
  <use id="arrowright" xlink:href="#arrowRight" x="0" y="0" onmousedown="handlePan(1,0)"/>
  <use id="arrowdown" xlink:href="#arrowDown" x="0" y="0" onmousedown="handlePan(0,1)"/>
  <use id="arrowleft" xlink:href="#arrowLeft" x="0" y="0" onmousedown="handlePan(-1,0)"/>
</g>
<svg viewBox="0 0 15 15" width="100%" height="30px" preserveAspectRatio="xMaxYMin meet">
 <g id="arrow_out" transform="scale(0.3 0.3)">
  <a xlink:href="classRouteUI__inherit__graph_org.svg" target="_base">
   <rect id="button" ry="5" rx="5" y="6" x="6" height="38" width="38"
        fill="#f2f5e9" fill-opacity="0.5" stroke="#606060" stroke-width="1.0"/>
   <path id="arrow"
     d="M 11.500037,31.436501 C 11.940474,20.09759 22.043105,11.32322 32.158766,21.979434 L 37.068811,17.246167 C 37.068811,17.246167 37.088388,32 37.088388,32 L 22.160133,31.978069 C 22.160133,31.978069 26.997745,27.140456 26.997745,27.140456 C 18.528582,18.264221 13.291696,25.230495 11.500037,31.436501 z"
     style="fill:#404040;"/>
  </a>
 </g>
</svg>

<style type='text/css'>
<![CDATA[
[data-mouse-over-selected='false'] { opacity: 0.7; }
[data-mouse-over-selected='true']  { opacity: 1.0; }
]]>
</style>
<script type="application/ecmascript"><![CDATA[
document.addEventListener('DOMContentLoaded', (event) => {
  highlightEdges();
  highlightAdjacentNodes();
});
]]></script>
</svg>
