<?xml version="1.0" encoding="UTF-8" standalone="no"?>
<!DOCTYPE svg PUBLIC "-//W3C//DTD SVG 1.1//EN"
 "http://www.w3.org/Graphics/SVG/1.1/DTD/svg11.dtd">
<!-- Generated by graphviz version 2.43.0 (0)
 -->
<!-- Title: Temporal::MusicTimePoint Pages: 1 -->
<svg width="522pt" height="192pt"
 viewBox="0.00 0.00 521.50 192.00" xmlns="http://www.w3.org/2000/svg" xmlns:xlink="http://www.w3.org/1999/xlink">
<g id="graph0" class="graph" transform="scale(1 1) rotate(0) translate(4 188)">
<title>Temporal::MusicTimePoint</title>
<!-- Node1 -->
<g id="Node000001" class="node">
<title>Node1</title>
<g id="a_Node000001"><a xlink:title=" ">
<polygon fill="#999999" stroke="#666666" points="248,-19 102,-19 102,0 248,0 248,-19"/>
<text text-anchor="middle" x="175" y="-7" font-family="Helvetica,sans-Serif" font-size="10.00">Temporal::MusicTimePoint</text>
</a>
</g>
</g>
<!-- Node2 -->
<g id="Node000002" class="node">
<title>Node2</title>
<g id="a_Node000002"><a xlink:title=" ">
<polygon fill="white" stroke="#666666" points="95,-74 11,-74 11,-55 95,-55 95,-74"/>
<text text-anchor="middle" x="53" y="-62" font-family="Helvetica,sans-Serif" font-size="10.00">bartime_hook</text>
</a>
</g>
</g>
<!-- Node2&#45;&gt;Node1 -->
<g id="edge1_Node000001_Node000002" class="edge">
<title>Node2&#45;&gt;Node1</title>
<g id="a_edge1_Node000001_Node000002"><a xlink:title=" ">
<path fill="none" stroke="#63b8ff" d="M82.01,-50.9C104.54,-41.11 135.2,-27.79 155.04,-19.17"/>
<polygon fill="#63b8ff" stroke="#63b8ff" points="80.38,-47.79 72.6,-54.98 83.17,-54.21 80.38,-47.79"/>
</a>
</g>
</g>
<!-- Node3 -->
<g id="Node000003" class="node">
<title>Node3</title>
<g id="a_Node000003"><a xlink:href="classTemporal_1_1TempoPoint.html" target="_top" xlink:title=" ">
<polygon fill="white" stroke="#666666" points="237.5,-74 112.5,-74 112.5,-55 237.5,-55 237.5,-74"/>
<text text-anchor="middle" x="175" y="-62" font-family="Helvetica,sans-Serif" font-size="10.00">Temporal::TempoPoint</text>
</a>
</g>
</g>
<!-- Node3&#45;&gt;Node1 -->
<g id="edge2_Node000001_Node000003" class="edge">
<title>Node3&#45;&gt;Node1</title>
<g id="a_edge2_Node000001_Node000003"><a xlink:title=" ">
<path fill="none" stroke="#63b8ff" d="M175,-44.66C175,-35.93 175,-25.99 175,-19.09"/>
<polygon fill="#63b8ff" stroke="#63b8ff" points="171.5,-44.75 175,-54.75 178.5,-44.75 171.5,-44.75"/>
</a>
</g>
</g>
<!-- Node4 -->
<g id="Node000004" class="node">
<title>Node4</title>
<g id="a_Node000004"><a xlink:href="classTemporal_1_1Tempo.html" target="_top" xlink:title=" ">
<polygon fill="white" stroke="#666666" points="100,-129 0,-129 0,-110 100,-110 100,-129"/>
<text text-anchor="middle" x="50" y="-117" font-family="Helvetica,sans-Serif" font-size="10.00">Temporal::Tempo</text>
</a>
</g>
</g>
<!-- Node4&#45;&gt;Node3 -->
<g id="edge3_Node000003_Node000004" class="edge">
<title>Node4&#45;&gt;Node3</title>
<g id="a_edge3_Node000003_Node000004"><a xlink:title=" ">
<path fill="none" stroke="#63b8ff" d="M79.41,-106.03C102.53,-96.23 134.13,-82.83 154.55,-74.17"/>
<polygon fill="#63b8ff" stroke="#63b8ff" points="77.92,-102.86 70.08,-109.98 80.66,-109.3 77.92,-102.86"/>
</a>
</g>
</g>
<!-- Node5 -->
<g id="Node000005" class="node">
<title>Node5</title>
<g id="a_Node000005"><a xlink:title=" ">
<polygon fill="white" stroke="#666666" points="195.5,-129 118.5,-129 118.5,-110 195.5,-110 195.5,-129"/>
<text text-anchor="middle" x="157" y="-117" font-family="Helvetica,sans-Serif" font-size="10.00">tempo_hook</text>
</a>
</g>
</g>
<!-- Node5&#45;&gt;Node3 -->
<g id="edge4_Node000003_Node000005" class="edge">
<title>Node5&#45;&gt;Node3</title>
<g id="a_edge4_Node000003_Node000005"><a xlink:title=" ">
<path fill="none" stroke="#63b8ff" d="M163.2,-100.24C166.21,-91.37 169.69,-81.14 172.08,-74.09"/>
<polygon fill="#63b8ff" stroke="#63b8ff" points="159.87,-99.15 159.97,-109.75 166.5,-101.4 159.87,-99.15"/>
</a>
</g>
</g>
<!-- Node6 -->
<g id="Node000006" class="node">
<title>Node6</title>
<g id="a_Node000006"><a xlink:href="classTemporal_1_1Point.html" target="_top" xlink:title=" ">
<polygon fill="white" stroke="#666666" points="306,-129 214,-129 214,-110 306,-110 306,-129"/>
<text text-anchor="middle" x="260" y="-117" font-family="Helvetica,sans-Serif" font-size="10.00">Temporal::Point</text>
</a>
</g>
</g>
<!-- Node6&#45;&gt;Node3 -->
<g id="edge5_Node000003_Node000006" class="edge">
<title>Node6&#45;&gt;Node3</title>
<g id="a_edge5_Node000003_Node000006"><a xlink:title=" ">
<path fill="none" stroke="#63b8ff" d="M237.43,-104.42C222,-94.81 202.05,-82.37 188.91,-74.17"/>
<polygon fill="#63b8ff" stroke="#63b8ff" points="236.01,-107.66 246.34,-109.98 239.71,-101.72 236.01,-107.66"/>
</a>
</g>
</g>
<!-- Node9 -->
<g id="Node000009" class="node">
<title>Node9</title>
<g id="a_Node000009"><a xlink:href="classTemporal_1_1MeterPoint.html" target="_top" xlink:title=" ">
<polygon fill="white" stroke="#666666" points="413.5,-74 292.5,-74 292.5,-55 413.5,-55 413.5,-74"/>
<text text-anchor="middle" x="353" y="-62" font-family="Helvetica,sans-Serif" font-size="10.00">Temporal::MeterPoint</text>
</a>
</g>
</g>
<!-- Node6&#45;&gt;Node9 -->
<g id="edge11_Node000009_Node000006" class="edge">
<title>Node6&#45;&gt;Node9</title>
<g id="a_edge11_Node000009_Node000006"><a xlink:title=" ">
<path fill="none" stroke="#63b8ff" d="M283.75,-104.97C300.75,-95.28 323.13,-82.52 337.79,-74.17"/>
<polygon fill="#63b8ff" stroke="#63b8ff" points="281.9,-101.99 274.94,-109.98 285.36,-108.07 281.9,-101.99"/>
</a>
</g>
</g>
<!-- Node7 -->
<g id="Node000007" class="node">
<title>Node7</title>
<g id="a_Node000007"><a xlink:title=" ">
<polygon fill="white" stroke="#666666" points="237.5,-184 166.5,-184 166.5,-165 237.5,-165 237.5,-184"/>
<text text-anchor="middle" x="202" y="-172" font-family="Helvetica,sans-Serif" font-size="10.00">point_hook</text>
</a>
</g>
</g>
<!-- Node7&#45;&gt;Node6 -->
<g id="edge6_Node000006_Node000007" class="edge">
<title>Node7&#45;&gt;Node6</title>
<g id="a_edge6_Node000006_Node000007"><a xlink:title=" ">
<path fill="none" stroke="#63b8ff" d="M218.91,-158.04C229.2,-148.64 241.97,-136.98 250.51,-129.17"/>
<polygon fill="#63b8ff" stroke="#63b8ff" points="216.34,-155.66 211.32,-164.98 221.06,-160.82 216.34,-155.66"/>
</a>
</g>
</g>
<!-- Node8 -->
<g id="Node000008" class="node">
<title>Node8</title>
<g id="a_Node000008"><a xlink:href="classTemporal_1_1MapOwned.html" target="_top" xlink:title=" ">
<polygon fill="white" stroke="#666666" points="378,-184 256,-184 256,-165 378,-165 378,-184"/>
<text text-anchor="middle" x="317" y="-172" font-family="Helvetica,sans-Serif" font-size="10.00">Temporal::MapOwned</text>
</a>
</g>
</g>
<!-- Node8&#45;&gt;Node6 -->
<g id="edge7_Node000006_Node000008" class="edge">
<title>Node8&#45;&gt;Node6</title>
<g id="a_edge7_Node000006_Node000008"><a xlink:title=" ">
<path fill="none" stroke="#63b8ff" d="M300.38,-158.04C290.27,-148.64 277.72,-136.98 269.32,-129.17"/>
<polygon fill="#63b8ff" stroke="#63b8ff" points="298.14,-160.74 307.84,-164.98 302.9,-155.61 298.14,-160.74"/>
</a>
</g>
</g>
<!-- Node9&#45;&gt;Node1 -->
<g id="edge8_Node000001_Node000009" class="edge">
<title>Node9&#45;&gt;Node1</title>
<g id="a_edge8_Node000001_Node000009"><a xlink:title=" ">
<path fill="none" stroke="#63b8ff" d="M314.56,-52.06C281.3,-42.15 233.92,-28.04 203.82,-19.08"/>
<polygon fill="#63b8ff" stroke="#63b8ff" points="313.82,-55.49 324.4,-54.98 315.82,-48.78 313.82,-55.49"/>
</a>
</g>
</g>
<!-- Node10 -->
<g id="Node000010" class="node">
<title>Node10</title>
<g id="a_Node000010"><a xlink:href="classTemporal_1_1Meter.html" target="_top" xlink:title=" ">
<polygon fill="white" stroke="#666666" points="420,-129 324,-129 324,-110 420,-110 420,-129"/>
<text text-anchor="middle" x="372" y="-117" font-family="Helvetica,sans-Serif" font-size="10.00">Temporal::Meter</text>
</a>
</g>
</g>
<!-- Node10&#45;&gt;Node9 -->
<g id="edge9_Node000009_Node000010" class="edge">
<title>Node10&#45;&gt;Node9</title>
<g id="a_edge9_Node000009_Node000010"><a xlink:title=" ">
<path fill="none" stroke="#63b8ff" d="M365.45,-100.24C362.28,-91.37 358.61,-81.14 356.08,-74.09"/>
<polygon fill="#63b8ff" stroke="#63b8ff" points="362.19,-101.52 368.86,-109.75 368.78,-99.15 362.19,-101.52"/>
</a>
</g>
</g>
<!-- Node11 -->
<g id="Node000011" class="node">
<title>Node11</title>
<g id="a_Node000011"><a xlink:title=" ">
<polygon fill="white" stroke="#666666" points="513.5,-129 438.5,-129 438.5,-110 513.5,-110 513.5,-129"/>
<text text-anchor="middle" x="476" y="-117" font-family="Helvetica,sans-Serif" font-size="10.00">meter_hook</text>
</a>
</g>
</g>
<!-- Node11&#45;&gt;Node9 -->
<g id="edge10_Node000009_Node000011" class="edge">
<title>Node11&#45;&gt;Node9</title>
<g id="a_edge10_Node000009_Node000011"><a xlink:title=" ">
<path fill="none" stroke="#63b8ff" d="M446.75,-105.9C424.03,-96.11 393.13,-82.79 373.12,-74.17"/>
<polygon fill="#63b8ff" stroke="#63b8ff" points="445.67,-109.24 456.24,-109.98 448.44,-102.81 445.67,-109.24"/>
</a>
</g>
</g>
</g>
</svg>
