<?xml version="1.0" encoding="UTF-8" standalone="no"?>
<!DOCTYPE svg PUBLIC "-//W3C//DTD SVG 1.1//EN"
 "http://www.w3.org/Graphics/SVG/1.1/DTD/svg11.dtd">
<!-- Generated by graphviz version 2.43.0 (0)
 -->
<!-- Title: ARDOUR::BackendMIDIEvent Pages: 1 -->
<svg width="354pt" height="175pt"
 viewBox="0.00 0.00 354.00 175.00" xmlns="http://www.w3.org/2000/svg" xmlns:xlink="http://www.w3.org/1999/xlink">

<svg id="main" version="1.1" xmlns="http://www.w3.org/2000/svg" xmlns:xlink="http://www.w3.org/1999/xlink" xml:space="preserve" onload="init(evt)">
<style type="text/css"><![CDATA[
.node, .edge {opacity: 0.7;}
.node.selected, .edge.selected {opacity: 1;}
.edge:hover path { stroke: red; }
.edge:hover polygon { stroke: red; fill: red; }
]]></style>
<script type="application/ecmascript" xlink:href="svg.min.js"/>
<svg id="graph" class="graph">
<g id="graph0" class="graph" transform="scale(1 1) rotate(0) translate(4 171)">
<title>ARDOUR::BackendMIDIEvent</title>
<!-- Node1 -->
<g id="Node000001" class="node">
<title>Node1</title>
<g id="a_Node000001"><a xlink:title=" ">
<polygon fill="#999999" stroke="#666666" points="157,-93 0,-93 0,-74 157,-74 157,-93"/>
<text text-anchor="middle" x="78.5" y="-81" font-family="Helvetica,sans-Serif" font-size="10.00">ARDOUR::BackendMIDIEvent</text>
</a>
</g>
</g>
<!-- Node2 -->
<g id="Node000002" class="node">
<title>Node2</title>
<g id="a_Node000002"><a xlink:href="classARDOUR_1_1AlsaMidiEvent.html" target="_top" xlink:title=" ">
<polygon fill="white" stroke="#666666" points="337,-167 202,-167 202,-148 337,-148 337,-167"/>
<text text-anchor="middle" x="269.5" y="-155" font-family="Helvetica,sans-Serif" font-size="10.00">ARDOUR::AlsaMidiEvent</text>
</a>
</g>
</g>
<!-- Node1&#45;&gt;Node2 -->
<g id="edge1_Node000001_Node000002" class="edge">
<title>Node1&#45;&gt;Node2</title>
<g id="a_edge1_Node000001_Node000002"><a xlink:title=" ">
<path fill="none" stroke="#63b8ff" d="M104.81,-98.04C127.35,-110.49 161.53,-128.15 193,-139.5 202,-142.75 211.81,-145.58 221.3,-147.97"/>
<polygon fill="#63b8ff" stroke="#63b8ff" points="106.34,-94.89 95.91,-93.06 102.92,-101 106.34,-94.89"/>
</a>
</g>
</g>
<!-- Node3 -->
<g id="Node000003" class="node">
<title>Node3</title>
<g id="a_Node000003"><a xlink:href="classARDOUR_1_1CoreMidiEvent.html" target="_top" xlink:title=" ">
<polygon fill="white" stroke="#666666" points="338,-130 201,-130 201,-111 338,-111 338,-130"/>
<text text-anchor="middle" x="269.5" y="-118" font-family="Helvetica,sans-Serif" font-size="10.00">ARDOUR::CoreMidiEvent</text>
</a>
</g>
</g>
<!-- Node1&#45;&gt;Node3 -->
<g id="edge2_Node000001_Node000003" class="edge">
<title>Node1&#45;&gt;Node3</title>
<g id="a_edge2_Node000001_Node000003"><a xlink:title=" ">
<path fill="none" stroke="#63b8ff" d="M138.33,-95.02C164.44,-100.13 194.83,-106.08 219.66,-110.94"/>
<polygon fill="#63b8ff" stroke="#63b8ff" points="138.66,-91.51 128.17,-93.03 137.31,-98.38 138.66,-91.51"/>
</a>
</g>
</g>
<!-- Node4 -->
<g id="Node000004" class="node">
<title>Node4</title>
<g id="a_Node000004"><a xlink:href="classARDOUR_1_1DummyMidiEvent.html" target="_top" xlink:title=" ">
<polygon fill="white" stroke="#666666" points="346,-93 193,-93 193,-74 346,-74 346,-93"/>
<text text-anchor="middle" x="269.5" y="-81" font-family="Helvetica,sans-Serif" font-size="10.00">ARDOUR::DummyMidiEvent</text>
</a>
</g>
</g>
<!-- Node1&#45;&gt;Node4 -->
<g id="edge3_Node000001_Node000004" class="edge">
<title>Node1&#45;&gt;Node4</title>
<g id="a_edge3_Node000001_Node000004"><a xlink:title=" ">
<path fill="none" stroke="#63b8ff" d="M167.23,-83.5C175.82,-83.5 184.48,-83.5 192.94,-83.5"/>
<polygon fill="#63b8ff" stroke="#63b8ff" points="167.19,-80 157.19,-83.5 167.19,-87 167.19,-80"/>
</a>
</g>
</g>
<!-- Node5 -->
<g id="Node000005" class="node">
<title>Node5</title>
<g id="a_Node000005"><a xlink:href="classARDOUR_1_1PortMidiEvent.html" target="_top" xlink:title=" ">
<polygon fill="white" stroke="#666666" points="336.5,-56 202.5,-56 202.5,-37 336.5,-37 336.5,-56"/>
<text text-anchor="middle" x="269.5" y="-44" font-family="Helvetica,sans-Serif" font-size="10.00">ARDOUR::PortMidiEvent</text>
</a>
</g>
</g>
<!-- Node1&#45;&gt;Node5 -->
<g id="edge4_Node000001_Node000005" class="edge">
<title>Node1&#45;&gt;Node5</title>
<g id="a_edge4_Node000001_Node000005"><a xlink:title=" ">
<path fill="none" stroke="#63b8ff" d="M138.33,-71.98C164.44,-66.87 194.83,-60.92 219.66,-56.06"/>
<polygon fill="#63b8ff" stroke="#63b8ff" points="137.31,-68.62 128.17,-73.97 138.66,-75.49 137.31,-68.62"/>
</a>
</g>
</g>
<!-- Node6 -->
<g id="Node000006" class="node">
<title>Node6</title>
<g id="a_Node000006"><a xlink:href="classARDOUR_1_1PulseMidiEvent.html" target="_top" xlink:title=" ">
<polygon fill="white" stroke="#666666" points="339.5,-19 199.5,-19 199.5,0 339.5,0 339.5,-19"/>
<text text-anchor="middle" x="269.5" y="-7" font-family="Helvetica,sans-Serif" font-size="10.00">ARDOUR::PulseMidiEvent</text>
</a>
</g>
</g>
<!-- Node1&#45;&gt;Node6 -->
<g id="edge5_Node000001_Node000006" class="edge">
<title>Node1&#45;&gt;Node6</title>
<g id="a_edge5_Node000001_Node000006"><a xlink:title=" ">
<path fill="none" stroke="#63b8ff" d="M105.27,-69.13C127.85,-56.99 161.85,-39.83 193,-28.5 202.91,-24.9 213.79,-21.72 224.13,-19.06"/>
<polygon fill="#63b8ff" stroke="#63b8ff" points="103.44,-66.14 96.33,-73.99 106.79,-72.29 103.44,-66.14"/>
</a>
</g>
</g>
</g>
</svg>
</svg>

<style type='text/css'>
<![CDATA[
[data-mouse-over-selected='false'] { opacity: 0.7; }
[data-mouse-over-selected='true']  { opacity: 1.0; }
]]>
</style>
<script type="application/ecmascript"><![CDATA[
document.addEventListener('DOMContentLoaded', (event) => {
  highlightEdges();
  highlightAdjacentNodes();
});
]]></script>
</svg>
