<?xml version="1.0" encoding="UTF-8" standalone="no"?>
<!DOCTYPE svg PUBLIC "-//W3C//DTD SVG 1.1//EN"
 "http://www.w3.org/Graphics/SVG/1.1/DTD/svg11.dtd">
<!-- Generated by graphviz version 2.43.0 (0)
 -->
<!-- Title: ARDOUR::MidiOperator Pages: 1 -->
<svg width="507pt" height="82pt"
 viewBox="0.00 0.00 506.50 82.00" xmlns="http://www.w3.org/2000/svg" xmlns:xlink="http://www.w3.org/1999/xlink">
<g id="graph0" class="graph" transform="scale(1 1) rotate(0) translate(4 78)">
<title>ARDOUR::MidiOperator</title>
<!-- Node1 -->
<g id="Node000001" class="node">
<title>Node1</title>
<g id="a_Node000001"><a xlink:title=" ">
<polygon fill="#999999" stroke="#666666" points="309,-74 180,-74 180,-55 309,-55 309,-74"/>
<text text-anchor="middle" x="244.5" y="-62" font-family="Helvetica,sans-Serif" font-size="10.00">ARDOUR::MidiOperator</text>
</a>
</g>
</g>
<!-- Node2 -->
<g id="Node000002" class="node">
<title>Node2</title>
<g id="a_Node000002"><a xlink:href="classARDOUR_1_1Legatize.html" target="_top" xlink:title=" ">
<polygon fill="white" stroke="#666666" points="107,-19 0,-19 0,0 107,0 107,-19"/>
<text text-anchor="middle" x="53.5" y="-7" font-family="Helvetica,sans-Serif" font-size="10.00">ARDOUR::Legatize</text>
</a>
</g>
</g>
<!-- Node1&#45;&gt;Node2 -->
<g id="edge1_Node000001_Node000002" class="edge">
<title>Node1&#45;&gt;Node2</title>
<g id="a_edge1_Node000001_Node000002"><a xlink:title=" ">
<path fill="none" stroke="#63b8ff" d="M203.72,-52.18C168,-42.27 116.87,-28.08 84.43,-19.08"/>
<polygon fill="#63b8ff" stroke="#63b8ff" points="203.24,-55.68 213.81,-54.98 205.11,-48.94 203.24,-55.68"/>
</a>
</g>
</g>
<!-- Node3 -->
<g id="Node000003" class="node">
<title>Node3</title>
<g id="a_Node000003"><a xlink:href="classARDOUR_1_1Quantize.html" target="_top" xlink:title=" ">
<polygon fill="white" stroke="#666666" points="234,-19 125,-19 125,0 234,0 234,-19"/>
<text text-anchor="middle" x="179.5" y="-7" font-family="Helvetica,sans-Serif" font-size="10.00">ARDOUR::Quantize</text>
</a>
</g>
</g>
<!-- Node1&#45;&gt;Node3 -->
<g id="edge2_Node000001_Node000003" class="edge">
<title>Node1&#45;&gt;Node3</title>
<g id="a_edge2_Node000001_Node000003"><a xlink:title=" ">
<path fill="none" stroke="#63b8ff" d="M226.23,-48.6C214.58,-39.11 199.9,-27.13 190.13,-19.17"/>
<polygon fill="#63b8ff" stroke="#63b8ff" points="224.09,-51.38 234.06,-54.98 228.52,-45.95 224.09,-51.38"/>
</a>
</g>
</g>
<!-- Node4 -->
<g id="Node000004" class="node">
<title>Node4</title>
<g id="a_Node000004"><a xlink:href="classARDOUR_1_1Transform.html" target="_top" xlink:title=" ">
<polygon fill="white" stroke="#666666" points="366.5,-19 252.5,-19 252.5,0 366.5,0 366.5,-19"/>
<text text-anchor="middle" x="309.5" y="-7" font-family="Helvetica,sans-Serif" font-size="10.00">ARDOUR::Transform</text>
</a>
</g>
</g>
<!-- Node1&#45;&gt;Node4 -->
<g id="edge3_Node000001_Node000004" class="edge">
<title>Node1&#45;&gt;Node4</title>
<g id="a_edge3_Node000001_Node000004"><a xlink:title=" ">
<path fill="none" stroke="#63b8ff" d="M262.77,-48.6C274.42,-39.11 289.1,-27.13 298.87,-19.17"/>
<polygon fill="#63b8ff" stroke="#63b8ff" points="260.48,-45.95 254.94,-54.98 264.91,-51.38 260.48,-45.95"/>
</a>
</g>
</g>
<!-- Node5 -->
<g id="Node000005" class="node">
<title>Node5</title>
<g id="a_Node000005"><a xlink:href="classARDOUR_1_1Transpose.html" target="_top" xlink:title=" ">
<polygon fill="white" stroke="#666666" points="498.5,-19 384.5,-19 384.5,0 498.5,0 498.5,-19"/>
<text text-anchor="middle" x="441.5" y="-7" font-family="Helvetica,sans-Serif" font-size="10.00">ARDOUR::Transpose</text>
</a>
</g>
</g>
<!-- Node1&#45;&gt;Node5 -->
<g id="edge4_Node000001_Node000005" class="edge">
<title>Node1&#45;&gt;Node5</title>
<g id="a_edge4_Node000001_Node000005"><a xlink:title=" ">
<path fill="none" stroke="#63b8ff" d="M286.09,-52.31C322.95,-42.39 376,-28.12 409.6,-19.08"/>
<polygon fill="#63b8ff" stroke="#63b8ff" points="284.9,-49.01 276.15,-54.98 286.72,-55.77 284.9,-49.01"/>
</a>
</g>
</g>
</g>
</svg>
