<?xml version="1.0" encoding="UTF-8" standalone="no"?>
<!DOCTYPE svg PUBLIC "-//W3C//DTD SVG 1.1//EN"
 "http://www.w3.org/Graphics/SVG/1.1/DTD/svg11.dtd">
<!-- Generated by graphviz version 2.43.0 (0)
 -->
<!-- Title: EditorDrag Pages: 1 -->
<svg width="617pt" height="656pt"
 viewBox="0.00 0.00 617.00 656.00" xmlns="http://www.w3.org/2000/svg" xmlns:xlink="http://www.w3.org/1999/xlink">
<g id="graph0" class="graph" transform="scale(1 1) rotate(0) translate(4 652)">
<title>EditorDrag</title>
<!-- Node1 -->
<g id="Node000001" class="node">
<title>Node1</title>
<g id="a_Node000001"><a xlink:title=" ">
<polygon fill="#999999" stroke="#666666" points="144,-333 76,-333 76,-314 144,-314 144,-333"/>
<text text-anchor="middle" x="110" y="-321" font-family="Helvetica,sans-Serif" font-size="10.00">EditorDrag</text>
</a>
</g>
</g>
<!-- Node3 -->
<g id="Node000003" class="node">
<title>Node3</title>
<g id="a_Node000003"><a xlink:href="classBBTMarkerDrag.html" target="_top" xlink:title=" ">
<polygon fill="white" stroke="#666666" points="287,-648 194,-648 194,-629 287,-629 287,-648"/>
<text text-anchor="middle" x="240.5" y="-636" font-family="Helvetica,sans-Serif" font-size="10.00">BBTMarkerDrag</text>
</a>
</g>
</g>
<!-- Node1&#45;&gt;Node3 -->
<g id="edge2_Node000001_Node000003" class="edge">
<title>Node1&#45;&gt;Node3</title>
<g id="a_edge2_Node000001_Node000003"><a xlink:title=" ">
<path fill="none" stroke="#63b8ff" d="M113.03,-343.3C119.53,-403 141.67,-579.57 180,-620.5 183.91,-624.67 188.75,-627.89 193.97,-630.37"/>
<polygon fill="#63b8ff" stroke="#63b8ff" points="116.5,-342.86 111.97,-333.29 109.54,-343.6 116.5,-342.86"/>
</a>
</g>
</g>
<!-- Node4 -->
<g id="Node000004" class="node">
<title>Node4</title>
<g id="a_Node000004"><a xlink:href="classCursorDrag.html" target="_top" xlink:title=" ">
<polygon fill="white" stroke="#666666" points="276,-611 205,-611 205,-592 276,-592 276,-611"/>
<text text-anchor="middle" x="240.5" y="-599" font-family="Helvetica,sans-Serif" font-size="10.00">CursorDrag</text>
</a>
</g>
</g>
<!-- Node1&#45;&gt;Node4 -->
<g id="edge3_Node000001_Node000004" class="edge">
<title>Node1&#45;&gt;Node4</title>
<g id="a_edge3_Node000001_Node000004"><a xlink:title=" ">
<path fill="none" stroke="#63b8ff" d="M110.18,-343.38C109.33,-391.49 114.05,-515.24 180,-583.5 186.6,-590.33 195.69,-594.59 204.78,-597.24"/>
<polygon fill="#63b8ff" stroke="#63b8ff" points="113.69,-343.19 110.47,-333.1 106.69,-342.99 113.69,-343.19"/>
</a>
</g>
</g>
<!-- Node5 -->
<g id="Node000005" class="node">
<title>Node5</title>
<g id="a_Node000005"><a xlink:href="classMappingEndDrag.html" target="_top" xlink:title=" ">
<polygon fill="white" stroke="#666666" points="290.5,-574 190.5,-574 190.5,-555 290.5,-555 290.5,-574"/>
<text text-anchor="middle" x="240.5" y="-562" font-family="Helvetica,sans-Serif" font-size="10.00">MappingEndDrag</text>
</a>
</g>
</g>
<!-- Node1&#45;&gt;Node5 -->
<g id="edge4_Node000001_Node000005" class="edge">
<title>Node1&#45;&gt;Node5</title>
<g id="a_edge4_Node000001_Node000005"><a xlink:title=" ">
<path fill="none" stroke="#63b8ff" d="M111.23,-343.16C112.81,-386.23 122.74,-489.6 180,-546.5 183.44,-549.92 187.52,-552.7 191.89,-554.95"/>
<polygon fill="#63b8ff" stroke="#63b8ff" points="114.72,-343.04 110.97,-333.13 107.73,-343.22 114.72,-343.04"/>
</a>
</g>
</g>
<!-- Node6 -->
<g id="Node000006" class="node">
<title>Node6</title>
<g id="a_Node000006"><a xlink:href="classMappingTwistDrag.html" target="_top" xlink:title=" ">
<polygon fill="white" stroke="#666666" points="294,-537 187,-537 187,-518 294,-518 294,-537"/>
<text text-anchor="middle" x="240.5" y="-525" font-family="Helvetica,sans-Serif" font-size="10.00">MappingTwistDrag</text>
</a>
</g>
</g>
<!-- Node1&#45;&gt;Node6 -->
<g id="edge5_Node000001_Node000006" class="edge">
<title>Node1&#45;&gt;Node6</title>
<g id="a_edge5_Node000001_Node000006"><a xlink:title=" ">
<path fill="none" stroke="#63b8ff" d="M112.68,-343.46C116.94,-381.34 131.57,-463.96 180,-509.5 183.62,-512.9 187.85,-515.66 192.37,-517.9"/>
<polygon fill="#63b8ff" stroke="#63b8ff" points="116.13,-342.83 111.66,-333.23 109.17,-343.52 116.13,-342.83"/>
</a>
</g>
</g>
<!-- Node7 -->
<g id="Node000007" class="node">
<title>Node7</title>
<g id="a_Node000007"><a xlink:href="classMarkerDrag.html" target="_top" xlink:title=" ">
<polygon fill="white" stroke="#666666" points="277.5,-500 203.5,-500 203.5,-481 277.5,-481 277.5,-500"/>
<text text-anchor="middle" x="240.5" y="-488" font-family="Helvetica,sans-Serif" font-size="10.00">MarkerDrag</text>
</a>
</g>
</g>
<!-- Node1&#45;&gt;Node7 -->
<g id="edge6_Node000001_Node000007" class="edge">
<title>Node1&#45;&gt;Node7</title>
<g id="a_edge6_Node000001_Node000007"><a xlink:title=" ">
<path fill="none" stroke="#63b8ff" d="M114.67,-343C121.68,-374.78 139.96,-437.71 180,-472.5 186.6,-478.23 194.98,-482.14 203.35,-484.8"/>
<polygon fill="#63b8ff" stroke="#63b8ff" points="118.09,-342.24 112.65,-333.15 111.23,-343.65 118.09,-342.24"/>
</a>
</g>
</g>
<!-- Node8 -->
<g id="Node000008" class="node">
<title>Node8</title>
<g id="a_Node000008"><a xlink:href="classMeterMarkerDrag.html" target="_top" xlink:title=" ">
<polygon fill="white" stroke="#666666" points="291.5,-463 189.5,-463 189.5,-444 291.5,-444 291.5,-463"/>
<text text-anchor="middle" x="240.5" y="-451" font-family="Helvetica,sans-Serif" font-size="10.00">MeterMarkerDrag</text>
</a>
</g>
</g>
<!-- Node1&#45;&gt;Node8 -->
<g id="edge7_Node000001_Node000008" class="edge">
<title>Node1&#45;&gt;Node8</title>
<g id="a_edge7_Node000001_Node000008"><a xlink:title=" ">
<path fill="none" stroke="#63b8ff" d="M117.84,-342.72C127.72,-367.73 148.33,-411.12 180,-435.5 184.45,-438.92 189.54,-441.7 194.84,-443.95"/>
<polygon fill="#63b8ff" stroke="#63b8ff" points="121.07,-341.36 114.27,-333.23 114.52,-343.82 121.07,-341.36"/>
</a>
</g>
</g>
<!-- Node9 -->
<g id="Node000009" class="node">
<title>Node9</title>
<g id="a_Node000009"><a xlink:href="classMouseZoomDrag.html" target="_top" xlink:title=" ">
<polygon fill="white" stroke="#666666" points="291,-426 190,-426 190,-407 291,-407 291,-426"/>
<text text-anchor="middle" x="240.5" y="-414" font-family="Helvetica,sans-Serif" font-size="10.00">MouseZoomDrag</text>
</a>
</g>
</g>
<!-- Node1&#45;&gt;Node9 -->
<g id="edge8_Node000001_Node000009" class="edge">
<title>Node1&#45;&gt;Node9</title>
<g id="a_edge8_Node000001_Node000009"><a xlink:title=" ">
<path fill="none" stroke="#63b8ff" d="M123.54,-341.54C136.05,-358.27 156.71,-382.75 180,-397.5 186.05,-401.33 192.93,-404.45 199.82,-406.97"/>
<polygon fill="#63b8ff" stroke="#63b8ff" points="126.16,-339.2 117.47,-333.15 120.5,-343.3 126.16,-339.2"/>
</a>
</g>
</g>
<!-- Node10 -->
<g id="Node000010" class="node">
<title>Node10</title>
<g id="a_Node000010"><a xlink:href="classRangeMarkerBarDrag.html" target="_top" xlink:title=" ">
<polygon fill="white" stroke="#666666" points="301,-389 180,-389 180,-370 301,-370 301,-389"/>
<text text-anchor="middle" x="240.5" y="-377" font-family="Helvetica,sans-Serif" font-size="10.00">RangeMarkerBarDrag</text>
</a>
</g>
</g>
<!-- Node1&#45;&gt;Node10 -->
<g id="edge9_Node000001_Node000010" class="edge">
<title>Node1&#45;&gt;Node10</title>
<g id="a_edge9_Node000001_Node000010"><a xlink:title=" ">
<path fill="none" stroke="#63b8ff" d="M135.53,-338.07C148.48,-345.4 164.79,-354.06 180,-360.5 188.19,-363.97 197.23,-367.16 205.75,-369.91"/>
<polygon fill="#63b8ff" stroke="#63b8ff" points="137.18,-334.98 126.76,-333.03 133.68,-341.05 137.18,-334.98"/>
</a>
</g>
</g>
<!-- Node11 -->
<g id="Node000011" class="node">
<title>Node11</title>
<g id="a_Node000011"><a xlink:href="classRegionCreateDrag.html" target="_top" xlink:title=" ">
<polygon fill="white" stroke="#666666" points="293.5,-352 187.5,-352 187.5,-333 293.5,-333 293.5,-352"/>
<text text-anchor="middle" x="240.5" y="-340" font-family="Helvetica,sans-Serif" font-size="10.00">RegionCreateDrag</text>
</a>
</g>
</g>
<!-- Node1&#45;&gt;Node11 -->
<g id="edge10_Node000001_Node000011" class="edge">
<title>Node1&#45;&gt;Node11</title>
<g id="a_edge10_Node000001_Node000011"><a xlink:title=" ">
<path fill="none" stroke="#63b8ff" d="M154.29,-329.9C164.81,-331.46 176.18,-333.14 187.07,-334.75"/>
<polygon fill="#63b8ff" stroke="#63b8ff" points="154.5,-326.39 144.09,-328.39 153.47,-333.32 154.5,-326.39"/>
</a>
</g>
</g>
<!-- Node12 -->
<g id="Node000012" class="node">
<title>Node12</title>
<g id="a_Node000012"><a xlink:href="classRegionCutDrag.html" target="_top" xlink:title=" ">
<polygon fill="white" stroke="#666666" points="285.5,-315 195.5,-315 195.5,-296 285.5,-296 285.5,-315"/>
<text text-anchor="middle" x="240.5" y="-303" font-family="Helvetica,sans-Serif" font-size="10.00">RegionCutDrag</text>
</a>
</g>
</g>
<!-- Node1&#45;&gt;Node12 -->
<g id="edge11_Node000001_Node000012" class="edge">
<title>Node1&#45;&gt;Node12</title>
<g id="a_edge11_Node000001_Node000012"><a xlink:title=" ">
<path fill="none" stroke="#63b8ff" d="M154.36,-317.43C167.57,-315.58 182.11,-313.54 195.38,-311.68"/>
<polygon fill="#63b8ff" stroke="#63b8ff" points="153.51,-314.01 144.09,-318.86 154.48,-320.94 153.51,-314.01"/>
</a>
</g>
</g>
<!-- Node13 -->
<g id="Node000013" class="node">
<title>Node13</title>
<g id="a_Node000013"><a xlink:href="classRegionDrag.html" target="_top" xlink:title=" ">
<polygon fill="white" stroke="#666666" points="277.5,-278 203.5,-278 203.5,-259 277.5,-259 277.5,-278"/>
<text text-anchor="middle" x="240.5" y="-266" font-family="Helvetica,sans-Serif" font-size="10.00">RegionDrag</text>
</a>
</g>
</g>
<!-- Node1&#45;&gt;Node13 -->
<g id="edge12_Node000001_Node000013" class="edge">
<title>Node1&#45;&gt;Node13</title>
<g id="a_edge12_Node000001_Node000013"><a xlink:title=" ">
<path fill="none" stroke="#63b8ff" d="M135.49,-308.83C148.42,-301.48 164.74,-292.82 180,-286.5 187.58,-283.36 195.9,-280.5 203.86,-278.02"/>
<polygon fill="#63b8ff" stroke="#63b8ff" points="133.63,-305.86 126.73,-313.9 137.14,-311.92 133.63,-305.86"/>
</a>
</g>
</g>
<!-- Node23 -->
<g id="Node000023" class="node">
<title>Node23</title>
<g id="a_Node000023"><a xlink:href="classSelectionDrag.html" target="_top" xlink:title=" ">
<polygon fill="white" stroke="#666666" points="283,-241 198,-241 198,-222 283,-222 283,-241"/>
<text text-anchor="middle" x="240.5" y="-229" font-family="Helvetica,sans-Serif" font-size="10.00">SelectionDrag</text>
</a>
</g>
</g>
<!-- Node1&#45;&gt;Node23 -->
<g id="edge22_Node000001_Node000023" class="edge">
<title>Node1&#45;&gt;Node23</title>
<g id="a_edge22_Node000001_Node000023"><a xlink:title=" ">
<path fill="none" stroke="#63b8ff" d="M123.49,-305.38C135.96,-288.59 156.6,-264.07 180,-249.5 185.5,-246.08 191.68,-243.27 197.94,-240.98"/>
<polygon fill="#63b8ff" stroke="#63b8ff" points="120.43,-303.64 117.44,-313.8 126.11,-307.72 120.43,-303.64"/>
</a>
</g>
</g>
<!-- Node24 -->
<g id="Node000024" class="node">
<title>Node24</title>
<g id="a_Node000024"><a xlink:href="classSelectionMarkerDrag.html" target="_top" xlink:title=" ">
<polygon fill="white" stroke="#666666" points="300,-204 181,-204 181,-185 300,-185 300,-204"/>
<text text-anchor="middle" x="240.5" y="-192" font-family="Helvetica,sans-Serif" font-size="10.00">SelectionMarkerDrag</text>
</a>
</g>
</g>
<!-- Node1&#45;&gt;Node24 -->
<g id="edge23_Node000001_Node000024" class="edge">
<title>Node1&#45;&gt;Node24</title>
<g id="a_edge23_Node000001_Node000024"><a xlink:title=" ">
<path fill="none" stroke="#63b8ff" d="M117.89,-304.45C127.82,-279.66 148.49,-236.66 180,-212.5 184.45,-209.08 189.55,-206.31 194.85,-204.07"/>
<polygon fill="#63b8ff" stroke="#63b8ff" points="114.6,-303.26 114.29,-313.85 121.13,-305.76 114.6,-303.26"/>
</a>
</g>
</g>
<!-- Node25 -->
<g id="Node000025" class="node">
<title>Node25</title>
<g id="a_Node000025"><a xlink:href="classTempoCurveDrag.html" target="_top" xlink:title=" ">
<polygon fill="white" stroke="#666666" points="291,-167 190,-167 190,-148 291,-148 291,-167"/>
<text text-anchor="middle" x="240.5" y="-155" font-family="Helvetica,sans-Serif" font-size="10.00">TempoCurveDrag</text>
</a>
</g>
</g>
<!-- Node1&#45;&gt;Node25 -->
<g id="edge24_Node000001_Node000025" class="edge">
<title>Node1&#45;&gt;Node25</title>
<g id="a_edge24_Node000001_Node000025"><a xlink:title=" ">
<path fill="none" stroke="#63b8ff" d="M114.8,-303.72C121.93,-272.01 140.32,-209.9 180,-175.5 183.91,-172.11 188.45,-169.35 193.24,-167.12"/>
<polygon fill="#63b8ff" stroke="#63b8ff" points="111.29,-303.41 112.67,-313.92 118.14,-304.85 111.29,-303.41"/>
</a>
</g>
</g>
<!-- Node26 -->
<g id="Node000026" class="node">
<title>Node26</title>
<g id="a_Node000026"><a xlink:href="classTempoEndDrag.html" target="_top" xlink:title=" ">
<polygon fill="white" stroke="#666666" points="285.5,-130 195.5,-130 195.5,-111 285.5,-111 285.5,-130"/>
<text text-anchor="middle" x="240.5" y="-118" font-family="Helvetica,sans-Serif" font-size="10.00">TempoEndDrag</text>
</a>
</g>
</g>
<!-- Node1&#45;&gt;Node26 -->
<g id="edge25_Node000001_Node000026" class="edge">
<title>Node1&#45;&gt;Node26</title>
<g id="a_edge25_Node000001_Node000026"><a xlink:title=" ">
<path fill="none" stroke="#63b8ff" d="M112.71,-303.65C117.04,-265.96 131.76,-183.79 180,-138.5 184.41,-134.36 189.73,-131.18 195.36,-128.72"/>
<polygon fill="#63b8ff" stroke="#63b8ff" points="109.21,-303.52 111.68,-313.82 116.17,-304.23 109.21,-303.52"/>
</a>
</g>
</g>
<!-- Node27 -->
<g id="Node000027" class="node">
<title>Node27</title>
<g id="a_Node000027"><a xlink:href="classTempoMarkerDrag.html" target="_top" xlink:title=" ">
<polygon fill="white" stroke="#666666" points="293.5,-93 187.5,-93 187.5,-74 293.5,-74 293.5,-93"/>
<text text-anchor="middle" x="240.5" y="-81" font-family="Helvetica,sans-Serif" font-size="10.00">TempoMarkerDrag</text>
</a>
</g>
</g>
<!-- Node1&#45;&gt;Node27 -->
<g id="edge26_Node000001_Node000027" class="edge">
<title>Node1&#45;&gt;Node27</title>
<g id="a_edge26_Node000001_Node000027"><a xlink:title=" ">
<path fill="none" stroke="#63b8ff" d="M111.27,-303.65C112.94,-260.61 123.06,-158.01 180,-101.5 183.45,-98.08 187.52,-95.3 191.89,-93.05"/>
<polygon fill="#63b8ff" stroke="#63b8ff" points="107.76,-303.82 110.99,-313.91 114.76,-304.01 107.76,-303.82"/>
</a>
</g>
</g>
<!-- Node28 -->
<g id="Node000028" class="node">
<title>Node28</title>
<g id="a_Node000028"><a xlink:href="classTempoTwistDrag.html" target="_top" xlink:title=" ">
<polygon fill="white" stroke="#666666" points="289,-56 192,-56 192,-37 289,-37 289,-56"/>
<text text-anchor="middle" x="240.5" y="-44" font-family="Helvetica,sans-Serif" font-size="10.00">TempoTwistDrag</text>
</a>
</g>
</g>
<!-- Node1&#45;&gt;Node28 -->
<g id="edge27_Node000001_Node000028" class="edge">
<title>Node1&#45;&gt;Node28</title>
<g id="a_edge27_Node000001_Node000028"><a xlink:title=" ">
<path fill="none" stroke="#63b8ff" d="M110.21,-303.7C109.41,-255.77 114.25,-132.48 180,-64.5 183.38,-61.01 187.4,-58.19 191.75,-55.91"/>
<polygon fill="#63b8ff" stroke="#63b8ff" points="106.71,-304.04 110.49,-313.94 113.71,-303.85 106.71,-304.04"/>
</a>
</g>
</g>
<!-- Node29 -->
<g id="Node000029" class="node">
<title>Node29</title>
<g id="a_Node000029"><a xlink:href="classVideoTimeLineDrag.html" target="_top" xlink:title=" ">
<polygon fill="white" stroke="#666666" points="297,-19 184,-19 184,0 297,0 297,-19"/>
<text text-anchor="middle" x="240.5" y="-7" font-family="Helvetica,sans-Serif" font-size="10.00">VideoTimeLineDrag</text>
</a>
</g>
</g>
<!-- Node1&#45;&gt;Node29 -->
<g id="edge28_Node000001_Node000029" class="edge">
<title>Node1&#45;&gt;Node29</title>
<g id="a_edge28_Node000001_Node000029"><a xlink:title=" ">
<path fill="none" stroke="#63b8ff" d="M113.04,-303.76C119.56,-244.27 141.78,-68.28 180,-27.5 183.17,-24.11 186.96,-21.36 191.06,-19.12"/>
<polygon fill="#63b8ff" stroke="#63b8ff" points="109.55,-303.43 111.97,-313.74 116.51,-304.17 109.55,-303.43"/>
</a>
</g>
</g>
<!-- Node2 -->
<g id="Node000002" class="node">
<title>Node2</title>
<g id="a_Node000002"><a xlink:href="classDrag.html" target="_top" xlink:title=" ">
<polygon fill="white" stroke="#666666" points="40,-333 0,-333 0,-314 40,-314 40,-333"/>
<text text-anchor="middle" x="20" y="-321" font-family="Helvetica,sans-Serif" font-size="10.00">Drag</text>
</a>
</g>
</g>
<!-- Node2&#45;&gt;Node1 -->
<g id="edge1_Node000001_Node000002" class="edge">
<title>Node2&#45;&gt;Node1</title>
<g id="a_edge1_Node000001_Node000002"><a xlink:title=" ">
<path fill="none" stroke="#63b8ff" d="M50.28,-323.5C58.44,-323.5 67.37,-323.5 75.74,-323.5"/>
<polygon fill="#63b8ff" stroke="#63b8ff" points="50.09,-320 40.09,-323.5 50.09,-327 50.09,-320"/>
</a>
</g>
</g>
<!-- Node14 -->
<g id="Node000014" class="node">
<title>Node14</title>
<g id="a_Node000014"><a xlink:href="classFadeInDrag.html" target="_top" xlink:title=" ">
<polygon fill="white" stroke="#666666" points="440,-389 369,-389 369,-370 440,-370 440,-389"/>
<text text-anchor="middle" x="404.5" y="-377" font-family="Helvetica,sans-Serif" font-size="10.00">FadeInDrag</text>
</a>
</g>
</g>
<!-- Node13&#45;&gt;Node14 -->
<g id="edge13_Node000013_Node000014" class="edge">
<title>Node13&#45;&gt;Node14</title>
<g id="a_edge13_Node000013_Node000014"><a xlink:title=" ">
<path fill="none" stroke="#63b8ff" d="M287.29,-278C292.24,-280.25 296.95,-283.04 301,-286.5 328.83,-310.23 308.98,-336.99 337,-360.5 345.92,-367.99 357.63,-372.53 368.73,-375.28"/>
<polygon fill="#63b8ff" stroke="#63b8ff" points="288.16,-274.58 277.57,-274.28 285.67,-281.12 288.16,-274.58"/>
</a>
</g>
</g>
<!-- Node15 -->
<g id="Node000015" class="node">
<title>Node15</title>
<g id="a_Node000015"><a xlink:href="classFadeOutDrag.html" target="_top" xlink:title=" ">
<polygon fill="white" stroke="#666666" points="444.5,-352 364.5,-352 364.5,-333 444.5,-333 444.5,-352"/>
<text text-anchor="middle" x="404.5" y="-340" font-family="Helvetica,sans-Serif" font-size="10.00">FadeOutDrag</text>
</a>
</g>
</g>
<!-- Node13&#45;&gt;Node15 -->
<g id="edge14_Node000013_Node000015" class="edge">
<title>Node13&#45;&gt;Node15</title>
<g id="a_edge14_Node000013_Node000015"><a xlink:title=" ">
<path fill="none" stroke="#63b8ff" d="M287.45,-279.79C292.18,-281.71 296.78,-283.94 301,-286.5 320.6,-298.42 317.31,-311.73 337,-323.5 345.35,-328.49 355.07,-332.22 364.46,-335"/>
<polygon fill="#63b8ff" stroke="#63b8ff" points="288.27,-276.37 277.68,-276.26 285.89,-282.95 288.27,-276.37"/>
</a>
</g>
</g>
<!-- Node16 -->
<g id="Node000016" class="node">
<title>Node16</title>
<g id="a_Node000016"><a xlink:href="classRegionBrushDrag.html" target="_top" xlink:title=" ">
<polygon fill="white" stroke="#666666" points="455,-315 354,-315 354,-296 455,-296 455,-315"/>
<text text-anchor="middle" x="404.5" y="-303" font-family="Helvetica,sans-Serif" font-size="10.00">RegionBrushDrag</text>
</a>
</g>
</g>
<!-- Node13&#45;&gt;Node16 -->
<g id="edge15_Node000013_Node000016" class="edge">
<title>Node13&#45;&gt;Node16</title>
<g id="a_edge15_Node000013_Node000016"><a xlink:title=" ">
<path fill="none" stroke="#63b8ff" d="M287.86,-279.09C311.18,-284.41 339.21,-290.82 361.83,-295.98"/>
<polygon fill="#63b8ff" stroke="#63b8ff" points="288.38,-275.62 277.86,-276.8 286.83,-282.44 288.38,-275.62"/>
</a>
</g>
</g>
<!-- Node17 -->
<g id="Node000017" class="node">
<title>Node17</title>
<g id="a_Node000017"><a xlink:href="classRegionMotionDrag.html" target="_top" xlink:title=" ">
<polygon fill="white" stroke="#666666" points="458,-278 351,-278 351,-259 458,-259 458,-278"/>
<text text-anchor="middle" x="404.5" y="-266" font-family="Helvetica,sans-Serif" font-size="10.00">RegionMotionDrag</text>
</a>
</g>
</g>
<!-- Node13&#45;&gt;Node17 -->
<g id="edge16_Node000013_Node000017" class="edge">
<title>Node13&#45;&gt;Node17</title>
<g id="a_edge16_Node000013_Node000017"><a xlink:title=" ">
<path fill="none" stroke="#63b8ff" d="M288.1,-268.5C307.75,-268.5 330.73,-268.5 350.98,-268.5"/>
<polygon fill="#63b8ff" stroke="#63b8ff" points="287.86,-265 277.86,-268.5 287.86,-272 287.86,-265"/>
</a>
</g>
</g>
<!-- Node20 -->
<g id="Node000020" class="node">
<title>Node20</title>
<g id="a_Node000020"><a xlink:href="classRegionSlipContentsDrag.html" target="_top" xlink:title=" ">
<polygon fill="white" stroke="#666666" points="472,-241 337,-241 337,-222 472,-222 472,-241"/>
<text text-anchor="middle" x="404.5" y="-229" font-family="Helvetica,sans-Serif" font-size="10.00">RegionSlipContentsDrag</text>
</a>
</g>
</g>
<!-- Node13&#45;&gt;Node20 -->
<g id="edge19_Node000013_Node000020" class="edge">
<title>Node13&#45;&gt;Node20</title>
<g id="a_edge19_Node000013_Node000020"><a xlink:title=" ">
<path fill="none" stroke="#63b8ff" d="M287.86,-257.91C311.18,-252.59 339.21,-246.18 361.83,-241.02"/>
<polygon fill="#63b8ff" stroke="#63b8ff" points="286.83,-254.56 277.86,-260.2 288.38,-261.38 286.83,-254.56"/>
</a>
</g>
</g>
<!-- Node21 -->
<g id="Node000021" class="node">
<title>Node21</title>
<g id="a_Node000021"><a xlink:href="classTimeFXDrag.html" target="_top" xlink:title=" ">
<polygon fill="white" stroke="#666666" points="443,-204 366,-204 366,-185 443,-185 443,-204"/>
<text text-anchor="middle" x="404.5" y="-192" font-family="Helvetica,sans-Serif" font-size="10.00">TimeFXDrag</text>
</a>
</g>
</g>
<!-- Node13&#45;&gt;Node21 -->
<g id="edge20_Node000013_Node000021" class="edge">
<title>Node13&#45;&gt;Node21</title>
<g id="a_edge20_Node000013_Node000021"><a xlink:title=" ">
<path fill="none" stroke="#63b8ff" d="M287.08,-256.54C291.93,-254.51 296.67,-252.18 301,-249.5 320.51,-237.43 317.22,-224.13 337,-212.5 345.76,-207.35 356.04,-203.63 365.85,-200.96"/>
<polygon fill="#63b8ff" stroke="#63b8ff" points="285.81,-253.28 277.68,-260.07 288.27,-259.83 285.81,-253.28"/>
</a>
</g>
</g>
<!-- Node22 -->
<g id="Node000022" class="node">
<title>Node22</title>
<g id="a_Node000022"><a xlink:href="classTrimDrag.html" target="_top" xlink:title=" ">
<polygon fill="white" stroke="#666666" points="435,-167 374,-167 374,-148 435,-148 435,-167"/>
<text text-anchor="middle" x="404.5" y="-155" font-family="Helvetica,sans-Serif" font-size="10.00">TrimDrag</text>
</a>
</g>
</g>
<!-- Node13&#45;&gt;Node22 -->
<g id="edge21_Node000013_Node000022" class="edge">
<title>Node13&#45;&gt;Node22</title>
<g id="a_edge21_Node000013_Node000022"><a xlink:title=" ">
<path fill="none" stroke="#63b8ff" d="M286.93,-258.37C292.01,-256.01 296.85,-253.09 301,-249.5 328.65,-225.56 308.82,-198.81 337,-175.5 347.32,-166.96 361.34,-162.45 373.85,-160.07"/>
<polygon fill="#63b8ff" stroke="#63b8ff" points="285.6,-255.13 277.59,-262.06 288.18,-261.64 285.6,-255.13"/>
</a>
</g>
</g>
<!-- Node18 -->
<g id="Node000018" class="node">
<title>Node18</title>
<g id="a_Node000018"><a xlink:href="classRegionInsertDrag.html" target="_top" xlink:title=" ">
<polygon fill="white" stroke="#666666" points="609,-296 508,-296 508,-277 609,-277 609,-296"/>
<text text-anchor="middle" x="558.5" y="-284" font-family="Helvetica,sans-Serif" font-size="10.00">RegionInsertDrag</text>
</a>
</g>
</g>
<!-- Node17&#45;&gt;Node18 -->
<g id="edge17_Node000017_Node000018" class="edge">
<title>Node17&#45;&gt;Node18</title>
<g id="a_edge17_Node000017_Node000018"><a xlink:title=" ">
<path fill="none" stroke="#63b8ff" d="M468.22,-275.93C481.46,-277.5 495.25,-279.13 507.92,-280.63"/>
<polygon fill="#63b8ff" stroke="#63b8ff" points="468.58,-272.45 458.24,-274.75 467.75,-279.4 468.58,-272.45"/>
</a>
</g>
</g>
<!-- Node19 -->
<g id="Node000019" class="node">
<title>Node19</title>
<g id="a_Node000019"><a xlink:href="classRegionMoveDrag.html" target="_top" xlink:title=" ">
<polygon fill="white" stroke="#666666" points="609,-259 508,-259 508,-240 609,-240 609,-259"/>
<text text-anchor="middle" x="558.5" y="-247" font-family="Helvetica,sans-Serif" font-size="10.00">RegionMoveDrag</text>
</a>
</g>
</g>
<!-- Node17&#45;&gt;Node19 -->
<g id="edge18_Node000017_Node000019" class="edge">
<title>Node17&#45;&gt;Node19</title>
<g id="a_edge18_Node000017_Node000019"><a xlink:title=" ">
<path fill="none" stroke="#63b8ff" d="M468.22,-260.66C481.46,-259.01 495.25,-257.28 507.92,-255.7"/>
<polygon fill="#63b8ff" stroke="#63b8ff" points="467.72,-257.19 458.24,-261.91 468.59,-264.14 467.72,-257.19"/>
</a>
</g>
</g>
</g>
</svg>
