<?xml version="1.0" encoding="UTF-8" standalone="no"?>
<!DOCTYPE svg PUBLIC "-//W3C//DTD SVG 1.1//EN"
 "http://www.w3.org/Graphics/SVG/1.1/DTD/svg11.dtd">
<!-- Generated by graphviz version 2.43.0 (0)
 -->
<!-- Title: ARDOUR::MTC_TransportMaster Pages: 1 -->
<svg width="366pt" height="203pt"
 viewBox="0.00 0.00 366.00 203.00" xmlns="http://www.w3.org/2000/svg" xmlns:xlink="http://www.w3.org/1999/xlink">

<svg id="main" version="1.1" xmlns="http://www.w3.org/2000/svg" xmlns:xlink="http://www.w3.org/1999/xlink" xml:space="preserve" onload="init(evt)">
<style type="text/css"><![CDATA[
.node, .edge {opacity: 0.7;}
.node.selected, .edge.selected {opacity: 1;}
.edge:hover path { stroke: red; }
.edge:hover polygon { stroke: red; fill: red; }
]]></style>
<script type="application/ecmascript" xlink:href="svg.min.js"/>
<svg id="graph" class="graph">
<g id="graph0" class="graph" transform="scale(1 1) rotate(0) translate(4 199)">
<title>ARDOUR::MTC_TransportMaster</title>
<!-- Node1 -->
<g id="Node000001" class="node">
<title>Node1</title>
<g id="a_Node000001"><a xlink:title=" ">
<polygon fill="#999999" stroke="#666666" points="258,-19 88,-19 88,0 258,0 258,-19"/>
<text text-anchor="middle" x="173" y="-7" font-family="Helvetica,sans-Serif" font-size="10.00">ARDOUR::MTC_TransportMaster</text>
</a>
</g>
</g>
<!-- Node2 -->
<g id="Node000002" class="node">
<title>Node2</title>
<g id="a_Node000002"><a xlink:href="classARDOUR_1_1TimecodeTransportMaster.html" target="_top" xlink:title=" ">
<polygon fill="white" stroke="#666666" points="158,-85 0,-85 0,-55 158,-55 158,-85"/>
<text text-anchor="start" x="8" y="-73" font-family="Helvetica,sans-Serif" font-size="10.00">ARDOUR::TimecodeTransport</text>
<text text-anchor="middle" x="79" y="-62" font-family="Helvetica,sans-Serif" font-size="10.00">Master</text>
</a>
</g>
</g>
<!-- Node2&#45;&gt;Node1 -->
<g id="edge1_Node000001_Node000002" class="edge">
<title>Node2&#45;&gt;Node1</title>
<g id="a_edge1_Node000001_Node000002"><a xlink:title=" ">
<path fill="none" stroke="#63b8ff" d="M110.57,-49.35C127.09,-39.07 146.46,-27.02 159.19,-19.09"/>
<polygon fill="#63b8ff" stroke="#63b8ff" points="108.4,-46.58 101.75,-54.84 112.09,-52.53 108.4,-46.58"/>
</a>
</g>
</g>
<!-- Node3 -->
<g id="Node000003" class="node">
<title>Node3</title>
<g id="a_Node000003"><a xlink:href="classARDOUR_1_1TransportMaster.html" target="_top" xlink:title="The TransportMaster interface can be used to sync ARDOURs tempo to an external source like MTC,...">
<polygon fill="white" stroke="#666666" points="151,-140 7,-140 7,-121 151,-121 151,-140"/>
<text text-anchor="middle" x="79" y="-128" font-family="Helvetica,sans-Serif" font-size="10.00">ARDOUR::TransportMaster</text>
</a>
</g>
</g>
<!-- Node3&#45;&gt;Node2 -->
<g id="edge2_Node000002_Node000003" class="edge">
<title>Node3&#45;&gt;Node2</title>
<g id="a_edge2_Node000002_Node000003"><a xlink:title=" ">
<path fill="none" stroke="#63b8ff" d="M79,-110.65C79,-102.36 79,-92.78 79,-85.11"/>
<polygon fill="#63b8ff" stroke="#63b8ff" points="75.5,-110.87 79,-120.87 82.5,-110.87 75.5,-110.87"/>
</a>
</g>
</g>
<!-- Node4 -->
<g id="Node000004" class="node">
<title>Node4</title>
<g id="a_Node000004"><a xlink:href="classPBD_1_1Stateful.html" target="_top" xlink:title=" ">
<polygon fill="white" stroke="#666666" points="119.5,-195 38.5,-195 38.5,-176 119.5,-176 119.5,-195"/>
<text text-anchor="middle" x="79" y="-183" font-family="Helvetica,sans-Serif" font-size="10.00">PBD::Stateful</text>
</a>
</g>
</g>
<!-- Node4&#45;&gt;Node3 -->
<g id="edge3_Node000003_Node000004" class="edge">
<title>Node4&#45;&gt;Node3</title>
<g id="a_edge3_Node000003_Node000004"><a xlink:title=" ">
<path fill="none" stroke="#63b8ff" d="M79,-165.66C79,-156.93 79,-146.99 79,-140.09"/>
<polygon fill="#63b8ff" stroke="#63b8ff" points="75.5,-165.75 79,-175.75 82.5,-165.75 75.5,-165.75"/>
</a>
</g>
</g>
<!-- Node5 -->
<g id="Node000005" class="node">
<title>Node5</title>
<g id="a_Node000005"><a xlink:href="classARDOUR_1_1TransportMasterViaMIDI.html" target="_top" xlink:title=" ">
<polygon fill="white" stroke="#666666" points="358,-79.5 176,-79.5 176,-60.5 358,-60.5 358,-79.5"/>
<text text-anchor="middle" x="267" y="-67.5" font-family="Helvetica,sans-Serif" font-size="10.00">ARDOUR::TransportMasterViaMIDI</text>
</a>
</g>
</g>
<!-- Node5&#45;&gt;Node1 -->
<g id="edge4_Node000001_Node000005" class="edge">
<title>Node5&#45;&gt;Node1</title>
<g id="a_edge4_Node000001_Node000005"><a xlink:title=" ">
<path fill="none" stroke="#63b8ff" d="M244.45,-54.97C226.55,-43.82 202.08,-28.6 186.93,-19.17"/>
<polygon fill="#63b8ff" stroke="#63b8ff" points="242.79,-58.06 253.13,-60.37 246.49,-52.11 242.79,-58.06"/>
</a>
</g>
</g>
</g>
</svg>
</svg>

<style type='text/css'>
<![CDATA[
[data-mouse-over-selected='false'] { opacity: 0.7; }
[data-mouse-over-selected='true']  { opacity: 1.0; }
]]>
</style>
<script type="application/ecmascript"><![CDATA[
document.addEventListener('DOMContentLoaded', (event) => {
  highlightEdges();
  highlightAdjacentNodes();
});
]]></script>
</svg>
