<?xml version="1.0" encoding="UTF-8" standalone="no"?>
<!DOCTYPE svg PUBLIC "-//W3C//DTD SVG 1.1//EN"
 "http://www.w3.org/Graphics/SVG/1.1/DTD/svg11.dtd">
<!-- Generated by graphviz version 2.43.0 (0)
 -->
<!-- Title: AudioGrapher::Limiter Pages: 1 -->
<svg width="517pt" height="124pt"
 viewBox="0.00 0.00 517.00 123.50" xmlns="http://www.w3.org/2000/svg" xmlns:xlink="http://www.w3.org/1999/xlink">
<g id="graph0" class="graph" transform="scale(1 1) rotate(0) translate(4 119.5)">
<title>AudioGrapher::Limiter</title>
<!-- Node1 -->
<g id="Node000001" class="node">
<title>Node1</title>
<g id="a_Node000001"><a xlink:title=" ">
<polygon fill="#999999" stroke="#666666" points="509,-62 385,-62 385,-43 509,-43 509,-62"/>
<text text-anchor="middle" x="447" y="-50" font-family="Helvetica,sans-Serif" font-size="10.00">AudioGrapher::Limiter</text>
</a>
</g>
</g>
<!-- Node2 -->
<g id="Node000002" class="node">
<title>Node2</title>
<g id="a_Node000002"><a xlink:href="classAudioGrapher_1_1ListedSource.html" target="_top" xlink:title=" ">
<polygon fill="white" stroke="#666666" points="344,-115.5 192,-115.5 192,-85.5 344,-85.5 344,-115.5"/>
<text text-anchor="start" x="200" y="-103.5" font-family="Helvetica,sans-Serif" font-size="10.00">AudioGrapher::ListedSource</text>
<text text-anchor="middle" x="268" y="-92.5" font-family="Helvetica,sans-Serif" font-size="10.00">&lt; float &gt;</text>
</a>
</g>
</g>
<!-- Node2&#45;&gt;Node1 -->
<g id="edge1_Node000001_Node000002" class="edge">
<title>Node2&#45;&gt;Node1</title>
<g id="a_edge1_Node000001_Node000002"><a xlink:title=" ">
<path fill="none" stroke="#63b8ff" d="M334.28,-82.8C360.16,-75.78 388.89,-67.99 410.73,-62.06"/>
<polygon fill="#63b8ff" stroke="#63b8ff" points="333.25,-79.45 324.52,-85.44 335.09,-86.2 333.25,-79.45"/>
</a>
</g>
</g>
<!-- Node3 -->
<g id="Node000003" class="node">
<title>Node3</title>
<g id="a_Node000003"><a xlink:href="classAudioGrapher_1_1Source.html" target="_top" xlink:title=" ">
<polygon fill="white" stroke="#666666" points="151,-110 0,-110 0,-91 151,-91 151,-110"/>
<text text-anchor="middle" x="75.5" y="-98" font-family="Helvetica,sans-Serif" font-size="10.00">AudioGrapher::Source&lt; T &gt;</text>
</a>
</g>
</g>
<!-- Node3&#45;&gt;Node2 -->
<g id="edge2_Node000002_Node000003" class="edge">
<title>Node3&#45;&gt;Node2</title>
<g id="a_edge2_Node000002_Node000003"><a xlink:title=" ">
<path fill="none" stroke="#63b8ff" d="M161.34,-100.5C171.5,-100.5 181.83,-100.5 191.85,-100.5"/>
<polygon fill="#63b8ff" stroke="#63b8ff" points="161.24,-97 151.24,-100.5 161.24,-104 161.24,-97"/>
</a>
</g>
</g>
<!-- Node4 -->
<g id="Node000004" class="node">
<title>Node4</title>
<g id="a_Node000004"><a xlink:href="classAudioGrapher_1_1Sink.html" target="_top" xlink:title=" ">
<polygon fill="white" stroke="#666666" points="323,-67.5 213,-67.5 213,-37.5 323,-37.5 323,-67.5"/>
<text text-anchor="start" x="221" y="-55.5" font-family="Helvetica,sans-Serif" font-size="10.00">AudioGrapher::Sink</text>
<text text-anchor="middle" x="268" y="-44.5" font-family="Helvetica,sans-Serif" font-size="10.00">&lt; float &gt;</text>
</a>
</g>
</g>
<!-- Node4&#45;&gt;Node1 -->
<g id="edge3_Node000001_Node000004" class="edge">
<title>Node4&#45;&gt;Node1</title>
<g id="a_edge3_Node000001_Node000004"><a xlink:title=" ">
<path fill="none" stroke="#63b8ff" d="M333.34,-52.5C350.15,-52.5 368.21,-52.5 384.84,-52.5"/>
<polygon fill="#63b8ff" stroke="#63b8ff" points="333.07,-49 323.07,-52.5 333.07,-56 333.07,-49"/>
</a>
</g>
</g>
<!-- Node5 -->
<g id="Node000005" class="node">
<title>Node5</title>
<g id="a_Node000005"><a xlink:href="classAudioGrapher_1_1Throwing.html" target="_top" xlink:title=" ">
<polygon fill="white" stroke="#666666" points="349,-19 187,-19 187,0 349,0 349,-19"/>
<text text-anchor="middle" x="268" y="-7" font-family="Helvetica,sans-Serif" font-size="10.00">AudioGrapher::Throwing&lt; L &gt;</text>
</a>
</g>
</g>
<!-- Node5&#45;&gt;Node1 -->
<g id="edge4_Node000001_Node000005" class="edge">
<title>Node5&#45;&gt;Node1</title>
<g id="a_edge4_Node000001_Node000005"><a xlink:title=" ">
<path fill="none" stroke="#63b8ff" d="M319.68,-21.46C329.42,-23.78 339.53,-26.2 349,-28.5 368.39,-33.2 389.93,-38.52 407.78,-42.96"/>
<polygon fill="#63b8ff" stroke="#63b8ff" points="320.25,-18 309.72,-19.09 318.64,-24.81 320.25,-18"/>
</a>
</g>
</g>
</g>
</svg>
