<?xml version="1.0" encoding="UTF-8" standalone="no"?>
<!DOCTYPE svg PUBLIC "-//W3C//DTD SVG 1.1//EN"
 "http://www.w3.org/Graphics/SVG/1.1/DTD/svg11.dtd">
<!-- Generated by graphviz version 2.43.0 (0)
 -->
<!-- Title: ARDOUR::PluginInsert Pages: 1 -->
<svg width="1092pt" height="206pt"
 viewBox="0.00 0.00 1092.00 205.50" xmlns="http://www.w3.org/2000/svg" xmlns:xlink="http://www.w3.org/1999/xlink">
<g id="graph0" class="graph" transform="scale(1 1) rotate(0) translate(4 201.5)">
<title>ARDOUR::PluginInsert</title>
<!-- Node1 -->
<g id="Node000001" class="node">
<title>Node1</title>
<g id="a_Node000001"><a xlink:title=" ">
<polygon fill="#999999" stroke="#666666" points="1084,-67.5 961,-67.5 961,-48.5 1084,-48.5 1084,-67.5"/>
<text text-anchor="middle" x="1022.5" y="-55.5" font-family="Helvetica,sans-Serif" font-size="10.00">ARDOUR::PluginInsert</text>
</a>
</g>
</g>
<!-- Node2 -->
<g id="Node000002" class="node">
<title>Node2</title>
<g id="a_Node000002"><a xlink:href="classARDOUR_1_1Processor.html" target="_top" xlink:title=" ">
<polygon fill="white" stroke="#666666" points="907,-123.5 794,-123.5 794,-104.5 907,-104.5 907,-123.5"/>
<text text-anchor="middle" x="850.5" y="-111.5" font-family="Helvetica,sans-Serif" font-size="10.00">ARDOUR::Processor</text>
</a>
</g>
</g>
<!-- Node2&#45;&gt;Node1 -->
<g id="edge1_Node000001_Node000002" class="edge">
<title>Node2&#45;&gt;Node1</title>
<g id="a_edge1_Node000001_Node000002"><a xlink:title=" ">
<path fill="none" stroke="#63b8ff" d="M890.39,-101.19C921.53,-90.93 964.52,-76.77 992.66,-67.5"/>
<polygon fill="#63b8ff" stroke="#63b8ff" points="889.13,-97.92 880.72,-104.37 891.32,-104.57 889.13,-97.92"/>
</a>
</g>
</g>
<!-- Node3 -->
<g id="Node000003" class="node">
<title>Node3</title>
<g id="a_Node000003"><a xlink:href="classARDOUR_1_1SessionObject.html" target="_top" xlink:title=" ">
<polygon fill="white" stroke="#666666" points="547.5,-160.5 413.5,-160.5 413.5,-141.5 547.5,-141.5 547.5,-160.5"/>
<text text-anchor="middle" x="480.5" y="-148.5" font-family="Helvetica,sans-Serif" font-size="10.00">ARDOUR::SessionObject</text>
</a>
</g>
</g>
<!-- Node3&#45;&gt;Node2 -->
<g id="edge2_Node000002_Node000003" class="edge">
<title>Node3&#45;&gt;Node2</title>
<g id="a_edge2_Node000002_Node000003"><a xlink:title=" ">
<path fill="none" stroke="#63b8ff" d="M557.85,-143.32C628.16,-136.25 730.84,-125.93 793.74,-119.61"/>
<polygon fill="#63b8ff" stroke="#63b8ff" points="557.32,-139.86 547.72,-144.34 558.02,-146.82 557.32,-139.86"/>
</a>
</g>
</g>
<!-- Node4 -->
<g id="Node000004" class="node">
<title>Node4</title>
<g id="a_Node000004"><a xlink:href="classARDOUR_1_1SessionHandleRef.html" target="_top" xlink:title=" ">
<polygon fill="white" stroke="#666666" points="349.5,-160.5 195.5,-160.5 195.5,-141.5 349.5,-141.5 349.5,-160.5"/>
<text text-anchor="middle" x="272.5" y="-148.5" font-family="Helvetica,sans-Serif" font-size="10.00">ARDOUR::SessionHandleRef</text>
</a>
</g>
</g>
<!-- Node4&#45;&gt;Node3 -->
<g id="edge3_Node000003_Node000004" class="edge">
<title>Node4&#45;&gt;Node3</title>
<g id="a_edge3_Node000003_Node000004"><a xlink:title=" ">
<path fill="none" stroke="#63b8ff" d="M360,-151C377.79,-151 396.25,-151 413.18,-151"/>
<polygon fill="#63b8ff" stroke="#63b8ff" points="359.62,-147.5 349.62,-151 359.62,-154.5 359.62,-147.5"/>
</a>
</g>
</g>
<!-- Node5 -->
<g id="Node000005" class="node">
<title>Node5</title>
<g id="a_Node000005"><a xlink:href="classPBD_1_1ScopedConnectionList.html" target="_top" xlink:title=" ">
<polygon fill="white" stroke="#666666" points="150,-160.5 0,-160.5 0,-141.5 150,-141.5 150,-160.5"/>
<text text-anchor="middle" x="75" y="-148.5" font-family="Helvetica,sans-Serif" font-size="10.00">PBD::ScopedConnectionList</text>
</a>
</g>
</g>
<!-- Node5&#45;&gt;Node4 -->
<g id="edge4_Node000004_Node000005" class="edge">
<title>Node5&#45;&gt;Node4</title>
<g id="a_edge4_Node000004_Node000005"><a xlink:title=" ">
<path fill="none" stroke="#63b8ff" d="M160.35,-151C172,-151 183.92,-151 195.41,-151"/>
<polygon fill="#63b8ff" stroke="#63b8ff" points="160.19,-147.5 150.19,-151 160.19,-154.5 160.19,-147.5"/>
</a>
</g>
</g>
<!-- Node6 -->
<g id="Node000006" class="node">
<title>Node6</title>
<g id="a_Node000006"><a xlink:href="classPBD_1_1StatefulDestructible.html" target="_top" xlink:title=" ">
<polygon fill="white" stroke="#666666" points="342.5,-123.5 202.5,-123.5 202.5,-104.5 342.5,-104.5 342.5,-123.5"/>
<text text-anchor="middle" x="272.5" y="-111.5" font-family="Helvetica,sans-Serif" font-size="10.00">PBD::StatefulDestructible</text>
</a>
</g>
</g>
<!-- Node6&#45;&gt;Node3 -->
<g id="edge5_Node000003_Node000006" class="edge">
<title>Node6&#45;&gt;Node3</title>
<g id="a_edge5_Node000003_Node000006"><a xlink:title=" ">
<path fill="none" stroke="#63b8ff" d="M336.49,-125.31C365.2,-130.47 398.84,-136.51 426.27,-141.44"/>
<polygon fill="#63b8ff" stroke="#63b8ff" points="337.01,-121.85 326.55,-123.53 335.77,-128.74 337.01,-121.85"/>
</a>
</g>
</g>
<!-- Node7 -->
<g id="Node000007" class="node">
<title>Node7</title>
<g id="a_Node000007"><a xlink:href="classPBD_1_1Stateful.html" target="_top" xlink:title=" ">
<polygon fill="white" stroke="#666666" points="115.5,-123.5 34.5,-123.5 34.5,-104.5 115.5,-104.5 115.5,-123.5"/>
<text text-anchor="middle" x="75" y="-111.5" font-family="Helvetica,sans-Serif" font-size="10.00">PBD::Stateful</text>
</a>
</g>
</g>
<!-- Node7&#45;&gt;Node6 -->
<g id="edge6_Node000006_Node000007" class="edge">
<title>Node7&#45;&gt;Node6</title>
<g id="a_edge6_Node000006_Node000007"><a xlink:title=" ">
<path fill="none" stroke="#63b8ff" d="M125.87,-114C149.09,-114 177.1,-114 202.32,-114"/>
<polygon fill="#63b8ff" stroke="#63b8ff" points="125.56,-110.5 115.56,-114 125.56,-117.5 125.56,-110.5"/>
</a>
</g>
</g>
<!-- Node8 -->
<g id="Node000008" class="node">
<title>Node8</title>
<g id="a_Node000008"><a xlink:href="classPBD_1_1Destructible.html" target="_top" xlink:title=" ">
<polygon fill="white" stroke="#666666" points="126,-86.5 24,-86.5 24,-67.5 126,-67.5 126,-86.5"/>
<text text-anchor="middle" x="75" y="-74.5" font-family="Helvetica,sans-Serif" font-size="10.00">PBD::Destructible</text>
</a>
</g>
</g>
<!-- Node8&#45;&gt;Node6 -->
<g id="edge7_Node000006_Node000008" class="edge">
<title>Node8&#45;&gt;Node6</title>
<g id="a_edge7_Node000006_Node000008"><a xlink:title=" ">
<path fill="none" stroke="#63b8ff" d="M135.92,-88.34C163.22,-93.51 195.17,-99.55 221.2,-104.48"/>
<polygon fill="#63b8ff" stroke="#63b8ff" points="136.57,-84.9 126.09,-86.48 135.27,-91.78 136.57,-84.9"/>
</a>
</g>
</g>
<!-- Node12 -->
<g id="Node000012" class="node">
<title>Node12</title>
<g id="a_Node000012"><a xlink:href="structTemporal_1_1TimeDomainSwapper.html" target="_top" xlink:title=" ">
<polygon fill="white" stroke="#666666" points="359,-86.5 186,-86.5 186,-67.5 359,-67.5 359,-86.5"/>
<text text-anchor="middle" x="272.5" y="-74.5" font-family="Helvetica,sans-Serif" font-size="10.00">Temporal::TimeDomainSwapper</text>
</a>
</g>
</g>
<!-- Node8&#45;&gt;Node12 -->
<g id="edge12_Node000012_Node000008" class="edge">
<title>Node8&#45;&gt;Node12</title>
<g id="a_edge12_Node000012_Node000008"><a xlink:title=" ">
<path fill="none" stroke="#63b8ff" d="M136.17,-77C151.88,-77 169.11,-77 185.86,-77"/>
<polygon fill="#63b8ff" stroke="#63b8ff" points="136.09,-73.5 126.09,-77 136.09,-80.5 136.09,-73.5"/>
</a>
</g>
</g>
<!-- Node17 -->
<g id="Node000017" class="node">
<title>Node17</title>
<g id="a_Node000017"><a xlink:href="classARDOUR_1_1PlugInsertBase.html" target="_top" xlink:title=" ">
<polygon fill="white" stroke="#666666" points="740,-49.5 602,-49.5 602,-30.5 740,-30.5 740,-49.5"/>
<text text-anchor="middle" x="671" y="-37.5" font-family="Helvetica,sans-Serif" font-size="10.00">ARDOUR::PlugInsertBase</text>
</a>
</g>
</g>
<!-- Node8&#45;&gt;Node17 -->
<g id="edge19_Node000017_Node000008" class="edge">
<title>Node8&#45;&gt;Node17</title>
<g id="a_edge19_Node000017_Node000008"><a xlink:title=" ">
<path fill="none" stroke="#63b8ff" d="M98.1,-61.78C119.49,-48.04 153.36,-28.83 186,-21 344.64,17.06 540.79,-13.48 626.5,-30.5"/>
<polygon fill="#63b8ff" stroke="#63b8ff" points="96.17,-58.86 89.74,-67.28 100.02,-64.7 96.17,-58.86"/>
</a>
</g>
</g>
<!-- Node9 -->
<g id="Node000009" class="node">
<title>Node9</title>
<g id="a_Node000009"><a xlink:href="classARDOUR_1_1Automatable.html" target="_top" xlink:title=" ">
<polygon fill="white" stroke="#666666" points="735,-90.5 607,-90.5 607,-71.5 735,-71.5 735,-90.5"/>
<text text-anchor="middle" x="671" y="-78.5" font-family="Helvetica,sans-Serif" font-size="10.00">ARDOUR::Automatable</text>
</a>
</g>
</g>
<!-- Node9&#45;&gt;Node2 -->
<g id="edge8_Node000002_Node000009" class="edge">
<title>Node9&#45;&gt;Node2</title>
<g id="a_edge8_Node000002_Node000009"><a xlink:title=" ">
<path fill="none" stroke="#63b8ff" d="M733.22,-92.38C754.42,-96.32 777.96,-100.7 798.28,-104.48"/>
<polygon fill="#63b8ff" stroke="#63b8ff" points="733.81,-88.93 723.34,-90.54 732.53,-95.81 733.81,-88.93"/>
</a>
</g>
</g>
<!-- Node10 -->
<g id="Node000010" class="node">
<title>Node10</title>
<g id="a_Node000010"><a xlink:href="classEvoral_1_1ControlSet.html" target="_top" xlink:title=" ">
<polygon fill="white" stroke="#666666" points="532.5,-49.5 428.5,-49.5 428.5,-30.5 532.5,-30.5 532.5,-49.5"/>
<text text-anchor="middle" x="480.5" y="-37.5" font-family="Helvetica,sans-Serif" font-size="10.00">Evoral::ControlSet</text>
</a>
</g>
</g>
<!-- Node10&#45;&gt;Node9 -->
<g id="edge9_Node000009_Node000010" class="edge">
<title>Node10&#45;&gt;Node9</title>
<g id="a_edge9_Node000009_Node000010"><a xlink:title=" ">
<path fill="none" stroke="#63b8ff" d="M536.71,-51.7C546.47,-53.78 556.54,-55.95 566,-58 586.15,-62.37 608.48,-67.3 627.26,-71.47"/>
<polygon fill="#63b8ff" stroke="#63b8ff" points="537.19,-48.22 526.68,-49.56 535.73,-55.07 537.19,-48.22"/>
</a>
</g>
</g>
<!-- Node10&#45;&gt;Node17 -->
<g id="edge18_Node000017_Node000010" class="edge">
<title>Node10&#45;&gt;Node17</title>
<g id="a_edge18_Node000017_Node000010"><a xlink:title=" ">
<path fill="none" stroke="#63b8ff" d="M542.52,-40C561.49,-40 582.53,-40 601.95,-40"/>
<polygon fill="#63b8ff" stroke="#63b8ff" points="542.51,-36.5 532.51,-40 542.51,-43.5 542.51,-36.5"/>
</a>
</g>
</g>
<!-- Node11 -->
<g id="Node000011" class="node">
<title>Node11</title>
<g id="a_Node000011"><a xlink:title=" ">
<polygon fill="white" stroke="#666666" points="328.5,-49.5 216.5,-49.5 216.5,-30.5 328.5,-30.5 328.5,-49.5"/>
<text text-anchor="middle" x="272.5" y="-37.5" font-family="Helvetica,sans-Serif" font-size="10.00">boost::noncopyable</text>
</a>
</g>
</g>
<!-- Node11&#45;&gt;Node10 -->
<g id="edge10_Node000010_Node000011" class="edge">
<title>Node11&#45;&gt;Node10</title>
<g id="a_edge10_Node000010_Node000011"><a xlink:title=" ">
<path fill="none" stroke="#63b8ff" d="M338.74,-40C367.7,-40 401.29,-40 428.39,-40"/>
<polygon fill="#63b8ff" stroke="#63b8ff" points="338.7,-36.5 328.7,-40 338.7,-43.5 338.7,-36.5"/>
</a>
</g>
</g>
<!-- Node12&#45;&gt;Node10 -->
<g id="edge11_Node000010_Node000012" class="edge">
<title>Node12&#45;&gt;Node10</title>
<g id="a_edge11_Node000010_Node000012"><a xlink:title=" ">
<path fill="none" stroke="#63b8ff" d="M336.72,-65.64C366.14,-60.36 400.67,-54.16 428.41,-49.18"/>
<polygon fill="#63b8ff" stroke="#63b8ff" points="335.77,-62.26 326.55,-67.47 337.01,-69.15 335.77,-62.26"/>
</a>
</g>
</g>
<!-- Node13 -->
<g id="Node000013" class="node">
<title>Node13</title>
<g id="a_Node000013"><a xlink:href="classARDOUR_1_1Slavable.html" target="_top" xlink:title=" ">
<polygon fill="white" stroke="#666666" points="534,-86.5 427,-86.5 427,-67.5 534,-67.5 534,-86.5"/>
<text text-anchor="middle" x="480.5" y="-74.5" font-family="Helvetica,sans-Serif" font-size="10.00">ARDOUR::Slavable</text>
</a>
</g>
</g>
<!-- Node13&#45;&gt;Node9 -->
<g id="edge13_Node000009_Node000013" class="edge">
<title>Node13&#45;&gt;Node9</title>
<g id="a_edge13_Node000009_Node000013"><a xlink:title=" ">
<path fill="none" stroke="#63b8ff" d="M544.01,-78.33C564.17,-78.75 586.52,-79.23 606.73,-79.66"/>
<polygon fill="#63b8ff" stroke="#63b8ff" points="544.08,-74.83 534.01,-78.11 543.93,-81.83 544.08,-74.83"/>
</a>
</g>
</g>
<!-- Node14 -->
<g id="Node000014" class="node">
<title>Node14</title>
<g id="a_Node000014"><a xlink:href="classTemporal_1_1TimeDomainProvider.html" target="_top" xlink:title=" ">
<polygon fill="white" stroke="#666666" points="566,-123.5 395,-123.5 395,-104.5 566,-104.5 566,-123.5"/>
<text text-anchor="middle" x="480.5" y="-111.5" font-family="Helvetica,sans-Serif" font-size="10.00">Temporal::TimeDomainProvider</text>
</a>
</g>
</g>
<!-- Node14&#45;&gt;Node9 -->
<g id="edge14_Node000009_Node000014" class="edge">
<title>Node14&#45;&gt;Node9</title>
<g id="a_edge14_Node000009_Node000014"><a xlink:title=" ">
<path fill="none" stroke="#63b8ff" d="M545.65,-102.77C568.35,-98.8 593.64,-94.37 615.46,-90.55"/>
<polygon fill="#63b8ff" stroke="#63b8ff" points="545.02,-99.33 535.77,-104.5 546.22,-106.22 545.02,-99.33"/>
</a>
</g>
</g>
<!-- Node15 -->
<g id="Node000015" class="node">
<title>Node15</title>
<g id="a_Node000015"><a xlink:href="classARDOUR_1_1Latent.html" target="_top" xlink:title=" ">
<polygon fill="white" stroke="#666666" points="719,-192.5 623,-192.5 623,-173.5 719,-173.5 719,-192.5"/>
<text text-anchor="middle" x="671" y="-180.5" font-family="Helvetica,sans-Serif" font-size="10.00">ARDOUR::Latent</text>
</a>
</g>
</g>
<!-- Node15&#45;&gt;Node2 -->
<g id="edge15_Node000002_Node000015" class="edge">
<title>Node15&#45;&gt;Node2</title>
<g id="a_edge15_Node000002_Node000015"><a xlink:title=" ">
<path fill="none" stroke="#63b8ff" d="M706.43,-169.62C741.27,-156.07 794.26,-135.47 825.03,-123.51"/>
<polygon fill="#63b8ff" stroke="#63b8ff" points="704.73,-166.52 696.68,-173.41 707.27,-173.04 704.73,-166.52"/>
</a>
</g>
</g>
<!-- Node16 -->
<g id="Node000016" class="node">
<title>Node16</title>
<g id="a_Node000016"><a xlink:href="classARDOUR_1_1HasLatency.html" target="_top" xlink:title=" ">
<polygon fill="white" stroke="#666666" points="541.5,-197.5 419.5,-197.5 419.5,-178.5 541.5,-178.5 541.5,-197.5"/>
<text text-anchor="middle" x="480.5" y="-185.5" font-family="Helvetica,sans-Serif" font-size="10.00">ARDOUR::HasLatency</text>
</a>
</g>
</g>
<!-- Node16&#45;&gt;Node15 -->
<g id="edge16_Node000015_Node000016" class="edge">
<title>Node16&#45;&gt;Node15</title>
<g id="a_edge16_Node000015_Node000016"><a xlink:title=" ">
<path fill="none" stroke="#63b8ff" d="M551.69,-186.14C575.46,-185.51 601.41,-184.82 622.93,-184.25"/>
<polygon fill="#63b8ff" stroke="#63b8ff" points="551.56,-182.64 541.66,-186.4 551.75,-189.64 551.56,-182.64"/>
</a>
</g>
</g>
<!-- Node17&#45;&gt;Node1 -->
<g id="edge17_Node000001_Node000017" class="edge">
<title>Node17&#45;&gt;Node1</title>
<g id="a_edge17_Node000001_Node000017"><a xlink:title=" ">
<path fill="none" stroke="#63b8ff" d="M750.21,-44.03C813.84,-47.31 902.36,-51.86 960.76,-54.87"/>
<polygon fill="#63b8ff" stroke="#63b8ff" points="750.38,-40.53 740.22,-43.51 750.02,-47.52 750.38,-40.53"/>
</a>
</g>
</g>
<!-- Node18 -->
<g id="Node000018" class="node">
<title>Node18</title>
<g id="a_Node000018"><a xlink:title=" ">
<polygon fill="white" stroke="#666666" points="925,-30 776,-30 776,0 925,0 925,-30"/>
<text text-anchor="start" x="784" y="-18" font-family="Helvetica,sans-Serif" font-size="10.00">std::enable_shared</text>
<text text-anchor="middle" x="850.5" y="-7" font-family="Helvetica,sans-Serif" font-size="10.00">_from_this&lt; PluginInsert &gt;</text>
</a>
</g>
</g>
<!-- Node18&#45;&gt;Node1 -->
<g id="edge20_Node000001_Node000018" class="edge">
<title>Node18&#45;&gt;Node1</title>
<g id="a_edge20_Node000001_Node000018"><a xlink:title=" ">
<path fill="none" stroke="#63b8ff" d="M920.75,-32.52C942.32,-37.97 965.3,-43.78 983.85,-48.48"/>
<polygon fill="#63b8ff" stroke="#63b8ff" points="921.51,-29.1 910.96,-30.04 919.79,-35.88 921.51,-29.1"/>
</a>
</g>
</g>
</g>
</svg>
