<?xml version="1.0" encoding="UTF-8" standalone="no"?>
<!DOCTYPE svg PUBLIC "-//W3C//DTD SVG 1.1//EN"
 "http://www.w3.org/Graphics/SVG/1.1/DTD/svg11.dtd">
<!-- Generated by graphviz version 2.43.0 (0)
 -->
<!-- Title: ARDOUR::HasSampleFormat Pages: 1 -->
<!--zoomable 138 -->

<svg id="main" version="1.1" xmlns="http://www.w3.org/2000/svg" xmlns:xlink="http://www.w3.org/1999/xlink" xml:space="preserve" onload="init(evt)">
<style type="text/css"><![CDATA[
.node, .edge {opacity: 0.7;}
.node.selected, .edge.selected {opacity: 1;}
.edge:hover path { stroke: red; }
.edge:hover polygon { stroke: red; fill: red; }
]]></style>

<defs>
  <circle id="rim" cx="0" cy="0" r="7"/>
  <circle id="rim2" cx="0" cy="0" r="3.5"/>
  <g id="zoomPlus">
    <use xlink:href="#rim" fill="#404040"><set attributeName="fill" to="#808080" begin="zoomplus.mouseover" end="zoomplus.mouseout"/></use>
    <path d="M-4,0h8M0,-4v8" fill="none" stroke="white" stroke-width="1.5" pointer-events="none"/>
  </g>
  <g id="zoomMin">
    <use xlink:href="#rim" fill="#404040"><set attributeName="fill" to="#808080" begin="zoomminus.mouseover" end="zoomminus.mouseout"/></use>
    <path d="M-4,0h8" fill="none" stroke="white" stroke-width="1.5" pointer-events="none"/>
  </g>
  <g id="arrowUp" transform="translate(30 24)">
    <use xlink:href="#rim"/>
    <path pointer-events="none" fill="none" stroke="white" stroke-width="1.5" d="M0,-3.0v7 M-2.5,-0.5L0,-3.0L2.5,-0.5"/>
  </g>
  <g id="arrowRight" transform="rotate(90) translate(36 -43)">
    <use xlink:href="#rim"/>
    <path pointer-events="none" fill="none" stroke="white" stroke-width="1.5" d="M0,-3.0v7 M-2.5,-0.5L0,-3.0L2.5,-0.5"/>
  </g>
  <g id="arrowDown" transform="rotate(180) translate(-30 -48)">
    <use xlink:href="#rim"/>
    <path pointer-events="none" fill="none" stroke="white" stroke-width="1.5" d="M0,-3.0v7 M-2.5,-0.5L0,-3.0L2.5,-0.5"/>
  </g>
  <g id="arrowLeft" transform="rotate(270) translate(-36 17)">
    <use xlink:href="#rim"/>
    <path pointer-events="none" fill="none" stroke="white" stroke-width="1.5" d="M0,-3.0v7 M-2.5,-0.5L0,-3.0L2.5,-0.5"/>
  </g>
  <g id="resetDef">
    <use xlink:href="#rim2" fill="#404040"><set attributeName="fill" to="#808080" begin="reset.mouseover" end="reset.mouseout"/></use>
  </g>
</defs>
<script type="application/ecmascript">
var viewWidth = 748;
var viewHeight = 138;
var sectionId = 'dynsection-0';
</script>
<script type="application/ecmascript" xlink:href="svg.min.js"/>
<svg id="graph" class="graph">
<g id="viewport">
<title>ARDOUR::HasSampleFormat</title>
<!-- Node1 -->
<g id="Node000001" class="node">
<title>Node1</title>
<g id="a_Node000001"><a xlink:title="Class to be inherited by export formats that have a selectable sample format.">
<polygon fill="#999999" stroke="#666666" points="341,-74 186,-74 186,-55 341,-55 341,-74"/>
<text text-anchor="middle" x="263.5" y="-62" font-family="Helvetica,sans-Serif" font-size="10.00">ARDOUR::HasSampleFormat</text>
</a>
</g>
</g>
<!-- Node3 -->
<g id="Node000003" class="node">
<title>Node3</title>
<g id="a_Node000003"><a xlink:href="classARDOUR_1_1ExportFormatBWF.html" target="_top" xlink:title=" ">
<polygon fill="white" stroke="#666666" points="534.5,-130 380.5,-130 380.5,-111 534.5,-111 534.5,-130"/>
<text text-anchor="middle" x="457.5" y="-118" font-family="Helvetica,sans-Serif" font-size="10.00">ARDOUR::ExportFormatBWF</text>
</a>
</g>
</g>
<!-- Node1&#45;&gt;Node3 -->
<g id="edge2_Node000001_Node000003" class="edge">
<title>Node1&#45;&gt;Node3</title>
<g id="a_edge2_Node000001_Node000003"><a xlink:title=" ">
<path fill="none" stroke="#63b8ff" d="M299.77,-77.46C321.8,-85.29 350.84,-95.14 377,-102.5 387.76,-105.53 399.45,-108.4 410.47,-110.93"/>
<polygon fill="#63b8ff" stroke="#63b8ff" points="300.77,-74.1 290.18,-74.02 298.41,-80.69 300.77,-74.1"/>
</a>
</g>
</g>
<!-- Node4 -->
<g id="Node000004" class="node">
<title>Node4</title>
<g id="a_Node000004"><a xlink:href="classARDOUR_1_1ExportFormatFLAC.html" target="_top" xlink:title=" ">
<polygon fill="white" stroke="#666666" points="536,-93 379,-93 379,-74 536,-74 536,-93"/>
<text text-anchor="middle" x="457.5" y="-81" font-family="Helvetica,sans-Serif" font-size="10.00">ARDOUR::ExportFormatFLAC</text>
</a>
</g>
</g>
<!-- Node1&#45;&gt;Node4 -->
<g id="edge3_Node000001_Node000004" class="edge">
<title>Node1&#45;&gt;Node4</title>
<g id="a_edge3_Node000001_Node000004"><a xlink:title=" ">
<path fill="none" stroke="#63b8ff" d="M351.19,-73.08C360.45,-74 369.83,-74.92 378.97,-75.83"/>
<polygon fill="#63b8ff" stroke="#63b8ff" points="351.51,-69.59 341.21,-72.09 350.82,-76.56 351.51,-69.59"/>
</a>
</g>
</g>
<!-- Node5 -->
<g id="Node000005" class="node">
<title>Node5</title>
<g id="a_Node000005"><a xlink:href="classARDOUR_1_1ExportFormatLinear.html" target="_top" xlink:title=" ">
<polygon fill="white" stroke="#666666" points="538,-56 377,-56 377,-37 538,-37 538,-56"/>
<text text-anchor="middle" x="457.5" y="-44" font-family="Helvetica,sans-Serif" font-size="10.00">ARDOUR::ExportFormatLinear</text>
</a>
</g>
</g>
<!-- Node1&#45;&gt;Node5 -->
<g id="edge4_Node000001_Node000005" class="edge">
<title>Node1&#45;&gt;Node5</title>
<g id="a_edge4_Node000001_Node000005"><a xlink:title=" ">
<path fill="none" stroke="#63b8ff" d="M351.44,-56.35C359.88,-55.56 368.41,-54.76 376.77,-53.97"/>
<polygon fill="#63b8ff" stroke="#63b8ff" points="350.84,-52.89 341.21,-57.31 351.49,-59.86 350.84,-52.89"/>
</a>
</g>
</g>
<!-- Node7 -->
<g id="Node000007" class="node">
<title>Node7</title>
<g id="a_Node000007"><a xlink:href="classARDOUR_1_1ExportFormatMPEG.html" target="_top" xlink:title=" ">
<polygon fill="white" stroke="#666666" points="537.5,-19 377.5,-19 377.5,0 537.5,0 537.5,-19"/>
<text text-anchor="middle" x="457.5" y="-7" font-family="Helvetica,sans-Serif" font-size="10.00">ARDOUR::ExportFormatMPEG</text>
</a>
</g>
</g>
<!-- Node1&#45;&gt;Node7 -->
<g id="edge6_Node000001_Node000007" class="edge">
<title>Node1&#45;&gt;Node7</title>
<g id="a_edge6_Node000001_Node000007"><a xlink:title=" ">
<path fill="none" stroke="#63b8ff" d="M300.67,-51.63C322.6,-44.08 351.23,-34.64 377,-27.5 387.91,-24.48 399.77,-21.59 410.91,-19.04"/>
<polygon fill="#63b8ff" stroke="#63b8ff" points="299.4,-48.37 291.1,-54.96 301.7,-54.98 299.4,-48.37"/>
</a>
</g>
</g>
<!-- Node2 -->
<g id="Node000002" class="node">
<title>Node2</title>
<g id="a_Node000002"><a xlink:href="classPBD_1_1ScopedConnectionList.html" target="_top" xlink:title=" ">
<polygon fill="white" stroke="#666666" points="150,-74 0,-74 0,-55 150,-55 150,-74"/>
<text text-anchor="middle" x="75" y="-62" font-family="Helvetica,sans-Serif" font-size="10.00">PBD::ScopedConnectionList</text>
</a>
</g>
</g>
<!-- Node2&#45;&gt;Node1 -->
<g id="edge1_Node000001_Node000002" class="edge">
<title>Node2&#45;&gt;Node1</title>
<g id="a_edge1_Node000001_Node000002"><a xlink:title=" ">
<path fill="none" stroke="#63b8ff" d="M160.46,-64.5C168.89,-64.5 177.42,-64.5 185.76,-64.5"/>
<polygon fill="#63b8ff" stroke="#63b8ff" points="160.25,-61 150.25,-64.5 160.25,-68 160.25,-61"/>
</a>
</g>
</g>
<!-- Node6 -->
<g id="Node000006" class="node">
<title>Node6</title>
<g id="a_Node000006"><a xlink:href="classARDOUR_1_1ExportFormatTaggedLinear.html" target="_top" xlink:title=" ">
<polygon fill="white" stroke="#666666" points="740,-61.5 574,-61.5 574,-31.5 740,-31.5 740,-61.5"/>
<text text-anchor="start" x="582" y="-49.5" font-family="Helvetica,sans-Serif" font-size="10.00">ARDOUR::ExportFormatTagged</text>
<text text-anchor="middle" x="657" y="-38.5" font-family="Helvetica,sans-Serif" font-size="10.00">Linear</text>
</a>
</g>
</g>
<!-- Node5&#45;&gt;Node6 -->
<g id="edge5_Node000005_Node000006" class="edge">
<title>Node5&#45;&gt;Node6</title>
<g id="a_edge5_Node000005_Node000006"><a xlink:title=" ">
<path fill="none" stroke="#63b8ff" d="M548.46,-46.5C556.86,-46.5 565.36,-46.5 573.69,-46.5"/>
<polygon fill="#63b8ff" stroke="#63b8ff" points="548.26,-43 538.26,-46.5 548.26,-50 548.26,-43"/>
</a>
</g>
</g>
</g>
</svg>

<g id="navigator" transform="translate(0 0)" fill="#404254">
  <rect fill="#f2f5e9" fill-opacity="0.5" stroke="#606060" stroke-width=".5" x="0" y="0" width="60" height="60"/>
  <use id="zoomplus" xlink:href="#zoomPlus" x="17" y="9" onmousedown="handleZoom(evt,'in')"/>
  <use id="zoomminus" xlink:href="#zoomMin" x="42" y="9" onmousedown="handleZoom(evt,'out')"/>
  <use id="reset" xlink:href="#resetDef" x="30" y="36" onmousedown="handleReset()"/>
   <use id="arrowup" xlink:href="#arrowUp" x="0" y="0" onmousedown="handlePan(0,-1)"/>
  <use id="arrowright" xlink:href="#arrowRight" x="0" y="0" onmousedown="handlePan(1,0)"/>
  <use id="arrowdown" xlink:href="#arrowDown" x="0" y="0" onmousedown="handlePan(0,1)"/>
  <use id="arrowleft" xlink:href="#arrowLeft" x="0" y="0" onmousedown="handlePan(-1,0)"/>
</g>
<svg viewBox="0 0 15 15" width="100%" height="30px" preserveAspectRatio="xMaxYMin meet">
 <g id="arrow_out" transform="scale(0.3 0.3)">
  <a xlink:href="classARDOUR_1_1HasSampleFormat__inherit__graph_org.svg" target="_base">
   <rect id="button" ry="5" rx="5" y="6" x="6" height="38" width="38"
        fill="#f2f5e9" fill-opacity="0.5" stroke="#606060" stroke-width="1.0"/>
   <path id="arrow"
     d="M 11.500037,31.436501 C 11.940474,20.09759 22.043105,11.32322 32.158766,21.979434 L 37.068811,17.246167 C 37.068811,17.246167 37.088388,32 37.088388,32 L 22.160133,31.978069 C 22.160133,31.978069 26.997745,27.140456 26.997745,27.140456 C 18.528582,18.264221 13.291696,25.230495 11.500037,31.436501 z"
     style="fill:#404040;"/>
  </a>
 </g>
</svg>

<style type='text/css'>
<![CDATA[
[data-mouse-over-selected='false'] { opacity: 0.7; }
[data-mouse-over-selected='true']  { opacity: 1.0; }
]]>
</style>
<script type="application/ecmascript"><![CDATA[
document.addEventListener('DOMContentLoaded', (event) => {
  highlightEdges();
  highlightAdjacentNodes();
});
]]></script>
</svg>
