<?xml version="1.0" encoding="UTF-8" standalone="no"?>
<!DOCTYPE svg PUBLIC "-//W3C//DTD SVG 1.1//EN"
 "http://www.w3.org/Graphics/SVG/1.1/DTD/svg11.dtd">
<!-- Generated by graphviz version 2.43.0 (0)
 -->
<!-- Title: ARDOUR::FileSource Pages: 1 -->
<svg width="1175pt" height="212pt"
 viewBox="0.00 0.00 1175.00 212.00" xmlns="http://www.w3.org/2000/svg" xmlns:xlink="http://www.w3.org/1999/xlink">
<g id="graph0" class="graph" transform="scale(1 1) rotate(0) translate(4 208)">
<title>ARDOUR::FileSource</title>
<!-- Node1 -->
<g id="Node000001" class="node">
<title>Node1</title>
<g id="a_Node000001"><a xlink:title=" ">
<polygon fill="#999999" stroke="#666666" points="796,-92 680,-92 680,-73 796,-73 796,-92"/>
<text text-anchor="middle" x="738" y="-80" font-family="Helvetica,sans-Serif" font-size="10.00">ARDOUR::FileSource</text>
</a>
</g>
</g>
<!-- Node10 -->
<g id="Node000010" class="node">
<title>Node10</title>
<g id="a_Node000010"><a xlink:href="classARDOUR_1_1AudioFileSource.html" target="_top" xlink:title=" ">
<polygon fill="white" stroke="#666666" points="975,-111 832,-111 832,-92 975,-92 975,-111"/>
<text text-anchor="middle" x="903.5" y="-99" font-family="Helvetica,sans-Serif" font-size="10.00">ARDOUR::AudioFileSource</text>
</a>
</g>
</g>
<!-- Node1&#45;&gt;Node10 -->
<g id="edge9_Node000001_Node000010" class="edge">
<title>Node1&#45;&gt;Node10</title>
<g id="a_edge9_Node000001_Node000010"><a xlink:title=" ">
<path fill="none" stroke="#63b8ff" d="M806.32,-90.32C814.74,-91.3 823.36,-92.3 831.83,-93.29"/>
<polygon fill="#63b8ff" stroke="#63b8ff" points="806.52,-86.82 796.18,-89.15 805.71,-93.78 806.52,-86.82"/>
</a>
</g>
</g>
<!-- Node17 -->
<g id="Node000017" class="node">
<title>Node17</title>
<g id="a_Node000017"><a xlink:href="classARDOUR_1_1SMFSource.html" target="_top" xlink:title=" ">
<polygon fill="white" stroke="#666666" points="963,-74 844,-74 844,-55 963,-55 963,-74"/>
<text text-anchor="middle" x="903.5" y="-62" font-family="Helvetica,sans-Serif" font-size="10.00">ARDOUR::SMFSource</text>
</a>
</g>
</g>
<!-- Node1&#45;&gt;Node17 -->
<g id="edge16_Node000001_Node000017" class="edge">
<title>Node1&#45;&gt;Node17</title>
<g id="a_edge16_Node000001_Node000017"><a xlink:title=" ">
<path fill="none" stroke="#63b8ff" d="M806.5,-75.07C818.93,-73.7 831.82,-72.28 843.96,-70.94"/>
<polygon fill="#63b8ff" stroke="#63b8ff" points="805.74,-71.63 796.18,-76.2 806.51,-78.59 805.74,-71.63"/>
</a>
</g>
</g>
<!-- Node2 -->
<g id="Node000002" class="node">
<title>Node2</title>
<g id="a_Node000002"><a xlink:href="classARDOUR_1_1Source.html" target="_top" xlink:title=" ">
<polygon fill="white" stroke="#666666" points="644,-92 546,-92 546,-73 644,-73 644,-92"/>
<text text-anchor="middle" x="595" y="-80" font-family="Helvetica,sans-Serif" font-size="10.00">ARDOUR::Source</text>
</a>
</g>
</g>
<!-- Node2&#45;&gt;Node1 -->
<g id="edge1_Node000001_Node000002" class="edge">
<title>Node2&#45;&gt;Node1</title>
<g id="a_edge1_Node000001_Node000002"><a xlink:title=" ">
<path fill="none" stroke="#63b8ff" d="M654.28,-82.5C662.73,-82.5 671.42,-82.5 679.84,-82.5"/>
<polygon fill="#63b8ff" stroke="#63b8ff" points="654.13,-79 644.13,-82.5 654.13,-86 654.13,-79"/>
</a>
</g>
</g>
<!-- Node3 -->
<g id="Node000003" class="node">
<title>Node3</title>
<g id="a_Node000003"><a xlink:href="classARDOUR_1_1SessionObject.html" target="_top" xlink:title=" ">
<polygon fill="white" stroke="#666666" points="510,-116 376,-116 376,-97 510,-97 510,-116"/>
<text text-anchor="middle" x="443" y="-104" font-family="Helvetica,sans-Serif" font-size="10.00">ARDOUR::SessionObject</text>
</a>
</g>
</g>
<!-- Node3&#45;&gt;Node2 -->
<g id="edge2_Node000002_Node000003" class="edge">
<title>Node3&#45;&gt;Node2</title>
<g id="a_edge2_Node000002_Node000003"><a xlink:title=" ">
<path fill="none" stroke="#63b8ff" d="M513.91,-95.32C524.61,-93.6 535.45,-91.87 545.56,-90.25"/>
<polygon fill="#63b8ff" stroke="#63b8ff" points="513.04,-91.91 503.71,-96.95 514.14,-98.82 513.04,-91.91"/>
</a>
</g>
</g>
<!-- Node4 -->
<g id="Node000004" class="node">
<title>Node4</title>
<g id="a_Node000004"><a xlink:href="classARDOUR_1_1SessionHandleRef.html" target="_top" xlink:title=" ">
<polygon fill="white" stroke="#666666" points="340,-134 186,-134 186,-115 340,-115 340,-134"/>
<text text-anchor="middle" x="263" y="-122" font-family="Helvetica,sans-Serif" font-size="10.00">ARDOUR::SessionHandleRef</text>
</a>
</g>
</g>
<!-- Node4&#45;&gt;Node3 -->
<g id="edge3_Node000003_Node000004" class="edge">
<title>Node4&#45;&gt;Node3</title>
<g id="a_edge3_Node000003_Node000004"><a xlink:title=" ">
<path fill="none" stroke="#63b8ff" d="M350.11,-115.79C358.74,-114.92 367.41,-114.04 375.8,-113.19"/>
<polygon fill="#63b8ff" stroke="#63b8ff" points="349.6,-112.33 340,-116.81 350.31,-119.29 349.6,-112.33"/>
</a>
</g>
</g>
<!-- Node5 -->
<g id="Node000005" class="node">
<title>Node5</title>
<g id="a_Node000005"><a xlink:href="classPBD_1_1ScopedConnectionList.html" target="_top" xlink:title=" ">
<polygon fill="white" stroke="#666666" points="150,-134 0,-134 0,-115 150,-115 150,-134"/>
<text text-anchor="middle" x="75" y="-122" font-family="Helvetica,sans-Serif" font-size="10.00">PBD::ScopedConnectionList</text>
</a>
</g>
</g>
<!-- Node5&#45;&gt;Node4 -->
<g id="edge4_Node000004_Node000005" class="edge">
<title>Node5&#45;&gt;Node4</title>
<g id="a_edge4_Node000004_Node000005"><a xlink:title=" ">
<path fill="none" stroke="#63b8ff" d="M160.32,-124.5C168.8,-124.5 177.38,-124.5 185.77,-124.5"/>
<polygon fill="#63b8ff" stroke="#63b8ff" points="160.05,-121 150.05,-124.5 160.05,-128 160.05,-121"/>
</a>
</g>
</g>
<!-- Node6 -->
<g id="Node000006" class="node">
<title>Node6</title>
<g id="a_Node000006"><a xlink:href="classPBD_1_1StatefulDestructible.html" target="_top" xlink:title=" ">
<polygon fill="white" stroke="#666666" points="333,-97 193,-97 193,-78 333,-78 333,-97"/>
<text text-anchor="middle" x="263" y="-85" font-family="Helvetica,sans-Serif" font-size="10.00">PBD::StatefulDestructible</text>
</a>
</g>
</g>
<!-- Node6&#45;&gt;Node3 -->
<g id="edge5_Node000003_Node000006" class="edge">
<title>Node6&#45;&gt;Node3</title>
<g id="a_edge5_Node000003_Node000006"><a xlink:title=" ">
<path fill="none" stroke="#63b8ff" d="M343.06,-95.94C354.03,-97.11 365.19,-98.3 375.89,-99.44"/>
<polygon fill="#63b8ff" stroke="#63b8ff" points="343.39,-92.45 333.07,-94.87 342.65,-99.41 343.39,-92.45"/>
</a>
</g>
</g>
<!-- Node7 -->
<g id="Node000007" class="node">
<title>Node7</title>
<g id="a_Node000007"><a xlink:href="classPBD_1_1Stateful.html" target="_top" xlink:title=" ">
<polygon fill="white" stroke="#666666" points="115.5,-97 34.5,-97 34.5,-78 115.5,-78 115.5,-97"/>
<text text-anchor="middle" x="75" y="-85" font-family="Helvetica,sans-Serif" font-size="10.00">PBD::Stateful</text>
</a>
</g>
</g>
<!-- Node7&#45;&gt;Node6 -->
<g id="edge6_Node000006_Node000007" class="edge">
<title>Node7&#45;&gt;Node6</title>
<g id="a_edge6_Node000006_Node000007"><a xlink:title=" ">
<path fill="none" stroke="#63b8ff" d="M125.98,-87.5C146.53,-87.5 170.67,-87.5 192.87,-87.5"/>
<polygon fill="#63b8ff" stroke="#63b8ff" points="125.9,-84 115.9,-87.5 125.9,-91 125.9,-84"/>
</a>
</g>
</g>
<!-- Node8 -->
<g id="Node000008" class="node">
<title>Node8</title>
<g id="a_Node000008"><a xlink:href="classPBD_1_1Destructible.html" target="_top" xlink:title=" ">
<polygon fill="white" stroke="#666666" points="126,-60 24,-60 24,-41 126,-41 126,-60"/>
<text text-anchor="middle" x="75" y="-48" font-family="Helvetica,sans-Serif" font-size="10.00">PBD::Destructible</text>
</a>
</g>
</g>
<!-- Node8&#45;&gt;Node6 -->
<g id="edge7_Node000006_Node000008" class="edge">
<title>Node8&#45;&gt;Node6</title>
<g id="a_edge7_Node000006_Node000008"><a xlink:title=" ">
<path fill="none" stroke="#63b8ff" d="M133.89,-62.02C159.6,-67.13 189.49,-73.08 213.94,-77.94"/>
<polygon fill="#63b8ff" stroke="#63b8ff" points="134.39,-58.55 123.9,-60.03 133.02,-65.41 134.39,-58.55"/>
</a>
</g>
</g>
<!-- Node9 -->
<g id="Node000009" class="node">
<title>Node9</title>
<g id="a_Node000009"><a xlink:title=" ">
<polygon fill="white" stroke="#666666" points="507,-79 379,-79 379,-38 507,-38 507,-79"/>
<text text-anchor="start" x="387" y="-67" font-family="Helvetica,sans-Serif" font-size="10.00">std::enable_shared</text>
<text text-anchor="start" x="387" y="-56" font-family="Helvetica,sans-Serif" font-size="10.00">_from_this&lt; ARDOUR::</text>
<text text-anchor="middle" x="443" y="-45" font-family="Helvetica,sans-Serif" font-size="10.00">Source &gt;</text>
</a>
</g>
</g>
<!-- Node9&#45;&gt;Node2 -->
<g id="edge8_Node000002_Node000009" class="edge">
<title>Node9&#45;&gt;Node2</title>
<g id="a_edge8_Node000002_Node000009"><a xlink:title=" ">
<path fill="none" stroke="#63b8ff" d="M517.28,-70.22C527.01,-71.78 536.78,-73.35 545.94,-74.81"/>
<polygon fill="#63b8ff" stroke="#63b8ff" points="517.61,-66.73 507.18,-68.61 516.5,-73.64 517.61,-66.73"/>
</a>
</g>
</g>
<!-- Node11 -->
<g id="Node000011" class="node">
<title>Node11</title>
<g id="a_Node000011"><a xlink:href="classARDOUR_1_1CoreAudioSource.html" target="_top" xlink:title=" ">
<polygon fill="white" stroke="#666666" points="1163.5,-204 1014.5,-204 1014.5,-185 1163.5,-185 1163.5,-204"/>
<text text-anchor="middle" x="1089" y="-192" font-family="Helvetica,sans-Serif" font-size="10.00">ARDOUR::CoreAudioSource</text>
</a>
</g>
</g>
<!-- Node10&#45;&gt;Node11 -->
<g id="edge10_Node000010_Node000011" class="edge">
<title>Node10&#45;&gt;Node11</title>
<g id="a_edge10_Node000010_Node000011"><a xlink:title=" ">
<path fill="none" stroke="#63b8ff" d="M922.9,-117.83C943.13,-134.93 977.24,-161.36 1011,-176.5 1018.52,-179.87 1026.74,-182.65 1034.92,-184.93"/>
<polygon fill="#63b8ff" stroke="#63b8ff" points="924.99,-115.01 915.13,-111.14 920.42,-120.32 924.99,-115.01"/>
</a>
</g>
</g>
<!-- Node12 -->
<g id="Node000012" class="node">
<title>Node12</title>
<g id="a_Node000012"><a xlink:href="classARDOUR_1_1FFMPEGFileSource.html" target="_top" xlink:title=" ">
<polygon fill="white" stroke="#666666" points="1167,-167 1011,-167 1011,-148 1167,-148 1167,-167"/>
<text text-anchor="middle" x="1089" y="-155" font-family="Helvetica,sans-Serif" font-size="10.00">ARDOUR::FFMPEGFileSource</text>
</a>
</g>
</g>
<!-- Node10&#45;&gt;Node12 -->
<g id="edge11_Node000010_Node000012" class="edge">
<title>Node10&#45;&gt;Node12</title>
<g id="a_edge11_Node000010_Node000012"><a xlink:title=" ">
<path fill="none" stroke="#63b8ff" d="M938.13,-114.6C958.93,-122.43 986.29,-132.23 1011,-139.5 1021.4,-142.56 1032.72,-145.45 1043.39,-147.98"/>
<polygon fill="#63b8ff" stroke="#63b8ff" points="939.37,-111.33 928.78,-111.05 936.88,-117.87 939.37,-111.33"/>
</a>
</g>
</g>
<!-- Node13 -->
<g id="Node000013" class="node">
<title>Node13</title>
<g id="a_Node000013"><a xlink:href="classARDOUR_1_1Mp3FileSource.html" target="_top" xlink:title=" ">
<polygon fill="white" stroke="#666666" points="1157.5,-130 1020.5,-130 1020.5,-111 1157.5,-111 1157.5,-130"/>
<text text-anchor="middle" x="1089" y="-118" font-family="Helvetica,sans-Serif" font-size="10.00">ARDOUR::Mp3FileSource</text>
</a>
</g>
</g>
<!-- Node10&#45;&gt;Node13 -->
<g id="edge12_Node000010_Node000013" class="edge">
<title>Node10&#45;&gt;Node13</title>
<g id="a_edge12_Node000010_Node000013"><a xlink:title=" ">
<path fill="none" stroke="#63b8ff" d="M985.37,-109.87C997.06,-111.08 1008.98,-112.32 1020.37,-113.5"/>
<polygon fill="#63b8ff" stroke="#63b8ff" points="985.49,-106.37 975.18,-108.82 984.77,-113.33 985.49,-106.37"/>
</a>
</g>
</g>
<!-- Node14 -->
<g id="Node000014" class="node">
<title>Node14</title>
<g id="a_Node000014"><a xlink:href="classARDOUR_1_1SilentFileSource.html" target="_top" xlink:title=" ">
<polygon fill="white" stroke="#666666" points="1160.5,-93 1017.5,-93 1017.5,-74 1160.5,-74 1160.5,-93"/>
<text text-anchor="middle" x="1089" y="-81" font-family="Helvetica,sans-Serif" font-size="10.00">ARDOUR::SilentFileSource</text>
</a>
</g>
</g>
<!-- Node10&#45;&gt;Node14 -->
<g id="edge13_Node000010_Node000014" class="edge">
<title>Node10&#45;&gt;Node14</title>
<g id="a_edge13_Node000010_Node000014"><a xlink:title=" ">
<path fill="none" stroke="#63b8ff" d="M985.33,-93.57C996,-92.52 1006.87,-91.46 1017.35,-90.43"/>
<polygon fill="#63b8ff" stroke="#63b8ff" points="984.79,-90.11 975.18,-94.57 985.48,-97.07 984.79,-90.11"/>
</a>
</g>
</g>
<!-- Node15 -->
<g id="Node000015" class="node">
<title>Node15</title>
<g id="a_Node000015"><a xlink:href="classARDOUR_1_1SndFileSource.html" target="_top" xlink:title=" ">
<polygon fill="white" stroke="#666666" points="1156,-56 1022,-56 1022,-37 1156,-37 1156,-56"/>
<text text-anchor="middle" x="1089" y="-44" font-family="Helvetica,sans-Serif" font-size="10.00">ARDOUR::SndFileSource</text>
</a>
</g>
</g>
<!-- Node10&#45;&gt;Node15 -->
<g id="edge14_Node000010_Node000015" class="edge">
<title>Node10&#45;&gt;Node15</title>
<g id="a_edge14_Node000010_Node000015"><a xlink:title=" ">
<path fill="none" stroke="#63b8ff" d="M958.66,-89.07C964.23,-87.37 969.77,-85.52 975,-83.5 991.88,-76.99 994.05,-70.83 1011,-64.5 1019.74,-61.23 1029.28,-58.43 1038.56,-56.08"/>
<polygon fill="#63b8ff" stroke="#63b8ff" points="957.28,-85.82 948.63,-91.94 959.2,-92.55 957.28,-85.82"/>
</a>
</g>
</g>
<!-- Node16 -->
<g id="Node000016" class="node">
<title>Node16</title>
<g id="a_Node000016"><a xlink:href="classARDOUR_1_1SrcFileSource.html" target="_top" xlink:title=" ">
<polygon fill="white" stroke="#666666" points="1154.5,-19 1023.5,-19 1023.5,0 1154.5,0 1154.5,-19"/>
<text text-anchor="middle" x="1089" y="-7" font-family="Helvetica,sans-Serif" font-size="10.00">ARDOUR::SrcFileSource</text>
</a>
</g>
</g>
<!-- Node10&#45;&gt;Node16 -->
<g id="edge15_Node000010_Node000016" class="edge">
<title>Node10&#45;&gt;Node16</title>
<g id="a_edge15_Node000010_Node000016"><a xlink:title=" ">
<path fill="none" stroke="#63b8ff" d="M968.51,-87.6C970.76,-86.35 972.94,-84.99 975,-83.5 999,-66.19 986.83,-44.56 1011,-27.5 1015.82,-24.1 1021.2,-21.33 1026.8,-19.08"/>
<polygon fill="#63b8ff" stroke="#63b8ff" points="967,-84.44 959.47,-91.9 970.01,-90.77 967,-84.44"/>
</a>
</g>
</g>
</g>
</svg>
