<?xml version="1.0" encoding="UTF-8" standalone="no"?>
<!DOCTYPE svg PUBLIC "-//W3C//DTD SVG 1.1//EN"
 "http://www.w3.org/Graphics/SVG/1.1/DTD/svg11.dtd">
<!-- Generated by graphviz version 2.43.0 (0)
 -->
<!-- Title: LineMerger Pages: 1 -->
<svg width="581pt" height="137pt"
 viewBox="0.00 0.00 581.00 137.00" xmlns="http://www.w3.org/2000/svg" xmlns:xlink="http://www.w3.org/1999/xlink">
<g id="graph0" class="graph" transform="scale(1 1) rotate(0) translate(4 133)">
<title>LineMerger</title>
<!-- Node1 -->
<g id="Node000001" class="node">
<title>Node1</title>
<g id="a_Node000001"><a xlink:title=" ">
<polygon fill="#999999" stroke="#666666" points="298.5,-129 227.5,-129 227.5,-110 298.5,-110 298.5,-129"/>
<text text-anchor="middle" x="263" y="-117" font-family="Helvetica,sans-Serif" font-size="10.00">LineMerger</text>
</a>
</g>
</g>
<!-- Node2 -->
<g id="Node000002" class="node">
<title>Node2</title>
<g id="a_Node000002"><a xlink:href="classAudioRegionView.html" target="_top" xlink:title=" ">
<polygon fill="white" stroke="#666666" points="102,-74 0,-74 0,-55 102,-55 102,-74"/>
<text text-anchor="middle" x="51" y="-62" font-family="Helvetica,sans-Serif" font-size="10.00">AudioRegionView</text>
</a>
</g>
</g>
<!-- Node1&#45;&gt;Node2 -->
<g id="edge1_Node000001_Node000002" class="edge">
<title>Node1&#45;&gt;Node2</title>
<g id="a_edge1_Node000001_Node000002"><a xlink:title=" ">
<path fill="none" stroke="#63b8ff" d="M219,-107.5C179.31,-97.58 121.72,-83.18 85.33,-74.08"/>
<polygon fill="#63b8ff" stroke="#63b8ff" points="218.39,-110.95 228.94,-109.98 220.09,-104.16 218.39,-110.95"/>
</a>
</g>
</g>
<!-- Node3 -->
<g id="Node000003" class="node">
<title>Node3</title>
<g id="a_Node000003"><a xlink:href="classAutomationRegionView.html" target="_top" xlink:title=" ">
<polygon fill="white" stroke="#666666" points="251.5,-74 120.5,-74 120.5,-55 251.5,-55 251.5,-74"/>
<text text-anchor="middle" x="186" y="-62" font-family="Helvetica,sans-Serif" font-size="10.00">AutomationRegionView</text>
</a>
</g>
</g>
<!-- Node1&#45;&gt;Node3 -->
<g id="edge2_Node000001_Node000003" class="edge">
<title>Node1&#45;&gt;Node3</title>
<g id="a_edge2_Node000001_Node000003"><a xlink:title=" ">
<path fill="none" stroke="#63b8ff" d="M242.15,-104.15C228.24,-94.57 210.39,-82.29 198.6,-74.17"/>
<polygon fill="#63b8ff" stroke="#63b8ff" points="240.41,-107.2 250.63,-109.98 244.38,-101.43 240.41,-107.2"/>
</a>
</g>
</g>
<!-- Node4 -->
<g id="Node000004" class="node">
<title>Node4</title>
<g id="a_Node000004"><a xlink:href="classAutomationTimeAxisView.html" target="_top" xlink:title=" ">
<polygon fill="white" stroke="#666666" points="412.5,-74 269.5,-74 269.5,-55 412.5,-55 412.5,-74"/>
<text text-anchor="middle" x="341" y="-62" font-family="Helvetica,sans-Serif" font-size="10.00">AutomationTimeAxisView</text>
</a>
</g>
</g>
<!-- Node1&#45;&gt;Node4 -->
<g id="edge3_Node000001_Node000004" class="edge">
<title>Node1&#45;&gt;Node4</title>
<g id="a_edge3_Node000001_Node000004"><a xlink:title=" ">
<path fill="none" stroke="#63b8ff" d="M284.12,-104.15C298.21,-94.57 316.29,-82.29 328.24,-74.17"/>
<polygon fill="#63b8ff" stroke="#63b8ff" points="281.84,-101.47 275.53,-109.98 285.77,-107.26 281.84,-101.47"/>
</a>
</g>
</g>
<!-- Node5 -->
<g id="Node000005" class="node">
<title>Node5</title>
<g id="a_Node000005"><a xlink:href="classMidiView.html" target="_top" xlink:title=" ">
<polygon fill="white" stroke="#666666" points="493,-74 431,-74 431,-55 493,-55 493,-74"/>
<text text-anchor="middle" x="462" y="-62" font-family="Helvetica,sans-Serif" font-size="10.00">MidiView</text>
</a>
</g>
</g>
<!-- Node1&#45;&gt;Node5 -->
<g id="edge4_Node000001_Node000005" class="edge">
<title>Node1&#45;&gt;Node5</title>
<g id="a_edge4_Node000001_Node000005"><a xlink:title=" ">
<path fill="none" stroke="#63b8ff" d="M305.11,-107.29C342.7,-97.27 396.91,-82.84 430.76,-73.82"/>
<polygon fill="#63b8ff" stroke="#63b8ff" points="303.74,-104.03 294.97,-109.98 305.54,-110.79 303.74,-104.03"/>
</a>
</g>
</g>
<!-- Node6 -->
<g id="Node000006" class="node">
<title>Node6</title>
<g id="a_Node000006"><a xlink:href="classMidiRegionView.html" target="_top" xlink:title=" ">
<polygon fill="white" stroke="#666666" points="450.5,-19 355.5,-19 355.5,0 450.5,0 450.5,-19"/>
<text text-anchor="middle" x="403" y="-7" font-family="Helvetica,sans-Serif" font-size="10.00">MidiRegionView</text>
</a>
</g>
</g>
<!-- Node5&#45;&gt;Node6 -->
<g id="edge5_Node000005_Node000006" class="edge">
<title>Node5&#45;&gt;Node6</title>
<g id="a_edge5_Node000005_Node000006"><a xlink:title=" ">
<path fill="none" stroke="#63b8ff" d="M444.8,-48.04C434.33,-38.64 421.35,-26.98 412.65,-19.17"/>
<polygon fill="#63b8ff" stroke="#63b8ff" points="442.74,-50.91 452.52,-54.98 447.42,-45.7 442.74,-50.91"/>
</a>
</g>
</g>
<!-- Node7 -->
<g id="Node000007" class="node">
<title>Node7</title>
<g id="a_Node000007"><a xlink:href="classPianorollMidiView.html" target="_top" xlink:title=" ">
<polygon fill="white" stroke="#666666" points="573,-19 469,-19 469,0 573,0 573,-19"/>
<text text-anchor="middle" x="521" y="-7" font-family="Helvetica,sans-Serif" font-size="10.00">PianorollMidiView</text>
</a>
</g>
</g>
<!-- Node5&#45;&gt;Node7 -->
<g id="edge6_Node000005_Node000007" class="edge">
<title>Node5&#45;&gt;Node7</title>
<g id="a_edge6_Node000005_Node000007"><a xlink:title=" ">
<path fill="none" stroke="#63b8ff" d="M479.2,-48.04C489.67,-38.64 502.65,-26.98 511.35,-19.17"/>
<polygon fill="#63b8ff" stroke="#63b8ff" points="476.58,-45.7 471.48,-54.98 481.26,-50.91 476.58,-45.7"/>
</a>
</g>
</g>
</g>
</svg>
