<?xml version="1.0" encoding="UTF-8" standalone="no"?>
<!DOCTYPE svg PUBLIC "-//W3C//DTD SVG 1.1//EN"
 "http://www.w3.org/Graphics/SVG/1.1/DTD/svg11.dtd">
<!-- Generated by graphviz version 2.43.0 (0)
 -->
<!-- Title: Gtk::ComboBoxEntry Pages: 1 -->
<svg width="200pt" height="412pt"
 viewBox="0.00 0.00 199.50 412.00" xmlns="http://www.w3.org/2000/svg" xmlns:xlink="http://www.w3.org/1999/xlink">
<g id="graph0" class="graph" transform="scale(1 1) rotate(0) translate(4 408)">
<title>Gtk::ComboBoxEntry</title>
<!-- Node1 -->
<g id="Node000001" class="node">
<title>Node1</title>
<g id="a_Node000001"><a xlink:title=" ">
<polygon fill="#999999" stroke="#666666" points="155,-74 36,-74 36,-55 155,-55 155,-74"/>
<text text-anchor="middle" x="95.5" y="-62" font-family="Helvetica,sans-Serif" font-size="10.00">Gtk::ComboBoxEntry</text>
</a>
</g>
</g>
<!-- Node10 -->
<g id="Node000010" class="node">
<title>Node10</title>
<g id="a_Node000010"><a xlink:href="classGtk_1_1ComboBoxEntryText.html" target="_top" xlink:title=" ">
<polygon fill="white" stroke="#666666" points="165,-19 26,-19 26,0 165,0 165,-19"/>
<text text-anchor="middle" x="95.5" y="-7" font-family="Helvetica,sans-Serif" font-size="10.00">Gtk::ComboBoxEntryText</text>
</a>
</g>
</g>
<!-- Node1&#45;&gt;Node10 -->
<g id="edge9_Node000001_Node000010" class="edge">
<title>Node1&#45;&gt;Node10</title>
<g id="a_edge9_Node000001_Node000010"><a xlink:title=" ">
<path fill="none" stroke="#63b8ff" d="M95.5,-44.66C95.5,-35.93 95.5,-25.99 95.5,-19.09"/>
<polygon fill="#63b8ff" stroke="#63b8ff" points="92,-44.75 95.5,-54.75 99,-44.75 92,-44.75"/>
</a>
</g>
</g>
<!-- Node2 -->
<g id="Node000002" class="node">
<title>Node2</title>
<g id="a_Node000002"><a xlink:href="classGtk_1_1ComboBox.html" target="_top" xlink:title=" ">
<polygon fill="white" stroke="#666666" points="142,-129 49,-129 49,-110 142,-110 142,-129"/>
<text text-anchor="middle" x="95.5" y="-117" font-family="Helvetica,sans-Serif" font-size="10.00">Gtk::ComboBox</text>
</a>
</g>
</g>
<!-- Node2&#45;&gt;Node1 -->
<g id="edge1_Node000001_Node000002" class="edge">
<title>Node2&#45;&gt;Node1</title>
<g id="a_edge1_Node000001_Node000002"><a xlink:title=" ">
<path fill="none" stroke="#63b8ff" d="M95.5,-99.66C95.5,-90.93 95.5,-80.99 95.5,-74.09"/>
<polygon fill="#63b8ff" stroke="#63b8ff" points="92,-99.75 95.5,-109.75 99,-99.75 92,-99.75"/>
</a>
</g>
</g>
<!-- Node3 -->
<g id="Node000003" class="node">
<title>Node3</title>
<g id="a_Node000003"><a xlink:href="classGtk_1_1Bin.html" target="_top" xlink:title=" ">
<polygon fill="white" stroke="#666666" points="77.5,-184 21.5,-184 21.5,-165 77.5,-165 77.5,-184"/>
<text text-anchor="middle" x="49.5" y="-172" font-family="Helvetica,sans-Serif" font-size="10.00">Gtk::Bin</text>
</a>
</g>
</g>
<!-- Node3&#45;&gt;Node2 -->
<g id="edge2_Node000002_Node000003" class="edge">
<title>Node3&#45;&gt;Node2</title>
<g id="a_edge2_Node000002_Node000003"><a xlink:title=" ">
<path fill="none" stroke="#63b8ff" d="M63.86,-156.96C71.87,-147.72 81.53,-136.6 88.05,-129.09"/>
<polygon fill="#63b8ff" stroke="#63b8ff" points="61.01,-154.9 57.1,-164.75 66.29,-159.49 61.01,-154.9"/>
</a>
</g>
</g>
<!-- Node4 -->
<g id="Node000004" class="node">
<title>Node4</title>
<g id="a_Node000004"><a xlink:href="classGtk_1_1Container.html" target="_top" xlink:title=" ">
<polygon fill="white" stroke="#666666" points="87,-239 0,-239 0,-220 87,-220 87,-239"/>
<text text-anchor="middle" x="43.5" y="-227" font-family="Helvetica,sans-Serif" font-size="10.00">Gtk::Container</text>
</a>
</g>
</g>
<!-- Node4&#45;&gt;Node3 -->
<g id="edge3_Node000003_Node000004" class="edge">
<title>Node4&#45;&gt;Node3</title>
<g id="a_edge3_Node000003_Node000004"><a xlink:title=" ">
<path fill="none" stroke="#63b8ff" d="M45.63,-209.66C46.62,-200.93 47.75,-190.99 48.53,-184.09"/>
<polygon fill="#63b8ff" stroke="#63b8ff" points="42.14,-209.42 44.49,-219.75 49.09,-210.21 42.14,-209.42"/>
</a>
</g>
</g>
<!-- Node5 -->
<g id="Node000005" class="node">
<title>Node5</title>
<g id="a_Node000005"><a xlink:href="classGtk_1_1Widget.html" target="_top" xlink:title=" ">
<polygon fill="white" stroke="#666666" points="80.5,-294 6.5,-294 6.5,-275 80.5,-275 80.5,-294"/>
<text text-anchor="middle" x="43.5" y="-282" font-family="Helvetica,sans-Serif" font-size="10.00">Gtk::Widget</text>
</a>
</g>
</g>
<!-- Node5&#45;&gt;Node4 -->
<g id="edge4_Node000004_Node000005" class="edge">
<title>Node5&#45;&gt;Node4</title>
<g id="a_edge4_Node000004_Node000005"><a xlink:title=" ">
<path fill="none" stroke="#63b8ff" d="M43.5,-264.66C43.5,-255.93 43.5,-245.99 43.5,-239.09"/>
<polygon fill="#63b8ff" stroke="#63b8ff" points="40,-264.75 43.5,-274.75 47,-264.75 40,-264.75"/>
</a>
</g>
</g>
<!-- Node6 -->
<g id="Node000006" class="node">
<title>Node6</title>
<g id="a_Node000006"><a xlink:href="classGtk_1_1Object.html" target="_top" xlink:title=" ">
<polygon fill="white" stroke="#666666" points="79,-349 8,-349 8,-330 79,-330 79,-349"/>
<text text-anchor="middle" x="43.5" y="-337" font-family="Helvetica,sans-Serif" font-size="10.00">Gtk::Object</text>
</a>
</g>
</g>
<!-- Node6&#45;&gt;Node5 -->
<g id="edge5_Node000005_Node000006" class="edge">
<title>Node6&#45;&gt;Node5</title>
<g id="a_edge5_Node000005_Node000006"><a xlink:title=" ">
<path fill="none" stroke="#63b8ff" d="M43.5,-319.66C43.5,-310.93 43.5,-300.99 43.5,-294.09"/>
<polygon fill="#63b8ff" stroke="#63b8ff" points="40,-319.75 43.5,-329.75 47,-319.75 40,-319.75"/>
</a>
</g>
</g>
<!-- Node7 -->
<g id="Node000007" class="node">
<title>Node7</title>
<g id="a_Node000007"><a xlink:title=" ">
<polygon fill="white" stroke="#666666" points="80.5,-404 6.5,-404 6.5,-385 80.5,-385 80.5,-404"/>
<text text-anchor="middle" x="43.5" y="-392" font-family="Helvetica,sans-Serif" font-size="10.00">Glib::Object</text>
</a>
</g>
</g>
<!-- Node7&#45;&gt;Node6 -->
<g id="edge6_Node000006_Node000007" class="edge">
<title>Node7&#45;&gt;Node6</title>
<g id="a_edge6_Node000006_Node000007"><a xlink:title=" ">
<path fill="none" stroke="#63b8ff" d="M43.5,-374.66C43.5,-365.93 43.5,-355.99 43.5,-349.09"/>
<polygon fill="#63b8ff" stroke="#63b8ff" points="40,-374.75 43.5,-384.75 47,-374.75 40,-374.75"/>
</a>
</g>
</g>
<!-- Node8 -->
<g id="Node000008" class="node">
<title>Node8</title>
<g id="a_Node000008"><a xlink:href="classGtk_1_1CellLayout.html" target="_top" xlink:title=" ">
<polygon fill="white" stroke="#666666" points="190.5,-184 98.5,-184 98.5,-165 190.5,-165 190.5,-184"/>
<text text-anchor="middle" x="144.5" y="-172" font-family="Helvetica,sans-Serif" font-size="10.00">Gtk::CellLayout</text>
</a>
</g>
</g>
<!-- Node8&#45;&gt;Node2 -->
<g id="edge7_Node000002_Node000008" class="edge">
<title>Node8&#45;&gt;Node2</title>
<g id="a_edge7_Node000002_Node000008"><a xlink:title=" ">
<path fill="none" stroke="#63b8ff" d="M129.47,-157.24C120.88,-147.95 110.46,-136.68 103.44,-129.09"/>
<polygon fill="#63b8ff" stroke="#63b8ff" points="127.05,-159.78 136.41,-164.75 132.19,-155.03 127.05,-159.78"/>
</a>
</g>
</g>
<!-- Node9 -->
<g id="Node000009" class="node">
<title>Node9</title>
<g id="a_Node000009"><a xlink:title=" ">
<polygon fill="white" stroke="#666666" points="191.5,-239 105.5,-239 105.5,-220 191.5,-220 191.5,-239"/>
<text text-anchor="middle" x="148.5" y="-227" font-family="Helvetica,sans-Serif" font-size="10.00">Glib::Interface</text>
</a>
</g>
</g>
<!-- Node9&#45;&gt;Node8 -->
<g id="edge8_Node000008_Node000009" class="edge">
<title>Node9&#45;&gt;Node8</title>
<g id="a_edge8_Node000008_Node000009"><a xlink:title=" ">
<path fill="none" stroke="#63b8ff" d="M147.08,-209.66C146.42,-200.93 145.67,-190.99 145.15,-184.09"/>
<polygon fill="#63b8ff" stroke="#63b8ff" points="143.6,-210.04 147.84,-219.75 150.58,-209.51 143.6,-210.04"/>
</a>
</g>
</g>
</g>
</svg>
