<?xml version="1.0" encoding="UTF-8" standalone="no"?>
<!DOCTYPE svg PUBLIC "-//W3C//DTD SVG 1.1//EN"
 "http://www.w3.org/Graphics/SVG/1.1/DTD/svg11.dtd">
<!-- Generated by graphviz version 2.43.0 (0)
 -->
<!-- Title: ARDOUR::Pannable Pages: 1 -->
<svg width="862pt" height="156pt"
 viewBox="0.00 0.00 862.00 156.00" xmlns="http://www.w3.org/2000/svg" xmlns:xlink="http://www.w3.org/1999/xlink">
<g id="graph0" class="graph" transform="scale(1 1) rotate(0) translate(4 152)">
<title>ARDOUR::Pannable</title>
<!-- Node1 -->
<g id="Node000001" class="node">
<title>Node1</title>
<g id="a_Node000001"><a xlink:title=" ">
<polygon fill="#999999" stroke="#666666" points="854,-74 744,-74 744,-55 854,-55 854,-74"/>
<text text-anchor="middle" x="799" y="-62" font-family="Helvetica,sans-Serif" font-size="10.00">ARDOUR::Pannable</text>
</a>
</g>
</g>
<!-- Node2 -->
<g id="Node000002" class="node">
<title>Node2</title>
<g id="a_Node000002"><a xlink:href="classPBD_1_1Stateful.html" target="_top" xlink:title=" ">
<polygon fill="white" stroke="#666666" points="671.5,-111 590.5,-111 590.5,-92 671.5,-92 671.5,-111"/>
<text text-anchor="middle" x="631" y="-99" font-family="Helvetica,sans-Serif" font-size="10.00">PBD::Stateful</text>
</a>
</g>
</g>
<!-- Node2&#45;&gt;Node1 -->
<g id="edge1_Node000001_Node000002" class="edge">
<title>Node2&#45;&gt;Node1</title>
<g id="a_edge1_Node000001_Node000002"><a xlink:title=" ">
<path fill="none" stroke="#63b8ff" d="M681.54,-90.46C705.04,-85.22 732.83,-79.03 755.37,-74"/>
<polygon fill="#63b8ff" stroke="#63b8ff" points="680.76,-87.05 671.76,-92.64 682.28,-93.88 680.76,-87.05"/>
</a>
</g>
</g>
<!-- Node3 -->
<g id="Node000003" class="node">
<title>Node3</title>
<g id="a_Node000003"><a xlink:href="classARDOUR_1_1Automatable.html" target="_top" xlink:title=" ">
<polygon fill="white" stroke="#666666" points="695,-74 567,-74 567,-55 695,-55 695,-74"/>
<text text-anchor="middle" x="631" y="-62" font-family="Helvetica,sans-Serif" font-size="10.00">ARDOUR::Automatable</text>
</a>
</g>
</g>
<!-- Node3&#45;&gt;Node1 -->
<g id="edge2_Node000001_Node000003" class="edge">
<title>Node3&#45;&gt;Node1</title>
<g id="a_edge2_Node000001_Node000003"><a xlink:title=" ">
<path fill="none" stroke="#63b8ff" d="M705.49,-64.5C718.4,-64.5 731.62,-64.5 743.88,-64.5"/>
<polygon fill="#63b8ff" stroke="#63b8ff" points="705.23,-61 695.23,-64.5 705.23,-68 705.23,-61"/>
</a>
</g>
</g>
<!-- Node4 -->
<g id="Node000004" class="node">
<title>Node4</title>
<g id="a_Node000004"><a xlink:href="classEvoral_1_1ControlSet.html" target="_top" xlink:title=" ">
<polygon fill="white" stroke="#666666" points="484.5,-130 380.5,-130 380.5,-111 484.5,-111 484.5,-130"/>
<text text-anchor="middle" x="432.5" y="-118" font-family="Helvetica,sans-Serif" font-size="10.00">Evoral::ControlSet</text>
</a>
</g>
</g>
<!-- Node4&#45;&gt;Node3 -->
<g id="edge3_Node000003_Node000004" class="edge">
<title>Node4&#45;&gt;Node3</title>
<g id="a_edge3_Node000003_Node000004"><a xlink:title=" ">
<path fill="none" stroke="#63b8ff" d="M494.45,-109.79C502.48,-107.72 510.51,-105.31 518,-102.5 535.14,-96.08 536.93,-89.12 554,-82.5 562.47,-79.22 571.71,-76.42 580.74,-74.08"/>
<polygon fill="#63b8ff" stroke="#63b8ff" points="493.59,-106.4 484.69,-112.15 495.24,-113.2 493.59,-106.4"/>
</a>
</g>
</g>
<!-- Node5 -->
<g id="Node000005" class="node">
<title>Node5</title>
<g id="a_Node000005"><a xlink:title=" ">
<polygon fill="white" stroke="#666666" points="280.5,-148 168.5,-148 168.5,-129 280.5,-129 280.5,-148"/>
<text text-anchor="middle" x="224.5" y="-136" font-family="Helvetica,sans-Serif" font-size="10.00">boost::noncopyable</text>
</a>
</g>
</g>
<!-- Node5&#45;&gt;Node4 -->
<g id="edge4_Node000004_Node000005" class="edge">
<title>Node5&#45;&gt;Node4</title>
<g id="a_edge4_Node000004_Node000005"><a xlink:title=" ">
<path fill="none" stroke="#63b8ff" d="M290.74,-132.8C319.7,-130.27 353.29,-127.33 380.39,-124.97"/>
<polygon fill="#63b8ff" stroke="#63b8ff" points="290.36,-129.32 280.7,-133.68 290.97,-136.29 290.36,-129.32"/>
</a>
</g>
</g>
<!-- Node6 -->
<g id="Node000006" class="node">
<title>Node6</title>
<g id="a_Node000006"><a xlink:href="structTemporal_1_1TimeDomainSwapper.html" target="_top" xlink:title=" ">
<polygon fill="white" stroke="#666666" points="311,-111 138,-111 138,-92 311,-92 311,-111"/>
<text text-anchor="middle" x="224.5" y="-99" font-family="Helvetica,sans-Serif" font-size="10.00">Temporal::TimeDomainSwapper</text>
</a>
</g>
</g>
<!-- Node6&#45;&gt;Node4 -->
<g id="edge5_Node000004_Node000006" class="edge">
<title>Node6&#45;&gt;Node4</title>
<g id="a_edge5_Node000004_Node000006"><a xlink:title=" ">
<path fill="none" stroke="#63b8ff" d="M321.07,-110.31C341.52,-112.2 362.36,-114.12 380.35,-115.78"/>
<polygon fill="#63b8ff" stroke="#63b8ff" points="321.35,-106.83 311.07,-109.39 320.71,-113.8 321.35,-106.83"/>
</a>
</g>
</g>
<!-- Node7 -->
<g id="Node000007" class="node">
<title>Node7</title>
<g id="a_Node000007"><a xlink:href="classPBD_1_1Destructible.html" target="_top" xlink:title=" ">
<polygon fill="white" stroke="#666666" points="102,-111 0,-111 0,-92 102,-92 102,-111"/>
<text text-anchor="middle" x="51" y="-99" font-family="Helvetica,sans-Serif" font-size="10.00">PBD::Destructible</text>
</a>
</g>
</g>
<!-- Node7&#45;&gt;Node6 -->
<g id="edge6_Node000006_Node000007" class="edge">
<title>Node7&#45;&gt;Node6</title>
<g id="a_edge6_Node000006_Node000007"><a xlink:title=" ">
<path fill="none" stroke="#63b8ff" d="M112.07,-101.5C120.43,-101.5 129.16,-101.5 137.88,-101.5"/>
<polygon fill="#63b8ff" stroke="#63b8ff" points="112.07,-98 102.07,-101.5 112.07,-105 112.07,-98"/>
</a>
</g>
</g>
<!-- Node8 -->
<g id="Node000008" class="node">
<title>Node8</title>
<g id="a_Node000008"><a xlink:href="classARDOUR_1_1Slavable.html" target="_top" xlink:title=" ">
<polygon fill="white" stroke="#666666" points="486,-93 379,-93 379,-74 486,-74 486,-93"/>
<text text-anchor="middle" x="432.5" y="-81" font-family="Helvetica,sans-Serif" font-size="10.00">ARDOUR::Slavable</text>
</a>
</g>
</g>
<!-- Node8&#45;&gt;Node3 -->
<g id="edge7_Node000003_Node000008" class="edge">
<title>Node8&#45;&gt;Node3</title>
<g id="a_edge7_Node000003_Node000008"><a xlink:title=" ">
<path fill="none" stroke="#63b8ff" d="M496.28,-77.43C518.78,-75.25 544.15,-72.8 566.7,-70.62"/>
<polygon fill="#63b8ff" stroke="#63b8ff" points="495.78,-73.96 486.16,-78.41 496.45,-80.93 495.78,-73.96"/>
</a>
</g>
</g>
<!-- Node9 -->
<g id="Node000009" class="node">
<title>Node9</title>
<g id="a_Node000009"><a xlink:href="classTemporal_1_1TimeDomainProvider.html" target="_top" xlink:title=" ">
<polygon fill="white" stroke="#666666" points="518,-56 347,-56 347,-37 518,-37 518,-56"/>
<text text-anchor="middle" x="432.5" y="-44" font-family="Helvetica,sans-Serif" font-size="10.00">Temporal::TimeDomainProvider</text>
</a>
</g>
</g>
<!-- Node9&#45;&gt;Node3 -->
<g id="edge8_Node000003_Node000009" class="edge">
<title>Node9&#45;&gt;Node3</title>
<g id="a_edge8_Node000003_Node000009"><a xlink:title=" ">
<path fill="none" stroke="#63b8ff" d="M528.24,-55.18C541.34,-56.38 554.52,-57.59 566.86,-58.72"/>
<polygon fill="#63b8ff" stroke="#63b8ff" points="528.54,-51.69 518.26,-54.26 527.9,-58.66 528.54,-51.69"/>
</a>
</g>
</g>
<!-- Node10 -->
<g id="Node000010" class="node">
<title>Node10</title>
<g id="a_Node000010"><a xlink:href="classARDOUR_1_1SessionHandleRef.html" target="_top" xlink:title=" ">
<polygon fill="white" stroke="#666666" points="708,-28 554,-28 554,-9 708,-9 708,-28"/>
<text text-anchor="middle" x="631" y="-16" font-family="Helvetica,sans-Serif" font-size="10.00">ARDOUR::SessionHandleRef</text>
</a>
</g>
</g>
<!-- Node10&#45;&gt;Node1 -->
<g id="edge9_Node000001_Node000010" class="edge">
<title>Node10&#45;&gt;Node1</title>
<g id="a_edge9_Node000001_Node000010"><a xlink:title=" ">
<path fill="none" stroke="#63b8ff" d="M676.14,-30.73C703.56,-38.33 738.29,-47.95 763.65,-54.98"/>
<polygon fill="#63b8ff" stroke="#63b8ff" points="676.97,-27.33 666.4,-28.03 675.1,-34.07 676.97,-27.33"/>
</a>
</g>
</g>
<!-- Node11 -->
<g id="Node000011" class="node">
<title>Node11</title>
<g id="a_Node000011"><a xlink:href="classPBD_1_1ScopedConnectionList.html" target="_top" xlink:title=" ">
<polygon fill="white" stroke="#666666" points="507.5,-19 357.5,-19 357.5,0 507.5,0 507.5,-19"/>
<text text-anchor="middle" x="432.5" y="-7" font-family="Helvetica,sans-Serif" font-size="10.00">PBD::ScopedConnectionList</text>
</a>
</g>
</g>
<!-- Node11&#45;&gt;Node10 -->
<g id="edge10_Node000010_Node000011" class="edge">
<title>Node11&#45;&gt;Node10</title>
<g id="a_edge10_Node000010_Node000011"><a xlink:title=" ">
<path fill="none" stroke="#63b8ff" d="M517.53,-13.35C529.57,-13.9 541.89,-14.46 553.77,-15.01"/>
<polygon fill="#63b8ff" stroke="#63b8ff" points="517.66,-9.85 507.51,-12.89 517.34,-16.84 517.66,-9.85"/>
</a>
</g>
</g>
</g>
</svg>
