<?xml version="1.0" encoding="UTF-8" standalone="no"?>
<!DOCTYPE svg PUBLIC "-//W3C//DTD SVG 1.1//EN"
 "http://www.w3.org/Graphics/SVG/1.1/DTD/svg11.dtd">
<!-- Generated by graphviz version 2.43.0 (0)
 -->
<!-- Title: Temporal::TimeDomainProvider Pages: 1 -->
<svg width="1281pt" height="693pt"
 viewBox="0.00 0.00 1281.00 693.00" xmlns="http://www.w3.org/2000/svg" xmlns:xlink="http://www.w3.org/1999/xlink">
<g id="graph0" class="graph" transform="scale(1 1) rotate(0) translate(4 689)">
<title>Temporal::TimeDomainProvider</title>
<!-- Node1 -->
<g id="Node000001" class="node">
<title>Node1</title>
<g id="a_Node000001"><a xlink:title=" ">
<polygon fill="#999999" stroke="#666666" points="171,-203 0,-203 0,-184 171,-184 171,-203"/>
<text text-anchor="middle" x="85.5" y="-191" font-family="Helvetica,sans-Serif" font-size="10.00">Temporal::TimeDomainProvider</text>
</a>
</g>
</g>
<!-- Node2 -->
<g id="Node000002" class="node">
<title>Node2</title>
<g id="a_Node000002"><a xlink:href="classARDOUR_1_1Automatable.html" target="_top" xlink:title=" ">
<polygon fill="white" stroke="#666666" points="341.5,-333 213.5,-333 213.5,-314 341.5,-314 341.5,-333"/>
<text text-anchor="middle" x="277.5" y="-321" font-family="Helvetica,sans-Serif" font-size="10.00">ARDOUR::Automatable</text>
</a>
</g>
</g>
<!-- Node1&#45;&gt;Node2 -->
<g id="edge1_Node000001_Node000002" class="edge">
<title>Node1&#45;&gt;Node2</title>
<g id="a_edge1_Node000001_Node000002"><a xlink:title=" ">
<path fill="none" stroke="#63b8ff" d="M108.93,-208.85C148.57,-235.97 229.89,-291.61 262.51,-313.93"/>
<polygon fill="#63b8ff" stroke="#63b8ff" points="110.7,-205.82 100.47,-203.06 106.75,-211.59 110.7,-205.82"/>
</a>
</g>
</g>
<!-- Node41 -->
<g id="Node000041" class="node">
<title>Node41</title>
<g id="a_Node000041"><a xlink:href="classARDOUR_1_1Locations.html" target="_top" xlink:title=" ">
<polygon fill="white" stroke="#666666" points="333.5,-259 221.5,-259 221.5,-240 333.5,-240 333.5,-259"/>
<text text-anchor="middle" x="277.5" y="-247" font-family="Helvetica,sans-Serif" font-size="10.00">ARDOUR::Locations</text>
</a>
</g>
</g>
<!-- Node1&#45;&gt;Node41 -->
<g id="edge40_Node000001_Node000041" class="edge">
<title>Node1&#45;&gt;Node41</title>
<g id="a_edge40_Node000001_Node000041"><a xlink:title=" ">
<path fill="none" stroke="#63b8ff" d="M125.21,-206.27C148.77,-213.9 179.51,-223.61 207,-231.5 217.06,-234.39 228.01,-237.32 238.17,-239.95"/>
<polygon fill="#63b8ff" stroke="#63b8ff" points="126.18,-202.91 115.59,-203.14 124.02,-209.56 126.18,-202.91"/>
</a>
</g>
</g>
<!-- Node42 -->
<g id="Node000042" class="node">
<title>Node42</title>
<g id="a_Node000042"><a xlink:href="classARDOUR_1_1Playlist.html" target="_top" xlink:title=" ">
<polygon fill="white" stroke="#666666" points="328,-222 227,-222 227,-203 328,-203 328,-222"/>
<text text-anchor="middle" x="277.5" y="-210" font-family="Helvetica,sans-Serif" font-size="10.00">ARDOUR::Playlist</text>
</a>
</g>
</g>
<!-- Node1&#45;&gt;Node42 -->
<g id="edge41_Node000001_Node000042" class="edge">
<title>Node1&#45;&gt;Node42</title>
<g id="a_edge41_Node000001_Node000042"><a xlink:title=" ">
<path fill="none" stroke="#63b8ff" d="M181.5,-203C197.17,-204.57 212.83,-206.13 226.8,-207.53"/>
<polygon fill="#63b8ff" stroke="#63b8ff" points="181.52,-199.48 171.22,-201.97 180.82,-206.45 181.52,-199.48"/>
</a>
</g>
</g>
<!-- Node45 -->
<g id="Node000045" class="node">
<title>Node45</title>
<g id="a_Node000045"><a xlink:href="classARDOUR_1_1RegionFxPlugin.html" target="_top" xlink:title=" ">
<polygon fill="white" stroke="#666666" points="348,-185 207,-185 207,-166 348,-166 348,-185"/>
<text text-anchor="middle" x="277.5" y="-173" font-family="Helvetica,sans-Serif" font-size="10.00">ARDOUR::RegionFxPlugin</text>
</a>
</g>
</g>
<!-- Node1&#45;&gt;Node45 -->
<g id="edge44_Node000001_Node000045" class="edge">
<title>Node1&#45;&gt;Node45</title>
<g id="a_edge44_Node000001_Node000045"><a xlink:title=" ">
<path fill="none" stroke="#63b8ff" d="M181.27,-184.52C189.85,-183.71 198.44,-182.9 206.74,-182.11"/>
<polygon fill="#63b8ff" stroke="#63b8ff" points="180.85,-181.05 171.22,-185.47 181.51,-188.02 180.85,-181.05"/>
</a>
</g>
</g>
<!-- Node46 -->
<g id="Node000046" class="node">
<title>Node46</title>
<g id="a_Node000046"><a xlink:href="classARDOUR_1_1Session.html" target="_top" xlink:title=" ">
<polygon fill="white" stroke="#666666" points="329,-148 226,-148 226,-129 329,-129 329,-148"/>
<text text-anchor="middle" x="277.5" y="-136" font-family="Helvetica,sans-Serif" font-size="10.00">ARDOUR::Session</text>
</a>
</g>
</g>
<!-- Node1&#45;&gt;Node46 -->
<g id="edge45_Node000001_Node000046" class="edge">
<title>Node1&#45;&gt;Node46</title>
<g id="a_edge45_Node000001_Node000046"><a xlink:title=" ">
<path fill="none" stroke="#63b8ff" d="M127.53,-180.98C150.8,-173.95 180.49,-165.08 207,-157.5 218.06,-154.34 230.15,-150.99 241.1,-148.01"/>
<polygon fill="#63b8ff" stroke="#63b8ff" points="126.21,-177.73 117.65,-183.98 128.24,-184.43 126.21,-177.73"/>
</a>
</g>
</g>
<!-- Node47 -->
<g id="Node000047" class="node">
<title>Node47</title>
<g id="a_Node000047"><a xlink:href="classEvoral_1_1ControlList.html" target="_top" xlink:title=" ">
<polygon fill="white" stroke="#666666" points="330.5,-111 224.5,-111 224.5,-92 330.5,-92 330.5,-111"/>
<text text-anchor="middle" x="277.5" y="-99" font-family="Helvetica,sans-Serif" font-size="10.00">Evoral::ControlList</text>
</a>
</g>
</g>
<!-- Node1&#45;&gt;Node47 -->
<g id="edge46_Node000001_Node000047" class="edge">
<title>Node1&#45;&gt;Node47</title>
<g id="a_edge46_Node000001_Node000047"><a xlink:title=" ">
<path fill="none" stroke="#63b8ff" d="M107.56,-177.86C130.82,-161.26 169.9,-135.28 207,-119.5 214.68,-116.23 223.11,-113.44 231.36,-111.1"/>
<polygon fill="#63b8ff" stroke="#63b8ff" points="105.22,-175.24 99.18,-183.94 109.33,-180.91 105.22,-175.24"/>
</a>
</g>
</g>
<!-- Node3 -->
<g id="Node000003" class="node">
<title>Node3</title>
<g id="a_Node000003"><a xlink:href="classARDOUR_1_1AutomatableSequence.html" target="_top" xlink:title=" ">
<polygon fill="white" stroke="#666666" points="574,-653.5 398,-653.5 398,-623.5 574,-623.5 574,-653.5"/>
<text text-anchor="start" x="406" y="-641.5" font-family="Helvetica,sans-Serif" font-size="10.00">ARDOUR::AutomatableSequence</text>
<text text-anchor="middle" x="486" y="-630.5" font-family="Helvetica,sans-Serif" font-size="10.00">&lt; Temporal::Beats &gt;</text>
</a>
</g>
</g>
<!-- Node2&#45;&gt;Node3 -->
<g id="edge2_Node000002_Node000003" class="edge">
<title>Node2&#45;&gt;Node3</title>
<g id="a_edge2_Node000002_Node000003"><a xlink:title=" ">
<path fill="none" stroke="#63b8ff" d="M290.59,-341.95C327.91,-398.87 440.8,-571.07 475.04,-623.31"/>
<polygon fill="#63b8ff" stroke="#63b8ff" points="293.32,-339.72 284.91,-333.27 287.46,-343.55 293.32,-339.72"/>
</a>
</g>
</g>
<!-- Node6 -->
<g id="Node000006" class="node">
<title>Node6</title>
<g id="a_Node000006"><a xlink:href="classARDOUR_1_1AutomatableSequence.html" target="_top" xlink:title=" ">
<polygon fill="white" stroke="#666666" points="588,-407 384,-407 384,-388 588,-388 588,-407"/>
<text text-anchor="middle" x="486" y="-395" font-family="Helvetica,sans-Serif" font-size="10.00">ARDOUR::AutomatableSequence&lt; T &gt;</text>
</a>
</g>
</g>
<!-- Node2&#45;&gt;Node6 -->
<g id="edge5_Node000002_Node000006" class="edge">
<title>Node2&#45;&gt;Node6</title>
<g id="a_edge5_Node000002_Node000006"><a xlink:title=" ">
<path fill="none" stroke="#63b8ff" d="M301.58,-338.47C322.34,-351.26 354.08,-369.18 384,-379.5 393.85,-382.9 404.47,-385.68 415,-387.96"/>
<polygon fill="#63b8ff" stroke="#63b8ff" points="303.19,-335.35 292.86,-333 299.47,-341.28 303.19,-335.35"/>
</a>
</g>
</g>
<!-- Node7 -->
<g id="Node000007" class="node">
<title>Node7</title>
<g id="a_Node000007"><a xlink:href="classARDOUR_1_1Pannable.html" target="_top" xlink:title=" ">
<polygon fill="white" stroke="#666666" points="541,-370 431,-370 431,-351 541,-351 541,-370"/>
<text text-anchor="middle" x="486" y="-358" font-family="Helvetica,sans-Serif" font-size="10.00">ARDOUR::Pannable</text>
</a>
</g>
</g>
<!-- Node2&#45;&gt;Node7 -->
<g id="edge6_Node000002_Node000007" class="edge">
<title>Node2&#45;&gt;Node7</title>
<g id="a_edge6_Node000002_Node000007"><a xlink:title=" ">
<path fill="none" stroke="#63b8ff" d="M341.4,-334.85C355.42,-337.37 370.22,-340.03 384,-342.5 399.43,-345.26 416.18,-348.25 431.53,-350.99"/>
<polygon fill="#63b8ff" stroke="#63b8ff" points="341.82,-331.37 331.36,-333.04 340.58,-338.26 341.82,-331.37"/>
</a>
</g>
</g>
<!-- Node8 -->
<g id="Node000008" class="node">
<title>Node8</title>
<g id="a_Node000008"><a xlink:href="classARDOUR_1_1Processor.html" target="_top" xlink:title=" ">
<polygon fill="white" stroke="#666666" points="542.5,-333 429.5,-333 429.5,-314 542.5,-314 542.5,-333"/>
<text text-anchor="middle" x="486" y="-321" font-family="Helvetica,sans-Serif" font-size="10.00">ARDOUR::Processor</text>
</a>
</g>
</g>
<!-- Node2&#45;&gt;Node8 -->
<g id="edge7_Node000002_Node000008" class="edge">
<title>Node2&#45;&gt;Node8</title>
<g id="a_edge7_Node000002_Node000008"><a xlink:title=" ">
<path fill="none" stroke="#63b8ff" d="M351.6,-323.5C377.15,-323.5 405.4,-323.5 429.31,-323.5"/>
<polygon fill="#63b8ff" stroke="#63b8ff" points="351.58,-320 341.58,-323.5 351.58,-327 351.58,-320"/>
</a>
</g>
</g>
<!-- Node33 -->
<g id="Node000033" class="node">
<title>Node33</title>
<g id="a_Node000033"><a xlink:href="classARDOUR_1_1Stripable.html" target="_top" xlink:title=" ">
<polygon fill="white" stroke="#666666" points="540.5,-296 431.5,-296 431.5,-277 540.5,-277 540.5,-296"/>
<text text-anchor="middle" x="486" y="-284" font-family="Helvetica,sans-Serif" font-size="10.00">ARDOUR::Stripable</text>
</a>
</g>
</g>
<!-- Node2&#45;&gt;Node33 -->
<g id="edge32_Node000002_Node000033" class="edge">
<title>Node2&#45;&gt;Node33</title>
<g id="a_edge32_Node000002_Node000033"><a xlink:title=" ">
<path fill="none" stroke="#63b8ff" d="M341.64,-312.19C370.43,-307.03 404.14,-300.99 431.64,-296.06"/>
<polygon fill="#63b8ff" stroke="#63b8ff" points="340.9,-308.76 331.68,-313.97 342.14,-315.65 340.9,-308.76"/>
</a>
</g>
</g>
<!-- Node40 -->
<g id="Node000040" class="node">
<title>Node40</title>
<g id="a_Node000040"><a xlink:href="classARDOUR_1_1SurroundPannable.html" target="_top" xlink:title=" ">
<polygon fill="white" stroke="#666666" points="562.5,-259 409.5,-259 409.5,-240 562.5,-240 562.5,-259"/>
<text text-anchor="middle" x="486" y="-247" font-family="Helvetica,sans-Serif" font-size="10.00">ARDOUR::SurroundPannable</text>
</a>
</g>
</g>
<!-- Node2&#45;&gt;Node40 -->
<g id="edge39_Node000002_Node000040" class="edge">
<title>Node2&#45;&gt;Node40</title>
<g id="a_edge39_Node000002_Node000040"><a xlink:title=" ">
<path fill="none" stroke="#63b8ff" d="M302.36,-308.45C323.16,-295.98 354.55,-278.7 384,-268.5 395.04,-264.68 407.05,-261.57 418.8,-259.05"/>
<polygon fill="#63b8ff" stroke="#63b8ff" points="300.3,-305.61 293.58,-313.8 303.94,-311.58 300.3,-305.61"/>
</a>
</g>
</g>
<!-- Node4 -->
<g id="Node000004" class="node">
<title>Node4</title>
<g id="a_Node000004"><a xlink:href="classARDOUR_1_1MidiModel.html" target="_top" xlink:title=" ">
<polygon fill="white" stroke="#666666" points="762,-685 646,-685 646,-666 762,-666 762,-685"/>
<text text-anchor="middle" x="704" y="-673" font-family="Helvetica,sans-Serif" font-size="10.00">ARDOUR::MidiModel</text>
</a>
</g>
</g>
<!-- Node3&#45;&gt;Node4 -->
<g id="edge3_Node000003_Node000004" class="edge">
<title>Node3&#45;&gt;Node4</title>
<g id="a_edge3_Node000003_Node000004"><a xlink:title=" ">
<path fill="none" stroke="#63b8ff" d="M584.14,-655.14C605.83,-658.86 628.11,-662.67 647.43,-665.98"/>
<polygon fill="#63b8ff" stroke="#63b8ff" points="584.68,-651.68 574.23,-653.44 583.5,-658.58 584.68,-651.68"/>
</a>
</g>
</g>
<!-- Node5 -->
<g id="Node000005" class="node">
<title>Node5</title>
<g id="a_Node000005"><a xlink:href="classMidiCutBuffer.html" target="_top" xlink:title=" ">
<polygon fill="white" stroke="#666666" points="745.5,-648 662.5,-648 662.5,-629 745.5,-629 745.5,-648"/>
<text text-anchor="middle" x="704" y="-636" font-family="Helvetica,sans-Serif" font-size="10.00">MidiCutBuffer</text>
</a>
</g>
</g>
<!-- Node3&#45;&gt;Node5 -->
<g id="edge4_Node000003_Node000005" class="edge">
<title>Node3&#45;&gt;Node5</title>
<g id="a_edge4_Node000003_Node000005"><a xlink:title=" ">
<path fill="none" stroke="#63b8ff" d="M584.29,-638.5C611.74,-638.5 640.12,-638.5 662.25,-638.5"/>
<polygon fill="#63b8ff" stroke="#63b8ff" points="584.23,-635 574.23,-638.5 584.23,-642 584.23,-635"/>
</a>
</g>
</g>
<!-- Node9 -->
<g id="Node000009" class="node">
<title>Node9</title>
<g id="a_Node000009"><a xlink:href="classARDOUR_1_1Amp.html" target="_top" xlink:title=" ">
<polygon fill="white" stroke="#666666" points="748,-611 660,-611 660,-592 748,-592 748,-611"/>
<text text-anchor="middle" x="704" y="-599" font-family="Helvetica,sans-Serif" font-size="10.00">ARDOUR::Amp</text>
</a>
</g>
</g>
<!-- Node8&#45;&gt;Node9 -->
<g id="edge8_Node000008_Node000009" class="edge">
<title>Node8&#45;&gt;Node9</title>
<g id="a_edge8_Node000008_Node000009"><a xlink:title=" ">
<path fill="none" stroke="#63b8ff" d="M552.78,-324.02C565.97,-327.13 578.63,-332.77 588,-342.5 663.12,-420.51 550.38,-504.08 624,-583.5 633.18,-593.4 646.58,-598.41 659.75,-600.8"/>
<polygon fill="#63b8ff" stroke="#63b8ff" points="553.12,-320.52 542.65,-322.11 551.82,-327.4 553.12,-320.52"/>
</a>
</g>
</g>
<!-- Node10 -->
<g id="Node000010" class="node">
<title>Node10</title>
<g id="a_Node000010"><a xlink:href="classARDOUR_1_1BeatBox.html" target="_top" xlink:title=" ">
<polygon fill="white" stroke="#666666" points="757.5,-574 650.5,-574 650.5,-555 757.5,-555 757.5,-574"/>
<text text-anchor="middle" x="704" y="-562" font-family="Helvetica,sans-Serif" font-size="10.00">ARDOUR::BeatBox</text>
</a>
</g>
</g>
<!-- Node8&#45;&gt;Node10 -->
<g id="edge9_Node000008_Node000010" class="edge">
<title>Node8&#45;&gt;Node10</title>
<g id="a_edge9_Node000008_Node000010"><a xlink:title=" ">
<path fill="none" stroke="#63b8ff" d="M552.8,-324.26C565.92,-327.37 578.55,-332.95 588,-342.5 652.73,-407.97 560.52,-479.81 624,-546.5 631.08,-553.94 640.55,-558.6 650.46,-561.46"/>
<polygon fill="#63b8ff" stroke="#63b8ff" points="553.2,-320.77 542.72,-322.33 551.88,-327.64 553.2,-320.77"/>
</a>
</g>
</g>
<!-- Node11 -->
<g id="Node000011" class="node">
<title>Node11</title>
<g id="a_Node000011"><a xlink:href="classARDOUR_1_1CapturingProcessor.html" target="_top" xlink:title=" ">
<polygon fill="white" stroke="#666666" points="784,-537 624,-537 624,-518 784,-518 784,-537"/>
<text text-anchor="middle" x="704" y="-525" font-family="Helvetica,sans-Serif" font-size="10.00">ARDOUR::CapturingProcessor</text>
</a>
</g>
</g>
<!-- Node8&#45;&gt;Node11 -->
<g id="edge10_Node000008_Node000011" class="edge">
<title>Node8&#45;&gt;Node11</title>
<g id="a_edge10_Node000008_Node000011"><a xlink:title=" ">
<path fill="none" stroke="#63b8ff" d="M552.75,-324.57C565.81,-327.68 578.43,-333.17 588,-342.5 642.39,-395.48 570.63,-455.5 624,-509.5 627.26,-512.8 631,-515.55 635.03,-517.84"/>
<polygon fill="#63b8ff" stroke="#63b8ff" points="553.2,-321.1 542.71,-322.64 551.87,-327.97 553.2,-321.1"/>
</a>
</g>
</g>
<!-- Node12 -->
<g id="Node000012" class="node">
<title>Node12</title>
<g id="a_Node000012"><a xlink:href="classARDOUR_1_1DelayLine.html" target="_top" xlink:title=" ">
<polygon fill="white" stroke="#666666" points="761,-500 647,-500 647,-481 761,-481 761,-500"/>
<text text-anchor="middle" x="704" y="-488" font-family="Helvetica,sans-Serif" font-size="10.00">ARDOUR::DelayLine</text>
</a>
</g>
</g>
<!-- Node8&#45;&gt;Node12 -->
<g id="edge11_Node000008_Node000012" class="edge">
<title>Node8&#45;&gt;Node12</title>
<g id="a_edge11_Node000008_Node000012"><a xlink:title=" ">
<path fill="none" stroke="#63b8ff" d="M552.56,-325.04C565.57,-328.13 578.21,-333.5 588,-342.5 632.14,-383.07 580.64,-431.1 624,-472.5 630.41,-478.62 638.45,-482.82 646.93,-485.67"/>
<polygon fill="#63b8ff" stroke="#63b8ff" points="553.06,-321.58 542.58,-323.1 551.72,-328.45 553.06,-321.58"/>
</a>
</g>
</g>
<!-- Node13 -->
<g id="Node000013" class="node">
<title>Node13</title>
<g id="a_Node000013"><a xlink:href="classARDOUR_1_1DiskIOProcessor.html" target="_top" xlink:title=" ">
<polygon fill="white" stroke="#666666" points="776.5,-463 631.5,-463 631.5,-444 776.5,-444 776.5,-463"/>
<text text-anchor="middle" x="704" y="-451" font-family="Helvetica,sans-Serif" font-size="10.00">ARDOUR::DiskIOProcessor</text>
</a>
</g>
</g>
<!-- Node8&#45;&gt;Node13 -->
<g id="edge12_Node000008_Node000013" class="edge">
<title>Node8&#45;&gt;Node13</title>
<g id="a_edge12_Node000008_Node000013"><a xlink:title=" ">
<path fill="none" stroke="#63b8ff" d="M552.53,-325.94C565.36,-329 577.94,-334.14 588,-342.5 622.08,-370.84 590.47,-406.52 624,-435.5 627.94,-438.9 632.39,-441.7 637.12,-443.99"/>
<polygon fill="#63b8ff" stroke="#63b8ff" points="553.2,-322.5 542.7,-323.98 551.83,-329.37 553.2,-322.5"/>
</a>
</g>
</g>
<!-- Node16 -->
<g id="Node000016" class="node">
<title>Node16</title>
<g id="a_Node000016"><a xlink:href="classARDOUR_1_1IOProcessor.html" target="_top" xlink:title=" ">
<polygon fill="white" stroke="#666666" points="765.5,-426 642.5,-426 642.5,-407 765.5,-407 765.5,-426"/>
<text text-anchor="middle" x="704" y="-414" font-family="Helvetica,sans-Serif" font-size="10.00">ARDOUR::IOProcessor</text>
</a>
</g>
</g>
<!-- Node8&#45;&gt;Node16 -->
<g id="edge15_Node000008_Node000016" class="edge">
<title>Node8&#45;&gt;Node16</title>
<g id="a_edge15_Node000008_Node000016"><a xlink:title=" ">
<path fill="none" stroke="#63b8ff" d="M552.53,-327.84C565.04,-330.81 577.49,-335.42 588,-342.5 612.54,-359.03 599.78,-381.51 624,-398.5 629.53,-402.38 635.76,-405.43 642.24,-407.84"/>
<polygon fill="#63b8ff" stroke="#63b8ff" points="553.03,-324.37 542.53,-325.79 551.62,-331.22 553.03,-324.37"/>
</a>
</g>
</g>
<!-- Node23 -->
<g id="Node000023" class="node">
<title>Node23</title>
<g id="a_Node000023"><a xlink:href="classARDOUR_1_1InternalReturn.html" target="_top" xlink:title=" ">
<polygon fill="white" stroke="#666666" points="771.5,-389 636.5,-389 636.5,-370 771.5,-370 771.5,-389"/>
<text text-anchor="middle" x="704" y="-377" font-family="Helvetica,sans-Serif" font-size="10.00">ARDOUR::InternalReturn</text>
</a>
</g>
</g>
<!-- Node8&#45;&gt;Node23 -->
<g id="edge22_Node000008_Node000023" class="edge">
<title>Node8&#45;&gt;Node23</title>
<g id="a_edge22_Node000008_Node000023"><a xlink:title=" ">
<path fill="none" stroke="#63b8ff" d="M552.52,-332.86C564.49,-335.4 576.75,-338.57 588,-342.5 605.08,-348.46 607.04,-355.21 624,-361.5 632.84,-364.77 642.46,-367.57 651.85,-369.91"/>
<polygon fill="#63b8ff" stroke="#63b8ff" points="553.05,-329.4 542.56,-330.87 551.68,-336.26 553.05,-329.4"/>
</a>
</g>
</g>
<!-- Node25 -->
<g id="Node000025" class="node">
<title>Node25</title>
<g id="a_Node000025"><a xlink:href="classARDOUR_1_1MonitorProcessor.html" target="_top" xlink:title=" ">
<polygon fill="white" stroke="#666666" points="779,-352 629,-352 629,-333 779,-333 779,-352"/>
<text text-anchor="middle" x="704" y="-340" font-family="Helvetica,sans-Serif" font-size="10.00">ARDOUR::MonitorProcessor</text>
</a>
</g>
</g>
<!-- Node8&#45;&gt;Node25 -->
<g id="edge24_Node000008_Node000025" class="edge">
<title>Node8&#45;&gt;Node25</title>
<g id="a_edge24_Node000008_Node000025"><a xlink:title=" ">
<path fill="none" stroke="#63b8ff" d="M552.71,-329.28C576.75,-331.39 604.1,-333.8 628.83,-335.98"/>
<polygon fill="#63b8ff" stroke="#63b8ff" points="552.89,-325.78 542.63,-328.39 552.28,-332.76 552.89,-325.78"/>
</a>
</g>
</g>
<!-- Node26 -->
<g id="Node000026" class="node">
<title>Node26</title>
<g id="a_Node000026"><a xlink:href="classARDOUR_1_1PeakMeter.html" target="_top" xlink:title=" ">
<polygon fill="white" stroke="#666666" points="763,-315 645,-315 645,-296 763,-296 763,-315"/>
<text text-anchor="middle" x="704" y="-303" font-family="Helvetica,sans-Serif" font-size="10.00">ARDOUR::PeakMeter</text>
</a>
</g>
</g>
<!-- Node8&#45;&gt;Node26 -->
<g id="edge25_Node000008_Node000026" class="edge">
<title>Node8&#45;&gt;Node26</title>
<g id="a_edge25_Node000008_Node000026"><a xlink:title=" ">
<path fill="none" stroke="#63b8ff" d="M552.79,-318.02C582.18,-315.57 616.51,-312.71 644.92,-310.34"/>
<polygon fill="#63b8ff" stroke="#63b8ff" points="552.3,-314.55 542.63,-318.86 552.88,-321.52 552.3,-314.55"/>
</a>
</g>
</g>
<!-- Node27 -->
<g id="Node000027" class="node">
<title>Node27</title>
<g id="a_Node000027"><a xlink:href="classARDOUR_1_1PluginInsert.html" target="_top" xlink:title=" ">
<polygon fill="white" stroke="#666666" points="765.5,-278 642.5,-278 642.5,-259 765.5,-259 765.5,-278"/>
<text text-anchor="middle" x="704" y="-266" font-family="Helvetica,sans-Serif" font-size="10.00">ARDOUR::PluginInsert</text>
</a>
</g>
</g>
<!-- Node8&#45;&gt;Node27 -->
<g id="edge26_Node000008_Node000027" class="edge">
<title>Node8&#45;&gt;Node27</title>
<g id="a_edge26_Node000008_Node000027"><a xlink:title=" ">
<path fill="none" stroke="#63b8ff" d="M552.66,-314.63C564.57,-312.22 576.77,-309.22 588,-305.5 604.98,-299.87 607.19,-293.63 624,-287.5 634.07,-283.83 645.13,-280.66 655.69,-278.02"/>
<polygon fill="#63b8ff" stroke="#63b8ff" points="551.92,-311.21 542.75,-316.51 553.23,-318.08 551.92,-311.21"/>
</a>
</g>
</g>
<!-- Node28 -->
<g id="Node000028" class="node">
<title>Node28</title>
<g id="a_Node000028"><a xlink:href="classARDOUR_1_1PolarityProcessor.html" target="_top" xlink:title=" ">
<polygon fill="white" stroke="#666666" points="779,-241 629,-241 629,-222 779,-222 779,-241"/>
<text text-anchor="middle" x="704" y="-229" font-family="Helvetica,sans-Serif" font-size="10.00">ARDOUR::PolarityProcessor</text>
</a>
</g>
</g>
<!-- Node8&#45;&gt;Node28 -->
<g id="edge27_Node000008_Node000028" class="edge">
<title>Node8&#45;&gt;Node28</title>
<g id="a_edge27_Node000008_Node000028"><a xlink:title=" ">
<path fill="none" stroke="#63b8ff" d="M552.67,-319.76C565.11,-316.91 577.5,-312.43 588,-305.5 612.38,-289.4 600.11,-267.32 624,-250.5 629.54,-246.6 635.77,-243.5 642.25,-241.02"/>
<polygon fill="#63b8ff" stroke="#63b8ff" points="551.86,-316.35 542.72,-321.71 553.2,-323.22 551.86,-316.35"/>
</a>
</g>
</g>
<!-- Node29 -->
<g id="Node000029" class="node">
<title>Node29</title>
<g id="a_Node000029"><a xlink:href="classARDOUR_1_1SurroundReturn.html" target="_top" xlink:title=" ">
<polygon fill="white" stroke="#666666" points="774.5,-204 633.5,-204 633.5,-185 774.5,-185 774.5,-204"/>
<text text-anchor="middle" x="704" y="-192" font-family="Helvetica,sans-Serif" font-size="10.00">ARDOUR::SurroundReturn</text>
</a>
</g>
</g>
<!-- Node8&#45;&gt;Node29 -->
<g id="edge28_Node000008_Node000029" class="edge">
<title>Node8&#45;&gt;Node29</title>
<g id="a_edge28_Node000008_Node000029"><a xlink:title=" ">
<path fill="none" stroke="#63b8ff" d="M552.47,-321.74C565.31,-318.8 577.91,-313.78 588,-305.5 621.95,-277.65 590.9,-242.35 624,-213.5 628.36,-209.7 633.35,-206.63 638.66,-204.15"/>
<polygon fill="#63b8ff" stroke="#63b8ff" points="551.82,-318.3 542.65,-323.6 553.12,-325.18 551.82,-318.3"/>
</a>
</g>
</g>
<!-- Node30 -->
<g id="Node000030" class="node">
<title>Node30</title>
<g id="a_Node000030"><a xlink:href="classARDOUR_1_1SurroundSend.html" target="_top" xlink:title=" ">
<polygon fill="white" stroke="#666666" points="770.5,-167 637.5,-167 637.5,-148 770.5,-148 770.5,-167"/>
<text text-anchor="middle" x="704" y="-155" font-family="Helvetica,sans-Serif" font-size="10.00">ARDOUR::SurroundSend</text>
</a>
</g>
</g>
<!-- Node8&#45;&gt;Node30 -->
<g id="edge29_Node000008_Node000030" class="edge">
<title>Node8&#45;&gt;Node30</title>
<g id="a_edge29_Node000008_Node000030"><a xlink:title=" ">
<path fill="none" stroke="#63b8ff" d="M552.5,-322.64C565.52,-319.68 578.18,-314.42 588,-305.5 632.06,-265.47 581.16,-217.82 624,-176.5 627.96,-172.68 632.55,-169.58 637.48,-167.08"/>
<polygon fill="#63b8ff" stroke="#63b8ff" points="551.72,-319.23 542.52,-324.49 552.99,-326.11 551.72,-319.23"/>
</a>
</g>
</g>
<!-- Node31 -->
<g id="Node000031" class="node">
<title>Node31</title>
<g id="a_Node000031"><a xlink:href="classARDOUR_1_1TriggerBox.html" target="_top" xlink:title=" ">
<polygon fill="white" stroke="#666666" points="762.5,-130 645.5,-130 645.5,-111 762.5,-111 762.5,-130"/>
<text text-anchor="middle" x="704" y="-118" font-family="Helvetica,sans-Serif" font-size="10.00">ARDOUR::TriggerBox</text>
</a>
</g>
</g>
<!-- Node8&#45;&gt;Node31 -->
<g id="edge30_Node000008_Node000031" class="edge">
<title>Node8&#45;&gt;Node31</title>
<g id="a_edge30_Node000008_Node000031"><a xlink:title=" ">
<path fill="none" stroke="#63b8ff" d="M552.7,-323.12C565.76,-320.14 578.39,-314.76 588,-305.5 642.36,-253.12 571.22,-193.48 624,-139.5 629.92,-133.45 637.4,-129.19 645.39,-126.22"/>
<polygon fill="#63b8ff" stroke="#63b8ff" points="551.87,-319.71 542.66,-324.95 553.13,-326.6 551.87,-319.71"/>
</a>
</g>
</g>
<!-- Node32 -->
<g id="Node000032" class="node">
<title>Node32</title>
<g id="a_Node000032"><a xlink:href="classARDOUR_1_1UnknownProcessor.html" target="_top" xlink:title=" ">
<polygon fill="white" stroke="#666666" points="783,-93 625,-93 625,-74 783,-74 783,-93"/>
<text text-anchor="middle" x="704" y="-81" font-family="Helvetica,sans-Serif" font-size="10.00">ARDOUR::UnknownProcessor</text>
</a>
</g>
</g>
<!-- Node8&#45;&gt;Node32 -->
<g id="edge31_Node000008_Node000032" class="edge">
<title>Node8&#45;&gt;Node32</title>
<g id="a_edge31_Node000008_Node000032"><a xlink:title=" ">
<path fill="none" stroke="#63b8ff" d="M552.76,-323.44C565.88,-320.46 578.52,-314.99 588,-305.5 653.05,-240.34 560.52,-168.19 624,-101.5 627.2,-98.14 630.89,-95.34 634.89,-93.03"/>
<polygon fill="#63b8ff" stroke="#63b8ff" points="551.89,-320.04 542.67,-325.27 553.14,-326.93 551.89,-320.04"/>
</a>
</g>
</g>
<!-- Node14 -->
<g id="Node000014" class="node">
<title>Node14</title>
<g id="a_Node000014"><a xlink:href="classARDOUR_1_1DiskReader.html" target="_top" xlink:title=" ">
<polygon fill="white" stroke="#666666" points="948.5,-537 826.5,-537 826.5,-518 948.5,-518 948.5,-537"/>
<text text-anchor="middle" x="887.5" y="-525" font-family="Helvetica,sans-Serif" font-size="10.00">ARDOUR::DiskReader</text>
</a>
</g>
</g>
<!-- Node13&#45;&gt;Node14 -->
<g id="edge13_Node000013_Node000014" class="edge">
<title>Node13&#45;&gt;Node14</title>
<g id="a_edge13_Node000013_Node000014"><a xlink:title=" ">
<path fill="none" stroke="#63b8ff" d="M771.44,-466.49C775.8,-468.25 780.03,-470.24 784,-472.5 803.94,-483.85 800.22,-497.87 820,-509.5 825.77,-512.9 832.2,-515.67 838.73,-517.93"/>
<polygon fill="#63b8ff" stroke="#63b8ff" points="772.34,-463.09 761.74,-463.01 769.97,-469.68 772.34,-463.09"/>
</a>
</g>
</g>
<!-- Node15 -->
<g id="Node000015" class="node">
<title>Node15</title>
<g id="a_Node000015"><a xlink:href="classARDOUR_1_1DiskWriter.html" target="_top" xlink:title=" ">
<polygon fill="white" stroke="#666666" points="946,-500 829,-500 829,-481 946,-481 946,-500"/>
<text text-anchor="middle" x="887.5" y="-488" font-family="Helvetica,sans-Serif" font-size="10.00">ARDOUR::DiskWriter</text>
</a>
</g>
</g>
<!-- Node13&#45;&gt;Node15 -->
<g id="edge14_Node000013_Node000015" class="edge">
<title>Node13&#45;&gt;Node15</title>
<g id="a_edge14_Node000013_Node000015"><a xlink:title=" ">
<path fill="none" stroke="#63b8ff" d="M761.82,-465.08C786.83,-470.18 815.85,-476.1 839.6,-480.94"/>
<polygon fill="#63b8ff" stroke="#63b8ff" points="762.24,-461.6 751.74,-463.03 760.84,-468.46 762.24,-461.6"/>
</a>
</g>
</g>
<!-- Node17 -->
<g id="Node000017" class="node">
<title>Node17</title>
<g id="a_Node000017"><a xlink:href="classARDOUR_1_1Delivery.html" target="_top" xlink:title=" ">
<polygon fill="white" stroke="#666666" points="941,-463 834,-463 834,-444 941,-444 941,-463"/>
<text text-anchor="middle" x="887.5" y="-451" font-family="Helvetica,sans-Serif" font-size="10.00">ARDOUR::Delivery</text>
</a>
</g>
</g>
<!-- Node16&#45;&gt;Node17 -->
<g id="edge16_Node000016_Node000017" class="edge">
<title>Node16&#45;&gt;Node17</title>
<g id="a_edge16_Node000016_Node000017"><a xlink:title=" ">
<path fill="none" stroke="#63b8ff" d="M761.82,-428.08C786.83,-433.18 815.85,-439.1 839.6,-443.94"/>
<polygon fill="#63b8ff" stroke="#63b8ff" points="762.24,-424.6 751.74,-426.03 760.84,-431.46 762.24,-424.6"/>
</a>
</g>
</g>
<!-- Node20 -->
<g id="Node000020" class="node">
<title>Node20</title>
<g id="a_Node000020"><a xlink:href="classARDOUR_1_1PortInsert.html" target="_top" xlink:title=" ">
<polygon fill="white" stroke="#666666" points="944,-426 831,-426 831,-407 944,-407 944,-426"/>
<text text-anchor="middle" x="887.5" y="-414" font-family="Helvetica,sans-Serif" font-size="10.00">ARDOUR::PortInsert</text>
</a>
</g>
</g>
<!-- Node16&#45;&gt;Node20 -->
<g id="edge19_Node000016_Node000020" class="edge">
<title>Node16&#45;&gt;Node20</title>
<g id="a_edge19_Node000016_Node000020"><a xlink:title=" ">
<path fill="none" stroke="#63b8ff" d="M775.7,-416.5C793.97,-416.5 813.38,-416.5 830.77,-416.5"/>
<polygon fill="#63b8ff" stroke="#63b8ff" points="775.69,-413 765.69,-416.5 775.69,-420 775.69,-413"/>
</a>
</g>
</g>
<!-- Node21 -->
<g id="Node000021" class="node">
<title>Node21</title>
<g id="a_Node000021"><a xlink:href="classARDOUR_1_1Return.html" target="_top" xlink:title=" ">
<polygon fill="white" stroke="#666666" points="936.5,-389 838.5,-389 838.5,-370 936.5,-370 936.5,-389"/>
<text text-anchor="middle" x="887.5" y="-377" font-family="Helvetica,sans-Serif" font-size="10.00">ARDOUR::Return</text>
</a>
</g>
</g>
<!-- Node16&#45;&gt;Node21 -->
<g id="edge20_Node000016_Node000021" class="edge">
<title>Node16&#45;&gt;Node21</title>
<g id="a_edge20_Node000016_Node000021"><a xlink:title=" ">
<path fill="none" stroke="#63b8ff" d="M761.82,-404.92C786.83,-399.82 815.85,-393.9 839.6,-389.06"/>
<polygon fill="#63b8ff" stroke="#63b8ff" points="760.84,-401.54 751.74,-406.97 762.24,-408.4 760.84,-401.54"/>
</a>
</g>
</g>
<!-- Node22 -->
<g id="Node000022" class="node">
<title>Node22</title>
<g id="a_Node000022"><a xlink:href="classARDOUR_1_1SideChain.html" target="_top" xlink:title=" ">
<polygon fill="white" stroke="#666666" points="944.5,-352 830.5,-352 830.5,-333 944.5,-333 944.5,-352"/>
<text text-anchor="middle" x="887.5" y="-340" font-family="Helvetica,sans-Serif" font-size="10.00">ARDOUR::SideChain</text>
</a>
</g>
</g>
<!-- Node16&#45;&gt;Node22 -->
<g id="edge21_Node000016_Node000022" class="edge">
<title>Node16&#45;&gt;Node22</title>
<g id="a_edge21_Node000016_Node000022"><a xlink:title=" ">
<path fill="none" stroke="#63b8ff" d="M773.77,-403.45C777.31,-401.97 780.74,-400.33 784,-398.5 804.01,-387.27 800.31,-373.27 820,-361.5 826.39,-357.68 833.59,-354.6 840.82,-352.12"/>
<polygon fill="#63b8ff" stroke="#63b8ff" points="772.39,-400.23 764.22,-406.98 774.82,-406.8 772.39,-400.23"/>
</a>
</g>
</g>
<!-- Node18 -->
<g id="Node000018" class="node">
<title>Node18</title>
<g id="a_Node000018"><a xlink:href="classARDOUR_1_1Send.html" target="_top" xlink:title=" ">
<polygon fill="white" stroke="#666666" points="1095,-463 1006,-463 1006,-444 1095,-444 1095,-463"/>
<text text-anchor="middle" x="1050.5" y="-451" font-family="Helvetica,sans-Serif" font-size="10.00">ARDOUR::Send</text>
</a>
</g>
</g>
<!-- Node17&#45;&gt;Node18 -->
<g id="edge17_Node000017_Node000018" class="edge">
<title>Node17&#45;&gt;Node18</title>
<g id="a_edge17_Node000017_Node000018"><a xlink:title=" ">
<path fill="none" stroke="#63b8ff" d="M951.46,-453.5C969.64,-453.5 989.08,-453.5 1005.81,-453.5"/>
<polygon fill="#63b8ff" stroke="#63b8ff" points="951.22,-450 941.22,-453.5 951.22,-457 951.22,-450"/>
</a>
</g>
</g>
<!-- Node19 -->
<g id="Node000019" class="node">
<title>Node19</title>
<g id="a_Node000019"><a xlink:href="classARDOUR_1_1InternalSend.html" target="_top" xlink:title=" ">
<polygon fill="white" stroke="#666666" points="1273,-463 1146,-463 1146,-444 1273,-444 1273,-463"/>
<text text-anchor="middle" x="1209.5" y="-451" font-family="Helvetica,sans-Serif" font-size="10.00">ARDOUR::InternalSend</text>
</a>
</g>
</g>
<!-- Node18&#45;&gt;Node19 -->
<g id="edge18_Node000018_Node000019" class="edge">
<title>Node18&#45;&gt;Node19</title>
<g id="a_edge18_Node000018_Node000019"><a xlink:title=" ">
<path fill="none" stroke="#63b8ff" d="M1105.45,-453.5C1118.49,-453.5 1132.53,-453.5 1145.93,-453.5"/>
<polygon fill="#63b8ff" stroke="#63b8ff" points="1105.23,-450 1095.23,-453.5 1105.23,-457 1105.23,-450"/>
</a>
</g>
</g>
<!-- Node24 -->
<g id="Node000024" class="node">
<title>Node24</title>
<g id="a_Node000024"><a xlink:href="classARDOUR_1_1MonitorReturn.html" target="_top" xlink:title=" ">
<polygon fill="white" stroke="#666666" points="955,-315 820,-315 820,-296 955,-296 955,-315"/>
<text text-anchor="middle" x="887.5" y="-303" font-family="Helvetica,sans-Serif" font-size="10.00">ARDOUR::MonitorReturn</text>
</a>
</g>
</g>
<!-- Node23&#45;&gt;Node24 -->
<g id="edge23_Node000023_Node000024" class="edge">
<title>Node23&#45;&gt;Node24</title>
<g id="a_edge23_Node000023_Node000024"><a xlink:title=" ">
<path fill="none" stroke="#63b8ff" d="M773.77,-366.45C777.31,-364.97 780.74,-363.33 784,-361.5 804.01,-350.27 800.31,-336.27 820,-324.5 826.39,-320.68 833.59,-317.6 840.82,-315.12"/>
<polygon fill="#63b8ff" stroke="#63b8ff" points="772.39,-363.23 764.22,-369.98 774.82,-369.8 772.39,-363.23"/>
</a>
</g>
</g>
<!-- Node34 -->
<g id="Node000034" class="node">
<title>Node34</title>
<g id="a_Node000034"><a xlink:href="classARDOUR_1_1Route.html" target="_top" xlink:title=" ">
<polygon fill="white" stroke="#666666" points="751,-56 657,-56 657,-37 751,-37 751,-56"/>
<text text-anchor="middle" x="704" y="-44" font-family="Helvetica,sans-Serif" font-size="10.00">ARDOUR::Route</text>
</a>
</g>
</g>
<!-- Node33&#45;&gt;Node34 -->
<g id="edge33_Node000033_Node000034" class="edge">
<title>Node33&#45;&gt;Node34</title>
<g id="a_edge33_Node000033_Node000034"><a xlink:title=" ">
<path fill="none" stroke="#63b8ff" d="M550.69,-286.89C564.55,-284.02 578.03,-278.49 588,-268.5 653.05,-203.34 560.52,-131.19 624,-64.5 632.53,-55.53 644.54,-50.6 656.61,-48"/>
<polygon fill="#63b8ff" stroke="#63b8ff" points="549.88,-283.48 540.57,-288.54 551.01,-290.39 549.88,-283.48"/>
</a>
</g>
</g>
<!-- Node39 -->
<g id="Node000039" class="node">
<title>Node39</title>
<g id="a_Node000039"><a xlink:href="classARDOUR_1_1VCA.html" target="_top" xlink:title=" ">
<polygon fill="white" stroke="#666666" points="747,-19 661,-19 661,0 747,0 747,-19"/>
<text text-anchor="middle" x="704" y="-7" font-family="Helvetica,sans-Serif" font-size="10.00">ARDOUR::VCA</text>
</a>
</g>
</g>
<!-- Node33&#45;&gt;Node39 -->
<g id="edge38_Node000033_Node000039" class="edge">
<title>Node33&#45;&gt;Node39</title>
<g id="a_edge38_Node000033_Node000039"><a xlink:title=" ">
<path fill="none" stroke="#63b8ff" d="M550.88,-287.08C564.73,-284.2 578.16,-278.62 588,-268.5 663.5,-190.85 550.38,-106.92 624,-27.5 633.47,-17.29 647.43,-12.28 660.99,-9.98"/>
<polygon fill="#63b8ff" stroke="#63b8ff" points="550.07,-283.67 540.76,-288.73 551.19,-290.58 550.07,-283.67"/>
</a>
</g>
</g>
<!-- Node35 -->
<g id="Node000035" class="node">
<title>Node35</title>
<g id="a_Node000035"><a xlink:href="classARDOUR_1_1Track.html" target="_top" xlink:title=" ">
<polygon fill="white" stroke="#666666" points="933,-56 842,-56 842,-37 933,-37 933,-56"/>
<text text-anchor="middle" x="887.5" y="-44" font-family="Helvetica,sans-Serif" font-size="10.00">ARDOUR::Track</text>
</a>
</g>
</g>
<!-- Node34&#45;&gt;Node35 -->
<g id="edge34_Node000034_Node000035" class="edge">
<title>Node34&#45;&gt;Node35</title>
<g id="a_edge34_Node000034_Node000035"><a xlink:title=" ">
<path fill="none" stroke="#63b8ff" d="M761.34,-46.5C787.26,-46.5 817.58,-46.5 841.88,-46.5"/>
<polygon fill="#63b8ff" stroke="#63b8ff" points="761.27,-43 751.27,-46.5 761.27,-50 761.27,-43"/>
</a>
</g>
</g>
<!-- Node36 -->
<g id="Node000036" class="node">
<title>Node36</title>
<g id="a_Node000036"><a xlink:href="classARDOUR_1_1AudioTrack.html" target="_top" xlink:title=" ">
<polygon fill="white" stroke="#666666" points="1110,-93 991,-93 991,-74 1110,-74 1110,-93"/>
<text text-anchor="middle" x="1050.5" y="-81" font-family="Helvetica,sans-Serif" font-size="10.00">ARDOUR::AudioTrack</text>
</a>
</g>
</g>
<!-- Node35&#45;&gt;Node36 -->
<g id="edge35_Node000035_Node000036" class="edge">
<title>Node35&#45;&gt;Node36</title>
<g id="a_edge35_Node000035_Node000036"><a xlink:title=" ">
<path fill="none" stroke="#63b8ff" d="M939.8,-58.29C961.77,-63.34 987.11,-69.16 1007.9,-73.94"/>
<polygon fill="#63b8ff" stroke="#63b8ff" points="940.49,-54.86 929.96,-56.03 938.92,-61.68 940.49,-54.86"/>
</a>
</g>
</g>
<!-- Node37 -->
<g id="Node000037" class="node">
<title>Node37</title>
<g id="a_Node000037"><a xlink:href="classARDOUR_1_1Auditioner.html" target="_top" xlink:title=" ">
<polygon fill="white" stroke="#666666" points="1108.5,-56 992.5,-56 992.5,-37 1108.5,-37 1108.5,-56"/>
<text text-anchor="middle" x="1050.5" y="-44" font-family="Helvetica,sans-Serif" font-size="10.00">ARDOUR::Auditioner</text>
</a>
</g>
</g>
<!-- Node35&#45;&gt;Node37 -->
<g id="edge36_Node000035_Node000037" class="edge">
<title>Node35&#45;&gt;Node37</title>
<g id="a_edge36_Node000035_Node000037"><a xlink:title=" ">
<path fill="none" stroke="#63b8ff" d="M943.45,-46.5C959.17,-46.5 976.36,-46.5 992.22,-46.5"/>
<polygon fill="#63b8ff" stroke="#63b8ff" points="943.35,-43 933.35,-46.5 943.35,-50 943.35,-43"/>
</a>
</g>
</g>
<!-- Node38 -->
<g id="Node000038" class="node">
<title>Node38</title>
<g id="a_Node000038"><a xlink:href="classARDOUR_1_1MidiTrack.html" target="_top" xlink:title=" ">
<polygon fill="white" stroke="#666666" points="1106.5,-19 994.5,-19 994.5,0 1106.5,0 1106.5,-19"/>
<text text-anchor="middle" x="1050.5" y="-7" font-family="Helvetica,sans-Serif" font-size="10.00">ARDOUR::MidiTrack</text>
</a>
</g>
</g>
<!-- Node35&#45;&gt;Node38 -->
<g id="edge37_Node000035_Node000038" class="edge">
<title>Node35&#45;&gt;Node38</title>
<g id="a_edge37_Node000035_Node000038"><a xlink:title=" ">
<path fill="none" stroke="#63b8ff" d="M939.8,-34.71C961.77,-29.66 987.11,-23.84 1007.9,-19.06"/>
<polygon fill="#63b8ff" stroke="#63b8ff" points="938.92,-31.32 929.96,-36.97 940.49,-38.14 938.92,-31.32"/>
</a>
</g>
</g>
<!-- Node43 -->
<g id="Node000043" class="node">
<title>Node43</title>
<g id="a_Node000043"><a xlink:href="classARDOUR_1_1AudioPlaylist.html" target="_top" xlink:title=" ">
<polygon fill="white" stroke="#666666" points="550.5,-222 421.5,-222 421.5,-203 550.5,-203 550.5,-222"/>
<text text-anchor="middle" x="486" y="-210" font-family="Helvetica,sans-Serif" font-size="10.00">ARDOUR::AudioPlaylist</text>
</a>
</g>
</g>
<!-- Node42&#45;&gt;Node43 -->
<g id="edge42_Node000042_Node000043" class="edge">
<title>Node42&#45;&gt;Node43</title>
<g id="a_edge42_Node000042_Node000043"><a xlink:title=" ">
<path fill="none" stroke="#63b8ff" d="M338.32,-212.5C364.32,-212.5 394.81,-212.5 421.23,-212.5"/>
<polygon fill="#63b8ff" stroke="#63b8ff" points="338.22,-209 328.22,-212.5 338.22,-216 338.22,-209"/>
</a>
</g>
</g>
<!-- Node44 -->
<g id="Node000044" class="node">
<title>Node44</title>
<g id="a_Node000044"><a xlink:href="classARDOUR_1_1MidiPlaylist.html" target="_top" xlink:title=" ">
<polygon fill="white" stroke="#666666" points="547,-185 425,-185 425,-166 547,-166 547,-185"/>
<text text-anchor="middle" x="486" y="-173" font-family="Helvetica,sans-Serif" font-size="10.00">ARDOUR::MidiPlaylist</text>
</a>
</g>
</g>
<!-- Node42&#45;&gt;Node44 -->
<g id="edge43_Node000042_Node000044" class="edge">
<title>Node42&#45;&gt;Node44</title>
<g id="a_edge43_Node000042_Node000044"><a xlink:title=" ">
<path fill="none" stroke="#63b8ff" d="M338.4,-201.77C367.9,-196.48 403.18,-190.16 431.73,-185.04"/>
<polygon fill="#63b8ff" stroke="#63b8ff" points="337.45,-198.38 328.22,-203.59 338.69,-205.27 337.45,-198.38"/>
</a>
</g>
</g>
<!-- Node48 -->
<g id="Node000048" class="node">
<title>Node48</title>
<g id="a_Node000048"><a xlink:href="classARDOUR_1_1AutomationList.html" target="_top" xlink:title=" ">
<polygon fill="white" stroke="#666666" points="556,-111 416,-111 416,-92 556,-92 556,-111"/>
<text text-anchor="middle" x="486" y="-99" font-family="Helvetica,sans-Serif" font-size="10.00">ARDOUR::AutomationList</text>
</a>
</g>
</g>
<!-- Node47&#45;&gt;Node48 -->
<g id="edge47_Node000047_Node000048" class="edge">
<title>Node47&#45;&gt;Node48</title>
<g id="a_edge47_Node000047_Node000048"><a xlink:title=" ">
<path fill="none" stroke="#63b8ff" d="M340.85,-101.5C364.48,-101.5 391.51,-101.5 415.74,-101.5"/>
<polygon fill="#63b8ff" stroke="#63b8ff" points="340.61,-98 330.61,-101.5 340.61,-105 340.61,-98"/>
</a>
</g>
</g>
</g>
</svg>
