<?xml version="1.0" encoding="UTF-8" standalone="no"?>
<!DOCTYPE svg PUBLIC "-//W3C//DTD SVG 1.1//EN"
 "http://www.w3.org/Graphics/SVG/1.1/DTD/svg11.dtd">
<!-- Generated by graphviz version 2.43.0 (0)
 -->
<!-- Title: ArdourSurface::ArdourWebsockets Pages: 1 -->
<svg width="473pt" height="203pt"
 viewBox="0.00 0.00 472.50 203.00" xmlns="http://www.w3.org/2000/svg" xmlns:xlink="http://www.w3.org/1999/xlink">
<g id="graph0" class="graph" transform="scale(1 1) rotate(0) translate(4 199)">
<title>ArdourSurface::ArdourWebsockets</title>
<!-- Node1 -->
<g id="Node000001" class="node">
<title>Node1</title>
<g id="a_Node000001"><a xlink:title=" ">
<polygon fill="#999999" stroke="#666666" points="359.5,-19 177.5,-19 177.5,0 359.5,0 359.5,-19"/>
<text text-anchor="middle" x="268.5" y="-7" font-family="Helvetica,sans-Serif" font-size="10.00">ArdourSurface::ArdourWebsockets</text>
</a>
</g>
</g>
<!-- Node2 -->
<g id="Node000002" class="node">
<title>Node2</title>
<g id="a_Node000002"><a xlink:href="classARDOUR_1_1ControlProtocol.html" target="_top" xlink:title=" ">
<polygon fill="white" stroke="#666666" points="252.5,-79.5 112.5,-79.5 112.5,-60.5 252.5,-60.5 252.5,-79.5"/>
<text text-anchor="middle" x="182.5" y="-67.5" font-family="Helvetica,sans-Serif" font-size="10.00">ARDOUR::ControlProtocol</text>
</a>
</g>
</g>
<!-- Node2&#45;&gt;Node1 -->
<g id="edge1_Node000001_Node000002" class="edge">
<title>Node2&#45;&gt;Node1</title>
<g id="a_edge1_Node000001_Node000002"><a xlink:title=" ">
<path fill="none" stroke="#63b8ff" d="M203.58,-54.66C219.92,-43.55 242.02,-28.51 255.76,-19.17"/>
<polygon fill="#63b8ff" stroke="#63b8ff" points="201.49,-51.85 195.19,-60.37 205.43,-57.64 201.49,-51.85"/>
</a>
</g>
</g>
<!-- Node3 -->
<g id="Node000003" class="node">
<title>Node3</title>
<g id="a_Node000003"><a xlink:href="classPBD_1_1Stateful.html" target="_top" xlink:title=" ">
<polygon fill="white" stroke="#666666" points="81,-140 0,-140 0,-121 81,-121 81,-140"/>
<text text-anchor="middle" x="40.5" y="-128" font-family="Helvetica,sans-Serif" font-size="10.00">PBD::Stateful</text>
</a>
</g>
</g>
<!-- Node3&#45;&gt;Node2 -->
<g id="edge2_Node000002_Node000003" class="edge">
<title>Node3&#45;&gt;Node2</title>
<g id="a_edge2_Node000002_Node000003"><a xlink:title=" ">
<path fill="none" stroke="#63b8ff" d="M70.64,-117.08C98.07,-105.78 137.84,-89.4 161.83,-79.52"/>
<polygon fill="#63b8ff" stroke="#63b8ff" points="69.06,-113.95 61.15,-120.99 71.73,-120.42 69.06,-113.95"/>
</a>
</g>
</g>
<!-- Node4 -->
<g id="Node000004" class="node">
<title>Node4</title>
<g id="a_Node000004"><a xlink:href="classPBD_1_1ScopedConnectionList.html" target="_top" xlink:title=" ">
<polygon fill="white" stroke="#666666" points="249.5,-140 99.5,-140 99.5,-121 249.5,-121 249.5,-140"/>
<text text-anchor="middle" x="174.5" y="-128" font-family="Helvetica,sans-Serif" font-size="10.00">PBD::ScopedConnectionList</text>
</a>
</g>
</g>
<!-- Node4&#45;&gt;Node2 -->
<g id="edge3_Node000002_Node000004" class="edge">
<title>Node4&#45;&gt;Node2</title>
<g id="a_edge3_Node000002_Node000004"><a xlink:title=" ">
<path fill="none" stroke="#63b8ff" d="M177.08,-110.66C178.5,-100.24 180.2,-87.8 181.31,-79.67"/>
<polygon fill="#63b8ff" stroke="#63b8ff" points="173.57,-110.49 175.68,-120.87 180.5,-111.43 173.57,-110.49"/>
</a>
</g>
</g>
<!-- Node5 -->
<g id="Node000005" class="node">
<title>Node5</title>
<g id="a_Node000005"><a xlink:href="classBasicUI.html" target="_top" xlink:title=" ">
<polygon fill="white" stroke="#666666" points="320,-140 267,-140 267,-121 320,-121 320,-140"/>
<text text-anchor="middle" x="293.5" y="-128" font-family="Helvetica,sans-Serif" font-size="10.00">BasicUI</text>
</a>
</g>
</g>
<!-- Node5&#45;&gt;Node2 -->
<g id="edge4_Node000002_Node000005" class="edge">
<title>Node5&#45;&gt;Node2</title>
<g id="a_edge4_Node000002_Node000005"><a xlink:title=" ">
<path fill="none" stroke="#63b8ff" d="M268.03,-116.08C246.79,-104.88 217.17,-89.27 198.95,-79.67"/>
<polygon fill="#63b8ff" stroke="#63b8ff" points="266.64,-119.3 277.12,-120.87 269.91,-113.11 266.64,-119.3"/>
</a>
</g>
</g>
<!-- Node6 -->
<g id="Node000006" class="node">
<title>Node6</title>
<g id="a_Node000006"><a xlink:href="classAbstractUI.html" target="_top" xlink:title=" ">
<polygon fill="white" stroke="#666666" points="444,-85 275,-85 275,-55 444,-55 444,-85"/>
<text text-anchor="start" x="283" y="-73" font-family="Helvetica,sans-Serif" font-size="10.00">AbstractUI&lt; ArdourWebsockets</text>
<text text-anchor="middle" x="359.5" y="-62" font-family="Helvetica,sans-Serif" font-size="10.00">UIRequest &gt;</text>
</a>
</g>
</g>
<!-- Node6&#45;&gt;Node1 -->
<g id="edge5_Node000001_Node000006" class="edge">
<title>Node6&#45;&gt;Node1</title>
<g id="a_edge5_Node000001_Node000006"><a xlink:title=" ">
<path fill="none" stroke="#63b8ff" d="M328.93,-49.35C312.95,-39.07 294.2,-27.02 281.87,-19.09"/>
<polygon fill="#63b8ff" stroke="#63b8ff" points="327.17,-52.38 337.47,-54.84 330.95,-46.49 327.17,-52.38"/>
</a>
</g>
</g>
<!-- Node7 -->
<g id="Node000007" class="node">
<title>Node7</title>
<g id="a_Node000007"><a xlink:href="classBaseUI.html" target="_top" xlink:title=" ">
<polygon fill="white" stroke="#666666" points="389,-140 338,-140 338,-121 389,-121 389,-140"/>
<text text-anchor="middle" x="363.5" y="-128" font-family="Helvetica,sans-Serif" font-size="10.00">BaseUI</text>
</a>
</g>
</g>
<!-- Node7&#45;&gt;Node6 -->
<g id="edge6_Node000006_Node000007" class="edge">
<title>Node7&#45;&gt;Node6</title>
<g id="a_edge6_Node000006_Node000007"><a xlink:title=" ">
<path fill="none" stroke="#63b8ff" d="M362.21,-110.65C361.64,-102.36 360.99,-92.78 360.47,-85.11"/>
<polygon fill="#63b8ff" stroke="#63b8ff" points="358.74,-111.13 362.91,-120.87 365.72,-110.65 358.74,-111.13"/>
</a>
</g>
</g>
<!-- Node8 -->
<g id="Node000008" class="node">
<title>Node8</title>
<g id="a_Node000008"><a xlink:title=" ">
<polygon fill="white" stroke="#666666" points="352,-195 265,-195 265,-176 352,-176 352,-195"/>
<text text-anchor="middle" x="308.5" y="-183" font-family="Helvetica,sans-Serif" font-size="10.00">sigc::trackable</text>
</a>
</g>
</g>
<!-- Node8&#45;&gt;Node7 -->
<g id="edge7_Node000007_Node000008" class="edge">
<title>Node8&#45;&gt;Node7</title>
<g id="a_edge7_Node000007_Node000008"><a xlink:title=" ">
<path fill="none" stroke="#63b8ff" d="M324.79,-168.8C334.54,-159.41 346.55,-147.83 354.59,-140.09"/>
<polygon fill="#63b8ff" stroke="#63b8ff" points="322.35,-166.29 317.58,-175.75 327.21,-171.33 322.35,-166.29"/>
</a>
</g>
</g>
<!-- Node9 -->
<g id="Node000009" class="node">
<title>Node9</title>
<g id="a_Node000009"><a xlink:href="classPBD_1_1EventLoop.html" target="_top" xlink:title=" ">
<polygon fill="white" stroke="#666666" points="464.5,-195 370.5,-195 370.5,-176 464.5,-176 464.5,-195"/>
<text text-anchor="middle" x="417.5" y="-183" font-family="Helvetica,sans-Serif" font-size="10.00">PBD::EventLoop</text>
</a>
</g>
</g>
<!-- Node9&#45;&gt;Node7 -->
<g id="edge8_Node000007_Node000009" class="edge">
<title>Node9&#45;&gt;Node7</title>
<g id="a_edge8_Node000007_Node000009"><a xlink:title=" ">
<path fill="none" stroke="#63b8ff" d="M401.22,-168.52C391.7,-159.18 380.06,-147.75 372.25,-140.09"/>
<polygon fill="#63b8ff" stroke="#63b8ff" points="398.99,-171.24 408.58,-175.75 403.9,-166.25 398.99,-171.24"/>
</a>
</g>
</g>
</g>
</svg>
