<?xml version="1.0" encoding="UTF-8" standalone="no"?>
<!DOCTYPE svg PUBLIC "-//W3C//DTD SVG 1.1//EN"
 "http://www.w3.org/Graphics/SVG/1.1/DTD/svg11.dtd">
<!-- Generated by graphviz version 2.43.0 (0)
 -->
<!-- Title: ARDOUR::Muteable Pages: 1 -->
<svg width="392pt" height="192pt"
 viewBox="0.00 0.00 391.50 192.00" xmlns="http://www.w3.org/2000/svg" xmlns:xlink="http://www.w3.org/1999/xlink">
<g id="graph0" class="graph" transform="scale(1 1) rotate(0) translate(4 188)">
<title>ARDOUR::Muteable</title>
<!-- Node1 -->
<g id="Node000001" class="node">
<title>Node1</title>
<g id="a_Node000001"><a xlink:title=" ">
<polygon fill="#999999" stroke="#666666" points="305,-184 194,-184 194,-165 305,-165 305,-184"/>
<text text-anchor="middle" x="249.5" y="-172" font-family="Helvetica,sans-Serif" font-size="10.00">ARDOUR::Muteable</text>
</a>
</g>
</g>
<!-- Node2 -->
<g id="Node000002" class="node">
<title>Node2</title>
<g id="a_Node000002"><a xlink:href="classARDOUR_1_1Route.html" target="_top" xlink:title=" ">
<polygon fill="white" stroke="#666666" points="242.5,-129 148.5,-129 148.5,-110 242.5,-110 242.5,-129"/>
<text text-anchor="middle" x="195.5" y="-117" font-family="Helvetica,sans-Serif" font-size="10.00">ARDOUR::Route</text>
</a>
</g>
</g>
<!-- Node1&#45;&gt;Node2 -->
<g id="edge1_Node000001_Node000002" class="edge">
<title>Node1&#45;&gt;Node2</title>
<g id="a_edge1_Node000001_Node000002"><a xlink:title=" ">
<path fill="none" stroke="#63b8ff" d="M233.22,-157.52C223.7,-148.18 212.06,-136.75 204.25,-129.09"/>
<polygon fill="#63b8ff" stroke="#63b8ff" points="230.99,-160.24 240.58,-164.75 235.9,-155.25 230.99,-160.24"/>
</a>
</g>
</g>
<!-- Node7 -->
<g id="Node000007" class="node">
<title>Node7</title>
<g id="a_Node000007"><a xlink:href="classARDOUR_1_1VCA.html" target="_top" xlink:title=" ">
<polygon fill="white" stroke="#666666" points="346.5,-129 260.5,-129 260.5,-110 346.5,-110 346.5,-129"/>
<text text-anchor="middle" x="303.5" y="-117" font-family="Helvetica,sans-Serif" font-size="10.00">ARDOUR::VCA</text>
</a>
</g>
</g>
<!-- Node1&#45;&gt;Node7 -->
<g id="edge6_Node000001_Node000007" class="edge">
<title>Node1&#45;&gt;Node7</title>
<g id="a_edge6_Node000001_Node000007"><a xlink:title=" ">
<path fill="none" stroke="#63b8ff" d="M265.78,-157.52C275.3,-148.18 286.94,-136.75 294.75,-129.09"/>
<polygon fill="#63b8ff" stroke="#63b8ff" points="263.1,-155.25 258.42,-164.75 268.01,-160.24 263.1,-155.25"/>
</a>
</g>
</g>
<!-- Node3 -->
<g id="Node000003" class="node">
<title>Node3</title>
<g id="a_Node000003"><a xlink:href="classARDOUR_1_1Track.html" target="_top" xlink:title=" ">
<polygon fill="white" stroke="#666666" points="241,-74 150,-74 150,-55 241,-55 241,-74"/>
<text text-anchor="middle" x="195.5" y="-62" font-family="Helvetica,sans-Serif" font-size="10.00">ARDOUR::Track</text>
</a>
</g>
</g>
<!-- Node2&#45;&gt;Node3 -->
<g id="edge2_Node000002_Node000003" class="edge">
<title>Node2&#45;&gt;Node3</title>
<g id="a_edge2_Node000002_Node000003"><a xlink:title=" ">
<path fill="none" stroke="#63b8ff" d="M195.5,-99.66C195.5,-90.93 195.5,-80.99 195.5,-74.09"/>
<polygon fill="#63b8ff" stroke="#63b8ff" points="192,-99.75 195.5,-109.75 199,-99.75 192,-99.75"/>
</a>
</g>
</g>
<!-- Node4 -->
<g id="Node000004" class="node">
<title>Node4</title>
<g id="a_Node000004"><a xlink:href="classARDOUR_1_1AudioTrack.html" target="_top" xlink:title=" ">
<polygon fill="white" stroke="#666666" points="119,-19 0,-19 0,0 119,0 119,-19"/>
<text text-anchor="middle" x="59.5" y="-7" font-family="Helvetica,sans-Serif" font-size="10.00">ARDOUR::AudioTrack</text>
</a>
</g>
</g>
<!-- Node3&#45;&gt;Node4 -->
<g id="edge3_Node000003_Node000004" class="edge">
<title>Node3&#45;&gt;Node4</title>
<g id="a_edge3_Node000003_Node000004"><a xlink:title=" ">
<path fill="none" stroke="#63b8ff" d="M164.17,-51.29C138.96,-41.47 104.17,-27.91 81.75,-19.17"/>
<polygon fill="#63b8ff" stroke="#63b8ff" points="163.06,-54.61 173.65,-54.98 165.6,-48.09 163.06,-54.61"/>
</a>
</g>
</g>
<!-- Node5 -->
<g id="Node000005" class="node">
<title>Node5</title>
<g id="a_Node000005"><a xlink:href="classARDOUR_1_1Auditioner.html" target="_top" xlink:title=" ">
<polygon fill="white" stroke="#666666" points="253.5,-19 137.5,-19 137.5,0 253.5,0 253.5,-19"/>
<text text-anchor="middle" x="195.5" y="-7" font-family="Helvetica,sans-Serif" font-size="10.00">ARDOUR::Auditioner</text>
</a>
</g>
</g>
<!-- Node3&#45;&gt;Node5 -->
<g id="edge4_Node000003_Node000005" class="edge">
<title>Node3&#45;&gt;Node5</title>
<g id="a_edge4_Node000003_Node000005"><a xlink:title=" ">
<path fill="none" stroke="#63b8ff" d="M195.5,-44.66C195.5,-35.93 195.5,-25.99 195.5,-19.09"/>
<polygon fill="#63b8ff" stroke="#63b8ff" points="192,-44.75 195.5,-54.75 199,-44.75 192,-44.75"/>
</a>
</g>
</g>
<!-- Node6 -->
<g id="Node000006" class="node">
<title>Node6</title>
<g id="a_Node000006"><a xlink:href="classARDOUR_1_1MidiTrack.html" target="_top" xlink:title=" ">
<polygon fill="white" stroke="#666666" points="383.5,-19 271.5,-19 271.5,0 383.5,0 383.5,-19"/>
<text text-anchor="middle" x="327.5" y="-7" font-family="Helvetica,sans-Serif" font-size="10.00">ARDOUR::MidiTrack</text>
</a>
</g>
</g>
<!-- Node3&#45;&gt;Node6 -->
<g id="edge5_Node000003_Node000006" class="edge">
<title>Node3&#45;&gt;Node6</title>
<g id="a_edge5_Node000003_Node000006"><a xlink:title=" ">
<path fill="none" stroke="#63b8ff" d="M226.23,-51.16C250.67,-41.35 284.24,-27.87 305.91,-19.17"/>
<polygon fill="#63b8ff" stroke="#63b8ff" points="224.68,-48.01 216.71,-54.98 227.29,-54.51 224.68,-48.01"/>
</a>
</g>
</g>
</g>
</svg>
