<?xml version="1.0" encoding="UTF-8" standalone="no"?>
<!DOCTYPE svg PUBLIC "-//W3C//DTD SVG 1.1//EN"
 "http://www.w3.org/Graphics/SVG/1.1/DTD/svg11.dtd">
<!-- Generated by graphviz version 2.43.0 (0)
 -->
<!-- Title: ARDOUR::AlsaSeqMidiOut Pages: 1 -->
<svg width="288pt" height="137pt"
 viewBox="0.00 0.00 287.50 137.00" xmlns="http://www.w3.org/2000/svg" xmlns:xlink="http://www.w3.org/1999/xlink">
<g id="graph0" class="graph" transform="scale(1 1) rotate(0) translate(4 133)">
<title>ARDOUR::AlsaSeqMidiOut</title>
<!-- Node1 -->
<g id="Node000001" class="node">
<title>Node1</title>
<g id="a_Node000001"><a xlink:title=" ">
<polygon fill="#999999" stroke="#666666" points="213.5,-19 70.5,-19 70.5,0 213.5,0 213.5,-19"/>
<text text-anchor="middle" x="142" y="-7" font-family="Helvetica,sans-Serif" font-size="10.00">ARDOUR::AlsaSeqMidiOut</text>
</a>
</g>
</g>
<!-- Node2 -->
<g id="Node000002" class="node">
<title>Node2</title>
<g id="a_Node000002"><a xlink:href="classARDOUR_1_1AlsaSeqMidiIO.html" target="_top" xlink:title=" ">
<polygon fill="white" stroke="#666666" points="136,-74 0,-74 0,-55 136,-55 136,-74"/>
<text text-anchor="middle" x="68" y="-62" font-family="Helvetica,sans-Serif" font-size="10.00">ARDOUR::AlsaSeqMidiIO</text>
</a>
</g>
</g>
<!-- Node2&#45;&gt;Node1 -->
<g id="edge1_Node000001_Node000002" class="edge">
<title>Node2&#45;&gt;Node1</title>
<g id="a_edge1_Node000001_Node000002"><a xlink:title=" ">
<path fill="none" stroke="#63b8ff" d="M88.03,-49.15C101.41,-39.57 118.56,-27.29 129.89,-19.17"/>
<polygon fill="#63b8ff" stroke="#63b8ff" points="85.98,-46.32 79.89,-54.98 90.06,-52.01 85.98,-46.32"/>
</a>
</g>
</g>
<!-- Node3 -->
<g id="Node000003" class="node">
<title>Node3</title>
<g id="a_Node000003"><a xlink:href="classARDOUR_1_1AlsaMidiIO.html" target="_top" xlink:title=" ">
<polygon fill="white" stroke="#666666" points="201,-129 83,-129 83,-110 201,-110 201,-129"/>
<text text-anchor="middle" x="142" y="-117" font-family="Helvetica,sans-Serif" font-size="10.00">ARDOUR::AlsaMidiIO</text>
</a>
</g>
</g>
<!-- Node3&#45;&gt;Node2 -->
<g id="edge2_Node000002_Node000003" class="edge">
<title>Node3&#45;&gt;Node2</title>
<g id="a_edge2_Node000002_Node000003"><a xlink:title=" ">
<path fill="none" stroke="#63b8ff" d="M121.97,-104.15C108.59,-94.57 91.44,-82.29 80.11,-74.17"/>
<polygon fill="#63b8ff" stroke="#63b8ff" points="119.94,-107.01 130.11,-109.98 124.02,-101.32 119.94,-107.01"/>
</a>
</g>
</g>
<!-- Node4 -->
<g id="Node000004" class="node">
<title>Node4</title>
<g id="a_Node000004"><a xlink:href="classARDOUR_1_1AlsaMidiOut.html" target="_top" xlink:title=" ">
<polygon fill="white" stroke="#666666" points="279.5,-74 154.5,-74 154.5,-55 279.5,-55 279.5,-74"/>
<text text-anchor="middle" x="217" y="-62" font-family="Helvetica,sans-Serif" font-size="10.00">ARDOUR::AlsaMidiOut</text>
</a>
</g>
</g>
<!-- Node3&#45;&gt;Node4 -->
<g id="edge4_Node000004_Node000003" class="edge">
<title>Node3&#45;&gt;Node4</title>
<g id="a_edge4_Node000004_Node000003"><a xlink:title=" ">
<path fill="none" stroke="#63b8ff" d="M162.31,-104.15C175.86,-94.57 193.24,-82.29 204.73,-74.17"/>
<polygon fill="#63b8ff" stroke="#63b8ff" points="160.2,-101.36 154.05,-109.98 164.24,-107.07 160.2,-101.36"/>
</a>
</g>
</g>
<!-- Node4&#45;&gt;Node1 -->
<g id="edge3_Node000001_Node000004" class="edge">
<title>Node4&#45;&gt;Node1</title>
<g id="a_edge3_Node000001_Node000004"><a xlink:title=" ">
<path fill="none" stroke="#63b8ff" d="M196.69,-49.15C183.14,-39.57 165.76,-27.29 154.27,-19.17"/>
<polygon fill="#63b8ff" stroke="#63b8ff" points="194.76,-52.07 204.95,-54.98 198.8,-46.36 194.76,-52.07"/>
</a>
</g>
</g>
</g>
</svg>
