<?xml version="1.0" encoding="UTF-8" standalone="no"?>
<!DOCTYPE svg PUBLIC "-//W3C//DTD SVG 1.1//EN"
 "http://www.w3.org/Graphics/SVG/1.1/DTD/svg11.dtd">
<!-- Generated by graphviz version 2.43.0 (0)
 -->
<!-- Title: AudioGrapher::Throwing&lt; L &gt; Pages: 1 -->
<svg width="809pt" height="1226pt"
 viewBox="0.00 0.00 809.00 1225.50" xmlns="http://www.w3.org/2000/svg" xmlns:xlink="http://www.w3.org/1999/xlink">
<g id="graph0" class="graph" transform="scale(1 1) rotate(0) translate(4 1221.5)">
<title>AudioGrapher::Throwing&lt; L &gt;</title>
<!-- Node1 -->
<g id="Node000001" class="node">
<title>Node1</title>
<g id="a_Node000001"><a xlink:title=" ">
<polygon fill="#999999" stroke="#666666" points="162,-598 0,-598 0,-579 162,-579 162,-598"/>
<text text-anchor="middle" x="81" y="-586" font-family="Helvetica,sans-Serif" font-size="10.00">AudioGrapher::Throwing&lt; L &gt;</text>
</a>
</g>
</g>
<!-- Node2 -->
<g id="Node000002" class="node">
<title>Node2</title>
<g id="a_Node000002"><a xlink:href="classAudioGrapher_1_1CmdPipeWriter.html" target="_top" xlink:title=" ">
<polygon fill="white" stroke="#666666" points="376.5,-1217.5 213.5,-1217.5 213.5,-1187.5 376.5,-1187.5 376.5,-1217.5"/>
<text text-anchor="start" x="221.5" y="-1205.5" font-family="Helvetica,sans-Serif" font-size="10.00">AudioGrapher::CmdPipeWriter</text>
<text text-anchor="middle" x="295" y="-1194.5" font-family="Helvetica,sans-Serif" font-size="10.00">&lt; Sample &gt;</text>
</a>
</g>
</g>
<!-- Node1&#45;&gt;Node2 -->
<g id="edge1_Node000001_Node000002" class="edge">
<title>Node1&#45;&gt;Node2</title>
<g id="a_edge1_Node000001_Node000002"><a xlink:title=" ">
<path fill="none" stroke="#63b8ff" d="M83.12,-608.48C88.77,-701.74 117.05,-1093.33 198,-1178.5 202.38,-1183.11 207.5,-1186.88 213.05,-1189.97"/>
<polygon fill="#63b8ff" stroke="#63b8ff" points="86.61,-608.19 82.53,-598.41 79.62,-608.6 86.61,-608.19"/>
</a>
</g>
</g>
<!-- Node3 -->
<g id="Node000003" class="node">
<title>Node3</title>
<g id="a_Node000003"><a xlink:href="classAudioGrapher_1_1Interleaver.html" target="_top" xlink:title=" ">
<polygon fill="white" stroke="#666666" points="366.5,-1169.5 223.5,-1169.5 223.5,-1139.5 366.5,-1139.5 366.5,-1169.5"/>
<text text-anchor="start" x="231.5" y="-1157.5" font-family="Helvetica,sans-Serif" font-size="10.00">AudioGrapher::Interleaver</text>
<text text-anchor="middle" x="295" y="-1146.5" font-family="Helvetica,sans-Serif" font-size="10.00">&lt; Sample &gt;</text>
</a>
</g>
</g>
<!-- Node1&#45;&gt;Node3 -->
<g id="edge2_Node000001_Node000003" class="edge">
<title>Node1&#45;&gt;Node3</title>
<g id="a_edge2_Node000001_Node000003"><a xlink:title=" ">
<path fill="none" stroke="#63b8ff" d="M83.48,-608.22C90.48,-696.33 123.12,-1053.02 198,-1130.5 205.04,-1137.79 213.94,-1142.99 223.46,-1146.69"/>
<polygon fill="#63b8ff" stroke="#63b8ff" points="86.95,-607.73 82.69,-598.03 79.97,-608.27 86.95,-607.73"/>
</a>
</g>
</g>
<!-- Node4 -->
<g id="Node000004" class="node">
<title>Node4</title>
<g id="a_Node000004"><a xlink:href="classAudioGrapher_1_1ProcessContext.html" target="_top" xlink:title=" ">
<polygon fill="white" stroke="#666666" points="377.5,-1121.5 212.5,-1121.5 212.5,-1091.5 377.5,-1091.5 377.5,-1121.5"/>
<text text-anchor="start" x="220.5" y="-1109.5" font-family="Helvetica,sans-Serif" font-size="10.00">AudioGrapher::ProcessContext</text>
<text text-anchor="middle" x="295" y="-1098.5" font-family="Helvetica,sans-Serif" font-size="10.00">&lt; DefaultSampleType &gt;</text>
</a>
</g>
</g>
<!-- Node1&#45;&gt;Node4 -->
<g id="edge3_Node000001_Node000004" class="edge">
<title>Node1&#45;&gt;Node4</title>
<g id="a_edge3_Node000001_Node000004"><a xlink:title=" ">
<path fill="none" stroke="#63b8ff" d="M83.96,-608.58C92.51,-692.35 129.33,-1012.84 198,-1082.5 202.22,-1086.78 207.08,-1090.34 212.33,-1093.3"/>
<polygon fill="#63b8ff" stroke="#63b8ff" points="87.41,-607.98 82.94,-598.38 80.45,-608.68 87.41,-607.98"/>
</a>
</g>
</g>
<!-- Node5 -->
<g id="Node000005" class="node">
<title>Node5</title>
<g id="a_Node000005"><a xlink:href="classAudioGrapher_1_1ProcessContext.html" target="_top" xlink:title=" ">
<polygon fill="white" stroke="#666666" points="377.5,-1073.5 212.5,-1073.5 212.5,-1043.5 377.5,-1043.5 377.5,-1073.5"/>
<text text-anchor="start" x="220.5" y="-1061.5" font-family="Helvetica,sans-Serif" font-size="10.00">AudioGrapher::ProcessContext</text>
<text text-anchor="middle" x="295" y="-1050.5" font-family="Helvetica,sans-Serif" font-size="10.00">&lt; Sample &gt;</text>
</a>
</g>
</g>
<!-- Node1&#45;&gt;Node5 -->
<g id="edge4_Node000001_Node000005" class="edge">
<title>Node1&#45;&gt;Node5</title>
<g id="a_edge4_Node000001_Node000005"><a xlink:title=" ">
<path fill="none" stroke="#63b8ff" d="M84.44,-608.11C94.51,-686.02 135.29,-972.38 198,-1034.5 202.27,-1038.73 207.17,-1042.25 212.44,-1045.18"/>
<polygon fill="#63b8ff" stroke="#63b8ff" points="87.91,-607.66 83.18,-598.18 80.96,-608.54 87.91,-607.66"/>
</a>
</g>
</g>
<!-- Node6 -->
<g id="Node000006" class="node">
<title>Node6</title>
<g id="a_Node000006"><a xlink:href="classAudioGrapher_1_1ProcessContext.html" target="_top" xlink:title=" ">
<polygon fill="white" stroke="#666666" points="392,-1025 198,-1025 198,-1006 392,-1006 392,-1025"/>
<text text-anchor="middle" x="295" y="-1013" font-family="Helvetica,sans-Serif" font-size="10.00">AudioGrapher::ProcessContext&lt; T &gt;</text>
</a>
</g>
</g>
<!-- Node1&#45;&gt;Node6 -->
<g id="edge5_Node000001_Node000006" class="edge">
<title>Node1&#45;&gt;Node6</title>
<g id="a_edge5_Node000001_Node000006"><a xlink:title=" ">
<path fill="none" stroke="#63b8ff" d="M84.88,-608.39C96.05,-682.61 138.76,-941.91 198,-996.5 202,-1000.18 206.5,-1003.24 211.31,-1005.78"/>
<polygon fill="#63b8ff" stroke="#63b8ff" points="88.29,-607.51 83.37,-598.13 81.37,-608.53 88.29,-607.51"/>
</a>
</g>
</g>
<!-- Node7 -->
<g id="Node000007" class="node">
<title>Node7</title>
<g id="a_Node000007"><a xlink:href="classAudioGrapher_1_1SampleFormatConverter.html" target="_top" xlink:title=" ">
<polygon fill="white" stroke="#666666" points="375.5,-987.5 214.5,-987.5 214.5,-957.5 375.5,-957.5 375.5,-987.5"/>
<text text-anchor="start" x="222.5" y="-975.5" font-family="Helvetica,sans-Serif" font-size="10.00">AudioGrapher::SampleFormat</text>
<text text-anchor="middle" x="295" y="-964.5" font-family="Helvetica,sans-Serif" font-size="10.00">Converter&lt; Sample &gt;</text>
</a>
</g>
</g>
<!-- Node1&#45;&gt;Node7 -->
<g id="edge6_Node000001_Node000007" class="edge">
<title>Node1&#45;&gt;Node7</title>
<g id="a_edge6_Node000001_Node000007"><a xlink:title=" ">
<path fill="none" stroke="#63b8ff" d="M82.1,-608.45C83.52,-669.19 96.41,-853.47 198,-948.5 202.77,-952.96 208.24,-956.62 214.09,-959.63"/>
<polygon fill="#63b8ff" stroke="#63b8ff" points="85.59,-608.25 81.94,-598.31 78.59,-608.36 85.59,-608.25"/>
</a>
</g>
</g>
<!-- Node8 -->
<g id="Node000008" class="node">
<title>Node8</title>
<g id="a_Node000008"><a xlink:href="classAudioGrapher_1_1SampleFormatConverter.html" target="_top" xlink:title=" ">
<polygon fill="white" stroke="#666666" points="375.5,-939.5 214.5,-939.5 214.5,-909.5 375.5,-909.5 375.5,-939.5"/>
<text text-anchor="start" x="222.5" y="-927.5" font-family="Helvetica,sans-Serif" font-size="10.00">AudioGrapher::SampleFormat</text>
<text text-anchor="middle" x="295" y="-916.5" font-family="Helvetica,sans-Serif" font-size="10.00">Converter&lt; int &gt;</text>
</a>
</g>
</g>
<!-- Node1&#45;&gt;Node8 -->
<g id="edge7_Node000001_Node000008" class="edge">
<title>Node1&#45;&gt;Node8</title>
<g id="a_edge7_Node000001_Node000008"><a xlink:title=" ">
<path fill="none" stroke="#63b8ff" d="M83.21,-608.31C87.7,-663.49 108.14,-820.1 198,-900.5 202.87,-904.85 208.4,-908.44 214.3,-911.4"/>
<polygon fill="#63b8ff" stroke="#63b8ff" points="86.69,-607.87 82.48,-598.14 79.71,-608.37 86.69,-607.87"/>
</a>
</g>
</g>
<!-- Node9 -->
<g id="Node000009" class="node">
<title>Node9</title>
<g id="a_Node000009"><a xlink:href="classAudioGrapher_1_1SampleFormatConverter.html" target="_top" xlink:title=" ">
<polygon fill="white" stroke="#666666" points="375.5,-891.5 214.5,-891.5 214.5,-861.5 375.5,-861.5 375.5,-891.5"/>
<text text-anchor="start" x="222.5" y="-879.5" font-family="Helvetica,sans-Serif" font-size="10.00">AudioGrapher::SampleFormat</text>
<text text-anchor="middle" x="295" y="-868.5" font-family="Helvetica,sans-Serif" font-size="10.00">Converter&lt; short &gt;</text>
</a>
</g>
</g>
<!-- Node1&#45;&gt;Node9 -->
<g id="edge8_Node000001_Node000009" class="edge">
<title>Node1&#45;&gt;Node9</title>
<g id="a_edge8_Node000001_Node000009"><a xlink:title=" ">
<path fill="none" stroke="#63b8ff" d="M84.69,-608.19C92.48,-657.39 119.73,-786.46 198,-852.5 202.86,-856.6 208.32,-860.01 214.1,-862.86"/>
<polygon fill="#63b8ff" stroke="#63b8ff" points="88.14,-607.59 83.21,-598.22 81.21,-608.62 88.14,-607.59"/>
</a>
</g>
</g>
<!-- Node10 -->
<g id="Node000010" class="node">
<title>Node10</title>
<g id="a_Node000010"><a xlink:href="classAudioGrapher_1_1SilenceTrimmer.html" target="_top" xlink:title=" ">
<polygon fill="white" stroke="#666666" points="377.5,-843.5 212.5,-843.5 212.5,-813.5 377.5,-813.5 377.5,-843.5"/>
<text text-anchor="start" x="220.5" y="-831.5" font-family="Helvetica,sans-Serif" font-size="10.00">AudioGrapher::SilenceTrimmer</text>
<text text-anchor="middle" x="295" y="-820.5" font-family="Helvetica,sans-Serif" font-size="10.00">&lt; Sample &gt;</text>
</a>
</g>
</g>
<!-- Node1&#45;&gt;Node10 -->
<g id="edge9_Node000001_Node000010" class="edge">
<title>Node1&#45;&gt;Node10</title>
<g id="a_edge9_Node000001_Node000010"><a xlink:title=" ">
<path fill="none" stroke="#63b8ff" d="M86.72,-607.99C98.07,-650.6 131.09,-752.42 198,-804.5 202.34,-807.88 207.09,-810.78 212.09,-813.29"/>
<polygon fill="#63b8ff" stroke="#63b8ff" points="90.05,-606.88 84.18,-598.06 83.26,-608.62 90.05,-606.88"/>
</a>
</g>
</g>
<!-- Node11 -->
<g id="Node000011" class="node">
<title>Node11</title>
<g id="a_Node000011"><a xlink:href="classAudioGrapher_1_1SndfileReader.html" target="_top" xlink:title=" ">
<polygon fill="white" stroke="#666666" points="373.5,-795.5 216.5,-795.5 216.5,-765.5 373.5,-765.5 373.5,-795.5"/>
<text text-anchor="start" x="224.5" y="-783.5" font-family="Helvetica,sans-Serif" font-size="10.00">AudioGrapher::SndfileReader</text>
<text text-anchor="middle" x="295" y="-772.5" font-family="Helvetica,sans-Serif" font-size="10.00">&lt; DefaultSampleType &gt;</text>
</a>
</g>
</g>
<!-- Node1&#45;&gt;Node11 -->
<g id="edge10_Node000001_Node000011" class="edge">
<title>Node1&#45;&gt;Node11</title>
<g id="a_edge10_Node000001_Node000011"><a xlink:title=" ">
<path fill="none" stroke="#63b8ff" d="M89.82,-607.92C105.08,-643.24 142.28,-717.91 198,-756.5 203.65,-760.41 209.88,-763.69 216.36,-766.43"/>
<polygon fill="#63b8ff" stroke="#63b8ff" points="92.89,-606.17 85.79,-598.3 86.43,-608.88 92.89,-606.17"/>
</a>
</g>
</g>
<!-- Node12 -->
<g id="Node000012" class="node">
<title>Node12</title>
<g id="a_Node000012"><a xlink:href="classAudioGrapher_1_1SndfileReader.html" target="_top" xlink:title=" ">
<polygon fill="white" stroke="#666666" points="373.5,-747.5 216.5,-747.5 216.5,-717.5 373.5,-717.5 373.5,-747.5"/>
<text text-anchor="start" x="224.5" y="-735.5" font-family="Helvetica,sans-Serif" font-size="10.00">AudioGrapher::SndfileReader</text>
<text text-anchor="middle" x="295" y="-724.5" font-family="Helvetica,sans-Serif" font-size="10.00">&lt; Sample &gt;</text>
</a>
</g>
</g>
<!-- Node1&#45;&gt;Node12 -->
<g id="edge11_Node000001_Node000012" class="edge">
<title>Node1&#45;&gt;Node12</title>
<g id="a_edge11_Node000001_Node000012"><a xlink:title=" ">
<path fill="none" stroke="#63b8ff" d="M94.15,-606.35C113.14,-632.83 152.43,-682.19 198,-708.5 203.95,-711.94 210.39,-714.88 217.01,-717.41"/>
<polygon fill="#63b8ff" stroke="#63b8ff" points="96.92,-604.19 88.31,-598.02 91.19,-608.21 96.92,-604.19"/>
</a>
</g>
</g>
<!-- Node13 -->
<g id="Node000013" class="node">
<title>Node13</title>
<g id="a_Node000013"><a xlink:href="classAudioGrapher_1_1SndfileWriter.html" target="_top" xlink:title=" ">
<polygon fill="white" stroke="#666666" points="371,-699.5 219,-699.5 219,-669.5 371,-669.5 371,-699.5"/>
<text text-anchor="start" x="227" y="-687.5" font-family="Helvetica,sans-Serif" font-size="10.00">AudioGrapher::SndfileWriter</text>
<text text-anchor="middle" x="295" y="-676.5" font-family="Helvetica,sans-Serif" font-size="10.00">&lt; DefaultSampleType &gt;</text>
</a>
</g>
</g>
<!-- Node1&#45;&gt;Node13 -->
<g id="edge12_Node000001_Node000013" class="edge">
<title>Node1&#45;&gt;Node13</title>
<g id="a_edge12_Node000001_Node000013"><a xlink:title=" ">
<path fill="none" stroke="#63b8ff" d="M102.58,-604.05C124.97,-620.27 162.35,-645.42 198,-660.5 205.99,-663.88 214.56,-666.86 223.18,-669.47"/>
<polygon fill="#63b8ff" stroke="#63b8ff" points="104.63,-601.21 94.5,-598.1 100.48,-606.84 104.63,-601.21"/>
</a>
</g>
</g>
<!-- Node14 -->
<g id="Node000014" class="node">
<title>Node14</title>
<g id="a_Node000014"><a xlink:href="classAudioGrapher_1_1SndfileWriter.html" target="_top" xlink:title=" ">
<polygon fill="white" stroke="#666666" points="371,-651.5 219,-651.5 219,-621.5 371,-621.5 371,-651.5"/>
<text text-anchor="start" x="227" y="-639.5" font-family="Helvetica,sans-Serif" font-size="10.00">AudioGrapher::SndfileWriter</text>
<text text-anchor="middle" x="295" y="-628.5" font-family="Helvetica,sans-Serif" font-size="10.00">&lt; Sample &gt;</text>
</a>
</g>
</g>
<!-- Node1&#45;&gt;Node14 -->
<g id="edge13_Node000001_Node000014" class="edge">
<title>Node1&#45;&gt;Node14</title>
<g id="a_edge13_Node000001_Node000014"><a xlink:title=" ">
<path fill="none" stroke="#63b8ff" d="M134.2,-600.32C162.43,-606.71 197.59,-614.67 227.73,-621.5"/>
<polygon fill="#63b8ff" stroke="#63b8ff" points="134.66,-596.84 124.14,-598.04 133.12,-603.66 134.66,-596.84"/>
</a>
</g>
</g>
<!-- Node15 -->
<g id="Node000015" class="node">
<title>Node15</title>
<g id="a_Node000015"><a xlink:href="classAudioGrapher_1_1SndfileWriter.html" target="_top" xlink:title=" ">
<polygon fill="white" stroke="#666666" points="371,-603.5 219,-603.5 219,-573.5 371,-573.5 371,-603.5"/>
<text text-anchor="start" x="227" y="-591.5" font-family="Helvetica,sans-Serif" font-size="10.00">AudioGrapher::SndfileWriter</text>
<text text-anchor="middle" x="295" y="-580.5" font-family="Helvetica,sans-Serif" font-size="10.00">&lt; int &gt;</text>
</a>
</g>
</g>
<!-- Node1&#45;&gt;Node15 -->
<g id="edge14_Node000001_Node000015" class="edge">
<title>Node1&#45;&gt;Node15</title>
<g id="a_edge14_Node000001_Node000015"><a xlink:title=" ">
<path fill="none" stroke="#63b8ff" d="M172.29,-588.5C187.86,-588.5 203.88,-588.5 218.98,-588.5"/>
<polygon fill="#63b8ff" stroke="#63b8ff" points="172.15,-585 162.15,-588.5 172.15,-592 172.15,-585"/>
</a>
</g>
</g>
<!-- Node16 -->
<g id="Node000016" class="node">
<title>Node16</title>
<g id="a_Node000016"><a xlink:href="classAudioGrapher_1_1SndfileWriter.html" target="_top" xlink:title=" ">
<polygon fill="white" stroke="#666666" points="371,-555.5 219,-555.5 219,-525.5 371,-525.5 371,-555.5"/>
<text text-anchor="start" x="227" y="-543.5" font-family="Helvetica,sans-Serif" font-size="10.00">AudioGrapher::SndfileWriter</text>
<text text-anchor="middle" x="295" y="-532.5" font-family="Helvetica,sans-Serif" font-size="10.00">&lt; short &gt;</text>
</a>
</g>
</g>
<!-- Node1&#45;&gt;Node16 -->
<g id="edge15_Node000001_Node000016" class="edge">
<title>Node1&#45;&gt;Node16</title>
<g id="a_edge15_Node000001_Node000016"><a xlink:title=" ">
<path fill="none" stroke="#63b8ff" d="M134.2,-576.68C162.43,-570.29 197.59,-562.33 227.73,-555.5"/>
<polygon fill="#63b8ff" stroke="#63b8ff" points="133.12,-573.34 124.14,-578.96 134.66,-580.16 133.12,-573.34"/>
</a>
</g>
</g>
<!-- Node17 -->
<g id="Node000017" class="node">
<title>Node17</title>
<g id="a_Node000017"><a xlink:href="classAudioGrapher_1_1CmdPipeWriter.html" target="_top" xlink:title=" ">
<polygon fill="white" stroke="#666666" points="390.5,-507 199.5,-507 199.5,-488 390.5,-488 390.5,-507"/>
<text text-anchor="middle" x="295" y="-495" font-family="Helvetica,sans-Serif" font-size="10.00">AudioGrapher::CmdPipeWriter&lt; T &gt;</text>
</a>
</g>
</g>
<!-- Node1&#45;&gt;Node17 -->
<g id="edge16_Node000001_Node000017" class="edge">
<title>Node1&#45;&gt;Node17</title>
<g id="a_edge16_Node000001_Node000017"><a xlink:title=" ">
<path fill="none" stroke="#63b8ff" d="M102.08,-572.87C124.31,-556.36 161.79,-530.77 198,-516.5 207.8,-512.64 218.48,-509.53 229.05,-507.04"/>
<polygon fill="#63b8ff" stroke="#63b8ff" points="99.94,-570.1 94.08,-578.92 104.16,-575.68 99.94,-570.1"/>
</a>
</g>
</g>
<!-- Node18 -->
<g id="Node000018" class="node">
<title>Node18</title>
<g id="a_Node000018"><a xlink:href="classAudioGrapher_1_1DeInterleaver.html" target="_top" xlink:title="Converts on stream of interleaved data to many streams of uninterleaved data.">
<polygon fill="white" stroke="#666666" points="387.5,-470 202.5,-470 202.5,-451 387.5,-451 387.5,-470"/>
<text text-anchor="middle" x="295" y="-458" font-family="Helvetica,sans-Serif" font-size="10.00">AudioGrapher::DeInterleaver&lt; T &gt;</text>
</a>
</g>
</g>
<!-- Node1&#45;&gt;Node18 -->
<g id="edge17_Node000001_Node000018" class="edge">
<title>Node1&#45;&gt;Node18</title>
<g id="a_edge17_Node000001_Node000018"><a xlink:title=" ">
<path fill="none" stroke="#63b8ff" d="M95.52,-570.62C115.21,-545.96 154.22,-502.01 198,-479.5 205.56,-475.62 213.82,-472.52 222.23,-470.06"/>
<polygon fill="#63b8ff" stroke="#63b8ff" points="92.56,-568.73 89.17,-578.76 98.08,-573.03 92.56,-568.73"/>
</a>
</g>
</g>
<!-- Node19 -->
<g id="Node000019" class="node">
<title>Node19</title>
<g id="a_Node000019"><a xlink:href="classAudioGrapher_1_1DemoNoiseAdder.html" target="_top" xlink:title="Noise injector.">
<polygon fill="white" stroke="#666666" points="390.5,-433 199.5,-433 199.5,-414 390.5,-414 390.5,-433"/>
<text text-anchor="middle" x="295" y="-421" font-family="Helvetica,sans-Serif" font-size="10.00">AudioGrapher::DemoNoiseAdder&lt;&gt;</text>
</a>
</g>
</g>
<!-- Node1&#45;&gt;Node19 -->
<g id="edge18_Node000001_Node000019" class="edge">
<title>Node1&#45;&gt;Node19</title>
<g id="a_edge18_Node000001_Node000019"><a xlink:title=" ">
<path fill="none" stroke="#63b8ff" d="M91.29,-569.62C107.96,-537.85 146.12,-474.12 198,-442.5 204.38,-438.61 211.41,-435.49 218.67,-433"/>
<polygon fill="#63b8ff" stroke="#63b8ff" points="88.07,-568.22 86.64,-578.72 94.3,-571.41 88.07,-568.22"/>
</a>
</g>
</g>
<!-- Node20 -->
<g id="Node000020" class="node">
<title>Node20</title>
<g id="a_Node000020"><a xlink:href="classAudioGrapher_1_1Interleaver.html" target="_top" xlink:title="Interleaves many streams of non&#45;interleaved data into one interleaved stream.">
<polygon fill="white" stroke="#666666" points="380.5,-396 209.5,-396 209.5,-377 380.5,-377 380.5,-396"/>
<text text-anchor="middle" x="295" y="-384" font-family="Helvetica,sans-Serif" font-size="10.00">AudioGrapher::Interleaver&lt; T &gt;</text>
</a>
</g>
</g>
<!-- Node1&#45;&gt;Node20 -->
<g id="edge19_Node000001_Node000020" class="edge">
<title>Node1&#45;&gt;Node20</title>
<g id="a_edge19_Node000001_Node000020"><a xlink:title=" ">
<path fill="none" stroke="#63b8ff" d="M88.55,-568.67C102.27,-530.45 137.84,-446.71 198,-405.5 203.61,-401.66 209.8,-398.55 216.27,-396.05"/>
<polygon fill="#63b8ff" stroke="#63b8ff" points="85.09,-567.98 85.12,-578.58 91.7,-570.27 85.09,-567.98"/>
</a>
</g>
</g>
<!-- Node21 -->
<g id="Node000021" class="node">
<title>Node21</title>
<g id="a_Node000021"><a xlink:href="classAudioGrapher_1_1Limiter.html" target="_top" xlink:title=" ">
<polygon fill="white" stroke="#666666" points="365,-359 225,-359 225,-340 365,-340 365,-359"/>
<text text-anchor="middle" x="295" y="-347" font-family="Helvetica,sans-Serif" font-size="10.00">AudioGrapher::Limiter&lt;&gt;</text>
</a>
</g>
</g>
<!-- Node1&#45;&gt;Node21 -->
<g id="edge20_Node000001_Node000021" class="edge">
<title>Node1&#45;&gt;Node21</title>
<g id="a_edge20_Node000001_Node000021"><a xlink:title=" ">
<path fill="none" stroke="#63b8ff" d="M86.34,-568.68C97.03,-524.96 128.89,-420.01 198,-368.5 205.9,-362.61 215.15,-358.42 224.73,-355.45"/>
<polygon fill="#63b8ff" stroke="#63b8ff" points="82.89,-568.1 84.03,-578.64 89.7,-569.69 82.89,-568.1"/>
</a>
</g>
</g>
<!-- Node22 -->
<g id="Node000022" class="node">
<title>Node22</title>
<g id="a_Node000022"><a xlink:href="classAudioGrapher_1_1Normalizer.html" target="_top" xlink:title="A class for normalizing to a specified target in dB.">
<polygon fill="white" stroke="#666666" points="375,-322 215,-322 215,-303 375,-303 375,-322"/>
<text text-anchor="middle" x="295" y="-310" font-family="Helvetica,sans-Serif" font-size="10.00">AudioGrapher::Normalizer&lt;&gt;</text>
</a>
</g>
</g>
<!-- Node1&#45;&gt;Node22 -->
<g id="edge21_Node000001_Node000022" class="edge">
<title>Node1&#45;&gt;Node22</title>
<g id="a_edge21_Node000001_Node000022"><a xlink:title=" ">
<path fill="none" stroke="#63b8ff" d="M84.72,-568.78C92.53,-520.09 119.74,-393.64 198,-331.5 203.06,-327.49 208.73,-324.24 214.72,-321.63"/>
<polygon fill="#63b8ff" stroke="#63b8ff" points="81.22,-568.51 83.2,-578.92 88.14,-569.55 81.22,-568.51"/>
</a>
</g>
</g>
<!-- Node23 -->
<g id="Node000023" class="node">
<title>Node23</title>
<g id="a_Node000023"><a xlink:href="classAudioGrapher_1_1ProcessContext.html" target="_top" xlink:title=" ">
<polygon fill="white" stroke="#666666" points="392,-285 198,-285 198,-266 392,-266 392,-285"/>
<text text-anchor="middle" x="295" y="-273" font-family="Helvetica,sans-Serif" font-size="10.00">AudioGrapher::ProcessContext&lt; T &gt;</text>
</a>
</g>
</g>
<!-- Node1&#45;&gt;Node23 -->
<g id="edge22_Node000001_Node000023" class="edge">
<title>Node1&#45;&gt;Node23</title>
<g id="a_edge22_Node000001_Node000023"><a xlink:title=" ">
<path fill="none" stroke="#63b8ff" d="M83.51,-568.53C88.7,-514.99 110.65,-367.36 198,-294.5 202.57,-290.69 207.68,-287.57 213.1,-285.02"/>
<polygon fill="#63b8ff" stroke="#63b8ff" points="80.01,-568.46 82.62,-578.73 86.98,-569.07 80.01,-568.46"/>
</a>
</g>
</g>
<!-- Node26 -->
<g id="Node000026" class="node">
<title>Node26</title>
<g id="a_Node000026"><a xlink:href="classAudioGrapher_1_1SampleFormatConverter.html" target="_top" xlink:title=" ">
<polygon fill="white" stroke="#666666" points="375.5,-247.5 214.5,-247.5 214.5,-217.5 375.5,-217.5 375.5,-247.5"/>
<text text-anchor="start" x="222.5" y="-235.5" font-family="Helvetica,sans-Serif" font-size="10.00">AudioGrapher::SampleFormat</text>
<text text-anchor="middle" x="295" y="-224.5" font-family="Helvetica,sans-Serif" font-size="10.00">Converter&lt; TOut &gt;</text>
</a>
</g>
</g>
<!-- Node1&#45;&gt;Node26 -->
<g id="edge25_Node000001_Node000026" class="edge">
<title>Node1&#45;&gt;Node26</title>
<g id="a_edge25_Node000001_Node000026"><a xlink:title=" ">
<path fill="none" stroke="#63b8ff" d="M82.78,-568.69C86.13,-511.41 103.92,-344.14 198,-257.5 202.81,-253.07 208.31,-249.4 214.19,-246.37"/>
<polygon fill="#63b8ff" stroke="#63b8ff" points="79.27,-568.74 82.27,-578.9 86.26,-569.09 79.27,-568.74"/>
</a>
</g>
</g>
<!-- Node27 -->
<g id="Node000027" class="node">
<title>Node27</title>
<g id="a_Node000027"><a xlink:href="classAudioGrapher_1_1SampleRateConverter.html" target="_top" xlink:title="Samplerate converter.">
<polygon fill="white" stroke="#666666" points="369.5,-199.5 220.5,-199.5 220.5,-169.5 369.5,-169.5 369.5,-199.5"/>
<text text-anchor="start" x="228.5" y="-187.5" font-family="Helvetica,sans-Serif" font-size="10.00">AudioGrapher::SampleRate</text>
<text text-anchor="middle" x="295" y="-176.5" font-family="Helvetica,sans-Serif" font-size="10.00">Converter&lt;&gt;</text>
</a>
</g>
</g>
<!-- Node1&#45;&gt;Node27 -->
<g id="edge26_Node000001_Node000027" class="edge">
<title>Node1&#45;&gt;Node27</title>
<g id="a_edge26_Node000001_Node000027"><a xlink:title=" ">
<path fill="none" stroke="#63b8ff" d="M81.7,-568.71C81.89,-505.98 91.37,-309.8 198,-208.5 204.35,-202.47 211.98,-197.88 220.13,-194.41"/>
<polygon fill="#63b8ff" stroke="#63b8ff" points="78.2,-568.83 81.75,-578.81 85.2,-568.79 78.2,-568.83"/>
</a>
</g>
</g>
<!-- Node28 -->
<g id="Node000028" class="node">
<title>Node28</title>
<g id="a_Node000028"><a xlink:href="classAudioGrapher_1_1SilenceTrimmer.html" target="_top" xlink:title="Removes and adds silent samples to beginning and/or end of stream.">
<polygon fill="white" stroke="#666666" points="392,-151 198,-151 198,-132 392,-132 392,-151"/>
<text text-anchor="middle" x="295" y="-139" font-family="Helvetica,sans-Serif" font-size="10.00">AudioGrapher::SilenceTrimmer&lt; T &gt;</text>
</a>
</g>
</g>
<!-- Node1&#45;&gt;Node28 -->
<g id="edge27_Node000001_Node000028" class="edge">
<title>Node1&#45;&gt;Node28</title>
<g id="a_edge27_Node000001_Node000028"><a xlink:title=" ">
<path fill="none" stroke="#63b8ff" d="M84.6,-568.63C95.02,-492.14 136.16,-218.2 198,-160.5 201.98,-156.79 206.46,-153.71 211.26,-151.16"/>
<polygon fill="#63b8ff" stroke="#63b8ff" points="81.1,-568.41 83.24,-578.79 88.04,-569.34 81.1,-568.41"/>
</a>
</g>
</g>
<!-- Node29 -->
<g id="Node000029" class="node">
<title>Node29</title>
<g id="a_Node000029"><a xlink:href="classAudioGrapher_1_1SndfileReader.html" target="_top" xlink:title=" ">
<polygon fill="white" stroke="#666666" points="387.5,-77 202.5,-77 202.5,-58 387.5,-58 387.5,-77"/>
<text text-anchor="middle" x="295" y="-65" font-family="Helvetica,sans-Serif" font-size="10.00">AudioGrapher::SndfileReader&lt; T &gt;</text>
</a>
</g>
</g>
<!-- Node1&#45;&gt;Node29 -->
<g id="edge28_Node000001_Node000029" class="edge">
<title>Node1&#45;&gt;Node29</title>
<g id="a_edge28_Node000001_Node000029"><a xlink:title=" ">
<path fill="none" stroke="#63b8ff" d="M83.74,-568.81C91.59,-484.6 126.44,-155.82 198,-86.5 201.78,-82.84 206.06,-79.78 210.65,-77.24"/>
<polygon fill="#63b8ff" stroke="#63b8ff" points="80.25,-568.55 82.83,-578.83 87.22,-569.19 80.25,-568.55"/>
</a>
</g>
</g>
<!-- Node36 -->
<g id="Node000036" class="node">
<title>Node36</title>
<g id="a_Node000036"><a xlink:href="classAudioGrapher_1_1SndfileWriter.html" target="_top" xlink:title=" ">
<polygon fill="white" stroke="#666666" points="385.5,-114 204.5,-114 204.5,-95 385.5,-95 385.5,-114"/>
<text text-anchor="middle" x="295" y="-102" font-family="Helvetica,sans-Serif" font-size="10.00">AudioGrapher::SndfileWriter&lt; T &gt;</text>
</a>
</g>
</g>
<!-- Node1&#45;&gt;Node36 -->
<g id="edge35_Node000001_Node000036" class="edge">
<title>Node1&#45;&gt;Node36</title>
<g id="a_edge35_Node000001_Node000036"><a xlink:title=" ">
<path fill="none" stroke="#63b8ff" d="M84.16,-568.49C93.3,-487.72 131.38,-186.93 198,-123.5 201.94,-119.75 206.39,-116.64 211.17,-114.07"/>
<polygon fill="#63b8ff" stroke="#63b8ff" points="80.65,-568.44 83.02,-578.76 87.6,-569.21 80.65,-568.44"/>
</a>
</g>
</g>
<!-- Node24 -->
<g id="Node000024" class="node">
<title>Node24</title>
<g id="a_Node000024"><a xlink:href="classAudioGrapher_1_1AllocatingProcessContext.html" target="_top" xlink:title=" ">
<polygon fill="white" stroke="#666666" points="582.5,-314.5 430.5,-314.5 430.5,-284.5 582.5,-284.5 582.5,-314.5"/>
<text text-anchor="start" x="438.5" y="-302.5" font-family="Helvetica,sans-Serif" font-size="10.00">AudioGrapher::Allocating</text>
<text text-anchor="middle" x="506.5" y="-291.5" font-family="Helvetica,sans-Serif" font-size="10.00">ProcessContext&lt; Sample &gt;</text>
</a>
</g>
</g>
<!-- Node23&#45;&gt;Node24 -->
<g id="edge23_Node000023_Node000024" class="edge">
<title>Node23&#45;&gt;Node24</title>
<g id="a_edge23_Node000023_Node000024"><a xlink:title=" ">
<path fill="none" stroke="#63b8ff" d="M389.08,-286.16C402.88,-287.74 416.95,-289.36 430.32,-290.89"/>
<polygon fill="#63b8ff" stroke="#63b8ff" points="389.43,-282.68 379.1,-285.02 388.64,-289.64 389.43,-282.68"/>
</a>
</g>
</g>
<!-- Node25 -->
<g id="Node000025" class="node">
<title>Node25</title>
<g id="a_Node000025"><a xlink:href="classAudioGrapher_1_1AllocatingProcessContext.html" target="_top" xlink:title="A process context that allocates and owns it&#39;s data buffer.">
<polygon fill="white" stroke="#666666" points="575.5,-266.5 437.5,-266.5 437.5,-236.5 575.5,-236.5 575.5,-266.5"/>
<text text-anchor="start" x="445.5" y="-254.5" font-family="Helvetica,sans-Serif" font-size="10.00">AudioGrapher::Allocating</text>
<text text-anchor="middle" x="506.5" y="-243.5" font-family="Helvetica,sans-Serif" font-size="10.00">ProcessContext&lt; T &gt;</text>
</a>
</g>
</g>
<!-- Node23&#45;&gt;Node25 -->
<g id="edge24_Node000023_Node000025" class="edge">
<title>Node23&#45;&gt;Node25</title>
<g id="a_edge24_Node000023_Node000025"><a xlink:title=" ">
<path fill="none" stroke="#63b8ff" d="M389.13,-264.83C405.34,-262.97 421.93,-261.07 437.32,-259.31"/>
<polygon fill="#63b8ff" stroke="#63b8ff" points="388.64,-261.36 379.1,-265.98 389.43,-268.32 388.64,-261.36"/>
</a>
</g>
</g>
<!-- Node30 -->
<g id="Node000030" class="node">
<title>Node30</title>
<g id="a_Node000030"><a xlink:href="classAudioGrapher_1_1TmpFile.html" target="_top" xlink:title=" ">
<polygon fill="white" stroke="#666666" points="573.5,-170.5 439.5,-170.5 439.5,-140.5 573.5,-140.5 573.5,-170.5"/>
<text text-anchor="start" x="447.5" y="-158.5" font-family="Helvetica,sans-Serif" font-size="10.00">AudioGrapher::TmpFile</text>
<text text-anchor="middle" x="506.5" y="-147.5" font-family="Helvetica,sans-Serif" font-size="10.00">&lt; DefaultSampleType &gt;</text>
</a>
</g>
</g>
<!-- Node29&#45;&gt;Node30 -->
<g id="edge29_Node000029_Node000030" class="edge">
<title>Node29&#45;&gt;Node30</title>
<g id="a_edge29_Node000029_Node000030"><a xlink:title=" ">
<path fill="none" stroke="#63b8ff" d="M380.68,-80.66C384.61,-82.38 388.41,-84.32 392,-86.5 413.89,-99.79 406.83,-117.08 428,-131.5 433,-134.91 438.52,-137.85 444.22,-140.39"/>
<polygon fill="#63b8ff" stroke="#63b8ff" points="381.91,-77.38 371.32,-77.03 379.38,-83.91 381.91,-77.38"/>
</a>
</g>
</g>
<!-- Node31 -->
<g id="Node000031" class="node">
<title>Node31</title>
<g id="a_Node000031"><a xlink:href="classAudioGrapher_1_1TmpFile.html" target="_top" xlink:title=" ">
<polygon fill="white" stroke="#666666" points="570.5,-122.5 442.5,-122.5 442.5,-92.5 570.5,-92.5 570.5,-122.5"/>
<text text-anchor="start" x="450.5" y="-110.5" font-family="Helvetica,sans-Serif" font-size="10.00">AudioGrapher::TmpFile</text>
<text text-anchor="middle" x="506.5" y="-99.5" font-family="Helvetica,sans-Serif" font-size="10.00">&lt; Sample &gt;</text>
</a>
</g>
</g>
<!-- Node29&#45;&gt;Node31 -->
<g id="edge30_Node000029_Node000031" class="edge">
<title>Node29&#45;&gt;Node31</title>
<g id="a_edge30_Node000029_Node000031"><a xlink:title=" ">
<path fill="none" stroke="#63b8ff" d="M356.02,-78.96C383.08,-84.13 415.04,-90.23 442.44,-95.46"/>
<polygon fill="#63b8ff" stroke="#63b8ff" points="356.39,-75.47 345.91,-77.03 355.08,-82.34 356.39,-75.47"/>
</a>
</g>
</g>
<!-- Node32 -->
<g id="Node000032" class="node">
<title>Node32</title>
<g id="a_Node000032"><a xlink:href="classAudioGrapher_1_1Sndfile.html" target="_top" xlink:title=" ">
<polygon fill="white" stroke="#666666" points="582,-74 431,-74 431,-55 582,-55 582,-74"/>
<text text-anchor="middle" x="506.5" y="-62" font-family="Helvetica,sans-Serif" font-size="10.00">AudioGrapher::Sndfile&lt; T &gt;</text>
</a>
</g>
</g>
<!-- Node29&#45;&gt;Node32 -->
<g id="edge31_Node000029_Node000032" class="edge">
<title>Node29&#45;&gt;Node32</title>
<g id="a_edge31_Node000029_Node000032"><a xlink:title=" ">
<path fill="none" stroke="#63b8ff" d="M397.77,-66.04C408.89,-65.88 420.05,-65.72 430.75,-65.57"/>
<polygon fill="#63b8ff" stroke="#63b8ff" points="397.53,-62.55 387.58,-66.19 397.63,-69.54 397.53,-62.55"/>
</a>
</g>
</g>
<!-- Node33 -->
<g id="Node000033" class="node">
<title>Node33</title>
<g id="a_Node000033"><a xlink:href="classAudioGrapher_1_1TmpFile.html" target="_top" xlink:title="A temporary file deleted after this class is destructed.">
<polygon fill="white" stroke="#666666" points="585,-37 428,-37 428,-18 585,-18 585,-37"/>
<text text-anchor="middle" x="506.5" y="-25" font-family="Helvetica,sans-Serif" font-size="10.00">AudioGrapher::TmpFile&lt; T &gt;</text>
</a>
</g>
</g>
<!-- Node29&#45;&gt;Node33 -->
<g id="edge32_Node000029_Node000033" class="edge">
<title>Node29&#45;&gt;Node33</title>
<g id="a_edge32_Node000029_Node000033"><a xlink:title=" ">
<path fill="none" stroke="#63b8ff" d="M355.9,-56.06C387.45,-50.04 425.69,-42.74 455.61,-37.03"/>
<polygon fill="#63b8ff" stroke="#63b8ff" points="355.08,-52.66 345.91,-57.97 356.39,-59.53 355.08,-52.66"/>
</a>
</g>
</g>
<!-- Node34 -->
<g id="Node000034" class="node">
<title>Node34</title>
<g id="a_Node000034"><a xlink:href="classAudioGrapher_1_1TmpFileRt.html" target="_top" xlink:title=" ">
<polygon fill="white" stroke="#666666" points="794.5,-56 627.5,-56 627.5,-37 794.5,-37 794.5,-56"/>
<text text-anchor="middle" x="711" y="-44" font-family="Helvetica,sans-Serif" font-size="10.00">AudioGrapher::TmpFileRt&lt; T &gt;</text>
</a>
</g>
</g>
<!-- Node33&#45;&gt;Node34 -->
<g id="edge33_Node000033_Node000034" class="edge">
<title>Node33&#45;&gt;Node34</title>
<g id="a_edge33_Node000033_Node000034"><a xlink:title=" ">
<path fill="none" stroke="#63b8ff" d="M595.35,-35.74C606.01,-36.74 616.87,-37.76 627.45,-38.75"/>
<polygon fill="#63b8ff" stroke="#63b8ff" points="595.5,-32.24 585.21,-34.79 594.84,-39.21 595.5,-32.24"/>
</a>
</g>
</g>
<!-- Node35 -->
<g id="Node000035" class="node">
<title>Node35</title>
<g id="a_Node000035"><a xlink:href="classAudioGrapher_1_1TmpFileSync.html" target="_top" xlink:title="A temporary file deleted after this class is destructed.">
<polygon fill="white" stroke="#666666" points="801,-19 621,-19 621,0 801,0 801,-19"/>
<text text-anchor="middle" x="711" y="-7" font-family="Helvetica,sans-Serif" font-size="10.00">AudioGrapher::TmpFileSync&lt; T &gt;</text>
</a>
</g>
</g>
<!-- Node33&#45;&gt;Node35 -->
<g id="edge34_Node000033_Node000035" class="edge">
<title>Node33&#45;&gt;Node35</title>
<g id="a_edge34_Node000033_Node000035"><a xlink:title=" ">
<path fill="none" stroke="#63b8ff" d="M595.37,-19.69C603.75,-18.94 612.26,-18.19 620.66,-17.44"/>
<polygon fill="#63b8ff" stroke="#63b8ff" points="594.86,-16.22 585.21,-20.59 595.48,-23.19 594.86,-16.22"/>
</a>
</g>
</g>
<!-- Node36&#45;&gt;Node30 -->
<g id="edge36_Node000036_Node000030" class="edge">
<title>Node36&#45;&gt;Node30</title>
<g id="a_edge36_Node000036_Node000030"><a xlink:title=" ">
<path fill="none" stroke="#63b8ff" d="M357.86,-115.99C369.25,-118.32 381.01,-120.87 392,-123.5 412.91,-128.51 435.76,-134.79 455.44,-140.46"/>
<polygon fill="#63b8ff" stroke="#63b8ff" points="358.47,-112.54 347.98,-114.01 357.09,-119.41 358.47,-112.54"/>
</a>
</g>
</g>
<!-- Node36&#45;&gt;Node31 -->
<g id="edge37_Node000036_Node000031" class="edge">
<title>Node36&#45;&gt;Node31</title>
<g id="a_edge37_Node000036_Node000031"><a xlink:title=" ">
<path fill="none" stroke="#63b8ff" d="M396.11,-105.93C411.91,-106.16 427.85,-106.39 442.49,-106.6"/>
<polygon fill="#63b8ff" stroke="#63b8ff" points="395.81,-102.43 385.76,-105.79 395.71,-109.43 395.81,-102.43"/>
</a>
</g>
</g>
<!-- Node36&#45;&gt;Node32 -->
<g id="edge38_Node000036_Node000032" class="edge">
<title>Node36&#45;&gt;Node32</title>
<g id="a_edge38_Node000036_Node000032"><a xlink:title=" ">
<path fill="none" stroke="#63b8ff" d="M357.32,-93.06C368.84,-90.89 380.79,-88.64 392,-86.5 413.2,-82.46 436.6,-77.93 456.63,-74.04"/>
<polygon fill="#63b8ff" stroke="#63b8ff" points="356.51,-89.65 347.33,-94.94 357.8,-96.53 356.51,-89.65"/>
</a>
</g>
</g>
<!-- Node36&#45;&gt;Node33 -->
<g id="edge39_Node000036_Node000033" class="edge">
<title>Node36&#45;&gt;Node33</title>
<g id="a_edge39_Node000036_Node000033"><a xlink:title=" ">
<path fill="none" stroke="#63b8ff" d="M381.95,-91.41C385.41,-89.94 388.78,-88.31 392,-86.5 412.85,-74.79 407.48,-58.78 428,-46.5 434.54,-42.59 441.84,-39.48 449.29,-37.01"/>
<polygon fill="#63b8ff" stroke="#63b8ff" points="380.7,-88.14 372.57,-94.94 383.17,-94.69 380.7,-88.14"/>
</a>
</g>
</g>
</g>
</svg>
