<?xml version="1.0" encoding="UTF-8" standalone="no"?>
<!DOCTYPE svg PUBLIC "-//W3C//DTD SVG 1.1//EN"
 "http://www.w3.org/Graphics/SVG/1.1/DTD/svg11.dtd">
<!-- Generated by graphviz version 2.43.0 (0)
 -->
<!-- Title: Gtkmm2ext::VisibilityTracker Pages: 1 -->
<svg width="756pt" height="1248pt"
 viewBox="0.00 0.00 756.00 1248.00" xmlns="http://www.w3.org/2000/svg" xmlns:xlink="http://www.w3.org/1999/xlink">
<g id="graph0" class="graph" transform="scale(1 1) rotate(0) translate(4 1244)">
<title>Gtkmm2ext::VisibilityTracker</title>
<!-- Node1 -->
<g id="Node000001" class="node">
<title>Node1</title>
<g id="a_Node000001"><a xlink:title=" ">
<polygon fill="#999999" stroke="#666666" points="281,-610 123,-610 123,-591 281,-591 281,-610"/>
<text text-anchor="middle" x="202" y="-598" font-family="Helvetica,sans-Serif" font-size="10.00">Gtkmm2ext::VisibilityTracker</text>
</a>
</g>
</g>
<!-- Node3 -->
<g id="Node000003" class="node">
<title>Node3</title>
<g id="a_Node000003"><a xlink:href="classArdourWindow.html" target="_top" xlink:title=" ">
<polygon fill="white" stroke="#666666" points="405,-629 317,-629 317,-610 405,-610 405,-629"/>
<text text-anchor="middle" x="361" y="-617" font-family="Helvetica,sans-Serif" font-size="10.00">ArdourWindow</text>
</a>
</g>
</g>
<!-- Node1&#45;&gt;Node3 -->
<g id="edge2_Node000001_Node000003" class="edge">
<title>Node1&#45;&gt;Node3</title>
<g id="a_edge2_Node000001_Node000003"><a xlink:title=" ">
<path fill="none" stroke="#63b8ff" d="M291.12,-611.16C300.01,-612.24 308.73,-613.29 316.81,-614.27"/>
<polygon fill="#63b8ff" stroke="#63b8ff" points="291.39,-607.67 281.04,-609.94 290.55,-614.62 291.39,-607.67"/>
</a>
</g>
</g>
<!-- Node41 -->
<g id="Node000041" class="node">
<title>Node41</title>
<g id="a_Node000041"><a xlink:href="classMeterbridge.html" target="_top" xlink:title=" ">
<polygon fill="white" stroke="#666666" points="399,-592 323,-592 323,-573 399,-573 399,-592"/>
<text text-anchor="middle" x="361" y="-580" font-family="Helvetica,sans-Serif" font-size="10.00">Meterbridge</text>
</a>
</g>
</g>
<!-- Node1&#45;&gt;Node41 -->
<g id="edge40_Node000001_Node000041" class="edge">
<title>Node1&#45;&gt;Node41</title>
<g id="a_edge40_Node000001_Node000041"><a xlink:title=" ">
<path fill="none" stroke="#63b8ff" d="M291.3,-590.38C302.42,-589.1 313.27,-587.86 322.94,-586.75"/>
<polygon fill="#63b8ff" stroke="#63b8ff" points="290.58,-586.94 281.04,-591.55 291.37,-593.89 290.58,-586.94"/>
</a>
</g>
</g>
<!-- Node2 -->
<g id="Node000002" class="node">
<title>Node2</title>
<g id="a_Node000002"><a xlink:title=" ">
<polygon fill="white" stroke="#666666" points="87,-610 0,-610 0,-591 87,-591 87,-610"/>
<text text-anchor="middle" x="43.5" y="-598" font-family="Helvetica,sans-Serif" font-size="10.00">sigc::trackable</text>
</a>
</g>
</g>
<!-- Node2&#45;&gt;Node1 -->
<g id="edge1_Node000001_Node000002" class="edge">
<title>Node2&#45;&gt;Node1</title>
<g id="a_edge1_Node000001_Node000002"><a xlink:title=" ">
<path fill="none" stroke="#63b8ff" d="M97.38,-600.5C105.57,-600.5 114.18,-600.5 122.78,-600.5"/>
<polygon fill="#63b8ff" stroke="#63b8ff" points="97.26,-597 87.26,-600.5 97.26,-604 97.26,-597"/>
</a>
</g>
</g>
<!-- Node4 -->
<g id="Node000004" class="node">
<title>Node4</title>
<g id="a_Node000004"><a xlink:href="classBigClockWindow.html" target="_top" xlink:title=" ">
<polygon fill="white" stroke="#666666" points="568,-1240 470,-1240 470,-1221 568,-1221 568,-1240"/>
<text text-anchor="middle" x="519" y="-1228" font-family="Helvetica,sans-Serif" font-size="10.00">BigClockWindow</text>
</a>
</g>
</g>
<!-- Node3&#45;&gt;Node4 -->
<g id="edge3_Node000003_Node000004" class="edge">
<title>Node3&#45;&gt;Node4</title>
<g id="a_edge3_Node000003_Node000004"><a xlink:title=" ">
<path fill="none" stroke="#63b8ff" d="M361.74,-639.54C360.96,-733.08 362.45,-1125.92 441,-1212.5 448.47,-1220.74 458.92,-1225.56 469.72,-1228.31"/>
<polygon fill="#63b8ff" stroke="#63b8ff" points="365.24,-639.47 361.85,-629.44 358.24,-639.4 365.24,-639.47"/>
</a>
</g>
</g>
<!-- Node5 -->
<g id="Node000005" class="node">
<title>Node5</title>
<g id="a_Node000005"><a xlink:href="classBigTransportWindow.html" target="_top" xlink:title=" ">
<polygon fill="white" stroke="#666666" points="577,-1203 461,-1203 461,-1184 577,-1184 577,-1203"/>
<text text-anchor="middle" x="519" y="-1191" font-family="Helvetica,sans-Serif" font-size="10.00">BigTransportWindow</text>
</a>
</g>
</g>
<!-- Node3&#45;&gt;Node5 -->
<g id="edge4_Node000003_Node000005" class="edge">
<title>Node3&#45;&gt;Node5</title>
<g id="a_edge4_Node000003_Node000005"><a xlink:title=" ">
<path fill="none" stroke="#63b8ff" d="M361.94,-639.41C362.08,-729.11 367.22,-1094.88 441,-1175.5 446.38,-1181.37 453.27,-1185.51 460.71,-1188.39"/>
<polygon fill="#63b8ff" stroke="#63b8ff" points="365.44,-639.25 361.94,-629.25 358.44,-639.25 365.44,-639.25"/>
</a>
</g>
</g>
<!-- Node6 -->
<g id="Node000006" class="node">
<title>Node6</title>
<g id="a_Node000006"><a xlink:href="classDspStatisticsWindow.html" target="_top" xlink:title=" ">
<polygon fill="white" stroke="#666666" points="578.5,-1166 459.5,-1166 459.5,-1147 578.5,-1147 578.5,-1166"/>
<text text-anchor="middle" x="519" y="-1154" font-family="Helvetica,sans-Serif" font-size="10.00">DspStatisticsWindow</text>
</a>
</g>
</g>
<!-- Node3&#45;&gt;Node6 -->
<g id="edge5_Node000003_Node000006" class="edge">
<title>Node3&#45;&gt;Node6</title>
<g id="a_edge5_Node000003_Node000006"><a xlink:title=" ">
<path fill="none" stroke="#63b8ff" d="M362.16,-639.15C363.25,-724.72 371.95,-1063.79 441,-1138.5 446.03,-1143.94 452.37,-1147.89 459.23,-1150.73"/>
<polygon fill="#63b8ff" stroke="#63b8ff" points="365.66,-638.97 362.05,-629.01 358.66,-639.05 365.66,-638.97"/>
</a>
</g>
</g>
<!-- Node7 -->
<g id="Node000007" class="node">
<title>Node7</title>
<g id="a_Node000007"><a xlink:href="classGlobalPortMatrixWindow.html" target="_top" xlink:title=" ">
<polygon fill="white" stroke="#666666" points="588,-1129 450,-1129 450,-1110 588,-1110 588,-1129"/>
<text text-anchor="middle" x="519" y="-1117" font-family="Helvetica,sans-Serif" font-size="10.00">GlobalPortMatrixWindow</text>
</a>
</g>
</g>
<!-- Node3&#45;&gt;Node7 -->
<g id="edge6_Node000003_Node000007" class="edge">
<title>Node3&#45;&gt;Node7</title>
<g id="a_edge6_Node000003_Node000007"><a xlink:title=" ">
<path fill="none" stroke="#63b8ff" d="M362.42,-639.55C364.56,-721.89 376.83,-1032.87 441,-1101.5 444.09,-1104.81 447.67,-1107.56 451.55,-1109.85"/>
<polygon fill="#63b8ff" stroke="#63b8ff" points="365.91,-639.03 362.17,-629.12 358.91,-639.2 365.91,-639.03"/>
</a>
</g>
</g>
<!-- Node8 -->
<g id="Node000008" class="node">
<title>Node8</title>
<g id="a_Node000008"><a xlink:href="classIOPluginWindow.html" target="_top" xlink:title=" ">
<polygon fill="white" stroke="#666666" points="567,-1092 471,-1092 471,-1073 567,-1073 567,-1092"/>
<text text-anchor="middle" x="519" y="-1080" font-family="Helvetica,sans-Serif" font-size="10.00">IOPluginWindow</text>
</a>
</g>
</g>
<!-- Node3&#45;&gt;Node8 -->
<g id="edge7_Node000003_Node000008" class="edge">
<title>Node3&#45;&gt;Node8</title>
<g id="a_edge7_Node000003_Node000008"><a xlink:title=" ">
<path fill="none" stroke="#63b8ff" d="M362.72,-639.5C365.93,-717.73 381.58,-1001.79 441,-1064.5 448.84,-1072.77 459.69,-1077.57 470.77,-1080.28"/>
<polygon fill="#63b8ff" stroke="#63b8ff" points="366.2,-638.99 362.32,-629.14 359.21,-639.26 366.2,-638.99"/>
</a>
</g>
</g>
<!-- Node9 -->
<g id="Node000009" class="node">
<title>Node9</title>
<g id="a_Node000009"><a xlink:href="classIOSelectorWindow.html" target="_top" xlink:title=" ">
<polygon fill="white" stroke="#666666" points="572,-1055 466,-1055 466,-1036 572,-1036 572,-1055"/>
<text text-anchor="middle" x="519" y="-1043" font-family="Helvetica,sans-Serif" font-size="10.00">IOSelectorWindow</text>
</a>
</g>
</g>
<!-- Node3&#45;&gt;Node9 -->
<g id="edge8_Node000003_Node000009" class="edge">
<title>Node3&#45;&gt;Node9</title>
<g id="a_edge8_Node000003_Node000009"><a xlink:title=" ">
<path fill="none" stroke="#63b8ff" d="M363.05,-639.24C367.39,-712.94 386.27,-970.63 441,-1027.5 447.66,-1034.42 456.44,-1038.91 465.68,-1041.77"/>
<polygon fill="#63b8ff" stroke="#63b8ff" points="366.54,-638.84 362.48,-629.05 359.55,-639.24 366.54,-638.84"/>
</a>
</g>
</g>
<!-- Node10 -->
<g id="Node000010" class="node">
<title>Node10</title>
<g id="a_Node000010"><a xlink:href="classKeyEditor.html" target="_top" xlink:title=" ">
<polygon fill="white" stroke="#666666" points="550.5,-1018 487.5,-1018 487.5,-999 550.5,-999 550.5,-1018"/>
<text text-anchor="middle" x="519" y="-1006" font-family="Helvetica,sans-Serif" font-size="10.00">KeyEditor</text>
</a>
</g>
</g>
<!-- Node3&#45;&gt;Node10 -->
<g id="edge9_Node000003_Node000010" class="edge">
<title>Node3&#45;&gt;Node10</title>
<g id="a_edge9_Node000003_Node000010"><a xlink:title=" ">
<path fill="none" stroke="#63b8ff" d="M363.46,-639.23C369.01,-708.54 391,-939.5 441,-990.5 452.92,-1002.66 471.36,-1007.26 487.2,-1008.77"/>
<polygon fill="#63b8ff" stroke="#63b8ff" points="366.95,-638.91 362.69,-629.21 359.97,-639.45 366.95,-638.91"/>
</a>
</g>
</g>
<!-- Node11 -->
<g id="Node000011" class="node">
<title>Node11</title>
<g id="a_Node000011"><a xlink:href="classLocationUIWindow.html" target="_top" xlink:title=" ">
<polygon fill="white" stroke="#666666" points="572.5,-981 465.5,-981 465.5,-962 572.5,-962 572.5,-981"/>
<text text-anchor="middle" x="519" y="-969" font-family="Helvetica,sans-Serif" font-size="10.00">LocationUIWindow</text>
</a>
</g>
</g>
<!-- Node3&#45;&gt;Node11 -->
<g id="edge10_Node000003_Node000011" class="edge">
<title>Node3&#45;&gt;Node11</title>
<g id="a_edge10_Node000003_Node000011"><a xlink:title=" ">
<path fill="none" stroke="#63b8ff" d="M363.98,-639.32C370.84,-704.16 395.73,-908.35 441,-953.5 447.61,-960.09 456.14,-964.45 465.11,-967.3"/>
<polygon fill="#63b8ff" stroke="#63b8ff" points="367.44,-638.81 362.94,-629.22 360.48,-639.52 367.44,-638.81"/>
</a>
</g>
</g>
<!-- Node12 -->
<g id="Node000012" class="node">
<title>Node12</title>
<g id="a_Node000012"><a xlink:href="classLuaScriptManager.html" target="_top" xlink:title=" ">
<polygon fill="white" stroke="#666666" points="571,-944 467,-944 467,-925 571,-925 571,-944"/>
<text text-anchor="middle" x="519" y="-932" font-family="Helvetica,sans-Serif" font-size="10.00">LuaScriptManager</text>
</a>
</g>
</g>
<!-- Node3&#45;&gt;Node12 -->
<g id="edge11_Node000003_Node000012" class="edge">
<title>Node3&#45;&gt;Node12</title>
<g id="a_edge11_Node000003_Node000012"><a xlink:title=" ">
<path fill="none" stroke="#63b8ff" d="M364.56,-639.05C372.79,-698.75 400.35,-877.06 441,-916.5 448.09,-923.38 457.29,-927.82 466.84,-930.64"/>
<polygon fill="#63b8ff" stroke="#63b8ff" points="368.02,-638.49 363.22,-629.05 361.08,-639.43 368.02,-638.49"/>
</a>
</g>
</g>
<!-- Node13 -->
<g id="Node000013" class="node">
<title>Node13</title>
<g id="a_Node000013"><a xlink:href="classLuaWindow.html" target="_top" xlink:title=" ">
<polygon fill="white" stroke="#666666" points="555.5,-907 482.5,-907 482.5,-888 555.5,-888 555.5,-907"/>
<text text-anchor="middle" x="519" y="-895" font-family="Helvetica,sans-Serif" font-size="10.00">LuaWindow</text>
</a>
</g>
</g>
<!-- Node3&#45;&gt;Node13 -->
<g id="edge12_Node000003_Node000013" class="edge">
<title>Node3&#45;&gt;Node13</title>
<g id="a_edge12_Node000003_Node000013"><a xlink:title=" ">
<path fill="none" stroke="#63b8ff" d="M361.76,-639.08C362.29,-687.5 370.71,-813.66 441,-879.5 452.02,-889.82 467.79,-894.6 482.19,-896.69"/>
<polygon fill="#63b8ff" stroke="#63b8ff" points="365.26,-639.01 361.76,-629.01 358.26,-639.01 365.26,-639.01"/>
</a>
</g>
</g>
<!-- Node14 -->
<g id="Node000014" class="node">
<title>Node14</title>
<g id="a_Node000014"><a xlink:href="classMidiChannelSelectorWindow.html" target="_top" xlink:title=" ">
<polygon fill="white" stroke="#666666" points="597,-870 441,-870 441,-851 597,-851 597,-870"/>
<text text-anchor="middle" x="519" y="-858" font-family="Helvetica,sans-Serif" font-size="10.00">MidiChannelSelectorWindow</text>
</a>
</g>
</g>
<!-- Node3&#45;&gt;Node14 -->
<g id="edge13_Node000003_Node000014" class="edge">
<title>Node3&#45;&gt;Node14</title>
<g id="a_edge13_Node000003_Node000014"><a xlink:title=" ">
<path fill="none" stroke="#63b8ff" d="M362.94,-639.51C366.11,-683.27 380.03,-787.94 441,-842.5 444.79,-845.89 449.08,-848.67 453.67,-850.96"/>
<polygon fill="#63b8ff" stroke="#63b8ff" points="366.42,-639.08 362.32,-629.31 359.43,-639.51 366.42,-639.08"/>
</a>
</g>
</g>
<!-- Node15 -->
<g id="Node000015" class="node">
<title>Node15</title>
<g id="a_Node000015"><a xlink:href="classMidiListEditor.html" target="_top" xlink:title=" ">
<polygon fill="white" stroke="#666666" points="560.5,-833 477.5,-833 477.5,-814 560.5,-814 560.5,-833"/>
<text text-anchor="middle" x="519" y="-821" font-family="Helvetica,sans-Serif" font-size="10.00">MidiListEditor</text>
</a>
</g>
</g>
<!-- Node3&#45;&gt;Node15 -->
<g id="edge14_Node000003_Node000015" class="edge">
<title>Node3&#45;&gt;Node15</title>
<g id="a_edge14_Node000003_Node000015"><a xlink:title=" ">
<path fill="none" stroke="#63b8ff" d="M364.5,-639.32C370.43,-677.58 388.95,-761.72 441,-805.5 451.09,-813.98 464.43,-818.64 477.18,-821.14"/>
<polygon fill="#63b8ff" stroke="#63b8ff" points="367.97,-638.82 363.1,-629.41 361.04,-639.8 367.97,-638.82"/>
</a>
</g>
</g>
<!-- Node16 -->
<g id="Node000016" class="node">
<title>Node16</title>
<g id="a_Node000016"><a xlink:href="classMidiTracer.html" target="_top" xlink:title=" ">
<polygon fill="white" stroke="#666666" points="552.5,-796 485.5,-796 485.5,-777 552.5,-777 552.5,-796"/>
<text text-anchor="middle" x="519" y="-784" font-family="Helvetica,sans-Serif" font-size="10.00">MidiTracer</text>
</a>
</g>
</g>
<!-- Node3&#45;&gt;Node16 -->
<g id="edge15_Node000003_Node000016" class="edge">
<title>Node3&#45;&gt;Node16</title>
<g id="a_edge15_Node000003_Node000016"><a xlink:title=" ">
<path fill="none" stroke="#63b8ff" d="M366.8,-639.34C375.69,-671.62 397.85,-735.25 441,-768.5 453.62,-778.22 470.61,-782.83 485.42,-784.96"/>
<polygon fill="#63b8ff" stroke="#63b8ff" points="370.11,-638.13 364.2,-629.33 363.33,-639.89 370.11,-638.13"/>
</a>
</g>
</g>
<!-- Node17 -->
<g id="Node000017" class="node">
<title>Node17</title>
<g id="a_Node000017"><a xlink:href="classOptionEditorWindow.html" target="_top" xlink:title=" ">
<polygon fill="white" stroke="#666666" points="577,-759 461,-759 461,-740 577,-740 577,-759"/>
<text text-anchor="middle" x="519" y="-747" font-family="Helvetica,sans-Serif" font-size="10.00">OptionEditorWindow</text>
</a>
</g>
</g>
<!-- Node3&#45;&gt;Node17 -->
<g id="edge16_Node000003_Node000017" class="edge">
<title>Node3&#45;&gt;Node17</title>
<g id="a_edge16_Node000003_Node000017"><a xlink:title=" ">
<path fill="none" stroke="#63b8ff" d="M370.02,-638.34C381.77,-663.6 406.14,-708.01 441,-731.5 447.03,-735.57 453.87,-738.72 460.92,-741.17"/>
<polygon fill="#63b8ff" stroke="#63b8ff" points="373.16,-636.79 365.88,-629.09 366.77,-639.64 373.16,-636.79"/>
</a>
</g>
</g>
<!-- Node19 -->
<g id="Node000019" class="node">
<title>Node19</title>
<g id="a_Node000019"><a xlink:href="classPanner2dWindow.html" target="_top" xlink:title=" ">
<polygon fill="white" stroke="#666666" points="569.5,-722 468.5,-722 468.5,-703 569.5,-703 569.5,-722"/>
<text text-anchor="middle" x="519" y="-710" font-family="Helvetica,sans-Serif" font-size="10.00">Panner2dWindow</text>
</a>
</g>
</g>
<!-- Node3&#45;&gt;Node19 -->
<g id="edge18_Node000003_Node000019" class="edge">
<title>Node3&#45;&gt;Node19</title>
<g id="a_edge18_Node000003_Node000019"><a xlink:title=" ">
<path fill="none" stroke="#63b8ff" d="M376.05,-637.1C390.55,-654.07 414.7,-679.22 441,-693.5 449.35,-698.03 458.79,-701.5 468.13,-704.15"/>
<polygon fill="#63b8ff" stroke="#63b8ff" points="378.47,-634.54 369.39,-629.08 373.08,-639.01 378.47,-634.54"/>
</a>
</g>
</g>
<!-- Node20 -->
<g id="Node000020" class="node">
<title>Node20</title>
<g id="a_Node000020"><a xlink:href="classPatchChangeTriggerWindow.html" target="_top" xlink:title=" ">
<polygon fill="white" stroke="#666666" points="595,-685 443,-685 443,-666 595,-666 595,-685"/>
<text text-anchor="middle" x="519" y="-673" font-family="Helvetica,sans-Serif" font-size="10.00">PatchChangeTriggerWindow</text>
</a>
</g>
</g>
<!-- Node3&#45;&gt;Node20 -->
<g id="edge19_Node000003_Node000020" class="edge">
<title>Node3&#45;&gt;Node20</title>
<g id="a_edge19_Node000003_Node000020"><a xlink:title=" ">
<path fill="none" stroke="#63b8ff" d="M388.98,-633.75C404,-641.26 423.2,-650.2 441,-656.5 451.13,-660.08 462.23,-663.24 472.77,-665.91"/>
<polygon fill="#63b8ff" stroke="#63b8ff" points="390.27,-630.48 379.78,-629.06 387.1,-636.72 390.27,-630.48"/>
</a>
</g>
</g>
<!-- Node21 -->
<g id="Node000021" class="node">
<title>Node21</title>
<g id="a_Node000021"><a xlink:href="classPianorollWindow.html" target="_top" xlink:title=" ">
<polygon fill="white" stroke="#666666" points="568,-648 470,-648 470,-629 568,-629 568,-648"/>
<text text-anchor="middle" x="519" y="-636" font-family="Helvetica,sans-Serif" font-size="10.00">PianorollWindow</text>
</a>
</g>
</g>
<!-- Node3&#45;&gt;Node21 -->
<g id="edge20_Node000003_Node000021" class="edge">
<title>Node3&#45;&gt;Node21</title>
<g id="a_edge20_Node000003_Node000021"><a xlink:title=" ">
<path fill="none" stroke="#63b8ff" d="M415.22,-625.98C432.94,-628.14 452.57,-630.53 469.88,-632.64"/>
<polygon fill="#63b8ff" stroke="#63b8ff" points="415.39,-622.48 405.04,-624.74 414.54,-629.43 415.39,-622.48"/>
</a>
</g>
</g>
<!-- Node22 -->
<g id="Node000022" class="node">
<title>Node22</title>
<g id="a_Node000022"><a xlink:href="classPluginDSPLoadWindow.html" target="_top" xlink:title=" ">
<polygon fill="white" stroke="#666666" points="583,-611 455,-611 455,-592 583,-592 583,-611"/>
<text text-anchor="middle" x="519" y="-599" font-family="Helvetica,sans-Serif" font-size="10.00">PluginDSPLoadWindow</text>
</a>
</g>
</g>
<!-- Node3&#45;&gt;Node22 -->
<g id="edge21_Node000003_Node000022" class="edge">
<title>Node3&#45;&gt;Node22</title>
<g id="a_edge21_Node000003_Node000022"><a xlink:title=" ">
<path fill="none" stroke="#63b8ff" d="M415.08,-613.38C427.9,-611.9 441.72,-610.3 454.95,-608.78"/>
<polygon fill="#63b8ff" stroke="#63b8ff" points="414.57,-609.91 405.04,-614.53 415.38,-616.86 414.57,-609.91"/>
</a>
</g>
</g>
<!-- Node23 -->
<g id="Node000023" class="node">
<title>Node23</title>
<g id="a_Node000023"><a xlink:href="classPluginManagerUI.html" target="_top" xlink:title=" ">
<polygon fill="white" stroke="#666666" points="569,-574 469,-574 469,-555 569,-555 569,-574"/>
<text text-anchor="middle" x="519" y="-562" font-family="Helvetica,sans-Serif" font-size="10.00">PluginManagerUI</text>
</a>
</g>
</g>
<!-- Node3&#45;&gt;Node23 -->
<g id="edge22_Node000003_Node000023" class="edge">
<title>Node3&#45;&gt;Node23</title>
<g id="a_edge22_Node000003_Node000023"><a xlink:title=" ">
<path fill="none" stroke="#63b8ff" d="M393.73,-605.68C397.54,-603.97 401.37,-602.21 405,-600.5 421.19,-592.88 424.18,-588.58 441,-582.5 450.04,-579.24 459.89,-576.41 469.44,-574.03"/>
<polygon fill="#63b8ff" stroke="#63b8ff" points="392.12,-602.57 384.41,-609.84 394.97,-608.96 392.12,-602.57"/>
</a>
</g>
</g>
<!-- Node24 -->
<g id="Node000024" class="node">
<title>Node24</title>
<g id="a_Node000024"><a xlink:href="classPluginPinDialog.html" target="_top" xlink:title=" ">
<polygon fill="white" stroke="#666666" points="565.5,-537 472.5,-537 472.5,-518 565.5,-518 565.5,-537"/>
<text text-anchor="middle" x="519" y="-525" font-family="Helvetica,sans-Serif" font-size="10.00">PluginPinDialog</text>
</a>
</g>
</g>
<!-- Node3&#45;&gt;Node24 -->
<g id="edge23_Node000003_Node000024" class="edge">
<title>Node3&#45;&gt;Node24</title>
<g id="a_edge23_Node000003_Node000024"><a xlink:title=" ">
<path fill="none" stroke="#63b8ff" d="M399.33,-604.71C401.32,-603.4 403.23,-602 405,-600.5 427.28,-581.6 417.06,-562.25 441,-545.5 450.22,-539.05 461.44,-534.88 472.42,-532.2"/>
<polygon fill="#63b8ff" stroke="#63b8ff" points="397.21,-601.89 390.21,-609.84 400.65,-607.99 397.21,-601.89"/>
</a>
</g>
</g>
<!-- Node25 -->
<g id="Node000025" class="node">
<title>Node25</title>
<g id="a_Node000025"><a xlink:href="classPluginUIWindow.html" target="_top" xlink:title=" ">
<polygon fill="white" stroke="#666666" points="567,-500 471,-500 471,-481 567,-481 567,-500"/>
<text text-anchor="middle" x="519" y="-488" font-family="Helvetica,sans-Serif" font-size="10.00">PluginUIWindow</text>
</a>
</g>
</g>
<!-- Node3&#45;&gt;Node25 -->
<g id="edge24_Node000003_Node000025" class="edge">
<title>Node3&#45;&gt;Node25</title>
<g id="a_edge24_Node000003_Node000025"><a xlink:title=" ">
<path fill="none" stroke="#63b8ff" d="M400.99,-604.15C402.41,-603.01 403.76,-601.8 405,-600.5 435.37,-568.79 407.81,-537.24 441,-508.5 449.3,-501.31 459.94,-496.86 470.63,-494.13"/>
<polygon fill="#63b8ff" stroke="#63b8ff" points="398.69,-601.47 392.18,-609.83 402.48,-607.35 398.69,-601.47"/>
</a>
</g>
</g>
<!-- Node26 -->
<g id="Node000026" class="node">
<title>Node26</title>
<g id="a_Node000026"><a xlink:href="classPortInsertWindow.html" target="_top" xlink:title=" ">
<polygon fill="white" stroke="#666666" points="570.5,-463 467.5,-463 467.5,-444 570.5,-444 570.5,-463"/>
<text text-anchor="middle" x="519" y="-451" font-family="Helvetica,sans-Serif" font-size="10.00">PortInsertWindow</text>
</a>
</g>
</g>
<!-- Node3&#45;&gt;Node26 -->
<g id="edge25_Node000003_Node000026" class="edge">
<title>Node3&#45;&gt;Node26</title>
<g id="a_edge25_Node000003_Node000026"><a xlink:title=" ">
<path fill="none" stroke="#63b8ff" d="M401.29,-604.19C402.61,-603.04 403.86,-601.82 405,-600.5 443.95,-555.49 398.03,-512.69 441,-471.5 448.24,-464.57 457.61,-460.12 467.3,-457.31"/>
<polygon fill="#63b8ff" stroke="#63b8ff" points="399.22,-601.36 392.95,-609.9 403.18,-607.13 399.22,-601.36"/>
</a>
</g>
</g>
<!-- Node27 -->
<g id="Node000027" class="node">
<title>Node27</title>
<g id="a_Node000027"><a xlink:href="classRTAWindow.html" target="_top" xlink:title=" ">
<polygon fill="white" stroke="#666666" points="555.5,-426 482.5,-426 482.5,-407 555.5,-407 555.5,-426"/>
<text text-anchor="middle" x="519" y="-414" font-family="Helvetica,sans-Serif" font-size="10.00">RTAWindow</text>
</a>
</g>
</g>
<!-- Node3&#45;&gt;Node27 -->
<g id="edge26_Node000003_Node000027" class="edge">
<title>Node3&#45;&gt;Node27</title>
<g id="a_edge26_Node000003_Node000027"><a xlink:title=" ">
<path fill="none" stroke="#63b8ff" d="M401.85,-603.85C402.98,-602.8 404.03,-601.69 405,-600.5 452.71,-542 388.05,-488.31 441,-434.5 451.69,-423.64 467.58,-418.81 482.16,-416.83"/>
<polygon fill="#63b8ff" stroke="#63b8ff" points="399.64,-601.13 393.58,-609.82 403.74,-606.8 399.64,-601.13"/>
</a>
</g>
</g>
<!-- Node28 -->
<g id="Node000028" class="node">
<title>Node28</title>
<g id="a_Node000028"><a xlink:href="classRegionEditorWindow.html" target="_top" xlink:title=" ">
<polygon fill="white" stroke="#666666" points="578,-389 460,-389 460,-370 578,-370 578,-389"/>
<text text-anchor="middle" x="519" y="-377" font-family="Helvetica,sans-Serif" font-size="10.00">RegionEditorWindow</text>
</a>
</g>
</g>
<!-- Node3&#45;&gt;Node28 -->
<g id="edge27_Node000003_Node000028" class="edge">
<title>Node3&#45;&gt;Node28</title>
<g id="a_edge27_Node000003_Node000028"><a xlink:title=" ">
<path fill="none" stroke="#63b8ff" d="M401.91,-603.89C403.02,-602.83 404.06,-601.7 405,-600.5 461.55,-528.4 377.98,-464.02 441,-397.5 446.19,-392.02 452.71,-388.06 459.74,-385.23"/>
<polygon fill="#63b8ff" stroke="#63b8ff" points="399.69,-601.18 393.71,-609.92 403.84,-606.82 399.69,-601.18"/>
</a>
</g>
</g>
<!-- Node29 -->
<g id="Node000029" class="node">
<title>Node29</title>
<g id="a_Node000029"><a xlink:href="classRegionLayeringOrderEditor.html" target="_top" xlink:title=" ">
<polygon fill="white" stroke="#666666" points="593,-352 445,-352 445,-333 593,-333 593,-352"/>
<text text-anchor="middle" x="519" y="-340" font-family="Helvetica,sans-Serif" font-size="10.00">RegionLayeringOrderEditor</text>
</a>
</g>
</g>
<!-- Node3&#45;&gt;Node29 -->
<g id="edge28_Node000003_Node000029" class="edge">
<title>Node3&#45;&gt;Node29</title>
<g id="a_edge28_Node000003_Node000029"><a xlink:title=" ">
<path fill="none" stroke="#63b8ff" d="M401.95,-603.93C403.05,-602.86 404.07,-601.72 405,-600.5 470.43,-514.75 367.87,-439.78 441,-360.5 444.07,-357.17 447.63,-354.4 451.5,-352.1"/>
<polygon fill="#63b8ff" stroke="#63b8ff" points="399.73,-601.21 393.8,-609.99 403.91,-606.83 399.73,-601.21"/>
</a>
</g>
</g>
<!-- Node30 -->
<g id="Node000030" class="node">
<title>Node30</title>
<g id="a_Node000030"><a xlink:href="classReturnUIWindow.html" target="_top" xlink:title=" ">
<polygon fill="white" stroke="#666666" points="568,-315 470,-315 470,-296 568,-296 568,-315"/>
<text text-anchor="middle" x="519" y="-303" font-family="Helvetica,sans-Serif" font-size="10.00">ReturnUIWindow</text>
</a>
</g>
</g>
<!-- Node3&#45;&gt;Node30 -->
<g id="edge29_Node000003_Node000030" class="edge">
<title>Node3&#45;&gt;Node30</title>
<g id="a_edge29_Node000003_Node000030"><a xlink:title=" ">
<path fill="none" stroke="#63b8ff" d="M402.4,-603.53C403.33,-602.57 404.2,-601.57 405,-600.5 479.34,-501.07 357.73,-415.58 441,-323.5 448.46,-315.25 458.91,-310.42 469.7,-307.67"/>
<polygon fill="#63b8ff" stroke="#63b8ff" points="400.07,-600.91 394.29,-609.79 404.35,-606.45 400.07,-600.91"/>
</a>
</g>
</g>
<!-- Node31 -->
<g id="Node000031" class="node">
<title>Node31</title>
<g id="a_Node000031"><a xlink:href="classRouteCommentEditor.html" target="_top" xlink:title=" ">
<polygon fill="white" stroke="#666666" points="580,-278 458,-278 458,-259 580,-259 580,-278"/>
<text text-anchor="middle" x="519" y="-266" font-family="Helvetica,sans-Serif" font-size="10.00">RouteCommentEditor</text>
</a>
</g>
</g>
<!-- Node3&#45;&gt;Node31 -->
<g id="edge30_Node000003_Node000031" class="edge">
<title>Node3&#45;&gt;Node31</title>
<g id="a_edge30_Node000003_Node000031"><a xlink:title=" ">
<path fill="none" stroke="#63b8ff" d="M402.42,-603.54C403.35,-602.59 404.21,-601.57 405,-600.5 488.26,-487.37 347.57,-391.39 441,-286.5 445.66,-281.27 451.51,-277.41 457.91,-274.58"/>
<polygon fill="#63b8ff" stroke="#63b8ff" points="400.09,-600.92 394.34,-609.83 404.39,-606.45 400.09,-600.92"/>
</a>
</g>
</g>
<!-- Node32 -->
<g id="Node000032" class="node">
<title>Node32</title>
<g id="a_Node000032"><a xlink:href="classRouteParams__UI.html" target="_top" xlink:title=" ">
<polygon fill="white" stroke="#666666" points="567.5,-241 470.5,-241 470.5,-222 567.5,-222 567.5,-241"/>
<text text-anchor="middle" x="519" y="-229" font-family="Helvetica,sans-Serif" font-size="10.00">RouteParams_UI</text>
</a>
</g>
</g>
<!-- Node3&#45;&gt;Node32 -->
<g id="edge31_Node000003_Node000032" class="edge">
<title>Node3&#45;&gt;Node32</title>
<g id="a_edge31_Node000003_Node000032"><a xlink:title=" ">
<path fill="none" stroke="#63b8ff" d="M402.44,-603.55C403.36,-602.59 404.22,-601.58 405,-600.5 451.1,-537.07 389.2,-308.36 441,-249.5 448.53,-240.95 459.27,-236.05 470.35,-233.33"/>
<polygon fill="#63b8ff" stroke="#63b8ff" points="400.1,-600.94 394.38,-609.86 404.42,-606.45 400.1,-600.94"/>
</a>
</g>
</g>
<!-- Node33 -->
<g id="Node000033" class="node">
<title>Node33</title>
<g id="a_Node000033"><a xlink:href="classSendUIWindow.html" target="_top" xlink:title=" ">
<polygon fill="white" stroke="#666666" points="564,-204 474,-204 474,-185 564,-185 564,-204"/>
<text text-anchor="middle" x="519" y="-192" font-family="Helvetica,sans-Serif" font-size="10.00">SendUIWindow</text>
</a>
</g>
</g>
<!-- Node3&#45;&gt;Node33 -->
<g id="edge32_Node000003_Node000033" class="edge">
<title>Node3&#45;&gt;Node33</title>
<g id="a_edge32_Node000003_Node000033"><a xlink:title=" ">
<path fill="none" stroke="#63b8ff" d="M402.45,-603.56C403.37,-602.6 404.22,-601.58 405,-600.5 455.57,-530.21 384.11,-277.78 441,-212.5 449.3,-202.98 461.58,-197.98 473.9,-195.47"/>
<polygon fill="#63b8ff" stroke="#63b8ff" points="400.12,-600.95 394.42,-609.88 404.44,-606.45 400.12,-600.95"/>
</a>
</g>
</g>
<!-- Node34 -->
<g id="Node000034" class="node">
<title>Node34</title>
<g id="a_Node000034"><a xlink:href="classSoundFileBrowser.html" target="_top" xlink:title=" ">
<polygon fill="white" stroke="#666666" points="571,-167 467,-167 467,-148 571,-148 571,-167"/>
<text text-anchor="middle" x="519" y="-155" font-family="Helvetica,sans-Serif" font-size="10.00">SoundFileBrowser</text>
</a>
</g>
</g>
<!-- Node3&#45;&gt;Node34 -->
<g id="edge33_Node000003_Node000034" class="edge">
<title>Node3&#45;&gt;Node34</title>
<g id="a_edge33_Node000003_Node000034"><a xlink:title=" ">
<path fill="none" stroke="#63b8ff" d="M402.47,-603.57C403.38,-602.61 404.23,-601.58 405,-600.5 460.04,-523.34 379.01,-247.2 441,-175.5 447.64,-167.81 456.88,-163.07 466.66,-160.2"/>
<polygon fill="#63b8ff" stroke="#63b8ff" points="400.13,-600.96 394.45,-609.9 404.46,-606.45 400.13,-600.96"/>
</a>
</g>
</g>
<!-- Node37 -->
<g id="Node000037" class="node">
<title>Node37</title>
<g id="a_Node000037"><a xlink:href="classSpeakerDialog.html" target="_top" xlink:title=" ">
<polygon fill="white" stroke="#666666" points="562.5,-130 475.5,-130 475.5,-111 562.5,-111 562.5,-130"/>
<text text-anchor="middle" x="519" y="-118" font-family="Helvetica,sans-Serif" font-size="10.00">SpeakerDialog</text>
</a>
</g>
</g>
<!-- Node3&#45;&gt;Node37 -->
<g id="edge36_Node000003_Node000037" class="edge">
<title>Node3&#45;&gt;Node37</title>
<g id="a_edge36_Node000003_Node000037"><a xlink:title=" ">
<path fill="none" stroke="#63b8ff" d="M402.47,-603.58C403.38,-602.61 404.23,-601.59 405,-600.5 464.52,-516.46 373.92,-216.63 441,-138.5 449.59,-128.5 462.56,-123.47 475.42,-121.09"/>
<polygon fill="#63b8ff" stroke="#63b8ff" points="400.14,-600.97 394.47,-609.92 404.48,-606.45 400.14,-600.97"/>
</a>
</g>
</g>
<!-- Node38 -->
<g id="Node000038" class="node">
<title>Node38</title>
<g id="a_Node000038"><a xlink:href="classStepEntry.html" target="_top" xlink:title=" ">
<polygon fill="white" stroke="#666666" points="551,-93 487,-93 487,-74 551,-74 551,-93"/>
<text text-anchor="middle" x="519" y="-81" font-family="Helvetica,sans-Serif" font-size="10.00">StepEntry</text>
</a>
</g>
</g>
<!-- Node3&#45;&gt;Node38 -->
<g id="edge37_Node000003_Node000038" class="edge">
<title>Node3&#45;&gt;Node38</title>
<g id="a_edge37_Node000003_Node000038"><a xlink:title=" ">
<path fill="none" stroke="#63b8ff" d="M402.48,-603.58C403.39,-602.62 404.23,-601.59 405,-600.5 469,-509.59 368.82,-186.06 441,-101.5 452.14,-88.45 470.76,-83.85 486.9,-82.56"/>
<polygon fill="#63b8ff" stroke="#63b8ff" points="400.14,-600.97 394.49,-609.93 404.5,-606.45 400.14,-600.97"/>
</a>
</g>
</g>
<!-- Node39 -->
<g id="Node000039" class="node">
<title>Node39</title>
<g id="a_Node000039"><a xlink:href="classTransportMastersWindow.html" target="_top" xlink:title=" ">
<polygon fill="white" stroke="#666666" points="589,-56 449,-56 449,-37 589,-37 589,-56"/>
<text text-anchor="middle" x="519" y="-44" font-family="Helvetica,sans-Serif" font-size="10.00">TransportMastersWindow</text>
</a>
</g>
</g>
<!-- Node3&#45;&gt;Node39 -->
<g id="edge38_Node000003_Node000039" class="edge">
<title>Node3&#45;&gt;Node39</title>
<g id="a_edge38_Node000003_Node000039"><a xlink:title=" ">
<path fill="none" stroke="#63b8ff" d="M402.49,-603.59C403.4,-602.62 404.24,-601.59 405,-600.5 473.48,-502.71 363.72,-155.49 441,-64.5 443.84,-61.15 447.18,-58.36 450.84,-56.04"/>
<polygon fill="#63b8ff" stroke="#63b8ff" points="400.15,-600.98 394.51,-609.94 404.51,-606.46 400.15,-600.98"/>
</a>
</g>
</g>
<!-- Node40 -->
<g id="Node000040" class="node">
<title>Node40</title>
<g id="a_Node000040"><a xlink:href="classVirtualKeyboardWindow.html" target="_top" xlink:title=" ">
<polygon fill="white" stroke="#666666" points="586,-19 452,-19 452,0 586,0 586,-19"/>
<text text-anchor="middle" x="519" y="-7" font-family="Helvetica,sans-Serif" font-size="10.00">VirtualKeyboardWindow</text>
</a>
</g>
</g>
<!-- Node3&#45;&gt;Node40 -->
<g id="edge39_Node000003_Node000040" class="edge">
<title>Node3&#45;&gt;Node40</title>
<g id="a_edge39_Node000003_Node000040"><a xlink:title=" ">
<path fill="none" stroke="#63b8ff" d="M402.5,-603.59C403.4,-602.62 404.24,-601.59 405,-600.5 477.96,-495.83 358.62,-124.92 441,-27.5 444.1,-23.83 447.8,-20.83 451.86,-18.38"/>
<polygon fill="#63b8ff" stroke="#63b8ff" points="400.16,-600.98 394.52,-609.95 404.52,-606.46 400.16,-600.98"/>
</a>
</g>
</g>
<!-- Node18 -->
<g id="Node000018" class="node">
<title>Node18</title>
<g id="a_Node000018"><a xlink:href="classSessionOptionEditor.html" target="_top" xlink:title=" ">
<polygon fill="white" stroke="#666666" points="748,-759 633,-759 633,-740 748,-740 748,-759"/>
<text text-anchor="middle" x="690.5" y="-747" font-family="Helvetica,sans-Serif" font-size="10.00">SessionOptionEditor</text>
</a>
</g>
</g>
<!-- Node17&#45;&gt;Node18 -->
<g id="edge17_Node000017_Node000018" class="edge">
<title>Node17&#45;&gt;Node18</title>
<g id="a_edge17_Node000017_Node000018"><a xlink:title=" ">
<path fill="none" stroke="#63b8ff" d="M587.6,-749.5C602.56,-749.5 618.27,-749.5 632.75,-749.5"/>
<polygon fill="#63b8ff" stroke="#63b8ff" points="587.39,-746 577.38,-749.5 587.38,-753 587.39,-746"/>
</a>
</g>
</g>
<!-- Node35 -->
<g id="Node000035" class="node">
<title>Node35</title>
<g id="a_Node000035"><a xlink:href="classSoundFileChooser.html" target="_top" xlink:title=" ">
<polygon fill="white" stroke="#666666" points="742.5,-186 638.5,-186 638.5,-167 742.5,-167 742.5,-186"/>
<text text-anchor="middle" x="690.5" y="-174" font-family="Helvetica,sans-Serif" font-size="10.00">SoundFileChooser</text>
</a>
</g>
</g>
<!-- Node34&#45;&gt;Node35 -->
<g id="edge34_Node000034_Node000035" class="edge">
<title>Node34&#45;&gt;Node35</title>
<g id="a_edge34_Node000034_Node000035"><a xlink:title=" ">
<path fill="none" stroke="#63b8ff" d="M581.49,-164.39C600.16,-166.49 620.45,-168.76 638.36,-170.77"/>
<polygon fill="#63b8ff" stroke="#63b8ff" points="581.64,-160.89 571.32,-163.25 580.86,-167.84 581.64,-160.89"/>
</a>
</g>
</g>
<!-- Node36 -->
<g id="Node000036" class="node">
<title>Node36</title>
<g id="a_Node000036"><a xlink:href="classSoundFileOmega.html" target="_top" xlink:title=" ">
<polygon fill="white" stroke="#666666" points="740,-149 641,-149 641,-130 740,-130 740,-149"/>
<text text-anchor="middle" x="690.5" y="-137" font-family="Helvetica,sans-Serif" font-size="10.00">SoundFileOmega</text>
</a>
</g>
</g>
<!-- Node34&#45;&gt;Node36 -->
<g id="edge35_Node000034_Node000036" class="edge">
<title>Node34&#45;&gt;Node36</title>
<g id="a_edge35_Node000034_Node000036"><a xlink:title=" ">
<path fill="none" stroke="#63b8ff" d="M581.38,-150.98C600.99,-148.9 622.41,-146.62 640.97,-144.65"/>
<polygon fill="#63b8ff" stroke="#63b8ff" points="580.89,-147.51 571.32,-152.05 581.63,-154.47 580.89,-147.51"/>
</a>
</g>
</g>
</g>
</svg>
