<?xml version="1.0" encoding="UTF-8" standalone="no"?>
<!DOCTYPE svg PUBLIC "-//W3C//DTD SVG 1.1//EN"
 "http://www.w3.org/Graphics/SVG/1.1/DTD/svg11.dtd">
<!-- Generated by graphviz version 2.43.0 (0)
 -->
<!-- Title: Gtk::Menu_Helpers::Element Pages: 1 -->
<!--zoomable 412 -->

<svg id="main" version="1.1" xmlns="http://www.w3.org/2000/svg" xmlns:xlink="http://www.w3.org/1999/xlink" xml:space="preserve" onload="init(evt)">
<style type="text/css"><![CDATA[
.node, .edge {opacity: 0.7;}
.node.selected, .edge.selected {opacity: 1;}
.edge:hover path { stroke: red; }
.edge:hover polygon { stroke: red; fill: red; }
]]></style>

<defs>
  <circle id="rim" cx="0" cy="0" r="7"/>
  <circle id="rim2" cx="0" cy="0" r="3.5"/>
  <g id="zoomPlus">
    <use xlink:href="#rim" fill="#404040"><set attributeName="fill" to="#808080" begin="zoomplus.mouseover" end="zoomplus.mouseout"/></use>
    <path d="M-4,0h8M0,-4v8" fill="none" stroke="white" stroke-width="1.5" pointer-events="none"/>
  </g>
  <g id="zoomMin">
    <use xlink:href="#rim" fill="#404040"><set attributeName="fill" to="#808080" begin="zoomminus.mouseover" end="zoomminus.mouseout"/></use>
    <path d="M-4,0h8" fill="none" stroke="white" stroke-width="1.5" pointer-events="none"/>
  </g>
  <g id="arrowUp" transform="translate(30 24)">
    <use xlink:href="#rim"/>
    <path pointer-events="none" fill="none" stroke="white" stroke-width="1.5" d="M0,-3.0v7 M-2.5,-0.5L0,-3.0L2.5,-0.5"/>
  </g>
  <g id="arrowRight" transform="rotate(90) translate(36 -43)">
    <use xlink:href="#rim"/>
    <path pointer-events="none" fill="none" stroke="white" stroke-width="1.5" d="M0,-3.0v7 M-2.5,-0.5L0,-3.0L2.5,-0.5"/>
  </g>
  <g id="arrowDown" transform="rotate(180) translate(-30 -48)">
    <use xlink:href="#rim"/>
    <path pointer-events="none" fill="none" stroke="white" stroke-width="1.5" d="M0,-3.0v7 M-2.5,-0.5L0,-3.0L2.5,-0.5"/>
  </g>
  <g id="arrowLeft" transform="rotate(270) translate(-36 17)">
    <use xlink:href="#rim"/>
    <path pointer-events="none" fill="none" stroke="white" stroke-width="1.5" d="M0,-3.0v7 M-2.5,-0.5L0,-3.0L2.5,-0.5"/>
  </g>
  <g id="resetDef">
    <use xlink:href="#rim2" fill="#404040"><set attributeName="fill" to="#808080" begin="reset.mouseover" end="reset.mouseout"/></use>
  </g>
</defs>
<script type="application/ecmascript">
var viewWidth = 569;
var viewHeight = 412;
var sectionId = 'dynsection-0';
</script>
<script type="application/ecmascript" xlink:href="svg.min.js"/>
<svg id="graph" class="graph">
<g id="viewport">
<title>Gtk::Menu_Helpers::Element</title>
<!-- Node1 -->
<g id="Node000001" class="node">
<title>Node1</title>
<g id="a_Node000001"><a xlink:title=" ">
<polygon fill="#999999" stroke="#666666" points="116,-211.5 0,-211.5 0,-181.5 116,-181.5 116,-211.5"/>
<text text-anchor="start" x="8" y="-199.5" font-family="Helvetica,sans-Serif" font-size="10.00">Gtk::Menu_Helpers::</text>
<text text-anchor="middle" x="58" y="-188.5" font-family="Helvetica,sans-Serif" font-size="10.00">Element</text>
</a>
</g>
</g>
<!-- Node2 -->
<g id="Node000002" class="node">
<title>Node2</title>
<g id="a_Node000002"><a xlink:href="classGtk_1_1Menu__Helpers_1_1CheckMenuElem.html" target="_top" xlink:title=" ">
<polygon fill="white" stroke="#666666" points="308.5,-403.5 192.5,-403.5 192.5,-373.5 308.5,-373.5 308.5,-403.5"/>
<text text-anchor="start" x="200.5" y="-391.5" font-family="Helvetica,sans-Serif" font-size="10.00">Gtk::Menu_Helpers::</text>
<text text-anchor="middle" x="250.5" y="-380.5" font-family="Helvetica,sans-Serif" font-size="10.00">CheckMenuElem</text>
</a>
</g>
</g>
<!-- Node1&#45;&gt;Node2 -->
<g id="edge1_Node000001_Node000002" class="edge">
<title>Node1&#45;&gt;Node2</title>
<g id="a_edge1_Node000001_Node000002"><a xlink:title=" ">
<path fill="none" stroke="#63b8ff" d="M65.82,-221.51C77.26,-258.59 103.93,-327.71 152,-364.5 163.63,-373.4 178.12,-379.04 192.35,-382.61"/>
<polygon fill="#63b8ff" stroke="#63b8ff" points="69.06,-220.13 62.87,-211.53 62.35,-222.11 69.06,-220.13"/>
</a>
</g>
</g>
<!-- Node3 -->
<g id="Node000003" class="node">
<title>Node3</title>
<g id="a_Node000003"><a xlink:href="classGtk_1_1Menu__Helpers_1_1ImageMenuElem.html" target="_top" xlink:title=" ">
<polygon fill="white" stroke="#666666" points="308.5,-355.5 192.5,-355.5 192.5,-325.5 308.5,-325.5 308.5,-355.5"/>
<text text-anchor="start" x="200.5" y="-343.5" font-family="Helvetica,sans-Serif" font-size="10.00">Gtk::Menu_Helpers::</text>
<text text-anchor="middle" x="250.5" y="-332.5" font-family="Helvetica,sans-Serif" font-size="10.00">ImageMenuElem</text>
</a>
</g>
</g>
<!-- Node1&#45;&gt;Node3 -->
<g id="edge2_Node000001_Node000003" class="edge">
<title>Node1&#45;&gt;Node3</title>
<g id="a_edge2_Node000001_Node000003"><a xlink:title=" ">
<path fill="none" stroke="#63b8ff" d="M71.21,-220.65C86.37,-248.14 114.84,-292.34 152,-316.5 164.06,-324.34 178.47,-329.62 192.47,-333.17"/>
<polygon fill="#63b8ff" stroke="#63b8ff" points="74.21,-218.85 66.41,-211.69 68.04,-222.15 74.21,-218.85"/>
</a>
</g>
</g>
<!-- Node4 -->
<g id="Node000004" class="node">
<title>Node4</title>
<g id="a_Node000004"><a xlink:href="classGtk_1_1Menu__Helpers_1_1MenuElem.html" target="_top" xlink:title=" ">
<polygon fill="white" stroke="#666666" points="308.5,-307.5 192.5,-307.5 192.5,-277.5 308.5,-277.5 308.5,-307.5"/>
<text text-anchor="start" x="200.5" y="-295.5" font-family="Helvetica,sans-Serif" font-size="10.00">Gtk::Menu_Helpers::</text>
<text text-anchor="middle" x="250.5" y="-284.5" font-family="Helvetica,sans-Serif" font-size="10.00">MenuElem</text>
</a>
</g>
</g>
<!-- Node1&#45;&gt;Node4 -->
<g id="edge3_Node000001_Node000004" class="edge">
<title>Node1&#45;&gt;Node4</title>
<g id="a_edge3_Node000001_Node000004"><a xlink:title=" ">
<path fill="none" stroke="#63b8ff" d="M81.96,-218.75C99.74,-234.79 125.69,-255.79 152,-268.5 164.56,-274.57 178.79,-279.19 192.42,-282.67"/>
<polygon fill="#63b8ff" stroke="#63b8ff" points="84.12,-215.98 74.4,-211.77 79.38,-221.12 84.12,-215.98"/>
</a>
</g>
</g>
<!-- Node7 -->
<g id="Node000007" class="node">
<title>Node7</title>
<g id="a_Node000007"><a xlink:href="classGtk_1_1Menu__Helpers_1_1RadioMenuElem.html" target="_top" xlink:title=" ">
<polygon fill="white" stroke="#666666" points="308.5,-259.5 192.5,-259.5 192.5,-229.5 308.5,-229.5 308.5,-259.5"/>
<text text-anchor="start" x="200.5" y="-247.5" font-family="Helvetica,sans-Serif" font-size="10.00">Gtk::Menu_Helpers::</text>
<text text-anchor="middle" x="250.5" y="-236.5" font-family="Helvetica,sans-Serif" font-size="10.00">RadioMenuElem</text>
</a>
</g>
</g>
<!-- Node1&#45;&gt;Node7 -->
<g id="edge6_Node000001_Node000007" class="edge">
<title>Node1&#45;&gt;Node7</title>
<g id="a_edge6_Node000001_Node000007"><a xlink:title=" ">
<path fill="none" stroke="#63b8ff" d="M125.87,-213.85C134.66,-216.1 143.54,-218.37 152,-220.5 165.02,-223.78 179.02,-227.26 192.25,-230.52"/>
<polygon fill="#63b8ff" stroke="#63b8ff" points="126.58,-210.42 116.03,-211.32 124.84,-217.2 126.58,-210.42"/>
</a>
</g>
</g>
<!-- Node8 -->
<g id="Node000008" class="node">
<title>Node8</title>
<g id="a_Node000008"><a xlink:href="classGtk_1_1Menu__Helpers_1_1SeparatorElem.html" target="_top" xlink:title=" ">
<polygon fill="white" stroke="#666666" points="308.5,-211.5 192.5,-211.5 192.5,-181.5 308.5,-181.5 308.5,-211.5"/>
<text text-anchor="start" x="200.5" y="-199.5" font-family="Helvetica,sans-Serif" font-size="10.00">Gtk::Menu_Helpers::</text>
<text text-anchor="middle" x="250.5" y="-188.5" font-family="Helvetica,sans-Serif" font-size="10.00">SeparatorElem</text>
</a>
</g>
</g>
<!-- Node1&#45;&gt;Node8 -->
<g id="edge7_Node000001_Node000008" class="edge">
<title>Node1&#45;&gt;Node8</title>
<g id="a_edge7_Node000001_Node000008"><a xlink:title=" ">
<path fill="none" stroke="#63b8ff" d="M126.24,-196.5C147.85,-196.5 171.57,-196.5 192.38,-196.5"/>
<polygon fill="#63b8ff" stroke="#63b8ff" points="126.16,-193 116.16,-196.5 126.16,-200 126.16,-193"/>
</a>
</g>
</g>
<!-- Node9 -->
<g id="Node000009" class="node">
<title>Node9</title>
<g id="a_Node000009"><a xlink:href="classGtk_1_1Menu__Helpers_1_1StockMenuElem.html" target="_top" xlink:title=" ">
<polygon fill="white" stroke="#666666" points="308.5,-163.5 192.5,-163.5 192.5,-133.5 308.5,-133.5 308.5,-163.5"/>
<text text-anchor="start" x="200.5" y="-151.5" font-family="Helvetica,sans-Serif" font-size="10.00">Gtk::Menu_Helpers::</text>
<text text-anchor="middle" x="250.5" y="-140.5" font-family="Helvetica,sans-Serif" font-size="10.00">StockMenuElem</text>
</a>
</g>
</g>
<!-- Node1&#45;&gt;Node9 -->
<g id="edge8_Node000001_Node000009" class="edge">
<title>Node1&#45;&gt;Node9</title>
<g id="a_edge8_Node000001_Node000009"><a xlink:title=" ">
<path fill="none" stroke="#63b8ff" d="M125.87,-179.15C134.66,-176.9 143.54,-174.63 152,-172.5 165.02,-169.22 179.02,-165.74 192.25,-162.48"/>
<polygon fill="#63b8ff" stroke="#63b8ff" points="124.84,-175.8 116.03,-181.68 126.58,-182.58 124.84,-175.8"/>
</a>
</g>
</g>
<!-- Node10 -->
<g id="Node000010" class="node">
<title>Node10</title>
<g id="a_Node000010"><a xlink:href="classGtk_1_1Menu__Helpers_1_1TearoffMenuElem.html" target="_top" xlink:title=" ">
<polygon fill="white" stroke="#666666" points="308.5,-115.5 192.5,-115.5 192.5,-85.5 308.5,-85.5 308.5,-115.5"/>
<text text-anchor="start" x="200.5" y="-103.5" font-family="Helvetica,sans-Serif" font-size="10.00">Gtk::Menu_Helpers::</text>
<text text-anchor="middle" x="250.5" y="-92.5" font-family="Helvetica,sans-Serif" font-size="10.00">TearoffMenuElem</text>
</a>
</g>
</g>
<!-- Node1&#45;&gt;Node10 -->
<g id="edge9_Node000001_Node000010" class="edge">
<title>Node1&#45;&gt;Node10</title>
<g id="a_edge9_Node000001_Node000010"><a xlink:title=" ">
<path fill="none" stroke="#63b8ff" d="M81.96,-174.25C99.74,-158.21 125.69,-137.21 152,-124.5 164.56,-118.43 178.79,-113.81 192.42,-110.33"/>
<polygon fill="#63b8ff" stroke="#63b8ff" points="79.38,-171.88 74.4,-181.23 84.12,-177.02 79.38,-171.88"/>
</a>
</g>
</g>
<!-- Node11 -->
<g id="Node000011" class="node">
<title>Node11</title>
<g id="a_Node000011"><a xlink:href="classGtkmm2ext_1_1CheckMenuElemNoMnemonic.html" target="_top" xlink:title=" ">
<polygon fill="white" stroke="#666666" points="332,-67.5 169,-67.5 169,-37.5 332,-37.5 332,-67.5"/>
<text text-anchor="start" x="177" y="-55.5" font-family="Helvetica,sans-Serif" font-size="10.00">Gtkmm2ext::CheckMenuElem</text>
<text text-anchor="middle" x="250.5" y="-44.5" font-family="Helvetica,sans-Serif" font-size="10.00">NoMnemonic</text>
</a>
</g>
</g>
<!-- Node1&#45;&gt;Node11 -->
<g id="edge10_Node000001_Node000011" class="edge">
<title>Node1&#45;&gt;Node11</title>
<g id="a_edge10_Node000001_Node000011"><a xlink:title=" ">
<path fill="none" stroke="#63b8ff" d="M71.21,-172.35C86.37,-144.86 114.84,-100.66 152,-76.5 157.26,-73.08 162.97,-70.15 168.9,-67.63"/>
<polygon fill="#63b8ff" stroke="#63b8ff" points="68.04,-170.85 66.41,-181.31 74.21,-174.15 68.04,-170.85"/>
</a>
</g>
</g>
<!-- Node12 -->
<g id="Node000012" class="node">
<title>Node12</title>
<g id="a_Node000012"><a xlink:href="classGtkmm2ext_1_1MenuElemNoMnemonic.html" target="_top" xlink:title=" ">
<polygon fill="white" stroke="#666666" points="349,-19 152,-19 152,0 349,0 349,-19"/>
<text text-anchor="middle" x="250.5" y="-7" font-family="Helvetica,sans-Serif" font-size="10.00">Gtkmm2ext::MenuElemNoMnemonic</text>
</a>
</g>
</g>
<!-- Node1&#45;&gt;Node12 -->
<g id="edge11_Node000001_Node000012" class="edge">
<title>Node1&#45;&gt;Node12</title>
<g id="a_edge11_Node000001_Node000012"><a xlink:title=" ">
<path fill="none" stroke="#63b8ff" d="M65.6,-171.19C76.75,-133.72 103.05,-64.11 152,-28.5 157.16,-24.75 162.87,-21.68 168.85,-19.18"/>
<polygon fill="#63b8ff" stroke="#63b8ff" points="62.1,-170.7 62.73,-181.28 68.83,-172.62 62.1,-170.7"/>
</a>
</g>
</g>
<!-- Node5 -->
<g id="Node000005" class="node">
<title>Node5</title>
<g id="a_Node000005"><a xlink:href="classArdourWidgets_1_1ArdourDropdown_1_1LblMenuElement.html" target="_top" xlink:title=" ">
<polygon fill="white" stroke="#666666" points="561,-331.5 385,-331.5 385,-301.5 561,-301.5 561,-331.5"/>
<text text-anchor="start" x="393" y="-319.5" font-family="Helvetica,sans-Serif" font-size="10.00">ArdourWidgets::ArdourDropdown</text>
<text text-anchor="middle" x="473" y="-308.5" font-family="Helvetica,sans-Serif" font-size="10.00">::LblMenuElement</text>
</a>
</g>
</g>
<!-- Node4&#45;&gt;Node5 -->
<g id="edge4_Node000004_Node000005" class="edge">
<title>Node4&#45;&gt;Node5</title>
<g id="a_edge4_Node000004_Node000005"><a xlink:title=" ">
<path fill="none" stroke="#63b8ff" d="M318.6,-299.8C339.46,-302.07 362.76,-304.61 384.78,-307.01"/>
<polygon fill="#63b8ff" stroke="#63b8ff" points="318.89,-296.31 308.57,-298.71 318.13,-303.27 318.89,-296.31"/>
</a>
</g>
</g>
<!-- Node6 -->
<g id="Node000006" class="node">
<title>Node6</title>
<g id="a_Node000006"><a xlink:href="classArdourWidgets_1_1MetaButton_1_1MetaElement.html" target="_top" xlink:title=" ">
<polygon fill="white" stroke="#666666" points="549,-283.5 397,-283.5 397,-253.5 549,-253.5 549,-283.5"/>
<text text-anchor="start" x="405" y="-271.5" font-family="Helvetica,sans-Serif" font-size="10.00">ArdourWidgets::MetaButton</text>
<text text-anchor="middle" x="473" y="-260.5" font-family="Helvetica,sans-Serif" font-size="10.00">::MetaElement</text>
</a>
</g>
</g>
<!-- Node4&#45;&gt;Node6 -->
<g id="edge5_Node000004_Node000006" class="edge">
<title>Node4&#45;&gt;Node6</title>
<g id="a_edge5_Node000004_Node000006"><a xlink:title=" ">
<path fill="none" stroke="#63b8ff" d="M318.58,-285.2C343.31,-282.51 371.48,-279.44 396.88,-276.68"/>
<polygon fill="#63b8ff" stroke="#63b8ff" points="318.13,-281.73 308.57,-286.29 318.89,-288.69 318.13,-281.73"/>
</a>
</g>
</g>
</g>
</svg>

<g id="navigator" transform="translate(0 0)" fill="#404254">
  <rect fill="#f2f5e9" fill-opacity="0.5" stroke="#606060" stroke-width=".5" x="0" y="0" width="60" height="60"/>
  <use id="zoomplus" xlink:href="#zoomPlus" x="17" y="9" onmousedown="handleZoom(evt,'in')"/>
  <use id="zoomminus" xlink:href="#zoomMin" x="42" y="9" onmousedown="handleZoom(evt,'out')"/>
  <use id="reset" xlink:href="#resetDef" x="30" y="36" onmousedown="handleReset()"/>
   <use id="arrowup" xlink:href="#arrowUp" x="0" y="0" onmousedown="handlePan(0,-1)"/>
  <use id="arrowright" xlink:href="#arrowRight" x="0" y="0" onmousedown="handlePan(1,0)"/>
  <use id="arrowdown" xlink:href="#arrowDown" x="0" y="0" onmousedown="handlePan(0,1)"/>
  <use id="arrowleft" xlink:href="#arrowLeft" x="0" y="0" onmousedown="handlePan(-1,0)"/>
</g>
<svg viewBox="0 0 15 15" width="100%" height="30px" preserveAspectRatio="xMaxYMin meet">
 <g id="arrow_out" transform="scale(0.3 0.3)">
  <a xlink:href="classGtk_1_1Menu__Helpers_1_1Element__inherit__graph_org.svg" target="_base">
   <rect id="button" ry="5" rx="5" y="6" x="6" height="38" width="38"
        fill="#f2f5e9" fill-opacity="0.5" stroke="#606060" stroke-width="1.0"/>
   <path id="arrow"
     d="M 11.500037,31.436501 C 11.940474,20.09759 22.043105,11.32322 32.158766,21.979434 L 37.068811,17.246167 C 37.068811,17.246167 37.088388,32 37.088388,32 L 22.160133,31.978069 C 22.160133,31.978069 26.997745,27.140456 26.997745,27.140456 C 18.528582,18.264221 13.291696,25.230495 11.500037,31.436501 z"
     style="fill:#404040;"/>
  </a>
 </g>
</svg>

<style type='text/css'>
<![CDATA[
[data-mouse-over-selected='false'] { opacity: 0.7; }
[data-mouse-over-selected='true']  { opacity: 1.0; }
]]>
</style>
<script type="application/ecmascript"><![CDATA[
document.addEventListener('DOMContentLoaded', (event) => {
  highlightEdges();
  highlightAdjacentNodes();
});
]]></script>
</svg>
