<?xml version="1.0" encoding="UTF-8" standalone="no"?>
<!DOCTYPE svg PUBLIC "-//W3C//DTD SVG 1.1//EN"
 "http://www.w3.org/Graphics/SVG/1.1/DTD/svg11.dtd">
<!-- Generated by graphviz version 2.43.0 (0)
 -->
<!-- Title: SoundFileOmega Pages: 1 -->
<svg width="437pt" height="467pt"
 viewBox="0.00 0.00 436.50 467.00" xmlns="http://www.w3.org/2000/svg" xmlns:xlink="http://www.w3.org/1999/xlink">
<g id="graph0" class="graph" transform="scale(1 1) rotate(0) translate(4 463)">
<title>SoundFileOmega</title>
<!-- Node1 -->
<g id="Node000001" class="node">
<title>Node1</title>
<g id="a_Node000001"><a xlink:title=" ">
<polygon fill="#999999" stroke="#666666" points="226,-19 127,-19 127,0 226,0 226,-19"/>
<text text-anchor="middle" x="176.5" y="-7" font-family="Helvetica,sans-Serif" font-size="10.00">SoundFileOmega</text>
</a>
</g>
</g>
<!-- Node2 -->
<g id="Node000002" class="node">
<title>Node2</title>
<g id="a_Node000002"><a xlink:href="classSoundFileBrowser.html" target="_top" xlink:title=" ">
<polygon fill="white" stroke="#666666" points="228.5,-74 124.5,-74 124.5,-55 228.5,-55 228.5,-74"/>
<text text-anchor="middle" x="176.5" y="-62" font-family="Helvetica,sans-Serif" font-size="10.00">SoundFileBrowser</text>
</a>
</g>
</g>
<!-- Node2&#45;&gt;Node1 -->
<g id="edge1_Node000001_Node000002" class="edge">
<title>Node2&#45;&gt;Node1</title>
<g id="a_edge1_Node000001_Node000002"><a xlink:title=" ">
<path fill="none" stroke="#63b8ff" d="M176.5,-44.66C176.5,-35.93 176.5,-25.99 176.5,-19.09"/>
<polygon fill="#63b8ff" stroke="#63b8ff" points="173,-44.75 176.5,-54.75 180,-44.75 173,-44.75"/>
</a>
</g>
</g>
<!-- Node3 -->
<g id="Node000003" class="node">
<title>Node3</title>
<g id="a_Node000003"><a xlink:href="classArdourWindow.html" target="_top" xlink:title=" ">
<polygon fill="white" stroke="#666666" points="220.5,-129 132.5,-129 132.5,-110 220.5,-110 220.5,-129"/>
<text text-anchor="middle" x="176.5" y="-117" font-family="Helvetica,sans-Serif" font-size="10.00">ArdourWindow</text>
</a>
</g>
</g>
<!-- Node3&#45;&gt;Node2 -->
<g id="edge2_Node000002_Node000003" class="edge">
<title>Node3&#45;&gt;Node2</title>
<g id="a_edge2_Node000002_Node000003"><a xlink:title=" ">
<path fill="none" stroke="#63b8ff" d="M176.5,-99.66C176.5,-90.93 176.5,-80.99 176.5,-74.09"/>
<polygon fill="#63b8ff" stroke="#63b8ff" points="173,-99.75 176.5,-109.75 180,-99.75 173,-99.75"/>
</a>
</g>
</g>
<!-- Node4 -->
<g id="Node000004" class="node">
<title>Node4</title>
<g id="a_Node000004"><a xlink:href="classGtk_1_1Window.html" target="_top" xlink:title=" ">
<polygon fill="white" stroke="#666666" points="83,-184 4,-184 4,-165 83,-165 83,-184"/>
<text text-anchor="middle" x="43.5" y="-172" font-family="Helvetica,sans-Serif" font-size="10.00">Gtk::Window</text>
</a>
</g>
</g>
<!-- Node4&#45;&gt;Node3 -->
<g id="edge3_Node000003_Node000004" class="edge">
<title>Node4&#45;&gt;Node3</title>
<g id="a_edge3_Node000003_Node000004"><a xlink:title=" ">
<path fill="none" stroke="#63b8ff" d="M74.47,-161.16C99.09,-151.35 132.91,-137.87 154.74,-129.17"/>
<polygon fill="#63b8ff" stroke="#63b8ff" points="72.86,-158.03 64.87,-164.98 75.45,-164.53 72.86,-158.03"/>
</a>
</g>
</g>
<!-- Node5 -->
<g id="Node000005" class="node">
<title>Node5</title>
<g id="a_Node000005"><a xlink:href="classGtk_1_1Bin.html" target="_top" xlink:title=" ">
<polygon fill="white" stroke="#666666" points="71.5,-239 15.5,-239 15.5,-220 71.5,-220 71.5,-239"/>
<text text-anchor="middle" x="43.5" y="-227" font-family="Helvetica,sans-Serif" font-size="10.00">Gtk::Bin</text>
</a>
</g>
</g>
<!-- Node5&#45;&gt;Node4 -->
<g id="edge4_Node000004_Node000005" class="edge">
<title>Node5&#45;&gt;Node4</title>
<g id="a_edge4_Node000004_Node000005"><a xlink:title=" ">
<path fill="none" stroke="#63b8ff" d="M43.5,-209.66C43.5,-200.93 43.5,-190.99 43.5,-184.09"/>
<polygon fill="#63b8ff" stroke="#63b8ff" points="40,-209.75 43.5,-219.75 47,-209.75 40,-209.75"/>
</a>
</g>
</g>
<!-- Node6 -->
<g id="Node000006" class="node">
<title>Node6</title>
<g id="a_Node000006"><a xlink:href="classGtk_1_1Container.html" target="_top" xlink:title=" ">
<polygon fill="white" stroke="#666666" points="87,-294 0,-294 0,-275 87,-275 87,-294"/>
<text text-anchor="middle" x="43.5" y="-282" font-family="Helvetica,sans-Serif" font-size="10.00">Gtk::Container</text>
</a>
</g>
</g>
<!-- Node6&#45;&gt;Node5 -->
<g id="edge5_Node000005_Node000006" class="edge">
<title>Node6&#45;&gt;Node5</title>
<g id="a_edge5_Node000005_Node000006"><a xlink:title=" ">
<path fill="none" stroke="#63b8ff" d="M43.5,-264.66C43.5,-255.93 43.5,-245.99 43.5,-239.09"/>
<polygon fill="#63b8ff" stroke="#63b8ff" points="40,-264.75 43.5,-274.75 47,-264.75 40,-264.75"/>
</a>
</g>
</g>
<!-- Node7 -->
<g id="Node000007" class="node">
<title>Node7</title>
<g id="a_Node000007"><a xlink:href="classGtk_1_1Widget.html" target="_top" xlink:title=" ">
<polygon fill="white" stroke="#666666" points="80.5,-349 6.5,-349 6.5,-330 80.5,-330 80.5,-349"/>
<text text-anchor="middle" x="43.5" y="-337" font-family="Helvetica,sans-Serif" font-size="10.00">Gtk::Widget</text>
</a>
</g>
</g>
<!-- Node7&#45;&gt;Node6 -->
<g id="edge6_Node000006_Node000007" class="edge">
<title>Node7&#45;&gt;Node6</title>
<g id="a_edge6_Node000006_Node000007"><a xlink:title=" ">
<path fill="none" stroke="#63b8ff" d="M43.5,-319.66C43.5,-310.93 43.5,-300.99 43.5,-294.09"/>
<polygon fill="#63b8ff" stroke="#63b8ff" points="40,-319.75 43.5,-329.75 47,-319.75 40,-319.75"/>
</a>
</g>
</g>
<!-- Node8 -->
<g id="Node000008" class="node">
<title>Node8</title>
<g id="a_Node000008"><a xlink:href="classGtk_1_1Object.html" target="_top" xlink:title=" ">
<polygon fill="white" stroke="#666666" points="79,-404 8,-404 8,-385 79,-385 79,-404"/>
<text text-anchor="middle" x="43.5" y="-392" font-family="Helvetica,sans-Serif" font-size="10.00">Gtk::Object</text>
</a>
</g>
</g>
<!-- Node8&#45;&gt;Node7 -->
<g id="edge7_Node000007_Node000008" class="edge">
<title>Node8&#45;&gt;Node7</title>
<g id="a_edge7_Node000007_Node000008"><a xlink:title=" ">
<path fill="none" stroke="#63b8ff" d="M43.5,-374.66C43.5,-365.93 43.5,-355.99 43.5,-349.09"/>
<polygon fill="#63b8ff" stroke="#63b8ff" points="40,-374.75 43.5,-384.75 47,-374.75 40,-374.75"/>
</a>
</g>
</g>
<!-- Node9 -->
<g id="Node000009" class="node">
<title>Node9</title>
<g id="a_Node000009"><a xlink:title=" ">
<polygon fill="white" stroke="#666666" points="80.5,-459 6.5,-459 6.5,-440 80.5,-440 80.5,-459"/>
<text text-anchor="middle" x="43.5" y="-447" font-family="Helvetica,sans-Serif" font-size="10.00">Glib::Object</text>
</a>
</g>
</g>
<!-- Node9&#45;&gt;Node8 -->
<g id="edge8_Node000008_Node000009" class="edge">
<title>Node9&#45;&gt;Node8</title>
<g id="a_edge8_Node000008_Node000009"><a xlink:title=" ">
<path fill="none" stroke="#63b8ff" d="M43.5,-429.66C43.5,-420.93 43.5,-410.99 43.5,-404.09"/>
<polygon fill="#63b8ff" stroke="#63b8ff" points="40,-429.75 43.5,-439.75 47,-429.75 40,-429.75"/>
</a>
</g>
</g>
<!-- Node10 -->
<g id="Node000010" class="node">
<title>Node10</title>
<g id="a_Node000010"><a xlink:href="classARDOUR_1_1SessionHandlePtr.html" target="_top" xlink:title=" ">
<polygon fill="white" stroke="#666666" points="252,-184 101,-184 101,-165 252,-165 252,-184"/>
<text text-anchor="middle" x="176.5" y="-172" font-family="Helvetica,sans-Serif" font-size="10.00">ARDOUR::SessionHandlePtr</text>
</a>
</g>
</g>
<!-- Node10&#45;&gt;Node3 -->
<g id="edge9_Node000003_Node000010" class="edge">
<title>Node10&#45;&gt;Node3</title>
<g id="a_edge9_Node000003_Node000010"><a xlink:title=" ">
<path fill="none" stroke="#63b8ff" d="M176.5,-154.66C176.5,-145.93 176.5,-135.99 176.5,-129.09"/>
<polygon fill="#63b8ff" stroke="#63b8ff" points="173,-154.75 176.5,-164.75 180,-154.75 173,-154.75"/>
</a>
</g>
</g>
<!-- Node11 -->
<g id="Node000011" class="node">
<title>Node11</title>
<g id="a_Node000011"><a xlink:href="classGtkmm2ext_1_1VisibilityTracker.html" target="_top" xlink:title=" ">
<polygon fill="white" stroke="#666666" points="428.5,-184 270.5,-184 270.5,-165 428.5,-165 428.5,-184"/>
<text text-anchor="middle" x="349.5" y="-172" font-family="Helvetica,sans-Serif" font-size="10.00">Gtkmm2ext::VisibilityTracker</text>
</a>
</g>
</g>
<!-- Node11&#45;&gt;Node3 -->
<g id="edge10_Node000003_Node000011" class="edge">
<title>Node11&#45;&gt;Node3</title>
<g id="a_edge10_Node000003_Node000011"><a xlink:title=" ">
<path fill="none" stroke="#63b8ff" d="M311.73,-161.93C279.41,-152.03 233.64,-138.01 204.51,-129.08"/>
<polygon fill="#63b8ff" stroke="#63b8ff" points="311.12,-165.4 321.7,-164.98 313.17,-158.71 311.12,-165.4"/>
</a>
</g>
</g>
<!-- Node12 -->
<g id="Node000012" class="node">
<title>Node12</title>
<g id="a_Node000012"><a xlink:title=" ">
<polygon fill="white" stroke="#666666" points="393,-239 306,-239 306,-220 393,-220 393,-239"/>
<text text-anchor="middle" x="349.5" y="-227" font-family="Helvetica,sans-Serif" font-size="10.00">sigc::trackable</text>
</a>
</g>
</g>
<!-- Node12&#45;&gt;Node11 -->
<g id="edge11_Node000011_Node000012" class="edge">
<title>Node12&#45;&gt;Node11</title>
<g id="a_edge11_Node000011_Node000012"><a xlink:title=" ">
<path fill="none" stroke="#63b8ff" d="M349.5,-209.66C349.5,-200.93 349.5,-190.99 349.5,-184.09"/>
<polygon fill="#63b8ff" stroke="#63b8ff" points="346,-209.75 349.5,-219.75 353,-209.75 346,-209.75"/>
</a>
</g>
</g>
</g>
</svg>
