<?xml version="1.0" encoding="UTF-8" standalone="no"?>
<!DOCTYPE svg PUBLIC "-//W3C//DTD SVG 1.1//EN"
 "http://www.w3.org/Graphics/SVG/1.1/DTD/svg11.dtd">
<!-- Generated by graphviz version 2.43.0 (0)
 -->
<!-- Title: ARDOUR::AlsaRawMidiIn Pages: 1 -->
<svg width="282pt" height="137pt"
 viewBox="0.00 0.00 281.50 137.00" xmlns="http://www.w3.org/2000/svg" xmlns:xlink="http://www.w3.org/1999/xlink">
<g id="graph0" class="graph" transform="scale(1 1) rotate(0) translate(4 133)">
<title>ARDOUR::AlsaRawMidiIn</title>
<!-- Node1 -->
<g id="Node000001" class="node">
<title>Node1</title>
<g id="a_Node000001"><a xlink:title=" ">
<polygon fill="#999999" stroke="#666666" points="211,-19 74,-19 74,0 211,0 211,-19"/>
<text text-anchor="middle" x="142.5" y="-7" font-family="Helvetica,sans-Serif" font-size="10.00">ARDOUR::AlsaRawMidiIn</text>
</a>
</g>
</g>
<!-- Node2 -->
<g id="Node000002" class="node">
<title>Node2</title>
<g id="a_Node000002"><a xlink:href="classARDOUR_1_1AlsaRawMidiIO.html" target="_top" xlink:title=" ">
<polygon fill="white" stroke="#666666" points="139,-74 0,-74 0,-55 139,-55 139,-74"/>
<text text-anchor="middle" x="69.5" y="-62" font-family="Helvetica,sans-Serif" font-size="10.00">ARDOUR::AlsaRawMidiIO</text>
</a>
</g>
</g>
<!-- Node2&#45;&gt;Node1 -->
<g id="edge1_Node000001_Node000002" class="edge">
<title>Node2&#45;&gt;Node1</title>
<g id="a_edge1_Node000001_Node000002"><a xlink:title=" ">
<path fill="none" stroke="#63b8ff" d="M89.64,-48.88C102.78,-39.34 119.48,-27.21 130.56,-19.17"/>
<polygon fill="#63b8ff" stroke="#63b8ff" points="87.26,-46.28 81.23,-54.98 91.38,-51.94 87.26,-46.28"/>
</a>
</g>
</g>
<!-- Node3 -->
<g id="Node000003" class="node">
<title>Node3</title>
<g id="a_Node000003"><a xlink:href="classARDOUR_1_1AlsaMidiIO.html" target="_top" xlink:title=" ">
<polygon fill="white" stroke="#666666" points="201.5,-129 83.5,-129 83.5,-110 201.5,-110 201.5,-129"/>
<text text-anchor="middle" x="142.5" y="-117" font-family="Helvetica,sans-Serif" font-size="10.00">ARDOUR::AlsaMidiIO</text>
</a>
</g>
</g>
<!-- Node3&#45;&gt;Node2 -->
<g id="edge2_Node000002_Node000003" class="edge">
<title>Node3&#45;&gt;Node2</title>
<g id="a_edge2_Node000002_Node000003"><a xlink:title=" ">
<path fill="none" stroke="#63b8ff" d="M122.36,-103.88C109.22,-94.34 92.52,-82.21 81.44,-74.17"/>
<polygon fill="#63b8ff" stroke="#63b8ff" points="120.62,-106.94 130.77,-109.98 124.74,-101.28 120.62,-106.94"/>
</a>
</g>
</g>
<!-- Node4 -->
<g id="Node000004" class="node">
<title>Node4</title>
<g id="a_Node000004"><a xlink:href="classARDOUR_1_1AlsaMidiIn.html" target="_top" xlink:title=" ">
<polygon fill="white" stroke="#666666" points="273.5,-74 157.5,-74 157.5,-55 273.5,-55 273.5,-74"/>
<text text-anchor="middle" x="215.5" y="-62" font-family="Helvetica,sans-Serif" font-size="10.00">ARDOUR::AlsaMidiIn</text>
</a>
</g>
</g>
<!-- Node3&#45;&gt;Node4 -->
<g id="edge4_Node000004_Node000003" class="edge">
<title>Node3&#45;&gt;Node4</title>
<g id="a_edge4_Node000004_Node000003"><a xlink:title=" ">
<path fill="none" stroke="#63b8ff" d="M162.64,-103.88C175.78,-94.34 192.48,-82.21 203.56,-74.17"/>
<polygon fill="#63b8ff" stroke="#63b8ff" points="160.26,-101.28 154.23,-109.98 164.38,-106.94 160.26,-101.28"/>
</a>
</g>
</g>
<!-- Node4&#45;&gt;Node1 -->
<g id="edge3_Node000001_Node000004" class="edge">
<title>Node4&#45;&gt;Node1</title>
<g id="a_edge3_Node000001_Node000004"><a xlink:title=" ">
<path fill="none" stroke="#63b8ff" d="M195.36,-48.88C182.22,-39.34 165.52,-27.21 154.44,-19.17"/>
<polygon fill="#63b8ff" stroke="#63b8ff" points="193.62,-51.94 203.77,-54.98 197.74,-46.28 193.62,-51.94"/>
</a>
</g>
</g>
</g>
</svg>
