<?xml version="1.0" encoding="UTF-8" standalone="no"?>
<!DOCTYPE svg PUBLIC "-//W3C//DTD SVG 1.1//EN"
 "http://www.w3.org/Graphics/SVG/1.1/DTD/svg11.dtd">
<!-- Generated by graphviz version 2.43.0 (0)
 -->
<!-- Title: Gtk::Range Pages: 1 -->
<svg width="390pt" height="302pt"
 viewBox="0.00 0.00 389.50 302.00" xmlns="http://www.w3.org/2000/svg" xmlns:xlink="http://www.w3.org/1999/xlink">

<svg id="main" version="1.1" xmlns="http://www.w3.org/2000/svg" xmlns:xlink="http://www.w3.org/1999/xlink" xml:space="preserve" onload="init(evt)">
<style type="text/css"><![CDATA[
.node, .edge {opacity: 0.7;}
.node.selected, .edge.selected {opacity: 1;}
.edge:hover path { stroke: red; }
.edge:hover polygon { stroke: red; fill: red; }
]]></style>
<script type="application/ecmascript" xlink:href="svg.min.js"/>
<svg id="graph" class="graph">
<g id="graph0" class="graph" transform="scale(1 1) rotate(0) translate(4 298)">
<title>Gtk::Range</title>
<!-- Node1 -->
<g id="Node000001" class="node">
<title>Node1</title>
<g id="a_Node000001"><a xlink:title=" ">
<polygon fill="#999999" stroke="#666666" points="214.5,-129 143.5,-129 143.5,-110 214.5,-110 214.5,-129"/>
<text text-anchor="middle" x="179" y="-117" font-family="Helvetica,sans-Serif" font-size="10.00">Gtk::Range</text>
</a>
</g>
</g>
<!-- Node5 -->
<g id="Node000005" class="node">
<title>Node5</title>
<g id="a_Node000005"><a xlink:href="classGtk_1_1Scale.html" target="_top" xlink:title=" ">
<polygon fill="white" stroke="#666666" points="162,-74 96,-74 96,-55 162,-55 162,-74"/>
<text text-anchor="middle" x="129" y="-62" font-family="Helvetica,sans-Serif" font-size="10.00">Gtk::Scale</text>
</a>
</g>
</g>
<!-- Node1&#45;&gt;Node5 -->
<g id="edge4_Node000001_Node000005" class="edge">
<title>Node1&#45;&gt;Node5</title>
<g id="a_edge4_Node000001_Node000005"><a xlink:title=" ">
<path fill="none" stroke="#63b8ff" d="M163.66,-102.24C154.9,-92.95 144.26,-81.68 137.1,-74.09"/>
<polygon fill="#63b8ff" stroke="#63b8ff" points="161.34,-104.88 170.74,-109.75 166.43,-100.07 161.34,-104.88"/>
</a>
</g>
</g>
<!-- Node8 -->
<g id="Node000008" class="node">
<title>Node8</title>
<g id="a_Node000008"><a xlink:href="classGtk_1_1Scrollbar.html" target="_top" xlink:title=" ">
<polygon fill="white" stroke="#666666" points="270.5,-74 187.5,-74 187.5,-55 270.5,-55 270.5,-74"/>
<text text-anchor="middle" x="229" y="-62" font-family="Helvetica,sans-Serif" font-size="10.00">Gtk::Scrollbar</text>
</a>
</g>
</g>
<!-- Node1&#45;&gt;Node8 -->
<g id="edge7_Node000001_Node000008" class="edge">
<title>Node1&#45;&gt;Node8</title>
<g id="a_edge7_Node000001_Node000008"><a xlink:title=" ">
<path fill="none" stroke="#63b8ff" d="M194.34,-102.24C203.1,-92.95 213.74,-81.68 220.9,-74.09"/>
<polygon fill="#63b8ff" stroke="#63b8ff" points="191.57,-100.07 187.26,-109.75 196.66,-104.88 191.57,-100.07"/>
</a>
</g>
</g>
<!-- Node2 -->
<g id="Node000002" class="node">
<title>Node2</title>
<g id="a_Node000002"><a xlink:href="classGtk_1_1Widget.html" target="_top" xlink:title=" ">
<polygon fill="white" stroke="#666666" points="216,-184 142,-184 142,-165 216,-165 216,-184"/>
<text text-anchor="middle" x="179" y="-172" font-family="Helvetica,sans-Serif" font-size="10.00">Gtk::Widget</text>
</a>
</g>
</g>
<!-- Node2&#45;&gt;Node1 -->
<g id="edge1_Node000001_Node000002" class="edge">
<title>Node2&#45;&gt;Node1</title>
<g id="a_edge1_Node000001_Node000002"><a xlink:title=" ">
<path fill="none" stroke="#63b8ff" d="M179,-154.66C179,-145.93 179,-135.99 179,-129.09"/>
<polygon fill="#63b8ff" stroke="#63b8ff" points="175.5,-154.75 179,-164.75 182.5,-154.75 175.5,-154.75"/>
</a>
</g>
</g>
<!-- Node3 -->
<g id="Node000003" class="node">
<title>Node3</title>
<g id="a_Node000003"><a xlink:href="classGtk_1_1Object.html" target="_top" xlink:title=" ">
<polygon fill="white" stroke="#666666" points="214.5,-239 143.5,-239 143.5,-220 214.5,-220 214.5,-239"/>
<text text-anchor="middle" x="179" y="-227" font-family="Helvetica,sans-Serif" font-size="10.00">Gtk::Object</text>
</a>
</g>
</g>
<!-- Node3&#45;&gt;Node2 -->
<g id="edge2_Node000002_Node000003" class="edge">
<title>Node3&#45;&gt;Node2</title>
<g id="a_edge2_Node000002_Node000003"><a xlink:title=" ">
<path fill="none" stroke="#63b8ff" d="M179,-209.66C179,-200.93 179,-190.99 179,-184.09"/>
<polygon fill="#63b8ff" stroke="#63b8ff" points="175.5,-209.75 179,-219.75 182.5,-209.75 175.5,-209.75"/>
</a>
</g>
</g>
<!-- Node4 -->
<g id="Node000004" class="node">
<title>Node4</title>
<g id="a_Node000004"><a xlink:title=" ">
<polygon fill="white" stroke="#666666" points="216,-294 142,-294 142,-275 216,-275 216,-294"/>
<text text-anchor="middle" x="179" y="-282" font-family="Helvetica,sans-Serif" font-size="10.00">Glib::Object</text>
</a>
</g>
</g>
<!-- Node4&#45;&gt;Node3 -->
<g id="edge3_Node000003_Node000004" class="edge">
<title>Node4&#45;&gt;Node3</title>
<g id="a_edge3_Node000003_Node000004"><a xlink:title=" ">
<path fill="none" stroke="#63b8ff" d="M179,-264.66C179,-255.93 179,-245.99 179,-239.09"/>
<polygon fill="#63b8ff" stroke="#63b8ff" points="175.5,-264.75 179,-274.75 182.5,-264.75 175.5,-264.75"/>
</a>
</g>
</g>
<!-- Node6 -->
<g id="Node000006" class="node">
<title>Node6</title>
<g id="a_Node000006"><a xlink:href="classGtk_1_1HScale.html" target="_top" xlink:title=" ">
<polygon fill="white" stroke="#666666" points="74,-19 0,-19 0,0 74,0 74,-19"/>
<text text-anchor="middle" x="37" y="-7" font-family="Helvetica,sans-Serif" font-size="10.00">Gtk::HScale</text>
</a>
</g>
</g>
<!-- Node5&#45;&gt;Node6 -->
<g id="edge5_Node000005_Node000006" class="edge">
<title>Node5&#45;&gt;Node6</title>
<g id="a_edge5_Node000005_Node000006"><a xlink:title=" ">
<path fill="none" stroke="#63b8ff" d="M105.51,-49.97C88.69,-40.28 66.55,-27.52 52.05,-19.17"/>
<polygon fill="#63b8ff" stroke="#63b8ff" points="103.81,-53.03 114.22,-54.98 107.3,-46.96 103.81,-53.03"/>
</a>
</g>
</g>
<!-- Node7 -->
<g id="Node000007" class="node">
<title>Node7</title>
<g id="a_Node000007"><a xlink:href="classGtk_1_1VScale.html" target="_top" xlink:title=" ">
<polygon fill="white" stroke="#666666" points="165.5,-19 92.5,-19 92.5,0 165.5,0 165.5,-19"/>
<text text-anchor="middle" x="129" y="-7" font-family="Helvetica,sans-Serif" font-size="10.00">Gtk::VScale</text>
</a>
</g>
</g>
<!-- Node5&#45;&gt;Node7 -->
<g id="edge6_Node000005_Node000007" class="edge">
<title>Node5&#45;&gt;Node7</title>
<g id="a_edge6_Node000005_Node000007"><a xlink:title=" ">
<path fill="none" stroke="#63b8ff" d="M129,-44.66C129,-35.93 129,-25.99 129,-19.09"/>
<polygon fill="#63b8ff" stroke="#63b8ff" points="125.5,-44.75 129,-54.75 132.5,-44.75 125.5,-44.75"/>
</a>
</g>
</g>
<!-- Node9 -->
<g id="Node000009" class="node">
<title>Node9</title>
<g id="a_Node000009"><a xlink:href="classGtk_1_1HScrollbar.html" target="_top" xlink:title=" ">
<polygon fill="white" stroke="#666666" points="274,-19 184,-19 184,0 274,0 274,-19"/>
<text text-anchor="middle" x="229" y="-7" font-family="Helvetica,sans-Serif" font-size="10.00">Gtk::HScrollbar</text>
</a>
</g>
</g>
<!-- Node8&#45;&gt;Node9 -->
<g id="edge8_Node000008_Node000009" class="edge">
<title>Node8&#45;&gt;Node9</title>
<g id="a_edge8_Node000008_Node000009"><a xlink:title=" ">
<path fill="none" stroke="#63b8ff" d="M229,-44.66C229,-35.93 229,-25.99 229,-19.09"/>
<polygon fill="#63b8ff" stroke="#63b8ff" points="225.5,-44.75 229,-54.75 232.5,-44.75 225.5,-44.75"/>
</a>
</g>
</g>
<!-- Node10 -->
<g id="Node000010" class="node">
<title>Node10</title>
<g id="a_Node000010"><a xlink:href="classGtk_1_1VScrollbar.html" target="_top" xlink:title=" ">
<polygon fill="white" stroke="#666666" points="381.5,-19 292.5,-19 292.5,0 381.5,0 381.5,-19"/>
<text text-anchor="middle" x="337" y="-7" font-family="Helvetica,sans-Serif" font-size="10.00">Gtk::VScrollbar</text>
</a>
</g>
</g>
<!-- Node8&#45;&gt;Node10 -->
<g id="edge9_Node000008_Node000010" class="edge">
<title>Node8&#45;&gt;Node10</title>
<g id="a_edge9_Node000008_Node000010"><a xlink:title=" ">
<path fill="none" stroke="#63b8ff" d="M255.49,-50.5C275.36,-40.75 302,-27.68 319.33,-19.17"/>
<polygon fill="#63b8ff" stroke="#63b8ff" points="253.79,-47.44 246.35,-54.98 256.87,-53.72 253.79,-47.44"/>
</a>
</g>
</g>
</g>
</svg>
</svg>

<style type='text/css'>
<![CDATA[
[data-mouse-over-selected='false'] { opacity: 0.7; }
[data-mouse-over-selected='true']  { opacity: 1.0; }
]]>
</style>
<script type="application/ecmascript"><![CDATA[
document.addEventListener('DOMContentLoaded', (event) => {
  highlightEdges();
  highlightAdjacentNodes();
});
]]></script>
</svg>
