<?xml version="1.0" encoding="UTF-8" standalone="no"?>
<!DOCTYPE svg PUBLIC "-//W3C//DTD SVG 1.1//EN"
 "http://www.w3.org/Graphics/SVG/1.1/DTD/svg11.dtd">
<!-- Generated by graphviz version 2.43.0 (0)
 -->
<!-- Title: Selectable Pages: 1 -->
<svg width="957pt" height="436pt"
 viewBox="0.00 0.00 957.00 436.00" xmlns="http://www.w3.org/2000/svg" xmlns:xlink="http://www.w3.org/1999/xlink">
<g id="graph0" class="graph" transform="scale(1 1) rotate(0) translate(4 432)">
<title>Selectable</title>
<!-- Node1 -->
<g id="Node000001" class="node">
<title>Node1</title>
<g id="a_Node000001"><a xlink:title=" ">
<polygon fill="#999999" stroke="#666666" points="191,-205 123,-205 123,-186 191,-186 191,-205"/>
<text text-anchor="middle" x="157" y="-193" font-family="Helvetica,sans-Serif" font-size="10.00">Selectable</text>
</a>
</g>
</g>
<!-- Node3 -->
<g id="Node000003" class="node">
<title>Node3</title>
<g id="a_Node000003"><a xlink:href="classAxisView.html" target="_top" xlink:title=" ">
<polygon fill="white" stroke="#666666" points="312.5,-317 250.5,-317 250.5,-298 312.5,-298 312.5,-317"/>
<text text-anchor="middle" x="281.5" y="-305" font-family="Helvetica,sans-Serif" font-size="10.00">AxisView</text>
</a>
</g>
</g>
<!-- Node1&#45;&gt;Node3 -->
<g id="edge2_Node000001_Node000003" class="edge">
<title>Node1&#45;&gt;Node3</title>
<g id="a_edge2_Node000001_Node000003"><a xlink:title=" ">
<path fill="none" stroke="#63b8ff" d="M176.09,-212.04C202.1,-235.82 249.22,-278.9 270.08,-297.98"/>
<polygon fill="#63b8ff" stroke="#63b8ff" points="178.19,-209.21 168.44,-205.05 173.46,-214.38 178.19,-209.21"/>
</a>
</g>
</g>
<!-- Node16 -->
<g id="Node000016" class="node">
<title>Node16</title>
<g id="a_Node000016"><a xlink:href="classControlPoint.html" target="_top" xlink:title=" ">
<polygon fill="white" stroke="#666666" points="320,-187 243,-187 243,-168 320,-168 320,-187"/>
<text text-anchor="middle" x="281.5" y="-175" font-family="Helvetica,sans-Serif" font-size="10.00">ControlPoint</text>
</a>
</g>
</g>
<!-- Node1&#45;&gt;Node16 -->
<g id="edge15_Node000001_Node000016" class="edge">
<title>Node1&#45;&gt;Node16</title>
<g id="a_edge15_Node000001_Node000016"><a xlink:title=" ">
<path fill="none" stroke="#63b8ff" d="M201.26,-189.14C214.89,-187.14 229.81,-184.95 243,-183.01"/>
<polygon fill="#63b8ff" stroke="#63b8ff" points="200.54,-185.71 191.15,-190.63 201.55,-192.64 200.54,-185.71"/>
</a>
</g>
</g>
<!-- Node17 -->
<g id="Node000017" class="node">
<title>Node17</title>
<g id="a_Node000017"><a xlink:href="classRouteUI.html" target="_top" xlink:title=" ">
<polygon fill="white" stroke="#666666" points="309.5,-224 253.5,-224 253.5,-205 309.5,-205 309.5,-224"/>
<text text-anchor="middle" x="281.5" y="-212" font-family="Helvetica,sans-Serif" font-size="10.00">RouteUI</text>
</a>
</g>
</g>
<!-- Node1&#45;&gt;Node17 -->
<g id="edge16_Node000001_Node000017" class="edge">
<title>Node1&#45;&gt;Node17</title>
<g id="a_edge16_Node000001_Node000017"><a xlink:title=" ">
<path fill="none" stroke="#63b8ff" d="M201.05,-202.18C218.35,-204.86 237.8,-207.88 253.11,-210.25"/>
<polygon fill="#63b8ff" stroke="#63b8ff" points="201.57,-198.72 191.15,-200.64 200.5,-205.63 201.57,-198.72"/>
</a>
</g>
</g>
<!-- Node21 -->
<g id="Node000021" class="node">
<title>Node21</title>
<g id="a_Node000021"><a xlink:href="classTimeAxisViewItem.html" target="_top" xlink:title=" ">
<polygon fill="white" stroke="#666666" points="336,-112 227,-112 227,-93 336,-93 336,-112"/>
<text text-anchor="middle" x="281.5" y="-100" font-family="Helvetica,sans-Serif" font-size="10.00">TimeAxisViewItem</text>
</a>
</g>
</g>
<!-- Node1&#45;&gt;Node21 -->
<g id="edge25_Node000001_Node000021" class="edge">
<title>Node1&#45;&gt;Node21</title>
<g id="a_edge25_Node000001_Node000021"><a xlink:title=" ">
<path fill="none" stroke="#63b8ff" d="M178.9,-179.63C204.39,-160.28 246.66,-128.19 267.74,-112.19"/>
<polygon fill="#63b8ff" stroke="#63b8ff" points="176.5,-177.06 170.65,-185.9 180.73,-182.64 176.5,-177.06"/>
</a>
</g>
</g>
<!-- Node2 -->
<g id="Node000002" class="node">
<title>Node2</title>
<g id="a_Node000002"><a xlink:title=" ">
<polygon fill="white" stroke="#666666" points="87,-205 0,-205 0,-186 87,-186 87,-205"/>
<text text-anchor="middle" x="43.5" y="-193" font-family="Helvetica,sans-Serif" font-size="10.00">sigc::trackable</text>
</a>
</g>
</g>
<!-- Node2&#45;&gt;Node1 -->
<g id="edge1_Node000001_Node000002" class="edge">
<title>Node2&#45;&gt;Node1</title>
<g id="a_edge1_Node000001_Node000002"><a xlink:title=" ">
<path fill="none" stroke="#63b8ff" d="M97.38,-195.5C106.06,-195.5 114.83,-195.5 122.85,-195.5"/>
<polygon fill="#63b8ff" stroke="#63b8ff" points="97.29,-192 87.29,-195.5 97.29,-199 97.29,-192"/>
</a>
</g>
</g>
<!-- Node4 -->
<g id="Node000004" class="node">
<title>Node4</title>
<g id="a_Node000004"><a xlink:href="classMeterStrip.html" target="_top" xlink:title=" ">
<polygon fill="white" stroke="#666666" points="454.5,-243 386.5,-243 386.5,-224 454.5,-224 454.5,-243"/>
<text text-anchor="middle" x="420.5" y="-231" font-family="Helvetica,sans-Serif" font-size="10.00">MeterStrip</text>
</a>
</g>
</g>
<!-- Node3&#45;&gt;Node4 -->
<g id="edge3_Node000003_Node000004" class="edge">
<title>Node3&#45;&gt;Node4</title>
<g id="a_edge3_Node000003_Node000004"><a xlink:title=" ">
<path fill="none" stroke="#63b8ff" d="M304.43,-292.07C322.12,-280.04 347.95,-263.43 372,-251.5 378.16,-248.44 384.98,-245.58 391.48,-243.07"/>
<polygon fill="#63b8ff" stroke="#63b8ff" points="302.22,-289.34 295.96,-297.9 306.19,-295.11 302.22,-289.34"/>
</a>
</g>
</g>
<!-- Node5 -->
<g id="Node000005" class="node">
<title>Node5</title>
<g id="a_Node000005"><a xlink:href="classMixerStrip.html" target="_top" xlink:title=" ">
<polygon fill="white" stroke="#666666" points="453.5,-354 387.5,-354 387.5,-335 453.5,-335 453.5,-354"/>
<text text-anchor="middle" x="420.5" y="-342" font-family="Helvetica,sans-Serif" font-size="10.00">MixerStrip</text>
</a>
</g>
</g>
<!-- Node3&#45;&gt;Node5 -->
<g id="edge4_Node000003_Node000005" class="edge">
<title>Node3&#45;&gt;Node5</title>
<g id="a_edge4_Node000003_Node000005"><a xlink:title=" ">
<path fill="none" stroke="#63b8ff" d="M322.29,-318.25C342.89,-323.81 367.71,-330.51 387.11,-335.75"/>
<polygon fill="#63b8ff" stroke="#63b8ff" points="323.13,-314.85 312.57,-315.62 321.31,-321.61 323.13,-314.85"/>
</a>
</g>
</g>
<!-- Node6 -->
<g id="Node000006" class="node">
<title>Node6</title>
<g id="a_Node000006"><a xlink:href="classTimeAxisView.html" target="_top" xlink:title=" ">
<polygon fill="white" stroke="#666666" points="463.5,-391 377.5,-391 377.5,-372 463.5,-372 463.5,-391"/>
<text text-anchor="middle" x="420.5" y="-379" font-family="Helvetica,sans-Serif" font-size="10.00">TimeAxisView</text>
</a>
</g>
</g>
<!-- Node3&#45;&gt;Node6 -->
<g id="edge5_Node000003_Node000006" class="edge">
<title>Node3&#45;&gt;Node6</title>
<g id="a_edge5_Node000003_Node000006"><a xlink:title=" ">
<path fill="none" stroke="#63b8ff" d="M304.84,-322.71C322.58,-334.42 348.27,-350.57 372,-362.5 378.67,-365.85 386.07,-369.05 393.01,-371.83"/>
<polygon fill="#63b8ff" stroke="#63b8ff" points="306.59,-319.67 296.33,-317.03 302.71,-325.49 306.59,-319.67"/>
</a>
</g>
</g>
<!-- Node13 -->
<g id="Node000013" class="node">
<title>Node13</title>
<g id="a_Node000013"><a xlink:href="classTrackRecordAxis.html" target="_top" xlink:title=" ">
<polygon fill="white" stroke="#666666" points="469,-317 372,-317 372,-298 469,-298 469,-317"/>
<text text-anchor="middle" x="420.5" y="-305" font-family="Helvetica,sans-Serif" font-size="10.00">TrackRecordAxis</text>
</a>
</g>
</g>
<!-- Node3&#45;&gt;Node13 -->
<g id="edge12_Node000003_Node000013" class="edge">
<title>Node3&#45;&gt;Node13</title>
<g id="a_edge12_Node000003_Node000013"><a xlink:title=" ">
<path fill="none" stroke="#63b8ff" d="M322.78,-307.5C338.12,-307.5 355.76,-307.5 371.74,-307.5"/>
<polygon fill="#63b8ff" stroke="#63b8ff" points="322.57,-304 312.57,-307.5 322.57,-311 322.57,-304"/>
</a>
</g>
</g>
<!-- Node14 -->
<g id="Node000014" class="node">
<title>Node14</title>
<g id="a_Node000014"><a xlink:href="classTriggerStrip.html" target="_top" xlink:title=" ">
<polygon fill="white" stroke="#666666" points="456.5,-280 384.5,-280 384.5,-261 456.5,-261 456.5,-280"/>
<text text-anchor="middle" x="420.5" y="-268" font-family="Helvetica,sans-Serif" font-size="10.00">TriggerStrip</text>
</a>
</g>
</g>
<!-- Node3&#45;&gt;Node14 -->
<g id="edge13_Node000003_Node000014" class="edge">
<title>Node3&#45;&gt;Node14</title>
<g id="a_edge13_Node000003_Node000014"><a xlink:title=" ">
<path fill="none" stroke="#63b8ff" d="M322.4,-296.72C341.94,-291.45 365.28,-285.14 384.17,-280.04"/>
<polygon fill="#63b8ff" stroke="#63b8ff" points="321.31,-293.39 312.57,-299.38 323.13,-300.15 321.31,-293.39"/>
</a>
</g>
</g>
<!-- Node15 -->
<g id="Node000015" class="node">
<title>Node15</title>
<g id="a_Node000015"><a xlink:href="classVCAMasterStrip.html" target="_top" xlink:title=" ">
<polygon fill="white" stroke="#666666" points="467,-428 374,-428 374,-409 467,-409 467,-428"/>
<text text-anchor="middle" x="420.5" y="-416" font-family="Helvetica,sans-Serif" font-size="10.00">VCAMasterStrip</text>
</a>
</g>
</g>
<!-- Node3&#45;&gt;Node15 -->
<g id="edge14_Node000003_Node000015" class="edge">
<title>Node3&#45;&gt;Node15</title>
<g id="a_edge14_Node000003_Node000015"><a xlink:title=" ">
<path fill="none" stroke="#63b8ff" d="M295.54,-325.2C311.52,-345.79 340.4,-379.64 372,-400.5 377,-403.8 382.7,-406.62 388.37,-408.98"/>
<polygon fill="#63b8ff" stroke="#63b8ff" points="298.16,-322.86 289.32,-317.01 292.58,-327.09 298.16,-322.86"/>
</a>
</g>
</g>
<!-- Node7 -->
<g id="Node000007" class="node">
<title>Node7</title>
<g id="a_Node000007"><a xlink:href="classAutomationTimeAxisView.html" target="_top" xlink:title=" ">
<polygon fill="white" stroke="#666666" points="648,-354 505,-354 505,-335 648,-335 648,-354"/>
<text text-anchor="middle" x="576.5" y="-342" font-family="Helvetica,sans-Serif" font-size="10.00">AutomationTimeAxisView</text>
</a>
</g>
</g>
<!-- Node6&#45;&gt;Node7 -->
<g id="edge6_Node000006_Node000007" class="edge">
<title>Node6&#45;&gt;Node7</title>
<g id="a_edge6_Node000006_Node000007"><a xlink:title=" ">
<path fill="none" stroke="#63b8ff" d="M471.13,-369.57C492.03,-364.56 516.01,-358.79 535.71,-354.06"/>
<polygon fill="#63b8ff" stroke="#63b8ff" points="470.06,-366.23 461.16,-371.97 471.7,-373.04 470.06,-366.23"/>
</a>
</g>
</g>
<!-- Node8 -->
<g id="Node000008" class="node">
<title>Node8</title>
<g id="a_Node000008"><a xlink:href="classStripableTimeAxisView.html" target="_top" xlink:title=" ">
<polygon fill="white" stroke="#666666" points="641.5,-391 511.5,-391 511.5,-372 641.5,-372 641.5,-391"/>
<text text-anchor="middle" x="576.5" y="-379" font-family="Helvetica,sans-Serif" font-size="10.00">StripableTimeAxisView</text>
</a>
</g>
</g>
<!-- Node6&#45;&gt;Node8 -->
<g id="edge7_Node000006_Node000008" class="edge">
<title>Node6&#45;&gt;Node8</title>
<g id="a_edge7_Node000006_Node000008"><a xlink:title=" ">
<path fill="none" stroke="#63b8ff" d="M473.87,-381.5C485.87,-381.5 498.77,-381.5 511.21,-381.5"/>
<polygon fill="#63b8ff" stroke="#63b8ff" points="473.58,-378 463.58,-381.5 473.58,-385 473.58,-378"/>
</a>
</g>
</g>
<!-- Node9 -->
<g id="Node000009" class="node">
<title>Node9</title>
<g id="a_Node000009"><a xlink:href="classRouteTimeAxisView.html" target="_top" xlink:title=" ">
<polygon fill="white" stroke="#666666" points="799,-261 684,-261 684,-242 799,-242 799,-261"/>
<text text-anchor="middle" x="741.5" y="-249" font-family="Helvetica,sans-Serif" font-size="10.00">RouteTimeAxisView</text>
</a>
</g>
</g>
<!-- Node8&#45;&gt;Node9 -->
<g id="edge8_Node000008_Node000009" class="edge">
<title>Node8&#45;&gt;Node9</title>
<g id="a_edge8_Node000008_Node000009"><a xlink:title=" ">
<path fill="none" stroke="#63b8ff" d="M637.42,-368.21C641.11,-366.53 644.67,-364.63 648,-362.5 690.25,-335.44 722.94,-282.91 735.22,-261.23"/>
<polygon fill="#63b8ff" stroke="#63b8ff" points="636.02,-365 628.04,-371.97 638.63,-371.5 636.02,-365"/>
</a>
</g>
</g>
<!-- Node12 -->
<g id="Node000012" class="node">
<title>Node12</title>
<g id="a_Node000012"><a xlink:href="classVCATimeAxisView.html" target="_top" xlink:title=" ">
<polygon fill="white" stroke="#666666" points="794.5,-391 688.5,-391 688.5,-372 794.5,-372 794.5,-391"/>
<text text-anchor="middle" x="741.5" y="-379" font-family="Helvetica,sans-Serif" font-size="10.00">VCATimeAxisView</text>
</a>
</g>
</g>
<!-- Node8&#45;&gt;Node12 -->
<g id="edge11_Node000008_Node000012" class="edge">
<title>Node8&#45;&gt;Node12</title>
<g id="a_edge11_Node000008_Node000012"><a xlink:title=" ">
<path fill="none" stroke="#63b8ff" d="M652.12,-381.5C664.35,-381.5 676.79,-381.5 688.33,-381.5"/>
<polygon fill="#63b8ff" stroke="#63b8ff" points="651.92,-378 641.92,-381.5 651.92,-385 651.92,-378"/>
</a>
</g>
</g>
<!-- Node10 -->
<g id="Node000010" class="node">
<title>Node10</title>
<g id="a_Node000010"><a xlink:href="classAudioTimeAxisView.html" target="_top" xlink:title=" ">
<polygon fill="white" stroke="#666666" points="949,-280 835,-280 835,-261 949,-261 949,-280"/>
<text text-anchor="middle" x="892" y="-268" font-family="Helvetica,sans-Serif" font-size="10.00">AudioTimeAxisView</text>
</a>
</g>
</g>
<!-- Node9&#45;&gt;Node10 -->
<g id="edge9_Node000009_Node000010" class="edge">
<title>Node9&#45;&gt;Node10</title>
<g id="a_edge9_Node000009_Node000010"><a xlink:title=" ">
<path fill="none" stroke="#63b8ff" d="M809,-260.01C817.55,-261.1 826.23,-262.21 834.59,-263.28"/>
<polygon fill="#63b8ff" stroke="#63b8ff" points="809.43,-256.53 799.07,-258.74 808.54,-263.48 809.43,-256.53"/>
</a>
</g>
</g>
<!-- Node11 -->
<g id="Node000011" class="node">
<title>Node11</title>
<g id="a_Node000011"><a xlink:href="classMidiTimeAxisView.html" target="_top" xlink:title=" ">
<polygon fill="white" stroke="#666666" points="945.5,-243 838.5,-243 838.5,-224 945.5,-224 945.5,-243"/>
<text text-anchor="middle" x="892" y="-231" font-family="Helvetica,sans-Serif" font-size="10.00">MidiTimeAxisView</text>
</a>
</g>
</g>
<!-- Node9&#45;&gt;Node11 -->
<g id="edge10_Node000009_Node000011" class="edge">
<title>Node9&#45;&gt;Node11</title>
<g id="a_edge10_Node000009_Node000011"><a xlink:title=" ">
<path fill="none" stroke="#63b8ff" d="M809.2,-243.41C819.02,-242.22 829.02,-241.01 838.5,-239.86"/>
<polygon fill="#63b8ff" stroke="#63b8ff" points="808.57,-239.97 799.07,-244.64 809.41,-246.91 808.57,-239.97"/>
</a>
</g>
</g>
<!-- Node17&#45;&gt;Node4 -->
<g id="edge18_Node000017_Node000004" class="edge">
<title>Node17&#45;&gt;Node4</title>
<g id="a_edge18_Node000017_Node000004"><a xlink:title=" ">
<path fill="none" stroke="#63b8ff" d="M319.62,-219.65C340.39,-222.53 366.07,-226.09 386.19,-228.88"/>
<polygon fill="#63b8ff" stroke="#63b8ff" points="319.95,-216.16 309.57,-218.25 318.99,-223.09 319.95,-216.16"/>
</a>
</g>
</g>
<!-- Node17&#45;&gt;Node5 -->
<g id="edge19_Node000017_Node000005" class="edge">
<title>Node17&#45;&gt;Node5</title>
<g id="a_edge19_Node000017_Node000005"><a xlink:title=" ">
<path fill="none" stroke="#63b8ff" d="M295.35,-232.61C315.39,-260.44 353.67,-311.95 372,-325.5 377,-329.19 382.82,-332.29 388.63,-334.84"/>
<polygon fill="#63b8ff" stroke="#63b8ff" points="297.98,-230.26 289.31,-224.17 292.28,-234.34 297.98,-230.26"/>
</a>
</g>
</g>
<!-- Node17&#45;&gt;Node9 -->
<g id="edge21_Node000017_Node000009" class="edge">
<title>Node17&#45;&gt;Node9</title>
<g id="a_edge21_Node000017_Node000009"><a xlink:title=" ">
<path fill="none" stroke="#63b8ff" d="M319.11,-202.17C324.81,-200.06 330.6,-197.8 336,-195.5 352.46,-188.49 354.59,-181.61 372,-177.5 505.05,-146.09 667.12,-215.65 721.61,-241.95"/>
<polygon fill="#63b8ff" stroke="#63b8ff" points="317.91,-198.88 309.69,-205.57 320.28,-205.47 317.91,-198.88"/>
</a>
</g>
</g>
<!-- Node17&#45;&gt;Node13 -->
<g id="edge23_Node000017_Node000013" class="edge">
<title>Node17&#45;&gt;Node13</title>
<g id="a_edge23_Node000017_Node000013"><a xlink:title=" ">
<path fill="none" stroke="#63b8ff" d="M299.72,-231.54C316.89,-247.82 344.59,-272.23 372,-288.5 377.96,-292.04 384.69,-295.18 391.18,-297.85"/>
<polygon fill="#63b8ff" stroke="#63b8ff" points="301.81,-228.7 292.19,-224.27 296.95,-233.74 301.81,-228.7"/>
</a>
</g>
</g>
<!-- Node17&#45;&gt;Node14 -->
<g id="edge24_Node000017_Node000014" class="edge">
<title>Node17&#45;&gt;Node14</title>
<g id="a_edge24_Node000017_Node000014"><a xlink:title=" ">
<path fill="none" stroke="#63b8ff" d="M314.76,-227.94C331.77,-235 352.99,-243.77 372,-251.5 379.57,-254.58 387.83,-257.9 395.31,-260.89"/>
<polygon fill="#63b8ff" stroke="#63b8ff" points="315.86,-224.61 305.28,-224 313.17,-231.07 315.86,-224.61"/>
</a>
</g>
</g>
<!-- Node18 -->
<g id="Node000018" class="node">
<title>Node18</title>
<g id="a_Node000018"><a xlink:href="classFoldbackStrip.html" target="_top" xlink:title=" ">
<polygon fill="white" stroke="#666666" points="462,-130 379,-130 379,-111 462,-111 462,-130"/>
<text text-anchor="middle" x="420.5" y="-118" font-family="Helvetica,sans-Serif" font-size="10.00">FoldbackStrip</text>
</a>
</g>
</g>
<!-- Node17&#45;&gt;Node18 -->
<g id="edge17_Node000017_Node000018" class="edge">
<title>Node17&#45;&gt;Node18</title>
<g id="a_edge17_Node000017_Node000018"><a xlink:title=" ">
<path fill="none" stroke="#63b8ff" d="M319.07,-204.94C325.06,-202.43 330.95,-199.33 336,-195.5 358.11,-178.74 351,-162.63 372,-144.5 378.72,-138.7 387.07,-133.88 394.9,-130.12"/>
<polygon fill="#63b8ff" stroke="#63b8ff" points="317.86,-201.65 309.69,-208.39 320.28,-208.22 317.86,-201.65"/>
</a>
</g>
</g>
<!-- Node19 -->
<g id="Node000019" class="node">
<title>Node19</title>
<g id="a_Node000019"><a xlink:href="classMonitorSection.html" target="_top" xlink:title=" ">
<polygon fill="white" stroke="#666666" points="465.5,-93 375.5,-93 375.5,-74 465.5,-74 465.5,-93"/>
<text text-anchor="middle" x="420.5" y="-81" font-family="Helvetica,sans-Serif" font-size="10.00">MonitorSection</text>
</a>
</g>
</g>
<!-- Node17&#45;&gt;Node19 -->
<g id="edge20_Node000017_Node000019" class="edge">
<title>Node17&#45;&gt;Node19</title>
<g id="a_edge20_Node000017_Node000019"><a xlink:title=" ">
<path fill="none" stroke="#63b8ff" d="M319.39,-206.18C325.48,-203.54 331.32,-200.06 336,-195.5 368.02,-164.26 340.31,-133.08 372,-101.5 375.37,-98.14 379.44,-95.39 383.75,-93.16"/>
<polygon fill="#63b8ff" stroke="#63b8ff" points="317.95,-202.98 309.75,-209.68 320.35,-209.56 317.95,-202.98"/>
</a>
</g>
</g>
<!-- Node20 -->
<g id="Node000020" class="node">
<title>Node20</title>
<g id="a_Node000020"><a xlink:href="classSurroundStrip.html" target="_top" xlink:title=" ">
<polygon fill="white" stroke="#666666" points="462,-206 379,-206 379,-187 462,-187 462,-206"/>
<text text-anchor="middle" x="420.5" y="-194" font-family="Helvetica,sans-Serif" font-size="10.00">SurroundStrip</text>
</a>
</g>
</g>
<!-- Node17&#45;&gt;Node20 -->
<g id="edge22_Node000017_Node000020" class="edge">
<title>Node17&#45;&gt;Node20</title>
<g id="a_edge22_Node000017_Node000020"><a xlink:title=" ">
<path fill="none" stroke="#63b8ff" d="M319.6,-209.63C337.97,-207.21 360.17,-204.3 378.98,-201.82"/>
<polygon fill="#63b8ff" stroke="#63b8ff" points="319.03,-206.17 309.57,-210.94 319.94,-213.11 319.03,-206.17"/>
</a>
</g>
</g>
<!-- Node22 -->
<g id="Node000022" class="node">
<title>Node22</title>
<g id="a_Node000022"><a xlink:href="classRegionView.html" target="_top" xlink:title=" ">
<polygon fill="white" stroke="#666666" points="457.5,-56 383.5,-56 383.5,-37 457.5,-37 457.5,-56"/>
<text text-anchor="middle" x="420.5" y="-44" font-family="Helvetica,sans-Serif" font-size="10.00">RegionView</text>
</a>
</g>
</g>
<!-- Node21&#45;&gt;Node22 -->
<g id="edge26_Node000021_Node000022" class="edge">
<title>Node21&#45;&gt;Node22</title>
<g id="a_edge26_Node000021_Node000022"><a xlink:title=" ">
<path fill="none" stroke="#63b8ff" d="M313.97,-88.78C331.07,-81.42 352.62,-72.28 372,-64.5 379.04,-61.67 386.71,-58.71 393.79,-56.03"/>
<polygon fill="#63b8ff" stroke="#63b8ff" points="312.26,-85.71 304.47,-92.89 315.04,-92.13 312.26,-85.71"/>
</a>
</g>
</g>
<!-- Node23 -->
<g id="Node000023" class="node">
<title>Node23</title>
<g id="a_Node000023"><a xlink:href="classAudioRegionView.html" target="_top" xlink:title=" ">
<polygon fill="white" stroke="#666666" points="627.5,-93 525.5,-93 525.5,-74 627.5,-74 627.5,-93"/>
<text text-anchor="middle" x="576.5" y="-81" font-family="Helvetica,sans-Serif" font-size="10.00">AudioRegionView</text>
</a>
</g>
</g>
<!-- Node22&#45;&gt;Node23 -->
<g id="edge27_Node000022_Node000023" class="edge">
<title>Node22&#45;&gt;Node23</title>
<g id="a_edge27_Node000022_Node000023"><a xlink:title=" ">
<path fill="none" stroke="#63b8ff" d="M467.6,-57.58C489.33,-62.8 514.99,-68.96 535.83,-73.97"/>
<polygon fill="#63b8ff" stroke="#63b8ff" points="468.15,-54.11 457.61,-55.17 466.51,-60.91 468.15,-54.11"/>
</a>
</g>
</g>
<!-- Node24 -->
<g id="Node000024" class="node">
<title>Node24</title>
<g id="a_Node000024"><a xlink:href="classAutomationRegionView.html" target="_top" xlink:title=" ">
<polygon fill="white" stroke="#666666" points="642,-56 511,-56 511,-37 642,-37 642,-56"/>
<text text-anchor="middle" x="576.5" y="-44" font-family="Helvetica,sans-Serif" font-size="10.00">AutomationRegionView</text>
</a>
</g>
</g>
<!-- Node22&#45;&gt;Node24 -->
<g id="edge28_Node000022_Node000024" class="edge">
<title>Node22&#45;&gt;Node24</title>
<g id="a_edge28_Node000022_Node000024"><a xlink:title=" ">
<path fill="none" stroke="#63b8ff" d="M467.67,-46.5C481.28,-46.5 496.42,-46.5 510.95,-46.5"/>
<polygon fill="#63b8ff" stroke="#63b8ff" points="467.61,-43 457.61,-46.5 467.61,-50 467.61,-43"/>
</a>
</g>
</g>
<!-- Node25 -->
<g id="Node000025" class="node">
<title>Node25</title>
<g id="a_Node000025"><a xlink:href="classMidiRegionView.html" target="_top" xlink:title=" ">
<polygon fill="white" stroke="#666666" points="624,-19 529,-19 529,0 624,0 624,-19"/>
<text text-anchor="middle" x="576.5" y="-7" font-family="Helvetica,sans-Serif" font-size="10.00">MidiRegionView</text>
</a>
</g>
</g>
<!-- Node22&#45;&gt;Node25 -->
<g id="edge29_Node000022_Node000025" class="edge">
<title>Node22&#45;&gt;Node25</title>
<g id="a_edge29_Node000022_Node000025"><a xlink:title=" ">
<path fill="none" stroke="#63b8ff" d="M467.6,-35.42C489.33,-30.2 514.99,-24.04 535.83,-19.03"/>
<polygon fill="#63b8ff" stroke="#63b8ff" points="466.51,-32.09 457.61,-37.83 468.15,-38.89 466.51,-32.09"/>
</a>
</g>
</g>
</g>
</svg>
