<?xml version="1.0" encoding="UTF-8" standalone="no"?>
<!DOCTYPE svg PUBLIC "-//W3C//DTD SVG 1.1//EN"
 "http://www.w3.org/Graphics/SVG/1.1/DTD/svg11.dtd">
<!-- Generated by graphviz version 2.43.0 (0)
 -->
<!-- Title: ARDOUR::Stripable Pages: 1 -->
<svg width="1301pt" height="178pt"
 viewBox="0.00 0.00 1301.00 177.50" xmlns="http://www.w3.org/2000/svg" xmlns:xlink="http://www.w3.org/1999/xlink">
<g id="graph0" class="graph" transform="scale(1 1) rotate(0) translate(4 173.5)">
<title>ARDOUR::Stripable</title>
<!-- Node1 -->
<g id="Node000001" class="node">
<title>Node1</title>
<g id="a_Node000001"><a xlink:title=" ">
<polygon fill="#999999" stroke="#666666" points="881,-67.5 772,-67.5 772,-48.5 881,-48.5 881,-67.5"/>
<text text-anchor="middle" x="826.5" y="-55.5" font-family="Helvetica,sans-Serif" font-size="10.00">ARDOUR::Stripable</text>
</a>
</g>
</g>
<!-- Node15 -->
<g id="Node000015" class="node">
<title>Node15</title>
<g id="a_Node000015"><a xlink:href="classARDOUR_1_1Route.html" target="_top" xlink:title=" ">
<polygon fill="white" stroke="#666666" points="1011,-86.5 917,-86.5 917,-67.5 1011,-67.5 1011,-86.5"/>
<text text-anchor="middle" x="964" y="-74.5" font-family="Helvetica,sans-Serif" font-size="10.00">ARDOUR::Route</text>
</a>
</g>
</g>
<!-- Node1&#45;&gt;Node15 -->
<g id="edge15_Node000001_Node000015" class="edge">
<title>Node1&#45;&gt;Node15</title>
<g id="a_edge15_Node000001_Node000015"><a xlink:title=" ">
<path fill="none" stroke="#63b8ff" d="M891.15,-66.92C899.81,-68.14 908.57,-69.37 916.84,-70.53"/>
<polygon fill="#63b8ff" stroke="#63b8ff" points="891.44,-63.43 881.05,-65.51 890.47,-70.36 891.44,-63.43"/>
</a>
</g>
</g>
<!-- Node20 -->
<g id="Node000020" class="node">
<title>Node20</title>
<g id="a_Node000020"><a xlink:href="classARDOUR_1_1VCA.html" target="_top" xlink:title=" ">
<polygon fill="white" stroke="#666666" points="1007,-49.5 921,-49.5 921,-30.5 1007,-30.5 1007,-49.5"/>
<text text-anchor="middle" x="964" y="-37.5" font-family="Helvetica,sans-Serif" font-size="10.00">ARDOUR::VCA</text>
</a>
</g>
</g>
<!-- Node1&#45;&gt;Node20 -->
<g id="edge20_Node000001_Node000020" class="edge">
<title>Node1&#45;&gt;Node20</title>
<g id="a_edge20_Node000001_Node000020"><a xlink:title=" ">
<path fill="none" stroke="#63b8ff" d="M891.04,-49.56C901.09,-48.22 911.28,-46.87 920.69,-45.62"/>
<polygon fill="#63b8ff" stroke="#63b8ff" points="890.51,-46.1 881.05,-50.89 891.43,-53.04 890.51,-46.1"/>
</a>
</g>
</g>
<!-- Node2 -->
<g id="Node000002" class="node">
<title>Node2</title>
<g id="a_Node000002"><a xlink:href="classARDOUR_1_1SessionObject.html" target="_top" xlink:title=" ">
<polygon fill="white" stroke="#666666" points="547.5,-132.5 413.5,-132.5 413.5,-113.5 547.5,-113.5 547.5,-132.5"/>
<text text-anchor="middle" x="480.5" y="-120.5" font-family="Helvetica,sans-Serif" font-size="10.00">ARDOUR::SessionObject</text>
</a>
</g>
</g>
<!-- Node2&#45;&gt;Node1 -->
<g id="edge1_Node000001_Node000002" class="edge">
<title>Node2&#45;&gt;Node1</title>
<g id="a_edge1_Node000001_Node000002"><a xlink:title=" ">
<path fill="none" stroke="#63b8ff" d="M547.19,-111.69C598.64,-102.7 671.98,-89.58 736,-77 750.96,-74.06 767.29,-70.65 781.85,-67.54"/>
<polygon fill="#63b8ff" stroke="#63b8ff" points="546.45,-108.27 537.2,-113.43 547.65,-115.16 546.45,-108.27"/>
</a>
</g>
</g>
<!-- Node3 -->
<g id="Node000003" class="node">
<title>Node3</title>
<g id="a_Node000003"><a xlink:href="classARDOUR_1_1SessionHandleRef.html" target="_top" xlink:title=" ">
<polygon fill="white" stroke="#666666" points="349.5,-169.5 195.5,-169.5 195.5,-150.5 349.5,-150.5 349.5,-169.5"/>
<text text-anchor="middle" x="272.5" y="-157.5" font-family="Helvetica,sans-Serif" font-size="10.00">ARDOUR::SessionHandleRef</text>
</a>
</g>
</g>
<!-- Node3&#45;&gt;Node2 -->
<g id="edge2_Node000002_Node000003" class="edge">
<title>Node3&#45;&gt;Node2</title>
<g id="a_edge2_Node000002_Node000003"><a xlink:title=" ">
<path fill="none" stroke="#63b8ff" d="M336.49,-148.69C365.2,-143.53 398.84,-137.49 426.27,-132.56"/>
<polygon fill="#63b8ff" stroke="#63b8ff" points="335.77,-145.26 326.55,-150.47 337.01,-152.15 335.77,-145.26"/>
</a>
</g>
</g>
<!-- Node4 -->
<g id="Node000004" class="node">
<title>Node4</title>
<g id="a_Node000004"><a xlink:href="classPBD_1_1ScopedConnectionList.html" target="_top" xlink:title=" ">
<polygon fill="white" stroke="#666666" points="150,-169.5 0,-169.5 0,-150.5 150,-150.5 150,-169.5"/>
<text text-anchor="middle" x="75" y="-157.5" font-family="Helvetica,sans-Serif" font-size="10.00">PBD::ScopedConnectionList</text>
</a>
</g>
</g>
<!-- Node4&#45;&gt;Node3 -->
<g id="edge3_Node000003_Node000004" class="edge">
<title>Node4&#45;&gt;Node3</title>
<g id="a_edge3_Node000003_Node000004"><a xlink:title=" ">
<path fill="none" stroke="#63b8ff" d="M160.35,-160C172,-160 183.92,-160 195.41,-160"/>
<polygon fill="#63b8ff" stroke="#63b8ff" points="160.19,-156.5 150.19,-160 160.19,-163.5 160.19,-156.5"/>
</a>
</g>
</g>
<!-- Node5 -->
<g id="Node000005" class="node">
<title>Node5</title>
<g id="a_Node000005"><a xlink:href="classPBD_1_1StatefulDestructible.html" target="_top" xlink:title=" ">
<polygon fill="white" stroke="#666666" points="342.5,-132.5 202.5,-132.5 202.5,-113.5 342.5,-113.5 342.5,-132.5"/>
<text text-anchor="middle" x="272.5" y="-120.5" font-family="Helvetica,sans-Serif" font-size="10.00">PBD::StatefulDestructible</text>
</a>
</g>
</g>
<!-- Node5&#45;&gt;Node2 -->
<g id="edge4_Node000002_Node000005" class="edge">
<title>Node5&#45;&gt;Node2</title>
<g id="a_edge4_Node000002_Node000005"><a xlink:title=" ">
<path fill="none" stroke="#63b8ff" d="M352.69,-123C372.71,-123 394,-123 413.31,-123"/>
<polygon fill="#63b8ff" stroke="#63b8ff" points="352.67,-119.5 342.67,-123 352.67,-126.5 352.67,-119.5"/>
</a>
</g>
</g>
<!-- Node6 -->
<g id="Node000006" class="node">
<title>Node6</title>
<g id="a_Node000006"><a xlink:href="classPBD_1_1Stateful.html" target="_top" xlink:title=" ">
<polygon fill="white" stroke="#666666" points="115.5,-132.5 34.5,-132.5 34.5,-113.5 115.5,-113.5 115.5,-132.5"/>
<text text-anchor="middle" x="75" y="-120.5" font-family="Helvetica,sans-Serif" font-size="10.00">PBD::Stateful</text>
</a>
</g>
</g>
<!-- Node6&#45;&gt;Node5 -->
<g id="edge5_Node000005_Node000006" class="edge">
<title>Node6&#45;&gt;Node5</title>
<g id="a_edge5_Node000005_Node000006"><a xlink:title=" ">
<path fill="none" stroke="#63b8ff" d="M125.87,-123C149.09,-123 177.1,-123 202.32,-123"/>
<polygon fill="#63b8ff" stroke="#63b8ff" points="125.56,-119.5 115.56,-123 125.56,-126.5 125.56,-119.5"/>
</a>
</g>
</g>
<!-- Node7 -->
<g id="Node000007" class="node">
<title>Node7</title>
<g id="a_Node000007"><a xlink:href="classPBD_1_1Destructible.html" target="_top" xlink:title=" ">
<polygon fill="white" stroke="#666666" points="126,-95.5 24,-95.5 24,-76.5 126,-76.5 126,-95.5"/>
<text text-anchor="middle" x="75" y="-83.5" font-family="Helvetica,sans-Serif" font-size="10.00">PBD::Destructible</text>
</a>
</g>
</g>
<!-- Node7&#45;&gt;Node5 -->
<g id="edge6_Node000005_Node000007" class="edge">
<title>Node7&#45;&gt;Node5</title>
<g id="a_edge6_Node000005_Node000007"><a xlink:title=" ">
<path fill="none" stroke="#63b8ff" d="M135.92,-97.34C163.22,-102.51 195.17,-108.55 221.2,-113.48"/>
<polygon fill="#63b8ff" stroke="#63b8ff" points="136.57,-93.9 126.09,-95.48 135.27,-100.78 136.57,-93.9"/>
</a>
</g>
</g>
<!-- Node11 -->
<g id="Node000011" class="node">
<title>Node11</title>
<g id="a_Node000011"><a xlink:href="structTemporal_1_1TimeDomainSwapper.html" target="_top" xlink:title=" ">
<polygon fill="white" stroke="#666666" points="359,-95.5 186,-95.5 186,-76.5 359,-76.5 359,-95.5"/>
<text text-anchor="middle" x="272.5" y="-83.5" font-family="Helvetica,sans-Serif" font-size="10.00">Temporal::TimeDomainSwapper</text>
</a>
</g>
</g>
<!-- Node7&#45;&gt;Node11 -->
<g id="edge11_Node000011_Node000007" class="edge">
<title>Node7&#45;&gt;Node11</title>
<g id="a_edge11_Node000011_Node000007"><a xlink:title=" ">
<path fill="none" stroke="#63b8ff" d="M136.17,-86C151.88,-86 169.11,-86 185.86,-86"/>
<polygon fill="#63b8ff" stroke="#63b8ff" points="136.09,-82.5 126.09,-86 136.09,-89.5 136.09,-82.5"/>
</a>
</g>
</g>
<!-- Node8 -->
<g id="Node000008" class="node">
<title>Node8</title>
<g id="a_Node000008"><a xlink:href="classARDOUR_1_1Automatable.html" target="_top" xlink:title=" ">
<polygon fill="white" stroke="#666666" points="733,-67.5 605,-67.5 605,-48.5 733,-48.5 733,-67.5"/>
<text text-anchor="middle" x="669" y="-55.5" font-family="Helvetica,sans-Serif" font-size="10.00">ARDOUR::Automatable</text>
</a>
</g>
</g>
<!-- Node8&#45;&gt;Node1 -->
<g id="edge7_Node000001_Node000008" class="edge">
<title>Node8&#45;&gt;Node1</title>
<g id="a_edge7_Node000001_Node000008"><a xlink:title=" ">
<path fill="none" stroke="#63b8ff" d="M743.52,-58C753.04,-58 762.65,-58 771.77,-58"/>
<polygon fill="#63b8ff" stroke="#63b8ff" points="743.25,-54.5 733.25,-58 743.25,-61.5 743.25,-54.5"/>
</a>
</g>
</g>
<!-- Node9 -->
<g id="Node000009" class="node">
<title>Node9</title>
<g id="a_Node000009"><a xlink:href="classEvoral_1_1ControlSet.html" target="_top" xlink:title=" ">
<polygon fill="white" stroke="#666666" points="532.5,-95.5 428.5,-95.5 428.5,-76.5 532.5,-76.5 532.5,-95.5"/>
<text text-anchor="middle" x="480.5" y="-83.5" font-family="Helvetica,sans-Serif" font-size="10.00">Evoral::ControlSet</text>
</a>
</g>
</g>
<!-- Node9&#45;&gt;Node8 -->
<g id="edge8_Node000008_Node000009" class="edge">
<title>Node9&#45;&gt;Node8</title>
<g id="a_edge8_Node000008_Node000009"><a xlink:title=" ">
<path fill="none" stroke="#63b8ff" d="M543.09,-76.75C562.88,-73.78 584.84,-70.49 604.75,-67.5"/>
<polygon fill="#63b8ff" stroke="#63b8ff" points="542.33,-73.33 532.96,-78.27 543.36,-80.25 542.33,-73.33"/>
</a>
</g>
</g>
<!-- Node10 -->
<g id="Node000010" class="node">
<title>Node10</title>
<g id="a_Node000010"><a xlink:title=" ">
<polygon fill="white" stroke="#666666" points="328.5,-58.5 216.5,-58.5 216.5,-39.5 328.5,-39.5 328.5,-58.5"/>
<text text-anchor="middle" x="272.5" y="-46.5" font-family="Helvetica,sans-Serif" font-size="10.00">boost::noncopyable</text>
</a>
</g>
</g>
<!-- Node10&#45;&gt;Node9 -->
<g id="edge9_Node000009_Node000010" class="edge">
<title>Node10&#45;&gt;Node9</title>
<g id="a_edge9_Node000009_Node000010"><a xlink:title=" ">
<path fill="none" stroke="#63b8ff" d="M336.72,-60.36C366.14,-65.64 400.67,-71.84 428.41,-76.82"/>
<polygon fill="#63b8ff" stroke="#63b8ff" points="337.01,-56.85 326.55,-58.53 335.77,-63.74 337.01,-56.85"/>
</a>
</g>
</g>
<!-- Node11&#45;&gt;Node9 -->
<g id="edge10_Node000009_Node000011" class="edge">
<title>Node11&#45;&gt;Node9</title>
<g id="a_edge10_Node000009_Node000011"><a xlink:title=" ">
<path fill="none" stroke="#63b8ff" d="M369.35,-86C389.71,-86 410.44,-86 428.35,-86"/>
<polygon fill="#63b8ff" stroke="#63b8ff" points="369.07,-82.5 359.07,-86 369.07,-89.5 369.07,-82.5"/>
</a>
</g>
</g>
<!-- Node12 -->
<g id="Node000012" class="node">
<title>Node12</title>
<g id="a_Node000012"><a xlink:href="classARDOUR_1_1Slavable.html" target="_top" xlink:title=" ">
<polygon fill="white" stroke="#666666" points="534,-58.5 427,-58.5 427,-39.5 534,-39.5 534,-58.5"/>
<text text-anchor="middle" x="480.5" y="-46.5" font-family="Helvetica,sans-Serif" font-size="10.00">ARDOUR::Slavable</text>
</a>
</g>
</g>
<!-- Node12&#45;&gt;Node8 -->
<g id="edge12_Node000008_Node000012" class="edge">
<title>Node12&#45;&gt;Node8</title>
<g id="a_edge12_Node000008_Node000012"><a xlink:title=" ">
<path fill="none" stroke="#63b8ff" d="M544.67,-52.05C564.02,-52.98 585.31,-54.01 604.67,-54.94"/>
<polygon fill="#63b8ff" stroke="#63b8ff" points="544.6,-48.54 534.44,-51.55 544.26,-55.53 544.6,-48.54"/>
</a>
</g>
</g>
<!-- Node13 -->
<g id="Node000013" class="node">
<title>Node13</title>
<g id="a_Node000013"><a xlink:href="classTemporal_1_1TimeDomainProvider.html" target="_top" xlink:title=" ">
<polygon fill="white" stroke="#666666" points="566,-21.5 395,-21.5 395,-2.5 566,-2.5 566,-21.5"/>
<text text-anchor="middle" x="480.5" y="-9.5" font-family="Helvetica,sans-Serif" font-size="10.00">Temporal::TimeDomainProvider</text>
</a>
</g>
</g>
<!-- Node13&#45;&gt;Node8 -->
<g id="edge13_Node000008_Node000013" class="edge">
<title>Node13&#45;&gt;Node8</title>
<g id="a_edge13_Node000008_Node000013"><a xlink:title=" ">
<path fill="none" stroke="#63b8ff" d="M538.44,-23.66C547.67,-25.68 557.12,-27.84 566,-30 589.19,-35.65 615.14,-42.78 635.05,-48.43"/>
<polygon fill="#63b8ff" stroke="#63b8ff" points="539.05,-20.21 528.54,-21.51 537.57,-27.05 539.05,-20.21"/>
</a>
</g>
</g>
<!-- Node14 -->
<g id="Node000014" class="node">
<title>Node14</title>
<g id="a_Node000014"><a xlink:title=" ">
<polygon fill="white" stroke="#666666" points="736,-30 602,-30 602,0 736,0 736,-30"/>
<text text-anchor="start" x="610" y="-18" font-family="Helvetica,sans-Serif" font-size="10.00">std::enable_shared</text>
<text text-anchor="middle" x="669" y="-7" font-family="Helvetica,sans-Serif" font-size="10.00">_from_this&lt; Stripable &gt;</text>
</a>
</g>
</g>
<!-- Node14&#45;&gt;Node1 -->
<g id="edge14_Node000001_Node000014" class="edge">
<title>Node14&#45;&gt;Node1</title>
<g id="a_edge14_Node000001_Node000014"><a xlink:title=" ">
<path fill="none" stroke="#63b8ff" d="M734.11,-32.73C753.53,-38.1 774.12,-43.79 790.83,-48.41"/>
<polygon fill="#63b8ff" stroke="#63b8ff" points="734.96,-29.33 724.39,-30.04 733.09,-36.08 734.96,-29.33"/>
</a>
</g>
</g>
<!-- Node16 -->
<g id="Node000016" class="node">
<title>Node16</title>
<g id="a_Node000016"><a xlink:href="classARDOUR_1_1Track.html" target="_top" xlink:title=" ">
<polygon fill="white" stroke="#666666" points="1138,-86.5 1047,-86.5 1047,-67.5 1138,-67.5 1138,-86.5"/>
<text text-anchor="middle" x="1092.5" y="-74.5" font-family="Helvetica,sans-Serif" font-size="10.00">ARDOUR::Track</text>
</a>
</g>
</g>
<!-- Node15&#45;&gt;Node16 -->
<g id="edge16_Node000015_Node000016" class="edge">
<title>Node15&#45;&gt;Node16</title>
<g id="a_edge16_Node000015_Node000016"><a xlink:title=" ">
<path fill="none" stroke="#63b8ff" d="M1021.08,-77C1029.76,-77 1038.61,-77 1046.99,-77"/>
<polygon fill="#63b8ff" stroke="#63b8ff" points="1021.03,-73.5 1011.03,-77 1021.03,-80.5 1021.03,-73.5"/>
</a>
</g>
</g>
<!-- Node17 -->
<g id="Node000017" class="node">
<title>Node17</title>
<g id="a_Node000017"><a xlink:href="classARDOUR_1_1AudioTrack.html" target="_top" xlink:title=" ">
<polygon fill="white" stroke="#666666" points="1293,-123.5 1174,-123.5 1174,-104.5 1293,-104.5 1293,-123.5"/>
<text text-anchor="middle" x="1233.5" y="-111.5" font-family="Helvetica,sans-Serif" font-size="10.00">ARDOUR::AudioTrack</text>
</a>
</g>
</g>
<!-- Node16&#45;&gt;Node17 -->
<g id="edge17_Node000016_Node000017" class="edge">
<title>Node16&#45;&gt;Node17</title>
<g id="a_edge17_Node000016_Node000017"><a xlink:title=" ">
<path fill="none" stroke="#63b8ff" d="M1139.03,-89.12C1157.63,-94.07 1178.84,-99.72 1196.34,-104.38"/>
<polygon fill="#63b8ff" stroke="#63b8ff" points="1139.86,-85.72 1129.3,-86.53 1138.06,-92.48 1139.86,-85.72"/>
</a>
</g>
</g>
<!-- Node18 -->
<g id="Node000018" class="node">
<title>Node18</title>
<g id="a_Node000018"><a xlink:href="classARDOUR_1_1Auditioner.html" target="_top" xlink:title=" ">
<polygon fill="white" stroke="#666666" points="1291.5,-86.5 1175.5,-86.5 1175.5,-67.5 1291.5,-67.5 1291.5,-86.5"/>
<text text-anchor="middle" x="1233.5" y="-74.5" font-family="Helvetica,sans-Serif" font-size="10.00">ARDOUR::Auditioner</text>
</a>
</g>
</g>
<!-- Node16&#45;&gt;Node18 -->
<g id="edge18_Node000016_Node000018" class="edge">
<title>Node16&#45;&gt;Node18</title>
<g id="a_edge18_Node000016_Node000018"><a xlink:title=" ">
<path fill="none" stroke="#63b8ff" d="M1148.38,-77C1157.17,-77 1166.28,-77 1175.13,-77"/>
<polygon fill="#63b8ff" stroke="#63b8ff" points="1148.25,-73.5 1138.25,-77 1148.25,-80.5 1148.25,-73.5"/>
</a>
</g>
</g>
<!-- Node19 -->
<g id="Node000019" class="node">
<title>Node19</title>
<g id="a_Node000019"><a xlink:href="classARDOUR_1_1MidiTrack.html" target="_top" xlink:title=" ">
<polygon fill="white" stroke="#666666" points="1289.5,-49.5 1177.5,-49.5 1177.5,-30.5 1289.5,-30.5 1289.5,-49.5"/>
<text text-anchor="middle" x="1233.5" y="-37.5" font-family="Helvetica,sans-Serif" font-size="10.00">ARDOUR::MidiTrack</text>
</a>
</g>
</g>
<!-- Node16&#45;&gt;Node19 -->
<g id="edge19_Node000016_Node000019" class="edge">
<title>Node16&#45;&gt;Node19</title>
<g id="a_edge19_Node000016_Node000019"><a xlink:title=" ">
<path fill="none" stroke="#63b8ff" d="M1139.03,-64.88C1157.63,-59.93 1178.84,-54.28 1196.34,-49.62"/>
<polygon fill="#63b8ff" stroke="#63b8ff" points="1138.06,-61.52 1129.3,-67.47 1139.86,-68.28 1138.06,-61.52"/>
</a>
</g>
</g>
</g>
</svg>
