<?xml version="1.0" encoding="UTF-8" standalone="no"?>
<!DOCTYPE svg PUBLIC "-//W3C//DTD SVG 1.1//EN"
 "http://www.w3.org/Graphics/SVG/1.1/DTD/svg11.dtd">
<!-- Generated by graphviz version 2.43.0 (0)
 -->
<!-- Title: ArdourSurface::Controller Pages: 1 -->
<svg width="326pt" height="161pt"
 viewBox="0.00 0.00 326.00 161.00" xmlns="http://www.w3.org/2000/svg" xmlns:xlink="http://www.w3.org/1999/xlink">

<svg id="main" version="1.1" xmlns="http://www.w3.org/2000/svg" xmlns:xlink="http://www.w3.org/1999/xlink" xml:space="preserve" onload="init(evt)">
<style type="text/css"><![CDATA[
.node, .edge {opacity: 0.7;}
.node.selected, .edge.selected {opacity: 1;}
.edge:hover path { stroke: red; }
.edge:hover polygon { stroke: red; fill: red; }
]]></style>
<script type="application/ecmascript" xlink:href="svg.min.js"/>
<svg id="graph" class="graph">
<g id="graph0" class="graph" transform="scale(1 1) rotate(0) translate(4 157)">
<title>ArdourSurface::Controller</title>
<!-- Node1 -->
<g id="Node000001" class="node">
<title>Node1</title>
<g id="a_Node000001"><a xlink:title=" ">
<polygon fill="#999999" stroke="#666666" points="140,-85.5 0,-85.5 0,-66.5 140,-66.5 140,-85.5"/>
<text text-anchor="middle" x="70" y="-73.5" font-family="Helvetica,sans-Serif" font-size="10.00">ArdourSurface::Controller</text>
</a>
</g>
</g>
<!-- Node2 -->
<g id="Node000002" class="node">
<title>Node2</title>
<g id="a_Node000002"><a xlink:href="classArdourSurface_1_1ControllerButton.html" target="_top" xlink:title=" ">
<polygon fill="white" stroke="#666666" points="317,-153 177,-153 177,-123 317,-123 317,-153"/>
<text text-anchor="start" x="185" y="-141" font-family="Helvetica,sans-Serif" font-size="10.00">ArdourSurface::Controller</text>
<text text-anchor="middle" x="247" y="-130" font-family="Helvetica,sans-Serif" font-size="10.00">Button</text>
</a>
</g>
</g>
<!-- Node1&#45;&gt;Node2 -->
<g id="edge1_Node000001_Node000002" class="edge">
<title>Node1&#45;&gt;Node2</title>
<g id="a_edge1_Node000001_Node000002"><a xlink:title=" ">
<path fill="none" stroke="#63b8ff" d="M106.75,-89.11C127.03,-96.5 152.9,-105.86 176,-114 184.24,-116.9 193.04,-119.96 201.52,-122.88"/>
<polygon fill="#63b8ff" stroke="#63b8ff" points="107.87,-85.79 97.28,-85.65 105.47,-92.37 107.87,-85.79"/>
</a>
</g>
</g>
<!-- Node3 -->
<g id="Node000003" class="node">
<title>Node3</title>
<g id="a_Node000003"><a xlink:href="classArdourSurface_1_1Encoder.html" target="_top" xlink:title=" ">
<polygon fill="white" stroke="#666666" points="312.5,-104.5 181.5,-104.5 181.5,-85.5 312.5,-85.5 312.5,-104.5"/>
<text text-anchor="middle" x="247" y="-92.5" font-family="Helvetica,sans-Serif" font-size="10.00">ArdourSurface::Encoder</text>
</a>
</g>
</g>
<!-- Node1&#45;&gt;Node3 -->
<g id="edge2_Node000001_Node000003" class="edge">
<title>Node1&#45;&gt;Node3</title>
<g id="a_edge2_Node000001_Node000003"><a xlink:title=" ">
<path fill="none" stroke="#63b8ff" d="M150.11,-84.59C160.56,-85.72 171.16,-86.87 181.33,-87.98"/>
<polygon fill="#63b8ff" stroke="#63b8ff" points="150.48,-81.11 140.16,-83.51 149.73,-88.07 150.48,-81.11"/>
</a>
</g>
</g>
<!-- Node4 -->
<g id="Node000004" class="node">
<title>Node4</title>
<g id="a_Node000004"><a xlink:href="classArdourSurface_1_1Meter.html" target="_top" xlink:title=" ">
<polygon fill="white" stroke="#666666" points="307,-67.5 187,-67.5 187,-48.5 307,-48.5 307,-67.5"/>
<text text-anchor="middle" x="247" y="-55.5" font-family="Helvetica,sans-Serif" font-size="10.00">ArdourSurface::Meter</text>
</a>
</g>
</g>
<!-- Node1&#45;&gt;Node4 -->
<g id="edge3_Node000001_Node000004" class="edge">
<title>Node1&#45;&gt;Node4</title>
<g id="a_edge3_Node000001_Node000004"><a xlink:title=" ">
<path fill="none" stroke="#63b8ff" d="M150.42,-67.83C162.7,-66.57 175.21,-65.28 186.94,-64.07"/>
<polygon fill="#63b8ff" stroke="#63b8ff" points="149.75,-64.38 140.16,-68.89 150.47,-71.34 149.75,-64.38"/>
</a>
</g>
</g>
<!-- Node5 -->
<g id="Node000005" class="node">
<title>Node5</title>
<g id="a_Node000005"><a xlink:href="classArdourSurface_1_1MultiStateButton.html" target="_top" xlink:title=" ">
<polygon fill="white" stroke="#666666" points="318,-30 176,-30 176,0 318,0 318,-30"/>
<text text-anchor="start" x="184" y="-18" font-family="Helvetica,sans-Serif" font-size="10.00">ArdourSurface::MultiState</text>
<text text-anchor="middle" x="247" y="-7" font-family="Helvetica,sans-Serif" font-size="10.00">Button</text>
</a>
</g>
</g>
<!-- Node1&#45;&gt;Node5 -->
<g id="edge4_Node000001_Node000005" class="edge">
<title>Node1&#45;&gt;Node5</title>
<g id="a_edge4_Node000001_Node000005"><a xlink:title=" ">
<path fill="none" stroke="#63b8ff" d="M108.06,-63.08C135.78,-53.42 173.76,-40.18 202.85,-30.04"/>
<polygon fill="#63b8ff" stroke="#63b8ff" points="106.63,-59.87 98.34,-66.47 108.94,-66.48 106.63,-59.87"/>
</a>
</g>
</g>
</g>
</svg>
</svg>

<style type='text/css'>
<![CDATA[
[data-mouse-over-selected='false'] { opacity: 0.7; }
[data-mouse-over-selected='true']  { opacity: 1.0; }
]]>
</style>
<script type="application/ecmascript"><![CDATA[
document.addEventListener('DOMContentLoaded', (event) => {
  highlightEdges();
  highlightAdjacentNodes();
});
]]></script>
</svg>
