<?xml version="1.0" encoding="UTF-8" standalone="no"?>
<!DOCTYPE svg PUBLIC "-//W3C//DTD SVG 1.1//EN"
 "http://www.w3.org/Graphics/SVG/1.1/DTD/svg11.dtd">
<!-- Generated by graphviz version 2.43.0 (0)
 -->
<!-- Title: ArdourCanvas::Rectangle Pages: 1 -->
<!--zoomable 711 -->

<svg id="main" version="1.1" xmlns="http://www.w3.org/2000/svg" xmlns:xlink="http://www.w3.org/1999/xlink" xml:space="preserve" onload="init(evt)">
<style type="text/css"><![CDATA[
.node, .edge {opacity: 0.7;}
.node.selected, .edge.selected {opacity: 1;}
.edge:hover path { stroke: red; }
.edge:hover polygon { stroke: red; fill: red; }
]]></style>

<defs>
  <circle id="rim" cx="0" cy="0" r="7"/>
  <circle id="rim2" cx="0" cy="0" r="3.5"/>
  <g id="zoomPlus">
    <use xlink:href="#rim" fill="#404040"><set attributeName="fill" to="#808080" begin="zoomplus.mouseover" end="zoomplus.mouseout"/></use>
    <path d="M-4,0h8M0,-4v8" fill="none" stroke="white" stroke-width="1.5" pointer-events="none"/>
  </g>
  <g id="zoomMin">
    <use xlink:href="#rim" fill="#404040"><set attributeName="fill" to="#808080" begin="zoomminus.mouseover" end="zoomminus.mouseout"/></use>
    <path d="M-4,0h8" fill="none" stroke="white" stroke-width="1.5" pointer-events="none"/>
  </g>
  <g id="arrowUp" transform="translate(30 24)">
    <use xlink:href="#rim"/>
    <path pointer-events="none" fill="none" stroke="white" stroke-width="1.5" d="M0,-3.0v7 M-2.5,-0.5L0,-3.0L2.5,-0.5"/>
  </g>
  <g id="arrowRight" transform="rotate(90) translate(36 -43)">
    <use xlink:href="#rim"/>
    <path pointer-events="none" fill="none" stroke="white" stroke-width="1.5" d="M0,-3.0v7 M-2.5,-0.5L0,-3.0L2.5,-0.5"/>
  </g>
  <g id="arrowDown" transform="rotate(180) translate(-30 -48)">
    <use xlink:href="#rim"/>
    <path pointer-events="none" fill="none" stroke="white" stroke-width="1.5" d="M0,-3.0v7 M-2.5,-0.5L0,-3.0L2.5,-0.5"/>
  </g>
  <g id="arrowLeft" transform="rotate(270) translate(-36 17)">
    <use xlink:href="#rim"/>
    <path pointer-events="none" fill="none" stroke="white" stroke-width="1.5" d="M0,-3.0v7 M-2.5,-0.5L0,-3.0L2.5,-0.5"/>
  </g>
  <g id="resetDef">
    <use xlink:href="#rim2" fill="#404040"><set attributeName="fill" to="#808080" begin="reset.mouseover" end="reset.mouseout"/></use>
  </g>
</defs>
<script type="application/ecmascript">
var viewWidth = 821;
var viewHeight = 711;
var sectionId = 'dynsection-0';
</script>
<script type="application/ecmascript" xlink:href="svg.min.js"/>
<svg id="graph" class="graph">
<g id="viewport">
<title>ArdourCanvas::Rectangle</title>
<!-- Node1 -->
<g id="Node000001" class="node">
<title>Node1</title>
<g id="a_Node000001"><a xlink:title=" ">
<polygon fill="#999999" stroke="#666666" points="451,-352 311,-352 311,-333 451,-333 451,-352"/>
<text text-anchor="middle" x="381" y="-340" font-family="Helvetica,sans-Serif" font-size="10.00">ArdourCanvas::Rectangle</text>
</a>
</g>
</g>
<!-- Node5 -->
<g id="Node000005" class="node">
<title>Node5</title>
<g id="a_Node000005"><a xlink:href="classArdourCanvas_1_1Box.html" target="_top" xlink:title=" ">
<polygon fill="white" stroke="#666666" points="628.5,-685 518.5,-685 518.5,-666 628.5,-666 628.5,-685"/>
<text text-anchor="middle" x="573.5" y="-673" font-family="Helvetica,sans-Serif" font-size="10.00">ArdourCanvas::Box</text>
</a>
</g>
</g>
<!-- Node1&#45;&gt;Node5 -->
<g id="edge4_Node000001_Node000005" class="edge">
<title>Node1&#45;&gt;Node5</title>
<g id="a_edge4_Node000001_Node000005"><a xlink:title=" ">
<path fill="none" stroke="#63b8ff" d="M382.3,-362.51C384.29,-418.2 397.9,-576.21 487,-656.5 495.7,-664.34 506.9,-669.18 518.31,-672.12"/>
<polygon fill="#63b8ff" stroke="#63b8ff" points="385.79,-362.14 382.03,-352.24 378.8,-362.33 385.79,-362.14"/>
</a>
</g>
</g>
<!-- Node8 -->
<g id="Node000008" class="node">
<title>Node8</title>
<g id="a_Node000008"><a xlink:href="classArdourCanvas_1_1Button.html" target="_top" xlink:title=" ">
<polygon fill="white" stroke="#666666" points="635,-648 512,-648 512,-629 635,-629 635,-648"/>
<text text-anchor="middle" x="573.5" y="-636" font-family="Helvetica,sans-Serif" font-size="10.00">ArdourCanvas::Button</text>
</a>
</g>
</g>
<!-- Node1&#45;&gt;Node8 -->
<g id="edge7_Node000001_Node000008" class="edge">
<title>Node1&#45;&gt;Node8</title>
<g id="a_edge7_Node000001_Node000008"><a xlink:title=" ">
<path fill="none" stroke="#63b8ff" d="M383.29,-362.19C387.74,-413.15 406.93,-550.18 487,-619.5 494.13,-625.67 502.82,-629.97 511.9,-632.93"/>
<polygon fill="#63b8ff" stroke="#63b8ff" points="386.78,-361.87 382.51,-352.17 379.8,-362.41 386.78,-361.87"/>
</a>
</g>
</g>
<!-- Node9 -->
<g id="Node000009" class="node">
<title>Node9</title>
<g id="a_Node000009"><a xlink:href="classArdourCanvas_1_1FollowActionIcon.html" target="_top" xlink:title=" ">
<polygon fill="white" stroke="#666666" points="660,-611 487,-611 487,-592 660,-592 660,-611"/>
<text text-anchor="middle" x="573.5" y="-599" font-family="Helvetica,sans-Serif" font-size="10.00">ArdourCanvas::FollowActionIcon</text>
</a>
</g>
</g>
<!-- Node1&#45;&gt;Node9 -->
<g id="edge8_Node000001_Node000009" class="edge">
<title>Node1&#45;&gt;Node9</title>
<g id="a_edge8_Node000001_Node000009"><a xlink:title=" ">
<path fill="none" stroke="#63b8ff" d="M384.59,-362.31C391.72,-408.57 416.1,-524.16 487,-582.5 491.58,-586.27 496.75,-589.33 502.22,-591.81"/>
<polygon fill="#63b8ff" stroke="#63b8ff" points="388.01,-361.53 383.13,-352.13 381.08,-362.52 388.01,-361.53"/>
</a>
</g>
</g>
<!-- Node10 -->
<g id="Node000010" class="node">
<title>Node10</title>
<g id="a_Node000010"><a xlink:href="classArdourCanvas_1_1Note.html" target="_top" xlink:title=" ">
<polygon fill="white" stroke="#666666" points="630.5,-574 516.5,-574 516.5,-555 630.5,-555 630.5,-574"/>
<text text-anchor="middle" x="573.5" y="-562" font-family="Helvetica,sans-Serif" font-size="10.00">ArdourCanvas::Note</text>
</a>
</g>
</g>
<!-- Node1&#45;&gt;Node10 -->
<g id="edge9_Node000001_Node000010" class="edge">
<title>Node1&#45;&gt;Node10</title>
<g id="a_edge9_Node000001_Node000010"><a xlink:title=" ">
<path fill="none" stroke="#63b8ff" d="M386.3,-362.31C396.29,-403.36 425.08,-497.83 487,-545.5 495.55,-552.09 505.94,-556.48 516.48,-559.39"/>
<polygon fill="#63b8ff" stroke="#63b8ff" points="389.68,-361.4 384.02,-352.45 382.86,-362.98 389.68,-361.4"/>
</a>
</g>
</g>
<!-- Node11 -->
<g id="Node000011" class="node">
<title>Node11</title>
<g id="a_Node000011"><a xlink:href="classArdourCanvas_1_1PianoRollHeader.html" target="_top" xlink:title=" ">
<polygon fill="white" stroke="#666666" points="659.5,-537 487.5,-537 487.5,-518 659.5,-518 659.5,-537"/>
<text text-anchor="middle" x="573.5" y="-525" font-family="Helvetica,sans-Serif" font-size="10.00">ArdourCanvas::PianoRollHeader</text>
</a>
</g>
</g>
<!-- Node1&#45;&gt;Node11 -->
<g id="edge10_Node000001_Node000011" class="edge">
<title>Node1&#45;&gt;Node11</title>
<g id="a_edge10_Node000001_Node000011"><a xlink:title=" ">
<path fill="none" stroke="#63b8ff" d="M388.52,-361.81C401.42,-396.9 433.66,-471 487,-508.5 492.47,-512.35 498.59,-515.43 504.97,-517.91"/>
<polygon fill="#63b8ff" stroke="#63b8ff" points="391.77,-360.51 385.14,-352.25 385.18,-362.84 391.77,-360.51"/>
</a>
</g>
</g>
<!-- Node12 -->
<g id="Node000012" class="node">
<title>Node12</title>
<g id="a_Node000012"><a xlink:href="classArdourCanvas_1_1Ruler.html" target="_top" xlink:title=" ">
<polygon fill="white" stroke="#666666" points="631.5,-500 515.5,-500 515.5,-481 631.5,-481 631.5,-500"/>
<text text-anchor="middle" x="573.5" y="-488" font-family="Helvetica,sans-Serif" font-size="10.00">ArdourCanvas::Ruler</text>
</a>
</g>
</g>
<!-- Node1&#45;&gt;Node12 -->
<g id="edge11_Node000001_Node000012" class="edge">
<title>Node1&#45;&gt;Node12</title>
<g id="a_edge11_Node000001_Node000012"><a xlink:title=" ">
<path fill="none" stroke="#63b8ff" d="M391.68,-361.04C407.56,-389.52 441.94,-443.68 487,-471.5 495.54,-476.77 505.36,-480.59 515.23,-483.35"/>
<polygon fill="#63b8ff" stroke="#63b8ff" points="394.69,-359.24 386.84,-352.12 388.53,-362.58 394.69,-359.24"/>
</a>
</g>
</g>
<!-- Node13 -->
<g id="Node000013" class="node">
<title>Node13</title>
<g id="a_Node000013"><a xlink:href="classArdourCanvas_1_1Table.html" target="_top" xlink:title=" ">
<polygon fill="white" stroke="#666666" points="631.5,-463 515.5,-463 515.5,-444 631.5,-444 631.5,-463"/>
<text text-anchor="middle" x="573.5" y="-451" font-family="Helvetica,sans-Serif" font-size="10.00">ArdourCanvas::Table</text>
</a>
</g>
</g>
<!-- Node1&#45;&gt;Node13 -->
<g id="edge12_Node000001_Node000013" class="edge">
<title>Node1&#45;&gt;Node13</title>
<g id="a_edge12_Node000001_Node000013"><a xlink:title=" ">
<path fill="none" stroke="#63b8ff" d="M396.69,-359.85C415.45,-380.85 449.95,-415.72 487,-434.5 495.82,-438.97 505.67,-442.39 515.46,-445.01"/>
<polygon fill="#63b8ff" stroke="#63b8ff" points="399.08,-357.27 389.86,-352.04 393.81,-361.88 399.08,-357.27"/>
</a>
</g>
</g>
<!-- Node14 -->
<g id="Node000014" class="node">
<title>Node14</title>
<g id="a_Node000014"><a xlink:href="classCueBoxUI.html" target="_top" xlink:title=" ">
<polygon fill="white" stroke="#666666" points="606,-426 541,-426 541,-407 606,-407 606,-426"/>
<text text-anchor="middle" x="573.5" y="-414" font-family="Helvetica,sans-Serif" font-size="10.00">CueBoxUI</text>
</a>
</g>
</g>
<!-- Node1&#45;&gt;Node14 -->
<g id="edge13_Node000001_Node000014" class="edge">
<title>Node1&#45;&gt;Node14</title>
<g id="a_edge13_Node000001_Node000014"><a xlink:title=" ">
<path fill="none" stroke="#63b8ff" d="M405.82,-357.31C426.57,-369.63 457.84,-386.84 487,-397.5 504.28,-403.82 524.33,-408.41 540.66,-411.49"/>
<polygon fill="#63b8ff" stroke="#63b8ff" points="407.44,-354.2 397.07,-352.03 403.82,-360.19 407.44,-354.2"/>
</a>
</g>
</g>
<!-- Node15 -->
<g id="Node000015" class="node">
<title>Node15</title>
<g id="a_Node000015"><a xlink:href="classCueEntry.html" target="_top" xlink:title=" ">
<polygon fill="white" stroke="#666666" points="604,-389 543,-389 543,-370 604,-370 604,-389"/>
<text text-anchor="middle" x="573.5" y="-377" font-family="Helvetica,sans-Serif" font-size="10.00">CueEntry</text>
</a>
</g>
</g>
<!-- Node1&#45;&gt;Node15 -->
<g id="edge14_Node000001_Node000015" class="edge">
<title>Node1&#45;&gt;Node15</title>
<g id="a_edge14_Node000001_Node000015"><a xlink:title=" ">
<path fill="none" stroke="#63b8ff" d="M441.28,-354.01C475.04,-360.57 515.86,-368.5 542.91,-373.75"/>
<polygon fill="#63b8ff" stroke="#63b8ff" points="441.54,-350.5 431.06,-352.03 440.21,-357.37 441.54,-350.5"/>
</a>
</g>
</g>
<!-- Node16 -->
<g id="Node000016" class="node">
<title>Node16</title>
<g id="a_Node000016"><a xlink:href="classCueMaster.html" target="_top" xlink:title=" ">
<polygon fill="white" stroke="#666666" points="608,-352 539,-352 539,-333 608,-333 608,-352"/>
<text text-anchor="middle" x="573.5" y="-340" font-family="Helvetica,sans-Serif" font-size="10.00">CueMaster</text>
</a>
</g>
</g>
<!-- Node1&#45;&gt;Node16 -->
<g id="edge15_Node000001_Node000016" class="edge">
<title>Node1&#45;&gt;Node16</title>
<g id="a_edge15_Node000001_Node000016"><a xlink:title=" ">
<path fill="none" stroke="#63b8ff" d="M461.34,-342.5C488.47,-342.5 517.38,-342.5 538.91,-342.5"/>
<polygon fill="#63b8ff" stroke="#63b8ff" points="461.04,-339 451.04,-342.5 461.04,-346 461.04,-339"/>
</a>
</g>
</g>
<!-- Node17 -->
<g id="Node000017" class="node">
<title>Node17</title>
<g id="a_Node000017"><a xlink:href="classEndBoundaryRect.html" target="_top" xlink:title=" ">
<polygon fill="white" stroke="#666666" points="625,-315 522,-315 522,-296 625,-296 625,-315"/>
<text text-anchor="middle" x="573.5" y="-303" font-family="Helvetica,sans-Serif" font-size="10.00">EndBoundaryRect</text>
</a>
</g>
</g>
<!-- Node1&#45;&gt;Node17 -->
<g id="edge16_Node000001_Node000017" class="edge">
<title>Node1&#45;&gt;Node17</title>
<g id="a_edge16_Node000001_Node000017"><a xlink:title=" ">
<path fill="none" stroke="#63b8ff" d="M440.94,-331.05C467.35,-325.92 498.13,-319.94 523.28,-315.06"/>
<polygon fill="#63b8ff" stroke="#63b8ff" points="440.21,-327.63 431.06,-332.97 441.54,-334.5 440.21,-327.63"/>
</a>
</g>
</g>
<!-- Node18 -->
<g id="Node000018" class="node">
<title>Node18</title>
<g id="a_Node000018"><a xlink:href="classLoopster.html" target="_top" xlink:title=" ">
<polygon fill="white" stroke="#666666" points="603,-278 544,-278 544,-259 603,-259 603,-278"/>
<text text-anchor="middle" x="573.5" y="-266" font-family="Helvetica,sans-Serif" font-size="10.00">Loopster</text>
</a>
</g>
</g>
<!-- Node1&#45;&gt;Node18 -->
<g id="edge17_Node000001_Node000018" class="edge">
<title>Node1&#45;&gt;Node18</title>
<g id="a_edge17_Node000001_Node000018"><a xlink:title=" ">
<path fill="none" stroke="#63b8ff" d="M405.39,-327.54C426.1,-314.9 457.53,-297.21 487,-286.5 505.39,-279.81 526.96,-275.3 543.83,-272.46"/>
<polygon fill="#63b8ff" stroke="#63b8ff" points="403.33,-324.69 396.68,-332.94 407.02,-330.64 403.33,-324.69"/>
</a>
</g>
</g>
<!-- Node19 -->
<g id="Node000019" class="node">
<title>Node19</title>
<g id="a_Node000019"><a xlink:href="classSectionBox.html" target="_top" xlink:title=" ">
<polygon fill="white" stroke="#666666" points="609,-241 538,-241 538,-222 609,-222 609,-241"/>
<text text-anchor="middle" x="573.5" y="-229" font-family="Helvetica,sans-Serif" font-size="10.00">SectionBox</text>
</a>
</g>
</g>
<!-- Node1&#45;&gt;Node19 -->
<g id="edge18_Node000001_Node000019" class="edge">
<title>Node1&#45;&gt;Node19</title>
<g id="a_edge18_Node000001_Node000019"><a xlink:title=" ">
<path fill="none" stroke="#63b8ff" d="M396.36,-325.17C414.99,-303.9 449.55,-268.34 487,-249.5 502.72,-241.59 521.75,-237.15 537.86,-234.67"/>
<polygon fill="#63b8ff" stroke="#63b8ff" points="393.66,-322.94 389.82,-332.81 398.98,-327.49 393.66,-322.94"/>
</a>
</g>
</g>
<!-- Node20 -->
<g id="Node000020" class="node">
<title>Node20</title>
<g id="a_Node000020"><a xlink:href="classSequencerStepIndicator.html" target="_top" xlink:title=" ">
<polygon fill="white" stroke="#666666" points="639.5,-204 507.5,-204 507.5,-185 639.5,-185 639.5,-204"/>
<text text-anchor="middle" x="573.5" y="-192" font-family="Helvetica,sans-Serif" font-size="10.00">SequencerStepIndicator</text>
</a>
</g>
</g>
<!-- Node1&#45;&gt;Node20 -->
<g id="edge19_Node000001_Node000020" class="edge">
<title>Node1&#45;&gt;Node20</title>
<g id="a_edge19_Node000001_Node000020"><a xlink:title=" ">
<path fill="none" stroke="#63b8ff" d="M391.6,-323.76C407.38,-294.97 441.63,-240.28 487,-212.5 493.21,-208.7 500.1,-205.69 507.19,-203.31"/>
<polygon fill="#63b8ff" stroke="#63b8ff" points="388.41,-322.3 386.8,-332.78 394.59,-325.59 388.41,-322.3"/>
</a>
</g>
</g>
<!-- Node21 -->
<g id="Node000021" class="node">
<title>Node21</title>
<g id="a_Node000021"><a xlink:href="classStartBoundaryRect.html" target="_top" xlink:title=" ">
<polygon fill="white" stroke="#666666" points="627.5,-167 519.5,-167 519.5,-148 627.5,-148 627.5,-167"/>
<text text-anchor="middle" x="573.5" y="-155" font-family="Helvetica,sans-Serif" font-size="10.00">StartBoundaryRect</text>
</a>
</g>
</g>
<!-- Node1&#45;&gt;Node21 -->
<g id="edge20_Node000001_Node000021" class="edge">
<title>Node1&#45;&gt;Node21</title>
<g id="a_edge20_Node000001_Node000021"><a xlink:title=" ">
<path fill="none" stroke="#63b8ff" d="M388.45,-323.02C401.22,-287.62 433.27,-212.94 487,-175.5 496.46,-168.91 507.84,-164.65 519.16,-161.91"/>
<polygon fill="#63b8ff" stroke="#63b8ff" points="385.07,-322.07 385.1,-332.66 391.68,-324.37 385.07,-322.07"/>
</a>
</g>
</g>
<!-- Node22 -->
<g id="Node000022" class="node">
<title>Node22</title>
<g id="a_Node000022"><a xlink:href="classStepView.html" target="_top" xlink:title=" ">
<polygon fill="white" stroke="#666666" points="604.5,-130 542.5,-130 542.5,-111 604.5,-111 604.5,-130"/>
<text text-anchor="middle" x="573.5" y="-118" font-family="Helvetica,sans-Serif" font-size="10.00">StepView</text>
</a>
</g>
</g>
<!-- Node1&#45;&gt;Node22 -->
<g id="edge21_Node000001_Node000022" class="edge">
<title>Node1&#45;&gt;Node22</title>
<g id="a_edge21_Node000001_Node000022"><a xlink:title=" ">
<path fill="none" stroke="#63b8ff" d="M386.09,-323.11C395.81,-282.07 424.33,-186.29 487,-138.5 502.68,-126.54 524.48,-122.09 542.15,-120.6"/>
<polygon fill="#63b8ff" stroke="#63b8ff" points="382.66,-322.41 383.88,-332.94 389.49,-323.95 382.66,-322.41"/>
</a>
</g>
</g>
<!-- Node23 -->
<g id="Node000023" class="node">
<title>Node23</title>
<g id="a_Node000023"><a xlink:href="classTriggerBoxUI.html" target="_top" xlink:title=" ">
<polygon fill="white" stroke="#666666" points="613,-93 534,-93 534,-74 613,-74 613,-93"/>
<text text-anchor="middle" x="573.5" y="-81" font-family="Helvetica,sans-Serif" font-size="10.00">TriggerBoxUI</text>
</a>
</g>
</g>
<!-- Node1&#45;&gt;Node23 -->
<g id="edge22_Node000001_Node000023" class="edge">
<title>Node1&#45;&gt;Node23</title>
<g id="a_edge22_Node000001_Node000023"><a xlink:title=" ">
<path fill="none" stroke="#63b8ff" d="M384.47,-322.85C391.4,-276.49 415.42,-159.83 487,-101.5 500.05,-90.86 517.86,-86.07 533.85,-84.05"/>
<polygon fill="#63b8ff" stroke="#63b8ff" points="381,-322.42 383.09,-332.81 387.93,-323.38 381,-322.42"/>
</a>
</g>
</g>
<!-- Node24 -->
<g id="Node000024" class="node">
<title>Node24</title>
<g id="a_Node000024"><a xlink:href="classTriggerEntry.html" target="_top" xlink:title=" ">
<polygon fill="white" stroke="#666666" points="611,-56 536,-56 536,-37 611,-37 611,-56"/>
<text text-anchor="middle" x="573.5" y="-44" font-family="Helvetica,sans-Serif" font-size="10.00">TriggerEntry</text>
</a>
</g>
</g>
<!-- Node1&#45;&gt;Node24 -->
<g id="edge23_Node000001_Node000024" class="edge">
<title>Node1&#45;&gt;Node24</title>
<g id="a_edge23_Node000001_Node000024"><a xlink:title=" ">
<path fill="none" stroke="#63b8ff" d="M383.22,-322.69C387.5,-271.43 406.33,-133.64 487,-64.5 500.36,-53.05 519.17,-48.28 535.74,-46.49"/>
<polygon fill="#63b8ff" stroke="#63b8ff" points="379.72,-322.54 382.48,-332.77 386.7,-323.05 379.72,-322.54"/>
</a>
</g>
</g>
<!-- Node25 -->
<g id="Node000025" class="node">
<title>Node25</title>
<g id="a_Node000025"><a xlink:href="classTriggerMaster.html" target="_top" xlink:title=" ">
<polygon fill="white" stroke="#666666" points="615,-19 532,-19 532,0 615,0 615,-19"/>
<text text-anchor="middle" x="573.5" y="-7" font-family="Helvetica,sans-Serif" font-size="10.00">TriggerMaster</text>
</a>
</g>
</g>
<!-- Node1&#45;&gt;Node25 -->
<g id="edge24_Node000001_Node000025" class="edge">
<title>Node1&#45;&gt;Node25</title>
<g id="a_edge24_Node000001_Node000025"><a xlink:title=" ">
<path fill="none" stroke="#63b8ff" d="M382.22,-322.75C383.98,-267.09 397.03,-107.74 487,-27.5 499.11,-16.7 516.04,-11.78 531.63,-9.72"/>
<polygon fill="#63b8ff" stroke="#63b8ff" points="378.72,-322.92 381.99,-332.99 385.72,-323.07 378.72,-322.92"/>
</a>
</g>
</g>
<!-- Node2 -->
<g id="Node000002" class="node">
<title>Node2</title>
<g id="a_Node000002"><a xlink:href="classArdourCanvas_1_1Item.html" target="_top" xlink:title=" ">
<polygon fill="white" stroke="#666666" points="275,-352 162,-352 162,-333 275,-333 275,-352"/>
<text text-anchor="middle" x="218.5" y="-340" font-family="Helvetica,sans-Serif" font-size="10.00">ArdourCanvas::Item</text>
</a>
</g>
</g>
<!-- Node2&#45;&gt;Node1 -->
<g id="edge1_Node000001_Node000002" class="edge">
<title>Node2&#45;&gt;Node1</title>
<g id="a_edge1_Node000001_Node000002"><a xlink:title=" ">
<path fill="none" stroke="#63b8ff" d="M285.32,-342.5C293.73,-342.5 302.37,-342.5 310.84,-342.5"/>
<polygon fill="#63b8ff" stroke="#63b8ff" points="285.18,-339 275.18,-342.5 285.18,-346 285.18,-339"/>
</a>
</g>
</g>
<!-- Node3 -->
<g id="Node000003" class="node">
<title>Node3</title>
<g id="a_Node000003"><a xlink:href="classArdourCanvas_1_1Fill.html" target="_top" xlink:title=" ">
<polygon fill="white" stroke="#666666" points="115.5,-371 10.5,-371 10.5,-352 115.5,-352 115.5,-371"/>
<text text-anchor="middle" x="63" y="-359" font-family="Helvetica,sans-Serif" font-size="10.00">ArdourCanvas::Fill</text>
</a>
</g>
</g>
<!-- Node3&#45;&gt;Node2 -->
<g id="edge2_Node000002_Node000003" class="edge">
<title>Node3&#45;&gt;Node2</title>
<g id="a_edge2_Node000002_Node000003"><a xlink:title=" ">
<path fill="none" stroke="#63b8ff" d="M125.49,-353.89C137.52,-352.4 150.06,-350.85 161.88,-349.38"/>
<polygon fill="#63b8ff" stroke="#63b8ff" points="125.03,-350.42 115.54,-355.12 125.89,-357.37 125.03,-350.42"/>
</a>
</g>
</g>
<!-- Node4 -->
<g id="Node000004" class="node">
<title>Node4</title>
<g id="a_Node000004"><a xlink:href="classArdourCanvas_1_1Outline.html" target="_top" xlink:title=" ">
<polygon fill="white" stroke="#666666" points="126,-334 0,-334 0,-315 126,-315 126,-334"/>
<text text-anchor="middle" x="63" y="-322" font-family="Helvetica,sans-Serif" font-size="10.00">ArdourCanvas::Outline</text>
</a>
</g>
</g>
<!-- Node4&#45;&gt;Node2 -->
<g id="edge3_Node000002_Node000004" class="edge">
<title>Node4&#45;&gt;Node2</title>
<g id="a_edge3_Node000002_Node000004"><a xlink:title=" ">
<path fill="none" stroke="#63b8ff" d="M136.6,-333.01C144.98,-334 153.43,-334.99 161.54,-335.94"/>
<polygon fill="#63b8ff" stroke="#63b8ff" points="136.77,-329.51 126.43,-331.82 135.96,-336.46 136.77,-329.51"/>
</a>
</g>
</g>
<!-- Node6 -->
<g id="Node000006" class="node">
<title>Node6</title>
<g id="a_Node000006"><a xlink:href="classArdourCanvas_1_1HBox.html" target="_top" xlink:title=" ">
<polygon fill="white" stroke="#666666" points="813,-703 696,-703 696,-684 813,-684 813,-703"/>
<text text-anchor="middle" x="754.5" y="-691" font-family="Helvetica,sans-Serif" font-size="10.00">ArdourCanvas::HBox</text>
</a>
</g>
</g>
<!-- Node5&#45;&gt;Node6 -->
<g id="edge5_Node000005_Node000006" class="edge">
<title>Node5&#45;&gt;Node6</title>
<g id="a_edge5_Node000005_Node000006"><a xlink:title=" ">
<path fill="none" stroke="#63b8ff" d="M638.84,-681.97C657.43,-683.84 677.6,-685.87 695.76,-687.69"/>
<polygon fill="#63b8ff" stroke="#63b8ff" points="638.99,-678.47 628.69,-680.95 638.29,-685.43 638.99,-678.47"/>
</a>
</g>
</g>
<!-- Node7 -->
<g id="Node000007" class="node">
<title>Node7</title>
<g id="a_Node000007"><a xlink:href="classArdourCanvas_1_1VBox.html" target="_top" xlink:title=" ">
<polygon fill="white" stroke="#666666" points="812.5,-666 696.5,-666 696.5,-647 812.5,-647 812.5,-666"/>
<text text-anchor="middle" x="754.5" y="-654" font-family="Helvetica,sans-Serif" font-size="10.00">ArdourCanvas::VBox</text>
</a>
</g>
</g>
<!-- Node5&#45;&gt;Node7 -->
<g id="edge6_Node000005_Node000007" class="edge">
<title>Node5&#45;&gt;Node7</title>
<g id="a_edge6_Node000005_Node000007"><a xlink:title=" ">
<path fill="none" stroke="#63b8ff" d="M638.68,-668.69C657.53,-666.69 678.01,-664.51 696.39,-662.56"/>
<polygon fill="#63b8ff" stroke="#63b8ff" points="638.27,-665.21 628.69,-669.75 639.01,-672.17 638.27,-665.21"/>
</a>
</g>
</g>
</g>
</svg>

<g id="navigator" transform="translate(0 0)" fill="#404254">
  <rect fill="#f2f5e9" fill-opacity="0.5" stroke="#606060" stroke-width=".5" x="0" y="0" width="60" height="60"/>
  <use id="zoomplus" xlink:href="#zoomPlus" x="17" y="9" onmousedown="handleZoom(evt,'in')"/>
  <use id="zoomminus" xlink:href="#zoomMin" x="42" y="9" onmousedown="handleZoom(evt,'out')"/>
  <use id="reset" xlink:href="#resetDef" x="30" y="36" onmousedown="handleReset()"/>
   <use id="arrowup" xlink:href="#arrowUp" x="0" y="0" onmousedown="handlePan(0,-1)"/>
  <use id="arrowright" xlink:href="#arrowRight" x="0" y="0" onmousedown="handlePan(1,0)"/>
  <use id="arrowdown" xlink:href="#arrowDown" x="0" y="0" onmousedown="handlePan(0,1)"/>
  <use id="arrowleft" xlink:href="#arrowLeft" x="0" y="0" onmousedown="handlePan(-1,0)"/>
</g>
<svg viewBox="0 0 15 15" width="100%" height="30px" preserveAspectRatio="xMaxYMin meet">
 <g id="arrow_out" transform="scale(0.3 0.3)">
  <a xlink:href="classArdourCanvas_1_1Rectangle__inherit__graph_org.svg" target="_base">
   <rect id="button" ry="5" rx="5" y="6" x="6" height="38" width="38"
        fill="#f2f5e9" fill-opacity="0.5" stroke="#606060" stroke-width="1.0"/>
   <path id="arrow"
     d="M 11.500037,31.436501 C 11.940474,20.09759 22.043105,11.32322 32.158766,21.979434 L 37.068811,17.246167 C 37.068811,17.246167 37.088388,32 37.088388,32 L 22.160133,31.978069 C 22.160133,31.978069 26.997745,27.140456 26.997745,27.140456 C 18.528582,18.264221 13.291696,25.230495 11.500037,31.436501 z"
     style="fill:#404040;"/>
  </a>
 </g>
</svg>

<style type='text/css'>
<![CDATA[
[data-mouse-over-selected='false'] { opacity: 0.7; }
[data-mouse-over-selected='true']  { opacity: 1.0; }
]]>
</style>
<script type="application/ecmascript"><![CDATA[
document.addEventListener('DOMContentLoaded', (event) => {
  highlightEdges();
  highlightAdjacentNodes();
});
]]></script>
</svg>
