<?xml version="1.0" encoding="UTF-8" standalone="no"?>
<!DOCTYPE svg PUBLIC "-//W3C//DTD SVG 1.1//EN"
 "http://www.w3.org/Graphics/SVG/1.1/DTD/svg11.dtd">
<!-- Generated by graphviz version 2.43.0 (0)
 -->
<!-- Title: Temporal::MeterPoint Pages: 1 -->
<svg width="380pt" height="192pt"
 viewBox="0.00 0.00 380.00 192.00" xmlns="http://www.w3.org/2000/svg" xmlns:xlink="http://www.w3.org/1999/xlink">
<g id="graph0" class="graph" transform="scale(1 1) rotate(0) translate(4 188)">
<title>Temporal::MeterPoint</title>
<!-- Node1 -->
<g id="Node000001" class="node">
<title>Node1</title>
<g id="a_Node000001"><a xlink:title=" ">
<polygon fill="#999999" stroke="#666666" points="212.5,-74 91.5,-74 91.5,-55 212.5,-55 212.5,-74"/>
<text text-anchor="middle" x="152" y="-62" font-family="Helvetica,sans-Serif" font-size="10.00">Temporal::MeterPoint</text>
</a>
</g>
</g>
<!-- Node7 -->
<g id="Node000007" class="node">
<title>Node7</title>
<g id="a_Node000007"><a xlink:href="classTemporal_1_1MusicTimePoint.html" target="_top" xlink:title=" ">
<polygon fill="white" stroke="#666666" points="225,-19 79,-19 79,0 225,0 225,-19"/>
<text text-anchor="middle" x="152" y="-7" font-family="Helvetica,sans-Serif" font-size="10.00">Temporal::MusicTimePoint</text>
</a>
</g>
</g>
<!-- Node1&#45;&gt;Node7 -->
<g id="edge6_Node000001_Node000007" class="edge">
<title>Node1&#45;&gt;Node7</title>
<g id="a_edge6_Node000001_Node000007"><a xlink:title=" ">
<path fill="none" stroke="#63b8ff" d="M152,-44.66C152,-35.93 152,-25.99 152,-19.09"/>
<polygon fill="#63b8ff" stroke="#63b8ff" points="148.5,-44.75 152,-54.75 155.5,-44.75 148.5,-44.75"/>
</a>
</g>
</g>
<!-- Node2 -->
<g id="Node000002" class="node">
<title>Node2</title>
<g id="a_Node000002"><a xlink:href="classTemporal_1_1Meter.html" target="_top" xlink:title=" ">
<polygon fill="white" stroke="#666666" points="96,-129 0,-129 0,-110 96,-110 96,-129"/>
<text text-anchor="middle" x="48" y="-117" font-family="Helvetica,sans-Serif" font-size="10.00">Temporal::Meter</text>
</a>
</g>
</g>
<!-- Node2&#45;&gt;Node1 -->
<g id="edge1_Node000001_Node000002" class="edge">
<title>Node2&#45;&gt;Node1</title>
<g id="a_edge1_Node000001_Node000002"><a xlink:title=" ">
<path fill="none" stroke="#63b8ff" d="M73.77,-105.37C92.87,-95.63 118.37,-82.64 134.99,-74.17"/>
<polygon fill="#63b8ff" stroke="#63b8ff" points="72.03,-102.33 64.71,-109.98 75.21,-108.56 72.03,-102.33"/>
</a>
</g>
</g>
<!-- Node3 -->
<g id="Node000003" class="node">
<title>Node3</title>
<g id="a_Node000003"><a xlink:title=" ">
<polygon fill="white" stroke="#666666" points="189.5,-129 114.5,-129 114.5,-110 189.5,-110 189.5,-129"/>
<text text-anchor="middle" x="152" y="-117" font-family="Helvetica,sans-Serif" font-size="10.00">meter_hook</text>
</a>
</g>
</g>
<!-- Node3&#45;&gt;Node1 -->
<g id="edge2_Node000001_Node000003" class="edge">
<title>Node3&#45;&gt;Node1</title>
<g id="a_edge2_Node000001_Node000003"><a xlink:title=" ">
<path fill="none" stroke="#63b8ff" d="M152,-99.66C152,-90.93 152,-80.99 152,-74.09"/>
<polygon fill="#63b8ff" stroke="#63b8ff" points="148.5,-99.75 152,-109.75 155.5,-99.75 148.5,-99.75"/>
</a>
</g>
</g>
<!-- Node4 -->
<g id="Node000004" class="node">
<title>Node4</title>
<g id="a_Node000004"><a xlink:href="classTemporal_1_1Point.html" target="_top" xlink:title=" ">
<polygon fill="white" stroke="#666666" points="300,-129 208,-129 208,-110 300,-110 300,-129"/>
<text text-anchor="middle" x="254" y="-117" font-family="Helvetica,sans-Serif" font-size="10.00">Temporal::Point</text>
</a>
</g>
</g>
<!-- Node4&#45;&gt;Node1 -->
<g id="edge3_Node000001_Node000004" class="edge">
<title>Node4&#45;&gt;Node1</title>
<g id="a_edge3_Node000001_Node000004"><a xlink:title=" ">
<path fill="none" stroke="#63b8ff" d="M228.73,-105.37C209.99,-95.63 184.98,-82.64 168.69,-74.17"/>
<polygon fill="#63b8ff" stroke="#63b8ff" points="227.12,-108.48 237.61,-109.98 230.35,-102.27 227.12,-108.48"/>
</a>
</g>
</g>
<!-- Node5 -->
<g id="Node000005" class="node">
<title>Node5</title>
<g id="a_Node000005"><a xlink:title=" ">
<polygon fill="white" stroke="#666666" points="231.5,-184 160.5,-184 160.5,-165 231.5,-165 231.5,-184"/>
<text text-anchor="middle" x="196" y="-172" font-family="Helvetica,sans-Serif" font-size="10.00">point_hook</text>
</a>
</g>
</g>
<!-- Node5&#45;&gt;Node4 -->
<g id="edge4_Node000004_Node000005" class="edge">
<title>Node5&#45;&gt;Node4</title>
<g id="a_edge4_Node000004_Node000005"><a xlink:title=" ">
<path fill="none" stroke="#63b8ff" d="M212.91,-158.04C223.2,-148.64 235.97,-136.98 244.51,-129.17"/>
<polygon fill="#63b8ff" stroke="#63b8ff" points="210.34,-155.66 205.32,-164.98 215.06,-160.82 210.34,-155.66"/>
</a>
</g>
</g>
<!-- Node6 -->
<g id="Node000006" class="node">
<title>Node6</title>
<g id="a_Node000006"><a xlink:href="classTemporal_1_1MapOwned.html" target="_top" xlink:title=" ">
<polygon fill="white" stroke="#666666" points="372,-184 250,-184 250,-165 372,-165 372,-184"/>
<text text-anchor="middle" x="311" y="-172" font-family="Helvetica,sans-Serif" font-size="10.00">Temporal::MapOwned</text>
</a>
</g>
</g>
<!-- Node6&#45;&gt;Node4 -->
<g id="edge5_Node000004_Node000006" class="edge">
<title>Node6&#45;&gt;Node4</title>
<g id="a_edge5_Node000004_Node000006"><a xlink:title=" ">
<path fill="none" stroke="#63b8ff" d="M294.38,-158.04C284.27,-148.64 271.72,-136.98 263.32,-129.17"/>
<polygon fill="#63b8ff" stroke="#63b8ff" points="292.14,-160.74 301.84,-164.98 296.9,-155.61 292.14,-160.74"/>
</a>
</g>
</g>
</g>
</svg>
