<?xml version="1.0" encoding="UTF-8" standalone="no"?>
<!DOCTYPE svg PUBLIC "-//W3C//DTD SVG 1.1//EN"
 "http://www.w3.org/Graphics/SVG/1.1/DTD/svg11.dtd">
<!-- Generated by graphviz version 2.43.0 (0)
 -->
<!-- Title: AudioRegionView Pages: 1 -->
<svg width="254pt" height="247pt"
 viewBox="0.00 0.00 253.50 247.00" xmlns="http://www.w3.org/2000/svg" xmlns:xlink="http://www.w3.org/1999/xlink">

<svg id="main" version="1.1" xmlns="http://www.w3.org/2000/svg" xmlns:xlink="http://www.w3.org/1999/xlink" xml:space="preserve" onload="init(evt)">
<style type="text/css"><![CDATA[
.node, .edge {opacity: 0.7;}
.node.selected, .edge.selected {opacity: 1;}
.edge:hover path { stroke: red; }
.edge:hover polygon { stroke: red; fill: red; }
]]></style>
<script type="application/ecmascript" xlink:href="svg.min.js"/>
<svg id="graph" class="graph">
<g id="graph0" class="graph" transform="scale(1 1) rotate(0) translate(4 243)">
<title>AudioRegionView</title>
<!-- Node1 -->
<g id="Node000001" class="node">
<title>Node1</title>
<g id="a_Node000001"><a xlink:title=" ">
<polygon fill="#999999" stroke="#666666" points="202.5,-19 100.5,-19 100.5,0 202.5,0 202.5,-19"/>
<text text-anchor="middle" x="151.5" y="-7" font-family="Helvetica,sans-Serif" font-size="10.00">AudioRegionView</text>
</a>
</g>
</g>
<!-- Node2 -->
<g id="Node000002" class="node">
<title>Node2</title>
<g id="a_Node000002"><a xlink:href="classRegionView.html" target="_top" xlink:title=" ">
<polygon fill="white" stroke="#666666" points="143.5,-74 69.5,-74 69.5,-55 143.5,-55 143.5,-74"/>
<text text-anchor="middle" x="106.5" y="-62" font-family="Helvetica,sans-Serif" font-size="10.00">RegionView</text>
</a>
</g>
</g>
<!-- Node2&#45;&gt;Node1 -->
<g id="edge1_Node000001_Node000002" class="edge">
<title>Node2&#45;&gt;Node1</title>
<g id="a_edge1_Node000001_Node000002"><a xlink:title=" ">
<path fill="none" stroke="#63b8ff" d="M120.55,-46.96C128.39,-37.72 137.83,-26.6 144.21,-19.09"/>
<polygon fill="#63b8ff" stroke="#63b8ff" points="117.74,-44.86 113.93,-54.75 123.07,-49.39 117.74,-44.86"/>
</a>
</g>
</g>
<!-- Node3 -->
<g id="Node000003" class="node">
<title>Node3</title>
<g id="a_Node000003"><a xlink:href="classTimeAxisViewItem.html" target="_top" xlink:title=" ">
<polygon fill="white" stroke="#666666" points="161,-129 52,-129 52,-110 161,-110 161,-129"/>
<text text-anchor="middle" x="106.5" y="-117" font-family="Helvetica,sans-Serif" font-size="10.00">TimeAxisViewItem</text>
</a>
</g>
</g>
<!-- Node3&#45;&gt;Node2 -->
<g id="edge2_Node000002_Node000003" class="edge">
<title>Node3&#45;&gt;Node2</title>
<g id="a_edge2_Node000002_Node000003"><a xlink:title=" ">
<path fill="none" stroke="#63b8ff" d="M106.5,-99.66C106.5,-90.93 106.5,-80.99 106.5,-74.09"/>
<polygon fill="#63b8ff" stroke="#63b8ff" points="103,-99.75 106.5,-109.75 110,-99.75 103,-99.75"/>
</a>
</g>
</g>
<!-- Node4 -->
<g id="Node000004" class="node">
<title>Node4</title>
<g id="a_Node000004"><a xlink:href="classSelectable.html" target="_top" xlink:title=" ">
<polygon fill="white" stroke="#666666" points="77.5,-184 9.5,-184 9.5,-165 77.5,-165 77.5,-184"/>
<text text-anchor="middle" x="43.5" y="-172" font-family="Helvetica,sans-Serif" font-size="10.00">Selectable</text>
</a>
</g>
</g>
<!-- Node4&#45;&gt;Node3 -->
<g id="edge3_Node000003_Node000004" class="edge">
<title>Node4&#45;&gt;Node3</title>
<g id="a_edge3_Node000003_Node000004"><a xlink:title=" ">
<path fill="none" stroke="#63b8ff" d="M61.54,-158.32C72.77,-148.87 86.82,-137.06 96.19,-129.17"/>
<polygon fill="#63b8ff" stroke="#63b8ff" points="59.02,-155.87 53.62,-164.98 63.53,-161.23 59.02,-155.87"/>
</a>
</g>
</g>
<!-- Node5 -->
<g id="Node000005" class="node">
<title>Node5</title>
<g id="a_Node000005"><a xlink:title=" ">
<polygon fill="white" stroke="#666666" points="87,-239 0,-239 0,-220 87,-220 87,-239"/>
<text text-anchor="middle" x="43.5" y="-227" font-family="Helvetica,sans-Serif" font-size="10.00">sigc::trackable</text>
</a>
</g>
</g>
<!-- Node5&#45;&gt;Node4 -->
<g id="edge4_Node000004_Node000005" class="edge">
<title>Node5&#45;&gt;Node4</title>
<g id="a_edge4_Node000004_Node000005"><a xlink:title=" ">
<path fill="none" stroke="#63b8ff" d="M43.5,-209.66C43.5,-200.93 43.5,-190.99 43.5,-184.09"/>
<polygon fill="#63b8ff" stroke="#63b8ff" points="40,-209.75 43.5,-219.75 47,-209.75 40,-209.75"/>
</a>
</g>
</g>
<!-- Node6 -->
<g id="Node000006" class="node">
<title>Node6</title>
<g id="a_Node000006"><a xlink:href="classPBD_1_1ScopedConnectionList.html" target="_top" xlink:title=" ">
<polygon fill="white" stroke="#666666" points="245.5,-184 95.5,-184 95.5,-165 245.5,-165 245.5,-184"/>
<text text-anchor="middle" x="170.5" y="-172" font-family="Helvetica,sans-Serif" font-size="10.00">PBD::ScopedConnectionList</text>
</a>
</g>
</g>
<!-- Node6&#45;&gt;Node3 -->
<g id="edge5_Node000003_Node000006" class="edge">
<title>Node6&#45;&gt;Node3</title>
<g id="a_edge5_Node000003_Node000006"><a xlink:title=" ">
<path fill="none" stroke="#63b8ff" d="M152.51,-158.6C141.04,-149.11 126.59,-137.13 116.97,-129.17"/>
<polygon fill="#63b8ff" stroke="#63b8ff" points="150.28,-161.3 160.22,-164.98 154.75,-155.91 150.28,-161.3"/>
</a>
</g>
</g>
<!-- Node7 -->
<g id="Node000007" class="node">
<title>Node7</title>
<g id="a_Node000007"><a xlink:href="classLineMerger.html" target="_top" xlink:title=" ">
<polygon fill="white" stroke="#666666" points="233,-74 162,-74 162,-55 233,-55 233,-74"/>
<text text-anchor="middle" x="197.5" y="-62" font-family="Helvetica,sans-Serif" font-size="10.00">LineMerger</text>
</a>
</g>
</g>
<!-- Node7&#45;&gt;Node1 -->
<g id="edge6_Node000001_Node000007" class="edge">
<title>Node7&#45;&gt;Node1</title>
<g id="a_edge6_Node000001_Node000007"><a xlink:title=" ">
<path fill="none" stroke="#63b8ff" d="M183.14,-46.96C175.13,-37.72 165.47,-26.6 158.95,-19.09"/>
<polygon fill="#63b8ff" stroke="#63b8ff" points="180.71,-49.49 189.9,-54.75 185.99,-44.9 180.71,-49.49"/>
</a>
</g>
</g>
</g>
</svg>
</svg>

<style type='text/css'>
<![CDATA[
[data-mouse-over-selected='false'] { opacity: 0.7; }
[data-mouse-over-selected='true']  { opacity: 1.0; }
]]>
</style>
<script type="application/ecmascript"><![CDATA[
document.addEventListener('DOMContentLoaded', (event) => {
  highlightEdges();
  highlightAdjacentNodes();
});
]]></script>
</svg>
