<?xml version="1.0" encoding="UTF-8" standalone="no"?>
<!DOCTYPE svg PUBLIC "-//W3C//DTD SVG 1.1//EN"
 "http://www.w3.org/Graphics/SVG/1.1/DTD/svg11.dtd">
<!-- Generated by graphviz version 2.43.0 (0)
 -->
<!-- Title: ARDOUR::Latent Pages: 1 -->
<!--zoomable 545 -->

<svg id="main" version="1.1" xmlns="http://www.w3.org/2000/svg" xmlns:xlink="http://www.w3.org/1999/xlink" xml:space="preserve" onload="init(evt)">
<style type="text/css"><![CDATA[
.node, .edge {opacity: 0.7;}
.node.selected, .edge.selected {opacity: 1;}
.edge:hover path { stroke: red; }
.edge:hover polygon { stroke: red; fill: red; }
]]></style>

<defs>
  <circle id="rim" cx="0" cy="0" r="7"/>
  <circle id="rim2" cx="0" cy="0" r="3.5"/>
  <g id="zoomPlus">
    <use xlink:href="#rim" fill="#404040"><set attributeName="fill" to="#808080" begin="zoomplus.mouseover" end="zoomplus.mouseout"/></use>
    <path d="M-4,0h8M0,-4v8" fill="none" stroke="white" stroke-width="1.5" pointer-events="none"/>
  </g>
  <g id="zoomMin">
    <use xlink:href="#rim" fill="#404040"><set attributeName="fill" to="#808080" begin="zoomminus.mouseover" end="zoomminus.mouseout"/></use>
    <path d="M-4,0h8" fill="none" stroke="white" stroke-width="1.5" pointer-events="none"/>
  </g>
  <g id="arrowUp" transform="translate(30 24)">
    <use xlink:href="#rim"/>
    <path pointer-events="none" fill="none" stroke="white" stroke-width="1.5" d="M0,-3.0v7 M-2.5,-0.5L0,-3.0L2.5,-0.5"/>
  </g>
  <g id="arrowRight" transform="rotate(90) translate(36 -43)">
    <use xlink:href="#rim"/>
    <path pointer-events="none" fill="none" stroke="white" stroke-width="1.5" d="M0,-3.0v7 M-2.5,-0.5L0,-3.0L2.5,-0.5"/>
  </g>
  <g id="arrowDown" transform="rotate(180) translate(-30 -48)">
    <use xlink:href="#rim"/>
    <path pointer-events="none" fill="none" stroke="white" stroke-width="1.5" d="M0,-3.0v7 M-2.5,-0.5L0,-3.0L2.5,-0.5"/>
  </g>
  <g id="arrowLeft" transform="rotate(270) translate(-36 17)">
    <use xlink:href="#rim"/>
    <path pointer-events="none" fill="none" stroke="white" stroke-width="1.5" d="M0,-3.0v7 M-2.5,-0.5L0,-3.0L2.5,-0.5"/>
  </g>
  <g id="resetDef">
    <use xlink:href="#rim2" fill="#404040"><set attributeName="fill" to="#808080" begin="reset.mouseover" end="reset.mouseout"/></use>
  </g>
</defs>
<script type="application/ecmascript">
var viewWidth = 1094;
var viewHeight = 545;
var sectionId = 'dynsection-0';
</script>
<script type="application/ecmascript" xlink:href="svg.min.js"/>
<svg id="graph" class="graph">
<g id="viewport">
<title>ARDOUR::Latent</title>
<!-- Node1 -->
<g id="Node000001" class="node">
<title>Node1</title>
<g id="a_Node000001"><a xlink:title=" ">
<polygon fill="#999999" stroke="#666666" points="254,-278 158,-278 158,-259 254,-259 254,-278"/>
<text text-anchor="middle" x="206" y="-266" font-family="Helvetica,sans-Serif" font-size="10.00">ARDOUR::Latent</text>
</a>
</g>
</g>
<!-- Node3 -->
<g id="Node000003" class="node">
<title>Node3</title>
<g id="a_Node000003"><a xlink:href="classARDOUR_1_1IOPlug.html" target="_top" xlink:title=" ">
<polygon fill="white" stroke="#666666" points="409,-315 312,-315 312,-296 409,-296 409,-315"/>
<text text-anchor="middle" x="360.5" y="-303" font-family="Helvetica,sans-Serif" font-size="10.00">ARDOUR::IOPlug</text>
</a>
</g>
</g>
<!-- Node1&#45;&gt;Node3 -->
<g id="edge2_Node000001_Node000003" class="edge">
<title>Node1&#45;&gt;Node3</title>
<g id="a_edge2_Node000001_Node000003"><a xlink:title=" ">
<path fill="none" stroke="#63b8ff" d="M256.15,-280.43C276.84,-285.44 300.59,-291.21 320.1,-295.94"/>
<polygon fill="#63b8ff" stroke="#63b8ff" points="256.82,-276.98 246.27,-278.03 255.17,-283.79 256.82,-276.98"/>
</a>
</g>
</g>
<!-- Node4 -->
<g id="Node000004" class="node">
<title>Node4</title>
<g id="a_Node000004"><a xlink:href="classARDOUR_1_1Processor.html" target="_top" xlink:title=" ">
<polygon fill="white" stroke="#666666" points="417,-278 304,-278 304,-259 417,-259 417,-278"/>
<text text-anchor="middle" x="360.5" y="-266" font-family="Helvetica,sans-Serif" font-size="10.00">ARDOUR::Processor</text>
</a>
</g>
</g>
<!-- Node1&#45;&gt;Node4 -->
<g id="edge3_Node000001_Node000004" class="edge">
<title>Node1&#45;&gt;Node4</title>
<g id="a_edge3_Node000001_Node000004"><a xlink:title=" ">
<path fill="none" stroke="#63b8ff" d="M264.54,-268.5C277.41,-268.5 291.04,-268.5 303.83,-268.5"/>
<polygon fill="#63b8ff" stroke="#63b8ff" points="264.42,-265 254.42,-268.5 264.42,-272 264.42,-265"/>
</a>
</g>
</g>
<!-- Node29 -->
<g id="Node000029" class="node">
<title>Node29</title>
<g id="a_Node000029"><a xlink:href="classARDOUR_1_1RegionFxPlugin.html" target="_top" xlink:title=" ">
<polygon fill="white" stroke="#666666" points="431,-241 290,-241 290,-222 431,-222 431,-241"/>
<text text-anchor="middle" x="360.5" y="-229" font-family="Helvetica,sans-Serif" font-size="10.00">ARDOUR::RegionFxPlugin</text>
</a>
</g>
</g>
<!-- Node1&#45;&gt;Node29 -->
<g id="edge28_Node000001_Node000029" class="edge">
<title>Node1&#45;&gt;Node29</title>
<g id="a_edge28_Node000001_Node000029"><a xlink:title=" ">
<path fill="none" stroke="#63b8ff" d="M256.15,-256.57C276.84,-251.56 300.59,-245.79 320.1,-241.06"/>
<polygon fill="#63b8ff" stroke="#63b8ff" points="255.17,-253.21 246.27,-258.97 256.82,-260.02 255.17,-253.21"/>
</a>
</g>
</g>
<!-- Node2 -->
<g id="Node000002" class="node">
<title>Node2</title>
<g id="a_Node000002"><a xlink:href="classARDOUR_1_1HasLatency.html" target="_top" xlink:title=" ">
<polygon fill="white" stroke="#666666" points="122,-278 0,-278 0,-259 122,-259 122,-278"/>
<text text-anchor="middle" x="61" y="-266" font-family="Helvetica,sans-Serif" font-size="10.00">ARDOUR::HasLatency</text>
</a>
</g>
</g>
<!-- Node2&#45;&gt;Node1 -->
<g id="edge1_Node000001_Node000002" class="edge">
<title>Node2&#45;&gt;Node1</title>
<g id="a_edge1_Node000001_Node000002"><a xlink:title=" ">
<path fill="none" stroke="#63b8ff" d="M132.35,-268.5C141,-268.5 149.68,-268.5 157.87,-268.5"/>
<polygon fill="#63b8ff" stroke="#63b8ff" points="132.23,-265 122.23,-268.5 132.23,-272 132.23,-265"/>
</a>
</g>
</g>
<!-- Node5 -->
<g id="Node000005" class="node">
<title>Node5</title>
<g id="a_Node000005"><a xlink:href="classARDOUR_1_1Amp.html" target="_top" xlink:title=" ">
<polygon fill="white" stroke="#666666" points="591,-537 503,-537 503,-518 591,-518 591,-537"/>
<text text-anchor="middle" x="547" y="-525" font-family="Helvetica,sans-Serif" font-size="10.00">ARDOUR::Amp</text>
</a>
</g>
</g>
<!-- Node4&#45;&gt;Node5 -->
<g id="edge4_Node000004_Node000005" class="edge">
<title>Node4&#45;&gt;Node5</title>
<g id="a_edge4_Node000004_Node000005"><a xlink:title=" ">
<path fill="none" stroke="#63b8ff" d="M425.9,-281.79C427.72,-283.21 429.43,-284.78 431,-286.5 498.6,-360.73 398.32,-436.28 467,-509.5 476.24,-519.35 489.66,-524.34 502.82,-526.74"/>
<polygon fill="#63b8ff" stroke="#63b8ff" points="427.62,-278.73 417.28,-276.41 423.91,-284.67 427.62,-278.73"/>
</a>
</g>
</g>
<!-- Node6 -->
<g id="Node000006" class="node">
<title>Node6</title>
<g id="a_Node000006"><a xlink:href="classARDOUR_1_1BeatBox.html" target="_top" xlink:title=" ">
<polygon fill="white" stroke="#666666" points="600.5,-500 493.5,-500 493.5,-481 600.5,-481 600.5,-500"/>
<text text-anchor="middle" x="547" y="-488" font-family="Helvetica,sans-Serif" font-size="10.00">ARDOUR::BeatBox</text>
</a>
</g>
</g>
<!-- Node4&#45;&gt;Node6 -->
<g id="edge5_Node000004_Node000006" class="edge">
<title>Node4&#45;&gt;Node6</title>
<g id="a_edge5_Node000004_Node000006"><a xlink:title=" ">
<path fill="none" stroke="#63b8ff" d="M425.83,-281.85C427.67,-283.26 429.41,-284.8 431,-286.5 488.66,-347.86 408.45,-411.99 467,-472.5 474.04,-479.78 483.37,-484.39 493.15,-487.25"/>
<polygon fill="#63b8ff" stroke="#63b8ff" points="427.5,-278.77 417.15,-276.53 423.85,-284.74 427.5,-278.77"/>
</a>
</g>
</g>
<!-- Node7 -->
<g id="Node000007" class="node">
<title>Node7</title>
<g id="a_Node000007"><a xlink:href="classARDOUR_1_1CapturingProcessor.html" target="_top" xlink:title=" ">
<polygon fill="white" stroke="#666666" points="627,-463 467,-463 467,-444 627,-444 627,-463"/>
<text text-anchor="middle" x="547" y="-451" font-family="Helvetica,sans-Serif" font-size="10.00">ARDOUR::CapturingProcessor</text>
</a>
</g>
</g>
<!-- Node4&#45;&gt;Node7 -->
<g id="edge6_Node000004_Node000007" class="edge">
<title>Node4&#45;&gt;Node7</title>
<g id="a_edge6_Node000004_Node000007"><a xlink:title=" ">
<path fill="none" stroke="#63b8ff" d="M426.27,-282.35C427.94,-283.62 429.52,-285 431,-286.5 478.78,-335.07 418.51,-387.64 467,-435.5 470.4,-438.86 474.3,-441.64 478.49,-443.95"/>
<polygon fill="#63b8ff" stroke="#63b8ff" points="427.66,-279.1 417.3,-276.88 424.01,-285.07 427.66,-279.1"/>
</a>
</g>
</g>
<!-- Node8 -->
<g id="Node000008" class="node">
<title>Node8</title>
<g id="a_Node000008"><a xlink:href="classARDOUR_1_1DelayLine.html" target="_top" xlink:title=" ">
<polygon fill="white" stroke="#666666" points="604,-426 490,-426 490,-407 604,-407 604,-426"/>
<text text-anchor="middle" x="547" y="-414" font-family="Helvetica,sans-Serif" font-size="10.00">ARDOUR::DelayLine</text>
</a>
</g>
</g>
<!-- Node4&#45;&gt;Node8 -->
<g id="edge7_Node000004_Node000008" class="edge">
<title>Node4&#45;&gt;Node8</title>
<g id="a_edge7_Node000004_Node000008"><a xlink:title=" ">
<path fill="none" stroke="#63b8ff" d="M426.24,-282.58C427.91,-283.79 429.5,-285.09 431,-286.5 468.76,-322.05 428.93,-362.28 467,-397.5 473.42,-403.44 481.36,-407.62 489.72,-410.54"/>
<polygon fill="#63b8ff" stroke="#63b8ff" points="427.73,-279.4 417.33,-277.35 424.18,-285.43 427.73,-279.4"/>
</a>
</g>
</g>
<!-- Node9 -->
<g id="Node000009" class="node">
<title>Node9</title>
<g id="a_Node000009"><a xlink:href="classARDOUR_1_1DiskIOProcessor.html" target="_top" xlink:title=" ">
<polygon fill="white" stroke="#666666" points="619.5,-389 474.5,-389 474.5,-370 619.5,-370 619.5,-389"/>
<text text-anchor="middle" x="547" y="-377" font-family="Helvetica,sans-Serif" font-size="10.00">ARDOUR::DiskIOProcessor</text>
</a>
</g>
</g>
<!-- Node4&#45;&gt;Node9 -->
<g id="edge8_Node000004_Node000009" class="edge">
<title>Node4&#45;&gt;Node9</title>
<g id="a_edge8_Node000004_Node000009"><a xlink:title=" ">
<path fill="none" stroke="#63b8ff" d="M426.11,-282.94C427.81,-284.04 429.44,-285.23 431,-286.5 459.31,-309.66 438.49,-337.59 467,-360.5 471.84,-364.39 477.35,-367.5 483.15,-369.99"/>
<polygon fill="#63b8ff" stroke="#63b8ff" points="427.62,-279.78 417.16,-278.1 424.29,-285.94 427.62,-279.78"/>
</a>
</g>
</g>
<!-- Node12 -->
<g id="Node000012" class="node">
<title>Node12</title>
<g id="a_Node000012"><a xlink:href="classARDOUR_1_1IOProcessor.html" target="_top" xlink:title=" ">
<polygon fill="white" stroke="#666666" points="608.5,-352 485.5,-352 485.5,-333 608.5,-333 608.5,-352"/>
<text text-anchor="middle" x="547" y="-340" font-family="Helvetica,sans-Serif" font-size="10.00">ARDOUR::IOProcessor</text>
</a>
</g>
</g>
<!-- Node4&#45;&gt;Node12 -->
<g id="edge11_Node000004_Node000012" class="edge">
<title>Node4&#45;&gt;Node12</title>
<g id="a_edge11_Node000004_Node000012"><a xlink:title=" ">
<path fill="none" stroke="#63b8ff" d="M421.56,-281.75C424.83,-283.18 428,-284.76 431,-286.5 450.84,-298.02 447.06,-312.15 467,-323.5 473.86,-327.41 481.51,-330.52 489.26,-332.99"/>
<polygon fill="#63b8ff" stroke="#63b8ff" points="422.75,-278.46 412.16,-278.12 420.22,-284.99 422.75,-278.46"/>
</a>
</g>
</g>
<!-- Node19 -->
<g id="Node000019" class="node">
<title>Node19</title>
<g id="a_Node000019"><a xlink:href="classARDOUR_1_1InternalReturn.html" target="_top" xlink:title=" ">
<polygon fill="white" stroke="#666666" points="614.5,-315 479.5,-315 479.5,-296 614.5,-296 614.5,-315"/>
<text text-anchor="middle" x="547" y="-303" font-family="Helvetica,sans-Serif" font-size="10.00">ARDOUR::InternalReturn</text>
</a>
</g>
</g>
<!-- Node4&#45;&gt;Node19 -->
<g id="edge18_Node000004_Node000019" class="edge">
<title>Node4&#45;&gt;Node19</title>
<g id="a_edge18_Node000004_Node000019"><a xlink:title=" ">
<path fill="none" stroke="#63b8ff" d="M418.92,-280.02C444.42,-285.13 474.08,-291.08 498.33,-295.94"/>
<polygon fill="#63b8ff" stroke="#63b8ff" points="419.51,-276.56 409.01,-278.03 418.13,-283.43 419.51,-276.56"/>
</a>
</g>
</g>
<!-- Node21 -->
<g id="Node000021" class="node">
<title>Node21</title>
<g id="a_Node000021"><a xlink:href="classARDOUR_1_1MonitorProcessor.html" target="_top" xlink:title=" ">
<polygon fill="white" stroke="#666666" points="622,-278 472,-278 472,-259 622,-259 622,-278"/>
<text text-anchor="middle" x="547" y="-266" font-family="Helvetica,sans-Serif" font-size="10.00">ARDOUR::MonitorProcessor</text>
</a>
</g>
</g>
<!-- Node4&#45;&gt;Node21 -->
<g id="edge20_Node000004_Node000021" class="edge">
<title>Node4&#45;&gt;Node21</title>
<g id="a_edge20_Node000004_Node000021"><a xlink:title=" ">
<path fill="none" stroke="#63b8ff" d="M427.39,-268.5C441.76,-268.5 457.07,-268.5 471.75,-268.5"/>
<polygon fill="#63b8ff" stroke="#63b8ff" points="427.11,-265 417.11,-268.5 427.11,-272 427.11,-265"/>
</a>
</g>
</g>
<!-- Node22 -->
<g id="Node000022" class="node">
<title>Node22</title>
<g id="a_Node000022"><a xlink:href="classARDOUR_1_1PeakMeter.html" target="_top" xlink:title=" ">
<polygon fill="white" stroke="#666666" points="606,-241 488,-241 488,-222 606,-222 606,-241"/>
<text text-anchor="middle" x="547" y="-229" font-family="Helvetica,sans-Serif" font-size="10.00">ARDOUR::PeakMeter</text>
</a>
</g>
</g>
<!-- Node4&#45;&gt;Node22 -->
<g id="edge21_Node000004_Node000022" class="edge">
<title>Node4&#45;&gt;Node22</title>
<g id="a_edge21_Node000004_Node000022"><a xlink:title=" ">
<path fill="none" stroke="#63b8ff" d="M418.92,-256.98C444.42,-251.87 474.08,-245.92 498.33,-241.06"/>
<polygon fill="#63b8ff" stroke="#63b8ff" points="418.13,-253.57 409.01,-258.97 419.51,-260.44 418.13,-253.57"/>
</a>
</g>
</g>
<!-- Node23 -->
<g id="Node000023" class="node">
<title>Node23</title>
<g id="a_Node000023"><a xlink:href="classARDOUR_1_1PluginInsert.html" target="_top" xlink:title=" ">
<polygon fill="white" stroke="#666666" points="608.5,-204 485.5,-204 485.5,-185 608.5,-185 608.5,-204"/>
<text text-anchor="middle" x="547" y="-192" font-family="Helvetica,sans-Serif" font-size="10.00">ARDOUR::PluginInsert</text>
</a>
</g>
</g>
<!-- Node4&#45;&gt;Node23 -->
<g id="edge22_Node000004_Node000023" class="edge">
<title>Node4&#45;&gt;Node23</title>
<g id="a_edge22_Node000004_Node000023"><a xlink:title=" ">
<path fill="none" stroke="#63b8ff" d="M419.27,-255.34C423.35,-253.62 427.3,-251.68 431,-249.5 450.76,-237.84 446.99,-223.73 467,-212.5 473.13,-209.06 479.88,-206.27 486.78,-204.02"/>
<polygon fill="#63b8ff" stroke="#63b8ff" points="417.73,-252.18 409.6,-258.97 420.19,-258.73 417.73,-252.18"/>
</a>
</g>
</g>
<!-- Node24 -->
<g id="Node000024" class="node">
<title>Node24</title>
<g id="a_Node000024"><a xlink:href="classARDOUR_1_1PolarityProcessor.html" target="_top" xlink:title=" ">
<polygon fill="white" stroke="#666666" points="622,-167 472,-167 472,-148 622,-148 622,-167"/>
<text text-anchor="middle" x="547" y="-155" font-family="Helvetica,sans-Serif" font-size="10.00">ARDOUR::PolarityProcessor</text>
</a>
</g>
</g>
<!-- Node4&#45;&gt;Node24 -->
<g id="edge23_Node000004_Node000024" class="edge">
<title>Node4&#45;&gt;Node24</title>
<g id="a_edge23_Node000004_Node000024"><a xlink:title=" ">
<path fill="none" stroke="#63b8ff" d="M424.42,-254.19C426.73,-252.77 428.94,-251.21 431,-249.5 459.15,-226.15 438.36,-198.24 467,-175.5 471.3,-172.09 476.12,-169.3 481.2,-167.02"/>
<polygon fill="#63b8ff" stroke="#63b8ff" points="422.37,-251.31 415.08,-259 425.58,-257.53 422.37,-251.31"/>
</a>
</g>
</g>
<!-- Node25 -->
<g id="Node000025" class="node">
<title>Node25</title>
<g id="a_Node000025"><a xlink:href="classARDOUR_1_1SurroundReturn.html" target="_top" xlink:title=" ">
<polygon fill="white" stroke="#666666" points="617.5,-130 476.5,-130 476.5,-111 617.5,-111 617.5,-130"/>
<text text-anchor="middle" x="547" y="-118" font-family="Helvetica,sans-Serif" font-size="10.00">ARDOUR::SurroundReturn</text>
</a>
</g>
</g>
<!-- Node4&#45;&gt;Node25 -->
<g id="edge24_Node000004_Node000025" class="edge">
<title>Node4&#45;&gt;Node25</title>
<g id="a_edge24_Node000004_Node000025"><a xlink:title=" ">
<path fill="none" stroke="#63b8ff" d="M425.71,-253.86C427.57,-252.53 429.35,-251.08 431,-249.5 468.52,-213.69 428.72,-173.49 467,-138.5 470.63,-135.18 474.75,-132.43 479.15,-130.16"/>
<polygon fill="#63b8ff" stroke="#63b8ff" points="423.86,-250.89 417.01,-258.97 427.41,-256.92 423.86,-250.89"/>
</a>
</g>
</g>
<!-- Node26 -->
<g id="Node000026" class="node">
<title>Node26</title>
<g id="a_Node000026"><a xlink:href="classARDOUR_1_1SurroundSend.html" target="_top" xlink:title=" ">
<polygon fill="white" stroke="#666666" points="613.5,-93 480.5,-93 480.5,-74 613.5,-74 613.5,-93"/>
<text text-anchor="middle" x="547" y="-81" font-family="Helvetica,sans-Serif" font-size="10.00">ARDOUR::SurroundSend</text>
</a>
</g>
</g>
<!-- Node4&#45;&gt;Node26 -->
<g id="edge25_Node000004_Node000026" class="edge">
<title>Node4&#45;&gt;Node26</title>
<g id="a_edge25_Node000004_Node000026"><a xlink:title=" ">
<path fill="none" stroke="#63b8ff" d="M425.86,-254.02C427.69,-252.64 429.41,-251.14 431,-249.5 478.19,-200.96 418.78,-149.02 467,-101.5 470.91,-97.65 475.46,-94.55 480.36,-92.07"/>
<polygon fill="#63b8ff" stroke="#63b8ff" points="424,-251.06 417.32,-259.28 427.67,-257.02 424,-251.06"/>
</a>
</g>
</g>
<!-- Node27 -->
<g id="Node000027" class="node">
<title>Node27</title>
<g id="a_Node000027"><a xlink:href="classARDOUR_1_1TriggerBox.html" target="_top" xlink:title=" ">
<polygon fill="white" stroke="#666666" points="605.5,-56 488.5,-56 488.5,-37 605.5,-37 605.5,-56"/>
<text text-anchor="middle" x="547" y="-44" font-family="Helvetica,sans-Serif" font-size="10.00">ARDOUR::TriggerBox</text>
</a>
</g>
</g>
<!-- Node4&#45;&gt;Node27 -->
<g id="edge26_Node000004_Node000027" class="edge">
<title>Node4&#45;&gt;Node27</title>
<g id="a_edge26_Node000004_Node000027"><a xlink:title=" ">
<path fill="none" stroke="#63b8ff" d="M425.84,-254.21C427.68,-252.78 429.41,-251.21 431,-249.5 487.98,-188.1 408.72,-124.67 467,-64.5 472.87,-58.44 480.33,-54.23 488.31,-51.34"/>
<polygon fill="#63b8ff" stroke="#63b8ff" points="423.79,-251.36 417.17,-259.63 427.51,-257.29 423.79,-251.36"/>
</a>
</g>
</g>
<!-- Node28 -->
<g id="Node000028" class="node">
<title>Node28</title>
<g id="a_Node000028"><a xlink:href="classARDOUR_1_1UnknownProcessor.html" target="_top" xlink:title=" ">
<polygon fill="white" stroke="#666666" points="626,-19 468,-19 468,0 626,0 626,-19"/>
<text text-anchor="middle" x="547" y="-7" font-family="Helvetica,sans-Serif" font-size="10.00">ARDOUR::UnknownProcessor</text>
</a>
</g>
</g>
<!-- Node4&#45;&gt;Node28 -->
<g id="edge27_Node000004_Node000028" class="edge">
<title>Node4&#45;&gt;Node28</title>
<g id="a_edge27_Node000004_Node000028"><a xlink:title=" ">
<path fill="none" stroke="#63b8ff" d="M425.91,-254.27C427.73,-252.82 429.44,-251.24 431,-249.5 497.83,-175.17 398.59,-100.38 467,-27.5 470.08,-24.22 473.63,-21.48 477.47,-19.19"/>
<polygon fill="#63b8ff" stroke="#63b8ff" points="423.86,-251.43 417.31,-259.76 427.62,-257.33 423.86,-251.43"/>
</a>
</g>
</g>
<!-- Node10 -->
<g id="Node000010" class="node">
<title>Node10</title>
<g id="a_Node000010"><a xlink:href="classARDOUR_1_1DiskReader.html" target="_top" xlink:title=" ">
<polygon fill="white" stroke="#666666" points="791.5,-463 669.5,-463 669.5,-444 791.5,-444 791.5,-463"/>
<text text-anchor="middle" x="730.5" y="-451" font-family="Helvetica,sans-Serif" font-size="10.00">ARDOUR::DiskReader</text>
</a>
</g>
</g>
<!-- Node9&#45;&gt;Node10 -->
<g id="edge9_Node000009_Node000010" class="edge">
<title>Node9&#45;&gt;Node10</title>
<g id="a_edge9_Node000009_Node000010"><a xlink:title=" ">
<path fill="none" stroke="#63b8ff" d="M617.32,-392.72C620.67,-394.15 623.91,-395.74 627,-397.5 647.21,-409.02 643.03,-423.57 663,-435.5 668.75,-438.93 675.17,-441.73 681.68,-444"/>
<polygon fill="#63b8ff" stroke="#63b8ff" points="618.27,-389.34 607.68,-389.08 615.8,-395.89 618.27,-389.34"/>
</a>
</g>
</g>
<!-- Node11 -->
<g id="Node000011" class="node">
<title>Node11</title>
<g id="a_Node000011"><a xlink:href="classARDOUR_1_1DiskWriter.html" target="_top" xlink:title=" ">
<polygon fill="white" stroke="#666666" points="789,-426 672,-426 672,-407 789,-407 789,-426"/>
<text text-anchor="middle" x="730.5" y="-414" font-family="Helvetica,sans-Serif" font-size="10.00">ARDOUR::DiskWriter</text>
</a>
</g>
</g>
<!-- Node9&#45;&gt;Node11 -->
<g id="edge10_Node000009_Node000011" class="edge">
<title>Node9&#45;&gt;Node11</title>
<g id="a_edge10_Node000009_Node000011"><a xlink:title=" ">
<path fill="none" stroke="#63b8ff" d="M604.82,-391.08C629.83,-396.18 658.85,-402.1 682.6,-406.94"/>
<polygon fill="#63b8ff" stroke="#63b8ff" points="605.24,-387.6 594.74,-389.03 603.84,-394.46 605.24,-387.6"/>
</a>
</g>
</g>
<!-- Node13 -->
<g id="Node000013" class="node">
<title>Node13</title>
<g id="a_Node000013"><a xlink:href="classARDOUR_1_1Delivery.html" target="_top" xlink:title=" ">
<polygon fill="white" stroke="#666666" points="784,-389 677,-389 677,-370 784,-370 784,-389"/>
<text text-anchor="middle" x="730.5" y="-377" font-family="Helvetica,sans-Serif" font-size="10.00">ARDOUR::Delivery</text>
</a>
</g>
</g>
<!-- Node12&#45;&gt;Node13 -->
<g id="edge12_Node000012_Node000013" class="edge">
<title>Node12&#45;&gt;Node13</title>
<g id="a_edge12_Node000012_Node000013"><a xlink:title=" ">
<path fill="none" stroke="#63b8ff" d="M604.82,-354.08C629.83,-359.18 658.85,-365.1 682.6,-369.94"/>
<polygon fill="#63b8ff" stroke="#63b8ff" points="605.24,-350.6 594.74,-352.03 603.84,-357.46 605.24,-350.6"/>
</a>
</g>
</g>
<!-- Node16 -->
<g id="Node000016" class="node">
<title>Node16</title>
<g id="a_Node000016"><a xlink:href="classARDOUR_1_1PortInsert.html" target="_top" xlink:title=" ">
<polygon fill="white" stroke="#666666" points="787,-352 674,-352 674,-333 787,-333 787,-352"/>
<text text-anchor="middle" x="730.5" y="-340" font-family="Helvetica,sans-Serif" font-size="10.00">ARDOUR::PortInsert</text>
</a>
</g>
</g>
<!-- Node12&#45;&gt;Node16 -->
<g id="edge15_Node000012_Node000016" class="edge">
<title>Node12&#45;&gt;Node16</title>
<g id="a_edge15_Node000012_Node000016"><a xlink:title=" ">
<path fill="none" stroke="#63b8ff" d="M618.7,-342.5C636.97,-342.5 656.38,-342.5 673.77,-342.5"/>
<polygon fill="#63b8ff" stroke="#63b8ff" points="618.69,-339 608.69,-342.5 618.69,-346 618.69,-339"/>
</a>
</g>
</g>
<!-- Node17 -->
<g id="Node000017" class="node">
<title>Node17</title>
<g id="a_Node000017"><a xlink:href="classARDOUR_1_1Return.html" target="_top" xlink:title=" ">
<polygon fill="white" stroke="#666666" points="779.5,-315 681.5,-315 681.5,-296 779.5,-296 779.5,-315"/>
<text text-anchor="middle" x="730.5" y="-303" font-family="Helvetica,sans-Serif" font-size="10.00">ARDOUR::Return</text>
</a>
</g>
</g>
<!-- Node12&#45;&gt;Node17 -->
<g id="edge16_Node000012_Node000017" class="edge">
<title>Node12&#45;&gt;Node17</title>
<g id="a_edge16_Node000012_Node000017"><a xlink:title=" ">
<path fill="none" stroke="#63b8ff" d="M604.82,-330.92C629.83,-325.82 658.85,-319.9 682.6,-315.06"/>
<polygon fill="#63b8ff" stroke="#63b8ff" points="603.84,-327.54 594.74,-332.97 605.24,-334.4 603.84,-327.54"/>
</a>
</g>
</g>
<!-- Node18 -->
<g id="Node000018" class="node">
<title>Node18</title>
<g id="a_Node000018"><a xlink:href="classARDOUR_1_1SideChain.html" target="_top" xlink:title=" ">
<polygon fill="white" stroke="#666666" points="787.5,-278 673.5,-278 673.5,-259 787.5,-259 787.5,-278"/>
<text text-anchor="middle" x="730.5" y="-266" font-family="Helvetica,sans-Serif" font-size="10.00">ARDOUR::SideChain</text>
</a>
</g>
</g>
<!-- Node12&#45;&gt;Node18 -->
<g id="edge17_Node000012_Node000018" class="edge">
<title>Node12&#45;&gt;Node18</title>
<g id="a_edge17_Node000012_Node000018"><a xlink:title=" ">
<path fill="none" stroke="#63b8ff" d="M614.44,-329.51C618.8,-327.75 623.03,-325.76 627,-323.5 646.94,-312.15 643.22,-298.13 663,-286.5 668.77,-283.1 675.2,-280.33 681.73,-278.07"/>
<polygon fill="#63b8ff" stroke="#63b8ff" points="612.97,-326.32 604.74,-332.99 615.34,-332.91 612.97,-326.32"/>
</a>
</g>
</g>
<!-- Node14 -->
<g id="Node000014" class="node">
<title>Node14</title>
<g id="a_Node000014"><a xlink:href="classARDOUR_1_1Send.html" target="_top" xlink:title=" ">
<polygon fill="white" stroke="#666666" points="923,-389 834,-389 834,-370 923,-370 923,-389"/>
<text text-anchor="middle" x="878.5" y="-377" font-family="Helvetica,sans-Serif" font-size="10.00">ARDOUR::Send</text>
</a>
</g>
</g>
<!-- Node13&#45;&gt;Node14 -->
<g id="edge13_Node000013_Node000014" class="edge">
<title>Node13&#45;&gt;Node14</title>
<g id="a_edge13_Node000013_Node000014"><a xlink:title=" ">
<path fill="none" stroke="#63b8ff" d="M794.32,-379.5C807.69,-379.5 821.53,-379.5 833.99,-379.5"/>
<polygon fill="#63b8ff" stroke="#63b8ff" points="794.21,-376 784.21,-379.5 794.21,-383 794.21,-376"/>
</a>
</g>
</g>
<!-- Node15 -->
<g id="Node000015" class="node">
<title>Node15</title>
<g id="a_Node000015"><a xlink:href="classARDOUR_1_1InternalSend.html" target="_top" xlink:title=" ">
<polygon fill="white" stroke="#666666" points="1086,-389 959,-389 959,-370 1086,-370 1086,-389"/>
<text text-anchor="middle" x="1022.5" y="-377" font-family="Helvetica,sans-Serif" font-size="10.00">ARDOUR::InternalSend</text>
</a>
</g>
</g>
<!-- Node14&#45;&gt;Node15 -->
<g id="edge14_Node000014_Node000015" class="edge">
<title>Node14&#45;&gt;Node15</title>
<g id="a_edge14_Node000014_Node000015"><a xlink:title=" ">
<path fill="none" stroke="#63b8ff" d="M933.53,-379.5C941.8,-379.5 950.39,-379.5 958.83,-379.5"/>
<polygon fill="#63b8ff" stroke="#63b8ff" points="933.26,-376 923.26,-379.5 933.26,-383 933.26,-376"/>
</a>
</g>
</g>
<!-- Node20 -->
<g id="Node000020" class="node">
<title>Node20</title>
<g id="a_Node000020"><a xlink:href="classARDOUR_1_1MonitorReturn.html" target="_top" xlink:title=" ">
<polygon fill="white" stroke="#666666" points="798,-241 663,-241 663,-222 798,-222 798,-241"/>
<text text-anchor="middle" x="730.5" y="-229" font-family="Helvetica,sans-Serif" font-size="10.00">ARDOUR::MonitorReturn</text>
</a>
</g>
</g>
<!-- Node19&#45;&gt;Node20 -->
<g id="edge19_Node000019_Node000020" class="edge">
<title>Node19&#45;&gt;Node20</title>
<g id="a_edge19_Node000019_Node000020"><a xlink:title=" ">
<path fill="none" stroke="#63b8ff" d="M614.44,-292.51C618.8,-290.75 623.03,-288.76 627,-286.5 646.94,-275.15 643.22,-261.13 663,-249.5 668.77,-246.1 675.2,-243.33 681.73,-241.07"/>
<polygon fill="#63b8ff" stroke="#63b8ff" points="612.97,-289.32 604.74,-295.99 615.34,-295.91 612.97,-289.32"/>
</a>
</g>
</g>
</g>
</svg>

<g id="navigator" transform="translate(0 0)" fill="#404254">
  <rect fill="#f2f5e9" fill-opacity="0.5" stroke="#606060" stroke-width=".5" x="0" y="0" width="60" height="60"/>
  <use id="zoomplus" xlink:href="#zoomPlus" x="17" y="9" onmousedown="handleZoom(evt,'in')"/>
  <use id="zoomminus" xlink:href="#zoomMin" x="42" y="9" onmousedown="handleZoom(evt,'out')"/>
  <use id="reset" xlink:href="#resetDef" x="30" y="36" onmousedown="handleReset()"/>
   <use id="arrowup" xlink:href="#arrowUp" x="0" y="0" onmousedown="handlePan(0,-1)"/>
  <use id="arrowright" xlink:href="#arrowRight" x="0" y="0" onmousedown="handlePan(1,0)"/>
  <use id="arrowdown" xlink:href="#arrowDown" x="0" y="0" onmousedown="handlePan(0,1)"/>
  <use id="arrowleft" xlink:href="#arrowLeft" x="0" y="0" onmousedown="handlePan(-1,0)"/>
</g>
<svg viewBox="0 0 15 15" width="100%" height="30px" preserveAspectRatio="xMaxYMin meet">
 <g id="arrow_out" transform="scale(0.3 0.3)">
  <a xlink:href="classARDOUR_1_1Latent__inherit__graph_org.svg" target="_base">
   <rect id="button" ry="5" rx="5" y="6" x="6" height="38" width="38"
        fill="#f2f5e9" fill-opacity="0.5" stroke="#606060" stroke-width="1.0"/>
   <path id="arrow"
     d="M 11.500037,31.436501 C 11.940474,20.09759 22.043105,11.32322 32.158766,21.979434 L 37.068811,17.246167 C 37.068811,17.246167 37.088388,32 37.088388,32 L 22.160133,31.978069 C 22.160133,31.978069 26.997745,27.140456 26.997745,27.140456 C 18.528582,18.264221 13.291696,25.230495 11.500037,31.436501 z"
     style="fill:#404040;"/>
  </a>
 </g>
</svg>

<style type='text/css'>
<![CDATA[
[data-mouse-over-selected='false'] { opacity: 0.7; }
[data-mouse-over-selected='true']  { opacity: 1.0; }
]]>
</style>
<script type="application/ecmascript"><![CDATA[
document.addEventListener('DOMContentLoaded', (event) => {
  highlightEdges();
  highlightAdjacentNodes();
});
]]></script>
</svg>
