<?xml version="1.0" encoding="UTF-8" standalone="no"?>
<!DOCTYPE svg PUBLIC "-//W3C//DTD SVG 1.1//EN"
 "http://www.w3.org/Graphics/SVG/1.1/DTD/svg11.dtd">
<!-- Generated by graphviz version 2.43.0 (0)
 -->
<!-- Title: ARDOUR::MidiControlUI Pages: 1 -->
<svg width="208pt" height="192pt"
 viewBox="0.00 0.00 207.50 192.00" xmlns="http://www.w3.org/2000/svg" xmlns:xlink="http://www.w3.org/1999/xlink">

<svg id="main" version="1.1" xmlns="http://www.w3.org/2000/svg" xmlns:xlink="http://www.w3.org/1999/xlink" xml:space="preserve" onload="init(evt)">
<style type="text/css"><![CDATA[
.node, .edge {opacity: 0.7;}
.node.selected, .edge.selected {opacity: 1;}
.edge:hover path { stroke: red; }
.edge:hover polygon { stroke: red; fill: red; }
]]></style>
<script type="application/ecmascript" xlink:href="svg.min.js"/>
<svg id="graph" class="graph">
<g id="graph0" class="graph" transform="scale(1 1) rotate(0) translate(4 188)">
<title>ARDOUR::MidiControlUI</title>
<!-- Node1 -->
<g id="Node000001" class="node">
<title>Node1</title>
<g id="a_Node000001"><a xlink:title=" ">
<polygon fill="#999999" stroke="#666666" points="163.5,-19 31.5,-19 31.5,0 163.5,0 163.5,-19"/>
<text text-anchor="middle" x="97.5" y="-7" font-family="Helvetica,sans-Serif" font-size="10.00">ARDOUR::MidiControlUI</text>
</a>
</g>
</g>
<!-- Node2 -->
<g id="Node000002" class="node">
<title>Node2</title>
<g id="a_Node000002"><a xlink:href="classAbstractUI.html" target="_top" xlink:title=" ">
<polygon fill="white" stroke="#666666" points="178,-74 17,-74 17,-55 178,-55 178,-74"/>
<text text-anchor="middle" x="97.5" y="-62" font-family="Helvetica,sans-Serif" font-size="10.00">AbstractUI&lt; MidiUIRequest &gt;</text>
</a>
</g>
</g>
<!-- Node2&#45;&gt;Node1 -->
<g id="edge1_Node000001_Node000002" class="edge">
<title>Node2&#45;&gt;Node1</title>
<g id="a_edge1_Node000001_Node000002"><a xlink:title=" ">
<path fill="none" stroke="#63b8ff" d="M97.5,-44.66C97.5,-35.93 97.5,-25.99 97.5,-19.09"/>
<polygon fill="#63b8ff" stroke="#63b8ff" points="94,-44.75 97.5,-54.75 101,-44.75 94,-44.75"/>
</a>
</g>
</g>
<!-- Node3 -->
<g id="Node000003" class="node">
<title>Node3</title>
<g id="a_Node000003"><a xlink:href="classBaseUI.html" target="_top" xlink:title=" ">
<polygon fill="white" stroke="#666666" points="123,-129 72,-129 72,-110 123,-110 123,-129"/>
<text text-anchor="middle" x="97.5" y="-117" font-family="Helvetica,sans-Serif" font-size="10.00">BaseUI</text>
</a>
</g>
</g>
<!-- Node3&#45;&gt;Node2 -->
<g id="edge2_Node000002_Node000003" class="edge">
<title>Node3&#45;&gt;Node2</title>
<g id="a_edge2_Node000002_Node000003"><a xlink:title=" ">
<path fill="none" stroke="#63b8ff" d="M97.5,-99.66C97.5,-90.93 97.5,-80.99 97.5,-74.09"/>
<polygon fill="#63b8ff" stroke="#63b8ff" points="94,-99.75 97.5,-109.75 101,-99.75 94,-99.75"/>
</a>
</g>
</g>
<!-- Node4 -->
<g id="Node000004" class="node">
<title>Node4</title>
<g id="a_Node000004"><a xlink:title=" ">
<polygon fill="white" stroke="#666666" points="87,-184 0,-184 0,-165 87,-165 87,-184"/>
<text text-anchor="middle" x="43.5" y="-172" font-family="Helvetica,sans-Serif" font-size="10.00">sigc::trackable</text>
</a>
</g>
</g>
<!-- Node4&#45;&gt;Node3 -->
<g id="edge3_Node000003_Node000004" class="edge">
<title>Node4&#45;&gt;Node3</title>
<g id="a_edge3_Node000003_Node000004"><a xlink:title=" ">
<path fill="none" stroke="#63b8ff" d="M59.78,-157.52C69.3,-148.18 80.94,-136.75 88.75,-129.09"/>
<polygon fill="#63b8ff" stroke="#63b8ff" points="57.1,-155.25 52.42,-164.75 62.01,-160.24 57.1,-155.25"/>
</a>
</g>
</g>
<!-- Node5 -->
<g id="Node000005" class="node">
<title>Node5</title>
<g id="a_Node000005"><a xlink:href="classPBD_1_1EventLoop.html" target="_top" xlink:title=" ">
<polygon fill="white" stroke="#666666" points="199.5,-184 105.5,-184 105.5,-165 199.5,-165 199.5,-184"/>
<text text-anchor="middle" x="152.5" y="-172" font-family="Helvetica,sans-Serif" font-size="10.00">PBD::EventLoop</text>
</a>
</g>
</g>
<!-- Node5&#45;&gt;Node3 -->
<g id="edge4_Node000003_Node000005" class="edge">
<title>Node5&#45;&gt;Node3</title>
<g id="a_edge4_Node000003_Node000005"><a xlink:title=" ">
<path fill="none" stroke="#63b8ff" d="M136.21,-157.8C126.46,-148.41 114.45,-136.83 106.41,-129.09"/>
<polygon fill="#63b8ff" stroke="#63b8ff" points="133.79,-160.33 143.42,-164.75 138.65,-155.29 133.79,-160.33"/>
</a>
</g>
</g>
</g>
</svg>
</svg>

<style type='text/css'>
<![CDATA[
[data-mouse-over-selected='false'] { opacity: 0.7; }
[data-mouse-over-selected='true']  { opacity: 1.0; }
]]>
</style>
<script type="application/ecmascript"><![CDATA[
document.addEventListener('DOMContentLoaded', (event) => {
  highlightEdges();
  highlightAdjacentNodes();
});
]]></script>
</svg>
