<?xml version="1.0" encoding="UTF-8" standalone="no"?>
<!DOCTYPE svg PUBLIC "-//W3C//DTD SVG 1.1//EN"
 "http://www.w3.org/Graphics/SVG/1.1/DTD/svg11.dtd">
<!-- Generated by graphviz version 2.43.0 (0)
 -->
<!-- Title: MixerStrip Pages: 1 -->
<svg width="833pt" height="155pt"
 viewBox="0.00 0.00 833.00 155.18" xmlns="http://www.w3.org/2000/svg" xmlns:xlink="http://www.w3.org/1999/xlink">
<g id="graph0" class="graph" transform="scale(1 1) rotate(0) translate(4 151.18)">
<title>MixerStrip</title>
<!-- Node1 -->
<g id="Node000001" class="node">
<title>Node1</title>
<g id="a_Node000001"><a xlink:title=" ">
<polygon fill="#999999" stroke="#666666" points="825,-83 759,-83 759,-64 825,-64 825,-83"/>
<text text-anchor="middle" x="792" y="-71" font-family="Helvetica,sans-Serif" font-size="10.00">MixerStrip</text>
</a>
</g>
</g>
<!-- Node2 -->
<g id="Node000002" class="node">
<title>Node2</title>
<g id="a_Node000002"><a xlink:href="classAxisView.html" target="_top" xlink:title=" ">
<polygon fill="white" stroke="#666666" points="711,-83 649,-83 649,-64 711,-64 711,-83"/>
<text text-anchor="middle" x="680" y="-71" font-family="Helvetica,sans-Serif" font-size="10.00">AxisView</text>
</a>
</g>
</g>
<!-- Node2&#45;&gt;Node1 -->
<g id="edge1_Node000001_Node000002" class="edge">
<title>Node2&#45;&gt;Node1</title>
<g id="a_edge1_Node000001_Node000002"><a xlink:title=" ">
<path fill="none" stroke="#63b8ff" d="M721.12,-73.5C733.47,-73.5 746.91,-73.5 758.67,-73.5"/>
<polygon fill="#63b8ff" stroke="#63b8ff" points="721.06,-70 711.06,-73.5 721.06,-77 721.06,-70"/>
</a>
</g>
</g>
<!-- Node3 -->
<g id="Node000003" class="node">
<title>Node3</title>
<g id="a_Node000003"><a xlink:href="classPBD_1_1ScopedConnectionList.html" target="_top" xlink:title=" ">
<polygon fill="white" stroke="#666666" points="600.5,-56 450.5,-56 450.5,-37 600.5,-37 600.5,-56"/>
<text text-anchor="middle" x="525.5" y="-44" font-family="Helvetica,sans-Serif" font-size="10.00">PBD::ScopedConnectionList</text>
</a>
</g>
</g>
<!-- Node3&#45;&gt;Node2 -->
<g id="edge2_Node000002_Node000003" class="edge">
<title>Node3&#45;&gt;Node2</title>
<g id="a_edge2_Node000002_Node000003"><a xlink:title=" ">
<path fill="none" stroke="#63b8ff" d="M590.39,-57.81C610.62,-61.39 632.05,-65.19 648.76,-68.15"/>
<polygon fill="#63b8ff" stroke="#63b8ff" points="590.72,-54.32 580.27,-56.02 589.5,-61.21 590.72,-54.32"/>
</a>
</g>
</g>
<!-- Node7 -->
<g id="Node000007" class="node">
<title>Node7</title>
<g id="a_Node000007"><a xlink:href="classRouteUI.html" target="_top" xlink:title=" ">
<polygon fill="white" stroke="#666666" points="708,-120 652,-120 652,-101 708,-101 708,-120"/>
<text text-anchor="middle" x="680" y="-108" font-family="Helvetica,sans-Serif" font-size="10.00">RouteUI</text>
</a>
</g>
</g>
<!-- Node3&#45;&gt;Node7 -->
<g id="edge9_Node000007_Node000003" class="edge">
<title>Node3&#45;&gt;Node7</title>
<g id="a_edge9_Node000007_Node000003"><a xlink:title=" ">
<path fill="none" stroke="#63b8ff" d="M588.17,-59.19C592.59,-60.76 596.91,-62.53 601,-64.5 619.26,-73.3 619.54,-82.2 637,-92.5 642.19,-95.56 648,-98.39 653.61,-100.86"/>
<polygon fill="#63b8ff" stroke="#63b8ff" points="588.98,-55.77 578.39,-56.02 586.82,-62.43 588.98,-55.77"/>
</a>
</g>
</g>
<!-- Node4 -->
<g id="Node000004" class="node">
<title>Node4</title>
<g id="a_Node000004"><a xlink:href="classARDOUR_1_1SessionHandlePtr.html" target="_top" xlink:title=" ">
<polygon fill="white" stroke="#666666" points="601,-130 450,-130 450,-111 601,-111 601,-130"/>
<text text-anchor="middle" x="525.5" y="-118" font-family="Helvetica,sans-Serif" font-size="10.00">ARDOUR::SessionHandlePtr</text>
</a>
</g>
</g>
<!-- Node4&#45;&gt;Node2 -->
<g id="edge3_Node000002_Node000004" class="edge">
<title>Node4&#45;&gt;Node2</title>
<g id="a_edge3_Node000002_Node000004"><a xlink:title=" ">
<path fill="none" stroke="#63b8ff" d="M579.49,-108.52C586.76,-106.64 594.09,-104.61 601,-102.5 619.51,-96.84 640.02,-89.16 655.35,-83.13"/>
<polygon fill="#63b8ff" stroke="#63b8ff" points="578.52,-105.15 569.68,-110.99 580.23,-111.94 578.52,-105.15"/>
</a>
</g>
</g>
<!-- Node4&#45;&gt;Node7 -->
<g id="edge8_Node000007_Node000004" class="edge">
<title>Node4&#45;&gt;Node7</title>
<g id="a_edge8_Node000007_Node000004"><a xlink:title=" ">
<path fill="none" stroke="#63b8ff" d="M611.56,-114.92C626.17,-113.96 640.33,-113.04 651.88,-112.28"/>
<polygon fill="#63b8ff" stroke="#63b8ff" points="611.16,-111.44 601.41,-115.59 611.62,-118.43 611.16,-111.44"/>
</a>
</g>
</g>
<!-- Node5 -->
<g id="Node000005" class="node">
<title>Node5</title>
<g id="a_Node000005"><a xlink:href="classSelectable.html" target="_top" xlink:title=" ">
<polygon fill="white" stroke="#666666" points="559.5,-93 491.5,-93 491.5,-74 559.5,-74 559.5,-93"/>
<text text-anchor="middle" x="525.5" y="-81" font-family="Helvetica,sans-Serif" font-size="10.00">Selectable</text>
</a>
</g>
</g>
<!-- Node5&#45;&gt;Node2 -->
<g id="edge4_Node000002_Node000005" class="edge">
<title>Node5&#45;&gt;Node2</title>
<g id="a_edge4_Node000002_Node000005"><a xlink:title=" ">
<path fill="none" stroke="#63b8ff" d="M569.65,-80.67C594.92,-79.01 626.2,-76.96 648.82,-75.48"/>
<polygon fill="#63b8ff" stroke="#63b8ff" points="569.34,-77.18 559.59,-81.33 569.8,-84.17 569.34,-77.18"/>
</a>
</g>
</g>
<!-- Node5&#45;&gt;Node7 -->
<g id="edge7_Node000007_Node000005" class="edge">
<title>Node5&#45;&gt;Node7</title>
<g id="a_edge7_Node000007_Node000005"><a xlink:title=" ">
<path fill="none" stroke="#63b8ff" d="M569.68,-91.15C595.99,-95.8 628.8,-101.61 651.58,-105.65"/>
<polygon fill="#63b8ff" stroke="#63b8ff" points="570.05,-87.66 559.59,-89.36 568.83,-94.55 570.05,-87.66"/>
</a>
</g>
</g>
<!-- Node6 -->
<g id="Node000006" class="node">
<title>Node6</title>
<g id="a_Node000006"><a xlink:title=" ">
<polygon fill="white" stroke="#666666" points="414,-130 327,-130 327,-111 414,-111 414,-130"/>
<text text-anchor="middle" x="370.5" y="-118" font-family="Helvetica,sans-Serif" font-size="10.00">sigc::trackable</text>
</a>
</g>
</g>
<!-- Node6&#45;&gt;Node5 -->
<g id="edge5_Node000005_Node000006" class="edge">
<title>Node6&#45;&gt;Node5</title>
<g id="a_edge5_Node000005_Node000006"><a xlink:title=" ">
<path fill="none" stroke="#63b8ff" d="M420.87,-108.56C443.96,-102.98 470.84,-96.48 491.44,-91.49"/>
<polygon fill="#63b8ff" stroke="#63b8ff" points="419.8,-105.22 410.9,-110.97 421.44,-112.02 419.8,-105.22"/>
</a>
</g>
</g>
<!-- Node6&#45;&gt;Node7 -->
<g id="edge10_Node000007_Node000006" class="edge">
<title>Node6&#45;&gt;Node7</title>
<g id="a_edge10_Node000007_Node000006"><a xlink:title=" ">
<path fill="none" stroke="#63b8ff" d="M413.28,-132.56C425.05,-135.42 437.94,-138.06 450,-139.5 516.64,-147.45 534.95,-151.38 601,-139.5 621.62,-135.79 643.9,-126.98 659.35,-120.04"/>
<polygon fill="#63b8ff" stroke="#63b8ff" points="413.82,-129.08 403.27,-130.01 412.1,-135.87 413.82,-129.08"/>
</a>
</g>
</g>
<!-- Node7&#45;&gt;Node1 -->
<g id="edge6_Node000001_Node000007" class="edge">
<title>Node7&#45;&gt;Node1</title>
<g id="a_edge6_Node000001_Node000007"><a xlink:title=" ">
<path fill="none" stroke="#63b8ff" d="M717.92,-98.08C732.49,-93.18 748.97,-87.64 762.59,-83.06"/>
<polygon fill="#63b8ff" stroke="#63b8ff" points="716.55,-94.85 708.19,-101.35 718.79,-101.48 716.55,-94.85"/>
</a>
</g>
</g>
<!-- Node8 -->
<g id="Node000008" class="node">
<title>Node8</title>
<g id="a_Node000008"><a xlink:href="classGtk_1_1EventBox.html" target="_top" xlink:title=" ">
<polygon fill="white" stroke="#666666" points="723,-37 637,-37 637,-18 723,-18 723,-37"/>
<text text-anchor="middle" x="680" y="-25" font-family="Helvetica,sans-Serif" font-size="10.00">Gtk::EventBox</text>
</a>
</g>
</g>
<!-- Node8&#45;&gt;Node1 -->
<g id="edge11_Node000001_Node000008" class="edge">
<title>Node8&#45;&gt;Node1</title>
<g id="a_edge11_Node000001_Node000008"><a xlink:title=" ">
<path fill="none" stroke="#63b8ff" d="M713.15,-40.95C730.82,-48.33 752.32,-57.32 768.24,-63.98"/>
<polygon fill="#63b8ff" stroke="#63b8ff" points="714.37,-37.66 703.79,-37.03 711.67,-44.12 714.37,-37.66"/>
</a>
</g>
</g>
<!-- Node9 -->
<g id="Node000009" class="node">
<title>Node9</title>
<g id="a_Node000009"><a xlink:href="classGtk_1_1Bin.html" target="_top" xlink:title=" ">
<polygon fill="white" stroke="#666666" points="553.5,-19 497.5,-19 497.5,0 553.5,0 553.5,-19"/>
<text text-anchor="middle" x="525.5" y="-7" font-family="Helvetica,sans-Serif" font-size="10.00">Gtk::Bin</text>
</a>
</g>
</g>
<!-- Node9&#45;&gt;Node8 -->
<g id="edge12_Node000008_Node000009" class="edge">
<title>Node9&#45;&gt;Node8</title>
<g id="a_edge12_Node000008_Node000009"><a xlink:title=" ">
<path fill="none" stroke="#63b8ff" d="M563.75,-13.9C585.81,-16.5 613.83,-19.81 636.72,-22.51"/>
<polygon fill="#63b8ff" stroke="#63b8ff" points="564.11,-10.41 553.76,-12.72 563.28,-17.37 564.11,-10.41"/>
</a>
</g>
</g>
<!-- Node10 -->
<g id="Node000010" class="node">
<title>Node10</title>
<g id="a_Node000010"><a xlink:href="classGtk_1_1Container.html" target="_top" xlink:title=" ">
<polygon fill="white" stroke="#666666" points="414,-19 327,-19 327,0 414,0 414,-19"/>
<text text-anchor="middle" x="370.5" y="-7" font-family="Helvetica,sans-Serif" font-size="10.00">Gtk::Container</text>
</a>
</g>
</g>
<!-- Node10&#45;&gt;Node9 -->
<g id="edge13_Node000009_Node000010" class="edge">
<title>Node10&#45;&gt;Node9</title>
<g id="a_edge13_Node000009_Node000010"><a xlink:title=" ">
<path fill="none" stroke="#63b8ff" d="M424.35,-9.5C448.82,-9.5 476.86,-9.5 497.04,-9.5"/>
<polygon fill="#63b8ff" stroke="#63b8ff" points="424.12,-6 414.12,-9.5 424.12,-13 424.12,-6"/>
</a>
</g>
</g>
<!-- Node11 -->
<g id="Node000011" class="node">
<title>Node11</title>
<g id="a_Node000011"><a xlink:href="classGtk_1_1Widget.html" target="_top" xlink:title=" ">
<polygon fill="white" stroke="#666666" points="291,-19 217,-19 217,0 291,0 291,-19"/>
<text text-anchor="middle" x="254" y="-7" font-family="Helvetica,sans-Serif" font-size="10.00">Gtk::Widget</text>
</a>
</g>
</g>
<!-- Node11&#45;&gt;Node10 -->
<g id="edge14_Node000010_Node000011" class="edge">
<title>Node11&#45;&gt;Node10</title>
<g id="a_edge14_Node000010_Node000011"><a xlink:title=" ">
<path fill="none" stroke="#63b8ff" d="M301.27,-9.5C309.67,-9.5 318.4,-9.5 326.7,-9.5"/>
<polygon fill="#63b8ff" stroke="#63b8ff" points="301.23,-6 291.23,-9.5 301.23,-13 301.23,-6"/>
</a>
</g>
</g>
<!-- Node12 -->
<g id="Node000012" class="node">
<title>Node12</title>
<g id="a_Node000012"><a xlink:href="classGtk_1_1Object.html" target="_top" xlink:title=" ">
<polygon fill="white" stroke="#666666" points="181,-19 110,-19 110,0 181,0 181,-19"/>
<text text-anchor="middle" x="145.5" y="-7" font-family="Helvetica,sans-Serif" font-size="10.00">Gtk::Object</text>
</a>
</g>
</g>
<!-- Node12&#45;&gt;Node11 -->
<g id="edge15_Node000011_Node000012" class="edge">
<title>Node12&#45;&gt;Node11</title>
<g id="a_edge15_Node000011_Node000012"><a xlink:title=" ">
<path fill="none" stroke="#63b8ff" d="M191.25,-9.5C199.76,-9.5 208.56,-9.5 216.77,-9.5"/>
<polygon fill="#63b8ff" stroke="#63b8ff" points="191.08,-6 181.08,-9.5 191.08,-13 191.08,-6"/>
</a>
</g>
</g>
<!-- Node13 -->
<g id="Node000013" class="node">
<title>Node13</title>
<g id="a_Node000013"><a xlink:title=" ">
<polygon fill="white" stroke="#666666" points="74,-19 0,-19 0,0 74,0 74,-19"/>
<text text-anchor="middle" x="37" y="-7" font-family="Helvetica,sans-Serif" font-size="10.00">Glib::Object</text>
</a>
</g>
</g>
<!-- Node13&#45;&gt;Node12 -->
<g id="edge16_Node000012_Node000013" class="edge">
<title>Node13&#45;&gt;Node12</title>
<g id="a_edge16_Node000012_Node000013"><a xlink:title=" ">
<path fill="none" stroke="#63b8ff" d="M84.06,-9.5C92.74,-9.5 101.67,-9.5 109.92,-9.5"/>
<polygon fill="#63b8ff" stroke="#63b8ff" points="84.06,-6 74.06,-9.5 84.06,-13 84.06,-6"/>
</a>
</g>
</g>
</g>
</svg>
