<?xml version="1.0" encoding="UTF-8" standalone="no"?>
<!DOCTYPE svg PUBLIC "-//W3C//DTD SVG 1.1//EN"
 "http://www.w3.org/Graphics/SVG/1.1/DTD/svg11.dtd">
<!-- Generated by graphviz version 2.43.0 (0)
 -->
<!-- Title: Gtk::HBox Pages: 1 -->
<svg width="1022pt" height="987pt"
 viewBox="0.00 0.00 1022.00 987.00" xmlns="http://www.w3.org/2000/svg" xmlns:xlink="http://www.w3.org/1999/xlink">
<g id="graph0" class="graph" transform="scale(1 1) rotate(0) translate(4 983)">
<title>Gtk::HBox</title>
<!-- Node1 -->
<g id="Node000001" class="node">
<title>Node1</title>
<g id="a_Node000001"><a xlink:title=" ">
<polygon fill="#999999" stroke="#666666" points="611,-493 545,-493 545,-474 611,-474 611,-493"/>
<text text-anchor="middle" x="578" y="-481" font-family="Helvetica,sans-Serif" font-size="10.00">Gtk::HBox</text>
</a>
</g>
</g>
<!-- Node7 -->
<g id="Node000007" class="node">
<title>Node7</title>
<g id="a_Node000007"><a xlink:href="classApplicationBar.html" target="_top" xlink:title=" ">
<polygon fill="white" stroke="#666666" points="776,-979 688,-979 688,-960 776,-960 776,-979"/>
<text text-anchor="middle" x="732" y="-967" font-family="Helvetica,sans-Serif" font-size="10.00">ApplicationBar</text>
</a>
</g>
</g>
<!-- Node1&#45;&gt;Node7 -->
<g id="edge6_Node000001_Node000007" class="edge">
<title>Node1&#45;&gt;Node7</title>
<g id="a_edge6_Node000001_Node000007"><a xlink:title=" ">
<path fill="none" stroke="#63b8ff" d="M579.02,-503.44C579.51,-583.95 585.49,-884 647,-950.5 657.36,-961.7 672.79,-966.99 687.62,-969.3"/>
<polygon fill="#63b8ff" stroke="#63b8ff" points="582.52,-503.19 578.98,-493.2 575.52,-503.22 582.52,-503.19"/>
</a>
</g>
</g>
<!-- Node8 -->
<g id="Node000008" class="node">
<title>Node8</title>
<g id="a_Node000008"><a xlink:href="classArdourSurface_1_1ButtonConfigWidget.html" target="_top" xlink:title=" ">
<polygon fill="white" stroke="#666666" points="809.5,-941.5 654.5,-941.5 654.5,-911.5 809.5,-911.5 809.5,-941.5"/>
<text text-anchor="start" x="662.5" y="-929.5" font-family="Helvetica,sans-Serif" font-size="10.00">ArdourSurface::ButtonConfig</text>
<text text-anchor="middle" x="732" y="-918.5" font-family="Helvetica,sans-Serif" font-size="10.00">Widget</text>
</a>
</g>
</g>
<!-- Node1&#45;&gt;Node8 -->
<g id="edge7_Node000001_Node000008" class="edge">
<title>Node1&#45;&gt;Node8</title>
<g id="a_edge7_Node000001_Node000008"><a xlink:title=" ">
<path fill="none" stroke="#63b8ff" d="M579.5,-503.66C581.76,-578.92 593.44,-842.25 647,-902.5 650.02,-905.9 653.49,-908.83 657.26,-911.36"/>
<polygon fill="#63b8ff" stroke="#63b8ff" points="582.98,-503.15 579.21,-493.25 575.99,-503.35 582.98,-503.15"/>
</a>
</g>
</g>
<!-- Node9 -->
<g id="Node000009" class="node">
<title>Node9</title>
<g id="a_Node000009"><a xlink:href="classArdourSurface_1_1JumpDistanceWidget.html" target="_top" xlink:title=" ">
<polygon fill="white" stroke="#666666" points="811.5,-893.5 652.5,-893.5 652.5,-863.5 811.5,-863.5 811.5,-893.5"/>
<text text-anchor="start" x="660.5" y="-881.5" font-family="Helvetica,sans-Serif" font-size="10.00">ArdourSurface::JumpDistance</text>
<text text-anchor="middle" x="732" y="-870.5" font-family="Helvetica,sans-Serif" font-size="10.00">Widget</text>
</a>
</g>
</g>
<!-- Node1&#45;&gt;Node9 -->
<g id="edge8_Node000001_Node000009" class="edge">
<title>Node1&#45;&gt;Node9</title>
<g id="a_edge8_Node000001_Node000009"><a xlink:title=" ">
<path fill="none" stroke="#63b8ff" d="M579.98,-503.47C583.79,-572.69 599.77,-800.9 647,-853.5 650.46,-857.35 654.48,-860.62 658.85,-863.39"/>
<polygon fill="#63b8ff" stroke="#63b8ff" points="583.46,-502.93 579.44,-493.12 576.47,-503.29 583.46,-502.93"/>
</a>
</g>
</g>
<!-- Node10 -->
<g id="Node000010" class="node">
<title>Node10</title>
<g id="a_Node000010"><a xlink:href="classArdourWidgets_1_1TearOff.html" target="_top" xlink:title=" ">
<polygon fill="white" stroke="#666666" points="796.5,-845 667.5,-845 667.5,-826 796.5,-826 796.5,-845"/>
<text text-anchor="middle" x="732" y="-833" font-family="Helvetica,sans-Serif" font-size="10.00">ArdourWidgets::TearOff</text>
</a>
</g>
</g>
<!-- Node1&#45;&gt;Node10 -->
<g id="edge9_Node000001_Node000010" class="edge">
<title>Node1&#45;&gt;Node10</title>
<g id="a_edge9_Node000001_Node000010"><a xlink:title=" ">
<path fill="none" stroke="#63b8ff" d="M580.28,-503.25C584.89,-567.84 602.7,-771.26 647,-816.5 652.65,-822.27 659.65,-826.45 667.19,-829.45"/>
<polygon fill="#63b8ff" stroke="#63b8ff" points="583.77,-502.92 579.59,-493.18 576.79,-503.4 583.77,-502.92"/>
</a>
</g>
</g>
<!-- Node11 -->
<g id="Node000011" class="node">
<title>Node11</title>
<g id="a_Node000011"><a xlink:href="classCairoHPacker.html" target="_top" xlink:title=" ">
<polygon fill="white" stroke="#666666" points="772.5,-808 691.5,-808 691.5,-789 772.5,-789 772.5,-808"/>
<text text-anchor="middle" x="732" y="-796" font-family="Helvetica,sans-Serif" font-size="10.00">CairoHPacker</text>
</a>
</g>
</g>
<!-- Node1&#45;&gt;Node11 -->
<g id="edge10_Node000001_Node000011" class="edge">
<title>Node1&#45;&gt;Node11</title>
<g id="a_edge10_Node000001_Node000011"><a xlink:title=" ">
<path fill="none" stroke="#63b8ff" d="M580.8,-502.96C586.7,-562.41 607.35,-739.99 647,-779.5 658.54,-791 675.49,-796.16 691.14,-798.28"/>
<polygon fill="#63b8ff" stroke="#63b8ff" points="584.29,-502.63 579.84,-493.01 577.32,-503.3 584.29,-502.63"/>
</a>
</g>
</g>
<!-- Node13 -->
<g id="Node000013" class="node">
<title>Node13</title>
<g id="a_Node000013"><a xlink:href="classControlSlaveUI.html" target="_top" xlink:title=" ">
<polygon fill="white" stroke="#666666" points="776.5,-771 687.5,-771 687.5,-752 776.5,-752 776.5,-771"/>
<text text-anchor="middle" x="732" y="-759" font-family="Helvetica,sans-Serif" font-size="10.00">ControlSlaveUI</text>
</a>
</g>
</g>
<!-- Node1&#45;&gt;Node13 -->
<g id="edge12_Node000001_Node000013" class="edge">
<title>Node1&#45;&gt;Node13</title>
<g id="a_edge12_Node000001_Node000013"><a xlink:title=" ">
<path fill="none" stroke="#63b8ff" d="M581.54,-503.34C588.92,-557.97 612.12,-708.8 647,-742.5 657.75,-752.89 672.92,-758.06 687.42,-760.51"/>
<polygon fill="#63b8ff" stroke="#63b8ff" points="584.98,-502.67 580.2,-493.22 578.04,-503.59 584.98,-502.67"/>
</a>
</g>
</g>
<!-- Node14 -->
<g id="Node000014" class="node">
<title>Node14</title>
<g id="a_Node000014"><a xlink:href="classExportChannelSelector.html" target="_top" xlink:title=" ">
<polygon fill="white" stroke="#666666" points="796,-734 668,-734 668,-715 796,-715 796,-734"/>
<text text-anchor="middle" x="732" y="-722" font-family="Helvetica,sans-Serif" font-size="10.00">ExportChannelSelector</text>
</a>
</g>
</g>
<!-- Node1&#45;&gt;Node14 -->
<g id="edge13_Node000001_Node000014" class="edge">
<title>Node1&#45;&gt;Node14</title>
<g id="a_edge13_Node000001_Node000014"><a xlink:title=" ">
<path fill="none" stroke="#63b8ff" d="M578.86,-503.37C579.71,-546.85 588.14,-650.88 647,-705.5 652.92,-710.99 660.08,-715.01 667.69,-717.94"/>
<polygon fill="#63b8ff" stroke="#63b8ff" points="582.36,-503.22 578.79,-493.24 575.36,-503.27 582.36,-503.22"/>
</a>
</g>
</g>
<!-- Node18 -->
<g id="Node000018" class="node">
<title>Node18</title>
<g id="a_Node000018"><a xlink:href="classExportFormatSelector.html" target="_top" xlink:title=" ">
<polygon fill="white" stroke="#666666" points="793,-697 671,-697 671,-678 793,-678 793,-697"/>
<text text-anchor="middle" x="732" y="-685" font-family="Helvetica,sans-Serif" font-size="10.00">ExportFormatSelector</text>
</a>
</g>
</g>
<!-- Node1&#45;&gt;Node18 -->
<g id="edge17_Node000001_Node000018" class="edge">
<title>Node1&#45;&gt;Node18</title>
<g id="a_edge17_Node000001_Node000018"><a xlink:title=" ">
<path fill="none" stroke="#63b8ff" d="M580.31,-503.66C583.92,-541.88 597.36,-624.92 647,-668.5 653.85,-674.52 662.21,-678.75 670.97,-681.7"/>
<polygon fill="#63b8ff" stroke="#63b8ff" points="583.77,-503.02 579.48,-493.33 576.79,-503.58 583.77,-503.02"/>
</a>
</g>
</g>
<!-- Node19 -->
<g id="Node000019" class="node">
<title>Node19</title>
<g id="a_Node000019"><a xlink:href="classExportPresetSelector.html" target="_top" xlink:title=" ">
<polygon fill="white" stroke="#666666" points="791.5,-660 672.5,-660 672.5,-641 791.5,-641 791.5,-660"/>
<text text-anchor="middle" x="732" y="-648" font-family="Helvetica,sans-Serif" font-size="10.00">ExportPresetSelector</text>
</a>
</g>
</g>
<!-- Node1&#45;&gt;Node19 -->
<g id="edge18_Node000001_Node000019" class="edge">
<title>Node1&#45;&gt;Node19</title>
<g id="a_edge18_Node000001_Node000019"><a xlink:title=" ">
<path fill="none" stroke="#63b8ff" d="M582.3,-503.18C588.75,-535.22 606.13,-598.37 647,-631.5 654.32,-637.43 663.12,-641.6 672.23,-644.5"/>
<polygon fill="#63b8ff" stroke="#63b8ff" points="585.72,-502.44 580.46,-493.25 578.84,-503.72 585.72,-502.44"/>
</a>
</g>
</g>
<!-- Node20 -->
<g id="Node000020" class="node">
<title>Node20</title>
<g id="a_Node000020"><a xlink:href="structGenericPluginUI_1_1ControlUI.html" target="_top" xlink:title=" ">
<polygon fill="white" stroke="#666666" points="805,-623 659,-623 659,-604 805,-604 805,-623"/>
<text text-anchor="middle" x="732" y="-611" font-family="Helvetica,sans-Serif" font-size="10.00">GenericPluginUI::ControlUI</text>
</a>
</g>
</g>
<!-- Node1&#45;&gt;Node20 -->
<g id="edge19_Node000001_Node000020" class="edge">
<title>Node1&#45;&gt;Node20</title>
<g id="a_edge19_Node000001_Node000020"><a xlink:title=" ">
<path fill="none" stroke="#63b8ff" d="M585.32,-502.51C594.68,-527.62 614.69,-571.35 647,-594.5 652.35,-598.33 658.34,-601.41 664.59,-603.88"/>
<polygon fill="#63b8ff" stroke="#63b8ff" points="588.59,-501.26 581.95,-493.01 581.99,-503.6 588.59,-501.26"/>
</a>
</g>
</g>
<!-- Node21 -->
<g id="Node000021" class="node">
<title>Node21</title>
<g id="a_Node000021"><a xlink:href="classGtk_1_1FileChooserButton.html" target="_top" xlink:title=" ">
<polygon fill="white" stroke="#666666" points="796.5,-586 667.5,-586 667.5,-567 796.5,-567 796.5,-586"/>
<text text-anchor="middle" x="732" y="-574" font-family="Helvetica,sans-Serif" font-size="10.00">Gtk::FileChooserButton</text>
</a>
</g>
</g>
<!-- Node1&#45;&gt;Node21 -->
<g id="edge20_Node000001_Node000021" class="edge">
<title>Node1&#45;&gt;Node21</title>
<g id="a_edge20_Node000001_Node000021"><a xlink:title=" ">
<path fill="none" stroke="#63b8ff" d="M590.83,-501.73C602.89,-518.8 623.18,-543.7 647,-557.5 653.73,-561.4 661.19,-564.49 668.81,-566.96"/>
<polygon fill="#63b8ff" stroke="#63b8ff" points="593.52,-499.46 585,-493.17 587.74,-503.4 593.52,-499.46"/>
</a>
</g>
</g>
<!-- Node22 -->
<g id="Node000022" class="node">
<title>Node22</title>
<g id="a_Node000022"><a xlink:href="classGtk_1_1InfoBar.html" target="_top" xlink:title=" ">
<polygon fill="white" stroke="#666666" points="769.5,-549 694.5,-549 694.5,-530 769.5,-530 769.5,-549"/>
<text text-anchor="middle" x="732" y="-537" font-family="Helvetica,sans-Serif" font-size="10.00">Gtk::InfoBar</text>
</a>
</g>
</g>
<!-- Node1&#45;&gt;Node22 -->
<g id="edge21_Node000001_Node000022" class="edge">
<title>Node1&#45;&gt;Node22</title>
<g id="a_edge21_Node000001_Node000022"><a xlink:title=" ">
<path fill="none" stroke="#63b8ff" d="M602.43,-498.34C615.2,-505.88 631.52,-514.67 647,-520.5 662.11,-526.19 679.42,-530.47 694.39,-533.5"/>
<polygon fill="#63b8ff" stroke="#63b8ff" points="604.19,-495.31 593.82,-493.13 600.56,-501.3 604.19,-495.31"/>
</a>
</g>
</g>
<!-- Node23 -->
<g id="Node000023" class="node">
<title>Node23</title>
<g id="a_Node000023"><a xlink:href="classGtk_1_1Statusbar.html" target="_top" xlink:title=" ">
<polygon fill="white" stroke="#666666" points="775,-512 689,-512 689,-493 775,-493 775,-512"/>
<text text-anchor="middle" x="732" y="-500" font-family="Helvetica,sans-Serif" font-size="10.00">Gtk::Statusbar</text>
</a>
</g>
</g>
<!-- Node1&#45;&gt;Node23 -->
<g id="edge22_Node000001_Node000023" class="edge">
<title>Node1&#45;&gt;Node23</title>
<g id="a_edge22_Node000001_Node000023"><a xlink:title=" ">
<path fill="none" stroke="#63b8ff" d="M621.22,-488.78C642.36,-491.42 667.88,-494.61 688.99,-497.25"/>
<polygon fill="#63b8ff" stroke="#63b8ff" points="621.59,-485.3 611.24,-487.53 620.72,-492.24 621.59,-485.3"/>
</a>
</g>
</g>
<!-- Node24 -->
<g id="Node000024" class="node">
<title>Node24</title>
<g id="a_Node000024"><a xlink:href="classLevelMeterHBox.html" target="_top" xlink:title=" ">
<polygon fill="white" stroke="#666666" points="781,-475 683,-475 683,-456 781,-456 781,-475"/>
<text text-anchor="middle" x="732" y="-463" font-family="Helvetica,sans-Serif" font-size="10.00">LevelMeterHBox</text>
</a>
</g>
</g>
<!-- Node1&#45;&gt;Node24 -->
<g id="edge23_Node000001_Node000024" class="edge">
<title>Node1&#45;&gt;Node24</title>
<g id="a_edge23_Node000001_Node000024"><a xlink:title=" ">
<path fill="none" stroke="#63b8ff" d="M621.18,-478.51C640.34,-476.24 663.1,-473.54 682.93,-471.19"/>
<polygon fill="#63b8ff" stroke="#63b8ff" points="620.75,-475.03 611.24,-479.68 621.58,-481.98 620.75,-475.03"/>
</a>
</g>
</g>
<!-- Node25 -->
<g id="Node000025" class="node">
<title>Node25</title>
<g id="a_Node000025"><a xlink:href="classLocationEditRow.html" target="_top" xlink:title=" ">
<polygon fill="white" stroke="#666666" points="781,-438 683,-438 683,-419 781,-419 781,-438"/>
<text text-anchor="middle" x="732" y="-426" font-family="Helvetica,sans-Serif" font-size="10.00">LocationEditRow</text>
</a>
</g>
</g>
<!-- Node1&#45;&gt;Node25 -->
<g id="edge24_Node000001_Node000025" class="edge">
<title>Node1&#45;&gt;Node25</title>
<g id="a_edge24_Node000001_Node000025"><a xlink:title=" ">
<path fill="none" stroke="#63b8ff" d="M602.15,-468.74C614.95,-461.14 631.38,-452.28 647,-446.5 658.33,-442.3 670.9,-438.96 682.79,-436.35"/>
<polygon fill="#63b8ff" stroke="#63b8ff" points="600.26,-465.79 593.54,-473.98 603.9,-471.77 600.26,-465.79"/>
</a>
</g>
</g>
<!-- Node26 -->
<g id="Node000026" class="node">
<title>Node26</title>
<g id="a_Node000026"><a xlink:href="classLocationUI.html" target="_top" xlink:title=" ">
<polygon fill="white" stroke="#666666" points="766,-401 698,-401 698,-382 766,-382 766,-401"/>
<text text-anchor="middle" x="732" y="-389" font-family="Helvetica,sans-Serif" font-size="10.00">LocationUI</text>
</a>
</g>
</g>
<!-- Node1&#45;&gt;Node26 -->
<g id="edge25_Node000001_Node000026" class="edge">
<title>Node1&#45;&gt;Node26</title>
<g id="a_edge25_Node000001_Node000026"><a xlink:title=" ">
<path fill="none" stroke="#63b8ff" d="M590.79,-465.21C602.83,-448.09 623.1,-423.16 647,-409.5 662.41,-400.69 681.64,-396.18 697.82,-393.88"/>
<polygon fill="#63b8ff" stroke="#63b8ff" points="587.69,-463.56 584.98,-473.8 593.49,-467.48 587.69,-463.56"/>
</a>
</g>
</g>
<!-- Node27 -->
<g id="Node000027" class="node">
<title>Node27</title>
<g id="a_Node000027"><a xlink:href="classPannerUI.html" target="_top" xlink:title=" ">
<polygon fill="white" stroke="#666666" points="762,-364 702,-364 702,-345 762,-345 762,-364"/>
<text text-anchor="middle" x="732" y="-352" font-family="Helvetica,sans-Serif" font-size="10.00">PannerUI</text>
</a>
</g>
</g>
<!-- Node1&#45;&gt;Node27 -->
<g id="edge26_Node000001_Node000027" class="edge">
<title>Node1&#45;&gt;Node27</title>
<g id="a_edge26_Node000001_Node000027"><a xlink:title=" ">
<path fill="none" stroke="#63b8ff" d="M585.28,-464.44C594.6,-439.27 614.56,-395.47 647,-372.5 662.95,-361.21 684.57,-356.76 701.88,-355.11"/>
<polygon fill="#63b8ff" stroke="#63b8ff" points="581.95,-463.37 581.93,-473.97 588.55,-465.69 581.95,-463.37"/>
</a>
</g>
</g>
<!-- Node28 -->
<g id="Node000028" class="node">
<title>Node28</title>
<g id="a_Node000028"><a xlink:href="classProcessorBox.html" target="_top" xlink:title=" ">
<polygon fill="white" stroke="#666666" points="773.5,-327 690.5,-327 690.5,-308 773.5,-308 773.5,-327"/>
<text text-anchor="middle" x="732" y="-315" font-family="Helvetica,sans-Serif" font-size="10.00">ProcessorBox</text>
</a>
</g>
</g>
<!-- Node1&#45;&gt;Node28 -->
<g id="edge27_Node000001_Node000028" class="edge">
<title>Node1&#45;&gt;Node28</title>
<g id="a_edge27_Node000001_Node000028"><a xlink:title=" ">
<path fill="none" stroke="#63b8ff" d="M582.26,-463.76C588.65,-431.66 605.94,-368.4 647,-335.5 659.1,-325.8 675.24,-321.01 690.13,-318.74"/>
<polygon fill="#63b8ff" stroke="#63b8ff" points="578.8,-463.25 580.43,-473.72 585.68,-464.52 578.8,-463.25"/>
</a>
</g>
</g>
<!-- Node29 -->
<g id="Node000029" class="node">
<title>Node29</title>
<g id="a_Node000029"><a xlink:href="classRegionFxPropertiesBox.html" target="_top" xlink:title=" ">
<polygon fill="white" stroke="#666666" points="797.5,-290 666.5,-290 666.5,-271 797.5,-271 797.5,-290"/>
<text text-anchor="middle" x="732" y="-278" font-family="Helvetica,sans-Serif" font-size="10.00">RegionFxPropertiesBox</text>
</a>
</g>
</g>
<!-- Node1&#45;&gt;Node29 -->
<g id="edge28_Node000001_Node000029" class="edge">
<title>Node1&#45;&gt;Node29</title>
<g id="a_edge28_Node000001_Node000029"><a xlink:title=" ">
<path fill="none" stroke="#63b8ff" d="M580.26,-463.29C583.8,-424.98 597.12,-341.8 647,-298.5 652.63,-293.61 659.27,-289.95 666.3,-287.21"/>
<polygon fill="#63b8ff" stroke="#63b8ff" points="576.74,-463.4 579.45,-473.64 583.72,-463.94 576.74,-463.4"/>
</a>
</g>
</g>
<!-- Node30 -->
<g id="Node000030" class="node">
<title>Node30</title>
<g id="a_Node000030"><a xlink:href="classReturnUI.html" target="_top" xlink:title=" ">
<polygon fill="white" stroke="#666666" points="761.5,-253 702.5,-253 702.5,-234 761.5,-234 761.5,-253"/>
<text text-anchor="middle" x="732" y="-241" font-family="Helvetica,sans-Serif" font-size="10.00">ReturnUI</text>
</a>
</g>
</g>
<!-- Node1&#45;&gt;Node30 -->
<g id="edge29_Node000001_Node000030" class="edge">
<title>Node1&#45;&gt;Node30</title>
<g id="a_edge29_Node000001_Node000030"><a xlink:title=" ">
<path fill="none" stroke="#63b8ff" d="M578.82,-463.58C579.57,-420 587.83,-315.78 647,-261.5 661.84,-247.89 684.39,-243.63 702.39,-242.64"/>
<polygon fill="#63b8ff" stroke="#63b8ff" points="575.32,-463.71 578.77,-473.73 582.32,-463.75 575.32,-463.71"/>
</a>
</g>
</g>
<!-- Node31 -->
<g id="Node000031" class="node">
<title>Node31</title>
<g id="a_Node000031"><a xlink:href="classRoutePropertiesBox.html" target="_top" xlink:title=" ">
<polygon fill="white" stroke="#666666" points="788.5,-216 675.5,-216 675.5,-197 788.5,-197 788.5,-216"/>
<text text-anchor="middle" x="732" y="-204" font-family="Helvetica,sans-Serif" font-size="10.00">RoutePropertiesBox</text>
</a>
</g>
</g>
<!-- Node1&#45;&gt;Node31 -->
<g id="edge30_Node000001_Node000031" class="edge">
<title>Node1&#45;&gt;Node31</title>
<g id="a_edge30_Node000001_Node000031"><a xlink:title=" ">
<path fill="none" stroke="#63b8ff" d="M581.52,-463.64C588.85,-408.96 611.93,-258 647,-224.5 654.76,-217.08 664.81,-212.41 675.23,-209.53"/>
<polygon fill="#63b8ff" stroke="#63b8ff" points="578.02,-463.4 580.19,-473.77 584.96,-464.31 578.02,-463.4"/>
</a>
</g>
</g>
<!-- Node32 -->
<g id="Node000032" class="node">
<title>Node32</title>
<g id="a_Node000032"><a xlink:href="classSelectionPropertiesBox.html" target="_top" xlink:title=" ">
<polygon fill="white" stroke="#666666" points="797,-179 667,-179 667,-160 797,-160 797,-179"/>
<text text-anchor="middle" x="732" y="-167" font-family="Helvetica,sans-Serif" font-size="10.00">SelectionPropertiesBox</text>
</a>
</g>
</g>
<!-- Node1&#45;&gt;Node32 -->
<g id="edge31_Node000001_Node000032" class="edge">
<title>Node1&#45;&gt;Node32</title>
<g id="a_edge31_Node000001_Node000032"><a xlink:title=" ">
<path fill="none" stroke="#63b8ff" d="M580.78,-464.02C586.62,-404.51 607.13,-226.79 647,-187.5 652.63,-181.95 659.53,-177.93 666.93,-175.04"/>
<polygon fill="#63b8ff" stroke="#63b8ff" points="577.3,-463.69 579.83,-473.98 584.27,-464.36 577.3,-463.69"/>
</a>
</g>
</g>
<!-- Node33 -->
<g id="Node000033" class="node">
<title>Node33</title>
<g id="a_Node000033"><a xlink:href="classSendUI.html" target="_top" xlink:title=" ">
<polygon fill="white" stroke="#666666" points="757.5,-142 706.5,-142 706.5,-123 757.5,-123 757.5,-142"/>
<text text-anchor="middle" x="732" y="-130" font-family="Helvetica,sans-Serif" font-size="10.00">SendUI</text>
</a>
</g>
</g>
<!-- Node1&#45;&gt;Node33 -->
<g id="edge32_Node000001_Node000033" class="edge">
<title>Node1&#45;&gt;Node33</title>
<g id="a_edge32_Node000001_Node000033"><a xlink:title=" ">
<path fill="none" stroke="#63b8ff" d="M580.26,-463.73C584.8,-399.08 602.44,-195.49 647,-150.5 662.32,-135.03 687.49,-131.35 706.29,-131.04"/>
<polygon fill="#63b8ff" stroke="#63b8ff" points="576.76,-463.6 579.58,-473.81 583.75,-464.07 576.76,-463.6"/>
</a>
</g>
</g>
<!-- Node34 -->
<g id="Node000034" class="node">
<title>Node34</title>
<g id="a_Node000034"><a xlink:href="structTransformDialog_1_1OperationChooser.html" target="_top" xlink:title=" ">
<polygon fill="white" stroke="#666666" points="807.5,-104.5 656.5,-104.5 656.5,-74.5 807.5,-74.5 807.5,-104.5"/>
<text text-anchor="start" x="664.5" y="-92.5" font-family="Helvetica,sans-Serif" font-size="10.00">TransformDialog::Operation</text>
<text text-anchor="middle" x="732" y="-81.5" font-family="Helvetica,sans-Serif" font-size="10.00">Chooser</text>
</a>
</g>
</g>
<!-- Node1&#45;&gt;Node34 -->
<g id="edge33_Node000001_Node000034" class="edge">
<title>Node1&#45;&gt;Node34</title>
<g id="a_edge33_Node000001_Node000034"><a xlink:title=" ">
<path fill="none" stroke="#63b8ff" d="M579.96,-463.51C583.7,-394.23 599.48,-165.84 647,-113.5 650.06,-110.13 653.55,-107.22 657.34,-104.71"/>
<polygon fill="#63b8ff" stroke="#63b8ff" points="576.45,-463.7 579.43,-473.87 583.44,-464.06 576.45,-463.7"/>
</a>
</g>
</g>
<!-- Node35 -->
<g id="Node000035" class="node">
<title>Node35</title>
<g id="a_Node000035"><a xlink:href="structTransformDialog_1_1ValueChooser.html" target="_top" xlink:title=" ">
<polygon fill="white" stroke="#666666" points="817,-56 647,-56 647,-37 817,-37 817,-56"/>
<text text-anchor="middle" x="732" y="-44" font-family="Helvetica,sans-Serif" font-size="10.00">TransformDialog::ValueChooser</text>
</a>
</g>
</g>
<!-- Node1&#45;&gt;Node35 -->
<g id="edge34_Node000001_Node000035" class="edge">
<title>Node1&#45;&gt;Node35</title>
<g id="a_edge34_Node000001_Node000035"><a xlink:title=" ">
<path fill="none" stroke="#63b8ff" d="M579.4,-463.29C581.31,-387.86 591.89,-124.09 647,-65.5 650.59,-61.69 654.76,-58.56 659.3,-56.01"/>
<polygon fill="#63b8ff" stroke="#63b8ff" points="575.89,-463.64 579.16,-473.72 582.89,-463.8 575.89,-463.64"/>
</a>
</g>
</g>
<!-- Node36 -->
<g id="Node000036" class="node">
<title>Node36</title>
<g id="a_Node000036"><a xlink:href="classTransportControlUI.html" target="_top" xlink:title=" ">
<polygon fill="white" stroke="#666666" points="785.5,-19 678.5,-19 678.5,0 785.5,0 785.5,-19"/>
<text text-anchor="middle" x="732" y="-7" font-family="Helvetica,sans-Serif" font-size="10.00">TransportControlUI</text>
</a>
</g>
</g>
<!-- Node1&#45;&gt;Node36 -->
<g id="edge35_Node000001_Node000036" class="edge">
<title>Node1&#45;&gt;Node36</title>
<g id="a_edge35_Node000001_Node000036"><a xlink:title=" ">
<path fill="none" stroke="#63b8ff" d="M579.07,-463.5C579.79,-384.04 586.56,-91.88 647,-27.5 655.27,-18.69 666.71,-13.66 678.5,-10.89"/>
<polygon fill="#63b8ff" stroke="#63b8ff" points="575.57,-463.6 579.01,-473.63 582.57,-463.65 575.57,-463.6"/>
</a>
</g>
</g>
<!-- Node2 -->
<g id="Node000002" class="node">
<title>Node2</title>
<g id="a_Node000002"><a xlink:href="classGtk_1_1Box.html" target="_top" xlink:title=" ">
<polygon fill="white" stroke="#666666" points="509,-493 450,-493 450,-474 509,-474 509,-493"/>
<text text-anchor="middle" x="479.5" y="-481" font-family="Helvetica,sans-Serif" font-size="10.00">Gtk::Box</text>
</a>
</g>
</g>
<!-- Node2&#45;&gt;Node1 -->
<g id="edge1_Node000001_Node000002" class="edge">
<title>Node2&#45;&gt;Node1</title>
<g id="a_edge1_Node000001_Node000002"><a xlink:title=" ">
<path fill="none" stroke="#63b8ff" d="M519.28,-483.5C527.77,-483.5 536.67,-483.5 544.87,-483.5"/>
<polygon fill="#63b8ff" stroke="#63b8ff" points="519.19,-480 509.19,-483.5 519.19,-487 519.19,-480"/>
</a>
</g>
</g>
<!-- Node3 -->
<g id="Node000003" class="node">
<title>Node3</title>
<g id="a_Node000003"><a xlink:href="classGtk_1_1Container.html" target="_top" xlink:title=" ">
<polygon fill="white" stroke="#666666" points="414,-493 327,-493 327,-474 414,-474 414,-493"/>
<text text-anchor="middle" x="370.5" y="-481" font-family="Helvetica,sans-Serif" font-size="10.00">Gtk::Container</text>
</a>
</g>
</g>
<!-- Node3&#45;&gt;Node2 -->
<g id="edge2_Node000002_Node000003" class="edge">
<title>Node3&#45;&gt;Node2</title>
<g id="a_edge2_Node000002_Node000003"><a xlink:title=" ">
<path fill="none" stroke="#63b8ff" d="M424.35,-483.5C433.14,-483.5 441.96,-483.5 449.85,-483.5"/>
<polygon fill="#63b8ff" stroke="#63b8ff" points="424.1,-480 414.1,-483.5 424.1,-487 424.1,-480"/>
</a>
</g>
</g>
<!-- Node4 -->
<g id="Node000004" class="node">
<title>Node4</title>
<g id="a_Node000004"><a xlink:href="classGtk_1_1Widget.html" target="_top" xlink:title=" ">
<polygon fill="white" stroke="#666666" points="291,-493 217,-493 217,-474 291,-474 291,-493"/>
<text text-anchor="middle" x="254" y="-481" font-family="Helvetica,sans-Serif" font-size="10.00">Gtk::Widget</text>
</a>
</g>
</g>
<!-- Node4&#45;&gt;Node3 -->
<g id="edge3_Node000003_Node000004" class="edge">
<title>Node4&#45;&gt;Node3</title>
<g id="a_edge3_Node000003_Node000004"><a xlink:title=" ">
<path fill="none" stroke="#63b8ff" d="M301.27,-483.5C309.67,-483.5 318.4,-483.5 326.7,-483.5"/>
<polygon fill="#63b8ff" stroke="#63b8ff" points="301.23,-480 291.23,-483.5 301.23,-487 301.23,-480"/>
</a>
</g>
</g>
<!-- Node5 -->
<g id="Node000005" class="node">
<title>Node5</title>
<g id="a_Node000005"><a xlink:href="classGtk_1_1Object.html" target="_top" xlink:title=" ">
<polygon fill="white" stroke="#666666" points="181,-493 110,-493 110,-474 181,-474 181,-493"/>
<text text-anchor="middle" x="145.5" y="-481" font-family="Helvetica,sans-Serif" font-size="10.00">Gtk::Object</text>
</a>
</g>
</g>
<!-- Node5&#45;&gt;Node4 -->
<g id="edge4_Node000004_Node000005" class="edge">
<title>Node5&#45;&gt;Node4</title>
<g id="a_edge4_Node000004_Node000005"><a xlink:title=" ">
<path fill="none" stroke="#63b8ff" d="M191.25,-483.5C199.76,-483.5 208.56,-483.5 216.77,-483.5"/>
<polygon fill="#63b8ff" stroke="#63b8ff" points="191.08,-480 181.08,-483.5 191.08,-487 191.08,-480"/>
</a>
</g>
</g>
<!-- Node6 -->
<g id="Node000006" class="node">
<title>Node6</title>
<g id="a_Node000006"><a xlink:title=" ">
<polygon fill="white" stroke="#666666" points="74,-493 0,-493 0,-474 74,-474 74,-493"/>
<text text-anchor="middle" x="37" y="-481" font-family="Helvetica,sans-Serif" font-size="10.00">Glib::Object</text>
</a>
</g>
</g>
<!-- Node6&#45;&gt;Node5 -->
<g id="edge5_Node000005_Node000006" class="edge">
<title>Node6&#45;&gt;Node5</title>
<g id="a_edge5_Node000005_Node000006"><a xlink:title=" ">
<path fill="none" stroke="#63b8ff" d="M84.06,-483.5C92.74,-483.5 101.67,-483.5 109.92,-483.5"/>
<polygon fill="#63b8ff" stroke="#63b8ff" points="84.06,-480 74.06,-483.5 84.06,-487 84.06,-480"/>
</a>
</g>
</g>
<!-- Node12 -->
<g id="Node000012" class="node">
<title>Node12</title>
<g id="a_Node000012"><a xlink:href="classTimeInfoBox.html" target="_top" xlink:title=" ">
<polygon fill="white" stroke="#666666" points="973,-808 894,-808 894,-789 973,-789 973,-808"/>
<text text-anchor="middle" x="933.5" y="-796" font-family="Helvetica,sans-Serif" font-size="10.00">TimeInfoBox</text>
</a>
</g>
</g>
<!-- Node11&#45;&gt;Node12 -->
<g id="edge11_Node000011_Node000012" class="edge">
<title>Node11&#45;&gt;Node12</title>
<g id="a_edge11_Node000011_Node000012"><a xlink:title=" ">
<path fill="none" stroke="#63b8ff" d="M783.16,-798.5C817.42,-798.5 862.15,-798.5 893.7,-798.5"/>
<polygon fill="#63b8ff" stroke="#63b8ff" points="782.89,-795 772.89,-798.5 782.89,-802 782.89,-795"/>
</a>
</g>
</g>
<!-- Node15 -->
<g id="Node000015" class="node">
<title>Node15</title>
<g id="a_Node000015"><a xlink:href="classPortExportChannelSelector.html" target="_top" xlink:title=" ">
<polygon fill="white" stroke="#666666" points="1007,-771 860,-771 860,-752 1007,-752 1007,-771"/>
<text text-anchor="middle" x="933.5" y="-759" font-family="Helvetica,sans-Serif" font-size="10.00">PortExportChannelSelector</text>
</a>
</g>
</g>
<!-- Node14&#45;&gt;Node15 -->
<g id="edge14_Node000014_Node000015" class="edge">
<title>Node14&#45;&gt;Node15</title>
<g id="a_edge14_Node000014_Node000015"><a xlink:title=" ">
<path fill="none" stroke="#63b8ff" d="M794.36,-735.88C822.1,-741.02 854.5,-747.03 880.95,-751.94"/>
<polygon fill="#63b8ff" stroke="#63b8ff" points="794.85,-732.41 784.38,-734.03 793.57,-739.29 794.85,-732.41"/>
</a>
</g>
</g>
<!-- Node16 -->
<g id="Node000016" class="node">
<title>Node16</title>
<g id="a_Node000016"><a xlink:href="classRegionExportChannelSelector.html" target="_top" xlink:title=" ">
<polygon fill="white" stroke="#666666" points="1014,-734 853,-734 853,-715 1014,-715 1014,-734"/>
<text text-anchor="middle" x="933.5" y="-722" font-family="Helvetica,sans-Serif" font-size="10.00">RegionExportChannelSelector</text>
</a>
</g>
</g>
<!-- Node14&#45;&gt;Node16 -->
<g id="edge15_Node000014_Node000016" class="edge">
<title>Node14&#45;&gt;Node16</title>
<g id="a_edge15_Node000014_Node000016"><a xlink:title=" ">
<path fill="none" stroke="#63b8ff" d="M806.45,-724.5C821.58,-724.5 837.59,-724.5 852.94,-724.5"/>
<polygon fill="#63b8ff" stroke="#63b8ff" points="806.12,-721 796.12,-724.5 806.12,-728 806.12,-721"/>
</a>
</g>
</g>
<!-- Node17 -->
<g id="Node000017" class="node">
<title>Node17</title>
<g id="a_Node000017"><a xlink:href="classTrackExportChannelSelector.html" target="_top" xlink:title=" ">
<polygon fill="white" stroke="#666666" points="1010,-697 857,-697 857,-678 1010,-678 1010,-697"/>
<text text-anchor="middle" x="933.5" y="-685" font-family="Helvetica,sans-Serif" font-size="10.00">TrackExportChannelSelector</text>
</a>
</g>
</g>
<!-- Node14&#45;&gt;Node17 -->
<g id="edge16_Node000014_Node000017" class="edge">
<title>Node14&#45;&gt;Node17</title>
<g id="a_edge16_Node000014_Node000017"><a xlink:title=" ">
<path fill="none" stroke="#63b8ff" d="M794.36,-713.12C822.1,-707.98 854.5,-701.97 880.95,-697.06"/>
<polygon fill="#63b8ff" stroke="#63b8ff" points="793.57,-709.71 784.38,-714.97 794.85,-716.59 793.57,-709.71"/>
</a>
</g>
</g>
</g>
</svg>
