<?xml version="1.0" encoding="UTF-8" standalone="no"?>
<!DOCTYPE svg PUBLIC "-//W3C//DTD SVG 1.1//EN"
 "http://www.w3.org/Graphics/SVG/1.1/DTD/svg11.dtd">
<!-- Generated by graphviz version 2.43.0 (0)
 -->
<!-- Title: ArdourSurface::US2400Protocol Pages: 1 -->
<svg width="473pt" height="203pt"
 viewBox="0.00 0.00 472.50 203.00" xmlns="http://www.w3.org/2000/svg" xmlns:xlink="http://www.w3.org/1999/xlink">

<svg id="main" version="1.1" xmlns="http://www.w3.org/2000/svg" xmlns:xlink="http://www.w3.org/1999/xlink" xml:space="preserve" onload="init(evt)">
<style type="text/css"><![CDATA[
.node, .edge {opacity: 0.7;}
.node.selected, .edge.selected {opacity: 1;}
.edge:hover path { stroke: red; }
.edge:hover polygon { stroke: red; fill: red; }
]]></style>
<script type="application/ecmascript" xlink:href="svg.min.js"/>
<svg id="graph" class="graph">
<g id="graph0" class="graph" transform="scale(1 1) rotate(0) translate(4 199)">
<title>ArdourSurface::US2400Protocol</title>
<!-- Node1 -->
<g id="Node000001" class="node">
<title>Node1</title>
<g id="a_Node000001"><a xlink:title=" ">
<polygon fill="#999999" stroke="#666666" points="353,-19 184,-19 184,0 353,0 353,-19"/>
<text text-anchor="middle" x="268.5" y="-7" font-family="Helvetica,sans-Serif" font-size="10.00">ArdourSurface::US2400Protocol</text>
</a>
</g>
</g>
<!-- Node2 -->
<g id="Node000002" class="node">
<title>Node2</title>
<g id="a_Node000002"><a xlink:href="classARDOUR_1_1ControlProtocol.html" target="_top" xlink:title=" ">
<polygon fill="white" stroke="#666666" points="256.5,-79.5 116.5,-79.5 116.5,-60.5 256.5,-60.5 256.5,-79.5"/>
<text text-anchor="middle" x="186.5" y="-67.5" font-family="Helvetica,sans-Serif" font-size="10.00">ARDOUR::ControlProtocol</text>
</a>
</g>
</g>
<!-- Node2&#45;&gt;Node1 -->
<g id="edge1_Node000001_Node000002" class="edge">
<title>Node2&#45;&gt;Node1</title>
<g id="a_edge1_Node000001_Node000002"><a xlink:title=" ">
<path fill="none" stroke="#63b8ff" d="M207.04,-54.35C222.57,-43.27 243.37,-28.43 256.35,-19.17"/>
<polygon fill="#63b8ff" stroke="#63b8ff" points="204.71,-51.71 198.6,-60.37 208.77,-57.41 204.71,-51.71"/>
</a>
</g>
</g>
<!-- Node3 -->
<g id="Node000003" class="node">
<title>Node3</title>
<g id="a_Node000003"><a xlink:href="classPBD_1_1Stateful.html" target="_top" xlink:title=" ">
<polygon fill="white" stroke="#666666" points="81,-140 0,-140 0,-121 81,-121 81,-140"/>
<text text-anchor="middle" x="40.5" y="-128" font-family="Helvetica,sans-Serif" font-size="10.00">PBD::Stateful</text>
</a>
</g>
</g>
<!-- Node3&#45;&gt;Node2 -->
<g id="edge2_Node000002_Node000003" class="edge">
<title>Node3&#45;&gt;Node2</title>
<g id="a_edge2_Node000002_Node000003"><a xlink:title=" ">
<path fill="none" stroke="#63b8ff" d="M71.12,-117.23C99.34,-105.92 140.47,-89.44 165.24,-79.52"/>
<polygon fill="#63b8ff" stroke="#63b8ff" points="69.71,-114.03 61.73,-120.99 72.31,-120.52 69.71,-114.03"/>
</a>
</g>
</g>
<!-- Node4 -->
<g id="Node000004" class="node">
<title>Node4</title>
<g id="a_Node000004"><a xlink:href="classPBD_1_1ScopedConnectionList.html" target="_top" xlink:title=" ">
<polygon fill="white" stroke="#666666" points="249.5,-140 99.5,-140 99.5,-121 249.5,-121 249.5,-140"/>
<text text-anchor="middle" x="174.5" y="-128" font-family="Helvetica,sans-Serif" font-size="10.00">PBD::ScopedConnectionList</text>
</a>
</g>
</g>
<!-- Node4&#45;&gt;Node2 -->
<g id="edge3_Node000002_Node000004" class="edge">
<title>Node4&#45;&gt;Node2</title>
<g id="a_edge3_Node000002_Node000004"><a xlink:title=" ">
<path fill="none" stroke="#63b8ff" d="M178.3,-110.99C180.45,-100.51 183.04,-87.89 184.72,-79.67"/>
<polygon fill="#63b8ff" stroke="#63b8ff" points="174.85,-110.37 176.27,-120.87 181.71,-111.78 174.85,-110.37"/>
</a>
</g>
</g>
<!-- Node5 -->
<g id="Node000005" class="node">
<title>Node5</title>
<g id="a_Node000005"><a xlink:href="classBasicUI.html" target="_top" xlink:title=" ">
<polygon fill="white" stroke="#666666" points="320,-140 267,-140 267,-121 320,-121 320,-140"/>
<text text-anchor="middle" x="293.5" y="-128" font-family="Helvetica,sans-Serif" font-size="10.00">BasicUI</text>
</a>
</g>
</g>
<!-- Node5&#45;&gt;Node2 -->
<g id="edge4_Node000002_Node000005" class="edge">
<title>Node5&#45;&gt;Node2</title>
<g id="a_edge4_Node000002_Node000005"><a xlink:title=" ">
<path fill="none" stroke="#63b8ff" d="M268.67,-115.92C248.22,-104.74 219.84,-89.23 202.35,-79.67"/>
<polygon fill="#63b8ff" stroke="#63b8ff" points="267.26,-119.14 277.71,-120.87 270.62,-113 267.26,-119.14"/>
</a>
</g>
</g>
<!-- Node6 -->
<g id="Node000006" class="node">
<title>Node6</title>
<g id="a_Node000006"><a xlink:href="classAbstractUI.html" target="_top" xlink:title=" ">
<polygon fill="white" stroke="#666666" points="432.5,-85 280.5,-85 280.5,-55 432.5,-55 432.5,-85"/>
<text text-anchor="start" x="288.5" y="-73" font-family="Helvetica,sans-Serif" font-size="10.00">AbstractUI&lt; US2400Control</text>
<text text-anchor="middle" x="356.5" y="-62" font-family="Helvetica,sans-Serif" font-size="10.00">UIRequest &gt;</text>
</a>
</g>
</g>
<!-- Node6&#45;&gt;Node1 -->
<g id="edge5_Node000001_Node000006" class="edge">
<title>Node6&#45;&gt;Node1</title>
<g id="a_edge5_Node000001_Node000006"><a xlink:title=" ">
<path fill="none" stroke="#63b8ff" d="M326.51,-49.06C311.15,-38.85 293.24,-26.95 281.43,-19.09"/>
<polygon fill="#63b8ff" stroke="#63b8ff" points="324.93,-52.22 335.2,-54.84 328.81,-46.39 324.93,-52.22"/>
</a>
</g>
</g>
<!-- Node7 -->
<g id="Node000007" class="node">
<title>Node7</title>
<g id="a_Node000007"><a xlink:href="classBaseUI.html" target="_top" xlink:title=" ">
<polygon fill="white" stroke="#666666" points="389,-140 338,-140 338,-121 389,-121 389,-140"/>
<text text-anchor="middle" x="363.5" y="-128" font-family="Helvetica,sans-Serif" font-size="10.00">BaseUI</text>
</a>
</g>
</g>
<!-- Node7&#45;&gt;Node6 -->
<g id="edge6_Node000006_Node000007" class="edge">
<title>Node7&#45;&gt;Node6</title>
<g id="a_edge6_Node000006_Node000007"><a xlink:title=" ">
<path fill="none" stroke="#63b8ff" d="M361.28,-110.93C360.28,-102.58 359.12,-92.87 358.19,-85.11"/>
<polygon fill="#63b8ff" stroke="#63b8ff" points="357.8,-111.35 362.47,-120.87 364.75,-110.52 357.8,-111.35"/>
</a>
</g>
</g>
<!-- Node8 -->
<g id="Node000008" class="node">
<title>Node8</title>
<g id="a_Node000008"><a xlink:title=" ">
<polygon fill="white" stroke="#666666" points="352,-195 265,-195 265,-176 352,-176 352,-195"/>
<text text-anchor="middle" x="308.5" y="-183" font-family="Helvetica,sans-Serif" font-size="10.00">sigc::trackable</text>
</a>
</g>
</g>
<!-- Node8&#45;&gt;Node7 -->
<g id="edge7_Node000007_Node000008" class="edge">
<title>Node8&#45;&gt;Node7</title>
<g id="a_edge7_Node000007_Node000008"><a xlink:title=" ">
<path fill="none" stroke="#63b8ff" d="M324.79,-168.8C334.54,-159.41 346.55,-147.83 354.59,-140.09"/>
<polygon fill="#63b8ff" stroke="#63b8ff" points="322.35,-166.29 317.58,-175.75 327.21,-171.33 322.35,-166.29"/>
</a>
</g>
</g>
<!-- Node9 -->
<g id="Node000009" class="node">
<title>Node9</title>
<g id="a_Node000009"><a xlink:href="classPBD_1_1EventLoop.html" target="_top" xlink:title=" ">
<polygon fill="white" stroke="#666666" points="464.5,-195 370.5,-195 370.5,-176 464.5,-176 464.5,-195"/>
<text text-anchor="middle" x="417.5" y="-183" font-family="Helvetica,sans-Serif" font-size="10.00">PBD::EventLoop</text>
</a>
</g>
</g>
<!-- Node9&#45;&gt;Node7 -->
<g id="edge8_Node000007_Node000009" class="edge">
<title>Node9&#45;&gt;Node7</title>
<g id="a_edge8_Node000007_Node000009"><a xlink:title=" ">
<path fill="none" stroke="#63b8ff" d="M401.22,-168.52C391.7,-159.18 380.06,-147.75 372.25,-140.09"/>
<polygon fill="#63b8ff" stroke="#63b8ff" points="398.99,-171.24 408.58,-175.75 403.9,-166.25 398.99,-171.24"/>
</a>
</g>
</g>
</g>
</svg>
</svg>

<style type='text/css'>
<![CDATA[
[data-mouse-over-selected='false'] { opacity: 0.7; }
[data-mouse-over-selected='true']  { opacity: 1.0; }
]]>
</style>
<script type="application/ecmascript"><![CDATA[
document.addEventListener('DOMContentLoaded', (event) => {
  highlightEdges();
  highlightAdjacentNodes();
});
]]></script>
</svg>
