<?xml version="1.0" encoding="UTF-8" standalone="no"?>
<!DOCTYPE svg PUBLIC "-//W3C//DTD SVG 1.1//EN"
 "http://www.w3.org/Graphics/SVG/1.1/DTD/svg11.dtd">
<!-- Generated by graphviz version 2.43.0 (0)
 -->
<!-- Title: ArdourSurface::SurfaceComponent Pages: 1 -->
<svg width="399pt" height="198pt"
 viewBox="0.00 0.00 399.00 197.50" xmlns="http://www.w3.org/2000/svg" xmlns:xlink="http://www.w3.org/1999/xlink">
<g id="graph0" class="graph" transform="scale(1 1) rotate(0) translate(4 193.5)">
<title>ArdourSurface::SurfaceComponent</title>
<!-- Node1 -->
<g id="Node000001" class="node">
<title>Node1</title>
<g id="a_Node000001"><a xlink:title=" ">
<polygon fill="#999999" stroke="#666666" points="185,-115.5 0,-115.5 0,-96.5 185,-96.5 185,-115.5"/>
<text text-anchor="middle" x="92.5" y="-103.5" font-family="Helvetica,sans-Serif" font-size="10.00">ArdourSurface::SurfaceComponent</text>
</a>
</g>
</g>
<!-- Node2 -->
<g id="Node000002" class="node">
<title>Node2</title>
<g id="a_Node000002"><a xlink:href="classArdourSurface_1_1ArdourFeedback.html" target="_top" xlink:title=" ">
<polygon fill="white" stroke="#666666" points="391,-189.5 221,-189.5 221,-170.5 391,-170.5 391,-189.5"/>
<text text-anchor="middle" x="306" y="-177.5" font-family="Helvetica,sans-Serif" font-size="10.00">ArdourSurface::ArdourFeedback</text>
</a>
</g>
</g>
<!-- Node1&#45;&gt;Node2 -->
<g id="edge1_Node000001_Node000002" class="edge">
<title>Node1&#45;&gt;Node2</title>
<g id="a_edge1_Node000001_Node000002"><a xlink:title=" ">
<path fill="none" stroke="#63b8ff" d="M121.08,-120.06C146.48,-132.55 185.5,-150.53 221,-162 231.08,-165.26 242.02,-168.09 252.59,-170.49"/>
<polygon fill="#63b8ff" stroke="#63b8ff" points="122.56,-116.89 112.04,-115.58 119.44,-123.16 122.56,-116.89"/>
</a>
</g>
</g>
<!-- Node3 -->
<g id="Node000003" class="node">
<title>Node3</title>
<g id="a_Node000003"><a xlink:href="classArdourSurface_1_1ArdourMixer.html" target="_top" xlink:title=" ">
<polygon fill="white" stroke="#666666" points="381.5,-152.5 230.5,-152.5 230.5,-133.5 381.5,-133.5 381.5,-152.5"/>
<text text-anchor="middle" x="306" y="-140.5" font-family="Helvetica,sans-Serif" font-size="10.00">ArdourSurface::ArdourMixer</text>
</a>
</g>
</g>
<!-- Node1&#45;&gt;Node3 -->
<g id="edge2_Node000001_Node000003" class="edge">
<title>Node1&#45;&gt;Node3</title>
<g id="a_edge2_Node000001_Node000003"><a xlink:title=" ">
<path fill="none" stroke="#63b8ff" d="M158.17,-117.31C187.65,-122.47 222.19,-128.51 250.35,-133.44"/>
<polygon fill="#63b8ff" stroke="#63b8ff" points="158.42,-113.8 147.97,-115.53 157.21,-120.7 158.42,-113.8"/>
</a>
</g>
</g>
<!-- Node4 -->
<g id="Node000004" class="node">
<title>Node4</title>
<g id="a_Node000004"><a xlink:href="classArdourSurface_1_1ArdourTransport.html" target="_top" xlink:title=" ">
<polygon fill="white" stroke="#666666" points="390.5,-115.5 221.5,-115.5 221.5,-96.5 390.5,-96.5 390.5,-115.5"/>
<text text-anchor="middle" x="306" y="-103.5" font-family="Helvetica,sans-Serif" font-size="10.00">ArdourSurface::ArdourTransport</text>
</a>
</g>
</g>
<!-- Node1&#45;&gt;Node4 -->
<g id="edge3_Node000001_Node000004" class="edge">
<title>Node1&#45;&gt;Node4</title>
<g id="a_edge3_Node000001_Node000004"><a xlink:title=" ">
<path fill="none" stroke="#63b8ff" d="M195.26,-106C203.99,-106 212.75,-106 221.32,-106"/>
<polygon fill="#63b8ff" stroke="#63b8ff" points="195.04,-102.5 185.04,-106 195.04,-109.5 195.04,-102.5"/>
</a>
</g>
</g>
<!-- Node5 -->
<g id="Node000005" class="node">
<title>Node5</title>
<g id="a_Node000005"><a xlink:href="classArdourSurface_1_1WebsocketsDispatcher.html" target="_top" xlink:title=" ">
<polygon fill="white" stroke="#666666" points="380.5,-78 231.5,-78 231.5,-48 380.5,-48 380.5,-78"/>
<text text-anchor="start" x="239.5" y="-66" font-family="Helvetica,sans-Serif" font-size="10.00">ArdourSurface::Websockets</text>
<text text-anchor="middle" x="306" y="-55" font-family="Helvetica,sans-Serif" font-size="10.00">Dispatcher</text>
</a>
</g>
</g>
<!-- Node1&#45;&gt;Node5 -->
<g id="edge4_Node000001_Node000005" class="edge">
<title>Node1&#45;&gt;Node5</title>
<g id="a_edge4_Node000001_Node000005"><a xlink:title=" ">
<path fill="none" stroke="#63b8ff" d="M150.42,-94.43C175.26,-89.38 204.7,-83.39 231.19,-78.01"/>
<polygon fill="#63b8ff" stroke="#63b8ff" points="149.54,-91.03 140.44,-96.46 150.94,-97.89 149.54,-91.03"/>
</a>
</g>
</g>
<!-- Node6 -->
<g id="Node000006" class="node">
<title>Node6</title>
<g id="a_Node000006"><a xlink:href="classArdourSurface_1_1WebsocketsServer.html" target="_top" xlink:title=" ">
<polygon fill="white" stroke="#666666" points="380.5,-30 231.5,-30 231.5,0 380.5,0 380.5,-30"/>
<text text-anchor="start" x="239.5" y="-18" font-family="Helvetica,sans-Serif" font-size="10.00">ArdourSurface::Websockets</text>
<text text-anchor="middle" x="306" y="-7" font-family="Helvetica,sans-Serif" font-size="10.00">Server</text>
</a>
</g>
</g>
<!-- Node1&#45;&gt;Node6 -->
<g id="edge5_Node000001_Node000006" class="edge">
<title>Node1&#45;&gt;Node6</title>
<g id="a_edge5_Node000001_Node000006"><a xlink:title=" ">
<path fill="none" stroke="#63b8ff" d="M117.94,-91.22C143.09,-76.47 183.75,-53.93 221,-39 229.03,-35.78 237.64,-32.81 246.19,-30.13"/>
<polygon fill="#63b8ff" stroke="#63b8ff" points="115.92,-88.34 109.1,-96.45 119.49,-94.37 115.92,-88.34"/>
</a>
</g>
</g>
</g>
</svg>
