<?xml version="1.0" encoding="UTF-8" standalone="no"?>
<!DOCTYPE svg PUBLIC "-//W3C//DTD SVG 1.1//EN"
 "http://www.w3.org/Graphics/SVG/1.1/DTD/svg11.dtd">
<!-- Generated by graphviz version 2.43.0 (0)
 -->
<!-- Title: ARDOUR::IOPlug Pages: 1 -->
<!--zoomable 251 -->

<svg id="main" version="1.1" xmlns="http://www.w3.org/2000/svg" xmlns:xlink="http://www.w3.org/1999/xlink" xml:space="preserve" onload="init(evt)">
<style type="text/css"><![CDATA[
.node, .edge {opacity: 0.7;}
.node.selected, .edge.selected {opacity: 1;}
.edge:hover path { stroke: red; }
.edge:hover polygon { stroke: red; fill: red; }
]]></style>

<defs>
  <circle id="rim" cx="0" cy="0" r="7"/>
  <circle id="rim2" cx="0" cy="0" r="3.5"/>
  <g id="zoomPlus">
    <use xlink:href="#rim" fill="#404040"><set attributeName="fill" to="#808080" begin="zoomplus.mouseover" end="zoomplus.mouseout"/></use>
    <path d="M-4,0h8M0,-4v8" fill="none" stroke="white" stroke-width="1.5" pointer-events="none"/>
  </g>
  <g id="zoomMin">
    <use xlink:href="#rim" fill="#404040"><set attributeName="fill" to="#808080" begin="zoomminus.mouseover" end="zoomminus.mouseout"/></use>
    <path d="M-4,0h8" fill="none" stroke="white" stroke-width="1.5" pointer-events="none"/>
  </g>
  <g id="arrowUp" transform="translate(30 24)">
    <use xlink:href="#rim"/>
    <path pointer-events="none" fill="none" stroke="white" stroke-width="1.5" d="M0,-3.0v7 M-2.5,-0.5L0,-3.0L2.5,-0.5"/>
  </g>
  <g id="arrowRight" transform="rotate(90) translate(36 -43)">
    <use xlink:href="#rim"/>
    <path pointer-events="none" fill="none" stroke="white" stroke-width="1.5" d="M0,-3.0v7 M-2.5,-0.5L0,-3.0L2.5,-0.5"/>
  </g>
  <g id="arrowDown" transform="rotate(180) translate(-30 -48)">
    <use xlink:href="#rim"/>
    <path pointer-events="none" fill="none" stroke="white" stroke-width="1.5" d="M0,-3.0v7 M-2.5,-0.5L0,-3.0L2.5,-0.5"/>
  </g>
  <g id="arrowLeft" transform="rotate(270) translate(-36 17)">
    <use xlink:href="#rim"/>
    <path pointer-events="none" fill="none" stroke="white" stroke-width="1.5" d="M0,-3.0v7 M-2.5,-0.5L0,-3.0L2.5,-0.5"/>
  </g>
  <g id="resetDef">
    <use xlink:href="#rim2" fill="#404040"><set attributeName="fill" to="#808080" begin="reset.mouseover" end="reset.mouseout"/></use>
  </g>
</defs>
<script type="application/ecmascript">
var viewWidth = 853;
var viewHeight = 251;
var sectionId = 'dynsection-0';
</script>
<script type="application/ecmascript" xlink:href="svg.min.js"/>
<svg id="graph" class="graph">
<g id="viewport">
<title>ARDOUR::IOPlug</title>
<!-- Node1 -->
<g id="Node000001" class="node">
<title>Node1</title>
<g id="a_Node000001"><a xlink:title=" ">
<polygon fill="#999999" stroke="#666666" points="845,-111 748,-111 748,-92 845,-92 845,-111"/>
<text text-anchor="middle" x="796.5" y="-99" font-family="Helvetica,sans-Serif" font-size="10.00">ARDOUR::IOPlug</text>
</a>
</g>
</g>
<!-- Node2 -->
<g id="Node000002" class="node">
<title>Node2</title>
<g id="a_Node000002"><a xlink:href="classARDOUR_1_1SessionObject.html" target="_top" xlink:title=" ">
<polygon fill="white" stroke="#666666" points="533.5,-206 399.5,-206 399.5,-187 533.5,-187 533.5,-206"/>
<text text-anchor="middle" x="466.5" y="-194" font-family="Helvetica,sans-Serif" font-size="10.00">ARDOUR::SessionObject</text>
</a>
</g>
</g>
<!-- Node2&#45;&gt;Node1 -->
<g id="edge1_Node000001_Node000002" class="edge">
<title>Node2&#45;&gt;Node1</title>
<g id="a_edge1_Node000001_Node000002"><a xlink:title=" ">
<path fill="none" stroke="#63b8ff" d="M532.27,-185.04C582.12,-175.35 652.36,-159.8 712,-139.5 735.22,-131.6 760.72,-119.45 777.35,-111.03"/>
<polygon fill="#63b8ff" stroke="#63b8ff" points="531.43,-181.64 522.26,-186.96 532.74,-188.51 531.43,-181.64"/>
</a>
</g>
</g>
<!-- Node3 -->
<g id="Node000003" class="node">
<title>Node3</title>
<g id="a_Node000003"><a xlink:href="classARDOUR_1_1SessionHandleRef.html" target="_top" xlink:title=" ">
<polygon fill="white" stroke="#666666" points="349.5,-243 195.5,-243 195.5,-224 349.5,-224 349.5,-243"/>
<text text-anchor="middle" x="272.5" y="-231" font-family="Helvetica,sans-Serif" font-size="10.00">ARDOUR::SessionHandleRef</text>
</a>
</g>
</g>
<!-- Node3&#45;&gt;Node2 -->
<g id="edge2_Node000002_Node000003" class="edge">
<title>Node3&#45;&gt;Node2</title>
<g id="a_edge2_Node000002_Node000003"><a xlink:title=" ">
<path fill="none" stroke="#63b8ff" d="M332.91,-222.05C359.52,-216.92 390.54,-210.94 415.89,-206.06"/>
<polygon fill="#63b8ff" stroke="#63b8ff" points="332.1,-218.64 322.94,-223.97 333.43,-225.52 332.1,-218.64"/>
</a>
</g>
</g>
<!-- Node4 -->
<g id="Node000004" class="node">
<title>Node4</title>
<g id="a_Node000004"><a xlink:href="classPBD_1_1ScopedConnectionList.html" target="_top" xlink:title=" ">
<polygon fill="white" stroke="#666666" points="150,-243 0,-243 0,-224 150,-224 150,-243"/>
<text text-anchor="middle" x="75" y="-231" font-family="Helvetica,sans-Serif" font-size="10.00">PBD::ScopedConnectionList</text>
</a>
</g>
</g>
<!-- Node4&#45;&gt;Node3 -->
<g id="edge3_Node000003_Node000004" class="edge">
<title>Node4&#45;&gt;Node3</title>
<g id="a_edge3_Node000003_Node000004"><a xlink:title=" ">
<path fill="none" stroke="#63b8ff" d="M160.35,-233.5C172,-233.5 183.92,-233.5 195.41,-233.5"/>
<polygon fill="#63b8ff" stroke="#63b8ff" points="160.19,-230 150.19,-233.5 160.19,-237 160.19,-230"/>
</a>
</g>
</g>
<!-- Node5 -->
<g id="Node000005" class="node">
<title>Node5</title>
<g id="a_Node000005"><a xlink:href="classPBD_1_1StatefulDestructible.html" target="_top" xlink:title=" ">
<polygon fill="white" stroke="#666666" points="342.5,-206 202.5,-206 202.5,-187 342.5,-187 342.5,-206"/>
<text text-anchor="middle" x="272.5" y="-194" font-family="Helvetica,sans-Serif" font-size="10.00">PBD::StatefulDestructible</text>
</a>
</g>
</g>
<!-- Node5&#45;&gt;Node2 -->
<g id="edge4_Node000002_Node000005" class="edge">
<title>Node5&#45;&gt;Node2</title>
<g id="a_edge4_Node000002_Node000005"><a xlink:title=" ">
<path fill="none" stroke="#63b8ff" d="M352.64,-196.5C368.15,-196.5 384.27,-196.5 399.31,-196.5"/>
<polygon fill="#63b8ff" stroke="#63b8ff" points="352.55,-193 342.55,-196.5 352.55,-200 352.55,-193"/>
</a>
</g>
</g>
<!-- Node6 -->
<g id="Node000006" class="node">
<title>Node6</title>
<g id="a_Node000006"><a xlink:href="classPBD_1_1Stateful.html" target="_top" xlink:title=" ">
<polygon fill="white" stroke="#666666" points="115.5,-206 34.5,-206 34.5,-187 115.5,-187 115.5,-206"/>
<text text-anchor="middle" x="75" y="-194" font-family="Helvetica,sans-Serif" font-size="10.00">PBD::Stateful</text>
</a>
</g>
</g>
<!-- Node6&#45;&gt;Node5 -->
<g id="edge5_Node000005_Node000006" class="edge">
<title>Node6&#45;&gt;Node5</title>
<g id="a_edge5_Node000005_Node000006"><a xlink:title=" ">
<path fill="none" stroke="#63b8ff" d="M125.87,-196.5C149.09,-196.5 177.1,-196.5 202.32,-196.5"/>
<polygon fill="#63b8ff" stroke="#63b8ff" points="125.56,-193 115.56,-196.5 125.56,-200 125.56,-193"/>
</a>
</g>
</g>
<!-- Node7 -->
<g id="Node000007" class="node">
<title>Node7</title>
<g id="a_Node000007"><a xlink:href="classPBD_1_1Destructible.html" target="_top" xlink:title=" ">
<polygon fill="white" stroke="#666666" points="126,-168 24,-168 24,-149 126,-149 126,-168"/>
<text text-anchor="middle" x="75" y="-156" font-family="Helvetica,sans-Serif" font-size="10.00">PBD::Destructible</text>
</a>
</g>
</g>
<!-- Node7&#45;&gt;Node5 -->
<g id="edge6_Node000005_Node000007" class="edge">
<title>Node7&#45;&gt;Node5</title>
<g id="a_edge6_Node000005_Node000007"><a xlink:title=" ">
<path fill="none" stroke="#63b8ff" d="M135.11,-169.99C163,-175.41 195.9,-181.81 222.4,-186.96"/>
<polygon fill="#63b8ff" stroke="#63b8ff" points="135.56,-166.51 125.08,-168.04 134.23,-173.38 135.56,-166.51"/>
</a>
</g>
</g>
<!-- Node8 -->
<g id="Node000008" class="node">
<title>Node8</title>
<g id="a_Node000008"><a xlink:href="classARDOUR_1_1PlugInsertBase.html" target="_top" xlink:title=" ">
<polygon fill="white" stroke="#666666" points="712,-130 574,-130 574,-111 712,-111 712,-130"/>
<text text-anchor="middle" x="643" y="-118" font-family="Helvetica,sans-Serif" font-size="10.00">ARDOUR::PlugInsertBase</text>
</a>
</g>
</g>
<!-- Node7&#45;&gt;Node8 -->
<g id="edge12_Node000008_Node000007" class="edge">
<title>Node7&#45;&gt;Node8</title>
<g id="a_edge12_Node000008_Node000007"><a xlink:title=" ">
<path fill="none" stroke="#63b8ff" d="M136.19,-158.7C224.56,-158.38 394.49,-155.48 538,-139.5 557.7,-137.31 579.29,-133.58 597.67,-130.01"/>
<polygon fill="#63b8ff" stroke="#63b8ff" points="136.07,-155.2 126.08,-158.72 136.09,-162.2 136.07,-155.2"/>
</a>
</g>
</g>
<!-- Node11 -->
<g id="Node000011" class="node">
<title>Node11</title>
<g id="a_Node000011"><a xlink:href="structTemporal_1_1TimeDomainSwapper.html" target="_top" xlink:title=" ">
<polygon fill="white" stroke="#666666" points="359,-130 186,-130 186,-111 359,-111 359,-130"/>
<text text-anchor="middle" x="272.5" y="-118" font-family="Helvetica,sans-Serif" font-size="10.00">Temporal::TimeDomainSwapper</text>
</a>
</g>
</g>
<!-- Node7&#45;&gt;Node11 -->
<g id="edge11_Node000011_Node000007" class="edge">
<title>Node7&#45;&gt;Node11</title>
<g id="a_edge11_Node000011_Node000007"><a xlink:title=" ">
<path fill="none" stroke="#63b8ff" d="M135.11,-147.01C163,-141.59 195.9,-135.19 222.4,-130.04"/>
<polygon fill="#63b8ff" stroke="#63b8ff" points="134.23,-143.62 125.08,-148.96 135.56,-150.49 134.23,-143.62"/>
</a>
</g>
</g>
<!-- Node8&#45;&gt;Node1 -->
<g id="edge7_Node000001_Node000008" class="edge">
<title>Node8&#45;&gt;Node1</title>
<g id="a_edge7_Node000001_Node000008"><a xlink:title=" ">
<path fill="none" stroke="#63b8ff" d="M722.32,-110.68C730.94,-109.6 739.5,-108.52 747.58,-107.51"/>
<polygon fill="#63b8ff" stroke="#63b8ff" points="721.7,-107.23 712.22,-111.94 722.57,-114.17 721.7,-107.23"/>
</a>
</g>
</g>
<!-- Node9 -->
<g id="Node000009" class="node">
<title>Node9</title>
<g id="a_Node000009"><a xlink:href="classEvoral_1_1ControlSet.html" target="_top" xlink:title=" ">
<polygon fill="white" stroke="#666666" points="518.5,-130 414.5,-130 414.5,-111 518.5,-111 518.5,-130"/>
<text text-anchor="middle" x="466.5" y="-118" font-family="Helvetica,sans-Serif" font-size="10.00">Evoral::ControlSet</text>
</a>
</g>
</g>
<!-- Node9&#45;&gt;Node8 -->
<g id="edge8_Node000008_Node000009" class="edge">
<title>Node9&#45;&gt;Node8</title>
<g id="a_edge8_Node000008_Node000009"><a xlink:title=" ">
<path fill="none" stroke="#63b8ff" d="M529.22,-120.5C543.65,-120.5 559.11,-120.5 573.81,-120.5"/>
<polygon fill="#63b8ff" stroke="#63b8ff" points="528.91,-117 518.91,-120.5 528.91,-124 528.91,-117"/>
</a>
</g>
</g>
<!-- Node10 -->
<g id="Node000010" class="node">
<title>Node10</title>
<g id="a_Node000010"><a xlink:title=" ">
<polygon fill="white" stroke="#666666" points="328.5,-93 216.5,-93 216.5,-74 328.5,-74 328.5,-93"/>
<text text-anchor="middle" x="272.5" y="-81" font-family="Helvetica,sans-Serif" font-size="10.00">boost::noncopyable</text>
</a>
</g>
</g>
<!-- Node10&#45;&gt;Node9 -->
<g id="edge9_Node000009_Node000010" class="edge">
<title>Node10&#45;&gt;Node9</title>
<g id="a_edge9_Node000009_Node000010"><a xlink:title=" ">
<path fill="none" stroke="#63b8ff" d="M332.91,-94.95C359.52,-100.08 390.54,-106.06 415.89,-110.94"/>
<polygon fill="#63b8ff" stroke="#63b8ff" points="333.43,-91.48 322.94,-93.03 332.1,-98.36 333.43,-91.48"/>
</a>
</g>
</g>
<!-- Node11&#45;&gt;Node9 -->
<g id="edge10_Node000009_Node000011" class="edge">
<title>Node11&#45;&gt;Node9</title>
<g id="a_edge10_Node000009_Node000011"><a xlink:title=" ">
<path fill="none" stroke="#63b8ff" d="M369.34,-120.5C384.92,-120.5 400.51,-120.5 414.47,-120.5"/>
<polygon fill="#63b8ff" stroke="#63b8ff" points="369.11,-117 359.11,-120.5 369.11,-124 369.11,-117"/>
</a>
</g>
</g>
<!-- Node12 -->
<g id="Node000012" class="node">
<title>Node12</title>
<g id="a_Node000012"><a xlink:href="classARDOUR_1_1Latent.html" target="_top" xlink:title=" ">
<polygon fill="white" stroke="#666666" points="691,-93 595,-93 595,-74 691,-74 691,-93"/>
<text text-anchor="middle" x="643" y="-81" font-family="Helvetica,sans-Serif" font-size="10.00">ARDOUR::Latent</text>
</a>
</g>
</g>
<!-- Node12&#45;&gt;Node1 -->
<g id="edge13_Node000001_Node000012" class="edge">
<title>Node12&#45;&gt;Node1</title>
<g id="a_edge13_Node000001_Node000012"><a xlink:title=" ">
<path fill="none" stroke="#63b8ff" d="M701.06,-90.28C716.5,-92.11 733.04,-94.08 747.9,-95.84"/>
<polygon fill="#63b8ff" stroke="#63b8ff" points="701.45,-86.8 691.11,-89.1 700.62,-93.75 701.45,-86.8"/>
</a>
</g>
</g>
<!-- Node13 -->
<g id="Node000013" class="node">
<title>Node13</title>
<g id="a_Node000013"><a xlink:href="classARDOUR_1_1HasLatency.html" target="_top" xlink:title=" ">
<polygon fill="white" stroke="#666666" points="527.5,-93 405.5,-93 405.5,-74 527.5,-74 527.5,-93"/>
<text text-anchor="middle" x="466.5" y="-81" font-family="Helvetica,sans-Serif" font-size="10.00">ARDOUR::HasLatency</text>
</a>
</g>
</g>
<!-- Node13&#45;&gt;Node12 -->
<g id="edge14_Node000012_Node000013" class="edge">
<title>Node13&#45;&gt;Node12</title>
<g id="a_edge14_Node000012_Node000013"><a xlink:title=" ">
<path fill="none" stroke="#63b8ff" d="M537.76,-83.5C556.93,-83.5 577.24,-83.5 594.79,-83.5"/>
<polygon fill="#63b8ff" stroke="#63b8ff" points="537.55,-80 527.55,-83.5 537.55,-87 537.55,-80"/>
</a>
</g>
</g>
<!-- Node14 -->
<g id="Node000014" class="node">
<title>Node14</title>
<g id="a_Node000014"><a xlink:href="classARDOUR_1_1GraphNode.html" target="_top" xlink:title=" ">
<polygon fill="white" stroke="#666666" points="703,-56 583,-56 583,-37 703,-37 703,-56"/>
<text text-anchor="middle" x="643" y="-44" font-family="Helvetica,sans-Serif" font-size="10.00">ARDOUR::GraphNode</text>
</a>
</g>
</g>
<!-- Node14&#45;&gt;Node1 -->
<g id="edge15_Node000001_Node000014" class="edge">
<title>Node14&#45;&gt;Node1</title>
<g id="a_edge15_Node000001_Node000014"><a xlink:title=" ">
<path fill="none" stroke="#63b8ff" d="M691.65,-58.93C698.53,-60.98 705.48,-63.19 712,-65.5 734.18,-73.34 758.83,-84.25 775.56,-92"/>
<polygon fill="#63b8ff" stroke="#63b8ff" points="692.27,-55.47 681.69,-56.06 690.33,-62.2 692.27,-55.47"/>
</a>
</g>
</g>
<!-- Node15 -->
<g id="Node000015" class="node">
<title>Node15</title>
<g id="a_Node000015"><a xlink:href="classARDOUR_1_1ProcessNode.html" target="_top" xlink:title=" ">
<polygon fill="white" stroke="#666666" points="530.5,-56 402.5,-56 402.5,-37 530.5,-37 530.5,-56"/>
<text text-anchor="middle" x="466.5" y="-44" font-family="Helvetica,sans-Serif" font-size="10.00">ARDOUR::ProcessNode</text>
</a>
</g>
</g>
<!-- Node15&#45;&gt;Node14 -->
<g id="edge16_Node000014_Node000015" class="edge">
<title>Node15&#45;&gt;Node14</title>
<g id="a_edge16_Node000014_Node000015"><a xlink:title=" ">
<path fill="none" stroke="#63b8ff" d="M541.05,-46.5C555.02,-46.5 569.46,-46.5 582.91,-46.5"/>
<polygon fill="#63b8ff" stroke="#63b8ff" points="540.99,-43 530.99,-46.5 540.99,-50 540.99,-43"/>
</a>
</g>
</g>
<!-- Node16 -->
<g id="Node000016" class="node">
<title>Node16</title>
<g id="a_Node000016"><a xlink:href="classARDOUR_1_1GraphActivision.html" target="_top" xlink:title=" ">
<polygon fill="white" stroke="#666666" points="538,-19 395,-19 395,0 538,0 538,-19"/>
<text text-anchor="middle" x="466.5" y="-7" font-family="Helvetica,sans-Serif" font-size="10.00">ARDOUR::GraphActivision</text>
</a>
</g>
</g>
<!-- Node16&#45;&gt;Node14 -->
<g id="edge17_Node000014_Node000016" class="edge">
<title>Node16&#45;&gt;Node14</title>
<g id="a_edge17_Node000014_Node000016"><a xlink:title=" ">
<path fill="none" stroke="#63b8ff" d="M522.45,-21.15C546.42,-26.23 574.18,-32.12 596.91,-36.94"/>
<polygon fill="#63b8ff" stroke="#63b8ff" points="522.95,-17.68 512.44,-19.03 521.49,-24.53 522.95,-17.68"/>
</a>
</g>
</g>
</g>
</svg>

<g id="navigator" transform="translate(0 0)" fill="#404254">
  <rect fill="#f2f5e9" fill-opacity="0.5" stroke="#606060" stroke-width=".5" x="0" y="0" width="60" height="60"/>
  <use id="zoomplus" xlink:href="#zoomPlus" x="17" y="9" onmousedown="handleZoom(evt,'in')"/>
  <use id="zoomminus" xlink:href="#zoomMin" x="42" y="9" onmousedown="handleZoom(evt,'out')"/>
  <use id="reset" xlink:href="#resetDef" x="30" y="36" onmousedown="handleReset()"/>
   <use id="arrowup" xlink:href="#arrowUp" x="0" y="0" onmousedown="handlePan(0,-1)"/>
  <use id="arrowright" xlink:href="#arrowRight" x="0" y="0" onmousedown="handlePan(1,0)"/>
  <use id="arrowdown" xlink:href="#arrowDown" x="0" y="0" onmousedown="handlePan(0,1)"/>
  <use id="arrowleft" xlink:href="#arrowLeft" x="0" y="0" onmousedown="handlePan(-1,0)"/>
</g>
<svg viewBox="0 0 15 15" width="100%" height="30px" preserveAspectRatio="xMaxYMin meet">
 <g id="arrow_out" transform="scale(0.3 0.3)">
  <a xlink:href="classARDOUR_1_1IOPlug__inherit__graph_org.svg" target="_base">
   <rect id="button" ry="5" rx="5" y="6" x="6" height="38" width="38"
        fill="#f2f5e9" fill-opacity="0.5" stroke="#606060" stroke-width="1.0"/>
   <path id="arrow"
     d="M 11.500037,31.436501 C 11.940474,20.09759 22.043105,11.32322 32.158766,21.979434 L 37.068811,17.246167 C 37.068811,17.246167 37.088388,32 37.088388,32 L 22.160133,31.978069 C 22.160133,31.978069 26.997745,27.140456 26.997745,27.140456 C 18.528582,18.264221 13.291696,25.230495 11.500037,31.436501 z"
     style="fill:#404040;"/>
  </a>
 </g>
</svg>

<style type='text/css'>
<![CDATA[
[data-mouse-over-selected='false'] { opacity: 0.7; }
[data-mouse-over-selected='true']  { opacity: 1.0; }
]]>
</style>
<script type="application/ecmascript"><![CDATA[
document.addEventListener('DOMContentLoaded', (event) => {
  highlightEdges();
  highlightAdjacentNodes();
});
]]></script>
</svg>
