<?xml version="1.0" encoding="UTF-8" standalone="no"?>
<!DOCTYPE svg PUBLIC "-//W3C//DTD SVG 1.1//EN"
 "http://www.w3.org/Graphics/SVG/1.1/DTD/svg11.dtd">
<!-- Generated by graphviz version 2.43.0 (0)
 -->
<!-- Title: ARDOUR::Region Pages: 1 -->
<!--zoomable 224 -->

<svg id="main" version="1.1" xmlns="http://www.w3.org/2000/svg" xmlns:xlink="http://www.w3.org/1999/xlink" xml:space="preserve" onload="init(evt)">
<style type="text/css"><![CDATA[
.node, .edge {opacity: 0.7;}
.node.selected, .edge.selected {opacity: 1;}
.edge:hover path { stroke: red; }
.edge:hover polygon { stroke: red; fill: red; }
]]></style>

<defs>
  <circle id="rim" cx="0" cy="0" r="7"/>
  <circle id="rim2" cx="0" cy="0" r="3.5"/>
  <g id="zoomPlus">
    <use xlink:href="#rim" fill="#404040"><set attributeName="fill" to="#808080" begin="zoomplus.mouseover" end="zoomplus.mouseout"/></use>
    <path d="M-4,0h8M0,-4v8" fill="none" stroke="white" stroke-width="1.5" pointer-events="none"/>
  </g>
  <g id="zoomMin">
    <use xlink:href="#rim" fill="#404040"><set attributeName="fill" to="#808080" begin="zoomminus.mouseover" end="zoomminus.mouseout"/></use>
    <path d="M-4,0h8" fill="none" stroke="white" stroke-width="1.5" pointer-events="none"/>
  </g>
  <g id="arrowUp" transform="translate(30 24)">
    <use xlink:href="#rim"/>
    <path pointer-events="none" fill="none" stroke="white" stroke-width="1.5" d="M0,-3.0v7 M-2.5,-0.5L0,-3.0L2.5,-0.5"/>
  </g>
  <g id="arrowRight" transform="rotate(90) translate(36 -43)">
    <use xlink:href="#rim"/>
    <path pointer-events="none" fill="none" stroke="white" stroke-width="1.5" d="M0,-3.0v7 M-2.5,-0.5L0,-3.0L2.5,-0.5"/>
  </g>
  <g id="arrowDown" transform="rotate(180) translate(-30 -48)">
    <use xlink:href="#rim"/>
    <path pointer-events="none" fill="none" stroke="white" stroke-width="1.5" d="M0,-3.0v7 M-2.5,-0.5L0,-3.0L2.5,-0.5"/>
  </g>
  <g id="arrowLeft" transform="rotate(270) translate(-36 17)">
    <use xlink:href="#rim"/>
    <path pointer-events="none" fill="none" stroke="white" stroke-width="1.5" d="M0,-3.0v7 M-2.5,-0.5L0,-3.0L2.5,-0.5"/>
  </g>
  <g id="resetDef">
    <use xlink:href="#rim2" fill="#404040"><set attributeName="fill" to="#808080" begin="reset.mouseover" end="reset.mouseout"/></use>
  </g>
</defs>
<script type="application/ecmascript">
var viewWidth = 835;
var viewHeight = 224;
var sectionId = 'dynsection-0';
</script>
<script type="application/ecmascript" xlink:href="svg.min.js"/>
<svg id="graph" class="graph">
<g id="viewport">
<title>ARDOUR::Region</title>
<!-- Node1 -->
<g id="Node000001" class="node">
<title>Node1</title>
<g id="a_Node000001"><a xlink:title=" ">
<polygon fill="#999999" stroke="#666666" points="664,-99 565,-99 565,-80 664,-80 664,-99"/>
<text text-anchor="middle" x="614.5" y="-87" font-family="Helvetica,sans-Serif" font-size="10.00">ARDOUR::Region</text>
</a>
</g>
</g>
<!-- Node12 -->
<g id="Node000012" class="node">
<title>Node12</title>
<g id="a_Node000012"><a xlink:href="classARDOUR_1_1AudioRegion.html" target="_top" xlink:title=" ">
<polygon fill="white" stroke="#666666" points="827,-118 700,-118 700,-99 827,-99 827,-118"/>
<text text-anchor="middle" x="763.5" y="-106" font-family="Helvetica,sans-Serif" font-size="10.00">ARDOUR::AudioRegion</text>
</a>
</g>
</g>
<!-- Node1&#45;&gt;Node12 -->
<g id="edge12_Node000001_Node000012" class="edge">
<title>Node1&#45;&gt;Node12</title>
<g id="a_edge12_Node000001_Node000012"><a xlink:title=" ">
<path fill="none" stroke="#63b8ff" d="M674.17,-97.08C682.62,-98.18 691.34,-99.3 699.85,-100.4"/>
<polygon fill="#63b8ff" stroke="#63b8ff" points="674.41,-93.58 664.04,-95.77 673.51,-100.53 674.41,-93.58"/>
</a>
</g>
</g>
<!-- Node13 -->
<g id="Node000013" class="node">
<title>Node13</title>
<g id="a_Node000013"><a xlink:href="classARDOUR_1_1MidiRegion.html" target="_top" xlink:title=" ">
<polygon fill="white" stroke="#666666" points="823.5,-81 703.5,-81 703.5,-62 823.5,-62 823.5,-81"/>
<text text-anchor="middle" x="763.5" y="-69" font-family="Helvetica,sans-Serif" font-size="10.00">ARDOUR::MidiRegion</text>
</a>
</g>
</g>
<!-- Node1&#45;&gt;Node13 -->
<g id="edge13_Node000001_Node000013" class="edge">
<title>Node1&#45;&gt;Node13</title>
<g id="a_edge13_Node000001_Node000013"><a xlink:title=" ">
<path fill="none" stroke="#63b8ff" d="M674.24,-82.31C683.79,-81.14 693.69,-79.93 703.25,-78.75"/>
<polygon fill="#63b8ff" stroke="#63b8ff" points="673.54,-78.87 664.04,-83.56 674.39,-85.81 673.54,-78.87"/>
</a>
</g>
</g>
<!-- Node2 -->
<g id="Node000002" class="node">
<title>Node2</title>
<g id="a_Node000002"><a xlink:href="classARDOUR_1_1SessionObject.html" target="_top" xlink:title=" ">
<polygon fill="white" stroke="#666666" points="529,-180 395,-180 395,-161 529,-161 529,-180"/>
<text text-anchor="middle" x="462" y="-168" font-family="Helvetica,sans-Serif" font-size="10.00">ARDOUR::SessionObject</text>
</a>
</g>
</g>
<!-- Node2&#45;&gt;Node1 -->
<g id="edge1_Node000001_Node000002" class="edge">
<title>Node2&#45;&gt;Node1</title>
<g id="a_edge1_Node000001_Node000002"><a xlink:title=" ">
<path fill="none" stroke="#63b8ff" d="M503.67,-157.48C512.2,-154.27 521.03,-150.56 529,-146.5 556.28,-132.61 585.28,-111.46 601.21,-99.21"/>
<polygon fill="#63b8ff" stroke="#63b8ff" points="502.43,-154.21 494.22,-160.91 504.81,-160.79 502.43,-154.21"/>
</a>
</g>
</g>
<!-- Node3 -->
<g id="Node000003" class="node">
<title>Node3</title>
<g id="a_Node000003"><a xlink:href="classARDOUR_1_1SessionHandleRef.html" target="_top" xlink:title=" ">
<polygon fill="white" stroke="#666666" points="349.5,-216 195.5,-216 195.5,-197 349.5,-197 349.5,-216"/>
<text text-anchor="middle" x="272.5" y="-204" font-family="Helvetica,sans-Serif" font-size="10.00">ARDOUR::SessionHandleRef</text>
</a>
</g>
</g>
<!-- Node3&#45;&gt;Node2 -->
<g id="edge2_Node000002_Node000003" class="edge">
<title>Node3&#45;&gt;Node2</title>
<g id="a_edge2_Node000002_Node000003"><a xlink:title=" ">
<path fill="none" stroke="#63b8ff" d="M333.41,-195C358.54,-190.17 387.42,-184.63 411.34,-180.03"/>
<polygon fill="#63b8ff" stroke="#63b8ff" points="332.41,-191.62 323.25,-196.95 333.73,-198.5 332.41,-191.62"/>
</a>
</g>
</g>
<!-- Node4 -->
<g id="Node000004" class="node">
<title>Node4</title>
<g id="a_Node000004"><a xlink:href="classPBD_1_1ScopedConnectionList.html" target="_top" xlink:title=" ">
<polygon fill="white" stroke="#666666" points="150,-216 0,-216 0,-197 150,-197 150,-216"/>
<text text-anchor="middle" x="75" y="-204" font-family="Helvetica,sans-Serif" font-size="10.00">PBD::ScopedConnectionList</text>
</a>
</g>
</g>
<!-- Node4&#45;&gt;Node3 -->
<g id="edge3_Node000003_Node000004" class="edge">
<title>Node4&#45;&gt;Node3</title>
<g id="a_edge3_Node000003_Node000004"><a xlink:title=" ">
<path fill="none" stroke="#63b8ff" d="M160.35,-206.5C172,-206.5 183.92,-206.5 195.41,-206.5"/>
<polygon fill="#63b8ff" stroke="#63b8ff" points="160.19,-203 150.19,-206.5 160.19,-210 160.19,-203"/>
</a>
</g>
</g>
<!-- Node5 -->
<g id="Node000005" class="node">
<title>Node5</title>
<g id="a_Node000005"><a xlink:href="classPBD_1_1StatefulDestructible.html" target="_top" xlink:title=" ">
<polygon fill="white" stroke="#666666" points="342.5,-179 202.5,-179 202.5,-160 342.5,-160 342.5,-179"/>
<text text-anchor="middle" x="272.5" y="-167" font-family="Helvetica,sans-Serif" font-size="10.00">PBD::StatefulDestructible</text>
</a>
</g>
</g>
<!-- Node5&#45;&gt;Node2 -->
<g id="edge4_Node000002_Node000005" class="edge">
<title>Node5&#45;&gt;Node2</title>
<g id="a_edge4_Node000002_Node000005"><a xlink:title=" ">
<path fill="none" stroke="#63b8ff" d="M352.67,-169.92C366.75,-170 381.27,-170.07 394.93,-170.15"/>
<polygon fill="#63b8ff" stroke="#63b8ff" points="352.54,-166.42 342.52,-169.87 352.5,-173.42 352.54,-166.42"/>
</a>
</g>
</g>
<!-- Node6 -->
<g id="Node000006" class="node">
<title>Node6</title>
<g id="a_Node000006"><a xlink:href="classPBD_1_1Stateful.html" target="_top" xlink:title=" ">
<polygon fill="white" stroke="#666666" points="115.5,-179 34.5,-179 34.5,-160 115.5,-160 115.5,-179"/>
<text text-anchor="middle" x="75" y="-167" font-family="Helvetica,sans-Serif" font-size="10.00">PBD::Stateful</text>
</a>
</g>
</g>
<!-- Node6&#45;&gt;Node5 -->
<g id="edge5_Node000005_Node000006" class="edge">
<title>Node6&#45;&gt;Node5</title>
<g id="a_edge5_Node000005_Node000006"><a xlink:title=" ">
<path fill="none" stroke="#63b8ff" d="M125.87,-169.5C149.09,-169.5 177.1,-169.5 202.32,-169.5"/>
<polygon fill="#63b8ff" stroke="#63b8ff" points="125.56,-166 115.56,-169.5 125.56,-173 125.56,-166"/>
</a>
</g>
</g>
<!-- Node7 -->
<g id="Node000007" class="node">
<title>Node7</title>
<g id="a_Node000007"><a xlink:href="classPBD_1_1Destructible.html" target="_top" xlink:title=" ">
<polygon fill="white" stroke="#666666" points="126,-142 24,-142 24,-123 126,-123 126,-142"/>
<text text-anchor="middle" x="75" y="-130" font-family="Helvetica,sans-Serif" font-size="10.00">PBD::Destructible</text>
</a>
</g>
</g>
<!-- Node7&#45;&gt;Node5 -->
<g id="edge6_Node000005_Node000007" class="edge">
<title>Node7&#45;&gt;Node5</title>
<g id="a_edge6_Node000005_Node000007"><a xlink:title=" ">
<path fill="none" stroke="#63b8ff" d="M135.92,-143.84C163.22,-149.01 195.17,-155.05 221.2,-159.98"/>
<polygon fill="#63b8ff" stroke="#63b8ff" points="136.57,-140.4 126.09,-141.98 135.27,-147.28 136.57,-140.4"/>
</a>
</g>
</g>
<!-- Node11 -->
<g id="Node000011" class="node">
<title>Node11</title>
<g id="a_Node000011"><a xlink:href="structTemporal_1_1TimeDomainSwapper.html" target="_top" xlink:title=" ">
<polygon fill="white" stroke="#666666" points="359,-142 186,-142 186,-123 359,-123 359,-142"/>
<text text-anchor="middle" x="272.5" y="-130" font-family="Helvetica,sans-Serif" font-size="10.00">Temporal::TimeDomainSwapper</text>
</a>
</g>
</g>
<!-- Node7&#45;&gt;Node11 -->
<g id="edge11_Node000011_Node000007" class="edge">
<title>Node7&#45;&gt;Node11</title>
<g id="a_edge11_Node000011_Node000007"><a xlink:title=" ">
<path fill="none" stroke="#63b8ff" d="M136.17,-132.5C151.88,-132.5 169.11,-132.5 185.86,-132.5"/>
<polygon fill="#63b8ff" stroke="#63b8ff" points="136.09,-129 126.09,-132.5 136.09,-136 136.09,-129"/>
</a>
</g>
</g>
<!-- Node8 -->
<g id="Node000008" class="node">
<title>Node8</title>
<g id="a_Node000008"><a xlink:title=" ">
<polygon fill="white" stroke="#666666" points="524.5,-104.5 399.5,-104.5 399.5,-74.5 524.5,-74.5 524.5,-104.5"/>
<text text-anchor="start" x="407.5" y="-92.5" font-family="Helvetica,sans-Serif" font-size="10.00">std::enable_shared</text>
<text text-anchor="middle" x="462" y="-81.5" font-family="Helvetica,sans-Serif" font-size="10.00">_from_this&lt; Region &gt;</text>
</a>
</g>
</g>
<!-- Node8&#45;&gt;Node1 -->
<g id="edge7_Node000001_Node000008" class="edge">
<title>Node8&#45;&gt;Node1</title>
<g id="a_edge7_Node000001_Node000008"><a xlink:title=" ">
<path fill="none" stroke="#63b8ff" d="M534.72,-89.5C544.84,-89.5 555.05,-89.5 564.61,-89.5"/>
<polygon fill="#63b8ff" stroke="#63b8ff" points="534.65,-86 524.65,-89.5 534.65,-93 534.65,-86"/>
</a>
</g>
</g>
<!-- Node9 -->
<g id="Node000009" class="node">
<title>Node9</title>
<g id="a_Node000009"><a xlink:href="classARDOUR_1_1Trimmable.html" target="_top" xlink:title=" ">
<polygon fill="white" stroke="#666666" points="520.5,-56 403.5,-56 403.5,-37 520.5,-37 520.5,-56"/>
<text text-anchor="middle" x="462" y="-44" font-family="Helvetica,sans-Serif" font-size="10.00">ARDOUR::Trimmable</text>
</a>
</g>
</g>
<!-- Node9&#45;&gt;Node1 -->
<g id="edge8_Node000001_Node000009" class="edge">
<title>Node9&#45;&gt;Node1</title>
<g id="a_edge8_Node000001_Node000009"><a xlink:title=" ">
<path fill="none" stroke="#63b8ff" d="M506.14,-58.83C529.68,-65.55 558.39,-73.75 580.19,-79.98"/>
<polygon fill="#63b8ff" stroke="#63b8ff" points="506.98,-55.43 496.4,-56.04 505.05,-62.16 506.98,-55.43"/>
</a>
</g>
</g>
<!-- Node10 -->
<g id="Node000010" class="node">
<title>Node10</title>
<g id="a_Node000010"><a xlink:href="classARDOUR_1_1Movable.html" target="_top" xlink:title=" ">
<polygon fill="white" stroke="#666666" points="515.5,-19 408.5,-19 408.5,0 515.5,0 515.5,-19"/>
<text text-anchor="middle" x="462" y="-7" font-family="Helvetica,sans-Serif" font-size="10.00">ARDOUR::Movable</text>
</a>
</g>
</g>
<!-- Node10&#45;&gt;Node1 -->
<g id="edge9_Node000001_Node000010" class="edge">
<title>Node10&#45;&gt;Node1</title>
<g id="a_edge9_Node000001_Node000010"><a xlink:title=" ">
<path fill="none" stroke="#63b8ff" d="M516.37,-22.21C520.72,-23.8 524.98,-25.56 529,-27.5 558.33,-41.66 587.96,-66.33 603.13,-79.89"/>
<polygon fill="#63b8ff" stroke="#63b8ff" points="517.38,-18.86 506.79,-19 515.16,-25.5 517.38,-18.86"/>
</a>
</g>
</g>
<!-- Node11&#45;&gt;Node1 -->
<g id="edge10_Node000001_Node000011" class="edge">
<title>Node11&#45;&gt;Node1</title>
<g id="a_edge10_Node000001_Node000011"><a xlink:title=" ">
<path fill="none" stroke="#63b8ff" d="M369.32,-129.97C417.51,-127.54 476.66,-122.78 529,-113.5 548.07,-110.12 569.02,-104.19 585.28,-99.06"/>
<polygon fill="#63b8ff" stroke="#63b8ff" points="369.03,-126.48 359.2,-130.45 369.36,-133.47 369.03,-126.48"/>
</a>
</g>
</g>
</g>
</svg>

<g id="navigator" transform="translate(0 0)" fill="#404254">
  <rect fill="#f2f5e9" fill-opacity="0.5" stroke="#606060" stroke-width=".5" x="0" y="0" width="60" height="60"/>
  <use id="zoomplus" xlink:href="#zoomPlus" x="17" y="9" onmousedown="handleZoom(evt,'in')"/>
  <use id="zoomminus" xlink:href="#zoomMin" x="42" y="9" onmousedown="handleZoom(evt,'out')"/>
  <use id="reset" xlink:href="#resetDef" x="30" y="36" onmousedown="handleReset()"/>
   <use id="arrowup" xlink:href="#arrowUp" x="0" y="0" onmousedown="handlePan(0,-1)"/>
  <use id="arrowright" xlink:href="#arrowRight" x="0" y="0" onmousedown="handlePan(1,0)"/>
  <use id="arrowdown" xlink:href="#arrowDown" x="0" y="0" onmousedown="handlePan(0,1)"/>
  <use id="arrowleft" xlink:href="#arrowLeft" x="0" y="0" onmousedown="handlePan(-1,0)"/>
</g>
<svg viewBox="0 0 15 15" width="100%" height="30px" preserveAspectRatio="xMaxYMin meet">
 <g id="arrow_out" transform="scale(0.3 0.3)">
  <a xlink:href="classARDOUR_1_1Region__inherit__graph_org.svg" target="_base">
   <rect id="button" ry="5" rx="5" y="6" x="6" height="38" width="38"
        fill="#f2f5e9" fill-opacity="0.5" stroke="#606060" stroke-width="1.0"/>
   <path id="arrow"
     d="M 11.500037,31.436501 C 11.940474,20.09759 22.043105,11.32322 32.158766,21.979434 L 37.068811,17.246167 C 37.068811,17.246167 37.088388,32 37.088388,32 L 22.160133,31.978069 C 22.160133,31.978069 26.997745,27.140456 26.997745,27.140456 C 18.528582,18.264221 13.291696,25.230495 11.500037,31.436501 z"
     style="fill:#404040;"/>
  </a>
 </g>
</svg>

<style type='text/css'>
<![CDATA[
[data-mouse-over-selected='false'] { opacity: 0.7; }
[data-mouse-over-selected='true']  { opacity: 1.0; }
]]>
</style>
<script type="application/ecmascript"><![CDATA[
document.addEventListener('DOMContentLoaded', (event) => {
  highlightEdges();
  highlightAdjacentNodes();
});
]]></script>
</svg>
