<?xml version="1.0" encoding="UTF-8" standalone="no"?>
<!DOCTYPE svg PUBLIC "-//W3C//DTD SVG 1.1//EN"
 "http://www.w3.org/Graphics/SVG/1.1/DTD/svg11.dtd">
<!-- Generated by graphviz version 2.43.0 (0)
 -->
<!-- Title: ARDOUR::AudioSource Pages: 1 -->
<!--zoomable 212 -->

<svg id="main" version="1.1" xmlns="http://www.w3.org/2000/svg" xmlns:xlink="http://www.w3.org/1999/xlink" xml:space="preserve" onload="init(evt)">
<style type="text/css"><![CDATA[
.node, .edge {opacity: 0.7;}
.node.selected, .edge.selected {opacity: 1;}
.edge:hover path { stroke: red; }
.edge:hover polygon { stroke: red; fill: red; }
]]></style>

<defs>
  <circle id="rim" cx="0" cy="0" r="7"/>
  <circle id="rim2" cx="0" cy="0" r="3.5"/>
  <g id="zoomPlus">
    <use xlink:href="#rim" fill="#404040"><set attributeName="fill" to="#808080" begin="zoomplus.mouseover" end="zoomplus.mouseout"/></use>
    <path d="M-4,0h8M0,-4v8" fill="none" stroke="white" stroke-width="1.5" pointer-events="none"/>
  </g>
  <g id="zoomMin">
    <use xlink:href="#rim" fill="#404040"><set attributeName="fill" to="#808080" begin="zoomminus.mouseover" end="zoomminus.mouseout"/></use>
    <path d="M-4,0h8" fill="none" stroke="white" stroke-width="1.5" pointer-events="none"/>
  </g>
  <g id="arrowUp" transform="translate(30 24)">
    <use xlink:href="#rim"/>
    <path pointer-events="none" fill="none" stroke="white" stroke-width="1.5" d="M0,-3.0v7 M-2.5,-0.5L0,-3.0L2.5,-0.5"/>
  </g>
  <g id="arrowRight" transform="rotate(90) translate(36 -43)">
    <use xlink:href="#rim"/>
    <path pointer-events="none" fill="none" stroke="white" stroke-width="1.5" d="M0,-3.0v7 M-2.5,-0.5L0,-3.0L2.5,-0.5"/>
  </g>
  <g id="arrowDown" transform="rotate(180) translate(-30 -48)">
    <use xlink:href="#rim"/>
    <path pointer-events="none" fill="none" stroke="white" stroke-width="1.5" d="M0,-3.0v7 M-2.5,-0.5L0,-3.0L2.5,-0.5"/>
  </g>
  <g id="arrowLeft" transform="rotate(270) translate(-36 17)">
    <use xlink:href="#rim"/>
    <path pointer-events="none" fill="none" stroke="white" stroke-width="1.5" d="M0,-3.0v7 M-2.5,-0.5L0,-3.0L2.5,-0.5"/>
  </g>
  <g id="resetDef">
    <use xlink:href="#rim2" fill="#404040"><set attributeName="fill" to="#808080" begin="reset.mouseover" end="reset.mouseout"/></use>
  </g>
</defs>
<script type="application/ecmascript">
var viewWidth = 1245;
var viewHeight = 212;
var sectionId = 'dynsection-0';
</script>
<script type="application/ecmascript" xlink:href="svg.min.js"/>
<svg id="graph" class="graph">
<g id="viewport">
<title>ARDOUR::AudioSource</title>
<!-- Node1 -->
<g id="Node000001" class="node">
<title>Node1</title>
<g id="a_Node000001"><a xlink:title=" ">
<polygon fill="#999999" stroke="#666666" points="847,-92 721,-92 721,-73 847,-73 847,-92"/>
<text text-anchor="middle" x="784" y="-80" font-family="Helvetica,sans-Serif" font-size="10.00">ARDOUR::AudioSource</text>
</a>
</g>
</g>
<!-- Node11 -->
<g id="Node000011" class="node">
<title>Node11</title>
<g id="a_Node000011"><a xlink:href="classARDOUR_1_1AudioFileSource.html" target="_top" xlink:title=" ">
<polygon fill="white" stroke="#666666" points="1035.5,-111 892.5,-111 892.5,-92 1035.5,-92 1035.5,-111"/>
<text text-anchor="middle" x="964" y="-99" font-family="Helvetica,sans-Serif" font-size="10.00">ARDOUR::AudioFileSource</text>
</a>
</g>
</g>
<!-- Node1&#45;&gt;Node11 -->
<g id="edge10_Node000001_Node000011" class="edge">
<title>Node1&#45;&gt;Node11</title>
<g id="a_edge10_Node000001_Node000011"><a xlink:title=" ">
<path fill="none" stroke="#63b8ff" d="M857.28,-90.22C868.82,-91.45 880.75,-92.72 892.25,-93.95"/>
<polygon fill="#63b8ff" stroke="#63b8ff" points="857.57,-86.73 847.26,-89.15 856.83,-93.69 857.57,-86.73"/>
</a>
</g>
</g>
<!-- Node18 -->
<g id="Node000018" class="node">
<title>Node18</title>
<g id="a_Node000018"><a xlink:href="classARDOUR_1_1AudioPlaylistSource.html" target="_top" xlink:title=" ">
<polygon fill="white" stroke="#666666" points="1045,-74 883,-74 883,-55 1045,-55 1045,-74"/>
<text text-anchor="middle" x="964" y="-62" font-family="Helvetica,sans-Serif" font-size="10.00">ARDOUR::AudioPlaylistSource</text>
</a>
</g>
</g>
<!-- Node1&#45;&gt;Node18 -->
<g id="edge17_Node000001_Node000018" class="edge">
<title>Node1&#45;&gt;Node18</title>
<g id="a_edge17_Node000001_Node000018"><a xlink:title=" ">
<path fill="none" stroke="#63b8ff" d="M857.4,-75.18C865.81,-74.33 874.43,-73.46 882.95,-72.6"/>
<polygon fill="#63b8ff" stroke="#63b8ff" points="856.85,-71.72 847.26,-76.2 857.56,-78.68 856.85,-71.72"/>
</a>
</g>
</g>
<!-- Node2 -->
<g id="Node000002" class="node">
<title>Node2</title>
<g id="a_Node000002"><a xlink:href="classARDOUR_1_1Source.html" target="_top" xlink:title=" ">
<polygon fill="white" stroke="#666666" points="664.5,-111 566.5,-111 566.5,-92 664.5,-92 664.5,-111"/>
<text text-anchor="middle" x="615.5" y="-99" font-family="Helvetica,sans-Serif" font-size="10.00">ARDOUR::Source</text>
</a>
</g>
</g>
<!-- Node2&#45;&gt;Node1 -->
<g id="edge1_Node000001_Node000002" class="edge">
<title>Node2&#45;&gt;Node1</title>
<g id="a_edge1_Node000001_Node000002"><a xlink:title=" ">
<path fill="none" stroke="#63b8ff" d="M674.79,-94.85C689.73,-93.14 705.85,-91.3 720.98,-89.58"/>
<polygon fill="#63b8ff" stroke="#63b8ff" points="674.2,-91.39 664.66,-96 674.99,-98.35 674.2,-91.39"/>
</a>
</g>
</g>
<!-- Node3 -->
<g id="Node000003" class="node">
<title>Node3</title>
<g id="a_Node000003"><a xlink:href="classARDOUR_1_1SessionObject.html" target="_top" xlink:title=" ">
<polygon fill="white" stroke="#666666" points="510,-135 376,-135 376,-116 510,-116 510,-135"/>
<text text-anchor="middle" x="443" y="-123" font-family="Helvetica,sans-Serif" font-size="10.00">ARDOUR::SessionObject</text>
</a>
</g>
</g>
<!-- Node3&#45;&gt;Node2 -->
<g id="edge2_Node000002_Node000003" class="edge">
<title>Node3&#45;&gt;Node2</title>
<g id="a_edge2_Node000002_Node000003"><a xlink:title=" ">
<path fill="none" stroke="#63b8ff" d="M520.59,-114.72C536.2,-112.52 552.21,-110.27 566.48,-108.26"/>
<polygon fill="#63b8ff" stroke="#63b8ff" points="519.82,-111.29 510.41,-116.15 520.8,-118.22 519.82,-111.29"/>
</a>
</g>
</g>
<!-- Node4 -->
<g id="Node000004" class="node">
<title>Node4</title>
<g id="a_Node000004"><a xlink:href="classARDOUR_1_1SessionHandleRef.html" target="_top" xlink:title=" ">
<polygon fill="white" stroke="#666666" points="340,-153 186,-153 186,-134 340,-134 340,-153"/>
<text text-anchor="middle" x="263" y="-141" font-family="Helvetica,sans-Serif" font-size="10.00">ARDOUR::SessionHandleRef</text>
</a>
</g>
</g>
<!-- Node4&#45;&gt;Node3 -->
<g id="edge3_Node000003_Node000004" class="edge">
<title>Node4&#45;&gt;Node3</title>
<g id="a_edge3_Node000003_Node000004"><a xlink:title=" ">
<path fill="none" stroke="#63b8ff" d="M350.11,-134.79C358.74,-133.92 367.41,-133.04 375.8,-132.19"/>
<polygon fill="#63b8ff" stroke="#63b8ff" points="349.6,-131.33 340,-135.81 350.31,-138.29 349.6,-131.33"/>
</a>
</g>
</g>
<!-- Node5 -->
<g id="Node000005" class="node">
<title>Node5</title>
<g id="a_Node000005"><a xlink:href="classPBD_1_1ScopedConnectionList.html" target="_top" xlink:title=" ">
<polygon fill="white" stroke="#666666" points="150,-153 0,-153 0,-134 150,-134 150,-153"/>
<text text-anchor="middle" x="75" y="-141" font-family="Helvetica,sans-Serif" font-size="10.00">PBD::ScopedConnectionList</text>
</a>
</g>
</g>
<!-- Node5&#45;&gt;Node4 -->
<g id="edge4_Node000004_Node000005" class="edge">
<title>Node5&#45;&gt;Node4</title>
<g id="a_edge4_Node000004_Node000005"><a xlink:title=" ">
<path fill="none" stroke="#63b8ff" d="M160.32,-143.5C168.8,-143.5 177.38,-143.5 185.77,-143.5"/>
<polygon fill="#63b8ff" stroke="#63b8ff" points="160.05,-140 150.05,-143.5 160.05,-147 160.05,-140"/>
</a>
</g>
</g>
<!-- Node6 -->
<g id="Node000006" class="node">
<title>Node6</title>
<g id="a_Node000006"><a xlink:href="classPBD_1_1StatefulDestructible.html" target="_top" xlink:title=" ">
<polygon fill="white" stroke="#666666" points="333,-116 193,-116 193,-97 333,-97 333,-116"/>
<text text-anchor="middle" x="263" y="-104" font-family="Helvetica,sans-Serif" font-size="10.00">PBD::StatefulDestructible</text>
</a>
</g>
</g>
<!-- Node6&#45;&gt;Node3 -->
<g id="edge5_Node000003_Node000006" class="edge">
<title>Node6&#45;&gt;Node3</title>
<g id="a_edge5_Node000003_Node000006"><a xlink:title=" ">
<path fill="none" stroke="#63b8ff" d="M343.06,-114.94C354.03,-116.11 365.19,-117.3 375.89,-118.44"/>
<polygon fill="#63b8ff" stroke="#63b8ff" points="343.39,-111.45 333.07,-113.87 342.65,-118.41 343.39,-111.45"/>
</a>
</g>
</g>
<!-- Node7 -->
<g id="Node000007" class="node">
<title>Node7</title>
<g id="a_Node000007"><a xlink:href="classPBD_1_1Stateful.html" target="_top" xlink:title=" ">
<polygon fill="white" stroke="#666666" points="115.5,-116 34.5,-116 34.5,-97 115.5,-97 115.5,-116"/>
<text text-anchor="middle" x="75" y="-104" font-family="Helvetica,sans-Serif" font-size="10.00">PBD::Stateful</text>
</a>
</g>
</g>
<!-- Node7&#45;&gt;Node6 -->
<g id="edge6_Node000006_Node000007" class="edge">
<title>Node7&#45;&gt;Node6</title>
<g id="a_edge6_Node000006_Node000007"><a xlink:title=" ">
<path fill="none" stroke="#63b8ff" d="M125.98,-106.5C146.53,-106.5 170.67,-106.5 192.87,-106.5"/>
<polygon fill="#63b8ff" stroke="#63b8ff" points="125.9,-103 115.9,-106.5 125.9,-110 125.9,-103"/>
</a>
</g>
</g>
<!-- Node8 -->
<g id="Node000008" class="node">
<title>Node8</title>
<g id="a_Node000008"><a xlink:href="classPBD_1_1Destructible.html" target="_top" xlink:title=" ">
<polygon fill="white" stroke="#666666" points="126,-79 24,-79 24,-60 126,-60 126,-79"/>
<text text-anchor="middle" x="75" y="-67" font-family="Helvetica,sans-Serif" font-size="10.00">PBD::Destructible</text>
</a>
</g>
</g>
<!-- Node8&#45;&gt;Node6 -->
<g id="edge7_Node000006_Node000008" class="edge">
<title>Node8&#45;&gt;Node6</title>
<g id="a_edge7_Node000006_Node000008"><a xlink:title=" ">
<path fill="none" stroke="#63b8ff" d="M133.89,-81.02C159.6,-86.13 189.49,-92.08 213.94,-96.94"/>
<polygon fill="#63b8ff" stroke="#63b8ff" points="134.39,-77.55 123.9,-79.03 133.02,-84.41 134.39,-77.55"/>
</a>
</g>
</g>
<!-- Node9 -->
<g id="Node000009" class="node">
<title>Node9</title>
<g id="a_Node000009"><a xlink:title=" ">
<polygon fill="white" stroke="#666666" points="507,-98 379,-98 379,-57 507,-57 507,-98"/>
<text text-anchor="start" x="387" y="-86" font-family="Helvetica,sans-Serif" font-size="10.00">std::enable_shared</text>
<text text-anchor="start" x="387" y="-75" font-family="Helvetica,sans-Serif" font-size="10.00">_from_this&lt; ARDOUR::</text>
<text text-anchor="middle" x="443" y="-64" font-family="Helvetica,sans-Serif" font-size="10.00">Source &gt;</text>
</a>
</g>
</g>
<!-- Node9&#45;&gt;Node2 -->
<g id="edge8_Node000002_Node000009" class="edge">
<title>Node9&#45;&gt;Node2</title>
<g id="a_edge8_Node000002_Node000009"><a xlink:title=" ">
<path fill="none" stroke="#63b8ff" d="M517.26,-87.81C533.89,-90.15 551.14,-92.58 566.41,-94.73"/>
<polygon fill="#63b8ff" stroke="#63b8ff" points="517.39,-84.3 507,-86.37 516.42,-91.23 517.39,-84.3"/>
</a>
</g>
</g>
<!-- Node10 -->
<g id="Node000010" class="node">
<title>Node10</title>
<g id="a_Node000010"><a xlink:href="classARDOUR_1_1AudioReadable.html" target="_top" xlink:title=" ">
<polygon fill="white" stroke="#666666" points="685,-74 546,-74 546,-55 685,-55 685,-74"/>
<text text-anchor="middle" x="615.5" y="-62" font-family="Helvetica,sans-Serif" font-size="10.00">ARDOUR::AudioReadable</text>
</a>
</g>
</g>
<!-- Node10&#45;&gt;Node1 -->
<g id="edge9_Node000001_Node000010" class="edge">
<title>Node10&#45;&gt;Node1</title>
<g id="a_edge9_Node000001_Node000010"><a xlink:title=" ">
<path fill="none" stroke="#63b8ff" d="M695.23,-73.01C703.84,-73.94 712.51,-74.88 720.88,-75.78"/>
<polygon fill="#63b8ff" stroke="#63b8ff" points="695.5,-69.52 685.18,-71.93 694.75,-76.48 695.5,-69.52"/>
</a>
</g>
</g>
<!-- Node12 -->
<g id="Node000012" class="node">
<title>Node12</title>
<g id="a_Node000012"><a xlink:href="classARDOUR_1_1CoreAudioSource.html" target="_top" xlink:title=" ">
<polygon fill="white" stroke="#666666" points="1233.5,-204 1084.5,-204 1084.5,-185 1233.5,-185 1233.5,-204"/>
<text text-anchor="middle" x="1159" y="-192" font-family="Helvetica,sans-Serif" font-size="10.00">ARDOUR::CoreAudioSource</text>
</a>
</g>
</g>
<!-- Node11&#45;&gt;Node12 -->
<g id="edge11_Node000011_Node000012" class="edge">
<title>Node11&#45;&gt;Node12</title>
<g id="a_edge11_Node000011_Node000012"><a xlink:title=" ">
<path fill="none" stroke="#63b8ff" d="M984.71,-117.3C1006.88,-134.31 1044.56,-161.02 1081,-176.5 1088.83,-179.83 1097.39,-182.6 1105.86,-184.89"/>
<polygon fill="#63b8ff" stroke="#63b8ff" points="986.78,-114.48 976.74,-111.09 982.48,-120 986.78,-114.48"/>
</a>
</g>
</g>
<!-- Node13 -->
<g id="Node000013" class="node">
<title>Node13</title>
<g id="a_Node000013"><a xlink:href="classARDOUR_1_1FFMPEGFileSource.html" target="_top" xlink:title=" ">
<polygon fill="white" stroke="#666666" points="1237,-167 1081,-167 1081,-148 1237,-148 1237,-167"/>
<text text-anchor="middle" x="1159" y="-155" font-family="Helvetica,sans-Serif" font-size="10.00">ARDOUR::FFMPEGFileSource</text>
</a>
</g>
</g>
<!-- Node11&#45;&gt;Node13 -->
<g id="edge12_Node000011_Node000013" class="edge">
<title>Node11&#45;&gt;Node13</title>
<g id="a_edge12_Node000011_Node000013"><a xlink:title=" ">
<path fill="none" stroke="#63b8ff" d="M1001.56,-114.38C1024.28,-122.16 1054.16,-131.98 1081,-139.5 1091.71,-142.5 1103.35,-145.4 1114.26,-147.97"/>
<polygon fill="#63b8ff" stroke="#63b8ff" points="1002.58,-111.03 991.98,-111.08 1000.3,-117.65 1002.58,-111.03"/>
</a>
</g>
</g>
<!-- Node14 -->
<g id="Node000014" class="node">
<title>Node14</title>
<g id="a_Node000014"><a xlink:href="classARDOUR_1_1Mp3FileSource.html" target="_top" xlink:title=" ">
<polygon fill="white" stroke="#666666" points="1227.5,-130 1090.5,-130 1090.5,-111 1227.5,-111 1227.5,-130"/>
<text text-anchor="middle" x="1159" y="-118" font-family="Helvetica,sans-Serif" font-size="10.00">ARDOUR::Mp3FileSource</text>
</a>
</g>
</g>
<!-- Node11&#45;&gt;Node14 -->
<g id="edge13_Node000011_Node000014" class="edge">
<title>Node11&#45;&gt;Node14</title>
<g id="a_edge13_Node000011_Node000014"><a xlink:title=" ">
<path fill="none" stroke="#63b8ff" d="M1045.93,-109.47C1060.75,-110.93 1076.07,-112.43 1090.45,-113.85"/>
<polygon fill="#63b8ff" stroke="#63b8ff" points="1046.06,-105.96 1035.77,-108.47 1045.38,-112.93 1046.06,-105.96"/>
</a>
</g>
</g>
<!-- Node15 -->
<g id="Node000015" class="node">
<title>Node15</title>
<g id="a_Node000015"><a xlink:href="classARDOUR_1_1SilentFileSource.html" target="_top" xlink:title=" ">
<polygon fill="white" stroke="#666666" points="1230.5,-93 1087.5,-93 1087.5,-74 1230.5,-74 1230.5,-93"/>
<text text-anchor="middle" x="1159" y="-81" font-family="Helvetica,sans-Serif" font-size="10.00">ARDOUR::SilentFileSource</text>
</a>
</g>
</g>
<!-- Node11&#45;&gt;Node15 -->
<g id="edge14_Node000011_Node000015" class="edge">
<title>Node11&#45;&gt;Node15</title>
<g id="a_edge14_Node000011_Node000015"><a xlink:title=" ">
<path fill="none" stroke="#63b8ff" d="M1046.12,-93.93C1059.78,-92.66 1073.86,-91.35 1087.24,-90.1"/>
<polygon fill="#63b8ff" stroke="#63b8ff" points="1045.4,-90.49 1035.77,-94.9 1046.05,-97.46 1045.4,-90.49"/>
</a>
</g>
</g>
<!-- Node16 -->
<g id="Node000016" class="node">
<title>Node16</title>
<g id="a_Node000016"><a xlink:href="classARDOUR_1_1SndFileSource.html" target="_top" xlink:title=" ">
<polygon fill="white" stroke="#666666" points="1226,-56 1092,-56 1092,-37 1226,-37 1226,-56"/>
<text text-anchor="middle" x="1159" y="-44" font-family="Helvetica,sans-Serif" font-size="10.00">ARDOUR::SndFileSource</text>
</a>
</g>
</g>
<!-- Node11&#45;&gt;Node16 -->
<g id="edge15_Node000011_Node000016" class="edge">
<title>Node11&#45;&gt;Node16</title>
<g id="a_edge15_Node000011_Node000016"><a xlink:title=" ">
<path fill="none" stroke="#63b8ff" d="M1026.04,-89.39C1032.5,-87.63 1038.93,-85.66 1045,-83.5 1061.85,-77.49 1064.21,-71.68 1081,-65.5 1090.95,-61.84 1101.88,-58.66 1112.3,-56"/>
<polygon fill="#63b8ff" stroke="#63b8ff" points="1024.7,-86.12 1015.89,-92 1026.44,-92.9 1024.7,-86.12"/>
</a>
</g>
</g>
<!-- Node17 -->
<g id="Node000017" class="node">
<title>Node17</title>
<g id="a_Node000017"><a xlink:href="classARDOUR_1_1SrcFileSource.html" target="_top" xlink:title=" ">
<polygon fill="white" stroke="#666666" points="1224.5,-19 1093.5,-19 1093.5,0 1224.5,0 1224.5,-19"/>
<text text-anchor="middle" x="1159" y="-7" font-family="Helvetica,sans-Serif" font-size="10.00">ARDOUR::SrcFileSource</text>
</a>
</g>
</g>
<!-- Node11&#45;&gt;Node17 -->
<g id="edge16_Node000011_Node000017" class="edge">
<title>Node11&#45;&gt;Node17</title>
<g id="a_edge16_Node000011_Node000017"><a xlink:title=" ">
<path fill="none" stroke="#63b8ff" d="M1038.28,-87.64C1040.61,-86.38 1042.86,-85 1045,-83.5 1069.25,-66.54 1056.83,-44.56 1081,-27.5 1085.82,-24.1 1091.2,-21.33 1096.8,-19.08"/>
<polygon fill="#63b8ff" stroke="#63b8ff" points="1036.56,-84.58 1028.98,-91.98 1039.52,-90.93 1036.56,-84.58"/>
</a>
</g>
</g>
</g>
</svg>

<g id="navigator" transform="translate(0 0)" fill="#404254">
  <rect fill="#f2f5e9" fill-opacity="0.5" stroke="#606060" stroke-width=".5" x="0" y="0" width="60" height="60"/>
  <use id="zoomplus" xlink:href="#zoomPlus" x="17" y="9" onmousedown="handleZoom(evt,'in')"/>
  <use id="zoomminus" xlink:href="#zoomMin" x="42" y="9" onmousedown="handleZoom(evt,'out')"/>
  <use id="reset" xlink:href="#resetDef" x="30" y="36" onmousedown="handleReset()"/>
   <use id="arrowup" xlink:href="#arrowUp" x="0" y="0" onmousedown="handlePan(0,-1)"/>
  <use id="arrowright" xlink:href="#arrowRight" x="0" y="0" onmousedown="handlePan(1,0)"/>
  <use id="arrowdown" xlink:href="#arrowDown" x="0" y="0" onmousedown="handlePan(0,1)"/>
  <use id="arrowleft" xlink:href="#arrowLeft" x="0" y="0" onmousedown="handlePan(-1,0)"/>
</g>
<svg viewBox="0 0 15 15" width="100%" height="30px" preserveAspectRatio="xMaxYMin meet">
 <g id="arrow_out" transform="scale(0.3 0.3)">
  <a xlink:href="classARDOUR_1_1AudioSource__inherit__graph_org.svg" target="_base">
   <rect id="button" ry="5" rx="5" y="6" x="6" height="38" width="38"
        fill="#f2f5e9" fill-opacity="0.5" stroke="#606060" stroke-width="1.0"/>
   <path id="arrow"
     d="M 11.500037,31.436501 C 11.940474,20.09759 22.043105,11.32322 32.158766,21.979434 L 37.068811,17.246167 C 37.068811,17.246167 37.088388,32 37.088388,32 L 22.160133,31.978069 C 22.160133,31.978069 26.997745,27.140456 26.997745,27.140456 C 18.528582,18.264221 13.291696,25.230495 11.500037,31.436501 z"
     style="fill:#404040;"/>
  </a>
 </g>
</svg>

<style type='text/css'>
<![CDATA[
[data-mouse-over-selected='false'] { opacity: 0.7; }
[data-mouse-over-selected='true']  { opacity: 1.0; }
]]>
</style>
<script type="application/ecmascript"><![CDATA[
document.addEventListener('DOMContentLoaded', (event) => {
  highlightEdges();
  highlightAdjacentNodes();
});
]]></script>
</svg>
