<?xml version="1.0" encoding="UTF-8" standalone="no"?>
<!DOCTYPE svg PUBLIC "-//W3C//DTD SVG 1.1//EN"
 "http://www.w3.org/Graphics/SVG/1.1/DTD/svg11.dtd">
<!-- Generated by graphviz version 2.43.0 (0)
 -->
<!-- Title: ARDOUR::EventRingBuffer&lt; Time &gt; Pages: 1 -->
<svg width="250pt" height="170pt"
 viewBox="0.00 0.00 249.50 170.00" xmlns="http://www.w3.org/2000/svg" xmlns:xlink="http://www.w3.org/1999/xlink">
<g id="graph0" class="graph" transform="scale(1 1) rotate(0) translate(4 166)">
<title>ARDOUR::EventRingBuffer&lt; Time &gt;</title>
<!-- Node1 -->
<g id="Node000001" class="node">
<title>Node1</title>
<g id="a_Node000001"><a xlink:title=" ">
<polygon fill="#999999" stroke="#666666" points="193.5,-96 49.5,-96 49.5,-66 193.5,-66 193.5,-96"/>
<text text-anchor="start" x="57.5" y="-84" font-family="Helvetica,sans-Serif" font-size="10.00">ARDOUR::EventRingBuffer</text>
<text text-anchor="middle" x="121.5" y="-73" font-family="Helvetica,sans-Serif" font-size="10.00">&lt; Time &gt;</text>
</a>
</g>
</g>
<!-- Node4 -->
<g id="Node000004" class="node">
<title>Node4</title>
<g id="a_Node000004"><a xlink:href="classARDOUR_1_1MidiRingBuffer.html" target="_top" xlink:title=" ">
<polygon fill="white" stroke="#666666" points="190,-30 53,-30 53,0 190,0 190,-30"/>
<text text-anchor="start" x="61" y="-18" font-family="Helvetica,sans-Serif" font-size="10.00">ARDOUR::MidiRingBuffer</text>
<text text-anchor="middle" x="121.5" y="-7" font-family="Helvetica,sans-Serif" font-size="10.00">&lt; samplepos_t &gt;</text>
</a>
</g>
</g>
<!-- Node1&#45;&gt;Node4 -->
<g id="edge3_Node000001_Node000004" class="edge">
<title>Node1&#45;&gt;Node4</title>
<g id="a_edge3_Node000001_Node000004"><a xlink:title=" ">
<path fill="none" stroke="#63b8ff" d="M121.5,-55.54C121.5,-46.96 121.5,-37.61 121.5,-30.16"/>
<polygon fill="#63b8ff" stroke="#63b8ff" points="118,-55.8 121.5,-65.8 125,-55.8 118,-55.8"/>
</a>
</g>
</g>
<!-- Node2 -->
<g id="Node000002" class="node">
<title>Node2</title>
<g id="a_Node000002"><a xlink:href="classPBD_1_1RingBufferNPT.html" target="_top" xlink:title=" ">
<polygon fill="white" stroke="#666666" points="113,-162 0,-162 0,-132 113,-132 113,-162"/>
<text text-anchor="start" x="8" y="-150" font-family="Helvetica,sans-Serif" font-size="10.00">PBD::RingBufferNPT</text>
<text text-anchor="middle" x="56.5" y="-139" font-family="Helvetica,sans-Serif" font-size="10.00">&lt; uint8_t &gt;</text>
</a>
</g>
</g>
<!-- Node2&#45;&gt;Node1 -->
<g id="edge1_Node000001_Node000002" class="edge">
<title>Node2&#45;&gt;Node1</title>
<g id="a_edge1_Node000001_Node000002"><a xlink:title=" ">
<path fill="none" stroke="#63b8ff" d="M78.19,-124.65C87.71,-115.27 98.62,-104.53 107.11,-96.16"/>
<polygon fill="#63b8ff" stroke="#63b8ff" points="75.6,-122.29 70.93,-131.8 80.51,-127.27 75.6,-122.29"/>
</a>
</g>
</g>
<!-- Node3 -->
<g id="Node000003" class="node">
<title>Node3</title>
<g id="a_Node000003"><a xlink:href="classEvoral_1_1EventSink.html" target="_top" xlink:title=" ">
<polygon fill="white" stroke="#666666" points="241.5,-162 131.5,-162 131.5,-132 241.5,-132 241.5,-162"/>
<text text-anchor="start" x="139.5" y="-150" font-family="Helvetica,sans-Serif" font-size="10.00">Evoral::EventSink&lt;</text>
<text text-anchor="middle" x="186.5" y="-139" font-family="Helvetica,sans-Serif" font-size="10.00"> Time &gt;</text>
</a>
</g>
</g>
<!-- Node3&#45;&gt;Node1 -->
<g id="edge2_Node000001_Node000003" class="edge">
<title>Node3&#45;&gt;Node1</title>
<g id="a_edge2_Node000001_Node000003"><a xlink:title=" ">
<path fill="none" stroke="#63b8ff" d="M164.81,-124.65C155.29,-115.27 144.38,-104.53 135.89,-96.16"/>
<polygon fill="#63b8ff" stroke="#63b8ff" points="162.49,-127.27 172.07,-131.8 167.4,-122.29 162.49,-127.27"/>
</a>
</g>
</g>
</g>
</svg>
