<?xml version="1.0" encoding="UTF-8" standalone="no"?>
<!DOCTYPE svg PUBLIC "-//W3C//DTD SVG 1.1//EN"
 "http://www.w3.org/Graphics/SVG/1.1/DTD/svg11.dtd">
<!-- Generated by graphviz version 2.43.0 (0)
 -->
<!-- Title: ViewBackground Pages: 1 -->
<svg width="536pt" height="192pt"
 viewBox="0.00 0.00 535.50 192.00" xmlns="http://www.w3.org/2000/svg" xmlns:xlink="http://www.w3.org/1999/xlink">
<g id="graph0" class="graph" transform="scale(1 1) rotate(0) translate(4 188)">
<title>ViewBackground</title>
<!-- Node1 -->
<g id="Node000001" class="node">
<title>Node1</title>
<g id="a_Node000001"><a xlink:title=" ">
<polygon fill="#999999" stroke="#666666" points="312,-129 214,-129 214,-110 312,-110 312,-129"/>
<text text-anchor="middle" x="263" y="-117" font-family="Helvetica,sans-Serif" font-size="10.00">ViewBackground</text>
</a>
</g>
</g>
<!-- Node3 -->
<g id="Node000003" class="node">
<title>Node3</title>
<g id="a_Node000003"><a xlink:href="classMidiViewBackground.html" target="_top" xlink:title=" ">
<polygon fill="white" stroke="#666666" points="264.5,-74 145.5,-74 145.5,-55 264.5,-55 264.5,-74"/>
<text text-anchor="middle" x="205" y="-62" font-family="Helvetica,sans-Serif" font-size="10.00">MidiViewBackground</text>
</a>
</g>
</g>
<!-- Node1&#45;&gt;Node3 -->
<g id="edge2_Node000001_Node000003" class="edge">
<title>Node1&#45;&gt;Node3</title>
<g id="a_edge2_Node000001_Node000003"><a xlink:title=" ">
<path fill="none" stroke="#63b8ff" d="M246.09,-103.04C235.8,-93.64 223.03,-81.98 214.49,-74.17"/>
<polygon fill="#63b8ff" stroke="#63b8ff" points="243.94,-105.82 253.68,-109.98 248.66,-100.66 243.94,-105.82"/>
</a>
</g>
</g>
<!-- Node6 -->
<g id="Node000006" class="node">
<title>Node6</title>
<g id="a_Node000006"><a xlink:href="classStreamView.html" target="_top" xlink:title=" ">
<polygon fill="white" stroke="#666666" points="360,-74 284,-74 284,-55 360,-55 360,-74"/>
<text text-anchor="middle" x="322" y="-62" font-family="Helvetica,sans-Serif" font-size="10.00">StreamView</text>
</a>
</g>
</g>
<!-- Node1&#45;&gt;Node6 -->
<g id="edge5_Node000001_Node000006" class="edge">
<title>Node1&#45;&gt;Node6</title>
<g id="a_edge5_Node000001_Node000006"><a xlink:title=" ">
<path fill="none" stroke="#63b8ff" d="M280.2,-103.04C290.67,-93.64 303.65,-81.98 312.35,-74.17"/>
<polygon fill="#63b8ff" stroke="#63b8ff" points="277.58,-100.7 272.48,-109.98 282.26,-105.91 277.58,-100.7"/>
</a>
</g>
</g>
<!-- Node2 -->
<g id="Node000002" class="node">
<title>Node2</title>
<g id="a_Node000002"><a xlink:title=" ">
<polygon fill="white" stroke="#666666" points="306.5,-184 219.5,-184 219.5,-165 306.5,-165 306.5,-184"/>
<text text-anchor="middle" x="263" y="-172" font-family="Helvetica,sans-Serif" font-size="10.00">sigc::trackable</text>
</a>
</g>
</g>
<!-- Node2&#45;&gt;Node1 -->
<g id="edge1_Node000001_Node000002" class="edge">
<title>Node2&#45;&gt;Node1</title>
<g id="a_edge1_Node000001_Node000002"><a xlink:title=" ">
<path fill="none" stroke="#63b8ff" d="M263,-154.66C263,-145.93 263,-135.99 263,-129.09"/>
<polygon fill="#63b8ff" stroke="#63b8ff" points="259.5,-154.75 263,-164.75 266.5,-154.75 259.5,-154.75"/>
</a>
</g>
</g>
<!-- Node4 -->
<g id="Node000004" class="node">
<title>Node4</title>
<g id="a_Node000004"><a xlink:href="classMidiStreamView.html" target="_top" xlink:title=" ">
<polygon fill="white" stroke="#666666" points="253.5,-19 156.5,-19 156.5,0 253.5,0 253.5,-19"/>
<text text-anchor="middle" x="205" y="-7" font-family="Helvetica,sans-Serif" font-size="10.00">MidiStreamView</text>
</a>
</g>
</g>
<!-- Node3&#45;&gt;Node4 -->
<g id="edge3_Node000003_Node000004" class="edge">
<title>Node3&#45;&gt;Node4</title>
<g id="a_edge3_Node000003_Node000004"><a xlink:title=" ">
<path fill="none" stroke="#63b8ff" d="M205,-44.66C205,-35.93 205,-25.99 205,-19.09"/>
<polygon fill="#63b8ff" stroke="#63b8ff" points="201.5,-44.75 205,-54.75 208.5,-44.75 201.5,-44.75"/>
</a>
</g>
</g>
<!-- Node5 -->
<g id="Node000005" class="node">
<title>Node5</title>
<g id="a_Node000005"><a xlink:href="classPianorollMidiBackground.html" target="_top" xlink:title=" ">
<polygon fill="white" stroke="#666666" points="138,-19 0,-19 0,0 138,0 138,-19"/>
<text text-anchor="middle" x="69" y="-7" font-family="Helvetica,sans-Serif" font-size="10.00">PianorollMidiBackground</text>
</a>
</g>
</g>
<!-- Node3&#45;&gt;Node5 -->
<g id="edge4_Node000003_Node000005" class="edge">
<title>Node3&#45;&gt;Node5</title>
<g id="a_edge4_Node000003_Node000005"><a xlink:title=" ">
<path fill="none" stroke="#63b8ff" d="M173.67,-51.29C148.46,-41.47 113.67,-27.91 91.25,-19.17"/>
<polygon fill="#63b8ff" stroke="#63b8ff" points="172.56,-54.61 183.15,-54.98 175.1,-48.09 172.56,-54.61"/>
</a>
</g>
</g>
<!-- Node6&#45;&gt;Node4 -->
<g id="edge8_Node000006_Node000004" class="edge">
<title>Node6&#45;&gt;Node4</title>
<g id="a_edge8_Node000006_Node000004"><a xlink:title=" ">
<path fill="none" stroke="#63b8ff" d="M293.89,-50.77C272.31,-40.99 243.09,-27.75 224.14,-19.17"/>
<polygon fill="#63b8ff" stroke="#63b8ff" points="292.65,-54.05 303.2,-54.98 295.54,-47.67 292.65,-54.05"/>
</a>
</g>
</g>
<!-- Node7 -->
<g id="Node000007" class="node">
<title>Node7</title>
<g id="a_Node000007"><a xlink:href="classAudioStreamView.html" target="_top" xlink:title=" ">
<polygon fill="white" stroke="#666666" points="376,-19 272,-19 272,0 376,0 376,-19"/>
<text text-anchor="middle" x="324" y="-7" font-family="Helvetica,sans-Serif" font-size="10.00">AudioStreamView</text>
</a>
</g>
</g>
<!-- Node6&#45;&gt;Node7 -->
<g id="edge6_Node000006_Node000007" class="edge">
<title>Node6&#45;&gt;Node7</title>
<g id="a_edge6_Node000006_Node000007"><a xlink:title=" ">
<path fill="none" stroke="#63b8ff" d="M322.71,-44.66C323.04,-35.93 323.42,-25.99 323.68,-19.09"/>
<polygon fill="#63b8ff" stroke="#63b8ff" points="319.21,-44.62 322.33,-54.75 326.2,-44.89 319.21,-44.62"/>
</a>
</g>
</g>
<!-- Node8 -->
<g id="Node000008" class="node">
<title>Node8</title>
<g id="a_Node000008"><a xlink:href="classAutomationStreamView.html" target="_top" xlink:title=" ">
<polygon fill="white" stroke="#666666" points="527.5,-19 394.5,-19 394.5,0 527.5,0 527.5,-19"/>
<text text-anchor="middle" x="461" y="-7" font-family="Helvetica,sans-Serif" font-size="10.00">AutomationStreamView</text>
</a>
</g>
</g>
<!-- Node6&#45;&gt;Node8 -->
<g id="edge7_Node000006_Node000008" class="edge">
<title>Node6&#45;&gt;Node8</title>
<g id="a_edge7_Node000006_Node000008"><a xlink:title=" ">
<path fill="none" stroke="#63b8ff" d="M353.68,-51.42C379.47,-41.59 415.24,-27.95 438.26,-19.17"/>
<polygon fill="#63b8ff" stroke="#63b8ff" points="352.43,-48.15 344.33,-54.98 354.92,-54.69 352.43,-48.15"/>
</a>
</g>
</g>
</g>
</svg>
