<?xml version="1.0" encoding="UTF-8" standalone="no"?>
<!DOCTYPE svg PUBLIC "-//W3C//DTD SVG 1.1//EN"
 "http://www.w3.org/Graphics/SVG/1.1/DTD/svg11.dtd">
<!-- Generated by graphviz version 2.43.0 (0)
 -->
<!-- Title: ArdourSurface::Push2Knob Pages: 1 -->
<svg width="313pt" height="192pt"
 viewBox="0.00 0.00 312.50 192.00" xmlns="http://www.w3.org/2000/svg" xmlns:xlink="http://www.w3.org/1999/xlink">
<g id="graph0" class="graph" transform="scale(1 1) rotate(0) translate(4 188)">
<title>ArdourSurface::Push2Knob</title>
<!-- Node1 -->
<g id="Node000001" class="node">
<title>Node1</title>
<g id="a_Node000001"><a xlink:title=" ">
<polygon fill="#999999" stroke="#666666" points="181.5,-19 35.5,-19 35.5,0 181.5,0 181.5,-19"/>
<text text-anchor="middle" x="108.5" y="-7" font-family="Helvetica,sans-Serif" font-size="10.00">ArdourSurface::Push2Knob</text>
</a>
</g>
</g>
<!-- Node2 -->
<g id="Node000002" class="node">
<title>Node2</title>
<g id="a_Node000002"><a xlink:title=" ">
<polygon fill="white" stroke="#666666" points="87,-74 0,-74 0,-55 87,-55 87,-74"/>
<text text-anchor="middle" x="43.5" y="-62" font-family="Helvetica,sans-Serif" font-size="10.00">sigc::trackable</text>
</a>
</g>
</g>
<!-- Node2&#45;&gt;Node1 -->
<g id="edge1_Node000001_Node000002" class="edge">
<title>Node2&#45;&gt;Node1</title>
<g id="a_edge1_Node000001_Node000002"><a xlink:title=" ">
<path fill="none" stroke="#63b8ff" d="M61.77,-48.6C73.42,-39.11 88.1,-27.13 97.87,-19.17"/>
<polygon fill="#63b8ff" stroke="#63b8ff" points="59.48,-45.95 53.94,-54.98 63.91,-51.38 59.48,-45.95"/>
</a>
</g>
</g>
<!-- Node3 -->
<g id="Node000003" class="node">
<title>Node3</title>
<g id="a_Node000003"><a xlink:href="classArdourCanvas_1_1Container.html" target="_top" xlink:title=" ">
<polygon fill="white" stroke="#666666" points="243.5,-74 105.5,-74 105.5,-55 243.5,-55 243.5,-74"/>
<text text-anchor="middle" x="174.5" y="-62" font-family="Helvetica,sans-Serif" font-size="10.00">ArdourCanvas::Container</text>
</a>
</g>
</g>
<!-- Node3&#45;&gt;Node1 -->
<g id="edge2_Node000001_Node000003" class="edge">
<title>Node3&#45;&gt;Node1</title>
<g id="a_edge2_Node000001_Node000003"><a xlink:title=" ">
<path fill="none" stroke="#63b8ff" d="M155.95,-48.6C144.12,-39.11 129.21,-27.13 119.3,-19.17"/>
<polygon fill="#63b8ff" stroke="#63b8ff" points="153.91,-51.45 163.9,-54.98 158.29,-45.99 153.91,-51.45"/>
</a>
</g>
</g>
<!-- Node4 -->
<g id="Node000004" class="node">
<title>Node4</title>
<g id="a_Node000004"><a xlink:href="classArdourCanvas_1_1Item.html" target="_top" xlink:title=" ">
<polygon fill="white" stroke="#666666" points="231,-129 118,-129 118,-110 231,-110 231,-129"/>
<text text-anchor="middle" x="174.5" y="-117" font-family="Helvetica,sans-Serif" font-size="10.00">ArdourCanvas::Item</text>
</a>
</g>
</g>
<!-- Node4&#45;&gt;Node3 -->
<g id="edge3_Node000003_Node000004" class="edge">
<title>Node4&#45;&gt;Node3</title>
<g id="a_edge3_Node000003_Node000004"><a xlink:title=" ">
<path fill="none" stroke="#63b8ff" d="M174.5,-99.66C174.5,-90.93 174.5,-80.99 174.5,-74.09"/>
<polygon fill="#63b8ff" stroke="#63b8ff" points="171,-99.75 174.5,-109.75 178,-99.75 171,-99.75"/>
</a>
</g>
</g>
<!-- Node5 -->
<g id="Node000005" class="node">
<title>Node5</title>
<g id="a_Node000005"><a xlink:href="classArdourCanvas_1_1Fill.html" target="_top" xlink:title=" ">
<polygon fill="white" stroke="#666666" points="160,-184 55,-184 55,-165 160,-165 160,-184"/>
<text text-anchor="middle" x="107.5" y="-172" font-family="Helvetica,sans-Serif" font-size="10.00">ArdourCanvas::Fill</text>
</a>
</g>
</g>
<!-- Node5&#45;&gt;Node4 -->
<g id="edge4_Node000004_Node000005" class="edge">
<title>Node5&#45;&gt;Node4</title>
<g id="a_edge4_Node000004_Node000005"><a xlink:title=" ">
<path fill="none" stroke="#63b8ff" d="M126.33,-158.6C138.34,-149.11 153.47,-137.13 163.54,-129.17"/>
<polygon fill="#63b8ff" stroke="#63b8ff" points="123.94,-156.04 118.26,-164.98 128.28,-161.53 123.94,-156.04"/>
</a>
</g>
</g>
<!-- Node6 -->
<g id="Node000006" class="node">
<title>Node6</title>
<g id="a_Node000006"><a xlink:href="classArdourCanvas_1_1Outline.html" target="_top" xlink:title=" ">
<polygon fill="white" stroke="#666666" points="304.5,-184 178.5,-184 178.5,-165 304.5,-165 304.5,-184"/>
<text text-anchor="middle" x="241.5" y="-172" font-family="Helvetica,sans-Serif" font-size="10.00">ArdourCanvas::Outline</text>
</a>
</g>
</g>
<!-- Node6&#45;&gt;Node4 -->
<g id="edge5_Node000004_Node000006" class="edge">
<title>Node6&#45;&gt;Node4</title>
<g id="a_edge5_Node000004_Node000006"><a xlink:title=" ">
<path fill="none" stroke="#63b8ff" d="M222.67,-158.6C210.66,-149.11 195.53,-137.13 185.46,-129.17"/>
<polygon fill="#63b8ff" stroke="#63b8ff" points="220.72,-161.53 230.74,-164.98 225.06,-156.04 220.72,-161.53"/>
</a>
</g>
</g>
</g>
</svg>
