<?xml version="1.0" encoding="UTF-8" standalone="no"?>
<!DOCTYPE svg PUBLIC "-//W3C//DTD SVG 1.1//EN"
 "http://www.w3.org/Graphics/SVG/1.1/DTD/svg11.dtd">
<!-- Generated by graphviz version 2.43.0 (0)
 -->
<!-- Title: ARDOUR::ProtoPort Pages: 1 -->
<svg width="643pt" height="323pt"
 viewBox="0.00 0.00 643.00 323.00" xmlns="http://www.w3.org/2000/svg" xmlns:xlink="http://www.w3.org/1999/xlink">
<g id="graph0" class="graph" transform="scale(1 1) rotate(0) translate(4 319)">
<title>ARDOUR::ProtoPort</title>
<!-- Node1 -->
<g id="Node000001" class="node">
<title>Node1</title>
<g id="a_Node000001"><a xlink:title=" ">
<polygon fill="#999999" stroke="#666666" points="110,-148 0,-148 0,-129 110,-129 110,-148"/>
<text text-anchor="middle" x="55" y="-136" font-family="Helvetica,sans-Serif" font-size="10.00">ARDOUR::ProtoPort</text>
</a>
</g>
</g>
<!-- Node2 -->
<g id="Node000002" class="node">
<title>Node2</title>
<g id="a_Node000002"><a xlink:href="classARDOUR_1_1BackendPort.html" target="_top" xlink:title=" ">
<polygon fill="white" stroke="#666666" points="272,-167 146,-167 146,-148 272,-148 272,-167"/>
<text text-anchor="middle" x="209" y="-155" font-family="Helvetica,sans-Serif" font-size="10.00">ARDOUR::BackendPort</text>
</a>
</g>
</g>
<!-- Node1&#45;&gt;Node2 -->
<g id="edge1_Node000001_Node000002" class="edge">
<title>Node1&#45;&gt;Node2</title>
<g id="a_edge1_Node000001_Node000002"><a xlink:title=" ">
<path fill="none" stroke="#63b8ff" d="M119.96,-146.49C128.53,-147.57 137.32,-148.66 145.86,-149.73"/>
<polygon fill="#63b8ff" stroke="#63b8ff" points="120.37,-143.02 110.02,-145.25 119.51,-149.97 120.37,-143.02"/>
</a>
</g>
</g>
<!-- Node14 -->
<g id="Node000014" class="node">
<title>Node14</title>
<g id="a_Node000014"><a xlink:href="classARDOUR_1_1JackPort.html" target="_top" xlink:title=" ">
<polygon fill="white" stroke="#666666" points="261.5,-130 156.5,-130 156.5,-111 261.5,-111 261.5,-130"/>
<text text-anchor="middle" x="209" y="-118" font-family="Helvetica,sans-Serif" font-size="10.00">ARDOUR::JackPort</text>
</a>
</g>
</g>
<!-- Node1&#45;&gt;Node14 -->
<g id="edge13_Node000001_Node000014" class="edge">
<title>Node1&#45;&gt;Node14</title>
<g id="a_edge13_Node000001_Node000014"><a xlink:title=" ">
<path fill="none" stroke="#63b8ff" d="M120.08,-130.91C132.22,-129.47 144.76,-127.99 156.45,-126.6"/>
<polygon fill="#63b8ff" stroke="#63b8ff" points="119.54,-127.45 110.02,-132.1 120.36,-134.4 119.54,-127.45"/>
</a>
</g>
</g>
<!-- Node3 -->
<g id="Node000003" class="node">
<title>Node3</title>
<g id="a_Node000003"><a xlink:href="classARDOUR_1_1AlsaAudioPort.html" target="_top" xlink:title=" ">
<polygon fill="white" stroke="#666666" points="444.5,-315 310.5,-315 310.5,-296 444.5,-296 444.5,-315"/>
<text text-anchor="middle" x="377.5" y="-303" font-family="Helvetica,sans-Serif" font-size="10.00">ARDOUR::AlsaAudioPort</text>
</a>
</g>
</g>
<!-- Node2&#45;&gt;Node3 -->
<g id="edge2_Node000002_Node000003" class="edge">
<title>Node2&#45;&gt;Node3</title>
<g id="a_edge2_Node000002_Node000003"><a xlink:title=" ">
<path fill="none" stroke="#63b8ff" d="M218.98,-176.35C233.57,-204.89 265.15,-258.75 308,-287.5 313.11,-290.93 318.83,-293.7 324.74,-295.95"/>
<polygon fill="#63b8ff" stroke="#63b8ff" points="221.97,-174.49 214.39,-167.08 215.69,-177.59 221.97,-174.49"/>
</a>
</g>
</g>
<!-- Node4 -->
<g id="Node000004" class="node">
<title>Node4</title>
<g id="a_Node000004"><a xlink:href="classARDOUR_1_1AlsaMidiPort.html" target="_top" xlink:title=" ">
<polygon fill="white" stroke="#666666" points="441,-278 314,-278 314,-259 441,-259 441,-278"/>
<text text-anchor="middle" x="377.5" y="-266" font-family="Helvetica,sans-Serif" font-size="10.00">ARDOUR::AlsaMidiPort</text>
</a>
</g>
</g>
<!-- Node2&#45;&gt;Node4 -->
<g id="edge3_Node000002_Node000004" class="edge">
<title>Node2&#45;&gt;Node4</title>
<g id="a_edge3_Node000002_Node000004"><a xlink:title=" ">
<path fill="none" stroke="#63b8ff" d="M223.53,-174.85C240.86,-195.89 272.88,-230.94 308,-250.5 314.12,-253.91 320.92,-256.69 327.78,-258.96"/>
<polygon fill="#63b8ff" stroke="#63b8ff" points="226.23,-172.63 217.23,-167.03 220.78,-177.02 226.23,-172.63"/>
</a>
</g>
</g>
<!-- Node5 -->
<g id="Node000005" class="node">
<title>Node5</title>
<g id="a_Node000005"><a xlink:href="classARDOUR_1_1CoreAudioPort.html" target="_top" xlink:title=" ">
<polygon fill="white" stroke="#666666" points="445,-241 310,-241 310,-222 445,-222 445,-241"/>
<text text-anchor="middle" x="377.5" y="-229" font-family="Helvetica,sans-Serif" font-size="10.00">ARDOUR::CoreAudioPort</text>
</a>
</g>
</g>
<!-- Node2&#45;&gt;Node5 -->
<g id="edge4_Node000002_Node000005" class="edge">
<title>Node2&#45;&gt;Node5</title>
<g id="a_edge4_Node000002_Node000005"><a xlink:title=" ">
<path fill="none" stroke="#63b8ff" d="M232.42,-172.58C251.74,-185.01 280.75,-202.36 308,-213.5 315.97,-216.76 324.7,-219.58 333.18,-221.96"/>
<polygon fill="#63b8ff" stroke="#63b8ff" points="234.29,-169.63 224.01,-167.08 230.46,-175.49 234.29,-169.63"/>
</a>
</g>
</g>
<!-- Node6 -->
<g id="Node000006" class="node">
<title>Node6</title>
<g id="a_Node000006"><a xlink:href="classARDOUR_1_1CoreMidiPort.html" target="_top" xlink:title=" ">
<polygon fill="white" stroke="#666666" points="441.5,-204 313.5,-204 313.5,-185 441.5,-185 441.5,-204"/>
<text text-anchor="middle" x="377.5" y="-192" font-family="Helvetica,sans-Serif" font-size="10.00">ARDOUR::CoreMidiPort</text>
</a>
</g>
</g>
<!-- Node2&#45;&gt;Node6 -->
<g id="edge5_Node000002_Node000006" class="edge">
<title>Node2&#45;&gt;Node6</title>
<g id="a_edge5_Node000002_Node000006"><a xlink:title=" ">
<path fill="none" stroke="#63b8ff" d="M262.74,-169.22C285.54,-174.29 311.89,-180.14 333.48,-184.94"/>
<polygon fill="#63b8ff" stroke="#63b8ff" points="263.4,-165.78 252.88,-167.03 261.88,-172.61 263.4,-165.78"/>
</a>
</g>
</g>
<!-- Node7 -->
<g id="Node000007" class="node">
<title>Node7</title>
<g id="a_Node000007"><a xlink:href="classARDOUR_1_1DummyPort.html" target="_top" xlink:title=" ">
<polygon fill="white" stroke="#666666" points="439.5,-167 315.5,-167 315.5,-148 439.5,-148 439.5,-167"/>
<text text-anchor="middle" x="377.5" y="-155" font-family="Helvetica,sans-Serif" font-size="10.00">ARDOUR::DummyPort</text>
</a>
</g>
</g>
<!-- Node2&#45;&gt;Node7 -->
<g id="edge6_Node000002_Node000007" class="edge">
<title>Node2&#45;&gt;Node7</title>
<g id="a_edge6_Node000002_Node000007"><a xlink:title=" ">
<path fill="none" stroke="#63b8ff" d="M282.79,-157.5C293.65,-157.5 304.75,-157.5 315.34,-157.5"/>
<polygon fill="#63b8ff" stroke="#63b8ff" points="282.47,-154 272.47,-157.5 282.47,-161 282.47,-154"/>
</a>
</g>
</g>
<!-- Node10 -->
<g id="Node000010" class="node">
<title>Node10</title>
<g id="a_Node000010"><a xlink:href="classARDOUR_1_1PortAudioPort.html" target="_top" xlink:title=" ">
<polygon fill="white" stroke="#666666" points="443.5,-130 311.5,-130 311.5,-111 443.5,-111 443.5,-130"/>
<text text-anchor="middle" x="377.5" y="-118" font-family="Helvetica,sans-Serif" font-size="10.00">ARDOUR::PortAudioPort</text>
</a>
</g>
</g>
<!-- Node2&#45;&gt;Node10 -->
<g id="edge9_Node000002_Node000010" class="edge">
<title>Node2&#45;&gt;Node10</title>
<g id="a_edge9_Node000002_Node000010"><a xlink:title=" ">
<path fill="none" stroke="#63b8ff" d="M262.74,-145.78C285.54,-140.71 311.89,-134.86 333.48,-130.06"/>
<polygon fill="#63b8ff" stroke="#63b8ff" points="261.88,-142.39 252.88,-147.97 263.4,-149.22 261.88,-142.39"/>
</a>
</g>
</g>
<!-- Node11 -->
<g id="Node000011" class="node">
<title>Node11</title>
<g id="a_Node000011"><a xlink:href="classARDOUR_1_1PortMidiPort.html" target="_top" xlink:title=" ">
<polygon fill="white" stroke="#666666" points="440,-93 315,-93 315,-74 440,-74 440,-93"/>
<text text-anchor="middle" x="377.5" y="-81" font-family="Helvetica,sans-Serif" font-size="10.00">ARDOUR::PortMidiPort</text>
</a>
</g>
</g>
<!-- Node2&#45;&gt;Node11 -->
<g id="edge10_Node000002_Node000011" class="edge">
<title>Node2&#45;&gt;Node11</title>
<g id="a_edge10_Node000002_Node000011"><a xlink:title=" ">
<path fill="none" stroke="#63b8ff" d="M263.06,-144.16C266.16,-142.75 269.17,-141.2 272,-139.5 291.67,-127.69 288.26,-114.19 308,-102.5 314.48,-98.66 321.76,-95.58 329.09,-93.1"/>
<polygon fill="#63b8ff" stroke="#63b8ff" points="261.54,-141 253.57,-147.98 264.15,-147.49 261.54,-141"/>
</a>
</g>
</g>
<!-- Node12 -->
<g id="Node000012" class="node">
<title>Node12</title>
<g id="a_Node000012"><a xlink:href="classARDOUR_1_1PulseAudioPort.html" target="_top" xlink:title=" ">
<polygon fill="white" stroke="#666666" points="447,-56 308,-56 308,-37 447,-37 447,-56"/>
<text text-anchor="middle" x="377.5" y="-44" font-family="Helvetica,sans-Serif" font-size="10.00">ARDOUR::PulseAudioPort</text>
</a>
</g>
</g>
<!-- Node2&#45;&gt;Node12 -->
<g id="edge11_Node000002_Node000012" class="edge">
<title>Node2&#45;&gt;Node12</title>
<g id="a_edge11_Node000002_Node000012"><a xlink:title=" ">
<path fill="none" stroke="#63b8ff" d="M267.23,-143.06C268.89,-141.96 270.49,-140.77 272,-139.5 299.97,-115.93 279.89,-88.9 308,-65.5 312.65,-61.63 318.03,-58.55 323.68,-56.09"/>
<polygon fill="#63b8ff" stroke="#63b8ff" points="265.52,-140 258.44,-147.89 268.89,-146.14 265.52,-140"/>
</a>
</g>
</g>
<!-- Node13 -->
<g id="Node000013" class="node">
<title>Node13</title>
<g id="a_Node000013"><a xlink:href="classARDOUR_1_1PulseMidiPort.html" target="_top" xlink:title=" ">
<polygon fill="white" stroke="#666666" points="443.5,-19 311.5,-19 311.5,0 443.5,0 443.5,-19"/>
<text text-anchor="middle" x="377.5" y="-7" font-family="Helvetica,sans-Serif" font-size="10.00">ARDOUR::PulseMidiPort</text>
</a>
</g>
</g>
<!-- Node2&#45;&gt;Node13 -->
<g id="edge12_Node000002_Node000013" class="edge">
<title>Node2&#45;&gt;Node13</title>
<g id="a_edge12_Node000002_Node000013"><a xlink:title=" ">
<path fill="none" stroke="#63b8ff" d="M268.51,-142.53C269.73,-141.58 270.89,-140.57 272,-139.5 309.24,-103.4 270.55,-64.37 308,-28.5 312.01,-24.66 316.73,-21.58 321.78,-19.12"/>
<polygon fill="#63b8ff" stroke="#63b8ff" points="266.45,-139.69 259.85,-147.97 270.18,-145.62 266.45,-139.69"/>
</a>
</g>
</g>
<!-- Node8 -->
<g id="Node000008" class="node">
<title>Node8</title>
<g id="a_Node000008"><a xlink:href="classARDOUR_1_1DummyAudioPort.html" target="_top" xlink:title=" ">
<polygon fill="white" stroke="#666666" points="635,-185 483,-185 483,-166 635,-166 635,-185"/>
<text text-anchor="middle" x="559" y="-173" font-family="Helvetica,sans-Serif" font-size="10.00">ARDOUR::DummyAudioPort</text>
</a>
</g>
</g>
<!-- Node7&#45;&gt;Node8 -->
<g id="edge7_Node000007_Node000008" class="edge">
<title>Node7&#45;&gt;Node8</title>
<g id="a_edge7_Node000007_Node000008"><a xlink:title=" ">
<path fill="none" stroke="#63b8ff" d="M449.8,-164.65C460.66,-165.74 471.9,-166.87 482.84,-167.96"/>
<polygon fill="#63b8ff" stroke="#63b8ff" points="449.82,-161.13 439.52,-163.62 449.12,-168.1 449.82,-161.13"/>
</a>
</g>
</g>
<!-- Node9 -->
<g id="Node000009" class="node">
<title>Node9</title>
<g id="a_Node000009"><a xlink:href="classARDOUR_1_1DummyMidiPort.html" target="_top" xlink:title=" ">
<polygon fill="white" stroke="#666666" points="631.5,-148 486.5,-148 486.5,-129 631.5,-129 631.5,-148"/>
<text text-anchor="middle" x="559" y="-136" font-family="Helvetica,sans-Serif" font-size="10.00">ARDOUR::DummyMidiPort</text>
</a>
</g>
</g>
<!-- Node7&#45;&gt;Node9 -->
<g id="edge8_Node000007_Node000009" class="edge">
<title>Node7&#45;&gt;Node9</title>
<g id="a_edge8_Node000007_Node000009"><a xlink:title=" ">
<path fill="none" stroke="#63b8ff" d="M449.54,-149.98C461.63,-148.7 474.2,-147.37 486.31,-146.09"/>
<polygon fill="#63b8ff" stroke="#63b8ff" points="449.1,-146.51 439.52,-151.04 449.83,-153.47 449.1,-146.51"/>
</a>
</g>
</g>
</g>
</svg>
