<?xml version="1.0" encoding="UTF-8" standalone="no"?>
<!DOCTYPE svg PUBLIC "-//W3C//DTD SVG 1.1//EN"
 "http://www.w3.org/Graphics/SVG/1.1/DTD/svg11.dtd">
<!-- Generated by graphviz version 2.43.0 (0)
 -->
<!-- Title: ARDOUR::ExportChannel Pages: 1 -->
<svg width="546pt" height="138pt"
 viewBox="0.00 0.00 546.00 138.00" xmlns="http://www.w3.org/2000/svg" xmlns:xlink="http://www.w3.org/1999/xlink">
<g id="graph0" class="graph" transform="scale(1 1) rotate(0) translate(4 134)">
<title>ARDOUR::ExportChannel</title>
<!-- Node1 -->
<g id="Node000001" class="node">
<title>Node1</title>
<g id="a_Node000001"><a xlink:title="Export channel base class interface for different source types.">
<polygon fill="#999999" stroke="#666666" points="332,-74 195,-74 195,-55 332,-55 332,-74"/>
<text text-anchor="middle" x="263.5" y="-62" font-family="Helvetica,sans-Serif" font-size="10.00">ARDOUR::ExportChannel</text>
</a>
</g>
</g>
<!-- Node3 -->
<g id="Node000003" class="node">
<title>Node3</title>
<g id="a_Node000003"><a xlink:href="classARDOUR_1_1PortExportChannel.html" target="_top" xlink:title="Basic export channel that reads from AudioPorts.">
<polygon fill="white" stroke="#666666" points="531,-130 375,-130 375,-111 531,-111 531,-130"/>
<text text-anchor="middle" x="453" y="-118" font-family="Helvetica,sans-Serif" font-size="10.00">ARDOUR::PortExportChannel</text>
</a>
</g>
</g>
<!-- Node1&#45;&gt;Node3 -->
<g id="edge2_Node000001_Node000003" class="edge">
<title>Node1&#45;&gt;Node3</title>
<g id="a_edge2_Node000001_Node000003"><a xlink:title=" ">
<path fill="none" stroke="#63b8ff" d="M296.98,-77.76C317.18,-85.67 343.82,-95.51 368,-102.5 378.89,-105.65 390.72,-108.51 401.96,-110.99"/>
<polygon fill="#63b8ff" stroke="#63b8ff" points="298.2,-74.48 287.62,-74.05 295.63,-80.99 298.2,-74.48"/>
</a>
</g>
</g>
<!-- Node4 -->
<g id="Node000004" class="node">
<title>Node4</title>
<g id="a_Node000004"><a xlink:href="classARDOUR_1_1PortExportMIDI.html" target="_top" xlink:title="Basic export channel that reads from MIDIPorts.">
<polygon fill="white" stroke="#666666" points="522.5,-93 383.5,-93 383.5,-74 522.5,-74 522.5,-93"/>
<text text-anchor="middle" x="453" y="-81" font-family="Helvetica,sans-Serif" font-size="10.00">ARDOUR::PortExportMIDI</text>
</a>
</g>
</g>
<!-- Node1&#45;&gt;Node4 -->
<g id="edge3_Node000001_Node000004" class="edge">
<title>Node1&#45;&gt;Node4</title>
<g id="a_edge3_Node000001_Node000004"><a xlink:title=" ">
<path fill="none" stroke="#63b8ff" d="M342.48,-72.4C356.08,-73.78 370.14,-75.2 383.46,-76.55"/>
<polygon fill="#63b8ff" stroke="#63b8ff" points="342.49,-68.89 332.19,-71.36 341.79,-75.85 342.49,-68.89"/>
</a>
</g>
</g>
<!-- Node5 -->
<g id="Node000005" class="node">
<title>Node5</title>
<g id="a_Node000005"><a xlink:href="classARDOUR_1_1RegionExportChannel.html" target="_top" xlink:title="Export channel that reads from region channel.">
<polygon fill="white" stroke="#666666" points="538,-56 368,-56 368,-37 538,-37 538,-56"/>
<text text-anchor="middle" x="453" y="-44" font-family="Helvetica,sans-Serif" font-size="10.00">ARDOUR::RegionExportChannel</text>
</a>
</g>
</g>
<!-- Node1&#45;&gt;Node5 -->
<g id="edge4_Node000001_Node000005" class="edge">
<title>Node1&#45;&gt;Node5</title>
<g id="a_edge4_Node000001_Node000005"><a xlink:title=" ">
<path fill="none" stroke="#63b8ff" d="M342.32,-57.03C350.71,-56.22 359.28,-55.4 367.75,-54.59"/>
<polygon fill="#63b8ff" stroke="#63b8ff" points="341.81,-53.56 332.19,-58 342.48,-60.53 341.81,-53.56"/>
</a>
</g>
</g>
<!-- Node6 -->
<g id="Node000006" class="node">
<title>Node6</title>
<g id="a_Node000006"><a xlink:href="classARDOUR_1_1RouteExportChannel.html" target="_top" xlink:title="Export channel for exporting from different positions in a route.">
<polygon fill="white" stroke="#666666" points="535.5,-19 370.5,-19 370.5,0 535.5,0 535.5,-19"/>
<text text-anchor="middle" x="453" y="-7" font-family="Helvetica,sans-Serif" font-size="10.00">ARDOUR::RouteExportChannel</text>
</a>
</g>
</g>
<!-- Node1&#45;&gt;Node6 -->
<g id="edge5_Node000001_Node000006" class="edge">
<title>Node1&#45;&gt;Node6</title>
<g id="a_edge5_Node000001_Node000006"><a xlink:title=" ">
<path fill="none" stroke="#63b8ff" d="M297.81,-51.33C317.92,-43.69 344.18,-34.28 368,-27.5 378.9,-24.4 390.73,-21.55 401.98,-19.08"/>
<polygon fill="#63b8ff" stroke="#63b8ff" points="296.55,-48.06 288.46,-54.91 299.05,-54.6 296.55,-48.06"/>
</a>
</g>
</g>
<!-- Node2 -->
<g id="Node000002" class="node">
<title>Node2</title>
<g id="a_Node000002"><a xlink:title=" ">
<polygon fill="white" stroke="#666666" points="159,-79.5 0,-79.5 0,-49.5 159,-49.5 159,-79.5"/>
<text text-anchor="start" x="8" y="-67.5" font-family="Helvetica,sans-Serif" font-size="10.00">boost::less_than_comparable</text>
<text text-anchor="middle" x="79.5" y="-56.5" font-family="Helvetica,sans-Serif" font-size="10.00">&lt; ExportChannel &gt;</text>
</a>
</g>
</g>
<!-- Node2&#45;&gt;Node1 -->
<g id="edge1_Node000001_Node000002" class="edge">
<title>Node2&#45;&gt;Node1</title>
<g id="a_edge1_Node000001_Node000002"><a xlink:title=" ">
<path fill="none" stroke="#63b8ff" d="M169.12,-64.5C177.77,-64.5 186.44,-64.5 194.83,-64.5"/>
<polygon fill="#63b8ff" stroke="#63b8ff" points="169,-61 159,-64.5 169,-68 169,-61"/>
</a>
</g>
</g>
</g>
</svg>
