<?xml version="1.0" encoding="UTF-8" standalone="no"?>
<!DOCTYPE svg PUBLIC "-//W3C//DTD SVG 1.1//EN"
 "http://www.w3.org/Graphics/SVG/1.1/DTD/svg11.dtd">
<!-- Generated by graphviz version 2.43.0 (0)
 -->
<!-- Title: ARDOUR::AlsaSeqMidiIn Pages: 1 -->
<svg width="278pt" height="137pt"
 viewBox="0.00 0.00 278.00 137.00" xmlns="http://www.w3.org/2000/svg" xmlns:xlink="http://www.w3.org/1999/xlink">
<g id="graph0" class="graph" transform="scale(1 1) rotate(0) translate(4 133)">
<title>ARDOUR::AlsaSeqMidiIn</title>
<!-- Node1 -->
<g id="Node000001" class="node">
<title>Node1</title>
<g id="a_Node000001"><a xlink:title=" ">
<polygon fill="#999999" stroke="#666666" points="207,-19 73,-19 73,0 207,0 207,-19"/>
<text text-anchor="middle" x="140" y="-7" font-family="Helvetica,sans-Serif" font-size="10.00">ARDOUR::AlsaSeqMidiIn</text>
</a>
</g>
</g>
<!-- Node2 -->
<g id="Node000002" class="node">
<title>Node2</title>
<g id="a_Node000002"><a xlink:href="classARDOUR_1_1AlsaSeqMidiIO.html" target="_top" xlink:title=" ">
<polygon fill="white" stroke="#666666" points="136,-74 0,-74 0,-55 136,-55 136,-74"/>
<text text-anchor="middle" x="68" y="-62" font-family="Helvetica,sans-Serif" font-size="10.00">ARDOUR::AlsaSeqMidiIO</text>
</a>
</g>
</g>
<!-- Node2&#45;&gt;Node1 -->
<g id="edge1_Node000001_Node000002" class="edge">
<title>Node2&#45;&gt;Node1</title>
<g id="a_edge1_Node000001_Node000002"><a xlink:title=" ">
<path fill="none" stroke="#63b8ff" d="M87.87,-48.88C100.82,-39.34 117.3,-27.21 128.22,-19.17"/>
<polygon fill="#63b8ff" stroke="#63b8ff" points="85.55,-46.24 79.57,-54.98 89.7,-51.88 85.55,-46.24"/>
</a>
</g>
</g>
<!-- Node3 -->
<g id="Node000003" class="node">
<title>Node3</title>
<g id="a_Node000003"><a xlink:href="classARDOUR_1_1AlsaMidiIO.html" target="_top" xlink:title=" ">
<polygon fill="white" stroke="#666666" points="199,-129 81,-129 81,-110 199,-110 199,-129"/>
<text text-anchor="middle" x="140" y="-117" font-family="Helvetica,sans-Serif" font-size="10.00">ARDOUR::AlsaMidiIO</text>
</a>
</g>
</g>
<!-- Node3&#45;&gt;Node2 -->
<g id="edge2_Node000002_Node000003" class="edge">
<title>Node3&#45;&gt;Node2</title>
<g id="a_edge2_Node000002_Node000003"><a xlink:title=" ">
<path fill="none" stroke="#63b8ff" d="M120.13,-103.88C107.18,-94.34 90.7,-82.21 79.78,-74.17"/>
<polygon fill="#63b8ff" stroke="#63b8ff" points="118.3,-106.88 128.43,-109.98 122.45,-101.24 118.3,-106.88"/>
</a>
</g>
</g>
<!-- Node4 -->
<g id="Node000004" class="node">
<title>Node4</title>
<g id="a_Node000004"><a xlink:href="classARDOUR_1_1AlsaMidiIn.html" target="_top" xlink:title=" ">
<polygon fill="white" stroke="#666666" points="270,-74 154,-74 154,-55 270,-55 270,-74"/>
<text text-anchor="middle" x="212" y="-62" font-family="Helvetica,sans-Serif" font-size="10.00">ARDOUR::AlsaMidiIn</text>
</a>
</g>
</g>
<!-- Node3&#45;&gt;Node4 -->
<g id="edge4_Node000004_Node000003" class="edge">
<title>Node3&#45;&gt;Node4</title>
<g id="a_edge4_Node000004_Node000003"><a xlink:title=" ">
<path fill="none" stroke="#63b8ff" d="M159.87,-103.88C172.82,-94.34 189.3,-82.21 200.22,-74.17"/>
<polygon fill="#63b8ff" stroke="#63b8ff" points="157.55,-101.24 151.57,-109.98 161.7,-106.88 157.55,-101.24"/>
</a>
</g>
</g>
<!-- Node4&#45;&gt;Node1 -->
<g id="edge3_Node000001_Node000004" class="edge">
<title>Node4&#45;&gt;Node1</title>
<g id="a_edge3_Node000001_Node000004"><a xlink:title=" ">
<path fill="none" stroke="#63b8ff" d="M192.13,-48.88C179.18,-39.34 162.7,-27.21 151.78,-19.17"/>
<polygon fill="#63b8ff" stroke="#63b8ff" points="190.3,-51.88 200.43,-54.98 194.45,-46.24 190.3,-51.88"/>
</a>
</g>
</g>
</g>
</svg>
