<?xml version="1.0" encoding="UTF-8" standalone="no"?>
<!DOCTYPE svg PUBLIC "-//W3C//DTD SVG 1.1//EN"
 "http://www.w3.org/Graphics/SVG/1.1/DTD/svg11.dtd">
<!-- Generated by graphviz version 2.43.0 (0)
 -->
<!-- Title: ARDOUR::AutomationControl Pages: 1 -->
<svg width="1103pt" height="418pt"
 viewBox="0.00 0.00 1103.00 417.50" xmlns="http://www.w3.org/2000/svg" xmlns:xlink="http://www.w3.org/1999/xlink">
<g id="graph0" class="graph" transform="scale(1 1) rotate(0) translate(4 413.5)">
<title>ARDOUR::AutomationControl</title>
<!-- Node1 -->
<g id="Node000001" class="node">
<title>Node1</title>
<g id="a_Node000001"><a xlink:title=" ">
<polygon fill="#999999" stroke="#666666" points="688,-281 530,-281 530,-262 688,-262 688,-281"/>
<text text-anchor="middle" x="609" y="-269" font-family="Helvetica,sans-Serif" font-size="10.00">ARDOUR::AutomationControl</text>
</a>
</g>
</g>
<!-- Node11 -->
<g id="Node000011" class="node">
<title>Node11</title>
<g id="a_Node000011"><a xlink:href="structARDOUR_1_1MidiTrack_1_1MidiControl.html" target="_top" xlink:title=" ">
<polygon fill="white" stroke="#666666" points="867,-409.5 749,-409.5 749,-379.5 867,-379.5 867,-409.5"/>
<text text-anchor="start" x="757" y="-397.5" font-family="Helvetica,sans-Serif" font-size="10.00">ARDOUR::MidiTrack::</text>
<text text-anchor="middle" x="808" y="-386.5" font-family="Helvetica,sans-Serif" font-size="10.00">MidiControl</text>
</a>
</g>
</g>
<!-- Node1&#45;&gt;Node11 -->
<g id="edge10_Node000001_Node000011" class="edge">
<title>Node1&#45;&gt;Node11</title>
<g id="a_edge10_Node000001_Node000011"><a xlink:title=" ">
<path fill="none" stroke="#63b8ff" d="M625.34,-288.83C645.76,-310.89 683.98,-348.73 724,-370.5 731.64,-374.66 740.08,-378.16 748.57,-381.1"/>
<polygon fill="#63b8ff" stroke="#63b8ff" points="627.73,-286.26 618.41,-281.22 622.55,-290.97 627.73,-286.26"/>
</a>
</g>
</g>
<!-- Node12 -->
<g id="Node000012" class="node">
<title>Node12</title>
<g id="a_Node000012"><a xlink:href="classARDOUR_1_1PanControllable.html" target="_top" xlink:title=" ">
<polygon fill="white" stroke="#666666" points="879,-361 737,-361 737,-342 879,-342 879,-361"/>
<text text-anchor="middle" x="808" y="-349" font-family="Helvetica,sans-Serif" font-size="10.00">ARDOUR::PanControllable</text>
</a>
</g>
</g>
<!-- Node1&#45;&gt;Node12 -->
<g id="edge11_Node000001_Node000012" class="edge">
<title>Node1&#45;&gt;Node12</title>
<g id="a_edge11_Node000001_Node000012"><a xlink:title=" ">
<path fill="none" stroke="#63b8ff" d="M632.95,-286.53C655.33,-300.57 690.78,-321.15 724,-333.5 732.98,-336.84 742.76,-339.64 752.34,-341.97"/>
<polygon fill="#63b8ff" stroke="#63b8ff" points="634.79,-283.56 624.48,-281.14 631.03,-289.46 634.79,-283.56"/>
</a>
</g>
</g>
<!-- Node13 -->
<g id="Node000013" class="node">
<title>Node13</title>
<g id="a_Node000013"><a xlink:href="classARDOUR_1_1PhaseControl.html" target="_top" xlink:title=" ">
<polygon fill="white" stroke="#666666" points="873,-324 743,-324 743,-305 873,-305 873,-324"/>
<text text-anchor="middle" x="808" y="-312" font-family="Helvetica,sans-Serif" font-size="10.00">ARDOUR::PhaseControl</text>
</a>
</g>
</g>
<!-- Node1&#45;&gt;Node13 -->
<g id="edge12_Node000001_Node000013" class="edge">
<title>Node1&#45;&gt;Node13</title>
<g id="a_edge12_Node000001_Node000013"><a xlink:title=" ">
<path fill="none" stroke="#63b8ff" d="M663.6,-283.2C694.93,-290.04 733.97,-298.56 763.4,-304.98"/>
<polygon fill="#63b8ff" stroke="#63b8ff" points="664.24,-279.76 653.72,-281.04 662.74,-286.6 664.24,-279.76"/>
</a>
</g>
</g>
<!-- Node14 -->
<g id="Node000014" class="node">
<title>Node14</title>
<g id="a_Node000014"><a xlink:href="classARDOUR_1_1PlugInsertBase_1_1PluginControl.html" target="_top" xlink:title=" ">
<polygon fill="white" stroke="#666666" points="877,-286.5 739,-286.5 739,-256.5 877,-256.5 877,-286.5"/>
<text text-anchor="start" x="747" y="-274.5" font-family="Helvetica,sans-Serif" font-size="10.00">ARDOUR::PlugInsertBase</text>
<text text-anchor="middle" x="808" y="-263.5" font-family="Helvetica,sans-Serif" font-size="10.00">::PluginControl</text>
</a>
</g>
</g>
<!-- Node1&#45;&gt;Node14 -->
<g id="edge13_Node000001_Node000014" class="edge">
<title>Node1&#45;&gt;Node14</title>
<g id="a_edge13_Node000001_Node000014"><a xlink:title=" ">
<path fill="none" stroke="#63b8ff" d="M698.44,-271.5C711.99,-271.5 725.8,-271.5 738.83,-271.5"/>
<polygon fill="#63b8ff" stroke="#63b8ff" points="698.14,-268 688.14,-271.5 698.14,-275 698.14,-268"/>
</a>
</g>
</g>
<!-- Node16 -->
<g id="Node000016" class="node">
<title>Node16</title>
<g id="a_Node000016"><a xlink:href="structARDOUR_1_1PlugInsertBase_1_1PluginPropertyControl.html" target="_top" xlink:title=" ">
<polygon fill="white" stroke="#666666" points="877,-238.5 739,-238.5 739,-208.5 877,-208.5 877,-238.5"/>
<text text-anchor="start" x="747" y="-226.5" font-family="Helvetica,sans-Serif" font-size="10.00">ARDOUR::PlugInsertBase</text>
<text text-anchor="middle" x="808" y="-215.5" font-family="Helvetica,sans-Serif" font-size="10.00">::PluginPropertyControl</text>
</a>
</g>
</g>
<!-- Node1&#45;&gt;Node16 -->
<g id="edge15_Node000001_Node000016" class="edge">
<title>Node1&#45;&gt;Node16</title>
<g id="a_edge15_Node000001_Node000016"><a xlink:title=" ">
<path fill="none" stroke="#63b8ff" d="M659.4,-259.46C685.4,-253.13 717.54,-245.3 745.18,-238.56"/>
<polygon fill="#63b8ff" stroke="#63b8ff" points="658.28,-256.13 649.39,-261.9 659.94,-262.93 658.28,-256.13"/>
</a>
</g>
</g>
<!-- Node17 -->
<g id="Node000017" class="node">
<title>Node17</title>
<g id="a_Node000017"><a xlink:href="classARDOUR_1_1SlavableAutomationControl.html" target="_top" xlink:title=" ">
<polygon fill="white" stroke="#666666" points="890,-190.5 726,-190.5 726,-160.5 890,-160.5 890,-190.5"/>
<text text-anchor="start" x="734" y="-178.5" font-family="Helvetica,sans-Serif" font-size="10.00">ARDOUR::SlavableAutomation</text>
<text text-anchor="middle" x="808" y="-167.5" font-family="Helvetica,sans-Serif" font-size="10.00">Control</text>
</a>
</g>
</g>
<!-- Node1&#45;&gt;Node17 -->
<g id="edge16_Node000001_Node000017" class="edge">
<title>Node1&#45;&gt;Node17</title>
<g id="a_edge16_Node000001_Node000017"><a xlink:title=" ">
<path fill="none" stroke="#63b8ff" d="M630.95,-255.71C653.07,-239.66 689.47,-215.02 724,-199.5 731.39,-196.18 739.35,-193.19 747.32,-190.54"/>
<polygon fill="#63b8ff" stroke="#63b8ff" points="628.64,-253.06 622.66,-261.81 632.79,-258.7 628.64,-253.06"/>
</a>
</g>
</g>
<!-- Node27 -->
<g id="Node000027" class="node">
<title>Node27</title>
<g id="a_Node000027"><a xlink:href="classARDOUR_1_1SurroundControllable.html" target="_top" xlink:title=" ">
<polygon fill="white" stroke="#666666" points="892,-142 724,-142 724,-123 892,-123 892,-142"/>
<text text-anchor="middle" x="808" y="-130" font-family="Helvetica,sans-Serif" font-size="10.00">ARDOUR::SurroundControllable</text>
</a>
</g>
</g>
<!-- Node1&#45;&gt;Node27 -->
<g id="edge26_Node000001_Node000027" class="edge">
<title>Node1&#45;&gt;Node27</title>
<g id="a_edge26_Node000001_Node000027"><a xlink:title=" ">
<path fill="none" stroke="#63b8ff" d="M621.8,-253.53C640.29,-226.9 678.67,-177.34 724,-151.5 730.81,-147.62 738.35,-144.53 746.04,-142.08"/>
<polygon fill="#63b8ff" stroke="#63b8ff" points="618.83,-251.67 616.12,-261.91 624.63,-255.6 618.83,-251.67"/>
</a>
</g>
</g>
<!-- Node2 -->
<g id="Node000002" class="node">
<title>Node2</title>
<g id="a_Node000002"><a xlink:href="classPBD_1_1Controllable.html" target="_top" xlink:title=" ">
<polygon fill="white" stroke="#666666" points="460,-337 358,-337 358,-318 460,-318 460,-337"/>
<text text-anchor="middle" x="409" y="-325" font-family="Helvetica,sans-Serif" font-size="10.00">PBD::Controllable</text>
</a>
</g>
</g>
<!-- Node2&#45;&gt;Node1 -->
<g id="edge1_Node000001_Node000002" class="edge">
<title>Node2&#45;&gt;Node1</title>
<g id="a_edge1_Node000001_Node000002"><a xlink:title=" ">
<path fill="none" stroke="#63b8ff" d="M468.92,-315.74C477.37,-313.8 485.93,-311.7 494,-309.5 524.59,-301.15 559.05,-289.32 581.99,-281.09"/>
<polygon fill="#63b8ff" stroke="#63b8ff" points="468.08,-312.34 459.08,-317.94 469.6,-319.17 468.08,-312.34"/>
</a>
</g>
</g>
<!-- Node3 -->
<g id="Node000003" class="node">
<title>Node3</title>
<g id="a_Node000003"><a xlink:href="classPBD_1_1StatefulDestructible.html" target="_top" xlink:title=" ">
<polygon fill="white" stroke="#666666" points="283,-358 143,-358 143,-339 283,-339 283,-358"/>
<text text-anchor="middle" x="213" y="-346" font-family="Helvetica,sans-Serif" font-size="10.00">PBD::StatefulDestructible</text>
</a>
</g>
</g>
<!-- Node3&#45;&gt;Node2 -->
<g id="edge2_Node000002_Node000003" class="edge">
<title>Node3&#45;&gt;Node2</title>
<g id="a_edge2_Node000002_Node000003"><a xlink:title=" ">
<path fill="none" stroke="#63b8ff" d="M293.43,-339.9C315.16,-337.55 338.11,-335.07 357.71,-332.94"/>
<polygon fill="#63b8ff" stroke="#63b8ff" points="292.78,-336.45 283.22,-341.01 293.54,-343.41 292.78,-336.45"/>
</a>
</g>
</g>
<!-- Node4 -->
<g id="Node000004" class="node">
<title>Node4</title>
<g id="a_Node000004"><a xlink:href="classPBD_1_1Stateful.html" target="_top" xlink:title=" ">
<polygon fill="white" stroke="#666666" points="91.5,-376 10.5,-376 10.5,-357 91.5,-357 91.5,-376"/>
<text text-anchor="middle" x="51" y="-364" font-family="Helvetica,sans-Serif" font-size="10.00">PBD::Stateful</text>
</a>
</g>
</g>
<!-- Node4&#45;&gt;Node3 -->
<g id="edge3_Node000003_Node000004" class="edge">
<title>Node4&#45;&gt;Node3</title>
<g id="a_edge3_Node000003_Node000004"><a xlink:title=" ">
<path fill="none" stroke="#63b8ff" d="M101.73,-360.91C114.79,-359.44 129.12,-357.82 143,-356.26"/>
<polygon fill="#63b8ff" stroke="#63b8ff" points="101.1,-357.45 91.55,-362.05 101.88,-364.41 101.1,-357.45"/>
</a>
</g>
</g>
<!-- Node5 -->
<g id="Node000005" class="node">
<title>Node5</title>
<g id="a_Node000005"><a xlink:href="classPBD_1_1Destructible.html" target="_top" xlink:title=" ">
<polygon fill="white" stroke="#666666" points="102,-339 0,-339 0,-320 102,-320 102,-339"/>
<text text-anchor="middle" x="51" y="-327" font-family="Helvetica,sans-Serif" font-size="10.00">PBD::Destructible</text>
</a>
</g>
</g>
<!-- Node5&#45;&gt;Node3 -->
<g id="edge4_Node000003_Node000005" class="edge">
<title>Node5&#45;&gt;Node3</title>
<g id="a_edge4_Node000003_Node000005"><a xlink:title=" ">
<path fill="none" stroke="#63b8ff" d="M112.39,-336.67C122.37,-337.86 132.77,-339.09 142.94,-340.3"/>
<polygon fill="#63b8ff" stroke="#63b8ff" points="112.53,-333.16 102.19,-335.46 111.7,-340.11 112.53,-333.16"/>
</a>
</g>
</g>
<!-- Node6 -->
<g id="Node000006" class="node">
<title>Node6</title>
<g id="a_Node000006"><a xlink:title=" ">
<polygon fill="white" stroke="#666666" points="288,-320.5 138,-320.5 138,-290.5 288,-290.5 288,-320.5"/>
<text text-anchor="start" x="146" y="-308.5" font-family="Helvetica,sans-Serif" font-size="10.00">std::enable_shared</text>
<text text-anchor="middle" x="213" y="-297.5" font-family="Helvetica,sans-Serif" font-size="10.00">_from_this&lt; Controllable &gt;</text>
</a>
</g>
</g>
<!-- Node6&#45;&gt;Node2 -->
<g id="edge5_Node000002_Node000006" class="edge">
<title>Node6&#45;&gt;Node2</title>
<g id="a_edge5_Node000002_Node000006"><a xlink:title=" ">
<path fill="none" stroke="#63b8ff" d="M298.38,-315.07C318.69,-317.37 339.75,-319.76 357.91,-321.82"/>
<polygon fill="#63b8ff" stroke="#63b8ff" points="298.5,-311.56 288.17,-313.91 297.72,-318.52 298.5,-311.56"/>
</a>
</g>
</g>
<!-- Node7 -->
<g id="Node000007" class="node">
<title>Node7</title>
<g id="a_Node000007"><a xlink:href="classEvoral_1_1Control.html" target="_top" xlink:title=" ">
<polygon fill="white" stroke="#666666" points="453.5,-300 364.5,-300 364.5,-281 453.5,-281 453.5,-300"/>
<text text-anchor="middle" x="409" y="-288" font-family="Helvetica,sans-Serif" font-size="10.00">Evoral::Control</text>
</a>
</g>
</g>
<!-- Node7&#45;&gt;Node1 -->
<g id="edge6_Node000001_Node000007" class="edge">
<title>Node7&#45;&gt;Node1</title>
<g id="a_edge6_Node000001_Node000007"><a xlink:title=" ">
<path fill="none" stroke="#63b8ff" d="M463.95,-285.32C484.27,-283.37 507.82,-281.11 529.91,-278.99"/>
<polygon fill="#63b8ff" stroke="#63b8ff" points="463.56,-281.84 453.94,-286.28 464.23,-288.81 463.56,-281.84"/>
</a>
</g>
</g>
<!-- Node8 -->
<g id="Node000008" class="node">
<title>Node8</title>
<g id="a_Node000008"><a xlink:href="classARDOUR_1_1ControlGroupMember.html" target="_top" xlink:title=" ">
<polygon fill="white" stroke="#666666" points="494,-263 324,-263 324,-244 494,-244 494,-263"/>
<text text-anchor="middle" x="409" y="-251" font-family="Helvetica,sans-Serif" font-size="10.00">ARDOUR::ControlGroupMember</text>
</a>
</g>
</g>
<!-- Node8&#45;&gt;Node1 -->
<g id="edge7_Node000001_Node000008" class="edge">
<title>Node8&#45;&gt;Node1</title>
<g id="a_edge7_Node000001_Node000008"><a xlink:title=" ">
<path fill="none" stroke="#63b8ff" d="M504.26,-262.07C512.81,-262.85 521.4,-263.63 529.79,-264.39"/>
<polygon fill="#63b8ff" stroke="#63b8ff" points="504.53,-258.58 494.26,-261.16 503.9,-265.55 504.53,-258.58"/>
</a>
</g>
</g>
<!-- Node9 -->
<g id="Node000009" class="node">
<title>Node9</title>
<g id="a_Node000009"><a xlink:href="classARDOUR_1_1SessionHandleRef.html" target="_top" xlink:title=" ">
<polygon fill="white" stroke="#666666" points="486,-226 332,-226 332,-207 486,-207 486,-226"/>
<text text-anchor="middle" x="409" y="-214" font-family="Helvetica,sans-Serif" font-size="10.00">ARDOUR::SessionHandleRef</text>
</a>
</g>
</g>
<!-- Node9&#45;&gt;Node1 -->
<g id="edge8_Node000001_Node000009" class="edge">
<title>Node9&#45;&gt;Node1</title>
<g id="a_edge8_Node000001_Node000009"><a xlink:title=" ">
<path fill="none" stroke="#63b8ff" d="M468.58,-228.24C477.14,-230.19 485.82,-232.3 494,-234.5 524.14,-242.6 558.1,-253.91 581.05,-261.89"/>
<polygon fill="#63b8ff" stroke="#63b8ff" points="469.14,-224.78 458.62,-226.03 467.62,-231.62 469.14,-224.78"/>
</a>
</g>
</g>
<!-- Node10 -->
<g id="Node000010" class="node">
<title>Node10</title>
<g id="a_Node000010"><a xlink:href="classPBD_1_1ScopedConnectionList.html" target="_top" xlink:title=" ">
<polygon fill="white" stroke="#666666" points="288,-226 138,-226 138,-207 288,-207 288,-226"/>
<text text-anchor="middle" x="213" y="-214" font-family="Helvetica,sans-Serif" font-size="10.00">PBD::ScopedConnectionList</text>
</a>
</g>
</g>
<!-- Node10&#45;&gt;Node9 -->
<g id="edge9_Node000009_Node000010" class="edge">
<title>Node10&#45;&gt;Node9</title>
<g id="a_edge9_Node000009_Node000010"><a xlink:title=" ">
<path fill="none" stroke="#63b8ff" d="M298.35,-216.5C309.52,-216.5 320.92,-216.5 331.94,-216.5"/>
<polygon fill="#63b8ff" stroke="#63b8ff" points="298.17,-213 288.17,-216.5 298.17,-220 298.17,-213"/>
</a>
</g>
</g>
<!-- Node15 -->
<g id="Node000015" class="node">
<title>Node15</title>
<g id="a_Node000015"><a xlink:href="structARDOUR_1_1PluginInsert_1_1PIControl.html" target="_top" xlink:title=" ">
<polygon fill="white" stroke="#666666" points="1073,-363.5 950,-363.5 950,-333.5 1073,-333.5 1073,-363.5"/>
<text text-anchor="start" x="958" y="-351.5" font-family="Helvetica,sans-Serif" font-size="10.00">ARDOUR::PluginInsert</text>
<text text-anchor="middle" x="1011.5" y="-340.5" font-family="Helvetica,sans-Serif" font-size="10.00">::PIControl</text>
</a>
</g>
</g>
<!-- Node14&#45;&gt;Node15 -->
<g id="edge14_Node000014_Node000015" class="edge">
<title>Node14&#45;&gt;Node15</title>
<g id="a_edge14_Node000014_Node000015"><a xlink:title=" ">
<path fill="none" stroke="#63b8ff" d="M877.95,-290.08C882.79,-292.05 887.52,-294.19 892,-296.5 910.01,-305.8 909.95,-315.28 928,-324.5 934.91,-328.03 942.41,-331.11 949.99,-333.79"/>
<polygon fill="#63b8ff" stroke="#63b8ff" points="879.14,-286.79 868.55,-286.51 876.66,-293.33 879.14,-286.79"/>
</a>
</g>
</g>
<!-- Node18 -->
<g id="Node000018" class="node">
<title>Node18</title>
<g id="a_Node000018"><a xlink:href="classARDOUR_1_1GainControl.html" target="_top" xlink:title=" ">
<polygon fill="white" stroke="#666666" points="1073,-315 950,-315 950,-296 1073,-296 1073,-315"/>
<text text-anchor="middle" x="1011.5" y="-303" font-family="Helvetica,sans-Serif" font-size="10.00">ARDOUR::GainControl</text>
</a>
</g>
</g>
<!-- Node17&#45;&gt;Node18 -->
<g id="edge17_Node000017_Node000018" class="edge">
<title>Node17&#45;&gt;Node18</title>
<g id="a_edge17_Node000017_Node000018"><a xlink:title=" ">
<path fill="none" stroke="#63b8ff" d="M887.93,-196.15C889.34,-197.21 890.7,-198.33 892,-199.5 923.43,-227.74 895.64,-260.32 928,-287.5 934.29,-292.78 941.77,-296.61 949.63,-299.38"/>
<polygon fill="#63b8ff" stroke="#63b8ff" points="889.73,-193.15 879.44,-190.65 885.93,-199.03 889.73,-193.15"/>
</a>
</g>
</g>
<!-- Node19 -->
<g id="Node000019" class="node">
<title>Node19</title>
<g id="a_Node000019"><a xlink:href="classARDOUR_1_1MonitorControl.html" target="_top" xlink:title=" ">
<polygon fill="white" stroke="#666666" points="1080.5,-278 942.5,-278 942.5,-259 1080.5,-259 1080.5,-278"/>
<text text-anchor="middle" x="1011.5" y="-266" font-family="Helvetica,sans-Serif" font-size="10.00">ARDOUR::MonitorControl</text>
</a>
</g>
</g>
<!-- Node17&#45;&gt;Node19 -->
<g id="edge18_Node000017_Node000019" class="edge">
<title>Node17&#45;&gt;Node19</title>
<g id="a_edge18_Node000017_Node000019"><a xlink:title=" ">
<path fill="none" stroke="#63b8ff" d="M885.3,-195.24C887.61,-196.57 889.85,-197.99 892,-199.5 914.38,-215.28 905.19,-234.34 928,-249.5 933.88,-253.4 940.45,-256.51 947.25,-258.99"/>
<polygon fill="#63b8ff" stroke="#63b8ff" points="886.58,-191.96 876.08,-190.54 883.4,-198.2 886.58,-191.96"/>
</a>
</g>
</g>
<!-- Node20 -->
<g id="Node000020" class="node">
<title>Node20</title>
<g id="a_Node000020"><a xlink:href="classARDOUR_1_1MuteControl.html" target="_top" xlink:title=" ">
<polygon fill="white" stroke="#666666" points="1074,-241 949,-241 949,-222 1074,-222 1074,-241"/>
<text text-anchor="middle" x="1011.5" y="-229" font-family="Helvetica,sans-Serif" font-size="10.00">ARDOUR::MuteControl</text>
</a>
</g>
</g>
<!-- Node17&#45;&gt;Node20 -->
<g id="edge19_Node000017_Node000020" class="edge">
<title>Node17&#45;&gt;Node20</title>
<g id="a_edge19_Node000017_Node000020"><a xlink:title=" ">
<path fill="none" stroke="#63b8ff" d="M873.18,-193.61C879.55,-195.54 885.91,-197.52 892,-199.5 908.18,-204.75 911.68,-207.69 928,-212.5 939.7,-215.95 952.49,-219.16 964.43,-221.92"/>
<polygon fill="#63b8ff" stroke="#63b8ff" points="873.76,-190.13 863.18,-190.61 871.76,-196.83 873.76,-190.13"/>
</a>
</g>
</g>
<!-- Node21 -->
<g id="Node000021" class="node">
<title>Node21</title>
<g id="a_Node000021"><a xlink:href="classARDOUR_1_1RecordEnableControl.html" target="_top" xlink:title=" ">
<polygon fill="white" stroke="#666666" points="1095,-204 928,-204 928,-185 1095,-185 1095,-204"/>
<text text-anchor="middle" x="1011.5" y="-192" font-family="Helvetica,sans-Serif" font-size="10.00">ARDOUR::RecordEnableControl</text>
</a>
</g>
</g>
<!-- Node17&#45;&gt;Node21 -->
<g id="edge20_Node000017_Node000021" class="edge">
<title>Node17&#45;&gt;Node21</title>
<g id="a_edge20_Node000017_Node000021"><a xlink:title=" ">
<path fill="none" stroke="#63b8ff" d="M900.09,-184.09C909.37,-184.96 918.76,-185.85 927.94,-186.71"/>
<polygon fill="#63b8ff" stroke="#63b8ff" points="900.37,-180.6 890.09,-183.15 899.71,-187.57 900.37,-180.6"/>
</a>
</g>
</g>
<!-- Node22 -->
<g id="Node000022" class="node">
<title>Node22</title>
<g id="a_Node000022"><a xlink:href="classARDOUR_1_1RecordSafeControl.html" target="_top" xlink:title=" ">
<polygon fill="white" stroke="#666666" points="1089.5,-167 933.5,-167 933.5,-148 1089.5,-148 1089.5,-167"/>
<text text-anchor="middle" x="1011.5" y="-155" font-family="Helvetica,sans-Serif" font-size="10.00">ARDOUR::RecordSafeControl</text>
</a>
</g>
</g>
<!-- Node17&#45;&gt;Node22 -->
<g id="edge21_Node000017_Node000022" class="edge">
<title>Node17&#45;&gt;Node22</title>
<g id="a_edge21_Node000017_Node000022"><a xlink:title=" ">
<path fill="none" stroke="#63b8ff" d="M900.16,-167.36C911.19,-166.37 922.37,-165.37 933.17,-164.41"/>
<polygon fill="#63b8ff" stroke="#63b8ff" points="899.74,-163.88 890.09,-168.26 900.36,-170.85 899.74,-163.88"/>
</a>
</g>
</g>
<!-- Node23 -->
<g id="Node000023" class="node">
<title>Node23</title>
<g id="a_Node000023"><a xlink:href="classARDOUR_1_1SoloControl.html" target="_top" xlink:title=" ">
<polygon fill="white" stroke="#666666" points="1072.5,-130 950.5,-130 950.5,-111 1072.5,-111 1072.5,-130"/>
<text text-anchor="middle" x="1011.5" y="-118" font-family="Helvetica,sans-Serif" font-size="10.00">ARDOUR::SoloControl</text>
</a>
</g>
</g>
<!-- Node17&#45;&gt;Node23 -->
<g id="edge22_Node000017_Node000023" class="edge">
<title>Node17&#45;&gt;Node23</title>
<g id="a_edge22_Node000017_Node000023"><a xlink:title=" ">
<path fill="none" stroke="#63b8ff" d="M869.78,-157.42C877.27,-155.12 884.82,-152.78 892,-150.5 908.08,-145.4 911.74,-142.97 928,-138.5 939.17,-135.43 951.3,-132.54 962.74,-130.01"/>
<polygon fill="#63b8ff" stroke="#63b8ff" points="868.54,-154.14 859.99,-160.4 870.58,-160.83 868.54,-154.14"/>
</a>
</g>
</g>
<!-- Node24 -->
<g id="Node000024" class="node">
<title>Node24</title>
<g id="a_Node000024"><a xlink:href="classARDOUR_1_1SoloIsolateControl.html" target="_top" xlink:title=" ">
<polygon fill="white" stroke="#666666" points="1089,-93 934,-93 934,-74 1089,-74 1089,-93"/>
<text text-anchor="middle" x="1011.5" y="-81" font-family="Helvetica,sans-Serif" font-size="10.00">ARDOUR::SoloIsolateControl</text>
</a>
</g>
</g>
<!-- Node17&#45;&gt;Node24 -->
<g id="edge23_Node000017_Node000024" class="edge">
<title>Node17&#45;&gt;Node24</title>
<g id="a_edge23_Node000017_Node000024"><a xlink:title=" ">
<path fill="none" stroke="#63b8ff" d="M883.49,-155.81C886.44,-154.18 889.3,-152.41 892,-150.5 914.07,-134.91 905.34,-116.22 928,-101.5 933.29,-98.07 939.12,-95.28 945.18,-93.02"/>
<polygon fill="#63b8ff" stroke="#63b8ff" points="881.77,-152.75 874.36,-160.32 884.87,-159.03 881.77,-152.75"/>
</a>
</g>
</g>
<!-- Node25 -->
<g id="Node000025" class="node">
<title>Node25</title>
<g id="a_Node000025"><a xlink:href="classARDOUR_1_1SoloSafeControl.html" target="_top" xlink:title=" ">
<polygon fill="white" stroke="#666666" points="1083,-56 940,-56 940,-37 1083,-37 1083,-56"/>
<text text-anchor="middle" x="1011.5" y="-44" font-family="Helvetica,sans-Serif" font-size="10.00">ARDOUR::SoloSafeControl</text>
</a>
</g>
</g>
<!-- Node17&#45;&gt;Node25 -->
<g id="edge24_Node000017_Node000025" class="edge">
<title>Node17&#45;&gt;Node25</title>
<g id="a_edge24_Node000017_Node000025"><a xlink:title=" ">
<path fill="none" stroke="#63b8ff" d="M886.56,-154.88C888.45,-153.51 890.27,-152.06 892,-150.5 922.78,-122.76 896.16,-91.02 928,-64.5 932.05,-61.12 936.6,-58.34 941.42,-56.05"/>
<polygon fill="#63b8ff" stroke="#63b8ff" points="884.46,-152.07 877.81,-160.32 888.16,-158.01 884.46,-152.07"/>
</a>
</g>
</g>
<!-- Node26 -->
<g id="Node000026" class="node">
<title>Node26</title>
<g id="a_Node000026"><a xlink:href="classARDOUR_1_1VelocityControl.html" target="_top" xlink:title=" ">
<polygon fill="white" stroke="#666666" points="1081.5,-19 941.5,-19 941.5,0 1081.5,0 1081.5,-19"/>
<text text-anchor="middle" x="1011.5" y="-7" font-family="Helvetica,sans-Serif" font-size="10.00">ARDOUR::VelocityControl</text>
</a>
</g>
</g>
<!-- Node17&#45;&gt;Node26 -->
<g id="edge25_Node000017_Node000026" class="edge">
<title>Node17&#45;&gt;Node26</title>
<g id="a_edge25_Node000017_Node000026"><a xlink:title=" ">
<path fill="none" stroke="#63b8ff" d="M887.48,-154.58C889.06,-153.3 890.57,-151.94 892,-150.5 932.12,-110.07 886.34,-66.34 928,-27.5 931.97,-23.8 936.51,-20.8 941.38,-18.36"/>
<polygon fill="#63b8ff" stroke="#63b8ff" points="885.33,-151.81 879.08,-160.36 889.3,-157.58 885.33,-151.81"/>
</a>
</g>
</g>
</g>
</svg>
