<?xml version="1.0" encoding="UTF-8" standalone="no"?>
<!DOCTYPE svg PUBLIC "-//W3C//DTD SVG 1.1//EN"
 "http://www.w3.org/Graphics/SVG/1.1/DTD/svg11.dtd">
<!-- Generated by graphviz version 2.43.0 (0)
 -->
<!-- Title: RubberbandSelectDrag Pages: 1 -->
<svg width="304pt" height="137pt"
 viewBox="0.00 0.00 303.50 137.00" xmlns="http://www.w3.org/2000/svg" xmlns:xlink="http://www.w3.org/1999/xlink">
<g id="graph0" class="graph" transform="scale(1 1) rotate(0) translate(4 133)">
<title>RubberbandSelectDrag</title>
<!-- Node1 -->
<g id="Node000001" class="node">
<title>Node1</title>
<g id="a_Node000001"><a xlink:title=" ">
<polygon fill="#999999" stroke="#666666" points="216.5,-74 88.5,-74 88.5,-55 216.5,-55 216.5,-74"/>
<text text-anchor="middle" x="152.5" y="-62" font-family="Helvetica,sans-Serif" font-size="10.00">RubberbandSelectDrag</text>
</a>
</g>
</g>
<!-- Node3 -->
<g id="Node000003" class="node">
<title>Node3</title>
<g id="a_Node000003"><a xlink:href="classMidiRubberbandSelectDrag.html" target="_top" xlink:title=" ">
<polygon fill="white" stroke="#666666" points="149,-19 0,-19 0,0 149,0 149,-19"/>
<text text-anchor="middle" x="74.5" y="-7" font-family="Helvetica,sans-Serif" font-size="10.00">MidiRubberbandSelectDrag</text>
</a>
</g>
</g>
<!-- Node1&#45;&gt;Node3 -->
<g id="edge2_Node000001_Node000003" class="edge">
<title>Node1&#45;&gt;Node3</title>
<g id="a_edge2_Node000001_Node000003"><a xlink:title=" ">
<path fill="none" stroke="#63b8ff" d="M131.38,-49.15C117.29,-39.57 99.21,-27.29 87.26,-19.17"/>
<polygon fill="#63b8ff" stroke="#63b8ff" points="129.73,-52.26 139.97,-54.98 133.66,-46.47 129.73,-52.26"/>
</a>
</g>
</g>
<!-- Node4 -->
<g id="Node000004" class="node">
<title>Node4</title>
<g id="a_Node000004"><a xlink:href="classMidiVerticalSelectDrag.html" target="_top" xlink:title=" ">
<polygon fill="white" stroke="#666666" points="295.5,-19 167.5,-19 167.5,0 295.5,0 295.5,-19"/>
<text text-anchor="middle" x="231.5" y="-7" font-family="Helvetica,sans-Serif" font-size="10.00">MidiVerticalSelectDrag</text>
</a>
</g>
</g>
<!-- Node1&#45;&gt;Node4 -->
<g id="edge3_Node000001_Node000004" class="edge">
<title>Node1&#45;&gt;Node4</title>
<g id="a_edge3_Node000001_Node000004"><a xlink:title=" ">
<path fill="none" stroke="#63b8ff" d="M173.89,-49.15C188.17,-39.57 206.47,-27.29 218.58,-19.17"/>
<polygon fill="#63b8ff" stroke="#63b8ff" points="171.55,-46.51 165.19,-54.98 175.45,-52.32 171.55,-46.51"/>
</a>
</g>
</g>
<!-- Node2 -->
<g id="Node000002" class="node">
<title>Node2</title>
<g id="a_Node000002"><a xlink:href="classDrag.html" target="_top" xlink:title=" ">
<polygon fill="white" stroke="#666666" points="172.5,-129 132.5,-129 132.5,-110 172.5,-110 172.5,-129"/>
<text text-anchor="middle" x="152.5" y="-117" font-family="Helvetica,sans-Serif" font-size="10.00">Drag</text>
</a>
</g>
</g>
<!-- Node2&#45;&gt;Node1 -->
<g id="edge1_Node000001_Node000002" class="edge">
<title>Node2&#45;&gt;Node1</title>
<g id="a_edge1_Node000001_Node000002"><a xlink:title=" ">
<path fill="none" stroke="#63b8ff" d="M152.5,-99.66C152.5,-90.93 152.5,-80.99 152.5,-74.09"/>
<polygon fill="#63b8ff" stroke="#63b8ff" points="149,-99.75 152.5,-109.75 156,-99.75 149,-99.75"/>
</a>
</g>
</g>
</g>
</svg>
