<?xml version="1.0" encoding="UTF-8" standalone="no"?>
<!DOCTYPE svg PUBLIC "-//W3C//DTD SVG 1.1//EN"
 "http://www.w3.org/Graphics/SVG/1.1/DTD/svg11.dtd">
<!-- Generated by graphviz version 2.43.0 (0)
 -->
<!-- Title: Evoral::ControlList Pages: 1 -->
<svg width="370pt" height="192pt"
 viewBox="0.00 0.00 370.00 192.00" xmlns="http://www.w3.org/2000/svg" xmlns:xlink="http://www.w3.org/1999/xlink">

<svg id="main" version="1.1" xmlns="http://www.w3.org/2000/svg" xmlns:xlink="http://www.w3.org/1999/xlink" xml:space="preserve" onload="init(evt)">
<style type="text/css"><![CDATA[
.node, .edge {opacity: 0.7;}
.node.selected, .edge.selected {opacity: 1;}
.edge:hover path { stroke: red; }
.edge:hover polygon { stroke: red; fill: red; }
]]></style>
<script type="application/ecmascript" xlink:href="svg.min.js"/>
<svg id="graph" class="graph">
<g id="graph0" class="graph" transform="scale(1 1) rotate(0) translate(4 188)">
<title>Evoral::ControlList</title>
<!-- Node1 -->
<g id="Node000001" class="node">
<title>Node1</title>
<g id="a_Node000001"><a xlink:title=" ">
<polygon fill="#999999" stroke="#666666" points="233.5,-74 127.5,-74 127.5,-55 233.5,-55 233.5,-74"/>
<text text-anchor="middle" x="180.5" y="-62" font-family="Helvetica,sans-Serif" font-size="10.00">Evoral::ControlList</text>
</a>
</g>
</g>
<!-- Node5 -->
<g id="Node000005" class="node">
<title>Node5</title>
<g id="a_Node000005"><a xlink:href="classARDOUR_1_1AutomationList.html" target="_top" xlink:title=" ">
<polygon fill="white" stroke="#666666" points="250.5,-19 110.5,-19 110.5,0 250.5,0 250.5,-19"/>
<text text-anchor="middle" x="180.5" y="-7" font-family="Helvetica,sans-Serif" font-size="10.00">ARDOUR::AutomationList</text>
</a>
</g>
</g>
<!-- Node1&#45;&gt;Node5 -->
<g id="edge4_Node000001_Node000005" class="edge">
<title>Node1&#45;&gt;Node5</title>
<g id="a_edge4_Node000001_Node000005"><a xlink:title=" ">
<path fill="none" stroke="#63b8ff" d="M180.5,-44.66C180.5,-35.93 180.5,-25.99 180.5,-19.09"/>
<polygon fill="#63b8ff" stroke="#63b8ff" points="177,-44.75 180.5,-54.75 184,-44.75 177,-44.75"/>
</a>
</g>
</g>
<!-- Node2 -->
<g id="Node000002" class="node">
<title>Node2</title>
<g id="a_Node000002"><a xlink:href="classTemporal_1_1TimeDomainProvider.html" target="_top" xlink:title=" ">
<polygon fill="white" stroke="#666666" points="171,-129 0,-129 0,-110 171,-110 171,-129"/>
<text text-anchor="middle" x="85.5" y="-117" font-family="Helvetica,sans-Serif" font-size="10.00">Temporal::TimeDomainProvider</text>
</a>
</g>
</g>
<!-- Node2&#45;&gt;Node1 -->
<g id="edge1_Node000001_Node000002" class="edge">
<title>Node2&#45;&gt;Node1</title>
<g id="a_edge1_Node000001_Node000002"><a xlink:title=" ">
<path fill="none" stroke="#63b8ff" d="M109.76,-104.97C127.13,-95.28 149.99,-82.52 164.96,-74.17"/>
<polygon fill="#63b8ff" stroke="#63b8ff" points="107.79,-102.06 100.76,-109.98 111.2,-108.17 107.79,-102.06"/>
</a>
</g>
</g>
<!-- Node3 -->
<g id="Node000003" class="node">
<title>Node3</title>
<g id="a_Node000003"><a xlink:href="structTemporal_1_1TimeDomainSwapper.html" target="_top" xlink:title=" ">
<polygon fill="white" stroke="#666666" points="362,-129 189,-129 189,-110 362,-110 362,-129"/>
<text text-anchor="middle" x="275.5" y="-117" font-family="Helvetica,sans-Serif" font-size="10.00">Temporal::TimeDomainSwapper</text>
</a>
</g>
</g>
<!-- Node3&#45;&gt;Node1 -->
<g id="edge2_Node000001_Node000003" class="edge">
<title>Node3&#45;&gt;Node1</title>
<g id="a_edge2_Node000001_Node000003"><a xlink:title=" ">
<path fill="none" stroke="#63b8ff" d="M251.24,-104.97C233.87,-95.28 211.01,-82.52 196.04,-74.17"/>
<polygon fill="#63b8ff" stroke="#63b8ff" points="249.8,-108.17 260.24,-109.98 253.21,-102.06 249.8,-108.17"/>
</a>
</g>
</g>
<!-- Node4 -->
<g id="Node000004" class="node">
<title>Node4</title>
<g id="a_Node000004"><a xlink:href="classPBD_1_1Destructible.html" target="_top" xlink:title=" ">
<polygon fill="white" stroke="#666666" points="326.5,-184 224.5,-184 224.5,-165 326.5,-165 326.5,-184"/>
<text text-anchor="middle" x="275.5" y="-172" font-family="Helvetica,sans-Serif" font-size="10.00">PBD::Destructible</text>
</a>
</g>
</g>
<!-- Node4&#45;&gt;Node3 -->
<g id="edge3_Node000003_Node000004" class="edge">
<title>Node4&#45;&gt;Node3</title>
<g id="a_edge3_Node000003_Node000004"><a xlink:title=" ">
<path fill="none" stroke="#63b8ff" d="M275.5,-154.66C275.5,-145.93 275.5,-135.99 275.5,-129.09"/>
<polygon fill="#63b8ff" stroke="#63b8ff" points="272,-154.75 275.5,-164.75 279,-154.75 272,-154.75"/>
</a>
</g>
</g>
</g>
</svg>
</svg>

<style type='text/css'>
<![CDATA[
[data-mouse-over-selected='false'] { opacity: 0.7; }
[data-mouse-over-selected='true']  { opacity: 1.0; }
]]>
</style>
<script type="application/ecmascript"><![CDATA[
document.addEventListener('DOMContentLoaded', (event) => {
  highlightEdges();
  highlightAdjacentNodes();
});
]]></script>
</svg>
