<?xml version="1.0" encoding="UTF-8" standalone="no"?>
<!DOCTYPE svg PUBLIC "-//W3C//DTD SVG 1.1//EN"
 "http://www.w3.org/Graphics/SVG/1.1/DTD/svg11.dtd">
<!-- Generated by graphviz version 2.43.0 (0)
 -->
<!-- Title: ArdourCanvas::VBox Pages: 1 -->
<svg width="258pt" height="247pt"
 viewBox="0.00 0.00 257.50 247.00" xmlns="http://www.w3.org/2000/svg" xmlns:xlink="http://www.w3.org/1999/xlink">

<svg id="main" version="1.1" xmlns="http://www.w3.org/2000/svg" xmlns:xlink="http://www.w3.org/1999/xlink" xml:space="preserve" onload="init(evt)">
<style type="text/css"><![CDATA[
.node, .edge {opacity: 0.7;}
.node.selected, .edge.selected {opacity: 1;}
.edge:hover path { stroke: red; }
.edge:hover polygon { stroke: red; fill: red; }
]]></style>
<script type="application/ecmascript" xlink:href="svg.min.js"/>
<svg id="graph" class="graph">
<g id="graph0" class="graph" transform="scale(1 1) rotate(0) translate(4 243)">
<title>ArdourCanvas::VBox</title>
<!-- Node1 -->
<g id="Node000001" class="node">
<title>Node1</title>
<g id="a_Node000001"><a xlink:title=" ">
<polygon fill="#999999" stroke="#666666" points="177.5,-19 61.5,-19 61.5,0 177.5,0 177.5,-19"/>
<text text-anchor="middle" x="119.5" y="-7" font-family="Helvetica,sans-Serif" font-size="10.00">ArdourCanvas::VBox</text>
</a>
</g>
</g>
<!-- Node2 -->
<g id="Node000002" class="node">
<title>Node2</title>
<g id="a_Node000002"><a xlink:href="classArdourCanvas_1_1Box.html" target="_top" xlink:title=" ">
<polygon fill="white" stroke="#666666" points="174.5,-74 64.5,-74 64.5,-55 174.5,-55 174.5,-74"/>
<text text-anchor="middle" x="119.5" y="-62" font-family="Helvetica,sans-Serif" font-size="10.00">ArdourCanvas::Box</text>
</a>
</g>
</g>
<!-- Node2&#45;&gt;Node1 -->
<g id="edge1_Node000001_Node000002" class="edge">
<title>Node2&#45;&gt;Node1</title>
<g id="a_edge1_Node000001_Node000002"><a xlink:title=" ">
<path fill="none" stroke="#63b8ff" d="M119.5,-44.66C119.5,-35.93 119.5,-25.99 119.5,-19.09"/>
<polygon fill="#63b8ff" stroke="#63b8ff" points="116,-44.75 119.5,-54.75 123,-44.75 116,-44.75"/>
</a>
</g>
</g>
<!-- Node3 -->
<g id="Node000003" class="node">
<title>Node3</title>
<g id="a_Node000003"><a xlink:href="classArdourCanvas_1_1Rectangle.html" target="_top" xlink:title=" ">
<polygon fill="white" stroke="#666666" points="189.5,-129 49.5,-129 49.5,-110 189.5,-110 189.5,-129"/>
<text text-anchor="middle" x="119.5" y="-117" font-family="Helvetica,sans-Serif" font-size="10.00">ArdourCanvas::Rectangle</text>
</a>
</g>
</g>
<!-- Node3&#45;&gt;Node2 -->
<g id="edge2_Node000002_Node000003" class="edge">
<title>Node3&#45;&gt;Node2</title>
<g id="a_edge2_Node000002_Node000003"><a xlink:title=" ">
<path fill="none" stroke="#63b8ff" d="M119.5,-99.66C119.5,-90.93 119.5,-80.99 119.5,-74.09"/>
<polygon fill="#63b8ff" stroke="#63b8ff" points="116,-99.75 119.5,-109.75 123,-99.75 116,-99.75"/>
</a>
</g>
</g>
<!-- Node4 -->
<g id="Node000004" class="node">
<title>Node4</title>
<g id="a_Node000004"><a xlink:href="classArdourCanvas_1_1Item.html" target="_top" xlink:title=" ">
<polygon fill="white" stroke="#666666" points="176,-184 63,-184 63,-165 176,-165 176,-184"/>
<text text-anchor="middle" x="119.5" y="-172" font-family="Helvetica,sans-Serif" font-size="10.00">ArdourCanvas::Item</text>
</a>
</g>
</g>
<!-- Node4&#45;&gt;Node3 -->
<g id="edge3_Node000003_Node000004" class="edge">
<title>Node4&#45;&gt;Node3</title>
<g id="a_edge3_Node000003_Node000004"><a xlink:title=" ">
<path fill="none" stroke="#63b8ff" d="M119.5,-154.66C119.5,-145.93 119.5,-135.99 119.5,-129.09"/>
<polygon fill="#63b8ff" stroke="#63b8ff" points="116,-154.75 119.5,-164.75 123,-154.75 116,-154.75"/>
</a>
</g>
</g>
<!-- Node5 -->
<g id="Node000005" class="node">
<title>Node5</title>
<g id="a_Node000005"><a xlink:href="classArdourCanvas_1_1Fill.html" target="_top" xlink:title=" ">
<polygon fill="white" stroke="#666666" points="105,-239 0,-239 0,-220 105,-220 105,-239"/>
<text text-anchor="middle" x="52.5" y="-227" font-family="Helvetica,sans-Serif" font-size="10.00">ArdourCanvas::Fill</text>
</a>
</g>
</g>
<!-- Node5&#45;&gt;Node4 -->
<g id="edge4_Node000004_Node000005" class="edge">
<title>Node5&#45;&gt;Node4</title>
<g id="a_edge4_Node000004_Node000005"><a xlink:title=" ">
<path fill="none" stroke="#63b8ff" d="M71.33,-213.6C83.34,-204.11 98.47,-192.13 108.54,-184.17"/>
<polygon fill="#63b8ff" stroke="#63b8ff" points="68.94,-211.04 63.26,-219.98 73.28,-216.53 68.94,-211.04"/>
</a>
</g>
</g>
<!-- Node6 -->
<g id="Node000006" class="node">
<title>Node6</title>
<g id="a_Node000006"><a xlink:href="classArdourCanvas_1_1Outline.html" target="_top" xlink:title=" ">
<polygon fill="white" stroke="#666666" points="249.5,-239 123.5,-239 123.5,-220 249.5,-220 249.5,-239"/>
<text text-anchor="middle" x="186.5" y="-227" font-family="Helvetica,sans-Serif" font-size="10.00">ArdourCanvas::Outline</text>
</a>
</g>
</g>
<!-- Node6&#45;&gt;Node4 -->
<g id="edge5_Node000004_Node000006" class="edge">
<title>Node6&#45;&gt;Node4</title>
<g id="a_edge5_Node000004_Node000006"><a xlink:title=" ">
<path fill="none" stroke="#63b8ff" d="M167.67,-213.6C155.66,-204.11 140.53,-192.13 130.46,-184.17"/>
<polygon fill="#63b8ff" stroke="#63b8ff" points="165.72,-216.53 175.74,-219.98 170.06,-211.04 165.72,-216.53"/>
</a>
</g>
</g>
</g>
</svg>
</svg>

<style type='text/css'>
<![CDATA[
[data-mouse-over-selected='false'] { opacity: 0.7; }
[data-mouse-over-selected='true']  { opacity: 1.0; }
]]>
</style>
<script type="application/ecmascript"><![CDATA[
document.addEventListener('DOMContentLoaded', (event) => {
  highlightEdges();
  highlightAdjacentNodes();
});
]]></script>
</svg>
