<?xml version="1.0" encoding="UTF-8" standalone="no"?>
<!DOCTYPE svg PUBLIC "-//W3C//DTD SVG 1.1//EN"
 "http://www.w3.org/Graphics/SVG/1.1/DTD/svg11.dtd">
<!-- Generated by graphviz version 2.43.0 (0)
 -->
<!-- Title: ARDOUR::MidiBuffer Pages: 1 -->
<svg width="232pt" height="93pt"
 viewBox="0.00 0.00 231.50 93.00" xmlns="http://www.w3.org/2000/svg" xmlns:xlink="http://www.w3.org/1999/xlink">
<g id="graph0" class="graph" transform="scale(1 1) rotate(0) translate(4 89)">
<title>ARDOUR::MidiBuffer</title>
<!-- Node1 -->
<g id="Node000001" class="node">
<title>Node1</title>
<g id="a_Node000001"><a xlink:title=" ">
<polygon fill="#999999" stroke="#666666" points="165.5,-19 49.5,-19 49.5,0 165.5,0 165.5,-19"/>
<text text-anchor="middle" x="107.5" y="-7" font-family="Helvetica,sans-Serif" font-size="10.00">ARDOUR::MidiBuffer</text>
</a>
</g>
</g>
<!-- Node2 -->
<g id="Node000002" class="node">
<title>Node2</title>
<g id="a_Node000002"><a xlink:href="classARDOUR_1_1Buffer.html" target="_top" xlink:title=" ">
<polygon fill="white" stroke="#666666" points="95,-79.5 0,-79.5 0,-60.5 95,-60.5 95,-79.5"/>
<text text-anchor="middle" x="47.5" y="-67.5" font-family="Helvetica,sans-Serif" font-size="10.00">ARDOUR::Buffer</text>
</a>
</g>
</g>
<!-- Node2&#45;&gt;Node1 -->
<g id="edge1_Node000001_Node000002" class="edge">
<title>Node2&#45;&gt;Node1</title>
<g id="a_edge1_Node000001_Node000002"><a xlink:title=" ">
<path fill="none" stroke="#63b8ff" d="M63.82,-53.09C75.02,-42.17 89.47,-28.08 98.61,-19.17"/>
<polygon fill="#63b8ff" stroke="#63b8ff" points="61.07,-50.88 56.35,-60.37 65.96,-55.89 61.07,-50.88"/>
</a>
</g>
</g>
<!-- Node3 -->
<g id="Node000003" class="node">
<title>Node3</title>
<g id="a_Node000003"><a xlink:href="classEvoral_1_1EventSink.html" target="_top" xlink:title=" ">
<polygon fill="white" stroke="#666666" points="223.5,-85 113.5,-85 113.5,-55 223.5,-55 223.5,-85"/>
<text text-anchor="start" x="121.5" y="-73" font-family="Helvetica,sans-Serif" font-size="10.00">Evoral::EventSink&lt;</text>
<text text-anchor="middle" x="168.5" y="-62" font-family="Helvetica,sans-Serif" font-size="10.00"> samplepos_t &gt;</text>
</a>
</g>
</g>
<!-- Node3&#45;&gt;Node1 -->
<g id="edge2_Node000001_Node000003" class="edge">
<title>Node3&#45;&gt;Node1</title>
<g id="a_edge2_Node000001_Node000003"><a xlink:title=" ">
<path fill="none" stroke="#63b8ff" d="M146.26,-47.67C136.03,-37.86 124.45,-26.76 116.64,-19.27"/>
<polygon fill="#63b8ff" stroke="#63b8ff" points="144.09,-50.44 153.73,-54.84 148.94,-45.39 144.09,-50.44"/>
</a>
</g>
</g>
</g>
</svg>
