<?xml version="1.0" encoding="UTF-8" standalone="no"?>
<!DOCTYPE svg PUBLIC "-//W3C//DTD SVG 1.1//EN"
 "http://www.w3.org/Graphics/SVG/1.1/DTD/svg11.dtd">
<!-- Generated by graphviz version 2.43.0 (0)
 -->
<!-- Title: ARDOUR::VCA Pages: 1 -->
<svg width="1026pt" height="277pt"
 viewBox="0.00 0.00 1026.00 277.00" xmlns="http://www.w3.org/2000/svg" xmlns:xlink="http://www.w3.org/1999/xlink">
<g id="graph0" class="graph" transform="scale(1 1) rotate(0) translate(4 273)">
<title>ARDOUR::VCA</title>
<!-- Node1 -->
<g id="Node000001" class="node">
<title>Node1</title>
<g id="a_Node000001"><a xlink:title=" ">
<polygon fill="#999999" stroke="#666666" points="1018,-93 932,-93 932,-74 1018,-74 1018,-93"/>
<text text-anchor="middle" x="975" y="-81" font-family="Helvetica,sans-Serif" font-size="10.00">ARDOUR::VCA</text>
</a>
</g>
</g>
<!-- Node2 -->
<g id="Node000002" class="node">
<title>Node2</title>
<g id="a_Node000002"><a xlink:href="classARDOUR_1_1Stripable.html" target="_top" xlink:title=" ">
<polygon fill="white" stroke="#666666" points="888.5,-167 779.5,-167 779.5,-148 888.5,-148 888.5,-167"/>
<text text-anchor="middle" x="834" y="-155" font-family="Helvetica,sans-Serif" font-size="10.00">ARDOUR::Stripable</text>
</a>
</g>
</g>
<!-- Node2&#45;&gt;Node1 -->
<g id="edge1_Node000001_Node000002" class="edge">
<title>Node2&#45;&gt;Node1</title>
<g id="a_edge1_Node000001_Node000002"><a xlink:title=" ">
<path fill="none" stroke="#63b8ff" d="M881.66,-144.64C886.59,-142.79 891.45,-140.74 896,-138.5 921.71,-125.82 948.29,-105.16 962.83,-93.1"/>
<polygon fill="#63b8ff" stroke="#63b8ff" points="880.46,-141.35 872.17,-147.95 882.77,-147.96 880.46,-141.35"/>
</a>
</g>
</g>
<!-- Node3 -->
<g id="Node000003" class="node">
<title>Node3</title>
<g id="a_Node000003"><a xlink:href="classARDOUR_1_1SessionObject.html" target="_top" xlink:title=" ">
<polygon fill="white" stroke="#666666" points="547.5,-232 413.5,-232 413.5,-213 547.5,-213 547.5,-232"/>
<text text-anchor="middle" x="480.5" y="-220" font-family="Helvetica,sans-Serif" font-size="10.00">ARDOUR::SessionObject</text>
</a>
</g>
</g>
<!-- Node3&#45;&gt;Node2 -->
<g id="edge2_Node000002_Node000003" class="edge">
<title>Node3&#45;&gt;Node2</title>
<g id="a_edge2_Node000002_Node000003"><a xlink:title=" ">
<path fill="none" stroke="#63b8ff" d="M545.64,-211.17C597.13,-202.02 671.26,-188.69 736,-176.5 752.02,-173.48 769.51,-170.09 785.17,-167.01"/>
<polygon fill="#63b8ff" stroke="#63b8ff" points="544.89,-207.75 535.66,-212.95 546.12,-214.64 544.89,-207.75"/>
</a>
</g>
</g>
<!-- Node4 -->
<g id="Node000004" class="node">
<title>Node4</title>
<g id="a_Node000004"><a xlink:href="classARDOUR_1_1SessionHandleRef.html" target="_top" xlink:title=" ">
<polygon fill="white" stroke="#666666" points="349.5,-269 195.5,-269 195.5,-250 349.5,-250 349.5,-269"/>
<text text-anchor="middle" x="272.5" y="-257" font-family="Helvetica,sans-Serif" font-size="10.00">ARDOUR::SessionHandleRef</text>
</a>
</g>
</g>
<!-- Node4&#45;&gt;Node3 -->
<g id="edge3_Node000003_Node000004" class="edge">
<title>Node4&#45;&gt;Node3</title>
<g id="a_edge3_Node000003_Node000004"><a xlink:title=" ">
<path fill="none" stroke="#63b8ff" d="M336.49,-248.19C365.2,-243.03 398.84,-236.99 426.27,-232.06"/>
<polygon fill="#63b8ff" stroke="#63b8ff" points="335.77,-244.76 326.55,-249.97 337.01,-251.65 335.77,-244.76"/>
</a>
</g>
</g>
<!-- Node5 -->
<g id="Node000005" class="node">
<title>Node5</title>
<g id="a_Node000005"><a xlink:href="classPBD_1_1ScopedConnectionList.html" target="_top" xlink:title=" ">
<polygon fill="white" stroke="#666666" points="150,-269 0,-269 0,-250 150,-250 150,-269"/>
<text text-anchor="middle" x="75" y="-257" font-family="Helvetica,sans-Serif" font-size="10.00">PBD::ScopedConnectionList</text>
</a>
</g>
</g>
<!-- Node5&#45;&gt;Node4 -->
<g id="edge4_Node000004_Node000005" class="edge">
<title>Node5&#45;&gt;Node4</title>
<g id="a_edge4_Node000004_Node000005"><a xlink:title=" ">
<path fill="none" stroke="#63b8ff" d="M160.35,-259.5C172,-259.5 183.92,-259.5 195.41,-259.5"/>
<polygon fill="#63b8ff" stroke="#63b8ff" points="160.19,-256 150.19,-259.5 160.19,-263 160.19,-256"/>
</a>
</g>
</g>
<!-- Node6 -->
<g id="Node000006" class="node">
<title>Node6</title>
<g id="a_Node000006"><a xlink:href="classPBD_1_1StatefulDestructible.html" target="_top" xlink:title=" ">
<polygon fill="white" stroke="#666666" points="342.5,-232 202.5,-232 202.5,-213 342.5,-213 342.5,-232"/>
<text text-anchor="middle" x="272.5" y="-220" font-family="Helvetica,sans-Serif" font-size="10.00">PBD::StatefulDestructible</text>
</a>
</g>
</g>
<!-- Node6&#45;&gt;Node3 -->
<g id="edge5_Node000003_Node000006" class="edge">
<title>Node6&#45;&gt;Node3</title>
<g id="a_edge5_Node000003_Node000006"><a xlink:title=" ">
<path fill="none" stroke="#63b8ff" d="M352.69,-222.5C372.71,-222.5 394,-222.5 413.31,-222.5"/>
<polygon fill="#63b8ff" stroke="#63b8ff" points="352.67,-219 342.67,-222.5 352.67,-226 352.67,-219"/>
</a>
</g>
</g>
<!-- Node7 -->
<g id="Node000007" class="node">
<title>Node7</title>
<g id="a_Node000007"><a xlink:href="classPBD_1_1Stateful.html" target="_top" xlink:title=" ">
<polygon fill="white" stroke="#666666" points="115.5,-232 34.5,-232 34.5,-213 115.5,-213 115.5,-232"/>
<text text-anchor="middle" x="75" y="-220" font-family="Helvetica,sans-Serif" font-size="10.00">PBD::Stateful</text>
</a>
</g>
</g>
<!-- Node7&#45;&gt;Node6 -->
<g id="edge6_Node000006_Node000007" class="edge">
<title>Node7&#45;&gt;Node6</title>
<g id="a_edge6_Node000006_Node000007"><a xlink:title=" ">
<path fill="none" stroke="#63b8ff" d="M125.87,-222.5C149.09,-222.5 177.1,-222.5 202.32,-222.5"/>
<polygon fill="#63b8ff" stroke="#63b8ff" points="125.56,-219 115.56,-222.5 125.56,-226 125.56,-219"/>
</a>
</g>
</g>
<!-- Node8 -->
<g id="Node000008" class="node">
<title>Node8</title>
<g id="a_Node000008"><a xlink:href="classPBD_1_1Destructible.html" target="_top" xlink:title=" ">
<polygon fill="white" stroke="#666666" points="126,-195 24,-195 24,-176 126,-176 126,-195"/>
<text text-anchor="middle" x="75" y="-183" font-family="Helvetica,sans-Serif" font-size="10.00">PBD::Destructible</text>
</a>
</g>
</g>
<!-- Node8&#45;&gt;Node6 -->
<g id="edge7_Node000006_Node000008" class="edge">
<title>Node8&#45;&gt;Node6</title>
<g id="a_edge7_Node000006_Node000008"><a xlink:title=" ">
<path fill="none" stroke="#63b8ff" d="M135.92,-196.84C163.22,-202.01 195.17,-208.05 221.2,-212.98"/>
<polygon fill="#63b8ff" stroke="#63b8ff" points="136.57,-193.4 126.09,-194.98 135.27,-200.28 136.57,-193.4"/>
</a>
</g>
</g>
<!-- Node12 -->
<g id="Node000012" class="node">
<title>Node12</title>
<g id="a_Node000012"><a xlink:href="structTemporal_1_1TimeDomainSwapper.html" target="_top" xlink:title=" ">
<polygon fill="white" stroke="#666666" points="359,-195 186,-195 186,-176 359,-176 359,-195"/>
<text text-anchor="middle" x="272.5" y="-183" font-family="Helvetica,sans-Serif" font-size="10.00">Temporal::TimeDomainSwapper</text>
</a>
</g>
</g>
<!-- Node8&#45;&gt;Node12 -->
<g id="edge12_Node000012_Node000008" class="edge">
<title>Node8&#45;&gt;Node12</title>
<g id="a_edge12_Node000012_Node000008"><a xlink:title=" ">
<path fill="none" stroke="#63b8ff" d="M136.17,-185.5C151.88,-185.5 169.11,-185.5 185.86,-185.5"/>
<polygon fill="#63b8ff" stroke="#63b8ff" points="136.09,-182 126.09,-185.5 136.09,-189 136.09,-182"/>
</a>
</g>
</g>
<!-- Node9 -->
<g id="Node000009" class="node">
<title>Node9</title>
<g id="a_Node000009"><a xlink:href="classARDOUR_1_1Automatable.html" target="_top" xlink:title=" ">
<polygon fill="white" stroke="#666666" points="733,-167 605,-167 605,-148 733,-148 733,-167"/>
<text text-anchor="middle" x="669" y="-155" font-family="Helvetica,sans-Serif" font-size="10.00">ARDOUR::Automatable</text>
</a>
</g>
</g>
<!-- Node9&#45;&gt;Node2 -->
<g id="edge8_Node000002_Node000009" class="edge">
<title>Node9&#45;&gt;Node2</title>
<g id="a_edge8_Node000002_Node000009"><a xlink:title=" ">
<path fill="none" stroke="#63b8ff" d="M743.18,-157.5C755.38,-157.5 767.82,-157.5 779.41,-157.5"/>
<polygon fill="#63b8ff" stroke="#63b8ff" points="743.02,-154 733.02,-157.5 743.02,-161 743.02,-154"/>
</a>
</g>
</g>
<!-- Node10 -->
<g id="Node000010" class="node">
<title>Node10</title>
<g id="a_Node000010"><a xlink:href="classEvoral_1_1ControlSet.html" target="_top" xlink:title=" ">
<polygon fill="white" stroke="#666666" points="532.5,-195 428.5,-195 428.5,-176 532.5,-176 532.5,-195"/>
<text text-anchor="middle" x="480.5" y="-183" font-family="Helvetica,sans-Serif" font-size="10.00">Evoral::ControlSet</text>
</a>
</g>
</g>
<!-- Node10&#45;&gt;Node9 -->
<g id="edge9_Node000009_Node000010" class="edge">
<title>Node10&#45;&gt;Node9</title>
<g id="a_edge9_Node000009_Node000010"><a xlink:title=" ">
<path fill="none" stroke="#63b8ff" d="M543.09,-176.25C562.88,-173.28 584.84,-169.99 604.75,-167"/>
<polygon fill="#63b8ff" stroke="#63b8ff" points="542.33,-172.83 532.96,-177.77 543.36,-179.75 542.33,-172.83"/>
</a>
</g>
</g>
<!-- Node11 -->
<g id="Node000011" class="node">
<title>Node11</title>
<g id="a_Node000011"><a xlink:title=" ">
<polygon fill="white" stroke="#666666" points="328.5,-158 216.5,-158 216.5,-139 328.5,-139 328.5,-158"/>
<text text-anchor="middle" x="272.5" y="-146" font-family="Helvetica,sans-Serif" font-size="10.00">boost::noncopyable</text>
</a>
</g>
</g>
<!-- Node11&#45;&gt;Node10 -->
<g id="edge10_Node000010_Node000011" class="edge">
<title>Node11&#45;&gt;Node10</title>
<g id="a_edge10_Node000010_Node000011"><a xlink:title=" ">
<path fill="none" stroke="#63b8ff" d="M336.72,-159.86C366.14,-165.14 400.67,-171.34 428.41,-176.32"/>
<polygon fill="#63b8ff" stroke="#63b8ff" points="337.01,-156.35 326.55,-158.03 335.77,-163.24 337.01,-156.35"/>
</a>
</g>
</g>
<!-- Node12&#45;&gt;Node10 -->
<g id="edge11_Node000010_Node000012" class="edge">
<title>Node12&#45;&gt;Node10</title>
<g id="a_edge11_Node000010_Node000012"><a xlink:title=" ">
<path fill="none" stroke="#63b8ff" d="M369.35,-185.5C389.71,-185.5 410.44,-185.5 428.35,-185.5"/>
<polygon fill="#63b8ff" stroke="#63b8ff" points="369.07,-182 359.07,-185.5 369.07,-189 369.07,-182"/>
</a>
</g>
</g>
<!-- Node13 -->
<g id="Node000013" class="node">
<title>Node13</title>
<g id="a_Node000013"><a xlink:href="classARDOUR_1_1Slavable.html" target="_top" xlink:title=" ">
<polygon fill="white" stroke="#666666" points="534,-158 427,-158 427,-139 534,-139 534,-158"/>
<text text-anchor="middle" x="480.5" y="-146" font-family="Helvetica,sans-Serif" font-size="10.00">ARDOUR::Slavable</text>
</a>
</g>
</g>
<!-- Node13&#45;&gt;Node9 -->
<g id="edge13_Node000009_Node000013" class="edge">
<title>Node13&#45;&gt;Node9</title>
<g id="a_edge13_Node000009_Node000013"><a xlink:title=" ">
<path fill="none" stroke="#63b8ff" d="M544.67,-151.55C564.02,-152.48 585.31,-153.51 604.67,-154.44"/>
<polygon fill="#63b8ff" stroke="#63b8ff" points="544.6,-148.04 534.44,-151.05 544.26,-155.03 544.6,-148.04"/>
</a>
</g>
</g>
<!-- Node14 -->
<g id="Node000014" class="node">
<title>Node14</title>
<g id="a_Node000014"><a xlink:href="classTemporal_1_1TimeDomainProvider.html" target="_top" xlink:title=" ">
<polygon fill="white" stroke="#666666" points="566,-121 395,-121 395,-102 566,-102 566,-121"/>
<text text-anchor="middle" x="480.5" y="-109" font-family="Helvetica,sans-Serif" font-size="10.00">Temporal::TimeDomainProvider</text>
</a>
</g>
</g>
<!-- Node14&#45;&gt;Node9 -->
<g id="edge14_Node000009_Node000014" class="edge">
<title>Node14&#45;&gt;Node9</title>
<g id="a_edge14_Node000009_Node000014"><a xlink:title=" ">
<path fill="none" stroke="#63b8ff" d="M538.44,-123.16C547.67,-125.18 557.12,-127.34 566,-129.5 589.19,-135.15 615.14,-142.28 635.05,-147.93"/>
<polygon fill="#63b8ff" stroke="#63b8ff" points="539.05,-119.71 528.54,-121.01 537.57,-126.55 539.05,-119.71"/>
</a>
</g>
</g>
<!-- Node15 -->
<g id="Node000015" class="node">
<title>Node15</title>
<g id="a_Node000015"><a xlink:title=" ">
<polygon fill="white" stroke="#666666" points="736,-129.5 602,-129.5 602,-99.5 736,-99.5 736,-129.5"/>
<text text-anchor="start" x="610" y="-117.5" font-family="Helvetica,sans-Serif" font-size="10.00">std::enable_shared</text>
<text text-anchor="middle" x="669" y="-106.5" font-family="Helvetica,sans-Serif" font-size="10.00">_from_this&lt; Stripable &gt;</text>
</a>
</g>
</g>
<!-- Node15&#45;&gt;Node2 -->
<g id="edge15_Node000002_Node000015" class="edge">
<title>Node15&#45;&gt;Node2</title>
<g id="a_edge15_Node000002_Node000015"><a xlink:title=" ">
<path fill="none" stroke="#63b8ff" d="M736.92,-132.15C757.36,-137.55 779.06,-143.27 796.66,-147.91"/>
<polygon fill="#63b8ff" stroke="#63b8ff" points="737.57,-128.71 727.01,-129.54 735.79,-135.47 737.57,-128.71"/>
</a>
</g>
</g>
<!-- Node16 -->
<g id="Node000016" class="node">
<title>Node16</title>
<g id="a_Node000016"><a xlink:href="classARDOUR_1_1Soloable.html" target="_top" xlink:title=" ">
<polygon fill="white" stroke="#666666" points="887.5,-130 780.5,-130 780.5,-111 887.5,-111 887.5,-130"/>
<text text-anchor="middle" x="834" y="-118" font-family="Helvetica,sans-Serif" font-size="10.00">ARDOUR::Soloable</text>
</a>
</g>
</g>
<!-- Node16&#45;&gt;Node1 -->
<g id="edge16_Node000001_Node000016" class="edge">
<title>Node16&#45;&gt;Node1</title>
<g id="a_edge16_Node000001_Node000016"><a xlink:title=" ">
<path fill="none" stroke="#63b8ff" d="M880.53,-108.38C899.13,-103.43 920.34,-97.78 937.84,-93.12"/>
<polygon fill="#63b8ff" stroke="#63b8ff" points="879.56,-105.02 870.8,-110.97 881.36,-111.78 879.56,-105.02"/>
</a>
</g>
</g>
<!-- Node17 -->
<g id="Node000017" class="node">
<title>Node17</title>
<g id="a_Node000017"><a xlink:href="classARDOUR_1_1Muteable.html" target="_top" xlink:title=" ">
<polygon fill="white" stroke="#666666" points="889.5,-93 778.5,-93 778.5,-74 889.5,-74 889.5,-93"/>
<text text-anchor="middle" x="834" y="-81" font-family="Helvetica,sans-Serif" font-size="10.00">ARDOUR::Muteable</text>
</a>
</g>
</g>
<!-- Node17&#45;&gt;Node1 -->
<g id="edge17_Node000001_Node000017" class="edge">
<title>Node17&#45;&gt;Node1</title>
<g id="a_edge17_Node000001_Node000017"><a xlink:title=" ">
<path fill="none" stroke="#63b8ff" d="M899.82,-83.5C910.63,-83.5 921.59,-83.5 931.65,-83.5"/>
<polygon fill="#63b8ff" stroke="#63b8ff" points="899.54,-80 889.54,-83.5 899.54,-87 899.54,-80"/>
</a>
</g>
</g>
<!-- Node18 -->
<g id="Node000018" class="node">
<title>Node18</title>
<g id="a_Node000018"><a xlink:href="classARDOUR_1_1Recordable.html" target="_top" xlink:title=" ">
<polygon fill="white" stroke="#666666" points="894,-56 774,-56 774,-37 894,-37 894,-56"/>
<text text-anchor="middle" x="834" y="-44" font-family="Helvetica,sans-Serif" font-size="10.00">ARDOUR::Recordable</text>
</a>
</g>
</g>
<!-- Node18&#45;&gt;Node1 -->
<g id="edge18_Node000001_Node000018" class="edge">
<title>Node18&#45;&gt;Node1</title>
<g id="a_edge18_Node000001_Node000018"><a xlink:title=" ">
<path fill="none" stroke="#63b8ff" d="M880.53,-58.62C899.13,-63.57 920.34,-69.22 937.84,-73.88"/>
<polygon fill="#63b8ff" stroke="#63b8ff" points="881.36,-55.22 870.8,-56.03 879.56,-61.98 881.36,-55.22"/>
</a>
</g>
</g>
<!-- Node19 -->
<g id="Node000019" class="node">
<title>Node19</title>
<g id="a_Node000019"><a xlink:href="classARDOUR_1_1Monitorable.html" target="_top" xlink:title=" ">
<polygon fill="white" stroke="#666666" points="896,-19 772,-19 772,0 896,0 896,-19"/>
<text text-anchor="middle" x="834" y="-7" font-family="Helvetica,sans-Serif" font-size="10.00">ARDOUR::Monitorable</text>
</a>
</g>
</g>
<!-- Node19&#45;&gt;Node1 -->
<g id="edge19_Node000001_Node000019" class="edge">
<title>Node19&#45;&gt;Node1</title>
<g id="a_edge19_Node000001_Node000019"><a xlink:title=" ">
<path fill="none" stroke="#63b8ff" d="M884.09,-22.39C888.18,-23.94 892.21,-25.64 896,-27.5 922.06,-40.24 948.73,-61.53 963.14,-73.87"/>
<polygon fill="#63b8ff" stroke="#63b8ff" points="885.06,-19.02 874.46,-19.03 882.75,-25.63 885.06,-19.02"/>
</a>
</g>
</g>
</g>
</svg>
