<?xml version="1.0" encoding="UTF-8" standalone="no"?>
<!DOCTYPE svg PUBLIC "-//W3C//DTD SVG 1.1//EN"
 "http://www.w3.org/Graphics/SVG/1.1/DTD/svg11.dtd">
<!-- Generated by graphviz version 2.43.0 (0)
 -->
<!-- Title: command.h Pages: 1 -->
<!--zoomable 379 -->

<svg id="main" version="1.1" xmlns="http://www.w3.org/2000/svg" xmlns:xlink="http://www.w3.org/1999/xlink" xml:space="preserve" onload="init(evt)">
<style type="text/css"><![CDATA[
.node, .edge {opacity: 0.7;}
.node.selected, .edge.selected {opacity: 1;}
.edge:hover path { stroke: red; }
.edge:hover polygon { stroke: red; fill: red; }
]]></style>

<defs>
  <circle id="rim" cx="0" cy="0" r="7"/>
  <circle id="rim2" cx="0" cy="0" r="3.5"/>
  <g id="zoomPlus">
    <use xlink:href="#rim" fill="#404040"><set attributeName="fill" to="#808080" begin="zoomplus.mouseover" end="zoomplus.mouseout"/></use>
    <path d="M-4,0h8M0,-4v8" fill="none" stroke="white" stroke-width="1.5" pointer-events="none"/>
  </g>
  <g id="zoomMin">
    <use xlink:href="#rim" fill="#404040"><set attributeName="fill" to="#808080" begin="zoomminus.mouseover" end="zoomminus.mouseout"/></use>
    <path d="M-4,0h8" fill="none" stroke="white" stroke-width="1.5" pointer-events="none"/>
  </g>
  <g id="arrowUp" transform="translate(30 24)">
    <use xlink:href="#rim"/>
    <path pointer-events="none" fill="none" stroke="white" stroke-width="1.5" d="M0,-3.0v7 M-2.5,-0.5L0,-3.0L2.5,-0.5"/>
  </g>
  <g id="arrowRight" transform="rotate(90) translate(36 -43)">
    <use xlink:href="#rim"/>
    <path pointer-events="none" fill="none" stroke="white" stroke-width="1.5" d="M0,-3.0v7 M-2.5,-0.5L0,-3.0L2.5,-0.5"/>
  </g>
  <g id="arrowDown" transform="rotate(180) translate(-30 -48)">
    <use xlink:href="#rim"/>
    <path pointer-events="none" fill="none" stroke="white" stroke-width="1.5" d="M0,-3.0v7 M-2.5,-0.5L0,-3.0L2.5,-0.5"/>
  </g>
  <g id="arrowLeft" transform="rotate(270) translate(-36 17)">
    <use xlink:href="#rim"/>
    <path pointer-events="none" fill="none" stroke="white" stroke-width="1.5" d="M0,-3.0v7 M-2.5,-0.5L0,-3.0L2.5,-0.5"/>
  </g>
  <g id="resetDef">
    <use xlink:href="#rim2" fill="#404040"><set attributeName="fill" to="#808080" begin="reset.mouseover" end="reset.mouseout"/></use>
  </g>
</defs>
<script type="application/ecmascript">
var viewWidth = 2261;
var viewHeight = 379;
var sectionId = 'dynsection-0';
</script>
<script type="application/ecmascript" xlink:href="svg.min.js"/>
<svg id="graph" class="graph">
<g id="viewport">
<title>command.h</title>
<!-- Node1 -->
<g id="Node000001" class="node">
<title>Node1</title>
<g id="a_Node000001"><a xlink:title=" ">
<polygon fill="#999999" stroke="#666666" points="690,-371 616,-371 616,-352 690,-352 690,-371"/>
<text text-anchor="middle" x="653" y="-359" font-family="Helvetica,sans-Serif" font-size="10.00">command.h</text>
</a>
</g>
</g>
<!-- Node2 -->
<g id="Node000002" class="node">
<title>Node2</title>
<g id="a_Node000002"><a xlink:title=" ">
<polygon fill="#e0e0e0" stroke="#999999" points="141,-24.5 97,-24.5 97,-5.5 141,-5.5 141,-24.5"/>
<text text-anchor="middle" x="119" y="-12.5" font-family="Helvetica,sans-Serif" font-size="10.00">string</text>
</a>
</g>
</g>
<!-- Node1&#45;&gt;Node2 -->
<g id="edge1_Node000001_Node000002" class="edge">
<title>Node1&#45;&gt;Node2</title>
<g id="a_edge1_Node000001_Node000002"><a xlink:title=" ">
<path fill="none" stroke="#63b8ff" d="M615.55,-358.3C476.79,-349.64 0,-315.34 0,-252.5 0,-252.5 0,-252.5 0,-140.5 0,-87.66 56.7,-48.45 91.82,-29.23"/>
<polygon fill="#63b8ff" stroke="#63b8ff" points="93.46,-32.32 100.67,-24.56 90.19,-26.13 93.46,-32.32"/>
</a>
</g>
</g>
<!-- Node3 -->
<g id="Node000003" class="node">
<title>Node3</title>
<g id="a_Node000003"><a xlink:href="libpbd__visibility_8h.html" target="_top" xlink:title=" ">
<polygon fill="white" stroke="#666666" points="803,-24.5 681,-24.5 681,-5.5 803,-5.5 803,-24.5"/>
<text text-anchor="middle" x="742" y="-12.5" font-family="Helvetica,sans-Serif" font-size="10.00">pbd/libpbd_visibility.h</text>
</a>
</g>
</g>
<!-- Node1&#45;&gt;Node3 -->
<g id="edge2_Node000001_Node000003" class="edge">
<title>Node1&#45;&gt;Node3</title>
<g id="a_edge2_Node000001_Node000003"><a xlink:title=" ">
<path fill="none" stroke="#63b8ff" d="M615.8,-358.57C515.33,-352.36 246,-328.62 246,-252.5 246,-252.5 246,-252.5 246,-195.5 246,-100.87 327.95,-103.09 415,-66 498.05,-30.62 602.39,-19.83 670.57,-16.78"/>
<polygon fill="#63b8ff" stroke="#63b8ff" points="670.92,-20.27 680.77,-16.37 670.64,-13.28 670.92,-20.27"/>
</a>
</g>
</g>
<!-- Node4 -->
<g id="Node000004" class="node">
<title>Node4</title>
<g id="a_Node000004"><a xlink:href="signals_8h.html" target="_top" xlink:title=" ">
<polygon fill="white" stroke="#666666" points="1655.5,-151 1574.5,-151 1574.5,-132 1655.5,-132 1655.5,-151"/>
<text text-anchor="middle" x="1615" y="-139" font-family="Helvetica,sans-Serif" font-size="10.00">pbd/signals.h</text>
</a>
</g>
</g>
<!-- Node1&#45;&gt;Node4 -->
<g id="edge3_Node000001_Node000004" class="edge">
<title>Node1&#45;&gt;Node4</title>
<g id="a_edge3_Node000001_Node000004"><a xlink:title=" ">
<path fill="none" stroke="#63b8ff" d="M690.31,-357.9C810.58,-348.62 1197.73,-311.9 1498,-206 1533.44,-193.5 1571.06,-171.26 1593.79,-156.7"/>
<polygon fill="#63b8ff" stroke="#63b8ff" points="1595.83,-159.55 1602.3,-151.16 1592.01,-153.69 1595.83,-159.55"/>
</a>
</g>
</g>
<!-- Node24 -->
<g id="Node000024" class="node">
<title>Node24</title>
<g id="a_Node000024"><a xlink:href="statefuldestructible_8h.html" target="_top" xlink:title=" ">
<polygon fill="white" stroke="#666666" points="814,-316 672,-316 672,-297 814,-297 814,-316"/>
<text text-anchor="middle" x="743" y="-304" font-family="Helvetica,sans-Serif" font-size="10.00">pbd/statefuldestructible.h</text>
</a>
</g>
</g>
<!-- Node1&#45;&gt;Node24 -->
<g id="edge34_Node000001_Node000024" class="edge">
<title>Node1&#45;&gt;Node24</title>
<g id="a_edge34_Node000001_Node000024"><a xlink:title=" ">
<path fill="none" stroke="#63b8ff" d="M667.46,-351.98C681.42,-343.77 702.79,-331.18 719.25,-321.49"/>
<polygon fill="#63b8ff" stroke="#63b8ff" points="721.44,-324.26 728.28,-316.17 717.88,-318.23 721.44,-324.26"/>
</a>
</g>
</g>
<!-- Node4&#45;&gt;Node3 -->
<g id="edge12_Node000004_Node000003" class="edge">
<title>Node4&#45;&gt;Node3</title>
<g id="a_edge12_Node000004_Node000003"><a xlink:title=" ">
<path fill="none" stroke="#63b8ff" d="M1574.26,-139.75C1496.58,-137.57 1322.34,-129.08 1180,-96 1142.61,-87.31 1136.23,-75.38 1099,-66 1001.48,-41.42 885.73,-28 813.05,-21.41"/>
<polygon fill="#63b8ff" stroke="#63b8ff" points="813.36,-17.92 803.09,-20.52 812.74,-24.9 813.36,-17.92"/>
</a>
</g>
</g>
<!-- Node5 -->
<g id="Node000005" class="node">
<title>Node5</title>
<g id="a_Node000005"><a xlink:title=" ">
<polygon fill="#e0e0e0" stroke="#999999" points="2014.5,-90.5 1963.5,-90.5 1963.5,-71.5 2014.5,-71.5 2014.5,-90.5"/>
<text text-anchor="middle" x="1989" y="-78.5" font-family="Helvetica,sans-Serif" font-size="10.00">csignal</text>
</a>
</g>
</g>
<!-- Node4&#45;&gt;Node5 -->
<g id="edge4_Node000004_Node000005" class="edge">
<title>Node4&#45;&gt;Node5</title>
<g id="a_edge4_Node000004_Node000005"><a xlink:title=" ">
<path fill="none" stroke="#63b8ff" d="M1655.55,-138.45C1719.78,-134.49 1848.47,-123.57 1954,-96 1956.16,-95.44 1958.37,-94.77 1960.57,-94.05"/>
<polygon fill="#63b8ff" stroke="#63b8ff" points="1961.85,-97.31 1970.04,-90.59 1959.44,-90.73 1961.85,-97.31"/>
</a>
</g>
</g>
<!-- Node6 -->
<g id="Node000006" class="node">
<title>Node6</title>
<g id="a_Node000006"><a xlink:title=" ">
<polygon fill="#e0e0e0" stroke="#999999" points="2097,-24.5 2065,-24.5 2065,-5.5 2097,-5.5 2097,-24.5"/>
<text text-anchor="middle" x="2081" y="-12.5" font-family="Helvetica,sans-Serif" font-size="10.00">list</text>
</a>
</g>
</g>
<!-- Node4&#45;&gt;Node6 -->
<g id="edge5_Node000004_Node000006" class="edge">
<title>Node4&#45;&gt;Node6</title>
<g id="a_edge5_Node000004_Node000006"><a xlink:title=" ">
<path fill="none" stroke="#63b8ff" d="M1655.63,-141.1C1749.71,-141.74 1979.25,-138.75 2041,-96 2061.81,-81.59 2072.34,-53.1 2077.24,-34.3"/>
<polygon fill="#63b8ff" stroke="#63b8ff" points="2080.65,-35.06 2079.51,-24.53 2073.84,-33.47 2080.65,-35.06"/>
</a>
</g>
</g>
<!-- Node7 -->
<g id="Node000007" class="node">
<title>Node7</title>
<g id="a_Node000007"><a xlink:title=" ">
<polygon fill="#e0e0e0" stroke="#999999" points="1406,-24.5 1368,-24.5 1368,-5.5 1406,-5.5 1406,-24.5"/>
<text text-anchor="middle" x="1387" y="-12.5" font-family="Helvetica,sans-Serif" font-size="10.00">map</text>
</a>
</g>
</g>
<!-- Node4&#45;&gt;Node7 -->
<g id="edge6_Node000004_Node000007" class="edge">
<title>Node4&#45;&gt;Node7</title>
<g id="a_edge6_Node000004_Node000007"><a xlink:title=" ">
<path fill="none" stroke="#63b8ff" d="M1574.35,-136.23C1522.65,-130.02 1437.27,-116.89 1414,-96 1396.57,-80.35 1390.38,-53.06 1388.19,-34.76"/>
<polygon fill="#63b8ff" stroke="#63b8ff" points="1391.67,-34.36 1387.28,-24.72 1384.69,-34.99 1391.67,-34.36"/>
</a>
</g>
</g>
<!-- Node8 -->
<g id="Node000008" class="node">
<title>Node8</title>
<g id="a_Node000008"><a xlink:title=" ">
<polygon fill="#e0e0e0" stroke="#999999" points="1344,-24.5 1294,-24.5 1294,-5.5 1344,-5.5 1344,-24.5"/>
<text text-anchor="middle" x="1319" y="-12.5" font-family="Helvetica,sans-Serif" font-size="10.00">atomic</text>
</a>
</g>
</g>
<!-- Node4&#45;&gt;Node8 -->
<g id="edge7_Node000004_Node000008" class="edge">
<title>Node4&#45;&gt;Node8</title>
<g id="a_edge7_Node000004_Node000008"><a xlink:title=" ">
<path fill="none" stroke="#63b8ff" d="M1574.12,-139.88C1527.28,-137.53 1449.58,-128.51 1392,-96 1364.83,-80.66 1342.21,-51.59 1329.66,-33.03"/>
<polygon fill="#63b8ff" stroke="#63b8ff" points="1332.58,-31.11 1324.18,-24.65 1326.72,-34.94 1332.58,-31.11"/>
</a>
</g>
</g>
<!-- Node9 -->
<g id="Node000009" class="node">
<title>Node9</title>
<g id="a_Node000009"><a xlink:title=" ">
<polygon fill="#e0e0e0" stroke="#999999" points="1541.5,-24.5 1438.5,-24.5 1438.5,-5.5 1541.5,-5.5 1541.5,-24.5"/>
<text text-anchor="middle" x="1490" y="-12.5" font-family="Helvetica,sans-Serif" font-size="10.00">glibmm/threads.h</text>
</a>
</g>
</g>
<!-- Node4&#45;&gt;Node9 -->
<g id="edge8_Node000004_Node000009" class="edge">
<title>Node4&#45;&gt;Node9</title>
<g id="a_edge8_Node000004_Node000009"><a xlink:title=" ">
<path fill="none" stroke="#63b8ff" d="M1619.52,-131.78C1626.57,-116.87 1637.97,-86.12 1624,-66 1613.53,-50.92 1570.43,-36.57 1535.9,-27.15"/>
<polygon fill="#63b8ff" stroke="#63b8ff" points="1536.53,-23.69 1525.96,-24.51 1534.73,-30.46 1536.53,-23.69"/>
</a>
</g>
</g>
<!-- Node10 -->
<g id="Node000010" class="node">
<title>Node10</title>
<g id="a_Node000010"><a xlink:title=" ">
<polygon fill="#e0e0e0" stroke="#999999" points="2235,-90.5 2109,-90.5 2109,-71.5 2235,-71.5 2235,-90.5"/>
<text text-anchor="middle" x="2172" y="-78.5" font-family="Helvetica,sans-Serif" font-size="10.00">boost/bind/protect.hpp</text>
</a>
</g>
</g>
<!-- Node4&#45;&gt;Node10 -->
<g id="edge9_Node000004_Node000010" class="edge">
<title>Node4&#45;&gt;Node10</title>
<g id="a_edge9_Node000004_Node000010"><a xlink:title=" ">
<path fill="none" stroke="#63b8ff" d="M1655.59,-137.94C1738.45,-132.45 1932.9,-118.21 2095,-96 2102.76,-94.94 2110.93,-93.64 2118.94,-92.27"/>
<polygon fill="#63b8ff" stroke="#63b8ff" points="2119.7,-95.69 2128.94,-90.52 2118.48,-88.8 2119.7,-95.69"/>
</a>
</g>
</g>
<!-- Node11 -->
<g id="Node000011" class="node">
<title>Node11</title>
<g id="a_Node000011"><a xlink:title=" ">
<polygon fill="#e0e0e0" stroke="#999999" points="1541,-96 1423,-96 1423,-66 1541,-66 1541,-96"/>
<text text-anchor="start" x="1431" y="-84" font-family="Helvetica,sans-Serif" font-size="10.00">boost/enable_shared</text>
<text text-anchor="middle" x="1482" y="-73" font-family="Helvetica,sans-Serif" font-size="10.00">_from_this.hpp</text>
</a>
</g>
</g>
<!-- Node4&#45;&gt;Node11 -->
<g id="edge10_Node000004_Node000011" class="edge">
<title>Node4&#45;&gt;Node11</title>
<g id="a_edge10_Node000004_Node000011"><a xlink:title=" ">
<path fill="none" stroke="#63b8ff" d="M1595.66,-131.99C1576.77,-123.68 1547.42,-110.78 1523.28,-100.16"/>
<polygon fill="#63b8ff" stroke="#63b8ff" points="1524.54,-96.89 1513.98,-96.06 1521.72,-103.29 1524.54,-96.89"/>
</a>
</g>
</g>
<!-- Node12 -->
<g id="Node000012" class="node">
<title>Node12</title>
<g id="a_Node000012"><a xlink:title=" ">
<polygon fill="#e0e0e0" stroke="#999999" points="1615,-90.5 1559,-90.5 1559,-71.5 1615,-71.5 1615,-90.5"/>
<text text-anchor="middle" x="1587" y="-78.5" font-family="Helvetica,sans-Serif" font-size="10.00">optional</text>
</a>
</g>
</g>
<!-- Node4&#45;&gt;Node12 -->
<g id="edge11_Node000004_Node000012" class="edge">
<title>Node4&#45;&gt;Node12</title>
<g id="a_edge11_Node000004_Node000012"><a xlink:title=" ">
<path fill="none" stroke="#63b8ff" d="M1610.87,-131.87C1606.86,-123.49 1600.65,-110.51 1595.56,-99.89"/>
<polygon fill="#63b8ff" stroke="#63b8ff" points="1598.62,-98.18 1591.15,-90.67 1592.31,-101.2 1598.62,-98.18"/>
</a>
</g>
</g>
<!-- Node13 -->
<g id="Node000013" class="node">
<title>Node13</title>
<g id="a_Node000013"><a xlink:href="event__loop_8h.html" target="_top" xlink:title=" ">
<polygon fill="white" stroke="#666666" points="1290.5,-90.5 1189.5,-90.5 1189.5,-71.5 1290.5,-71.5 1290.5,-90.5"/>
<text text-anchor="middle" x="1240" y="-78.5" font-family="Helvetica,sans-Serif" font-size="10.00">pbd/event_loop.h</text>
</a>
</g>
</g>
<!-- Node4&#45;&gt;Node13 -->
<g id="edge13_Node000004_Node000013" class="edge">
<title>Node4&#45;&gt;Node13</title>
<g id="a_edge13_Node000004_Node000013"><a xlink:title=" ">
<path fill="none" stroke="#63b8ff" d="M1574.15,-134.13C1508.12,-123.83 1377.55,-103.46 1300.64,-91.46"/>
<polygon fill="#63b8ff" stroke="#63b8ff" points="1301.03,-87.98 1290.61,-89.9 1299.95,-94.89 1301.03,-87.98"/>
</a>
</g>
</g>
<!-- Node17 -->
<g id="Node000017" class="node">
<title>Node17</title>
<g id="a_Node000017"><a xlink:href="stack__allocator_8h.html" target="_top" xlink:title=" ">
<polygon fill="white" stroke="#666666" points="1791,-90.5 1671,-90.5 1671,-71.5 1791,-71.5 1791,-90.5"/>
<text text-anchor="middle" x="1731" y="-78.5" font-family="Helvetica,sans-Serif" font-size="10.00">pbd/stack_allocator.h</text>
</a>
</g>
</g>
<!-- Node4&#45;&gt;Node17 -->
<g id="edge22_Node000004_Node000017" class="edge">
<title>Node4&#45;&gt;Node17</title>
<g id="a_edge22_Node000004_Node000017"><a xlink:title=" ">
<path fill="none" stroke="#63b8ff" d="M1632.12,-131.87C1651.22,-122.23 1682.37,-106.53 1704.6,-95.31"/>
<polygon fill="#63b8ff" stroke="#63b8ff" points="1706.46,-98.3 1713.81,-90.67 1703.31,-92.05 1706.46,-98.3"/>
</a>
</g>
</g>
<!-- Node20 -->
<g id="Node000020" class="node">
<title>Node20</title>
<g id="a_Node000020"><a xlink:href="stacktrace_8h.html" target="_top" xlink:title=" ">
<polygon fill="white" stroke="#666666" points="1945,-90.5 1847,-90.5 1847,-71.5 1945,-71.5 1945,-90.5"/>
<text text-anchor="middle" x="1896" y="-78.5" font-family="Helvetica,sans-Serif" font-size="10.00">pbd/stacktrace.h</text>
</a>
</g>
</g>
<!-- Node4&#45;&gt;Node20 -->
<g id="edge26_Node000004_Node000020" class="edge">
<title>Node4&#45;&gt;Node20</title>
<g id="a_edge26_Node000004_Node000020"><a xlink:title=" ">
<path fill="none" stroke="#63b8ff" d="M1655.62,-132.43C1699.44,-123.67 1771.23,-109.17 1833,-96 1837.94,-94.95 1843.1,-93.83 1848.24,-92.71"/>
<polygon fill="#63b8ff" stroke="#63b8ff" points="1849.03,-96.11 1858.04,-90.55 1847.53,-89.28 1849.03,-96.11"/>
</a>
</g>
</g>
<!-- Node22 -->
<g id="Node000022" class="node">
<title>Node22</title>
<g id="a_Node000022"><a xlink:title=" ">
<polygon fill="#e0e0e0" stroke="#999999" points="2024,-24.5 1964,-24.5 1964,-5.5 2024,-5.5 2024,-24.5"/>
<text text-anchor="middle" x="1994" y="-12.5" font-family="Helvetica,sans-Serif" font-size="10.00">iostream</text>
</a>
</g>
</g>
<!-- Node4&#45;&gt;Node22 -->
<g id="edge33_Node000004_Node000022" class="edge">
<title>Node4&#45;&gt;Node22</title>
<g id="a_edge33_Node000004_Node000022"><a xlink:title=" ">
<path fill="none" stroke="#63b8ff" d="M1655.66,-139.09C1754.06,-135.25 1998.74,-123.05 2023,-96 2039.28,-77.85 2022.52,-49.87 2008.56,-32.26"/>
<polygon fill="#63b8ff" stroke="#63b8ff" points="2011.19,-29.95 2002.08,-24.54 2005.83,-34.45 2011.19,-29.95"/>
</a>
</g>
</g>
<!-- Node13&#45;&gt;Node2 -->
<g id="edge15_Node000013_Node000002" class="edge">
<title>Node13&#45;&gt;Node2</title>
<g id="a_edge15_Node000013_Node000002"><a xlink:title=" ">
<path fill="none" stroke="#63b8ff" d="M1189.05,-77.03C1138.34,-74.11 1058.3,-69.58 989,-66 651.74,-48.6 566.45,-59.15 230,-30 203.39,-27.69 173.35,-23.83 151.23,-20.74"/>
<polygon fill="#63b8ff" stroke="#63b8ff" points="151.45,-17.24 141.06,-19.3 150.47,-24.17 151.45,-17.24"/>
</a>
</g>
</g>
<!-- Node13&#45;&gt;Node3 -->
<g id="edge21_Node000013_Node000003" class="edge">
<title>Node13&#45;&gt;Node3</title>
<g id="a_edge21_Node000013_Node000003"><a xlink:title=" ">
<path fill="none" stroke="#63b8ff" d="M1189.46,-73.04C1172.76,-70.76 1154.09,-68.24 1137,-66 1024.02,-51.17 892.75,-34.71 813.6,-24.86"/>
<polygon fill="#63b8ff" stroke="#63b8ff" points="813.62,-21.34 803.26,-23.58 812.75,-28.28 813.62,-21.34"/>
</a>
</g>
</g>
<!-- Node13&#45;&gt;Node7 -->
<g id="edge17_Node000013_Node000007" class="edge">
<title>Node13&#45;&gt;Node7</title>
<g id="a_edge17_Node000013_Node000007"><a xlink:title=" ">
<path fill="none" stroke="#63b8ff" d="M1259.83,-71.37C1285.31,-60.27 1329.74,-40.93 1358.75,-28.3"/>
<polygon fill="#63b8ff" stroke="#63b8ff" points="1360.18,-31.49 1367.95,-24.29 1357.39,-25.07 1360.18,-31.49"/>
</a>
</g>
</g>
<!-- Node13&#45;&gt;Node8 -->
<g id="edge14_Node000013_Node000008" class="edge">
<title>Node13&#45;&gt;Node8</title>
<g id="a_edge14_Node000013_Node000008"><a xlink:title=" ">
<path fill="none" stroke="#63b8ff" d="M1250.65,-71.37C1263.38,-61.06 1284.88,-43.65 1300.37,-31.09"/>
<polygon fill="#63b8ff" stroke="#63b8ff" points="1302.7,-33.71 1308.26,-24.7 1298.29,-28.27 1302.7,-33.71"/>
</a>
</g>
</g>
<!-- Node13&#45;&gt;Node9 -->
<g id="edge20_Node000013_Node000009" class="edge">
<title>Node13&#45;&gt;Node9</title>
<g id="a_edge20_Node000013_Node000009"><a xlink:title=" ">
<path fill="none" stroke="#63b8ff" d="M1273.46,-71.44C1318.27,-59.96 1397.83,-39.6 1447.03,-27"/>
<polygon fill="#63b8ff" stroke="#63b8ff" points="1447.92,-30.38 1456.74,-24.51 1446.19,-23.6 1447.92,-30.38"/>
</a>
</g>
</g>
<!-- Node14 -->
<g id="Node000014" class="node">
<title>Node14</title>
<g id="a_Node000014"><a xlink:title=" ">
<polygon fill="#e0e0e0" stroke="#999999" points="1184.5,-24.5 1137.5,-24.5 1137.5,-5.5 1184.5,-5.5 1184.5,-24.5"/>
<text text-anchor="middle" x="1161" y="-12.5" font-family="Helvetica,sans-Serif" font-size="10.00">vector</text>
</a>
</g>
</g>
<!-- Node13&#45;&gt;Node14 -->
<g id="edge16_Node000013_Node000014" class="edge">
<title>Node13&#45;&gt;Node14</title>
<g id="a_edge16_Node000013_Node000014"><a xlink:title=" ">
<path fill="none" stroke="#63b8ff" d="M1229.35,-71.37C1216.62,-61.06 1195.12,-43.65 1179.63,-31.09"/>
<polygon fill="#63b8ff" stroke="#63b8ff" points="1181.71,-28.27 1171.74,-24.7 1177.3,-33.71 1181.71,-28.27"/>
</a>
</g>
</g>
<!-- Node15 -->
<g id="Node000015" class="node">
<title>Node15</title>
<g id="a_Node000015"><a xlink:title=" ">
<polygon fill="#e0e0e0" stroke="#999999" points="292.5,-24.5 239.5,-24.5 239.5,-5.5 292.5,-5.5 292.5,-24.5"/>
<text text-anchor="middle" x="266" y="-12.5" font-family="Helvetica,sans-Serif" font-size="10.00">stdint.h</text>
</a>
</g>
</g>
<!-- Node13&#45;&gt;Node15 -->
<g id="edge18_Node000013_Node000015" class="edge">
<title>Node13&#45;&gt;Node15</title>
<g id="a_edge18_Node000013_Node000015"><a xlink:title=" ">
<path fill="none" stroke="#63b8ff" d="M1189.35,-76.67C1016.6,-65.32 453.05,-28.29 302.99,-18.43"/>
<polygon fill="#63b8ff" stroke="#63b8ff" points="303.12,-14.93 292.91,-17.77 302.66,-21.92 303.12,-14.93"/>
</a>
</g>
</g>
<!-- Node16 -->
<g id="Node000016" class="node">
<title>Node16</title>
<g id="a_Node000016"><a xlink:title=" ">
<polygon fill="#e0e0e0" stroke="#999999" points="1271.5,-24.5 1208.5,-24.5 1208.5,-5.5 1271.5,-5.5 1271.5,-24.5"/>
<text text-anchor="middle" x="1240" y="-12.5" font-family="Helvetica,sans-Serif" font-size="10.00">pthread.h</text>
</a>
</g>
</g>
<!-- Node13&#45;&gt;Node16 -->
<g id="edge19_Node000013_Node000016" class="edge">
<title>Node13&#45;&gt;Node16</title>
<g id="a_edge19_Node000013_Node000016"><a xlink:title=" ">
<path fill="none" stroke="#63b8ff" d="M1240,-71.37C1240,-62.16 1240,-47.29 1240,-35.27"/>
<polygon fill="#63b8ff" stroke="#63b8ff" points="1243.5,-34.91 1240,-24.91 1236.5,-34.91 1243.5,-34.91"/>
</a>
</g>
</g>
<!-- Node17&#45;&gt;Node3 -->
<g id="edge25_Node000017_Node000003" class="edge">
<title>Node17&#45;&gt;Node3</title>
<g id="a_edge25_Node000017_Node000003"><a xlink:title=" ">
<path fill="none" stroke="#63b8ff" d="M1671.94,-71.48C1656.37,-69.45 1639.58,-67.46 1624,-66 1323.21,-37.84 963.13,-23.41 813.07,-18.26"/>
<polygon fill="#63b8ff" stroke="#63b8ff" points="813.18,-14.76 803.07,-17.92 812.94,-21.75 813.18,-14.76"/>
</a>
</g>
</g>
<!-- Node18 -->
<g id="Node000018" class="node">
<title>Node18</title>
<g id="a_Node000018"><a xlink:title=" ">
<polygon fill="#e0e0e0" stroke="#999999" points="1701,-30 1563,-30 1563,0 1701,0 1701,-30"/>
<text text-anchor="start" x="1571" y="-18" font-family="Helvetica,sans-Serif" font-size="10.00">boost/type_traits/aligned</text>
<text text-anchor="middle" x="1632" y="-7" font-family="Helvetica,sans-Serif" font-size="10.00">_storage.hpp</text>
</a>
</g>
</g>
<!-- Node17&#45;&gt;Node18 -->
<g id="edge23_Node000017_Node000018" class="edge">
<title>Node17&#45;&gt;Node18</title>
<g id="a_edge23_Node000017_Node000018"><a xlink:title=" ">
<path fill="none" stroke="#63b8ff" d="M1717.65,-71.37C1703.52,-62.24 1680.77,-47.53 1662.26,-35.56"/>
<polygon fill="#63b8ff" stroke="#63b8ff" points="1664.13,-32.61 1653.84,-30.12 1660.33,-38.48 1664.13,-32.61"/>
</a>
</g>
</g>
<!-- Node19 -->
<g id="Node000019" class="node">
<title>Node19</title>
<g id="a_Node000019"><a xlink:title=" ">
<polygon fill="#e0e0e0" stroke="#999999" points="1763,-24.5 1719,-24.5 1719,-5.5 1763,-5.5 1763,-24.5"/>
<text text-anchor="middle" x="1741" y="-12.5" font-family="Helvetica,sans-Serif" font-size="10.00">limits</text>
</a>
</g>
</g>
<!-- Node17&#45;&gt;Node19 -->
<g id="edge24_Node000017_Node000019" class="edge">
<title>Node17&#45;&gt;Node19</title>
<g id="a_edge24_Node000017_Node000019"><a xlink:title=" ">
<path fill="none" stroke="#63b8ff" d="M1732.35,-71.37C1733.8,-62.07 1736.16,-46.98 1738.05,-34.9"/>
<polygon fill="#63b8ff" stroke="#63b8ff" points="1741.52,-35.33 1739.61,-24.91 1734.61,-34.25 1741.52,-35.33"/>
</a>
</g>
</g>
<!-- Node20&#45;&gt;Node3 -->
<g id="edge32_Node000020_Node000003" class="edge">
<title>Node20&#45;&gt;Node3</title>
<g id="a_edge32_Node000020_Node000003"><a xlink:title=" ">
<path fill="none" stroke="#63b8ff" d="M1846.78,-71.88C1831.8,-69.66 1815.26,-67.47 1800,-66 1607.74,-47.48 1018.55,-25.69 813.36,-18.46"/>
<polygon fill="#63b8ff" stroke="#63b8ff" points="813.41,-14.96 803.3,-18.11 813.17,-21.96 813.41,-14.96"/>
</a>
</g>
</g>
<!-- Node20&#45;&gt;Node6 -->
<g id="edge31_Node000020_Node000006" class="edge">
<title>Node20&#45;&gt;Node6</title>
<g id="a_edge31_Node000020_Node000006"><a xlink:title=" ">
<path fill="none" stroke="#63b8ff" d="M1920.95,-71.37C1956.05,-59.23 2019.68,-37.21 2055.22,-24.92"/>
<polygon fill="#63b8ff" stroke="#63b8ff" points="2056.56,-28.16 2064.87,-21.58 2054.27,-21.54 2056.56,-28.16"/>
</a>
</g>
</g>
<!-- Node20&#45;&gt;Node9 -->
<g id="edge30_Node000020_Node000009" class="edge">
<title>Node20&#45;&gt;Node9</title>
<g id="a_edge30_Node000020_Node000009"><a xlink:title=" ">
<path fill="none" stroke="#63b8ff" d="M1846.94,-72.84C1752.78,-59.09 1555.8,-30.33 1554,-30 1548.48,-28.99 1542.7,-27.85 1536.98,-26.67"/>
<polygon fill="#63b8ff" stroke="#63b8ff" points="1537.31,-23.16 1526.8,-24.51 1535.86,-30.01 1537.31,-23.16"/>
</a>
</g>
</g>
<!-- Node21 -->
<g id="Node000021" class="node">
<title>Node21</title>
<g id="a_Node000021"><a xlink:title=" ">
<polygon fill="#e0e0e0" stroke="#999999" points="1922.5,-24.5 1869.5,-24.5 1869.5,-5.5 1922.5,-5.5 1922.5,-24.5"/>
<text text-anchor="middle" x="1896" y="-12.5" font-family="Helvetica,sans-Serif" font-size="10.00">cstddef</text>
</a>
</g>
</g>
<!-- Node20&#45;&gt;Node21 -->
<g id="edge27_Node000020_Node000021" class="edge">
<title>Node20&#45;&gt;Node21</title>
<g id="a_edge27_Node000020_Node000021"><a xlink:title=" ">
<path fill="none" stroke="#63b8ff" d="M1896,-71.37C1896,-62.16 1896,-47.29 1896,-35.27"/>
<polygon fill="#63b8ff" stroke="#63b8ff" points="1899.5,-34.91 1896,-24.91 1892.5,-34.91 1899.5,-34.91"/>
</a>
</g>
</g>
<!-- Node20&#45;&gt;Node22 -->
<g id="edge28_Node000020_Node000022" class="edge">
<title>Node20&#45;&gt;Node22</title>
<g id="a_edge28_Node000020_Node000022"><a xlink:title=" ">
<path fill="none" stroke="#63b8ff" d="M1909.22,-71.37C1925.36,-60.82 1952.91,-42.84 1972.21,-30.23"/>
<polygon fill="#63b8ff" stroke="#63b8ff" points="1974.22,-33.1 1980.68,-24.7 1970.39,-27.24 1974.22,-33.1"/>
</a>
</g>
</g>
<!-- Node23 -->
<g id="Node000023" class="node">
<title>Node23</title>
<g id="a_Node000023"><a xlink:title=" ">
<polygon fill="#e0e0e0" stroke="#999999" points="1849.5,-24.5 1792.5,-24.5 1792.5,-5.5 1849.5,-5.5 1849.5,-24.5"/>
<text text-anchor="middle" x="1821" y="-12.5" font-family="Helvetica,sans-Serif" font-size="10.00">ostream</text>
</a>
</g>
</g>
<!-- Node20&#45;&gt;Node23 -->
<g id="edge29_Node000020_Node000023" class="edge">
<title>Node20&#45;&gt;Node23</title>
<g id="a_edge29_Node000020_Node000023"><a xlink:title=" ">
<path fill="none" stroke="#63b8ff" d="M1885.89,-71.37C1873.99,-61.21 1854,-44.16 1839.35,-31.65"/>
<polygon fill="#63b8ff" stroke="#63b8ff" points="1841.31,-28.73 1831.44,-24.91 1836.77,-34.06 1841.31,-28.73"/>
</a>
</g>
</g>
<!-- Node24&#45;&gt;Node3 -->
<g id="edge35_Node000024_Node000003" class="edge">
<title>Node24&#45;&gt;Node3</title>
<g id="a_edge35_Node000024_Node000003"><a xlink:title=" ">
<path fill="none" stroke="#63b8ff" d="M712.61,-297C618.12,-269.16 341.32,-176.17 435,-66 464.65,-31.13 589.62,-20.52 670.69,-17.33"/>
<polygon fill="#63b8ff" stroke="#63b8ff" points="670.98,-20.82 680.84,-16.96 670.72,-13.82 670.98,-20.82"/>
</a>
</g>
</g>
<!-- Node25 -->
<g id="Node000025" class="node">
<title>Node25</title>
<g id="a_Node000025"><a xlink:href="stateful_8h.html" target="_top" xlink:title=" ">
<polygon fill="white" stroke="#666666" points="989,-261 905,-261 905,-242 989,-242 989,-261"/>
<text text-anchor="middle" x="947" y="-249" font-family="Helvetica,sans-Serif" font-size="10.00">pbd/stateful.h</text>
</a>
</g>
</g>
<!-- Node24&#45;&gt;Node25 -->
<g id="edge36_Node000024_Node000025" class="edge">
<title>Node24&#45;&gt;Node25</title>
<g id="a_edge36_Node000024_Node000025"><a xlink:title=" ">
<path fill="none" stroke="#63b8ff" d="M775.78,-296.98C810.62,-287.93 865.87,-273.58 904.14,-263.64"/>
<polygon fill="#63b8ff" stroke="#63b8ff" points="905.17,-266.98 913.97,-261.08 903.41,-260.21 905.17,-266.98"/>
</a>
</g>
</g>
<!-- Node39 -->
<g id="Node000039" class="node">
<title>Node39</title>
<g id="a_Node000039"><a xlink:href="destructible_8h.html" target="_top" xlink:title=" ">
<polygon fill="white" stroke="#666666" points="1489,-206 1385,-206 1385,-187 1489,-187 1489,-206"/>
<text text-anchor="middle" x="1437" y="-194" font-family="Helvetica,sans-Serif" font-size="10.00">pbd/destructible.h</text>
</a>
</g>
</g>
<!-- Node24&#45;&gt;Node39 -->
<g id="edge69_Node000024_Node000039" class="edge">
<title>Node24&#45;&gt;Node39</title>
<g id="a_edge69_Node000024_Node000039"><a xlink:title=" ">
<path fill="none" stroke="#63b8ff" d="M797.75,-296.98C925.02,-277.17 1240.18,-228.13 1374.62,-207.21"/>
<polygon fill="#63b8ff" stroke="#63b8ff" points="1375.41,-210.63 1384.75,-205.63 1374.33,-203.71 1375.41,-210.63"/>
</a>
</g>
</g>
<!-- Node25&#45;&gt;Node2 -->
<g id="edge38_Node000025_Node000002" class="edge">
<title>Node25&#45;&gt;Node2</title>
<g id="a_edge38_Node000025_Node000002"><a xlink:title=" ">
<path fill="none" stroke="#63b8ff" d="M904.85,-249.07C787.26,-244.8 457.35,-230.9 352,-206 226.7,-176.39 155.7,-202.94 84,-96 70.36,-75.66 87.88,-49.13 102.66,-32.32"/>
<polygon fill="#63b8ff" stroke="#63b8ff" points="105.29,-34.63 109.54,-24.92 100.17,-29.86 105.29,-34.63"/>
</a>
</g>
</g>
<!-- Node25&#45;&gt;Node3 -->
<g id="edge41_Node000025_Node000003" class="edge">
<title>Node25&#45;&gt;Node3</title>
<g id="a_edge41_Node000025_Node000003"><a xlink:title=" ">
<path fill="none" stroke="#63b8ff" d="M904.63,-243.96C793.97,-225.95 501,-171.83 445,-96 437.08,-85.27 436.39,-76.18 445,-66 473.32,-32.52 592.01,-21.45 670.5,-17.79"/>
<polygon fill="#63b8ff" stroke="#63b8ff" points="670.98,-21.28 680.82,-17.34 670.68,-14.28 670.98,-21.28"/>
</a>
</g>
</g>
<!-- Node25&#45;&gt;Node4 -->
<g id="edge68_Node000025_Node000004" class="edge">
<title>Node25&#45;&gt;Node4</title>
<g id="a_edge68_Node000025_Node000004"><a xlink:title=" ">
<path fill="none" stroke="#63b8ff" d="M989.19,-249.76C1061.02,-247.6 1211.11,-239.13 1333,-206 1353.16,-200.52 1356.04,-193.18 1376,-187 1439.43,-167.37 1515.15,-155.07 1564.11,-148.49"/>
<polygon fill="#63b8ff" stroke="#63b8ff" points="1564.67,-151.95 1574.13,-147.17 1563.76,-145.01 1564.67,-151.95"/>
</a>
</g>
</g>
<!-- Node25&#45;&gt;Node6 -->
<g id="edge39_Node000025_Node000006" class="edge">
<title>Node25&#45;&gt;Node6</title>
<g id="a_edge39_Node000025_Node000006"><a xlink:title=" ">
<path fill="none" stroke="#63b8ff" d="M989.21,-248.78C1203.05,-239.65 2159.81,-193.52 2244,-96 2285.04,-48.46 2163.49,-26.47 2107.56,-19.05"/>
<polygon fill="#63b8ff" stroke="#63b8ff" points="2107.67,-15.53 2097.31,-17.75 2106.79,-22.48 2107.67,-15.53"/>
</a>
</g>
</g>
<!-- Node25&#45;&gt;Node8 -->
<g id="edge37_Node000025_Node000008" class="edge">
<title>Node25&#45;&gt;Node8</title>
<g id="a_edge37_Node000025_Node000008"><a xlink:title=" ">
<path fill="none" stroke="#63b8ff" d="M989.02,-245.12C1046.06,-237.35 1144.6,-222.15 1177,-206 1242.34,-173.43 1261.4,-158.58 1299,-96 1310.38,-77.06 1315.31,-51.87 1317.43,-34.86"/>
<polygon fill="#63b8ff" stroke="#63b8ff" points="1320.95,-34.87 1318.49,-24.56 1313.98,-34.15 1320.95,-34.87"/>
</a>
</g>
</g>
<!-- Node26 -->
<g id="Node000026" class="node">
<title>Node26</title>
<g id="a_Node000026"><a xlink:title=" ">
<polygon fill="#e0e0e0" stroke="#999999" points="1168,-206 1116,-206 1116,-187 1168,-187 1168,-206"/>
<text text-anchor="middle" x="1142" y="-194" font-family="Helvetica,sans-Serif" font-size="10.00">cassert</text>
</a>
</g>
</g>
<!-- Node25&#45;&gt;Node26 -->
<g id="edge40_Node000025_Node000026" class="edge">
<title>Node25&#45;&gt;Node26</title>
<g id="a_edge40_Node000025_Node000026"><a xlink:title=" ">
<path fill="none" stroke="#63b8ff" d="M978.33,-241.98C1013.17,-232.52 1069.34,-217.25 1105.97,-207.29"/>
<polygon fill="#63b8ff" stroke="#63b8ff" points="1107.02,-210.64 1115.75,-204.63 1105.18,-203.88 1107.02,-210.64"/>
</a>
</g>
</g>
<!-- Node27 -->
<g id="Node000027" class="node">
<title>Node27</title>
<g id="a_Node000027"><a xlink:href="id_8h.html" target="_top" xlink:title=" ">
<polygon fill="white" stroke="#666666" points="294,-90.5 238,-90.5 238,-71.5 294,-71.5 294,-90.5"/>
<text text-anchor="middle" x="266" y="-78.5" font-family="Helvetica,sans-Serif" font-size="10.00">pbd/id.h</text>
</a>
</g>
</g>
<!-- Node25&#45;&gt;Node27 -->
<g id="edge42_Node000025_Node000027" class="edge">
<title>Node25&#45;&gt;Node27</title>
<g id="a_edge42_Node000025_Node000027"><a xlink:title=" ">
<path fill="none" stroke="#63b8ff" d="M904.75,-251.02C790.19,-251.82 476.06,-249.85 384,-206 334.08,-182.22 294.39,-127.51 276.43,-99.38"/>
<polygon fill="#63b8ff" stroke="#63b8ff" points="279.25,-97.29 271,-90.64 273.3,-100.98 279.25,-97.29"/>
</a>
</g>
</g>
<!-- Node28 -->
<g id="Node000028" class="node">
<title>Node28</title>
<g id="a_Node000028"><a xlink:href="xml_09_09_8h.html" target="_top" xlink:title=" ">
<polygon fill="white" stroke="#666666" points="753,-151 671,-151 671,-132 753,-132 753,-151"/>
<text text-anchor="middle" x="712" y="-139" font-family="Helvetica,sans-Serif" font-size="10.00">pbd/xml++.h</text>
</a>
</g>
</g>
<!-- Node25&#45;&gt;Node28 -->
<g id="edge47_Node000025_Node000028" class="edge">
<title>Node25&#45;&gt;Node28</title>
<g id="a_edge47_Node000025_Node000028"><a xlink:title=" ">
<path fill="none" stroke="#63b8ff" d="M928.17,-241.84C886.9,-222.88 788.33,-177.58 739.86,-155.31"/>
<polygon fill="#63b8ff" stroke="#63b8ff" points="741.15,-152.04 730.6,-151.05 738.22,-158.4 741.15,-152.04"/>
</a>
</g>
</g>
<!-- Node36 -->
<g id="Node000036" class="node">
<title>Node36</title>
<g id="a_Node000036"><a xlink:href="property__basics_8h.html" target="_top" xlink:title=" ">
<polygon fill="white" stroke="#666666" points="1098,-206 974,-206 974,-187 1098,-187 1098,-206"/>
<text text-anchor="middle" x="1036" y="-194" font-family="Helvetica,sans-Serif" font-size="10.00">pbd/property_basics.h</text>
</a>
</g>
</g>
<!-- Node25&#45;&gt;Node36 -->
<g id="edge61_Node000025_Node000036" class="edge">
<title>Node25&#45;&gt;Node36</title>
<g id="a_edge61_Node000025_Node000036"><a xlink:title=" ">
<path fill="none" stroke="#63b8ff" d="M961.3,-241.98C975.1,-233.77 996.24,-221.18 1012.51,-211.49"/>
<polygon fill="#63b8ff" stroke="#63b8ff" points="1014.64,-214.29 1021.44,-206.17 1011.06,-208.28 1014.64,-214.29"/>
</a>
</g>
</g>
<!-- Node27&#45;&gt;Node2 -->
<g id="edge44_Node000027_Node000002" class="edge">
<title>Node27&#45;&gt;Node2</title>
<g id="a_edge44_Node000027_Node000002"><a xlink:title=" ">
<path fill="none" stroke="#63b8ff" d="M246.17,-71.37C220.97,-60.39 177.24,-41.36 148.21,-28.72"/>
<polygon fill="#63b8ff" stroke="#63b8ff" points="149.55,-25.48 138.98,-24.7 146.75,-31.9 149.55,-25.48"/>
</a>
</g>
</g>
<!-- Node27&#45;&gt;Node3 -->
<g id="edge46_Node000027_Node000003" class="edge">
<title>Node27&#45;&gt;Node3</title>
<g id="a_edge46_Node000027_Node000003"><a xlink:title=" ">
<path fill="none" stroke="#63b8ff" d="M288.87,-71.43C295.01,-69.39 301.7,-67.4 308,-66 433.94,-38.07 584.11,-25.18 670.72,-19.68"/>
<polygon fill="#63b8ff" stroke="#63b8ff" points="671.2,-23.15 680.96,-19.04 670.76,-16.17 671.2,-23.15"/>
</a>
</g>
</g>
<!-- Node27&#45;&gt;Node9 -->
<g id="edge45_Node000027_Node000009" class="edge">
<title>Node27&#45;&gt;Node9</title>
<g id="a_edge45_Node000027_Node000009"><a xlink:title=" ">
<path fill="none" stroke="#63b8ff" d="M294.16,-77.59C331.07,-74.51 397.84,-69.19 455,-66 881.3,-42.23 990.66,-77.3 1415,-30 1423.24,-29.08 1431.93,-27.78 1440.36,-26.33"/>
<polygon fill="#63b8ff" stroke="#63b8ff" points="1441.24,-29.72 1450.46,-24.51 1440,-22.84 1441.24,-29.72"/>
</a>
</g>
</g>
<!-- Node27&#45;&gt;Node15 -->
<g id="edge43_Node000027_Node000015" class="edge">
<title>Node27&#45;&gt;Node15</title>
<g id="a_edge43_Node000027_Node000015"><a xlink:title=" ">
<path fill="none" stroke="#63b8ff" d="M266,-71.37C266,-62.16 266,-47.29 266,-35.27"/>
<polygon fill="#63b8ff" stroke="#63b8ff" points="269.5,-34.91 266,-24.91 262.5,-34.91 269.5,-34.91"/>
</a>
</g>
</g>
<!-- Node28&#45;&gt;Node2 -->
<g id="edge51_Node000028_Node000002" class="edge">
<title>Node28&#45;&gt;Node2</title>
<g id="a_edge51_Node000028_Node000002"><a xlink:title=" ">
<path fill="none" stroke="#63b8ff" d="M670.79,-140.7C539,-140.9 134.14,-138.06 95,-96 78.85,-78.64 93.12,-50.82 105.54,-32.99"/>
<polygon fill="#63b8ff" stroke="#63b8ff" points="108.55,-34.8 111.69,-24.68 102.93,-30.63 108.55,-34.8"/>
</a>
</g>
</g>
<!-- Node28&#45;&gt;Node3 -->
<g id="edge60_Node000028_Node000003" class="edge">
<title>Node28&#45;&gt;Node3</title>
<g id="a_edge60_Node000028_Node000003"><a xlink:title=" ">
<path fill="none" stroke="#63b8ff" d="M670.95,-139.56C605.5,-137.11 482.12,-128.22 455,-96 446.41,-85.8 446.42,-76.21 455,-66 482.01,-33.88 594.6,-22.39 670.47,-18.28"/>
<polygon fill="#63b8ff" stroke="#63b8ff" points="671.11,-21.76 680.92,-17.75 670.75,-14.77 671.11,-21.76"/>
</a>
</g>
</g>
<!-- Node28&#45;&gt;Node14 -->
<g id="edge52_Node000028_Node000014" class="edge">
<title>Node28&#45;&gt;Node14</title>
<g id="a_edge52_Node000028_Node000014"><a xlink:title=" ">
<path fill="none" stroke="#63b8ff" d="M753.17,-137.45C807.99,-132.6 907.5,-120.97 989,-96 1044.36,-79.04 1104.8,-47.64 1137.24,-29.64"/>
<polygon fill="#63b8ff" stroke="#63b8ff" points="1139.36,-32.46 1146.37,-24.51 1135.94,-26.36 1139.36,-32.46"/>
</a>
</g>
</g>
<!-- Node29 -->
<g id="Node000029" class="node">
<title>Node29</title>
<g id="a_Node000029"><a xlink:title=" ">
<polygon fill="#e0e0e0" stroke="#999999" points="635.5,-90.5 582.5,-90.5 582.5,-71.5 635.5,-71.5 635.5,-90.5"/>
<text text-anchor="middle" x="609" y="-78.5" font-family="Helvetica,sans-Serif" font-size="10.00">cstdarg</text>
</a>
</g>
</g>
<!-- Node28&#45;&gt;Node29 -->
<g id="edge48_Node000028_Node000029" class="edge">
<title>Node28&#45;&gt;Node29</title>
<g id="a_edge48_Node000028_Node000029"><a xlink:title=" ">
<path fill="none" stroke="#63b8ff" d="M696.8,-131.87C679.99,-122.32 652.68,-106.81 632.98,-95.62"/>
<polygon fill="#63b8ff" stroke="#63b8ff" points="634.68,-92.56 624.26,-90.67 631.23,-98.65 634.68,-92.56"/>
</a>
</g>
</g>
<!-- Node30 -->
<g id="Node000030" class="node">
<title>Node30</title>
<g id="a_Node000030"><a xlink:title=" ">
<polygon fill="#e0e0e0" stroke="#999999" points="700,-90.5 654,-90.5 654,-71.5 700,-71.5 700,-90.5"/>
<text text-anchor="middle" x="677" y="-78.5" font-family="Helvetica,sans-Serif" font-size="10.00">cstdio</text>
</a>
</g>
</g>
<!-- Node28&#45;&gt;Node30 -->
<g id="edge49_Node000028_Node000030" class="edge">
<title>Node28&#45;&gt;Node30</title>
<g id="a_edge49_Node000028_Node000030"><a xlink:title=" ">
<path fill="none" stroke="#63b8ff" d="M706.84,-131.87C701.77,-123.4 693.9,-110.24 687.51,-99.57"/>
<polygon fill="#63b8ff" stroke="#63b8ff" points="690.32,-97.45 682.19,-90.67 684.32,-101.05 690.32,-97.45"/>
</a>
</g>
</g>
<!-- Node31 -->
<g id="Node000031" class="node">
<title>Node31</title>
<g id="a_Node000031"><a xlink:title=" ">
<polygon fill="#e0e0e0" stroke="#999999" points="776,-90.5 718,-90.5 718,-71.5 776,-71.5 776,-90.5"/>
<text text-anchor="middle" x="747" y="-78.5" font-family="Helvetica,sans-Serif" font-size="10.00">memory</text>
</a>
</g>
</g>
<!-- Node28&#45;&gt;Node31 -->
<g id="edge50_Node000028_Node000031" class="edge">
<title>Node28&#45;&gt;Node31</title>
<g id="a_edge50_Node000028_Node000031"><a xlink:title=" ">
<path fill="none" stroke="#63b8ff" d="M717.16,-131.87C722.23,-123.4 730.1,-110.24 736.49,-99.57"/>
<polygon fill="#63b8ff" stroke="#63b8ff" points="739.68,-101.05 741.81,-90.67 733.68,-97.45 739.68,-101.05"/>
</a>
</g>
</g>
<!-- Node32 -->
<g id="Node000032" class="node">
<title>Node32</title>
<g id="a_Node000032"><a xlink:title=" ">
<polygon fill="#e0e0e0" stroke="#999999" points="883.5,-90.5 794.5,-90.5 794.5,-71.5 883.5,-71.5 883.5,-90.5"/>
<text text-anchor="middle" x="839" y="-78.5" font-family="Helvetica,sans-Serif" font-size="10.00">libxml/parser.h</text>
</a>
</g>
</g>
<!-- Node28&#45;&gt;Node32 -->
<g id="edge53_Node000028_Node000032" class="edge">
<title>Node28&#45;&gt;Node32</title>
<g id="a_edge53_Node000028_Node000032"><a xlink:title=" ">
<path fill="none" stroke="#63b8ff" d="M730.47,-131.99C751.72,-122.2 786.85,-106.02 811.37,-94.73"/>
<polygon fill="#63b8ff" stroke="#63b8ff" points="812.89,-97.88 820.51,-90.52 809.96,-91.52 812.89,-97.88"/>
</a>
</g>
</g>
<!-- Node33 -->
<g id="Node000033" class="node">
<title>Node33</title>
<g id="a_Node000033"><a xlink:title=" ">
<polygon fill="#e0e0e0" stroke="#999999" points="980.5,-90.5 901.5,-90.5 901.5,-71.5 980.5,-71.5 980.5,-90.5"/>
<text text-anchor="middle" x="941" y="-78.5" font-family="Helvetica,sans-Serif" font-size="10.00">libxml/tree.h</text>
</a>
</g>
</g>
<!-- Node28&#45;&gt;Node33 -->
<g id="edge54_Node000028_Node000033" class="edge">
<title>Node28&#45;&gt;Node33</title>
<g id="a_edge54_Node000028_Node000033"><a xlink:title=" ">
<path fill="none" stroke="#63b8ff" d="M748.3,-131.93C784.72,-123.24 842.39,-109.22 892,-96 895.21,-95.15 898.52,-94.24 901.85,-93.32"/>
<polygon fill="#63b8ff" stroke="#63b8ff" points="903.09,-96.61 911.77,-90.54 901.19,-89.87 903.09,-96.61"/>
</a>
</g>
</g>
<!-- Node34 -->
<g id="Node000034" class="node">
<title>Node34</title>
<g id="a_Node000034"><a xlink:title=" ">
<polygon fill="#e0e0e0" stroke="#999999" points="564,-90.5 464,-90.5 464,-71.5 564,-71.5 564,-90.5"/>
<text text-anchor="middle" x="514" y="-78.5" font-family="Helvetica,sans-Serif" font-size="10.00">glibmm/ustring.h</text>
</a>
</g>
</g>
<!-- Node28&#45;&gt;Node34 -->
<g id="edge55_Node000028_Node000034" class="edge">
<title>Node28&#45;&gt;Node34</title>
<g id="a_edge55_Node000028_Node000034"><a xlink:title=" ">
<path fill="none" stroke="#63b8ff" d="M683.21,-131.99C648.75,-121.81 590.91,-104.72 552.6,-93.4"/>
<polygon fill="#63b8ff" stroke="#63b8ff" points="553.41,-89.99 542.83,-90.52 551.42,-96.71 553.41,-89.99"/>
</a>
</g>
</g>
<!-- Node35 -->
<g id="Node000035" class="node">
<title>Node35</title>
<g id="a_Node000035"><a xlink:href="string__convert_8h.html" target="_top" xlink:title=" ">
<polygon fill="white" stroke="#666666" points="220,-90.5 104,-90.5 104,-71.5 220,-71.5 220,-90.5"/>
<text text-anchor="middle" x="162" y="-78.5" font-family="Helvetica,sans-Serif" font-size="10.00">pbd/string_convert.h</text>
</a>
</g>
</g>
<!-- Node28&#45;&gt;Node35 -->
<g id="edge56_Node000028_Node000035" class="edge">
<title>Node28&#45;&gt;Node35</title>
<g id="a_edge56_Node000028_Node000035"><a xlink:title=" ">
<path fill="none" stroke="#63b8ff" d="M670.78,-138.29C587.13,-133.46 391.6,-120.4 229,-96 222.6,-95.04 215.89,-93.85 209.29,-92.58"/>
<polygon fill="#63b8ff" stroke="#63b8ff" points="209.57,-89.07 199.08,-90.53 208.19,-95.93 209.57,-89.07"/>
</a>
</g>
</g>
<!-- Node35&#45;&gt;Node2 -->
<g id="edge57_Node000035_Node000002" class="edge">
<title>Node35&#45;&gt;Node2</title>
<g id="a_edge57_Node000035_Node000002"><a xlink:title=" ">
<path fill="none" stroke="#63b8ff" d="M156.2,-71.37C149.7,-61.69 138.98,-45.74 130.72,-33.44"/>
<polygon fill="#63b8ff" stroke="#63b8ff" points="133.47,-31.25 124.98,-24.91 127.65,-35.16 133.47,-31.25"/>
</a>
</g>
</g>
<!-- Node35&#45;&gt;Node3 -->
<g id="edge59_Node000035_Node000003" class="edge">
<title>Node35&#45;&gt;Node3</title>
<g id="a_edge59_Node000035_Node000003"><a xlink:title=" ">
<path fill="none" stroke="#63b8ff" d="M199.43,-71.43C209.03,-69.44 219.37,-67.47 229,-66 385.77,-42.05 571.35,-27.3 670.71,-20.49"/>
<polygon fill="#63b8ff" stroke="#63b8ff" points="671.19,-23.96 680.93,-19.79 670.71,-16.98 671.19,-23.96"/>
</a>
</g>
</g>
<!-- Node35&#45;&gt;Node15 -->
<g id="edge58_Node000035_Node000015" class="edge">
<title>Node35&#45;&gt;Node15</title>
<g id="a_edge58_Node000035_Node000015"><a xlink:title=" ">
<path fill="none" stroke="#63b8ff" d="M176.03,-71.37C193.24,-60.78 222.66,-42.67 243.15,-30.06"/>
<polygon fill="#63b8ff" stroke="#63b8ff" points="245.18,-32.92 251.86,-24.7 241.51,-26.96 245.18,-32.92"/>
</a>
</g>
</g>
<!-- Node36&#45;&gt;Node3 -->
<g id="edge66_Node000036_Node000003" class="edge">
<title>Node36&#45;&gt;Node3</title>
<g id="a_edge66_Node000036_Node000003"><a xlink:title=" ">
<path fill="none" stroke="#63b8ff" d="M1034.01,-186.8C1027.83,-160.5 1008.21,-82.55 989,-66 963.04,-43.64 876.4,-29.92 813.03,-22.64"/>
<polygon fill="#63b8ff" stroke="#63b8ff" points="813.4,-19.16 803.08,-21.53 812.63,-26.12 813.4,-19.16"/>
</a>
</g>
</g>
<!-- Node36&#45;&gt;Node14 -->
<g id="edge64_Node000036_Node000014" class="edge">
<title>Node36&#45;&gt;Node14</title>
<g id="a_edge64_Node000036_Node000014"><a xlink:title=" ">
<path fill="none" stroke="#63b8ff" d="M1082.4,-186.99C1103.78,-180.66 1127.56,-169.73 1142,-151 1168.28,-116.89 1166.81,-63.08 1163.75,-34.8"/>
<polygon fill="#63b8ff" stroke="#63b8ff" points="1167.2,-34.16 1162.47,-24.68 1160.25,-35.04 1167.2,-34.16"/>
</a>
</g>
</g>
<!-- Node36&#45;&gt;Node23 -->
<g id="edge65_Node000036_Node000023" class="edge">
<title>Node36&#45;&gt;Node23</title>
<g id="a_edge65_Node000036_Node000023"><a xlink:title=" ">
<path fill="none" stroke="#63b8ff" d="M1098.23,-187.86C1279.27,-165.57 1793.38,-101.82 1800,-96 1817.32,-80.76 1821.17,-53.14 1821.64,-34.68"/>
<polygon fill="#63b8ff" stroke="#63b8ff" points="1825.14,-34.55 1821.58,-24.57 1818.14,-34.58 1825.14,-34.55"/>
</a>
</g>
</g>
<!-- Node36&#45;&gt;Node28 -->
<g id="edge67_Node000036_Node000028" class="edge">
<title>Node36&#45;&gt;Node28</title>
<g id="a_edge67_Node000036_Node000028"><a xlink:title=" ">
<path fill="none" stroke="#63b8ff" d="M983.94,-186.98C923.24,-177.05 823.53,-160.74 763.2,-150.87"/>
<polygon fill="#63b8ff" stroke="#63b8ff" points="763.57,-147.39 753.13,-149.23 762.44,-154.3 763.57,-147.39"/>
</a>
</g>
</g>
<!-- Node37 -->
<g id="Node000037" class="node">
<title>Node37</title>
<g id="a_Node000037"><a xlink:title=" ">
<polygon fill="#e0e0e0" stroke="#999999" points="1083,-151 1039,-151 1039,-132 1083,-132 1083,-151"/>
<text text-anchor="middle" x="1061" y="-139" font-family="Helvetica,sans-Serif" font-size="10.00">glib.h</text>
</a>
</g>
</g>
<!-- Node36&#45;&gt;Node37 -->
<g id="edge62_Node000036_Node000037" class="edge">
<title>Node36&#45;&gt;Node37</title>
<g id="a_edge62_Node000036_Node000037"><a xlink:title=" ">
<path fill="none" stroke="#63b8ff" d="M1040.13,-186.75C1043.51,-179.57 1048.42,-169.18 1052.62,-160.27"/>
<polygon fill="#63b8ff" stroke="#63b8ff" points="1055.85,-161.63 1056.95,-151.09 1049.52,-158.64 1055.85,-161.63"/>
</a>
</g>
</g>
<!-- Node38 -->
<g id="Node000038" class="node">
<title>Node38</title>
<g id="a_Node000038"><a xlink:title=" ">
<polygon fill="#e0e0e0" stroke="#999999" points="1133,-151 1101,-151 1101,-132 1133,-132 1133,-151"/>
<text text-anchor="middle" x="1117" y="-139" font-family="Helvetica,sans-Serif" font-size="10.00">set</text>
</a>
</g>
</g>
<!-- Node36&#45;&gt;Node38 -->
<g id="edge63_Node000036_Node000038" class="edge">
<title>Node36&#45;&gt;Node38</title>
<g id="a_edge63_Node000036_Node000038"><a xlink:title=" ">
<path fill="none" stroke="#63b8ff" d="M1049.01,-186.98C1061.46,-178.84 1080.46,-166.41 1095.21,-156.76"/>
<polygon fill="#63b8ff" stroke="#63b8ff" points="1097.3,-159.57 1103.75,-151.17 1093.46,-153.72 1097.3,-159.57"/>
</a>
</g>
</g>
<!-- Node39&#45;&gt;Node3 -->
<g id="edge71_Node000039_Node000003" class="edge">
<title>Node39&#45;&gt;Node3</title>
<g id="a_edge71_Node000039_Node000003"><a xlink:title=" ">
<path fill="none" stroke="#63b8ff" d="M1406.1,-186.91C1346.46,-170.23 1211.46,-131.92 1099,-96 1060.04,-83.55 1051.55,-76.42 1012,-66 945.06,-48.37 867.19,-34.65 812.32,-26.08"/>
<polygon fill="#63b8ff" stroke="#63b8ff" points="812.77,-22.61 802.35,-24.54 811.7,-29.53 812.77,-22.61"/>
</a>
</g>
</g>
<!-- Node39&#45;&gt;Node4 -->
<g id="edge70_Node000039_Node000004" class="edge">
<title>Node39&#45;&gt;Node4</title>
<g id="a_edge70_Node000039_Node000004"><a xlink:title=" ">
<path fill="none" stroke="#63b8ff" d="M1465.6,-186.98C1495.61,-178.05 1542.98,-163.94 1576.32,-154.02"/>
<polygon fill="#63b8ff" stroke="#63b8ff" points="1577.59,-157.29 1586.18,-151.08 1575.59,-150.58 1577.59,-157.29"/>
</a>
</g>
</g>
</g>
</svg>

<g id="navigator" transform="translate(0 0)" fill="#404254">
  <rect fill="#f2f5e9" fill-opacity="0.5" stroke="#606060" stroke-width=".5" x="0" y="0" width="60" height="60"/>
  <use id="zoomplus" xlink:href="#zoomPlus" x="17" y="9" onmousedown="handleZoom(evt,'in')"/>
  <use id="zoomminus" xlink:href="#zoomMin" x="42" y="9" onmousedown="handleZoom(evt,'out')"/>
  <use id="reset" xlink:href="#resetDef" x="30" y="36" onmousedown="handleReset()"/>
   <use id="arrowup" xlink:href="#arrowUp" x="0" y="0" onmousedown="handlePan(0,-1)"/>
  <use id="arrowright" xlink:href="#arrowRight" x="0" y="0" onmousedown="handlePan(1,0)"/>
  <use id="arrowdown" xlink:href="#arrowDown" x="0" y="0" onmousedown="handlePan(0,1)"/>
  <use id="arrowleft" xlink:href="#arrowLeft" x="0" y="0" onmousedown="handlePan(-1,0)"/>
</g>
<svg viewBox="0 0 15 15" width="100%" height="30px" preserveAspectRatio="xMaxYMin meet">
 <g id="arrow_out" transform="scale(0.3 0.3)">
  <a xlink:href="command_8h__incl_org.svg" target="_base">
   <rect id="button" ry="5" rx="5" y="6" x="6" height="38" width="38"
        fill="#f2f5e9" fill-opacity="0.5" stroke="#606060" stroke-width="1.0"/>
   <path id="arrow"
     d="M 11.500037,31.436501 C 11.940474,20.09759 22.043105,11.32322 32.158766,21.979434 L 37.068811,17.246167 C 37.068811,17.246167 37.088388,32 37.088388,32 L 22.160133,31.978069 C 22.160133,31.978069 26.997745,27.140456 26.997745,27.140456 C 18.528582,18.264221 13.291696,25.230495 11.500037,31.436501 z"
     style="fill:#404040;"/>
  </a>
 </g>
</svg>

<style type='text/css'>
<![CDATA[
[data-mouse-over-selected='false'] { opacity: 0.7; }
[data-mouse-over-selected='true']  { opacity: 1.0; }
]]>
</style>
<script type="application/ecmascript"><![CDATA[
document.addEventListener('DOMContentLoaded', (event) => {
  highlightEdges();
  highlightAdjacentNodes();
});
]]></script>
</svg>
