<?xml version="1.0" encoding="UTF-8" standalone="no"?>
<!DOCTYPE svg PUBLIC "-//W3C//DTD SVG 1.1//EN"
 "http://www.w3.org/Graphics/SVG/1.1/DTD/svg11.dtd">
<!-- Generated by graphviz version 2.43.0 (0)
 -->
<!-- Title: convert.h Pages: 1 -->
<svg width="1590pt" height="709pt"
 viewBox="0.00 0.00 1589.50 709.00" xmlns="http://www.w3.org/2000/svg" xmlns:xlink="http://www.w3.org/1999/xlink">
<g id="graph0" class="graph" transform="scale(1 1) rotate(0) translate(4 705)">
<title>convert.h</title>
<!-- Node1 -->
<g id="Node000001" class="node">
<title>Node1</title>
<g id="a_Node000001"><a xlink:title=" ">
<polygon fill="#999999" stroke="#666666" points="604,-701 542,-701 542,-682 604,-682 604,-701"/>
<text text-anchor="middle" x="573" y="-689" font-family="Helvetica,sans-Serif" font-size="10.00">convert.h</text>
</a>
</g>
</g>
<!-- Node2 -->
<g id="Node000002" class="node">
<title>Node2</title>
<g id="a_Node000002"><a xlink:href="i18n_8h.html" target="_top" xlink:title=" ">
<polygon fill="white" stroke="#666666" points="546.5,-646 499.5,-646 499.5,-627 546.5,-627 546.5,-646"/>
<text text-anchor="middle" x="523" y="-634" font-family="Helvetica,sans-Serif" font-size="10.00">i18n.h</text>
</a>
</g>
</g>
<!-- Node1&#45;&gt;Node2 -->
<g id="edge1_Node000001_Node000002" class="edge">
<title>Node1&#45;&gt;Node2</title>
<g id="a_edge1_Node000001_Node000002"><a xlink:title=" ">
<path fill="none" stroke="#63b8ff" d="M557.66,-674.24C548.9,-664.95 538.26,-653.68 531.1,-646.09"/>
<polygon fill="#63b8ff" stroke="#63b8ff" points="555.34,-676.88 564.74,-681.75 560.43,-672.07 555.34,-676.88"/>
</a>
</g>
</g>
<!-- Node13 -->
<g id="Node000013" class="node">
<title>Node13</title>
<g id="a_Node000013"><a xlink:href="sequence__property_8h.html" target="_top" xlink:title=" ">
<polygon fill="white" stroke="#666666" points="858.5,-646 741.5,-646 741.5,-627 858.5,-627 858.5,-646"/>
<text text-anchor="middle" x="800" y="-634" font-family="Helvetica,sans-Serif" font-size="10.00">sequence_property.h</text>
</a>
</g>
</g>
<!-- Node1&#45;&gt;Node13 -->
<g id="edge13_Node000001_Node000013" class="edge">
<title>Node1&#45;&gt;Node13</title>
<g id="a_edge13_Node000001_Node000013"><a xlink:title=" ">
<path fill="none" stroke="#63b8ff" d="M613.84,-680.97C656.36,-671.04 722.36,-655.63 763.28,-646.07"/>
<polygon fill="#63b8ff" stroke="#63b8ff" points="613.03,-677.56 604.09,-683.24 614.62,-684.38 613.03,-677.56"/>
</a>
</g>
</g>
<!-- Node3 -->
<g id="Node000003" class="node">
<title>Node3</title>
<g id="a_Node000003"><a xlink:href="mackie_2gui_8h.html" target="_top" xlink:title=" ">
<polygon fill="white" stroke="#666666" points="375.5,-591 334.5,-591 334.5,-572 375.5,-572 375.5,-591"/>
<text text-anchor="middle" x="355" y="-579" font-family="Helvetica,sans-Serif" font-size="10.00">gui.h</text>
</a>
</g>
</g>
<!-- Node2&#45;&gt;Node3 -->
<g id="edge2_Node000002_Node000003" class="edge">
<title>Node2&#45;&gt;Node3</title>
<g id="a_edge2_Node000002_Node000003"><a xlink:title=" ">
<path fill="none" stroke="#63b8ff" d="M489.35,-624.89C455.4,-614.18 404.07,-597.98 375.69,-589.03"/>
<polygon fill="#63b8ff" stroke="#63b8ff" points="488.7,-628.35 499.29,-628.02 490.8,-621.67 488.7,-628.35"/>
</a>
</g>
</g>
<!-- Node4 -->
<g id="Node000004" class="node">
<title>Node4</title>
<g id="a_Node000004"><a xlink:href="us2400_2gui_8h.html" target="_top" xlink:title=" ">
<polygon fill="white" stroke="#666666" points="434.5,-591 393.5,-591 393.5,-572 434.5,-572 434.5,-591"/>
<text text-anchor="middle" x="414" y="-579" font-family="Helvetica,sans-Serif" font-size="10.00">gui.h</text>
</a>
</g>
</g>
<!-- Node2&#45;&gt;Node4 -->
<g id="edge3_Node000002_Node000004" class="edge">
<title>Node2&#45;&gt;Node4</title>
<g id="a_edge3_Node000002_Node000004"><a xlink:title=" ">
<path fill="none" stroke="#63b8ff" d="M496.27,-622.5C476.21,-612.75 449.32,-599.68 431.83,-591.17"/>
<polygon fill="#63b8ff" stroke="#63b8ff" points="494.96,-625.76 505.49,-626.98 498.02,-619.46 494.96,-625.76"/>
</a>
</g>
</g>
<!-- Node5 -->
<g id="Node000005" class="node">
<title>Node5</title>
<g id="a_Node000005"><a xlink:href="osc_8h.html" target="_top" xlink:title=" ">
<polygon fill="white" stroke="#666666" points="495,-591 453,-591 453,-572 495,-572 495,-591"/>
<text text-anchor="middle" x="474" y="-579" font-family="Helvetica,sans-Serif" font-size="10.00">osc.h</text>
</a>
</g>
</g>
<!-- Node2&#45;&gt;Node5 -->
<g id="edge4_Node000002_Node000005" class="edge">
<title>Node2&#45;&gt;Node5</title>
<g id="a_edge4_Node000002_Node000005"><a xlink:title=" ">
<path fill="none" stroke="#63b8ff" d="M507.97,-619.24C499.38,-609.95 488.96,-598.68 481.94,-591.09"/>
<polygon fill="#63b8ff" stroke="#63b8ff" points="505.55,-621.78 514.91,-626.75 510.69,-617.03 505.55,-621.78"/>
</a>
</g>
</g>
<!-- Node8 -->
<g id="Node000008" class="node">
<title>Node8</title>
<g id="a_Node000008"><a xlink:href="osc__gui_8h.html" target="_top" xlink:title=" ">
<polygon fill="white" stroke="#666666" points="616,-530.5 554,-530.5 554,-511.5 616,-511.5 616,-530.5"/>
<text text-anchor="middle" x="585" y="-518.5" font-family="Helvetica,sans-Serif" font-size="10.00">osc_gui.h</text>
</a>
</g>
</g>
<!-- Node2&#45;&gt;Node8 -->
<g id="edge10_Node000002_Node000008" class="edge">
<title>Node2&#45;&gt;Node8</title>
<g id="a_edge10_Node000002_Node000008"><a xlink:title=" ">
<path fill="none" stroke="#63b8ff" d="M526.45,-616.69C529.37,-603.6 534.31,-586.06 542,-572 550.9,-555.73 565.76,-540.03 575.46,-530.69"/>
<polygon fill="#63b8ff" stroke="#63b8ff" points="522.95,-616.34 524.4,-626.84 529.81,-617.73 522.95,-616.34"/>
</a>
</g>
</g>
<!-- Node11 -->
<g id="Node000011" class="node">
<title>Node11</title>
<g id="a_Node000011"><a xlink:href="value__as__string_8h.html" target="_top" xlink:title=" ">
<polygon fill="white" stroke="#666666" points="653,-591 551,-591 551,-572 653,-572 653,-591"/>
<text text-anchor="middle" x="602" y="-579" font-family="Helvetica,sans-Serif" font-size="10.00">value_as_string.h</text>
</a>
</g>
</g>
<!-- Node2&#45;&gt;Node11 -->
<g id="edge11_Node000002_Node000011" class="edge">
<title>Node2&#45;&gt;Node11</title>
<g id="a_edge11_Node000002_Node000011"><a xlink:title=" ">
<path fill="none" stroke="#63b8ff" d="M544.39,-621.15C558.67,-611.57 576.97,-599.29 589.08,-591.17"/>
<polygon fill="#63b8ff" stroke="#63b8ff" points="542.05,-618.51 535.69,-626.98 545.95,-624.32 542.05,-618.51"/>
</a>
</g>
</g>
<!-- Node12 -->
<g id="Node000012" class="node">
<title>Node12</title>
<g id="a_Node000012"><a xlink:href="wrong__program_8h.html" target="_top" xlink:title=" ">
<polygon fill="white" stroke="#666666" points="773,-591 671,-591 671,-572 773,-572 773,-591"/>
<text text-anchor="middle" x="722" y="-579" font-family="Helvetica,sans-Serif" font-size="10.00">wrong_program.h</text>
</a>
</g>
</g>
<!-- Node2&#45;&gt;Node12 -->
<g id="edge12_Node000002_Node000012" class="edge">
<title>Node2&#45;&gt;Node12</title>
<g id="a_edge12_Node000002_Node000012"><a xlink:title=" ">
<path fill="none" stroke="#63b8ff" d="M556.46,-626.59C593.64,-616.69 653.25,-600.81 689.88,-591.05"/>
<polygon fill="#63b8ff" stroke="#63b8ff" points="555.37,-623.26 546.61,-629.21 557.17,-630.02 555.37,-623.26"/>
</a>
</g>
</g>
<!-- Node6 -->
<g id="Node000006" class="node">
<title>Node6</title>
<g id="a_Node000006"><a xlink:href="osc__cue__observer_8h.html" target="_top" xlink:title=" ">
<polygon fill="white" stroke="#666666" points="112,-530.5 0,-530.5 0,-511.5 112,-511.5 112,-530.5"/>
<text text-anchor="middle" x="56" y="-518.5" font-family="Helvetica,sans-Serif" font-size="10.00">osc_cue_observer.h</text>
</a>
</g>
</g>
<!-- Node5&#45;&gt;Node6 -->
<g id="edge5_Node000005_Node000006" class="edge">
<title>Node5&#45;&gt;Node6</title>
<g id="a_edge5_Node000005_Node000006"><a xlink:title=" ">
<path fill="none" stroke="#63b8ff" d="M443.3,-572.06C443.2,-572.04 443.1,-572.02 443,-572 301.57,-544.88 263.12,-559.19 121,-536 111.77,-534.49 101.88,-532.54 92.66,-530.57"/>
<polygon fill="#63b8ff" stroke="#63b8ff" points="442.23,-575.4 452.76,-574.21 443.78,-568.58 442.23,-575.4"/>
</a>
</g>
</g>
<!-- Node7 -->
<g id="Node000007" class="node">
<title>Node7</title>
<g id="a_Node000007"><a xlink:href="osc__global__observer_8h.html" target="_top" xlink:title=" ">
<polygon fill="white" stroke="#666666" points="255.5,-530.5 130.5,-530.5 130.5,-511.5 255.5,-511.5 255.5,-530.5"/>
<text text-anchor="middle" x="193" y="-518.5" font-family="Helvetica,sans-Serif" font-size="10.00">osc_global_observer.h</text>
</a>
</g>
</g>
<!-- Node5&#45;&gt;Node7 -->
<g id="edge6_Node000005_Node000007" class="edge">
<title>Node5&#45;&gt;Node7</title>
<g id="a_edge6_Node000005_Node000007"><a xlink:title=" ">
<path fill="none" stroke="#63b8ff" d="M443.3,-572.07C443.2,-572.05 443.1,-572.02 443,-572 423.19,-567.31 302.7,-543.53 236.5,-530.53"/>
<polygon fill="#63b8ff" stroke="#63b8ff" points="442.15,-575.39 452.71,-574.45 443.87,-568.6 442.15,-575.39"/>
</a>
</g>
</g>
<!-- Node5&#45;&gt;Node8 -->
<g id="edge7_Node000005_Node000008" class="edge">
<title>Node5&#45;&gt;Node8</title>
<g id="a_edge7_Node000005_Node000008"><a xlink:title=" ">
<path fill="none" stroke="#63b8ff" d="M499.47,-567.08C520.71,-555.88 550.33,-540.27 568.55,-530.67"/>
<polygon fill="#63b8ff" stroke="#63b8ff" points="497.59,-564.11 490.38,-571.87 500.86,-570.3 497.59,-564.11"/>
</a>
</g>
</g>
<!-- Node9 -->
<g id="Node000009" class="node">
<title>Node9</title>
<g id="a_Node000009"><a xlink:href="osc__route__observer_8h.html" target="_top" xlink:title=" ">
<polygon fill="white" stroke="#666666" points="394,-530.5 274,-530.5 274,-511.5 394,-511.5 394,-530.5"/>
<text text-anchor="middle" x="334" y="-518.5" font-family="Helvetica,sans-Serif" font-size="10.00">osc_route_observer.h</text>
</a>
</g>
</g>
<!-- Node5&#45;&gt;Node9 -->
<g id="edge8_Node000005_Node000009" class="edge">
<title>Node5&#45;&gt;Node9</title>
<g id="a_edge8_Node000005_Node000009"><a xlink:title=" ">
<path fill="none" stroke="#63b8ff" d="M444.28,-568.08C417.24,-556.78 378.03,-540.4 354.38,-530.52"/>
<polygon fill="#63b8ff" stroke="#63b8ff" points="443.07,-571.37 453.64,-571.99 445.77,-564.91 443.07,-571.37"/>
</a>
</g>
</g>
<!-- Node10 -->
<g id="Node000010" class="node">
<title>Node10</title>
<g id="a_Node000010"><a xlink:href="osc__select__observer_8h.html" target="_top" xlink:title=" ">
<polygon fill="white" stroke="#666666" points="536,-530.5 412,-530.5 412,-511.5 536,-511.5 536,-530.5"/>
<text text-anchor="middle" x="474" y="-518.5" font-family="Helvetica,sans-Serif" font-size="10.00">osc_select_observer.h</text>
</a>
</g>
</g>
<!-- Node5&#45;&gt;Node10 -->
<g id="edge9_Node000005_Node000010" class="edge">
<title>Node5&#45;&gt;Node10</title>
<g id="a_edge9_Node000005_Node000010"><a xlink:title=" ">
<path fill="none" stroke="#63b8ff" d="M474,-561.66C474,-551.24 474,-538.8 474,-530.67"/>
<polygon fill="#63b8ff" stroke="#63b8ff" points="470.5,-561.87 474,-571.87 477.5,-561.87 470.5,-561.87"/>
</a>
</g>
</g>
<!-- Node14 -->
<g id="Node000014" class="node">
<title>Node14</title>
<g id="a_Node000014"><a xlink:href="playlist_8h.html" target="_top" xlink:title=" ">
<polygon fill="white" stroke="#666666" points="1008,-591 946,-591 946,-572 1008,-572 1008,-591"/>
<text text-anchor="middle" x="977" y="-579" font-family="Helvetica,sans-Serif" font-size="10.00">playlist.h</text>
</a>
</g>
</g>
<!-- Node13&#45;&gt;Node14 -->
<g id="edge14_Node000013_Node000014" class="edge">
<title>Node13&#45;&gt;Node14</title>
<g id="a_edge14_Node000013_Node000014"><a xlink:title=" ">
<path fill="none" stroke="#63b8ff" d="M838.22,-624.06C871.3,-614.15 918.41,-600.04 948.34,-591.08"/>
<polygon fill="#63b8ff" stroke="#63b8ff" points="837.01,-620.76 828.44,-626.98 839.02,-627.47 837.01,-620.76"/>
</a>
</g>
</g>
<!-- Node15 -->
<g id="Node000015" class="node">
<title>Node15</title>
<g id="a_Node000015"><a xlink:href="audioplaylist_8h.html" target="_top" xlink:title=" ">
<polygon fill="white" stroke="#666666" points="723.5,-530.5 634.5,-530.5 634.5,-511.5 723.5,-511.5 723.5,-530.5"/>
<text text-anchor="middle" x="679" y="-518.5" font-family="Helvetica,sans-Serif" font-size="10.00">audioplaylist.h</text>
</a>
</g>
</g>
<!-- Node14&#45;&gt;Node15 -->
<g id="edge15_Node000014_Node000015" class="edge">
<title>Node14&#45;&gt;Node15</title>
<g id="a_edge15_Node000014_Node000015"><a xlink:title=" ">
<path fill="none" stroke="#63b8ff" d="M935.73,-574.02C886.87,-566.12 803.16,-551.83 732,-536 724.75,-534.39 717,-532.46 709.73,-530.55"/>
<polygon fill="#63b8ff" stroke="#63b8ff" points="935.47,-577.52 945.9,-575.66 936.59,-570.61 935.47,-577.52"/>
</a>
</g>
</g>
<!-- Node17 -->
<g id="Node000017" class="node">
<title>Node17</title>
<g id="a_Node000017"><a xlink:href="midi__playlist_8h.html" target="_top" xlink:title=" ">
<polygon fill="white" stroke="#666666" points="830.5,-530.5 741.5,-530.5 741.5,-511.5 830.5,-511.5 830.5,-530.5"/>
<text text-anchor="middle" x="786" y="-518.5" font-family="Helvetica,sans-Serif" font-size="10.00">midi_playlist.h</text>
</a>
</g>
</g>
<!-- Node14&#45;&gt;Node17 -->
<g id="edge17_Node000014_Node000017" class="edge">
<title>Node14&#45;&gt;Node17</title>
<g id="a_edge17_Node000014_Node000017"><a xlink:title=" ">
<path fill="none" stroke="#63b8ff" d="M939.33,-568.96C902.39,-557.65 846.92,-540.66 813.81,-530.52"/>
<polygon fill="#63b8ff" stroke="#63b8ff" points="938.64,-572.41 949.23,-571.99 940.69,-565.72 938.64,-572.41"/>
</a>
</g>
</g>
<!-- Node18 -->
<g id="Node000018" class="node">
<title>Node18</title>
<g id="a_Node000018"><a xlink:href="playlist__factory_8h.html" target="_top" xlink:title=" ">
<polygon fill="white" stroke="#666666" points="949,-530.5 849,-530.5 849,-511.5 949,-511.5 949,-530.5"/>
<text text-anchor="middle" x="899" y="-518.5" font-family="Helvetica,sans-Serif" font-size="10.00">playlist_factory.h</text>
</a>
</g>
</g>
<!-- Node14&#45;&gt;Node18 -->
<g id="edge18_Node000014_Node000018" class="edge">
<title>Node14&#45;&gt;Node18</title>
<g id="a_edge18_Node000014_Node000018"><a xlink:title=" ">
<path fill="none" stroke="#63b8ff" d="M957.46,-565.85C942.69,-554.77 922.9,-539.93 910.56,-530.67"/>
<polygon fill="#63b8ff" stroke="#63b8ff" points="955.39,-568.67 965.49,-571.87 959.59,-563.07 955.39,-568.67"/>
</a>
</g>
</g>
<!-- Node19 -->
<g id="Node000019" class="node">
<title>Node19</title>
<g id="a_Node000019"><a xlink:href="playlist__selection_8h.html" target="_top" xlink:title=" ">
<polygon fill="white" stroke="#666666" points="1079.5,-415 968.5,-415 968.5,-396 1079.5,-396 1079.5,-415"/>
<text text-anchor="middle" x="1024" y="-403" font-family="Helvetica,sans-Serif" font-size="10.00">playlist_selection.h</text>
</a>
</g>
</g>
<!-- Node14&#45;&gt;Node19 -->
<g id="edge19_Node000014_Node000019" class="edge">
<title>Node14&#45;&gt;Node19</title>
<g id="a_edge19_Node000014_Node000019"><a xlink:title=" ">
<path fill="none" stroke="#63b8ff" d="M981.66,-561.67C985.44,-546.59 990.93,-524.9 996,-506 1005.02,-472.37 1016.45,-432.57 1021.46,-415.26"/>
<polygon fill="#63b8ff" stroke="#63b8ff" points="978.17,-561.22 979.15,-571.77 984.97,-562.91 978.17,-561.22"/>
</a>
</g>
</g>
<!-- Node35 -->
<g id="Node000035" class="node">
<title>Node35</title>
<g id="a_Node000035"><a xlink:href="playlist__selector_8h.html" target="_top" xlink:title=" ">
<polygon fill="white" stroke="#666666" points="1110.5,-530.5 1005.5,-530.5 1005.5,-511.5 1110.5,-511.5 1110.5,-530.5"/>
<text text-anchor="middle" x="1058" y="-518.5" font-family="Helvetica,sans-Serif" font-size="10.00">playlist_selector.h</text>
</a>
</g>
</g>
<!-- Node14&#45;&gt;Node35 -->
<g id="edge36_Node000014_Node000035" class="edge">
<title>Node14&#45;&gt;Node35</title>
<g id="a_edge36_Node000014_Node000035"><a xlink:title=" ">
<path fill="none" stroke="#63b8ff" d="M997.29,-565.85C1012.63,-554.77 1033.18,-539.93 1046,-530.67"/>
<polygon fill="#63b8ff" stroke="#63b8ff" points="995.01,-563.18 988.95,-571.87 999.11,-568.85 995.01,-563.18"/>
</a>
</g>
</g>
<!-- Node36 -->
<g id="Node000036" class="node">
<title>Node36</title>
<g id="a_Node000036"><a xlink:href="region__layering__order__editor_8h.html" target="_top" xlink:title=" ">
<polygon fill="white" stroke="#666666" points="1251.5,-536 1128.5,-536 1128.5,-506 1251.5,-506 1251.5,-536"/>
<text text-anchor="start" x="1136.5" y="-524" font-family="Helvetica,sans-Serif" font-size="10.00">region_layering_order</text>
<text text-anchor="middle" x="1190" y="-513" font-family="Helvetica,sans-Serif" font-size="10.00">_editor.h</text>
</a>
</g>
</g>
<!-- Node14&#45;&gt;Node36 -->
<g id="edge37_Node000014_Node000036" class="edge">
<title>Node14&#45;&gt;Node36</title>
<g id="a_edge37_Node000014_Node000036"><a xlink:title=" ">
<path fill="none" stroke="#63b8ff" d="M1017.7,-569.32C1052.14,-559.86 1101.67,-546.26 1138.79,-536.06"/>
<polygon fill="#63b8ff" stroke="#63b8ff" points="1016.69,-565.97 1007.97,-571.99 1018.54,-572.72 1016.69,-565.97"/>
</a>
</g>
</g>
<!-- Node37 -->
<g id="Node000037" class="node">
<title>Node37</title>
<g id="a_Node000037"><a xlink:href="route__time__axis_8h.html" target="_top" xlink:title=" ">
<polygon fill="white" stroke="#666666" points="1374,-530.5 1270,-530.5 1270,-511.5 1374,-511.5 1374,-530.5"/>
<text text-anchor="middle" x="1322" y="-518.5" font-family="Helvetica,sans-Serif" font-size="10.00">route_time_axis.h</text>
</a>
</g>
</g>
<!-- Node14&#45;&gt;Node37 -->
<g id="edge38_Node000014_Node000037" class="edge">
<title>Node14&#45;&gt;Node37</title>
<g id="a_edge38_Node000014_Node000037"><a xlink:title=" ">
<path fill="none" stroke="#63b8ff" d="M1018.2,-574.89C1073.42,-567.18 1174.41,-552.37 1260,-536 1268.45,-534.38 1277.51,-532.45 1286.02,-530.55"/>
<polygon fill="#63b8ff" stroke="#63b8ff" points="1017.53,-571.45 1008.1,-576.3 1018.49,-578.39 1017.53,-571.45"/>
</a>
</g>
</g>
<!-- Node46 -->
<g id="Node000046" class="node">
<title>Node46</title>
<g id="a_Node000046"><a xlink:href="session__playlist_8h.html" target="_top" xlink:title=" ">
<polygon fill="white" stroke="#666666" points="1496,-530.5 1392,-530.5 1392,-511.5 1496,-511.5 1496,-530.5"/>
<text text-anchor="middle" x="1444" y="-518.5" font-family="Helvetica,sans-Serif" font-size="10.00">session_playlist.h</text>
</a>
</g>
</g>
<!-- Node14&#45;&gt;Node46 -->
<g id="edge51_Node000014_Node000046" class="edge">
<title>Node14&#45;&gt;Node46</title>
<g id="a_edge51_Node000014_Node000046"><a xlink:title=" ">
<path fill="none" stroke="#63b8ff" d="M1018.49,-577.56C1092.21,-571.97 1250.72,-558.35 1383,-536 1391.79,-534.52 1401.2,-532.55 1409.94,-530.55"/>
<polygon fill="#63b8ff" stroke="#63b8ff" points="1017.95,-574.09 1008.24,-578.32 1018.47,-581.07 1017.95,-574.09"/>
</a>
</g>
</g>
<!-- Node16 -->
<g id="Node000016" class="node">
<title>Node16</title>
<g id="a_Node000016"><a xlink:href="analysis__graph_8h.html" target="_top" xlink:title=" ">
<polygon fill="white" stroke="#666666" points="728.5,-470 629.5,-470 629.5,-451 728.5,-451 728.5,-470"/>
<text text-anchor="middle" x="679" y="-458" font-family="Helvetica,sans-Serif" font-size="10.00">analysis_graph.h</text>
</a>
</g>
</g>
<!-- Node15&#45;&gt;Node16 -->
<g id="edge16_Node000015_Node000016" class="edge">
<title>Node15&#45;&gt;Node16</title>
<g id="a_edge16_Node000015_Node000016"><a xlink:title=" ">
<path fill="none" stroke="#63b8ff" d="M679,-501.16C679,-490.74 679,-478.3 679,-470.17"/>
<polygon fill="#63b8ff" stroke="#63b8ff" points="675.5,-501.37 679,-511.37 682.5,-501.37 675.5,-501.37"/>
</a>
</g>
</g>
<!-- Node20 -->
<g id="Node000020" class="node">
<title>Node20</title>
<g id="a_Node000020"><a xlink:href="gtk2__ardour_2selection_8h.html" target="_top" xlink:title=" ">
<polygon fill="white" stroke="#666666" points="1130,-250 1060,-250 1060,-231 1130,-231 1130,-250"/>
<text text-anchor="middle" x="1095" y="-238" font-family="Helvetica,sans-Serif" font-size="10.00">selection.h</text>
</a>
</g>
</g>
<!-- Node19&#45;&gt;Node20 -->
<g id="edge20_Node000019_Node000020" class="edge">
<title>Node19&#45;&gt;Node20</title>
<g id="a_edge20_Node000019_Node000020"><a xlink:title=" ">
<path fill="none" stroke="#63b8ff" d="M1031.94,-386.28C1047.16,-351.32 1079.97,-276.01 1091.16,-250.31"/>
<polygon fill="#63b8ff" stroke="#63b8ff" points="1028.6,-385.17 1027.82,-395.74 1035.02,-387.97 1028.6,-385.17"/>
</a>
</g>
</g>
<!-- Node21 -->
<g id="Node000021" class="node">
<title>Node21</title>
<g id="a_Node000021"><a xlink:href="editing__context_8h.html" target="_top" xlink:title=" ">
<polygon fill="white" stroke="#666666" points="1066.5,-195 965.5,-195 965.5,-176 1066.5,-176 1066.5,-195"/>
<text text-anchor="middle" x="1016" y="-183" font-family="Helvetica,sans-Serif" font-size="10.00">editing_context.h</text>
</a>
</g>
</g>
<!-- Node20&#45;&gt;Node21 -->
<g id="edge21_Node000020_Node000021" class="edge">
<title>Node20&#45;&gt;Node21</title>
<g id="a_edge21_Node000020_Node000021"><a xlink:title=" ">
<path fill="none" stroke="#63b8ff" d="M1073.61,-225.15C1059.33,-215.57 1041.03,-203.29 1028.92,-195.17"/>
<polygon fill="#63b8ff" stroke="#63b8ff" points="1072.05,-228.32 1082.31,-230.98 1075.95,-222.51 1072.05,-228.32"/>
</a>
</g>
</g>
<!-- Node26 -->
<g id="Node000026" class="node">
<title>Node26</title>
<g id="a_Node000026"><a xlink:href="public__editor_8h.html" target="_top" xlink:title=" ">
<polygon fill="white" stroke="#666666" points="1139,-140 1051,-140 1051,-121 1139,-121 1139,-140"/>
<text text-anchor="middle" x="1095" y="-128" font-family="Helvetica,sans-Serif" font-size="10.00">public_editor.h</text>
</a>
</g>
</g>
<!-- Node20&#45;&gt;Node26 -->
<g id="edge34_Node000020_Node000026" class="edge">
<title>Node20&#45;&gt;Node26</title>
<g id="a_edge34_Node000020_Node000026"><a xlink:title=" ">
<path fill="none" stroke="#63b8ff" d="M1095,-220.48C1095,-196.84 1095,-157.5 1095,-140.16"/>
<polygon fill="#63b8ff" stroke="#63b8ff" points="1091.5,-220.66 1095,-230.66 1098.5,-220.66 1091.5,-220.66"/>
</a>
</g>
</g>
<!-- Node33 -->
<g id="Node000033" class="node">
<title>Node33</title>
<g id="a_Node000033"><a xlink:href="gtk2__ardour_2keyboard_8h.html" target="_top" xlink:title=" ">
<polygon fill="white" stroke="#666666" points="1194.5,-195 1123.5,-195 1123.5,-176 1194.5,-176 1194.5,-195"/>
<text text-anchor="middle" x="1159" y="-183" font-family="Helvetica,sans-Serif" font-size="10.00">keyboard.h</text>
</a>
</g>
</g>
<!-- Node20&#45;&gt;Node33 -->
<g id="edge33_Node000020_Node000033" class="edge">
<title>Node20&#45;&gt;Node33</title>
<g id="a_edge33_Node000020_Node000033"><a xlink:title=" ">
<path fill="none" stroke="#63b8ff" d="M1112.99,-224.6C1124.46,-215.11 1138.91,-203.13 1148.53,-195.17"/>
<polygon fill="#63b8ff" stroke="#63b8ff" points="1110.75,-221.91 1105.28,-230.98 1115.22,-227.3 1110.75,-221.91"/>
</a>
</g>
</g>
<!-- Node34 -->
<g id="Node000034" class="node">
<title>Node34</title>
<g id="a_Node000034"><a xlink:href="selection__templates_8h.html" target="_top" xlink:title=" ">
<polygon fill="white" stroke="#666666" points="1352.5,-195 1227.5,-195 1227.5,-176 1352.5,-176 1352.5,-195"/>
<text text-anchor="middle" x="1290" y="-183" font-family="Helvetica,sans-Serif" font-size="10.00">selection_templates.h</text>
</a>
</g>
</g>
<!-- Node20&#45;&gt;Node34 -->
<g id="edge35_Node000020_Node000034" class="edge">
<title>Node20&#45;&gt;Node34</title>
<g id="a_edge35_Node000020_Node000034"><a xlink:title=" ">
<path fill="none" stroke="#63b8ff" d="M1136.17,-228.31C1172.66,-218.39 1225.17,-204.12 1258.42,-195.08"/>
<polygon fill="#63b8ff" stroke="#63b8ff" points="1135.06,-224.98 1126.33,-230.98 1136.9,-231.74 1135.06,-224.98"/>
</a>
</g>
</g>
<!-- Node22 -->
<g id="Node000022" class="node">
<title>Node22</title>
<g id="a_Node000022"><a xlink:href="cue__editor_8h.html" target="_top" xlink:title=" ">
<polygon fill="white" stroke="#666666" points="841,-140 765,-140 765,-121 841,-121 841,-140"/>
<text text-anchor="middle" x="803" y="-128" font-family="Helvetica,sans-Serif" font-size="10.00">cue_editor.h</text>
</a>
</g>
</g>
<!-- Node21&#45;&gt;Node22 -->
<g id="edge22_Node000021_Node000022" class="edge">
<title>Node21&#45;&gt;Node22</title>
<g id="a_edge22_Node000021_Node000022"><a xlink:title=" ">
<path fill="none" stroke="#63b8ff" d="M972.05,-173.56C932.16,-163.64 874.13,-149.2 837.49,-140.08"/>
<polygon fill="#63b8ff" stroke="#63b8ff" points="971.23,-176.97 981.78,-175.98 972.92,-170.17 971.23,-176.97"/>
</a>
</g>
</g>
<!-- Node21&#45;&gt;Node26 -->
<g id="edge26_Node000021_Node000026" class="edge">
<title>Node21&#45;&gt;Node26</title>
<g id="a_edge26_Node000021_Node000026"><a xlink:title=" ">
<path fill="none" stroke="#63b8ff" d="M1037.39,-170.15C1051.67,-160.57 1069.97,-148.29 1082.08,-140.17"/>
<polygon fill="#63b8ff" stroke="#63b8ff" points="1035.05,-167.51 1028.69,-175.98 1038.95,-173.32 1035.05,-167.51"/>
</a>
</g>
</g>
<!-- Node23 -->
<g id="Node000023" class="node">
<title>Node23</title>
<g id="a_Node000023"><a xlink:href="audio__clip__editor_8h.html" target="_top" xlink:title=" ">
<polygon fill="white" stroke="#666666" points="751,-79.5 643,-79.5 643,-60.5 751,-60.5 751,-79.5"/>
<text text-anchor="middle" x="697" y="-67.5" font-family="Helvetica,sans-Serif" font-size="10.00">audio_clip_editor.h</text>
</a>
</g>
</g>
<!-- Node22&#45;&gt;Node23 -->
<g id="edge23_Node000022_Node000023" class="edge">
<title>Node22&#45;&gt;Node23</title>
<g id="a_edge23_Node000022_Node000023"><a xlink:title=" ">
<path fill="none" stroke="#63b8ff" d="M778.4,-115.92C758.14,-104.74 730.03,-89.23 712.7,-79.67"/>
<polygon fill="#63b8ff" stroke="#63b8ff" points="776.91,-119.1 787.36,-120.87 780.3,-112.97 776.91,-119.1"/>
</a>
</g>
</g>
<!-- Node25 -->
<g id="Node000025" class="node">
<title>Node25</title>
<g id="a_Node000025"><a xlink:href="pianoroll_8h.html" target="_top" xlink:title=" ">
<polygon fill="white" stroke="#666666" points="837,-79.5 769,-79.5 769,-60.5 837,-60.5 837,-79.5"/>
<text text-anchor="middle" x="803" y="-67.5" font-family="Helvetica,sans-Serif" font-size="10.00">pianoroll.h</text>
</a>
</g>
</g>
<!-- Node22&#45;&gt;Node25 -->
<g id="edge25_Node000022_Node000025" class="edge">
<title>Node22&#45;&gt;Node25</title>
<g id="a_edge25_Node000022_Node000025"><a xlink:title=" ">
<path fill="none" stroke="#63b8ff" d="M803,-110.66C803,-100.24 803,-87.8 803,-79.67"/>
<polygon fill="#63b8ff" stroke="#63b8ff" points="799.5,-110.87 803,-120.87 806.5,-110.87 799.5,-110.87"/>
</a>
</g>
</g>
<!-- Node24 -->
<g id="Node000024" class="node">
<title>Node24</title>
<g id="a_Node000024"><a xlink:href="trigger__page_8h.html" target="_top" xlink:title=" ">
<polygon fill="white" stroke="#666666" points="740.5,-19 653.5,-19 653.5,0 740.5,0 740.5,-19"/>
<text text-anchor="middle" x="697" y="-7" font-family="Helvetica,sans-Serif" font-size="10.00">trigger_page.h</text>
</a>
</g>
</g>
<!-- Node23&#45;&gt;Node24 -->
<g id="edge24_Node000023_Node000024" class="edge">
<title>Node23&#45;&gt;Node24</title>
<g id="a_edge24_Node000023_Node000024"><a xlink:title=" ">
<path fill="none" stroke="#63b8ff" d="M697,-50.16C697,-39.74 697,-27.3 697,-19.17"/>
<polygon fill="#63b8ff" stroke="#63b8ff" points="693.5,-50.37 697,-60.37 700.5,-50.37 693.5,-50.37"/>
</a>
</g>
</g>
<!-- Node27 -->
<g id="Node000027" class="node">
<title>Node27</title>
<g id="a_Node000027"><a xlink:href="editor_8h.html" target="_top" xlink:title=" ">
<polygon fill="white" stroke="#666666" points="908.5,-79.5 855.5,-79.5 855.5,-60.5 908.5,-60.5 908.5,-79.5"/>
<text text-anchor="middle" x="882" y="-67.5" font-family="Helvetica,sans-Serif" font-size="10.00">editor.h</text>
</a>
</g>
</g>
<!-- Node26&#45;&gt;Node27 -->
<g id="edge27_Node000026_Node000027" class="edge">
<title>Node26&#45;&gt;Node27</title>
<g id="a_edge27_Node000026_Node000027"><a xlink:title=" ">
<path fill="none" stroke="#63b8ff" d="M1045.07,-118.7C1009.35,-110.55 960.31,-98.49 918,-85 913.02,-83.41 907.73,-81.49 902.78,-79.59"/>
<polygon fill="#63b8ff" stroke="#63b8ff" points="1044.71,-122.2 1055.24,-120.99 1046.25,-115.38 1044.71,-122.2"/>
</a>
</g>
</g>
<!-- Node28 -->
<g id="Node000028" class="node">
<title>Node28</title>
<g id="a_Node000028"><a xlink:href="export__dialog_8h.html" target="_top" xlink:title=" ">
<polygon fill="white" stroke="#666666" points="1019,-79.5 927,-79.5 927,-60.5 1019,-60.5 1019,-79.5"/>
<text text-anchor="middle" x="973" y="-67.5" font-family="Helvetica,sans-Serif" font-size="10.00">export_dialog.h</text>
</a>
</g>
</g>
<!-- Node26&#45;&gt;Node28 -->
<g id="edge28_Node000026_Node000028" class="edge">
<title>Node26&#45;&gt;Node28</title>
<g id="a_edge28_Node000026_Node000028"><a xlink:title=" ">
<path fill="none" stroke="#63b8ff" d="M1068.17,-116.63C1044.64,-105.35 1011.1,-89.27 990.76,-79.52"/>
<polygon fill="#63b8ff" stroke="#63b8ff" points="1066.73,-119.83 1077.26,-120.99 1069.76,-113.51 1066.73,-119.83"/>
</a>
</g>
</g>
<!-- Node29 -->
<g id="Node000029" class="node">
<title>Node29</title>
<g id="a_Node000029"><a xlink:href="insert__remove__time__dialog_8h.html" target="_top" xlink:title=" ">
<polygon fill="white" stroke="#666666" points="1152.5,-85 1037.5,-85 1037.5,-55 1152.5,-55 1152.5,-85"/>
<text text-anchor="start" x="1045.5" y="-73" font-family="Helvetica,sans-Serif" font-size="10.00">insert_remove_time</text>
<text text-anchor="middle" x="1095" y="-62" font-family="Helvetica,sans-Serif" font-size="10.00">_dialog.h</text>
</a>
</g>
</g>
<!-- Node26&#45;&gt;Node29 -->
<g id="edge29_Node000026_Node000029" class="edge">
<title>Node26&#45;&gt;Node29</title>
<g id="a_edge29_Node000026_Node000029"><a xlink:title=" ">
<path fill="none" stroke="#63b8ff" d="M1095,-110.65C1095,-102.36 1095,-92.78 1095,-85.11"/>
<polygon fill="#63b8ff" stroke="#63b8ff" points="1091.5,-110.87 1095,-120.87 1098.5,-110.87 1091.5,-110.87"/>
</a>
</g>
</g>
<!-- Node30 -->
<g id="Node000030" class="node">
<title>Node30</title>
<g id="a_Node000030"><a xlink:href="midi__export__dialog_8h.html" target="_top" xlink:title=" ">
<polygon fill="white" stroke="#666666" points="1289.5,-79.5 1170.5,-79.5 1170.5,-60.5 1289.5,-60.5 1289.5,-79.5"/>
<text text-anchor="middle" x="1230" y="-67.5" font-family="Helvetica,sans-Serif" font-size="10.00">midi_export_dialog.h</text>
</a>
</g>
</g>
<!-- Node26&#45;&gt;Node30 -->
<g id="edge30_Node000026_Node000030" class="edge">
<title>Node26&#45;&gt;Node30</title>
<g id="a_edge30_Node000026_Node000030"><a xlink:title=" ">
<path fill="none" stroke="#63b8ff" d="M1124,-116.93C1150.07,-105.64 1187.64,-89.36 1210.35,-79.52"/>
<polygon fill="#63b8ff" stroke="#63b8ff" points="1122.41,-113.81 1114.63,-120.99 1125.2,-120.23 1122.41,-113.81"/>
</a>
</g>
</g>
<!-- Node31 -->
<g id="Node000031" class="node">
<title>Node31</title>
<g id="a_Node000031"><a xlink:href="simple__export__dialog_8h.html" target="_top" xlink:title=" ">
<polygon fill="white" stroke="#666666" points="1438.5,-79.5 1307.5,-79.5 1307.5,-60.5 1438.5,-60.5 1438.5,-79.5"/>
<text text-anchor="middle" x="1373" y="-67.5" font-family="Helvetica,sans-Serif" font-size="10.00">simple_export_dialog.h</text>
</a>
</g>
</g>
<!-- Node26&#45;&gt;Node31 -->
<g id="edge31_Node000026_Node000031" class="edge">
<title>Node26&#45;&gt;Node31</title>
<g id="a_edge31_Node000026_Node000031"><a xlink:title=" ">
<path fill="none" stroke="#63b8ff" d="M1145.41,-118.89C1199.09,-107.6 1282.99,-89.94 1332.53,-79.52"/>
<polygon fill="#63b8ff" stroke="#63b8ff" points="1144.49,-115.51 1135.42,-120.99 1145.93,-122.36 1144.49,-115.51"/>
</a>
</g>
</g>
<!-- Node32 -->
<g id="Node000032" class="node">
<title>Node32</title>
<g id="a_Node000032"><a xlink:href="tempo__map__change_8h.html" target="_top" xlink:title=" ">
<polygon fill="white" stroke="#666666" points="1581.5,-79.5 1456.5,-79.5 1456.5,-60.5 1581.5,-60.5 1581.5,-79.5"/>
<text text-anchor="middle" x="1519" y="-67.5" font-family="Helvetica,sans-Serif" font-size="10.00">tempo_map_change.h</text>
</a>
</g>
</g>
<!-- Node26&#45;&gt;Node32 -->
<g id="edge32_Node000026_Node000032" class="edge">
<title>Node26&#45;&gt;Node32</title>
<g id="a_edge32_Node000026_Node000032"><a xlink:title=" ">
<path fill="none" stroke="#63b8ff" d="M1149.43,-123.82C1218.9,-116.3 1342.72,-101.99 1448,-85 1457.8,-83.42 1468.31,-81.48 1478.16,-79.55"/>
<polygon fill="#63b8ff" stroke="#63b8ff" points="1148.73,-120.38 1139.17,-124.93 1149.48,-127.34 1148.73,-120.38"/>
</a>
</g>
</g>
<!-- Node38 -->
<g id="Node000038" class="node">
<title>Node38</title>
<g id="a_Node000038"><a xlink:href="audio__time__axis_8h.html" target="_top" xlink:title=" ">
<polygon fill="white" stroke="#666666" points="1227,-415 1121,-415 1121,-396 1227,-396 1227,-415"/>
<text text-anchor="middle" x="1174" y="-403" font-family="Helvetica,sans-Serif" font-size="10.00">audio_time_axis.h</text>
</a>
</g>
</g>
<!-- Node37&#45;&gt;Node38 -->
<g id="edge39_Node000037_Node000038" class="edge">
<title>Node37&#45;&gt;Node38</title>
<g id="a_edge39_Node000037_Node000038"><a xlink:title=" ">
<path fill="none" stroke="#63b8ff" d="M1274.39,-509.22C1269.53,-508.13 1264.67,-507.04 1260,-506 1187.16,-489.78 1142.77,-528.15 1096,-470 1077.23,-446.66 1118.62,-426.1 1147.98,-415.06"/>
<polygon fill="#63b8ff" stroke="#63b8ff" points="1273.78,-512.67 1284.3,-511.45 1275.32,-505.84 1273.78,-512.67"/>
</a>
</g>
</g>
<!-- Node42 -->
<g id="Node000042" class="node">
<title>Node42</title>
<g id="a_Node000042"><a xlink:href="automation__streamview_8h.html" target="_top" xlink:title=" ">
<polygon fill="white" stroke="#666666" points="1249,-470 1105,-470 1105,-451 1249,-451 1249,-470"/>
<text text-anchor="middle" x="1177" y="-458" font-family="Helvetica,sans-Serif" font-size="10.00">automation_streamview.h</text>
</a>
</g>
</g>
<!-- Node37&#45;&gt;Node42 -->
<g id="edge44_Node000037_Node000042" class="edge">
<title>Node37&#45;&gt;Node42</title>
<g id="a_edge44_Node000037_Node000042"><a xlink:title=" ">
<path fill="none" stroke="#63b8ff" d="M1291.59,-507.73C1263.57,-496.42 1222.71,-479.94 1198.11,-470.02"/>
<polygon fill="#63b8ff" stroke="#63b8ff" points="1290.33,-511 1300.92,-511.49 1292.95,-504.51 1290.33,-511"/>
</a>
</g>
</g>
<!-- Node43 -->
<g id="Node000043" class="node">
<title>Node43</title>
<g id="a_Node000043"><a xlink:href="midi__streamview_8h.html" target="_top" xlink:title=" ">
<polygon fill="white" stroke="#666666" points="1377,-470 1267,-470 1267,-451 1377,-451 1377,-470"/>
<text text-anchor="middle" x="1322" y="-458" font-family="Helvetica,sans-Serif" font-size="10.00">midi_streamview.h</text>
</a>
</g>
</g>
<!-- Node37&#45;&gt;Node43 -->
<g id="edge45_Node000037_Node000043" class="edge">
<title>Node37&#45;&gt;Node43</title>
<g id="a_edge45_Node000037_Node000043"><a xlink:title=" ">
<path fill="none" stroke="#63b8ff" d="M1322,-501.16C1322,-490.74 1322,-478.3 1322,-470.17"/>
<polygon fill="#63b8ff" stroke="#63b8ff" points="1318.5,-501.37 1322,-511.37 1325.5,-501.37 1318.5,-501.37"/>
</a>
</g>
</g>
<!-- Node44 -->
<g id="Node000044" class="node">
<title>Node44</title>
<g id="a_Node000044"><a xlink:href="midi__time__axis_8h.html" target="_top" xlink:title=" ">
<polygon fill="white" stroke="#666666" points="1370.5,-415 1269.5,-415 1269.5,-396 1370.5,-396 1370.5,-415"/>
<text text-anchor="middle" x="1320" y="-403" font-family="Helvetica,sans-Serif" font-size="10.00">midi_time_axis.h</text>
</a>
</g>
</g>
<!-- Node37&#45;&gt;Node44 -->
<g id="edge50_Node000037_Node000044" class="edge">
<title>Node37&#45;&gt;Node44</title>
<g id="a_edge50_Node000037_Node000044"><a xlink:title=" ">
<path fill="none" stroke="#63b8ff" d="M1349.71,-506.62C1372.03,-493.86 1397.87,-473.31 1386,-451 1376.92,-433.92 1358.03,-422.21 1342.78,-415.11"/>
<polygon fill="#63b8ff" stroke="#63b8ff" points="1347.93,-503.6 1340.8,-511.43 1351.26,-509.76 1347.93,-503.6"/>
</a>
</g>
</g>
<!-- Node39 -->
<g id="Node000039" class="node">
<title>Node39</title>
<g id="a_Node000039"><a xlink:href="track__view__list_8h.html" target="_top" xlink:title=" ">
<polygon fill="white" stroke="#666666" points="1224.5,-360 1125.5,-360 1125.5,-341 1224.5,-341 1224.5,-360"/>
<text text-anchor="middle" x="1175" y="-348" font-family="Helvetica,sans-Serif" font-size="10.00">track_view_list.h</text>
</a>
</g>
</g>
<!-- Node38&#45;&gt;Node39 -->
<g id="edge40_Node000038_Node000039" class="edge">
<title>Node38&#45;&gt;Node39</title>
<g id="a_edge40_Node000038_Node000039"><a xlink:title=" ">
<path fill="none" stroke="#63b8ff" d="M1174.36,-385.66C1174.52,-376.93 1174.71,-366.99 1174.84,-360.09"/>
<polygon fill="#63b8ff" stroke="#63b8ff" points="1170.85,-385.68 1174.17,-395.75 1177.85,-385.82 1170.85,-385.68"/>
</a>
</g>
</g>
<!-- Node40 -->
<g id="Node000040" class="node">
<title>Node40</title>
<g id="a_Node000040"><a xlink:href="track__selection_8h.html" target="_top" xlink:title=" ">
<polygon fill="white" stroke="#666666" points="1225,-305 1125,-305 1125,-286 1225,-286 1225,-305"/>
<text text-anchor="middle" x="1175" y="-293" font-family="Helvetica,sans-Serif" font-size="10.00">track_selection.h</text>
</a>
</g>
</g>
<!-- Node39&#45;&gt;Node40 -->
<g id="edge41_Node000039_Node000040" class="edge">
<title>Node39&#45;&gt;Node40</title>
<g id="a_edge41_Node000039_Node000040"><a xlink:title=" ">
<path fill="none" stroke="#63b8ff" d="M1175,-330.66C1175,-321.93 1175,-311.99 1175,-305.09"/>
<polygon fill="#63b8ff" stroke="#63b8ff" points="1171.5,-330.75 1175,-340.75 1178.5,-330.75 1171.5,-330.75"/>
</a>
</g>
</g>
<!-- Node40&#45;&gt;Node20 -->
<g id="edge43_Node000040_Node000020" class="edge">
<title>Node40&#45;&gt;Node20</title>
<g id="a_edge43_Node000040_Node000020"><a xlink:title=" ">
<path fill="none" stroke="#63b8ff" d="M1153.75,-280.42C1139.24,-270.81 1120.46,-258.37 1108.09,-250.17"/>
<polygon fill="#63b8ff" stroke="#63b8ff" points="1151.88,-283.38 1162.15,-285.98 1155.74,-277.54 1151.88,-283.38"/>
</a>
</g>
</g>
<!-- Node41 -->
<g id="Node000041" class="node">
<title>Node41</title>
<g id="a_Node000041"><a xlink:href="editor__drag_8h.html" target="_top" xlink:title=" ">
<polygon fill="white" stroke="#666666" points="1229.5,-250 1148.5,-250 1148.5,-231 1229.5,-231 1229.5,-250"/>
<text text-anchor="middle" x="1189" y="-238" font-family="Helvetica,sans-Serif" font-size="10.00">editor_drag.h</text>
</a>
</g>
</g>
<!-- Node40&#45;&gt;Node41 -->
<g id="edge42_Node000040_Node000041" class="edge">
<title>Node40&#45;&gt;Node41</title>
<g id="a_edge42_Node000040_Node000041"><a xlink:title=" ">
<path fill="none" stroke="#63b8ff" d="M1179.9,-275.95C1182.22,-267.15 1184.89,-257.06 1186.73,-250.09"/>
<polygon fill="#63b8ff" stroke="#63b8ff" points="1176.48,-275.19 1177.31,-285.75 1183.25,-276.97 1176.48,-275.19"/>
</a>
</g>
</g>
<!-- Node43&#45;&gt;Node44 -->
<g id="edge46_Node000043_Node000044" class="edge">
<title>Node43&#45;&gt;Node44</title>
<g id="a_edge46_Node000043_Node000044"><a xlink:title=" ">
<path fill="none" stroke="#63b8ff" d="M1321.29,-440.66C1320.96,-431.93 1320.58,-421.99 1320.32,-415.09"/>
<polygon fill="#63b8ff" stroke="#63b8ff" points="1317.8,-440.89 1321.67,-450.75 1324.79,-440.62 1317.8,-440.89"/>
</a>
</g>
</g>
<!-- Node44&#45;&gt;Node39 -->
<g id="edge49_Node000044_Node000039" class="edge">
<title>Node44&#45;&gt;Node39</title>
<g id="a_edge49_Node000044_Node000039"><a xlink:title=" ">
<path fill="none" stroke="#63b8ff" d="M1287.31,-392.55C1260.38,-382.71 1222.84,-368.98 1198.72,-360.17"/>
<polygon fill="#63b8ff" stroke="#63b8ff" points="1286.11,-395.84 1296.7,-395.98 1288.51,-389.26 1286.11,-395.84"/>
</a>
</g>
</g>
<!-- Node45 -->
<g id="Node000045" class="node">
<title>Node45</title>
<g id="a_Node000045"><a xlink:href="midi__region__view_8h.html" target="_top" xlink:title=" ">
<polygon fill="white" stroke="#666666" points="1360.5,-305 1249.5,-305 1249.5,-286 1360.5,-286 1360.5,-305"/>
<text text-anchor="middle" x="1305" y="-293" font-family="Helvetica,sans-Serif" font-size="10.00">midi_region_view.h</text>
</a>
</g>
</g>
<!-- Node44&#45;&gt;Node45 -->
<g id="edge47_Node000044_Node000045" class="edge">
<title>Node44&#45;&gt;Node45</title>
<g id="a_edge47_Node000044_Node000045"><a xlink:title=" ">
<path fill="none" stroke="#63b8ff" d="M1317.36,-385.48C1314.08,-361.84 1308.61,-322.5 1306.2,-305.16"/>
<polygon fill="#63b8ff" stroke="#63b8ff" points="1313.93,-386.24 1318.77,-395.66 1320.86,-385.28 1313.93,-386.24"/>
</a>
</g>
</g>
<!-- Node45&#45;&gt;Node34 -->
<g id="edge48_Node000045_Node000034" class="edge">
<title>Node45&#45;&gt;Node34</title>
<g id="a_edge48_Node000045_Node000034"><a xlink:title=" ">
<path fill="none" stroke="#63b8ff" d="M1302.36,-275.48C1299.08,-251.84 1293.61,-212.5 1291.2,-195.16"/>
<polygon fill="#63b8ff" stroke="#63b8ff" points="1298.93,-276.24 1303.77,-285.66 1305.86,-275.28 1298.93,-276.24"/>
</a>
</g>
</g>
</g>
</svg>
