<?xml version="1.0" encoding="UTF-8" standalone="no"?>
<!DOCTYPE svg PUBLIC "-//W3C//DTD SVG 1.1//EN"
 "http://www.w3.org/Graphics/SVG/1.1/DTD/svg11.dtd">
<!-- Generated by graphviz version 2.43.0 (0)
 -->
<!-- Title: coremidi_io.h Pages: 1 -->
<svg width="1121pt" height="137pt"
 viewBox="0.00 0.00 1121.00 137.00" xmlns="http://www.w3.org/2000/svg" xmlns:xlink="http://www.w3.org/1999/xlink">
<g id="graph0" class="graph" transform="scale(1 1) rotate(0) translate(4 133)">
<title>coremidi_io.h</title>
<!-- Node1 -->
<g id="Node000001" class="node">
<title>Node1</title>
<g id="a_Node000001"><a xlink:title=" ">
<polygon fill="#999999" stroke="#666666" points="701.5,-129 618.5,-129 618.5,-110 701.5,-110 701.5,-129"/>
<text text-anchor="middle" x="660" y="-117" font-family="Helvetica,sans-Serif" font-size="10.00">coremidi_io.h</text>
</a>
</g>
</g>
<!-- Node2 -->
<g id="Node000002" class="node">
<title>Node2</title>
<g id="a_Node000002"><a xlink:title=" ">
<polygon fill="#e0e0e0" stroke="#999999" points="156,-74 0,-74 0,-55 156,-55 156,-74"/>
<text text-anchor="middle" x="78" y="-62" font-family="Helvetica,sans-Serif" font-size="10.00">CoreServices/CoreServices.h</text>
</a>
</g>
</g>
<!-- Node1&#45;&gt;Node2 -->
<g id="edge1_Node000001_Node000002" class="edge">
<title>Node1&#45;&gt;Node2</title>
<g id="a_edge1_Node000001_Node000002"><a xlink:title=" ">
<path fill="none" stroke="#63b8ff" d="M618.27,-114.86C534.69,-107.54 340.53,-90.42 166.37,-74.12"/>
<polygon fill="#63b8ff" stroke="#63b8ff" points="166.53,-70.62 156.25,-73.17 165.88,-77.59 166.53,-70.62"/>
</a>
</g>
</g>
<!-- Node3 -->
<g id="Node000003" class="node">
<title>Node3</title>
<g id="a_Node000003"><a xlink:title=" ">
<polygon fill="#e0e0e0" stroke="#999999" points="303.5,-74 174.5,-74 174.5,-55 303.5,-55 303.5,-74"/>
<text text-anchor="middle" x="239" y="-62" font-family="Helvetica,sans-Serif" font-size="10.00">CoreAudio/CoreAudio.h</text>
</a>
</g>
</g>
<!-- Node1&#45;&gt;Node3 -->
<g id="edge2_Node000001_Node000003" class="edge">
<title>Node1&#45;&gt;Node3</title>
<g id="a_edge2_Node000001_Node000003"><a xlink:title=" ">
<path fill="none" stroke="#63b8ff" d="M618.48,-113.27C547.67,-104.36 402.61,-86.1 313.77,-74.91"/>
<polygon fill="#63b8ff" stroke="#63b8ff" points="314.12,-71.43 303.76,-73.65 313.24,-78.37 314.12,-71.43"/>
</a>
</g>
</g>
<!-- Node4 -->
<g id="Node000004" class="node">
<title>Node4</title>
<g id="a_Node000004"><a xlink:title=" ">
<polygon fill="#e0e0e0" stroke="#999999" points="446.5,-74 321.5,-74 321.5,-55 446.5,-55 446.5,-74"/>
<text text-anchor="middle" x="384" y="-62" font-family="Helvetica,sans-Serif" font-size="10.00">AudioUnit/AudioUnit.h</text>
</a>
</g>
</g>
<!-- Node1&#45;&gt;Node4 -->
<g id="edge3_Node000001_Node000004" class="edge">
<title>Node1&#45;&gt;Node4</title>
<g id="a_edge3_Node000001_Node000004"><a xlink:title=" ">
<path fill="none" stroke="#63b8ff" d="M618.38,-110.51C570.42,-101.3 491.44,-86.13 438.59,-75.98"/>
<polygon fill="#63b8ff" stroke="#63b8ff" points="439.19,-72.53 428.71,-74.09 437.87,-79.41 439.19,-72.53"/>
</a>
</g>
</g>
<!-- Node5 -->
<g id="Node000005" class="node">
<title>Node5</title>
<g id="a_Node000005"><a xlink:title=" ">
<polygon fill="#e0e0e0" stroke="#999999" points="623.5,-74 464.5,-74 464.5,-55 623.5,-55 623.5,-74"/>
<text text-anchor="middle" x="544" y="-62" font-family="Helvetica,sans-Serif" font-size="10.00">AudioToolbox/AudioToolbox.h</text>
</a>
</g>
</g>
<!-- Node1&#45;&gt;Node5 -->
<g id="edge4_Node000001_Node000005" class="edge">
<title>Node1&#45;&gt;Node5</title>
<g id="a_edge4_Node000001_Node000005"><a xlink:title=" ">
<path fill="none" stroke="#63b8ff" d="M641.36,-109.98C622.7,-101.46 593.75,-88.23 572.26,-78.41"/>
<polygon fill="#63b8ff" stroke="#63b8ff" points="573.53,-75.14 562.98,-74.17 570.62,-81.51 573.53,-75.14"/>
</a>
</g>
</g>
<!-- Node6 -->
<g id="Node000006" class="node">
<title>Node6</title>
<g id="a_Node000006"><a xlink:title=" ">
<polygon fill="#e0e0e0" stroke="#999999" points="679,-74 641,-74 641,-55 679,-55 679,-74"/>
<text text-anchor="middle" x="660" y="-62" font-family="Helvetica,sans-Serif" font-size="10.00">map</text>
</a>
</g>
</g>
<!-- Node1&#45;&gt;Node6 -->
<g id="edge5_Node000001_Node000006" class="edge">
<title>Node1&#45;&gt;Node6</title>
<g id="a_edge5_Node000001_Node000006"><a xlink:title=" ">
<path fill="none" stroke="#63b8ff" d="M660,-109.75C660,-102.8 660,-92.85 660,-84.13"/>
<polygon fill="#63b8ff" stroke="#63b8ff" points="663.5,-84.09 660,-74.09 656.5,-84.09 663.5,-84.09"/>
</a>
</g>
</g>
<!-- Node7 -->
<g id="Node000007" class="node">
<title>Node7</title>
<g id="a_Node000007"><a xlink:title=" ">
<polygon fill="#e0e0e0" stroke="#999999" points="755,-74 697,-74 697,-55 755,-55 755,-74"/>
<text text-anchor="middle" x="726" y="-62" font-family="Helvetica,sans-Serif" font-size="10.00">memory</text>
</a>
</g>
</g>
<!-- Node1&#45;&gt;Node7 -->
<g id="edge6_Node000001_Node000007" class="edge">
<title>Node1&#45;&gt;Node7</title>
<g id="a_edge6_Node000001_Node000007"><a xlink:title=" ">
<path fill="none" stroke="#63b8ff" d="M670.6,-109.98C680.46,-102.07 695.35,-90.11 707.22,-80.58"/>
<polygon fill="#63b8ff" stroke="#63b8ff" points="709.6,-83.16 715.2,-74.17 705.21,-77.7 709.6,-83.16"/>
</a>
</g>
</g>
<!-- Node8 -->
<g id="Node000008" class="node">
<title>Node8</title>
<g id="a_Node000008"><a xlink:title=" ">
<polygon fill="#e0e0e0" stroke="#999999" points="820.5,-74 773.5,-74 773.5,-55 820.5,-55 820.5,-74"/>
<text text-anchor="middle" x="797" y="-62" font-family="Helvetica,sans-Serif" font-size="10.00">vector</text>
</a>
</g>
</g>
<!-- Node1&#45;&gt;Node8 -->
<g id="edge7_Node000001_Node000008" class="edge">
<title>Node1&#45;&gt;Node8</title>
<g id="a_edge7_Node000001_Node000008"><a xlink:title=" ">
<path fill="none" stroke="#63b8ff" d="M682.01,-109.98C704.45,-101.3 739.48,-87.75 764.99,-77.88"/>
<polygon fill="#63b8ff" stroke="#63b8ff" points="766.52,-81.04 774.59,-74.17 764,-74.51 766.52,-81.04"/>
</a>
</g>
</g>
<!-- Node9 -->
<g id="Node000009" class="node">
<title>Node9</title>
<g id="a_Node000009"><a xlink:title=" ">
<polygon fill="#e0e0e0" stroke="#999999" points="883,-74 839,-74 839,-55 883,-55 883,-74"/>
<text text-anchor="middle" x="861" y="-62" font-family="Helvetica,sans-Serif" font-size="10.00">string</text>
</a>
</g>
</g>
<!-- Node1&#45;&gt;Node9 -->
<g id="edge8_Node000001_Node000009" class="edge">
<title>Node1&#45;&gt;Node9</title>
<g id="a_edge8_Node000001_Node000009"><a xlink:title=" ">
<path fill="none" stroke="#63b8ff" d="M692.4,-109.99C726.43,-101.05 781.48,-86.57 829,-74 829.1,-73.97 829.2,-73.95 829.3,-73.92"/>
<polygon fill="#63b8ff" stroke="#63b8ff" points="830.2,-77.3 838.97,-71.36 828.4,-70.54 830.2,-77.3"/>
</a>
</g>
</g>
<!-- Node10 -->
<g id="Node000010" class="node">
<title>Node10</title>
<g id="a_Node000010"><a xlink:href="ringbuffer_8h.html" target="_top" xlink:title=" ">
<polygon fill="white" stroke="#666666" points="994.5,-74 901.5,-74 901.5,-55 994.5,-55 994.5,-74"/>
<text text-anchor="middle" x="948" y="-62" font-family="Helvetica,sans-Serif" font-size="10.00">pbd/ringbuffer.h</text>
</a>
</g>
</g>
<!-- Node1&#45;&gt;Node10 -->
<g id="edge9_Node000001_Node000010" class="edge">
<title>Node1&#45;&gt;Node10</title>
<g id="a_edge9_Node000001_Node000010"><a xlink:title=" ">
<path fill="none" stroke="#63b8ff" d="M701.57,-110.85C751.58,-101.65 835.75,-86.16 891.59,-75.88"/>
<polygon fill="#63b8ff" stroke="#63b8ff" points="892.47,-79.28 901.67,-74.03 891.2,-72.39 892.47,-79.28"/>
</a>
</g>
</g>
<!-- Node11 -->
<g id="Node000011" class="node">
<title>Node11</title>
<g id="a_Node000011"><a xlink:title=" ">
<polygon fill="#e0e0e0" stroke="#999999" points="905,-19 855,-19 855,0 905,0 905,-19"/>
<text text-anchor="middle" x="880" y="-7" font-family="Helvetica,sans-Serif" font-size="10.00">atomic</text>
</a>
</g>
</g>
<!-- Node10&#45;&gt;Node11 -->
<g id="edge10_Node000010_Node000011" class="edge">
<title>Node10&#45;&gt;Node11</title>
<g id="a_edge10_Node000010_Node000011"><a xlink:title=" ">
<path fill="none" stroke="#63b8ff" d="M937.07,-54.98C926.92,-47.07 911.58,-35.11 899.35,-25.58"/>
<polygon fill="#63b8ff" stroke="#63b8ff" points="901.16,-22.56 891.12,-19.17 896.86,-28.08 901.16,-22.56"/>
</a>
</g>
</g>
<!-- Node12 -->
<g id="Node000012" class="node">
<title>Node12</title>
<g id="a_Node000012"><a xlink:title=" ">
<polygon fill="#e0e0e0" stroke="#999999" points="973,-19 923,-19 923,0 973,0 973,-19"/>
<text text-anchor="middle" x="948" y="-7" font-family="Helvetica,sans-Serif" font-size="10.00">cstring</text>
</a>
</g>
</g>
<!-- Node10&#45;&gt;Node12 -->
<g id="edge11_Node000010_Node000012" class="edge">
<title>Node10&#45;&gt;Node12</title>
<g id="a_edge11_Node000010_Node000012"><a xlink:title=" ">
<path fill="none" stroke="#63b8ff" d="M948,-54.75C948,-47.8 948,-37.85 948,-29.13"/>
<polygon fill="#63b8ff" stroke="#63b8ff" points="951.5,-29.09 948,-19.09 944.5,-29.09 951.5,-29.09"/>
</a>
</g>
</g>
<!-- Node13 -->
<g id="Node000013" class="node">
<title>Node13</title>
<g id="a_Node000013"><a xlink:href="libpbd__visibility_8h.html" target="_top" xlink:title=" ">
<polygon fill="white" stroke="#666666" points="1113,-19 991,-19 991,0 1113,0 1113,-19"/>
<text text-anchor="middle" x="1052" y="-7" font-family="Helvetica,sans-Serif" font-size="10.00">pbd/libpbd_visibility.h</text>
</a>
</g>
</g>
<!-- Node10&#45;&gt;Node13 -->
<g id="edge12_Node000010_Node000013" class="edge">
<title>Node10&#45;&gt;Node13</title>
<g id="a_edge12_Node000010_Node000013"><a xlink:title=" ">
<path fill="none" stroke="#63b8ff" d="M964.71,-54.98C981.21,-46.57 1006.7,-33.59 1025.88,-23.81"/>
<polygon fill="#63b8ff" stroke="#63b8ff" points="1027.67,-26.83 1034.99,-19.17 1024.49,-20.59 1027.67,-26.83"/>
</a>
</g>
</g>
</g>
</svg>
