<?xml version="1.0" encoding="UTF-8" standalone="no"?>
<!DOCTYPE svg PUBLIC "-//W3C//DTD SVG 1.1//EN"
 "http://www.w3.org/Graphics/SVG/1.1/DTD/svg11.dtd">
<!-- Generated by graphviz version 2.43.0 (0)
 -->
<!-- Title: visibility.h Pages: 1 -->
<svg width="2247pt" height="313pt"
 viewBox="0.00 0.00 2246.50 313.00" xmlns="http://www.w3.org/2000/svg" xmlns:xlink="http://www.w3.org/1999/xlink">
<g id="graph0" class="graph" transform="scale(1 1) rotate(0) translate(4 309)">
<title>visibility.h</title>
<!-- Node1 -->
<g id="Node000001" class="node">
<title>Node1</title>
<g id="a_Node000001"><a xlink:title=" ">
<polygon fill="#999999" stroke="#666666" points="1370,-305 1304,-305 1304,-286 1370,-286 1370,-305"/>
<text text-anchor="middle" x="1337" y="-293" font-family="Helvetica,sans-Serif" font-size="10.00">visibility.h</text>
</a>
</g>
</g>
<!-- Node2 -->
<g id="Node000002" class="node">
<title>Node2</title>
<g id="a_Node000002"><a xlink:href="basic__ui_8h.html" target="_top" xlink:title=" ">
<polygon fill="white" stroke="#666666" points="1339.5,-250 1274.5,-250 1274.5,-231 1339.5,-231 1339.5,-250"/>
<text text-anchor="middle" x="1307" y="-238" font-family="Helvetica,sans-Serif" font-size="10.00">basic_ui.h</text>
</a>
</g>
</g>
<!-- Node1&#45;&gt;Node2 -->
<g id="edge1_Node000001_Node000002" class="edge">
<title>Node1&#45;&gt;Node2</title>
<g id="a_edge1_Node000001_Node000002"><a xlink:title=" ">
<path fill="none" stroke="#63b8ff" d="M1326.99,-276.82C1321.9,-267.82 1315.94,-257.29 1311.86,-250.09"/>
<polygon fill="#63b8ff" stroke="#63b8ff" points="1324.07,-278.77 1332.05,-285.75 1330.17,-275.32 1324.07,-278.77"/>
</a>
</g>
</g>
<!-- Node10 -->
<g id="Node000010" class="node">
<title>Node10</title>
<g id="a_Node000010"><a xlink:href="control__protocol_8h.html" target="_top" xlink:title=" ">
<polygon fill="white" stroke="#666666" points="1420,-195 1316,-195 1316,-176 1420,-176 1420,-195"/>
<text text-anchor="middle" x="1368" y="-183" font-family="Helvetica,sans-Serif" font-size="10.00">control_protocol.h</text>
</a>
</g>
</g>
<!-- Node1&#45;&gt;Node10 -->
<g id="edge65_Node000001_Node000010" class="edge">
<title>Node1&#45;&gt;Node10</title>
<g id="a_edge65_Node000001_Node000010"><a xlink:title=" ">
<path fill="none" stroke="#63b8ff" d="M1342.37,-275.8C1349.14,-252.2 1360.51,-212.58 1365.51,-195.16"/>
<polygon fill="#63b8ff" stroke="#63b8ff" points="1338.93,-275.08 1339.54,-285.66 1345.66,-277.02 1338.93,-275.08"/>
</a>
</g>
</g>
<!-- Node3 -->
<g id="Node000003" class="node">
<title>Node3</title>
<g id="a_Node000003"><a xlink:href="component_8h.html" target="_top" xlink:title=" ">
<polygon fill="white" stroke="#666666" points="278,-195 198,-195 198,-176 278,-176 278,-195"/>
<text text-anchor="middle" x="238" y="-183" font-family="Helvetica,sans-Serif" font-size="10.00">component.h</text>
</a>
</g>
</g>
<!-- Node2&#45;&gt;Node3 -->
<g id="edge2_Node000002_Node000003" class="edge">
<title>Node2&#45;&gt;Node3</title>
<g id="a_edge2_Node000002_Node000003"><a xlink:title=" ">
<path fill="none" stroke="#63b8ff" d="M1264.19,-237.38C1091.3,-228.81 445.74,-196.8 278.02,-188.48"/>
<polygon fill="#63b8ff" stroke="#63b8ff" points="1264.26,-240.89 1274.42,-237.88 1264.61,-233.89 1264.26,-240.89"/>
</a>
</g>
</g>
<!-- Node2&#45;&gt;Node10 -->
<g id="edge15_Node000002_Node000010" class="edge">
<title>Node2&#45;&gt;Node10</title>
<g id="a_edge15_Node000002_Node000010"><a xlink:title=" ">
<path fill="none" stroke="#63b8ff" d="M1324.47,-224.32C1335.34,-214.87 1348.94,-203.06 1358.02,-195.17"/>
<polygon fill="#63b8ff" stroke="#63b8ff" points="1322.05,-221.78 1316.8,-230.98 1326.65,-227.07 1322.05,-221.78"/>
</a>
</g>
</g>
<!-- Node4 -->
<g id="Node000004" class="node">
<title>Node4</title>
<g id="a_Node000004"><a xlink:href="ardour__websockets_8h.html" target="_top" xlink:title=" ">
<polygon fill="white" stroke="#666666" points="294.5,-19 175.5,-19 175.5,0 294.5,0 294.5,-19"/>
<text text-anchor="middle" x="235" y="-7" font-family="Helvetica,sans-Serif" font-size="10.00">ardour_websockets.h</text>
</a>
</g>
</g>
<!-- Node3&#45;&gt;Node4 -->
<g id="edge3_Node000003_Node000004" class="edge">
<title>Node3&#45;&gt;Node4</title>
<g id="a_edge3_Node000003_Node000004"><a xlink:title=" ">
<path fill="none" stroke="#63b8ff" d="M215.83,-169.88C206.29,-162.24 196.15,-151.97 191,-140 171.95,-95.72 210.78,-40.24 227.67,-19.16"/>
<polygon fill="#63b8ff" stroke="#63b8ff" points="213.81,-172.74 223.93,-175.89 217.99,-167.12 213.81,-172.74"/>
</a>
</g>
</g>
<!-- Node5 -->
<g id="Node000005" class="node">
<title>Node5</title>
<g id="a_Node000005"><a xlink:href="dispatcher_8h.html" target="_top" xlink:title=" ">
<polygon fill="white" stroke="#666666" points="276,-134.5 200,-134.5 200,-115.5 276,-115.5 276,-134.5"/>
<text text-anchor="middle" x="238" y="-122.5" font-family="Helvetica,sans-Serif" font-size="10.00">dispatcher.h</text>
</a>
</g>
</g>
<!-- Node3&#45;&gt;Node5 -->
<g id="edge4_Node000003_Node000005" class="edge">
<title>Node3&#45;&gt;Node5</title>
<g id="a_edge4_Node000003_Node000005"><a xlink:title=" ">
<path fill="none" stroke="#63b8ff" d="M238,-165.66C238,-155.24 238,-142.8 238,-134.67"/>
<polygon fill="#63b8ff" stroke="#63b8ff" points="234.5,-165.87 238,-175.87 241.5,-165.87 234.5,-165.87"/>
</a>
</g>
</g>
<!-- Node6 -->
<g id="Node000006" class="node">
<title>Node6</title>
<g id="a_Node000006"><a xlink:href="feedback_8h.html" target="_top" xlink:title=" ">
<polygon fill="white" stroke="#666666" points="334.5,-74 263.5,-74 263.5,-55 334.5,-55 334.5,-74"/>
<text text-anchor="middle" x="299" y="-62" font-family="Helvetica,sans-Serif" font-size="10.00">feedback.h</text>
</a>
</g>
</g>
<!-- Node3&#45;&gt;Node6 -->
<g id="edge6_Node000003_Node000006" class="edge">
<title>Node3&#45;&gt;Node6</title>
<g id="a_edge6_Node000003_Node000006"><a xlink:title=" ">
<path fill="none" stroke="#63b8ff" d="M258.82,-169.71C268.25,-161.93 278.68,-151.6 285,-140 296.72,-118.51 298.8,-88.92 299.06,-74.34"/>
<polygon fill="#63b8ff" stroke="#63b8ff" points="256.66,-166.95 250.92,-175.86 260.96,-172.48 256.66,-166.95"/>
</a>
</g>
</g>
<!-- Node7 -->
<g id="Node000007" class="node">
<title>Node7</title>
<g id="a_Node000007"><a xlink:href="mixer_8h.html" target="_top" xlink:title=" ">
<polygon fill="white" stroke="#666666" points="385.5,-134.5 332.5,-134.5 332.5,-115.5 385.5,-115.5 385.5,-134.5"/>
<text text-anchor="middle" x="359" y="-122.5" font-family="Helvetica,sans-Serif" font-size="10.00">mixer.h</text>
</a>
</g>
</g>
<!-- Node3&#45;&gt;Node7 -->
<g id="edge8_Node000003_Node000007" class="edge">
<title>Node3&#45;&gt;Node7</title>
<g id="a_edge8_Node000003_Node000007"><a xlink:title=" ">
<path fill="none" stroke="#63b8ff" d="M264.61,-171.63C287.95,-160.35 321.21,-144.27 341.38,-134.52"/>
<polygon fill="#63b8ff" stroke="#63b8ff" points="263.07,-168.49 255.59,-175.99 266.12,-174.79 263.07,-168.49"/>
</a>
</g>
</g>
<!-- Node8 -->
<g id="Node000008" class="node">
<title>Node8</title>
<g id="a_Node000008"><a xlink:href="server_8h.html" target="_top" xlink:title=" ">
<polygon fill="white" stroke="#666666" points="56,-134.5 0,-134.5 0,-115.5 56,-115.5 56,-134.5"/>
<text text-anchor="middle" x="28" y="-122.5" font-family="Helvetica,sans-Serif" font-size="10.00">server.h</text>
</a>
</g>
</g>
<!-- Node3&#45;&gt;Node8 -->
<g id="edge11_Node000003_Node000008" class="edge">
<title>Node3&#45;&gt;Node8</title>
<g id="a_edge11_Node000003_Node000008"><a xlink:title=" ">
<path fill="none" stroke="#63b8ff" d="M189.92,-173.63C154.98,-165.38 106.71,-153.21 65,-140 59.89,-138.38 54.46,-136.45 49.38,-134.55"/>
<polygon fill="#63b8ff" stroke="#63b8ff" points="189.33,-177.09 199.86,-175.96 190.92,-170.27 189.33,-177.09"/>
</a>
</g>
</g>
<!-- Node9 -->
<g id="Node000009" class="node">
<title>Node9</title>
<g id="a_Node000009"><a xlink:href="transport_8h.html" target="_top" xlink:title=" ">
<polygon fill="white" stroke="#666666" points="144,-134.5 74,-134.5 74,-115.5 144,-115.5 144,-134.5"/>
<text text-anchor="middle" x="109" y="-122.5" font-family="Helvetica,sans-Serif" font-size="10.00">transport.h</text>
</a>
</g>
</g>
<!-- Node3&#45;&gt;Node9 -->
<g id="edge13_Node000003_Node000009" class="edge">
<title>Node3&#45;&gt;Node9</title>
<g id="a_edge13_Node000003_Node000009"><a xlink:title=" ">
<path fill="none" stroke="#63b8ff" d="M209.96,-171.78C185.06,-160.49 149.38,-144.31 127.78,-134.52"/>
<polygon fill="#63b8ff" stroke="#63b8ff" points="208.69,-175.05 219.24,-175.99 211.58,-168.68 208.69,-175.05"/>
</a>
</g>
</g>
<!-- Node5&#45;&gt;Node4 -->
<g id="edge5_Node000005_Node000004" class="edge">
<title>Node5&#45;&gt;Node4</title>
<g id="a_edge5_Node000005_Node000004"><a xlink:title=" ">
<path fill="none" stroke="#63b8ff" d="M237.5,-105.15C236.84,-80.24 235.71,-37.38 235.23,-19.13"/>
<polygon fill="#63b8ff" stroke="#63b8ff" points="234.01,-105.57 237.77,-115.47 241.01,-105.38 234.01,-105.57"/>
</a>
</g>
</g>
<!-- Node6&#45;&gt;Node4 -->
<g id="edge7_Node000006_Node000004" class="edge">
<title>Node6&#45;&gt;Node4</title>
<g id="a_edge7_Node000006_Node000004"><a xlink:title=" ">
<path fill="none" stroke="#63b8ff" d="M281.01,-48.6C269.54,-39.11 255.09,-27.13 245.47,-19.17"/>
<polygon fill="#63b8ff" stroke="#63b8ff" points="278.78,-51.3 288.72,-54.98 283.25,-45.91 278.78,-51.3"/>
</a>
</g>
</g>
<!-- Node7&#45;&gt;Node4 -->
<g id="edge9_Node000007_Node000004" class="edge">
<title>Node7&#45;&gt;Node4</title>
<g id="a_edge9_Node000007_Node000004"><a xlink:title=" ">
<path fill="none" stroke="#63b8ff" d="M359.15,-105C358.3,-89.83 354.8,-68.89 343,-55 327.18,-36.37 302.33,-25.42 280.45,-19.05"/>
<polygon fill="#63b8ff" stroke="#63b8ff" points="355.66,-105.34 359.39,-115.26 362.66,-105.18 355.66,-105.34"/>
</a>
</g>
</g>
<!-- Node7&#45;&gt;Node6 -->
<g id="edge10_Node000007_Node000006" class="edge">
<title>Node7&#45;&gt;Node6</title>
<g id="a_edge10_Node000007_Node000006"><a xlink:title=" ">
<path fill="none" stroke="#63b8ff" d="M342.68,-108.09C331.48,-97.17 317.03,-83.08 307.89,-74.17"/>
<polygon fill="#63b8ff" stroke="#63b8ff" points="340.54,-110.89 350.15,-115.37 345.43,-105.88 340.54,-110.89"/>
</a>
</g>
</g>
<!-- Node8&#45;&gt;Node4 -->
<g id="edge12_Node000008_Node000004" class="edge">
<title>Node8&#45;&gt;Node4</title>
<g id="a_edge12_Node000008_Node000004"><a xlink:title=" ">
<path fill="none" stroke="#63b8ff" d="M48.78,-109.63C70.34,-95.01 105.27,-72.14 137,-55 162.81,-41.06 193.82,-27.48 213.95,-19.06"/>
<polygon fill="#63b8ff" stroke="#63b8ff" points="46.7,-106.81 40.41,-115.34 50.64,-112.59 46.7,-106.81"/>
</a>
</g>
</g>
<!-- Node9&#45;&gt;Node4 -->
<g id="edge14_Node000009_Node000004" class="edge">
<title>Node9&#45;&gt;Node4</title>
<g id="a_edge14_Node000009_Node000004"><a xlink:title=" ">
<path fill="none" stroke="#63b8ff" d="M118.41,-106.71C127.2,-91.71 141.43,-70.09 158,-55 175.12,-39.41 198.62,-26.81 215.14,-19.05"/>
<polygon fill="#63b8ff" stroke="#63b8ff" points="115.33,-105.04 113.46,-115.47 121.43,-108.49 115.33,-105.04"/>
</a>
</g>
</g>
<!-- Node10&#45;&gt;Node4 -->
<g id="edge16_Node000010_Node000004" class="edge">
<title>Node10&#45;&gt;Node4</title>
<g id="a_edge16_Node000010_Node000004"><a xlink:title=" ">
<path fill="none" stroke="#63b8ff" d="M1305.73,-182.29C1196.88,-177.88 965.09,-166.09 771,-140 619.31,-119.61 581.24,-112.1 433,-74 369.02,-57.55 295.33,-32.17 258.51,-19.03"/>
<polygon fill="#63b8ff" stroke="#63b8ff" points="1305.75,-185.79 1315.88,-182.69 1306.03,-178.8 1305.75,-185.79"/>
</a>
</g>
</g>
<!-- Node11 -->
<g id="Node000011" class="node">
<title>Node11</title>
<g id="a_Node000011"><a xlink:href="cc121_8h.html" target="_top" xlink:title=" ">
<polygon fill="white" stroke="#666666" points="1599,-134.5 1545,-134.5 1545,-115.5 1599,-115.5 1599,-134.5"/>
<text text-anchor="middle" x="1572" y="-122.5" font-family="Helvetica,sans-Serif" font-size="10.00">cc121.h</text>
</a>
</g>
</g>
<!-- Node10&#45;&gt;Node11 -->
<g id="edge17_Node000010_Node000011" class="edge">
<title>Node10&#45;&gt;Node11</title>
<g id="a_edge17_Node000010_Node000011"><a xlink:title=" ">
<path fill="none" stroke="#63b8ff" d="M1411.36,-173.45C1444.32,-164.86 1490.72,-152.36 1531,-140 1536.46,-138.32 1542.3,-136.41 1547.8,-134.54"/>
<polygon fill="#63b8ff" stroke="#63b8ff" points="1410.38,-170.09 1401.58,-175.99 1412.14,-176.87 1410.38,-170.09"/>
</a>
</g>
</g>
<!-- Node13 -->
<g id="Node000013" class="node">
<title>Node13</title>
<g id="a_Node000013"><a xlink:href="console1_8h.html" target="_top" xlink:title=" ">
<polygon fill="white" stroke="#666666" points="1415.5,-74 1346.5,-74 1346.5,-55 1415.5,-55 1415.5,-74"/>
<text text-anchor="middle" x="1381" y="-62" font-family="Helvetica,sans-Serif" font-size="10.00">console1.h</text>
</a>
</g>
</g>
<!-- Node10&#45;&gt;Node13 -->
<g id="edge19_Node000010_Node000013" class="edge">
<title>Node10&#45;&gt;Node13</title>
<g id="a_edge19_Node000010_Node000013"><a xlink:title=" ">
<path fill="none" stroke="#63b8ff" d="M1393.25,-170.24C1403.91,-162.75 1415.17,-152.51 1421,-140 1426.63,-127.92 1425.77,-122.45 1421,-110 1415.35,-95.26 1402.31,-82.33 1392.64,-74.27"/>
<polygon fill="#63b8ff" stroke="#63b8ff" points="1391.06,-167.49 1384.58,-175.87 1394.88,-173.36 1391.06,-167.49"/>
</a>
</g>
</g>
<!-- Node16 -->
<g id="Node000016" class="node">
<title>Node16</title>
<g id="a_Node000016"><a xlink:href="contourdesign_8h.html" target="_top" xlink:title=" ">
<polygon fill="white" stroke="#666666" points="1936.5,-134.5 1841.5,-134.5 1841.5,-115.5 1936.5,-115.5 1936.5,-134.5"/>
<text text-anchor="middle" x="1889" y="-122.5" font-family="Helvetica,sans-Serif" font-size="10.00">contourdesign.h</text>
</a>
</g>
</g>
<!-- Node10&#45;&gt;Node16 -->
<g id="edge22_Node000010_Node000016" class="edge">
<title>Node10&#45;&gt;Node16</title>
<g id="a_edge22_Node000010_Node000016"><a xlink:title=" ">
<path fill="none" stroke="#63b8ff" d="M1430.41,-181.4C1519.85,-176.3 1689.45,-164.21 1832,-140 1840.44,-138.57 1849.48,-136.57 1857.81,-134.53"/>
<polygon fill="#63b8ff" stroke="#63b8ff" points="1429.96,-177.92 1420.17,-181.97 1430.35,-184.91 1429.96,-177.92"/>
</a>
</g>
</g>
<!-- Node19 -->
<g id="Node000019" class="node">
<title>Node19</title>
<g id="a_Node000019"><a xlink:href="faderport_8h.html" target="_top" xlink:title=" ">
<polygon fill="white" stroke="#666666" points="1504.5,-74 1433.5,-74 1433.5,-55 1504.5,-55 1504.5,-74"/>
<text text-anchor="middle" x="1469" y="-62" font-family="Helvetica,sans-Serif" font-size="10.00">faderport.h</text>
</a>
</g>
</g>
<!-- Node10&#45;&gt;Node19 -->
<g id="edge26_Node000010_Node000019" class="edge">
<title>Node10&#45;&gt;Node19</title>
<g id="a_edge26_Node000010_Node000019"><a xlink:title=" ">
<path fill="none" stroke="#63b8ff" d="M1396.57,-171.12C1410.25,-163.56 1426.01,-153 1437,-140 1454.09,-119.79 1463.33,-89.09 1467.04,-74.2"/>
<polygon fill="#63b8ff" stroke="#63b8ff" points="1394.75,-168.13 1387.52,-175.87 1398,-174.32 1394.75,-168.13"/>
</a>
</g>
</g>
<!-- Node21 -->
<g id="Node000021" class="node">
<title>Node21</title>
<g id="a_Node000021"><a xlink:href="faderport8_8h.html" target="_top" xlink:title=" ">
<polygon fill="white" stroke="#666666" points="1694.5,-134.5 1617.5,-134.5 1617.5,-115.5 1694.5,-115.5 1694.5,-134.5"/>
<text text-anchor="middle" x="1656" y="-122.5" font-family="Helvetica,sans-Serif" font-size="10.00">faderport8.h</text>
</a>
</g>
</g>
<!-- Node10&#45;&gt;Node21 -->
<g id="edge28_Node000010_Node000021" class="edge">
<title>Node10&#45;&gt;Node21</title>
<g id="a_edge28_Node000010_Node000021"><a xlink:title=" ">
<path fill="none" stroke="#63b8ff" d="M1430.34,-174.71C1479,-166.64 1548.15,-154.24 1608,-140 1614.67,-138.41 1621.8,-136.47 1628.46,-134.55"/>
<polygon fill="#63b8ff" stroke="#63b8ff" points="1429.58,-171.28 1420.28,-176.36 1430.72,-178.19 1429.58,-171.28"/>
</a>
</g>
</g>
<!-- Node23 -->
<g id="Node000023" class="node">
<title>Node23</title>
<g id="a_Node000023"><a xlink:href="generic__midi__control__protocol_8h.html" target="_top" xlink:title=" ">
<polygon fill="white" stroke="#666666" points="2238.5,-140 2119.5,-140 2119.5,-110 2238.5,-110 2238.5,-140"/>
<text text-anchor="start" x="2127.5" y="-128" font-family="Helvetica,sans-Serif" font-size="10.00">generic_midi_control</text>
<text text-anchor="middle" x="2179" y="-117" font-family="Helvetica,sans-Serif" font-size="10.00">_protocol.h</text>
</a>
</g>
</g>
<!-- Node10&#45;&gt;Node23 -->
<g id="edge30_Node000010_Node000023" class="edge">
<title>Node10&#45;&gt;Node23</title>
<g id="a_edge30_Node000010_Node000023"><a xlink:title=" ">
<path fill="none" stroke="#63b8ff" d="M1430.43,-183.71C1558.41,-181.43 1859.58,-172.75 2110,-140 2113.03,-139.6 2116.13,-139.15 2119.25,-138.66"/>
<polygon fill="#63b8ff" stroke="#63b8ff" points="1430.35,-180.21 1420.42,-183.88 1430.47,-187.21 1430.35,-180.21"/>
</a>
</g>
</g>
<!-- Node24 -->
<g id="Node000024" class="node">
<title>Node24</title>
<g id="a_Node000024"><a xlink:href="launch__control__xl_8h.html" target="_top" xlink:title=" ">
<polygon fill="white" stroke="#666666" points="1823.5,-134.5 1712.5,-134.5 1712.5,-115.5 1823.5,-115.5 1823.5,-134.5"/>
<text text-anchor="middle" x="1768" y="-122.5" font-family="Helvetica,sans-Serif" font-size="10.00">launch_control_xl.h</text>
</a>
</g>
</g>
<!-- Node10&#45;&gt;Node24 -->
<g id="edge31_Node000010_Node000024" class="edge">
<title>Node10&#45;&gt;Node24</title>
<g id="a_edge31_Node000010_Node000024"><a xlink:title=" ">
<path fill="none" stroke="#63b8ff" d="M1430.17,-177.75C1497.6,-170.08 1608.29,-156.46 1703,-140 1712.1,-138.42 1721.86,-136.46 1730.98,-134.51"/>
<polygon fill="#63b8ff" stroke="#63b8ff" points="1429.68,-174.28 1420.13,-178.89 1430.46,-181.24 1429.68,-174.28"/>
</a>
</g>
</g>
<!-- Node26 -->
<g id="Node000026" class="node">
<title>Node26</title>
<g id="a_Node000026"><a xlink:href="launchkey__4_8h.html" target="_top" xlink:title=" ">
<polygon fill="white" stroke="#666666" points="1609,-74 1523,-74 1523,-55 1609,-55 1609,-74"/>
<text text-anchor="middle" x="1566" y="-62" font-family="Helvetica,sans-Serif" font-size="10.00">launchkey_4.h</text>
</a>
</g>
</g>
<!-- Node10&#45;&gt;Node26 -->
<g id="edge33_Node000010_Node000026" class="edge">
<title>Node10&#45;&gt;Node26</title>
<g id="a_edge33_Node000010_Node000026"><a xlink:title=" ">
<path fill="none" stroke="#63b8ff" d="M1397.54,-171.69C1415.9,-163.37 1439.78,-151.89 1460,-140 1496.26,-118.68 1536.11,-88.75 1554.95,-74.17"/>
<polygon fill="#63b8ff" stroke="#63b8ff" points="1395.93,-168.58 1388.23,-175.86 1398.78,-174.97 1395.93,-168.58"/>
</a>
</g>
</g>
<!-- Node28 -->
<g id="Node000028" class="node">
<title>Node28</title>
<g id="a_Node000028"><a xlink:href="lppro_8h.html" target="_top" xlink:title=" ">
<polygon fill="white" stroke="#666666" points="1192,-74 1142,-74 1142,-55 1192,-55 1192,-74"/>
<text text-anchor="middle" x="1167" y="-62" font-family="Helvetica,sans-Serif" font-size="10.00">lppro.h</text>
</a>
</g>
</g>
<!-- Node10&#45;&gt;Node28 -->
<g id="edge35_Node000010_Node000028" class="edge">
<title>Node10&#45;&gt;Node28</title>
<g id="a_edge35_Node000010_Node000028"><a xlink:title=" ">
<path fill="none" stroke="#63b8ff" d="M1305.66,-180.1C1249.46,-174.68 1172.85,-163.18 1154,-140 1138.42,-120.85 1152.74,-89.65 1161.44,-74.42"/>
<polygon fill="#63b8ff" stroke="#63b8ff" points="1305.61,-183.61 1315.89,-181.04 1306.26,-176.64 1305.61,-183.61"/>
</a>
</g>
</g>
<!-- Node30 -->
<g id="Node000030" class="node">
<title>Node30</title>
<g id="a_Node000030"><a xlink:href="lpx_8h.html" target="_top" xlink:title=" ">
<polygon fill="white" stroke="#666666" points="1251.5,-74 1210.5,-74 1210.5,-55 1251.5,-55 1251.5,-74"/>
<text text-anchor="middle" x="1231" y="-62" font-family="Helvetica,sans-Serif" font-size="10.00">lpx.h</text>
</a>
</g>
</g>
<!-- Node10&#45;&gt;Node30 -->
<g id="edge37_Node000010_Node000030" class="edge">
<title>Node10&#45;&gt;Node30</title>
<g id="a_edge37_Node000010_Node000030"><a xlink:title=" ">
<path fill="none" stroke="#63b8ff" d="M1343.28,-170.69C1329.63,-162.55 1312.71,-151.59 1299,-140 1274.13,-118.97 1249.5,-89.17 1237.89,-74.45"/>
<polygon fill="#63b8ff" stroke="#63b8ff" points="1341.73,-173.83 1352.13,-175.85 1345.26,-167.79 1341.73,-173.83"/>
</a>
</g>
</g>
<!-- Node32 -->
<g id="Node000032" class="node">
<title>Node32</title>
<g id="a_Node000032"><a xlink:href="mackie__control__protocol_8h.html" target="_top" xlink:title=" ">
<polygon fill="white" stroke="#666666" points="2101,-134.5 1955,-134.5 1955,-115.5 2101,-115.5 2101,-134.5"/>
<text text-anchor="middle" x="2028" y="-122.5" font-family="Helvetica,sans-Serif" font-size="10.00">mackie_control_protocol.h</text>
</a>
</g>
</g>
<!-- Node10&#45;&gt;Node32 -->
<g id="edge39_Node000010_Node000032" class="edge">
<title>Node10&#45;&gt;Node32</title>
<g id="a_edge39_Node000010_Node000032"><a xlink:title=" ">
<path fill="none" stroke="#63b8ff" d="M1430.48,-181.53C1536.54,-176.08 1758.49,-162.87 1945,-140 1957.04,-138.52 1970,-136.53 1982.01,-134.52"/>
<polygon fill="#63b8ff" stroke="#63b8ff" points="1430.08,-178.05 1420.27,-182.05 1430.44,-185.04 1430.08,-178.05"/>
</a>
</g>
</g>
<!-- Node34 -->
<g id="Node000034" class="node">
<title>Node34</title>
<g id="a_Node000034"><a xlink:href="maschine2_8h.html" target="_top" xlink:title=" ">
<polygon fill="white" stroke="#666666" points="943.5,-134.5 864.5,-134.5 864.5,-115.5 943.5,-115.5 943.5,-134.5"/>
<text text-anchor="middle" x="904" y="-122.5" font-family="Helvetica,sans-Serif" font-size="10.00">maschine2.h</text>
</a>
</g>
</g>
<!-- Node10&#45;&gt;Node34 -->
<g id="edge41_Node000010_Node000034" class="edge">
<title>Node10&#45;&gt;Node34</title>
<g id="a_edge41_Node000010_Node000034"><a xlink:title=" ">
<path fill="none" stroke="#63b8ff" d="M1305.88,-181.3C1224.11,-176.3 1076.19,-164.55 952,-140 944.85,-138.59 937.22,-136.59 930.2,-134.55"/>
<polygon fill="#63b8ff" stroke="#63b8ff" points="1305.81,-184.8 1316,-181.9 1306.22,-177.81 1305.81,-184.8"/>
</a>
</g>
</g>
<!-- Node35 -->
<g id="Node000035" class="node">
<title>Node35</title>
<g id="a_Node000035"><a xlink:href="midi__surface_8h.html" target="_top" xlink:title=" ">
<polygon fill="white" stroke="#666666" points="1412.5,-134.5 1323.5,-134.5 1323.5,-115.5 1412.5,-115.5 1412.5,-134.5"/>
<text text-anchor="middle" x="1368" y="-122.5" font-family="Helvetica,sans-Serif" font-size="10.00">midi_surface.h</text>
</a>
</g>
</g>
<!-- Node10&#45;&gt;Node35 -->
<g id="edge42_Node000010_Node000035" class="edge">
<title>Node10&#45;&gt;Node35</title>
<g id="a_edge42_Node000010_Node000035"><a xlink:title=" ">
<path fill="none" stroke="#63b8ff" d="M1368,-165.66C1368,-155.24 1368,-142.8 1368,-134.67"/>
<polygon fill="#63b8ff" stroke="#63b8ff" points="1364.5,-165.87 1368,-175.87 1371.5,-165.87 1364.5,-165.87"/>
</a>
</g>
</g>
<!-- Node36 -->
<g id="Node000036" class="node">
<title>Node36</title>
<g id="a_Node000036"><a xlink:href="push2_8h.html" target="_top" xlink:title=" ">
<polygon fill="white" stroke="#666666" points="1324.5,-74 1269.5,-74 1269.5,-55 1324.5,-55 1324.5,-74"/>
<text text-anchor="middle" x="1297" y="-62" font-family="Helvetica,sans-Serif" font-size="10.00">push2.h</text>
</a>
</g>
</g>
<!-- Node10&#45;&gt;Node36 -->
<g id="edge61_Node000010_Node000036" class="edge">
<title>Node10&#45;&gt;Node36</title>
<g id="a_edge61_Node000010_Node000036"><a xlink:title=" ">
<path fill="none" stroke="#63b8ff" d="M1344.18,-170.12C1333.42,-162.46 1321.48,-152.11 1314,-140 1301.04,-119 1297.94,-89.19 1297.21,-74.45"/>
<polygon fill="#63b8ff" stroke="#63b8ff" points="1342.56,-173.25 1352.81,-175.91 1346.45,-167.43 1342.56,-173.25"/>
</a>
</g>
</g>
<!-- Node43 -->
<g id="Node000043" class="node">
<title>Node43</title>
<g id="a_Node000043"><a xlink:href="osc_8h.html" target="_top" xlink:title=" ">
<polygon fill="white" stroke="#666666" points="822,-134.5 780,-134.5 780,-115.5 822,-115.5 822,-134.5"/>
<text text-anchor="middle" x="801" y="-122.5" font-family="Helvetica,sans-Serif" font-size="10.00">osc.h</text>
</a>
</g>
</g>
<!-- Node10&#45;&gt;Node43 -->
<g id="edge55_Node000010_Node000043" class="edge">
<title>Node10&#45;&gt;Node43</title>
<g id="a_edge55_Node000010_Node000043"><a xlink:title=" ">
<path fill="none" stroke="#63b8ff" d="M1305.72,-182.45C1208.76,-178.51 1016.09,-167.67 855,-140 844.02,-138.11 832.01,-135.1 822.11,-132.35"/>
<polygon fill="#63b8ff" stroke="#63b8ff" points="1305.8,-185.96 1315.93,-182.86 1306.08,-178.96 1305.8,-185.96"/>
</a>
</g>
</g>
<!-- Node49 -->
<g id="Node000049" class="node">
<title>Node49</title>
<g id="a_Node000049"><a xlink:href="us2400__control__protocol_8h.html" target="_top" xlink:title=" ">
<polygon fill="white" stroke="#666666" points="1106.5,-134.5 961.5,-134.5 961.5,-115.5 1106.5,-115.5 1106.5,-134.5"/>
<text text-anchor="middle" x="1034" y="-122.5" font-family="Helvetica,sans-Serif" font-size="10.00">us2400_control_protocol.h</text>
</a>
</g>
</g>
<!-- Node10&#45;&gt;Node49 -->
<g id="edge62_Node000010_Node000049" class="edge">
<title>Node10&#45;&gt;Node49</title>
<g id="a_edge62_Node000010_Node000049"><a xlink:title=" ">
<path fill="none" stroke="#63b8ff" d="M1309.44,-174.24C1245.04,-162.96 1142.76,-145.05 1082.63,-134.52"/>
<polygon fill="#63b8ff" stroke="#63b8ff" points="1308.98,-177.72 1319.43,-175.99 1310.19,-170.82 1308.98,-177.72"/>
</a>
</g>
</g>
<!-- Node51 -->
<g id="Node000051" class="node">
<title>Node51</title>
<g id="a_Node000051"><a xlink:href="wiimote_8h.html" target="_top" xlink:title=" ">
<polygon fill="white" stroke="#666666" points="1228.5,-134.5 1163.5,-134.5 1163.5,-115.5 1228.5,-115.5 1228.5,-134.5"/>
<text text-anchor="middle" x="1196" y="-122.5" font-family="Helvetica,sans-Serif" font-size="10.00">wiimote.h</text>
</a>
</g>
</g>
<!-- Node10&#45;&gt;Node51 -->
<g id="edge64_Node000010_Node000051" class="edge">
<title>Node10&#45;&gt;Node51</title>
<g id="a_edge64_Node000010_Node000051"><a xlink:title=" ">
<path fill="none" stroke="#63b8ff" d="M1333.22,-172.67C1299.96,-161.36 1250.61,-144.57 1221.04,-134.52"/>
<polygon fill="#63b8ff" stroke="#63b8ff" points="1332.4,-176.09 1342.99,-175.99 1334.65,-169.46 1332.4,-176.09"/>
</a>
</g>
</g>
<!-- Node12 -->
<g id="Node000012" class="node">
<title>Node12</title>
<g id="a_Node000012"><a xlink:href="cc121_2gui_8h.html" target="_top" xlink:title=" ">
<polygon fill="white" stroke="#666666" points="1668.5,-74 1627.5,-74 1627.5,-55 1668.5,-55 1668.5,-74"/>
<text text-anchor="middle" x="1648" y="-62" font-family="Helvetica,sans-Serif" font-size="10.00">gui.h</text>
</a>
</g>
</g>
<!-- Node11&#45;&gt;Node12 -->
<g id="edge18_Node000011_Node000012" class="edge">
<title>Node11&#45;&gt;Node12</title>
<g id="a_edge18_Node000011_Node000012"><a xlink:title=" ">
<path fill="none" stroke="#63b8ff" d="M1591.44,-109.04C1605.79,-97.99 1624.82,-83.34 1636.74,-74.17"/>
<polygon fill="#63b8ff" stroke="#63b8ff" points="1589,-106.49 1583.21,-115.37 1593.27,-112.04 1589,-106.49"/>
</a>
</g>
</g>
<!-- Node14 -->
<g id="Node000014" class="node">
<title>Node14</title>
<g id="a_Node000014"><a xlink:href="c1__control_8h.html" target="_top" xlink:title=" ">
<polygon fill="white" stroke="#666666" points="1592,-19 1516,-19 1516,0 1592,0 1592,-19"/>
<text text-anchor="middle" x="1554" y="-7" font-family="Helvetica,sans-Serif" font-size="10.00">c1_control.h</text>
</a>
</g>
</g>
<!-- Node13&#45;&gt;Node14 -->
<g id="edge20_Node000013_Node000014" class="edge">
<title>Node13&#45;&gt;Node14</title>
<g id="a_edge20_Node000013_Node000014"><a xlink:title=" ">
<path fill="none" stroke="#63b8ff" d="M1418.77,-51.93C1451.09,-42.03 1496.86,-28.01 1525.99,-19.08"/>
<polygon fill="#63b8ff" stroke="#63b8ff" points="1417.33,-48.71 1408.8,-54.98 1419.38,-55.4 1417.33,-48.71"/>
</a>
</g>
</g>
<!-- Node15 -->
<g id="Node000015" class="node">
<title>Node15</title>
<g id="a_Node000015"><a xlink:href="c1__gui_8h.html" target="_top" xlink:title=" ">
<polygon fill="white" stroke="#666666" points="1497.5,-19 1440.5,-19 1440.5,0 1497.5,0 1497.5,-19"/>
<text text-anchor="middle" x="1469" y="-7" font-family="Helvetica,sans-Serif" font-size="10.00">c1_gui.h</text>
</a>
</g>
</g>
<!-- Node13&#45;&gt;Node15 -->
<g id="edge21_Node000013_Node000015" class="edge">
<title>Node13&#45;&gt;Node15</title>
<g id="a_edge21_Node000013_Node000015"><a xlink:title=" ">
<path fill="none" stroke="#63b8ff" d="M1403.92,-49.7C1419.95,-40.04 1440.87,-27.44 1454.6,-19.17"/>
<polygon fill="#63b8ff" stroke="#63b8ff" points="1401.9,-46.83 1395.14,-54.98 1405.51,-52.82 1401.9,-46.83"/>
</a>
</g>
</g>
<!-- Node17 -->
<g id="Node000017" class="node">
<title>Node17</title>
<g id="a_Node000017"><a xlink:href="button__config__widget_8h.html" target="_top" xlink:title=" ">
<polygon fill="white" stroke="#666666" points="1933,-19 1803,-19 1803,0 1933,0 1933,-19"/>
<text text-anchor="middle" x="1868" y="-7" font-family="Helvetica,sans-Serif" font-size="10.00">button_config_widget.h</text>
</a>
</g>
</g>
<!-- Node16&#45;&gt;Node17 -->
<g id="edge23_Node000016_Node000017" class="edge">
<title>Node16&#45;&gt;Node17</title>
<g id="a_edge23_Node000016_Node000017"><a xlink:title=" ">
<path fill="none" stroke="#63b8ff" d="M1867.24,-108.85C1856.56,-100.06 1844.78,-87.96 1839,-74 1830.74,-54.07 1847.99,-31.16 1859.26,-19.04"/>
<polygon fill="#63b8ff" stroke="#63b8ff" points="1865.37,-111.83 1875.43,-115.17 1869.65,-106.29 1865.37,-111.83"/>
</a>
</g>
</g>
<!-- Node18 -->
<g id="Node000018" class="node">
<title>Node18</title>
<g id="a_Node000018"><a xlink:href="jump__distance__widget_8h.html" target="_top" xlink:title=" ">
<polygon fill="white" stroke="#666666" points="1983.5,-74 1848.5,-74 1848.5,-55 1983.5,-55 1983.5,-74"/>
<text text-anchor="middle" x="1916" y="-62" font-family="Helvetica,sans-Serif" font-size="10.00">jump_distance_widget.h</text>
</a>
</g>
</g>
<!-- Node16&#45;&gt;Node18 -->
<g id="edge24_Node000016_Node000018" class="edge">
<title>Node16&#45;&gt;Node18</title>
<g id="a_edge24_Node000016_Node000018"><a xlink:title=" ">
<path fill="none" stroke="#63b8ff" d="M1897.24,-106.15C1902.13,-95.54 1908.13,-82.56 1912,-74.17"/>
<polygon fill="#63b8ff" stroke="#63b8ff" points="1894,-104.82 1892.98,-115.37 1900.35,-107.76 1894,-104.82"/>
</a>
</g>
</g>
<!-- Node18&#45;&gt;Node17 -->
<g id="edge25_Node000018_Node000017" class="edge">
<title>Node18&#45;&gt;Node17</title>
<g id="a_edge25_Node000018_Node000017"><a xlink:title=" ">
<path fill="none" stroke="#63b8ff" d="M1901.27,-47.24C1892.86,-37.95 1882.65,-26.68 1875.78,-19.09"/>
<polygon fill="#63b8ff" stroke="#63b8ff" points="1898.77,-49.69 1908.07,-54.75 1903.96,-44.99 1898.77,-49.69"/>
</a>
</g>
</g>
<!-- Node20 -->
<g id="Node000020" class="node">
<title>Node20</title>
<g id="a_Node000020"><a xlink:href="faderport_2gui_8h.html" target="_top" xlink:title=" ">
<polygon fill="white" stroke="#666666" points="1651.5,-19 1610.5,-19 1610.5,0 1651.5,0 1651.5,-19"/>
<text text-anchor="middle" x="1631" y="-7" font-family="Helvetica,sans-Serif" font-size="10.00">gui.h</text>
</a>
</g>
</g>
<!-- Node19&#45;&gt;Node20 -->
<g id="edge27_Node000019_Node000020" class="edge">
<title>Node19&#45;&gt;Node20</title>
<g id="a_edge27_Node000019_Node000020"><a xlink:title=" ">
<path fill="none" stroke="#63b8ff" d="M1504.57,-51.86C1536.91,-41.28 1583.53,-26.03 1610.19,-17.31"/>
<polygon fill="#63b8ff" stroke="#63b8ff" points="1503.44,-48.55 1495.03,-54.98 1505.62,-55.2 1503.44,-48.55"/>
</a>
</g>
</g>
<!-- Node22 -->
<g id="Node000022" class="node">
<title>Node22</title>
<g id="a_Node000022"><a xlink:href="faderport8_2gui_8h.html" target="_top" xlink:title=" ">
<polygon fill="white" stroke="#666666" points="1727.5,-74 1686.5,-74 1686.5,-55 1727.5,-55 1727.5,-74"/>
<text text-anchor="middle" x="1707" y="-62" font-family="Helvetica,sans-Serif" font-size="10.00">gui.h</text>
</a>
</g>
</g>
<!-- Node21&#45;&gt;Node22 -->
<g id="edge29_Node000021_Node000022" class="edge">
<title>Node21&#45;&gt;Node22</title>
<g id="a_edge29_Node000021_Node000022"><a xlink:title=" ">
<path fill="none" stroke="#63b8ff" d="M1670.15,-107.77C1679.63,-96.89 1691.75,-82.99 1699.44,-74.17"/>
<polygon fill="#63b8ff" stroke="#63b8ff" points="1667.46,-105.53 1663.53,-115.37 1672.73,-110.13 1667.46,-105.53"/>
</a>
</g>
</g>
<!-- Node25 -->
<g id="Node000025" class="node">
<title>Node25</title>
<g id="a_Node000025"><a xlink:href="launch__control__xl_2gui_8h.html" target="_top" xlink:title=" ">
<polygon fill="white" stroke="#666666" points="1788.5,-74 1747.5,-74 1747.5,-55 1788.5,-55 1788.5,-74"/>
<text text-anchor="middle" x="1768" y="-62" font-family="Helvetica,sans-Serif" font-size="10.00">gui.h</text>
</a>
</g>
</g>
<!-- Node24&#45;&gt;Node25 -->
<g id="edge32_Node000024_Node000025" class="edge">
<title>Node24&#45;&gt;Node25</title>
<g id="a_edge32_Node000024_Node000025"><a xlink:title=" ">
<path fill="none" stroke="#63b8ff" d="M1768,-105.16C1768,-94.74 1768,-82.3 1768,-74.17"/>
<polygon fill="#63b8ff" stroke="#63b8ff" points="1764.5,-105.37 1768,-115.37 1771.5,-105.37 1764.5,-105.37"/>
</a>
</g>
</g>
<!-- Node27 -->
<g id="Node000027" class="node">
<title>Node27</title>
<g id="a_Node000027"><a xlink:href="launchkey__4_2gui_8h.html" target="_top" xlink:title=" ">
<polygon fill="white" stroke="#666666" points="1710.5,-19 1669.5,-19 1669.5,0 1710.5,0 1710.5,-19"/>
<text text-anchor="middle" x="1690" y="-7" font-family="Helvetica,sans-Serif" font-size="10.00">gui.h</text>
</a>
</g>
</g>
<!-- Node26&#45;&gt;Node27 -->
<g id="edge34_Node000026_Node000027" class="edge">
<title>Node26&#45;&gt;Node27</title>
<g id="a_edge34_Node000026_Node000027"><a xlink:title=" ">
<path fill="none" stroke="#63b8ff" d="M1595.18,-51.03C1618.11,-41.23 1649.45,-27.83 1669.71,-19.17"/>
<polygon fill="#63b8ff" stroke="#63b8ff" points="1593.74,-47.84 1585.92,-54.98 1596.49,-54.27 1593.74,-47.84"/>
</a>
</g>
</g>
<!-- Node29 -->
<g id="Node000029" class="node">
<title>Node29</title>
<g id="a_Node000029"><a xlink:href="launchpad__pro_2gui_8h.html" target="_top" xlink:title=" ">
<polygon fill="white" stroke="#666666" points="938.5,-19 897.5,-19 897.5,0 938.5,0 938.5,-19"/>
<text text-anchor="middle" x="918" y="-7" font-family="Helvetica,sans-Serif" font-size="10.00">gui.h</text>
</a>
</g>
</g>
<!-- Node28&#45;&gt;Node29 -->
<g id="edge36_Node000028_Node000029" class="edge">
<title>Node28&#45;&gt;Node29</title>
<g id="a_edge36_Node000028_Node000029"><a xlink:title=" ">
<path fill="none" stroke="#63b8ff" d="M1132.3,-55.07C1132.2,-55.04 1132.1,-55.02 1132,-55 1050.17,-37.11 1028.39,-38.8 947,-19 944.25,-18.33 941.37,-17.56 938.53,-16.77"/>
<polygon fill="#63b8ff" stroke="#63b8ff" points="1131.27,-58.42 1141.8,-57.23 1132.83,-51.6 1131.27,-58.42"/>
</a>
</g>
</g>
<!-- Node31 -->
<g id="Node000031" class="node">
<title>Node31</title>
<g id="a_Node000031"><a xlink:href="launchpad__x_2gui_8h.html" target="_top" xlink:title=" ">
<polygon fill="white" stroke="#666666" points="997.5,-19 956.5,-19 956.5,0 997.5,0 997.5,-19"/>
<text text-anchor="middle" x="977" y="-7" font-family="Helvetica,sans-Serif" font-size="10.00">gui.h</text>
</a>
</g>
</g>
<!-- Node30&#45;&gt;Node31 -->
<g id="edge38_Node000030_Node000031" class="edge">
<title>Node30&#45;&gt;Node31</title>
<g id="a_edge38_Node000030_Node000031"><a xlink:title=" ">
<path fill="none" stroke="#63b8ff" d="M1200.41,-55.07C1113.85,-35.28 1089.3,-38.25 1007,-19 1003.94,-18.28 1000.73,-17.46 997.59,-16.61"/>
<polygon fill="#63b8ff" stroke="#63b8ff" points="1199.88,-58.54 1210.41,-57.39 1201.46,-51.72 1199.88,-58.54"/>
</a>
</g>
</g>
<!-- Node33 -->
<g id="Node000033" class="node">
<title>Node33</title>
<g id="a_Node000033"><a xlink:href="mackie_2strip_8h.html" target="_top" xlink:title=" ">
<polygon fill="white" stroke="#666666" points="2051.5,-74 2004.5,-74 2004.5,-55 2051.5,-55 2051.5,-74"/>
<text text-anchor="middle" x="2028" y="-62" font-family="Helvetica,sans-Serif" font-size="10.00">strip.h</text>
</a>
</g>
</g>
<!-- Node32&#45;&gt;Node33 -->
<g id="edge40_Node000032_Node000033" class="edge">
<title>Node32&#45;&gt;Node33</title>
<g id="a_edge40_Node000032_Node000033"><a xlink:title=" ">
<path fill="none" stroke="#63b8ff" d="M2028,-105.16C2028,-94.74 2028,-82.3 2028,-74.17"/>
<polygon fill="#63b8ff" stroke="#63b8ff" points="2024.5,-105.37 2028,-115.37 2031.5,-105.37 2024.5,-105.37"/>
</a>
</g>
</g>
<!-- Node35&#45;&gt;Node13 -->
<g id="edge43_Node000035_Node000013" class="edge">
<title>Node35&#45;&gt;Node13</title>
<g id="a_edge43_Node000035_Node000013"><a xlink:title=" ">
<path fill="none" stroke="#63b8ff" d="M1372.11,-105.49C1374.44,-95.01 1377.25,-82.39 1379.07,-74.17"/>
<polygon fill="#63b8ff" stroke="#63b8ff" points="1368.67,-104.85 1369.92,-115.37 1375.5,-106.37 1368.67,-104.85"/>
</a>
</g>
</g>
<!-- Node35&#45;&gt;Node19 -->
<g id="edge44_Node000035_Node000019" class="edge">
<title>Node35&#45;&gt;Node19</title>
<g id="a_edge44_Node000035_Node000019"><a xlink:title=" ">
<path fill="none" stroke="#63b8ff" d="M1391.7,-110.27C1410.98,-99.1 1437.6,-83.69 1454.04,-74.17"/>
<polygon fill="#63b8ff" stroke="#63b8ff" points="1389.8,-107.33 1382.9,-115.37 1393.31,-113.38 1389.8,-107.33"/>
</a>
</g>
</g>
<!-- Node35&#45;&gt;Node26 -->
<g id="edge45_Node000035_Node000026" class="edge">
<title>Node35&#45;&gt;Node26</title>
<g id="a_edge45_Node000035_Node000026"><a xlink:title=" ">
<path fill="none" stroke="#63b8ff" d="M1406.56,-112.61C1444.85,-101.29 1502.7,-84.2 1537.17,-74.02"/>
<polygon fill="#63b8ff" stroke="#63b8ff" points="1405.39,-109.3 1396.79,-115.49 1407.37,-116.02 1405.39,-109.3"/>
</a>
</g>
</g>
<!-- Node35&#45;&gt;Node28 -->
<g id="edge46_Node000035_Node000028" class="edge">
<title>Node35&#45;&gt;Node28</title>
<g id="a_edge46_Node000035_Node000028"><a xlink:title=" ">
<path fill="none" stroke="#63b8ff" d="M1328.98,-112.64C1288.54,-100.87 1226.51,-82.82 1192.13,-72.81"/>
<polygon fill="#63b8ff" stroke="#63b8ff" points="1328.19,-116.06 1338.77,-115.49 1330.15,-109.34 1328.19,-116.06"/>
</a>
</g>
</g>
<!-- Node35&#45;&gt;Node30 -->
<g id="edge47_Node000035_Node000030" class="edge">
<title>Node35&#45;&gt;Node30</title>
<g id="a_edge47_Node000035_Node000030"><a xlink:title=" ">
<path fill="none" stroke="#63b8ff" d="M1338.57,-111.43C1312.12,-100.14 1273.99,-83.86 1250.95,-74.02"/>
<polygon fill="#63b8ff" stroke="#63b8ff" points="1337.51,-114.79 1348.08,-115.49 1340.26,-108.35 1337.51,-114.79"/>
</a>
</g>
</g>
<!-- Node35&#45;&gt;Node36 -->
<g id="edge48_Node000035_Node000036" class="edge">
<title>Node35&#45;&gt;Node36</title>
<g id="a_edge48_Node000035_Node000036"><a xlink:title=" ">
<path fill="none" stroke="#63b8ff" d="M1349.46,-108.72C1336.1,-97.71 1318.55,-83.25 1307.52,-74.17"/>
<polygon fill="#63b8ff" stroke="#63b8ff" points="1347.58,-111.71 1357.52,-115.37 1352.03,-106.31 1347.58,-111.71"/>
</a>
</g>
</g>
<!-- Node37 -->
<g id="Node000037" class="node">
<title>Node37</title>
<g id="a_Node000037"><a xlink:href="cues_8h.html" target="_top" xlink:title=" ">
<polygon fill="white" stroke="#666666" points="1156,-19 1108,-19 1108,0 1156,0 1156,-19"/>
<text text-anchor="middle" x="1132" y="-7" font-family="Helvetica,sans-Serif" font-size="10.00">cues.h</text>
</a>
</g>
</g>
<!-- Node36&#45;&gt;Node37 -->
<g id="edge49_Node000036_Node000037" class="edge">
<title>Node36&#45;&gt;Node37</title>
<g id="a_edge49_Node000036_Node000037"><a xlink:title=" ">
<path fill="none" stroke="#63b8ff" d="M1260.67,-51.83C1228.86,-41.61 1183.53,-27.05 1156.03,-18.22"/>
<polygon fill="#63b8ff" stroke="#63b8ff" points="1259.9,-55.26 1270.49,-54.98 1262.04,-48.59 1259.9,-55.26"/>
</a>
</g>
</g>
<!-- Node38 -->
<g id="Node000038" class="node">
<title>Node38</title>
<g id="a_Node000038"><a xlink:href="push2_2gui_8h.html" target="_top" xlink:title=" ">
<polygon fill="white" stroke="#666666" points="1215.5,-19 1174.5,-19 1174.5,0 1215.5,0 1215.5,-19"/>
<text text-anchor="middle" x="1195" y="-7" font-family="Helvetica,sans-Serif" font-size="10.00">gui.h</text>
</a>
</g>
</g>
<!-- Node36&#45;&gt;Node38 -->
<g id="edge50_Node000036_Node000038" class="edge">
<title>Node36&#45;&gt;Node38</title>
<g id="a_edge50_Node000036_Node000038"><a xlink:title=" ">
<path fill="none" stroke="#63b8ff" d="M1271.73,-50.37C1252.99,-40.63 1227.98,-27.64 1211.69,-19.17"/>
<polygon fill="#63b8ff" stroke="#63b8ff" points="1270.12,-53.48 1280.61,-54.98 1273.35,-47.27 1270.12,-53.48"/>
</a>
</g>
</g>
<!-- Node39 -->
<g id="Node000039" class="node">
<title>Node39</title>
<g id="a_Node000039"><a xlink:href="surfaces_2push2_2mix_8h.html" target="_top" xlink:title=" ">
<polygon fill="white" stroke="#666666" points="1278,-19 1234,-19 1234,0 1278,0 1278,-19"/>
<text text-anchor="middle" x="1256" y="-7" font-family="Helvetica,sans-Serif" font-size="10.00">mix.h</text>
</a>
</g>
</g>
<!-- Node36&#45;&gt;Node39 -->
<g id="edge51_Node000036_Node000039" class="edge">
<title>Node36&#45;&gt;Node39</title>
<g id="a_edge51_Node000036_Node000039"><a xlink:title=" ">
<path fill="none" stroke="#63b8ff" d="M1283.98,-46.67C1276.88,-37.5 1268.4,-26.52 1262.64,-19.09"/>
<polygon fill="#63b8ff" stroke="#63b8ff" points="1281.34,-48.98 1290.23,-54.75 1286.88,-44.7 1281.34,-48.98"/>
</a>
</g>
</g>
<!-- Node40 -->
<g id="Node000040" class="node">
<title>Node40</title>
<g id="a_Node000040"><a xlink:href="surfaces_2push2_2scale_8h.html" target="_top" xlink:title=" ">
<polygon fill="white" stroke="#666666" points="1347.5,-19 1296.5,-19 1296.5,0 1347.5,0 1347.5,-19"/>
<text text-anchor="middle" x="1322" y="-7" font-family="Helvetica,sans-Serif" font-size="10.00">scale.h</text>
</a>
</g>
</g>
<!-- Node36&#45;&gt;Node40 -->
<g id="edge52_Node000036_Node000040" class="edge">
<title>Node36&#45;&gt;Node40</title>
<g id="a_edge52_Node000036_Node000040"><a xlink:title=" ">
<path fill="none" stroke="#63b8ff" d="M1305.48,-45.53C1309.69,-36.6 1314.59,-26.22 1317.95,-19.09"/>
<polygon fill="#63b8ff" stroke="#63b8ff" points="1302.23,-44.21 1301.13,-54.75 1308.56,-47.2 1302.23,-44.21"/>
</a>
</g>
</g>
<!-- Node41 -->
<g id="Node000041" class="node">
<title>Node41</title>
<g id="a_Node000041"><a xlink:href="libs_2surfaces_2push2_2splash_8h.html" target="_top" xlink:title=" ">
<polygon fill="white" stroke="#666666" points="1422.5,-19 1365.5,-19 1365.5,0 1422.5,0 1422.5,-19"/>
<text text-anchor="middle" x="1394" y="-7" font-family="Helvetica,sans-Serif" font-size="10.00">splash.h</text>
</a>
</g>
</g>
<!-- Node36&#45;&gt;Node41 -->
<g id="edge53_Node000036_Node000041" class="edge">
<title>Node36&#45;&gt;Node41</title>
<g id="a_edge53_Node000036_Node000041"><a xlink:title=" ">
<path fill="none" stroke="#63b8ff" d="M1321.77,-49.97C1339.5,-40.28 1362.85,-27.52 1378.13,-19.17"/>
<polygon fill="#63b8ff" stroke="#63b8ff" points="1319.68,-47.12 1312.58,-54.98 1323.04,-53.26 1319.68,-47.12"/>
</a>
</g>
</g>
<!-- Node42 -->
<g id="Node000042" class="node">
<title>Node42</title>
<g id="a_Node000042"><a xlink:href="track__mix_8h.html" target="_top" xlink:title=" ">
<polygon fill="white" stroke="#666666" points="1090,-19 1016,-19 1016,0 1090,0 1090,-19"/>
<text text-anchor="middle" x="1053" y="-7" font-family="Helvetica,sans-Serif" font-size="10.00">track_mix.h</text>
</a>
</g>
</g>
<!-- Node36&#45;&gt;Node42 -->
<g id="edge54_Node000036_Node000042" class="edge">
<title>Node36&#45;&gt;Node42</title>
<g id="a_edge54_Node000036_Node000042"><a xlink:title=" ">
<path fill="none" stroke="#63b8ff" d="M1259.09,-54.82C1193.93,-40.37 1129.48,-26.64 1090.05,-18.3"/>
<polygon fill="#63b8ff" stroke="#63b8ff" points="1258.61,-58.3 1269.13,-57.05 1260.13,-51.47 1258.61,-58.3"/>
</a>
</g>
</g>
<!-- Node44 -->
<g id="Node000044" class="node">
<title>Node44</title>
<g id="a_Node000044"><a xlink:href="osc__cue__observer_8h.html" target="_top" xlink:title=" ">
<polygon fill="white" stroke="#666666" points="696,-74 584,-74 584,-55 696,-55 696,-74"/>
<text text-anchor="middle" x="640" y="-62" font-family="Helvetica,sans-Serif" font-size="10.00">osc_cue_observer.h</text>
</a>
</g>
</g>
<!-- Node43&#45;&gt;Node44 -->
<g id="edge56_Node000043_Node000044" class="edge">
<title>Node43&#45;&gt;Node44</title>
<g id="a_edge56_Node000043_Node000044"><a xlink:title=" ">
<path fill="none" stroke="#63b8ff" d="M770.47,-112.91C739.32,-101.59 691.68,-84.28 663.4,-74"/>
<polygon fill="#63b8ff" stroke="#63b8ff" points="769.36,-116.23 779.95,-116.35 771.75,-109.65 769.36,-116.23"/>
</a>
</g>
</g>
<!-- Node45 -->
<g id="Node000045" class="node">
<title>Node45</title>
<g id="a_Node000045"><a xlink:href="osc__global__observer_8h.html" target="_top" xlink:title=" ">
<polygon fill="white" stroke="#666666" points="839.5,-74 714.5,-74 714.5,-55 839.5,-55 839.5,-74"/>
<text text-anchor="middle" x="777" y="-62" font-family="Helvetica,sans-Serif" font-size="10.00">osc_global_observer.h</text>
</a>
</g>
</g>
<!-- Node43&#45;&gt;Node45 -->
<g id="edge57_Node000043_Node000045" class="edge">
<title>Node43&#45;&gt;Node45</title>
<g id="a_edge57_Node000043_Node000045"><a xlink:title=" ">
<path fill="none" stroke="#63b8ff" d="M793.54,-105.82C789.22,-95.28 783.96,-82.48 780.56,-74.17"/>
<polygon fill="#63b8ff" stroke="#63b8ff" points="790.43,-107.44 797.46,-115.37 796.9,-104.79 790.43,-107.44"/>
</a>
</g>
</g>
<!-- Node46 -->
<g id="Node000046" class="node">
<title>Node46</title>
<g id="a_Node000046"><a xlink:href="osc__gui_8h.html" target="_top" xlink:title=" ">
<polygon fill="white" stroke="#666666" points="920,-74 858,-74 858,-55 920,-55 920,-74"/>
<text text-anchor="middle" x="889" y="-62" font-family="Helvetica,sans-Serif" font-size="10.00">osc_gui.h</text>
</a>
</g>
</g>
<!-- Node43&#45;&gt;Node46 -->
<g id="edge58_Node000043_Node000046" class="edge">
<title>Node43&#45;&gt;Node46</title>
<g id="a_edge58_Node000043_Node000046"><a xlink:title=" ">
<path fill="none" stroke="#63b8ff" d="M822.57,-109.66C839.29,-98.55 861.9,-83.51 875.96,-74.17"/>
<polygon fill="#63b8ff" stroke="#63b8ff" points="820.37,-106.92 813.98,-115.37 824.25,-112.75 820.37,-106.92"/>
</a>
</g>
</g>
<!-- Node47 -->
<g id="Node000047" class="node">
<title>Node47</title>
<g id="a_Node000047"><a xlink:href="osc__route__observer_8h.html" target="_top" xlink:title=" ">
<polygon fill="white" stroke="#666666" points="1058,-74 938,-74 938,-55 1058,-55 1058,-74"/>
<text text-anchor="middle" x="998" y="-62" font-family="Helvetica,sans-Serif" font-size="10.00">osc_route_observer.h</text>
</a>
</g>
</g>
<!-- Node43&#45;&gt;Node47 -->
<g id="edge59_Node000043_Node000047" class="edge">
<title>Node43&#45;&gt;Node47</title>
<g id="a_edge59_Node000043_Node000047"><a xlink:title=" ">
<path fill="none" stroke="#63b8ff" d="M831.98,-114.8C869.58,-103.63 932.51,-84.95 969.14,-74.07"/>
<polygon fill="#63b8ff" stroke="#63b8ff" points="830.67,-111.54 822.08,-117.74 832.67,-118.25 830.67,-111.54"/>
</a>
</g>
</g>
<!-- Node48 -->
<g id="Node000048" class="node">
<title>Node48</title>
<g id="a_Node000048"><a xlink:href="osc__select__observer_8h.html" target="_top" xlink:title=" ">
<polygon fill="white" stroke="#666666" points="566,-74 442,-74 442,-55 566,-55 566,-74"/>
<text text-anchor="middle" x="504" y="-62" font-family="Helvetica,sans-Serif" font-size="10.00">osc_select_observer.h</text>
</a>
</g>
</g>
<!-- Node43&#45;&gt;Node48 -->
<g id="edge60_Node000043_Node000048" class="edge">
<title>Node43&#45;&gt;Node48</title>
<g id="a_edge60_Node000043_Node000048"><a xlink:title=" ">
<path fill="none" stroke="#63b8ff" d="M769.75,-117.85C716.48,-107.35 607.97,-85.98 547.38,-74.04"/>
<polygon fill="#63b8ff" stroke="#63b8ff" points="769.15,-121.29 779.64,-119.79 770.51,-114.43 769.15,-121.29"/>
</a>
</g>
</g>
<!-- Node50 -->
<g id="Node000050" class="node">
<title>Node50</title>
<g id="a_Node000050"><a xlink:href="us2400_2strip_8h.html" target="_top" xlink:title=" ">
<polygon fill="white" stroke="#666666" points="1123.5,-74 1076.5,-74 1076.5,-55 1123.5,-55 1123.5,-74"/>
<text text-anchor="middle" x="1100" y="-62" font-family="Helvetica,sans-Serif" font-size="10.00">strip.h</text>
</a>
</g>
</g>
<!-- Node49&#45;&gt;Node50 -->
<g id="edge63_Node000049_Node000050" class="edge">
<title>Node49&#45;&gt;Node50</title>
<g id="a_edge63_Node000049_Node000050"><a xlink:title=" ">
<path fill="none" stroke="#63b8ff" d="M1051.24,-108.72C1063.66,-97.71 1079.97,-83.25 1090.22,-74.17"/>
<polygon fill="#63b8ff" stroke="#63b8ff" points="1048.9,-106.12 1043.74,-115.37 1053.54,-111.35 1048.9,-106.12"/>
</a>
</g>
</g>
</g>
</svg>
