<?xml version="1.0" encoding="UTF-8" standalone="no"?>
<!DOCTYPE svg PUBLIC "-//W3C//DTD SVG 1.1//EN"
 "http://www.w3.org/Graphics/SVG/1.1/DTD/svg11.dtd">
<!-- Generated by graphviz version 2.43.0 (0)
 -->
<!-- Title: types.h Pages: 1 -->
<svg width="2057pt" height="258pt"
 viewBox="0.00 0.00 2057.00 258.00" xmlns="http://www.w3.org/2000/svg" xmlns:xlink="http://www.w3.org/1999/xlink">
<g id="graph0" class="graph" transform="scale(1 1) rotate(0) translate(4 254)">
<title>types.h</title>
<!-- Node1 -->
<g id="Node000001" class="node">
<title>Node1</title>
<g id="a_Node000001"><a xlink:title=" ">
<polygon fill="#999999" stroke="#666666" points="1274.5,-250 1221.5,-250 1221.5,-231 1274.5,-231 1274.5,-250"/>
<text text-anchor="middle" x="1248" y="-238" font-family="Helvetica,sans-Serif" font-size="10.00">types.h</text>
</a>
</g>
</g>
<!-- Node2 -->
<g id="Node000002" class="node">
<title>Node2</title>
<g id="a_Node000002"><a xlink:href="cc121_8h.html" target="_top" xlink:title=" ">
<polygon fill="white" stroke="#666666" points="54,-134.5 0,-134.5 0,-115.5 54,-115.5 54,-134.5"/>
<text text-anchor="middle" x="27" y="-122.5" font-family="Helvetica,sans-Serif" font-size="10.00">cc121.h</text>
</a>
</g>
</g>
<!-- Node1&#45;&gt;Node2 -->
<g id="edge1_Node000001_Node000002" class="edge">
<title>Node1&#45;&gt;Node2</title>
<g id="a_edge1_Node000001_Node000002"><a xlink:title=" ">
<path fill="none" stroke="#63b8ff" d="M1211.02,-239.1C1016.44,-236.85 118.27,-224.87 68,-195 45.24,-181.48 33.68,-150.02 29.23,-134.7"/>
<polygon fill="#63b8ff" stroke="#63b8ff" points="1211.25,-242.6 1221.29,-239.21 1211.33,-235.6 1211.25,-242.6"/>
</a>
</g>
</g>
<!-- Node4 -->
<g id="Node000004" class="node">
<title>Node4</title>
<g id="a_Node000004"><a xlink:href="console1_8h.html" target="_top" xlink:title=" ">
<polygon fill="white" stroke="#666666" points="322.5,-74 253.5,-74 253.5,-55 322.5,-55 322.5,-74"/>
<text text-anchor="middle" x="288" y="-62" font-family="Helvetica,sans-Serif" font-size="10.00">console1.h</text>
</a>
</g>
</g>
<!-- Node1&#45;&gt;Node4 -->
<g id="edge3_Node000001_Node000004" class="edge">
<title>Node1&#45;&gt;Node4</title>
<g id="a_edge3_Node000001_Node000004"><a xlink:title=" ">
<path fill="none" stroke="#63b8ff" d="M1211.11,-238.9C1079.22,-236.51 631.46,-226.23 492,-195 427.97,-180.66 408.78,-177.59 355,-140 327.91,-121.06 304.13,-89.2 293.66,-74.03"/>
<polygon fill="#63b8ff" stroke="#63b8ff" points="1211.41,-242.41 1221.47,-239.08 1211.54,-235.41 1211.41,-242.41"/>
</a>
</g>
</g>
<!-- Node7 -->
<g id="Node000007" class="node">
<title>Node7</title>
<g id="a_Node000007"><a xlink:href="control__protocol_8h.html" target="_top" xlink:title=" ">
<polygon fill="white" stroke="#666666" points="993,-195 889,-195 889,-176 993,-176 993,-195"/>
<text text-anchor="middle" x="941" y="-183" font-family="Helvetica,sans-Serif" font-size="10.00">control_protocol.h</text>
</a>
</g>
</g>
<!-- Node1&#45;&gt;Node7 -->
<g id="edge6_Node000001_Node000007" class="edge">
<title>Node1&#45;&gt;Node7</title>
<g id="a_edge6_Node000001_Node000007"><a xlink:title=" ">
<path fill="none" stroke="#63b8ff" d="M1211.28,-233.16C1156.2,-223.65 1052.1,-205.68 990.41,-195.03"/>
<polygon fill="#63b8ff" stroke="#63b8ff" points="1210.84,-236.64 1221.29,-234.89 1212.03,-229.74 1210.84,-236.64"/>
</a>
</g>
</g>
<!-- Node17 -->
<g id="Node000017" class="node">
<title>Node17</title>
<g id="a_Node000017"><a xlink:href="launch__control__xl_8h.html" target="_top" xlink:title=" ">
<polygon fill="white" stroke="#666666" points="1799.5,-134.5 1688.5,-134.5 1688.5,-115.5 1799.5,-115.5 1799.5,-134.5"/>
<text text-anchor="middle" x="1744" y="-122.5" font-family="Helvetica,sans-Serif" font-size="10.00">launch_control_xl.h</text>
</a>
</g>
</g>
<!-- Node1&#45;&gt;Node17 -->
<g id="edge54_Node000001_Node000017" class="edge">
<title>Node1&#45;&gt;Node17</title>
<g id="a_edge54_Node000001_Node000017"><a xlink:title=" ">
<path fill="none" stroke="#63b8ff" d="M1284.58,-231.13C1376.16,-210.17 1614.51,-155.63 1706.77,-134.52"/>
<polygon fill="#63b8ff" stroke="#63b8ff" points="1283.63,-227.76 1274.67,-233.4 1285.2,-234.58 1283.63,-227.76"/>
</a>
</g>
</g>
<!-- Node19 -->
<g id="Node000019" class="node">
<title>Node19</title>
<g id="a_Node000019"><a xlink:href="launchkey__4_8h.html" target="_top" xlink:title=" ">
<polygon fill="white" stroke="#666666" points="453,-74 367,-74 367,-55 453,-55 453,-74"/>
<text text-anchor="middle" x="410" y="-62" font-family="Helvetica,sans-Serif" font-size="10.00">launchkey_4.h</text>
</a>
</g>
</g>
<!-- Node1&#45;&gt;Node19 -->
<g id="edge55_Node000001_Node000019" class="edge">
<title>Node1&#45;&gt;Node19</title>
<g id="a_edge55_Node000001_Node000019"><a xlink:title=" ">
<path fill="none" stroke="#63b8ff" d="M1211.15,-238.79C1088.02,-236.15 691.62,-225.44 568,-195 509.46,-180.59 486.86,-182.4 444,-140 424.8,-121 415.37,-89.17 411.79,-74.01"/>
<polygon fill="#63b8ff" stroke="#63b8ff" points="1211.14,-242.29 1221.21,-239 1211.29,-235.29 1211.14,-242.29"/>
</a>
</g>
</g>
<!-- Node21 -->
<g id="Node000021" class="node">
<title>Node21</title>
<g id="a_Node000021"><a xlink:href="lppro_8h.html" target="_top" xlink:title=" ">
<polygon fill="white" stroke="#666666" points="979,-74 929,-74 929,-55 979,-55 979,-74"/>
<text text-anchor="middle" x="954" y="-62" font-family="Helvetica,sans-Serif" font-size="10.00">lppro.h</text>
</a>
</g>
</g>
<!-- Node1&#45;&gt;Node21 -->
<g id="edge56_Node000001_Node000021" class="edge">
<title>Node1&#45;&gt;Node21</title>
<g id="a_edge56_Node000001_Node000021"><a xlink:title=" ">
<path fill="none" stroke="#63b8ff" d="M1256.29,-221.38C1267.71,-193.35 1283.81,-139.63 1255,-110 1213.27,-67.07 1046.8,-85.28 988,-74 985.13,-73.45 982.14,-72.81 979.18,-72.13"/>
<polygon fill="#63b8ff" stroke="#63b8ff" points="1252.99,-220.19 1252.24,-230.76 1259.41,-222.96 1252.99,-220.19"/>
</a>
</g>
</g>
<!-- Node23 -->
<g id="Node000023" class="node">
<title>Node23</title>
<g id="a_Node000023"><a xlink:href="lpx_8h.html" target="_top" xlink:title=" ">
<polygon fill="white" stroke="#666666" points="910.5,-74 869.5,-74 869.5,-55 910.5,-55 910.5,-74"/>
<text text-anchor="middle" x="890" y="-62" font-family="Helvetica,sans-Serif" font-size="10.00">lpx.h</text>
</a>
</g>
</g>
<!-- Node1&#45;&gt;Node23 -->
<g id="edge57_Node000001_Node000023" class="edge">
<title>Node1&#45;&gt;Node23</title>
<g id="a_edge57_Node000001_Node000023"><a xlink:title=" ">
<path fill="none" stroke="#63b8ff" d="M1251.43,-220.46C1255.35,-192.03 1257.8,-138.72 1228,-110 1178.38,-62.18 987.59,-87.44 920,-74 916.92,-73.39 913.7,-72.62 910.55,-71.79"/>
<polygon fill="#63b8ff" stroke="#63b8ff" points="1247.92,-220.25 1249.81,-230.67 1254.83,-221.35 1247.92,-220.25"/>
</a>
</g>
</g>
<!-- Node26 -->
<g id="Node000026" class="node">
<title>Node26</title>
<g id="a_Node000026"><a xlink:href="mackie_2strip_8h.html" target="_top" xlink:title=" ">
<polygon fill="white" stroke="#666666" points="159.5,-74 112.5,-74 112.5,-55 159.5,-55 159.5,-74"/>
<text text-anchor="middle" x="136" y="-62" font-family="Helvetica,sans-Serif" font-size="10.00">strip.h</text>
</a>
</g>
</g>
<!-- Node1&#45;&gt;Node26 -->
<g id="edge59_Node000001_Node000026" class="edge">
<title>Node1&#45;&gt;Node26</title>
<g id="a_edge59_Node000001_Node000026"><a xlink:title=" ">
<path fill="none" stroke="#63b8ff" d="M1211.14,-239.31C1022.81,-237.95 174.13,-227.01 101,-140 83.71,-119.43 110.69,-88.9 126.24,-74.12"/>
<polygon fill="#63b8ff" stroke="#63b8ff" points="1211.32,-242.81 1221.35,-239.38 1211.37,-235.81 1211.32,-242.81"/>
</a>
</g>
</g>
<!-- Node29 -->
<g id="Node000029" class="node">
<title>Node29</title>
<g id="a_Node000029"><a xlink:href="push2_8h.html" target="_top" xlink:title=" ">
<polygon fill="white" stroke="#666666" points="635.5,-74 580.5,-74 580.5,-55 635.5,-55 635.5,-74"/>
<text text-anchor="middle" x="608" y="-62" font-family="Helvetica,sans-Serif" font-size="10.00">push2.h</text>
</a>
</g>
</g>
<!-- Node1&#45;&gt;Node29 -->
<g id="edge58_Node000001_Node000029" class="edge">
<title>Node1&#45;&gt;Node29</title>
<g id="a_edge58_Node000001_Node000029"><a xlink:title=" ">
<path fill="none" stroke="#63b8ff" d="M1211.31,-237.7C1062.01,-230.02 505.71,-197.69 455,-140 416.77,-96.51 526.77,-75.94 580.43,-68.69"/>
<polygon fill="#63b8ff" stroke="#63b8ff" points="1211.18,-241.2 1221.34,-238.21 1211.53,-234.21 1211.18,-241.2"/>
</a>
</g>
</g>
<!-- Node43 -->
<g id="Node000043" class="node">
<title>Node43</title>
<g id="a_Node000043"><a xlink:href="us2400_2strip_8h.html" target="_top" xlink:title=" ">
<polygon fill="white" stroke="#666666" points="1929.5,-74 1882.5,-74 1882.5,-55 1929.5,-55 1929.5,-74"/>
<text text-anchor="middle" x="1906" y="-62" font-family="Helvetica,sans-Serif" font-size="10.00">strip.h</text>
</a>
</g>
</g>
<!-- Node1&#45;&gt;Node43 -->
<g id="edge60_Node000001_Node000043" class="edge">
<title>Node1&#45;&gt;Node43</title>
<g id="a_edge60_Node000001_Node000043"><a xlink:title=" ">
<path fill="none" stroke="#63b8ff" d="M1284.87,-238.86C1377.04,-236.05 1623.34,-220.9 1808,-140 1845.59,-123.53 1881.92,-89.86 1897.73,-74.05"/>
<polygon fill="#63b8ff" stroke="#63b8ff" points="1284.56,-235.37 1274.66,-239.14 1284.75,-242.37 1284.56,-235.37"/>
</a>
</g>
</g>
<!-- Node45 -->
<g id="Node000045" class="node">
<title>Node45</title>
<g id="a_Node000045"><a xlink:href="control__protocol__manager_8h.html" target="_top" xlink:title=" ">
<polygon fill="white" stroke="#666666" points="1889,-195 1737,-195 1737,-176 1889,-176 1889,-195"/>
<text text-anchor="middle" x="1813" y="-183" font-family="Helvetica,sans-Serif" font-size="10.00">control_protocol_manager.h</text>
</a>
</g>
</g>
<!-- Node1&#45;&gt;Node45 -->
<g id="edge53_Node000001_Node000045" class="edge">
<title>Node1&#45;&gt;Node45</title>
<g id="a_edge53_Node000001_Node000045"><a xlink:title=" ">
<path fill="none" stroke="#63b8ff" d="M1284.54,-236.09C1364.19,-228.64 1559.44,-210.39 1723,-195 1727.53,-194.57 1732.19,-194.14 1736.89,-193.69"/>
<polygon fill="#63b8ff" stroke="#63b8ff" points="1284.15,-232.61 1274.52,-237.02 1284.8,-239.58 1284.15,-232.61"/>
</a>
</g>
</g>
<!-- Node46 -->
<g id="Node000046" class="node">
<title>Node46</title>
<g id="a_Node000046"><a xlink:href="mackie_2surface_8h.html" target="_top" xlink:title=" ">
<polygon fill="white" stroke="#666666" points="1969,-195 1907,-195 1907,-176 1969,-176 1969,-195"/>
<text text-anchor="middle" x="1938" y="-183" font-family="Helvetica,sans-Serif" font-size="10.00">surface.h</text>
</a>
</g>
</g>
<!-- Node1&#45;&gt;Node46 -->
<g id="edge61_Node000001_Node000046" class="edge">
<title>Node1&#45;&gt;Node46</title>
<g id="a_edge61_Node000001_Node000046"><a xlink:title=" ">
<path fill="none" stroke="#63b8ff" d="M1284.9,-238.79C1384.36,-236.5 1666.16,-227.4 1898,-195 1900.81,-194.61 1903.72,-194.13 1906.63,-193.6"/>
<polygon fill="#63b8ff" stroke="#63b8ff" points="1284.68,-235.3 1274.76,-239.02 1284.84,-242.3 1284.68,-235.3"/>
</a>
</g>
</g>
<!-- Node47 -->
<g id="Node000047" class="node">
<title>Node47</title>
<g id="a_Node000047"><a xlink:href="us2400_2surface_8h.html" target="_top" xlink:title=" ">
<polygon fill="white" stroke="#666666" points="2049,-195 1987,-195 1987,-176 2049,-176 2049,-195"/>
<text text-anchor="middle" x="2018" y="-183" font-family="Helvetica,sans-Serif" font-size="10.00">surface.h</text>
</a>
</g>
</g>
<!-- Node1&#45;&gt;Node47 -->
<g id="edge62_Node000001_Node000047" class="edge">
<title>Node1&#45;&gt;Node47</title>
<g id="a_edge62_Node000001_Node000047"><a xlink:title=" ">
<path fill="none" stroke="#63b8ff" d="M1284.96,-239.18C1392.45,-237.84 1714.05,-230.89 1978,-195 1980.81,-194.62 1983.73,-194.15 1986.63,-193.63"/>
<polygon fill="#63b8ff" stroke="#63b8ff" points="1284.61,-235.69 1274.66,-239.3 1284.7,-242.68 1284.61,-235.69"/>
</a>
</g>
</g>
<!-- Node3 -->
<g id="Node000003" class="node">
<title>Node3</title>
<g id="a_Node000003"><a xlink:href="cc121_2gui_8h.html" target="_top" xlink:title=" ">
<polygon fill="white" stroke="#666666" points="47.5,-74 6.5,-74 6.5,-55 47.5,-55 47.5,-74"/>
<text text-anchor="middle" x="27" y="-62" font-family="Helvetica,sans-Serif" font-size="10.00">gui.h</text>
</a>
</g>
</g>
<!-- Node2&#45;&gt;Node3 -->
<g id="edge2_Node000002_Node000003" class="edge">
<title>Node2&#45;&gt;Node3</title>
<g id="a_edge2_Node000002_Node000003"><a xlink:title=" ">
<path fill="none" stroke="#63b8ff" d="M27,-105.16C27,-94.74 27,-82.3 27,-74.17"/>
<polygon fill="#63b8ff" stroke="#63b8ff" points="23.5,-105.37 27,-115.37 30.5,-105.37 23.5,-105.37"/>
</a>
</g>
</g>
<!-- Node5 -->
<g id="Node000005" class="node">
<title>Node5</title>
<g id="a_Node000005"><a xlink:href="c1__control_8h.html" target="_top" xlink:title=" ">
<polygon fill="white" stroke="#666666" points="241,-19 165,-19 165,0 241,0 241,-19"/>
<text text-anchor="middle" x="203" y="-7" font-family="Helvetica,sans-Serif" font-size="10.00">c1_control.h</text>
</a>
</g>
</g>
<!-- Node4&#45;&gt;Node5 -->
<g id="edge4_Node000004_Node000005" class="edge">
<title>Node4&#45;&gt;Node5</title>
<g id="a_edge4_Node000004_Node000005"><a xlink:title=" ">
<path fill="none" stroke="#63b8ff" d="M265.43,-49.42C250,-39.81 230.05,-27.37 216.91,-19.17"/>
<polygon fill="#63b8ff" stroke="#63b8ff" points="264.01,-52.66 274.34,-54.98 267.71,-46.72 264.01,-52.66"/>
</a>
</g>
</g>
<!-- Node6 -->
<g id="Node000006" class="node">
<title>Node6</title>
<g id="a_Node000006"><a xlink:href="c1__gui_8h.html" target="_top" xlink:title=" ">
<polygon fill="white" stroke="#666666" points="316.5,-19 259.5,-19 259.5,0 316.5,0 316.5,-19"/>
<text text-anchor="middle" x="288" y="-7" font-family="Helvetica,sans-Serif" font-size="10.00">c1_gui.h</text>
</a>
</g>
</g>
<!-- Node4&#45;&gt;Node6 -->
<g id="edge5_Node000004_Node000006" class="edge">
<title>Node4&#45;&gt;Node6</title>
<g id="a_edge5_Node000004_Node000006"><a xlink:title=" ">
<path fill="none" stroke="#63b8ff" d="M288,-44.66C288,-35.93 288,-25.99 288,-19.09"/>
<polygon fill="#63b8ff" stroke="#63b8ff" points="284.5,-44.75 288,-54.75 291.5,-44.75 284.5,-44.75"/>
</a>
</g>
</g>
<!-- Node7&#45;&gt;Node2 -->
<g id="edge8_Node000007_Node000002" class="edge">
<title>Node7&#45;&gt;Node2</title>
<g id="a_edge8_Node000007_Node000002"><a xlink:title=" ">
<path fill="none" stroke="#63b8ff" d="M878.6,-184.05C738.84,-182.41 390.26,-174.87 101,-140 85.42,-138.12 68.19,-134.93 54.28,-132.07"/>
<polygon fill="#63b8ff" stroke="#63b8ff" points="878.65,-187.55 888.69,-184.16 878.73,-180.55 878.65,-187.55"/>
</a>
</g>
</g>
<!-- Node7&#45;&gt;Node4 -->
<g id="edge9_Node000007_Node000004" class="edge">
<title>Node7&#45;&gt;Node4</title>
<g id="a_edge9_Node000007_Node000004"><a xlink:title=" ">
<path fill="none" stroke="#63b8ff" d="M878.49,-182.31C760.25,-177.64 508.27,-165.04 425,-140 374.96,-124.96 322.5,-90.25 299.72,-74.08"/>
<polygon fill="#63b8ff" stroke="#63b8ff" points="878.69,-185.82 888.82,-182.71 878.96,-178.83 878.69,-185.82"/>
</a>
</g>
</g>
<!-- Node8 -->
<g id="Node000008" class="node">
<title>Node8</title>
<g id="a_Node000008"><a xlink:href="ardour__websockets_8h.html" target="_top" xlink:title=" ">
<polygon fill="white" stroke="#666666" points="583.5,-134.5 464.5,-134.5 464.5,-115.5 583.5,-115.5 583.5,-134.5"/>
<text text-anchor="middle" x="524" y="-122.5" font-family="Helvetica,sans-Serif" font-size="10.00">ardour_websockets.h</text>
</a>
</g>
</g>
<!-- Node7&#45;&gt;Node8 -->
<g id="edge7_Node000007_Node000008" class="edge">
<title>Node7&#45;&gt;Node8</title>
<g id="a_edge7_Node000007_Node000008"><a xlink:title=" ">
<path fill="none" stroke="#63b8ff" d="M878.62,-177.51C809.76,-169.53 695.72,-155.57 598,-140 587.93,-138.4 577.12,-136.47 566.97,-134.57"/>
<polygon fill="#63b8ff" stroke="#63b8ff" points="878.52,-181.02 888.86,-178.69 879.32,-174.07 878.52,-181.02"/>
</a>
</g>
</g>
<!-- Node9 -->
<g id="Node000009" class="node">
<title>Node9</title>
<g id="a_Node000009"><a xlink:href="contourdesign_8h.html" target="_top" xlink:title=" ">
<polygon fill="white" stroke="#666666" points="1507.5,-134.5 1412.5,-134.5 1412.5,-115.5 1507.5,-115.5 1507.5,-134.5"/>
<text text-anchor="middle" x="1460" y="-122.5" font-family="Helvetica,sans-Serif" font-size="10.00">contourdesign.h</text>
</a>
</g>
</g>
<!-- Node7&#45;&gt;Node9 -->
<g id="edge10_Node000007_Node000009" class="edge">
<title>Node7&#45;&gt;Node9</title>
<g id="a_edge10_Node000007_Node000009"><a xlink:title=" ">
<path fill="none" stroke="#63b8ff" d="M1003.5,-181.36C1092.65,-176.23 1261.25,-164.1 1403,-140 1411.44,-138.57 1420.48,-136.56 1428.81,-134.52"/>
<polygon fill="#63b8ff" stroke="#63b8ff" points="1003.08,-177.88 993.29,-181.94 1003.47,-184.87 1003.08,-177.88"/>
</a>
</g>
</g>
<!-- Node12 -->
<g id="Node000012" class="node">
<title>Node12</title>
<g id="a_Node000012"><a xlink:href="faderport_8h.html" target="_top" xlink:title=" ">
<polygon fill="white" stroke="#666666" points="789.5,-74 718.5,-74 718.5,-55 789.5,-55 789.5,-74"/>
<text text-anchor="middle" x="754" y="-62" font-family="Helvetica,sans-Serif" font-size="10.00">faderport.h</text>
</a>
</g>
</g>
<!-- Node7&#45;&gt;Node12 -->
<g id="edge14_Node000007_Node000012" class="edge">
<title>Node7&#45;&gt;Node12</title>
<g id="a_edge14_Node000007_Node000012"><a xlink:title=" ">
<path fill="none" stroke="#63b8ff" d="M878.47,-181.81C844.44,-177.17 803.92,-166.01 777,-140 758.5,-122.13 754.79,-89.75 754.11,-74.24"/>
<polygon fill="#63b8ff" stroke="#63b8ff" points="878.45,-185.33 888.79,-183.05 879.28,-178.38 878.45,-185.33"/>
</a>
</g>
</g>
<!-- Node14 -->
<g id="Node000014" class="node">
<title>Node14</title>
<g id="a_Node000014"><a xlink:href="faderport8_8h.html" target="_top" xlink:title=" ">
<polygon fill="white" stroke="#666666" points="863.5,-134.5 786.5,-134.5 786.5,-115.5 863.5,-115.5 863.5,-134.5"/>
<text text-anchor="middle" x="825" y="-122.5" font-family="Helvetica,sans-Serif" font-size="10.00">faderport8.h</text>
</a>
</g>
</g>
<!-- Node7&#45;&gt;Node14 -->
<g id="edge16_Node000007_Node000014" class="edge">
<title>Node7&#45;&gt;Node14</title>
<g id="a_edge16_Node000007_Node000014"><a xlink:title=" ">
<path fill="none" stroke="#63b8ff" d="M914.68,-171.23C892.47,-160.03 861.32,-144.32 842.19,-134.67"/>
<polygon fill="#63b8ff" stroke="#63b8ff" points="913.38,-174.49 923.88,-175.87 916.53,-168.24 913.38,-174.49"/>
</a>
</g>
</g>
<!-- Node16 -->
<g id="Node000016" class="node">
<title>Node16</title>
<g id="a_Node000016"><a xlink:href="generic__midi__control__protocol_8h.html" target="_top" xlink:title=" ">
<polygon fill="white" stroke="#666666" points="1000.5,-140 881.5,-140 881.5,-110 1000.5,-110 1000.5,-140"/>
<text text-anchor="start" x="889.5" y="-128" font-family="Helvetica,sans-Serif" font-size="10.00">generic_midi_control</text>
<text text-anchor="middle" x="941" y="-117" font-family="Helvetica,sans-Serif" font-size="10.00">_protocol.h</text>
</a>
</g>
</g>
<!-- Node7&#45;&gt;Node16 -->
<g id="edge18_Node000007_Node000016" class="edge">
<title>Node7&#45;&gt;Node16</title>
<g id="a_edge18_Node000007_Node000016"><a xlink:title=" ">
<path fill="none" stroke="#63b8ff" d="M941,-165.65C941,-157.36 941,-147.78 941,-140.11"/>
<polygon fill="#63b8ff" stroke="#63b8ff" points="937.5,-165.87 941,-175.87 944.5,-165.87 937.5,-165.87"/>
</a>
</g>
</g>
<!-- Node7&#45;&gt;Node17 -->
<g id="edge19_Node000007_Node000017" class="edge">
<title>Node7&#45;&gt;Node17</title>
<g id="a_edge19_Node000007_Node000017"><a xlink:title=" ">
<path fill="none" stroke="#63b8ff" d="M1003.51,-183.93C1131.08,-182.06 1430.38,-174.07 1679,-140 1688.84,-138.65 1699.4,-136.63 1709.09,-134.54"/>
<polygon fill="#63b8ff" stroke="#63b8ff" points="1003.11,-180.43 993.16,-184.07 1003.21,-187.43 1003.11,-180.43"/>
</a>
</g>
</g>
<!-- Node7&#45;&gt;Node19 -->
<g id="edge21_Node000007_Node000019" class="edge">
<title>Node7&#45;&gt;Node19</title>
<g id="a_edge21_Node000007_Node000019"><a xlink:title=" ">
<path fill="none" stroke="#63b8ff" d="M878.75,-181.92C755.69,-176.37 490.14,-162 455,-140 430.41,-124.6 417.39,-90.4 412.42,-74.25"/>
<polygon fill="#63b8ff" stroke="#63b8ff" points="878.63,-185.42 888.78,-182.37 878.94,-178.43 878.63,-185.42"/>
</a>
</g>
</g>
<!-- Node7&#45;&gt;Node21 -->
<g id="edge23_Node000007_Node000021" class="edge">
<title>Node7&#45;&gt;Node21</title>
<g id="a_edge23_Node000007_Node000021"><a xlink:title=" ">
<path fill="none" stroke="#63b8ff" d="M1003.48,-183.93C1079.05,-181.76 1199.68,-173.05 1228,-140 1282.85,-75.99 1265.09,-129.29 988,-74 985.14,-73.43 982.15,-72.77 979.19,-72.08"/>
<polygon fill="#63b8ff" stroke="#63b8ff" points="1003.04,-180.44 993.13,-184.19 1003.22,-187.44 1003.04,-180.44"/>
</a>
</g>
</g>
<!-- Node7&#45;&gt;Node23 -->
<g id="edge25_Node000007_Node000023" class="edge">
<title>Node7&#45;&gt;Node23</title>
<g id="a_edge25_Node000007_Node000023"><a xlink:title=" ">
<path fill="none" stroke="#63b8ff" d="M1003.34,-177.8C1062.73,-168.93 1138.62,-149.53 1106,-110 1052.42,-45.05 1001.91,-93.49 920,-74 916.95,-73.27 913.74,-72.44 910.6,-71.58"/>
<polygon fill="#63b8ff" stroke="#63b8ff" points="1002.63,-174.37 993.22,-179.24 1003.62,-181.3 1002.63,-174.37"/>
</a>
</g>
</g>
<!-- Node25 -->
<g id="Node000025" class="node">
<title>Node25</title>
<g id="a_Node000025"><a xlink:href="mackie__control__protocol_8h.html" target="_top" xlink:title=" ">
<polygon fill="white" stroke="#666666" points="256,-134.5 110,-134.5 110,-115.5 256,-115.5 256,-134.5"/>
<text text-anchor="middle" x="183" y="-122.5" font-family="Helvetica,sans-Serif" font-size="10.00">mackie_control_protocol.h</text>
</a>
</g>
</g>
<!-- Node7&#45;&gt;Node25 -->
<g id="edge27_Node000007_Node000025" class="edge">
<title>Node7&#45;&gt;Node25</title>
<g id="a_edge27_Node000007_Node000025"><a xlink:title=" ">
<path fill="none" stroke="#63b8ff" d="M878.59,-180.97C764.97,-174.36 516.79,-159.02 308,-140 290.6,-138.41 271.87,-136.45 254.34,-134.51"/>
<polygon fill="#63b8ff" stroke="#63b8ff" points="878.65,-184.48 888.84,-181.57 879.06,-177.49 878.65,-184.48"/>
</a>
</g>
</g>
<!-- Node27 -->
<g id="Node000027" class="node">
<title>Node27</title>
<g id="a_Node000027"><a xlink:href="maschine2_8h.html" target="_top" xlink:title=" ">
<polygon fill="white" stroke="#666666" points="1097.5,-134.5 1018.5,-134.5 1018.5,-115.5 1097.5,-115.5 1097.5,-134.5"/>
<text text-anchor="middle" x="1058" y="-122.5" font-family="Helvetica,sans-Serif" font-size="10.00">maschine2.h</text>
</a>
</g>
</g>
<!-- Node7&#45;&gt;Node27 -->
<g id="edge29_Node000007_Node000027" class="edge">
<title>Node7&#45;&gt;Node27</title>
<g id="a_edge29_Node000007_Node000027"><a xlink:title=" ">
<path fill="none" stroke="#63b8ff" d="M967.04,-171.48C989.58,-160.21 1021.55,-144.23 1040.97,-134.52"/>
<polygon fill="#63b8ff" stroke="#63b8ff" points="965.39,-168.39 958.01,-175.99 968.52,-174.65 965.39,-168.39"/>
</a>
</g>
</g>
<!-- Node28 -->
<g id="Node000028" class="node">
<title>Node28</title>
<g id="a_Node000028"><a xlink:href="midi__surface_8h.html" target="_top" xlink:title=" ">
<polygon fill="white" stroke="#666666" points="729.5,-134.5 640.5,-134.5 640.5,-115.5 729.5,-115.5 729.5,-134.5"/>
<text text-anchor="middle" x="685" y="-122.5" font-family="Helvetica,sans-Serif" font-size="10.00">midi_surface.h</text>
</a>
</g>
</g>
<!-- Node7&#45;&gt;Node28 -->
<g id="edge30_Node000007_Node000028" class="edge">
<title>Node7&#45;&gt;Node28</title>
<g id="a_edge30_Node000007_Node000028"><a xlink:title=" ">
<path fill="none" stroke="#63b8ff" d="M892.48,-173.69C852.58,-164.77 794.59,-151.72 744,-140 736.41,-138.24 728.28,-136.33 720.55,-134.5"/>
<polygon fill="#63b8ff" stroke="#63b8ff" points="891.95,-177.16 902.47,-175.93 893.47,-170.33 891.95,-177.16"/>
</a>
</g>
</g>
<!-- Node7&#45;&gt;Node29 -->
<g id="edge49_Node000007_Node000029" class="edge">
<title>Node7&#45;&gt;Node29</title>
<g id="a_edge49_Node000007_Node000029"><a xlink:title=" ">
<path fill="none" stroke="#63b8ff" d="M878.59,-183.24C798.96,-180.36 667.2,-170.93 631,-140 611.34,-123.21 608.21,-90 607.89,-74.22"/>
<polygon fill="#63b8ff" stroke="#63b8ff" points="878.87,-186.75 888.98,-183.59 879.1,-179.76 878.87,-186.75"/>
</a>
</g>
</g>
<!-- Node36 -->
<g id="Node000036" class="node">
<title>Node36</title>
<g id="a_Node000036"><a xlink:href="osc_8h.html" target="_top" xlink:title=" ">
<polygon fill="white" stroke="#666666" points="1394,-134.5 1352,-134.5 1352,-115.5 1394,-115.5 1394,-134.5"/>
<text text-anchor="middle" x="1373" y="-122.5" font-family="Helvetica,sans-Serif" font-size="10.00">osc.h</text>
</a>
</g>
</g>
<!-- Node7&#45;&gt;Node36 -->
<g id="edge43_Node000007_Node000036" class="edge">
<title>Node7&#45;&gt;Node36</title>
<g id="a_edge43_Node000007_Node000036"><a xlink:title=" ">
<path fill="none" stroke="#63b8ff" d="M1003.39,-178.03C1075.14,-170.3 1196.38,-156.34 1300,-140 1317.59,-137.23 1337.43,-133.37 1351.98,-130.41"/>
<polygon fill="#63b8ff" stroke="#63b8ff" points="1002.74,-174.58 993.17,-179.13 1003.49,-181.54 1002.74,-174.58"/>
</a>
</g>
</g>
<!-- Node42 -->
<g id="Node000042" class="node">
<title>Node42</title>
<g id="a_Node000042"><a xlink:href="us2400__control__protocol_8h.html" target="_top" xlink:title=" ">
<polygon fill="white" stroke="#666666" points="1670.5,-134.5 1525.5,-134.5 1525.5,-115.5 1670.5,-115.5 1670.5,-134.5"/>
<text text-anchor="middle" x="1598" y="-122.5" font-family="Helvetica,sans-Serif" font-size="10.00">us2400_control_protocol.h</text>
</a>
</g>
</g>
<!-- Node7&#45;&gt;Node42 -->
<g id="edge50_Node000007_Node000042" class="edge">
<title>Node7&#45;&gt;Node42</title>
<g id="a_edge50_Node000007_Node000042"><a xlink:title=" ">
<path fill="none" stroke="#63b8ff" d="M1003.26,-181.56C1108.97,-176.15 1330.16,-163.01 1516,-140 1527.9,-138.53 1540.7,-136.54 1552.57,-134.52"/>
<polygon fill="#63b8ff" stroke="#63b8ff" points="1002.9,-178.07 993.09,-182.07 1003.26,-185.06 1002.9,-178.07"/>
</a>
</g>
</g>
<!-- Node44 -->
<g id="Node000044" class="node">
<title>Node44</title>
<g id="a_Node000044"><a xlink:href="wiimote_8h.html" target="_top" xlink:title=" ">
<polygon fill="white" stroke="#666666" points="1219.5,-134.5 1154.5,-134.5 1154.5,-115.5 1219.5,-115.5 1219.5,-134.5"/>
<text text-anchor="middle" x="1187" y="-122.5" font-family="Helvetica,sans-Serif" font-size="10.00">wiimote.h</text>
</a>
</g>
</g>
<!-- Node7&#45;&gt;Node44 -->
<g id="edge52_Node000007_Node000044" class="edge">
<title>Node7&#45;&gt;Node44</title>
<g id="a_edge52_Node000007_Node000044"><a xlink:title=" ">
<path fill="none" stroke="#63b8ff" d="M993,-173.91C1033.29,-165.45 1090.41,-152.91 1140,-140 1146.26,-138.37 1152.95,-136.47 1159.25,-134.61"/>
<polygon fill="#63b8ff" stroke="#63b8ff" points="992.21,-170.5 983.13,-175.97 993.64,-177.35 992.21,-170.5"/>
</a>
</g>
</g>
<!-- Node10 -->
<g id="Node000010" class="node">
<title>Node10</title>
<g id="a_Node000010"><a xlink:href="button__config__widget_8h.html" target="_top" xlink:title=" ">
<polygon fill="white" stroke="#666666" points="1812,-19 1682,-19 1682,0 1812,0 1812,-19"/>
<text text-anchor="middle" x="1747" y="-7" font-family="Helvetica,sans-Serif" font-size="10.00">button_config_widget.h</text>
</a>
</g>
</g>
<!-- Node9&#45;&gt;Node10 -->
<g id="edge11_Node000009_Node000010" class="edge">
<title>Node9&#45;&gt;Node10</title>
<g id="a_edge11_Node000009_Node000010"><a xlink:title=" ">
<path fill="none" stroke="#63b8ff" d="M1501.45,-113.11C1506.34,-111.98 1511.27,-110.92 1516,-110 1573.05,-98.94 1736.84,-117.83 1775,-74 1789.4,-57.46 1769.17,-32.34 1756.28,-19.2"/>
<polygon fill="#63b8ff" stroke="#63b8ff" points="1500.47,-109.75 1491.56,-115.48 1502.1,-116.56 1500.47,-109.75"/>
</a>
</g>
</g>
<!-- Node11 -->
<g id="Node000011" class="node">
<title>Node11</title>
<g id="a_Node000011"><a xlink:href="jump__distance__widget_8h.html" target="_top" xlink:title=" ">
<polygon fill="white" stroke="#666666" points="1766.5,-74 1631.5,-74 1631.5,-55 1766.5,-55 1766.5,-74"/>
<text text-anchor="middle" x="1699" y="-62" font-family="Helvetica,sans-Serif" font-size="10.00">jump_distance_widget.h</text>
</a>
</g>
</g>
<!-- Node9&#45;&gt;Node11 -->
<g id="edge12_Node000009_Node000011" class="edge">
<title>Node9&#45;&gt;Node11</title>
<g id="a_edge12_Node000009_Node000011"><a xlink:title=" ">
<path fill="none" stroke="#63b8ff" d="M1504.04,-112.96C1508.08,-111.96 1512.12,-110.96 1516,-110 1567.27,-97.36 1626.68,-82.96 1663.56,-74.05"/>
<polygon fill="#63b8ff" stroke="#63b8ff" points="1502.9,-109.64 1494.05,-115.45 1504.6,-116.43 1502.9,-109.64"/>
</a>
</g>
</g>
<!-- Node11&#45;&gt;Node10 -->
<g id="edge13_Node000011_Node000010" class="edge">
<title>Node11&#45;&gt;Node10</title>
<g id="a_edge13_Node000011_Node000010"><a xlink:title=" ">
<path fill="none" stroke="#63b8ff" d="M1713.73,-47.24C1722.14,-37.95 1732.35,-26.68 1739.22,-19.09"/>
<polygon fill="#63b8ff" stroke="#63b8ff" points="1711.04,-44.99 1706.93,-54.75 1716.23,-49.69 1711.04,-44.99"/>
</a>
</g>
</g>
<!-- Node13 -->
<g id="Node000013" class="node">
<title>Node13</title>
<g id="a_Node000013"><a xlink:href="faderport_2gui_8h.html" target="_top" xlink:title=" ">
<polygon fill="white" stroke="#666666" points="860.5,-19 819.5,-19 819.5,0 860.5,0 860.5,-19"/>
<text text-anchor="middle" x="840" y="-7" font-family="Helvetica,sans-Serif" font-size="10.00">gui.h</text>
</a>
</g>
</g>
<!-- Node12&#45;&gt;Node13 -->
<g id="edge15_Node000012_Node000013" class="edge">
<title>Node12&#45;&gt;Node13</title>
<g id="a_edge15_Node000012_Node000013"><a xlink:title=" ">
<path fill="none" stroke="#63b8ff" d="M776.4,-49.7C792.07,-40.04 812.51,-27.44 825.93,-19.17"/>
<polygon fill="#63b8ff" stroke="#63b8ff" points="774.49,-46.76 767.82,-54.98 778.17,-52.72 774.49,-46.76"/>
</a>
</g>
</g>
<!-- Node15 -->
<g id="Node000015" class="node">
<title>Node15</title>
<g id="a_Node000015"><a xlink:href="faderport8_2gui_8h.html" target="_top" xlink:title=" ">
<polygon fill="white" stroke="#666666" points="848.5,-74 807.5,-74 807.5,-55 848.5,-55 848.5,-74"/>
<text text-anchor="middle" x="828" y="-62" font-family="Helvetica,sans-Serif" font-size="10.00">gui.h</text>
</a>
</g>
</g>
<!-- Node14&#45;&gt;Node15 -->
<g id="edge17_Node000014_Node000015" class="edge">
<title>Node14&#45;&gt;Node15</title>
<g id="a_edge17_Node000014_Node000015"><a xlink:title=" ">
<path fill="none" stroke="#63b8ff" d="M825.97,-105.16C826.5,-94.74 827.14,-82.3 827.56,-74.17"/>
<polygon fill="#63b8ff" stroke="#63b8ff" points="822.46,-105.2 825.44,-115.37 829.45,-105.56 822.46,-105.2"/>
</a>
</g>
</g>
<!-- Node18 -->
<g id="Node000018" class="node">
<title>Node18</title>
<g id="a_Node000018"><a xlink:href="launch__control__xl_2gui_8h.html" target="_top" xlink:title=" ">
<polygon fill="white" stroke="#666666" points="1864.5,-74 1823.5,-74 1823.5,-55 1864.5,-55 1864.5,-74"/>
<text text-anchor="middle" x="1844" y="-62" font-family="Helvetica,sans-Serif" font-size="10.00">gui.h</text>
</a>
</g>
</g>
<!-- Node17&#45;&gt;Node18 -->
<g id="edge20_Node000017_Node000018" class="edge">
<title>Node17&#45;&gt;Node18</title>
<g id="a_edge20_Node000017_Node000018"><a xlink:title=" ">
<path fill="none" stroke="#63b8ff" d="M1767.47,-110.27C1786.56,-99.1 1812.91,-83.69 1829.18,-74.17"/>
<polygon fill="#63b8ff" stroke="#63b8ff" points="1765.62,-107.3 1758.76,-115.37 1769.15,-113.34 1765.62,-107.3"/>
</a>
</g>
</g>
<!-- Node20 -->
<g id="Node000020" class="node">
<title>Node20</title>
<g id="a_Node000020"><a xlink:href="launchkey__4_2gui_8h.html" target="_top" xlink:title=" ">
<polygon fill="white" stroke="#666666" points="375.5,-19 334.5,-19 334.5,0 375.5,0 375.5,-19"/>
<text text-anchor="middle" x="355" y="-7" font-family="Helvetica,sans-Serif" font-size="10.00">gui.h</text>
</a>
</g>
</g>
<!-- Node19&#45;&gt;Node20 -->
<g id="edge22_Node000019_Node000020" class="edge">
<title>Node19&#45;&gt;Node20</title>
<g id="a_edge22_Node000019_Node000020"><a xlink:title=" ">
<path fill="none" stroke="#63b8ff" d="M393.71,-47.8C383.96,-38.41 371.95,-26.83 363.91,-19.09"/>
<polygon fill="#63b8ff" stroke="#63b8ff" points="391.29,-50.33 400.92,-54.75 396.15,-45.29 391.29,-50.33"/>
</a>
</g>
</g>
<!-- Node22 -->
<g id="Node000022" class="node">
<title>Node22</title>
<g id="a_Node000022"><a xlink:href="launchpad__pro_2gui_8h.html" target="_top" xlink:title=" ">
<polygon fill="white" stroke="#666666" points="978.5,-19 937.5,-19 937.5,0 978.5,0 978.5,-19"/>
<text text-anchor="middle" x="958" y="-7" font-family="Helvetica,sans-Serif" font-size="10.00">gui.h</text>
</a>
</g>
</g>
<!-- Node21&#45;&gt;Node22 -->
<g id="edge24_Node000021_Node000022" class="edge">
<title>Node21&#45;&gt;Node22</title>
<g id="a_edge24_Node000021_Node000022"><a xlink:title=" ">
<path fill="none" stroke="#63b8ff" d="M955.42,-44.66C956.08,-35.93 956.83,-25.99 957.35,-19.09"/>
<polygon fill="#63b8ff" stroke="#63b8ff" points="951.92,-44.51 954.66,-54.75 958.9,-45.04 951.92,-44.51"/>
</a>
</g>
</g>
<!-- Node24 -->
<g id="Node000024" class="node">
<title>Node24</title>
<g id="a_Node000024"><a xlink:href="launchpad__x_2gui_8h.html" target="_top" xlink:title=" ">
<polygon fill="white" stroke="#666666" points="919.5,-19 878.5,-19 878.5,0 919.5,0 919.5,-19"/>
<text text-anchor="middle" x="899" y="-7" font-family="Helvetica,sans-Serif" font-size="10.00">gui.h</text>
</a>
</g>
</g>
<!-- Node23&#45;&gt;Node24 -->
<g id="edge26_Node000023_Node000024" class="edge">
<title>Node23&#45;&gt;Node24</title>
<g id="a_edge26_Node000023_Node000024"><a xlink:title=" ">
<path fill="none" stroke="#63b8ff" d="M893.2,-44.66C894.68,-35.93 896.37,-25.99 897.54,-19.09"/>
<polygon fill="#63b8ff" stroke="#63b8ff" points="889.71,-44.3 891.49,-54.75 896.61,-45.48 889.71,-44.3"/>
</a>
</g>
</g>
<!-- Node25&#45;&gt;Node26 -->
<g id="edge28_Node000025_Node000026" class="edge">
<title>Node25&#45;&gt;Node26</title>
<g id="a_edge28_Node000025_Node000026"><a xlink:title=" ">
<path fill="none" stroke="#63b8ff" d="M169.7,-107.45C161,-96.62 149.99,-82.91 142.96,-74.17"/>
<polygon fill="#63b8ff" stroke="#63b8ff" points="167.07,-109.76 176.06,-115.37 172.53,-105.38 167.07,-109.76"/>
</a>
</g>
</g>
<!-- Node28&#45;&gt;Node4 -->
<g id="edge31_Node000028_Node000004" class="edge">
<title>Node28&#45;&gt;Node4</title>
<g id="a_edge31_Node000028_Node000004"><a xlink:title=" ">
<path fill="none" stroke="#63b8ff" d="M629.82,-115.66C617.38,-113.79 604.24,-111.82 592,-110 494.39,-95.51 379.1,-78.72 322.66,-70.53"/>
<polygon fill="#63b8ff" stroke="#63b8ff" points="629.66,-119.17 640.07,-117.2 630.7,-112.25 629.66,-119.17"/>
</a>
</g>
</g>
<!-- Node28&#45;&gt;Node12 -->
<g id="edge32_Node000028_Node000012" class="edge">
<title>Node28&#45;&gt;Node12</title>
<g id="a_edge32_Node000028_Node000012"><a xlink:title=" ">
<path fill="none" stroke="#63b8ff" d="M703.02,-108.72C716,-97.71 733.06,-83.25 743.78,-74.17"/>
<polygon fill="#63b8ff" stroke="#63b8ff" points="700.55,-106.23 695.18,-115.37 705.07,-111.57 700.55,-106.23"/>
</a>
</g>
</g>
<!-- Node28&#45;&gt;Node19 -->
<g id="edge33_Node000028_Node000019" class="edge">
<title>Node28&#45;&gt;Node19</title>
<g id="a_edge33_Node000028_Node000019"><a xlink:title=" ">
<path fill="none" stroke="#63b8ff" d="M635.14,-113.39C582.04,-102.1 499.04,-84.44 450.04,-74.02"/>
<polygon fill="#63b8ff" stroke="#63b8ff" points="634.5,-116.84 645.01,-115.49 635.96,-109.99 634.5,-116.84"/>
</a>
</g>
</g>
<!-- Node28&#45;&gt;Node21 -->
<g id="edge34_Node000028_Node000021" class="edge">
<title>Node28&#45;&gt;Node21</title>
<g id="a_edge34_Node000028_Node000021"><a xlink:title=" ">
<path fill="none" stroke="#63b8ff" d="M736.54,-113.42C784.01,-103.57 856.36,-88.29 919,-74 922.17,-73.28 925.5,-72.5 928.78,-71.71"/>
<polygon fill="#63b8ff" stroke="#63b8ff" points="735.58,-110.04 726.5,-115.49 737,-116.89 735.58,-110.04"/>
</a>
</g>
</g>
<!-- Node28&#45;&gt;Node23 -->
<g id="edge35_Node000028_Node000023" class="edge">
<title>Node28&#45;&gt;Node23</title>
<g id="a_edge35_Node000028_Node000023"><a xlink:title=" ">
<path fill="none" stroke="#63b8ff" d="M724.46,-112.74C767.79,-100.37 835.7,-80.99 869.49,-71.35"/>
<polygon fill="#63b8ff" stroke="#63b8ff" points="723.46,-109.38 714.81,-115.49 725.39,-116.12 723.46,-109.38"/>
</a>
</g>
</g>
<!-- Node28&#45;&gt;Node29 -->
<g id="edge36_Node000028_Node000029" class="edge">
<title>Node28&#45;&gt;Node29</title>
<g id="a_edge36_Node000028_Node000029"><a xlink:title=" ">
<path fill="none" stroke="#63b8ff" d="M665.31,-109.04C650.77,-97.99 631.48,-83.34 619.41,-74.17"/>
<polygon fill="#63b8ff" stroke="#63b8ff" points="663.56,-112.11 673.64,-115.37 667.79,-106.53 663.56,-112.11"/>
</a>
</g>
</g>
<!-- Node30 -->
<g id="Node000030" class="node">
<title>Node30</title>
<g id="a_Node000030"><a xlink:href="cues_8h.html" target="_top" xlink:title=" ">
<polygon fill="white" stroke="#666666" points="442,-19 394,-19 394,0 442,0 442,-19"/>
<text text-anchor="middle" x="418" y="-7" font-family="Helvetica,sans-Serif" font-size="10.00">cues.h</text>
</a>
</g>
</g>
<!-- Node29&#45;&gt;Node30 -->
<g id="edge37_Node000029_Node000030" class="edge">
<title>Node29&#45;&gt;Node30</title>
<g id="a_edge37_Node000029_Node000030"><a xlink:title=" ">
<path fill="none" stroke="#63b8ff" d="M570.66,-53.08C532.53,-42.45 474.48,-26.25 442.05,-17.21"/>
<polygon fill="#63b8ff" stroke="#63b8ff" points="569.8,-56.48 580.37,-55.79 571.68,-49.74 569.8,-56.48"/>
</a>
</g>
</g>
<!-- Node31 -->
<g id="Node000031" class="node">
<title>Node31</title>
<g id="a_Node000031"><a xlink:href="push2_2gui_8h.html" target="_top" xlink:title=" ">
<polygon fill="white" stroke="#666666" points="501.5,-19 460.5,-19 460.5,0 501.5,0 501.5,-19"/>
<text text-anchor="middle" x="481" y="-7" font-family="Helvetica,sans-Serif" font-size="10.00">gui.h</text>
</a>
</g>
</g>
<!-- Node29&#45;&gt;Node31 -->
<g id="edge38_Node000029_Node000031" class="edge">
<title>Node29&#45;&gt;Node31</title>
<g id="a_edge38_Node000029_Node000031"><a xlink:title=" ">
<path fill="none" stroke="#63b8ff" d="M578.12,-51.03C554.63,-41.23 522.53,-27.83 501.78,-19.17"/>
<polygon fill="#63b8ff" stroke="#63b8ff" points="577.02,-54.36 587.6,-54.98 579.71,-47.9 577.02,-54.36"/>
</a>
</g>
</g>
<!-- Node32 -->
<g id="Node000032" class="node">
<title>Node32</title>
<g id="a_Node000032"><a xlink:href="surfaces_2push2_2mix_8h.html" target="_top" xlink:title=" ">
<polygon fill="white" stroke="#666666" points="564,-19 520,-19 520,0 564,0 564,-19"/>
<text text-anchor="middle" x="542" y="-7" font-family="Helvetica,sans-Serif" font-size="10.00">mix.h</text>
</a>
</g>
</g>
<!-- Node29&#45;&gt;Node32 -->
<g id="edge39_Node000029_Node000032" class="edge">
<title>Node29&#45;&gt;Node32</title>
<g id="a_edge39_Node000029_Node000032"><a xlink:title=" ">
<path fill="none" stroke="#63b8ff" d="M589.45,-48.6C577.62,-39.11 562.71,-27.13 552.8,-19.17"/>
<polygon fill="#63b8ff" stroke="#63b8ff" points="587.41,-51.45 597.4,-54.98 591.79,-45.99 587.41,-51.45"/>
</a>
</g>
</g>
<!-- Node33 -->
<g id="Node000033" class="node">
<title>Node33</title>
<g id="a_Node000033"><a xlink:href="surfaces_2push2_2scale_8h.html" target="_top" xlink:title=" ">
<polygon fill="white" stroke="#666666" points="633.5,-19 582.5,-19 582.5,0 633.5,0 633.5,-19"/>
<text text-anchor="middle" x="608" y="-7" font-family="Helvetica,sans-Serif" font-size="10.00">scale.h</text>
</a>
</g>
</g>
<!-- Node29&#45;&gt;Node33 -->
<g id="edge40_Node000029_Node000033" class="edge">
<title>Node29&#45;&gt;Node33</title>
<g id="a_edge40_Node000029_Node000033"><a xlink:title=" ">
<path fill="none" stroke="#63b8ff" d="M608,-44.66C608,-35.93 608,-25.99 608,-19.09"/>
<polygon fill="#63b8ff" stroke="#63b8ff" points="604.5,-44.75 608,-54.75 611.5,-44.75 604.5,-44.75"/>
</a>
</g>
</g>
<!-- Node34 -->
<g id="Node000034" class="node">
<title>Node34</title>
<g id="a_Node000034"><a xlink:href="libs_2surfaces_2push2_2splash_8h.html" target="_top" xlink:title=" ">
<polygon fill="white" stroke="#666666" points="708.5,-19 651.5,-19 651.5,0 708.5,0 708.5,-19"/>
<text text-anchor="middle" x="680" y="-7" font-family="Helvetica,sans-Serif" font-size="10.00">splash.h</text>
</a>
</g>
</g>
<!-- Node29&#45;&gt;Node34 -->
<g id="edge41_Node000029_Node000034" class="edge">
<title>Node29&#45;&gt;Node34</title>
<g id="a_edge41_Node000029_Node000034"><a xlink:title=" ">
<path fill="none" stroke="#63b8ff" d="M627.87,-48.88C640.82,-39.34 657.3,-27.21 668.22,-19.17"/>
<polygon fill="#63b8ff" stroke="#63b8ff" points="625.55,-46.24 619.57,-54.98 629.7,-51.88 625.55,-46.24"/>
</a>
</g>
</g>
<!-- Node35 -->
<g id="Node000035" class="node">
<title>Node35</title>
<g id="a_Node000035"><a xlink:href="track__mix_8h.html" target="_top" xlink:title=" ">
<polygon fill="white" stroke="#666666" points="801,-19 727,-19 727,0 801,0 801,-19"/>
<text text-anchor="middle" x="764" y="-7" font-family="Helvetica,sans-Serif" font-size="10.00">track_mix.h</text>
</a>
</g>
</g>
<!-- Node29&#45;&gt;Node35 -->
<g id="edge42_Node000029_Node000035" class="edge">
<title>Node29&#45;&gt;Node35</title>
<g id="a_edge42_Node000029_Node000035"><a xlink:title=" ">
<path fill="none" stroke="#63b8ff" d="M642.82,-51.67C671.91,-41.79 712.7,-27.93 738.74,-19.08"/>
<polygon fill="#63b8ff" stroke="#63b8ff" points="641.41,-48.45 633.06,-54.98 643.66,-55.08 641.41,-48.45"/>
</a>
</g>
</g>
<!-- Node37 -->
<g id="Node000037" class="node">
<title>Node37</title>
<g id="a_Node000037"><a xlink:href="osc__cue__observer_8h.html" target="_top" xlink:title=" ">
<polygon fill="white" stroke="#666666" points="1389,-74 1277,-74 1277,-55 1389,-55 1389,-74"/>
<text text-anchor="middle" x="1333" y="-62" font-family="Helvetica,sans-Serif" font-size="10.00">osc_cue_observer.h</text>
</a>
</g>
</g>
<!-- Node36&#45;&gt;Node37 -->
<g id="edge44_Node000036_Node000037" class="edge">
<title>Node36&#45;&gt;Node37</title>
<g id="a_edge44_Node000036_Node000037"><a xlink:title=" ">
<path fill="none" stroke="#63b8ff" d="M1361.24,-106.8C1353.91,-96.08 1344.78,-82.73 1338.93,-74.17"/>
<polygon fill="#63b8ff" stroke="#63b8ff" points="1358.56,-109.09 1367.1,-115.37 1364.34,-105.14 1358.56,-109.09"/>
</a>
</g>
</g>
<!-- Node38 -->
<g id="Node000038" class="node">
<title>Node38</title>
<g id="a_Node000038"><a xlink:href="osc__global__observer_8h.html" target="_top" xlink:title=" ">
<polygon fill="white" stroke="#666666" points="1532.5,-74 1407.5,-74 1407.5,-55 1532.5,-55 1532.5,-74"/>
<text text-anchor="middle" x="1470" y="-62" font-family="Helvetica,sans-Serif" font-size="10.00">osc_global_observer.h</text>
</a>
</g>
</g>
<!-- Node36&#45;&gt;Node38 -->
<g id="edge45_Node000036_Node000038" class="edge">
<title>Node36&#45;&gt;Node38</title>
<g id="a_edge45_Node000036_Node000038"><a xlink:title=" ">
<path fill="none" stroke="#63b8ff" d="M1396.02,-110.12C1414.51,-98.96 1439.92,-83.64 1455.63,-74.17"/>
<polygon fill="#63b8ff" stroke="#63b8ff" points="1394.07,-107.21 1387.31,-115.37 1397.68,-113.2 1394.07,-107.21"/>
</a>
</g>
</g>
<!-- Node39 -->
<g id="Node000039" class="node">
<title>Node39</title>
<g id="a_Node000039"><a xlink:href="osc__gui_8h.html" target="_top" xlink:title=" ">
<polygon fill="white" stroke="#666666" points="1613,-74 1551,-74 1551,-55 1613,-55 1613,-74"/>
<text text-anchor="middle" x="1582" y="-62" font-family="Helvetica,sans-Serif" font-size="10.00">osc_gui.h</text>
</a>
</g>
</g>
<!-- Node36&#45;&gt;Node39 -->
<g id="edge46_Node000036_Node000039" class="edge">
<title>Node36&#45;&gt;Node39</title>
<g id="a_edge46_Node000036_Node000039"><a xlink:title=" ">
<path fill="none" stroke="#63b8ff" d="M1399.3,-111.38C1400.54,-110.9 1401.78,-110.43 1403,-110 1430.09,-100.41 1507.2,-82.39 1550.86,-72.48"/>
<polygon fill="#63b8ff" stroke="#63b8ff" points="1397.7,-108.26 1389.9,-115.42 1400.47,-114.69 1397.7,-108.26"/>
</a>
</g>
</g>
<!-- Node40 -->
<g id="Node000040" class="node">
<title>Node40</title>
<g id="a_Node000040"><a xlink:href="osc__route__observer_8h.html" target="_top" xlink:title=" ">
<polygon fill="white" stroke="#666666" points="1117,-74 997,-74 997,-55 1117,-55 1117,-74"/>
<text text-anchor="middle" x="1057" y="-62" font-family="Helvetica,sans-Serif" font-size="10.00">osc_route_observer.h</text>
</a>
</g>
</g>
<!-- Node36&#45;&gt;Node40 -->
<g id="edge47_Node000036_Node000040" class="edge">
<title>Node36&#45;&gt;Node40</title>
<g id="a_edge47_Node000036_Node000040"><a xlink:title=" ">
<path fill="none" stroke="#63b8ff" d="M1343.9,-111.8C1341.92,-111.14 1339.94,-110.53 1338,-110 1297.52,-98.85 1186.89,-82.89 1117.13,-73.42"/>
<polygon fill="#63b8ff" stroke="#63b8ff" points="1343.05,-115.21 1353.64,-115.36 1345.45,-108.64 1343.05,-115.21"/>
</a>
</g>
</g>
<!-- Node41 -->
<g id="Node000041" class="node">
<title>Node41</title>
<g id="a_Node000041"><a xlink:href="osc__select__observer_8h.html" target="_top" xlink:title=" ">
<polygon fill="white" stroke="#666666" points="1259,-74 1135,-74 1135,-55 1259,-55 1259,-74"/>
<text text-anchor="middle" x="1197" y="-62" font-family="Helvetica,sans-Serif" font-size="10.00">osc_select_observer.h</text>
</a>
</g>
</g>
<!-- Node36&#45;&gt;Node41 -->
<g id="edge48_Node000036_Node000041" class="edge">
<title>Node36&#45;&gt;Node41</title>
<g id="a_edge48_Node000036_Node000041"><a xlink:title=" ">
<path fill="none" stroke="#63b8ff" d="M1342.91,-111.8C1341.26,-111.18 1339.61,-110.58 1338,-110 1299.81,-96.36 1255.05,-82.6 1226.38,-74.07"/>
<polygon fill="#63b8ff" stroke="#63b8ff" points="1341.78,-115.11 1352.37,-115.45 1344.3,-108.58 1341.78,-115.11"/>
</a>
</g>
</g>
<!-- Node42&#45;&gt;Node43 -->
<g id="edge51_Node000042_Node000043" class="edge">
<title>Node42&#45;&gt;Node43</title>
<g id="a_edge51_Node000042_Node000043"><a xlink:title=" ">
<path fill="none" stroke="#63b8ff" d="M1657.45,-113.71C1725.54,-101.83 1832.88,-82.8 1873,-74 1876,-73.34 1879.15,-72.6 1882.26,-71.83"/>
<polygon fill="#63b8ff" stroke="#63b8ff" points="1656.53,-110.32 1647.28,-115.48 1657.74,-117.21 1656.53,-110.32"/>
</a>
</g>
</g>
</g>
</svg>
