<?xml version="1.0" encoding="UTF-8" standalone="no"?>
<!DOCTYPE svg PUBLIC "-//W3C//DTD SVG 1.1//EN"
 "http://www.w3.org/Graphics/SVG/1.1/DTD/svg11.dtd">
<!-- Generated by graphviz version 2.43.0 (0)
 -->
<!-- Title: Curve.h Pages: 1 -->
<svg width="206pt" height="82pt"
 viewBox="0.00 0.00 205.50 82.00" xmlns="http://www.w3.org/2000/svg" xmlns:xlink="http://www.w3.org/1999/xlink">
<g id="graph0" class="graph" transform="scale(1 1) rotate(0) translate(4 78)">
<title>Curve.h</title>
<!-- Node1 -->
<g id="Node000001" class="node">
<title>Node1</title>
<g id="a_Node000001"><a xlink:title=" ">
<polygon fill="#999999" stroke="#666666" points="129.5,-74 75.5,-74 75.5,-55 129.5,-55 129.5,-74"/>
<text text-anchor="middle" x="102.5" y="-62" font-family="Helvetica,sans-Serif" font-size="10.00">Curve.h</text>
</a>
</g>
</g>
<!-- Node2 -->
<g id="Node000002" class="node">
<title>Node2</title>
<g id="a_Node000002"><a xlink:href="crossfade__edit_8h.html" target="_top" xlink:title=" ">
<polygon fill="white" stroke="#666666" points="97,-19 0,-19 0,0 97,0 97,-19"/>
<text text-anchor="middle" x="48.5" y="-7" font-family="Helvetica,sans-Serif" font-size="10.00">crossfade_edit.h</text>
</a>
</g>
</g>
<!-- Node1&#45;&gt;Node2 -->
<g id="edge1_Node000001_Node000002" class="edge">
<title>Node1&#45;&gt;Node2</title>
<g id="a_edge1_Node000001_Node000002"><a xlink:title=" ">
<path fill="none" stroke="#63b8ff" d="M86.22,-47.52C76.7,-38.18 65.06,-26.75 57.25,-19.09"/>
<polygon fill="#63b8ff" stroke="#63b8ff" points="83.99,-50.24 93.58,-54.75 88.9,-45.25 83.99,-50.24"/>
</a>
</g>
</g>
<!-- Node3 -->
<g id="Node000003" class="node">
<title>Node3</title>
<g id="a_Node000003"><a xlink:href="disk__reader_8h.html" target="_top" xlink:title=" ">
<polygon fill="white" stroke="#666666" points="197.5,-19 115.5,-19 115.5,0 197.5,0 197.5,-19"/>
<text text-anchor="middle" x="156.5" y="-7" font-family="Helvetica,sans-Serif" font-size="10.00">disk_reader.h</text>
</a>
</g>
</g>
<!-- Node1&#45;&gt;Node3 -->
<g id="edge2_Node000001_Node000003" class="edge">
<title>Node1&#45;&gt;Node3</title>
<g id="a_edge2_Node000001_Node000003"><a xlink:title=" ">
<path fill="none" stroke="#63b8ff" d="M118.78,-47.52C128.3,-38.18 139.94,-26.75 147.75,-19.09"/>
<polygon fill="#63b8ff" stroke="#63b8ff" points="116.1,-45.25 111.42,-54.75 121.01,-50.24 116.1,-45.25"/>
</a>
</g>
</g>
</g>
</svg>
