<?xml version="1.0" encoding="UTF-8" standalone="no"?>
<!DOCTYPE svg PUBLIC "-//W3C//DTD SVG 1.1//EN"
 "http://www.w3.org/Graphics/SVG/1.1/DTD/svg11.dtd">
<!-- Generated by graphviz version 2.43.0 (0)
 -->
<!-- Title: panners Pages: 1 -->
<svg width="419pt" height="141pt"
 viewBox="0.00 0.00 419.00 141.00" xmlns="http://www.w3.org/2000/svg" xmlns:xlink="http://www.w3.org/1999/xlink">
<g id="graph0" class="graph" transform="scale(1 1) rotate(0) translate(4 137)">
<title>panners</title>
<g id="clust1" class="cluster">
<title>clusterdir_6719ab1f1f7655efc2fa43f7eb574fd1</title>
<g id="a_clust1"><a xlink:href="dir_6719ab1f1f7655efc2fa43f7eb574fd1.html" target="_top" xlink:title="libs">
<polygon fill="#daedff" stroke="#404040" stroke-dasharray="5,2" points="8,-8 8,-125 403,-125 403,-8 8,-8"/>
<text text-anchor="middle" x="205.5" y="-113" font-family="Helvetica,sans-Serif" font-size="10.00">libs</text>
</a>
</g>
</g>
<g id="clust2" class="cluster">
<title>clusterdir_9b3cfbc7f0162ae42f310ec3db937c2e</title>
<g id="a_clust2"><a xlink:href="dir_9b3cfbc7f0162ae42f310ec3db937c2e.html" target="_top">
<polygon fill="#daedff" stroke="#404040" stroke-width="2" points="16,-63 16,-98 395,-98 395,-63 16,-63"/>
</a>
</g>
</g>
<!-- dir_89f63984a62c2b4aee0df15bab90aa64 -->
<g id="node1" class="node">
<title>dir_89f63984a62c2b4aee0df15bab90aa64</title>
<g id="a_node1"><a xlink:href="dir_89f63984a62c2b4aee0df15bab90aa64.html" target="_top" xlink:title="pbd">
<polygon fill="#4ea9ff" stroke="red" points="151.5,-35 116.5,-35 116.5,-16 151.5,-16 151.5,-35"/>
<text text-anchor="middle" x="134" y="-23" font-family="Helvetica,sans-Serif" font-size="10.00">pbd</text>
</a>
</g>
</g>
<!-- dir_e551ebda0baecb30d3d2e6aae42e8387 -->
<g id="node2" class="node">
<title>dir_e551ebda0baecb30d3d2e6aae42e8387</title>
<g id="a_node2"><a xlink:href="dir_e551ebda0baecb30d3d2e6aae42e8387.html" target="_top" xlink:title="ardour">
<polygon fill="#4ea9ff" stroke="red" points="232,-35 184,-35 184,-16 232,-16 232,-35"/>
<text text-anchor="middle" x="208" y="-23" font-family="Helvetica,sans-Serif" font-size="10.00">ardour</text>
</a>
</g>
</g>
<!-- dir_9b3cfbc7f0162ae42f310ec3db937c2e -->
<g id="node3" class="node">
<title>dir_9b3cfbc7f0162ae42f310ec3db937c2e</title>
<text text-anchor="middle" x="359" y="-78" font-family="Helvetica,sans-Serif" font-size="10.00">panners</text>
</g>
<!-- dir_6dfd7b6d1c78695abfe2bc90e96d1e7d -->
<g id="node4" class="node">
<title>dir_6dfd7b6d1c78695abfe2bc90e96d1e7d</title>
<g id="a_node4"><a xlink:href="dir_6dfd7b6d1c78695abfe2bc90e96d1e7d.html" target="_top" xlink:title="1in2out">
<polygon fill="#4ea9ff" stroke="#404040" points="312.5,-90 259.5,-90 259.5,-71 312.5,-71 312.5,-90"/>
<text text-anchor="middle" x="286" y="-78" font-family="Helvetica,sans-Serif" font-size="10.00">1in2out</text>
</a>
</g>
</g>
<!-- dir_6dfd7b6d1c78695abfe2bc90e96d1e7d&#45;&gt;dir_89f63984a62c2b4aee0df15bab90aa64 -->
<g id="edge1" class="edge">
<title>dir_6dfd7b6d1c78695abfe2bc90e96d1e7d&#45;&gt;dir_89f63984a62c2b4aee0df15bab90aa64</title>
<g id="a_edge1"><a xlink:href="dir_000000_000064.html" target="_top">
<path fill="none" stroke="#63b8ff" d="M269.12,-70.96C263.43,-68.25 257.01,-65.34 251,-63 220.95,-51.29 185.47,-40.65 161.52,-33.92"/>
<polygon fill="#63b8ff" stroke="#63b8ff" points="162.28,-30.5 151.7,-31.2 160.4,-37.24 162.28,-30.5"/>
</a>
</g>
<g id="a_edge1&#45;headlabel"><a xlink:href="dir_000000_000064.html" target="_top" xlink:title="3">
<text text-anchor="middle" x="166.5" y="-26.22" font-family="Helvetica,sans-Serif" font-size="10.00" fill="#63b8ff">3</text>
</a>
</g>
</g>
<!-- dir_6dfd7b6d1c78695abfe2bc90e96d1e7d&#45;&gt;dir_e551ebda0baecb30d3d2e6aae42e8387 -->
<g id="edge2" class="edge">
<title>dir_6dfd7b6d1c78695abfe2bc90e96d1e7d&#45;&gt;dir_e551ebda0baecb30d3d2e6aae42e8387</title>
<g id="a_edge2"><a xlink:href="dir_000000_000003.html" target="_top">
<path fill="none" stroke="#63b8ff" d="M273.47,-70.98C261.6,-62.92 243.54,-50.65 229.39,-41.03"/>
<polygon fill="#63b8ff" stroke="#63b8ff" points="231,-37.9 220.76,-35.17 227.06,-43.69 231,-37.9"/>
</a>
</g>
<g id="a_edge2&#45;headlabel"><a xlink:href="dir_000000_000003.html" target="_top" xlink:title="2">
<text text-anchor="middle" x="235.57" y="-35.07" font-family="Helvetica,sans-Serif" font-size="10.00" fill="#63b8ff">2</text>
</a>
</g>
</g>
<!-- dir_db04e035017b8cdc4ecb0d4513961d52 -->
<g id="node5" class="node">
<title>dir_db04e035017b8cdc4ecb0d4513961d52</title>
<g id="a_node5"><a xlink:href="dir_db04e035017b8cdc4ecb0d4513961d52.html" target="_top" xlink:title="2in2out">
<polygon fill="#4ea9ff" stroke="#404040" points="241.5,-90 188.5,-90 188.5,-71 241.5,-71 241.5,-90"/>
<text text-anchor="middle" x="215" y="-78" font-family="Helvetica,sans-Serif" font-size="10.00">2in2out</text>
</a>
</g>
</g>
<!-- dir_db04e035017b8cdc4ecb0d4513961d52&#45;&gt;dir_89f63984a62c2b4aee0df15bab90aa64 -->
<g id="edge3" class="edge">
<title>dir_db04e035017b8cdc4ecb0d4513961d52&#45;&gt;dir_89f63984a62c2b4aee0df15bab90aa64</title>
<g id="a_edge3"><a xlink:href="dir_000001_000064.html" target="_top">
<path fill="none" stroke="#63b8ff" d="M201.99,-70.98C189.54,-62.84 170.54,-50.41 155.79,-40.76"/>
<polygon fill="#63b8ff" stroke="#63b8ff" points="157.54,-37.72 147.25,-35.17 153.7,-43.57 157.54,-37.72"/>
</a>
</g>
<g id="a_edge3&#45;headlabel"><a xlink:href="dir_000001_000064.html" target="_top" xlink:title="3">
<text text-anchor="middle" x="162.1" y="-34.81" font-family="Helvetica,sans-Serif" font-size="10.00" fill="#63b8ff">3</text>
</a>
</g>
</g>
<!-- dir_db04e035017b8cdc4ecb0d4513961d52&#45;&gt;dir_e551ebda0baecb30d3d2e6aae42e8387 -->
<g id="edge4" class="edge">
<title>dir_db04e035017b8cdc4ecb0d4513961d52&#45;&gt;dir_e551ebda0baecb30d3d2e6aae42e8387</title>
<g id="a_edge4"><a xlink:href="dir_000001_000003.html" target="_top">
<path fill="none" stroke="#63b8ff" d="M213.84,-70.75C212.93,-63.8 211.61,-53.85 210.46,-45.13"/>
<polygon fill="#63b8ff" stroke="#63b8ff" points="213.91,-44.54 209.13,-35.09 206.97,-45.46 213.91,-44.54"/>
</a>
</g>
<g id="a_edge4&#45;headlabel"><a xlink:href="dir_000001_000003.html" target="_top" xlink:title="4">
<text text-anchor="middle" x="217.2" y="-45.24" font-family="Helvetica,sans-Serif" font-size="10.00" fill="#63b8ff">4</text>
</a>
</g>
</g>
<!-- dir_aecb3b1b21521d449549b86989efba4e -->
<g id="node6" class="node">
<title>dir_aecb3b1b21521d449549b86989efba4e</title>
<g id="a_node6"><a xlink:href="dir_aecb3b1b21521d449549b86989efba4e.html" target="_top" xlink:title="stereobalance">
<polygon fill="#4ea9ff" stroke="#404040" points="170,-90 84,-90 84,-71 170,-71 170,-90"/>
<text text-anchor="middle" x="127" y="-78" font-family="Helvetica,sans-Serif" font-size="10.00">stereobalance</text>
</a>
</g>
</g>
<!-- dir_aecb3b1b21521d449549b86989efba4e&#45;&gt;dir_89f63984a62c2b4aee0df15bab90aa64 -->
<g id="edge5" class="edge">
<title>dir_aecb3b1b21521d449549b86989efba4e&#45;&gt;dir_89f63984a62c2b4aee0df15bab90aa64</title>
<g id="a_edge5"><a xlink:href="dir_000082_000064.html" target="_top">
<path fill="none" stroke="#63b8ff" d="M128.16,-70.75C129.07,-63.8 130.39,-53.85 131.54,-45.13"/>
<polygon fill="#63b8ff" stroke="#63b8ff" points="135.03,-45.46 132.87,-35.09 128.09,-44.54 135.03,-45.46"/>
</a>
</g>
<g id="a_edge5&#45;headlabel"><a xlink:href="dir_000082_000064.html" target="_top" xlink:title="3">
<text text-anchor="middle" x="137.37" y="-46.9" font-family="Helvetica,sans-Serif" font-size="10.00" fill="#63b8ff">3</text>
</a>
</g>
</g>
<!-- dir_aecb3b1b21521d449549b86989efba4e&#45;&gt;dir_e551ebda0baecb30d3d2e6aae42e8387 -->
<g id="edge6" class="edge">
<title>dir_aecb3b1b21521d449549b86989efba4e&#45;&gt;dir_e551ebda0baecb30d3d2e6aae42e8387</title>
<g id="a_edge6"><a xlink:href="dir_000082_000003.html" target="_top">
<path fill="none" stroke="#63b8ff" d="M140.01,-70.98C152.46,-62.84 171.46,-50.41 186.21,-40.76"/>
<polygon fill="#63b8ff" stroke="#63b8ff" points="188.3,-43.57 194.75,-35.17 184.46,-37.72 188.3,-43.57"/>
</a>
</g>
<g id="a_edge6&#45;headlabel"><a xlink:href="dir_000082_000003.html" target="_top" xlink:title="4">
<text text-anchor="middle" x="186.84" y="-45.42" font-family="Helvetica,sans-Serif" font-size="10.00" fill="#63b8ff">4</text>
</a>
</g>
</g>
<!-- dir_620b4a47a39cd7a0656df3fc097b8da9 -->
<g id="node7" class="node">
<title>dir_620b4a47a39cd7a0656df3fc097b8da9</title>
<g id="a_node7"><a xlink:href="dir_620b4a47a39cd7a0656df3fc097b8da9.html" target="_top" xlink:title="vbap">
<polygon fill="#4ea9ff" stroke="#404040" points="65.5,-90 24.5,-90 24.5,-71 65.5,-71 65.5,-90"/>
<text text-anchor="middle" x="45" y="-78" font-family="Helvetica,sans-Serif" font-size="10.00">vbap</text>
</a>
</g>
</g>
<!-- dir_620b4a47a39cd7a0656df3fc097b8da9&#45;&gt;dir_89f63984a62c2b4aee0df15bab90aa64 -->
<g id="edge7" class="edge">
<title>dir_620b4a47a39cd7a0656df3fc097b8da9&#45;&gt;dir_89f63984a62c2b4aee0df15bab90aa64</title>
<g id="a_edge7"><a xlink:href="dir_000102_000064.html" target="_top">
<path fill="none" stroke="#63b8ff" d="M59.3,-70.98C73.1,-62.77 94.24,-50.18 110.51,-40.49"/>
<polygon fill="#63b8ff" stroke="#63b8ff" points="112.64,-43.29 119.44,-35.17 109.06,-37.28 112.64,-43.29"/>
</a>
</g>
<g id="a_edge7&#45;headlabel"><a xlink:href="dir_000102_000064.html" target="_top" xlink:title="2">
<text text-anchor="middle" x="111" y="-45.07" font-family="Helvetica,sans-Serif" font-size="10.00" fill="#63b8ff">2</text>
</a>
</g>
</g>
<!-- dir_620b4a47a39cd7a0656df3fc097b8da9&#45;&gt;dir_e551ebda0baecb30d3d2e6aae42e8387 -->
<g id="edge8" class="edge">
<title>dir_620b4a47a39cd7a0656df3fc097b8da9&#45;&gt;dir_e551ebda0baecb30d3d2e6aae42e8387</title>
<g id="a_edge8"><a xlink:href="dir_000102_000003.html" target="_top">
<path fill="none" stroke="#63b8ff" d="M59.01,-70.9C63.94,-68.12 69.6,-65.19 75,-63 107.66,-49.75 146.73,-39.67 174.05,-33.5"/>
<polygon fill="#63b8ff" stroke="#63b8ff" points="174.89,-36.89 183.9,-31.32 173.38,-30.06 174.89,-36.89"/>
</a>
</g>
<g id="a_edge8&#45;headlabel"><a xlink:href="dir_000102_000003.html" target="_top" xlink:title="4">
<text text-anchor="middle" x="171.99" y="-37.94" font-family="Helvetica,sans-Serif" font-size="10.00" fill="#63b8ff">4</text>
</a>
</g>
</g>
</g>
</svg>
