<?xml version="1.0" encoding="UTF-8" standalone="no"?>
<!DOCTYPE svg PUBLIC "-//W3C//DTD SVG 1.1//EN"
 "http://www.w3.org/Graphics/SVG/1.1/DTD/svg11.dtd">
<!-- Generated by graphviz version 2.43.0 (0)
 -->
<!-- Title: dndtreeview.h Pages: 1 -->
<svg width="1304pt" height="247pt"
 viewBox="0.00 0.00 1304.00 247.00" xmlns="http://www.w3.org/2000/svg" xmlns:xlink="http://www.w3.org/1999/xlink">
<g id="graph0" class="graph" transform="scale(1 1) rotate(0) translate(4 243)">
<title>dndtreeview.h</title>
<!-- Node1 -->
<g id="Node000001" class="node">
<title>Node1</title>
<g id="a_Node000001"><a xlink:title=" ">
<polygon fill="#999999" stroke="#666666" points="384,-239 298,-239 298,-220 384,-220 384,-239"/>
<text text-anchor="middle" x="341" y="-227" font-family="Helvetica,sans-Serif" font-size="10.00">dndtreeview.h</text>
</a>
</g>
</g>
<!-- Node2 -->
<g id="Node000002" class="node">
<title>Node2</title>
<g id="a_Node000002"><a xlink:href="analysis__window_8h.html" target="_top" xlink:title=" ">
<polygon fill="white" stroke="#666666" points="108,-184 0,-184 0,-165 108,-165 108,-184"/>
<text text-anchor="middle" x="54" y="-172" font-family="Helvetica,sans-Serif" font-size="10.00">analysis_window.h</text>
</a>
</g>
</g>
<!-- Node1&#45;&gt;Node2 -->
<g id="edge1_Node000001_Node000002" class="edge">
<title>Node1&#45;&gt;Node2</title>
<g id="a_edge1_Node000001_Node000002"><a xlink:title=" ">
<path fill="none" stroke="#63b8ff" d="M287.69,-218.66C233.91,-208.72 151.7,-193.54 100.49,-184.09"/>
<polygon fill="#63b8ff" stroke="#63b8ff" points="287.25,-222.13 297.72,-220.51 288.52,-215.25 287.25,-222.13"/>
</a>
</g>
</g>
<!-- Node3 -->
<g id="Node000003" class="node">
<title>Node3</title>
<g id="a_Node000003"><a xlink:href="editor_8h.html" target="_top" xlink:title=" ">
<polygon fill="white" stroke="#666666" points="179.5,-184 126.5,-184 126.5,-165 179.5,-165 179.5,-184"/>
<text text-anchor="middle" x="153" y="-172" font-family="Helvetica,sans-Serif" font-size="10.00">editor.h</text>
</a>
</g>
</g>
<!-- Node1&#45;&gt;Node3 -->
<g id="edge2_Node000001_Node000003" class="edge">
<title>Node1&#45;&gt;Node3</title>
<g id="a_edge2_Node000001_Node000003"><a xlink:title=" ">
<path fill="none" stroke="#63b8ff" d="M300.96,-217.21C264.42,-206.91 211.44,-191.97 179.78,-183.05"/>
<polygon fill="#63b8ff" stroke="#63b8ff" points="300.22,-220.64 310.79,-219.98 302.12,-213.9 300.22,-220.64"/>
</a>
</g>
</g>
<!-- Node4 -->
<g id="Node000004" class="node">
<title>Node4</title>
<g id="a_Node000004"><a xlink:href="mixer__ui_8h.html" target="_top" xlink:title=" ">
<polygon fill="white" stroke="#666666" points="339,-74 271,-74 271,-55 339,-55 339,-74"/>
<text text-anchor="middle" x="305" y="-62" font-family="Helvetica,sans-Serif" font-size="10.00">mixer_ui.h</text>
</a>
</g>
</g>
<!-- Node1&#45;&gt;Node4 -->
<g id="edge3_Node000001_Node000004" class="edge">
<title>Node1&#45;&gt;Node4</title>
<g id="a_edge3_Node000001_Node000004"><a xlink:title=" ">
<path fill="none" stroke="#63b8ff" d="M314.47,-214.99C286.31,-198.92 243.62,-169.12 227,-129 216.11,-102.7 250.71,-84.15 277.29,-74.14"/>
<polygon fill="#63b8ff" stroke="#63b8ff" points="312.96,-218.15 323.41,-219.91 316.34,-212.02 312.96,-218.15"/>
</a>
</g>
</g>
<!-- Node5 -->
<g id="Node000005" class="node">
<title>Node5</title>
<g id="a_Node000005"><a xlink:href="plugin__selector_8h.html" target="_top" xlink:title=" ">
<polygon fill="white" stroke="#666666" points="390.5,-184 291.5,-184 291.5,-165 390.5,-165 390.5,-184"/>
<text text-anchor="middle" x="341" y="-172" font-family="Helvetica,sans-Serif" font-size="10.00">plugin_selector.h</text>
</a>
</g>
</g>
<!-- Node1&#45;&gt;Node5 -->
<g id="edge4_Node000001_Node000005" class="edge">
<title>Node1&#45;&gt;Node5</title>
<g id="a_edge4_Node000001_Node000005"><a xlink:title=" ">
<path fill="none" stroke="#63b8ff" d="M341,-209.66C341,-200.93 341,-190.99 341,-184.09"/>
<polygon fill="#63b8ff" stroke="#63b8ff" points="337.5,-209.75 341,-219.75 344.5,-209.75 337.5,-209.75"/>
</a>
</g>
</g>
<!-- Node6 -->
<g id="Node000006" class="node">
<title>Node6</title>
<g id="a_Node000006"><a xlink:href="processor__box_8h.html" target="_top" xlink:title=" ">
<polygon fill="white" stroke="#666666" points="533,-184 437,-184 437,-165 533,-165 533,-184"/>
<text text-anchor="middle" x="485" y="-172" font-family="Helvetica,sans-Serif" font-size="10.00">processor_box.h</text>
</a>
</g>
</g>
<!-- Node1&#45;&gt;Node6 -->
<g id="edge5_Node000001_Node000006" class="edge">
<title>Node1&#45;&gt;Node6</title>
<g id="a_edge5_Node000001_Node000006"><a xlink:title=" ">
<path fill="none" stroke="#63b8ff" d="M373.82,-216.42C400.53,-206.59 437.6,-192.95 461.44,-184.17"/>
<polygon fill="#63b8ff" stroke="#63b8ff" points="372.31,-213.25 364.14,-219.98 374.73,-219.82 372.31,-213.25"/>
</a>
</g>
</g>
<!-- Node13 -->
<g id="Node000013" class="node">
<title>Node13</title>
<g id="a_Node000013"><a xlink:href="region__editor_8h.html" target="_top" xlink:title=" ">
<polygon fill="white" stroke="#666666" points="786.5,-184 697.5,-184 697.5,-165 786.5,-165 786.5,-184"/>
<text text-anchor="middle" x="742" y="-172" font-family="Helvetica,sans-Serif" font-size="10.00">region_editor.h</text>
</a>
</g>
</g>
<!-- Node1&#45;&gt;Node13 -->
<g id="edge13_Node000001_Node000013" class="edge">
<title>Node1&#45;&gt;Node13</title>
<g id="a_edge13_Node000001_Node000013"><a xlink:title=" ">
<path fill="none" stroke="#63b8ff" d="M394.62,-221.41C474.45,-210.86 623.09,-191.22 697.36,-181.4"/>
<polygon fill="#63b8ff" stroke="#63b8ff" points="393.75,-218 384.3,-222.78 394.67,-224.94 393.75,-218"/>
</a>
</g>
</g>
<!-- Node15 -->
<g id="Node000015" class="node">
<title>Node15</title>
<g id="a_Node000015"><a xlink:href="region__list__base_8h.html" target="_top" xlink:title=" ">
<polygon fill="white" stroke="#666666" points="1098.5,-184 993.5,-184 993.5,-165 1098.5,-165 1098.5,-184"/>
<text text-anchor="middle" x="1046" y="-172" font-family="Helvetica,sans-Serif" font-size="10.00">region_list_base.h</text>
</a>
</g>
</g>
<!-- Node1&#45;&gt;Node15 -->
<g id="edge15_Node000001_Node000015" class="edge">
<title>Node1&#45;&gt;Node15</title>
<g id="a_edge15_Node000001_Node000015"><a xlink:title=" ">
<path fill="none" stroke="#63b8ff" d="M394.23,-224.5C525.33,-214.64 862.61,-189.29 993.23,-179.47"/>
<polygon fill="#63b8ff" stroke="#63b8ff" points="393.75,-221.02 384.04,-225.26 394.27,-228 393.75,-221.02"/>
</a>
</g>
</g>
<!-- Node7 -->
<g id="Node000007" class="node">
<title>Node7</title>
<g id="a_Node000007"><a xlink:href="foldback__strip_8h.html" target="_top" xlink:title=" ">
<polygon fill="white" stroke="#666666" points="331.5,-129 236.5,-129 236.5,-110 331.5,-110 331.5,-129"/>
<text text-anchor="middle" x="284" y="-117" font-family="Helvetica,sans-Serif" font-size="10.00">foldback_strip.h</text>
</a>
</g>
</g>
<!-- Node6&#45;&gt;Node7 -->
<g id="edge6_Node000006_Node000007" class="edge">
<title>Node6&#45;&gt;Node7</title>
<g id="a_edge6_Node000006_Node000007"><a xlink:title=" ">
<path fill="none" stroke="#63b8ff" d="M442.57,-162.31C404.96,-152.39 350.83,-138.12 316.55,-129.08"/>
<polygon fill="#63b8ff" stroke="#63b8ff" points="442.14,-165.82 452.71,-164.98 443.93,-159.05 442.14,-165.82"/>
</a>
</g>
</g>
<!-- Node8 -->
<g id="Node000008" class="node">
<title>Node8</title>
<g id="a_Node000008"><a xlink:href="mixer__strip_8h.html" target="_top" xlink:title=" ">
<polygon fill="white" stroke="#666666" points="552,-129 472,-129 472,-110 552,-110 552,-129"/>
<text text-anchor="middle" x="512" y="-117" font-family="Helvetica,sans-Serif" font-size="10.00">mixer_strip.h</text>
</a>
</g>
</g>
<!-- Node6&#45;&gt;Node8 -->
<g id="edge7_Node000006_Node000008" class="edge">
<title>Node6&#45;&gt;Node8</title>
<g id="a_edge7_Node000006_Node000008"><a xlink:title=" ">
<path fill="none" stroke="#63b8ff" d="M494.01,-155.82C498.59,-146.82 503.95,-136.29 507.62,-129.09"/>
<polygon fill="#63b8ff" stroke="#63b8ff" points="490.88,-154.25 489.46,-164.75 497.12,-157.43 490.88,-154.25"/>
</a>
</g>
</g>
<!-- Node10 -->
<g id="Node000010" class="node">
<title>Node10</title>
<g id="a_Node000010"><a xlink:href="monitor__section_8h.html" target="_top" xlink:title=" ">
<polygon fill="white" stroke="#666666" points="454,-129 350,-129 350,-110 454,-110 454,-129"/>
<text text-anchor="middle" x="402" y="-117" font-family="Helvetica,sans-Serif" font-size="10.00">monitor_section.h</text>
</a>
</g>
</g>
<!-- Node6&#45;&gt;Node10 -->
<g id="edge9_Node000006_Node000010" class="edge">
<title>Node6&#45;&gt;Node10</title>
<g id="a_edge9_Node000006_Node000010"><a xlink:title=" ">
<path fill="none" stroke="#63b8ff" d="M462.96,-159.42C447.89,-149.81 428.41,-137.37 415.58,-129.17"/>
<polygon fill="#63b8ff" stroke="#63b8ff" points="461.35,-162.55 471.66,-164.98 465.12,-156.65 461.35,-162.55"/>
</a>
</g>
</g>
<!-- Node11 -->
<g id="Node000011" class="node">
<title>Node11</title>
<g id="a_Node000011"><a xlink:href="route__params__ui_8h.html" target="_top" xlink:title=" ">
<polygon fill="white" stroke="#666666" points="677.5,-129 570.5,-129 570.5,-110 677.5,-110 677.5,-129"/>
<text text-anchor="middle" x="624" y="-117" font-family="Helvetica,sans-Serif" font-size="10.00">route_params_ui.h</text>
</a>
</g>
</g>
<!-- Node6&#45;&gt;Node11 -->
<g id="edge11_Node000006_Node000011" class="edge">
<title>Node6&#45;&gt;Node11</title>
<g id="a_edge11_Node000006_Node000011"><a xlink:title=" ">
<path fill="none" stroke="#63b8ff" d="M516.68,-161.42C542.47,-151.59 578.24,-137.95 601.26,-129.17"/>
<polygon fill="#63b8ff" stroke="#63b8ff" points="515.43,-158.15 507.33,-164.98 517.92,-164.69 515.43,-158.15"/>
</a>
</g>
</g>
<!-- Node12 -->
<g id="Node000012" class="node">
<title>Node12</title>
<g id="a_Node000012"><a xlink:href="trigger__strip_8h.html" target="_top" xlink:title=" ">
<polygon fill="white" stroke="#666666" points="780.5,-129 695.5,-129 695.5,-110 780.5,-110 780.5,-129"/>
<text text-anchor="middle" x="738" y="-117" font-family="Helvetica,sans-Serif" font-size="10.00">trigger_strip.h</text>
</a>
</g>
</g>
<!-- Node6&#45;&gt;Node12 -->
<g id="edge12_Node000006_Node000012" class="edge">
<title>Node6&#45;&gt;Node12</title>
<g id="a_edge12_Node000006_Node000012"><a xlink:title=" ">
<path fill="none" stroke="#63b8ff" d="M535.7,-162.88C583.12,-152.94 653.05,-138.3 697.03,-129.08"/>
<polygon fill="#63b8ff" stroke="#63b8ff" points="534.72,-159.51 525.65,-164.98 536.15,-166.36 534.72,-159.51"/>
</a>
</g>
</g>
<!-- Node9 -->
<g id="Node000009" class="node">
<title>Node9</title>
<g id="a_Node000009"><a xlink:href="strip__selection_8h.html" target="_top" xlink:title=" ">
<polygon fill="white" stroke="#666666" points="560.5,-74 463.5,-74 463.5,-55 560.5,-55 560.5,-74"/>
<text text-anchor="middle" x="512" y="-62" font-family="Helvetica,sans-Serif" font-size="10.00">strip_selection.h</text>
</a>
</g>
</g>
<!-- Node8&#45;&gt;Node9 -->
<g id="edge8_Node000008_Node000009" class="edge">
<title>Node8&#45;&gt;Node9</title>
<g id="a_edge8_Node000008_Node000009"><a xlink:title=" ">
<path fill="none" stroke="#63b8ff" d="M512,-99.66C512,-90.93 512,-80.99 512,-74.09"/>
<polygon fill="#63b8ff" stroke="#63b8ff" points="508.5,-99.75 512,-109.75 515.5,-99.75 508.5,-99.75"/>
</a>
</g>
</g>
<!-- Node10&#45;&gt;Node4 -->
<g id="edge10_Node000010_Node000004" class="edge">
<title>Node10&#45;&gt;Node4</title>
<g id="a_edge10_Node000010_Node000004"><a xlink:title=" ">
<path fill="none" stroke="#63b8ff" d="M377.23,-104.97C359.5,-95.28 336.15,-82.52 320.87,-74.17"/>
<polygon fill="#63b8ff" stroke="#63b8ff" points="375.96,-108.26 386.42,-109.98 379.32,-102.12 375.96,-108.26"/>
</a>
</g>
</g>
<!-- Node14 -->
<g id="Node000014" class="node">
<title>Node14</title>
<g id="a_Node000014"><a xlink:href="audio__region__editor_8h.html" target="_top" xlink:title=" ">
<polygon fill="white" stroke="#666666" points="921,-129 799,-129 799,-110 921,-110 921,-129"/>
<text text-anchor="middle" x="860" y="-117" font-family="Helvetica,sans-Serif" font-size="10.00">audio_region_editor.h</text>
</a>
</g>
</g>
<!-- Node13&#45;&gt;Node14 -->
<g id="edge14_Node000013_Node000014" class="edge">
<title>Node13&#45;&gt;Node14</title>
<g id="a_edge14_Node000013_Node000014"><a xlink:title=" ">
<path fill="none" stroke="#63b8ff" d="M770.35,-160.77C792.12,-150.99 821.59,-137.75 840.7,-129.17"/>
<polygon fill="#63b8ff" stroke="#63b8ff" points="768.65,-157.69 760.96,-164.98 771.51,-164.08 768.65,-157.69"/>
</a>
</g>
</g>
<!-- Node16 -->
<g id="Node000016" class="node">
<title>Node16</title>
<g id="a_Node000016"><a xlink:href="editor__regions_8h.html" target="_top" xlink:title=" ">
<polygon fill="white" stroke="#666666" points="1034.5,-129 939.5,-129 939.5,-110 1034.5,-110 1034.5,-129"/>
<text text-anchor="middle" x="987" y="-117" font-family="Helvetica,sans-Serif" font-size="10.00">editor_regions.h</text>
</a>
</g>
</g>
<!-- Node15&#45;&gt;Node16 -->
<g id="edge16_Node000015_Node000016" class="edge">
<title>Node15&#45;&gt;Node16</title>
<g id="a_edge16_Node000015_Node000016"><a xlink:title=" ">
<path fill="none" stroke="#63b8ff" d="M1028.8,-158.04C1018.33,-148.64 1005.35,-136.98 996.65,-129.17"/>
<polygon fill="#63b8ff" stroke="#63b8ff" points="1026.74,-160.91 1036.52,-164.98 1031.42,-155.7 1026.74,-160.91"/>
</a>
</g>
</g>
<!-- Node17 -->
<g id="Node000017" class="node">
<title>Node17</title>
<g id="a_Node000017"><a xlink:href="source__list__base_8h.html" target="_top" xlink:title=" ">
<polygon fill="white" stroke="#666666" points="1159.5,-129 1052.5,-129 1052.5,-110 1159.5,-110 1159.5,-129"/>
<text text-anchor="middle" x="1106" y="-117" font-family="Helvetica,sans-Serif" font-size="10.00">source_list_base.h</text>
</a>
</g>
</g>
<!-- Node15&#45;&gt;Node17 -->
<g id="edge17_Node000015_Node000017" class="edge">
<title>Node15&#45;&gt;Node17</title>
<g id="a_edge17_Node000015_Node000017"><a xlink:title=" ">
<path fill="none" stroke="#63b8ff" d="M1063.18,-158.32C1073.88,-148.87 1087.26,-137.06 1096.18,-129.17"/>
<polygon fill="#63b8ff" stroke="#63b8ff" points="1060.82,-155.74 1055.64,-164.98 1065.45,-160.99 1060.82,-155.74"/>
</a>
</g>
</g>
<!-- Node21 -->
<g id="Node000021" class="node">
<title>Node21</title>
<g id="a_Node000021"><a xlink:href="trigger__region__list_8h.html" target="_top" xlink:title=" ">
<polygon fill="white" stroke="#666666" points="1296,-74 1182,-74 1182,-55 1296,-55 1296,-74"/>
<text text-anchor="middle" x="1239" y="-62" font-family="Helvetica,sans-Serif" font-size="10.00">trigger_region_list.h</text>
</a>
</g>
</g>
<!-- Node15&#45;&gt;Node21 -->
<g id="edge21_Node000015_Node000021" class="edge">
<title>Node15&#45;&gt;Node21</title>
<g id="a_edge21_Node000015_Node000021"><a xlink:title=" ">
<path fill="none" stroke="#63b8ff" d="M1090.16,-162.09C1114.46,-154.71 1144.55,-143.72 1169,-129 1194.86,-113.43 1219.71,-87.44 1231.64,-74.05"/>
<polygon fill="#63b8ff" stroke="#63b8ff" points="1089.09,-158.76 1080.48,-164.93 1091.06,-165.47 1089.09,-158.76"/>
</a>
</g>
</g>
<!-- Node18 -->
<g id="Node000018" class="node">
<title>Node18</title>
<g id="a_Node000018"><a xlink:href="editor__sources_8h.html" target="_top" xlink:title=" ">
<polygon fill="white" stroke="#666666" points="1029.5,-74 932.5,-74 932.5,-55 1029.5,-55 1029.5,-74"/>
<text text-anchor="middle" x="981" y="-62" font-family="Helvetica,sans-Serif" font-size="10.00">editor_sources.h</text>
</a>
</g>
</g>
<!-- Node17&#45;&gt;Node18 -->
<g id="edge18_Node000017_Node000018" class="edge">
<title>Node17&#45;&gt;Node18</title>
<g id="a_edge18_Node000017_Node000018"><a xlink:title=" ">
<path fill="none" stroke="#63b8ff" d="M1076.59,-106.03C1053.47,-96.23 1021.87,-82.83 1001.45,-74.17"/>
<polygon fill="#63b8ff" stroke="#63b8ff" points="1075.34,-109.3 1085.92,-109.98 1078.08,-102.86 1075.34,-109.3"/>
</a>
</g>
</g>
<!-- Node19 -->
<g id="Node000019" class="node">
<title>Node19</title>
<g id="a_Node000019"><a xlink:href="trigger__source__list_8h.html" target="_top" xlink:title=" ">
<polygon fill="white" stroke="#666666" points="1164,-74 1048,-74 1048,-55 1164,-55 1164,-74"/>
<text text-anchor="middle" x="1106" y="-62" font-family="Helvetica,sans-Serif" font-size="10.00">trigger_source_list.h</text>
</a>
</g>
</g>
<!-- Node17&#45;&gt;Node19 -->
<g id="edge19_Node000017_Node000019" class="edge">
<title>Node17&#45;&gt;Node19</title>
<g id="a_edge19_Node000017_Node000019"><a xlink:title=" ">
<path fill="none" stroke="#63b8ff" d="M1106,-99.66C1106,-90.93 1106,-80.99 1106,-74.09"/>
<polygon fill="#63b8ff" stroke="#63b8ff" points="1102.5,-99.75 1106,-109.75 1109.5,-99.75 1102.5,-99.75"/>
</a>
</g>
</g>
<!-- Node20 -->
<g id="Node000020" class="node">
<title>Node20</title>
<g id="a_Node000020"><a xlink:href="trigger__page_8h.html" target="_top" xlink:title=" ">
<polygon fill="white" stroke="#666666" points="1215.5,-19 1128.5,-19 1128.5,0 1215.5,0 1215.5,-19"/>
<text text-anchor="middle" x="1172" y="-7" font-family="Helvetica,sans-Serif" font-size="10.00">trigger_page.h</text>
</a>
</g>
</g>
<!-- Node19&#45;&gt;Node20 -->
<g id="edge20_Node000019_Node000020" class="edge">
<title>Node19&#45;&gt;Node20</title>
<g id="a_edge20_Node000019_Node000020"><a xlink:title=" ">
<path fill="none" stroke="#63b8ff" d="M1124.55,-48.6C1136.38,-39.11 1151.29,-27.13 1161.2,-19.17"/>
<polygon fill="#63b8ff" stroke="#63b8ff" points="1122.21,-45.99 1116.6,-54.98 1126.59,-51.45 1122.21,-45.99"/>
</a>
</g>
</g>
<!-- Node21&#45;&gt;Node20 -->
<g id="edge22_Node000021_Node000020" class="edge">
<title>Node21&#45;&gt;Node20</title>
<g id="a_edge22_Node000021_Node000020"><a xlink:title=" ">
<path fill="none" stroke="#63b8ff" d="M1220.17,-48.6C1208.16,-39.11 1193.03,-27.13 1182.96,-19.17"/>
<polygon fill="#63b8ff" stroke="#63b8ff" points="1218.22,-51.53 1228.24,-54.98 1222.56,-46.04 1218.22,-51.53"/>
</a>
</g>
</g>
</g>
</svg>
