<?xml version="1.0" encoding="UTF-8" standalone="no"?>
<!DOCTYPE svg PUBLIC "-//W3C//DTD SVG 1.1//EN"
 "http://www.w3.org/Graphics/SVG/1.1/DTD/svg11.dtd">
<!-- Generated by graphviz version 2.43.0 (0)
 -->
<!-- Title: editor_automation_line.h Pages: 1 -->
<svg width="1006pt" height="258pt"
 viewBox="0.00 0.00 1006.00 258.00" xmlns="http://www.w3.org/2000/svg" xmlns:xlink="http://www.w3.org/1999/xlink">
<g id="graph0" class="graph" transform="scale(1 1) rotate(0) translate(4 254)">
<title>editor_automation_line.h</title>
<!-- Node1 -->
<g id="Node000001" class="node">
<title>Node1</title>
<g id="a_Node000001"><a xlink:title=" ">
<polygon fill="#999999" stroke="#666666" points="684.5,-250 545.5,-250 545.5,-231 684.5,-231 684.5,-250"/>
<text text-anchor="middle" x="615" y="-238" font-family="Helvetica,sans-Serif" font-size="10.00">editor_automation_line.h</text>
</a>
</g>
</g>
<!-- Node2 -->
<g id="Node000002" class="node">
<title>Node2</title>
<g id="a_Node000002"><a xlink:href="audio__region__view_8h.html" target="_top" xlink:title=" ">
<polygon fill="white" stroke="#666666" points="116,-134.5 0,-134.5 0,-115.5 116,-115.5 116,-134.5"/>
<text text-anchor="middle" x="58" y="-122.5" font-family="Helvetica,sans-Serif" font-size="10.00">audio_region_view.h</text>
</a>
</g>
</g>
<!-- Node1&#45;&gt;Node2 -->
<g id="edge1_Node000001_Node000002" class="edge">
<title>Node1&#45;&gt;Node2</title>
<g id="a_edge1_Node000001_Node000002"><a xlink:title=" ">
<path fill="none" stroke="#63b8ff" d="M554.25,-229.27C504.17,-220.66 431.34,-207.75 368,-195 268.54,-174.98 151.91,-148.09 94.17,-134.55"/>
<polygon fill="#63b8ff" stroke="#63b8ff" points="553.82,-232.74 564.27,-230.98 555,-225.84 553.82,-232.74"/>
</a>
</g>
</g>
<!-- Node3 -->
<g id="Node000003" class="node">
<title>Node3</title>
<g id="a_Node000003"><a xlink:href="automation__region__view_8h.html" target="_top" xlink:title=" ">
<polygon fill="white" stroke="#666666" points="280,-134.5 134,-134.5 134,-115.5 280,-115.5 280,-134.5"/>
<text text-anchor="middle" x="207" y="-122.5" font-family="Helvetica,sans-Serif" font-size="10.00">automation_region_view.h</text>
</a>
</g>
</g>
<!-- Node1&#45;&gt;Node3 -->
<g id="edge2_Node000001_Node000003" class="edge">
<title>Node1&#45;&gt;Node3</title>
<g id="a_edge2_Node000001_Node000003"><a xlink:title=" ">
<path fill="none" stroke="#63b8ff" d="M567.85,-228.64C531.22,-220.03 479.21,-207.42 434,-195 360.92,-174.92 275.62,-148.06 233.43,-134.54"/>
<polygon fill="#63b8ff" stroke="#63b8ff" points="567.22,-232.09 577.76,-230.96 568.82,-225.28 567.22,-232.09"/>
</a>
</g>
</g>
<!-- Node4 -->
<g id="Node000004" class="node">
<title>Node4</title>
<g id="a_Node000004"><a xlink:href="midi__automation__line_8h.html" target="_top" xlink:title=" ">
<polygon fill="white" stroke="#666666" points="879,-195 747,-195 747,-176 879,-176 879,-195"/>
<text text-anchor="middle" x="813" y="-183" font-family="Helvetica,sans-Serif" font-size="10.00">midi_automation_line.h</text>
</a>
</g>
</g>
<!-- Node1&#45;&gt;Node4 -->
<g id="edge3_Node000001_Node000004" class="edge">
<title>Node1&#45;&gt;Node4</title>
<g id="a_edge3_Node000001_Node000004"><a xlink:title=" ">
<path fill="none" stroke="#63b8ff" d="M656.8,-228.31C693.85,-218.39 747.17,-204.12 780.94,-195.08"/>
<polygon fill="#63b8ff" stroke="#63b8ff" points="655.57,-225.02 646.81,-230.98 657.38,-231.78 655.57,-225.02"/>
</a>
</g>
</g>
<!-- Node5 -->
<g id="Node000005" class="node">
<title>Node5</title>
<g id="a_Node000005"><a xlink:href="midi__region__view_8h.html" target="_top" xlink:title=" ">
<polygon fill="white" stroke="#666666" points="841.5,-74 730.5,-74 730.5,-55 841.5,-55 841.5,-74"/>
<text text-anchor="middle" x="786" y="-62" font-family="Helvetica,sans-Serif" font-size="10.00">midi_region_view.h</text>
</a>
</g>
</g>
<!-- Node1&#45;&gt;Node5 -->
<g id="edge4_Node000001_Node000005" class="edge">
<title>Node1&#45;&gt;Node5</title>
<g id="a_edge4_Node000001_Node000005"><a xlink:title=" ">
<path fill="none" stroke="#63b8ff" d="M630.85,-223.37C666.19,-187.41 750.48,-101.64 777.51,-74.14"/>
<polygon fill="#63b8ff" stroke="#63b8ff" points="628.23,-221.05 623.72,-230.63 633.22,-225.95 628.23,-221.05"/>
</a>
</g>
</g>
<!-- Node7 -->
<g id="Node000007" class="node">
<title>Node7</title>
<g id="a_Node000007"><a xlink:href="midi__view_8h.html" target="_top" xlink:title=" ">
<polygon fill="white" stroke="#666666" points="652.5,-134.5 577.5,-134.5 577.5,-115.5 652.5,-115.5 652.5,-134.5"/>
<text text-anchor="middle" x="615" y="-122.5" font-family="Helvetica,sans-Serif" font-size="10.00">midi_view.h</text>
</a>
</g>
</g>
<!-- Node1&#45;&gt;Node7 -->
<g id="edge6_Node000001_Node000007" class="edge">
<title>Node1&#45;&gt;Node7</title>
<g id="a_edge6_Node000001_Node000007"><a xlink:title=" ">
<path fill="none" stroke="#63b8ff" d="M615,-220.65C615,-195.74 615,-152.88 615,-134.63"/>
<polygon fill="#63b8ff" stroke="#63b8ff" points="611.5,-220.97 615,-230.97 618.5,-220.97 611.5,-220.97"/>
</a>
</g>
</g>
<!-- Node10 -->
<g id="Node000010" class="node">
<title>Node10</title>
<g id="a_Node000010"><a xlink:href="region__fx__line_8h.html" target="_top" xlink:title=" ">
<polygon fill="white" stroke="#666666" points="992.5,-195 897.5,-195 897.5,-176 992.5,-176 992.5,-195"/>
<text text-anchor="middle" x="945" y="-183" font-family="Helvetica,sans-Serif" font-size="10.00">region_fx_line.h</text>
</a>
</g>
</g>
<!-- Node1&#45;&gt;Node10 -->
<g id="edge10_Node000001_Node000010" class="edge">
<title>Node1&#45;&gt;Node10</title>
<g id="a_edge10_Node000001_Node000010"><a xlink:title=" ">
<path fill="none" stroke="#63b8ff" d="M677.99,-229.38C741.99,-219.1 839.69,-203.41 897.47,-194.13"/>
<polygon fill="#63b8ff" stroke="#63b8ff" points="677.34,-225.94 668.02,-230.98 678.45,-232.85 677.34,-225.94"/>
</a>
</g>
</g>
<!-- Node12 -->
<g id="Node000012" class="node">
<title>Node12</title>
<g id="a_Node000012"><a xlink:href="region__view_8h.html" target="_top" xlink:title=" ">
<polygon fill="white" stroke="#666666" points="527,-195 443,-195 443,-176 527,-176 527,-195"/>
<text text-anchor="middle" x="485" y="-183" font-family="Helvetica,sans-Serif" font-size="10.00">region_view.h</text>
</a>
</g>
</g>
<!-- Node1&#45;&gt;Node12 -->
<g id="edge12_Node000001_Node000012" class="edge">
<title>Node1&#45;&gt;Node12</title>
<g id="a_edge12_Node000001_Node000012"><a xlink:title=" ">
<path fill="none" stroke="#63b8ff" d="M584.73,-227.16C560.66,-217.35 527.6,-203.87 506.27,-195.17"/>
<polygon fill="#63b8ff" stroke="#63b8ff" points="583.53,-230.45 594.11,-230.98 586.17,-223.97 583.53,-230.45"/>
</a>
</g>
</g>
<!-- Node6 -->
<g id="Node000006" class="node">
<title>Node6</title>
<g id="a_Node000006"><a xlink:href="selection__templates_8h.html" target="_top" xlink:title=" ">
<polygon fill="white" stroke="#666666" points="680.5,-19 555.5,-19 555.5,0 680.5,0 680.5,-19"/>
<text text-anchor="middle" x="618" y="-7" font-family="Helvetica,sans-Serif" font-size="10.00">selection_templates.h</text>
</a>
</g>
</g>
<!-- Node5&#45;&gt;Node6 -->
<g id="edge5_Node000005_Node000006" class="edge">
<title>Node5&#45;&gt;Node6</title>
<g id="a_edge5_Node000005_Node000006"><a xlink:title=" ">
<path fill="none" stroke="#63b8ff" d="M749.32,-51.93C717.94,-42.03 673.49,-28.01 645.2,-19.08"/>
<polygon fill="#63b8ff" stroke="#63b8ff" points="748.42,-55.31 759.01,-54.98 750.52,-48.64 748.42,-55.31"/>
</a>
</g>
</g>
<!-- Node7&#45;&gt;Node5 -->
<g id="edge7_Node000007_Node000005" class="edge">
<title>Node7&#45;&gt;Node5</title>
<g id="a_edge7_Node000007_Node000005"><a xlink:title=" ">
<path fill="none" stroke="#63b8ff" d="M649.58,-112.17C682.65,-100.86 731.71,-84.07 761.11,-74.02"/>
<polygon fill="#63b8ff" stroke="#63b8ff" points="648.19,-108.95 639.86,-115.49 650.46,-115.57 648.19,-108.95"/>
</a>
</g>
</g>
<!-- Node8 -->
<g id="Node000008" class="node">
<title>Node8</title>
<g id="a_Node000008"><a xlink:href="patch__change_8h.html" target="_top" xlink:title=" ">
<polygon fill="white" stroke="#666666" points="571.5,-74 478.5,-74 478.5,-55 571.5,-55 571.5,-74"/>
<text text-anchor="middle" x="525" y="-62" font-family="Helvetica,sans-Serif" font-size="10.00">patch_change.h</text>
</a>
</g>
</g>
<!-- Node7&#45;&gt;Node8 -->
<g id="edge8_Node000007_Node000008" class="edge">
<title>Node7&#45;&gt;Node8</title>
<g id="a_edge8_Node000007_Node000008"><a xlink:title=" ">
<path fill="none" stroke="#63b8ff" d="M592.94,-109.66C575.84,-98.55 552.71,-83.51 538.33,-74.17"/>
<polygon fill="#63b8ff" stroke="#63b8ff" points="591.43,-112.85 601.72,-115.37 595.24,-106.98 591.43,-112.85"/>
</a>
</g>
</g>
<!-- Node9 -->
<g id="Node000009" class="node">
<title>Node9</title>
<g id="a_Node000009"><a xlink:href="pianoroll__midi__view_8h.html" target="_top" xlink:title=" ">
<polygon fill="white" stroke="#666666" points="712.5,-74 589.5,-74 589.5,-55 712.5,-55 712.5,-74"/>
<text text-anchor="middle" x="651" y="-62" font-family="Helvetica,sans-Serif" font-size="10.00">pianoroll_midi_view.h</text>
</a>
</g>
</g>
<!-- Node7&#45;&gt;Node9 -->
<g id="edge9_Node000007_Node000009" class="edge">
<title>Node7&#45;&gt;Node9</title>
<g id="a_edge9_Node000007_Node000009"><a xlink:title=" ">
<path fill="none" stroke="#63b8ff" d="M625.58,-106.8C632.18,-96.08 640.39,-82.73 645.67,-74.17"/>
<polygon fill="#63b8ff" stroke="#63b8ff" points="622.57,-105.02 620.31,-115.37 628.53,-108.69 622.57,-105.02"/>
</a>
</g>
</g>
<!-- Node11 -->
<g id="Node000011" class="node">
<title>Node11</title>
<g id="a_Node000011"><a xlink:href="region__gain__line_8h.html" target="_top" xlink:title=" ">
<polygon fill="white" stroke="#666666" points="998,-134.5 892,-134.5 892,-115.5 998,-115.5 998,-134.5"/>
<text text-anchor="middle" x="945" y="-122.5" font-family="Helvetica,sans-Serif" font-size="10.00">region_gain_line.h</text>
</a>
</g>
</g>
<!-- Node10&#45;&gt;Node11 -->
<g id="edge11_Node000010_Node000011" class="edge">
<title>Node10&#45;&gt;Node11</title>
<g id="a_edge11_Node000010_Node000011"><a xlink:title=" ">
<path fill="none" stroke="#63b8ff" d="M945,-165.66C945,-155.24 945,-142.8 945,-134.67"/>
<polygon fill="#63b8ff" stroke="#63b8ff" points="941.5,-165.87 945,-175.87 948.5,-165.87 941.5,-165.87"/>
</a>
</g>
</g>
<!-- Node12&#45;&gt;Node2 -->
<g id="edge13_Node000012_Node000002" class="edge">
<title>Node12&#45;&gt;Node2</title>
<g id="a_edge13_Node000012_Node000002"><a xlink:title=" ">
<path fill="none" stroke="#63b8ff" d="M432.64,-179.41C362.4,-172.26 233.88,-158.07 125,-140 115.62,-138.44 105.56,-136.49 96.16,-134.55"/>
<polygon fill="#63b8ff" stroke="#63b8ff" points="432.69,-182.93 442.99,-180.45 433.39,-175.96 432.69,-182.93"/>
</a>
</g>
</g>
<!-- Node12&#45;&gt;Node3 -->
<g id="edge14_Node000012_Node000003" class="edge">
<title>Node12&#45;&gt;Node3</title>
<g id="a_edge14_Node000012_Node000003"><a xlink:title=" ">
<path fill="none" stroke="#63b8ff" d="M434.59,-173.89C380.91,-162.6 297.01,-144.94 247.47,-134.52"/>
<polygon fill="#63b8ff" stroke="#63b8ff" points="434.07,-177.36 444.58,-175.99 435.51,-170.51 434.07,-177.36"/>
</a>
</g>
</g>
<!-- Node12&#45;&gt;Node5 -->
<g id="edge16_Node000012_Node000005" class="edge">
<title>Node12&#45;&gt;Node5</title>
<g id="a_edge16_Node000012_Node000005"><a xlink:title=" ">
<path fill="none" stroke="#63b8ff" d="M537.52,-176.22C573.37,-169.37 621.37,-157.84 661,-140 682.58,-130.28 684.83,-122.38 705,-110 726.74,-96.66 752.72,-82.72 769.29,-74.08"/>
<polygon fill="#63b8ff" stroke="#63b8ff" points="536.47,-172.85 527.27,-178.11 537.74,-179.73 536.47,-172.85"/>
</a>
</g>
</g>
<!-- Node12&#45;&gt;Node6 -->
<g id="edge19_Node000012_Node000006" class="edge">
<title>Node12&#45;&gt;Node6</title>
<g id="a_edge19_Node000012_Node000006"><a xlink:title=" ">
<path fill="none" stroke="#63b8ff" d="M475.73,-166.88C462.98,-139.94 444.28,-88.18 469,-55 488.84,-28.37 524.01,-17.06 555.2,-12.49"/>
<polygon fill="#63b8ff" stroke="#63b8ff" points="472.63,-168.5 480.22,-175.89 478.89,-165.38 472.63,-168.5"/>
</a>
</g>
</g>
<!-- Node12&#45;&gt;Node7 -->
<g id="edge17_Node000012_Node000007" class="edge">
<title>Node12&#45;&gt;Node7</title>
<g id="a_edge17_Node000012_Node000007"><a xlink:title=" ">
<path fill="none" stroke="#63b8ff" d="M513.26,-171.78C538.35,-160.49 574.31,-144.31 596.07,-134.52"/>
<polygon fill="#63b8ff" stroke="#63b8ff" points="511.59,-168.7 503.9,-175.99 514.46,-175.08 511.59,-168.7"/>
</a>
</g>
</g>
<!-- Node13 -->
<g id="Node000013" class="node">
<title>Node13</title>
<g id="a_Node000013"><a xlink:href="editor__drag_8h.html" target="_top" xlink:title=" ">
<polygon fill="white" stroke="#666666" points="559.5,-134.5 478.5,-134.5 478.5,-115.5 559.5,-115.5 559.5,-134.5"/>
<text text-anchor="middle" x="519" y="-122.5" font-family="Helvetica,sans-Serif" font-size="10.00">editor_drag.h</text>
</a>
</g>
</g>
<!-- Node12&#45;&gt;Node13 -->
<g id="edge15_Node000012_Node000013" class="edge">
<title>Node12&#45;&gt;Node13</title>
<g id="a_edge15_Node000012_Node000013"><a xlink:title=" ">
<path fill="none" stroke="#63b8ff" d="M495.18,-166.98C501.38,-156.31 509.03,-143.15 513.96,-134.67"/>
<polygon fill="#63b8ff" stroke="#63b8ff" points="492.02,-165.46 490.02,-175.87 498.07,-168.98 492.02,-165.46"/>
</a>
</g>
</g>
<!-- Node14 -->
<g id="Node000014" class="node">
<title>Node14</title>
<g id="a_Node000014"><a xlink:href="region__layering__order__editor_8h.html" target="_top" xlink:title=" ">
<polygon fill="white" stroke="#666666" points="421.5,-140 298.5,-140 298.5,-110 421.5,-110 421.5,-140"/>
<text text-anchor="start" x="306.5" y="-128" font-family="Helvetica,sans-Serif" font-size="10.00">region_layering_order</text>
<text text-anchor="middle" x="360" y="-117" font-family="Helvetica,sans-Serif" font-size="10.00">_editor.h</text>
</a>
</g>
</g>
<!-- Node12&#45;&gt;Node14 -->
<g id="edge18_Node000012_Node000014" class="edge">
<title>Node12&#45;&gt;Node14</title>
<g id="a_edge18_Node000012_Node000014"><a xlink:title=" ">
<path fill="none" stroke="#63b8ff" d="M457.68,-171.72C437.79,-162.41 410.85,-149.8 390.29,-140.18"/>
<polygon fill="#63b8ff" stroke="#63b8ff" points="456.28,-174.92 466.82,-175.99 459.25,-168.58 456.28,-174.92"/>
</a>
</g>
</g>
</g>
</svg>
