<?xml version="1.0" encoding="UTF-8" standalone="no"?>
<!DOCTYPE svg PUBLIC "-//W3C//DTD SVG 1.1//EN"
 "http://www.w3.org/Graphics/SVG/1.1/DTD/svg11.dtd">
<!-- Generated by graphviz version 2.43.0 (0)
 -->
<!-- Title: EventList.h Pages: 1 -->
<svg width="833pt" height="357pt"
 viewBox="0.00 0.00 833.00 357.00" xmlns="http://www.w3.org/2000/svg" xmlns:xlink="http://www.w3.org/1999/xlink">
<g id="graph0" class="graph" transform="scale(1 1) rotate(0) translate(4 353)">
<title>EventList.h</title>
<!-- Node1 -->
<g id="Node000001" class="node">
<title>Node1</title>
<g id="a_Node000001"><a xlink:title=" ">
<polygon fill="#999999" stroke="#666666" points="520.5,-349 449.5,-349 449.5,-330 520.5,-330 520.5,-349"/>
<text text-anchor="middle" x="485" y="-337" font-family="Helvetica,sans-Serif" font-size="10.00">EventList.h</text>
</a>
</g>
</g>
<!-- Node2 -->
<g id="Node000002" class="node">
<title>Node2</title>
<g id="a_Node000002"><a xlink:title=" ">
<polygon fill="#e0e0e0" stroke="#999999" points="32,-184 0,-184 0,-165 32,-165 32,-184"/>
<text text-anchor="middle" x="16" y="-172" font-family="Helvetica,sans-Serif" font-size="10.00">list</text>
</a>
</g>
</g>
<!-- Node1&#45;&gt;Node2 -->
<g id="edge1_Node000001_Node000002" class="edge">
<title>Node1&#45;&gt;Node2</title>
<g id="a_edge1_Node000001_Node000002"><a xlink:title=" ">
<path fill="none" stroke="#63b8ff" d="M449.17,-334.44C355.98,-323.27 108.94,-289.5 46,-239 32.06,-227.81 24.24,-208.61 20.11,-194.24"/>
<polygon fill="#63b8ff" stroke="#63b8ff" points="23.47,-193.25 17.63,-184.41 16.69,-194.96 23.47,-193.25"/>
</a>
</g>
</g>
<!-- Node3 -->
<g id="Node000003" class="node">
<title>Node3</title>
<g id="a_Node000003"><a xlink:href="Event_8h.html" target="_top" xlink:title=" ">
<polygon fill="white" stroke="#666666" points="425.5,-294 338.5,-294 338.5,-275 425.5,-275 425.5,-294"/>
<text text-anchor="middle" x="382" y="-282" font-family="Helvetica,sans-Serif" font-size="10.00">evoral/Event.h</text>
</a>
</g>
</g>
<!-- Node1&#45;&gt;Node3 -->
<g id="edge2_Node000001_Node000003" class="edge">
<title>Node1&#45;&gt;Node3</title>
<g id="a_edge2_Node000001_Node000003"><a xlink:title=" ">
<path fill="none" stroke="#63b8ff" d="M468.45,-329.98C452.11,-321.57 426.87,-308.59 407.87,-298.81"/>
<polygon fill="#63b8ff" stroke="#63b8ff" points="409.34,-295.63 398.85,-294.17 406.14,-301.86 409.34,-295.63"/>
</a>
</g>
</g>
<!-- Node16 -->
<g id="Node000016" class="node">
<title>Node16</title>
<g id="a_Node000016"><a xlink:href="evoral_2evoral_2visibility_8h.html" target="_top" xlink:title=" ">
<polygon fill="white" stroke="#666666" points="825,-184 725,-184 725,-165 825,-165 825,-184"/>
<text text-anchor="middle" x="775" y="-172" font-family="Helvetica,sans-Serif" font-size="10.00">evoral/visibility.h</text>
</a>
</g>
</g>
<!-- Node1&#45;&gt;Node16 -->
<g id="edge39_Node000001_Node000016" class="edge">
<title>Node1&#45;&gt;Node16</title>
<g id="a_edge39_Node000001_Node000016"><a xlink:title=" ">
<path fill="none" stroke="#63b8ff" d="M520.51,-330.24C549.67,-322.77 591.6,-310.42 626,-294 665.93,-274.93 674.47,-266.68 709,-239 727.49,-224.18 746.83,-205.09 759.75,-191.72"/>
<polygon fill="#63b8ff" stroke="#63b8ff" points="762.53,-193.88 766.91,-184.23 757.47,-189.05 762.53,-193.88"/>
</a>
</g>
</g>
<!-- Node27 -->
<g id="Node000027" class="node">
<title>Node27</title>
<g id="a_Node000027"><a xlink:href="EventSink_8h.html" target="_top" xlink:title=" ">
<polygon fill="white" stroke="#666666" points="617,-294 509,-294 509,-275 617,-275 617,-294"/>
<text text-anchor="middle" x="563" y="-282" font-family="Helvetica,sans-Serif" font-size="10.00">evoral/EventSink.h</text>
</a>
</g>
</g>
<!-- Node1&#45;&gt;Node27 -->
<g id="edge36_Node000001_Node000027" class="edge">
<title>Node1&#45;&gt;Node27</title>
<g id="a_edge36_Node000001_Node000027"><a xlink:title=" ">
<path fill="none" stroke="#63b8ff" d="M497.53,-329.98C509.4,-321.92 527.46,-309.65 541.61,-300.03"/>
<polygon fill="#63b8ff" stroke="#63b8ff" points="543.94,-302.69 550.24,-294.17 540,-296.9 543.94,-302.69"/>
</a>
</g>
</g>
<!-- Node4 -->
<g id="Node000004" class="node">
<title>Node4</title>
<g id="a_Node000004"><a xlink:title=" ">
<polygon fill="#e0e0e0" stroke="#999999" points="328,-239 264,-239 264,-220 328,-220 328,-239"/>
<text text-anchor="middle" x="296" y="-227" font-family="Helvetica,sans-Serif" font-size="10.00">algorithm</text>
</a>
</g>
</g>
<!-- Node3&#45;&gt;Node4 -->
<g id="edge3_Node000003_Node000004" class="edge">
<title>Node3&#45;&gt;Node4</title>
<g id="a_edge3_Node000003_Node000004"><a xlink:title=" ">
<path fill="none" stroke="#63b8ff" d="M368.18,-274.98C354.85,-266.77 334.42,-254.18 318.69,-244.49"/>
<polygon fill="#63b8ff" stroke="#63b8ff" points="320.42,-241.44 310.07,-239.17 316.75,-247.4 320.42,-241.44"/>
</a>
</g>
</g>
<!-- Node5 -->
<g id="Node000005" class="node">
<title>Node5</title>
<g id="a_Node000005"><a xlink:title=" ">
<polygon fill="#e0e0e0" stroke="#999999" points="433.5,-239 384.5,-239 384.5,-220 433.5,-220 433.5,-239"/>
<text text-anchor="middle" x="409" y="-227" font-family="Helvetica,sans-Serif" font-size="10.00">cstdlib</text>
</a>
</g>
</g>
<!-- Node3&#45;&gt;Node5 -->
<g id="edge4_Node000003_Node000005" class="edge">
<title>Node3&#45;&gt;Node5</title>
<g id="a_edge4_Node000003_Node000005"><a xlink:title=" ">
<path fill="none" stroke="#63b8ff" d="M386.46,-274.75C390.12,-267.57 395.41,-257.18 399.95,-248.27"/>
<polygon fill="#63b8ff" stroke="#63b8ff" points="403.2,-249.59 404.62,-239.09 396.97,-246.41 403.2,-249.59"/>
</a>
</g>
</g>
<!-- Node6 -->
<g id="Node000006" class="node">
<title>Node6</title>
<g id="a_Node000006"><a xlink:title=" ">
<polygon fill="#e0e0e0" stroke="#999999" points="502,-239 452,-239 452,-220 502,-220 502,-239"/>
<text text-anchor="middle" x="477" y="-227" font-family="Helvetica,sans-Serif" font-size="10.00">cstring</text>
</a>
</g>
</g>
<!-- Node3&#45;&gt;Node6 -->
<g id="edge5_Node000003_Node000006" class="edge">
<title>Node3&#45;&gt;Node6</title>
<g id="a_edge5_Node000003_Node000006"><a xlink:title=" ">
<path fill="none" stroke="#63b8ff" d="M397.26,-274.98C412.13,-266.69 434.98,-253.94 452.42,-244.22"/>
<polygon fill="#63b8ff" stroke="#63b8ff" points="454.43,-247.1 461.46,-239.17 451.02,-240.99 454.43,-247.1"/>
</a>
</g>
</g>
<!-- Node7 -->
<g id="Node000007" class="node">
<title>Node7</title>
<g id="a_Node000007"><a xlink:title=" ">
<polygon fill="#e0e0e0" stroke="#999999" points="80.5,-74 33.5,-74 33.5,-55 80.5,-55 80.5,-74"/>
<text text-anchor="middle" x="57" y="-62" font-family="Helvetica,sans-Serif" font-size="10.00">cmath</text>
</a>
</g>
</g>
<!-- Node3&#45;&gt;Node7 -->
<g id="edge6_Node000003_Node000007" class="edge">
<title>Node3&#45;&gt;Node7</title>
<g id="a_edge6_Node000003_Node000007"><a xlink:title=" ">
<path fill="none" stroke="#63b8ff" d="M338.31,-282.14C268.88,-279.09 137.75,-269.36 104,-239 59.19,-198.7 55.24,-120.48 56,-84.48"/>
<polygon fill="#63b8ff" stroke="#63b8ff" points="59.5,-84.49 56.37,-74.37 52.51,-84.24 59.5,-84.49"/>
</a>
</g>
</g>
<!-- Node8 -->
<g id="Node000008" class="node">
<title>Node8</title>
<g id="a_Node000008"><a xlink:title=" ">
<polygon fill="#e0e0e0" stroke="#999999" points="167,-129 111,-129 111,-110 167,-110 167,-129"/>
<text text-anchor="middle" x="139" y="-117" font-family="Helvetica,sans-Serif" font-size="10.00">sstream</text>
</a>
</g>
</g>
<!-- Node3&#45;&gt;Node8 -->
<g id="edge7_Node000003_Node000008" class="edge">
<title>Node3&#45;&gt;Node8</title>
<g id="a_edge7_Node000003_Node000008"><a xlink:title=" ">
<path fill="none" stroke="#63b8ff" d="M338.31,-282.72C270.51,-280.49 144.83,-271.9 117,-239 92.66,-210.23 113.45,-163.29 127.92,-137.99"/>
<polygon fill="#63b8ff" stroke="#63b8ff" points="131.09,-139.52 133.23,-129.15 125.08,-135.92 131.09,-139.52"/>
</a>
</g>
</g>
<!-- Node9 -->
<g id="Node000009" class="node">
<title>Node9</title>
<g id="a_Node000009"><a xlink:title=" ">
<polygon fill="#e0e0e0" stroke="#999999" points="512.5,-74 459.5,-74 459.5,-55 512.5,-55 512.5,-74"/>
<text text-anchor="middle" x="486" y="-62" font-family="Helvetica,sans-Serif" font-size="10.00">stdint.h</text>
</a>
</g>
</g>
<!-- Node3&#45;&gt;Node9 -->
<g id="edge8_Node000003_Node000009" class="edge">
<title>Node3&#45;&gt;Node9</title>
<g id="a_edge8_Node000003_Node000009"><a xlink:title=" ">
<path fill="none" stroke="#63b8ff" d="M373.95,-274.93C357.05,-255.87 320.29,-208.27 331,-165 337.64,-138.18 339.09,-128.07 360,-110 385.3,-88.15 422.03,-76.8 449.32,-71.05"/>
<polygon fill="#63b8ff" stroke="#63b8ff" points="450.12,-74.46 459.27,-69.11 448.79,-67.59 450.12,-74.46"/>
</a>
</g>
</g>
<!-- Node10 -->
<g id="Node000010" class="node">
<title>Node10</title>
<g id="a_Node000010"><a xlink:href="midi__events_8h.html" target="_top" xlink:title=" ">
<polygon fill="white" stroke="#666666" points="245.5,-239 126.5,-239 126.5,-220 245.5,-220 245.5,-239"/>
<text text-anchor="middle" x="186" y="-227" font-family="Helvetica,sans-Serif" font-size="10.00">evoral/midi_events.h</text>
</a>
</g>
</g>
<!-- Node3&#45;&gt;Node10 -->
<g id="edge9_Node000003_Node000010" class="edge">
<title>Node3&#45;&gt;Node10</title>
<g id="a_edge9_Node000003_Node000010"><a xlink:title=" ">
<path fill="none" stroke="#63b8ff" d="M350.51,-274.98C317.18,-265.97 264.4,-251.7 227.65,-241.76"/>
<polygon fill="#63b8ff" stroke="#63b8ff" points="228.3,-238.31 217.74,-239.08 226.48,-245.07 228.3,-238.31"/>
</a>
</g>
</g>
<!-- Node11 -->
<g id="Node000011" class="node">
<title>Node11</title>
<g id="a_Node000011"><a xlink:href="evoral_2evoral_2types_8h.html" target="_top" xlink:title=" ">
<polygon fill="white" stroke="#666666" points="606,-239 520,-239 520,-220 606,-220 606,-239"/>
<text text-anchor="middle" x="563" y="-227" font-family="Helvetica,sans-Serif" font-size="10.00">evoral/types.h</text>
</a>
</g>
</g>
<!-- Node3&#45;&gt;Node11 -->
<g id="edge10_Node000003_Node000011" class="edge">
<title>Node3&#45;&gt;Node11</title>
<g id="a_edge10_Node000003_Node000011"><a xlink:title=" ">
<path fill="none" stroke="#63b8ff" d="M411.08,-274.98C441.6,-266.05 489.76,-251.94 523.66,-242.02"/>
<polygon fill="#63b8ff" stroke="#63b8ff" points="525.08,-245.25 533.69,-239.08 523.11,-238.53 525.08,-245.25"/>
</a>
</g>
</g>
<!-- Node3&#45;&gt;Node16 -->
<g id="edge35_Node000003_Node000016" class="edge">
<title>Node3&#45;&gt;Node16</title>
<g id="a_edge35_Node000003_Node000016"><a xlink:title=" ">
<path fill="none" stroke="#63b8ff" d="M425.52,-277.7C472.77,-270.83 550.15,-257.88 615,-239 662.64,-225.13 715.79,-202.54 747.26,-188.38"/>
<polygon fill="#63b8ff" stroke="#63b8ff" points="749.02,-191.42 756.68,-184.1 746.13,-185.05 749.02,-191.42"/>
</a>
</g>
</g>
<!-- Node11&#45;&gt;Node2 -->
<g id="edge16_Node000011_Node000002" class="edge">
<title>Node11&#45;&gt;Node2</title>
<g id="a_edge16_Node000011_Node000002"><a xlink:title=" ">
<path fill="none" stroke="#63b8ff" d="M519.9,-221.21C516.89,-220.78 513.9,-220.37 511,-220 332.69,-197.44 116.82,-182.13 42.57,-177.21"/>
<polygon fill="#63b8ff" stroke="#63b8ff" points="42.49,-173.7 32.28,-176.53 42.03,-180.68 42.49,-173.7"/>
</a>
</g>
</g>
<!-- Node11&#45;&gt;Node9 -->
<g id="edge13_Node000011_Node000009" class="edge">
<title>Node11&#45;&gt;Node9</title>
<g id="a_edge13_Node000011_Node000009"><a xlink:title=" ">
<path fill="none" stroke="#63b8ff" d="M519.95,-220.21C499.62,-213.9 477.19,-202.93 465,-184 442.48,-149.04 512.63,-129.74 513,-129 520.75,-113.5 511.12,-95.25 501.28,-82.3"/>
<polygon fill="#63b8ff" stroke="#63b8ff" points="503.72,-79.75 494.65,-74.28 498.33,-84.22 503.72,-79.75"/>
</a>
</g>
</g>
<!-- Node12 -->
<g id="Node000012" class="node">
<title>Node12</title>
<g id="a_Node000012"><a xlink:title=" ">
<polygon fill="#e0e0e0" stroke="#999999" points="521.5,-184 474.5,-184 474.5,-165 521.5,-165 521.5,-184"/>
<text text-anchor="middle" x="498" y="-172" font-family="Helvetica,sans-Serif" font-size="10.00">float.h</text>
</a>
</g>
</g>
<!-- Node11&#45;&gt;Node12 -->
<g id="edge11_Node000011_Node000012" class="edge">
<title>Node11&#45;&gt;Node12</title>
<g id="a_edge11_Node000011_Node000012"><a xlink:title=" ">
<path fill="none" stroke="#63b8ff" d="M552.56,-219.98C542.85,-212.07 528.18,-200.11 516.5,-190.58"/>
<polygon fill="#63b8ff" stroke="#63b8ff" points="518.6,-187.78 508.63,-184.17 514.17,-193.2 518.6,-187.78"/>
</a>
</g>
</g>
<!-- Node13 -->
<g id="Node000013" class="node">
<title>Node13</title>
<g id="a_Node000013"><a xlink:title=" ">
<polygon fill="#e0e0e0" stroke="#999999" points="590.5,-184 539.5,-184 539.5,-165 590.5,-165 590.5,-184"/>
<text text-anchor="middle" x="565" y="-172" font-family="Helvetica,sans-Serif" font-size="10.00">math.h</text>
</a>
</g>
</g>
<!-- Node11&#45;&gt;Node13 -->
<g id="edge12_Node000011_Node000013" class="edge">
<title>Node11&#45;&gt;Node13</title>
<g id="a_edge12_Node000011_Node000013"><a xlink:title=" ">
<path fill="none" stroke="#63b8ff" d="M563.33,-219.75C563.59,-212.8 563.97,-202.85 564.3,-194.13"/>
<polygon fill="#63b8ff" stroke="#63b8ff" points="567.8,-194.21 564.68,-184.09 560.8,-193.95 567.8,-194.21"/>
</a>
</g>
</g>
<!-- Node14 -->
<g id="Node000014" class="node">
<title>Node14</title>
<g id="a_Node000014"><a xlink:title=" ">
<polygon fill="#e0e0e0" stroke="#999999" points="669,-184 609,-184 609,-165 669,-165 669,-184"/>
<text text-anchor="middle" x="639" y="-172" font-family="Helvetica,sans-Serif" font-size="10.00">iostream</text>
</a>
</g>
</g>
<!-- Node11&#45;&gt;Node14 -->
<g id="edge14_Node000011_Node000014" class="edge">
<title>Node11&#45;&gt;Node14</title>
<g id="a_edge14_Node000011_Node000014"><a xlink:title=" ">
<path fill="none" stroke="#63b8ff" d="M575.21,-219.98C586.78,-211.92 604.38,-199.65 618.16,-190.03"/>
<polygon fill="#63b8ff" stroke="#63b8ff" points="620.37,-192.76 626.57,-184.17 616.36,-187.02 620.37,-192.76"/>
</a>
</g>
</g>
<!-- Node15 -->
<g id="Node000015" class="node">
<title>Node15</title>
<g id="a_Node000015"><a xlink:title=" ">
<polygon fill="#e0e0e0" stroke="#999999" points="642,-74 598,-74 598,-55 642,-55 642,-74"/>
<text text-anchor="middle" x="620" y="-62" font-family="Helvetica,sans-Serif" font-size="10.00">limits</text>
</a>
</g>
</g>
<!-- Node11&#45;&gt;Node15 -->
<g id="edge15_Node000011_Node000015" class="edge">
<title>Node11&#45;&gt;Node15</title>
<g id="a_edge15_Node000011_Node000015"><a xlink:title=" ">
<path fill="none" stroke="#63b8ff" d="M596.74,-219.98C627.14,-211.55 668.47,-197.91 678,-184 701.48,-149.73 662.58,-104.54 637.9,-81.1"/>
<polygon fill="#63b8ff" stroke="#63b8ff" points="640.22,-78.48 630.48,-74.3 635.49,-83.64 640.22,-78.48"/>
</a>
</g>
</g>
<!-- Node11&#45;&gt;Node16 -->
<g id="edge17_Node000011_Node000016" class="edge">
<title>Node11&#45;&gt;Node16</title>
<g id="a_edge17_Node000011_Node000016"><a xlink:title=" ">
<path fill="none" stroke="#63b8ff" d="M597.06,-219.98C633.42,-210.89 691.17,-196.46 730.97,-186.51"/>
<polygon fill="#63b8ff" stroke="#63b8ff" points="731.82,-189.9 740.67,-184.08 730.12,-183.11 731.82,-189.9"/>
</a>
</g>
</g>
<!-- Node17 -->
<g id="Node000017" class="node">
<title>Node17</title>
<g id="a_Node000017"><a xlink:href="libs_2pbd_2pbd_2debug_8h.html" target="_top" xlink:title=" ">
<polygon fill="white" stroke="#666666" points="417.5,-184 340.5,-184 340.5,-165 417.5,-165 417.5,-184"/>
<text text-anchor="middle" x="379" y="-172" font-family="Helvetica,sans-Serif" font-size="10.00">pbd/debug.h</text>
</a>
</g>
</g>
<!-- Node11&#45;&gt;Node17 -->
<g id="edge18_Node000011_Node000017" class="edge">
<title>Node11&#45;&gt;Node17</title>
<g id="a_edge18_Node000011_Node000017"><a xlink:title=" ">
<path fill="none" stroke="#63b8ff" d="M533.44,-219.98C502.28,-211.01 453.03,-196.82 418.54,-186.89"/>
<polygon fill="#63b8ff" stroke="#63b8ff" points="419.37,-183.49 408.79,-184.08 417.43,-190.21 419.37,-183.49"/>
</a>
</g>
</g>
<!-- Node17&#45;&gt;Node8 -->
<g id="edge21_Node000017_Node000008" class="edge">
<title>Node17&#45;&gt;Node8</title>
<g id="a_edge21_Node000017_Node000008"><a xlink:title=" ">
<path fill="none" stroke="#63b8ff" d="M340.44,-164.98C295.57,-155.08 221.94,-138.82 177.22,-128.94"/>
<polygon fill="#63b8ff" stroke="#63b8ff" points="177.84,-125.49 167.32,-126.75 176.33,-132.33 177.84,-125.49"/>
</a>
</g>
</g>
<!-- Node17&#45;&gt;Node9 -->
<g id="edge20_Node000017_Node000009" class="edge">
<title>Node17&#45;&gt;Node9</title>
<g id="a_edge20_Node000017_Node000009"><a xlink:title=" ">
<path fill="none" stroke="#63b8ff" d="M374.09,-164.84C367.39,-151.76 357.47,-126.72 369,-110 378.48,-96.26 418.72,-82.98 449.38,-74.56"/>
<polygon fill="#63b8ff" stroke="#63b8ff" points="450.6,-77.86 459.36,-71.9 448.79,-71.1 450.6,-77.86"/>
</a>
</g>
</g>
<!-- Node18 -->
<g id="Node000018" class="node">
<title>Node18</title>
<g id="a_Node000018"><a xlink:title=" ">
<polygon fill="#e0e0e0" stroke="#999999" points="504,-129 460,-129 460,-110 504,-110 504,-129"/>
<text text-anchor="middle" x="482" y="-117" font-family="Helvetica,sans-Serif" font-size="10.00">bitset</text>
</a>
</g>
</g>
<!-- Node17&#45;&gt;Node18 -->
<g id="edge19_Node000017_Node000018" class="edge">
<title>Node17&#45;&gt;Node18</title>
<g id="a_edge19_Node000017_Node000018"><a xlink:title=" ">
<path fill="none" stroke="#63b8ff" d="M395.55,-164.98C411.89,-156.57 437.13,-143.59 456.13,-133.81"/>
<polygon fill="#63b8ff" stroke="#63b8ff" points="457.86,-136.86 465.15,-129.17 454.66,-130.63 457.86,-136.86"/>
</a>
</g>
</g>
<!-- Node19 -->
<g id="Node000019" class="node">
<title>Node19</title>
<g id="a_Node000019"><a xlink:href="libpbd__visibility_8h.html" target="_top" xlink:title=" ">
<polygon fill="white" stroke="#666666" points="505,-19 383,-19 383,0 505,0 505,-19"/>
<text text-anchor="middle" x="444" y="-7" font-family="Helvetica,sans-Serif" font-size="10.00">pbd/libpbd_visibility.h</text>
</a>
</g>
</g>
<!-- Node17&#45;&gt;Node19 -->
<g id="edge22_Node000017_Node000019" class="edge">
<title>Node17&#45;&gt;Node19</title>
<g id="a_edge22_Node000017_Node000019"><a xlink:title=" ">
<path fill="none" stroke="#63b8ff" d="M417.76,-165.14C486.27,-149.48 624.09,-113.69 651,-74 655.74,-67.01 656.31,-61.57 651,-55 633.99,-33.95 568.06,-22.39 515.11,-16.37"/>
<polygon fill="#63b8ff" stroke="#63b8ff" points="515.37,-12.88 505.05,-15.27 514.61,-19.84 515.37,-12.88"/>
</a>
</g>
</g>
<!-- Node20 -->
<g id="Node000020" class="node">
<title>Node20</title>
<g id="a_Node000020"><a xlink:href="timing_8h.html" target="_top" xlink:title=" ">
<polygon fill="white" stroke="#666666" points="284,-129 206,-129 206,-110 284,-110 284,-129"/>
<text text-anchor="middle" x="245" y="-117" font-family="Helvetica,sans-Serif" font-size="10.00">pbd/timing.h</text>
</a>
</g>
</g>
<!-- Node17&#45;&gt;Node20 -->
<g id="edge23_Node000017_Node000020" class="edge">
<title>Node17&#45;&gt;Node20</title>
<g id="a_edge23_Node000017_Node000020"><a xlink:title=" ">
<path fill="none" stroke="#63b8ff" d="M357.47,-164.98C335.53,-156.3 301.26,-142.75 276.31,-132.88"/>
<polygon fill="#63b8ff" stroke="#63b8ff" points="277.51,-129.59 266.92,-129.17 274.93,-136.1 277.51,-129.59"/>
</a>
</g>
</g>
<!-- Node26 -->
<g id="Node000026" class="node">
<title>Node26</title>
<g id="a_Node000026"><a xlink:title=" ">
<polygon fill="#e0e0e0" stroke="#999999" points="441.5,-129 378.5,-129 378.5,-110 441.5,-110 441.5,-129"/>
<text text-anchor="middle" x="410" y="-117" font-family="Helvetica,sans-Serif" font-size="10.00">pthread.h</text>
</a>
</g>
</g>
<!-- Node17&#45;&gt;Node26 -->
<g id="edge34_Node000017_Node000026" class="edge">
<title>Node17&#45;&gt;Node26</title>
<g id="a_edge34_Node000017_Node000026"><a xlink:title=" ">
<path fill="none" stroke="#63b8ff" d="M384.12,-164.75C388.36,-157.49 394.53,-146.95 399.78,-137.98"/>
<polygon fill="#63b8ff" stroke="#63b8ff" points="402.95,-139.49 404.98,-129.09 396.91,-135.95 402.95,-139.49"/>
</a>
</g>
</g>
<!-- Node20&#45;&gt;Node7 -->
<g id="edge26_Node000020_Node000007" class="edge">
<title>Node20&#45;&gt;Node7</title>
<g id="a_edge26_Node000020_Node000007"><a xlink:title=" ">
<path fill="none" stroke="#63b8ff" d="M214.79,-109.98C180.79,-100.4 125.68,-84.86 90.41,-74.92"/>
<polygon fill="#63b8ff" stroke="#63b8ff" points="91.16,-71.49 80.58,-72.15 89.26,-78.23 91.16,-71.49"/>
</a>
</g>
</g>
<!-- Node20&#45;&gt;Node9 -->
<g id="edge25_Node000020_Node000009" class="edge">
<title>Node20&#45;&gt;Node9</title>
<g id="a_edge25_Node000020_Node000009"><a xlink:title=" ">
<path fill="none" stroke="#63b8ff" d="M283.72,-109.98C329.39,-99.94 404.75,-83.37 449.45,-73.54"/>
<polygon fill="#63b8ff" stroke="#63b8ff" points="450.3,-76.94 459.31,-71.37 448.79,-70.1 450.3,-76.94"/>
</a>
</g>
</g>
<!-- Node20&#45;&gt;Node15 -->
<g id="edge27_Node000020_Node000015" class="edge">
<title>Node20&#45;&gt;Node15</title>
<g id="a_edge27_Node000020_Node000015"><a xlink:title=" ">
<path fill="none" stroke="#63b8ff" d="M284.07,-112.98C358.32,-102.48 518.54,-79.84 587.43,-70.1"/>
<polygon fill="#63b8ff" stroke="#63b8ff" points="588.26,-73.52 597.68,-68.66 587.28,-66.59 588.26,-73.52"/>
</a>
</g>
</g>
<!-- Node20&#45;&gt;Node19 -->
<g id="edge33_Node000020_Node000019" class="edge">
<title>Node20&#45;&gt;Node19</title>
<g id="a_edge33_Node000020_Node000019"><a xlink:title=" ">
<path fill="none" stroke="#63b8ff" d="M284.08,-111.9C327.02,-104.01 392.5,-89.84 412,-74 426.05,-62.59 434.5,-43.42 439.16,-29.12"/>
<polygon fill="#63b8ff" stroke="#63b8ff" points="442.57,-29.92 442.01,-19.34 435.85,-27.96 442.57,-29.92"/>
</a>
</g>
</g>
<!-- Node21 -->
<g id="Node000021" class="node">
<title>Node21</title>
<g id="a_Node000021"><a xlink:title=" ">
<polygon fill="#e0e0e0" stroke="#999999" points="143,-74 99,-74 99,-55 143,-55 143,-74"/>
<text text-anchor="middle" x="121" y="-62" font-family="Helvetica,sans-Serif" font-size="10.00">glib.h</text>
</a>
</g>
</g>
<!-- Node20&#45;&gt;Node21 -->
<g id="edge24_Node000020_Node000021" class="edge">
<title>Node20&#45;&gt;Node21</title>
<g id="a_edge24_Node000020_Node000021"><a xlink:title=" ">
<path fill="none" stroke="#63b8ff" d="M225.08,-109.98C204.95,-101.38 173.62,-87.99 150.59,-78.15"/>
<polygon fill="#63b8ff" stroke="#63b8ff" points="151.86,-74.88 141.29,-74.17 149.1,-81.32 151.86,-74.88"/>
</a>
</g>
</g>
<!-- Node22 -->
<g id="Node000022" class="node">
<title>Node22</title>
<g id="a_Node000022"><a xlink:title=" ">
<polygon fill="#e0e0e0" stroke="#999999" points="205,-74 161,-74 161,-55 205,-55 205,-74"/>
<text text-anchor="middle" x="183" y="-62" font-family="Helvetica,sans-Serif" font-size="10.00">string</text>
</a>
</g>
</g>
<!-- Node20&#45;&gt;Node22 -->
<g id="edge28_Node000020_Node000022" class="edge">
<title>Node20&#45;&gt;Node22</title>
<g id="a_edge28_Node000020_Node000022"><a xlink:title=" ">
<path fill="none" stroke="#63b8ff" d="M235.04,-109.98C225.87,-102.15 212.06,-90.34 200.97,-80.86"/>
<polygon fill="#63b8ff" stroke="#63b8ff" points="203.02,-78.01 193.14,-74.17 198.47,-83.33 203.02,-78.01"/>
</a>
</g>
</g>
<!-- Node23 -->
<g id="Node000023" class="node">
<title>Node23</title>
<g id="a_Node000023"><a xlink:title=" ">
<polygon fill="#e0e0e0" stroke="#999999" points="270.5,-74 223.5,-74 223.5,-55 270.5,-55 270.5,-74"/>
<text text-anchor="middle" x="247" y="-62" font-family="Helvetica,sans-Serif" font-size="10.00">vector</text>
</a>
</g>
</g>
<!-- Node20&#45;&gt;Node23 -->
<g id="edge29_Node000020_Node000023" class="edge">
<title>Node20&#45;&gt;Node23</title>
<g id="a_edge29_Node000020_Node000023"><a xlink:title=" ">
<path fill="none" stroke="#63b8ff" d="M245.33,-109.75C245.59,-102.8 245.97,-92.85 246.3,-84.13"/>
<polygon fill="#63b8ff" stroke="#63b8ff" points="249.8,-84.21 246.68,-74.09 242.8,-83.95 249.8,-84.21"/>
</a>
</g>
</g>
<!-- Node24 -->
<g id="Node000024" class="node">
<title>Node24</title>
<g id="a_Node000024"><a xlink:href="microseconds_8h.html" target="_top" xlink:title=" ">
<polygon fill="white" stroke="#666666" points="403,-74 289,-74 289,-55 403,-55 403,-74"/>
<text text-anchor="middle" x="346" y="-62" font-family="Helvetica,sans-Serif" font-size="10.00">pbd/microseconds.h</text>
</a>
</g>
</g>
<!-- Node20&#45;&gt;Node24 -->
<g id="edge30_Node000020_Node000024" class="edge">
<title>Node20&#45;&gt;Node24</title>
<g id="a_edge30_Node000020_Node000024"><a xlink:title=" ">
<path fill="none" stroke="#63b8ff" d="M261.23,-109.98C277.18,-101.61 301.78,-88.7 320.38,-78.95"/>
<polygon fill="#63b8ff" stroke="#63b8ff" points="322.25,-81.92 329.48,-74.17 319,-75.72 322.25,-81.92"/>
</a>
</g>
</g>
<!-- Node24&#45;&gt;Node19 -->
<g id="edge32_Node000024_Node000019" class="edge">
<title>Node24&#45;&gt;Node19</title>
<g id="a_edge32_Node000024_Node000019"><a xlink:title=" ">
<path fill="none" stroke="#63b8ff" d="M361.75,-54.98C377.23,-46.61 401.09,-33.7 419.14,-23.95"/>
<polygon fill="#63b8ff" stroke="#63b8ff" points="420.84,-27.01 427.97,-19.17 417.51,-20.85 420.84,-27.01"/>
</a>
</g>
</g>
<!-- Node25 -->
<g id="Node000025" class="node">
<title>Node25</title>
<g id="a_Node000025"><a xlink:title=" ">
<polygon fill="#e0e0e0" stroke="#999999" points="364.5,-19 299.5,-19 299.5,0 364.5,0 364.5,-19"/>
<text text-anchor="middle" x="332" y="-7" font-family="Helvetica,sans-Serif" font-size="10.00">inttypes.h</text>
</a>
</g>
</g>
<!-- Node24&#45;&gt;Node25 -->
<g id="edge31_Node000024_Node000025" class="edge">
<title>Node24&#45;&gt;Node25</title>
<g id="a_edge31_Node000024_Node000025"><a xlink:title=" ">
<path fill="none" stroke="#63b8ff" d="M343.69,-54.75C341.83,-47.72 339.16,-37.62 336.85,-28.84"/>
<polygon fill="#63b8ff" stroke="#63b8ff" points="340.21,-27.86 334.27,-19.09 333.44,-29.65 340.21,-27.86"/>
</a>
</g>
</g>
<!-- Node27&#45;&gt;Node11 -->
<g id="edge38_Node000027_Node000011" class="edge">
<title>Node27&#45;&gt;Node11</title>
<g id="a_edge38_Node000027_Node000011"><a xlink:title=" ">
<path fill="none" stroke="#63b8ff" d="M563,-274.75C563,-267.8 563,-257.85 563,-249.13"/>
<polygon fill="#63b8ff" stroke="#63b8ff" points="566.5,-249.09 563,-239.09 559.5,-249.09 566.5,-249.09"/>
</a>
</g>
</g>
<!-- Node27&#45;&gt;Node16 -->
<g id="edge37_Node000027_Node000016" class="edge">
<title>Node27&#45;&gt;Node16</title>
<g id="a_edge37_Node000027_Node000016"><a xlink:title=" ">
<path fill="none" stroke="#63b8ff" d="M590.45,-274.86C614.42,-266.88 649.85,-254 679,-239 706.92,-224.63 736.73,-203.98 755.59,-190.17"/>
<polygon fill="#63b8ff" stroke="#63b8ff" points="757.73,-192.94 763.68,-184.18 753.56,-187.32 757.73,-192.94"/>
</a>
</g>
</g>
</g>
</svg>
