<?xml version="1.0" encoding="UTF-8" standalone="no"?>
<!DOCTYPE svg PUBLIC "-//W3C//DTD SVG 1.1//EN"
 "http://www.w3.org/Graphics/SVG/1.1/DTD/svg11.dtd">
<!-- Generated by graphviz version 2.43.0 (0)
 -->
<!-- Title: exception.h Pages: 1 -->
<!--zoomable 203 -->

<svg id="main" version="1.1" xmlns="http://www.w3.org/2000/svg" xmlns:xlink="http://www.w3.org/1999/xlink" xml:space="preserve" onload="init(evt)">
<style type="text/css"><![CDATA[
.node, .edge {opacity: 0.7;}
.node.selected, .edge.selected {opacity: 1;}
.edge:hover path { stroke: red; }
.edge:hover polygon { stroke: red; fill: red; }
]]></style>

<defs>
  <circle id="rim" cx="0" cy="0" r="7"/>
  <circle id="rim2" cx="0" cy="0" r="3.5"/>
  <g id="zoomPlus">
    <use xlink:href="#rim" fill="#404040"><set attributeName="fill" to="#808080" begin="zoomplus.mouseover" end="zoomplus.mouseout"/></use>
    <path d="M-4,0h8M0,-4v8" fill="none" stroke="white" stroke-width="1.5" pointer-events="none"/>
  </g>
  <g id="zoomMin">
    <use xlink:href="#rim" fill="#404040"><set attributeName="fill" to="#808080" begin="zoomminus.mouseover" end="zoomminus.mouseout"/></use>
    <path d="M-4,0h8" fill="none" stroke="white" stroke-width="1.5" pointer-events="none"/>
  </g>
  <g id="arrowUp" transform="translate(30 24)">
    <use xlink:href="#rim"/>
    <path pointer-events="none" fill="none" stroke="white" stroke-width="1.5" d="M0,-3.0v7 M-2.5,-0.5L0,-3.0L2.5,-0.5"/>
  </g>
  <g id="arrowRight" transform="rotate(90) translate(36 -43)">
    <use xlink:href="#rim"/>
    <path pointer-events="none" fill="none" stroke="white" stroke-width="1.5" d="M0,-3.0v7 M-2.5,-0.5L0,-3.0L2.5,-0.5"/>
  </g>
  <g id="arrowDown" transform="rotate(180) translate(-30 -48)">
    <use xlink:href="#rim"/>
    <path pointer-events="none" fill="none" stroke="white" stroke-width="1.5" d="M0,-3.0v7 M-2.5,-0.5L0,-3.0L2.5,-0.5"/>
  </g>
  <g id="arrowLeft" transform="rotate(270) translate(-36 17)">
    <use xlink:href="#rim"/>
    <path pointer-events="none" fill="none" stroke="white" stroke-width="1.5" d="M0,-3.0v7 M-2.5,-0.5L0,-3.0L2.5,-0.5"/>
  </g>
  <g id="resetDef">
    <use xlink:href="#rim2" fill="#404040"><set attributeName="fill" to="#808080" begin="reset.mouseover" end="reset.mouseout"/></use>
  </g>
</defs>
<script type="application/ecmascript">
var viewWidth = 661;
var viewHeight = 203;
var sectionId = 'dynsection-0';
</script>
<script type="application/ecmascript" xlink:href="svg.min.js"/>
<svg id="graph" class="graph">
<g id="viewport">
<title>exception.h</title>
<!-- Node1 -->
<g id="Node000001" class="node">
<title>Node1</title>
<g id="a_Node000001"><a xlink:title=" ">
<polygon fill="#999999" stroke="#666666" points="374,-195 300,-195 300,-176 374,-176 374,-195"/>
<text text-anchor="middle" x="337" y="-183" font-family="Helvetica,sans-Serif" font-size="10.00">exception.h</text>
</a>
</g>
</g>
<!-- Node2 -->
<g id="Node000002" class="node">
<title>Node2</title>
<g id="a_Node000002"><a xlink:title=" ">
<polygon fill="#e0e0e0" stroke="#999999" points="177.5,-134.5 112.5,-134.5 112.5,-115.5 177.5,-115.5 177.5,-134.5"/>
<text text-anchor="middle" x="145" y="-122.5" font-family="Helvetica,sans-Serif" font-size="10.00">exception</text>
</a>
</g>
</g>
<!-- Node1&#45;&gt;Node2 -->
<g id="edge1_Node000001_Node000002" class="edge">
<title>Node1&#45;&gt;Node2</title>
<g id="a_edge1_Node000001_Node000002"><a xlink:title=" ">
<path fill="none" stroke="#63b8ff" d="M306.52,-175.93C275.94,-167.23 227.54,-153.21 186,-140 183.85,-139.31 181.63,-138.6 179.4,-137.87"/>
<polygon fill="#63b8ff" stroke="#63b8ff" points="180.25,-134.46 169.66,-134.61 178.04,-141.1 180.25,-134.46"/>
</a>
</g>
</g>
<!-- Node3 -->
<g id="Node000003" class="node">
<title>Node3</title>
<g id="a_Node000003"><a xlink:title=" ">
<polygon fill="#e0e0e0" stroke="#999999" points="364,-74 320,-74 320,-55 364,-55 364,-74"/>
<text text-anchor="middle" x="342" y="-62" font-family="Helvetica,sans-Serif" font-size="10.00">string</text>
</a>
</g>
</g>
<!-- Node1&#45;&gt;Node3 -->
<g id="edge2_Node000001_Node000003" class="edge">
<title>Node1&#45;&gt;Node3</title>
<g id="a_edge2_Node000001_Node000003"><a xlink:title=" ">
<path fill="none" stroke="#63b8ff" d="M337.36,-175.94C338.16,-156.91 340.1,-110.69 341.2,-84.47"/>
<polygon fill="#63b8ff" stroke="#63b8ff" points="344.71,-84.44 341.63,-74.3 337.71,-84.15 344.71,-84.44"/>
</a>
</g>
</g>
<!-- Node4 -->
<g id="Node000004" class="node">
<title>Node4</title>
<g id="a_Node000004"><a xlink:href="compose_8h.html" target="_top" xlink:title=" ">
<polygon fill="white" stroke="#666666" points="286.5,-134.5 195.5,-134.5 195.5,-115.5 286.5,-115.5 286.5,-134.5"/>
<text text-anchor="middle" x="241" y="-122.5" font-family="Helvetica,sans-Serif" font-size="10.00">pbd/compose.h</text>
</a>
</g>
</g>
<!-- Node1&#45;&gt;Node4 -->
<g id="edge3_Node000001_Node000004" class="edge">
<title>Node1&#45;&gt;Node4</title>
<g id="a_edge3_Node000001_Node000004"><a xlink:title=" ">
<path fill="none" stroke="#63b8ff" d="M322.83,-175.87C307.31,-166.41 282.17,-151.09 263.85,-139.92"/>
<polygon fill="#63b8ff" stroke="#63b8ff" points="265.58,-136.88 255.22,-134.67 261.94,-142.86 265.58,-136.88"/>
</a>
</g>
</g>
<!-- Node9 -->
<g id="Node000009" class="node">
<title>Node9</title>
<g id="a_Node000009"><a xlink:href="audiographer_2audiographer_2visibility_8h.html" target="_top" xlink:title=" ">
<polygon fill="white" stroke="#666666" points="653,-19 519,-19 519,0 653,0 653,-19"/>
<text text-anchor="middle" x="586" y="-7" font-family="Helvetica,sans-Serif" font-size="10.00">audiographer/visibility.h</text>
</a>
</g>
</g>
<!-- Node1&#45;&gt;Node9 -->
<g id="edge9_Node000001_Node000009" class="edge">
<title>Node1&#45;&gt;Node9</title>
<g id="a_edge9_Node000001_Node000009"><a xlink:title=" ">
<path fill="none" stroke="#63b8ff" d="M374.01,-178.01C405.62,-171.45 451.61,-159.47 488,-140 528.34,-118.42 541.82,-112.2 567,-74 575.91,-60.49 580.76,-42.66 583.33,-29.33"/>
<polygon fill="#63b8ff" stroke="#63b8ff" points="586.79,-29.83 584.98,-19.39 579.89,-28.68 586.79,-29.83"/>
</a>
</g>
</g>
<!-- Node10 -->
<g id="Node000010" class="node">
<title>Node10</title>
<g id="a_Node000010"><a xlink:href="debug__utils_8h.html" target="_top" xlink:title=" ">
<polygon fill="white" stroke="#666666" points="479,-140 365,-140 365,-110 479,-110 479,-140"/>
<text text-anchor="start" x="373" y="-128" font-family="Helvetica,sans-Serif" font-size="10.00">audiographer/debug</text>
<text text-anchor="middle" x="422" y="-117" font-family="Helvetica,sans-Serif" font-size="10.00">_utils.h</text>
</a>
</g>
</g>
<!-- Node1&#45;&gt;Node10 -->
<g id="edge10_Node000001_Node000010" class="edge">
<title>Node1&#45;&gt;Node10</title>
<g id="a_edge10_Node000001_Node000010"><a xlink:title=" ">
<path fill="none" stroke="#63b8ff" d="M349.54,-175.87C360.97,-168 378.27,-156.09 393.11,-145.89"/>
<polygon fill="#63b8ff" stroke="#63b8ff" points="395.24,-148.67 401.49,-140.11 391.27,-142.9 395.24,-148.67"/>
</a>
</g>
</g>
<!-- Node4&#45;&gt;Node3 -->
<g id="edge5_Node000004_Node000003" class="edge">
<title>Node4&#45;&gt;Node3</title>
<g id="a_edge5_Node000004_Node000003"><a xlink:title=" ">
<path fill="none" stroke="#63b8ff" d="M255.9,-115.37C272.31,-105.86 298.93,-90.45 318.23,-79.27"/>
<polygon fill="#63b8ff" stroke="#63b8ff" points="320.14,-82.21 327.04,-74.17 316.63,-76.15 320.14,-82.21"/>
</a>
</g>
</g>
<!-- Node5 -->
<g id="Node000005" class="node">
<title>Node5</title>
<g id="a_Node000005"><a xlink:title=" ">
<polygon fill="#e0e0e0" stroke="#999999" points="56,-74 0,-74 0,-55 56,-55 56,-74"/>
<text text-anchor="middle" x="28" y="-62" font-family="Helvetica,sans-Serif" font-size="10.00">sstream</text>
</a>
</g>
</g>
<!-- Node4&#45;&gt;Node5 -->
<g id="edge4_Node000004_Node000005" class="edge">
<title>Node4&#45;&gt;Node5</title>
<g id="a_edge4_Node000004_Node000005"><a xlink:title=" ">
<path fill="none" stroke="#63b8ff" d="M210.03,-115.49C171.87,-105.01 107.05,-87.21 65.94,-75.92"/>
<polygon fill="#63b8ff" stroke="#63b8ff" points="66.86,-72.54 56.29,-73.27 65,-79.29 66.86,-72.54"/>
</a>
</g>
</g>
<!-- Node6 -->
<g id="Node000006" class="node">
<title>Node6</title>
<g id="a_Node000006"><a xlink:title=" ">
<polygon fill="#e0e0e0" stroke="#999999" points="106,-74 74,-74 74,-55 106,-55 106,-74"/>
<text text-anchor="middle" x="90" y="-62" font-family="Helvetica,sans-Serif" font-size="10.00">list</text>
</a>
</g>
</g>
<!-- Node4&#45;&gt;Node6 -->
<g id="edge6_Node000004_Node000006" class="edge">
<title>Node4&#45;&gt;Node6</title>
<g id="a_edge6_Node000004_Node000006"><a xlink:title=" ">
<path fill="none" stroke="#63b8ff" d="M219.04,-115.49C191.68,-104.89 144.98,-86.8 115.89,-75.53"/>
<polygon fill="#63b8ff" stroke="#63b8ff" points="116.99,-72.2 106.4,-71.85 114.46,-78.73 116.99,-72.2"/>
</a>
</g>
</g>
<!-- Node7 -->
<g id="Node000007" class="node">
<title>Node7</title>
<g id="a_Node000007"><a xlink:title=" ">
<polygon fill="#e0e0e0" stroke="#999999" points="162,-74 124,-74 124,-55 162,-55 162,-74"/>
<text text-anchor="middle" x="143" y="-62" font-family="Helvetica,sans-Serif" font-size="10.00">map</text>
</a>
</g>
</g>
<!-- Node4&#45;&gt;Node7 -->
<g id="edge7_Node000004_Node000007" class="edge">
<title>Node4&#45;&gt;Node7</title>
<g id="a_edge7_Node000004_Node000007"><a xlink:title=" ">
<path fill="none" stroke="#63b8ff" d="M226.54,-115.37C210.69,-105.91 185.03,-90.59 166.32,-79.42"/>
<polygon fill="#63b8ff" stroke="#63b8ff" points="167.9,-76.29 157.52,-74.17 164.31,-82.3 167.9,-76.29"/>
</a>
</g>
</g>
<!-- Node8 -->
<g id="Node000008" class="node">
<title>Node8</title>
<g id="a_Node000008"><a xlink:href="libpbd__visibility_8h.html" target="_top" xlink:title=" ">
<polygon fill="white" stroke="#666666" points="302,-74 180,-74 180,-55 302,-55 302,-74"/>
<text text-anchor="middle" x="241" y="-62" font-family="Helvetica,sans-Serif" font-size="10.00">pbd/libpbd_visibility.h</text>
</a>
</g>
</g>
<!-- Node4&#45;&gt;Node8 -->
<g id="edge8_Node000004_Node000008" class="edge">
<title>Node4&#45;&gt;Node8</title>
<g id="a_edge8_Node000004_Node000008"><a xlink:title=" ">
<path fill="none" stroke="#63b8ff" d="M241,-115.37C241,-107.25 241,-94.81 241,-84.39"/>
<polygon fill="#63b8ff" stroke="#63b8ff" points="244.5,-84.17 241,-74.17 237.5,-84.17 244.5,-84.17"/>
</a>
</g>
</g>
<!-- Node10&#45;&gt;Node3 -->
<g id="edge18_Node000010_Node000003" class="edge">
<title>Node10&#45;&gt;Node3</title>
<g id="a_edge18_Node000010_Node000003"><a xlink:title=" ">
<path fill="none" stroke="#63b8ff" d="M402.63,-109.84C390.43,-100.91 374.69,-89.41 362.31,-80.35"/>
<polygon fill="#63b8ff" stroke="#63b8ff" points="364.13,-77.34 353.99,-74.27 359.99,-82.99 364.13,-77.34"/>
</a>
</g>
</g>
<!-- Node10&#45;&gt;Node9 -->
<g id="edge19_Node000010_Node000009" class="edge">
<title>Node10&#45;&gt;Node9</title>
<g id="a_edge19_Node000010_Node000009"><a xlink:title=" ">
<path fill="none" stroke="#63b8ff" d="M435.78,-109.89C450.72,-95.08 475.69,-71.66 500,-55 517.85,-42.76 539.5,-31.58 556.6,-23.49"/>
<polygon fill="#63b8ff" stroke="#63b8ff" points="558.49,-26.47 566.09,-19.09 555.55,-20.12 558.49,-26.47"/>
</a>
</g>
</g>
<!-- Node11 -->
<g id="Node000011" class="node">
<title>Node11</title>
<g id="a_Node000011"><a xlink:href="flag__field_8h.html" target="_top" xlink:title=" ">
<polygon fill="white" stroke="#666666" points="452,-74 382,-74 382,-55 452,-55 452,-74"/>
<text text-anchor="middle" x="417" y="-62" font-family="Helvetica,sans-Serif" font-size="10.00">flag_field.h</text>
</a>
</g>
</g>
<!-- Node10&#45;&gt;Node11 -->
<g id="edge11_Node000010_Node000011" class="edge">
<title>Node10&#45;&gt;Node11</title>
<g id="a_edge11_Node000010_Node000011"><a xlink:title=" ">
<path fill="none" stroke="#63b8ff" d="M420.79,-109.84C420.14,-102.21 419.33,-92.7 418.62,-84.45"/>
<polygon fill="#63b8ff" stroke="#63b8ff" points="422.09,-83.93 417.75,-74.27 415.11,-84.53 422.09,-83.93"/>
</a>
</g>
</g>
<!-- Node16 -->
<g id="Node000016" class="node">
<title>Node16</title>
<g id="a_Node000016"><a xlink:title=" ">
<polygon fill="#e0e0e0" stroke="#999999" points="557.5,-74 508.5,-74 508.5,-55 557.5,-55 557.5,-74"/>
<text text-anchor="middle" x="533" y="-62" font-family="Helvetica,sans-Serif" font-size="10.00">cstdlib</text>
</a>
</g>
</g>
<!-- Node10&#45;&gt;Node16 -->
<g id="edge17_Node000010_Node000016" class="edge">
<title>Node10&#45;&gt;Node16</title>
<g id="a_edge17_Node000010_Node000016"><a xlink:title=" ">
<path fill="none" stroke="#63b8ff" d="M448.59,-109.99C466.45,-100.58 489.84,-88.24 507.48,-78.95"/>
<polygon fill="#63b8ff" stroke="#63b8ff" points="509.39,-81.9 516.61,-74.14 506.13,-75.71 509.39,-81.9"/>
</a>
</g>
</g>
<!-- Node11&#45;&gt;Node9 -->
<g id="edge16_Node000011_Node000009" class="edge">
<title>Node11&#45;&gt;Node9</title>
<g id="a_edge16_Node000011_Node000009"><a xlink:title=" ">
<path fill="none" stroke="#63b8ff" d="M444.15,-54.98C472.53,-46.09 517.23,-32.07 548.86,-22.15"/>
<polygon fill="#63b8ff" stroke="#63b8ff" points="550.14,-25.41 558.63,-19.08 548.05,-18.73 550.14,-25.41"/>
</a>
</g>
</g>
<!-- Node12 -->
<g id="Node000012" class="node">
<title>Node12</title>
<g id="a_Node000012"><a xlink:title=" ">
<polygon fill="#e0e0e0" stroke="#999999" points="361.5,-19 308.5,-19 308.5,0 361.5,0 361.5,-19"/>
<text text-anchor="middle" x="335" y="-7" font-family="Helvetica,sans-Serif" font-size="10.00">stdint.h</text>
</a>
</g>
</g>
<!-- Node11&#45;&gt;Node12 -->
<g id="edge12_Node000011_Node000012" class="edge">
<title>Node11&#45;&gt;Node12</title>
<g id="a_edge12_Node000011_Node000012"><a xlink:title=" ">
<path fill="none" stroke="#63b8ff" d="M403.83,-54.98C391.23,-46.84 372,-34.41 357.06,-24.76"/>
<polygon fill="#63b8ff" stroke="#63b8ff" points="358.71,-21.66 348.41,-19.17 354.91,-27.54 358.71,-21.66"/>
</a>
</g>
</g>
<!-- Node13 -->
<g id="Node000013" class="node">
<title>Node13</title>
<g id="a_Node000013"><a xlink:title=" ">
<polygon fill="#e0e0e0" stroke="#999999" points="432.5,-19 379.5,-19 379.5,0 432.5,0 432.5,-19"/>
<text text-anchor="middle" x="406" y="-7" font-family="Helvetica,sans-Serif" font-size="10.00">iterator</text>
</a>
</g>
</g>
<!-- Node11&#45;&gt;Node13 -->
<g id="edge13_Node000011_Node000013" class="edge">
<title>Node11&#45;&gt;Node13</title>
<g id="a_edge13_Node000011_Node000013"><a xlink:title=" ">
<path fill="none" stroke="#63b8ff" d="M415.18,-54.75C413.74,-47.8 411.68,-37.85 409.87,-29.13"/>
<polygon fill="#63b8ff" stroke="#63b8ff" points="413.24,-28.17 407.78,-19.09 406.39,-29.59 413.24,-28.17"/>
</a>
</g>
</g>
<!-- Node14 -->
<g id="Node000014" class="node">
<title>Node14</title>
<g id="a_Node000014"><a xlink:title=" ">
<polygon fill="#e0e0e0" stroke="#999999" points="501,-19 451,-19 451,0 501,0 501,-19"/>
<text text-anchor="middle" x="476" y="-7" font-family="Helvetica,sans-Serif" font-size="10.00">climits</text>
</a>
</g>
</g>
<!-- Node11&#45;&gt;Node14 -->
<g id="edge14_Node000011_Node000014" class="edge">
<title>Node11&#45;&gt;Node14</title>
<g id="a_edge14_Node000011_Node000014"><a xlink:title=" ">
<path fill="none" stroke="#63b8ff" d="M426.48,-54.98C435.2,-47.15 448.34,-35.34 458.9,-25.86"/>
<polygon fill="#63b8ff" stroke="#63b8ff" points="461.25,-28.46 466.35,-19.17 456.57,-23.25 461.25,-28.46"/>
</a>
</g>
</g>
<!-- Node15 -->
<g id="Node000015" class="node">
<title>Node15</title>
<g id="a_Node000015"><a xlink:title=" ">
<polygon fill="#e0e0e0" stroke="#999999" points="290,-19 176,-19 176,0 290,0 290,-19"/>
<text text-anchor="middle" x="233" y="-7" font-family="Helvetica,sans-Serif" font-size="10.00">boost/operators.hpp</text>
</a>
</g>
</g>
<!-- Node11&#45;&gt;Node15 -->
<g id="edge15_Node000011_Node000015" class="edge">
<title>Node11&#45;&gt;Node15</title>
<g id="a_edge15_Node000011_Node000015"><a xlink:title=" ">
<path fill="none" stroke="#63b8ff" d="M387.44,-54.98C356.28,-46.01 307.03,-31.82 272.54,-21.89"/>
<polygon fill="#63b8ff" stroke="#63b8ff" points="273.37,-18.49 262.79,-19.08 271.43,-25.21 273.37,-18.49"/>
</a>
</g>
</g>
</g>
</svg>

<g id="navigator" transform="translate(0 0)" fill="#404254">
  <rect fill="#f2f5e9" fill-opacity="0.5" stroke="#606060" stroke-width=".5" x="0" y="0" width="60" height="60"/>
  <use id="zoomplus" xlink:href="#zoomPlus" x="17" y="9" onmousedown="handleZoom(evt,'in')"/>
  <use id="zoomminus" xlink:href="#zoomMin" x="42" y="9" onmousedown="handleZoom(evt,'out')"/>
  <use id="reset" xlink:href="#resetDef" x="30" y="36" onmousedown="handleReset()"/>
   <use id="arrowup" xlink:href="#arrowUp" x="0" y="0" onmousedown="handlePan(0,-1)"/>
  <use id="arrowright" xlink:href="#arrowRight" x="0" y="0" onmousedown="handlePan(1,0)"/>
  <use id="arrowdown" xlink:href="#arrowDown" x="0" y="0" onmousedown="handlePan(0,1)"/>
  <use id="arrowleft" xlink:href="#arrowLeft" x="0" y="0" onmousedown="handlePan(-1,0)"/>
</g>
<svg viewBox="0 0 15 15" width="100%" height="30px" preserveAspectRatio="xMaxYMin meet">
 <g id="arrow_out" transform="scale(0.3 0.3)">
  <a xlink:href="exception_8h__incl_org.svg" target="_base">
   <rect id="button" ry="5" rx="5" y="6" x="6" height="38" width="38"
        fill="#f2f5e9" fill-opacity="0.5" stroke="#606060" stroke-width="1.0"/>
   <path id="arrow"
     d="M 11.500037,31.436501 C 11.940474,20.09759 22.043105,11.32322 32.158766,21.979434 L 37.068811,17.246167 C 37.068811,17.246167 37.088388,32 37.088388,32 L 22.160133,31.978069 C 22.160133,31.978069 26.997745,27.140456 26.997745,27.140456 C 18.528582,18.264221 13.291696,25.230495 11.500037,31.436501 z"
     style="fill:#404040;"/>
  </a>
 </g>
</svg>

<style type='text/css'>
<![CDATA[
[data-mouse-over-selected='false'] { opacity: 0.7; }
[data-mouse-over-selected='true']  { opacity: 1.0; }
]]>
</style>
<script type="application/ecmascript"><![CDATA[
document.addEventListener('DOMContentLoaded', (event) => {
  highlightEdges();
  highlightAdjacentNodes();
});
]]></script>
</svg>
