<?xml version="1.0" encoding="UTF-8" standalone="no"?>
<!DOCTYPE svg PUBLIC "-//W3C//DTD SVG 1.1//EN"
 "http://www.w3.org/Graphics/SVG/1.1/DTD/svg11.dtd">
<!-- Generated by graphviz version 2.43.0 (0)
 -->
<!-- Title: export_analysis.h Pages: 1 -->
<svg width="687pt" height="137pt"
 viewBox="0.00 0.00 687.00 137.00" xmlns="http://www.w3.org/2000/svg" xmlns:xlink="http://www.w3.org/1999/xlink">
<g id="graph0" class="graph" transform="scale(1 1) rotate(0) translate(4 133)">
<title>export_analysis.h</title>
<!-- Node1 -->
<g id="Node000001" class="node">
<title>Node1</title>
<g id="a_Node000001"><a xlink:title=" ">
<polygon fill="#999999" stroke="#666666" points="400,-129 297,-129 297,-110 400,-110 400,-129"/>
<text text-anchor="middle" x="348.5" y="-117" font-family="Helvetica,sans-Serif" font-size="10.00">export_analysis.h</text>
</a>
</g>
</g>
<!-- Node2 -->
<g id="Node000002" class="node">
<title>Node2</title>
<g id="a_Node000002"><a xlink:href="audiographer_2audiographer_2general_2analyser_8h.html" target="_top" xlink:title=" ">
<polygon fill="white" stroke="#666666" points="67,-74 0,-74 0,-55 67,-55 67,-74"/>
<text text-anchor="middle" x="33.5" y="-62" font-family="Helvetica,sans-Serif" font-size="10.00">analyser.h</text>
</a>
</g>
</g>
<!-- Node1&#45;&gt;Node2 -->
<g id="edge1_Node000001_Node000002" class="edge">
<title>Node1&#45;&gt;Node2</title>
<g id="a_edge1_Node000001_Node000002"><a xlink:title=" ">
<path fill="none" stroke="#63b8ff" d="M286.81,-109.13C231.41,-100.55 147.88,-87.22 75.5,-74 72.87,-73.52 70.14,-73 67.4,-72.48"/>
<polygon fill="#63b8ff" stroke="#63b8ff" points="286.41,-112.61 296.82,-110.68 287.48,-105.69 286.41,-112.61"/>
</a>
</g>
</g>
<!-- Node3 -->
<g id="Node000003" class="node">
<title>Node3</title>
<g id="a_Node000003"><a xlink:href="analysis__graph_8h.html" target="_top" xlink:title=" ">
<polygon fill="white" stroke="#666666" points="184,-74 85,-74 85,-55 184,-55 184,-74"/>
<text text-anchor="middle" x="134.5" y="-62" font-family="Helvetica,sans-Serif" font-size="10.00">analysis_graph.h</text>
</a>
</g>
</g>
<!-- Node1&#45;&gt;Node3 -->
<g id="edge2_Node000001_Node000003" class="edge">
<title>Node1&#45;&gt;Node3</title>
<g id="a_edge2_Node000001_Node000003"><a xlink:title=" ">
<path fill="none" stroke="#63b8ff" d="M304.34,-107.56C264.26,-97.64 205.96,-83.2 169.15,-74.08"/>
<polygon fill="#63b8ff" stroke="#63b8ff" points="303.57,-110.98 314.12,-109.98 305.25,-104.18 303.57,-110.98"/>
</a>
</g>
</g>
<!-- Node4 -->
<g id="Node000004" class="node">
<title>Node4</title>
<g id="a_Node000004"><a xlink:href="export__analysis__graphs_8h.html" target="_top" xlink:title=" ">
<polygon fill="white" stroke="#666666" points="343,-74 202,-74 202,-55 343,-55 343,-74"/>
<text text-anchor="middle" x="272.5" y="-62" font-family="Helvetica,sans-Serif" font-size="10.00">export_analysis_graphs.h</text>
</a>
</g>
</g>
<!-- Node1&#45;&gt;Node4 -->
<g id="edge3_Node000001_Node000004" class="edge">
<title>Node1&#45;&gt;Node4</title>
<g id="a_edge3_Node000001_Node000004"><a xlink:title=" ">
<path fill="none" stroke="#63b8ff" d="M327.92,-104.15C314.19,-94.57 296.57,-82.29 284.93,-74.17"/>
<polygon fill="#63b8ff" stroke="#63b8ff" points="326.08,-107.14 336.29,-109.98 330.09,-101.39 326.08,-107.14"/>
</a>
</g>
</g>
<!-- Node5 -->
<g id="Node000005" class="node">
<title>Node5</title>
<g id="a_Node000005"><a xlink:href="export__graph__builder_8h.html" target="_top" xlink:title=" ">
<polygon fill="white" stroke="#666666" points="489.5,-74 361.5,-74 361.5,-55 489.5,-55 489.5,-74"/>
<text text-anchor="middle" x="425.5" y="-62" font-family="Helvetica,sans-Serif" font-size="10.00">export_graph_builder.h</text>
</a>
</g>
</g>
<!-- Node1&#45;&gt;Node5 -->
<g id="edge4_Node000001_Node000005" class="edge">
<title>Node1&#45;&gt;Node5</title>
<g id="a_edge4_Node000001_Node000005"><a xlink:title=" ">
<path fill="none" stroke="#63b8ff" d="M369.35,-104.15C383.26,-94.57 401.11,-82.29 412.9,-74.17"/>
<polygon fill="#63b8ff" stroke="#63b8ff" points="367.12,-101.43 360.87,-109.98 371.09,-107.2 367.12,-101.43"/>
</a>
</g>
</g>
<!-- Node6 -->
<g id="Node000006" class="node">
<title>Node6</title>
<g id="a_Node000006"><a xlink:href="export__status_8h.html" target="_top" xlink:title=" ">
<polygon fill="white" stroke="#666666" points="599.5,-74 507.5,-74 507.5,-55 599.5,-55 599.5,-74"/>
<text text-anchor="middle" x="553.5" y="-62" font-family="Helvetica,sans-Serif" font-size="10.00">export_status.h</text>
</a>
</g>
</g>
<!-- Node1&#45;&gt;Node6 -->
<g id="edge5_Node000001_Node000006" class="edge">
<title>Node1&#45;&gt;Node6</title>
<g id="a_edge5_Node000001_Node000006"><a xlink:title=" ">
<path fill="none" stroke="#63b8ff" d="M391.29,-107.44C429.67,-97.52 485.19,-83.16 520.31,-74.08"/>
<polygon fill="#63b8ff" stroke="#63b8ff" points="390.24,-104.09 381.44,-109.98 391.99,-110.87 390.24,-104.09"/>
</a>
</g>
</g>
<!-- Node9 -->
<g id="Node000009" class="node">
<title>Node9</title>
<g id="a_Node000009"><a xlink:href="audiographer_2general_2limiter_8h.html" target="_top" xlink:title=" ">
<polygon fill="white" stroke="#666666" points="675,-74 618,-74 618,-55 675,-55 675,-74"/>
<text text-anchor="middle" x="646.5" y="-62" font-family="Helvetica,sans-Serif" font-size="10.00">limiter.h</text>
</a>
</g>
</g>
<!-- Node1&#45;&gt;Node9 -->
<g id="edge8_Node000001_Node000009" class="edge">
<title>Node1&#45;&gt;Node9</title>
<g id="a_edge8_Node000001_Node000009"><a xlink:title=" ">
<path fill="none" stroke="#63b8ff" d="M410.32,-108.82C463.1,-100.34 540.97,-87.32 608.5,-74 611.55,-73.4 614.73,-72.74 617.9,-72.06"/>
<polygon fill="#63b8ff" stroke="#63b8ff" points="409.76,-105.37 400.44,-110.4 410.87,-112.28 409.76,-105.37"/>
</a>
</g>
</g>
<!-- Node7 -->
<g id="Node000007" class="node">
<title>Node7</title>
<g id="a_Node000007"><a xlink:href="export__report_8h.html" target="_top" xlink:title=" ">
<polygon fill="white" stroke="#666666" points="535.5,-19 443.5,-19 443.5,0 535.5,0 535.5,-19"/>
<text text-anchor="middle" x="489.5" y="-7" font-family="Helvetica,sans-Serif" font-size="10.00">export_report.h</text>
</a>
</g>
</g>
<!-- Node6&#45;&gt;Node7 -->
<g id="edge6_Node000006_Node000007" class="edge">
<title>Node6&#45;&gt;Node7</title>
<g id="a_edge6_Node000006_Node000007"><a xlink:title=" ">
<path fill="none" stroke="#63b8ff" d="M535.51,-48.6C524.04,-39.11 509.59,-27.13 499.97,-19.17"/>
<polygon fill="#63b8ff" stroke="#63b8ff" points="533.28,-51.3 543.22,-54.98 537.75,-45.91 533.28,-51.3"/>
</a>
</g>
</g>
<!-- Node8 -->
<g id="Node000008" class="node">
<title>Node8</title>
<g id="a_Node000008"><a xlink:href="export__video__dialog_8h.html" target="_top" xlink:title=" ">
<polygon fill="white" stroke="#666666" points="679,-19 554,-19 554,0 679,0 679,-19"/>
<text text-anchor="middle" x="616.5" y="-7" font-family="Helvetica,sans-Serif" font-size="10.00">export_video_dialog.h</text>
</a>
</g>
</g>
<!-- Node6&#45;&gt;Node8 -->
<g id="edge7_Node000006_Node000008" class="edge">
<title>Node6&#45;&gt;Node8</title>
<g id="a_edge7_Node000006_Node000008"><a xlink:title=" ">
<path fill="none" stroke="#63b8ff" d="M571.54,-48.32C582.77,-38.87 596.82,-27.06 606.19,-19.17"/>
<polygon fill="#63b8ff" stroke="#63b8ff" points="569.02,-45.87 563.62,-54.98 573.53,-51.23 569.02,-45.87"/>
</a>
</g>
</g>
</g>
</svg>
