<?xml version="1.0" encoding="UTF-8" standalone="no"?>
<!DOCTYPE svg PUBLIC "-//W3C//DTD SVG 1.1//EN"
 "http://www.w3.org/Graphics/SVG/1.1/DTD/svg11.dtd">
<!-- Generated by graphviz version 2.43.0 (0)
 -->
<!-- Title: file_archive.h Pages: 1 -->
<!--zoomable 214 -->

<svg id="main" version="1.1" xmlns="http://www.w3.org/2000/svg" xmlns:xlink="http://www.w3.org/1999/xlink" xml:space="preserve" onload="init(evt)">
<style type="text/css"><![CDATA[
.node, .edge {opacity: 0.7;}
.node.selected, .edge.selected {opacity: 1;}
.edge:hover path { stroke: red; }
.edge:hover polygon { stroke: red; fill: red; }
]]></style>

<defs>
  <circle id="rim" cx="0" cy="0" r="7"/>
  <circle id="rim2" cx="0" cy="0" r="3.5"/>
  <g id="zoomPlus">
    <use xlink:href="#rim" fill="#404040"><set attributeName="fill" to="#808080" begin="zoomplus.mouseover" end="zoomplus.mouseout"/></use>
    <path d="M-4,0h8M0,-4v8" fill="none" stroke="white" stroke-width="1.5" pointer-events="none"/>
  </g>
  <g id="zoomMin">
    <use xlink:href="#rim" fill="#404040"><set attributeName="fill" to="#808080" begin="zoomminus.mouseover" end="zoomminus.mouseout"/></use>
    <path d="M-4,0h8" fill="none" stroke="white" stroke-width="1.5" pointer-events="none"/>
  </g>
  <g id="arrowUp" transform="translate(30 24)">
    <use xlink:href="#rim"/>
    <path pointer-events="none" fill="none" stroke="white" stroke-width="1.5" d="M0,-3.0v7 M-2.5,-0.5L0,-3.0L2.5,-0.5"/>
  </g>
  <g id="arrowRight" transform="rotate(90) translate(36 -43)">
    <use xlink:href="#rim"/>
    <path pointer-events="none" fill="none" stroke="white" stroke-width="1.5" d="M0,-3.0v7 M-2.5,-0.5L0,-3.0L2.5,-0.5"/>
  </g>
  <g id="arrowDown" transform="rotate(180) translate(-30 -48)">
    <use xlink:href="#rim"/>
    <path pointer-events="none" fill="none" stroke="white" stroke-width="1.5" d="M0,-3.0v7 M-2.5,-0.5L0,-3.0L2.5,-0.5"/>
  </g>
  <g id="arrowLeft" transform="rotate(270) translate(-36 17)">
    <use xlink:href="#rim"/>
    <path pointer-events="none" fill="none" stroke="white" stroke-width="1.5" d="M0,-3.0v7 M-2.5,-0.5L0,-3.0L2.5,-0.5"/>
  </g>
  <g id="resetDef">
    <use xlink:href="#rim2" fill="#404040"><set attributeName="fill" to="#808080" begin="reset.mouseover" end="reset.mouseout"/></use>
  </g>
</defs>
<script type="application/ecmascript">
var viewWidth = 1355;
var viewHeight = 214;
var sectionId = 'dynsection-0';
</script>
<script type="application/ecmascript" xlink:href="svg.min.js"/>
<svg id="graph" class="graph">
<g id="viewport">
<title>file_archive.h</title>
<!-- Node1 -->
<g id="Node000001" class="node">
<title>Node1</title>
<g id="a_Node000001"><a xlink:title=" ">
<polygon fill="#999999" stroke="#666666" points="184.98,-206 102.98,-206 102.98,-187 184.98,-187 184.98,-206"/>
<text text-anchor="middle" x="143.98" y="-194" font-family="Helvetica,sans-Serif" font-size="10.00">file_archive.h</text>
</a>
</g>
</g>
<!-- Node2 -->
<g id="Node000002" class="node">
<title>Node2</title>
<g id="a_Node000002"><a xlink:title=" ">
<polygon fill="#e0e0e0" stroke="#999999" points="261.98,-24.5 211.98,-24.5 211.98,-5.5 261.98,-5.5 261.98,-24.5"/>
<text text-anchor="middle" x="236.98" y="-12.5" font-family="Helvetica,sans-Serif" font-size="10.00">atomic</text>
</a>
</g>
</g>
<!-- Node1&#45;&gt;Node2 -->
<g id="edge1_Node000001_Node000002" class="edge">
<title>Node1&#45;&gt;Node2</title>
<g id="a_edge1_Node000001_Node000002"><a xlink:title=" ">
<path fill="none" stroke="#63b8ff" d="M158.94,-186.76C171.15,-178.89 187.97,-166.23 197.98,-151 222.13,-114.25 231.61,-62.32 235.1,-34.81"/>
<polygon fill="#63b8ff" stroke="#63b8ff" points="238.61,-34.96 236.26,-24.63 231.65,-34.17 238.61,-34.96"/>
</a>
</g>
</g>
<!-- Node3 -->
<g id="Node000003" class="node">
<title>Node3</title>
<g id="a_Node000003"><a xlink:title=" ">
<polygon fill="#e0e0e0" stroke="#999999" points="79.98,-151 17.98,-151 17.98,-132 79.98,-132 79.98,-151"/>
<text text-anchor="middle" x="48.98" y="-139" font-family="Helvetica,sans-Serif" font-size="10.00">archive.h</text>
</a>
</g>
</g>
<!-- Node1&#45;&gt;Node3 -->
<g id="edge2_Node000001_Node000003" class="edge">
<title>Node1&#45;&gt;Node3</title>
<g id="a_edge2_Node000001_Node000003"><a xlink:title=" ">
<path fill="none" stroke="#63b8ff" d="M128.72,-186.98C113.85,-178.69 91,-165.94 73.57,-156.22"/>
<polygon fill="#63b8ff" stroke="#63b8ff" points="74.96,-152.99 64.52,-151.17 71.55,-159.1 74.96,-152.99"/>
</a>
</g>
</g>
<!-- Node4 -->
<g id="Node000004" class="node">
<title>Node4</title>
<g id="a_Node000004"><a xlink:title=" ">
<polygon fill="#e0e0e0" stroke="#999999" points="189.48,-151 98.48,-151 98.48,-132 189.48,-132 189.48,-151"/>
<text text-anchor="middle" x="143.98" y="-139" font-family="Helvetica,sans-Serif" font-size="10.00">archive_entry.h</text>
</a>
</g>
</g>
<!-- Node1&#45;&gt;Node4 -->
<g id="edge3_Node000001_Node000004" class="edge">
<title>Node1&#45;&gt;Node4</title>
<g id="a_edge3_Node000001_Node000004"><a xlink:title=" ">
<path fill="none" stroke="#63b8ff" d="M143.98,-186.75C143.98,-179.8 143.98,-169.85 143.98,-161.13"/>
<polygon fill="#63b8ff" stroke="#63b8ff" points="147.48,-161.09 143.98,-151.09 140.48,-161.09 147.48,-161.09"/>
</a>
</g>
</g>
<!-- Node5 -->
<g id="Node000005" class="node">
<title>Node5</title>
<g id="a_Node000005"><a xlink:title=" ">
<polygon fill="#e0e0e0" stroke="#999999" points="107.48,-24.5 44.48,-24.5 44.48,-5.5 107.48,-5.5 107.48,-24.5"/>
<text text-anchor="middle" x="75.98" y="-12.5" font-family="Helvetica,sans-Serif" font-size="10.00">pthread.h</text>
</a>
</g>
</g>
<!-- Node1&#45;&gt;Node5 -->
<g id="edge4_Node000001_Node000005" class="edge">
<title>Node1&#45;&gt;Node5</title>
<g id="a_edge4_Node000001_Node000005"><a xlink:title=" ">
<path fill="none" stroke="#63b8ff" d="M102.96,-194.15C71.6,-190.7 30.24,-180.39 8.98,-151 -19.63,-111.44 29.06,-57.83 57.56,-31.67"/>
<polygon fill="#63b8ff" stroke="#63b8ff" points="60.18,-34.03 65.32,-24.76 55.52,-28.8 60.18,-34.03"/>
</a>
</g>
</g>
<!-- Node6 -->
<g id="Node000006" class="node">
<title>Node6</title>
<g id="a_Node000006"><a xlink:href="signals_8h.html" target="_top" xlink:title=" ">
<polygon fill="white" stroke="#666666" points="827.48,-151 746.48,-151 746.48,-132 827.48,-132 827.48,-151"/>
<text text-anchor="middle" x="786.98" y="-139" font-family="Helvetica,sans-Serif" font-size="10.00">pbd/signals.h</text>
</a>
</g>
</g>
<!-- Node1&#45;&gt;Node6 -->
<g id="edge5_Node000001_Node000006" class="edge">
<title>Node1&#45;&gt;Node6</title>
<g id="a_edge5_Node000001_Node000006"><a xlink:title=" ">
<path fill="none" stroke="#63b8ff" d="M185.18,-192.1C298.03,-182.8 611.94,-156.93 735.79,-146.72"/>
<polygon fill="#63b8ff" stroke="#63b8ff" points="736.45,-150.18 746.12,-145.87 735.87,-143.2 736.45,-150.18"/>
</a>
</g>
</g>
<!-- Node6&#45;&gt;Node2 -->
<g id="edge9_Node000006_Node000002" class="edge">
<title>Node6&#45;&gt;Node2</title>
<g id="a_edge9_Node000006_Node000002"><a xlink:title=" ">
<path fill="none" stroke="#63b8ff" d="M746.24,-139.27C631.82,-135.49 313.36,-122.66 274.98,-96 254.49,-81.77 244.71,-53.44 240.29,-34.6"/>
<polygon fill="#63b8ff" stroke="#63b8ff" points="243.67,-33.64 238.23,-24.55 236.81,-35.05 243.67,-33.64"/>
</a>
</g>
</g>
<!-- Node7 -->
<g id="Node000007" class="node">
<title>Node7</title>
<g id="a_Node000007"><a xlink:title=" ">
<polygon fill="#e0e0e0" stroke="#999999" points="1099.48,-90.5 1048.48,-90.5 1048.48,-71.5 1099.48,-71.5 1099.48,-90.5"/>
<text text-anchor="middle" x="1073.98" y="-78.5" font-family="Helvetica,sans-Serif" font-size="10.00">csignal</text>
</a>
</g>
</g>
<!-- Node6&#45;&gt;Node7 -->
<g id="edge6_Node000006_Node000007" class="edge">
<title>Node6&#45;&gt;Node7</title>
<g id="a_edge6_Node000006_Node000007"><a xlink:title=" ">
<path fill="none" stroke="#63b8ff" d="M827.63,-135.19C876.93,-128.3 962.35,-114.86 1033.98,-96 1036.47,-95.34 1039.03,-94.61 1041.59,-93.82"/>
<polygon fill="#63b8ff" stroke="#63b8ff" points="1042.92,-97.07 1051.33,-90.63 1040.74,-90.42 1042.92,-97.07"/>
</a>
</g>
</g>
<!-- Node8 -->
<g id="Node000008" class="node">
<title>Node8</title>
<g id="a_Node000008"><a xlink:title=" ">
<polygon fill="#e0e0e0" stroke="#999999" points="1121.98,-24.5 1089.98,-24.5 1089.98,-5.5 1121.98,-5.5 1121.98,-24.5"/>
<text text-anchor="middle" x="1105.98" y="-12.5" font-family="Helvetica,sans-Serif" font-size="10.00">list</text>
</a>
</g>
</g>
<!-- Node6&#45;&gt;Node8 -->
<g id="edge7_Node000006_Node000008" class="edge">
<title>Node6&#45;&gt;Node8</title>
<g id="a_edge7_Node000006_Node000008"><a xlink:title=" ">
<path fill="none" stroke="#63b8ff" d="M827.71,-137.49C872.07,-132.99 944.25,-122.04 1000.98,-96 1020.86,-86.88 1022.6,-79.27 1039.98,-66 1055.39,-54.24 1072.89,-40.99 1085.99,-31.09"/>
<polygon fill="#63b8ff" stroke="#63b8ff" points="1088.41,-33.65 1094.28,-24.83 1084.19,-28.06 1088.41,-33.65"/>
</a>
</g>
</g>
<!-- Node9 -->
<g id="Node000009" class="node">
<title>Node9</title>
<g id="a_Node000009"><a xlink:title=" ">
<polygon fill="#e0e0e0" stroke="#999999" points="554.98,-24.5 516.98,-24.5 516.98,-5.5 554.98,-5.5 554.98,-24.5"/>
<text text-anchor="middle" x="535.98" y="-12.5" font-family="Helvetica,sans-Serif" font-size="10.00">map</text>
</a>
</g>
</g>
<!-- Node6&#45;&gt;Node9 -->
<g id="edge8_Node000006_Node000009" class="edge">
<title>Node6&#45;&gt;Node9</title>
<g id="a_edge8_Node000006_Node000009"><a xlink:title=" ">
<path fill="none" stroke="#63b8ff" d="M785.1,-131.84C781.22,-116.16 770.81,-83.11 748.98,-66 745.32,-63.13 622.64,-35.4 565.16,-22.52"/>
<polygon fill="#63b8ff" stroke="#63b8ff" points="565.75,-19.06 555.23,-20.29 564.22,-25.89 565.75,-19.06"/>
</a>
</g>
</g>
<!-- Node10 -->
<g id="Node000010" class="node">
<title>Node10</title>
<g id="a_Node000010"><a xlink:title=" ">
<polygon fill="#e0e0e0" stroke="#999999" points="713.48,-24.5 610.48,-24.5 610.48,-5.5 713.48,-5.5 713.48,-24.5"/>
<text text-anchor="middle" x="661.98" y="-12.5" font-family="Helvetica,sans-Serif" font-size="10.00">glibmm/threads.h</text>
</a>
</g>
</g>
<!-- Node6&#45;&gt;Node10 -->
<g id="edge10_Node000006_Node000010" class="edge">
<title>Node6&#45;&gt;Node10</title>
<g id="a_edge10_Node000006_Node000010"><a xlink:title=" ">
<path fill="none" stroke="#63b8ff" d="M789.11,-131.72C792.22,-116.7 796.17,-85.81 781.98,-66 772.14,-52.26 732.73,-37.48 701.73,-27.58"/>
<polygon fill="#63b8ff" stroke="#63b8ff" points="702.59,-24.19 692,-24.55 700.51,-30.87 702.59,-24.19"/>
</a>
</g>
</g>
<!-- Node11 -->
<g id="Node000011" class="node">
<title>Node11</title>
<g id="a_Node000011"><a xlink:title=" ">
<polygon fill="#e0e0e0" stroke="#999999" points="529.98,-90.5 403.98,-90.5 403.98,-71.5 529.98,-71.5 529.98,-90.5"/>
<text text-anchor="middle" x="466.98" y="-78.5" font-family="Helvetica,sans-Serif" font-size="10.00">boost/bind/protect.hpp</text>
</a>
</g>
</g>
<!-- Node6&#45;&gt;Node11 -->
<g id="edge11_Node000006_Node000011" class="edge">
<title>Node6&#45;&gt;Node11</title>
<g id="a_edge11_Node000006_Node000011"><a xlink:title=" ">
<path fill="none" stroke="#63b8ff" d="M746.14,-133.36C696.95,-124.72 611.86,-109.62 538.98,-96 532.9,-94.86 526.54,-93.65 520.22,-92.44"/>
<polygon fill="#63b8ff" stroke="#63b8ff" points="520.85,-89 510.37,-90.54 519.52,-95.87 520.85,-89"/>
</a>
</g>
</g>
<!-- Node12 -->
<g id="Node000012" class="node">
<title>Node12</title>
<g id="a_Node000012"><a xlink:title=" ">
<polygon fill="#e0e0e0" stroke="#999999" points="665.98,-96 547.98,-96 547.98,-66 665.98,-66 665.98,-96"/>
<text text-anchor="start" x="555.98" y="-84" font-family="Helvetica,sans-Serif" font-size="10.00">boost/enable_shared</text>
<text text-anchor="middle" x="606.98" y="-73" font-family="Helvetica,sans-Serif" font-size="10.00">_from_this.hpp</text>
</a>
</g>
</g>
<!-- Node6&#45;&gt;Node12 -->
<g id="edge12_Node000006_Node000012" class="edge">
<title>Node6&#45;&gt;Node12</title>
<g id="a_edge12_Node000006_Node000012"><a xlink:title=" ">
<path fill="none" stroke="#63b8ff" d="M760.81,-131.99C734.45,-123.43 693.05,-109.97 659.83,-99.18"/>
<polygon fill="#63b8ff" stroke="#63b8ff" points="660.85,-95.83 650.26,-96.06 658.68,-102.48 660.85,-95.83"/>
</a>
</g>
</g>
<!-- Node13 -->
<g id="Node000013" class="node">
<title>Node13</title>
<g id="a_Node000013"><a xlink:title=" ">
<polygon fill="#e0e0e0" stroke="#999999" points="739.98,-90.5 683.98,-90.5 683.98,-71.5 739.98,-71.5 739.98,-90.5"/>
<text text-anchor="middle" x="711.98" y="-78.5" font-family="Helvetica,sans-Serif" font-size="10.00">optional</text>
</a>
</g>
</g>
<!-- Node6&#45;&gt;Node13 -->
<g id="edge13_Node000006_Node000013" class="edge">
<title>Node6&#45;&gt;Node13</title>
<g id="a_edge13_Node000006_Node000013"><a xlink:title=" ">
<path fill="none" stroke="#63b8ff" d="M775.92,-131.87C764.17,-122.71 745.39,-108.06 731.22,-97.01"/>
<polygon fill="#63b8ff" stroke="#63b8ff" points="733.13,-94.06 723.09,-90.67 728.83,-99.58 733.13,-94.06"/>
</a>
</g>
</g>
<!-- Node14 -->
<g id="Node000014" class="node">
<title>Node14</title>
<g id="a_Node000014"><a xlink:href="libpbd__visibility_8h.html" target="_top" xlink:title=" ">
<polygon fill="white" stroke="#666666" points="853.98,-24.5 731.98,-24.5 731.98,-5.5 853.98,-5.5 853.98,-24.5"/>
<text text-anchor="middle" x="792.98" y="-12.5" font-family="Helvetica,sans-Serif" font-size="10.00">pbd/libpbd_visibility.h</text>
</a>
</g>
</g>
<!-- Node6&#45;&gt;Node14 -->
<g id="edge14_Node000006_Node000014" class="edge">
<title>Node6&#45;&gt;Node14</title>
<g id="a_edge14_Node000006_Node000014"><a xlink:title=" ">
<path fill="none" stroke="#63b8ff" d="M796,-131.96C804.05,-123.66 815.28,-110.25 819.98,-96 827.13,-74.36 815.64,-49.49 805.51,-33.31"/>
<polygon fill="#63b8ff" stroke="#63b8ff" points="808.33,-31.23 799.85,-24.87 802.51,-35.12 808.33,-31.23"/>
</a>
</g>
</g>
<!-- Node15 -->
<g id="Node000015" class="node">
<title>Node15</title>
<g id="a_Node000015"><a xlink:href="event__loop_8h.html" target="_top" xlink:title=" ">
<polygon fill="white" stroke="#666666" points="385.48,-90.5 284.48,-90.5 284.48,-71.5 385.48,-71.5 385.48,-90.5"/>
<text text-anchor="middle" x="334.98" y="-78.5" font-family="Helvetica,sans-Serif" font-size="10.00">pbd/event_loop.h</text>
</a>
</g>
</g>
<!-- Node6&#45;&gt;Node15 -->
<g id="edge15_Node000006_Node000015" class="edge">
<title>Node6&#45;&gt;Node15</title>
<g id="a_edge15_Node000006_Node000015"><a xlink:title=" ">
<path fill="none" stroke="#63b8ff" d="M746.41,-137.46C675.01,-131.76 522.37,-118.02 394.98,-96 389.58,-95.07 383.94,-93.95 378.36,-92.75"/>
<polygon fill="#63b8ff" stroke="#63b8ff" points="379,-89.31 368.48,-90.54 377.47,-96.14 379,-89.31"/>
</a>
</g>
</g>
<!-- Node19 -->
<g id="Node000019" class="node">
<title>Node19</title>
<g id="a_Node000019"><a xlink:href="stack__allocator_8h.html" target="_top" xlink:title=" ">
<polygon fill="white" stroke="#666666" points="991.98,-90.5 871.98,-90.5 871.98,-71.5 991.98,-71.5 991.98,-90.5"/>
<text text-anchor="middle" x="931.98" y="-78.5" font-family="Helvetica,sans-Serif" font-size="10.00">pbd/stack_allocator.h</text>
</a>
</g>
</g>
<!-- Node6&#45;&gt;Node19 -->
<g id="edge24_Node000006_Node000019" class="edge">
<title>Node6&#45;&gt;Node19</title>
<g id="a_edge24_Node000006_Node000019"><a xlink:title=" ">
<path fill="none" stroke="#63b8ff" d="M808.07,-131.99C832.66,-122.07 873.51,-105.59 901.54,-94.28"/>
<polygon fill="#63b8ff" stroke="#63b8ff" points="902.91,-97.5 910.87,-90.52 900.29,-91.01 902.91,-97.5"/>
</a>
</g>
</g>
<!-- Node22 -->
<g id="Node000022" class="node">
<title>Node22</title>
<g id="a_Node000022"><a xlink:href="stacktrace_8h.html" target="_top" xlink:title=" ">
<polygon fill="white" stroke="#666666" points="1215.98,-90.5 1117.98,-90.5 1117.98,-71.5 1215.98,-71.5 1215.98,-90.5"/>
<text text-anchor="middle" x="1166.98" y="-78.5" font-family="Helvetica,sans-Serif" font-size="10.00">pbd/stacktrace.h</text>
</a>
</g>
</g>
<!-- Node6&#45;&gt;Node22 -->
<g id="edge28_Node000006_Node000022" class="edge">
<title>Node6&#45;&gt;Node22</title>
<g id="a_edge28_Node000006_Node000022"><a xlink:title=" ">
<path fill="none" stroke="#63b8ff" d="M827.6,-136.2C888.88,-129.42 1008.48,-115.03 1108.98,-96 1113.82,-95.08 1118.85,-94.03 1123.85,-92.91"/>
<polygon fill="#63b8ff" stroke="#63b8ff" points="1125.03,-96.23 1133.98,-90.57 1123.45,-89.41 1125.03,-96.23"/>
</a>
</g>
</g>
<!-- Node24 -->
<g id="Node000024" class="node">
<title>Node24</title>
<g id="a_Node000024"><a xlink:title=" ">
<polygon fill="#e0e0e0" stroke="#999999" points="1346.98,-24.5 1286.98,-24.5 1286.98,-5.5 1346.98,-5.5 1346.98,-24.5"/>
<text text-anchor="middle" x="1316.98" y="-12.5" font-family="Helvetica,sans-Serif" font-size="10.00">iostream</text>
</a>
</g>
</g>
<!-- Node6&#45;&gt;Node24 -->
<g id="edge35_Node000006_Node000024" class="edge">
<title>Node6&#45;&gt;Node24</title>
<g id="a_edge35_Node000006_Node000024"><a xlink:title=" ">
<path fill="none" stroke="#63b8ff" d="M827.77,-139.49C922.39,-136.64 1154.14,-126.67 1224.98,-96 1257.83,-81.78 1287.42,-51.44 1303.73,-32.48"/>
<polygon fill="#63b8ff" stroke="#63b8ff" points="1306.53,-34.59 1310.25,-24.67 1301.16,-30.1 1306.53,-34.59"/>
</a>
</g>
</g>
<!-- Node15&#45;&gt;Node2 -->
<g id="edge16_Node000015_Node000002" class="edge">
<title>Node15&#45;&gt;Node2</title>
<g id="a_edge16_Node000015_Node000002"><a xlink:title=" ">
<path fill="none" stroke="#63b8ff" d="M321.76,-71.37C305.62,-60.82 278.07,-42.84 258.77,-30.23"/>
<polygon fill="#63b8ff" stroke="#63b8ff" points="260.59,-27.24 250.3,-24.7 256.76,-33.1 260.59,-27.24"/>
</a>
</g>
</g>
<!-- Node15&#45;&gt;Node5 -->
<g id="edge21_Node000015_Node000005" class="edge">
<title>Node15&#45;&gt;Node5</title>
<g id="a_edge21_Node000015_Node000005"><a xlink:title=" ">
<path fill="none" stroke="#63b8ff" d="M300.32,-71.44C252.99,-59.74 168.26,-38.8 117.57,-26.28"/>
<polygon fill="#63b8ff" stroke="#63b8ff" points="118.14,-22.81 107.6,-23.81 116.47,-29.61 118.14,-22.81"/>
</a>
</g>
</g>
<!-- Node15&#45;&gt;Node9 -->
<g id="edge19_Node000015_Node000009" class="edge">
<title>Node15&#45;&gt;Node9</title>
<g id="a_edge19_Node000015_Node000009"><a xlink:title=" ">
<path fill="none" stroke="#63b8ff" d="M362.09,-71.37C399.96,-59.31 468.4,-37.52 507.17,-25.17"/>
<polygon fill="#63b8ff" stroke="#63b8ff" points="508.34,-28.47 516.81,-22.11 506.22,-21.8 508.34,-28.47"/>
</a>
</g>
</g>
<!-- Node15&#45;&gt;Node10 -->
<g id="edge22_Node000015_Node000010" class="edge">
<title>Node15&#45;&gt;Node10</title>
<g id="a_edge22_Node000015_Node000010"><a xlink:title=" ">
<path fill="none" stroke="#63b8ff" d="M370.46,-71.45C378.51,-69.59 387.03,-67.67 394.98,-66 466.09,-51.05 548.31,-35.99 602.52,-26.36"/>
<polygon fill="#63b8ff" stroke="#63b8ff" points="603.41,-29.76 612.64,-24.57 602.19,-22.86 603.41,-29.76"/>
</a>
</g>
</g>
<!-- Node15&#45;&gt;Node14 -->
<g id="edge23_Node000015_Node000014" class="edge">
<title>Node15&#45;&gt;Node14</title>
<g id="a_edge23_Node000015_Node000014"><a xlink:title=" ">
<path fill="none" stroke="#63b8ff" d="M368.48,-71.44C377.07,-69.45 386.34,-67.48 394.98,-66 539.1,-41.34 577.46,-52.16 721.98,-30 728.74,-28.96 735.83,-27.74 742.81,-26.44"/>
<polygon fill="#63b8ff" stroke="#63b8ff" points="743.74,-29.83 752.91,-24.52 742.43,-22.95 743.74,-29.83"/>
</a>
</g>
</g>
<!-- Node16 -->
<g id="Node000016" class="node">
<title>Node16</title>
<g id="a_Node000016"><a xlink:title=" ">
<polygon fill="#e0e0e0" stroke="#999999" points="395.98,-24.5 351.98,-24.5 351.98,-5.5 395.98,-5.5 395.98,-24.5"/>
<text text-anchor="middle" x="373.98" y="-12.5" font-family="Helvetica,sans-Serif" font-size="10.00">string</text>
</a>
</g>
</g>
<!-- Node15&#45;&gt;Node16 -->
<g id="edge17_Node000015_Node000016" class="edge">
<title>Node15&#45;&gt;Node16</title>
<g id="a_edge17_Node000015_Node000016"><a xlink:title=" ">
<path fill="none" stroke="#63b8ff" d="M340.24,-71.37C346.08,-61.78 355.67,-46.05 363.14,-33.8"/>
<polygon fill="#63b8ff" stroke="#63b8ff" points="366.34,-35.27 368.55,-24.91 360.36,-31.62 366.34,-35.27"/>
</a>
</g>
</g>
<!-- Node17 -->
<g id="Node000017" class="node">
<title>Node17</title>
<g id="a_Node000017"><a xlink:title=" ">
<polygon fill="#e0e0e0" stroke="#999999" points="461.48,-24.5 414.48,-24.5 414.48,-5.5 461.48,-5.5 461.48,-24.5"/>
<text text-anchor="middle" x="437.98" y="-12.5" font-family="Helvetica,sans-Serif" font-size="10.00">vector</text>
</a>
</g>
</g>
<!-- Node15&#45;&gt;Node17 -->
<g id="edge18_Node000015_Node000017" class="edge">
<title>Node15&#45;&gt;Node17</title>
<g id="a_edge18_Node000015_Node000017"><a xlink:title=" ">
<path fill="none" stroke="#63b8ff" d="M348.87,-71.37C365.92,-60.78 395.06,-42.67 415.35,-30.06"/>
<polygon fill="#63b8ff" stroke="#63b8ff" points="417.34,-32.95 423.98,-24.7 413.64,-27 417.34,-32.95"/>
</a>
</g>
</g>
<!-- Node18 -->
<g id="Node000018" class="node">
<title>Node18</title>
<g id="a_Node000018"><a xlink:title=" ">
<polygon fill="#e0e0e0" stroke="#999999" points="333.48,-24.5 280.48,-24.5 280.48,-5.5 333.48,-5.5 333.48,-24.5"/>
<text text-anchor="middle" x="306.98" y="-12.5" font-family="Helvetica,sans-Serif" font-size="10.00">stdint.h</text>
</a>
</g>
</g>
<!-- Node15&#45;&gt;Node18 -->
<g id="edge20_Node000015_Node000018" class="edge">
<title>Node15&#45;&gt;Node18</title>
<g id="a_edge20_Node000015_Node000018"><a xlink:title=" ">
<path fill="none" stroke="#63b8ff" d="M331.21,-71.37C327.05,-61.88 320.26,-46.36 314.93,-34.16"/>
<polygon fill="#63b8ff" stroke="#63b8ff" points="318.09,-32.66 310.88,-24.91 311.68,-35.47 318.09,-32.66"/>
</a>
</g>
</g>
<!-- Node19&#45;&gt;Node14 -->
<g id="edge27_Node000019_Node000014" class="edge">
<title>Node19&#45;&gt;Node14</title>
<g id="a_edge27_Node000019_Node000014"><a xlink:title=" ">
<path fill="none" stroke="#63b8ff" d="M913.24,-71.37C889.5,-60.44 848.41,-41.52 820.96,-28.88"/>
<polygon fill="#63b8ff" stroke="#63b8ff" points="822.42,-25.7 811.87,-24.7 819.49,-32.06 822.42,-25.7"/>
</a>
</g>
</g>
<!-- Node20 -->
<g id="Node000020" class="node">
<title>Node20</title>
<g id="a_Node000020"><a xlink:title=" ">
<polygon fill="#e0e0e0" stroke="#999999" points="1071.98,-30 933.98,-30 933.98,0 1071.98,0 1071.98,-30"/>
<text text-anchor="start" x="941.98" y="-18" font-family="Helvetica,sans-Serif" font-size="10.00">boost/type_traits/aligned</text>
<text text-anchor="middle" x="1002.98" y="-7" font-family="Helvetica,sans-Serif" font-size="10.00">_storage.hpp</text>
</a>
</g>
</g>
<!-- Node19&#45;&gt;Node20 -->
<g id="edge25_Node000019_Node000020" class="edge">
<title>Node19&#45;&gt;Node20</title>
<g id="a_edge25_Node000019_Node000020"><a xlink:title=" ">
<path fill="none" stroke="#63b8ff" d="M941.56,-71.37C951.27,-62.61 966.69,-48.71 979.65,-37.04"/>
<polygon fill="#63b8ff" stroke="#63b8ff" points="982.24,-39.41 987.32,-30.12 977.55,-34.21 982.24,-39.41"/>
</a>
</g>
</g>
<!-- Node21 -->
<g id="Node000021" class="node">
<title>Node21</title>
<g id="a_Node000021"><a xlink:title=" ">
<polygon fill="#e0e0e0" stroke="#999999" points="915.98,-24.5 871.98,-24.5 871.98,-5.5 915.98,-5.5 915.98,-24.5"/>
<text text-anchor="middle" x="893.98" y="-12.5" font-family="Helvetica,sans-Serif" font-size="10.00">limits</text>
</a>
</g>
</g>
<!-- Node19&#45;&gt;Node21 -->
<g id="edge26_Node000019_Node000021" class="edge">
<title>Node19&#45;&gt;Node21</title>
<g id="a_edge26_Node000019_Node000021"><a xlink:title=" ">
<path fill="none" stroke="#63b8ff" d="M926.86,-71.37C921.17,-61.78 911.82,-46.05 904.55,-33.8"/>
<polygon fill="#63b8ff" stroke="#63b8ff" points="907.38,-31.72 899.27,-24.91 901.36,-35.29 907.38,-31.72"/>
</a>
</g>
</g>
<!-- Node22&#45;&gt;Node8 -->
<g id="edge33_Node000022_Node000008" class="edge">
<title>Node22&#45;&gt;Node8</title>
<g id="a_edge33_Node000022_Node000008"><a xlink:title=" ">
<path fill="none" stroke="#63b8ff" d="M1158.75,-71.37C1149.26,-61.4 1133.43,-44.79 1121.58,-32.36"/>
<polygon fill="#63b8ff" stroke="#63b8ff" points="1123.9,-29.73 1114.47,-24.91 1118.84,-34.56 1123.9,-29.73"/>
</a>
</g>
</g>
<!-- Node22&#45;&gt;Node10 -->
<g id="edge32_Node000022_Node000010" class="edge">
<title>Node22&#45;&gt;Node10</title>
<g id="a_edge32_Node000022_Node000010"><a xlink:title=" ">
<path fill="none" stroke="#63b8ff" d="M1135.24,-71.47C1126.76,-69.43 1117.56,-67.43 1108.98,-66 939.02,-37.71 893.1,-57.33 722.98,-30 717.21,-29.07 711.17,-27.92 705.23,-26.67"/>
<polygon fill="#63b8ff" stroke="#63b8ff" points="705.9,-23.23 695.38,-24.51 704.4,-30.07 705.9,-23.23"/>
</a>
</g>
</g>
<!-- Node22&#45;&gt;Node14 -->
<g id="edge34_Node000022_Node000014" class="edge">
<title>Node22&#45;&gt;Node14</title>
<g id="a_edge34_Node000022_Node000014"><a xlink:title=" ">
<path fill="none" stroke="#63b8ff" d="M1133.97,-71.48C1125.83,-69.53 1117.12,-67.57 1108.98,-66 1000.49,-45.01 971.86,-48.84 862.98,-30 856.73,-28.92 850.18,-27.71 843.7,-26.47"/>
<polygon fill="#63b8ff" stroke="#63b8ff" points="844.12,-22.98 833.63,-24.5 842.78,-29.85 844.12,-22.98"/>
</a>
</g>
</g>
<!-- Node23 -->
<g id="Node000023" class="node">
<title>Node23</title>
<g id="a_Node000023"><a xlink:title=" ">
<polygon fill="#e0e0e0" stroke="#999999" points="1193.48,-24.5 1140.48,-24.5 1140.48,-5.5 1193.48,-5.5 1193.48,-24.5"/>
<text text-anchor="middle" x="1166.98" y="-12.5" font-family="Helvetica,sans-Serif" font-size="10.00">cstddef</text>
</a>
</g>
</g>
<!-- Node22&#45;&gt;Node23 -->
<g id="edge29_Node000022_Node000023" class="edge">
<title>Node22&#45;&gt;Node23</title>
<g id="a_edge29_Node000022_Node000023"><a xlink:title=" ">
<path fill="none" stroke="#63b8ff" d="M1166.98,-71.37C1166.98,-62.16 1166.98,-47.29 1166.98,-35.27"/>
<polygon fill="#63b8ff" stroke="#63b8ff" points="1170.48,-34.91 1166.98,-24.91 1163.48,-34.91 1170.48,-34.91"/>
</a>
</g>
</g>
<!-- Node22&#45;&gt;Node24 -->
<g id="edge30_Node000022_Node000024" class="edge">
<title>Node22&#45;&gt;Node24</title>
<g id="a_edge30_Node000022_Node000024"><a xlink:title=" ">
<path fill="none" stroke="#63b8ff" d="M1187.21,-71.37C1212.93,-60.39 1257.55,-41.36 1287.17,-28.72"/>
<polygon fill="#63b8ff" stroke="#63b8ff" points="1288.77,-31.84 1296.59,-24.7 1286.02,-25.4 1288.77,-31.84"/>
</a>
</g>
</g>
<!-- Node25 -->
<g id="Node000025" class="node">
<title>Node25</title>
<g id="a_Node000025"><a xlink:title=" ">
<polygon fill="#e0e0e0" stroke="#999999" points="1268.48,-24.5 1211.48,-24.5 1211.48,-5.5 1268.48,-5.5 1268.48,-24.5"/>
<text text-anchor="middle" x="1239.98" y="-12.5" font-family="Helvetica,sans-Serif" font-size="10.00">ostream</text>
</a>
</g>
</g>
<!-- Node22&#45;&gt;Node25 -->
<g id="edge31_Node000022_Node000025" class="edge">
<title>Node22&#45;&gt;Node25</title>
<g id="a_edge31_Node000022_Node000025"><a xlink:title=" ">
<path fill="none" stroke="#63b8ff" d="M1176.83,-71.37C1188.41,-61.21 1207.86,-44.16 1222.13,-31.65"/>
<polygon fill="#63b8ff" stroke="#63b8ff" points="1224.61,-34.13 1229.82,-24.91 1220,-28.87 1224.61,-34.13"/>
</a>
</g>
</g>
</g>
</svg>

<g id="navigator" transform="translate(0 0)" fill="#404254">
  <rect fill="#f2f5e9" fill-opacity="0.5" stroke="#606060" stroke-width=".5" x="0" y="0" width="60" height="60"/>
  <use id="zoomplus" xlink:href="#zoomPlus" x="17" y="9" onmousedown="handleZoom(evt,'in')"/>
  <use id="zoomminus" xlink:href="#zoomMin" x="42" y="9" onmousedown="handleZoom(evt,'out')"/>
  <use id="reset" xlink:href="#resetDef" x="30" y="36" onmousedown="handleReset()"/>
   <use id="arrowup" xlink:href="#arrowUp" x="0" y="0" onmousedown="handlePan(0,-1)"/>
  <use id="arrowright" xlink:href="#arrowRight" x="0" y="0" onmousedown="handlePan(1,0)"/>
  <use id="arrowdown" xlink:href="#arrowDown" x="0" y="0" onmousedown="handlePan(0,1)"/>
  <use id="arrowleft" xlink:href="#arrowLeft" x="0" y="0" onmousedown="handlePan(-1,0)"/>
</g>
<svg viewBox="0 0 15 15" width="100%" height="30px" preserveAspectRatio="xMaxYMin meet">
 <g id="arrow_out" transform="scale(0.3 0.3)">
  <a xlink:href="file__archive_8h__incl_org.svg" target="_base">
   <rect id="button" ry="5" rx="5" y="6" x="6" height="38" width="38"
        fill="#f2f5e9" fill-opacity="0.5" stroke="#606060" stroke-width="1.0"/>
   <path id="arrow"
     d="M 11.500037,31.436501 C 11.940474,20.09759 22.043105,11.32322 32.158766,21.979434 L 37.068811,17.246167 C 37.068811,17.246167 37.088388,32 37.088388,32 L 22.160133,31.978069 C 22.160133,31.978069 26.997745,27.140456 26.997745,27.140456 C 18.528582,18.264221 13.291696,25.230495 11.500037,31.436501 z"
     style="fill:#404040;"/>
  </a>
 </g>
</svg>

<style type='text/css'>
<![CDATA[
[data-mouse-over-selected='false'] { opacity: 0.7; }
[data-mouse-over-selected='true']  { opacity: 1.0; }
]]>
</style>
<script type="application/ecmascript"><![CDATA[
document.addEventListener('DOMContentLoaded', (event) => {
  highlightEdges();
  highlightAdjacentNodes();
});
]]></script>
</svg>
