<?xml version="1.0" encoding="UTF-8" standalone="no"?>
<!DOCTYPE svg PUBLIC "-//W3C//DTD SVG 1.1//EN"
 "http://www.w3.org/Graphics/SVG/1.1/DTD/svg11.dtd">
<!-- Generated by graphviz version 2.43.0 (0)
 -->
<!-- Title: flag_debuggable.h Pages: 1 -->
<svg width="1097pt" height="302pt"
 viewBox="0.00 0.00 1096.50 302.00" xmlns="http://www.w3.org/2000/svg" xmlns:xlink="http://www.w3.org/1999/xlink">
<g id="graph0" class="graph" transform="scale(1 1) rotate(0) translate(4 298)">
<title>flag_debuggable.h</title>
<!-- Node1 -->
<g id="Node000001" class="node">
<title>Node1</title>
<g id="a_Node000001"><a xlink:title=" ">
<polygon fill="#999999" stroke="#666666" points="532.5,-294 426.5,-294 426.5,-275 532.5,-275 532.5,-294"/>
<text text-anchor="middle" x="479.5" y="-282" font-family="Helvetica,sans-Serif" font-size="10.00">flag_debuggable.h</text>
</a>
</g>
</g>
<!-- Node2 -->
<g id="Node000002" class="node">
<title>Node2</title>
<g id="a_Node000002"><a xlink:href="audiographer_2audiographer_2visibility_8h.html" target="_top" xlink:title=" ">
<polygon fill="white" stroke="#666666" points="292.5,-19 158.5,-19 158.5,0 292.5,0 292.5,-19"/>
<text text-anchor="middle" x="225.5" y="-7" font-family="Helvetica,sans-Serif" font-size="10.00">audiographer/visibility.h</text>
</a>
</g>
</g>
<!-- Node1&#45;&gt;Node2 -->
<g id="edge1_Node000001_Node000002" class="edge">
<title>Node1&#45;&gt;Node2</title>
<g id="a_edge1_Node000001_Node000002"><a xlink:title=" ">
<path fill="none" stroke="#63b8ff" d="M426.38,-279.05C324.47,-269.03 111.5,-240.34 111.5,-175.5 111.5,-175.5 111.5,-175.5 111.5,-118.5 111.5,-72.47 161.08,-40.18 194.85,-23.53"/>
<polygon fill="#63b8ff" stroke="#63b8ff" points="196.78,-26.49 204.32,-19.05 193.79,-20.16 196.78,-26.49"/>
</a>
</g>
</g>
<!-- Node3 -->
<g id="Node000003" class="node">
<title>Node3</title>
<g id="a_Node000003"><a xlink:href="debuggable_8h.html" target="_top" xlink:title=" ">
<polygon fill="white" stroke="#666666" points="83,-239 0,-239 0,-220 83,-220 83,-239"/>
<text text-anchor="middle" x="41.5" y="-227" font-family="Helvetica,sans-Serif" font-size="10.00">debuggable.h</text>
</a>
</g>
</g>
<!-- Node1&#45;&gt;Node3 -->
<g id="edge2_Node000001_Node000003" class="edge">
<title>Node1&#45;&gt;Node3</title>
<g id="a_edge2_Node000001_Node000003"><a xlink:title=" ">
<path fill="none" stroke="#63b8ff" d="M426.28,-277.89C352.4,-269.97 214.63,-254.71 97.5,-239 96.04,-238.8 94.56,-238.6 93.06,-238.39"/>
<polygon fill="#63b8ff" stroke="#63b8ff" points="93.46,-234.92 83.07,-236.97 92.47,-241.85 93.46,-234.92"/>
</a>
</g>
</g>
<!-- Node5 -->
<g id="Node000005" class="node">
<title>Node5</title>
<g id="a_Node000005"><a xlink:href="debug__utils_8h.html" target="_top" xlink:title=" ">
<polygon fill="white" stroke="#666666" points="903.5,-129 821.5,-129 821.5,-110 903.5,-110 903.5,-129"/>
<text text-anchor="middle" x="862.5" y="-117" font-family="Helvetica,sans-Serif" font-size="10.00">debug_utils.h</text>
</a>
</g>
</g>
<!-- Node1&#45;&gt;Node5 -->
<g id="edge5_Node000001_Node000005" class="edge">
<title>Node1&#45;&gt;Node5</title>
<g id="a_edge5_Node000001_Node000005"><a xlink:title=" ">
<path fill="none" stroke="#63b8ff" d="M510.31,-274.94C539.31,-266.63 583.79,-253.22 621.5,-239 677.91,-217.73 691.41,-210.62 745.5,-184 778.3,-167.85 815.25,-147.41 838.68,-134.15"/>
<polygon fill="#63b8ff" stroke="#63b8ff" points="840.59,-137.09 847.56,-129.11 837.13,-131.01 840.59,-137.09"/>
</a>
</g>
</g>
<!-- Node13 -->
<g id="Node000013" class="node">
<title>Node13</title>
<g id="a_Node000013"><a xlink:href="process__context_8h.html" target="_top" xlink:title=" ">
<polygon fill="white" stroke="#666666" points="613,-239 508,-239 508,-220 613,-220 613,-239"/>
<text text-anchor="middle" x="560.5" y="-227" font-family="Helvetica,sans-Serif" font-size="10.00">process_context.h</text>
</a>
</g>
</g>
<!-- Node1&#45;&gt;Node13 -->
<g id="edge15_Node000001_Node000013" class="edge">
<title>Node1&#45;&gt;Node13</title>
<g id="a_edge15_Node000001_Node000013"><a xlink:title=" ">
<path fill="none" stroke="#63b8ff" d="M492.51,-274.98C504.96,-266.84 523.96,-254.41 538.71,-244.76"/>
<polygon fill="#63b8ff" stroke="#63b8ff" points="540.8,-247.57 547.25,-239.17 536.96,-241.72 540.8,-247.57"/>
</a>
</g>
</g>
<!-- Node21 -->
<g id="Node000021" class="node">
<title>Node21</title>
<g id="a_Node000021"><a xlink:href="audiographer_2audiographer_2types_8h.html" target="_top" xlink:title=" ">
<polygon fill="white" stroke="#666666" points="533,-129 480,-129 480,-110 533,-110 533,-129"/>
<text text-anchor="middle" x="506.5" y="-117" font-family="Helvetica,sans-Serif" font-size="10.00">types.h</text>
</a>
</g>
</g>
<!-- Node1&#45;&gt;Node21 -->
<g id="edge42_Node000001_Node000021" class="edge">
<title>Node1&#45;&gt;Node21</title>
<g id="a_edge42_Node000001_Node000021"><a xlink:title=" ">
<path fill="none" stroke="#63b8ff" d="M480.95,-274.74C485.18,-249.2 497.57,-174.43 503.4,-139.23"/>
<polygon fill="#63b8ff" stroke="#63b8ff" points="506.86,-139.74 505.04,-129.31 499.95,-138.6 506.86,-139.74"/>
</a>
</g>
</g>
<!-- Node3&#45;&gt;Node2 -->
<g id="edge4_Node000003_Node000002" class="edge">
<title>Node3&#45;&gt;Node2</title>
<g id="a_edge4_Node000003_Node000002"><a xlink:title=" ">
<path fill="none" stroke="#63b8ff" d="M33.28,-219.63C23.08,-207.51 7.8,-184.99 14.5,-165 33.95,-106.93 47.99,-91.06 97.5,-55 119.31,-39.11 147.27,-28.53 171.5,-21.69"/>
<polygon fill="#63b8ff" stroke="#63b8ff" points="172.52,-25.04 181.27,-19.07 170.7,-18.27 172.52,-25.04"/>
</a>
</g>
</g>
<!-- Node4 -->
<g id="Node000004" class="node">
<title>Node4</title>
<g id="a_Node000004"><a xlink:title=" ">
<polygon fill="#e0e0e0" stroke="#999999" points="83.5,-184 23.5,-184 23.5,-165 83.5,-165 83.5,-184"/>
<text text-anchor="middle" x="53.5" y="-172" font-family="Helvetica,sans-Serif" font-size="10.00">iostream</text>
</a>
</g>
</g>
<!-- Node3&#45;&gt;Node4 -->
<g id="edge3_Node000003_Node000004" class="edge">
<title>Node3&#45;&gt;Node4</title>
<g id="a_edge3_Node000003_Node000004"><a xlink:title=" ">
<path fill="none" stroke="#63b8ff" d="M43.48,-219.75C45.07,-212.72 47.36,-202.62 49.35,-193.84"/>
<polygon fill="#63b8ff" stroke="#63b8ff" points="52.76,-194.62 51.56,-184.09 45.93,-193.07 52.76,-194.62"/>
</a>
</g>
</g>
<!-- Node5&#45;&gt;Node2 -->
<g id="edge14_Node000005_Node000002" class="edge">
<title>Node5&#45;&gt;Node2</title>
<g id="a_edge14_Node000005_Node000002"><a xlink:title=" ">
<path fill="none" stroke="#63b8ff" d="M862.76,-109.86C862.66,-95.84 860.2,-68.39 843.5,-55 822.73,-38.34 464.3,-20.83 303.03,-13.75"/>
<polygon fill="#63b8ff" stroke="#63b8ff" points="302.84,-10.24 292.7,-13.3 302.53,-17.23 302.84,-10.24"/>
</a>
</g>
</g>
<!-- Node6 -->
<g id="Node000006" class="node">
<title>Node6</title>
<g id="a_Node000006"><a xlink:href="flag__field_8h.html" target="_top" xlink:title=" ">
<polygon fill="white" stroke="#666666" points="1028.5,-74 958.5,-74 958.5,-55 1028.5,-55 1028.5,-74"/>
<text text-anchor="middle" x="993.5" y="-62" font-family="Helvetica,sans-Serif" font-size="10.00">flag_field.h</text>
</a>
</g>
</g>
<!-- Node5&#45;&gt;Node6 -->
<g id="edge6_Node000005_Node000006" class="edge">
<title>Node5&#45;&gt;Node6</title>
<g id="a_edge6_Node000005_Node000006"><a xlink:title=" ">
<path fill="none" stroke="#63b8ff" d="M883.55,-109.98C904.91,-101.34 938.2,-87.87 962.56,-78.02"/>
<polygon fill="#63b8ff" stroke="#63b8ff" points="964.11,-81.17 972.07,-74.17 961.49,-74.68 964.11,-81.17"/>
</a>
</g>
</g>
<!-- Node11 -->
<g id="Node000011" class="node">
<title>Node11</title>
<g id="a_Node000011"><a xlink:title=" ">
<polygon fill="#e0e0e0" stroke="#999999" points="940,-74 891,-74 891,-55 940,-55 940,-74"/>
<text text-anchor="middle" x="915.5" y="-62" font-family="Helvetica,sans-Serif" font-size="10.00">cstdlib</text>
</a>
</g>
</g>
<!-- Node5&#45;&gt;Node11 -->
<g id="edge12_Node000005_Node000011" class="edge">
<title>Node5&#45;&gt;Node11</title>
<g id="a_edge12_Node000005_Node000011"><a xlink:title=" ">
<path fill="none" stroke="#63b8ff" d="M871.25,-109.75C878.97,-102.03 890.4,-90.6 899.72,-81.28"/>
<polygon fill="#63b8ff" stroke="#63b8ff" points="902.31,-83.64 906.91,-74.09 897.36,-78.69 902.31,-83.64"/>
</a>
</g>
</g>
<!-- Node12 -->
<g id="Node000012" class="node">
<title>Node12</title>
<g id="a_Node000012"><a xlink:title=" ">
<polygon fill="#e0e0e0" stroke="#999999" points="834.5,-74 790.5,-74 790.5,-55 834.5,-55 834.5,-74"/>
<text text-anchor="middle" x="812.5" y="-62" font-family="Helvetica,sans-Serif" font-size="10.00">string</text>
</a>
</g>
</g>
<!-- Node5&#45;&gt;Node12 -->
<g id="edge13_Node000005_Node000012" class="edge">
<title>Node5&#45;&gt;Node12</title>
<g id="a_edge13_Node000005_Node000012"><a xlink:title=" ">
<path fill="none" stroke="#63b8ff" d="M854.24,-109.75C847.04,-102.11 836.39,-90.82 827.65,-81.56"/>
<polygon fill="#63b8ff" stroke="#63b8ff" points="830.01,-78.96 820.6,-74.09 824.92,-83.76 830.01,-78.96"/>
</a>
</g>
</g>
<!-- Node6&#45;&gt;Node2 -->
<g id="edge11_Node000006_Node000002" class="edge">
<title>Node6&#45;&gt;Node2</title>
<g id="a_edge11_Node000006_Node000002"><a xlink:title=" ">
<path fill="none" stroke="#63b8ff" d="M958.19,-56.4C954.92,-55.87 951.66,-55.39 948.5,-55 714.38,-25.8 435.1,-15.5 302.6,-12.08"/>
<polygon fill="#63b8ff" stroke="#63b8ff" points="302.63,-8.58 292.54,-11.83 302.45,-15.58 302.63,-8.58"/>
</a>
</g>
</g>
<!-- Node7 -->
<g id="Node000007" class="node">
<title>Node7</title>
<g id="a_Node000007"><a xlink:title=" ">
<polygon fill="#e0e0e0" stroke="#999999" points="623,-19 570,-19 570,0 623,0 623,-19"/>
<text text-anchor="middle" x="596.5" y="-7" font-family="Helvetica,sans-Serif" font-size="10.00">stdint.h</text>
</a>
</g>
</g>
<!-- Node6&#45;&gt;Node7 -->
<g id="edge7_Node000006_Node000007" class="edge">
<title>Node6&#45;&gt;Node7</title>
<g id="a_edge7_Node000006_Node000007"><a xlink:title=" ">
<path fill="none" stroke="#63b8ff" d="M958.16,-56.61C954.9,-56.04 951.64,-55.49 948.5,-55 833.8,-36.93 697.16,-21.35 633.08,-14.38"/>
<polygon fill="#63b8ff" stroke="#63b8ff" points="633.39,-10.89 623.07,-13.3 632.64,-17.85 633.39,-10.89"/>
</a>
</g>
</g>
<!-- Node8 -->
<g id="Node000008" class="node">
<title>Node8</title>
<g id="a_Node000008"><a xlink:title=" ">
<polygon fill="#e0e0e0" stroke="#999999" points="1020,-19 967,-19 967,0 1020,0 1020,-19"/>
<text text-anchor="middle" x="993.5" y="-7" font-family="Helvetica,sans-Serif" font-size="10.00">iterator</text>
</a>
</g>
</g>
<!-- Node6&#45;&gt;Node8 -->
<g id="edge8_Node000006_Node000008" class="edge">
<title>Node6&#45;&gt;Node8</title>
<g id="a_edge8_Node000006_Node000008"><a xlink:title=" ">
<path fill="none" stroke="#63b8ff" d="M993.5,-54.75C993.5,-47.8 993.5,-37.85 993.5,-29.13"/>
<polygon fill="#63b8ff" stroke="#63b8ff" points="997,-29.09 993.5,-19.09 990,-29.09 997,-29.09"/>
</a>
</g>
</g>
<!-- Node9 -->
<g id="Node000009" class="node">
<title>Node9</title>
<g id="a_Node000009"><a xlink:title=" ">
<polygon fill="#e0e0e0" stroke="#999999" points="1088.5,-19 1038.5,-19 1038.5,0 1088.5,0 1088.5,-19"/>
<text text-anchor="middle" x="1063.5" y="-7" font-family="Helvetica,sans-Serif" font-size="10.00">climits</text>
</a>
</g>
</g>
<!-- Node6&#45;&gt;Node9 -->
<g id="edge9_Node000006_Node000009" class="edge">
<title>Node6&#45;&gt;Node9</title>
<g id="a_edge9_Node000006_Node000009"><a xlink:title=" ">
<path fill="none" stroke="#63b8ff" d="M1004.75,-54.98C1015.3,-47 1031.3,-34.88 1043.94,-25.31"/>
<polygon fill="#63b8ff" stroke="#63b8ff" points="1046.19,-28 1052.05,-19.17 1041.96,-22.42 1046.19,-28"/>
</a>
</g>
</g>
<!-- Node10 -->
<g id="Node000010" class="node">
<title>Node10</title>
<g id="a_Node000010"><a xlink:title=" ">
<polygon fill="#e0e0e0" stroke="#999999" points="948.5,-19 834.5,-19 834.5,0 948.5,0 948.5,-19"/>
<text text-anchor="middle" x="891.5" y="-7" font-family="Helvetica,sans-Serif" font-size="10.00">boost/operators.hpp</text>
</a>
</g>
</g>
<!-- Node6&#45;&gt;Node10 -->
<g id="edge10_Node000006_Node000010" class="edge">
<title>Node6&#45;&gt;Node10</title>
<g id="a_edge10_Node000006_Node000010"><a xlink:title=" ">
<path fill="none" stroke="#63b8ff" d="M977.11,-54.98C960.93,-46.57 935.93,-33.59 917.12,-23.81"/>
<polygon fill="#63b8ff" stroke="#63b8ff" points="918.67,-20.68 908.19,-19.17 915.45,-26.89 918.67,-20.68"/>
</a>
</g>
</g>
<!-- Node13&#45;&gt;Node2 -->
<g id="edge22_Node000013_Node000002" class="edge">
<title>Node13&#45;&gt;Node2</title>
<g id="a_edge22_Node000013_Node000002"><a xlink:title=" ">
<path fill="none" stroke="#63b8ff" d="M507.95,-225.36C456.53,-220.85 376.78,-209.99 312.5,-184 271.82,-167.55 255.18,-165.28 230.5,-129 210.11,-99.03 215.4,-54.24 220.69,-29.19"/>
<polygon fill="#63b8ff" stroke="#63b8ff" points="224.16,-29.72 223.03,-19.19 217.34,-28.13 224.16,-29.72"/>
</a>
</g>
</g>
<!-- Node13&#45;&gt;Node5 -->
<g id="edge29_Node000013_Node000005" class="edge">
<title>Node13&#45;&gt;Node5</title>
<g id="a_edge29_Node000013_Node000005"><a xlink:title=" ">
<path fill="none" stroke="#63b8ff" d="M591.75,-219.97C621.7,-211.58 668.05,-198.02 707.5,-184 752.25,-168.1 802.99,-146.64 833.86,-133.19"/>
<polygon fill="#63b8ff" stroke="#63b8ff" points="835.4,-136.34 843.15,-129.12 832.59,-129.93 835.4,-136.34"/>
</a>
</g>
</g>
<!-- Node13&#45;&gt;Node6 -->
<g id="edge33_Node000013_Node000006" class="edge">
<title>Node13&#45;&gt;Node6</title>
<g id="a_edge33_Node000013_Node000006"><a xlink:title=" ">
<path fill="none" stroke="#63b8ff" d="M613.27,-220.88C684.54,-209 813.96,-181.75 912.5,-129 936.96,-115.91 961.54,-95.34 977.1,-81.18"/>
<polygon fill="#63b8ff" stroke="#63b8ff" points="979.82,-83.43 984.76,-74.06 975.05,-78.31 979.82,-83.43"/>
</a>
</g>
</g>
<!-- Node14 -->
<g id="Node000014" class="node">
<title>Node14</title>
<g id="a_Node000014"><a xlink:href="compose_8h.html" target="_top" xlink:title=" ">
<polygon fill="white" stroke="#666666" points="681,-129 590,-129 590,-110 681,-110 681,-129"/>
<text text-anchor="middle" x="635.5" y="-117" font-family="Helvetica,sans-Serif" font-size="10.00">pbd/compose.h</text>
</a>
</g>
</g>
<!-- Node13&#45;&gt;Node14 -->
<g id="edge16_Node000013_Node000014" class="edge">
<title>Node13&#45;&gt;Node14</title>
<g id="a_edge16_Node000013_Node000014"><a xlink:title=" ">
<path fill="none" stroke="#63b8ff" d="M566.64,-219.66C579.12,-201.69 607.62,-160.64 623.78,-137.38"/>
<polygon fill="#63b8ff" stroke="#63b8ff" points="626.66,-139.37 629.49,-129.16 620.91,-135.38 626.66,-139.37"/>
</a>
</g>
</g>
<!-- Node19 -->
<g id="Node000019" class="node">
<title>Node19</title>
<g id="a_Node000019"><a xlink:href="exception_8h.html" target="_top" xlink:title=" ">
<polygon fill="white" stroke="#666666" points="698.5,-184 624.5,-184 624.5,-165 698.5,-165 698.5,-184"/>
<text text-anchor="middle" x="661.5" y="-172" font-family="Helvetica,sans-Serif" font-size="10.00">exception.h</text>
</a>
</g>
</g>
<!-- Node13&#45;&gt;Node19 -->
<g id="edge23_Node000013_Node000019" class="edge">
<title>Node13&#45;&gt;Node19</title>
<g id="a_edge23_Node000013_Node000019"><a xlink:title=" ">
<path fill="none" stroke="#63b8ff" d="M576.73,-219.98C592.68,-211.61 617.28,-198.7 635.88,-188.95"/>
<polygon fill="#63b8ff" stroke="#63b8ff" points="637.75,-191.92 644.98,-184.17 634.5,-185.72 637.75,-191.92"/>
</a>
</g>
</g>
<!-- Node13&#45;&gt;Node21 -->
<g id="edge30_Node000013_Node000021" class="edge">
<title>Node13&#45;&gt;Node21</title>
<g id="a_edge30_Node000013_Node000021"><a xlink:title=" ">
<path fill="none" stroke="#63b8ff" d="M556.08,-219.66C547.22,-201.93 527.11,-161.73 515.41,-138.32"/>
<polygon fill="#63b8ff" stroke="#63b8ff" points="518.43,-136.54 510.83,-129.16 512.17,-139.67 518.43,-136.54"/>
</a>
</g>
</g>
<!-- Node22 -->
<g id="Node000022" class="node">
<title>Node22</title>
<g id="a_Node000022"><a xlink:href="throwing_8h.html" target="_top" xlink:title=" ">
<polygon fill="white" stroke="#666666" points="207.5,-184 139.5,-184 139.5,-165 207.5,-165 207.5,-184"/>
<text text-anchor="middle" x="173.5" y="-172" font-family="Helvetica,sans-Serif" font-size="10.00">throwing.h</text>
</a>
</g>
</g>
<!-- Node13&#45;&gt;Node22 -->
<g id="edge34_Node000013_Node000022" class="edge">
<title>Node13&#45;&gt;Node22</title>
<g id="a_edge34_Node000013_Node000022"><a xlink:title=" ">
<path fill="none" stroke="#63b8ff" d="M507.84,-222.33C441.09,-214.34 322.55,-199.57 221.5,-184 220.23,-183.8 218.94,-183.6 217.64,-183.39"/>
<polygon fill="#63b8ff" stroke="#63b8ff" points="217.99,-179.91 207.56,-181.72 216.85,-186.81 217.99,-179.91"/>
</a>
</g>
</g>
<!-- Node23 -->
<g id="Node000023" class="node">
<title>Node23</title>
<g id="a_Node000023"><a xlink:href="type__utils_8h.html" target="_top" xlink:title=" ">
<polygon fill="white" stroke="#666666" points="395.5,-184 321.5,-184 321.5,-165 395.5,-165 395.5,-184"/>
<text text-anchor="middle" x="358.5" y="-172" font-family="Helvetica,sans-Serif" font-size="10.00">type_utils.h</text>
</a>
</g>
</g>
<!-- Node13&#45;&gt;Node23 -->
<g id="edge36_Node000013_Node000023" class="edge">
<title>Node13&#45;&gt;Node23</title>
<g id="a_edge36_Node000013_Node000023"><a xlink:title=" ">
<path fill="none" stroke="#63b8ff" d="M528.05,-219.98C493.54,-210.93 438.84,-196.58 400.94,-186.64"/>
<polygon fill="#63b8ff" stroke="#63b8ff" points="401.77,-183.23 391.21,-184.08 399.99,-190.01 401.77,-183.23"/>
</a>
</g>
</g>
<!-- Node14&#45;&gt;Node12 -->
<g id="edge18_Node000014_Node000012" class="edge">
<title>Node14&#45;&gt;Node12</title>
<g id="a_edge18_Node000014_Node000012"><a xlink:title=" ">
<path fill="none" stroke="#63b8ff" d="M663.94,-109.98C695.82,-100.44 747.39,-85 780.62,-75.05"/>
<polygon fill="#63b8ff" stroke="#63b8ff" points="781.72,-78.37 790.3,-72.15 779.71,-71.66 781.72,-78.37"/>
</a>
</g>
</g>
<!-- Node15 -->
<g id="Node000015" class="node">
<title>Node15</title>
<g id="a_Node000015"><a xlink:title=" ">
<polygon fill="#e0e0e0" stroke="#999999" points="526.5,-74 470.5,-74 470.5,-55 526.5,-55 526.5,-74"/>
<text text-anchor="middle" x="498.5" y="-62" font-family="Helvetica,sans-Serif" font-size="10.00">sstream</text>
</a>
</g>
</g>
<!-- Node14&#45;&gt;Node15 -->
<g id="edge17_Node000014_Node000015" class="edge">
<title>Node14&#45;&gt;Node15</title>
<g id="a_edge17_Node000014_Node000015"><a xlink:title=" ">
<path fill="none" stroke="#63b8ff" d="M613.49,-109.98C591.05,-101.3 556.02,-87.75 530.51,-77.88"/>
<polygon fill="#63b8ff" stroke="#63b8ff" points="531.5,-74.51 520.91,-74.17 528.98,-81.04 531.5,-74.51"/>
</a>
</g>
</g>
<!-- Node16 -->
<g id="Node000016" class="node">
<title>Node16</title>
<g id="a_Node000016"><a xlink:title=" ">
<polygon fill="#e0e0e0" stroke="#999999" points="576.5,-74 544.5,-74 544.5,-55 576.5,-55 576.5,-74"/>
<text text-anchor="middle" x="560.5" y="-62" font-family="Helvetica,sans-Serif" font-size="10.00">list</text>
</a>
</g>
</g>
<!-- Node14&#45;&gt;Node16 -->
<g id="edge19_Node000014_Node000016" class="edge">
<title>Node14&#45;&gt;Node16</title>
<g id="a_edge19_Node000014_Node000016"><a xlink:title=" ">
<path fill="none" stroke="#63b8ff" d="M623.45,-109.98C612.04,-101.92 594.67,-89.65 581.07,-80.03"/>
<polygon fill="#63b8ff" stroke="#63b8ff" points="582.96,-77.08 572.77,-74.17 578.92,-82.8 582.96,-77.08"/>
</a>
</g>
</g>
<!-- Node17 -->
<g id="Node000017" class="node">
<title>Node17</title>
<g id="a_Node000017"><a xlink:title=" ">
<polygon fill="#e0e0e0" stroke="#999999" points="632.5,-74 594.5,-74 594.5,-55 632.5,-55 632.5,-74"/>
<text text-anchor="middle" x="613.5" y="-62" font-family="Helvetica,sans-Serif" font-size="10.00">map</text>
</a>
</g>
</g>
<!-- Node14&#45;&gt;Node17 -->
<g id="edge20_Node000014_Node000017" class="edge">
<title>Node14&#45;&gt;Node17</title>
<g id="a_edge20_Node000014_Node000017"><a xlink:title=" ">
<path fill="none" stroke="#63b8ff" d="M631.87,-109.75C628.92,-102.65 624.67,-92.4 620.99,-83.56"/>
<polygon fill="#63b8ff" stroke="#63b8ff" points="624.13,-81.98 617.07,-74.09 617.67,-84.67 624.13,-81.98"/>
</a>
</g>
</g>
<!-- Node18 -->
<g id="Node000018" class="node">
<title>Node18</title>
<g id="a_Node000018"><a xlink:href="libpbd__visibility_8h.html" target="_top" xlink:title=" ">
<polygon fill="white" stroke="#666666" points="772.5,-74 650.5,-74 650.5,-55 772.5,-55 772.5,-74"/>
<text text-anchor="middle" x="711.5" y="-62" font-family="Helvetica,sans-Serif" font-size="10.00">pbd/libpbd_visibility.h</text>
</a>
</g>
</g>
<!-- Node14&#45;&gt;Node18 -->
<g id="edge21_Node000014_Node000018" class="edge">
<title>Node14&#45;&gt;Node18</title>
<g id="a_edge21_Node000014_Node000018"><a xlink:title=" ">
<path fill="none" stroke="#63b8ff" d="M647.71,-109.98C659.28,-101.92 676.88,-89.65 690.66,-80.03"/>
<polygon fill="#63b8ff" stroke="#63b8ff" points="692.87,-82.76 699.07,-74.17 688.86,-77.02 692.87,-82.76"/>
</a>
</g>
</g>
<!-- Node19&#45;&gt;Node2 -->
<g id="edge27_Node000019_Node000002" class="edge">
<title>Node19&#45;&gt;Node2</title>
<g id="a_edge27_Node000019_Node000002"><a xlink:title=" ">
<path fill="none" stroke="#63b8ff" d="M645.78,-164.79C618.2,-149.56 562.05,-118.88 541.5,-110 448.23,-69.69 333.2,-37.63 270.86,-21.63"/>
<polygon fill="#63b8ff" stroke="#63b8ff" points="271.51,-18.18 260.95,-19.11 269.78,-24.97 271.51,-18.18"/>
</a>
</g>
</g>
<!-- Node19&#45;&gt;Node5 -->
<g id="edge28_Node000019_Node000005" class="edge">
<title>Node19&#45;&gt;Node5</title>
<g id="a_edge28_Node000019_Node000005"><a xlink:title=" ">
<path fill="none" stroke="#63b8ff" d="M693.79,-164.98C728.12,-155.93 782.56,-141.58 820.27,-131.64"/>
<polygon fill="#63b8ff" stroke="#63b8ff" points="821.18,-135.02 829.95,-129.08 819.39,-128.25 821.18,-135.02"/>
</a>
</g>
</g>
<!-- Node19&#45;&gt;Node12 -->
<g id="edge25_Node000019_Node000012" class="edge">
<title>Node19&#45;&gt;Node12</title>
<g id="a_edge25_Node000019_Node000012"><a xlink:title=" ">
<path fill="none" stroke="#63b8ff" d="M669.12,-164.92C680.94,-151.93 704.81,-127.02 728.5,-110 745.76,-97.61 766.9,-86.42 783.66,-78.37"/>
<polygon fill="#63b8ff" stroke="#63b8ff" points="785.39,-81.42 792.95,-74 782.41,-75.09 785.39,-81.42"/>
</a>
</g>
</g>
<!-- Node19&#45;&gt;Node14 -->
<g id="edge26_Node000019_Node000014" class="edge">
<title>Node19&#45;&gt;Node14</title>
<g id="a_edge26_Node000019_Node000014"><a xlink:title=" ">
<path fill="none" stroke="#63b8ff" d="M657.21,-164.75C653.69,-157.57 648.59,-147.18 644.22,-138.27"/>
<polygon fill="#63b8ff" stroke="#63b8ff" points="647.26,-136.53 639.71,-129.09 640.98,-139.61 647.26,-136.53"/>
</a>
</g>
</g>
<!-- Node20 -->
<g id="Node000020" class="node">
<title>Node20</title>
<g id="a_Node000020"><a xlink:title=" ">
<polygon fill="#e0e0e0" stroke="#999999" points="803,-129 738,-129 738,-110 803,-110 803,-129"/>
<text text-anchor="middle" x="770.5" y="-117" font-family="Helvetica,sans-Serif" font-size="10.00">exception</text>
</a>
</g>
</g>
<!-- Node19&#45;&gt;Node20 -->
<g id="edge24_Node000019_Node000020" class="edge">
<title>Node19&#45;&gt;Node20</title>
<g id="a_edge24_Node000019_Node000020"><a xlink:title=" ">
<path fill="none" stroke="#63b8ff" d="M679.01,-164.98C696.47,-156.5 723.51,-143.35 743.67,-133.54"/>
<polygon fill="#63b8ff" stroke="#63b8ff" points="745.21,-136.69 752.67,-129.17 742.14,-130.4 745.21,-136.69"/>
</a>
</g>
</g>
<!-- Node21&#45;&gt;Node2 -->
<g id="edge32_Node000021_Node000002" class="edge">
<title>Node21&#45;&gt;Node2</title>
<g id="a_edge32_Node000021_Node000002"><a xlink:title=" ">
<path fill="none" stroke="#63b8ff" d="M483.98,-109.84C434.22,-90.72 314.79,-44.82 257.38,-22.75"/>
<polygon fill="#63b8ff" stroke="#63b8ff" points="258.33,-19.37 247.74,-19.05 255.82,-25.9 258.33,-19.37"/>
</a>
</g>
</g>
<!-- Node21&#45;&gt;Node7 -->
<g id="edge31_Node000021_Node000007" class="edge">
<title>Node21&#45;&gt;Node7</title>
<g id="a_edge31_Node000021_Node000007"><a xlink:title=" ">
<path fill="none" stroke="#63b8ff" d="M492.59,-109.83C474.67,-97.58 447.4,-74.49 461.5,-55 483.72,-24.28 527.89,-14.41 559.66,-11.42"/>
<polygon fill="#63b8ff" stroke="#63b8ff" points="560.2,-14.89 569.91,-10.65 559.68,-7.91 560.2,-14.89"/>
</a>
</g>
</g>
<!-- Node22&#45;&gt;Node2 -->
<g id="edge35_Node000022_Node000002" class="edge">
<title>Node22&#45;&gt;Node2</title>
<g id="a_edge35_Node000022_Node000002"><a xlink:title=" ">
<path fill="none" stroke="#63b8ff" d="M171.18,-164.95C166.17,-144.71 156.12,-92.75 173.5,-55 179.25,-42.52 190.41,-32.24 200.92,-24.71"/>
<polygon fill="#63b8ff" stroke="#63b8ff" points="203.07,-27.49 209.47,-19.05 199.2,-21.65 203.07,-27.49"/>
</a>
</g>
</g>
<!-- Node23&#45;&gt;Node2 -->
<g id="edge40_Node000023_Node000002" class="edge">
<title>Node23&#45;&gt;Node2</title>
<g id="a_edge40_Node000023_Node000002"><a xlink:title=" ">
<path fill="none" stroke="#63b8ff" d="M321.27,-168.69C295.75,-163.37 263.24,-152.23 244.5,-129 221.36,-100.31 221.13,-54.68 223.19,-29.23"/>
<polygon fill="#63b8ff" stroke="#63b8ff" points="226.69,-29.39 224.23,-19.09 219.73,-28.68 226.69,-29.39"/>
</a>
</g>
</g>
<!-- Node23&#45;&gt;Node21 -->
<g id="edge41_Node000023_Node000021" class="edge">
<title>Node23&#45;&gt;Node21</title>
<g id="a_edge41_Node000023_Node000021"><a xlink:title=" ">
<path fill="none" stroke="#63b8ff" d="M382.28,-164.98C406.73,-156.23 445.03,-142.51 472.65,-132.62"/>
<polygon fill="#63b8ff" stroke="#63b8ff" points="474.05,-135.84 482.29,-129.17 471.69,-129.25 474.05,-135.84"/>
</a>
</g>
</g>
<!-- Node24 -->
<g id="Node000024" class="node">
<title>Node24</title>
<g id="a_Node000024"><a xlink:title=" ">
<polygon fill="#e0e0e0" stroke="#999999" points="379.5,-129 321.5,-129 321.5,-110 379.5,-110 379.5,-129"/>
<text text-anchor="middle" x="350.5" y="-117" font-family="Helvetica,sans-Serif" font-size="10.00">memory</text>
</a>
</g>
</g>
<!-- Node23&#45;&gt;Node24 -->
<g id="edge37_Node000023_Node000024" class="edge">
<title>Node23&#45;&gt;Node24</title>
<g id="a_edge37_Node000023_Node000024"><a xlink:title=" ">
<path fill="none" stroke="#63b8ff" d="M357.18,-164.75C356.13,-157.8 354.63,-147.85 353.31,-139.13"/>
<polygon fill="#63b8ff" stroke="#63b8ff" points="356.75,-138.45 351.8,-129.09 349.83,-139.5 356.75,-138.45"/>
</a>
</g>
</g>
<!-- Node25 -->
<g id="Node000025" class="node">
<title>Node25</title>
<g id="a_Node000025"><a xlink:title=" ">
<polygon fill="#e0e0e0" stroke="#999999" points="461.5,-129 397.5,-129 397.5,-110 461.5,-110 461.5,-129"/>
<text text-anchor="middle" x="429.5" y="-117" font-family="Helvetica,sans-Serif" font-size="10.00">algorithm</text>
</a>
</g>
</g>
<!-- Node23&#45;&gt;Node25 -->
<g id="edge38_Node000023_Node000025" class="edge">
<title>Node23&#45;&gt;Node25</title>
<g id="a_edge38_Node000023_Node000025"><a xlink:title=" ">
<path fill="none" stroke="#63b8ff" d="M369.91,-164.98C380.61,-157 396.84,-144.88 409.66,-135.31"/>
<polygon fill="#63b8ff" stroke="#63b8ff" points="411.97,-137.96 417.89,-129.17 407.78,-132.35 411.97,-137.96"/>
</a>
</g>
</g>
<!-- Node26 -->
<g id="Node000026" class="node">
<title>Node26</title>
<g id="a_Node000026"><a xlink:title=" ">
<polygon fill="#e0e0e0" stroke="#999999" points="303.5,-129 253.5,-129 253.5,-110 303.5,-110 303.5,-129"/>
<text text-anchor="middle" x="278.5" y="-117" font-family="Helvetica,sans-Serif" font-size="10.00">cstring</text>
</a>
</g>
</g>
<!-- Node23&#45;&gt;Node26 -->
<g id="edge39_Node000023_Node000026" class="edge">
<title>Node23&#45;&gt;Node26</title>
<g id="a_edge39_Node000023_Node000026"><a xlink:title=" ">
<path fill="none" stroke="#63b8ff" d="M345.65,-164.98C333.36,-156.84 314.59,-144.41 300.02,-134.76"/>
<polygon fill="#63b8ff" stroke="#63b8ff" points="301.86,-131.78 291.59,-129.17 297.99,-137.61 301.86,-131.78"/>
</a>
</g>
</g>
</g>
</svg>
