<?xml version="1.0" encoding="UTF-8" standalone="no"?>
<!DOCTYPE svg PUBLIC "-//W3C//DTD SVG 1.1//EN"
 "http://www.w3.org/Graphics/SVG/1.1/DTD/svg11.dtd">
<!-- Generated by graphviz version 2.43.0 (0)
 -->
<!-- Title: focus_entry.h Pages: 1 -->
<svg width="1581pt" height="764pt"
 viewBox="0.00 0.00 1581.00 764.00" xmlns="http://www.w3.org/2000/svg" xmlns:xlink="http://www.w3.org/1999/xlink">
<g id="graph0" class="graph" transform="scale(1 1) rotate(0) translate(4 760)">
<title>focus_entry.h</title>
<!-- Node1 -->
<g id="Node000001" class="node">
<title>Node1</title>
<g id="a_Node000001"><a xlink:title=" ">
<polygon fill="#999999" stroke="#666666" points="627,-756 546,-756 546,-737 627,-737 627,-756"/>
<text text-anchor="middle" x="586.5" y="-744" font-family="Helvetica,sans-Serif" font-size="10.00">focus_entry.h</text>
</a>
</g>
</g>
<!-- Node2 -->
<g id="Node000002" class="node">
<title>Node2</title>
<g id="a_Node000002"><a xlink:href="gain__meter_8h.html" target="_top" xlink:title=" ">
<polygon fill="white" stroke="#666666" points="547.5,-580 467.5,-580 467.5,-561 547.5,-561 547.5,-580"/>
<text text-anchor="middle" x="507.5" y="-568" font-family="Helvetica,sans-Serif" font-size="10.00">gain_meter.h</text>
</a>
</g>
</g>
<!-- Node1&#45;&gt;Node2 -->
<g id="edge1_Node000001_Node000002" class="edge">
<title>Node1&#45;&gt;Node2</title>
<g id="a_edge1_Node000001_Node000002"><a xlink:title=" ">
<path fill="none" stroke="#63b8ff" d="M578.34,-727.52C561.55,-690.54 523.7,-607.18 511.42,-580.14"/>
<polygon fill="#63b8ff" stroke="#63b8ff" points="575.15,-728.97 582.47,-736.63 581.53,-726.08 575.15,-728.97"/>
</a>
</g>
</g>
<!-- Node40 -->
<g id="Node000040" class="node">
<title>Node40</title>
<g id="a_Node000040"><a xlink:href="time__axis__view_8h.html" target="_top" xlink:title=" ">
<polygon fill="white" stroke="#666666" points="704,-701 603,-701 603,-682 704,-682 704,-701"/>
<text text-anchor="middle" x="653.5" y="-689" font-family="Helvetica,sans-Serif" font-size="10.00">time_axis_view.h</text>
</a>
</g>
</g>
<!-- Node1&#45;&gt;Node40 -->
<g id="edge44_Node000001_Node000040" class="edge">
<title>Node1&#45;&gt;Node40</title>
<g id="a_edge44_Node000001_Node000040"><a xlink:title=" ">
<path fill="none" stroke="#63b8ff" d="M605.33,-730.6C617.34,-721.11 632.47,-709.13 642.54,-701.17"/>
<polygon fill="#63b8ff" stroke="#63b8ff" points="602.94,-728.04 597.26,-736.98 607.28,-733.53 602.94,-728.04"/>
</a>
</g>
</g>
<!-- Node3 -->
<g id="Node000003" class="node">
<title>Node3</title>
<g id="a_Node000003"><a xlink:href="mixer__strip_8h.html" target="_top" xlink:title=" ">
<polygon fill="white" stroke="#666666" points="567.5,-415 487.5,-415 487.5,-396 567.5,-396 567.5,-415"/>
<text text-anchor="middle" x="527.5" y="-403" font-family="Helvetica,sans-Serif" font-size="10.00">mixer_strip.h</text>
</a>
</g>
</g>
<!-- Node2&#45;&gt;Node3 -->
<g id="edge2_Node000002_Node000003" class="edge">
<title>Node2&#45;&gt;Node3</title>
<g id="a_edge2_Node000002_Node000003"><a xlink:title=" ">
<path fill="none" stroke="#63b8ff" d="M528.2,-554.66C537.17,-546.95 546.69,-536.69 551.5,-525 567.54,-485.98 543.6,-435.18 532.57,-415.15"/>
<polygon fill="#63b8ff" stroke="#63b8ff" points="525.9,-552.02 520.28,-561 530.27,-557.49 525.9,-552.02"/>
</a>
</g>
</g>
<!-- Node5 -->
<g id="Node000005" class="node">
<title>Node5</title>
<g id="a_Node000005"><a xlink:href="port__insert__ui_8h.html" target="_top" xlink:title=" ">
<polygon fill="white" stroke="#666666" points="326.5,-525 234.5,-525 234.5,-506 326.5,-506 326.5,-525"/>
<text text-anchor="middle" x="280.5" y="-513" font-family="Helvetica,sans-Serif" font-size="10.00">port_insert_ui.h</text>
</a>
</g>
</g>
<!-- Node2&#45;&gt;Node5 -->
<g id="edge4_Node000002_Node000005" class="edge">
<title>Node2&#45;&gt;Node5</title>
<g id="a_edge4_Node000002_Node000005"><a xlink:title=" ">
<path fill="none" stroke="#63b8ff" d="M461.2,-558.69C418.67,-548.76 356.47,-534.24 317.26,-525.08"/>
<polygon fill="#63b8ff" stroke="#63b8ff" points="460.49,-562.12 471.03,-560.98 462.09,-555.3 460.49,-562.12"/>
</a>
</g>
</g>
<!-- Node6 -->
<g id="Node000006" class="node">
<title>Node6</title>
<g id="a_Node000006"><a xlink:href="return__ui_8h.html" target="_top" xlink:title=" ">
<polygon fill="white" stroke="#666666" points="414,-525 345,-525 345,-506 414,-506 414,-525"/>
<text text-anchor="middle" x="379.5" y="-513" font-family="Helvetica,sans-Serif" font-size="10.00">return_ui.h</text>
</a>
</g>
</g>
<!-- Node2&#45;&gt;Node6 -->
<g id="edge5_Node000002_Node000006" class="edge">
<title>Node2&#45;&gt;Node6</title>
<g id="a_edge5_Node000002_Node000006"><a xlink:title=" ">
<path fill="none" stroke="#63b8ff" d="M477.38,-557.03C453.71,-547.23 421.35,-533.83 400.44,-525.17"/>
<polygon fill="#63b8ff" stroke="#63b8ff" points="476.36,-560.39 486.93,-560.98 479.03,-553.93 476.36,-560.39"/>
</a>
</g>
</g>
<!-- Node7 -->
<g id="Node000007" class="node">
<title>Node7</title>
<g id="a_Node000007"><a xlink:href="route__time__axis_8h.html" target="_top" xlink:title=" ">
<polygon fill="white" stroke="#666666" points="833.5,-525 729.5,-525 729.5,-506 833.5,-506 833.5,-525"/>
<text text-anchor="middle" x="781.5" y="-513" font-family="Helvetica,sans-Serif" font-size="10.00">route_time_axis.h</text>
</a>
</g>
</g>
<!-- Node2&#45;&gt;Node7 -->
<g id="edge6_Node000002_Node000007" class="edge">
<title>Node2&#45;&gt;Node7</title>
<g id="a_edge6_Node000002_Node000007"><a xlink:title=" ">
<path fill="none" stroke="#63b8ff" d="M557.52,-559.83C608.86,-549.89 688,-534.59 737.17,-525.08"/>
<polygon fill="#63b8ff" stroke="#63b8ff" points="556.79,-556.4 547.64,-561.74 558.12,-563.27 556.79,-556.4"/>
</a>
</g>
</g>
<!-- Node31 -->
<g id="Node000031" class="node">
<title>Node31</title>
<g id="a_Node000031"><a xlink:href="send__ui_8h.html" target="_top" xlink:title=" ">
<polygon fill="white" stroke="#666666" points="216,-525 153,-525 153,-506 216,-506 216,-525"/>
<text text-anchor="middle" x="184.5" y="-513" font-family="Helvetica,sans-Serif" font-size="10.00">send_ui.h</text>
</a>
</g>
</g>
<!-- Node2&#45;&gt;Node31 -->
<g id="edge34_Node000002_Node000031" class="edge">
<title>Node2&#45;&gt;Node31</title>
<g id="a_edge34_Node000002_Node000031"><a xlink:title=" ">
<path fill="none" stroke="#63b8ff" d="M457.14,-562.3C400.63,-554.04 306.29,-539.74 225.5,-525 222.5,-524.45 219.37,-523.86 216.25,-523.24"/>
<polygon fill="#63b8ff" stroke="#63b8ff" points="456.84,-565.79 467.24,-563.77 457.84,-558.86 456.84,-565.79"/>
</a>
</g>
</g>
<!-- Node38 -->
<g id="Node000038" class="node">
<title>Node38</title>
<g id="a_Node000038"><a xlink:href="vca__master__strip_8h.html" target="_top" xlink:title=" ">
<polygon fill="white" stroke="#666666" points="542.5,-525 432.5,-525 432.5,-506 542.5,-506 542.5,-525"/>
<text text-anchor="middle" x="487.5" y="-513" font-family="Helvetica,sans-Serif" font-size="10.00">vca_master_strip.h</text>
</a>
</g>
</g>
<!-- Node2&#45;&gt;Node38 -->
<g id="edge42_Node000002_Node000038" class="edge">
<title>Node2&#45;&gt;Node38</title>
<g id="a_edge42_Node000002_Node000038"><a xlink:title=" ">
<path fill="none" stroke="#63b8ff" d="M500.61,-551.24C497.26,-542.37 493.4,-532.14 490.74,-525.09"/>
<polygon fill="#63b8ff" stroke="#63b8ff" points="497.39,-552.63 504.2,-560.75 503.94,-550.16 497.39,-552.63"/>
</a>
</g>
</g>
<!-- Node39 -->
<g id="Node000039" class="node">
<title>Node39</title>
<g id="a_Node000039"><a xlink:href="vca__time__axis_8h.html" target="_top" xlink:title=" ">
<polygon fill="white" stroke="#666666" points="694.5,-525 598.5,-525 598.5,-506 694.5,-506 694.5,-525"/>
<text text-anchor="middle" x="646.5" y="-513" font-family="Helvetica,sans-Serif" font-size="10.00">vca_time_axis.h</text>
</a>
</g>
</g>
<!-- Node2&#45;&gt;Node39 -->
<g id="edge43_Node000002_Node000039" class="edge">
<title>Node2&#45;&gt;Node39</title>
<g id="a_edge43_Node000002_Node000039"><a xlink:title=" ">
<path fill="none" stroke="#63b8ff" d="M539.18,-557.42C564.97,-547.59 600.74,-533.95 623.76,-525.17"/>
<polygon fill="#63b8ff" stroke="#63b8ff" points="537.93,-554.15 529.83,-560.98 540.42,-560.69 537.93,-554.15"/>
</a>
</g>
</g>
<!-- Node4 -->
<g id="Node000004" class="node">
<title>Node4</title>
<g id="a_Node000004"><a xlink:href="strip__selection_8h.html" target="_top" xlink:title=" ">
<polygon fill="white" stroke="#666666" points="576,-360 479,-360 479,-341 576,-341 576,-360"/>
<text text-anchor="middle" x="527.5" y="-348" font-family="Helvetica,sans-Serif" font-size="10.00">strip_selection.h</text>
</a>
</g>
</g>
<!-- Node3&#45;&gt;Node4 -->
<g id="edge3_Node000003_Node000004" class="edge">
<title>Node3&#45;&gt;Node4</title>
<g id="a_edge3_Node000003_Node000004"><a xlink:title=" ">
<path fill="none" stroke="#63b8ff" d="M527.5,-385.66C527.5,-376.93 527.5,-366.99 527.5,-360.09"/>
<polygon fill="#63b8ff" stroke="#63b8ff" points="524,-385.75 527.5,-395.75 531,-385.75 524,-385.75"/>
</a>
</g>
</g>
<!-- Node8 -->
<g id="Node000008" class="node">
<title>Node8</title>
<g id="a_Node000008"><a xlink:href="audio__time__axis_8h.html" target="_top" xlink:title=" ">
<polygon fill="white" stroke="#666666" points="1032.5,-470 926.5,-470 926.5,-451 1032.5,-451 1032.5,-470"/>
<text text-anchor="middle" x="979.5" y="-458" font-family="Helvetica,sans-Serif" font-size="10.00">audio_time_axis.h</text>
</a>
</g>
</g>
<!-- Node7&#45;&gt;Node8 -->
<g id="edge7_Node000007_Node000008" class="edge">
<title>Node7&#45;&gt;Node8</title>
<g id="a_edge7_Node000007_Node000008"><a xlink:title=" ">
<path fill="none" stroke="#63b8ff" d="M823.3,-503.31C860.35,-493.39 913.67,-479.12 947.44,-470.08"/>
<polygon fill="#63b8ff" stroke="#63b8ff" points="822.07,-500.02 813.31,-505.98 823.88,-506.78 822.07,-500.02"/>
</a>
</g>
</g>
<!-- Node27 -->
<g id="Node000027" class="node">
<title>Node27</title>
<g id="a_Node000027"><a xlink:href="automation__streamview_8h.html" target="_top" xlink:title=" ">
<polygon fill="white" stroke="#666666" points="870.5,-470 726.5,-470 726.5,-451 870.5,-451 870.5,-470"/>
<text text-anchor="middle" x="798.5" y="-458" font-family="Helvetica,sans-Serif" font-size="10.00">automation_streamview.h</text>
</a>
</g>
</g>
<!-- Node7&#45;&gt;Node27 -->
<g id="edge27_Node000007_Node000027" class="edge">
<title>Node7&#45;&gt;Node27</title>
<g id="a_edge27_Node000007_Node000027"><a xlink:title=" ">
<path fill="none" stroke="#63b8ff" d="M787.45,-495.95C790.27,-487.15 793.51,-477.06 795.75,-470.09"/>
<polygon fill="#63b8ff" stroke="#63b8ff" points="784.03,-495.16 784.31,-505.75 790.69,-497.29 784.03,-495.16"/>
</a>
</g>
</g>
<!-- Node28 -->
<g id="Node000028" class="node">
<title>Node28</title>
<g id="a_Node000028"><a xlink:href="midi__streamview_8h.html" target="_top" xlink:title=" ">
<polygon fill="white" stroke="#666666" points="708.5,-470 598.5,-470 598.5,-451 708.5,-451 708.5,-470"/>
<text text-anchor="middle" x="653.5" y="-458" font-family="Helvetica,sans-Serif" font-size="10.00">midi_streamview.h</text>
</a>
</g>
</g>
<!-- Node7&#45;&gt;Node28 -->
<g id="edge28_Node000007_Node000028" class="edge">
<title>Node7&#45;&gt;Node28</title>
<g id="a_edge28_Node000007_Node000028"><a xlink:title=" ">
<path fill="none" stroke="#63b8ff" d="M751.38,-502.03C727.71,-492.23 695.35,-478.83 674.44,-470.17"/>
<polygon fill="#63b8ff" stroke="#63b8ff" points="750.36,-505.39 760.93,-505.98 753.03,-498.93 750.36,-505.39"/>
</a>
</g>
</g>
<!-- Node29 -->
<g id="Node000029" class="node">
<title>Node29</title>
<g id="a_Node000029"><a xlink:href="midi__time__axis_8h.html" target="_top" xlink:title=" ">
<polygon fill="white" stroke="#666666" points="928,-415 827,-415 827,-396 928,-396 928,-415"/>
<text text-anchor="middle" x="877.5" y="-403" font-family="Helvetica,sans-Serif" font-size="10.00">midi_time_axis.h</text>
</a>
</g>
</g>
<!-- Node7&#45;&gt;Node29 -->
<g id="edge33_Node000007_Node000029" class="edge">
<title>Node7&#45;&gt;Node29</title>
<g id="a_edge33_Node000007_Node000029"><a xlink:title=" ">
<path fill="none" stroke="#63b8ff" d="M834.84,-502.65C852.07,-496.02 869.34,-485.77 879.5,-470 890.37,-453.12 884.77,-428.15 880.63,-415.12"/>
<polygon fill="#63b8ff" stroke="#63b8ff" points="833.6,-499.37 825.31,-505.97 835.91,-505.98 833.6,-499.37"/>
</a>
</g>
</g>
<!-- Node9 -->
<g id="Node000009" class="node">
<title>Node9</title>
<g id="a_Node000009"><a xlink:href="track__view__list_8h.html" target="_top" xlink:title=" ">
<polygon fill="white" stroke="#666666" points="1029,-360 930,-360 930,-341 1029,-341 1029,-360"/>
<text text-anchor="middle" x="979.5" y="-348" font-family="Helvetica,sans-Serif" font-size="10.00">track_view_list.h</text>
</a>
</g>
</g>
<!-- Node8&#45;&gt;Node9 -->
<g id="edge8_Node000008_Node000009" class="edge">
<title>Node8&#45;&gt;Node9</title>
<g id="a_edge8_Node000008_Node000009"><a xlink:title=" ">
<path fill="none" stroke="#63b8ff" d="M979.5,-440.48C979.5,-416.84 979.5,-377.5 979.5,-360.16"/>
<polygon fill="#63b8ff" stroke="#63b8ff" points="976,-440.66 979.5,-450.66 983,-440.66 976,-440.66"/>
</a>
</g>
</g>
<!-- Node10 -->
<g id="Node000010" class="node">
<title>Node10</title>
<g id="a_Node000010"><a xlink:href="track__selection_8h.html" target="_top" xlink:title=" ">
<polygon fill="white" stroke="#666666" points="1040.5,-305 940.5,-305 940.5,-286 1040.5,-286 1040.5,-305"/>
<text text-anchor="middle" x="990.5" y="-293" font-family="Helvetica,sans-Serif" font-size="10.00">track_selection.h</text>
</a>
</g>
</g>
<!-- Node9&#45;&gt;Node10 -->
<g id="edge9_Node000009_Node000010" class="edge">
<title>Node9&#45;&gt;Node10</title>
<g id="a_edge9_Node000009_Node000010"><a xlink:title=" ">
<path fill="none" stroke="#63b8ff" d="M983.35,-330.95C985.18,-322.15 987.27,-312.06 988.72,-305.09"/>
<polygon fill="#63b8ff" stroke="#63b8ff" points="979.92,-330.25 981.32,-340.75 986.78,-331.67 979.92,-330.25"/>
</a>
</g>
</g>
<!-- Node11 -->
<g id="Node000011" class="node">
<title>Node11</title>
<g id="a_Node000011"><a xlink:href="editor__drag_8h.html" target="_top" xlink:title=" ">
<polygon fill="white" stroke="#666666" points="1003,-250 922,-250 922,-231 1003,-231 1003,-250"/>
<text text-anchor="middle" x="962.5" y="-238" font-family="Helvetica,sans-Serif" font-size="10.00">editor_drag.h</text>
</a>
</g>
</g>
<!-- Node10&#45;&gt;Node11 -->
<g id="edge10_Node000010_Node000011" class="edge">
<title>Node10&#45;&gt;Node11</title>
<g id="a_edge10_Node000010_Node000011"><a xlink:title=" ">
<path fill="none" stroke="#63b8ff" d="M981.16,-276.82C976.41,-267.82 970.84,-257.29 967.04,-250.09"/>
<polygon fill="#63b8ff" stroke="#63b8ff" points="978.11,-278.54 985.88,-285.75 984.3,-275.27 978.11,-278.54"/>
</a>
</g>
</g>
<!-- Node12 -->
<g id="Node000012" class="node">
<title>Node12</title>
<g id="a_Node000012"><a xlink:href="gtk2__ardour_2selection_8h.html" target="_top" xlink:title=" ">
<polygon fill="white" stroke="#666666" points="1091.5,-250 1021.5,-250 1021.5,-231 1091.5,-231 1091.5,-250"/>
<text text-anchor="middle" x="1056.5" y="-238" font-family="Helvetica,sans-Serif" font-size="10.00">selection.h</text>
</a>
</g>
</g>
<!-- Node10&#45;&gt;Node12 -->
<g id="edge11_Node000010_Node000012" class="edge">
<title>Node10&#45;&gt;Node12</title>
<g id="a_edge11_Node000010_Node000012"><a xlink:title=" ">
<path fill="none" stroke="#63b8ff" d="M1009.05,-279.6C1020.88,-270.11 1035.79,-258.13 1045.7,-250.17"/>
<polygon fill="#63b8ff" stroke="#63b8ff" points="1006.71,-276.99 1001.1,-285.98 1011.09,-282.45 1006.71,-276.99"/>
</a>
</g>
</g>
<!-- Node13 -->
<g id="Node000013" class="node">
<title>Node13</title>
<g id="a_Node000013"><a xlink:href="editing__context_8h.html" target="_top" xlink:title=" ">
<polygon fill="white" stroke="#666666" points="1137,-195 1036,-195 1036,-176 1137,-176 1137,-195"/>
<text text-anchor="middle" x="1086.5" y="-183" font-family="Helvetica,sans-Serif" font-size="10.00">editing_context.h</text>
</a>
</g>
</g>
<!-- Node12&#45;&gt;Node13 -->
<g id="edge12_Node000012_Node000013" class="edge">
<title>Node12&#45;&gt;Node13</title>
<g id="a_edge12_Node000012_Node000013"><a xlink:title=" ">
<path fill="none" stroke="#63b8ff" d="M1066.51,-221.82C1071.6,-212.82 1077.56,-202.29 1081.64,-195.09"/>
<polygon fill="#63b8ff" stroke="#63b8ff" points="1063.33,-220.32 1061.45,-230.75 1069.43,-223.77 1063.33,-220.32"/>
</a>
</g>
</g>
<!-- Node18 -->
<g id="Node000018" class="node">
<title>Node18</title>
<g id="a_Node000018"><a xlink:href="public__editor_8h.html" target="_top" xlink:title=" ">
<polygon fill="white" stroke="#666666" points="1209.5,-140 1121.5,-140 1121.5,-121 1209.5,-121 1209.5,-140"/>
<text text-anchor="middle" x="1165.5" y="-128" font-family="Helvetica,sans-Serif" font-size="10.00">public_editor.h</text>
</a>
</g>
</g>
<!-- Node12&#45;&gt;Node18 -->
<g id="edge25_Node000012_Node000018" class="edge">
<title>Node12&#45;&gt;Node18</title>
<g id="a_edge25_Node000012_Node000018"><a xlink:title=" ">
<path fill="none" stroke="#63b8ff" d="M1097.45,-227.46C1114.75,-220.5 1133.79,-210.06 1146.5,-195 1160.01,-179 1163.91,-153.65 1165.04,-140.34"/>
<polygon fill="#63b8ff" stroke="#63b8ff" points="1096.21,-224.18 1088.07,-230.97 1098.66,-230.74 1096.21,-224.18"/>
</a>
</g>
</g>
<!-- Node25 -->
<g id="Node000025" class="node">
<title>Node25</title>
<g id="a_Node000025"><a xlink:href="gtk2__ardour_2keyboard_8h.html" target="_top" xlink:title=" ">
<polygon fill="white" stroke="#666666" points="1018,-195 947,-195 947,-176 1018,-176 1018,-195"/>
<text text-anchor="middle" x="982.5" y="-183" font-family="Helvetica,sans-Serif" font-size="10.00">keyboard.h</text>
</a>
</g>
</g>
<!-- Node12&#45;&gt;Node25 -->
<g id="edge24_Node000012_Node000025" class="edge">
<title>Node12&#45;&gt;Node25</title>
<g id="a_edge24_Node000012_Node000025"><a xlink:title=" ">
<path fill="none" stroke="#63b8ff" d="M1036.47,-225.15C1023.09,-215.57 1005.94,-203.29 994.61,-195.17"/>
<polygon fill="#63b8ff" stroke="#63b8ff" points="1034.44,-228.01 1044.61,-230.98 1038.52,-222.32 1034.44,-228.01"/>
</a>
</g>
</g>
<!-- Node26 -->
<g id="Node000026" class="node">
<title>Node26</title>
<g id="a_Node000026"><a xlink:href="selection__templates_8h.html" target="_top" xlink:title=" ">
<polygon fill="white" stroke="#666666" points="929,-195 804,-195 804,-176 929,-176 929,-195"/>
<text text-anchor="middle" x="866.5" y="-183" font-family="Helvetica,sans-Serif" font-size="10.00">selection_templates.h</text>
</a>
</g>
</g>
<!-- Node12&#45;&gt;Node26 -->
<g id="edge26_Node000012_Node000026" class="edge">
<title>Node12&#45;&gt;Node26</title>
<g id="a_edge26_Node000012_Node000026"><a xlink:title=" ">
<path fill="none" stroke="#63b8ff" d="M1015.93,-228.18C980.4,-218.27 929.53,-204.08 897.27,-195.08"/>
<polygon fill="#63b8ff" stroke="#63b8ff" points="1015.4,-231.67 1025.97,-230.98 1017.28,-224.93 1015.4,-231.67"/>
</a>
</g>
</g>
<!-- Node14 -->
<g id="Node000014" class="node">
<title>Node14</title>
<g id="a_Node000014"><a xlink:href="cue__editor_8h.html" target="_top" xlink:title=" ">
<polygon fill="white" stroke="#666666" points="832.5,-140 756.5,-140 756.5,-121 832.5,-121 832.5,-140"/>
<text text-anchor="middle" x="794.5" y="-128" font-family="Helvetica,sans-Serif" font-size="10.00">cue_editor.h</text>
</a>
</g>
</g>
<!-- Node13&#45;&gt;Node14 -->
<g id="edge13_Node000013_Node000014" class="edge">
<title>Node13&#45;&gt;Node14</title>
<g id="a_edge13_Node000013_Node000014"><a xlink:title=" ">
<path fill="none" stroke="#63b8ff" d="M1029.48,-174.15C971.45,-163.62 883.11,-147.58 832.91,-138.47"/>
<polygon fill="#63b8ff" stroke="#63b8ff" points="1029.12,-177.64 1039.59,-175.98 1030.37,-170.75 1029.12,-177.64"/>
</a>
</g>
</g>
<!-- Node13&#45;&gt;Node18 -->
<g id="edge17_Node000013_Node000018" class="edge">
<title>Node13&#45;&gt;Node18</title>
<g id="a_edge17_Node000013_Node000018"><a xlink:title=" ">
<path fill="none" stroke="#63b8ff" d="M1107.89,-170.15C1122.17,-160.57 1140.47,-148.29 1152.58,-140.17"/>
<polygon fill="#63b8ff" stroke="#63b8ff" points="1105.55,-167.51 1099.19,-175.98 1109.45,-173.32 1105.55,-167.51"/>
</a>
</g>
</g>
<!-- Node15 -->
<g id="Node000015" class="node">
<title>Node15</title>
<g id="a_Node000015"><a xlink:href="audio__clip__editor_8h.html" target="_top" xlink:title=" ">
<polygon fill="white" stroke="#666666" points="742.5,-79.5 634.5,-79.5 634.5,-60.5 742.5,-60.5 742.5,-79.5"/>
<text text-anchor="middle" x="688.5" y="-67.5" font-family="Helvetica,sans-Serif" font-size="10.00">audio_clip_editor.h</text>
</a>
</g>
</g>
<!-- Node14&#45;&gt;Node15 -->
<g id="edge14_Node000014_Node000015" class="edge">
<title>Node14&#45;&gt;Node15</title>
<g id="a_edge14_Node000014_Node000015"><a xlink:title=" ">
<path fill="none" stroke="#63b8ff" d="M769.9,-115.92C749.64,-104.74 721.53,-89.23 704.2,-79.67"/>
<polygon fill="#63b8ff" stroke="#63b8ff" points="768.41,-119.1 778.86,-120.87 771.8,-112.97 768.41,-119.1"/>
</a>
</g>
</g>
<!-- Node17 -->
<g id="Node000017" class="node">
<title>Node17</title>
<g id="a_Node000017"><a xlink:href="pianoroll_8h.html" target="_top" xlink:title=" ">
<polygon fill="white" stroke="#666666" points="828.5,-79.5 760.5,-79.5 760.5,-60.5 828.5,-60.5 828.5,-79.5"/>
<text text-anchor="middle" x="794.5" y="-67.5" font-family="Helvetica,sans-Serif" font-size="10.00">pianoroll.h</text>
</a>
</g>
</g>
<!-- Node14&#45;&gt;Node17 -->
<g id="edge16_Node000014_Node000017" class="edge">
<title>Node14&#45;&gt;Node17</title>
<g id="a_edge16_Node000014_Node000017"><a xlink:title=" ">
<path fill="none" stroke="#63b8ff" d="M794.5,-110.66C794.5,-100.24 794.5,-87.8 794.5,-79.67"/>
<polygon fill="#63b8ff" stroke="#63b8ff" points="791,-110.87 794.5,-120.87 798,-110.87 791,-110.87"/>
</a>
</g>
</g>
<!-- Node16 -->
<g id="Node000016" class="node">
<title>Node16</title>
<g id="a_Node000016"><a xlink:href="trigger__page_8h.html" target="_top" xlink:title=" ">
<polygon fill="white" stroke="#666666" points="732,-19 645,-19 645,0 732,0 732,-19"/>
<text text-anchor="middle" x="688.5" y="-7" font-family="Helvetica,sans-Serif" font-size="10.00">trigger_page.h</text>
</a>
</g>
</g>
<!-- Node15&#45;&gt;Node16 -->
<g id="edge15_Node000015_Node000016" class="edge">
<title>Node15&#45;&gt;Node16</title>
<g id="a_edge15_Node000015_Node000016"><a xlink:title=" ">
<path fill="none" stroke="#63b8ff" d="M688.5,-50.16C688.5,-39.74 688.5,-27.3 688.5,-19.17"/>
<polygon fill="#63b8ff" stroke="#63b8ff" points="685,-50.37 688.5,-60.37 692,-50.37 685,-50.37"/>
</a>
</g>
</g>
<!-- Node19 -->
<g id="Node000019" class="node">
<title>Node19</title>
<g id="a_Node000019"><a xlink:href="editor_8h.html" target="_top" xlink:title=" ">
<polygon fill="white" stroke="#666666" points="1192,-79.5 1139,-79.5 1139,-60.5 1192,-60.5 1192,-79.5"/>
<text text-anchor="middle" x="1165.5" y="-67.5" font-family="Helvetica,sans-Serif" font-size="10.00">editor.h</text>
</a>
</g>
</g>
<!-- Node18&#45;&gt;Node19 -->
<g id="edge18_Node000018_Node000019" class="edge">
<title>Node18&#45;&gt;Node19</title>
<g id="a_edge18_Node000018_Node000019"><a xlink:title=" ">
<path fill="none" stroke="#63b8ff" d="M1165.5,-110.66C1165.5,-100.24 1165.5,-87.8 1165.5,-79.67"/>
<polygon fill="#63b8ff" stroke="#63b8ff" points="1162,-110.87 1165.5,-120.87 1169,-110.87 1162,-110.87"/>
</a>
</g>
</g>
<!-- Node20 -->
<g id="Node000020" class="node">
<title>Node20</title>
<g id="a_Node000020"><a xlink:href="export__dialog_8h.html" target="_top" xlink:title=" ">
<polygon fill="white" stroke="#666666" points="1302.5,-79.5 1210.5,-79.5 1210.5,-60.5 1302.5,-60.5 1302.5,-79.5"/>
<text text-anchor="middle" x="1256.5" y="-67.5" font-family="Helvetica,sans-Serif" font-size="10.00">export_dialog.h</text>
</a>
</g>
</g>
<!-- Node18&#45;&gt;Node20 -->
<g id="edge19_Node000018_Node000020" class="edge">
<title>Node18&#45;&gt;Node20</title>
<g id="a_edge19_Node000018_Node000020"><a xlink:title=" ">
<path fill="none" stroke="#63b8ff" d="M1187.81,-115.16C1205.1,-104.05 1228.48,-89.01 1243.02,-79.67"/>
<polygon fill="#63b8ff" stroke="#63b8ff" points="1185.45,-112.52 1178.93,-120.87 1189.23,-118.4 1185.45,-112.52"/>
</a>
</g>
</g>
<!-- Node21 -->
<g id="Node000021" class="node">
<title>Node21</title>
<g id="a_Node000021"><a xlink:href="insert__remove__time__dialog_8h.html" target="_top" xlink:title=" ">
<polygon fill="white" stroke="#666666" points="1436,-85 1321,-85 1321,-55 1436,-55 1436,-85"/>
<text text-anchor="start" x="1329" y="-73" font-family="Helvetica,sans-Serif" font-size="10.00">insert_remove_time</text>
<text text-anchor="middle" x="1378.5" y="-62" font-family="Helvetica,sans-Serif" font-size="10.00">_dialog.h</text>
</a>
</g>
</g>
<!-- Node18&#45;&gt;Node21 -->
<g id="edge20_Node000018_Node000021" class="edge">
<title>Node18&#45;&gt;Node21</title>
<g id="a_edge20_Node000018_Node000021"><a xlink:title=" ">
<path fill="none" stroke="#63b8ff" d="M1206.2,-118.32C1240.64,-108.86 1290.17,-95.26 1327.29,-85.06"/>
<polygon fill="#63b8ff" stroke="#63b8ff" points="1205.19,-114.97 1196.47,-120.99 1207.04,-121.72 1205.19,-114.97"/>
</a>
</g>
</g>
<!-- Node22 -->
<g id="Node000022" class="node">
<title>Node22</title>
<g id="a_Node000022"><a xlink:href="midi__export__dialog_8h.html" target="_top" xlink:title=" ">
<polygon fill="white" stroke="#666666" points="1573,-79.5 1454,-79.5 1454,-60.5 1573,-60.5 1573,-79.5"/>
<text text-anchor="middle" x="1513.5" y="-67.5" font-family="Helvetica,sans-Serif" font-size="10.00">midi_export_dialog.h</text>
</a>
</g>
</g>
<!-- Node18&#45;&gt;Node22 -->
<g id="edge21_Node000018_Node000022" class="edge">
<title>Node18&#45;&gt;Node22</title>
<g id="a_edge21_Node000018_Node000022"><a xlink:title=" ">
<path fill="none" stroke="#63b8ff" d="M1219.88,-121.61C1276.38,-113.23 1367.32,-99.25 1445.5,-85 1454.63,-83.34 1464.42,-81.41 1473.65,-79.52"/>
<polygon fill="#63b8ff" stroke="#63b8ff" points="1219.12,-118.18 1209.74,-123.1 1220.14,-125.1 1219.12,-118.18"/>
</a>
</g>
</g>
<!-- Node23 -->
<g id="Node000023" class="node">
<title>Node23</title>
<g id="a_Node000023"><a xlink:href="simple__export__dialog_8h.html" target="_top" xlink:title=" ">
<polygon fill="white" stroke="#666666" points="978,-79.5 847,-79.5 847,-60.5 978,-60.5 978,-79.5"/>
<text text-anchor="middle" x="912.5" y="-67.5" font-family="Helvetica,sans-Serif" font-size="10.00">simple_export_dialog.h</text>
</a>
</g>
</g>
<!-- Node18&#45;&gt;Node23 -->
<g id="edge22_Node000018_Node000023" class="edge">
<title>Node18&#45;&gt;Node23</title>
<g id="a_edge22_Node000018_Node000023"><a xlink:title=" ">
<path fill="none" stroke="#63b8ff" d="M1118.71,-118.68C1069.82,-107.38 994.13,-89.88 949.33,-79.52"/>
<polygon fill="#63b8ff" stroke="#63b8ff" points="1118.18,-122.15 1128.71,-120.99 1119.76,-115.33 1118.18,-122.15"/>
</a>
</g>
</g>
<!-- Node24 -->
<g id="Node000024" class="node">
<title>Node24</title>
<g id="a_Node000024"><a xlink:href="tempo__map__change_8h.html" target="_top" xlink:title=" ">
<polygon fill="white" stroke="#666666" points="1121,-79.5 996,-79.5 996,-60.5 1121,-60.5 1121,-79.5"/>
<text text-anchor="middle" x="1058.5" y="-67.5" font-family="Helvetica,sans-Serif" font-size="10.00">tempo_map_change.h</text>
</a>
</g>
</g>
<!-- Node18&#45;&gt;Node24 -->
<g id="edge23_Node000018_Node000024" class="edge">
<title>Node18&#45;&gt;Node24</title>
<g id="a_edge23_Node000018_Node000024"><a xlink:title=" ">
<path fill="none" stroke="#63b8ff" d="M1140.67,-115.92C1120.22,-104.74 1091.84,-89.23 1074.35,-79.67"/>
<polygon fill="#63b8ff" stroke="#63b8ff" points="1139.26,-119.14 1149.71,-120.87 1142.62,-113 1139.26,-119.14"/>
</a>
</g>
</g>
<!-- Node28&#45;&gt;Node29 -->
<g id="edge29_Node000028_Node000029" class="edge">
<title>Node28&#45;&gt;Node29</title>
<g id="a_edge29_Node000028_Node000029"><a xlink:title=" ">
<path fill="none" stroke="#63b8ff" d="M699.45,-448.63C741.41,-438.7 802.62,-424.22 841.23,-415.08"/>
<polygon fill="#63b8ff" stroke="#63b8ff" points="698.41,-445.28 689.49,-450.98 700.03,-452.09 698.41,-445.28"/>
</a>
</g>
</g>
<!-- Node29&#45;&gt;Node9 -->
<g id="edge32_Node000029_Node000009" class="edge">
<title>Node29&#45;&gt;Node9</title>
<g id="a_edge32_Node000029_Node000009"><a xlink:title=" ">
<path fill="none" stroke="#63b8ff" d="M902.77,-391.37C921.51,-381.63 946.52,-368.64 962.81,-360.17"/>
<polygon fill="#63b8ff" stroke="#63b8ff" points="901.15,-388.27 893.89,-395.98 904.38,-394.48 901.15,-388.27"/>
</a>
</g>
</g>
<!-- Node30 -->
<g id="Node000030" class="node">
<title>Node30</title>
<g id="a_Node000030"><a xlink:href="midi__region__view_8h.html" target="_top" xlink:title=" ">
<polygon fill="white" stroke="#666666" points="922,-305 811,-305 811,-286 922,-286 922,-305"/>
<text text-anchor="middle" x="866.5" y="-293" font-family="Helvetica,sans-Serif" font-size="10.00">midi_region_view.h</text>
</a>
</g>
</g>
<!-- Node29&#45;&gt;Node30 -->
<g id="edge30_Node000029_Node000030" class="edge">
<title>Node29&#45;&gt;Node30</title>
<g id="a_edge30_Node000029_Node000030"><a xlink:title=" ">
<path fill="none" stroke="#63b8ff" d="M875.56,-385.48C873.16,-361.84 869.15,-322.5 867.38,-305.16"/>
<polygon fill="#63b8ff" stroke="#63b8ff" points="872.1,-386.07 876.6,-395.66 879.07,-385.36 872.1,-386.07"/>
</a>
</g>
</g>
<!-- Node30&#45;&gt;Node26 -->
<g id="edge31_Node000030_Node000026" class="edge">
<title>Node30&#45;&gt;Node26</title>
<g id="a_edge31_Node000030_Node000026"><a xlink:title=" ">
<path fill="none" stroke="#63b8ff" d="M866.5,-275.48C866.5,-251.84 866.5,-212.5 866.5,-195.16"/>
<polygon fill="#63b8ff" stroke="#63b8ff" points="863,-275.66 866.5,-285.66 870,-275.66 863,-275.66"/>
</a>
</g>
</g>
<!-- Node32 -->
<g id="Node000032" class="node">
<title>Node32</title>
<g id="a_Node000032"><a xlink:href="processor__box_8h.html" target="_top" xlink:title=" ">
<polygon fill="white" stroke="#666666" points="275.5,-470 179.5,-470 179.5,-451 275.5,-451 275.5,-470"/>
<text text-anchor="middle" x="227.5" y="-458" font-family="Helvetica,sans-Serif" font-size="10.00">processor_box.h</text>
</a>
</g>
</g>
<!-- Node31&#45;&gt;Node32 -->
<g id="edge35_Node000031_Node000032" class="edge">
<title>Node31&#45;&gt;Node32</title>
<g id="a_edge35_Node000031_Node000032"><a xlink:title=" ">
<path fill="none" stroke="#63b8ff" d="M197.92,-497.96C205.41,-488.72 214.44,-477.6 220.53,-470.09"/>
<polygon fill="#63b8ff" stroke="#63b8ff" points="195.18,-495.78 191.6,-505.75 200.62,-500.19 195.18,-495.78"/>
</a>
</g>
</g>
<!-- Node32&#45;&gt;Node3 -->
<g id="edge37_Node000032_Node000003" class="edge">
<title>Node32&#45;&gt;Node3</title>
<g id="a_edge37_Node000032_Node000003"><a xlink:title=" ">
<path fill="none" stroke="#63b8ff" d="M285.66,-449.23C344.92,-438.76 435.26,-422.8 487.11,-413.63"/>
<polygon fill="#63b8ff" stroke="#63b8ff" points="284.94,-445.8 275.7,-450.98 286.16,-452.69 284.94,-445.8"/>
</a>
</g>
</g>
<!-- Node33 -->
<g id="Node000033" class="node">
<title>Node33</title>
<g id="a_Node000033"><a xlink:href="foldback__strip_8h.html" target="_top" xlink:title=" ">
<polygon fill="white" stroke="#666666" points="95,-415 0,-415 0,-396 95,-396 95,-415"/>
<text text-anchor="middle" x="47.5" y="-403" font-family="Helvetica,sans-Serif" font-size="10.00">foldback_strip.h</text>
</a>
</g>
</g>
<!-- Node32&#45;&gt;Node33 -->
<g id="edge36_Node000032_Node000033" class="edge">
<title>Node32&#45;&gt;Node33</title>
<g id="a_edge36_Node000032_Node000033"><a xlink:title=" ">
<path fill="none" stroke="#63b8ff" d="M188.63,-448.06C154.99,-438.15 107.08,-424.04 76.65,-415.08"/>
<polygon fill="#63b8ff" stroke="#63b8ff" points="188,-451.52 198.58,-450.98 189.98,-444.8 188,-451.52"/>
</a>
</g>
</g>
<!-- Node34 -->
<g id="Node000034" class="node">
<title>Node34</title>
<g id="a_Node000034"><a xlink:href="monitor__section_8h.html" target="_top" xlink:title=" ">
<polygon fill="white" stroke="#666666" points="217.5,-415 113.5,-415 113.5,-396 217.5,-396 217.5,-415"/>
<text text-anchor="middle" x="165.5" y="-403" font-family="Helvetica,sans-Serif" font-size="10.00">monitor_section.h</text>
</a>
</g>
</g>
<!-- Node32&#45;&gt;Node34 -->
<g id="edge38_Node000032_Node000034" class="edge">
<title>Node32&#45;&gt;Node34</title>
<g id="a_edge38_Node000032_Node000034"><a xlink:title=" ">
<path fill="none" stroke="#63b8ff" d="M209.75,-444.32C198.69,-434.87 184.87,-423.06 175.64,-415.17"/>
<polygon fill="#63b8ff" stroke="#63b8ff" points="207.66,-447.15 217.54,-450.98 212.21,-441.83 207.66,-447.15"/>
</a>
</g>
</g>
<!-- Node36 -->
<g id="Node000036" class="node">
<title>Node36</title>
<g id="a_Node000036"><a xlink:href="route__params__ui_8h.html" target="_top" xlink:title=" ">
<polygon fill="white" stroke="#666666" points="343,-415 236,-415 236,-396 343,-396 343,-415"/>
<text text-anchor="middle" x="289.5" y="-403" font-family="Helvetica,sans-Serif" font-size="10.00">route_params_ui.h</text>
</a>
</g>
</g>
<!-- Node32&#45;&gt;Node36 -->
<g id="edge40_Node000032_Node000036" class="edge">
<title>Node32&#45;&gt;Node36</title>
<g id="a_edge40_Node000032_Node000036"><a xlink:title=" ">
<path fill="none" stroke="#63b8ff" d="M245.25,-444.32C256.31,-434.87 270.13,-423.06 279.36,-415.17"/>
<polygon fill="#63b8ff" stroke="#63b8ff" points="242.79,-441.83 237.46,-450.98 247.34,-447.15 242.79,-441.83"/>
</a>
</g>
</g>
<!-- Node37 -->
<g id="Node000037" class="node">
<title>Node37</title>
<g id="a_Node000037"><a xlink:href="trigger__strip_8h.html" target="_top" xlink:title=" ">
<polygon fill="white" stroke="#666666" points="446,-415 361,-415 361,-396 446,-396 446,-415"/>
<text text-anchor="middle" x="403.5" y="-403" font-family="Helvetica,sans-Serif" font-size="10.00">trigger_strip.h</text>
</a>
</g>
</g>
<!-- Node32&#45;&gt;Node37 -->
<g id="edge41_Node000032_Node000037" class="edge">
<title>Node32&#45;&gt;Node37</title>
<g id="a_edge41_Node000032_Node000037"><a xlink:title=" ">
<path fill="none" stroke="#63b8ff" d="M265.5,-448.06C298.4,-438.15 345.24,-424.04 375,-415.08"/>
<polygon fill="#63b8ff" stroke="#63b8ff" points="264.34,-444.75 255.78,-450.98 266.36,-451.45 264.34,-444.75"/>
</a>
</g>
</g>
<!-- Node35 -->
<g id="Node000035" class="node">
<title>Node35</title>
<g id="a_Node000035"><a xlink:href="mixer__ui_8h.html" target="_top" xlink:title=" ">
<polygon fill="white" stroke="#666666" points="199.5,-360 131.5,-360 131.5,-341 199.5,-341 199.5,-360"/>
<text text-anchor="middle" x="165.5" y="-348" font-family="Helvetica,sans-Serif" font-size="10.00">mixer_ui.h</text>
</a>
</g>
</g>
<!-- Node34&#45;&gt;Node35 -->
<g id="edge39_Node000034_Node000035" class="edge">
<title>Node34&#45;&gt;Node35</title>
<g id="a_edge39_Node000034_Node000035"><a xlink:title=" ">
<path fill="none" stroke="#63b8ff" d="M165.5,-385.66C165.5,-376.93 165.5,-366.99 165.5,-360.09"/>
<polygon fill="#63b8ff" stroke="#63b8ff" points="162,-385.75 165.5,-395.75 169,-385.75 162,-385.75"/>
</a>
</g>
</g>
<!-- Node41 -->
<g id="Node000041" class="node">
<title>Node41</title>
<g id="a_Node000041"><a xlink:href="automation__time__axis_8h.html" target="_top" xlink:title=" ">
<polygon fill="white" stroke="#666666" points="769,-640.5 634,-640.5 634,-621.5 769,-621.5 769,-640.5"/>
<text text-anchor="middle" x="701.5" y="-628.5" font-family="Helvetica,sans-Serif" font-size="10.00">automation_time_axis.h</text>
</a>
</g>
</g>
<!-- Node40&#45;&gt;Node41 -->
<g id="edge45_Node000040_Node000041" class="edge">
<title>Node40&#45;&gt;Node41</title>
<g id="a_edge45_Node000040_Node000041"><a xlink:title=" ">
<path fill="none" stroke="#63b8ff" d="M667.08,-673.95C675.96,-663.12 687.22,-649.41 694.39,-640.67"/>
<polygon fill="#63b8ff" stroke="#63b8ff" points="664.22,-671.92 660.58,-681.87 669.63,-676.36 664.22,-671.92"/>
</a>
</g>
</g>
<!-- Node43 -->
<g id="Node000043" class="node">
<title>Node43</title>
<g id="a_Node000043"><a xlink:href="stripable__time__axis_8h.html" target="_top" xlink:title=" ">
<polygon fill="white" stroke="#666666" points="707.5,-580 585.5,-580 585.5,-561 707.5,-561 707.5,-580"/>
<text text-anchor="middle" x="646.5" y="-568" font-family="Helvetica,sans-Serif" font-size="10.00">stripable_time_axis.h</text>
</a>
</g>
</g>
<!-- Node40&#45;&gt;Node43 -->
<g id="edge51_Node000040_Node000043" class="edge">
<title>Node40&#45;&gt;Node43</title>
<g id="a_edge51_Node000040_Node000043"><a xlink:title=" ">
<path fill="none" stroke="#63b8ff" d="M639.29,-673.78C633.5,-665.89 627.48,-656.02 624.5,-646 620.7,-633.22 621.47,-628.98 624.5,-616 627.6,-602.74 635.25,-588.9 640.66,-580.24"/>
<polygon fill="#63b8ff" stroke="#63b8ff" points="636.63,-676.05 645.56,-681.75 642.13,-671.72 636.63,-676.05"/>
</a>
</g>
</g>
<!-- Node44 -->
<g id="Node000044" class="node">
<title>Node44</title>
<g id="a_Node000044"><a xlink:href="region__layering__order__editor_8h.html" target="_top" xlink:title=" ">
<polygon fill="white" stroke="#666666" points="910,-646 787,-646 787,-616 910,-616 910,-646"/>
<text text-anchor="start" x="795" y="-634" font-family="Helvetica,sans-Serif" font-size="10.00">region_layering_order</text>
<text text-anchor="middle" x="848.5" y="-623" font-family="Helvetica,sans-Serif" font-size="10.00">_editor.h</text>
</a>
</g>
</g>
<!-- Node40&#45;&gt;Node44 -->
<g id="edge50_Node000040_Node000044" class="edge">
<title>Node40&#45;&gt;Node44</title>
<g id="a_edge50_Node000040_Node000044"><a xlink:title=" ">
<path fill="none" stroke="#63b8ff" d="M691.58,-679.08C723.07,-669.63 767.92,-656.17 801.62,-646.06"/>
<polygon fill="#63b8ff" stroke="#63b8ff" points="690.43,-675.77 681.85,-681.99 692.44,-682.47 690.43,-675.77"/>
</a>
</g>
</g>
<!-- Node42 -->
<g id="Node000042" class="node">
<title>Node42</title>
<g id="a_Node000042"><a xlink:href="automation__region__view_8h.html" target="_top" xlink:title=" ">
<polygon fill="white" stroke="#666666" points="871.5,-580 725.5,-580 725.5,-561 871.5,-561 871.5,-580"/>
<text text-anchor="middle" x="798.5" y="-568" font-family="Helvetica,sans-Serif" font-size="10.00">automation_region_view.h</text>
</a>
</g>
</g>
<!-- Node41&#45;&gt;Node42 -->
<g id="edge46_Node000041_Node000042" class="edge">
<title>Node41&#45;&gt;Node42</title>
<g id="a_edge46_Node000041_Node000042"><a xlink:title=" ">
<path fill="none" stroke="#63b8ff" d="M724.52,-616.12C743.01,-604.96 768.42,-589.64 784.13,-580.17"/>
<polygon fill="#63b8ff" stroke="#63b8ff" points="722.57,-613.21 715.81,-621.37 726.18,-619.2 722.57,-613.21"/>
</a>
</g>
</g>
<!-- Node41&#45;&gt;Node43 -->
<g id="edge47_Node000041_Node000043" class="edge">
<title>Node41&#45;&gt;Node43</title>
<g id="a_edge47_Node000041_Node000043"><a xlink:title=" ">
<path fill="none" stroke="#63b8ff" d="M686.24,-613.77C676.01,-602.89 662.95,-588.99 654.65,-580.17"/>
<polygon fill="#63b8ff" stroke="#63b8ff" points="683.98,-616.48 693.38,-621.37 689.08,-611.69 683.98,-616.48"/>
</a>
</g>
</g>
<!-- Node43&#45;&gt;Node7 -->
<g id="edge48_Node000043_Node000007" class="edge">
<title>Node43&#45;&gt;Node7</title>
<g id="a_edge48_Node000043_Node000007"><a xlink:title=" ">
<path fill="none" stroke="#63b8ff" d="M677.6,-557.29C702.62,-547.47 737.16,-533.91 759.42,-525.17"/>
<polygon fill="#63b8ff" stroke="#63b8ff" points="676.22,-554.07 668.19,-560.98 678.78,-560.59 676.22,-554.07"/>
</a>
</g>
</g>
<!-- Node43&#45;&gt;Node39 -->
<g id="edge49_Node000043_Node000039" class="edge">
<title>Node43&#45;&gt;Node39</title>
<g id="a_edge49_Node000043_Node000039"><a xlink:title=" ">
<path fill="none" stroke="#63b8ff" d="M646.5,-550.66C646.5,-541.93 646.5,-531.99 646.5,-525.09"/>
<polygon fill="#63b8ff" stroke="#63b8ff" points="643,-550.75 646.5,-560.75 650,-550.75 643,-550.75"/>
</a>
</g>
</g>
</g>
</svg>
