<?xml version="1.0" encoding="UTF-8" standalone="no"?>
<!DOCTYPE svg PUBLIC "-//W3C//DTD SVG 1.1//EN"
 "http://www.w3.org/Graphics/SVG/1.1/DTD/svg11.dtd">
<!-- Generated by graphviz version 2.43.0 (0)
 -->
<!-- Title: fp8_base.h Pages: 1 -->
<!--zoomable 214 -->

<svg id="main" version="1.1" xmlns="http://www.w3.org/2000/svg" xmlns:xlink="http://www.w3.org/1999/xlink" xml:space="preserve" onload="init(evt)">
<style type="text/css"><![CDATA[
.node, .edge {opacity: 0.7;}
.node.selected, .edge.selected {opacity: 1;}
.edge:hover path { stroke: red; }
.edge:hover polygon { stroke: red; fill: red; }
]]></style>

<defs>
  <circle id="rim" cx="0" cy="0" r="7"/>
  <circle id="rim2" cx="0" cy="0" r="3.5"/>
  <g id="zoomPlus">
    <use xlink:href="#rim" fill="#404040"><set attributeName="fill" to="#808080" begin="zoomplus.mouseover" end="zoomplus.mouseout"/></use>
    <path d="M-4,0h8M0,-4v8" fill="none" stroke="white" stroke-width="1.5" pointer-events="none"/>
  </g>
  <g id="zoomMin">
    <use xlink:href="#rim" fill="#404040"><set attributeName="fill" to="#808080" begin="zoomminus.mouseover" end="zoomminus.mouseout"/></use>
    <path d="M-4,0h8" fill="none" stroke="white" stroke-width="1.5" pointer-events="none"/>
  </g>
  <g id="arrowUp" transform="translate(30 24)">
    <use xlink:href="#rim"/>
    <path pointer-events="none" fill="none" stroke="white" stroke-width="1.5" d="M0,-3.0v7 M-2.5,-0.5L0,-3.0L2.5,-0.5"/>
  </g>
  <g id="arrowRight" transform="rotate(90) translate(36 -43)">
    <use xlink:href="#rim"/>
    <path pointer-events="none" fill="none" stroke="white" stroke-width="1.5" d="M0,-3.0v7 M-2.5,-0.5L0,-3.0L2.5,-0.5"/>
  </g>
  <g id="arrowDown" transform="rotate(180) translate(-30 -48)">
    <use xlink:href="#rim"/>
    <path pointer-events="none" fill="none" stroke="white" stroke-width="1.5" d="M0,-3.0v7 M-2.5,-0.5L0,-3.0L2.5,-0.5"/>
  </g>
  <g id="arrowLeft" transform="rotate(270) translate(-36 17)">
    <use xlink:href="#rim"/>
    <path pointer-events="none" fill="none" stroke="white" stroke-width="1.5" d="M0,-3.0v7 M-2.5,-0.5L0,-3.0L2.5,-0.5"/>
  </g>
  <g id="resetDef">
    <use xlink:href="#rim2" fill="#404040"><set attributeName="fill" to="#808080" begin="reset.mouseover" end="reset.mouseout"/></use>
  </g>
</defs>
<script type="application/ecmascript">
var viewWidth = 1155;
var viewHeight = 214;
var sectionId = 'dynsection-0';
</script>
<script type="application/ecmascript" xlink:href="svg.min.js"/>
<svg id="graph" class="graph">
<g id="viewport">
<title>fp8_base.h</title>
<!-- Node1 -->
<g id="Node000001" class="node">
<title>Node1</title>
<g id="a_Node000001"><a xlink:title=" ">
<polygon fill="#999999" stroke="#666666" points="113.5,-206 43.5,-206 43.5,-187 113.5,-187 113.5,-206"/>
<text text-anchor="middle" x="78.5" y="-194" font-family="Helvetica,sans-Serif" font-size="10.00">fp8_base.h</text>
</a>
</g>
</g>
<!-- Node2 -->
<g id="Node000002" class="node">
<title>Node2</title>
<g id="a_Node000002"><a xlink:title=" ">
<polygon fill="#e0e0e0" stroke="#999999" points="53,-24.5 0,-24.5 0,-5.5 53,-5.5 53,-24.5"/>
<text text-anchor="middle" x="26.5" y="-12.5" font-family="Helvetica,sans-Serif" font-size="10.00">stdint.h</text>
</a>
</g>
</g>
<!-- Node1&#45;&gt;Node2 -->
<g id="edge1_Node000001_Node000002" class="edge">
<title>Node1&#45;&gt;Node2</title>
<g id="a_edge1_Node000001_Node000002"><a xlink:title=" ">
<path fill="none" stroke="#63b8ff" d="M75.99,-186.84C67.98,-159.18 42.87,-72.51 31.82,-34.35"/>
<polygon fill="#63b8ff" stroke="#63b8ff" points="35.13,-33.2 28.98,-24.57 28.4,-35.15 35.13,-33.2"/>
</a>
</g>
</g>
<!-- Node3 -->
<g id="Node000003" class="node">
<title>Node3</title>
<g id="a_Node000003"><a xlink:title=" ">
<polygon fill="#e0e0e0" stroke="#999999" points="118,-24.5 71,-24.5 71,-5.5 118,-5.5 118,-24.5"/>
<text text-anchor="middle" x="94.5" y="-12.5" font-family="Helvetica,sans-Serif" font-size="10.00">vector</text>
</a>
</g>
</g>
<!-- Node1&#45;&gt;Node3 -->
<g id="edge2_Node000001_Node000003" class="edge">
<title>Node1&#45;&gt;Node3</title>
<g id="a_edge2_Node000001_Node000003"><a xlink:title=" ">
<path fill="none" stroke="#63b8ff" d="M79.27,-186.84C81.73,-159.3 89.4,-73.26 92.82,-34.84"/>
<polygon fill="#63b8ff" stroke="#63b8ff" points="96.33,-34.84 93.74,-24.57 89.36,-34.22 96.33,-34.84"/>
</a>
</g>
</g>
<!-- Node4 -->
<g id="Node000004" class="node">
<title>Node4</title>
<g id="a_Node000004"><a xlink:href="signals_8h.html" target="_top" xlink:title=" ">
<polygon fill="white" stroke="#666666" points="688,-151 607,-151 607,-132 688,-132 688,-151"/>
<text text-anchor="middle" x="647.5" y="-139" font-family="Helvetica,sans-Serif" font-size="10.00">pbd/signals.h</text>
</a>
</g>
</g>
<!-- Node1&#45;&gt;Node4 -->
<g id="edge3_Node000001_Node000004" class="edge">
<title>Node1&#45;&gt;Node4</title>
<g id="a_edge3_Node000001_Node000004"><a xlink:title=" ">
<path fill="none" stroke="#63b8ff" d="M113.66,-192.22C210.82,-183.17 483.23,-157.8 596.79,-147.22"/>
<polygon fill="#63b8ff" stroke="#63b8ff" points="597.32,-150.69 606.95,-146.28 596.67,-143.72 597.32,-150.69"/>
</a>
</g>
</g>
<!-- Node5 -->
<g id="Node000005" class="node">
<title>Node5</title>
<g id="a_Node000005"><a xlink:title=" ">
<polygon fill="#e0e0e0" stroke="#999999" points="922,-90.5 871,-90.5 871,-71.5 922,-71.5 922,-90.5"/>
<text text-anchor="middle" x="896.5" y="-78.5" font-family="Helvetica,sans-Serif" font-size="10.00">csignal</text>
</a>
</g>
</g>
<!-- Node4&#45;&gt;Node5 -->
<g id="edge4_Node000004_Node000005" class="edge">
<title>Node4&#45;&gt;Node5</title>
<g id="a_edge4_Node000004_Node000005"><a xlink:title=" ">
<path fill="none" stroke="#63b8ff" d="M688.26,-134.22C731.71,-127.01 802.28,-113.85 861.5,-96 863.38,-95.43 865.3,-94.81 867.22,-94.14"/>
<polygon fill="#63b8ff" stroke="#63b8ff" points="868.57,-97.38 876.73,-90.61 866.13,-90.82 868.57,-97.38"/>
</a>
</g>
</g>
<!-- Node6 -->
<g id="Node000006" class="node">
<title>Node6</title>
<g id="a_Node000006"><a xlink:title=" ">
<polygon fill="#e0e0e0" stroke="#999999" points="1146.5,-24.5 1114.5,-24.5 1114.5,-5.5 1146.5,-5.5 1146.5,-24.5"/>
<text text-anchor="middle" x="1130.5" y="-12.5" font-family="Helvetica,sans-Serif" font-size="10.00">list</text>
</a>
</g>
</g>
<!-- Node4&#45;&gt;Node6 -->
<g id="edge5_Node000004_Node000006" class="edge">
<title>Node4&#45;&gt;Node6</title>
<g id="a_edge5_Node000004_Node000006"><a xlink:title=" ">
<path fill="none" stroke="#63b8ff" d="M688.28,-140.25C781.06,-139.04 1004.88,-132.33 1069.5,-96 1094.66,-81.85 1112.76,-52.62 1122.43,-33.68"/>
<polygon fill="#63b8ff" stroke="#63b8ff" points="1125.61,-35.14 1126.82,-24.62 1119.31,-32.1 1125.61,-35.14"/>
</a>
</g>
</g>
<!-- Node7 -->
<g id="Node000007" class="node">
<title>Node7</title>
<g id="a_Node000007"><a xlink:title=" ">
<polygon fill="#e0e0e0" stroke="#999999" points="321.5,-24.5 283.5,-24.5 283.5,-5.5 321.5,-5.5 321.5,-24.5"/>
<text text-anchor="middle" x="302.5" y="-12.5" font-family="Helvetica,sans-Serif" font-size="10.00">map</text>
</a>
</g>
</g>
<!-- Node4&#45;&gt;Node7 -->
<g id="edge6_Node000004_Node000007" class="edge">
<title>Node4&#45;&gt;Node7</title>
<g id="a_edge6_Node000004_Node000007"><a xlink:title=" ">
<path fill="none" stroke="#63b8ff" d="M639.37,-131.96C621.5,-113.27 579.77,-70.12 571.5,-66 474.96,-17.91 434.56,-61.81 331.5,-30 330.24,-29.61 328.96,-29.17 327.68,-28.7"/>
<polygon fill="#63b8ff" stroke="#63b8ff" points="328.67,-25.32 318.11,-24.59 325.92,-31.75 328.67,-25.32"/>
</a>
</g>
</g>
<!-- Node8 -->
<g id="Node000008" class="node">
<title>Node8</title>
<g id="a_Node000008"><a xlink:title=" ">
<polygon fill="#e0e0e0" stroke="#999999" points="390.5,-24.5 340.5,-24.5 340.5,-5.5 390.5,-5.5 390.5,-24.5"/>
<text text-anchor="middle" x="365.5" y="-12.5" font-family="Helvetica,sans-Serif" font-size="10.00">atomic</text>
</a>
</g>
</g>
<!-- Node4&#45;&gt;Node8 -->
<g id="edge7_Node000004_Node000008" class="edge">
<title>Node4&#45;&gt;Node8</title>
<g id="a_edge7_Node000004_Node000008"><a xlink:title=" ">
<path fill="none" stroke="#63b8ff" d="M645.18,-131.94C640.43,-116.13 627.99,-82.45 604.5,-66 529.09,-13.18 489.04,-55.23 400.5,-30 398.56,-29.45 396.59,-28.83 394.61,-28.16"/>
<polygon fill="#63b8ff" stroke="#63b8ff" points="395.47,-24.75 384.87,-24.57 393.05,-31.32 395.47,-24.75"/>
</a>
</g>
</g>
<!-- Node9 -->
<g id="Node000009" class="node">
<title>Node9</title>
<g id="a_Node000009"><a xlink:title=" ">
<polygon fill="#e0e0e0" stroke="#999999" points="513,-24.5 410,-24.5 410,-5.5 513,-5.5 513,-24.5"/>
<text text-anchor="middle" x="461.5" y="-12.5" font-family="Helvetica,sans-Serif" font-size="10.00">glibmm/threads.h</text>
</a>
</g>
</g>
<!-- Node4&#45;&gt;Node9 -->
<g id="edge8_Node000004_Node000009" class="edge">
<title>Node4&#45;&gt;Node9</title>
<g id="a_edge8_Node000004_Node000009"><a xlink:title=" ">
<path fill="none" stroke="#63b8ff" d="M649.89,-131.52C653.38,-116.21 657.9,-84.89 642.5,-66 638.08,-60.59 558.4,-40 506.24,-26.99"/>
<polygon fill="#63b8ff" stroke="#63b8ff" points="507.08,-23.59 496.53,-24.57 505.39,-30.38 507.08,-23.59"/>
</a>
</g>
</g>
<!-- Node10 -->
<g id="Node000010" class="node">
<title>Node10</title>
<g id="a_Node000010"><a xlink:title=" ">
<polygon fill="#e0e0e0" stroke="#999999" points="352.5,-90.5 226.5,-90.5 226.5,-71.5 352.5,-71.5 352.5,-90.5"/>
<text text-anchor="middle" x="289.5" y="-78.5" font-family="Helvetica,sans-Serif" font-size="10.00">boost/bind/protect.hpp</text>
</a>
</g>
</g>
<!-- Node4&#45;&gt;Node10 -->
<g id="edge9_Node000004_Node000010" class="edge">
<title>Node4&#45;&gt;Node10</title>
<g id="a_edge9_Node000004_Node000010"><a xlink:title=" ">
<path fill="none" stroke="#63b8ff" d="M606.69,-134.64C551.13,-126.56 448.62,-111.24 361.5,-96 355.24,-94.91 348.69,-93.71 342.2,-92.48"/>
<polygon fill="#63b8ff" stroke="#63b8ff" points="342.57,-88.99 332.09,-90.56 341.26,-95.87 342.57,-88.99"/>
</a>
</g>
</g>
<!-- Node11 -->
<g id="Node000011" class="node">
<title>Node11</title>
<g id="a_Node000011"><a xlink:title=" ">
<polygon fill="#e0e0e0" stroke="#999999" points="488.5,-96 370.5,-96 370.5,-66 488.5,-66 488.5,-96"/>
<text text-anchor="start" x="378.5" y="-84" font-family="Helvetica,sans-Serif" font-size="10.00">boost/enable_shared</text>
<text text-anchor="middle" x="429.5" y="-73" font-family="Helvetica,sans-Serif" font-size="10.00">_from_this.hpp</text>
</a>
</g>
</g>
<!-- Node4&#45;&gt;Node11 -->
<g id="edge10_Node000004_Node000011" class="edge">
<title>Node4&#45;&gt;Node11</title>
<g id="a_edge10_Node000004_Node000011"><a xlink:title=" ">
<path fill="none" stroke="#63b8ff" d="M615.8,-131.99C583.4,-123.3 532.22,-109.57 491.7,-98.69"/>
<polygon fill="#63b8ff" stroke="#63b8ff" points="492.48,-95.28 481.91,-96.06 490.66,-102.04 492.48,-95.28"/>
</a>
</g>
</g>
<!-- Node12 -->
<g id="Node000012" class="node">
<title>Node12</title>
<g id="a_Node000012"><a xlink:title=" ">
<polygon fill="#e0e0e0" stroke="#999999" points="562.5,-90.5 506.5,-90.5 506.5,-71.5 562.5,-71.5 562.5,-90.5"/>
<text text-anchor="middle" x="534.5" y="-78.5" font-family="Helvetica,sans-Serif" font-size="10.00">optional</text>
</a>
</g>
</g>
<!-- Node4&#45;&gt;Node12 -->
<g id="edge11_Node000004_Node000012" class="edge">
<title>Node4&#45;&gt;Node12</title>
<g id="a_edge11_Node000004_Node000012"><a xlink:title=" ">
<path fill="none" stroke="#63b8ff" d="M630.83,-131.87C612.22,-122.23 581.88,-106.53 560.22,-95.31"/>
<polygon fill="#63b8ff" stroke="#63b8ff" points="561.73,-92.16 551.24,-90.67 558.51,-98.37 561.73,-92.16"/>
</a>
</g>
</g>
<!-- Node13 -->
<g id="Node000013" class="node">
<title>Node13</title>
<g id="a_Node000013"><a xlink:href="libpbd__visibility_8h.html" target="_top" xlink:title=" ">
<polygon fill="white" stroke="#666666" points="653.5,-24.5 531.5,-24.5 531.5,-5.5 653.5,-5.5 653.5,-24.5"/>
<text text-anchor="middle" x="592.5" y="-12.5" font-family="Helvetica,sans-Serif" font-size="10.00">pbd/libpbd_visibility.h</text>
</a>
</g>
</g>
<!-- Node4&#45;&gt;Node13 -->
<g id="edge12_Node000004_Node000013" class="edge">
<title>Node4&#45;&gt;Node13</title>
<g id="a_edge12_Node000004_Node000013"><a xlink:title=" ">
<path fill="none" stroke="#63b8ff" d="M656.52,-131.94C670.32,-117.76 693.73,-88.74 680.5,-66 670.13,-48.19 650.8,-36.2 632.88,-28.44"/>
<polygon fill="#63b8ff" stroke="#63b8ff" points="633.73,-25.01 623.14,-24.56 631.13,-31.51 633.73,-25.01"/>
</a>
</g>
</g>
<!-- Node14 -->
<g id="Node000014" class="node">
<title>Node14</title>
<g id="a_Node000014"><a xlink:href="event__loop_8h.html" target="_top" xlink:title=" ">
<polygon fill="white" stroke="#666666" points="208,-90.5 107,-90.5 107,-71.5 208,-71.5 208,-90.5"/>
<text text-anchor="middle" x="157.5" y="-78.5" font-family="Helvetica,sans-Serif" font-size="10.00">pbd/event_loop.h</text>
</a>
</g>
</g>
<!-- Node4&#45;&gt;Node14 -->
<g id="edge13_Node000004_Node000014" class="edge">
<title>Node4&#45;&gt;Node14</title>
<g id="a_edge13_Node000004_Node000014"><a xlink:title=" ">
<path fill="none" stroke="#63b8ff" d="M606.96,-138.02C530.43,-132.95 359.61,-119.84 217.5,-96 212.03,-95.08 206.31,-93.96 200.67,-92.76"/>
<polygon fill="#63b8ff" stroke="#63b8ff" points="201.19,-89.29 190.67,-90.53 199.67,-96.12 201.19,-89.29"/>
</a>
</g>
</g>
<!-- Node17 -->
<g id="Node000017" class="node">
<title>Node17</title>
<g id="a_Node000017"><a xlink:href="stack__allocator_8h.html" target="_top" xlink:title=" ">
<polygon fill="white" stroke="#666666" points="852.5,-90.5 732.5,-90.5 732.5,-71.5 852.5,-71.5 852.5,-90.5"/>
<text text-anchor="middle" x="792.5" y="-78.5" font-family="Helvetica,sans-Serif" font-size="10.00">pbd/stack_allocator.h</text>
</a>
</g>
</g>
<!-- Node4&#45;&gt;Node17 -->
<g id="edge22_Node000004_Node000017" class="edge">
<title>Node4&#45;&gt;Node17</title>
<g id="a_edge22_Node000004_Node000017"><a xlink:title=" ">
<path fill="none" stroke="#63b8ff" d="M668.58,-131.99C693.18,-122.07 734.03,-105.59 762.06,-94.28"/>
<polygon fill="#63b8ff" stroke="#63b8ff" points="763.43,-97.5 771.39,-90.52 760.81,-91.01 763.43,-97.5"/>
</a>
</g>
</g>
<!-- Node20 -->
<g id="Node000020" class="node">
<title>Node20</title>
<g id="a_Node000020"><a xlink:href="stacktrace_8h.html" target="_top" xlink:title=" ">
<polygon fill="white" stroke="#666666" points="1038.5,-90.5 940.5,-90.5 940.5,-71.5 1038.5,-71.5 1038.5,-90.5"/>
<text text-anchor="middle" x="989.5" y="-78.5" font-family="Helvetica,sans-Serif" font-size="10.00">pbd/stacktrace.h</text>
</a>
</g>
</g>
<!-- Node4&#45;&gt;Node20 -->
<g id="edge26_Node000004_Node000020" class="edge">
<title>Node4&#45;&gt;Node20</title>
<g id="a_edge26_Node000004_Node000020"><a xlink:title=" ">
<path fill="none" stroke="#63b8ff" d="M688.45,-135.07C743.64,-127.52 844.86,-112.87 930.5,-96 935.47,-95.02 940.66,-93.91 945.81,-92.76"/>
<polygon fill="#63b8ff" stroke="#63b8ff" points="946.63,-96.17 955.59,-90.52 945.06,-89.34 946.63,-96.17"/>
</a>
</g>
</g>
<!-- Node22 -->
<g id="Node000022" class="node">
<title>Node22</title>
<g id="a_Node000022"><a xlink:title=" ">
<polygon fill="#e0e0e0" stroke="#999999" points="1096.5,-24.5 1036.5,-24.5 1036.5,-5.5 1096.5,-5.5 1096.5,-24.5"/>
<text text-anchor="middle" x="1066.5" y="-12.5" font-family="Helvetica,sans-Serif" font-size="10.00">iostream</text>
</a>
</g>
</g>
<!-- Node4&#45;&gt;Node22 -->
<g id="edge33_Node000004_Node000022" class="edge">
<title>Node4&#45;&gt;Node22</title>
<g id="a_edge33_Node000004_Node000022"><a xlink:title=" ">
<path fill="none" stroke="#63b8ff" d="M688.06,-138.61C784.4,-133.74 1020.91,-119.52 1047.5,-96 1064.68,-80.81 1067.78,-53.17 1067.7,-34.7"/>
<polygon fill="#63b8ff" stroke="#63b8ff" points="1071.2,-34.45 1067.35,-24.58 1064.2,-34.69 1071.2,-34.45"/>
</a>
</g>
</g>
<!-- Node14&#45;&gt;Node2 -->
<g id="edge18_Node000014_Node000002" class="edge">
<title>Node14&#45;&gt;Node2</title>
<g id="a_edge18_Node000014_Node000002"><a xlink:title=" ">
<path fill="none" stroke="#63b8ff" d="M139.83,-71.37C117.66,-60.54 79.42,-41.85 53.55,-29.22"/>
<polygon fill="#63b8ff" stroke="#63b8ff" points="54.83,-25.94 44.31,-24.7 51.75,-32.23 54.83,-25.94"/>
</a>
</g>
</g>
<!-- Node14&#45;&gt;Node3 -->
<g id="edge16_Node000014_Node000003" class="edge">
<title>Node14&#45;&gt;Node3</title>
<g id="a_edge16_Node000014_Node000003"><a xlink:title=" ">
<path fill="none" stroke="#63b8ff" d="M149,-71.37C139.2,-61.4 122.84,-44.79 110.61,-32.36"/>
<polygon fill="#63b8ff" stroke="#63b8ff" points="112.78,-29.58 103.27,-24.91 107.79,-34.49 112.78,-29.58"/>
</a>
</g>
</g>
<!-- Node14&#45;&gt;Node7 -->
<g id="edge17_Node000014_Node000007" class="edge">
<title>Node14&#45;&gt;Node7</title>
<g id="a_edge17_Node000014_Node000007"><a xlink:title=" ">
<path fill="none" stroke="#63b8ff" d="M177.06,-71.37C201.95,-60.38 245.15,-41.31 273.79,-28.67"/>
<polygon fill="#63b8ff" stroke="#63b8ff" points="275.52,-31.73 283.25,-24.49 272.69,-25.33 275.52,-31.73"/>
</a>
</g>
</g>
<!-- Node14&#45;&gt;Node8 -->
<g id="edge14_Node000014_Node000008" class="edge">
<title>Node14&#45;&gt;Node8</title>
<g id="a_edge14_Node000014_Node000008"><a xlink:title=" ">
<path fill="none" stroke="#63b8ff" d="M190.65,-71.47C225.7,-62.2 282.45,-46.51 330.5,-30 332.12,-29.44 333.77,-28.86 335.43,-28.25"/>
<polygon fill="#63b8ff" stroke="#63b8ff" points="336.81,-31.47 344.9,-24.63 334.31,-24.93 336.81,-31.47"/>
</a>
</g>
</g>
<!-- Node14&#45;&gt;Node9 -->
<g id="edge20_Node000014_Node000009" class="edge">
<title>Node14&#45;&gt;Node9</title>
<g id="a_edge20_Node000014_Node000009"><a xlink:title=" ">
<path fill="none" stroke="#63b8ff" d="M193.31,-71.44C201.26,-69.59 209.66,-67.69 217.5,-66 298.11,-48.63 318.83,-47.08 399.5,-30 404.43,-28.96 409.58,-27.84 414.71,-26.71"/>
<polygon fill="#63b8ff" stroke="#63b8ff" points="415.49,-30.12 424.49,-24.53 413.97,-23.29 415.49,-30.12"/>
</a>
</g>
</g>
<!-- Node14&#45;&gt;Node13 -->
<g id="edge21_Node000014_Node000013" class="edge">
<title>Node14&#45;&gt;Node13</title>
<g id="a_edge21_Node000014_Node000013"><a xlink:title=" ">
<path fill="none" stroke="#63b8ff" d="M191,-71.49C199.6,-69.5 208.86,-67.51 217.5,-66 351.51,-42.51 387.1,-51.18 521.5,-30 528.17,-28.95 535.17,-27.72 542.07,-26.44"/>
<polygon fill="#63b8ff" stroke="#63b8ff" points="542.88,-29.85 552.05,-24.53 541.57,-22.97 542.88,-29.85"/>
</a>
</g>
</g>
<!-- Node15 -->
<g id="Node000015" class="node">
<title>Node15</title>
<g id="a_Node000015"><a xlink:title=" ">
<polygon fill="#e0e0e0" stroke="#999999" points="180.5,-24.5 136.5,-24.5 136.5,-5.5 180.5,-5.5 180.5,-24.5"/>
<text text-anchor="middle" x="158.5" y="-12.5" font-family="Helvetica,sans-Serif" font-size="10.00">string</text>
</a>
</g>
</g>
<!-- Node14&#45;&gt;Node15 -->
<g id="edge15_Node000014_Node000015" class="edge">
<title>Node14&#45;&gt;Node15</title>
<g id="a_edge15_Node000014_Node000015"><a xlink:title=" ">
<path fill="none" stroke="#63b8ff" d="M157.63,-71.37C157.78,-62.16 158.01,-47.29 158.2,-35.27"/>
<polygon fill="#63b8ff" stroke="#63b8ff" points="161.7,-34.96 158.36,-24.91 154.7,-34.85 161.7,-34.96"/>
</a>
</g>
</g>
<!-- Node16 -->
<g id="Node000016" class="node">
<title>Node16</title>
<g id="a_Node000016"><a xlink:title=" ">
<polygon fill="#e0e0e0" stroke="#999999" points="262,-24.5 199,-24.5 199,-5.5 262,-5.5 262,-24.5"/>
<text text-anchor="middle" x="230.5" y="-12.5" font-family="Helvetica,sans-Serif" font-size="10.00">pthread.h</text>
</a>
</g>
</g>
<!-- Node14&#45;&gt;Node16 -->
<g id="edge19_Node000014_Node000016" class="edge">
<title>Node14&#45;&gt;Node16</title>
<g id="a_edge19_Node000014_Node000016"><a xlink:title=" ">
<path fill="none" stroke="#63b8ff" d="M167.35,-71.37C178.93,-61.21 198.38,-44.16 212.64,-31.65"/>
<polygon fill="#63b8ff" stroke="#63b8ff" points="215.13,-34.13 220.34,-24.91 210.52,-28.87 215.13,-34.13"/>
</a>
</g>
</g>
<!-- Node17&#45;&gt;Node13 -->
<g id="edge25_Node000017_Node000013" class="edge">
<title>Node17&#45;&gt;Node13</title>
<g id="a_edge25_Node000017_Node000013"><a xlink:title=" ">
<path fill="none" stroke="#63b8ff" d="M765.53,-71.37C730.31,-60.1 668.54,-40.33 629.12,-27.72"/>
<polygon fill="#63b8ff" stroke="#63b8ff" points="629.96,-24.31 619.36,-24.6 627.82,-30.98 629.96,-24.31"/>
</a>
</g>
</g>
<!-- Node18 -->
<g id="Node000018" class="node">
<title>Node18</title>
<g id="a_Node000018"><a xlink:title=" ">
<polygon fill="#e0e0e0" stroke="#999999" points="809.5,-30 671.5,-30 671.5,0 809.5,0 809.5,-30"/>
<text text-anchor="start" x="679.5" y="-18" font-family="Helvetica,sans-Serif" font-size="10.00">boost/type_traits/aligned</text>
<text text-anchor="middle" x="740.5" y="-7" font-family="Helvetica,sans-Serif" font-size="10.00">_storage.hpp</text>
</a>
</g>
</g>
<!-- Node17&#45;&gt;Node18 -->
<g id="edge23_Node000017_Node000018" class="edge">
<title>Node17&#45;&gt;Node18</title>
<g id="a_edge23_Node000017_Node000018"><a xlink:title=" ">
<path fill="none" stroke="#63b8ff" d="M785.49,-71.37C778.62,-62.91 767.86,-49.67 758.58,-38.25"/>
<polygon fill="#63b8ff" stroke="#63b8ff" points="761.19,-35.91 752.17,-30.36 755.76,-40.33 761.19,-35.91"/>
</a>
</g>
</g>
<!-- Node19 -->
<g id="Node000019" class="node">
<title>Node19</title>
<g id="a_Node000019"><a xlink:title=" ">
<polygon fill="#e0e0e0" stroke="#999999" points="871.5,-24.5 827.5,-24.5 827.5,-5.5 871.5,-5.5 871.5,-24.5"/>
<text text-anchor="middle" x="849.5" y="-12.5" font-family="Helvetica,sans-Serif" font-size="10.00">limits</text>
</a>
</g>
</g>
<!-- Node17&#45;&gt;Node19 -->
<g id="edge24_Node000017_Node000019" class="edge">
<title>Node17&#45;&gt;Node19</title>
<g id="a_edge24_Node000017_Node000019"><a xlink:title=" ">
<path fill="none" stroke="#63b8ff" d="M800.19,-71.37C808.98,-61.5 823.57,-45.11 834.61,-32.72"/>
<polygon fill="#63b8ff" stroke="#63b8ff" points="837.53,-34.7 841.57,-24.91 832.3,-30.05 837.53,-34.7"/>
</a>
</g>
</g>
<!-- Node20&#45;&gt;Node6 -->
<g id="edge31_Node000020_Node000006" class="edge">
<title>Node20&#45;&gt;Node6</title>
<g id="a_edge31_Node000020_Node000006"><a xlink:title=" ">
<path fill="none" stroke="#63b8ff" d="M1011.18,-71.44C1034.72,-61.97 1073.25,-45.93 1105.5,-30 1105.92,-29.79 1106.35,-29.58 1106.78,-29.36"/>
<polygon fill="#63b8ff" stroke="#63b8ff" points="1108.64,-32.33 1115.83,-24.55 1105.36,-26.15 1108.64,-32.33"/>
</a>
</g>
</g>
<!-- Node20&#45;&gt;Node9 -->
<g id="edge30_Node000020_Node000009" class="edge">
<title>Node20&#45;&gt;Node9</title>
<g id="a_edge30_Node000020_Node000009"><a xlink:title=" ">
<path fill="none" stroke="#63b8ff" d="M957.21,-71.45C948.58,-69.41 939.23,-67.41 930.5,-66 750.8,-36.91 702.3,-58.43 522.5,-30 516.72,-29.09 510.68,-27.94 504.74,-26.7"/>
<polygon fill="#63b8ff" stroke="#63b8ff" points="505.42,-23.26 494.9,-24.54 503.92,-30.1 505.42,-23.26"/>
</a>
</g>
</g>
<!-- Node20&#45;&gt;Node13 -->
<g id="edge32_Node000020_Node000013" class="edge">
<title>Node20&#45;&gt;Node13</title>
<g id="a_edge32_Node000020_Node000013"><a xlink:title=" ">
<path fill="none" stroke="#63b8ff" d="M956.24,-71.5C947.87,-69.53 938.88,-67.55 930.5,-66 812.33,-44.1 781.04,-49.79 662.5,-30 656.16,-28.94 649.52,-27.74 642.96,-26.49"/>
<polygon fill="#63b8ff" stroke="#63b8ff" points="643.25,-22.98 632.77,-24.51 641.92,-29.85 643.25,-22.98"/>
</a>
</g>
</g>
<!-- Node21 -->
<g id="Node000021" class="node">
<title>Node21</title>
<g id="a_Node000021"><a xlink:title=" ">
<polygon fill="#e0e0e0" stroke="#999999" points="1018,-24.5 965,-24.5 965,-5.5 1018,-5.5 1018,-24.5"/>
<text text-anchor="middle" x="991.5" y="-12.5" font-family="Helvetica,sans-Serif" font-size="10.00">cstddef</text>
</a>
</g>
</g>
<!-- Node20&#45;&gt;Node21 -->
<g id="edge27_Node000020_Node000021" class="edge">
<title>Node20&#45;&gt;Node21</title>
<g id="a_edge27_Node000020_Node000021"><a xlink:title=" ">
<path fill="none" stroke="#63b8ff" d="M989.77,-71.37C990.06,-62.16 990.52,-47.29 990.9,-35.27"/>
<polygon fill="#63b8ff" stroke="#63b8ff" points="994.41,-35.01 991.22,-24.91 987.41,-34.79 994.41,-35.01"/>
</a>
</g>
</g>
<!-- Node20&#45;&gt;Node22 -->
<g id="edge28_Node000020_Node000022" class="edge">
<title>Node20&#45;&gt;Node22</title>
<g id="a_edge28_Node000020_Node000022"><a xlink:title=" ">
<path fill="none" stroke="#63b8ff" d="M999.88,-71.37C1012.22,-61.12 1033.01,-43.84 1048.09,-31.31"/>
<polygon fill="#63b8ff" stroke="#63b8ff" points="1050.33,-33.99 1055.79,-24.91 1045.86,-28.61 1050.33,-33.99"/>
</a>
</g>
</g>
<!-- Node23 -->
<g id="Node000023" class="node">
<title>Node23</title>
<g id="a_Node000023"><a xlink:title=" ">
<polygon fill="#e0e0e0" stroke="#999999" points="947,-24.5 890,-24.5 890,-5.5 947,-5.5 947,-24.5"/>
<text text-anchor="middle" x="918.5" y="-12.5" font-family="Helvetica,sans-Serif" font-size="10.00">ostream</text>
</a>
</g>
</g>
<!-- Node20&#45;&gt;Node23 -->
<g id="edge29_Node000020_Node000023" class="edge">
<title>Node20&#45;&gt;Node23</title>
<g id="a_edge29_Node000020_Node000023"><a xlink:title=" ">
<path fill="none" stroke="#63b8ff" d="M979.92,-71.37C968.66,-61.21 949.74,-44.16 935.87,-31.65"/>
<polygon fill="#63b8ff" stroke="#63b8ff" points="938.15,-29 928.38,-24.91 933.46,-34.2 938.15,-29"/>
</a>
</g>
</g>
</g>
</svg>

<g id="navigator" transform="translate(0 0)" fill="#404254">
  <rect fill="#f2f5e9" fill-opacity="0.5" stroke="#606060" stroke-width=".5" x="0" y="0" width="60" height="60"/>
  <use id="zoomplus" xlink:href="#zoomPlus" x="17" y="9" onmousedown="handleZoom(evt,'in')"/>
  <use id="zoomminus" xlink:href="#zoomMin" x="42" y="9" onmousedown="handleZoom(evt,'out')"/>
  <use id="reset" xlink:href="#resetDef" x="30" y="36" onmousedown="handleReset()"/>
   <use id="arrowup" xlink:href="#arrowUp" x="0" y="0" onmousedown="handlePan(0,-1)"/>
  <use id="arrowright" xlink:href="#arrowRight" x="0" y="0" onmousedown="handlePan(1,0)"/>
  <use id="arrowdown" xlink:href="#arrowDown" x="0" y="0" onmousedown="handlePan(0,1)"/>
  <use id="arrowleft" xlink:href="#arrowLeft" x="0" y="0" onmousedown="handlePan(-1,0)"/>
</g>
<svg viewBox="0 0 15 15" width="100%" height="30px" preserveAspectRatio="xMaxYMin meet">
 <g id="arrow_out" transform="scale(0.3 0.3)">
  <a xlink:href="fp8__base_8h__incl_org.svg" target="_base">
   <rect id="button" ry="5" rx="5" y="6" x="6" height="38" width="38"
        fill="#f2f5e9" fill-opacity="0.5" stroke="#606060" stroke-width="1.0"/>
   <path id="arrow"
     d="M 11.500037,31.436501 C 11.940474,20.09759 22.043105,11.32322 32.158766,21.979434 L 37.068811,17.246167 C 37.068811,17.246167 37.088388,32 37.088388,32 L 22.160133,31.978069 C 22.160133,31.978069 26.997745,27.140456 26.997745,27.140456 C 18.528582,18.264221 13.291696,25.230495 11.500037,31.436501 z"
     style="fill:#404040;"/>
  </a>
 </g>
</svg>

<style type='text/css'>
<![CDATA[
[data-mouse-over-selected='false'] { opacity: 0.7; }
[data-mouse-over-selected='true']  { opacity: 1.0; }
]]>
</style>
<script type="application/ecmascript"><![CDATA[
document.addEventListener('DOMContentLoaded', (event) => {
  highlightEdges();
  highlightAdjacentNodes();
});
]]></script>
</svg>
