<?xml version="1.0" encoding="UTF-8" standalone="no"?>
<!DOCTYPE svg PUBLIC "-//W3C//DTD SVG 1.1//EN"
 "http://www.w3.org/Graphics/SVG/1.1/DTD/svg11.dtd">
<!-- Generated by graphviz version 2.43.0 (0)
 -->
<!-- Title: gdkdrawable.h Pages: 1 -->
<svg width="492pt" height="247pt"
 viewBox="0.00 0.00 491.50 247.00" xmlns="http://www.w3.org/2000/svg" xmlns:xlink="http://www.w3.org/1999/xlink">

<svg id="main" version="1.1" xmlns="http://www.w3.org/2000/svg" xmlns:xlink="http://www.w3.org/1999/xlink" xml:space="preserve" onload="init(evt)">
<style type="text/css"><![CDATA[
.node, .edge {opacity: 0.7;}
.node.selected, .edge.selected {opacity: 1;}
.edge:hover path { stroke: red; }
.edge:hover polygon { stroke: red; fill: red; }
]]></style>
<script type="application/ecmascript" xlink:href="svg.min.js"/>
<svg id="graph" class="graph">
<g id="graph0" class="graph" transform="scale(1 1) rotate(0) translate(4 243)">
<title>gdkdrawable.h</title>
<!-- Node1 -->
<g id="Node000001" class="node">
<title>Node1</title>
<g id="a_Node000001"><a xlink:title=" ">
<polygon fill="#999999" stroke="#666666" points="258.5,-239 169.5,-239 169.5,-220 258.5,-220 258.5,-239"/>
<text text-anchor="middle" x="214" y="-227" font-family="Helvetica,sans-Serif" font-size="10.00">gdkdrawable.h</text>
</a>
</g>
</g>
<!-- Node2 -->
<g id="Node000002" class="node">
<title>Node2</title>
<g id="a_Node000002"><a xlink:href="gdktypes_8h.html" target="_top" xlink:title=" ">
<polygon fill="white" stroke="#666666" points="203,-74 111,-74 111,-55 203,-55 203,-74"/>
<text text-anchor="middle" x="157" y="-62" font-family="Helvetica,sans-Serif" font-size="10.00">ydk/gdktypes.h</text>
</a>
</g>
</g>
<!-- Node1&#45;&gt;Node2 -->
<g id="edge1_Node000001_Node000002" class="edge">
<title>Node1&#45;&gt;Node2</title>
<g id="a_edge1_Node000001_Node000002"><a xlink:title=" ">
<path fill="none" stroke="#63b8ff" d="M186.59,-219.91C150.24,-206.85 87.59,-178.2 61,-129 47.45,-103.94 78.77,-87.1 109.18,-77.09"/>
<polygon fill="#63b8ff" stroke="#63b8ff" points="110.44,-80.37 118.97,-74.08 108.38,-73.68 110.44,-80.37"/>
</a>
</g>
</g>
<!-- Node7 -->
<g id="Node000007" class="node">
<title>Node7</title>
<g id="a_Node000007"><a xlink:href="gdkgc_8h.html" target="_top" xlink:title=" ">
<polygon fill="white" stroke="#666666" points="252,-184 176,-184 176,-165 252,-165 252,-184"/>
<text text-anchor="middle" x="214" y="-172" font-family="Helvetica,sans-Serif" font-size="10.00">ydk/gdkgc.h</text>
</a>
</g>
</g>
<!-- Node1&#45;&gt;Node7 -->
<g id="edge6_Node000001_Node000007" class="edge">
<title>Node1&#45;&gt;Node7</title>
<g id="a_edge6_Node000001_Node000007"><a xlink:title=" ">
<path fill="none" stroke="#63b8ff" d="M214,-219.75C214,-212.8 214,-202.85 214,-194.13"/>
<polygon fill="#63b8ff" stroke="#63b8ff" points="217.5,-194.09 214,-184.09 210.5,-194.09 217.5,-194.09"/>
</a>
</g>
</g>
<!-- Node9 -->
<g id="Node000009" class="node">
<title>Node9</title>
<g id="a_Node000009"><a xlink:title=" ">
<polygon fill="#e0e0e0" stroke="#999999" points="296,-74 246,-74 246,-55 296,-55 296,-74"/>
<text text-anchor="middle" x="271" y="-62" font-family="Helvetica,sans-Serif" font-size="10.00">cairo.h</text>
</a>
</g>
</g>
<!-- Node1&#45;&gt;Node9 -->
<g id="edge14_Node000001_Node000009" class="edge">
<title>Node1&#45;&gt;Node9</title>
<g id="a_edge14_Node000001_Node000009"><a xlink:title=" ">
<path fill="none" stroke="#63b8ff" d="M226.55,-219.91C247.59,-204.59 289.04,-170.28 303,-129 308.66,-112.28 298.01,-94.42 287.51,-81.92"/>
<polygon fill="#63b8ff" stroke="#63b8ff" points="289.79,-79.23 280.46,-74.2 284.62,-83.94 289.79,-79.23"/>
</a>
</g>
</g>
<!-- Node10 -->
<g id="Node000010" class="node">
<title>Node10</title>
<g id="a_Node000010"><a xlink:href="gdkrgb_8h.html" target="_top" xlink:title=" ">
<polygon fill="white" stroke="#666666" points="150,-129 70,-129 70,-110 150,-110 150,-129"/>
<text text-anchor="middle" x="110" y="-117" font-family="Helvetica,sans-Serif" font-size="10.00">ydk/gdkrgb.h</text>
</a>
</g>
</g>
<!-- Node1&#45;&gt;Node10 -->
<g id="edge11_Node000001_Node000010" class="edge">
<title>Node1&#45;&gt;Node10</title>
<g id="a_edge11_Node000001_Node000010"><a xlink:title=" ">
<path fill="none" stroke="#63b8ff" d="M204.42,-219.85C194.77,-211.04 179.54,-196.88 167,-184 151.91,-168.5 135.49,-150.03 124.17,-137.01"/>
<polygon fill="#63b8ff" stroke="#63b8ff" points="126.72,-134.61 117.53,-129.33 121.42,-139.18 126.72,-134.61"/>
</a>
</g>
</g>
<!-- Node11 -->
<g id="Node000011" class="node">
<title>Node11</title>
<g id="a_Node000011"><a xlink:title=" ">
<polygon fill="#e0e0e0" stroke="#999999" points="483.5,-184 350.5,-184 350.5,-165 483.5,-165 483.5,-184"/>
<text text-anchor="middle" x="417" y="-172" font-family="Helvetica,sans-Serif" font-size="10.00">ydk&#45;pixbuf/ydk&#45;pixbuf.h</text>
</a>
</g>
</g>
<!-- Node1&#45;&gt;Node11 -->
<g id="edge13_Node000001_Node000011" class="edge">
<title>Node1&#45;&gt;Node11</title>
<g id="a_edge13_Node000001_Node000011"><a xlink:title=" ">
<path fill="none" stroke="#63b8ff" d="M246.62,-219.98C281.29,-210.93 336.26,-196.58 374.35,-186.64"/>
<polygon fill="#63b8ff" stroke="#63b8ff" points="375.34,-189.99 384.13,-184.08 373.57,-183.22 375.34,-189.99"/>
</a>
</g>
</g>
<!-- Node3 -->
<g id="Node000003" class="node">
<title>Node3</title>
<g id="a_Node000003"><a xlink:title=" ">
<polygon fill="#e0e0e0" stroke="#999999" points="44,-19 0,-19 0,0 44,0 44,-19"/>
<text text-anchor="middle" x="22" y="-7" font-family="Helvetica,sans-Serif" font-size="10.00">glib.h</text>
</a>
</g>
</g>
<!-- Node2&#45;&gt;Node3 -->
<g id="edge2_Node000002_Node000003" class="edge">
<title>Node2&#45;&gt;Node3</title>
<g id="a_edge2_Node000002_Node000003"><a xlink:title=" ">
<path fill="none" stroke="#63b8ff" d="M135.31,-54.98C113.2,-46.3 78.68,-32.75 53.55,-22.88"/>
<polygon fill="#63b8ff" stroke="#63b8ff" points="54.67,-19.57 44.08,-19.17 52.11,-26.08 54.67,-19.57"/>
</a>
</g>
</g>
<!-- Node4 -->
<g id="Node000004" class="node">
<title>Node4</title>
<g id="a_Node000004"><a xlink:title=" ">
<polygon fill="#e0e0e0" stroke="#999999" points="151.5,-19 62.5,-19 62.5,0 151.5,0 151.5,-19"/>
<text text-anchor="middle" x="107" y="-7" font-family="Helvetica,sans-Serif" font-size="10.00">pango/pango.h</text>
</a>
</g>
</g>
<!-- Node2&#45;&gt;Node4 -->
<g id="edge3_Node000002_Node000004" class="edge">
<title>Node2&#45;&gt;Node4</title>
<g id="a_edge3_Node000002_Node000004"><a xlink:title=" ">
<path fill="none" stroke="#63b8ff" d="M148.74,-54.75C141.54,-47.11 130.89,-35.82 122.15,-26.56"/>
<polygon fill="#63b8ff" stroke="#63b8ff" points="124.51,-23.96 115.1,-19.09 119.42,-28.76 124.51,-23.96"/>
</a>
</g>
</g>
<!-- Node5 -->
<g id="Node000005" class="node">
<title>Node5</title>
<g id="a_Node000005"><a xlink:title=" ">
<polygon fill="#e0e0e0" stroke="#999999" points="246.5,-19 169.5,-19 169.5,0 246.5,0 246.5,-19"/>
<text text-anchor="middle" x="208" y="-7" font-family="Helvetica,sans-Serif" font-size="10.00">glib&#45;object.h</text>
</a>
</g>
</g>
<!-- Node2&#45;&gt;Node5 -->
<g id="edge4_Node000002_Node000005" class="edge">
<title>Node2&#45;&gt;Node5</title>
<g id="a_edge4_Node000002_Node000005"><a xlink:title=" ">
<path fill="none" stroke="#63b8ff" d="M165.42,-54.75C172.77,-47.11 183.63,-35.82 192.54,-26.56"/>
<polygon fill="#63b8ff" stroke="#63b8ff" points="195.32,-28.72 199.74,-19.09 190.28,-23.87 195.32,-28.72"/>
</a>
</g>
</g>
<!-- Node6 -->
<g id="Node000006" class="node">
<title>Node6</title>
<g id="a_Node000006"><a xlink:title=" ">
<polygon fill="#e0e0e0" stroke="#999999" points="337.5,-19 264.5,-19 264.5,0 337.5,0 337.5,-19"/>
<text text-anchor="middle" x="301" y="-7" font-family="Helvetica,sans-Serif" font-size="10.00">gdkconfig.h</text>
</a>
</g>
</g>
<!-- Node2&#45;&gt;Node6 -->
<g id="edge5_Node000002_Node000006" class="edge">
<title>Node2&#45;&gt;Node6</title>
<g id="a_edge5_Node000002_Node000006"><a xlink:title=" ">
<path fill="none" stroke="#63b8ff" d="M180.14,-54.98C203.82,-46.27 240.87,-32.63 267.71,-22.75"/>
<polygon fill="#63b8ff" stroke="#63b8ff" points="269.27,-25.91 277.44,-19.17 266.85,-19.34 269.27,-25.91"/>
</a>
</g>
</g>
<!-- Node7&#45;&gt;Node2 -->
<g id="edge10_Node000007_Node000002" class="edge">
<title>Node7&#45;&gt;Node2</title>
<g id="a_edge10_Node000007_Node000002"><a xlink:title=" ">
<path fill="none" stroke="#63b8ff" d="M209.34,-164.66C199.94,-146.85 178.57,-106.37 166.24,-83.01"/>
<polygon fill="#63b8ff" stroke="#63b8ff" points="169.33,-81.37 161.57,-74.16 163.14,-84.64 169.33,-81.37"/>
</a>
</g>
</g>
<!-- Node8 -->
<g id="Node000008" class="node">
<title>Node8</title>
<g id="a_Node000008"><a xlink:href="gdkcolor_8h.html" target="_top" xlink:title=" ">
<polygon fill="white" stroke="#666666" points="294,-129 206,-129 206,-110 294,-110 294,-129"/>
<text text-anchor="middle" x="250" y="-117" font-family="Helvetica,sans-Serif" font-size="10.00">ydk/gdkcolor.h</text>
</a>
</g>
</g>
<!-- Node7&#45;&gt;Node8 -->
<g id="edge7_Node000007_Node000008" class="edge">
<title>Node7&#45;&gt;Node8</title>
<g id="a_edge7_Node000007_Node000008"><a xlink:title=" ">
<path fill="none" stroke="#63b8ff" d="M219.94,-164.75C224.98,-157.34 232.34,-146.5 238.51,-137.41"/>
<polygon fill="#63b8ff" stroke="#63b8ff" points="241.44,-139.33 244.17,-129.09 235.65,-135.39 241.44,-139.33"/>
</a>
</g>
</g>
<!-- Node8&#45;&gt;Node2 -->
<g id="edge9_Node000008_Node000002" class="edge">
<title>Node8&#45;&gt;Node2</title>
<g id="a_edge9_Node000008_Node000002"><a xlink:title=" ">
<path fill="none" stroke="#63b8ff" d="M235.06,-109.98C220.5,-101.69 198.13,-88.94 181.07,-79.22"/>
<polygon fill="#63b8ff" stroke="#63b8ff" points="182.64,-76.08 172.21,-74.17 179.17,-82.16 182.64,-76.08"/>
</a>
</g>
</g>
<!-- Node8&#45;&gt;Node9 -->
<g id="edge8_Node000008_Node000009" class="edge">
<title>Node8&#45;&gt;Node9</title>
<g id="a_edge8_Node000008_Node000009"><a xlink:title=" ">
<path fill="none" stroke="#63b8ff" d="M253.47,-109.75C256.28,-102.65 260.34,-92.4 263.85,-83.56"/>
<polygon fill="#63b8ff" stroke="#63b8ff" points="267.17,-84.68 267.6,-74.09 260.66,-82.1 267.17,-84.68"/>
</a>
</g>
</g>
<!-- Node10&#45;&gt;Node2 -->
<g id="edge12_Node000010_Node000002" class="edge">
<title>Node10&#45;&gt;Node2</title>
<g id="a_edge12_Node000010_Node000002"><a xlink:title=" ">
<path fill="none" stroke="#63b8ff" d="M117.76,-109.75C124.47,-102.18 134.34,-91.05 142.51,-81.84"/>
<polygon fill="#63b8ff" stroke="#63b8ff" points="145.37,-83.89 149.38,-74.09 140.13,-79.25 145.37,-83.89"/>
</a>
</g>
</g>
</g>
</svg>
</svg>

<style type='text/css'>
<![CDATA[
[data-mouse-over-selected='false'] { opacity: 0.7; }
[data-mouse-over-selected='true']  { opacity: 1.0; }
]]>
</style>
<script type="application/ecmascript"><![CDATA[
document.addEventListener('DOMContentLoaded', (event) => {
  highlightEdges();
  highlightAdjacentNodes();
});
]]></script>
</svg>
