<?xml version="1.0" encoding="UTF-8" standalone="no"?>
<!DOCTYPE svg PUBLIC "-//W3C//DTD SVG 1.1//EN"
 "http://www.w3.org/Graphics/SVG/1.1/DTD/svg11.dtd">
<!-- Generated by graphviz version 2.43.0 (0)
 -->
<!-- Title: gdkgc.h Pages: 1 -->
<svg width="346pt" height="192pt"
 viewBox="0.00 0.00 345.50 192.00" xmlns="http://www.w3.org/2000/svg" xmlns:xlink="http://www.w3.org/1999/xlink">
<g id="graph0" class="graph" transform="scale(1 1) rotate(0) translate(4 188)">
<title>gdkgc.h</title>
<!-- Node1 -->
<g id="Node000001" class="node">
<title>Node1</title>
<g id="a_Node000001"><a xlink:title=" ">
<polygon fill="#999999" stroke="#666666" points="148.5,-184 93.5,-184 93.5,-165 148.5,-165 148.5,-184"/>
<text text-anchor="middle" x="121" y="-172" font-family="Helvetica,sans-Serif" font-size="10.00">gdkgc.h</text>
</a>
</g>
</g>
<!-- Node2 -->
<g id="Node000002" class="node">
<title>Node2</title>
<g id="a_Node000002"><a xlink:href="gdkcolor_8h.html" target="_top" xlink:title=" ">
<polygon fill="white" stroke="#666666" points="129,-129 41,-129 41,-110 129,-110 129,-129"/>
<text text-anchor="middle" x="85" y="-117" font-family="Helvetica,sans-Serif" font-size="10.00">ydk/gdkcolor.h</text>
</a>
</g>
</g>
<!-- Node1&#45;&gt;Node2 -->
<g id="edge1_Node000001_Node000002" class="edge">
<title>Node1&#45;&gt;Node2</title>
<g id="a_edge1_Node000001_Node000002"><a xlink:title=" ">
<path fill="none" stroke="#63b8ff" d="M115.06,-164.75C110.02,-157.34 102.66,-146.5 96.49,-137.41"/>
<polygon fill="#63b8ff" stroke="#63b8ff" points="99.35,-135.39 90.83,-129.09 93.56,-139.33 99.35,-135.39"/>
</a>
</g>
</g>
<!-- Node4 -->
<g id="Node000004" class="node">
<title>Node4</title>
<g id="a_Node000004"><a xlink:href="gdktypes_8h.html" target="_top" xlink:title=" ">
<polygon fill="white" stroke="#666666" points="203,-74 111,-74 111,-55 203,-55 203,-74"/>
<text text-anchor="middle" x="157" y="-62" font-family="Helvetica,sans-Serif" font-size="10.00">ydk/gdktypes.h</text>
</a>
</g>
</g>
<!-- Node1&#45;&gt;Node4 -->
<g id="edge8_Node000001_Node000004" class="edge">
<title>Node1&#45;&gt;Node4</title>
<g id="a_edge8_Node000001_Node000004"><a xlink:title=" ">
<path fill="none" stroke="#63b8ff" d="M124.58,-164.71C128.16,-155.78 133.74,-141.53 138,-129 143.1,-114 148.21,-96.77 151.84,-84.05"/>
<polygon fill="#63b8ff" stroke="#63b8ff" points="155.28,-84.77 154.62,-74.19 148.54,-82.87 155.28,-84.77"/>
</a>
</g>
</g>
<!-- Node3 -->
<g id="Node000003" class="node">
<title>Node3</title>
<g id="a_Node000003"><a xlink:title=" ">
<polygon fill="#e0e0e0" stroke="#999999" points="93,-74 43,-74 43,-55 93,-55 93,-74"/>
<text text-anchor="middle" x="68" y="-62" font-family="Helvetica,sans-Serif" font-size="10.00">cairo.h</text>
</a>
</g>
</g>
<!-- Node2&#45;&gt;Node3 -->
<g id="edge2_Node000002_Node000003" class="edge">
<title>Node2&#45;&gt;Node3</title>
<g id="a_edge2_Node000002_Node000003"><a xlink:title=" ">
<path fill="none" stroke="#63b8ff" d="M82.19,-109.75C79.94,-102.72 76.7,-92.62 73.88,-83.84"/>
<polygon fill="#63b8ff" stroke="#63b8ff" points="77.14,-82.54 70.75,-74.09 70.48,-84.68 77.14,-82.54"/>
</a>
</g>
</g>
<!-- Node2&#45;&gt;Node4 -->
<g id="edge3_Node000002_Node000004" class="edge">
<title>Node2&#45;&gt;Node4</title>
<g id="a_edge3_Node000002_Node000004"><a xlink:title=" ">
<path fill="none" stroke="#63b8ff" d="M96.57,-109.98C107.42,-102 123.88,-89.88 136.88,-80.31"/>
<polygon fill="#63b8ff" stroke="#63b8ff" points="139.24,-82.92 145.22,-74.17 135.09,-77.28 139.24,-82.92"/>
</a>
</g>
</g>
<!-- Node5 -->
<g id="Node000005" class="node">
<title>Node5</title>
<g id="a_Node000005"><a xlink:title=" ">
<polygon fill="#e0e0e0" stroke="#999999" points="44,-19 0,-19 0,0 44,0 44,-19"/>
<text text-anchor="middle" x="22" y="-7" font-family="Helvetica,sans-Serif" font-size="10.00">glib.h</text>
</a>
</g>
</g>
<!-- Node4&#45;&gt;Node5 -->
<g id="edge4_Node000004_Node000005" class="edge">
<title>Node4&#45;&gt;Node5</title>
<g id="a_edge4_Node000004_Node000005"><a xlink:title=" ">
<path fill="none" stroke="#63b8ff" d="M135.31,-54.98C113.2,-46.3 78.68,-32.75 53.55,-22.88"/>
<polygon fill="#63b8ff" stroke="#63b8ff" points="54.67,-19.57 44.08,-19.17 52.11,-26.08 54.67,-19.57"/>
</a>
</g>
</g>
<!-- Node6 -->
<g id="Node000006" class="node">
<title>Node6</title>
<g id="a_Node000006"><a xlink:title=" ">
<polygon fill="#e0e0e0" stroke="#999999" points="151.5,-19 62.5,-19 62.5,0 151.5,0 151.5,-19"/>
<text text-anchor="middle" x="107" y="-7" font-family="Helvetica,sans-Serif" font-size="10.00">pango/pango.h</text>
</a>
</g>
</g>
<!-- Node4&#45;&gt;Node6 -->
<g id="edge5_Node000004_Node000006" class="edge">
<title>Node4&#45;&gt;Node6</title>
<g id="a_edge5_Node000004_Node000006"><a xlink:title=" ">
<path fill="none" stroke="#63b8ff" d="M148.74,-54.75C141.54,-47.11 130.89,-35.82 122.15,-26.56"/>
<polygon fill="#63b8ff" stroke="#63b8ff" points="124.51,-23.96 115.1,-19.09 119.42,-28.76 124.51,-23.96"/>
</a>
</g>
</g>
<!-- Node7 -->
<g id="Node000007" class="node">
<title>Node7</title>
<g id="a_Node000007"><a xlink:title=" ">
<polygon fill="#e0e0e0" stroke="#999999" points="246.5,-19 169.5,-19 169.5,0 246.5,0 246.5,-19"/>
<text text-anchor="middle" x="208" y="-7" font-family="Helvetica,sans-Serif" font-size="10.00">glib&#45;object.h</text>
</a>
</g>
</g>
<!-- Node4&#45;&gt;Node7 -->
<g id="edge6_Node000004_Node000007" class="edge">
<title>Node4&#45;&gt;Node7</title>
<g id="a_edge6_Node000004_Node000007"><a xlink:title=" ">
<path fill="none" stroke="#63b8ff" d="M165.42,-54.75C172.77,-47.11 183.63,-35.82 192.54,-26.56"/>
<polygon fill="#63b8ff" stroke="#63b8ff" points="195.32,-28.72 199.74,-19.09 190.28,-23.87 195.32,-28.72"/>
</a>
</g>
</g>
<!-- Node8 -->
<g id="Node000008" class="node">
<title>Node8</title>
<g id="a_Node000008"><a xlink:title=" ">
<polygon fill="#e0e0e0" stroke="#999999" points="337.5,-19 264.5,-19 264.5,0 337.5,0 337.5,-19"/>
<text text-anchor="middle" x="301" y="-7" font-family="Helvetica,sans-Serif" font-size="10.00">gdkconfig.h</text>
</a>
</g>
</g>
<!-- Node4&#45;&gt;Node8 -->
<g id="edge7_Node000004_Node000008" class="edge">
<title>Node4&#45;&gt;Node8</title>
<g id="a_edge7_Node000004_Node000008"><a xlink:title=" ">
<path fill="none" stroke="#63b8ff" d="M180.14,-54.98C203.82,-46.27 240.87,-32.63 267.71,-22.75"/>
<polygon fill="#63b8ff" stroke="#63b8ff" points="269.27,-25.91 277.44,-19.17 266.85,-19.34 269.27,-25.91"/>
</a>
</g>
</g>
</g>
</svg>
