<?xml version="1.0" encoding="UTF-8" standalone="no"?>
<!DOCTYPE svg PUBLIC "-//W3C//DTD SVG 1.1//EN"
 "http://www.w3.org/Graphics/SVG/1.1/DTD/svg11.dtd">
<!-- Generated by graphviz version 2.43.0 (0)
 -->
<!-- Title: TextView Classes Pages: 1 -->
<svg width="320pt" height="64pt"
 viewBox="0.00 0.00 320.00 64.00" xmlns="http://www.w3.org/2000/svg" xmlns:xlink="http://www.w3.org/1999/xlink">
<g id="graph0" class="graph" transform="scale(1 1) rotate(0) translate(4 60)">
<title>TextView Classes</title>
<!-- Node3 -->
<g id="Node000003" class="node">
<title>Node3</title>
<g id="a_Node000003"><a xlink:href="group__Containers.html" target="_top" xlink:title=" ">
<polygon fill="white" stroke="#666666" points="312,-56 205,-56 205,-37 312,-37 312,-56"/>
<text text-anchor="middle" x="258.5" y="-44" font-family="Helvetica,sans-Serif" font-size="10.00">Container Widgets</text>
</a>
</g>
</g>
<!-- Node1 -->
<g id="Node000001" class="node">
<title>Node1</title>
<g id="a_Node000001"><a xlink:title=" ">
<polygon fill="#999999" stroke="#666666" points="101,-37 0,-37 0,-18 101,-18 101,-37"/>
<text text-anchor="middle" x="50.5" y="-25" font-family="Helvetica,sans-Serif" font-size="10.00">TextView Classes</text>
</a>
</g>
</g>
<!-- Node1&#45;&gt;Node3 -->
<g id="edge2" class="edge">
<title>Node1&#45;&gt;Node3</title>
<path fill="none" stroke="orange" stroke-dasharray="5,2" d="M101.1,-32.08C132.42,-34.96 172.83,-38.69 204.73,-41.63"/>
<text text-anchor="middle" x="153" y="-42.5" font-family="Helvetica,sans-Serif" font-size="10.00">Gtk::TextView</text>
</g>
<!-- Node2 -->
<g id="Node000002" class="node">
<title>Node2</title>
<g id="a_Node000002"><a xlink:href="group__Widgets.html" target="_top" xlink:title=" ">
<polygon fill="white" stroke="#666666" points="286.5,-19 230.5,-19 230.5,0 286.5,0 286.5,-19"/>
<text text-anchor="middle" x="258.5" y="-7" font-family="Helvetica,sans-Serif" font-size="10.00">Widgets</text>
</a>
</g>
</g>
<!-- Node1&#45;&gt;Node2 -->
<g id="edge1" class="edge">
<title>Node1&#45;&gt;Node2</title>
<path fill="none" stroke="orange" stroke-dasharray="5,2" d="M91.64,-17.97C100.6,-16.18 110.08,-14.55 119,-13.5 157.47,-8.99 202.33,-8.57 230.33,-8.88"/>
<text text-anchor="middle" x="153" y="-16.5" font-family="Helvetica,sans-Serif" font-size="10.00">Gtk::TextView</text>
</g>
</g>
</svg>
