<?xml version="1.0" encoding="UTF-8" standalone="no"?>
<!DOCTYPE svg PUBLIC "-//W3C//DTD SVG 1.1//EN"
 "http://www.w3.org/Graphics/SVG/1.1/DTD/svg11.dtd">
<!-- Generated by graphviz version 2.43.0 (0)
 -->
<!-- Title: Widgets Pages: 1 -->
<!--zoomable 513 -->

<svg id="main" version="1.1" xmlns="http://www.w3.org/2000/svg" xmlns:xlink="http://www.w3.org/1999/xlink" xml:space="preserve" onload="init(evt)">
<style type="text/css"><![CDATA[
.node, .edge {opacity: 0.7;}
.node.selected, .edge.selected {opacity: 1;}
.edge:hover path { stroke: red; }
.edge:hover polygon { stroke: red; fill: red; }
]]></style>

<defs>
  <circle id="rim" cx="0" cy="0" r="7"/>
  <circle id="rim2" cx="0" cy="0" r="3.5"/>
  <g id="zoomPlus">
    <use xlink:href="#rim" fill="#404040"><set attributeName="fill" to="#808080" begin="zoomplus.mouseover" end="zoomplus.mouseout"/></use>
    <path d="M-4,0h8M0,-4v8" fill="none" stroke="white" stroke-width="1.5" pointer-events="none"/>
  </g>
  <g id="zoomMin">
    <use xlink:href="#rim" fill="#404040"><set attributeName="fill" to="#808080" begin="zoomminus.mouseover" end="zoomminus.mouseout"/></use>
    <path d="M-4,0h8" fill="none" stroke="white" stroke-width="1.5" pointer-events="none"/>
  </g>
  <g id="arrowUp" transform="translate(30 24)">
    <use xlink:href="#rim"/>
    <path pointer-events="none" fill="none" stroke="white" stroke-width="1.5" d="M0,-3.0v7 M-2.5,-0.5L0,-3.0L2.5,-0.5"/>
  </g>
  <g id="arrowRight" transform="rotate(90) translate(36 -43)">
    <use xlink:href="#rim"/>
    <path pointer-events="none" fill="none" stroke="white" stroke-width="1.5" d="M0,-3.0v7 M-2.5,-0.5L0,-3.0L2.5,-0.5"/>
  </g>
  <g id="arrowDown" transform="rotate(180) translate(-30 -48)">
    <use xlink:href="#rim"/>
    <path pointer-events="none" fill="none" stroke="white" stroke-width="1.5" d="M0,-3.0v7 M-2.5,-0.5L0,-3.0L2.5,-0.5"/>
  </g>
  <g id="arrowLeft" transform="rotate(270) translate(-36 17)">
    <use xlink:href="#rim"/>
    <path pointer-events="none" fill="none" stroke="white" stroke-width="1.5" d="M0,-3.0v7 M-2.5,-0.5L0,-3.0L2.5,-0.5"/>
  </g>
  <g id="resetDef">
    <use xlink:href="#rim2" fill="#404040"><set attributeName="fill" to="#808080" begin="reset.mouseover" end="reset.mouseout"/></use>
  </g>
</defs>
<script type="application/ecmascript">
var viewWidth = 328;
var viewHeight = 513;
var sectionId = 'dynsection-0';
</script>
<script type="application/ecmascript" xlink:href="svg.min.js"/>
<svg id="graph" class="graph">
<g id="viewport">
<title>Widgets</title>
<!-- Node2 -->
<g id="Node000002" class="node">
<title>Node2</title>
<g id="a_Node000002"><a xlink:href="group__Containers.html" target="_top" xlink:title=" ">
<polygon fill="white" stroke="#666666" points="320,-221 213,-221 213,-202 320,-202 320,-221"/>
<text text-anchor="middle" x="266.5" y="-209" font-family="Helvetica,sans-Serif" font-size="10.00">Container Widgets</text>
</a>
</g>
</g>
<!-- Node3 -->
<g id="Node000003" class="node">
<title>Node3</title>
<g id="a_Node000003"><a xlink:href="group__Menus.html" target="_top" xlink:title=" ">
<polygon fill="white" stroke="#666666" points="308,-100 225,-100 225,-81 308,-81 308,-100"/>
<text text-anchor="middle" x="266.5" y="-88" font-family="Helvetica,sans-Serif" font-size="10.00">Menu classes</text>
</a>
</g>
</g>
<!-- Node5 -->
<g id="Node000005" class="node">
<title>Node5</title>
<g id="a_Node000005"><a xlink:href="group__TextView.html" target="_top" xlink:title=" ">
<polygon fill="white" stroke="#666666" points="317,-63 216,-63 216,-44 317,-44 317,-63"/>
<text text-anchor="middle" x="266.5" y="-51" font-family="Helvetica,sans-Serif" font-size="10.00">TextView Classes</text>
</a>
</g>
</g>
<!-- Node4 -->
<g id="Node000004" class="node">
<title>Node4</title>
<g id="a_Node000004"><a xlink:href="group__TreeView.html" target="_top" xlink:title=" ">
<polygon fill="white" stroke="#666666" points="317,-19 216,-19 216,0 317,0 317,-19"/>
<text text-anchor="middle" x="266.5" y="-7" font-family="Helvetica,sans-Serif" font-size="10.00">TreeView Classes</text>
</a>
</g>
</g>
<!-- Node1 -->
<g id="Node000001" class="node">
<title>Node1</title>
<g id="a_Node000001"><a xlink:title=" ">
<polygon fill="#999999" stroke="#666666" points="56,-81 0,-81 0,-62 56,-62 56,-81"/>
<text text-anchor="middle" x="28" y="-69" font-family="Helvetica,sans-Serif" font-size="10.00">Widgets</text>
</a>
</g>
</g>
<!-- Node1&#45;&gt;Node2 -->
<g id="edge1" class="edge">
<title>Node1&#45;&gt;Node2</title>
<path fill="none" stroke="orange" stroke-dasharray="5,2" d="M29.61,-81.13C31.59,-103.64 39.89,-159.82 74,-186.5 113.09,-217.07 170.98,-220.65 212.88,-218.23"/>
<text text-anchor="middle" x="134.5" y="-496.5" font-family="Helvetica,sans-Serif" font-size="10.00">Gtk::Alignment</text>
<text text-anchor="middle" x="134.5" y="-485.5" font-family="Helvetica,sans-Serif" font-size="10.00">Gtk::AspectFrame</text>
<text text-anchor="middle" x="134.5" y="-474.5" font-family="Helvetica,sans-Serif" font-size="10.00">Gtk::VBox</text>
<text text-anchor="middle" x="134.5" y="-463.5" font-family="Helvetica,sans-Serif" font-size="10.00">Gtk::HBox</text>
<text text-anchor="middle" x="134.5" y="-452.5" font-family="Helvetica,sans-Serif" font-size="10.00">Gtk::VButtonBox</text>
<text text-anchor="middle" x="134.5" y="-441.5" font-family="Helvetica,sans-Serif" font-size="10.00">Gtk::HButtonBox</text>
<text text-anchor="middle" x="134.5" y="-430.5" font-family="Helvetica,sans-Serif" font-size="10.00">Gtk::Expander</text>
<text text-anchor="middle" x="134.5" y="-419.5" font-family="Helvetica,sans-Serif" font-size="10.00">Gtk::Fixed</text>
<text text-anchor="middle" x="134.5" y="-408.5" font-family="Helvetica,sans-Serif" font-size="10.00">Gtk::Frame</text>
<text text-anchor="middle" x="134.5" y="-397.5" font-family="Helvetica,sans-Serif" font-size="10.00">Gtk::HandleBox</text>
<text text-anchor="middle" x="134.5" y="-386.5" font-family="Helvetica,sans-Serif" font-size="10.00">Gtk::IconView</text>
<text text-anchor="middle" x="134.5" y="-375.5" font-family="Helvetica,sans-Serif" font-size="10.00">Gtk::Layout</text>
<text text-anchor="middle" x="134.5" y="-364.5" font-family="Helvetica,sans-Serif" font-size="10.00">Gtk::ListViewText</text>
<text text-anchor="middle" x="134.5" y="-353.5" font-family="Helvetica,sans-Serif" font-size="10.00">Gtk::MenuShell</text>
<text text-anchor="middle" x="134.5" y="-342.5" font-family="Helvetica,sans-Serif" font-size="10.00">Gtk::Notebook</text>
<text text-anchor="middle" x="134.5" y="-331.5" font-family="Helvetica,sans-Serif" font-size="10.00">Gtk::OffscreenWindow</text>
<text text-anchor="middle" x="134.5" y="-320.5" font-family="Helvetica,sans-Serif" font-size="10.00">Gtk::Paned</text>
<text text-anchor="middle" x="134.5" y="-309.5" font-family="Helvetica,sans-Serif" font-size="10.00">Gtk::ScrolledWindow</text>
<text text-anchor="middle" x="134.5" y="-298.5" font-family="Helvetica,sans-Serif" font-size="10.00">Gtk::Socket</text>
<text text-anchor="middle" x="134.5" y="-287.5" font-family="Helvetica,sans-Serif" font-size="10.00">Gtk::Table</text>
<text text-anchor="middle" x="134.5" y="-276.5" font-family="Helvetica,sans-Serif" font-size="10.00">Gtk::TextView</text>
<text text-anchor="middle" x="134.5" y="-265.5" font-family="Helvetica,sans-Serif" font-size="10.00">Gtk::Toolbar</text>
<text text-anchor="middle" x="134.5" y="-254.5" font-family="Helvetica,sans-Serif" font-size="10.00">Gtk::ToolItemGroup</text>
<text text-anchor="middle" x="134.5" y="-243.5" font-family="Helvetica,sans-Serif" font-size="10.00">Gtk::ToolPalette</text>
<text text-anchor="middle" x="134.5" y="-232.5" font-family="Helvetica,sans-Serif" font-size="10.00">Gtk::TreeView</text>
<text text-anchor="middle" x="134.5" y="-221.5" font-family="Helvetica,sans-Serif" font-size="10.00">Gtk::Viewport</text>
</g>
<!-- Node1&#45;&gt;Node3 -->
<g id="edge2" class="edge">
<title>Node1&#45;&gt;Node3</title>
<path fill="none" stroke="orange" stroke-dasharray="5,2" d="M56.13,-73.68C97.5,-77 176.64,-83.36 224.88,-87.24"/>
<text text-anchor="middle" x="134.5" y="-174.5" font-family="Helvetica,sans-Serif" font-size="10.00">Gtk::CheckMenuItem</text>
<text text-anchor="middle" x="134.5" y="-163.5" font-family="Helvetica,sans-Serif" font-size="10.00">Gtk::ImageMenuItem</text>
<text text-anchor="middle" x="134.5" y="-152.5" font-family="Helvetica,sans-Serif" font-size="10.00">Gtk::Menu</text>
<text text-anchor="middle" x="134.5" y="-141.5" font-family="Helvetica,sans-Serif" font-size="10.00">Gtk::MenuBar</text>
<text text-anchor="middle" x="134.5" y="-130.5" font-family="Helvetica,sans-Serif" font-size="10.00">Gtk::MenuItem</text>
<text text-anchor="middle" x="134.5" y="-119.5" font-family="Helvetica,sans-Serif" font-size="10.00">Gtk::MenuShell</text>
<text text-anchor="middle" x="134.5" y="-108.5" font-family="Helvetica,sans-Serif" font-size="10.00">Gtk::RadioMenuItem</text>
<text text-anchor="middle" x="134.5" y="-97.5" font-family="Helvetica,sans-Serif" font-size="10.00">Gtk::SeparatorMenuItem</text>
<text text-anchor="middle" x="134.5" y="-86.5" font-family="Helvetica,sans-Serif" font-size="10.00">Gtk::TearoffMenuItem</text>
</g>
<!-- Node1&#45;&gt;Node5 -->
<g id="edge4" class="edge">
<title>Node1&#45;&gt;Node5</title>
<path fill="none" stroke="orange" stroke-dasharray="5,2" d="M53.41,-61.86C59.99,-59.68 67.18,-57.66 74,-56.5 121.69,-48.38 177.03,-48.52 215.92,-50.15"/>
<text text-anchor="middle" x="134.5" y="-59.5" font-family="Helvetica,sans-Serif" font-size="10.00">Gtk::TextView</text>
</g>
<!-- Node1&#45;&gt;Node4 -->
<g id="edge3" class="edge">
<title>Node1&#45;&gt;Node4</title>
<path fill="none" stroke="orange" stroke-dasharray="5,2" d="M34.57,-61.91C41.93,-50.26 56.09,-31.1 74,-22.5 118.45,-1.14 175.51,-0.14 215.74,-3.09"/>
<text text-anchor="middle" x="134.5" y="-36.5" font-family="Helvetica,sans-Serif" font-size="10.00">Gtk::ListViewText</text>
<text text-anchor="middle" x="134.5" y="-25.5" font-family="Helvetica,sans-Serif" font-size="10.00">Gtk::TreeView</text>
</g>
</g>
</svg>

<g id="navigator" transform="translate(0 0)" fill="#404254">
  <rect fill="#f2f5e9" fill-opacity="0.5" stroke="#606060" stroke-width=".5" x="0" y="0" width="60" height="60"/>
  <use id="zoomplus" xlink:href="#zoomPlus" x="17" y="9" onmousedown="handleZoom(evt,'in')"/>
  <use id="zoomminus" xlink:href="#zoomMin" x="42" y="9" onmousedown="handleZoom(evt,'out')"/>
  <use id="reset" xlink:href="#resetDef" x="30" y="36" onmousedown="handleReset()"/>
   <use id="arrowup" xlink:href="#arrowUp" x="0" y="0" onmousedown="handlePan(0,-1)"/>
  <use id="arrowright" xlink:href="#arrowRight" x="0" y="0" onmousedown="handlePan(1,0)"/>
  <use id="arrowdown" xlink:href="#arrowDown" x="0" y="0" onmousedown="handlePan(0,1)"/>
  <use id="arrowleft" xlink:href="#arrowLeft" x="0" y="0" onmousedown="handlePan(-1,0)"/>
</g>
<svg viewBox="0 0 15 15" width="100%" height="30px" preserveAspectRatio="xMaxYMin meet">
 <g id="arrow_out" transform="scale(0.3 0.3)">
  <a xlink:href="group__Widgets_org.svg" target="_base">
   <rect id="button" ry="5" rx="5" y="6" x="6" height="38" width="38"
        fill="#f2f5e9" fill-opacity="0.5" stroke="#606060" stroke-width="1.0"/>
   <path id="arrow"
     d="M 11.500037,31.436501 C 11.940474,20.09759 22.043105,11.32322 32.158766,21.979434 L 37.068811,17.246167 C 37.068811,17.246167 37.088388,32 37.088388,32 L 22.160133,31.978069 C 22.160133,31.978069 26.997745,27.140456 26.997745,27.140456 C 18.528582,18.264221 13.291696,25.230495 11.500037,31.436501 z"
     style="fill:#404040;"/>
  </a>
 </g>
</svg>

<style type='text/css'>
<![CDATA[
[data-mouse-over-selected='false'] { opacity: 0.7; }
[data-mouse-over-selected='true']  { opacity: 1.0; }
]]>
</style>
<script type="application/ecmascript"><![CDATA[
document.addEventListener('DOMContentLoaded', (event) => {
  highlightEdges();
  highlightAdjacentNodes();
});
]]></script>
</svg>
