<?xml version="1.0" encoding="UTF-8" standalone="no"?>
<!DOCTYPE svg PUBLIC "-//W3C//DTD SVG 1.1//EN"
 "http://www.w3.org/Graphics/SVG/1.1/DTD/svg11.dtd">
<!-- Generated by graphviz version 2.43.0 (0)
 -->
<!-- Title: level_meter.h Pages: 1 -->
<!--zoomable 643 -->

<svg id="main" version="1.1" xmlns="http://www.w3.org/2000/svg" xmlns:xlink="http://www.w3.org/1999/xlink" xml:space="preserve" onload="init(evt)">
<style type="text/css"><![CDATA[
.node, .edge {opacity: 0.7;}
.node.selected, .edge.selected {opacity: 1;}
.edge:hover path { stroke: red; }
.edge:hover polygon { stroke: red; fill: red; }
]]></style>

<defs>
  <circle id="rim" cx="0" cy="0" r="7"/>
  <circle id="rim2" cx="0" cy="0" r="3.5"/>
  <g id="zoomPlus">
    <use xlink:href="#rim" fill="#404040"><set attributeName="fill" to="#808080" begin="zoomplus.mouseover" end="zoomplus.mouseout"/></use>
    <path d="M-4,0h8M0,-4v8" fill="none" stroke="white" stroke-width="1.5" pointer-events="none"/>
  </g>
  <g id="zoomMin">
    <use xlink:href="#rim" fill="#404040"><set attributeName="fill" to="#808080" begin="zoomminus.mouseover" end="zoomminus.mouseout"/></use>
    <path d="M-4,0h8" fill="none" stroke="white" stroke-width="1.5" pointer-events="none"/>
  </g>
  <g id="arrowUp" transform="translate(30 24)">
    <use xlink:href="#rim"/>
    <path pointer-events="none" fill="none" stroke="white" stroke-width="1.5" d="M0,-3.0v7 M-2.5,-0.5L0,-3.0L2.5,-0.5"/>
  </g>
  <g id="arrowRight" transform="rotate(90) translate(36 -43)">
    <use xlink:href="#rim"/>
    <path pointer-events="none" fill="none" stroke="white" stroke-width="1.5" d="M0,-3.0v7 M-2.5,-0.5L0,-3.0L2.5,-0.5"/>
  </g>
  <g id="arrowDown" transform="rotate(180) translate(-30 -48)">
    <use xlink:href="#rim"/>
    <path pointer-events="none" fill="none" stroke="white" stroke-width="1.5" d="M0,-3.0v7 M-2.5,-0.5L0,-3.0L2.5,-0.5"/>
  </g>
  <g id="arrowLeft" transform="rotate(270) translate(-36 17)">
    <use xlink:href="#rim"/>
    <path pointer-events="none" fill="none" stroke="white" stroke-width="1.5" d="M0,-3.0v7 M-2.5,-0.5L0,-3.0L2.5,-0.5"/>
  </g>
  <g id="resetDef">
    <use xlink:href="#rim2" fill="#404040"><set attributeName="fill" to="#808080" begin="reset.mouseover" end="reset.mouseout"/></use>
  </g>
</defs>
<script type="application/ecmascript">
var viewWidth = 1271;
var viewHeight = 643;
var sectionId = 'dynsection-1';
</script>
<script type="application/ecmascript" xlink:href="svg.min.js"/>
<svg id="graph" class="graph">
<g id="viewport">
<title>level_meter.h</title>
<!-- Node1 -->
<g id="Node000001" class="node">
<title>Node1</title>
<g id="a_Node000001"><a xlink:title=" ">
<polygon fill="#999999" stroke="#666666" points="1064.5,-635 981.5,-635 981.5,-616 1064.5,-616 1064.5,-635"/>
<text text-anchor="middle" x="1023" y="-623" font-family="Helvetica,sans-Serif" font-size="10.00">level_meter.h</text>
</a>
</g>
</g>
<!-- Node2 -->
<g id="Node000002" class="node">
<title>Node2</title>
<g id="a_Node000002"><a xlink:href="gain__meter_8h.html" target="_top" xlink:title=" ">
<polygon fill="white" stroke="#666666" points="741,-580 661,-580 661,-561 741,-561 741,-580"/>
<text text-anchor="middle" x="701" y="-568" font-family="Helvetica,sans-Serif" font-size="10.00">gain_meter.h</text>
</a>
</g>
</g>
<!-- Node1&#45;&gt;Node2 -->
<g id="edge1_Node000001_Node000002" class="edge">
<title>Node1&#45;&gt;Node2</title>
<g id="a_edge1_Node000001_Node000002"><a xlink:title=" ">
<path fill="none" stroke="#63b8ff" d="M971.34,-616C907.27,-605.45 799.4,-587.7 741.17,-578.11"/>
<polygon fill="#63b8ff" stroke="#63b8ff" points="970.8,-619.45 981.23,-617.63 971.94,-612.55 970.8,-619.45"/>
</a>
</g>
</g>
<!-- Node34 -->
<g id="Node000034" class="node">
<title>Node34</title>
<g id="a_Node000034"><a xlink:href="monitor__section_8h.html" target="_top" xlink:title=" ">
<polygon fill="white" stroke="#666666" points="980,-415 876,-415 876,-396 980,-396 980,-415"/>
<text text-anchor="middle" x="928" y="-403" font-family="Helvetica,sans-Serif" font-size="10.00">monitor_section.h</text>
</a>
</g>
</g>
<!-- Node1&#45;&gt;Node34 -->
<g id="edge46_Node000001_Node000034" class="edge">
<title>Node1&#45;&gt;Node34</title>
<g id="a_edge46_Node000001_Node000034"><a xlink:title=" ">
<path fill="none" stroke="#63b8ff" d="M1015.24,-606.7C995.88,-562.27 945.97,-447.74 931.8,-415.22"/>
<polygon fill="#63b8ff" stroke="#63b8ff" points="1012.07,-608.19 1019.28,-615.95 1018.49,-605.39 1012.07,-608.19"/>
</a>
</g>
</g>
<!-- Node37 -->
<g id="Node000037" class="node">
<title>Node37</title>
<g id="a_Node000037"><a xlink:href="trigger__strip_8h.html" target="_top" xlink:title=" ">
<polygon fill="white" stroke="#666666" points="1083.5,-415 998.5,-415 998.5,-396 1083.5,-396 1083.5,-415"/>
<text text-anchor="middle" x="1041" y="-403" font-family="Helvetica,sans-Serif" font-size="10.00">trigger_strip.h</text>
</a>
</g>
</g>
<!-- Node1&#45;&gt;Node37 -->
<g id="edge48_Node000001_Node000037" class="edge">
<title>Node1&#45;&gt;Node37</title>
<g id="a_edge48_Node000001_Node000037"><a xlink:title=" ">
<path fill="none" stroke="#63b8ff" d="M1024.54,-605.85C1028.26,-560.82 1037.61,-447.53 1040.28,-415.22"/>
<polygon fill="#63b8ff" stroke="#63b8ff" points="1021.04,-605.7 1023.71,-615.95 1028.02,-606.28 1021.04,-605.7"/>
</a>
</g>
</g>
<!-- Node40 -->
<g id="Node000040" class="node">
<title>Node40</title>
<g id="a_Node000040"><a xlink:href="meter__strip_8h.html" target="_top" xlink:title=" ">
<polygon fill="white" stroke="#666666" points="1133,-580 1051,-580 1051,-561 1133,-561 1133,-580"/>
<text text-anchor="middle" x="1092" y="-568" font-family="Helvetica,sans-Serif" font-size="10.00">meter_strip.h</text>
</a>
</g>
</g>
<!-- Node1&#45;&gt;Node40 -->
<g id="edge44_Node000001_Node000040" class="edge">
<title>Node1&#45;&gt;Node40</title>
<g id="a_edge44_Node000001_Node000040"><a xlink:title=" ">
<path fill="none" stroke="#63b8ff" d="M1042.04,-609.88C1054.46,-600.34 1070.24,-588.21 1080.71,-580.17"/>
<polygon fill="#63b8ff" stroke="#63b8ff" points="1039.88,-607.12 1034.09,-615.98 1044.15,-612.67 1039.88,-607.12"/>
</a>
</g>
</g>
<!-- Node42 -->
<g id="Node000042" class="node">
<title>Node42</title>
<g id="a_Node000042"><a xlink:href="track__record__axis_8h.html" target="_top" xlink:title=" ">
<polygon fill="white" stroke="#666666" points="1263,-580 1151,-580 1151,-561 1263,-561 1263,-580"/>
<text text-anchor="middle" x="1207" y="-568" font-family="Helvetica,sans-Serif" font-size="10.00">track_record_axis.h</text>
</a>
</g>
</g>
<!-- Node1&#45;&gt;Node42 -->
<g id="edge47_Node000001_Node000042" class="edge">
<title>Node1&#45;&gt;Node42</title>
<g id="a_edge47_Node000001_Node000042"><a xlink:title=" ">
<path fill="none" stroke="#63b8ff" d="M1062.29,-613.18C1096.7,-603.27 1145.96,-589.08 1177.21,-580.08"/>
<polygon fill="#63b8ff" stroke="#63b8ff" points="1061.2,-609.85 1052.56,-615.98 1063.14,-616.58 1061.2,-609.85"/>
</a>
</g>
</g>
<!-- Node3 -->
<g id="Node000003" class="node">
<title>Node3</title>
<g id="a_Node000003"><a xlink:href="mixer__strip_8h.html" target="_top" xlink:title=" ">
<polygon fill="white" stroke="#666666" points="858,-415 778,-415 778,-396 858,-396 858,-415"/>
<text text-anchor="middle" x="818" y="-403" font-family="Helvetica,sans-Serif" font-size="10.00">mixer_strip.h</text>
</a>
</g>
</g>
<!-- Node2&#45;&gt;Node3 -->
<g id="edge2_Node000002_Node000003" class="edge">
<title>Node2&#45;&gt;Node3</title>
<g id="a_edge2_Node000002_Node000003"><a xlink:title=" ">
<path fill="none" stroke="#63b8ff" d="M751.14,-563.65C775.6,-557.99 802.93,-546.86 818,-525 841.71,-490.62 827.82,-436.25 821.05,-415.21"/>
<polygon fill="#63b8ff" stroke="#63b8ff" points="750.32,-560.25 741.23,-565.69 751.73,-567.1 750.32,-560.25"/>
</a>
</g>
</g>
<!-- Node5 -->
<g id="Node000005" class="node">
<title>Node5</title>
<g id="a_Node000005"><a xlink:href="port__insert__ui_8h.html" target="_top" xlink:title=" ">
<polygon fill="white" stroke="#666666" points="957,-525 865,-525 865,-506 957,-506 957,-525"/>
<text text-anchor="middle" x="911" y="-513" font-family="Helvetica,sans-Serif" font-size="10.00">port_insert_ui.h</text>
</a>
</g>
</g>
<!-- Node2&#45;&gt;Node5 -->
<g id="edge4_Node000002_Node000005" class="edge">
<title>Node2&#45;&gt;Node5</title>
<g id="a_edge4_Node000002_Node000005"><a xlink:title=" ">
<path fill="none" stroke="#63b8ff" d="M744.58,-558.5C783.9,-548.58 840.95,-534.18 877,-525.08"/>
<polygon fill="#63b8ff" stroke="#63b8ff" points="743.58,-555.14 734.74,-560.98 745.29,-561.93 743.58,-555.14"/>
</a>
</g>
</g>
<!-- Node6 -->
<g id="Node000006" class="node">
<title>Node6</title>
<g id="a_Node000006"><a xlink:href="return__ui_8h.html" target="_top" xlink:title=" ">
<polygon fill="white" stroke="#666666" points="362.5,-525 293.5,-525 293.5,-506 362.5,-506 362.5,-525"/>
<text text-anchor="middle" x="328" y="-513" font-family="Helvetica,sans-Serif" font-size="10.00">return_ui.h</text>
</a>
</g>
</g>
<!-- Node2&#45;&gt;Node6 -->
<g id="edge5_Node000002_Node000006" class="edge">
<title>Node2&#45;&gt;Node6</title>
<g id="a_edge5_Node000002_Node000006"><a xlink:title=" ">
<path fill="none" stroke="#63b8ff" d="M650.57,-563.57C585.89,-555.77 470.33,-541.13 372,-525 368.93,-524.5 365.74,-523.94 362.55,-523.37"/>
<polygon fill="#63b8ff" stroke="#63b8ff" points="650.54,-567.1 660.88,-564.81 651.37,-560.15 650.54,-567.1"/>
</a>
</g>
</g>
<!-- Node7 -->
<g id="Node000007" class="node">
<title>Node7</title>
<g id="a_Node000007"><a xlink:href="route__time__axis_8h.html" target="_top" xlink:title=" ">
<polygon fill="white" stroke="#666666" points="485,-525 381,-525 381,-506 485,-506 485,-525"/>
<text text-anchor="middle" x="433" y="-513" font-family="Helvetica,sans-Serif" font-size="10.00">route_time_axis.h</text>
</a>
</g>
</g>
<!-- Node2&#45;&gt;Node7 -->
<g id="edge6_Node000002_Node000007" class="edge">
<title>Node2&#45;&gt;Node7</title>
<g id="a_edge6_Node000002_Node000007"><a xlink:title=" ">
<path fill="none" stroke="#63b8ff" d="M650.87,-559.59C600.51,-549.63 523.75,-534.45 476.06,-525.02"/>
<polygon fill="#63b8ff" stroke="#63b8ff" points="650.39,-563.06 660.88,-561.57 651.75,-556.19 650.39,-563.06"/>
</a>
</g>
</g>
<!-- Node31 -->
<g id="Node000031" class="node">
<title>Node31</title>
<g id="a_Node000031"><a xlink:href="send__ui_8h.html" target="_top" xlink:title=" ">
<polygon fill="white" stroke="#666666" points="566.5,-525 503.5,-525 503.5,-506 566.5,-506 566.5,-525"/>
<text text-anchor="middle" x="535" y="-513" font-family="Helvetica,sans-Serif" font-size="10.00">send_ui.h</text>
</a>
</g>
</g>
<!-- Node2&#45;&gt;Node31 -->
<g id="edge34_Node000002_Node000031" class="edge">
<title>Node2&#45;&gt;Node31</title>
<g id="a_edge34_Node000002_Node000031"><a xlink:title=" ">
<path fill="none" stroke="#63b8ff" d="M664.75,-557.93C633.75,-548.03 589.83,-534.01 561.88,-525.08"/>
<polygon fill="#63b8ff" stroke="#63b8ff" points="663.74,-561.28 674.33,-560.98 665.87,-554.61 663.74,-561.28"/>
</a>
</g>
</g>
<!-- Node38 -->
<g id="Node000038" class="node">
<title>Node38</title>
<g id="a_Node000038"><a xlink:href="vca__master__strip_8h.html" target="_top" xlink:title=" ">
<polygon fill="white" stroke="#666666" points="695,-525 585,-525 585,-506 695,-506 695,-525"/>
<text text-anchor="middle" x="640" y="-513" font-family="Helvetica,sans-Serif" font-size="10.00">vca_master_strip.h</text>
</a>
</g>
</g>
<!-- Node2&#45;&gt;Node38 -->
<g id="edge42_Node000002_Node000038" class="edge">
<title>Node2&#45;&gt;Node38</title>
<g id="a_edge42_Node000002_Node000038"><a xlink:title=" ">
<path fill="none" stroke="#63b8ff" d="M683.53,-554.32C672.66,-544.87 659.06,-533.06 649.98,-525.17"/>
<polygon fill="#63b8ff" stroke="#63b8ff" points="681.35,-557.07 691.2,-560.98 685.95,-551.78 681.35,-557.07"/>
</a>
</g>
</g>
<!-- Node39 -->
<g id="Node000039" class="node">
<title>Node39</title>
<g id="a_Node000039"><a xlink:href="vca__time__axis_8h.html" target="_top" xlink:title=" ">
<polygon fill="white" stroke="#666666" points="809,-525 713,-525 713,-506 809,-506 809,-525"/>
<text text-anchor="middle" x="761" y="-513" font-family="Helvetica,sans-Serif" font-size="10.00">vca_time_axis.h</text>
</a>
</g>
</g>
<!-- Node2&#45;&gt;Node39 -->
<g id="edge43_Node000002_Node000039" class="edge">
<title>Node2&#45;&gt;Node39</title>
<g id="a_edge43_Node000002_Node000039"><a xlink:title=" ">
<path fill="none" stroke="#63b8ff" d="M718.18,-554.32C728.88,-544.87 742.26,-533.06 751.18,-525.17"/>
<polygon fill="#63b8ff" stroke="#63b8ff" points="715.82,-551.74 710.64,-560.98 720.45,-556.99 715.82,-551.74"/>
</a>
</g>
</g>
<!-- Node4 -->
<g id="Node000004" class="node">
<title>Node4</title>
<g id="a_Node000004"><a xlink:href="strip__selection_8h.html" target="_top" xlink:title=" ">
<polygon fill="white" stroke="#666666" points="866.5,-360 769.5,-360 769.5,-341 866.5,-341 866.5,-360"/>
<text text-anchor="middle" x="818" y="-348" font-family="Helvetica,sans-Serif" font-size="10.00">strip_selection.h</text>
</a>
</g>
</g>
<!-- Node3&#45;&gt;Node4 -->
<g id="edge3_Node000003_Node000004" class="edge">
<title>Node3&#45;&gt;Node4</title>
<g id="a_edge3_Node000003_Node000004"><a xlink:title=" ">
<path fill="none" stroke="#63b8ff" d="M818,-385.66C818,-376.93 818,-366.99 818,-360.09"/>
<polygon fill="#63b8ff" stroke="#63b8ff" points="814.5,-385.75 818,-395.75 821.5,-385.75 814.5,-385.75"/>
</a>
</g>
</g>
<!-- Node8 -->
<g id="Node000008" class="node">
<title>Node8</title>
<g id="a_Node000008"><a xlink:href="audio__time__axis_8h.html" target="_top" xlink:title=" ">
<polygon fill="white" stroke="#666666" points="498,-470 392,-470 392,-451 498,-451 498,-470"/>
<text text-anchor="middle" x="445" y="-458" font-family="Helvetica,sans-Serif" font-size="10.00">audio_time_axis.h</text>
</a>
</g>
</g>
<!-- Node7&#45;&gt;Node8 -->
<g id="edge7_Node000007_Node000008" class="edge">
<title>Node7&#45;&gt;Node8</title>
<g id="a_edge7_Node000007_Node000008"><a xlink:title=" ">
<path fill="none" stroke="#63b8ff" d="M437.2,-495.95C439.19,-487.15 441.48,-477.06 443.06,-470.09"/>
<polygon fill="#63b8ff" stroke="#63b8ff" points="433.78,-495.22 434.98,-505.75 440.6,-496.77 433.78,-495.22"/>
</a>
</g>
</g>
<!-- Node27 -->
<g id="Node000027" class="node">
<title>Node27</title>
<g id="a_Node000027"><a xlink:href="automation__streamview_8h.html" target="_top" xlink:title=" ">
<polygon fill="white" stroke="#666666" points="660,-470 516,-470 516,-451 660,-451 660,-470"/>
<text text-anchor="middle" x="588" y="-458" font-family="Helvetica,sans-Serif" font-size="10.00">automation_streamview.h</text>
</a>
</g>
</g>
<!-- Node7&#45;&gt;Node27 -->
<g id="edge27_Node000007_Node000027" class="edge">
<title>Node7&#45;&gt;Node27</title>
<g id="a_edge27_Node000007_Node000027"><a xlink:title=" ">
<path fill="none" stroke="#63b8ff" d="M467.6,-502.67C496.5,-492.79 537.03,-478.93 562.9,-470.08"/>
<polygon fill="#63b8ff" stroke="#63b8ff" points="466.23,-499.44 457.9,-505.98 468.5,-506.06 466.23,-499.44"/>
</a>
</g>
</g>
<!-- Node28 -->
<g id="Node000028" class="node">
<title>Node28</title>
<g id="a_Node000028"><a xlink:href="midi__streamview_8h.html" target="_top" xlink:title=" ">
<polygon fill="white" stroke="#666666" points="336,-470 226,-470 226,-451 336,-451 336,-470"/>
<text text-anchor="middle" x="281" y="-458" font-family="Helvetica,sans-Serif" font-size="10.00">midi_streamview.h</text>
</a>
</g>
</g>
<!-- Node7&#45;&gt;Node28 -->
<g id="edge28_Node000007_Node000028" class="edge">
<title>Node7&#45;&gt;Node28</title>
<g id="a_edge28_Node000007_Node000028"><a xlink:title=" ">
<path fill="none" stroke="#63b8ff" d="M399.07,-502.67C370.73,-492.79 330.98,-478.93 305.61,-470.08"/>
<polygon fill="#63b8ff" stroke="#63b8ff" points="397.98,-506 408.58,-505.98 400.29,-499.39 397.98,-506"/>
</a>
</g>
</g>
<!-- Node29 -->
<g id="Node000029" class="node">
<title>Node29</title>
<g id="a_Node000029"><a xlink:href="midi__time__axis_8h.html" target="_top" xlink:title=" ">
<polygon fill="white" stroke="#666666" points="408.5,-415 307.5,-415 307.5,-396 408.5,-396 408.5,-415"/>
<text text-anchor="middle" x="358" y="-403" font-family="Helvetica,sans-Serif" font-size="10.00">midi_time_axis.h</text>
</a>
</g>
</g>
<!-- Node7&#45;&gt;Node29 -->
<g id="edge33_Node000007_Node000029" class="edge">
<title>Node7&#45;&gt;Node29</title>
<g id="a_edge33_Node000007_Node000029"><a xlink:title=" ">
<path fill="none" stroke="#63b8ff" d="M412.19,-499.67C402.3,-491.77 390.92,-481.35 383,-470 370.8,-452.51 363.39,-428.22 360.07,-415.34"/>
<polygon fill="#63b8ff" stroke="#63b8ff" points="410.32,-502.64 420.39,-505.93 414.56,-497.08 410.32,-502.64"/>
</a>
</g>
</g>
<!-- Node9 -->
<g id="Node000009" class="node">
<title>Node9</title>
<g id="a_Node000009"><a xlink:href="track__view__list_8h.html" target="_top" xlink:title=" ">
<polygon fill="white" stroke="#666666" points="494.5,-360 395.5,-360 395.5,-341 494.5,-341 494.5,-360"/>
<text text-anchor="middle" x="445" y="-348" font-family="Helvetica,sans-Serif" font-size="10.00">track_view_list.h</text>
</a>
</g>
</g>
<!-- Node8&#45;&gt;Node9 -->
<g id="edge8_Node000008_Node000009" class="edge">
<title>Node8&#45;&gt;Node9</title>
<g id="a_edge8_Node000008_Node000009"><a xlink:title=" ">
<path fill="none" stroke="#63b8ff" d="M445,-440.48C445,-416.84 445,-377.5 445,-360.16"/>
<polygon fill="#63b8ff" stroke="#63b8ff" points="441.5,-440.66 445,-450.66 448.5,-440.66 441.5,-440.66"/>
</a>
</g>
</g>
<!-- Node10 -->
<g id="Node000010" class="node">
<title>Node10</title>
<g id="a_Node000010"><a xlink:href="track__selection_8h.html" target="_top" xlink:title=" ">
<polygon fill="white" stroke="#666666" points="502,-305 402,-305 402,-286 502,-286 502,-305"/>
<text text-anchor="middle" x="452" y="-293" font-family="Helvetica,sans-Serif" font-size="10.00">track_selection.h</text>
</a>
</g>
</g>
<!-- Node9&#45;&gt;Node10 -->
<g id="edge9_Node000009_Node000010" class="edge">
<title>Node9&#45;&gt;Node10</title>
<g id="a_edge9_Node000009_Node000010"><a xlink:title=" ">
<path fill="none" stroke="#63b8ff" d="M447.49,-330.66C448.64,-321.93 449.95,-311.99 450.87,-305.09"/>
<polygon fill="#63b8ff" stroke="#63b8ff" points="444,-330.38 446.16,-340.75 450.94,-331.29 444,-330.38"/>
</a>
</g>
</g>
<!-- Node11 -->
<g id="Node000011" class="node">
<title>Node11</title>
<g id="a_Node000011"><a xlink:href="editor__drag_8h.html" target="_top" xlink:title=" ">
<polygon fill="white" stroke="#666666" points="586.5,-250 505.5,-250 505.5,-231 586.5,-231 586.5,-250"/>
<text text-anchor="middle" x="546" y="-238" font-family="Helvetica,sans-Serif" font-size="10.00">editor_drag.h</text>
</a>
</g>
</g>
<!-- Node10&#45;&gt;Node11 -->
<g id="edge10_Node000010_Node000011" class="edge">
<title>Node10&#45;&gt;Node11</title>
<g id="a_edge10_Node000010_Node000011"><a xlink:title=" ">
<path fill="none" stroke="#63b8ff" d="M476,-280.97C493.19,-271.28 515.81,-258.52 530.62,-250.17"/>
<polygon fill="#63b8ff" stroke="#63b8ff" points="474.09,-278.02 467.1,-285.98 477.53,-284.12 474.09,-278.02"/>
</a>
</g>
</g>
<!-- Node12 -->
<g id="Node000012" class="node">
<title>Node12</title>
<g id="a_Node000012"><a xlink:href="gtk2__ardour_2selection_8h.html" target="_top" xlink:title=" ">
<polygon fill="white" stroke="#666666" points="487,-250 417,-250 417,-231 487,-231 487,-250"/>
<text text-anchor="middle" x="452" y="-238" font-family="Helvetica,sans-Serif" font-size="10.00">selection.h</text>
</a>
</g>
</g>
<!-- Node10&#45;&gt;Node12 -->
<g id="edge11_Node000010_Node000012" class="edge">
<title>Node10&#45;&gt;Node12</title>
<g id="a_edge11_Node000010_Node000012"><a xlink:title=" ">
<path fill="none" stroke="#63b8ff" d="M452,-275.66C452,-266.93 452,-256.99 452,-250.09"/>
<polygon fill="#63b8ff" stroke="#63b8ff" points="448.5,-275.75 452,-285.75 455.5,-275.75 448.5,-275.75"/>
</a>
</g>
</g>
<!-- Node13 -->
<g id="Node000013" class="node">
<title>Node13</title>
<g id="a_Node000013"><a xlink:href="editing__context_8h.html" target="_top" xlink:title=" ">
<polygon fill="white" stroke="#666666" points="502.5,-195 401.5,-195 401.5,-176 502.5,-176 502.5,-195"/>
<text text-anchor="middle" x="452" y="-183" font-family="Helvetica,sans-Serif" font-size="10.00">editing_context.h</text>
</a>
</g>
</g>
<!-- Node12&#45;&gt;Node13 -->
<g id="edge12_Node000012_Node000013" class="edge">
<title>Node12&#45;&gt;Node13</title>
<g id="a_edge12_Node000012_Node000013"><a xlink:title=" ">
<path fill="none" stroke="#63b8ff" d="M452,-220.66C452,-211.93 452,-201.99 452,-195.09"/>
<polygon fill="#63b8ff" stroke="#63b8ff" points="448.5,-220.75 452,-230.75 455.5,-220.75 448.5,-220.75"/>
</a>
</g>
</g>
<!-- Node18 -->
<g id="Node000018" class="node">
<title>Node18</title>
<g id="a_Node000018"><a xlink:href="public__editor_8h.html" target="_top" xlink:title=" ">
<polygon fill="white" stroke="#666666" points="575,-140 487,-140 487,-121 575,-121 575,-140"/>
<text text-anchor="middle" x="531" y="-128" font-family="Helvetica,sans-Serif" font-size="10.00">public_editor.h</text>
</a>
</g>
</g>
<!-- Node12&#45;&gt;Node18 -->
<g id="edge25_Node000012_Node000018" class="edge">
<title>Node12&#45;&gt;Node18</title>
<g id="a_edge25_Node000012_Node000018"><a xlink:title=" ">
<path fill="none" stroke="#63b8ff" d="M477.12,-225.57C488.88,-217.92 502.21,-207.44 511,-195 523.13,-177.82 528.12,-152.97 529.99,-140.04"/>
<polygon fill="#63b8ff" stroke="#63b8ff" points="475.21,-222.64 468.53,-230.86 478.88,-228.6 475.21,-222.64"/>
</a>
</g>
</g>
<!-- Node25 -->
<g id="Node000025" class="node">
<title>Node25</title>
<g id="a_Node000025"><a xlink:href="gtk2__ardour_2keyboard_8h.html" target="_top" xlink:title=" ">
<polygon fill="white" stroke="#666666" points="630.5,-195 559.5,-195 559.5,-176 630.5,-176 630.5,-195"/>
<text text-anchor="middle" x="595" y="-183" font-family="Helvetica,sans-Serif" font-size="10.00">keyboard.h</text>
</a>
</g>
</g>
<!-- Node12&#45;&gt;Node25 -->
<g id="edge24_Node000012_Node000025" class="edge">
<title>Node12&#45;&gt;Node25</title>
<g id="a_edge24_Node000012_Node000025"><a xlink:title=" ">
<path fill="none" stroke="#63b8ff" d="M484.59,-227.42C511.12,-217.59 547.93,-203.95 571.61,-195.17"/>
<polygon fill="#63b8ff" stroke="#63b8ff" points="483.14,-224.23 474.98,-230.98 485.57,-230.79 483.14,-224.23"/>
</a>
</g>
</g>
<!-- Node26 -->
<g id="Node000026" class="node">
<title>Node26</title>
<g id="a_Node000026"><a xlink:href="selection__templates_8h.html" target="_top" xlink:title=" ">
<polygon fill="white" stroke="#666666" points="383.5,-195 258.5,-195 258.5,-176 383.5,-176 383.5,-195"/>
<text text-anchor="middle" x="321" y="-183" font-family="Helvetica,sans-Serif" font-size="10.00">selection_templates.h</text>
</a>
</g>
</g>
<!-- Node12&#45;&gt;Node26 -->
<g id="edge26_Node000012_Node000026" class="edge">
<title>Node12&#45;&gt;Node26</title>
<g id="a_edge26_Node000012_Node000026"><a xlink:title=" ">
<path fill="none" stroke="#63b8ff" d="M421.5,-227.16C397.25,-217.35 363.93,-203.87 342.43,-195.17"/>
<polygon fill="#63b8ff" stroke="#63b8ff" points="420.37,-230.48 430.95,-230.98 423,-223.99 420.37,-230.48"/>
</a>
</g>
</g>
<!-- Node14 -->
<g id="Node000014" class="node">
<title>Node14</title>
<g id="a_Node000014"><a xlink:href="cue__editor_8h.html" target="_top" xlink:title=" ">
<polygon fill="white" stroke="#666666" points="198,-140 122,-140 122,-121 198,-121 198,-140"/>
<text text-anchor="middle" x="160" y="-128" font-family="Helvetica,sans-Serif" font-size="10.00">cue_editor.h</text>
</a>
</g>
</g>
<!-- Node13&#45;&gt;Node14 -->
<g id="edge13_Node000013_Node000014" class="edge">
<title>Node13&#45;&gt;Node14</title>
<g id="a_edge13_Node000013_Node000014"><a xlink:title=" ">
<path fill="none" stroke="#63b8ff" d="M394.98,-174.15C336.95,-163.62 248.61,-147.58 198.41,-138.47"/>
<polygon fill="#63b8ff" stroke="#63b8ff" points="394.62,-177.64 405.09,-175.98 395.87,-170.75 394.62,-177.64"/>
</a>
</g>
</g>
<!-- Node13&#45;&gt;Node18 -->
<g id="edge17_Node000013_Node000018" class="edge">
<title>Node13&#45;&gt;Node18</title>
<g id="a_edge17_Node000013_Node000018"><a xlink:title=" ">
<path fill="none" stroke="#63b8ff" d="M473.39,-170.15C487.67,-160.57 505.97,-148.29 518.08,-140.17"/>
<polygon fill="#63b8ff" stroke="#63b8ff" points="471.05,-167.51 464.69,-175.98 474.95,-173.32 471.05,-167.51"/>
</a>
</g>
</g>
<!-- Node15 -->
<g id="Node000015" class="node">
<title>Node15</title>
<g id="a_Node000015"><a xlink:href="audio__clip__editor_8h.html" target="_top" xlink:title=" ">
<polygon fill="white" stroke="#666666" points="108,-79.5 0,-79.5 0,-60.5 108,-60.5 108,-79.5"/>
<text text-anchor="middle" x="54" y="-67.5" font-family="Helvetica,sans-Serif" font-size="10.00">audio_clip_editor.h</text>
</a>
</g>
</g>
<!-- Node14&#45;&gt;Node15 -->
<g id="edge14_Node000014_Node000015" class="edge">
<title>Node14&#45;&gt;Node15</title>
<g id="a_edge14_Node000014_Node000015"><a xlink:title=" ">
<path fill="none" stroke="#63b8ff" d="M135.4,-115.92C115.14,-104.74 87.03,-89.23 69.7,-79.67"/>
<polygon fill="#63b8ff" stroke="#63b8ff" points="133.91,-119.1 144.36,-120.87 137.3,-112.97 133.91,-119.1"/>
</a>
</g>
</g>
<!-- Node17 -->
<g id="Node000017" class="node">
<title>Node17</title>
<g id="a_Node000017"><a xlink:href="pianoroll_8h.html" target="_top" xlink:title=" ">
<polygon fill="white" stroke="#666666" points="194,-79.5 126,-79.5 126,-60.5 194,-60.5 194,-79.5"/>
<text text-anchor="middle" x="160" y="-67.5" font-family="Helvetica,sans-Serif" font-size="10.00">pianoroll.h</text>
</a>
</g>
</g>
<!-- Node14&#45;&gt;Node17 -->
<g id="edge16_Node000014_Node000017" class="edge">
<title>Node14&#45;&gt;Node17</title>
<g id="a_edge16_Node000014_Node000017"><a xlink:title=" ">
<path fill="none" stroke="#63b8ff" d="M160,-110.66C160,-100.24 160,-87.8 160,-79.67"/>
<polygon fill="#63b8ff" stroke="#63b8ff" points="156.5,-110.87 160,-120.87 163.5,-110.87 156.5,-110.87"/>
</a>
</g>
</g>
<!-- Node16 -->
<g id="Node000016" class="node">
<title>Node16</title>
<g id="a_Node000016"><a xlink:href="trigger__page_8h.html" target="_top" xlink:title=" ">
<polygon fill="white" stroke="#666666" points="97.5,-19 10.5,-19 10.5,0 97.5,0 97.5,-19"/>
<text text-anchor="middle" x="54" y="-7" font-family="Helvetica,sans-Serif" font-size="10.00">trigger_page.h</text>
</a>
</g>
</g>
<!-- Node15&#45;&gt;Node16 -->
<g id="edge15_Node000015_Node000016" class="edge">
<title>Node15&#45;&gt;Node16</title>
<g id="a_edge15_Node000015_Node000016"><a xlink:title=" ">
<path fill="none" stroke="#63b8ff" d="M54,-50.16C54,-39.74 54,-27.3 54,-19.17"/>
<polygon fill="#63b8ff" stroke="#63b8ff" points="50.5,-50.37 54,-60.37 57.5,-50.37 50.5,-50.37"/>
</a>
</g>
</g>
<!-- Node19 -->
<g id="Node000019" class="node">
<title>Node19</title>
<g id="a_Node000019"><a xlink:href="editor_8h.html" target="_top" xlink:title=" ">
<polygon fill="white" stroke="#666666" points="557.5,-79.5 504.5,-79.5 504.5,-60.5 557.5,-60.5 557.5,-79.5"/>
<text text-anchor="middle" x="531" y="-67.5" font-family="Helvetica,sans-Serif" font-size="10.00">editor.h</text>
</a>
</g>
</g>
<!-- Node18&#45;&gt;Node19 -->
<g id="edge18_Node000018_Node000019" class="edge">
<title>Node18&#45;&gt;Node19</title>
<g id="a_edge18_Node000018_Node000019"><a xlink:title=" ">
<path fill="none" stroke="#63b8ff" d="M531,-110.66C531,-100.24 531,-87.8 531,-79.67"/>
<polygon fill="#63b8ff" stroke="#63b8ff" points="527.5,-110.87 531,-120.87 534.5,-110.87 527.5,-110.87"/>
</a>
</g>
</g>
<!-- Node20 -->
<g id="Node000020" class="node">
<title>Node20</title>
<g id="a_Node000020"><a xlink:href="export__dialog_8h.html" target="_top" xlink:title=" ">
<polygon fill="white" stroke="#666666" points="668,-79.5 576,-79.5 576,-60.5 668,-60.5 668,-79.5"/>
<text text-anchor="middle" x="622" y="-67.5" font-family="Helvetica,sans-Serif" font-size="10.00">export_dialog.h</text>
</a>
</g>
</g>
<!-- Node18&#45;&gt;Node20 -->
<g id="edge19_Node000018_Node000020" class="edge">
<title>Node18&#45;&gt;Node20</title>
<g id="a_edge19_Node000018_Node000020"><a xlink:title=" ">
<path fill="none" stroke="#63b8ff" d="M553.31,-115.16C570.6,-104.05 593.98,-89.01 608.52,-79.67"/>
<polygon fill="#63b8ff" stroke="#63b8ff" points="550.95,-112.52 544.43,-120.87 554.73,-118.4 550.95,-112.52"/>
</a>
</g>
</g>
<!-- Node21 -->
<g id="Node000021" class="node">
<title>Node21</title>
<g id="a_Node000021"><a xlink:href="insert__remove__time__dialog_8h.html" target="_top" xlink:title=" ">
<polygon fill="white" stroke="#666666" points="801.5,-85 686.5,-85 686.5,-55 801.5,-55 801.5,-85"/>
<text text-anchor="start" x="694.5" y="-73" font-family="Helvetica,sans-Serif" font-size="10.00">insert_remove_time</text>
<text text-anchor="middle" x="744" y="-62" font-family="Helvetica,sans-Serif" font-size="10.00">_dialog.h</text>
</a>
</g>
</g>
<!-- Node18&#45;&gt;Node21 -->
<g id="edge20_Node000018_Node000021" class="edge">
<title>Node18&#45;&gt;Node21</title>
<g id="a_edge20_Node000018_Node000021"><a xlink:title=" ">
<path fill="none" stroke="#63b8ff" d="M571.7,-118.32C606.14,-108.86 655.67,-95.26 692.79,-85.06"/>
<polygon fill="#63b8ff" stroke="#63b8ff" points="570.69,-114.97 561.97,-120.99 572.54,-121.72 570.69,-114.97"/>
</a>
</g>
</g>
<!-- Node22 -->
<g id="Node000022" class="node">
<title>Node22</title>
<g id="a_Node000022"><a xlink:href="midi__export__dialog_8h.html" target="_top" xlink:title=" ">
<polygon fill="white" stroke="#666666" points="938.5,-79.5 819.5,-79.5 819.5,-60.5 938.5,-60.5 938.5,-79.5"/>
<text text-anchor="middle" x="879" y="-67.5" font-family="Helvetica,sans-Serif" font-size="10.00">midi_export_dialog.h</text>
</a>
</g>
</g>
<!-- Node18&#45;&gt;Node22 -->
<g id="edge21_Node000018_Node000022" class="edge">
<title>Node18&#45;&gt;Node22</title>
<g id="a_edge21_Node000018_Node000022"><a xlink:title=" ">
<path fill="none" stroke="#63b8ff" d="M585.17,-121.55C641.47,-113.12 732.08,-99.11 810,-85 819.26,-83.32 829.19,-81.39 838.56,-79.5"/>
<polygon fill="#63b8ff" stroke="#63b8ff" points="584.44,-118.12 575.07,-123.06 585.48,-125.04 584.44,-118.12"/>
</a>
</g>
</g>
<!-- Node23 -->
<g id="Node000023" class="node">
<title>Node23</title>
<g id="a_Node000023"><a xlink:href="simple__export__dialog_8h.html" target="_top" xlink:title=" ">
<polygon fill="white" stroke="#666666" points="343.5,-79.5 212.5,-79.5 212.5,-60.5 343.5,-60.5 343.5,-79.5"/>
<text text-anchor="middle" x="278" y="-67.5" font-family="Helvetica,sans-Serif" font-size="10.00">simple_export_dialog.h</text>
</a>
</g>
</g>
<!-- Node18&#45;&gt;Node23 -->
<g id="edge22_Node000018_Node000023" class="edge">
<title>Node18&#45;&gt;Node23</title>
<g id="a_edge22_Node000018_Node000023"><a xlink:title=" ">
<path fill="none" stroke="#63b8ff" d="M484.21,-118.68C435.32,-107.38 359.63,-89.88 314.83,-79.52"/>
<polygon fill="#63b8ff" stroke="#63b8ff" points="483.68,-122.15 494.21,-120.99 485.26,-115.33 483.68,-122.15"/>
</a>
</g>
</g>
<!-- Node24 -->
<g id="Node000024" class="node">
<title>Node24</title>
<g id="a_Node000024"><a xlink:href="tempo__map__change_8h.html" target="_top" xlink:title=" ">
<polygon fill="white" stroke="#666666" points="486.5,-79.5 361.5,-79.5 361.5,-60.5 486.5,-60.5 486.5,-79.5"/>
<text text-anchor="middle" x="424" y="-67.5" font-family="Helvetica,sans-Serif" font-size="10.00">tempo_map_change.h</text>
</a>
</g>
</g>
<!-- Node18&#45;&gt;Node24 -->
<g id="edge23_Node000018_Node000024" class="edge">
<title>Node18&#45;&gt;Node24</title>
<g id="a_edge23_Node000018_Node000024"><a xlink:title=" ">
<path fill="none" stroke="#63b8ff" d="M506.17,-115.92C485.72,-104.74 457.34,-89.23 439.85,-79.67"/>
<polygon fill="#63b8ff" stroke="#63b8ff" points="504.76,-119.14 515.21,-120.87 508.12,-113 504.76,-119.14"/>
</a>
</g>
</g>
<!-- Node28&#45;&gt;Node29 -->
<g id="edge29_Node000028_Node000029" class="edge">
<title>Node28&#45;&gt;Node29</title>
<g id="a_edge29_Node000028_Node000029"><a xlink:title=" ">
<path fill="none" stroke="#63b8ff" d="M301.85,-445.15C315.76,-435.57 333.61,-423.29 345.4,-415.17"/>
<polygon fill="#63b8ff" stroke="#63b8ff" points="299.62,-442.43 293.37,-450.98 303.59,-448.2 299.62,-442.43"/>
</a>
</g>
</g>
<!-- Node29&#45;&gt;Node9 -->
<g id="edge32_Node000029_Node000009" class="edge">
<title>Node29&#45;&gt;Node9</title>
<g id="a_edge32_Node000029_Node000009"><a xlink:title=" ">
<path fill="none" stroke="#63b8ff" d="M380.66,-390.7C396.51,-381.04 417.19,-368.44 430.77,-360.17"/>
<polygon fill="#63b8ff" stroke="#63b8ff" points="378.7,-387.79 371.98,-395.98 382.34,-393.77 378.7,-387.79"/>
</a>
</g>
</g>
<!-- Node30 -->
<g id="Node000030" class="node">
<title>Node30</title>
<g id="a_Node000030"><a xlink:href="midi__region__view_8h.html" target="_top" xlink:title=" ">
<polygon fill="white" stroke="#666666" points="381.5,-305 270.5,-305 270.5,-286 381.5,-286 381.5,-305"/>
<text text-anchor="middle" x="326" y="-293" font-family="Helvetica,sans-Serif" font-size="10.00">midi_region_view.h</text>
</a>
</g>
</g>
<!-- Node29&#45;&gt;Node30 -->
<g id="edge30_Node000029_Node000030" class="edge">
<title>Node29&#45;&gt;Node30</title>
<g id="a_edge30_Node000029_Node000030"><a xlink:title=" ">
<path fill="none" stroke="#63b8ff" d="M352.46,-385.8C345.47,-362.2 333.73,-322.58 328.57,-305.16"/>
<polygon fill="#63b8ff" stroke="#63b8ff" points="349.18,-387.07 355.38,-395.66 355.9,-385.08 349.18,-387.07"/>
</a>
</g>
</g>
<!-- Node30&#45;&gt;Node26 -->
<g id="edge31_Node000030_Node000026" class="edge">
<title>Node30&#45;&gt;Node26</title>
<g id="a_edge31_Node000030_Node000026"><a xlink:title=" ">
<path fill="none" stroke="#63b8ff" d="M325.12,-275.48C324.03,-251.84 322.2,-212.5 321.4,-195.16"/>
<polygon fill="#63b8ff" stroke="#63b8ff" points="321.63,-275.83 325.59,-285.66 328.62,-275.51 321.63,-275.83"/>
</a>
</g>
</g>
<!-- Node32 -->
<g id="Node000032" class="node">
<title>Node32</title>
<g id="a_Node000032"><a xlink:href="processor__box_8h.html" target="_top" xlink:title=" ">
<polygon fill="white" stroke="#666666" points="797,-470 701,-470 701,-451 797,-451 797,-470"/>
<text text-anchor="middle" x="749" y="-458" font-family="Helvetica,sans-Serif" font-size="10.00">processor_box.h</text>
</a>
</g>
</g>
<!-- Node31&#45;&gt;Node32 -->
<g id="edge35_Node000031_Node000032" class="edge">
<title>Node31&#45;&gt;Node32</title>
<g id="a_edge35_Node000031_Node000032"><a xlink:title=" ">
<path fill="none" stroke="#63b8ff" d="M576.33,-504.26C616.49,-494.32 676.77,-479.39 714.45,-470.06"/>
<polygon fill="#63b8ff" stroke="#63b8ff" points="575.44,-500.88 566.58,-506.68 577.12,-507.67 575.44,-500.88"/>
</a>
</g>
</g>
<!-- Node32&#45;&gt;Node3 -->
<g id="edge37_Node000032_Node000003" class="edge">
<title>Node32&#45;&gt;Node3</title>
<g id="a_edge37_Node000032_Node000003"><a xlink:title=" ">
<path fill="none" stroke="#63b8ff" d="M768.04,-444.88C780.46,-435.34 796.24,-423.21 806.71,-415.17"/>
<polygon fill="#63b8ff" stroke="#63b8ff" points="765.88,-442.12 760.09,-450.98 770.15,-447.67 765.88,-442.12"/>
</a>
</g>
</g>
<!-- Node33 -->
<g id="Node000033" class="node">
<title>Node33</title>
<g id="a_Node000033"><a xlink:href="foldback__strip_8h.html" target="_top" xlink:title=" ">
<polygon fill="white" stroke="#666666" points="759.5,-415 664.5,-415 664.5,-396 759.5,-396 759.5,-415"/>
<text text-anchor="middle" x="712" y="-403" font-family="Helvetica,sans-Serif" font-size="10.00">foldback_strip.h</text>
</a>
</g>
</g>
<!-- Node32&#45;&gt;Node33 -->
<g id="edge36_Node000032_Node000033" class="edge">
<title>Node32&#45;&gt;Node33</title>
<g id="a_edge36_Node000032_Node000033"><a xlink:title=" ">
<path fill="none" stroke="#63b8ff" d="M737.05,-442.39C730.69,-433.27 723.13,-422.45 718,-415.09"/>
<polygon fill="#63b8ff" stroke="#63b8ff" points="734.3,-444.55 742.89,-450.75 740.04,-440.55 734.3,-444.55"/>
</a>
</g>
</g>
<!-- Node32&#45;&gt;Node34 -->
<g id="edge38_Node000032_Node000034" class="edge">
<title>Node32&#45;&gt;Node34</title>
<g id="a_edge38_Node000032_Node000034"><a xlink:title=" ">
<path fill="none" stroke="#63b8ff" d="M787.65,-448.06C821.11,-438.15 868.75,-424.04 899.02,-415.08"/>
<polygon fill="#63b8ff" stroke="#63b8ff" points="786.35,-444.79 777.76,-450.98 788.34,-451.5 786.35,-444.79"/>
</a>
</g>
</g>
<!-- Node36 -->
<g id="Node000036" class="node">
<title>Node36</title>
<g id="a_Node000036"><a xlink:href="route__params__ui_8h.html" target="_top" xlink:title=" ">
<polygon fill="white" stroke="#666666" points="646.5,-415 539.5,-415 539.5,-396 646.5,-396 646.5,-415"/>
<text text-anchor="middle" x="593" y="-403" font-family="Helvetica,sans-Serif" font-size="10.00">route_params_ui.h</text>
</a>
</g>
</g>
<!-- Node32&#45;&gt;Node36 -->
<g id="edge40_Node000032_Node000036" class="edge">
<title>Node32&#45;&gt;Node36</title>
<g id="a_edge40_Node000032_Node000036"><a xlink:title=" ">
<path fill="none" stroke="#63b8ff" d="M714.18,-447.67C685.09,-437.79 644.3,-423.93 618.26,-415.08"/>
<polygon fill="#63b8ff" stroke="#63b8ff" points="713.34,-451.08 723.94,-450.98 715.59,-444.45 713.34,-451.08"/>
</a>
</g>
</g>
<!-- Node32&#45;&gt;Node37 -->
<g id="edge41_Node000032_Node000037" class="edge">
<title>Node32&#45;&gt;Node37</title>
<g id="a_edge41_Node000032_Node000037"><a xlink:title=" ">
<path fill="none" stroke="#63b8ff" d="M805.76,-449.2C862.23,-438.95 947.6,-423.45 998.47,-414.22"/>
<polygon fill="#63b8ff" stroke="#63b8ff" points="805.13,-445.75 795.91,-450.98 806.38,-452.64 805.13,-445.75"/>
</a>
</g>
</g>
<!-- Node35 -->
<g id="Node000035" class="node">
<title>Node35</title>
<g id="a_Node000035"><a xlink:href="mixer__ui_8h.html" target="_top" xlink:title=" ">
<polygon fill="white" stroke="#666666" points="962,-360 894,-360 894,-341 962,-341 962,-360"/>
<text text-anchor="middle" x="928" y="-348" font-family="Helvetica,sans-Serif" font-size="10.00">mixer_ui.h</text>
</a>
</g>
</g>
<!-- Node34&#45;&gt;Node35 -->
<g id="edge39_Node000034_Node000035" class="edge">
<title>Node34&#45;&gt;Node35</title>
<g id="a_edge39_Node000034_Node000035"><a xlink:title=" ">
<path fill="none" stroke="#63b8ff" d="M928,-385.66C928,-376.93 928,-366.99 928,-360.09"/>
<polygon fill="#63b8ff" stroke="#63b8ff" points="924.5,-385.75 928,-395.75 931.5,-385.75 924.5,-385.75"/>
</a>
</g>
</g>
<!-- Node41 -->
<g id="Node000041" class="node">
<title>Node41</title>
<g id="a_Node000041"><a xlink:href="meterbridge_8h.html" target="_top" xlink:title=" ">
<polygon fill="white" stroke="#666666" points="1137,-525 1051,-525 1051,-506 1137,-506 1137,-525"/>
<text text-anchor="middle" x="1094" y="-513" font-family="Helvetica,sans-Serif" font-size="10.00">meterbridge.h</text>
</a>
</g>
</g>
<!-- Node40&#45;&gt;Node41 -->
<g id="edge45_Node000040_Node000041" class="edge">
<title>Node40&#45;&gt;Node41</title>
<g id="a_edge45_Node000040_Node000041"><a xlink:title=" ">
<path fill="none" stroke="#63b8ff" d="M1092.71,-550.66C1093.04,-541.93 1093.42,-531.99 1093.68,-525.09"/>
<polygon fill="#63b8ff" stroke="#63b8ff" points="1089.21,-550.62 1092.33,-560.75 1096.2,-550.89 1089.21,-550.62"/>
</a>
</g>
</g>
</g>
</svg>

<g id="navigator" transform="translate(0 0)" fill="#404254">
  <rect fill="#f2f5e9" fill-opacity="0.5" stroke="#606060" stroke-width=".5" x="0" y="0" width="60" height="60"/>
  <use id="zoomplus" xlink:href="#zoomPlus" x="17" y="9" onmousedown="handleZoom(evt,'in')"/>
  <use id="zoomminus" xlink:href="#zoomMin" x="42" y="9" onmousedown="handleZoom(evt,'out')"/>
  <use id="reset" xlink:href="#resetDef" x="30" y="36" onmousedown="handleReset()"/>
   <use id="arrowup" xlink:href="#arrowUp" x="0" y="0" onmousedown="handlePan(0,-1)"/>
  <use id="arrowright" xlink:href="#arrowRight" x="0" y="0" onmousedown="handlePan(1,0)"/>
  <use id="arrowdown" xlink:href="#arrowDown" x="0" y="0" onmousedown="handlePan(0,1)"/>
  <use id="arrowleft" xlink:href="#arrowLeft" x="0" y="0" onmousedown="handlePan(-1,0)"/>
</g>
<svg viewBox="0 0 15 15" width="100%" height="30px" preserveAspectRatio="xMaxYMin meet">
 <g id="arrow_out" transform="scale(0.3 0.3)">
  <a xlink:href="gtk2__ardour_2level__meter_8h__dep__incl_org.svg" target="_base">
   <rect id="button" ry="5" rx="5" y="6" x="6" height="38" width="38"
        fill="#f2f5e9" fill-opacity="0.5" stroke="#606060" stroke-width="1.0"/>
   <path id="arrow"
     d="M 11.500037,31.436501 C 11.940474,20.09759 22.043105,11.32322 32.158766,21.979434 L 37.068811,17.246167 C 37.068811,17.246167 37.088388,32 37.088388,32 L 22.160133,31.978069 C 22.160133,31.978069 26.997745,27.140456 26.997745,27.140456 C 18.528582,18.264221 13.291696,25.230495 11.500037,31.436501 z"
     style="fill:#404040;"/>
  </a>
 </g>
</svg>

<style type='text/css'>
<![CDATA[
[data-mouse-over-selected='false'] { opacity: 0.7; }
[data-mouse-over-selected='true']  { opacity: 1.0; }
]]>
</style>
<script type="application/ecmascript"><![CDATA[
document.addEventListener('DOMContentLoaded', (event) => {
  highlightEdges();
  highlightAdjacentNodes();
});
]]></script>
</svg>
