<?xml version="1.0" encoding="UTF-8" standalone="no"?>
<!DOCTYPE svg PUBLIC "-//W3C//DTD SVG 1.1//EN"
 "http://www.w3.org/Graphics/SVG/1.1/DTD/svg11.dtd">
<!-- Generated by graphviz version 2.43.0 (0)
 -->
<!-- Title: gtkfilesystemmodel.h Pages: 1 -->
<svg width="543pt" height="302pt"
 viewBox="0.00 0.00 542.50 302.00" xmlns="http://www.w3.org/2000/svg" xmlns:xlink="http://www.w3.org/1999/xlink">
<g id="graph0" class="graph" transform="scale(1 1) rotate(0) translate(4 298)">
<title>gtkfilesystemmodel.h</title>
<!-- Node1 -->
<g id="Node000001" class="node">
<title>Node1</title>
<g id="a_Node000001"><a xlink:title=" ">
<polygon fill="#999999" stroke="#666666" points="149,-294 26,-294 26,-275 149,-275 149,-294"/>
<text text-anchor="middle" x="87.5" y="-282" font-family="Helvetica,sans-Serif" font-size="10.00">gtkfilesystemmodel.h</text>
</a>
</g>
</g>
<!-- Node2 -->
<g id="Node000002" class="node">
<title>Node2</title>
<g id="a_Node000002"><a xlink:title=" ">
<polygon fill="#e0e0e0" stroke="#999999" points="59,-239 0,-239 0,-220 59,-220 59,-239"/>
<text text-anchor="middle" x="29.5" y="-227" font-family="Helvetica,sans-Serif" font-size="10.00">gio/gio.h</text>
</a>
</g>
</g>
<!-- Node1&#45;&gt;Node2 -->
<g id="edge1_Node000001_Node000002" class="edge">
<title>Node1&#45;&gt;Node2</title>
<g id="a_edge1_Node000001_Node000002"><a xlink:title=" ">
<path fill="none" stroke="#63b8ff" d="M78.18,-274.98C69.69,-267.23 56.94,-255.58 46.62,-246.14"/>
<polygon fill="#63b8ff" stroke="#63b8ff" points="48.73,-243.33 38.99,-239.17 44.01,-248.5 48.73,-243.33"/>
</a>
</g>
</g>
<!-- Node3 -->
<g id="Node000003" class="node">
<title>Node3</title>
<g id="a_Node000003"><a xlink:href="gtkfilefilter_8h.html" target="_top" xlink:title=" ">
<polygon fill="white" stroke="#666666" points="136,-184 39,-184 39,-165 136,-165 136,-184"/>
<text text-anchor="middle" x="87.5" y="-172" font-family="Helvetica,sans-Serif" font-size="10.00">ytk/gtkfilefilter.h</text>
</a>
</g>
</g>
<!-- Node1&#45;&gt;Node3 -->
<g id="edge2_Node000001_Node000003" class="edge">
<title>Node1&#45;&gt;Node3</title>
<g id="a_edge2_Node000001_Node000003"><a xlink:title=" ">
<path fill="none" stroke="#63b8ff" d="M87.5,-274.66C87.5,-257.17 87.5,-217.8 87.5,-194.27"/>
<polygon fill="#63b8ff" stroke="#63b8ff" points="91,-194.16 87.5,-184.16 84,-194.16 91,-194.16"/>
</a>
</g>
</g>
<!-- Node5 -->
<g id="Node000005" class="node">
<title>Node5</title>
<g id="a_Node000005"><a xlink:href="gtktreemodel_8h.html" target="_top" xlink:title=" ">
<polygon fill="white" stroke="#666666" points="225.5,-239 115.5,-239 115.5,-220 225.5,-220 225.5,-239"/>
<text text-anchor="middle" x="170.5" y="-227" font-family="Helvetica,sans-Serif" font-size="10.00">ytk/gtktreemodel.h</text>
</a>
</g>
</g>
<!-- Node1&#45;&gt;Node5 -->
<g id="edge4_Node000001_Node000005" class="edge">
<title>Node1&#45;&gt;Node5</title>
<g id="a_edge4_Node000001_Node000005"><a xlink:title=" ">
<path fill="none" stroke="#63b8ff" d="M100.84,-274.98C113.59,-266.84 133.05,-254.41 148.17,-244.76"/>
<polygon fill="#63b8ff" stroke="#63b8ff" points="150.38,-247.5 156.92,-239.17 146.61,-241.6 150.38,-247.5"/>
</a>
</g>
</g>
<!-- Node4 -->
<g id="Node000004" class="node">
<title>Node4</title>
<g id="a_Node000004"><a xlink:title=" ">
<polygon fill="#e0e0e0" stroke="#999999" points="242,-19 165,-19 165,0 242,0 242,-19"/>
<text text-anchor="middle" x="203.5" y="-7" font-family="Helvetica,sans-Serif" font-size="10.00">glib&#45;object.h</text>
</a>
</g>
</g>
<!-- Node3&#45;&gt;Node4 -->
<g id="edge3_Node000003_Node000004" class="edge">
<title>Node3&#45;&gt;Node4</title>
<g id="a_edge3_Node000003_Node000004"><a xlink:title=" ">
<path fill="none" stroke="#63b8ff" d="M90.77,-164.79C98.78,-144.21 120.89,-91.58 150.5,-55 159.59,-43.76 171.85,-33.26 182.28,-25.28"/>
<polygon fill="#63b8ff" stroke="#63b8ff" points="184.54,-27.97 190.51,-19.21 180.38,-22.33 184.54,-27.97"/>
</a>
</g>
</g>
<!-- Node5&#45;&gt;Node4 -->
<g id="edge5_Node000005_Node000004" class="edge">
<title>Node5&#45;&gt;Node4</title>
<g id="a_edge5_Node000005_Node000004"><a xlink:title=" ">
<path fill="none" stroke="#63b8ff" d="M170.6,-219.71C171.04,-194.03 173.54,-117.01 187.5,-55 189.51,-46.09 192.79,-36.52 195.86,-28.55"/>
<polygon fill="#63b8ff" stroke="#63b8ff" points="199.15,-29.76 199.65,-19.17 192.66,-27.13 199.15,-29.76"/>
</a>
</g>
</g>
<!-- Node6 -->
<g id="Node000006" class="node">
<title>Node6</title>
<g id="a_Node000006"><a xlink:href="gtkobject_8h.html" target="_top" xlink:title=" ">
<polygon fill="white" stroke="#666666" points="339,-184 250,-184 250,-165 339,-165 339,-184"/>
<text text-anchor="middle" x="294.5" y="-172" font-family="Helvetica,sans-Serif" font-size="10.00">ytk/gtkobject.h</text>
</a>
</g>
</g>
<!-- Node5&#45;&gt;Node6 -->
<g id="edge6_Node000005_Node000006" class="edge">
<title>Node5&#45;&gt;Node6</title>
<g id="a_edge6_Node000005_Node000006"><a xlink:title=" ">
<path fill="none" stroke="#63b8ff" d="M190.42,-219.98C210.55,-211.38 241.88,-197.99 264.91,-188.15"/>
<polygon fill="#63b8ff" stroke="#63b8ff" points="266.4,-191.32 274.21,-184.17 263.64,-184.88 266.4,-191.32"/>
</a>
</g>
</g>
<!-- Node7 -->
<g id="Node000007" class="node">
<title>Node7</title>
<g id="a_Node000007"><a xlink:title=" ">
<polygon fill="#e0e0e0" stroke="#999999" points="266,-129 193,-129 193,-110 266,-110 266,-129"/>
<text text-anchor="middle" x="229.5" y="-117" font-family="Helvetica,sans-Serif" font-size="10.00">gdkconfig.h</text>
</a>
</g>
</g>
<!-- Node6&#45;&gt;Node7 -->
<g id="edge7_Node000006_Node000007" class="edge">
<title>Node6&#45;&gt;Node7</title>
<g id="a_edge7_Node000006_Node000007"><a xlink:title=" ">
<path fill="none" stroke="#63b8ff" d="M284.06,-164.98C274.35,-157.07 259.68,-145.11 248,-135.58"/>
<polygon fill="#63b8ff" stroke="#63b8ff" points="250.1,-132.78 240.13,-129.17 245.67,-138.2 250.1,-132.78"/>
</a>
</g>
</g>
<!-- Node8 -->
<g id="Node000008" class="node">
<title>Node8</title>
<g id="a_Node000008"><a xlink:href="gtkenums_8h.html" target="_top" xlink:title=" ">
<polygon fill="white" stroke="#666666" points="288.5,-74 196.5,-74 196.5,-55 288.5,-55 288.5,-74"/>
<text text-anchor="middle" x="242.5" y="-62" font-family="Helvetica,sans-Serif" font-size="10.00">ytk/gtkenums.h</text>
</a>
</g>
</g>
<!-- Node6&#45;&gt;Node8 -->
<g id="edge8_Node000006_Node000008" class="edge">
<title>Node6&#45;&gt;Node8</title>
<g id="a_edge8_Node000006_Node000008"><a xlink:title=" ">
<path fill="none" stroke="#63b8ff" d="M292.92,-164.93C290.4,-152.39 284.78,-128.52 275.5,-110 270.5,-100.02 263.25,-89.95 256.82,-81.91"/>
<polygon fill="#63b8ff" stroke="#63b8ff" points="259.4,-79.54 250.31,-74.1 254.03,-84.02 259.4,-79.54"/>
</a>
</g>
</g>
<!-- Node9 -->
<g id="Node000009" class="node">
<title>Node9</title>
<g id="a_Node000009"><a xlink:href="gtktypeutils_8h.html" target="_top" xlink:title=" ">
<polygon fill="white" stroke="#666666" points="426,-129 323,-129 323,-110 426,-110 426,-129"/>
<text text-anchor="middle" x="374.5" y="-117" font-family="Helvetica,sans-Serif" font-size="10.00">ytk/gtktypeutils.h</text>
</a>
</g>
</g>
<!-- Node6&#45;&gt;Node9 -->
<g id="edge10_Node000006_Node000009" class="edge">
<title>Node6&#45;&gt;Node9</title>
<g id="a_edge10_Node000006_Node000009"><a xlink:title=" ">
<path fill="none" stroke="#63b8ff" d="M307.35,-164.98C319.64,-156.84 338.41,-144.41 352.98,-134.76"/>
<polygon fill="#63b8ff" stroke="#63b8ff" points="355.01,-137.61 361.41,-129.17 351.14,-131.78 355.01,-137.61"/>
</a>
</g>
</g>
<!-- Node11 -->
<g id="Node000011" class="node">
<title>Node11</title>
<g id="a_Node000011"><a xlink:href="gtkdebug_8h.html" target="_top" xlink:title=" ">
<polygon fill="white" stroke="#666666" points="534.5,-129 444.5,-129 444.5,-110 534.5,-110 534.5,-129"/>
<text text-anchor="middle" x="489.5" y="-117" font-family="Helvetica,sans-Serif" font-size="10.00">ytk/gtkdebug.h</text>
</a>
</g>
</g>
<!-- Node6&#45;&gt;Node11 -->
<g id="edge13_Node000006_Node000011" class="edge">
<title>Node6&#45;&gt;Node11</title>
<g id="a_edge13_Node000006_Node000011"><a xlink:title=" ">
<path fill="none" stroke="#63b8ff" d="M325.83,-164.98C358.99,-155.97 411.5,-141.7 448.06,-131.76"/>
<polygon fill="#63b8ff" stroke="#63b8ff" points="449.19,-135.08 457.92,-129.08 447.36,-128.33 449.19,-135.08"/>
</a>
</g>
</g>
<!-- Node8&#45;&gt;Node4 -->
<g id="edge9_Node000008_Node000004" class="edge">
<title>Node8&#45;&gt;Node4</title>
<g id="a_edge9_Node000008_Node000004"><a xlink:title=" ">
<path fill="none" stroke="#63b8ff" d="M236.06,-54.75C230.61,-47.34 222.64,-36.5 215.94,-27.41"/>
<polygon fill="#63b8ff" stroke="#63b8ff" points="218.57,-25.07 209.82,-19.09 212.93,-29.22 218.57,-25.07"/>
</a>
</g>
</g>
<!-- Node10 -->
<g id="Node000010" class="node">
<title>Node10</title>
<g id="a_Node000010"><a xlink:href="gtktypebuiltins_8h.html" target="_top" xlink:title=" ">
<polygon fill="white" stroke="#666666" points="427.5,-74 309.5,-74 309.5,-55 427.5,-55 427.5,-74"/>
<text text-anchor="middle" x="368.5" y="-62" font-family="Helvetica,sans-Serif" font-size="10.00">ytk/gtktypebuiltins.h</text>
</a>
</g>
</g>
<!-- Node9&#45;&gt;Node10 -->
<g id="edge11_Node000009_Node000010" class="edge">
<title>Node9&#45;&gt;Node10</title>
<g id="a_edge11_Node000009_Node000010"><a xlink:title=" ">
<path fill="none" stroke="#63b8ff" d="M373.51,-109.75C372.72,-102.8 371.6,-92.85 370.61,-84.13"/>
<polygon fill="#63b8ff" stroke="#63b8ff" points="374.08,-83.63 369.47,-74.09 367.12,-84.42 374.08,-83.63"/>
</a>
</g>
</g>
<!-- Node10&#45;&gt;Node4 -->
<g id="edge12_Node000010_Node000004" class="edge">
<title>Node10&#45;&gt;Node4</title>
<g id="a_edge12_Node000010_Node000004"><a xlink:title=" ">
<path fill="none" stroke="#63b8ff" d="M341.99,-54.98C314.29,-46.09 270.64,-32.07 239.76,-22.15"/>
<polygon fill="#63b8ff" stroke="#63b8ff" points="240.81,-18.81 230.22,-19.08 238.67,-25.47 240.81,-18.81"/>
</a>
</g>
</g>
<!-- Node12 -->
<g id="Node000012" class="node">
<title>Node12</title>
<g id="a_Node000012"><a xlink:title=" ">
<polygon fill="#e0e0e0" stroke="#999999" points="511.5,-74 467.5,-74 467.5,-55 511.5,-55 511.5,-74"/>
<text text-anchor="middle" x="489.5" y="-62" font-family="Helvetica,sans-Serif" font-size="10.00">glib.h</text>
</a>
</g>
</g>
<!-- Node11&#45;&gt;Node12 -->
<g id="edge14_Node000011_Node000012" class="edge">
<title>Node11&#45;&gt;Node12</title>
<g id="a_edge14_Node000011_Node000012"><a xlink:title=" ">
<path fill="none" stroke="#63b8ff" d="M489.5,-109.75C489.5,-102.8 489.5,-92.85 489.5,-84.13"/>
<polygon fill="#63b8ff" stroke="#63b8ff" points="493,-84.09 489.5,-74.09 486,-84.09 493,-84.09"/>
</a>
</g>
</g>
</g>
</svg>
