<?xml version="1.0" encoding="UTF-8" standalone="no"?>
<!DOCTYPE svg PUBLIC "-//W3C//DTD SVG 1.1//EN"
 "http://www.w3.org/Graphics/SVG/1.1/DTD/svg11.dtd">
<!-- Generated by graphviz version 2.43.0 (0)
 -->
<!-- Title: gtkfilesystem.h Pages: 1 -->
<svg width="518pt" height="137pt"
 viewBox="0.00 0.00 517.50 137.00" xmlns="http://www.w3.org/2000/svg" xmlns:xlink="http://www.w3.org/1999/xlink">
<g id="graph0" class="graph" transform="scale(1 1) rotate(0) translate(4 133)">
<title>gtkfilesystem.h</title>
<!-- Node1 -->
<g id="Node000001" class="node">
<title>Node1</title>
<g id="a_Node000001"><a xlink:title=" ">
<polygon fill="#999999" stroke="#666666" points="323.5,-129 231.5,-129 231.5,-110 323.5,-110 323.5,-129"/>
<text text-anchor="middle" x="277.5" y="-117" font-family="Helvetica,sans-Serif" font-size="10.00">gtkfilesystem.h</text>
</a>
</g>
</g>
<!-- Node2 -->
<g id="Node000002" class="node">
<title>Node2</title>
<g id="a_Node000002"><a xlink:href="gtkfilechooserdefault_8h.html" target="_top" xlink:title=" ">
<polygon fill="white" stroke="#666666" points="129,-74 0,-74 0,-55 129,-55 129,-74"/>
<text text-anchor="middle" x="64.5" y="-62" font-family="Helvetica,sans-Serif" font-size="10.00">gtkfilechooserdefault.h</text>
</a>
</g>
</g>
<!-- Node1&#45;&gt;Node2 -->
<g id="edge1_Node000001_Node000002" class="edge">
<title>Node1&#45;&gt;Node2</title>
<g id="a_edge1_Node000001_Node000002"><a xlink:title=" ">
<path fill="none" stroke="#63b8ff" d="M233.55,-107.56C193.66,-97.64 135.63,-83.2 98.99,-74.08"/>
<polygon fill="#63b8ff" stroke="#63b8ff" points="232.73,-110.97 243.28,-109.98 234.42,-104.17 232.73,-110.97"/>
</a>
</g>
</g>
<!-- Node3 -->
<g id="Node000003" class="node">
<title>Node3</title>
<g id="a_Node000003"><a xlink:href="gtkfilechooserentry_8h.html" target="_top" xlink:title=" ">
<polygon fill="white" stroke="#666666" points="266,-74 147,-74 147,-55 266,-55 266,-74"/>
<text text-anchor="middle" x="206.5" y="-62" font-family="Helvetica,sans-Serif" font-size="10.00">gtkfilechooserentry.h</text>
</a>
</g>
</g>
<!-- Node1&#45;&gt;Node3 -->
<g id="edge2_Node000001_Node000003" class="edge">
<title>Node1&#45;&gt;Node3</title>
<g id="a_edge2_Node000001_Node000003"><a xlink:title=" ">
<path fill="none" stroke="#63b8ff" d="M257.91,-103.88C245.13,-94.34 228.89,-82.21 218.11,-74.17"/>
<polygon fill="#63b8ff" stroke="#63b8ff" points="255.99,-106.81 266.09,-109.98 260.17,-101.2 255.99,-106.81"/>
</a>
</g>
</g>
<!-- Node4 -->
<g id="Node000004" class="node">
<title>Node4</title>
<g id="a_Node000004"><a xlink:href="gtkfilechooserprivate_8h.html" target="_top" xlink:title=" ">
<polygon fill="white" stroke="#666666" points="413,-74 284,-74 284,-55 413,-55 413,-74"/>
<text text-anchor="middle" x="348.5" y="-62" font-family="Helvetica,sans-Serif" font-size="10.00">gtkfilechooserprivate.h</text>
</a>
</g>
</g>
<!-- Node1&#45;&gt;Node4 -->
<g id="edge3_Node000001_Node000004" class="edge">
<title>Node1&#45;&gt;Node4</title>
<g id="a_edge3_Node000001_Node000004"><a xlink:title=" ">
<path fill="none" stroke="#63b8ff" d="M297.09,-103.88C309.87,-94.34 326.11,-82.21 336.89,-74.17"/>
<polygon fill="#63b8ff" stroke="#63b8ff" points="294.83,-101.2 288.91,-109.98 299.01,-106.81 294.83,-101.2"/>
</a>
</g>
</g>
<!-- Node7 -->
<g id="Node000007" class="node">
<title>Node7</title>
<g id="a_Node000007"><a xlink:href="gtkpathbar_8h.html" target="_top" xlink:title=" ">
<polygon fill="white" stroke="#666666" points="509.5,-74 431.5,-74 431.5,-55 509.5,-55 509.5,-74"/>
<text text-anchor="middle" x="470.5" y="-62" font-family="Helvetica,sans-Serif" font-size="10.00">gtkpathbar.h</text>
</a>
</g>
</g>
<!-- Node1&#45;&gt;Node7 -->
<g id="edge6_Node000001_Node000007" class="edge">
<title>Node1&#45;&gt;Node7</title>
<g id="a_edge6_Node000001_Node000007"><a xlink:title=" ">
<path fill="none" stroke="#63b8ff" d="M318.25,-107.31C354.36,-97.39 406.33,-83.12 439.25,-74.08"/>
<polygon fill="#63b8ff" stroke="#63b8ff" points="317.22,-103.96 308.51,-109.98 319.08,-110.71 317.22,-103.96"/>
</a>
</g>
</g>
<!-- Node5 -->
<g id="Node000005" class="node">
<title>Node5</title>
<g id="a_Node000005"><a xlink:href="gtkfilechoosersettings_8h.html" target="_top" xlink:title=" ">
<polygon fill="white" stroke="#666666" points="343.5,-19 209.5,-19 209.5,0 343.5,0 343.5,-19"/>
<text text-anchor="middle" x="276.5" y="-7" font-family="Helvetica,sans-Serif" font-size="10.00">gtkfilechoosersettings.h</text>
</a>
</g>
</g>
<!-- Node4&#45;&gt;Node5 -->
<g id="edge4_Node000004_Node000005" class="edge">
<title>Node4&#45;&gt;Node5</title>
<g id="a_edge4_Node000004_Node000005"><a xlink:title=" ">
<path fill="none" stroke="#63b8ff" d="M328.63,-48.88C315.68,-39.34 299.2,-27.21 288.28,-19.17"/>
<polygon fill="#63b8ff" stroke="#63b8ff" points="326.8,-51.88 336.93,-54.98 330.95,-46.24 326.8,-51.88"/>
</a>
</g>
</g>
<!-- Node6 -->
<g id="Node000006" class="node">
<title>Node6</title>
<g id="a_Node000006"><a xlink:href="gtkfilechooserutils_8h.html" target="_top" xlink:title=" ">
<polygon fill="white" stroke="#666666" points="477.5,-19 361.5,-19 361.5,0 477.5,0 477.5,-19"/>
<text text-anchor="middle" x="419.5" y="-7" font-family="Helvetica,sans-Serif" font-size="10.00">gtkfilechooserutils.h</text>
</a>
</g>
</g>
<!-- Node4&#45;&gt;Node6 -->
<g id="edge5_Node000004_Node000006" class="edge">
<title>Node4&#45;&gt;Node6</title>
<g id="a_edge5_Node000004_Node000006"><a xlink:title=" ">
<path fill="none" stroke="#63b8ff" d="M368.09,-48.88C380.87,-39.34 397.11,-27.21 407.89,-19.17"/>
<polygon fill="#63b8ff" stroke="#63b8ff" points="365.83,-46.2 359.91,-54.98 370.01,-51.81 365.83,-46.2"/>
</a>
</g>
</g>
</g>
</svg>
