<?xml version="1.0" encoding="UTF-8" standalone="no"?>
<!DOCTYPE svg PUBLIC "-//W3C//DTD SVG 1.1//EN"
 "http://www.w3.org/Graphics/SVG/1.1/DTD/svg11.dtd">
<!-- Generated by graphviz version 2.43.0 (0)
 -->
<!-- Title: gui_object.h Pages: 1 -->
<!--zoomable 819 -->

<svg id="main" version="1.1" xmlns="http://www.w3.org/2000/svg" xmlns:xlink="http://www.w3.org/1999/xlink" xml:space="preserve" onload="init(evt)">
<style type="text/css"><![CDATA[
.node, .edge {opacity: 0.7;}
.node.selected, .edge.selected {opacity: 1;}
.edge:hover path { stroke: red; }
.edge:hover polygon { stroke: red; fill: red; }
]]></style>

<defs>
  <circle id="rim" cx="0" cy="0" r="7"/>
  <circle id="rim2" cx="0" cy="0" r="3.5"/>
  <g id="zoomPlus">
    <use xlink:href="#rim" fill="#404040"><set attributeName="fill" to="#808080" begin="zoomplus.mouseover" end="zoomplus.mouseout"/></use>
    <path d="M-4,0h8M0,-4v8" fill="none" stroke="white" stroke-width="1.5" pointer-events="none"/>
  </g>
  <g id="zoomMin">
    <use xlink:href="#rim" fill="#404040"><set attributeName="fill" to="#808080" begin="zoomminus.mouseover" end="zoomminus.mouseout"/></use>
    <path d="M-4,0h8" fill="none" stroke="white" stroke-width="1.5" pointer-events="none"/>
  </g>
  <g id="arrowUp" transform="translate(30 24)">
    <use xlink:href="#rim"/>
    <path pointer-events="none" fill="none" stroke="white" stroke-width="1.5" d="M0,-3.0v7 M-2.5,-0.5L0,-3.0L2.5,-0.5"/>
  </g>
  <g id="arrowRight" transform="rotate(90) translate(36 -43)">
    <use xlink:href="#rim"/>
    <path pointer-events="none" fill="none" stroke="white" stroke-width="1.5" d="M0,-3.0v7 M-2.5,-0.5L0,-3.0L2.5,-0.5"/>
  </g>
  <g id="arrowDown" transform="rotate(180) translate(-30 -48)">
    <use xlink:href="#rim"/>
    <path pointer-events="none" fill="none" stroke="white" stroke-width="1.5" d="M0,-3.0v7 M-2.5,-0.5L0,-3.0L2.5,-0.5"/>
  </g>
  <g id="arrowLeft" transform="rotate(270) translate(-36 17)">
    <use xlink:href="#rim"/>
    <path pointer-events="none" fill="none" stroke="white" stroke-width="1.5" d="M0,-3.0v7 M-2.5,-0.5L0,-3.0L2.5,-0.5"/>
  </g>
  <g id="resetDef">
    <use xlink:href="#rim2" fill="#404040"><set attributeName="fill" to="#808080" begin="reset.mouseover" end="reset.mouseout"/></use>
  </g>
</defs>
<script type="application/ecmascript">
var viewWidth = 1235;
var viewHeight = 819;
var sectionId = 'dynsection-1';
</script>
<script type="application/ecmascript" xlink:href="svg.min.js"/>
<svg id="graph" class="graph">
<g id="viewport">
<title>gui_object.h</title>
<!-- Node1 -->
<g id="Node000001" class="node">
<title>Node1</title>
<g id="a_Node000001"><a xlink:title=" ">
<polygon fill="#999999" stroke="#666666" points="889.5,-811 813.5,-811 813.5,-792 889.5,-792 889.5,-811"/>
<text text-anchor="middle" x="851.5" y="-799" font-family="Helvetica,sans-Serif" font-size="10.00">gui_object.h</text>
</a>
</g>
</g>
<!-- Node2 -->
<g id="Node000002" class="node">
<title>Node2</title>
<g id="a_Node000002"><a xlink:href="axis__view_8h.html" target="_top" xlink:title=" ">
<polygon fill="white" stroke="#666666" points="888.5,-756 814.5,-756 814.5,-737 888.5,-737 888.5,-756"/>
<text text-anchor="middle" x="851.5" y="-744" font-family="Helvetica,sans-Serif" font-size="10.00">axis_view.h</text>
</a>
</g>
</g>
<!-- Node1&#45;&gt;Node2 -->
<g id="edge1_Node000001_Node000002" class="edge">
<title>Node1&#45;&gt;Node2</title>
<g id="a_edge1_Node000001_Node000002"><a xlink:title=" ">
<path fill="none" stroke="#63b8ff" d="M851.5,-781.66C851.5,-772.93 851.5,-762.99 851.5,-756.09"/>
<polygon fill="#63b8ff" stroke="#63b8ff" points="848,-781.75 851.5,-791.75 855,-781.75 848,-781.75"/>
</a>
</g>
</g>
<!-- Node3 -->
<g id="Node000003" class="node">
<title>Node3</title>
<g id="a_Node000003"><a xlink:href="mixer__strip_8h.html" target="_top" xlink:title=" ">
<polygon fill="white" stroke="#666666" points="97.5,-525 17.5,-525 17.5,-506 97.5,-506 97.5,-525"/>
<text text-anchor="middle" x="57.5" y="-513" font-family="Helvetica,sans-Serif" font-size="10.00">mixer_strip.h</text>
</a>
</g>
</g>
<!-- Node2&#45;&gt;Node3 -->
<g id="edge2_Node000002_Node000003" class="edge">
<title>Node2&#45;&gt;Node3</title>
<g id="a_edge2_Node000002_Node000003"><a xlink:title=" ">
<path fill="none" stroke="#63b8ff" d="M812.03,-734.12C673.27,-694.1 209.69,-560.39 87.33,-525.1"/>
<polygon fill="#63b8ff" stroke="#63b8ff" points="811.25,-737.53 821.82,-736.94 813.18,-730.81 811.25,-737.53"/>
</a>
</g>
</g>
<!-- Node5 -->
<g id="Node000005" class="node">
<title>Node5</title>
<g id="a_Node000005"><a xlink:href="route__ui_8h.html" target="_top" xlink:title=" ">
<polygon fill="white" stroke="#666666" points="615,-580 550,-580 550,-561 615,-561 615,-580"/>
<text text-anchor="middle" x="582.5" y="-568" font-family="Helvetica,sans-Serif" font-size="10.00">route_ui.h</text>
</a>
</g>
</g>
<!-- Node2&#45;&gt;Node5 -->
<g id="edge4_Node000002_Node000005" class="edge">
<title>Node2&#45;&gt;Node5</title>
<g id="a_edge4_Node000002_Node000005"><a xlink:title=" ">
<path fill="none" stroke="#63b8ff" d="M829.74,-731.43C776.21,-696.8 639.33,-608.26 595.92,-580.18"/>
<polygon fill="#63b8ff" stroke="#63b8ff" points="827.86,-734.38 838.16,-736.87 831.66,-728.5 827.86,-734.38"/>
</a>
</g>
</g>
<!-- Node37 -->
<g id="Node000037" class="node">
<title>Node37</title>
<g id="a_Node000037"><a xlink:href="trigger__strip_8h.html" target="_top" xlink:title=" ">
<polygon fill="white" stroke="#666666" points="1131,-525 1046,-525 1046,-506 1131,-506 1131,-525"/>
<text text-anchor="middle" x="1088.5" y="-513" font-family="Helvetica,sans-Serif" font-size="10.00">trigger_strip.h</text>
</a>
</g>
</g>
<!-- Node2&#45;&gt;Node37 -->
<g id="edge53_Node000002_Node000037" class="edge">
<title>Node2&#45;&gt;Node37</title>
<g id="a_edge53_Node000002_Node000037"><a xlink:title=" ">
<path fill="none" stroke="#63b8ff" d="M898.81,-737.55C949.51,-726.4 1028.25,-700.93 1069.5,-646 1097.61,-608.57 1092.78,-547.52 1089.83,-525.11"/>
<polygon fill="#63b8ff" stroke="#63b8ff" points="897.83,-734.18 888.76,-739.66 899.26,-741.04 897.83,-734.18"/>
</a>
</g>
</g>
<!-- Node38 -->
<g id="Node000038" class="node">
<title>Node38</title>
<g id="a_Node000038"><a xlink:href="time__axis__view_8h.html" target="_top" xlink:title=" ">
<polygon fill="white" stroke="#666666" points="902,-701 801,-701 801,-682 902,-682 902,-701"/>
<text text-anchor="middle" x="851.5" y="-689" font-family="Helvetica,sans-Serif" font-size="10.00">time_axis_view.h</text>
</a>
</g>
</g>
<!-- Node2&#45;&gt;Node38 -->
<g id="edge45_Node000002_Node000038" class="edge">
<title>Node2&#45;&gt;Node38</title>
<g id="a_edge45_Node000002_Node000038"><a xlink:title=" ">
<path fill="none" stroke="#63b8ff" d="M851.5,-726.66C851.5,-717.93 851.5,-707.99 851.5,-701.09"/>
<polygon fill="#63b8ff" stroke="#63b8ff" points="848,-726.75 851.5,-736.75 855,-726.75 848,-726.75"/>
</a>
</g>
</g>
<!-- Node44 -->
<g id="Node000044" class="node">
<title>Node44</title>
<g id="a_Node000044"><a xlink:href="vca__master__strip_8h.html" target="_top" xlink:title=" ">
<polygon fill="white" stroke="#666666" points="1226.5,-701 1116.5,-701 1116.5,-682 1226.5,-682 1226.5,-701"/>
<text text-anchor="middle" x="1171.5" y="-689" font-family="Helvetica,sans-Serif" font-size="10.00">vca_master_strip.h</text>
</a>
</g>
</g>
<!-- Node2&#45;&gt;Node44 -->
<g id="edge54_Node000002_Node000044" class="edge">
<title>Node2&#45;&gt;Node44</title>
<g id="a_edge54_Node000002_Node000044"><a xlink:title=" ">
<path fill="none" stroke="#63b8ff" d="M898.71,-737.68C957.89,-727.88 1058.96,-711.14 1120.06,-701.02"/>
<polygon fill="#63b8ff" stroke="#63b8ff" points="897.81,-734.28 888.52,-739.37 898.96,-741.19 897.81,-734.28"/>
</a>
</g>
</g>
<!-- Node4 -->
<g id="Node000004" class="node">
<title>Node4</title>
<g id="a_Node000004"><a xlink:href="strip__selection_8h.html" target="_top" xlink:title=" ">
<polygon fill="white" stroke="#666666" points="97,-470 0,-470 0,-451 97,-451 97,-470"/>
<text text-anchor="middle" x="48.5" y="-458" font-family="Helvetica,sans-Serif" font-size="10.00">strip_selection.h</text>
</a>
</g>
</g>
<!-- Node3&#45;&gt;Node4 -->
<g id="edge3_Node000003_Node000004" class="edge">
<title>Node3&#45;&gt;Node4</title>
<g id="a_edge3_Node000003_Node000004"><a xlink:title=" ">
<path fill="none" stroke="#63b8ff" d="M54.3,-495.66C52.82,-486.93 51.13,-476.99 49.96,-470.09"/>
<polygon fill="#63b8ff" stroke="#63b8ff" points="50.89,-496.48 56.01,-505.75 57.79,-495.3 50.89,-496.48"/>
</a>
</g>
</g>
<!-- Node5&#45;&gt;Node3 -->
<g id="edge32_Node000005_Node000003" class="edge">
<title>Node5&#45;&gt;Node3</title>
<g id="a_edge32_Node000005_Node000003"><a xlink:title=" ">
<path fill="none" stroke="#63b8ff" d="M539.84,-566.36C457.07,-560.07 268.97,-544.81 111.5,-525 106.98,-524.43 102.26,-523.78 97.57,-523.09"/>
<polygon fill="#63b8ff" stroke="#63b8ff" points="539.64,-569.85 549.88,-567.12 540.17,-562.87 539.64,-569.85"/>
</a>
</g>
</g>
<!-- Node6 -->
<g id="Node000006" class="node">
<title>Node6</title>
<g id="a_Node000006"><a xlink:href="audio__time__axis_8h.html" target="_top" xlink:title=" ">
<polygon fill="white" stroke="#666666" points="855.5,-470 749.5,-470 749.5,-451 855.5,-451 855.5,-470"/>
<text text-anchor="middle" x="802.5" y="-458" font-family="Helvetica,sans-Serif" font-size="10.00">audio_time_axis.h</text>
</a>
</g>
</g>
<!-- Node5&#45;&gt;Node6 -->
<g id="edge5_Node000005_Node000006" class="edge">
<title>Node5&#45;&gt;Node6</title>
<g id="a_edge5_Node000005_Node000006"><a xlink:title=" ">
<path fill="none" stroke="#63b8ff" d="M625.41,-566.88C663.1,-562.75 717.93,-552.17 757.5,-525 778,-510.93 792.28,-484.28 798.69,-470.4"/>
<polygon fill="#63b8ff" stroke="#63b8ff" points="624.87,-563.41 615.26,-567.88 625.56,-570.38 624.87,-563.41"/>
</a>
</g>
</g>
<!-- Node7 -->
<g id="Node000007" class="node">
<title>Node7</title>
<g id="a_Node000007"><a xlink:href="track__view__list_8h.html" target="_top" xlink:title=" ">
<polygon fill="white" stroke="#666666" points="828,-360 729,-360 729,-341 828,-341 828,-360"/>
<text text-anchor="middle" x="778.5" y="-348" font-family="Helvetica,sans-Serif" font-size="10.00">track_view_list.h</text>
</a>
</g>
</g>
<!-- Node5&#45;&gt;Node7 -->
<g id="edge43_Node000005_Node000007" class="edge">
<title>Node5&#45;&gt;Node7</title>
<g id="a_edge43_Node000005_Node000007"><a xlink:title=" ">
<path fill="none" stroke="#63b8ff" d="M539.6,-568.34C434.48,-565.06 170.69,-553.99 144.5,-525 138.84,-518.73 140.03,-513.17 144.5,-506 207.1,-405.52 590.06,-366.13 728.57,-355.05"/>
<polygon fill="#63b8ff" stroke="#63b8ff" points="539.75,-571.85 549.85,-568.65 539.96,-564.85 539.75,-571.85"/>
</a>
</g>
</g>
<!-- Node25 -->
<g id="Node000025" class="node">
<title>Node25</title>
<g id="a_Node000025"><a xlink:href="foldback__strip_8h.html" target="_top" xlink:title=" ">
<polygon fill="white" stroke="#666666" points="249,-525 154,-525 154,-506 249,-506 249,-525"/>
<text text-anchor="middle" x="201.5" y="-513" font-family="Helvetica,sans-Serif" font-size="10.00">foldback_strip.h</text>
</a>
</g>
</g>
<!-- Node5&#45;&gt;Node25 -->
<g id="edge25_Node000005_Node000025" class="edge">
<title>Node5&#45;&gt;Node25</title>
<g id="a_edge25_Node000005_Node000025"><a xlink:title=" ">
<path fill="none" stroke="#63b8ff" d="M539.64,-563.77C477.61,-555.45 359.18,-539.42 258.5,-525 255.43,-524.56 252.27,-524.1 249.08,-523.64"/>
<polygon fill="#63b8ff" stroke="#63b8ff" points="539.45,-567.28 549.83,-565.14 540.38,-560.34 539.45,-567.28"/>
</a>
</g>
</g>
<!-- Node26 -->
<g id="Node000026" class="node">
<title>Node26</title>
<g id="a_Node000026"><a xlink:href="meter__strip_8h.html" target="_top" xlink:title=" ">
<polygon fill="white" stroke="#666666" points="349.5,-525 267.5,-525 267.5,-506 349.5,-506 349.5,-525"/>
<text text-anchor="middle" x="308.5" y="-513" font-family="Helvetica,sans-Serif" font-size="10.00">meter_strip.h</text>
</a>
</g>
</g>
<!-- Node5&#45;&gt;Node26 -->
<g id="edge26_Node000005_Node000026" class="edge">
<title>Node5&#45;&gt;Node26</title>
<g id="a_edge26_Node000005_Node000026"><a xlink:title=" ">
<path fill="none" stroke="#63b8ff" d="M540.12,-561.3C488.32,-551.28 401.24,-534.44 349.89,-524.51"/>
<polygon fill="#63b8ff" stroke="#63b8ff" points="539.51,-564.75 549.99,-563.21 540.84,-557.88 539.51,-564.75"/>
</a>
</g>
</g>
<!-- Node28 -->
<g id="Node000028" class="node">
<title>Node28</title>
<g id="a_Node000028"><a xlink:href="midi__time__axis_8h.html" target="_top" xlink:title=" ">
<polygon fill="white" stroke="#666666" points="934,-415 833,-415 833,-396 934,-396 934,-415"/>
<text text-anchor="middle" x="883.5" y="-403" font-family="Helvetica,sans-Serif" font-size="10.00">midi_time_axis.h</text>
</a>
</g>
</g>
<!-- Node5&#45;&gt;Node28 -->
<g id="edge28_Node000005_Node000028" class="edge">
<title>Node5&#45;&gt;Node28</title>
<g id="a_edge28_Node000005_Node000028"><a xlink:title=" ">
<path fill="none" stroke="#63b8ff" d="M625.01,-567.28C656.88,-563.31 699.19,-552.72 724.5,-525 747.19,-500.15 717.79,-475.83 740.5,-451 763.93,-425.39 801.81,-414.39 832.7,-409.73"/>
<polygon fill="#63b8ff" stroke="#63b8ff" points="624.63,-563.8 615.06,-568.35 625.38,-570.76 624.63,-563.8"/>
</a>
</g>
</g>
<!-- Node30 -->
<g id="Node000030" class="node">
<title>Node30</title>
<g id="a_Node000030"><a xlink:href="monitor__section_8h.html" target="_top" xlink:title=" ">
<polygon fill="white" stroke="#666666" points="471.5,-525 367.5,-525 367.5,-506 471.5,-506 471.5,-525"/>
<text text-anchor="middle" x="419.5" y="-513" font-family="Helvetica,sans-Serif" font-size="10.00">monitor_section.h</text>
</a>
</g>
</g>
<!-- Node5&#45;&gt;Node30 -->
<g id="edge33_Node000005_Node000030" class="edge">
<title>Node5&#45;&gt;Node30</title>
<g id="a_edge33_Node000005_Node000030"><a xlink:title=" ">
<path fill="none" stroke="#63b8ff" d="M546.51,-557.8C516.09,-547.91 473.22,-533.97 445.89,-525.08"/>
<polygon fill="#63b8ff" stroke="#63b8ff" points="545.72,-561.22 556.31,-560.98 547.88,-554.56 545.72,-561.22"/>
</a>
</g>
</g>
<!-- Node32 -->
<g id="Node000032" class="node">
<title>Node32</title>
<g id="a_Node000032"><a xlink:href="route__time__axis_8h.html" target="_top" xlink:title=" ">
<polygon fill="white" stroke="#666666" points="913.5,-525 809.5,-525 809.5,-506 913.5,-506 913.5,-525"/>
<text text-anchor="middle" x="861.5" y="-513" font-family="Helvetica,sans-Serif" font-size="10.00">route_time_axis.h</text>
</a>
</g>
</g>
<!-- Node5&#45;&gt;Node32 -->
<g id="edge35_Node000005_Node000032" class="edge">
<title>Node5&#45;&gt;Node32</title>
<g id="a_edge35_Node000005_Node000032"><a xlink:title=" ">
<path fill="none" stroke="#63b8ff" d="M624.92,-561.44C676.71,-551.6 763.92,-535.04 816.75,-525"/>
<polygon fill="#63b8ff" stroke="#63b8ff" points="624.22,-558.01 615.05,-563.32 625.53,-564.89 624.22,-558.01"/>
</a>
</g>
</g>
<!-- Node35 -->
<g id="Node000035" class="node">
<title>Node35</title>
<g id="a_Node000035"><a xlink:href="surround__strip_8h.html" target="_top" xlink:title=" ">
<polygon fill="white" stroke="#666666" points="585,-525 490,-525 490,-506 585,-506 585,-525"/>
<text text-anchor="middle" x="537.5" y="-513" font-family="Helvetica,sans-Serif" font-size="10.00">surround_strip.h</text>
</a>
</g>
</g>
<!-- Node5&#45;&gt;Node35 -->
<g id="edge41_Node000005_Node000035" class="edge">
<title>Node5&#45;&gt;Node35</title>
<g id="a_edge41_Node000005_Node000035"><a xlink:title=" ">
<path fill="none" stroke="#63b8ff" d="M568.45,-552.96C560.61,-543.72 551.17,-532.6 544.79,-525.09"/>
<polygon fill="#63b8ff" stroke="#63b8ff" points="565.93,-555.39 575.07,-560.75 571.26,-550.86 565.93,-555.39"/>
</a>
</g>
</g>
<!-- Node36 -->
<g id="Node000036" class="node">
<title>Node36</title>
<g id="a_Node000036"><a xlink:href="track__record__axis_8h.html" target="_top" xlink:title=" ">
<polygon fill="white" stroke="#666666" points="715.5,-525 603.5,-525 603.5,-506 715.5,-506 715.5,-525"/>
<text text-anchor="middle" x="659.5" y="-513" font-family="Helvetica,sans-Serif" font-size="10.00">track_record_axis.h</text>
</a>
</g>
</g>
<!-- Node5&#45;&gt;Node36 -->
<g id="edge42_Node000005_Node000036" class="edge">
<title>Node5&#45;&gt;Node36</title>
<g id="a_edge42_Node000005_Node000036"><a xlink:title=" ">
<path fill="none" stroke="#63b8ff" d="M603.35,-555.15C617.26,-545.57 635.11,-533.29 646.9,-525.17"/>
<polygon fill="#63b8ff" stroke="#63b8ff" points="601.12,-552.43 594.87,-560.98 605.09,-558.2 601.12,-552.43"/>
</a>
</g>
</g>
<!-- Node5&#45;&gt;Node37 -->
<g id="edge44_Node000005_Node000037" class="edge">
<title>Node5&#45;&gt;Node37</title>
<g id="a_edge44_Node000005_Node000037"><a xlink:title=" ">
<path fill="none" stroke="#63b8ff" d="M625.31,-566.23C705.95,-559.86 885.81,-544.68 1036.5,-525 1039.58,-524.6 1042.77,-524.15 1045.97,-523.68"/>
<polygon fill="#63b8ff" stroke="#63b8ff" points="624.76,-562.76 615.06,-567.03 625.3,-569.74 624.76,-562.76"/>
</a>
</g>
</g>
<!-- Node6&#45;&gt;Node7 -->
<g id="edge6_Node000006_Node000007" class="edge">
<title>Node6&#45;&gt;Node7</title>
<g id="a_edge6_Node000006_Node000007"><a xlink:title=" ">
<path fill="none" stroke="#63b8ff" d="M798.35,-440.8C793.1,-417.2 784.29,-377.58 780.42,-360.16"/>
<polygon fill="#63b8ff" stroke="#63b8ff" points="794.95,-441.66 800.54,-450.66 801.78,-440.14 794.95,-441.66"/>
</a>
</g>
</g>
<!-- Node8 -->
<g id="Node000008" class="node">
<title>Node8</title>
<g id="a_Node000008"><a xlink:href="track__selection_8h.html" target="_top" xlink:title=" ">
<polygon fill="white" stroke="#666666" points="817.5,-305 717.5,-305 717.5,-286 817.5,-286 817.5,-305"/>
<text text-anchor="middle" x="767.5" y="-293" font-family="Helvetica,sans-Serif" font-size="10.00">track_selection.h</text>
</a>
</g>
</g>
<!-- Node7&#45;&gt;Node8 -->
<g id="edge7_Node000007_Node000008" class="edge">
<title>Node7&#45;&gt;Node8</title>
<g id="a_edge7_Node000007_Node000008"><a xlink:title=" ">
<path fill="none" stroke="#63b8ff" d="M774.65,-330.95C772.82,-322.15 770.73,-312.06 769.28,-305.09"/>
<polygon fill="#63b8ff" stroke="#63b8ff" points="771.22,-331.67 776.68,-340.75 778.08,-330.25 771.22,-331.67"/>
</a>
</g>
</g>
<!-- Node9 -->
<g id="Node000009" class="node">
<title>Node9</title>
<g id="a_Node000009"><a xlink:href="editor__drag_8h.html" target="_top" xlink:title=" ">
<polygon fill="white" stroke="#666666" points="836,-250 755,-250 755,-231 836,-231 836,-250"/>
<text text-anchor="middle" x="795.5" y="-238" font-family="Helvetica,sans-Serif" font-size="10.00">editor_drag.h</text>
</a>
</g>
</g>
<!-- Node8&#45;&gt;Node9 -->
<g id="edge8_Node000008_Node000009" class="edge">
<title>Node8&#45;&gt;Node9</title>
<g id="a_edge8_Node000008_Node000009"><a xlink:title=" ">
<path fill="none" stroke="#63b8ff" d="M776.84,-276.82C781.59,-267.82 787.16,-257.29 790.96,-250.09"/>
<polygon fill="#63b8ff" stroke="#63b8ff" points="773.7,-275.27 772.12,-285.75 779.89,-278.54 773.7,-275.27"/>
</a>
</g>
</g>
<!-- Node10 -->
<g id="Node000010" class="node">
<title>Node10</title>
<g id="a_Node000010"><a xlink:href="gtk2__ardour_2selection_8h.html" target="_top" xlink:title=" ">
<polygon fill="white" stroke="#666666" points="736.5,-250 666.5,-250 666.5,-231 736.5,-231 736.5,-250"/>
<text text-anchor="middle" x="701.5" y="-238" font-family="Helvetica,sans-Serif" font-size="10.00">selection.h</text>
</a>
</g>
</g>
<!-- Node8&#45;&gt;Node10 -->
<g id="edge9_Node000008_Node000010" class="edge">
<title>Node8&#45;&gt;Node10</title>
<g id="a_edge9_Node000008_Node000010"><a xlink:title=" ">
<path fill="none" stroke="#63b8ff" d="M748.95,-279.6C737.12,-270.11 722.21,-258.13 712.3,-250.17"/>
<polygon fill="#63b8ff" stroke="#63b8ff" points="746.91,-282.45 756.9,-285.98 751.29,-276.99 746.91,-282.45"/>
</a>
</g>
</g>
<!-- Node11 -->
<g id="Node000011" class="node">
<title>Node11</title>
<g id="a_Node000011"><a xlink:href="editing__context_8h.html" target="_top" xlink:title=" ">
<polygon fill="white" stroke="#666666" points="811,-195 710,-195 710,-176 811,-176 811,-195"/>
<text text-anchor="middle" x="760.5" y="-183" font-family="Helvetica,sans-Serif" font-size="10.00">editing_context.h</text>
</a>
</g>
</g>
<!-- Node10&#45;&gt;Node11 -->
<g id="edge10_Node000010_Node000011" class="edge">
<title>Node10&#45;&gt;Node11</title>
<g id="a_edge10_Node000010_Node000011"><a xlink:title=" ">
<path fill="none" stroke="#63b8ff" d="M718.7,-224.04C729.17,-214.64 742.15,-202.98 750.85,-195.17"/>
<polygon fill="#63b8ff" stroke="#63b8ff" points="716.08,-221.7 710.98,-230.98 720.76,-226.91 716.08,-221.7"/>
</a>
</g>
</g>
<!-- Node16 -->
<g id="Node000016" class="node">
<title>Node16</title>
<g id="a_Node000016"><a xlink:href="public__editor_8h.html" target="_top" xlink:title=" ">
<polygon fill="white" stroke="#666666" points="636.5,-140 548.5,-140 548.5,-121 636.5,-121 636.5,-140"/>
<text text-anchor="middle" x="592.5" y="-128" font-family="Helvetica,sans-Serif" font-size="10.00">public_editor.h</text>
</a>
</g>
</g>
<!-- Node10&#45;&gt;Node16 -->
<g id="edge23_Node000010_Node000016" class="edge">
<title>Node10&#45;&gt;Node16</title>
<g id="a_edge23_Node000010_Node000016"><a xlink:title=" ">
<path fill="none" stroke="#63b8ff" d="M660.55,-227.46C643.25,-220.5 624.21,-210.06 611.5,-195 597.99,-179 594.09,-153.65 592.96,-140.34"/>
<polygon fill="#63b8ff" stroke="#63b8ff" points="659.34,-230.74 669.93,-230.97 661.79,-224.18 659.34,-230.74"/>
</a>
</g>
</g>
<!-- Node23 -->
<g id="Node000023" class="node">
<title>Node23</title>
<g id="a_Node000023"><a xlink:href="gtk2__ardour_2keyboard_8h.html" target="_top" xlink:title=" ">
<polygon fill="white" stroke="#666666" points="692,-195 621,-195 621,-176 692,-176 692,-195"/>
<text text-anchor="middle" x="656.5" y="-183" font-family="Helvetica,sans-Serif" font-size="10.00">keyboard.h</text>
</a>
</g>
</g>
<!-- Node10&#45;&gt;Node23 -->
<g id="edge22_Node000010_Node000023" class="edge">
<title>Node10&#45;&gt;Node23</title>
<g id="a_edge22_Node000010_Node000023"><a xlink:title=" ">
<path fill="none" stroke="#63b8ff" d="M687.45,-222.96C679.61,-213.72 670.17,-202.6 663.79,-195.09"/>
<polygon fill="#63b8ff" stroke="#63b8ff" points="684.93,-225.39 694.07,-230.75 690.26,-220.86 684.93,-225.39"/>
</a>
</g>
</g>
<!-- Node24 -->
<g id="Node000024" class="node">
<title>Node24</title>
<g id="a_Node000024"><a xlink:href="selection__templates_8h.html" target="_top" xlink:title=" ">
<polygon fill="white" stroke="#666666" points="954,-195 829,-195 829,-176 954,-176 954,-195"/>
<text text-anchor="middle" x="891.5" y="-183" font-family="Helvetica,sans-Serif" font-size="10.00">selection_templates.h</text>
</a>
</g>
</g>
<!-- Node10&#45;&gt;Node24 -->
<g id="edge24_Node000010_Node000024" class="edge">
<title>Node10&#45;&gt;Node24</title>
<g id="a_edge24_Node000010_Node000024"><a xlink:title=" ">
<path fill="none" stroke="#63b8ff" d="M742.07,-228.18C777.6,-218.27 828.47,-204.08 860.73,-195.08"/>
<polygon fill="#63b8ff" stroke="#63b8ff" points="740.72,-224.93 732.03,-230.98 742.6,-231.67 740.72,-224.93"/>
</a>
</g>
</g>
<!-- Node12 -->
<g id="Node000012" class="node">
<title>Node12</title>
<g id="a_Node000012"><a xlink:href="cue__editor_8h.html" target="_top" xlink:title=" ">
<polygon fill="white" stroke="#666666" points="1054.5,-140 978.5,-140 978.5,-121 1054.5,-121 1054.5,-140"/>
<text text-anchor="middle" x="1016.5" y="-128" font-family="Helvetica,sans-Serif" font-size="10.00">cue_editor.h</text>
</a>
</g>
</g>
<!-- Node11&#45;&gt;Node12 -->
<g id="edge11_Node000011_Node000012" class="edge">
<title>Node11&#45;&gt;Node12</title>
<g id="a_edge11_Node000011_Node000012"><a xlink:title=" ">
<path fill="none" stroke="#63b8ff" d="M811.44,-173.95C860.65,-163.77 934.06,-148.57 978.4,-139.39"/>
<polygon fill="#63b8ff" stroke="#63b8ff" points="810.71,-170.53 801.63,-175.98 812.13,-177.38 810.71,-170.53"/>
</a>
</g>
</g>
<!-- Node11&#45;&gt;Node16 -->
<g id="edge15_Node000011_Node000016" class="edge">
<title>Node11&#45;&gt;Node16</title>
<g id="a_edge15_Node000011_Node000016"><a xlink:title=" ">
<path fill="none" stroke="#63b8ff" d="M723.82,-172.93C692.44,-163.03 647.99,-149.01 619.7,-140.08"/>
<polygon fill="#63b8ff" stroke="#63b8ff" points="722.92,-176.31 733.51,-175.98 725.02,-169.64 722.92,-176.31"/>
</a>
</g>
</g>
<!-- Node13 -->
<g id="Node000013" class="node">
<title>Node13</title>
<g id="a_Node000013"><a xlink:href="audio__clip__editor_8h.html" target="_top" xlink:title=" ">
<polygon fill="white" stroke="#666666" points="1070.5,-79.5 962.5,-79.5 962.5,-60.5 1070.5,-60.5 1070.5,-79.5"/>
<text text-anchor="middle" x="1016.5" y="-67.5" font-family="Helvetica,sans-Serif" font-size="10.00">audio_clip_editor.h</text>
</a>
</g>
</g>
<!-- Node12&#45;&gt;Node13 -->
<g id="edge12_Node000012_Node000013" class="edge">
<title>Node12&#45;&gt;Node13</title>
<g id="a_edge12_Node000012_Node000013"><a xlink:title=" ">
<path fill="none" stroke="#63b8ff" d="M1016.5,-110.66C1016.5,-100.24 1016.5,-87.8 1016.5,-79.67"/>
<polygon fill="#63b8ff" stroke="#63b8ff" points="1013,-110.87 1016.5,-120.87 1020,-110.87 1013,-110.87"/>
</a>
</g>
</g>
<!-- Node15 -->
<g id="Node000015" class="node">
<title>Node15</title>
<g id="a_Node000015"><a xlink:href="pianoroll_8h.html" target="_top" xlink:title=" ">
<polygon fill="white" stroke="#666666" points="1156.5,-79.5 1088.5,-79.5 1088.5,-60.5 1156.5,-60.5 1156.5,-79.5"/>
<text text-anchor="middle" x="1122.5" y="-67.5" font-family="Helvetica,sans-Serif" font-size="10.00">pianoroll.h</text>
</a>
</g>
</g>
<!-- Node12&#45;&gt;Node15 -->
<g id="edge14_Node000012_Node000015" class="edge">
<title>Node12&#45;&gt;Node15</title>
<g id="a_edge14_Node000012_Node000015"><a xlink:title=" ">
<path fill="none" stroke="#63b8ff" d="M1041.1,-115.92C1061.36,-104.74 1089.47,-89.23 1106.8,-79.67"/>
<polygon fill="#63b8ff" stroke="#63b8ff" points="1039.2,-112.97 1032.14,-120.87 1042.59,-119.1 1039.2,-112.97"/>
</a>
</g>
</g>
<!-- Node14 -->
<g id="Node000014" class="node">
<title>Node14</title>
<g id="a_Node000014"><a xlink:href="trigger__page_8h.html" target="_top" xlink:title=" ">
<polygon fill="white" stroke="#666666" points="1060,-19 973,-19 973,0 1060,0 1060,-19"/>
<text text-anchor="middle" x="1016.5" y="-7" font-family="Helvetica,sans-Serif" font-size="10.00">trigger_page.h</text>
</a>
</g>
</g>
<!-- Node13&#45;&gt;Node14 -->
<g id="edge13_Node000013_Node000014" class="edge">
<title>Node13&#45;&gt;Node14</title>
<g id="a_edge13_Node000013_Node000014"><a xlink:title=" ">
<path fill="none" stroke="#63b8ff" d="M1016.5,-50.16C1016.5,-39.74 1016.5,-27.3 1016.5,-19.17"/>
<polygon fill="#63b8ff" stroke="#63b8ff" points="1013,-50.37 1016.5,-60.37 1020,-50.37 1013,-50.37"/>
</a>
</g>
</g>
<!-- Node17 -->
<g id="Node000017" class="node">
<title>Node17</title>
<g id="a_Node000017"><a xlink:href="editor_8h.html" target="_top" xlink:title=" ">
<polygon fill="white" stroke="#666666" points="271,-79.5 218,-79.5 218,-60.5 271,-60.5 271,-79.5"/>
<text text-anchor="middle" x="244.5" y="-67.5" font-family="Helvetica,sans-Serif" font-size="10.00">editor.h</text>
</a>
</g>
</g>
<!-- Node16&#45;&gt;Node17 -->
<g id="edge16_Node000016_Node000017" class="edge">
<title>Node16&#45;&gt;Node17</title>
<g id="a_edge16_Node000016_Node000017"><a xlink:title=" ">
<path fill="none" stroke="#63b8ff" d="M538.39,-125.57C475.58,-120.14 369.24,-108.25 280.5,-85 275.05,-83.57 269.3,-81.57 264.04,-79.53"/>
<polygon fill="#63b8ff" stroke="#63b8ff" points="538.21,-129.06 548.47,-126.42 538.8,-122.09 538.21,-129.06"/>
</a>
</g>
</g>
<!-- Node18 -->
<g id="Node000018" class="node">
<title>Node18</title>
<g id="a_Node000018"><a xlink:href="export__dialog_8h.html" target="_top" xlink:title=" ">
<polygon fill="white" stroke="#666666" points="381.5,-79.5 289.5,-79.5 289.5,-60.5 381.5,-60.5 381.5,-79.5"/>
<text text-anchor="middle" x="335.5" y="-67.5" font-family="Helvetica,sans-Serif" font-size="10.00">export_dialog.h</text>
</a>
</g>
</g>
<!-- Node16&#45;&gt;Node18 -->
<g id="edge17_Node000016_Node000018" class="edge">
<title>Node16&#45;&gt;Node18</title>
<g id="a_edge17_Node000016_Node000018"><a xlink:title=" ">
<path fill="none" stroke="#63b8ff" d="M541.79,-118.8C500.87,-110.06 441.87,-97.19 390.5,-85 383.31,-83.29 375.61,-81.39 368.32,-79.54"/>
<polygon fill="#63b8ff" stroke="#63b8ff" points="541.28,-122.27 551.79,-120.94 542.74,-115.43 541.28,-122.27"/>
</a>
</g>
</g>
<!-- Node19 -->
<g id="Node000019" class="node">
<title>Node19</title>
<g id="a_Node000019"><a xlink:href="insert__remove__time__dialog_8h.html" target="_top" xlink:title=" ">
<polygon fill="white" stroke="#666666" points="515,-85 400,-85 400,-55 515,-55 515,-85"/>
<text text-anchor="start" x="408" y="-73" font-family="Helvetica,sans-Serif" font-size="10.00">insert_remove_time</text>
<text text-anchor="middle" x="457.5" y="-62" font-family="Helvetica,sans-Serif" font-size="10.00">_dialog.h</text>
</a>
</g>
</g>
<!-- Node16&#45;&gt;Node19 -->
<g id="edge18_Node000016_Node000019" class="edge">
<title>Node16&#45;&gt;Node19</title>
<g id="a_edge18_Node000016_Node000019"><a xlink:title=" ">
<path fill="none" stroke="#63b8ff" d="M563.55,-116.95C541.93,-107.59 512.37,-94.78 489.96,-85.06"/>
<polygon fill="#63b8ff" stroke="#63b8ff" points="562.3,-120.23 572.87,-120.99 565.09,-113.81 562.3,-120.23"/>
</a>
</g>
</g>
<!-- Node20 -->
<g id="Node000020" class="node">
<title>Node20</title>
<g id="a_Node000020"><a xlink:href="midi__export__dialog_8h.html" target="_top" xlink:title=" ">
<polygon fill="white" stroke="#666666" points="652,-79.5 533,-79.5 533,-60.5 652,-60.5 652,-79.5"/>
<text text-anchor="middle" x="592.5" y="-67.5" font-family="Helvetica,sans-Serif" font-size="10.00">midi_export_dialog.h</text>
</a>
</g>
</g>
<!-- Node16&#45;&gt;Node20 -->
<g id="edge19_Node000016_Node000020" class="edge">
<title>Node16&#45;&gt;Node20</title>
<g id="a_edge19_Node000016_Node000020"><a xlink:title=" ">
<path fill="none" stroke="#63b8ff" d="M592.5,-110.66C592.5,-100.24 592.5,-87.8 592.5,-79.67"/>
<polygon fill="#63b8ff" stroke="#63b8ff" points="589,-110.87 592.5,-120.87 596,-110.87 589,-110.87"/>
</a>
</g>
</g>
<!-- Node21 -->
<g id="Node000021" class="node">
<title>Node21</title>
<g id="a_Node000021"><a xlink:href="simple__export__dialog_8h.html" target="_top" xlink:title=" ">
<polygon fill="white" stroke="#666666" points="801,-79.5 670,-79.5 670,-60.5 801,-60.5 801,-79.5"/>
<text text-anchor="middle" x="735.5" y="-67.5" font-family="Helvetica,sans-Serif" font-size="10.00">simple_export_dialog.h</text>
</a>
</g>
</g>
<!-- Node16&#45;&gt;Node21 -->
<g id="edge20_Node000016_Node000021" class="edge">
<title>Node16&#45;&gt;Node21</title>
<g id="a_edge20_Node000016_Node000021"><a xlink:title=" ">
<path fill="none" stroke="#63b8ff" d="M622.86,-117.08C650.48,-105.78 690.52,-89.4 714.68,-79.52"/>
<polygon fill="#63b8ff" stroke="#63b8ff" points="621.22,-113.97 613.29,-120.99 623.87,-120.45 621.22,-113.97"/>
</a>
</g>
</g>
<!-- Node22 -->
<g id="Node000022" class="node">
<title>Node22</title>
<g id="a_Node000022"><a xlink:href="tempo__map__change_8h.html" target="_top" xlink:title=" ">
<polygon fill="white" stroke="#666666" points="944,-79.5 819,-79.5 819,-60.5 944,-60.5 944,-79.5"/>
<text text-anchor="middle" x="881.5" y="-67.5" font-family="Helvetica,sans-Serif" font-size="10.00">tempo_map_change.h</text>
</a>
</g>
</g>
<!-- Node16&#45;&gt;Node22 -->
<g id="edge21_Node000016_Node000022" class="edge">
<title>Node16&#45;&gt;Node22</title>
<g id="a_edge21_Node000016_Node000022"><a xlink:title=" ">
<path fill="none" stroke="#63b8ff" d="M644.56,-118.96C700.34,-107.67 787.82,-89.96 839.43,-79.52"/>
<polygon fill="#63b8ff" stroke="#63b8ff" points="643.63,-115.58 634.52,-120.99 645.02,-122.44 643.63,-115.58"/>
</a>
</g>
</g>
<!-- Node27 -->
<g id="Node000027" class="node">
<title>Node27</title>
<g id="a_Node000027"><a xlink:href="meterbridge_8h.html" target="_top" xlink:title=" ">
<polygon fill="white" stroke="#666666" points="351.5,-470 265.5,-470 265.5,-451 351.5,-451 351.5,-470"/>
<text text-anchor="middle" x="308.5" y="-458" font-family="Helvetica,sans-Serif" font-size="10.00">meterbridge.h</text>
</a>
</g>
</g>
<!-- Node26&#45;&gt;Node27 -->
<g id="edge27_Node000026_Node000027" class="edge">
<title>Node26&#45;&gt;Node27</title>
<g id="a_edge27_Node000026_Node000027"><a xlink:title=" ">
<path fill="none" stroke="#63b8ff" d="M308.5,-495.66C308.5,-486.93 308.5,-476.99 308.5,-470.09"/>
<polygon fill="#63b8ff" stroke="#63b8ff" points="305,-495.75 308.5,-505.75 312,-495.75 305,-495.75"/>
</a>
</g>
</g>
<!-- Node28&#45;&gt;Node7 -->
<g id="edge31_Node000028_Node000007" class="edge">
<title>Node28&#45;&gt;Node7</title>
<g id="a_edge31_Node000028_Node000007"><a xlink:title=" ">
<path fill="none" stroke="#63b8ff" d="M857.48,-391.37C838.2,-381.63 812.45,-368.64 795.68,-360.17"/>
<polygon fill="#63b8ff" stroke="#63b8ff" points="856.13,-394.6 866.63,-395.98 859.28,-388.35 856.13,-394.6"/>
</a>
</g>
</g>
<!-- Node29 -->
<g id="Node000029" class="node">
<title>Node29</title>
<g id="a_Node000029"><a xlink:href="midi__region__view_8h.html" target="_top" xlink:title=" ">
<polygon fill="white" stroke="#666666" points="947,-305 836,-305 836,-286 947,-286 947,-305"/>
<text text-anchor="middle" x="891.5" y="-293" font-family="Helvetica,sans-Serif" font-size="10.00">midi_region_view.h</text>
</a>
</g>
</g>
<!-- Node28&#45;&gt;Node29 -->
<g id="edge29_Node000028_Node000029" class="edge">
<title>Node28&#45;&gt;Node29</title>
<g id="a_edge29_Node000028_Node000029"><a xlink:title=" ">
<path fill="none" stroke="#63b8ff" d="M884.91,-385.48C886.66,-361.84 889.57,-322.5 890.86,-305.16"/>
<polygon fill="#63b8ff" stroke="#63b8ff" points="881.4,-385.43 884.15,-395.66 888.38,-385.95 881.4,-385.43"/>
</a>
</g>
</g>
<!-- Node29&#45;&gt;Node24 -->
<g id="edge30_Node000029_Node000024" class="edge">
<title>Node29&#45;&gt;Node24</title>
<g id="a_edge30_Node000029_Node000024"><a xlink:title=" ">
<path fill="none" stroke="#63b8ff" d="M891.5,-275.48C891.5,-251.84 891.5,-212.5 891.5,-195.16"/>
<polygon fill="#63b8ff" stroke="#63b8ff" points="888,-275.66 891.5,-285.66 895,-275.66 888,-275.66"/>
</a>
</g>
</g>
<!-- Node31 -->
<g id="Node000031" class="node">
<title>Node31</title>
<g id="a_Node000031"><a xlink:href="mixer__ui_8h.html" target="_top" xlink:title=" ">
<polygon fill="white" stroke="#666666" points="453.5,-470 385.5,-470 385.5,-451 453.5,-451 453.5,-470"/>
<text text-anchor="middle" x="419.5" y="-458" font-family="Helvetica,sans-Serif" font-size="10.00">mixer_ui.h</text>
</a>
</g>
</g>
<!-- Node30&#45;&gt;Node31 -->
<g id="edge34_Node000030_Node000031" class="edge">
<title>Node30&#45;&gt;Node31</title>
<g id="a_edge34_Node000030_Node000031"><a xlink:title=" ">
<path fill="none" stroke="#63b8ff" d="M419.5,-495.66C419.5,-486.93 419.5,-476.99 419.5,-470.09"/>
<polygon fill="#63b8ff" stroke="#63b8ff" points="416,-495.75 419.5,-505.75 423,-495.75 416,-495.75"/>
</a>
</g>
</g>
<!-- Node32&#45;&gt;Node6 -->
<g id="edge36_Node000032_Node000006" class="edge">
<title>Node32&#45;&gt;Node6</title>
<g id="a_edge36_Node000032_Node000006"><a xlink:title=" ">
<path fill="none" stroke="#63b8ff" d="M844.3,-499.04C833.83,-489.64 820.85,-477.98 812.15,-470.17"/>
<polygon fill="#63b8ff" stroke="#63b8ff" points="842.24,-501.91 852.02,-505.98 846.92,-496.7 842.24,-501.91"/>
</a>
</g>
</g>
<!-- Node32&#45;&gt;Node28 -->
<g id="edge40_Node000032_Node000028" class="edge">
<title>Node32&#45;&gt;Node28</title>
<g id="a_edge40_Node000032_Node000028"><a xlink:title=" ">
<path fill="none" stroke="#63b8ff" d="M865.31,-495.8C870.12,-472.2 878.19,-432.58 881.74,-415.16"/>
<polygon fill="#63b8ff" stroke="#63b8ff" points="861.87,-495.16 863.3,-505.66 868.73,-496.56 861.87,-495.16"/>
</a>
</g>
</g>
<!-- Node33 -->
<g id="Node000033" class="node">
<title>Node33</title>
<g id="a_Node000033"><a xlink:href="automation__streamview_8h.html" target="_top" xlink:title=" ">
<polygon fill="white" stroke="#666666" points="1183.5,-470 1039.5,-470 1039.5,-451 1183.5,-451 1183.5,-470"/>
<text text-anchor="middle" x="1111.5" y="-458" font-family="Helvetica,sans-Serif" font-size="10.00">automation_streamview.h</text>
</a>
</g>
</g>
<!-- Node32&#45;&gt;Node33 -->
<g id="edge37_Node000032_Node000033" class="edge">
<title>Node32&#45;&gt;Node33</title>
<g id="a_edge37_Node000032_Node000033"><a xlink:title=" ">
<path fill="none" stroke="#63b8ff" d="M911.6,-503.88C958.46,-493.94 1027.56,-479.3 1071.02,-470.08"/>
<polygon fill="#63b8ff" stroke="#63b8ff" points="910.72,-500.49 901.67,-505.98 912.18,-507.33 910.72,-500.49"/>
</a>
</g>
</g>
<!-- Node34 -->
<g id="Node000034" class="node">
<title>Node34</title>
<g id="a_Node000034"><a xlink:href="midi__streamview_8h.html" target="_top" xlink:title=" ">
<polygon fill="white" stroke="#666666" points="1021.5,-470 911.5,-470 911.5,-451 1021.5,-451 1021.5,-470"/>
<text text-anchor="middle" x="966.5" y="-458" font-family="Helvetica,sans-Serif" font-size="10.00">midi_streamview.h</text>
</a>
</g>
</g>
<!-- Node32&#45;&gt;Node34 -->
<g id="edge38_Node000032_Node000034" class="edge">
<title>Node32&#45;&gt;Node34</title>
<g id="a_edge38_Node000032_Node000034"><a xlink:title=" ">
<path fill="none" stroke="#63b8ff" d="M887.52,-501.37C906.8,-491.63 932.55,-478.64 949.32,-470.17"/>
<polygon fill="#63b8ff" stroke="#63b8ff" points="885.72,-498.35 878.37,-505.98 888.87,-504.6 885.72,-498.35"/>
</a>
</g>
</g>
<!-- Node34&#45;&gt;Node28 -->
<g id="edge39_Node000034_Node000028" class="edge">
<title>Node34&#45;&gt;Node28</title>
<g id="a_edge39_Node000034_Node000028"><a xlink:title=" ">
<path fill="none" stroke="#63b8ff" d="M944.46,-445.42C929.39,-435.81 909.91,-423.37 897.08,-415.17"/>
<polygon fill="#63b8ff" stroke="#63b8ff" points="942.85,-448.55 953.16,-450.98 946.62,-442.65 942.85,-448.55"/>
</a>
</g>
</g>
<!-- Node39 -->
<g id="Node000039" class="node">
<title>Node39</title>
<g id="a_Node000039"><a xlink:href="automation__time__axis_8h.html" target="_top" xlink:title=" ">
<polygon fill="white" stroke="#666666" points="919,-640.5 784,-640.5 784,-621.5 919,-621.5 919,-640.5"/>
<text text-anchor="middle" x="851.5" y="-628.5" font-family="Helvetica,sans-Serif" font-size="10.00">automation_time_axis.h</text>
</a>
</g>
</g>
<!-- Node38&#45;&gt;Node39 -->
<g id="edge46_Node000038_Node000039" class="edge">
<title>Node38&#45;&gt;Node39</title>
<g id="a_edge46_Node000038_Node000039"><a xlink:title=" ">
<path fill="none" stroke="#63b8ff" d="M851.5,-671.66C851.5,-661.24 851.5,-648.8 851.5,-640.67"/>
<polygon fill="#63b8ff" stroke="#63b8ff" points="848,-671.87 851.5,-681.87 855,-671.87 848,-671.87"/>
</a>
</g>
</g>
<!-- Node41 -->
<g id="Node000041" class="node">
<title>Node41</title>
<g id="a_Node000041"><a xlink:href="stripable__time__axis_8h.html" target="_top" xlink:title=" ">
<polygon fill="white" stroke="#666666" points="896.5,-580 774.5,-580 774.5,-561 896.5,-561 896.5,-580"/>
<text text-anchor="middle" x="835.5" y="-568" font-family="Helvetica,sans-Serif" font-size="10.00">stripable_time_axis.h</text>
</a>
</g>
</g>
<!-- Node38&#45;&gt;Node41 -->
<g id="edge52_Node000038_Node000041" class="edge">
<title>Node38&#45;&gt;Node41</title>
<g id="a_edge52_Node000038_Node000041"><a xlink:title=" ">
<path fill="none" stroke="#63b8ff" d="M813.67,-677.81C799.05,-670.84 783.86,-660.58 775.5,-646 768.87,-634.43 769.51,-627.91 775.5,-616 783.9,-599.32 801.83,-587.32 815.92,-580.02"/>
<polygon fill="#63b8ff" stroke="#63b8ff" points="812.55,-681.14 823.11,-681.92 815.34,-674.72 812.55,-681.14"/>
</a>
</g>
</g>
<!-- Node43 -->
<g id="Node000043" class="node">
<title>Node43</title>
<g id="a_Node000043"><a xlink:href="region__layering__order__editor_8h.html" target="_top" xlink:title=" ">
<polygon fill="white" stroke="#666666" points="1060,-646 937,-646 937,-616 1060,-616 1060,-646"/>
<text text-anchor="start" x="945" y="-634" font-family="Helvetica,sans-Serif" font-size="10.00">region_layering_order</text>
<text text-anchor="middle" x="998.5" y="-623" font-family="Helvetica,sans-Serif" font-size="10.00">_editor.h</text>
</a>
</g>
</g>
<!-- Node38&#45;&gt;Node43 -->
<g id="edge51_Node000038_Node000043" class="edge">
<title>Node38&#45;&gt;Node43</title>
<g id="a_edge51_Node000038_Node000043"><a xlink:title=" ">
<path fill="none" stroke="#63b8ff" d="M882.39,-678.21C905.98,-668.82 938.53,-655.87 963.16,-646.06"/>
<polygon fill="#63b8ff" stroke="#63b8ff" points="880.87,-675.04 872.88,-681.99 883.46,-681.55 880.87,-675.04"/>
</a>
</g>
</g>
<!-- Node40 -->
<g id="Node000040" class="node">
<title>Node40</title>
<g id="a_Node000040"><a xlink:href="automation__region__view_8h.html" target="_top" xlink:title=" ">
<polygon fill="white" stroke="#666666" points="1060.5,-580 914.5,-580 914.5,-561 1060.5,-561 1060.5,-580"/>
<text text-anchor="middle" x="987.5" y="-568" font-family="Helvetica,sans-Serif" font-size="10.00">automation_region_view.h</text>
</a>
</g>
</g>
<!-- Node39&#45;&gt;Node40 -->
<g id="edge47_Node000039_Node000040" class="edge">
<title>Node39&#45;&gt;Node40</title>
<g id="a_edge47_Node000039_Node000040"><a xlink:title=" ">
<path fill="none" stroke="#63b8ff" d="M880.72,-617.43C906.98,-606.14 944.83,-589.86 967.7,-580.02"/>
<polygon fill="#63b8ff" stroke="#63b8ff" points="879.08,-614.33 871.28,-621.49 881.84,-620.76 879.08,-614.33"/>
</a>
</g>
</g>
<!-- Node39&#45;&gt;Node41 -->
<g id="edge48_Node000039_Node000041" class="edge">
<title>Node39&#45;&gt;Node41</title>
<g id="a_edge48_Node000039_Node000041"><a xlink:title=" ">
<path fill="none" stroke="#63b8ff" d="M846.44,-611.49C843.57,-601.01 840.12,-588.39 837.87,-580.17"/>
<polygon fill="#63b8ff" stroke="#63b8ff" points="843.12,-612.65 849.14,-621.37 849.88,-610.8 843.12,-612.65"/>
</a>
</g>
</g>
<!-- Node41&#45;&gt;Node32 -->
<g id="edge49_Node000041_Node000032" class="edge">
<title>Node41&#45;&gt;Node32</title>
<g id="a_edge49_Node000041_Node000032"><a xlink:title=" ">
<path fill="none" stroke="#63b8ff" d="M844.32,-551.53C848.7,-542.6 853.79,-532.22 857.29,-525.09"/>
<polygon fill="#63b8ff" stroke="#63b8ff" points="841.06,-550.23 839.79,-560.75 847.34,-553.31 841.06,-550.23"/>
</a>
</g>
</g>
<!-- Node42 -->
<g id="Node000042" class="node">
<title>Node42</title>
<g id="a_Node000042"><a xlink:href="vca__time__axis_8h.html" target="_top" xlink:title=" ">
<polygon fill="white" stroke="#666666" points="1027.5,-525 931.5,-525 931.5,-506 1027.5,-506 1027.5,-525"/>
<text text-anchor="middle" x="979.5" y="-513" font-family="Helvetica,sans-Serif" font-size="10.00">vca_time_axis.h</text>
</a>
</g>
</g>
<!-- Node41&#45;&gt;Node42 -->
<g id="edge50_Node000041_Node000042" class="edge">
<title>Node41&#45;&gt;Node42</title>
<g id="a_edge50_Node000041_Node000042"><a xlink:title=" ">
<path fill="none" stroke="#63b8ff" d="M868.32,-557.42C895.03,-547.59 932.1,-533.95 955.94,-525.17"/>
<polygon fill="#63b8ff" stroke="#63b8ff" points="866.81,-554.25 858.64,-560.98 869.23,-560.82 866.81,-554.25"/>
</a>
</g>
</g>
</g>
</svg>

<g id="navigator" transform="translate(0 0)" fill="#404254">
  <rect fill="#f2f5e9" fill-opacity="0.5" stroke="#606060" stroke-width=".5" x="0" y="0" width="60" height="60"/>
  <use id="zoomplus" xlink:href="#zoomPlus" x="17" y="9" onmousedown="handleZoom(evt,'in')"/>
  <use id="zoomminus" xlink:href="#zoomMin" x="42" y="9" onmousedown="handleZoom(evt,'out')"/>
  <use id="reset" xlink:href="#resetDef" x="30" y="36" onmousedown="handleReset()"/>
   <use id="arrowup" xlink:href="#arrowUp" x="0" y="0" onmousedown="handlePan(0,-1)"/>
  <use id="arrowright" xlink:href="#arrowRight" x="0" y="0" onmousedown="handlePan(1,0)"/>
  <use id="arrowdown" xlink:href="#arrowDown" x="0" y="0" onmousedown="handlePan(0,1)"/>
  <use id="arrowleft" xlink:href="#arrowLeft" x="0" y="0" onmousedown="handlePan(-1,0)"/>
</g>
<svg viewBox="0 0 15 15" width="100%" height="30px" preserveAspectRatio="xMaxYMin meet">
 <g id="arrow_out" transform="scale(0.3 0.3)">
  <a xlink:href="gui__object_8h__dep__incl_org.svg" target="_base">
   <rect id="button" ry="5" rx="5" y="6" x="6" height="38" width="38"
        fill="#f2f5e9" fill-opacity="0.5" stroke="#606060" stroke-width="1.0"/>
   <path id="arrow"
     d="M 11.500037,31.436501 C 11.940474,20.09759 22.043105,11.32322 32.158766,21.979434 L 37.068811,17.246167 C 37.068811,17.246167 37.088388,32 37.088388,32 L 22.160133,31.978069 C 22.160133,31.978069 26.997745,27.140456 26.997745,27.140456 C 18.528582,18.264221 13.291696,25.230495 11.500037,31.436501 z"
     style="fill:#404040;"/>
  </a>
 </g>
</svg>

<style type='text/css'>
<![CDATA[
[data-mouse-over-selected='false'] { opacity: 0.7; }
[data-mouse-over-selected='true']  { opacity: 1.0; }
]]>
</style>
<script type="application/ecmascript"><![CDATA[
document.addEventListener('DOMContentLoaded', (event) => {
  highlightEdges();
  highlightAdjacentNodes();
});
]]></script>
</svg>
