<?xml version="1.0" encoding="UTF-8" standalone="no"?>
<!DOCTYPE svg PUBLIC "-//W3C//DTD SVG 1.1//EN"
 "http://www.w3.org/Graphics/SVG/1.1/DTD/svg11.dtd">
<!-- Generated by graphviz version 2.43.0 (0)
 -->
<!-- Title: Graphical Class Hierarchy Pages: 1 -->
<svg width="686pt" height="1692pt"
 viewBox="0.00 0.00 686.00 1692.00" xmlns="http://www.w3.org/2000/svg" xmlns:xlink="http://www.w3.org/1999/xlink">
<g id="graph0" class="graph" transform="scale(1 1) rotate(0) translate(4 1688)">
<title>Graphical Class Hierarchy</title>
<!-- Node0 -->
<g id="Node000000" class="node">
<title>Node0</title>
<g id="a_Node000000"><a xlink:title=" ">
<polygon fill="#e0e0e0" stroke="#999999" points="115,-851 0,-851 0,-832 115,-832 115,-851"/>
<text text-anchor="middle" x="57.5" y="-839" font-family="Helvetica,sans-Serif" font-size="10.00">CppUnit::TestFixture</text>
</a>
</g>
</g>
<!-- Node1 -->
<g id="Node000001" class="node">
<title>Node1</title>
<g id="a_Node000001"><a xlink:href="classArrowTest.html" target="_top" xlink:title=" ">
<polygon fill="white" stroke="#666666" points="259.5,-1684 194.5,-1684 194.5,-1665 259.5,-1665 259.5,-1684"/>
<text text-anchor="middle" x="227" y="-1672" font-family="Helvetica,sans-Serif" font-size="10.00">ArrowTest</text>
</a>
</g>
</g>
<!-- Node0&#45;&gt;Node1 -->
<g id="edge347_Node000000_Node000001" class="edge">
<title>Node0&#45;&gt;Node1</title>
<g id="a_edge347_Node000000_Node000001"><a xlink:title=" ">
<path fill="none" stroke="#63b8ff" d="M59.41,-861.45C65.03,-980.58 96.51,-1594.88 151,-1656.5 161.73,-1668.64 179.08,-1673.32 194.38,-1674.89"/>
<polygon fill="#63b8ff" stroke="#63b8ff" points="62.9,-861.06 58.94,-851.24 55.9,-861.39 62.9,-861.06"/>
</a>
</g>
</g>
<!-- Node2 -->
<g id="Node000002" class="node">
<title>Node2</title>
<g id="a_Node000002"><a xlink:href="classAudioEngineTest.html" target="_top" xlink:title=" ">
<polygon fill="white" stroke="#666666" points="275.5,-1647 178.5,-1647 178.5,-1628 275.5,-1628 275.5,-1647"/>
<text text-anchor="middle" x="227" y="-1635" font-family="Helvetica,sans-Serif" font-size="10.00">AudioEngineTest</text>
</a>
</g>
</g>
<!-- Node0&#45;&gt;Node2 -->
<g id="edge348_Node000000_Node000002" class="edge">
<title>Node0&#45;&gt;Node2</title>
<g id="a_edge348_Node000000_Node000002"><a xlink:title=" ">
<path fill="none" stroke="#63b8ff" d="M59.51,-861.25C65.61,-976.69 98.9,-1560.9 151,-1619.5 158.12,-1627.51 168.11,-1632.27 178.49,-1635.03"/>
<polygon fill="#63b8ff" stroke="#63b8ff" points="63,-860.86 58.98,-851.06 56.01,-861.23 63,-860.86"/>
</a>
</g>
</g>
<!-- Node3 -->
<g id="Node000003" class="node">
<title>Node3</title>
<g id="a_Node000003"><a xlink:href="classAutomationListPropertyTest.html" target="_top" xlink:title=" ">
<polygon fill="white" stroke="#666666" points="303,-1610 151,-1610 151,-1591 303,-1591 303,-1610"/>
<text text-anchor="middle" x="227" y="-1598" font-family="Helvetica,sans-Serif" font-size="10.00">AutomationListPropertyTest</text>
</a>
</g>
</g>
<!-- Node0&#45;&gt;Node3 -->
<g id="edge349_Node000000_Node000003" class="edge">
<title>Node0&#45;&gt;Node3</title>
<g id="a_edge349_Node000000_Node000003"><a xlink:title=" ">
<path fill="none" stroke="#63b8ff" d="M59.64,-861.36C66.28,-973.73 101.33,-1526.97 151,-1582.5 153.95,-1585.79 157.38,-1588.54 161.12,-1590.82"/>
<polygon fill="#63b8ff" stroke="#63b8ff" points="63.12,-860.9 59.04,-851.12 56.13,-861.31 63.12,-860.9"/>
</a>
</g>
</g>
<!-- Node4 -->
<g id="Node000004" class="node">
<title>Node4</title>
<g id="a_Node000004"><a xlink:href="classBBTTest.html" target="_top" xlink:title=" ">
<polygon fill="white" stroke="#666666" points="255,-1573 199,-1573 199,-1554 255,-1554 255,-1573"/>
<text text-anchor="middle" x="227" y="-1561" font-family="Helvetica,sans-Serif" font-size="10.00">BBTTest</text>
</a>
</g>
</g>
<!-- Node0&#45;&gt;Node4 -->
<g id="edge350_Node000000_Node000004" class="edge">
<title>Node0&#45;&gt;Node4</title>
<g id="a_edge350_Node000000_Node000004"><a xlink:title=" ">
<path fill="none" stroke="#63b8ff" d="M58.2,-861.55C57.06,-965.39 57.09,-1441.18 151,-1545.5 162.92,-1558.74 182.69,-1563.08 198.95,-1564.19"/>
<polygon fill="#63b8ff" stroke="#63b8ff" points="61.7,-861.29 58.33,-851.25 54.7,-861.2 61.7,-861.29"/>
</a>
</g>
</g>
<!-- Node5 -->
<g id="Node000005" class="node">
<title>Node5</title>
<g id="a_Node000005"><a xlink:href="classBeatsTest.html" target="_top" xlink:title=" ">
<polygon fill="white" stroke="#666666" points="259,-1536 195,-1536 195,-1517 259,-1517 259,-1536"/>
<text text-anchor="middle" x="227" y="-1524" font-family="Helvetica,sans-Serif" font-size="10.00">BeatsTest</text>
</a>
</g>
</g>
<!-- Node0&#45;&gt;Node5 -->
<g id="edge351_Node000000_Node000005" class="edge">
<title>Node0&#45;&gt;Node5</title>
<g id="a_edge351_Node000000_Node000005"><a xlink:title=" ">
<path fill="none" stroke="#63b8ff" d="M58.36,-861.44C58.08,-961.74 61.87,-1410.2 151,-1508.5 161.97,-1520.6 179.52,-1525.26 194.89,-1526.82"/>
<polygon fill="#63b8ff" stroke="#63b8ff" points="61.86,-861.22 58.41,-851.21 54.86,-861.19 61.86,-861.22"/>
</a>
</g>
</g>
<!-- Node6 -->
<g id="Node000006" class="node">
<title>Node6</title>
<g id="a_Node000006"><a xlink:href="classConvertTest.html" target="_top" xlink:title=" ">
<polygon fill="white" stroke="#666666" points="264,-1499 190,-1499 190,-1480 264,-1480 264,-1499"/>
<text text-anchor="middle" x="227" y="-1487" font-family="Helvetica,sans-Serif" font-size="10.00">ConvertTest</text>
</a>
</g>
</g>
<!-- Node0&#45;&gt;Node6 -->
<g id="edge352_Node000000_Node000006" class="edge">
<title>Node0&#45;&gt;Node6</title>
<g id="a_edge352_Node000000_Node000006"><a xlink:title=" ">
<path fill="none" stroke="#63b8ff" d="M58.54,-861.24C59.14,-957.77 66.61,-1379.17 151,-1471.5 160.85,-1482.27 175.91,-1487.14 189.95,-1489.17"/>
<polygon fill="#63b8ff" stroke="#63b8ff" points="62.04,-861.11 58.5,-851.12 55.04,-861.14 62.04,-861.11"/>
</a>
</g>
</g>
<!-- Node7 -->
<g id="Node000007" class="node">
<title>Node7</title>
<g id="a_Node000007"><a xlink:href="classCurveTest.html" target="_top" xlink:title=" ">
<polygon fill="white" stroke="#666666" points="259.5,-1462 194.5,-1462 194.5,-1443 259.5,-1443 259.5,-1462"/>
<text text-anchor="middle" x="227" y="-1450" font-family="Helvetica,sans-Serif" font-size="10.00">CurveTest</text>
</a>
</g>
</g>
<!-- Node0&#45;&gt;Node7 -->
<g id="edge353_Node000000_Node000007" class="edge">
<title>Node0&#45;&gt;Node7</title>
<g id="a_edge353_Node000000_Node000007"><a xlink:title=" ">
<path fill="none" stroke="#63b8ff" d="M58.74,-861.55C60.29,-955.17 71.49,-1348.29 151,-1434.5 161.89,-1446.31 179.05,-1451.01 194.21,-1452.66"/>
<polygon fill="#63b8ff" stroke="#63b8ff" points="62.24,-861.39 58.6,-851.45 55.24,-861.5 62.24,-861.39"/>
</a>
</g>
</g>
<!-- Node8 -->
<g id="Node000008" class="node">
<title>Node8</title>
<g id="a_Node000008"><a xlink:href="classDSPLoadCalculatorTest.html" target="_top" xlink:title=" ">
<polygon fill="white" stroke="#666666" points="291,-1425 163,-1425 163,-1406 291,-1406 291,-1425"/>
<text text-anchor="middle" x="227" y="-1413" font-family="Helvetica,sans-Serif" font-size="10.00">DSPLoadCalculatorTest</text>
</a>
</g>
</g>
<!-- Node0&#45;&gt;Node8 -->
<g id="edge354_Node000000_Node000008" class="edge">
<title>Node0&#45;&gt;Node8</title>
<g id="a_edge354_Node000000_Node000008"><a xlink:title=" ">
<path fill="none" stroke="#63b8ff" d="M58.97,-861.42C61.48,-951.2 76.23,-1317.25 151,-1397.5 154.38,-1401.12 158.35,-1404.08 162.66,-1406.48"/>
<polygon fill="#63b8ff" stroke="#63b8ff" points="62.46,-861.16 58.7,-851.26 55.46,-861.34 62.46,-861.16"/>
</a>
</g>
</g>
<!-- Node9 -->
<g id="Node000009" class="node">
<title>Node9</title>
<g id="a_Node000009"><a xlink:href="classFPUTest.html" target="_top" xlink:title=" ">
<polygon fill="white" stroke="#666666" points="255,-1388 199,-1388 199,-1369 255,-1369 255,-1388"/>
<text text-anchor="middle" x="227" y="-1376" font-family="Helvetica,sans-Serif" font-size="10.00">FPUTest</text>
</a>
</g>
</g>
<!-- Node0&#45;&gt;Node9 -->
<g id="edge355_Node000000_Node000009" class="edge">
<title>Node0&#45;&gt;Node9</title>
<g id="a_edge355_Node000000_Node000009"><a xlink:title=" ">
<path fill="none" stroke="#63b8ff" d="M59.21,-861.17C62.73,-946.81 80.93,-1286.16 151,-1360.5 163.12,-1373.36 182.68,-1377.75 198.79,-1378.98"/>
<polygon fill="#63b8ff" stroke="#63b8ff" points="62.71,-860.88 58.82,-851.02 55.71,-861.15 62.71,-860.88"/>
</a>
</g>
</g>
<!-- Node10 -->
<g id="Node000010" class="node">
<title>Node10</title>
<g id="a_Node000010"><a xlink:href="classFilesystemTest.html" target="_top" xlink:title=" ">
<polygon fill="white" stroke="#666666" points="271.5,-1351 182.5,-1351 182.5,-1332 271.5,-1332 271.5,-1351"/>
<text text-anchor="middle" x="227" y="-1339" font-family="Helvetica,sans-Serif" font-size="10.00">FilesystemTest</text>
</a>
</g>
</g>
<!-- Node0&#45;&gt;Node10 -->
<g id="edge356_Node000000_Node000010" class="edge">
<title>Node0&#45;&gt;Node10</title>
<g id="a_edge356_Node000000_Node000010"><a xlink:title=" ">
<path fill="none" stroke="#63b8ff" d="M59.53,-861.57C64.16,-943.98 85.79,-1255.23 151,-1323.5 159.23,-1332.12 170.8,-1336.92 182.4,-1339.52"/>
<polygon fill="#63b8ff" stroke="#63b8ff" points="63,-860.93 58.97,-851.13 56.01,-861.3 63,-860.93"/>
</a>
</g>
</g>
<!-- Node11 -->
<g id="Node000011" class="node">
<title>Node11</title>
<g id="a_Node000011"><a xlink:href="classFrameposMinusBeatsTest.html" target="_top" xlink:title=" ">
<polygon fill="white" stroke="#666666" points="297.5,-1314 156.5,-1314 156.5,-1295 297.5,-1295 297.5,-1314"/>
<text text-anchor="middle" x="227" y="-1302" font-family="Helvetica,sans-Serif" font-size="10.00">FrameposMinusBeatsTest</text>
</a>
</g>
</g>
<!-- Node0&#45;&gt;Node11 -->
<g id="edge357_Node000000_Node000011" class="edge">
<title>Node0&#45;&gt;Node11</title>
<g id="a_edge357_Node000000_Node000011"><a xlink:title=" ">
<path fill="none" stroke="#63b8ff" d="M59.87,-861.52C65.65,-939.83 90.52,-1224.14 151,-1286.5 154.26,-1289.86 158.04,-1292.65 162.12,-1294.94"/>
<polygon fill="#63b8ff" stroke="#63b8ff" points="63.34,-860.87 59.13,-851.15 56.35,-861.37 63.34,-860.87"/>
</a>
</g>
</g>
<!-- Node12 -->
<g id="Node000012" class="node">
<title>Node12</title>
<g id="a_Node000012"><a xlink:href="classFrameposPlusBeatsTest.html" target="_top" xlink:title=" ">
<polygon fill="white" stroke="#666666" points="293,-1277 161,-1277 161,-1258 293,-1258 293,-1277"/>
<text text-anchor="middle" x="227" y="-1265" font-family="Helvetica,sans-Serif" font-size="10.00">FrameposPlusBeatsTest</text>
</a>
</g>
</g>
<!-- Node0&#45;&gt;Node12 -->
<g id="edge358_Node000000_Node000012" class="edge">
<title>Node0&#45;&gt;Node12</title>
<g id="a_edge358_Node000000_Node000012"><a xlink:title=" ">
<path fill="none" stroke="#63b8ff" d="M60.26,-861.27C67.21,-935.04 95.17,-1192.96 151,-1249.5 154.29,-1252.83 158.09,-1255.59 162.18,-1257.87"/>
<polygon fill="#63b8ff" stroke="#63b8ff" points="63.72,-860.7 59.32,-851.07 56.75,-861.34 63.72,-860.7"/>
</a>
</g>
</g>
<!-- Node13 -->
<g id="Node000013" class="node">
<title>Node13</title>
<g id="a_Node000013"><a xlink:href="classFramewalkToBeatsTest.html" target="_top" xlink:title=" ">
<polygon fill="white" stroke="#666666" points="291,-1240 163,-1240 163,-1221 291,-1221 291,-1240"/>
<text text-anchor="middle" x="227" y="-1228" font-family="Helvetica,sans-Serif" font-size="10.00">FramewalkToBeatsTest</text>
</a>
</g>
</g>
<!-- Node0&#45;&gt;Node13 -->
<g id="edge359_Node000000_Node000013" class="edge">
<title>Node0&#45;&gt;Node13</title>
<g id="a_edge359_Node000000_Node000013"><a xlink:title=" ">
<path fill="none" stroke="#63b8ff" d="M60.73,-861.25C68.97,-930.64 99.87,-1161.81 151,-1212.5 154.52,-1215.99 158.59,-1218.84 162.97,-1221.18"/>
<polygon fill="#63b8ff" stroke="#63b8ff" points="64.2,-860.75 59.57,-851.22 57.25,-861.56 64.2,-860.75"/>
</a>
</g>
</g>
<!-- Node14 -->
<g id="Node000014" class="node">
<title>Node14</title>
<g id="a_Node000014"><a xlink:href="classGroupTest.html" target="_top" xlink:title=" ">
<polygon fill="white" stroke="#666666" points="259.5,-1203 194.5,-1203 194.5,-1184 259.5,-1184 259.5,-1203"/>
<text text-anchor="middle" x="227" y="-1191" font-family="Helvetica,sans-Serif" font-size="10.00">GroupTest</text>
</a>
</g>
</g>
<!-- Node0&#45;&gt;Node14 -->
<g id="edge360_Node000000_Node000014" class="edge">
<title>Node0&#45;&gt;Node14</title>
<g id="a_edge360_Node000000_Node000014"><a xlink:title=" ">
<path fill="none" stroke="#63b8ff" d="M61.33,-861.35C70.98,-926.26 104.56,-1130.64 151,-1175.5 162.46,-1186.57 179.47,-1191.24 194.4,-1193.06"/>
<polygon fill="#63b8ff" stroke="#63b8ff" points="64.76,-860.62 59.85,-851.23 57.83,-861.63 64.76,-860.62"/>
</a>
</g>
</g>
<!-- Node15 -->
<g id="Node000015" class="node">
<title>Node15</title>
<g id="a_Node000015"><a xlink:href="classItemTest.html" target="_top" xlink:title=" ">
<polygon fill="white" stroke="#666666" points="256.5,-1166 197.5,-1166 197.5,-1147 256.5,-1147 256.5,-1166"/>
<text text-anchor="middle" x="227" y="-1154" font-family="Helvetica,sans-Serif" font-size="10.00">ItemTest</text>
</a>
</g>
</g>
<!-- Node0&#45;&gt;Node15 -->
<g id="edge361_Node000000_Node000015" class="edge">
<title>Node0&#45;&gt;Node15</title>
<g id="a_edge361_Node000000_Node000015"><a xlink:title=" ">
<path fill="none" stroke="#63b8ff" d="M58.39,-861.36C59.24,-914.66 69.26,-1062.01 151,-1138.5 163.32,-1150.03 181.68,-1154.57 197.15,-1156.21"/>
<polygon fill="#63b8ff" stroke="#63b8ff" points="61.89,-861.19 58.33,-851.21 54.89,-861.23 61.89,-861.19"/>
</a>
</g>
</g>
<!-- Node16 -->
<g id="Node000016" class="node">
<title>Node16</title>
<g id="a_Node000016"><a xlink:href="classLoadSessionsTest.html" target="_top" xlink:title=" ">
<polygon fill="white" stroke="#666666" points="278,-1129 176,-1129 176,-1110 278,-1110 278,-1129"/>
<text text-anchor="middle" x="227" y="-1117" font-family="Helvetica,sans-Serif" font-size="10.00">LoadSessionsTest</text>
</a>
</g>
</g>
<!-- Node0&#45;&gt;Node16 -->
<g id="edge362_Node000000_Node000016" class="edge">
<title>Node0&#45;&gt;Node16</title>
<g id="a_edge362_Node000000_Node000016"><a xlink:title=" ">
<path fill="none" stroke="#63b8ff" d="M59.4,-861.14C62.71,-909.68 78.27,-1036.11 151,-1101.5 157.97,-1107.77 166.74,-1111.95 175.8,-1114.73"/>
<polygon fill="#63b8ff" stroke="#63b8ff" points="62.88,-860.82 58.81,-851.04 55.89,-861.22 62.88,-860.82"/>
</a>
</g>
</g>
<!-- Node17 -->
<g id="Node000017" class="node">
<title>Node17</title>
<g id="a_Node000017"><a xlink:href="classMTDMTest.html" target="_top" xlink:title=" ">
<polygon fill="white" stroke="#666666" points="261,-1092 193,-1092 193,-1073 261,-1073 261,-1092"/>
<text text-anchor="middle" x="227" y="-1080" font-family="Helvetica,sans-Serif" font-size="10.00">MTDMTest</text>
</a>
</g>
</g>
<!-- Node0&#45;&gt;Node17 -->
<g id="edge363_Node000000_Node000017" class="edge">
<title>Node0&#45;&gt;Node17</title>
<g id="a_edge363_Node000000_Node000017"><a xlink:title=" ">
<path fill="none" stroke="#63b8ff" d="M60.72,-861.28C66.73,-904.98 87.36,-1010.18 151,-1064.5 162.51,-1074.32 178.47,-1078.98 192.71,-1081.12"/>
<polygon fill="#63b8ff" stroke="#63b8ff" points="64.19,-860.82 59.47,-851.34 57.25,-861.7 64.19,-860.82"/>
</a>
</g>
</g>
<!-- Node18 -->
<g id="Node000018" class="node">
<title>Node18</title>
<g id="a_Node000018"><a xlink:href="classMidnamTest.html" target="_top" xlink:title=" ">
<polygon fill="white" stroke="#666666" points="265,-1055 189,-1055 189,-1036 265,-1036 265,-1055"/>
<text text-anchor="middle" x="227" y="-1043" font-family="Helvetica,sans-Serif" font-size="10.00">MidnamTest</text>
</a>
</g>
</g>
<!-- Node0&#45;&gt;Node18 -->
<g id="edge364_Node000000_Node000018" class="edge">
<title>Node0&#45;&gt;Node18</title>
<g id="a_edge364_Node000000_Node000018"><a xlink:title=" ">
<path fill="none" stroke="#63b8ff" d="M62.54,-861.36C71.4,-899.69 96.3,-983.95 151,-1027.5 161.69,-1036.01 175.76,-1040.59 188.83,-1043.03"/>
<polygon fill="#63b8ff" stroke="#63b8ff" points="65.92,-860.45 60.37,-851.43 59.08,-861.95 65.92,-860.45"/>
</a>
</g>
</g>
<!-- Node19 -->
<g id="Node000019" class="node">
<title>Node19</title>
<g id="a_Node000019"><a xlink:href="classMutexTest.html" target="_top" xlink:title=" ">
<polygon fill="white" stroke="#666666" points="260.5,-1018 193.5,-1018 193.5,-999 260.5,-999 260.5,-1018"/>
<text text-anchor="middle" x="227" y="-1006" font-family="Helvetica,sans-Serif" font-size="10.00">MutexTest</text>
</a>
</g>
</g>
<!-- Node0&#45;&gt;Node19 -->
<g id="edge365_Node000000_Node000019" class="edge">
<title>Node0&#45;&gt;Node19</title>
<g id="a_edge365_Node000000_Node000019"><a xlink:title=" ">
<path fill="none" stroke="#63b8ff" d="M65,-860.94C76.8,-893.11 104.87,-957.19 151,-990.5 163.27,-999.36 179.32,-1003.9 193.42,-1006.22"/>
<polygon fill="#63b8ff" stroke="#63b8ff" points="68.24,-859.61 61.62,-851.34 61.64,-861.94 68.24,-859.61"/>
</a>
</g>
</g>
<!-- Node20 -->
<g id="Node000020" class="node">
<title>Node20</title>
<g id="a_Node000020"><a xlink:href="classNatSortTest.html" target="_top" xlink:title=" ">
<polygon fill="white" stroke="#666666" points="263.5,-981 190.5,-981 190.5,-962 263.5,-962 263.5,-981"/>
<text text-anchor="middle" x="227" y="-969" font-family="Helvetica,sans-Serif" font-size="10.00">NatSortTest</text>
</a>
</g>
</g>
<!-- Node0&#45;&gt;Node20 -->
<g id="edge366_Node000000_Node000020" class="edge">
<title>Node0&#45;&gt;Node20</title>
<g id="a_edge366_Node000000_Node000020"><a xlink:title=" ">
<path fill="none" stroke="#63b8ff" d="M68.56,-859.97C83.26,-885.15 113.04,-929.81 151,-953.5 162.7,-960.8 177.13,-965.14 190.19,-967.72"/>
<polygon fill="#63b8ff" stroke="#63b8ff" points="71.49,-858.05 63.52,-851.07 65.4,-861.5 71.49,-858.05"/>
</a>
</g>
</g>
<!-- Node21 -->
<g id="Node000021" class="node">
<title>Node21</title>
<g id="a_Node000021"><a xlink:href="classNoteTest.html" target="_top" xlink:title=" ">
<polygon fill="white" stroke="#666666" points="256.5,-944 197.5,-944 197.5,-925 256.5,-925 256.5,-944"/>
<text text-anchor="middle" x="227" y="-932" font-family="Helvetica,sans-Serif" font-size="10.00">NoteTest</text>
</a>
</g>
</g>
<!-- Node0&#45;&gt;Node21 -->
<g id="edge367_Node000000_Node000021" class="edge">
<title>Node0&#45;&gt;Node21</title>
<g id="a_edge367_Node000000_Node000021"><a xlink:title=" ">
<path fill="none" stroke="#63b8ff" d="M74.55,-858.36C91.84,-875.53 120.93,-901.66 151,-916.5 165.41,-923.61 182.79,-928.01 197.19,-930.68"/>
<polygon fill="#63b8ff" stroke="#63b8ff" points="76.99,-855.85 67.48,-851.18 72,-860.76 76.99,-855.85"/>
</a>
</g>
</g>
<!-- Node22 -->
<g id="Node000022" class="node">
<title>Node22</title>
<g id="a_Node000022"><a xlink:href="classOptimizingLookupTableTest.html" target="_top" xlink:title=" ">
<polygon fill="white" stroke="#666666" points="301.5,-907 152.5,-907 152.5,-888 301.5,-888 301.5,-907"/>
<text text-anchor="middle" x="227" y="-895" font-family="Helvetica,sans-Serif" font-size="10.00">OptimizingLookupTableTest</text>
</a>
</g>
</g>
<!-- Node0&#45;&gt;Node22 -->
<g id="edge368_Node000000_Node000022" class="edge">
<title>Node0&#45;&gt;Node22</title>
<g id="a_edge368_Node000000_Node000022"><a xlink:title=" ">
<path fill="none" stroke="#63b8ff" d="M88.44,-855.17C106.33,-863 129.67,-872.61 151,-879.5 160.68,-882.63 171.23,-885.49 181.27,-887.96"/>
<polygon fill="#63b8ff" stroke="#63b8ff" points="89.66,-851.89 79.1,-851.04 86.82,-858.29 89.66,-851.89"/>
</a>
</g>
</g>
<!-- Node23 -->
<g id="Node000023" class="node">
<title>Node23</title>
<g id="a_Node000023"><a xlink:href="classPluginsTest.html" target="_top" xlink:title=" ">
<polygon fill="white" stroke="#666666" points="262.5,-870 191.5,-870 191.5,-851 262.5,-851 262.5,-870"/>
<text text-anchor="middle" x="227" y="-858" font-family="Helvetica,sans-Serif" font-size="10.00">PluginsTest</text>
</a>
</g>
</g>
<!-- Node0&#45;&gt;Node23 -->
<g id="edge369_Node000000_Node000023" class="edge">
<title>Node0&#45;&gt;Node23</title>
<g id="a_edge369_Node000000_Node000023"><a xlink:title=" ">
<path fill="none" stroke="#63b8ff" d="M125.44,-849.09C148.01,-851.65 172.29,-854.41 191.33,-856.57"/>
<polygon fill="#63b8ff" stroke="#63b8ff" points="125.54,-845.58 115.21,-847.93 124.75,-852.54 125.54,-845.58"/>
</a>
</g>
</g>
<!-- Node24 -->
<g id="Node000024" class="node">
<title>Node24</title>
<g id="a_Node000024"><a xlink:href="classPolygonTest.html" target="_top" xlink:title=" ">
<polygon fill="white" stroke="#666666" points="264.5,-833 189.5,-833 189.5,-814 264.5,-814 264.5,-833"/>
<text text-anchor="middle" x="227" y="-821" font-family="Helvetica,sans-Serif" font-size="10.00">PolygonTest</text>
</a>
</g>
</g>
<!-- Node0&#45;&gt;Node24 -->
<g id="edge370_Node000000_Node000024" class="edge">
<title>Node0&#45;&gt;Node24</title>
<g id="a_edge370_Node000000_Node000024"><a xlink:title=" ">
<path fill="none" stroke="#63b8ff" d="M125.42,-834.31C147.22,-831.97 170.6,-829.45 189.33,-827.44"/>
<polygon fill="#63b8ff" stroke="#63b8ff" points="124.78,-830.86 115.21,-835.41 125.52,-837.82 124.78,-830.86"/>
</a>
</g>
</g>
<!-- Node25 -->
<g id="Node000025" class="node">
<title>Node25</title>
<g id="a_Node000025"><a xlink:href="classRCUTest.html" target="_top" xlink:title=" ">
<polygon fill="white" stroke="#666666" points="255.5,-796 198.5,-796 198.5,-777 255.5,-777 255.5,-796"/>
<text text-anchor="middle" x="227" y="-784" font-family="Helvetica,sans-Serif" font-size="10.00">RCUTest</text>
</a>
</g>
</g>
<!-- Node0&#45;&gt;Node25 -->
<g id="edge371_Node000000_Node000025" class="edge">
<title>Node0&#45;&gt;Node25</title>
<g id="a_edge371_Node000000_Node000025"><a xlink:title=" ">
<path fill="none" stroke="#63b8ff" d="M89.95,-828.15C107.69,-820.9 130.37,-812.1 151,-805.5 166.48,-800.55 184.08,-796.03 198.34,-792.65"/>
<polygon fill="#63b8ff" stroke="#63b8ff" points="88.56,-824.94 80.65,-831.99 91.23,-831.41 88.56,-824.94"/>
</a>
</g>
</g>
<!-- Node26 -->
<g id="Node000026" class="node">
<title>Node26</title>
<g id="a_Node000026"><a xlink:href="classRangeTest.html" target="_top" xlink:title=" ">
<polygon fill="white" stroke="#666666" points="260.5,-759 193.5,-759 193.5,-740 260.5,-740 260.5,-759"/>
<text text-anchor="middle" x="227" y="-747" font-family="Helvetica,sans-Serif" font-size="10.00">RangeTest</text>
</a>
</g>
</g>
<!-- Node0&#45;&gt;Node26 -->
<g id="edge372_Node000000_Node000026" class="edge">
<title>Node0&#45;&gt;Node26</title>
<g id="a_edge372_Node000000_Node000026"><a xlink:title=" ">
<path fill="none" stroke="#63b8ff" d="M75.43,-824.46C92.91,-807.82 121.67,-782.96 151,-768.5 164.13,-762.02 179.68,-757.62 193.2,-754.69"/>
<polygon fill="#63b8ff" stroke="#63b8ff" points="72.53,-822.4 67.81,-831.89 77.42,-827.42 72.53,-822.4"/>
</a>
</g>
</g>
<!-- Node27 -->
<g id="Node000027" class="node">
<title>Node27</title>
<g id="a_Node000027"><a xlink:href="classReallocPoolTest.html" target="_top" xlink:title=" ">
<polygon fill="white" stroke="#666666" points="273.5,-722 180.5,-722 180.5,-703 273.5,-703 273.5,-722"/>
<text text-anchor="middle" x="227" y="-710" font-family="Helvetica,sans-Serif" font-size="10.00">ReallocPoolTest</text>
</a>
</g>
</g>
<!-- Node0&#45;&gt;Node27 -->
<g id="edge373_Node000000_Node000027" class="edge">
<title>Node0&#45;&gt;Node27</title>
<g id="a_edge373_Node000000_Node000027"><a xlink:title=" ">
<path fill="none" stroke="#63b8ff" d="M68.91,-823.06C83.83,-798.35 113.67,-754.9 151,-731.5 159.76,-726.01 170.04,-722.1 180.13,-719.32"/>
<polygon fill="#63b8ff" stroke="#63b8ff" points="65.81,-821.42 63.77,-831.82 71.85,-824.96 65.81,-821.42"/>
</a>
</g>
</g>
<!-- Node28 -->
<g id="Node000028" class="node">
<title>Node28</title>
<g id="a_Node000028"><a xlink:href="classRenderTest.html" target="_top" xlink:title=" ">
<polygon fill="white" stroke="#666666" points="262.5,-685 191.5,-685 191.5,-666 262.5,-666 262.5,-685"/>
<text text-anchor="middle" x="227" y="-673" font-family="Helvetica,sans-Serif" font-size="10.00">RenderTest</text>
</a>
</g>
</g>
<!-- Node0&#45;&gt;Node28 -->
<g id="edge374_Node000000_Node000028" class="edge">
<title>Node0&#45;&gt;Node28</title>
<g id="a_edge374_Node000000_Node000028"><a xlink:title=" ">
<path fill="none" stroke="#63b8ff" d="M65.12,-822.38C77.1,-790.73 105.42,-727.63 151,-694.5 162.62,-686.05 177.63,-681.34 191.17,-678.73"/>
<polygon fill="#63b8ff" stroke="#63b8ff" points="61.82,-821.23 61.69,-831.82 68.39,-823.62 61.82,-821.23"/>
</a>
</g>
</g>
<!-- Node29 -->
<g id="Node000029" class="node">
<title>Node29</title>
<g id="a_Node000029"><a xlink:href="classResampledSourceTest.html" target="_top" xlink:title=" ">
<polygon fill="white" stroke="#666666" points="289,-648 165,-648 165,-629 289,-629 289,-648"/>
<text text-anchor="middle" x="227" y="-636" font-family="Helvetica,sans-Serif" font-size="10.00">ResampledSourceTest</text>
</a>
</g>
</g>
<!-- Node0&#45;&gt;Node29 -->
<g id="edge375_Node000000_Node000029" class="edge">
<title>Node0&#45;&gt;Node29</title>
<g id="a_edge375_Node000000_Node000029"><a xlink:title=" ">
<path fill="none" stroke="#63b8ff" d="M62.65,-821.91C71.72,-784.09 96.95,-700.9 151,-657.5 155.82,-653.63 161.33,-650.54 167.12,-648.07"/>
<polygon fill="#63b8ff" stroke="#63b8ff" points="59.23,-821.18 60.43,-831.71 66.05,-822.73 59.23,-821.18"/>
</a>
</g>
</g>
<!-- Node30 -->
<g id="Node000030" class="node">
<title>Node30</title>
<g id="a_Node000030"><a xlink:href="classSMFTest.html" target="_top" xlink:title=" ">
<polygon fill="white" stroke="#666666" points="255,-611 199,-611 199,-592 255,-592 255,-611"/>
<text text-anchor="middle" x="227" y="-599" font-family="Helvetica,sans-Serif" font-size="10.00">SMFTest</text>
</a>
</g>
</g>
<!-- Node0&#45;&gt;Node30 -->
<g id="edge376_Node000000_Node000030" class="edge">
<title>Node0&#45;&gt;Node30</title>
<g id="a_edge376_Node000000_Node000030"><a xlink:title=" ">
<path fill="none" stroke="#63b8ff" d="M60.87,-821.68C67.14,-778.31 88.24,-674.59 151,-620.5 164.23,-609.1 183.36,-604.38 198.99,-602.49"/>
<polygon fill="#63b8ff" stroke="#63b8ff" points="57.38,-821.4 59.53,-831.78 64.32,-822.33 57.38,-821.4"/>
</a>
</g>
</g>
<!-- Node31 -->
<g id="Node000031" class="node">
<title>Node31</title>
<g id="a_Node000031"><a xlink:href="classScalarPropertiesTest.html" target="_top" xlink:title=" ">
<polygon fill="white" stroke="#666666" points="285,-574 169,-574 169,-555 285,-555 285,-574"/>
<text text-anchor="middle" x="227" y="-562" font-family="Helvetica,sans-Serif" font-size="10.00">ScalarPropertiesTest</text>
</a>
</g>
</g>
<!-- Node0&#45;&gt;Node31 -->
<g id="edge377_Node000000_Node000031" class="edge">
<title>Node0&#45;&gt;Node31</title>
<g id="a_edge377_Node000000_Node000031"><a xlink:title=" ">
<path fill="none" stroke="#63b8ff" d="M59.52,-821.73C63.12,-773.44 79.26,-648.66 151,-583.5 156.17,-578.8 162.34,-575.23 168.88,-572.52"/>
<polygon fill="#63b8ff" stroke="#63b8ff" points="56.02,-821.6 58.88,-831.8 63.01,-822.05 56.02,-821.6"/>
</a>
</g>
</g>
<!-- Node32 -->
<g id="Node000032" class="node">
<title>Node32</title>
<g id="a_Node000032"><a xlink:href="classSequenceTest.html" target="_top" xlink:title=" ">
<polygon fill="white" stroke="#666666" points="268.5,-537 185.5,-537 185.5,-518 268.5,-518 268.5,-537"/>
<text text-anchor="middle" x="227" y="-525" font-family="Helvetica,sans-Serif" font-size="10.00">SequenceTest</text>
</a>
</g>
</g>
<!-- Node0&#45;&gt;Node32 -->
<g id="edge378_Node000000_Node000032" class="edge">
<title>Node0&#45;&gt;Node32</title>
<g id="a_edge378_Node000000_Node000032"><a xlink:title=" ">
<path fill="none" stroke="#63b8ff" d="M58.49,-821.83C59.59,-769.01 70.17,-622.95 151,-546.5 160.27,-537.73 172.99,-532.85 185.32,-530.19"/>
<polygon fill="#63b8ff" stroke="#63b8ff" points="54.99,-821.84 58.38,-831.88 61.99,-821.92 54.99,-821.84"/>
</a>
</g>
</g>
<!-- Node33 -->
<g id="Node000033" class="node">
<title>Node33</title>
<g id="a_Node000033"><a xlink:href="classSessionTest.html" target="_top" xlink:title=" ">
<polygon fill="white" stroke="#666666" points="264,-500 190,-500 190,-481 264,-481 264,-500"/>
<text text-anchor="middle" x="227" y="-488" font-family="Helvetica,sans-Serif" font-size="10.00">SessionTest</text>
</a>
</g>
</g>
<!-- Node0&#45;&gt;Node33 -->
<g id="edge379_Node000000_Node000033" class="edge">
<title>Node0&#45;&gt;Node33</title>
<g id="a_edge379_Node000000_Node000033"><a xlink:title=" ">
<path fill="none" stroke="#63b8ff" d="M57.68,-821.72C56.45,-764.51 61.1,-597.31 151,-509.5 161.28,-499.46 176.07,-494.49 189.8,-492.11"/>
<polygon fill="#63b8ff" stroke="#63b8ff" points="54.19,-822.03 57.99,-831.92 61.18,-821.82 54.19,-822.03"/>
</a>
</g>
</g>
<!-- Node34 -->
<g id="Node000034" class="node">
<title>Node34</title>
<g id="a_Node000034"><a xlink:href="classSha1Test.html" target="_top" xlink:title=" ">
<polygon fill="white" stroke="#666666" points="257,-463 197,-463 197,-444 257,-444 257,-463"/>
<text text-anchor="middle" x="227" y="-451" font-family="Helvetica,sans-Serif" font-size="10.00">Sha1Test</text>
</a>
</g>
</g>
<!-- Node0&#45;&gt;Node34 -->
<g id="edge380_Node000000_Node000034" class="edge">
<title>Node0&#45;&gt;Node34</title>
<g id="a_edge380_Node000000_Node000034"><a xlink:title=" ">
<path fill="none" stroke="#63b8ff" d="M60.77,-821.88C69.14,-752.93 100.41,-523.22 151,-472.5 162.95,-460.52 181.31,-455.73 196.87,-453.95"/>
<polygon fill="#63b8ff" stroke="#63b8ff" points="57.29,-821.5 59.59,-831.84 64.24,-822.32 57.29,-821.5"/>
</a>
</g>
</g>
<!-- Node35 -->
<g id="Node000035" class="node">
<title>Node35</title>
<g id="a_Node000035"><a xlink:href="classSignalsTest.html" target="_top" xlink:title=" ">
<polygon fill="white" stroke="#666666" points="262.5,-426 191.5,-426 191.5,-407 262.5,-407 262.5,-426"/>
<text text-anchor="middle" x="227" y="-414" font-family="Helvetica,sans-Serif" font-size="10.00">SignalsTest</text>
</a>
</g>
</g>
<!-- Node0&#45;&gt;Node35 -->
<g id="edge381_Node000000_Node000035" class="edge">
<title>Node0&#45;&gt;Node35</title>
<g id="a_edge381_Node000000_Node000035"><a xlink:title=" ">
<path fill="none" stroke="#63b8ff" d="M60.29,-821.85C67.38,-748.51 95.76,-492.09 151,-435.5 161.51,-424.73 177.18,-419.75 191.48,-417.55"/>
<polygon fill="#63b8ff" stroke="#63b8ff" points="56.79,-821.71 59.34,-831.99 63.76,-822.36 56.79,-821.71"/>
</a>
</g>
</g>
<!-- Node36 -->
<g id="Node000036" class="node">
<title>Node36</title>
<g id="a_Node000036"><a xlink:href="classStringConvertTest.html" target="_top" xlink:title=" ">
<polygon fill="white" stroke="#666666" points="278.5,-389 175.5,-389 175.5,-370 278.5,-370 278.5,-389"/>
<text text-anchor="middle" x="227" y="-377" font-family="Helvetica,sans-Serif" font-size="10.00">StringConvertTest</text>
</a>
</g>
</g>
<!-- Node0&#45;&gt;Node36 -->
<g id="edge382_Node000000_Node000036" class="edge">
<title>Node0&#45;&gt;Node36</title>
<g id="a_edge382_Node000000_Node000036"><a xlink:title=" ">
<path fill="none" stroke="#63b8ff" d="M59.91,-821.59C65.82,-743.72 91.14,-460.95 151,-398.5 157.6,-391.62 166.31,-387.09 175.45,-384.14"/>
<polygon fill="#63b8ff" stroke="#63b8ff" points="56.39,-821.68 59.15,-831.91 63.37,-822.19 56.39,-821.68"/>
</a>
</g>
</g>
<!-- Node37 -->
<g id="Node000037" class="node">
<title>Node37</title>
<g id="a_Node000037"><a xlink:href="classTempoMapCutBufferTest.html" target="_top" xlink:title=" ">
<polygon fill="white" stroke="#666666" points="294.5,-352 159.5,-352 159.5,-333 294.5,-333 294.5,-352"/>
<text text-anchor="middle" x="227" y="-340" font-family="Helvetica,sans-Serif" font-size="10.00">TempoMapCutBufferTest</text>
</a>
</g>
</g>
<!-- Node0&#45;&gt;Node37 -->
<g id="edge383_Node000000_Node000037" class="edge">
<title>Node0&#45;&gt;Node37</title>
<g id="a_edge383_Node000000_Node000037"><a xlink:title=" ">
<path fill="none" stroke="#63b8ff" d="M59.57,-821.53C64.34,-739.55 86.46,-429.88 151,-361.5 154.6,-357.69 158.84,-354.6 163.44,-352.1"/>
<polygon fill="#63b8ff" stroke="#63b8ff" points="56.05,-821.74 58.98,-831.92 63.04,-822.13 56.05,-821.74"/>
</a>
</g>
</g>
<!-- Node38 -->
<g id="Node000038" class="node">
<title>Node38</title>
<g id="a_Node000038"><a xlink:href="classTempoMapTest.html" target="_top" xlink:title=" ">
<polygon fill="white" stroke="#666666" points="271.5,-315 182.5,-315 182.5,-296 271.5,-296 271.5,-315"/>
<text text-anchor="middle" x="227" y="-303" font-family="Helvetica,sans-Serif" font-size="10.00">TempoMapTest</text>
</a>
</g>
</g>
<!-- Node0&#45;&gt;Node38 -->
<g id="edge384_Node000000_Node000038" class="edge">
<title>Node0&#45;&gt;Node38</title>
<g id="a_edge384_Node000000_Node000038"><a xlink:title=" ">
<path fill="none" stroke="#63b8ff" d="M59.27,-821.37C62.99,-735.26 81.78,-398.82 151,-324.5 159.15,-315.75 170.69,-310.79 182.29,-308.04"/>
<polygon fill="#63b8ff" stroke="#63b8ff" points="55.77,-821.48 58.85,-831.61 62.76,-821.76 55.77,-821.48"/>
</a>
</g>
</g>
<!-- Node39 -->
<g id="Node000039" class="node">
<title>Node39</title>
<g id="a_Node000039"><a xlink:href="classTempoTest.html" target="_top" xlink:title=" ">
<polygon fill="white" stroke="#666666" points="261,-278 193,-278 193,-259 261,-259 261,-278"/>
<text text-anchor="middle" x="227" y="-266" font-family="Helvetica,sans-Serif" font-size="10.00">TempoTest</text>
</a>
</g>
</g>
<!-- Node0&#45;&gt;Node39 -->
<g id="edge385_Node000000_Node000039" class="edge">
<title>Node0&#45;&gt;Node39</title>
<g id="a_edge385_Node000000_Node000039"><a xlink:title=" ">
<path fill="none" stroke="#63b8ff" d="M59,-821.67C61.66,-732.31 76.97,-367.91 151,-287.5 161.55,-276.04 177.94,-271.06 192.71,-269.05"/>
<polygon fill="#63b8ff" stroke="#63b8ff" points="55.5,-821.7 58.72,-831.79 62.5,-821.89 55.5,-821.7"/>
</a>
</g>
</g>
<!-- Node40 -->
<g id="Node000040" class="node">
<title>Node40</title>
<g id="a_Node000040"><a xlink:href="classTestNeedingSession.html" target="_top" xlink:title=" ">
<polygon fill="white" stroke="#666666" points="284,-241 170,-241 170,-222 284,-222 284,-241"/>
<text text-anchor="middle" x="227" y="-229" font-family="Helvetica,sans-Serif" font-size="10.00">TestNeedingSession</text>
</a>
</g>
</g>
<!-- Node0&#45;&gt;Node40 -->
<g id="edge386_Node000000_Node000040" class="edge">
<title>Node0&#45;&gt;Node40</title>
<g id="a_edge386_Node000000_Node000040"><a xlink:title=" ">
<path fill="none" stroke="#63b8ff" d="M58.78,-821.54C60.48,-728.33 72.27,-336.9 151,-250.5 156.16,-244.84 162.74,-240.76 169.85,-237.83"/>
<polygon fill="#63b8ff" stroke="#63b8ff" points="55.28,-821.54 58.61,-831.6 62.28,-821.66 55.28,-821.54"/>
</a>
</g>
</g>
<!-- Node51 -->
<g id="Node000051" class="node">
<title>Node51</title>
<g id="a_Node000051"><a xlink:href="classTimelineTest.html" target="_top" xlink:title=" ">
<polygon fill="white" stroke="#666666" points="266.5,-204 187.5,-204 187.5,-185 266.5,-185 266.5,-204"/>
<text text-anchor="middle" x="227" y="-192" font-family="Helvetica,sans-Serif" font-size="10.00">TimelineTest</text>
</a>
</g>
</g>
<!-- Node0&#45;&gt;Node51 -->
<g id="edge397_Node000000_Node000051" class="edge">
<title>Node0&#45;&gt;Node51</title>
<g id="a_edge397_Node000000_Node000051"><a xlink:title=" ">
<path fill="none" stroke="#63b8ff" d="M58.57,-821.84C59.33,-725.71 67.43,-306.05 151,-213.5 160.18,-203.33 173.95,-198.25 187.2,-195.82"/>
<polygon fill="#63b8ff" stroke="#63b8ff" points="55.07,-821.9 58.51,-831.92 62.07,-821.94 55.07,-821.9"/>
</a>
</g>
</g>
<!-- Node52 -->
<g id="Node000052" class="node">
<title>Node52</title>
<g id="a_Node000052"><a xlink:href="classTimerTest.html" target="_top" xlink:title=" ">
<polygon fill="white" stroke="#666666" points="259.5,-167 194.5,-167 194.5,-148 259.5,-148 259.5,-167"/>
<text text-anchor="middle" x="227" y="-155" font-family="Helvetica,sans-Serif" font-size="10.00">TimerTest</text>
</a>
</g>
</g>
<!-- Node0&#45;&gt;Node52 -->
<g id="edge398_Node000000_Node000052" class="edge">
<title>Node0&#45;&gt;Node52</title>
<g id="a_edge398_Node000000_Node000052"><a xlink:title=" ">
<path fill="none" stroke="#63b8ff" d="M58.39,-821.64C58.27,-721.74 62.73,-275.05 151,-176.5 161.84,-164.39 179.19,-159.49 194.47,-157.68"/>
<polygon fill="#63b8ff" stroke="#63b8ff" points="54.89,-821.84 58.43,-831.83 61.89,-821.82 54.89,-821.84"/>
</a>
</g>
</g>
<!-- Node53 -->
<g id="Node000053" class="node">
<title>Node53</title>
<g id="a_Node000053"><a xlink:href="classTypesTest.html" target="_top" xlink:title=" ">
<polygon fill="white" stroke="#666666" points="259,-130 195,-130 195,-111 259,-111 259,-130"/>
<text text-anchor="middle" x="227" y="-118" font-family="Helvetica,sans-Serif" font-size="10.00">TypesTest</text>
</a>
</g>
</g>
<!-- Node0&#45;&gt;Node53 -->
<g id="edge399_Node000000_Node000053" class="edge">
<title>Node0&#45;&gt;Node53</title>
<g id="a_edge399_Node000000_Node000053"><a xlink:title=" ">
<path fill="none" stroke="#63b8ff" d="M58.23,-821.53C57.26,-718.09 57.99,-244.09 151,-139.5 161.89,-127.25 179.43,-122.37 194.82,-120.6"/>
<polygon fill="#63b8ff" stroke="#63b8ff" points="54.74,-821.83 58.35,-831.79 61.73,-821.75 54.74,-821.83"/>
</a>
</g>
</g>
<!-- Node54 -->
<g id="Node000054" class="node">
<title>Node54</title>
<g id="a_Node000054"><a xlink:href="classWindowsTimerUtilsTest.html" target="_top" xlink:title=" ">
<polygon fill="white" stroke="#666666" points="292.5,-93 161.5,-93 161.5,-74 292.5,-74 292.5,-93"/>
<text text-anchor="middle" x="227" y="-81" font-family="Helvetica,sans-Serif" font-size="10.00">WindowsTimerUtilsTest</text>
</a>
</g>
</g>
<!-- Node0&#45;&gt;Node54 -->
<g id="edge400_Node000000_Node000054" class="edge">
<title>Node0&#45;&gt;Node54</title>
<g id="a_edge400_Node000000_Node000054"><a xlink:title=" ">
<path fill="none" stroke="#63b8ff" d="M58.09,-821.49C56.29,-714.76 53.22,-213.18 151,-102.5 154.38,-98.67 158.41,-95.57 162.82,-93.05"/>
<polygon fill="#63b8ff" stroke="#63b8ff" points="54.59,-821.86 58.28,-831.79 61.59,-821.73 54.59,-821.86"/>
</a>
</g>
</g>
<!-- Node55 -->
<g id="Node000055" class="node">
<title>Node55</title>
<g id="a_Node000055"><a xlink:href="classXMLTest.html" target="_top" xlink:title=" ">
<polygon fill="white" stroke="#666666" points="255,-56 199,-56 199,-37 255,-37 255,-56"/>
<text text-anchor="middle" x="227" y="-44" font-family="Helvetica,sans-Serif" font-size="10.00">XMLTest</text>
</a>
</g>
</g>
<!-- Node0&#45;&gt;Node55 -->
<g id="edge401_Node000000_Node000055" class="edge">
<title>Node0&#45;&gt;Node55</title>
<g id="a_edge401_Node000000_Node000055"><a xlink:title=" ">
<path fill="none" stroke="#63b8ff" d="M59.53,-821.81C65.71,-706.72 99.39,-124.27 151,-65.5 162.79,-52.08 182.57,-47.47 198.86,-46.15"/>
<polygon fill="#63b8ff" stroke="#63b8ff" points="56.02,-821.8 58.99,-831.97 63.01,-822.17 56.02,-821.8"/>
</a>
</g>
</g>
<!-- Node56 -->
<g id="Node000056" class="node">
<title>Node56</title>
<g id="a_Node000056"><a xlink:href="classXPathTest.html" target="_top" xlink:title=" ">
<polygon fill="white" stroke="#666666" points="259,-19 195,-19 195,0 259,0 259,-19"/>
<text text-anchor="middle" x="227" y="-7" font-family="Helvetica,sans-Serif" font-size="10.00">XPathTest</text>
</a>
</g>
</g>
<!-- Node0&#45;&gt;Node56 -->
<g id="edge402_Node000000_Node000056" class="edge">
<title>Node0&#45;&gt;Node56</title>
<g id="a_edge402_Node000000_Node000056"><a xlink:title=" ">
<path fill="none" stroke="#63b8ff" d="M59.41,-821.57C65.04,-702.59 96.57,-89.04 151,-27.5 161.82,-15.26 179.36,-10.6 194.76,-9.07"/>
<polygon fill="#63b8ff" stroke="#63b8ff" points="55.91,-821.62 58.94,-831.78 62.9,-821.95 55.91,-821.62"/>
</a>
</g>
</g>
<!-- Node41 -->
<g id="Node000041" class="node">
<title>Node41</title>
<g id="a_Node000041"><a xlink:href="classARDOUR_1_1MIDIClock__Test.html" target="_top" xlink:title=" ">
<polygon fill="white" stroke="#666666" points="479,-296 339,-296 339,-277 479,-277 479,-296"/>
<text text-anchor="middle" x="409" y="-284" font-family="Helvetica,sans-Serif" font-size="10.00">ARDOUR::MIDIClock_Test</text>
</a>
</g>
</g>
<!-- Node40&#45;&gt;Node41 -->
<g id="edge387_Node000040_Node000041" class="edge">
<title>Node40&#45;&gt;Node41</title>
<g id="a_edge387_Node000040_Node000041"><a xlink:title=" ">
<path fill="none" stroke="#63b8ff" d="M282.61,-243.86C289.54,-245.86 296.49,-248.08 303,-250.5 319.77,-256.73 322.25,-262.21 339,-268.5 347.46,-271.68 356.71,-274.51 365.6,-276.93"/>
<polygon fill="#63b8ff" stroke="#63b8ff" points="283.08,-240.36 272.51,-241.09 281.23,-247.11 283.08,-240.36"/>
</a>
</g>
</g>
<!-- Node42 -->
<g id="Node000042" class="node">
<title>Node42</title>
<g id="a_Node000042"><a xlink:href="classAudioRegionTest.html" target="_top" xlink:title=" ">
<polygon fill="white" stroke="#666666" points="458,-259 360,-259 360,-240 458,-240 458,-259"/>
<text text-anchor="middle" x="409" y="-247" font-family="Helvetica,sans-Serif" font-size="10.00">AudioRegionTest</text>
</a>
</g>
</g>
<!-- Node40&#45;&gt;Node42 -->
<g id="edge388_Node000040_Node000042" class="edge">
<title>Node40&#45;&gt;Node42</title>
<g id="a_edge388_Node000040_Node000042"><a xlink:title=" ">
<path fill="none" stroke="#63b8ff" d="M294.59,-238.16C316.26,-240.33 339.88,-242.69 359.92,-244.69"/>
<polygon fill="#63b8ff" stroke="#63b8ff" points="294.76,-234.66 284.46,-237.15 294.06,-241.62 294.76,-234.66"/>
</a>
</g>
</g>
<!-- Node49 -->
<g id="Node000049" class="node">
<title>Node49</title>
<g id="a_Node000049"><a xlink:href="classControlSurfacesTest.html" target="_top" xlink:title=" ">
<polygon fill="white" stroke="#666666" points="465.5,-222 352.5,-222 352.5,-203 465.5,-203 465.5,-222"/>
<text text-anchor="middle" x="409" y="-210" font-family="Helvetica,sans-Serif" font-size="10.00">ControlSurfacesTest</text>
</a>
</g>
</g>
<!-- Node40&#45;&gt;Node49 -->
<g id="edge395_Node000040_Node000049" class="edge">
<title>Node40&#45;&gt;Node49</title>
<g id="a_edge395_Node000040_Node000049"><a xlink:title=" ">
<path fill="none" stroke="#63b8ff" d="M294.54,-224.48C313.56,-222.47 334.07,-220.3 352.36,-218.37"/>
<polygon fill="#63b8ff" stroke="#63b8ff" points="294.04,-221.01 284.46,-225.54 294.77,-227.97 294.04,-221.01"/>
</a>
</g>
</g>
<!-- Node50 -->
<g id="Node000050" class="node">
<title>Node50</title>
<g id="a_Node000050"><a xlink:href="classLuaScriptTest.html" target="_top" xlink:title=" ">
<polygon fill="white" stroke="#666666" points="449.5,-185 368.5,-185 368.5,-166 449.5,-166 449.5,-185"/>
<text text-anchor="middle" x="409" y="-173" font-family="Helvetica,sans-Serif" font-size="10.00">LuaScriptTest</text>
</a>
</g>
</g>
<!-- Node40&#45;&gt;Node50 -->
<g id="edge396_Node000040_Node000050" class="edge">
<title>Node40&#45;&gt;Node50</title>
<g id="a_edge396_Node000040_Node000050"><a xlink:title=" ">
<path fill="none" stroke="#63b8ff" d="M285.69,-219.21C291.6,-217.49 297.46,-215.59 303,-213.5 319.93,-207.12 322.18,-201.16 339,-194.5 348.36,-190.79 358.7,-187.53 368.47,-184.8"/>
<polygon fill="#63b8ff" stroke="#63b8ff" points="284.47,-215.92 275.75,-221.94 286.32,-222.67 284.47,-215.92"/>
</a>
</g>
</g>
<!-- Node43 -->
<g id="Node000043" class="node">
<title>Node43</title>
<g id="a_Node000043"><a xlink:href="classAudioRegionReadTest.html" target="_top" xlink:title=" ">
<polygon fill="white" stroke="#666666" points="657.5,-352 535.5,-352 535.5,-333 657.5,-333 657.5,-352"/>
<text text-anchor="middle" x="596.5" y="-340" font-family="Helvetica,sans-Serif" font-size="10.00">AudioRegionReadTest</text>
</a>
</g>
</g>
<!-- Node42&#45;&gt;Node43 -->
<g id="edge389_Node000042_Node000043" class="edge">
<title>Node42&#45;&gt;Node43</title>
<g id="a_edge389_Node000042_Node000043"><a xlink:title=" ">
<path fill="none" stroke="#63b8ff" d="M467.69,-261.79C471.69,-263.71 475.51,-265.93 479,-268.5 502.84,-286.03 490.74,-307.56 515,-324.5 521.1,-328.76 528.05,-332.04 535.25,-334.55"/>
<polygon fill="#63b8ff" stroke="#63b8ff" points="468.71,-258.42 458.13,-257.83 466.03,-264.89 468.71,-258.42"/>
</a>
</g>
</g>
<!-- Node44 -->
<g id="Node000044" class="node">
<title>Node44</title>
<g id="a_Node000044"><a xlink:href="classCombineRegionsTest.html" target="_top" xlink:title=" ">
<polygon fill="white" stroke="#666666" points="656,-315 537,-315 537,-296 656,-296 656,-315"/>
<text text-anchor="middle" x="596.5" y="-303" font-family="Helvetica,sans-Serif" font-size="10.00">CombineRegionsTest</text>
</a>
</g>
</g>
<!-- Node42&#45;&gt;Node44 -->
<g id="edge390_Node000042_Node000044" class="edge">
<title>Node42&#45;&gt;Node44</title>
<g id="a_edge390_Node000042_Node000044"><a xlink:title=" ">
<path fill="none" stroke="#63b8ff" d="M460.23,-261.95C466.62,-263.94 473.01,-266.13 479,-268.5 495.82,-275.16 498.02,-281.25 515,-287.5 524,-290.82 533.81,-293.63 543.38,-295.97"/>
<polygon fill="#63b8ff" stroke="#63b8ff" points="460.84,-258.48 450.26,-259 458.85,-265.19 460.84,-258.48"/>
</a>
</g>
</g>
<!-- Node45 -->
<g id="Node000045" class="node">
<title>Node45</title>
<g id="a_Node000045"><a xlink:href="classPlaylistEquivalentRegionsTest.html" target="_top" xlink:title=" ">
<polygon fill="white" stroke="#666666" points="678,-278 515,-278 515,-259 678,-259 678,-278"/>
<text text-anchor="middle" x="596.5" y="-266" font-family="Helvetica,sans-Serif" font-size="10.00">PlaylistEquivalentRegionsTest</text>
</a>
</g>
</g>
<!-- Node42&#45;&gt;Node45 -->
<g id="edge391_Node000042_Node000045" class="edge">
<title>Node42&#45;&gt;Node45</title>
<g id="a_edge391_Node000042_Node000045"><a xlink:title=" ">
<path fill="none" stroke="#63b8ff" d="M468.24,-255.47C483.01,-256.98 499.14,-258.63 514.8,-260.23"/>
<polygon fill="#63b8ff" stroke="#63b8ff" points="468.56,-251.98 458.25,-254.44 467.84,-258.94 468.56,-251.98"/>
</a>
</g>
</g>
<!-- Node46 -->
<g id="Node000046" class="node">
<title>Node46</title>
<g id="a_Node000046"><a xlink:href="classPlaylistLayeringTest.html" target="_top" xlink:title=" ">
<polygon fill="white" stroke="#666666" points="653.5,-241 539.5,-241 539.5,-222 653.5,-222 653.5,-241"/>
<text text-anchor="middle" x="596.5" y="-229" font-family="Helvetica,sans-Serif" font-size="10.00">PlaylistLayeringTest</text>
</a>
</g>
</g>
<!-- Node42&#45;&gt;Node46 -->
<g id="edge392_Node000042_Node000046" class="edge">
<title>Node42&#45;&gt;Node46</title>
<g id="a_edge392_Node000042_Node000046"><a xlink:title=" ">
<path fill="none" stroke="#63b8ff" d="M468.4,-243.83C491.04,-241.64 516.84,-239.13 539.26,-236.96"/>
<polygon fill="#63b8ff" stroke="#63b8ff" points="467.87,-240.37 458.25,-244.82 468.55,-247.34 467.87,-240.37"/>
</a>
</g>
</g>
<!-- Node47 -->
<g id="Node000047" class="node">
<title>Node47</title>
<g id="a_Node000047"><a xlink:href="classPlaylistReadTest.html" target="_top" xlink:title=" ">
<polygon fill="white" stroke="#666666" points="645,-204 548,-204 548,-185 645,-185 645,-204"/>
<text text-anchor="middle" x="596.5" y="-192" font-family="Helvetica,sans-Serif" font-size="10.00">PlaylistReadTest</text>
</a>
</g>
</g>
<!-- Node42&#45;&gt;Node47 -->
<g id="edge393_Node000042_Node000047" class="edge">
<title>Node42&#45;&gt;Node47</title>
<g id="a_edge393_Node000042_Node000047"><a xlink:title=" ">
<path fill="none" stroke="#63b8ff" d="M462.07,-237.16C467.84,-235.43 473.58,-233.54 479,-231.5 495.75,-225.21 498.18,-219.6 515,-213.5 525.4,-209.73 536.82,-206.51 547.71,-203.85"/>
<polygon fill="#63b8ff" stroke="#63b8ff" points="461.05,-233.82 452.4,-239.93 462.98,-240.55 461.05,-233.82"/>
</a>
</g>
</g>
<!-- Node48 -->
<g id="Node000048" class="node">
<title>Node48</title>
<g id="a_Node000048"><a xlink:href="classRegionNamingTest.html" target="_top" xlink:title=" ">
<polygon fill="white" stroke="#666666" points="650.5,-167 542.5,-167 542.5,-148 650.5,-148 650.5,-167"/>
<text text-anchor="middle" x="596.5" y="-155" font-family="Helvetica,sans-Serif" font-size="10.00">RegionNamingTest</text>
</a>
</g>
</g>
<!-- Node42&#45;&gt;Node48 -->
<g id="edge394_Node000042_Node000048" class="edge">
<title>Node42&#45;&gt;Node48</title>
<g id="a_edge394_Node000042_Node000048"><a xlink:title=" ">
<path fill="none" stroke="#63b8ff" d="M467.66,-238.05C471.66,-236.19 475.49,-234.02 479,-231.5 502.72,-214.45 491.08,-193.27 515,-176.5 523.11,-170.81 532.7,-166.81 542.38,-164"/>
<polygon fill="#63b8ff" stroke="#63b8ff" points="466.07,-234.92 458.08,-241.87 468.67,-241.42 466.07,-234.92"/>
</a>
</g>
</g>
</g>
</svg>
