<?xml version="1.0" encoding="UTF-8" standalone="no"?>
<!DOCTYPE svg PUBLIC "-//W3C//DTD SVG 1.1//EN"
 "http://www.w3.org/Graphics/SVG/1.1/DTD/svg11.dtd">
<!-- Generated by graphviz version 2.43.0 (0)
 -->
<!-- Title: Graphical Class Hierarchy Pages: 1 -->
<svg width="544pt" height="212pt"
 viewBox="0.00 0.00 544.00 212.00" xmlns="http://www.w3.org/2000/svg" xmlns:xlink="http://www.w3.org/1999/xlink">
<g id="graph0" class="graph" transform="scale(1 1) rotate(0) translate(4 208)">
<title>Graphical Class Hierarchy</title>
<!-- Node0 -->
<g id="Node000000" class="node">
<title>Node0</title>
<g id="a_Node000000"><a xlink:href="classARDOUR_1_1PortEngine.html" target="_top" xlink:title=" ">
<polygon fill="white" stroke="#666666" points="118,-93 0,-93 0,-74 118,-74 118,-93"/>
<text text-anchor="middle" x="59" y="-81" font-family="Helvetica,sans-Serif" font-size="10.00">ARDOUR::PortEngine</text>
</a>
</g>
</g>
<!-- Node1 -->
<g id="Node000001" class="node">
<title>Node1</title>
<g id="a_Node000001"><a xlink:href="classARDOUR_1_1AudioBackend.html" target="_top" xlink:title=" ">
<polygon fill="white" stroke="#666666" points="307.5,-93 173.5,-93 173.5,-74 307.5,-74 307.5,-93"/>
<text text-anchor="middle" x="240.5" y="-81" font-family="Helvetica,sans-Serif" font-size="10.00">ARDOUR::AudioBackend</text>
</a>
</g>
</g>
<!-- Node0&#45;&gt;Node1 -->
<g id="edge72_Node000000_Node000001" class="edge">
<title>Node0&#45;&gt;Node1</title>
<g id="a_edge72_Node000000_Node000001"><a xlink:title=" ">
<path fill="none" stroke="#63b8ff" d="M128.36,-83.5C143.13,-83.5 158.73,-83.5 173.42,-83.5"/>
<polygon fill="#63b8ff" stroke="#63b8ff" points="128.28,-80 118.28,-83.5 128.28,-87 128.28,-80"/>
</a>
</g>
</g>
<!-- Node2 -->
<g id="Node000002" class="node">
<title>Node2</title>
<g id="a_Node000002"><a xlink:href="classARDOUR_1_1AlsaAudioBackend.html" target="_top" xlink:title=" ">
<polygon fill="white" stroke="#666666" points="527,-56 372,-56 372,-37 527,-37 527,-56"/>
<text text-anchor="middle" x="449.5" y="-44" font-family="Helvetica,sans-Serif" font-size="10.00">ARDOUR::AlsaAudioBackend</text>
</a>
</g>
</g>
<!-- Node1&#45;&gt;Node2 -->
<g id="edge73_Node000001_Node000002" class="edge">
<title>Node1&#45;&gt;Node2</title>
<g id="a_edge73_Node000001_Node000002"><a xlink:title=" ">
<path fill="none" stroke="#63b8ff" d="M304.79,-72.19C333.65,-67.03 367.45,-60.99 395.01,-56.06"/>
<polygon fill="#63b8ff" stroke="#63b8ff" points="304.04,-68.77 294.81,-73.97 305.27,-75.66 304.04,-68.77"/>
</a>
</g>
</g>
<!-- Node4 -->
<g id="Node000004" class="node">
<title>Node4</title>
<g id="a_Node000004"><a xlink:href="classARDOUR_1_1CoreAudioBackend.html" target="_top" xlink:title=" ">
<polygon fill="white" stroke="#666666" points="528,-204 371,-204 371,-185 528,-185 528,-204"/>
<text text-anchor="middle" x="449.5" y="-192" font-family="Helvetica,sans-Serif" font-size="10.00">ARDOUR::CoreAudioBackend</text>
</a>
</g>
</g>
<!-- Node1&#45;&gt;Node4 -->
<g id="edge74_Node000001_Node000004" class="edge">
<title>Node1&#45;&gt;Node4</title>
<g id="a_edge74_Node000001_Node000004"><a xlink:title=" ">
<path fill="none" stroke="#63b8ff" d="M316.92,-95.96C320.48,-97.86 323.87,-100.03 327,-102.5 355.71,-125.16 334.17,-154 363,-176.5 367.3,-179.86 372.09,-182.63 377.13,-184.91"/>
<polygon fill="#63b8ff" stroke="#63b8ff" points="318.32,-92.76 307.76,-91.79 315.41,-99.12 318.32,-92.76"/>
</a>
</g>
</g>
<!-- Node5 -->
<g id="Node000005" class="node">
<title>Node5</title>
<g id="a_Node000005"><a xlink:href="classARDOUR_1_1DummyAudioBackend.html" target="_top" xlink:title=" ">
<polygon fill="white" stroke="#666666" points="536,-167 363,-167 363,-148 536,-148 536,-167"/>
<text text-anchor="middle" x="449.5" y="-155" font-family="Helvetica,sans-Serif" font-size="10.00">ARDOUR::DummyAudioBackend</text>
</a>
</g>
</g>
<!-- Node1&#45;&gt;Node5 -->
<g id="edge75_Node000001_Node000005" class="edge">
<title>Node1&#45;&gt;Node5</title>
<g id="a_edge75_Node000001_Node000005"><a xlink:title=" ">
<path fill="none" stroke="#63b8ff" d="M314.41,-96.57C318.77,-98.31 323.01,-100.27 327,-102.5 347.04,-113.68 342.9,-128.43 363,-139.5 369.25,-142.94 376.08,-145.72 383.08,-147.97"/>
<polygon fill="#63b8ff" stroke="#63b8ff" points="315.29,-93.17 304.7,-93.13 312.95,-99.77 315.29,-93.17"/>
</a>
</g>
</g>
<!-- Node8 -->
<g id="Node000008" class="node">
<title>Node8</title>
<g id="a_Node000008"><a xlink:href="classARDOUR_1_1JACKAudioBackend.html" target="_top" xlink:title=" ">
<polygon fill="white" stroke="#666666" points="528.5,-19 370.5,-19 370.5,0 528.5,0 528.5,-19"/>
<text text-anchor="middle" x="449.5" y="-7" font-family="Helvetica,sans-Serif" font-size="10.00">ARDOUR::JACKAudioBackend</text>
</a>
</g>
</g>
<!-- Node1&#45;&gt;Node8 -->
<g id="edge76_Node000001_Node000008" class="edge">
<title>Node1&#45;&gt;Node8</title>
<g id="a_edge76_Node000001_Node000008"><a xlink:title=" ">
<path fill="none" stroke="#63b8ff" d="M268.01,-69.17C292.16,-56.63 329.13,-38.71 363,-27.5 372.94,-24.21 383.73,-21.39 394.19,-19.02"/>
<polygon fill="#63b8ff" stroke="#63b8ff" points="266.33,-66.1 259.1,-73.85 269.58,-72.3 266.33,-66.1"/>
</a>
</g>
</g>
<!-- Node6 -->
<g id="Node000006" class="node">
<title>Node6</title>
<g id="a_Node000006"><a xlink:href="classARDOUR_1_1PortAudioBackend.html" target="_top" xlink:title=" ">
<polygon fill="white" stroke="#666666" points="526.5,-130 372.5,-130 372.5,-111 526.5,-111 526.5,-130"/>
<text text-anchor="middle" x="449.5" y="-118" font-family="Helvetica,sans-Serif" font-size="10.00">ARDOUR::PortAudioBackend</text>
</a>
</g>
</g>
<!-- Node1&#45;&gt;Node6 -->
<g id="edge77_Node000001_Node000006" class="edge">
<title>Node1&#45;&gt;Node6</title>
<g id="a_edge77_Node000001_Node000006"><a xlink:title=" ">
<path fill="none" stroke="#63b8ff" d="M304.79,-94.81C333.65,-99.97 367.45,-106.01 395.01,-110.94"/>
<polygon fill="#63b8ff" stroke="#63b8ff" points="305.27,-91.34 294.81,-93.03 304.04,-98.23 305.27,-91.34"/>
</a>
</g>
</g>
<!-- Node7 -->
<g id="Node000007" class="node">
<title>Node7</title>
<g id="a_Node000007"><a xlink:href="classARDOUR_1_1PulseAudioBackend.html" target="_top" xlink:title=" ">
<polygon fill="white" stroke="#666666" points="530,-93 369,-93 369,-74 530,-74 530,-93"/>
<text text-anchor="middle" x="449.5" y="-81" font-family="Helvetica,sans-Serif" font-size="10.00">ARDOUR::PulseAudioBackend</text>
</a>
</g>
</g>
<!-- Node1&#45;&gt;Node7 -->
<g id="edge78_Node000001_Node000007" class="edge">
<title>Node1&#45;&gt;Node7</title>
<g id="a_edge78_Node000001_Node000007"><a xlink:title=" ">
<path fill="none" stroke="#63b8ff" d="M317.8,-83.5C334.47,-83.5 352.15,-83.5 368.94,-83.5"/>
<polygon fill="#63b8ff" stroke="#63b8ff" points="317.57,-80 307.57,-83.5 317.57,-87 317.57,-80"/>
</a>
</g>
</g>
<!-- Node3 -->
<g id="Node000003" class="node">
<title>Node3</title>
<g id="a_Node000003"><a xlink:href="classARDOUR_1_1PortEngineSharedImpl.html" target="_top" xlink:title=" ">
<polygon fill="white" stroke="#666666" points="327,-130 154,-130 154,-111 327,-111 327,-130"/>
<text text-anchor="middle" x="240.5" y="-118" font-family="Helvetica,sans-Serif" font-size="10.00">ARDOUR::PortEngineSharedImpl</text>
</a>
</g>
</g>
<!-- Node3&#45;&gt;Node2 -->
<g id="edge79_Node000003_Node000002" class="edge">
<title>Node3&#45;&gt;Node2</title>
<g id="a_edge79_Node000003_Node000002"><a xlink:title=" ">
<path fill="none" stroke="#63b8ff" d="M316.61,-107.44C320.2,-105.97 323.68,-104.33 327,-102.5 347.1,-91.43 342.96,-76.68 363,-65.5 369.91,-61.65 377.53,-58.58 385.3,-56.13"/>
<polygon fill="#63b8ff" stroke="#63b8ff" points="315.12,-104.26 306.92,-110.97 317.52,-110.84 315.12,-104.26"/>
</a>
</g>
</g>
<!-- Node3&#45;&gt;Node4 -->
<g id="edge80_Node000003_Node000004" class="edge">
<title>Node3&#45;&gt;Node4</title>
<g id="a_edge80_Node000003_Node000004"><a xlink:title=" ">
<path fill="none" stroke="#63b8ff" d="M268.01,-134.83C292.16,-147.37 329.13,-165.29 363,-176.5 372.94,-179.79 383.73,-182.61 394.19,-184.98"/>
<polygon fill="#63b8ff" stroke="#63b8ff" points="269.58,-131.7 259.1,-130.15 266.33,-137.9 269.58,-131.7"/>
</a>
</g>
</g>
<!-- Node3&#45;&gt;Node5 -->
<g id="edge81_Node000003_Node000005" class="edge">
<title>Node3&#45;&gt;Node5</title>
<g id="a_edge81_Node000003_Node000005"><a xlink:title=" ">
<path fill="none" stroke="#63b8ff" d="M304.79,-131.81C333.65,-136.97 367.45,-143.01 395.01,-147.94"/>
<polygon fill="#63b8ff" stroke="#63b8ff" points="305.27,-128.34 294.81,-130.03 304.04,-135.23 305.27,-128.34"/>
</a>
</g>
</g>
<!-- Node3&#45;&gt;Node6 -->
<g id="edge82_Node000003_Node000006" class="edge">
<title>Node3&#45;&gt;Node6</title>
<g id="a_edge82_Node000003_Node000006"><a xlink:title=" ">
<path fill="none" stroke="#63b8ff" d="M337.46,-120.5C349.2,-120.5 361.07,-120.5 372.47,-120.5"/>
<polygon fill="#63b8ff" stroke="#63b8ff" points="337.19,-117 327.19,-120.5 337.19,-124 337.19,-117"/>
</a>
</g>
</g>
<!-- Node3&#45;&gt;Node7 -->
<g id="edge83_Node000003_Node000007" class="edge">
<title>Node3&#45;&gt;Node7</title>
<g id="a_edge83_Node000003_Node000007"><a xlink:title=" ">
<path fill="none" stroke="#63b8ff" d="M304.79,-109.19C333.65,-104.03 367.45,-97.99 395.01,-93.06"/>
<polygon fill="#63b8ff" stroke="#63b8ff" points="304.04,-105.77 294.81,-110.97 305.27,-112.66 304.04,-105.77"/>
</a>
</g>
</g>
</g>
</svg>
