<?xml version="1.0" encoding="UTF-8" standalone="no"?>
<!DOCTYPE svg PUBLIC "-//W3C//DTD SVG 1.1//EN"
 "http://www.w3.org/Graphics/SVG/1.1/DTD/svg11.dtd">
<!-- Generated by graphviz version 2.43.0 (0)
 -->
<!-- Title: Graphical Class Hierarchy Pages: 1 -->
<svg width="661pt" height="212pt"
 viewBox="0.00 0.00 661.00 212.00" xmlns="http://www.w3.org/2000/svg" xmlns:xlink="http://www.w3.org/1999/xlink">
<g id="graph0" class="graph" transform="scale(1 1) rotate(0) translate(4 208)">
<title>Graphical Class Hierarchy</title>
<!-- Node0 -->
<g id="Node000000" class="node">
<title>Node0</title>
<g id="a_Node000000"><a xlink:title=" ">
<polygon fill="#e0e0e0" stroke="#999999" points="440,-37 356,-37 356,-18 440,-18 440,-37"/>
<text text-anchor="middle" x="398" y="-25" font-family="Helvetica,sans-Serif" font-size="10.00">bartime_hook</text>
</a>
</g>
</g>
<!-- Node1 -->
<g id="Node000001" class="node">
<title>Node1</title>
<g id="a_Node000001"><a xlink:href="classTemporal_1_1MusicTimePoint.html" target="_top" xlink:title=" ">
<polygon fill="white" stroke="#666666" points="653,-74 507,-74 507,-55 653,-55 653,-74"/>
<text text-anchor="middle" x="580" y="-62" font-family="Helvetica,sans-Serif" font-size="10.00">Temporal::MusicTimePoint</text>
</a>
</g>
</g>
<!-- Node0&#45;&gt;Node1 -->
<g id="edge300_Node000000_Node000001" class="edge">
<title>Node0&#45;&gt;Node1</title>
<g id="a_edge300_Node000000_Node000001"><a xlink:title=" ">
<path fill="none" stroke="#63b8ff" d="M450.3,-38.04C476.18,-43.36 507.33,-49.77 532.51,-54.94"/>
<polygon fill="#63b8ff" stroke="#63b8ff" points="450.8,-34.57 440.3,-35.99 449.39,-41.43 450.8,-34.57"/>
</a>
</g>
</g>
<!-- Node9 -->
<g id="Node000009" class="node">
<title>Node9</title>
<g id="a_Node000009"><a xlink:href="classTemporal_1_1MapOwned.html" target="_top" xlink:title=" ">
<polygon fill="white" stroke="#666666" points="122,-111 0,-111 0,-92 122,-92 122,-111"/>
<text text-anchor="middle" x="61" y="-99" font-family="Helvetica,sans-Serif" font-size="10.00">Temporal::MapOwned</text>
</a>
</g>
</g>
<!-- Node3 -->
<g id="Node000003" class="node">
<title>Node3</title>
<g id="a_Node000003"><a xlink:href="classTemporal_1_1Point.html" target="_top" xlink:title=" ">
<polygon fill="white" stroke="#666666" points="269.5,-93 177.5,-93 177.5,-74 269.5,-74 269.5,-93"/>
<text text-anchor="middle" x="223.5" y="-81" font-family="Helvetica,sans-Serif" font-size="10.00">Temporal::Point</text>
</a>
</g>
</g>
<!-- Node9&#45;&gt;Node3 -->
<g id="edge301_Node000009_Node000003" class="edge">
<title>Node9&#45;&gt;Node3</title>
<g id="a_edge301_Node000009_Node000003"><a xlink:title=" ">
<path fill="none" stroke="#63b8ff" d="M132.22,-93.63C147.58,-91.9 163.44,-90.12 177.49,-88.55"/>
<polygon fill="#63b8ff" stroke="#63b8ff" points="131.77,-90.15 122.22,-94.75 132.55,-97.11 131.77,-90.15"/>
</a>
</g>
</g>
<!-- Node2 -->
<g id="Node000002" class="node">
<title>Node2</title>
<g id="a_Node000002"><a xlink:href="classTemporal_1_1MeterPoint.html" target="_top" xlink:title=" ">
<polygon fill="white" stroke="#666666" points="458.5,-74 337.5,-74 337.5,-55 458.5,-55 458.5,-74"/>
<text text-anchor="middle" x="398" y="-62" font-family="Helvetica,sans-Serif" font-size="10.00">Temporal::MeterPoint</text>
</a>
</g>
</g>
<!-- Node3&#45;&gt;Node2 -->
<g id="edge302_Node000003_Node000002" class="edge">
<title>Node3&#45;&gt;Node2</title>
<g id="a_edge302_Node000003_Node000002"><a xlink:title=" ">
<path fill="none" stroke="#63b8ff" d="M279.78,-77.41C298.15,-75.39 318.69,-73.13 337.37,-71.07"/>
<polygon fill="#63b8ff" stroke="#63b8ff" points="279.38,-73.93 269.82,-78.51 280.15,-80.89 279.38,-73.93"/>
</a>
</g>
</g>
<!-- Node4 -->
<g id="Node000004" class="node">
<title>Node4</title>
<g id="a_Node000004"><a xlink:href="classTemporal_1_1TempoMapPoint.html" target="_top" xlink:title=" ">
<polygon fill="white" stroke="#666666" points="471,-120 325,-120 325,-101 471,-101 471,-120"/>
<text text-anchor="middle" x="398" y="-108" font-family="Helvetica,sans-Serif" font-size="10.00">Temporal::TempoMapPoint</text>
</a>
</g>
</g>
<!-- Node3&#45;&gt;Node4 -->
<g id="edge304_Node000003_Node000004" class="edge">
<title>Node3&#45;&gt;Node4</title>
<g id="a_edge304_Node000003_Node000004"><a xlink:title=" ">
<path fill="none" stroke="#63b8ff" d="M279.83,-92.16C297.77,-94.97 317.77,-98.1 336.09,-100.97"/>
<polygon fill="#63b8ff" stroke="#63b8ff" points="280.24,-88.68 269.82,-90.59 279.16,-95.6 280.24,-88.68"/>
</a>
</g>
</g>
<!-- Node6 -->
<g id="Node000006" class="node">
<title>Node6</title>
<g id="a_Node000006"><a xlink:href="classTemporal_1_1TempoPoint.html" target="_top" xlink:title=" ">
<polygon fill="white" stroke="#666666" points="460.5,-162 335.5,-162 335.5,-143 460.5,-143 460.5,-162"/>
<text text-anchor="middle" x="398" y="-150" font-family="Helvetica,sans-Serif" font-size="10.00">Temporal::TempoPoint</text>
</a>
</g>
</g>
<!-- Node3&#45;&gt;Node6 -->
<g id="edge305_Node000003_Node000006" class="edge">
<title>Node3&#45;&gt;Node6</title>
<g id="a_edge305_Node000003_Node000006"><a xlink:title=" ">
<path fill="none" stroke="#63b8ff" d="M274.74,-96.36C279.65,-98.19 284.49,-100.24 289,-102.5 306.88,-111.47 307.23,-120.33 325,-129.5 335.61,-134.98 347.78,-139.46 359.05,-142.98"/>
<polygon fill="#63b8ff" stroke="#63b8ff" points="275.86,-93.05 265.26,-93.1 273.58,-99.66 275.86,-93.05"/>
</a>
</g>
</g>
<!-- Node2&#45;&gt;Node1 -->
<g id="edge303_Node000002_Node000001" class="edge">
<title>Node2&#45;&gt;Node1</title>
<g id="a_edge303_Node000002_Node000001"><a xlink:title=" ">
<path fill="none" stroke="#63b8ff" d="M469.17,-64.5C481.53,-64.5 494.41,-64.5 506.82,-64.5"/>
<polygon fill="#63b8ff" stroke="#63b8ff" points="468.94,-61 458.94,-64.5 468.94,-68 468.94,-61"/>
</a>
</g>
</g>
<!-- Node6&#45;&gt;Node1 -->
<g id="edge306_Node000006_Node000001" class="edge">
<title>Node6&#45;&gt;Node1</title>
<g id="a_edge306_Node000006_Node000001"><a xlink:title=" ">
<path fill="none" stroke="#63b8ff" d="M444.07,-139.88C453.14,-136.85 462.49,-133.36 471,-129.5 506.68,-113.33 545.27,-87.99 565.25,-74.22"/>
<polygon fill="#63b8ff" stroke="#63b8ff" points="442.86,-136.6 434.41,-142.98 445,-143.26 442.86,-136.6"/>
</a>
</g>
</g>
<!-- Node11 -->
<g id="Node000011" class="node">
<title>Node11</title>
<g id="a_Node000011"><a xlink:href="classTemporal_1_1Meter.html" target="_top" xlink:title=" ">
<polygon fill="white" stroke="#666666" points="271.5,-56 175.5,-56 175.5,-37 271.5,-37 271.5,-56"/>
<text text-anchor="middle" x="223.5" y="-44" font-family="Helvetica,sans-Serif" font-size="10.00">Temporal::Meter</text>
</a>
</g>
</g>
<!-- Node11&#45;&gt;Node2 -->
<g id="edge307_Node000011_Node000002" class="edge">
<title>Node11&#45;&gt;Node2</title>
<g id="a_edge307_Node000011_Node000002"><a xlink:title=" ">
<path fill="none" stroke="#63b8ff" d="M281.87,-52.49C299.66,-54.34 319.31,-56.39 337.26,-58.27"/>
<polygon fill="#63b8ff" stroke="#63b8ff" points="281.95,-48.98 271.64,-51.42 281.22,-55.94 281.95,-48.98"/>
</a>
</g>
</g>
<!-- Node12 -->
<g id="Node000012" class="node">
<title>Node12</title>
<g id="a_Node000012"><a xlink:title=" ">
<polygon fill="#e0e0e0" stroke="#999999" points="261,-19 186,-19 186,0 261,0 261,-19"/>
<text text-anchor="middle" x="223.5" y="-7" font-family="Helvetica,sans-Serif" font-size="10.00">meter_hook</text>
</a>
</g>
</g>
<!-- Node12&#45;&gt;Node2 -->
<g id="edge308_Node000012_Node000002" class="edge">
<title>Node12&#45;&gt;Node2</title>
<g id="a_edge308_Node000012_Node000002"><a xlink:title=" ">
<path fill="none" stroke="#63b8ff" d="M270.72,-21.24C276.93,-23.15 283.16,-25.25 289,-27.5 305.69,-33.93 308.26,-39.18 325,-45.5 334.56,-49.11 345.07,-52.3 355.04,-54.98"/>
<polygon fill="#63b8ff" stroke="#63b8ff" points="271.64,-17.86 261.06,-18.39 269.66,-24.57 271.64,-17.86"/>
</a>
</g>
</g>
<!-- Node10 -->
<g id="Node000010" class="node">
<title>Node10</title>
<g id="a_Node000010"><a xlink:title=" ">
<polygon fill="#e0e0e0" stroke="#999999" points="96.5,-74 25.5,-74 25.5,-55 96.5,-55 96.5,-74"/>
<text text-anchor="middle" x="61" y="-62" font-family="Helvetica,sans-Serif" font-size="10.00">point_hook</text>
</a>
</g>
</g>
<!-- Node10&#45;&gt;Node3 -->
<g id="edge309_Node000010_Node000003" class="edge">
<title>Node10&#45;&gt;Node3</title>
<g id="a_edge309_Node000010_Node000003"><a xlink:title=" ">
<path fill="none" stroke="#63b8ff" d="M106.91,-69.82C128.91,-72.42 155.34,-75.55 177.36,-78.16"/>
<polygon fill="#63b8ff" stroke="#63b8ff" points="107.17,-66.32 96.83,-68.62 106.35,-73.27 107.17,-66.32"/>
</a>
</g>
</g>
<!-- Node7 -->
<g id="Node000007" class="node">
<title>Node7</title>
<g id="a_Node000007"><a xlink:href="classTemporal_1_1Tempo.html" target="_top" xlink:title=" ">
<polygon fill="white" stroke="#666666" points="273.5,-167 173.5,-167 173.5,-148 273.5,-148 273.5,-167"/>
<text text-anchor="middle" x="223.5" y="-155" font-family="Helvetica,sans-Serif" font-size="10.00">Temporal::Tempo</text>
</a>
</g>
</g>
<!-- Node7&#45;&gt;Node6 -->
<g id="edge310_Node000007_Node000006" class="edge">
<title>Node7&#45;&gt;Node6</title>
<g id="a_edge310_Node000007_Node000006"><a xlink:title=" ">
<path fill="none" stroke="#63b8ff" d="M284.03,-155.77C300.58,-155.29 318.59,-154.77 335.27,-154.29"/>
<polygon fill="#63b8ff" stroke="#63b8ff" points="283.83,-152.28 273.93,-156.07 284.03,-159.28 283.83,-152.28"/>
</a>
</g>
</g>
<!-- Node8 -->
<g id="Node000008" class="node">
<title>Node8</title>
<g id="a_Node000008"><a xlink:title=" ">
<polygon fill="#e0e0e0" stroke="#999999" points="262,-204 185,-204 185,-185 262,-185 262,-204"/>
<text text-anchor="middle" x="223.5" y="-192" font-family="Helvetica,sans-Serif" font-size="10.00">tempo_hook</text>
</a>
</g>
</g>
<!-- Node8&#45;&gt;Node6 -->
<g id="edge311_Node000008_Node000006" class="edge">
<title>Node8&#45;&gt;Node6</title>
<g id="a_edge311_Node000008_Node000006"><a xlink:title=" ">
<path fill="none" stroke="#63b8ff" d="M272.33,-182.86C299.22,-176.31 332.38,-168.23 357.74,-162.06"/>
<polygon fill="#63b8ff" stroke="#63b8ff" points="271.24,-179.52 262.36,-185.28 272.9,-186.32 271.24,-179.52"/>
</a>
</g>
</g>
<!-- Node5 -->
<g id="Node000005" class="node">
<title>Node5</title>
<g id="a_Node000005"><a xlink:href="classTemporal_1_1TempoMetric.html" target="_top" xlink:title=" ">
<polygon fill="white" stroke="#666666" points="289,-130 158,-130 158,-111 289,-111 289,-130"/>
<text text-anchor="middle" x="223.5" y="-118" font-family="Helvetica,sans-Serif" font-size="10.00">Temporal::TempoMetric</text>
</a>
</g>
</g>
<!-- Node5&#45;&gt;Node4 -->
<g id="edge312_Node000005_Node000004" class="edge">
<title>Node5&#45;&gt;Node4</title>
<g id="a_edge312_Node000005_Node000004"><a xlink:title=" ">
<path fill="none" stroke="#63b8ff" d="M299.46,-116.15C307.92,-115.66 316.54,-115.16 324.97,-114.68"/>
<polygon fill="#63b8ff" stroke="#63b8ff" points="299,-112.67 289.22,-116.75 299.41,-119.66 299,-112.67"/>
</a>
</g>
</g>
</g>
</svg>
