<?xml version="1.0" encoding="UTF-8" standalone="no"?>
<!DOCTYPE svg PUBLIC "-//W3C//DTD SVG 1.1//EN"
 "http://www.w3.org/Graphics/SVG/1.1/DTD/svg11.dtd">
<!-- Generated by graphviz version 2.43.0 (0)
 -->
<!-- Title: Graphical Class Hierarchy Pages: 1 -->
<svg width="229pt" height="101pt"
 viewBox="0.00 0.00 229.00 101.00" xmlns="http://www.w3.org/2000/svg" xmlns:xlink="http://www.w3.org/1999/xlink">
<g id="graph0" class="graph" transform="scale(1 1) rotate(0) translate(4 97)">
<title>Graphical Class Hierarchy</title>
<!-- Node0 -->
<g id="Node000000" class="node">
<title>Node0</title>
<g id="a_Node000000"><a xlink:href="classUserdata.html" target="_top" xlink:title=" ">
<polygon fill="white" stroke="#666666" points="61,-56 0,-56 0,-37 61,-37 61,-56"/>
<text text-anchor="middle" x="30.5" y="-44" font-family="Helvetica,sans-Serif" font-size="10.00">Userdata</text>
</a>
</g>
</g>
<!-- Node1 -->
<g id="Node000001" class="node">
<title>Node1</title>
<g id="a_Node000001"><a xlink:href="classUserdataPtr.html" target="_top" xlink:title=" ">
<polygon fill="white" stroke="#666666" points="196,-93 122,-93 122,-74 196,-74 196,-93"/>
<text text-anchor="middle" x="159" y="-81" font-family="Helvetica,sans-Serif" font-size="10.00">UserdataPtr</text>
</a>
</g>
</g>
<!-- Node0&#45;&gt;Node1 -->
<g id="edge2386_Node000000_Node000001" class="edge">
<title>Node0&#45;&gt;Node1</title>
<g id="a_edge2386_Node000000_Node000001"><a xlink:title=" ">
<path fill="none" stroke="#63b8ff" d="M71.07,-58.07C88.55,-63.19 108.84,-69.12 125.42,-73.97"/>
<polygon fill="#63b8ff" stroke="#63b8ff" points="71.74,-54.62 61.16,-55.17 69.77,-61.34 71.74,-54.62"/>
</a>
</g>
</g>
<!-- Node2 -->
<g id="Node000002" class="node">
<title>Node2</title>
<g id="a_Node000002"><a xlink:href="classUserdataShared.html" target="_top" xlink:title=" ">
<polygon fill="white" stroke="#666666" points="221,-56 97,-56 97,-37 221,-37 221,-56"/>
<text text-anchor="middle" x="159" y="-44" font-family="Helvetica,sans-Serif" font-size="10.00">UserdataShared&lt; C &gt;</text>
</a>
</g>
</g>
<!-- Node0&#45;&gt;Node2 -->
<g id="edge2387_Node000000_Node000002" class="edge">
<title>Node0&#45;&gt;Node2</title>
<g id="a_edge2387_Node000000_Node000002"><a xlink:title=" ">
<path fill="none" stroke="#63b8ff" d="M71.42,-46.5C79.53,-46.5 88.24,-46.5 96.89,-46.5"/>
<polygon fill="#63b8ff" stroke="#63b8ff" points="71.16,-43 61.16,-46.5 71.16,-50 71.16,-43"/>
</a>
</g>
</g>
<!-- Node3 -->
<g id="Node000003" class="node">
<title>Node3</title>
<g id="a_Node000003"><a xlink:href="classUserdataValue.html" target="_top" xlink:title=" ">
<polygon fill="white" stroke="#666666" points="217,-19 101,-19 101,0 217,0 217,-19"/>
<text text-anchor="middle" x="159" y="-7" font-family="Helvetica,sans-Serif" font-size="10.00">UserdataValue&lt; T &gt;</text>
</a>
</g>
</g>
<!-- Node0&#45;&gt;Node3 -->
<g id="edge2388_Node000000_Node000003" class="edge">
<title>Node0&#45;&gt;Node3</title>
<g id="a_edge2388_Node000000_Node000003"><a xlink:title=" ">
<path fill="none" stroke="#63b8ff" d="M71.07,-34.93C88.55,-29.81 108.84,-23.88 125.42,-19.03"/>
<polygon fill="#63b8ff" stroke="#63b8ff" points="69.77,-31.66 61.16,-37.83 71.74,-38.38 69.77,-31.66"/>
</a>
</g>
</g>
</g>
</svg>
