<?xml version="1.0" encoding="UTF-8" standalone="no"?>
<!DOCTYPE svg PUBLIC "-//W3C//DTD SVG 1.1//EN"
 "http://www.w3.org/Graphics/SVG/1.1/DTD/svg11.dtd">
<!-- Generated by graphviz version 2.43.0 (0)
 -->
<!-- Title: Graphical Class Hierarchy Pages: 1 -->
<svg width="525pt" height="944pt"
 viewBox="0.00 0.00 525.00 943.50" xmlns="http://www.w3.org/2000/svg" xmlns:xlink="http://www.w3.org/1999/xlink">
<g id="graph0" class="graph" transform="scale(1 1) rotate(0) translate(4 939.5)">
<title>Graphical Class Hierarchy</title>
<!-- Node0 -->
<g id="Node000000" class="node">
<title>Node0</title>
<g id="a_Node000000"><a xlink:title=" ">
<polygon fill="#e0e0e0" stroke="#999999" points="86,-455 0,-455 0,-436 86,-436 86,-455"/>
<text text-anchor="middle" x="43" y="-443" font-family="Helvetica,sans-Serif" font-size="10.00">std::exception</text>
</a>
</g>
</g>
<!-- Node1 -->
<g id="Node000001" class="node">
<title>Node1</title>
<g id="a_Node000001"><a xlink:href="classARDOUR_1_1AudioEngine_1_1NoBackendAvailable.html" target="_top" xlink:title=" ">
<polygon fill="white" stroke="#666666" points="267,-935.5 141,-935.5 141,-905.5 267,-905.5 267,-935.5"/>
<text text-anchor="start" x="149" y="-923.5" font-family="Helvetica,sans-Serif" font-size="10.00">ARDOUR::AudioEngine</text>
<text text-anchor="middle" x="204" y="-912.5" font-family="Helvetica,sans-Serif" font-size="10.00">::NoBackendAvailable</text>
</a>
</g>
</g>
<!-- Node0&#45;&gt;Node1 -->
<g id="edge2339_Node000000_Node000001" class="edge">
<title>Node0&#45;&gt;Node1</title>
<g id="a_edge2339_Node000000_Node000001"><a xlink:title=" ">
<path fill="none" stroke="#63b8ff" d="M44.74,-465.66C48.03,-544.55 63.85,-831.13 122,-896.5 127.17,-902.31 133.67,-906.74 140.72,-910.12"/>
<polygon fill="#63b8ff" stroke="#63b8ff" points="48.22,-465.07 44.33,-455.21 41.22,-465.34 48.22,-465.07"/>
</a>
</g>
</g>
<!-- Node2 -->
<g id="Node000002" class="node">
<title>Node2</title>
<g id="a_Node000002"><a xlink:href="classARDOUR_1_1ExportFailed.html" target="_top" xlink:title=" ">
<polygon fill="white" stroke="#666666" points="266.5,-887 141.5,-887 141.5,-868 266.5,-868 266.5,-887"/>
<text text-anchor="middle" x="204" y="-875" font-family="Helvetica,sans-Serif" font-size="10.00">ARDOUR::ExportFailed</text>
</a>
</g>
</g>
<!-- Node0&#45;&gt;Node2 -->
<g id="edge2340_Node000000_Node000002" class="edge">
<title>Node0&#45;&gt;Node2</title>
<g id="a_edge2340_Node000000_Node000002"><a xlink:title=" ">
<path fill="none" stroke="#63b8ff" d="M44.94,-465.55C48.85,-540.38 66.35,-802.01 122,-859.5 127.41,-865.09 134.14,-869.12 141.4,-872"/>
<polygon fill="#63b8ff" stroke="#63b8ff" points="48.42,-465.02 44.42,-455.2 41.42,-465.36 48.42,-465.02"/>
</a>
</g>
</g>
<!-- Node3 -->
<g id="Node000003" class="node">
<title>Node3</title>
<g id="a_Node000003"><a xlink:href="classARDOUR_1_1MissingSource.html" target="_top" xlink:title=" ">
<polygon fill="white" stroke="#666666" points="272,-850 136,-850 136,-831 272,-831 272,-850"/>
<text text-anchor="middle" x="204" y="-838" font-family="Helvetica,sans-Serif" font-size="10.00">ARDOUR::MissingSource</text>
</a>
</g>
</g>
<!-- Node0&#45;&gt;Node3 -->
<g id="edge2341_Node000000_Node000003" class="edge">
<title>Node0&#45;&gt;Node3</title>
<g id="a_edge2341_Node000000_Node000003"><a xlink:title=" ">
<path fill="none" stroke="#63b8ff" d="M45.37,-465.49C50.59,-535.72 71.54,-769.71 122,-821.5 126.03,-825.64 130.78,-828.95 135.93,-831.58"/>
<polygon fill="#63b8ff" stroke="#63b8ff" points="48.85,-465.06 44.64,-455.34 41.87,-465.57 48.85,-465.06"/>
</a>
</g>
</g>
<!-- Node4 -->
<g id="Node000004" class="node">
<title>Node4</title>
<g id="a_Node000004"><a xlink:href="classARDOUR_1_1PortManager_1_1PortRegistrationFailure.html" target="_top" xlink:title=" ">
<polygon fill="white" stroke="#666666" points="271,-812.5 137,-812.5 137,-782.5 271,-782.5 271,-812.5"/>
<text text-anchor="start" x="145" y="-800.5" font-family="Helvetica,sans-Serif" font-size="10.00">ARDOUR::PortManager</text>
<text text-anchor="middle" x="204" y="-789.5" font-family="Helvetica,sans-Serif" font-size="10.00">::PortRegistrationFailure</text>
</a>
</g>
</g>
<!-- Node0&#45;&gt;Node4 -->
<g id="edge2342_Node000000_Node000004" class="edge">
<title>Node0&#45;&gt;Node4</title>
<g id="a_edge2342_Node000000_Node000004"><a xlink:title=" ">
<path fill="none" stroke="#63b8ff" d="M46.12,-465.29C53.33,-529.11 78.91,-727.99 122,-773.5 126.24,-777.97 131.26,-781.62 136.7,-784.6"/>
<polygon fill="#63b8ff" stroke="#63b8ff" points="49.59,-464.87 45.02,-455.32 42.64,-465.64 49.59,-464.87"/>
</a>
</g>
</g>
<!-- Node5 -->
<g id="Node000005" class="node">
<title>Node5</title>
<g id="a_Node000005"><a xlink:href="classARDOUR_1_1ProcessorException.html" target="_top" xlink:title=" ">
<polygon fill="white" stroke="#666666" points="284.5,-764 123.5,-764 123.5,-745 284.5,-745 284.5,-764"/>
<text text-anchor="middle" x="204" y="-752" font-family="Helvetica,sans-Serif" font-size="10.00">ARDOUR::ProcessorException</text>
</a>
</g>
</g>
<!-- Node0&#45;&gt;Node5 -->
<g id="edge2343_Node000000_Node000005" class="edge">
<title>Node0&#45;&gt;Node5</title>
<g id="a_edge2343_Node000000_Node000005"><a xlink:title=" ">
<path fill="none" stroke="#63b8ff" d="M46.64,-465.43C54.9,-524.73 82.07,-698.26 122,-736.5 125.43,-739.79 129.33,-742.53 133.51,-744.81"/>
<polygon fill="#63b8ff" stroke="#63b8ff" points="50.06,-464.61 45.24,-455.17 43.12,-465.55 50.06,-464.61"/>
</a>
</g>
</g>
<!-- Node6 -->
<g id="Node000006" class="node">
<title>Node6</title>
<g id="a_Node000006"><a xlink:href="classARDOUR_1_1SessionException.html" target="_top" xlink:title=" ">
<polygon fill="white" stroke="#666666" points="279.5,-727 128.5,-727 128.5,-708 279.5,-708 279.5,-727"/>
<text text-anchor="middle" x="204" y="-715" font-family="Helvetica,sans-Serif" font-size="10.00">ARDOUR::SessionException</text>
</a>
</g>
</g>
<!-- Node0&#45;&gt;Node6 -->
<g id="edge2344_Node000000_Node000006" class="edge">
<title>Node0&#45;&gt;Node6</title>
<g id="a_edge2344_Node000000_Node000006"><a xlink:title=" ">
<path fill="none" stroke="#63b8ff" d="M43.8,-465.31C44.45,-513.18 53.13,-635.88 122,-699.5 125.6,-702.82 129.67,-705.58 134.02,-707.87"/>
<polygon fill="#63b8ff" stroke="#63b8ff" points="47.3,-465.06 43.77,-455.07 40.3,-465.08 47.3,-465.06"/>
</a>
</g>
</g>
<!-- Node7 -->
<g id="Node000007" class="node">
<title>Node7</title>
<g id="a_Node000007"><a xlink:href="classARDOUR_1_1WrongProgram.html" target="_top" xlink:title=" ">
<polygon fill="white" stroke="#666666" points="273,-690 135,-690 135,-671 273,-671 273,-690"/>
<text text-anchor="middle" x="204" y="-678" font-family="Helvetica,sans-Serif" font-size="10.00">ARDOUR::WrongProgram</text>
</a>
</g>
</g>
<!-- Node0&#45;&gt;Node7 -->
<g id="edge2345_Node000000_Node000007" class="edge">
<title>Node0&#45;&gt;Node7</title>
<g id="a_edge2345_Node000000_Node000007"><a xlink:title=" ">
<path fill="none" stroke="#63b8ff" d="M45.08,-465.15C48.51,-507.72 62.8,-608.81 122,-661.5 126.32,-665.34 131.26,-668.45 136.53,-670.95"/>
<polygon fill="#63b8ff" stroke="#63b8ff" points="48.56,-464.74 44.38,-455.01 41.57,-465.22 48.56,-464.74"/>
</a>
</g>
</g>
<!-- Node8 -->
<g id="Node000008" class="node">
<title>Node8</title>
<g id="a_Node000008"><a xlink:href="classActionManager_1_1MissingActionException.html" target="_top" xlink:title=" ">
<polygon fill="white" stroke="#666666" points="286,-652.5 122,-652.5 122,-622.5 286,-622.5 286,-652.5"/>
<text text-anchor="start" x="130" y="-640.5" font-family="Helvetica,sans-Serif" font-size="10.00">ActionManager::MissingAction</text>
<text text-anchor="middle" x="204" y="-629.5" font-family="Helvetica,sans-Serif" font-size="10.00">Exception</text>
</a>
</g>
</g>
<!-- Node0&#45;&gt;Node8 -->
<g id="edge2346_Node000000_Node000008" class="edge">
<title>Node0&#45;&gt;Node8</title>
<g id="a_edge2346_Node000000_Node000008"><a xlink:title=" ">
<path fill="none" stroke="#63b8ff" d="M47.61,-465.06C55.1,-500.07 75.65,-573.49 122,-613.5 126,-616.95 130.47,-619.9 135.21,-622.43"/>
<polygon fill="#63b8ff" stroke="#63b8ff" points="51.02,-464.26 45.62,-455.14 44.16,-465.63 51.02,-464.26"/>
</a>
</g>
</g>
<!-- Node9 -->
<g id="Node000009" class="node">
<title>Node9</title>
<g id="a_Node000009"><a xlink:href="classArdourSurface_1_1ControlNotFoundException.html" target="_top" xlink:title=" ">
<polygon fill="white" stroke="#666666" points="276,-604.5 132,-604.5 132,-574.5 276,-574.5 276,-604.5"/>
<text text-anchor="start" x="140" y="-592.5" font-family="Helvetica,sans-Serif" font-size="10.00">ArdourSurface::ControlNot</text>
<text text-anchor="middle" x="204" y="-581.5" font-family="Helvetica,sans-Serif" font-size="10.00">FoundException</text>
</a>
</g>
</g>
<!-- Node0&#45;&gt;Node9 -->
<g id="edge2347_Node000000_Node000009" class="edge">
<title>Node0&#45;&gt;Node9</title>
<g id="a_edge2347_Node000000_Node000009"><a xlink:title=" ">
<path fill="none" stroke="#63b8ff" d="M51.38,-464.62C62.6,-491.19 86.49,-538.99 122,-565.5 126.58,-568.92 131.65,-571.86 136.95,-574.38"/>
<polygon fill="#63b8ff" stroke="#63b8ff" points="54.58,-463.21 47.58,-455.26 48.1,-465.84 54.58,-463.21"/>
</a>
</g>
</g>
<!-- Node10 -->
<g id="Node000010" class="node">
<title>Node10</title>
<g id="a_Node000010"><a xlink:href="classArdourSurface_1_1Maschine2Exception.html" target="_top" xlink:title=" ">
<polygon fill="white" stroke="#666666" points="276,-556.5 132,-556.5 132,-526.5 276,-526.5 276,-556.5"/>
<text text-anchor="start" x="140" y="-544.5" font-family="Helvetica,sans-Serif" font-size="10.00">ArdourSurface::Maschine2</text>
<text text-anchor="middle" x="204" y="-533.5" font-family="Helvetica,sans-Serif" font-size="10.00">Exception</text>
</a>
</g>
</g>
<!-- Node0&#45;&gt;Node10 -->
<g id="edge2348_Node000000_Node000010" class="edge">
<title>Node0&#45;&gt;Node10</title>
<g id="a_edge2348_Node000000_Node000010"><a xlink:title=" ">
<path fill="none" stroke="#63b8ff" d="M58.77,-463.16C73.3,-479.46 96.89,-503.23 122,-517.5 127.99,-520.91 134.52,-523.87 141.17,-526.44"/>
<polygon fill="#63b8ff" stroke="#63b8ff" points="61.24,-460.66 52.04,-455.41 55.96,-465.25 61.24,-460.66"/>
</a>
</g>
</g>
<!-- Node11 -->
<g id="Node000011" class="node">
<title>Node11</title>
<g id="a_Node000011"><a xlink:href="classArdourSurface_1_1NS__MCU_1_1MackieControlException.html" target="_top" xlink:title=" ">
<polygon fill="white" stroke="#666666" points="274.5,-508.5 133.5,-508.5 133.5,-478.5 274.5,-478.5 274.5,-508.5"/>
<text text-anchor="start" x="141.5" y="-496.5" font-family="Helvetica,sans-Serif" font-size="10.00">ArdourSurface::NS_MCU</text>
<text text-anchor="middle" x="204" y="-485.5" font-family="Helvetica,sans-Serif" font-size="10.00">::MackieControlException</text>
</a>
</g>
</g>
<!-- Node0&#45;&gt;Node11 -->
<g id="edge2349_Node000000_Node000011" class="edge">
<title>Node0&#45;&gt;Node11</title>
<g id="a_edge2349_Node000000_Node000011"><a xlink:title=" ">
<path fill="none" stroke="#63b8ff" d="M84.52,-458.06C96.57,-461.77 109.81,-465.82 122,-469.5 131.69,-472.43 142.04,-475.52 151.99,-478.47"/>
<polygon fill="#63b8ff" stroke="#63b8ff" points="85.31,-454.64 74.73,-455.04 83.25,-461.33 85.31,-454.64"/>
</a>
</g>
</g>
<!-- Node12 -->
<g id="Node000012" class="node">
<title>Node12</title>
<g id="a_Node000012"><a xlink:href="classArdourSurface_1_1US2400_1_1MackieControlException.html" target="_top" xlink:title=" ">
<polygon fill="white" stroke="#666666" points="274.5,-460.5 133.5,-460.5 133.5,-430.5 274.5,-430.5 274.5,-460.5"/>
<text text-anchor="start" x="141.5" y="-448.5" font-family="Helvetica,sans-Serif" font-size="10.00">ArdourSurface::US2400</text>
<text text-anchor="middle" x="204" y="-437.5" font-family="Helvetica,sans-Serif" font-size="10.00">::MackieControlException</text>
</a>
</g>
</g>
<!-- Node0&#45;&gt;Node12 -->
<g id="edge2350_Node000000_Node000012" class="edge">
<title>Node0&#45;&gt;Node12</title>
<g id="a_edge2350_Node000000_Node000012"><a xlink:title=" ">
<path fill="none" stroke="#63b8ff" d="M96.31,-445.5C108.12,-445.5 120.84,-445.5 133.24,-445.5"/>
<polygon fill="#63b8ff" stroke="#63b8ff" points="96.19,-442 86.19,-445.5 96.19,-449 96.19,-442"/>
</a>
</g>
</g>
<!-- Node13 -->
<g id="Node000013" class="node">
<title>Node13</title>
<g id="a_Node000013"><a xlink:href="classAudioGrapher_1_1Exception.html" target="_top" xlink:title=" ">
<polygon fill="white" stroke="#666666" points="272.5,-412 135.5,-412 135.5,-393 272.5,-393 272.5,-412"/>
<text text-anchor="middle" x="204" y="-400" font-family="Helvetica,sans-Serif" font-size="10.00">AudioGrapher::Exception</text>
</a>
</g>
</g>
<!-- Node0&#45;&gt;Node13 -->
<g id="edge2351_Node000000_Node000013" class="edge">
<title>Node0&#45;&gt;Node13</title>
<g id="a_edge2351_Node000000_Node000013"><a xlink:title=" ">
<path fill="none" stroke="#63b8ff" d="M83.09,-432.9C95.48,-429.06 109.27,-424.95 122,-421.5 134.27,-418.18 147.67,-414.89 159.99,-412.02"/>
<polygon fill="#63b8ff" stroke="#63b8ff" points="81.99,-429.58 73.49,-435.91 84.08,-436.26 81.99,-429.58"/>
</a>
</g>
</g>
<!-- Node15 -->
<g id="Node000015" class="node">
<title>Node15</title>
<g id="a_Node000015"><a xlink:href="classEvoral_1_1SMF_1_1FileError.html" target="_top" xlink:title=" ">
<polygon fill="white" stroke="#666666" points="264,-375 144,-375 144,-356 264,-356 264,-375"/>
<text text-anchor="middle" x="204" y="-363" font-family="Helvetica,sans-Serif" font-size="10.00">Evoral::SMF::FileError</text>
</a>
</g>
</g>
<!-- Node0&#45;&gt;Node15 -->
<g id="edge2353_Node000000_Node000015" class="edge">
<title>Node0&#45;&gt;Node15</title>
<g id="a_edge2353_Node000000_Node000015"><a xlink:title=" ">
<path fill="none" stroke="#63b8ff" d="M61.03,-428.57C75.91,-414.72 98.72,-395.66 122,-384.5 130.08,-380.63 138.99,-377.52 147.86,-375.03"/>
<polygon fill="#63b8ff" stroke="#63b8ff" points="58.44,-426.21 53.63,-435.65 63.27,-431.27 58.44,-426.21"/>
</a>
</g>
</g>
<!-- Node16 -->
<g id="Node000016" class="node">
<title>Node16</title>
<g id="a_Node000016"><a xlink:href="classLuaException.html" target="_top" xlink:title=" ">
<polygon fill="white" stroke="#666666" points="245,-338 163,-338 163,-319 245,-319 245,-338"/>
<text text-anchor="middle" x="204" y="-326" font-family="Helvetica,sans-Serif" font-size="10.00">LuaException</text>
</a>
</g>
</g>
<!-- Node0&#45;&gt;Node16 -->
<g id="edge2354_Node000000_Node000016" class="edge">
<title>Node0&#45;&gt;Node16</title>
<g id="a_edge2354_Node000000_Node000016"><a xlink:title=" ">
<path fill="none" stroke="#63b8ff" d="M53.56,-427.08C66.16,-404.7 90.47,-367.46 122,-347.5 134.08,-339.85 148.93,-335.28 162.6,-332.54"/>
<polygon fill="#63b8ff" stroke="#63b8ff" points="50.45,-425.48 48.75,-435.94 56.6,-428.82 50.45,-425.48"/>
</a>
</g>
</g>
<!-- Node17 -->
<g id="Node000017" class="node">
<title>Node17</title>
<g id="a_Node000017"><a xlink:href="classPBD_1_1unknown__enumeration.html" target="_top" xlink:title=" ">
<polygon fill="white" stroke="#666666" points="281.5,-301 126.5,-301 126.5,-282 281.5,-282 281.5,-301"/>
<text text-anchor="middle" x="204" y="-289" font-family="Helvetica,sans-Serif" font-size="10.00">PBD::unknown_enumeration</text>
</a>
</g>
</g>
<!-- Node0&#45;&gt;Node17 -->
<g id="edge2355_Node000000_Node000017" class="edge">
<title>Node0&#45;&gt;Node17</title>
<g id="a_edge2355_Node000000_Node000017"><a xlink:title=" ">
<path fill="none" stroke="#63b8ff" d="M49.63,-426.26C59.34,-396.61 82.13,-340.1 122,-310.5 127.22,-306.63 133.11,-303.53 139.26,-301.05"/>
<polygon fill="#63b8ff" stroke="#63b8ff" points="46.27,-425.28 46.64,-435.87 52.96,-427.36 46.27,-425.28"/>
</a>
</g>
</g>
<!-- Node18 -->
<g id="Node000018" class="node">
<title>Node18</title>
<g id="a_Node000018"><a xlink:href="structTemporal_1_1IllegalBBTTimeException.html" target="_top" xlink:title=" ">
<polygon fill="white" stroke="#666666" points="275,-263.5 133,-263.5 133,-233.5 275,-233.5 275,-263.5"/>
<text text-anchor="start" x="141" y="-251.5" font-family="Helvetica,sans-Serif" font-size="10.00">Temporal::IllegalBBTTime</text>
<text text-anchor="middle" x="204" y="-240.5" font-family="Helvetica,sans-Serif" font-size="10.00">Exception</text>
</a>
</g>
</g>
<!-- Node0&#45;&gt;Node18 -->
<g id="edge2356_Node000000_Node000018" class="edge">
<title>Node0&#45;&gt;Node18</title>
<g id="a_edge2356_Node000000_Node000018"><a xlink:title=" ">
<path fill="none" stroke="#63b8ff" d="M47.51,-425.53C54.85,-389.79 75.16,-314.77 122,-273.5 126.42,-269.61 131.43,-266.32 136.75,-263.55"/>
<polygon fill="#63b8ff" stroke="#63b8ff" points="44.02,-425.18 45.57,-435.66 50.89,-426.5 44.02,-425.18"/>
</a>
</g>
</g>
<!-- Node19 -->
<g id="Node000019" class="node">
<title>Node19</title>
<g id="a_Node000019"><a xlink:href="structTemporal_1_1TempoMap_1_1EmptyTempoMapException.html" target="_top" xlink:title=" ">
<polygon fill="white" stroke="#666666" points="281.5,-215.5 126.5,-215.5 126.5,-185.5 281.5,-185.5 281.5,-215.5"/>
<text text-anchor="start" x="134.5" y="-203.5" font-family="Helvetica,sans-Serif" font-size="10.00">Temporal::TempoMap</text>
<text text-anchor="middle" x="204" y="-192.5" font-family="Helvetica,sans-Serif" font-size="10.00">::EmptyTempoMapException</text>
</a>
</g>
</g>
<!-- Node0&#45;&gt;Node19 -->
<g id="edge2357_Node000000_Node000019" class="edge">
<title>Node0&#45;&gt;Node19</title>
<g id="a_edge2357_Node000000_Node000019"><a xlink:title=" ">
<path fill="none" stroke="#63b8ff" d="M45.14,-425.93C48.7,-383.08 63.24,-280.32 122,-224.5 125.62,-221.07 129.7,-218.12 134.06,-215.59"/>
<polygon fill="#63b8ff" stroke="#63b8ff" points="41.65,-425.68 44.42,-435.91 48.63,-426.19 41.65,-425.68"/>
</a>
</g>
</g>
<!-- Node20 -->
<g id="Node000020" class="node">
<title>Node20</title>
<g id="a_Node000020"><a xlink:href="classXMLException.html" target="_top" xlink:title=" ">
<polygon fill="white" stroke="#666666" points="247,-167 161,-167 161,-148 247,-148 247,-167"/>
<text text-anchor="middle" x="204" y="-155" font-family="Helvetica,sans-Serif" font-size="10.00">XMLException</text>
</a>
</g>
</g>
<!-- Node0&#45;&gt;Node20 -->
<g id="edge2358_Node000000_Node000020" class="edge">
<title>Node0&#45;&gt;Node20</title>
<g id="a_edge2358_Node000000_Node000020"><a xlink:title=" ">
<path fill="none" stroke="#63b8ff" d="M43.45,-425.92C43.18,-376.38 49.7,-245.15 122,-176.5 132.37,-166.65 146.83,-161.58 160.67,-159.06"/>
<polygon fill="#63b8ff" stroke="#63b8ff" points="39.95,-426 43.61,-435.94 46.95,-425.89 39.95,-426"/>
</a>
</g>
</g>
<!-- Node21 -->
<g id="Node000021" class="node">
<title>Node21</title>
<g id="a_Node000021"><a xlink:href="classfailed__constructor.html" target="_top" xlink:title=" ">
<polygon fill="white" stroke="#666666" points="256,-130 152,-130 152,-111 256,-111 256,-130"/>
<text text-anchor="middle" x="204" y="-118" font-family="Helvetica,sans-Serif" font-size="10.00">failed_constructor</text>
</a>
</g>
</g>
<!-- Node0&#45;&gt;Node21 -->
<g id="edge2359_Node000000_Node000021" class="edge">
<title>Node0&#45;&gt;Node21</title>
<g id="a_edge2359_Node000000_Node000021"><a xlink:title=" ">
<path fill="none" stroke="#63b8ff" d="M46.36,-425.78C54.05,-364.7 80.36,-180.35 122,-139.5 130.04,-131.61 140.7,-126.76 151.64,-123.84"/>
<polygon fill="#63b8ff" stroke="#63b8ff" points="42.85,-425.63 45.1,-435.98 49.8,-426.48 42.85,-425.63"/>
</a>
</g>
</g>
<!-- Node23 -->
<g id="Node000023" class="node">
<title>Node23</title>
<g id="a_Node000023"><a xlink:href="structint62__t_1_1flag__mismatch.html" target="_top" xlink:title=" ">
<polygon fill="white" stroke="#666666" points="268,-93 140,-93 140,-74 268,-74 268,-93"/>
<text text-anchor="middle" x="204" y="-81" font-family="Helvetica,sans-Serif" font-size="10.00">int62_t::flag_mismatch</text>
</a>
</g>
</g>
<!-- Node0&#45;&gt;Node23 -->
<g id="edge2361_Node000000_Node000023" class="edge">
<title>Node0&#45;&gt;Node23</title>
<g id="a_edge2361_Node000000_Node000023"><a xlink:title=" ">
<path fill="none" stroke="#63b8ff" d="M45.79,-425.59C52.15,-359.52 75.72,-149.1 122,-102.5 127.09,-97.38 133.28,-93.53 139.95,-90.65"/>
<polygon fill="#63b8ff" stroke="#63b8ff" points="42.28,-425.58 44.83,-435.86 49.25,-426.23 42.28,-425.58"/>
</a>
</g>
</g>
<!-- Node24 -->
<g id="Node000024" class="node">
<title>Node24</title>
<g id="a_Node000024"><a xlink:title=" ">
<polygon fill="#e0e0e0" stroke="#999999" points="256,-56 152,-56 152,-37 256,-37 256,-56"/>
<text text-anchor="middle" x="204" y="-44" font-family="Helvetica,sans-Serif" font-size="10.00">std::runtime_error</text>
</a>
</g>
</g>
<!-- Node0&#45;&gt;Node24 -->
<g id="edge2362_Node000000_Node000024" class="edge">
<title>Node0&#45;&gt;Node24</title>
<g id="a_edge2362_Node000000_Node000024"><a xlink:title=" ">
<path fill="none" stroke="#63b8ff" d="M45.28,-425.69C50.23,-355.04 70.54,-116.83 122,-64.5 129.98,-56.39 140.75,-51.57 151.82,-48.78"/>
<polygon fill="#63b8ff" stroke="#63b8ff" points="41.77,-425.66 44.59,-435.87 48.75,-426.13 41.77,-425.66"/>
</a>
</g>
</g>
<!-- Node26 -->
<g id="Node000026" class="node">
<title>Node26</title>
<g id="a_Node000026"><a xlink:href="classunknown__type.html" target="_top" xlink:title=" ">
<polygon fill="white" stroke="#666666" points="248,-19 160,-19 160,0 248,0 248,-19"/>
<text text-anchor="middle" x="204" y="-7" font-family="Helvetica,sans-Serif" font-size="10.00">unknown_type</text>
</a>
</g>
</g>
<!-- Node0&#45;&gt;Node26 -->
<g id="edge2364_Node000000_Node000026" class="edge">
<title>Node0&#45;&gt;Node26</title>
<g id="a_edge2364_Node000000_Node000026"><a xlink:title=" ">
<path fill="none" stroke="#63b8ff" d="M44.91,-425.26C48.71,-349.71 65.88,-85.57 122,-27.5 131.81,-17.35 145.98,-12.33 159.73,-10.01"/>
<polygon fill="#63b8ff" stroke="#63b8ff" points="41.39,-425.55 44.41,-435.71 48.38,-425.88 41.39,-425.55"/>
</a>
</g>
</g>
<!-- Node14 -->
<g id="Node000014" class="node">
<title>Node14</title>
<g id="a_Node000014"><a xlink:href="classAudioGrapher_1_1ThreaderException.html" target="_top" xlink:title="Class that stores exceptions thrown from different threads.">
<polygon fill="white" stroke="#666666" points="510,-412 329,-412 329,-393 510,-393 510,-412"/>
<text text-anchor="middle" x="419.5" y="-400" font-family="Helvetica,sans-Serif" font-size="10.00">AudioGrapher::ThreaderException</text>
</a>
</g>
</g>
<!-- Node13&#45;&gt;Node14 -->
<g id="edge2352_Node000013_Node000014" class="edge">
<title>Node13&#45;&gt;Node14</title>
<g id="a_edge2352_Node000013_Node000014"><a xlink:title=" ">
<path fill="none" stroke="#63b8ff" d="M282.75,-402.5C297.69,-402.5 313.45,-402.5 328.73,-402.5"/>
<polygon fill="#63b8ff" stroke="#63b8ff" points="282.55,-399 272.55,-402.5 282.55,-406 282.55,-399"/>
</a>
</g>
</g>
<!-- Node22 -->
<g id="Node000022" class="node">
<title>Node22</title>
<g id="a_Node000022"><a xlink:href="classARDOUR_1_1ExportFormatIncompatible.html" target="_top" xlink:title=" ">
<polygon fill="white" stroke="#666666" points="517,-130 322,-130 322,-111 517,-111 517,-130"/>
<text text-anchor="middle" x="419.5" y="-118" font-family="Helvetica,sans-Serif" font-size="10.00">ARDOUR::ExportFormatIncompatible</text>
</a>
</g>
</g>
<!-- Node21&#45;&gt;Node22 -->
<g id="edge2360_Node000021_Node000022" class="edge">
<title>Node21&#45;&gt;Node22</title>
<g id="a_edge2360_Node000021_Node000022"><a xlink:title=" ">
<path fill="none" stroke="#63b8ff" d="M266.61,-120.5C283.85,-120.5 303.03,-120.5 321.78,-120.5"/>
<polygon fill="#63b8ff" stroke="#63b8ff" points="266.14,-117 256.14,-120.5 266.14,-124 266.14,-117"/>
</a>
</g>
</g>
<!-- Node25 -->
<g id="Node000025" class="node">
<title>Node25</title>
<g id="a_Node000025"><a xlink:href="classArdourSurface_1_1ArdourMixerNotFoundException.html" target="_top" xlink:title=" ">
<polygon fill="white" stroke="#666666" points="495,-61.5 344,-61.5 344,-31.5 495,-31.5 495,-61.5"/>
<text text-anchor="start" x="352" y="-49.5" font-family="Helvetica,sans-Serif" font-size="10.00">ArdourSurface::ArdourMixer</text>
<text text-anchor="middle" x="419.5" y="-38.5" font-family="Helvetica,sans-Serif" font-size="10.00">NotFoundException</text>
</a>
</g>
</g>
<!-- Node24&#45;&gt;Node25 -->
<g id="edge2363_Node000024_Node000025" class="edge">
<title>Node24&#45;&gt;Node25</title>
<g id="a_edge2363_Node000024_Node000025"><a xlink:title=" ">
<path fill="none" stroke="#63b8ff" d="M266.27,-46.5C290.49,-46.5 318.55,-46.5 343.94,-46.5"/>
<polygon fill="#63b8ff" stroke="#63b8ff" points="266.14,-43 256.14,-46.5 266.14,-50 266.14,-43"/>
</a>
</g>
</g>
</g>
</svg>
