<?xml version="1.0" encoding="UTF-8" standalone="no"?>
<!DOCTYPE svg PUBLIC "-//W3C//DTD SVG 1.1//EN"
 "http://www.w3.org/Graphics/SVG/1.1/DTD/svg11.dtd">
<!-- Generated by graphviz version 2.43.0 (0)
 -->
<!-- Title: Graphical Class Hierarchy Pages: 1 -->
<svg width="532pt" height="799pt"
 viewBox="0.00 0.00 532.00 798.50" xmlns="http://www.w3.org/2000/svg" xmlns:xlink="http://www.w3.org/1999/xlink">
<g id="graph0" class="graph" transform="scale(1 1) rotate(0) translate(4 794.5)">
<title>Graphical Class Hierarchy</title>
<!-- Node0 -->
<g id="Node000000" class="node">
<title>Node0</title>
<g id="a_Node000000"><a xlink:href="classEvoral_1_1EventSink.html" target="_top" xlink:title=" ">
<polygon fill="white" stroke="#666666" points="111.5,-632.5 1.5,-632.5 1.5,-602.5 111.5,-602.5 111.5,-632.5"/>
<text text-anchor="start" x="9.5" y="-620.5" font-family="Helvetica,sans-Serif" font-size="10.00">Evoral::EventSink&lt;</text>
<text text-anchor="middle" x="56.5" y="-609.5" font-family="Helvetica,sans-Serif" font-size="10.00"> Time &gt;</text>
</a>
</g>
</g>
<!-- Node1 -->
<g id="Node000001" class="node">
<title>Node1</title>
<g id="a_Node000001"><a xlink:href="classARDOUR_1_1EventRingBuffer.html" target="_top" xlink:title=" ">
<polygon fill="white" stroke="#666666" points="322,-742 149,-742 149,-723 322,-723 322,-742"/>
<text text-anchor="middle" x="235.5" y="-730" font-family="Helvetica,sans-Serif" font-size="10.00">ARDOUR::EventRingBuffer&lt; T &gt;</text>
</a>
</g>
</g>
<!-- Node0&#45;&gt;Node1 -->
<g id="edge403_Node000000_Node000001" class="edge">
<title>Node0&#45;&gt;Node1</title>
<g id="a_edge403_Node000000_Node000001"><a xlink:title=" ">
<path fill="none" stroke="#63b8ff" d="M73.53,-641.06C89.88,-663.23 117.32,-695.61 149,-713.5 155.89,-717.39 163.5,-720.48 171.27,-722.94"/>
<polygon fill="#63b8ff" stroke="#63b8ff" points="76.29,-638.91 67.61,-632.83 70.61,-642.99 76.29,-638.91"/>
</a>
</g>
</g>
<!-- Node4 -->
<g id="Node000004" class="node">
<title>Node4</title>
<g id="a_Node000004"><a xlink:href="classARDOUR_1_1EventRingBuffer.html" target="_top" xlink:title=" ">
<polygon fill="white" stroke="#666666" points="307.5,-656.5 163.5,-656.5 163.5,-626.5 307.5,-626.5 307.5,-656.5"/>
<text text-anchor="start" x="171.5" y="-644.5" font-family="Helvetica,sans-Serif" font-size="10.00">ARDOUR::EventRingBuffer</text>
<text text-anchor="middle" x="235.5" y="-633.5" font-family="Helvetica,sans-Serif" font-size="10.00">&lt; MIDI::timestamp_t &gt;</text>
</a>
</g>
</g>
<!-- Node0&#45;&gt;Node4 -->
<g id="edge405_Node000000_Node000004" class="edge">
<title>Node0&#45;&gt;Node4</title>
<g id="a_edge405_Node000000_Node000004"><a xlink:title=" ">
<path fill="none" stroke="#63b8ff" d="M121.75,-626.21C135.3,-628.05 149.68,-630 163.47,-631.87"/>
<polygon fill="#63b8ff" stroke="#63b8ff" points="121.95,-622.71 111.57,-624.83 121.01,-629.64 121.95,-622.71"/>
</a>
</g>
</g>
<!-- Node5 -->
<g id="Node000005" class="node">
<title>Node5</title>
<g id="a_Node000005"><a xlink:href="classARDOUR_1_1EventRingBuffer.html" target="_top" xlink:title=" ">
<polygon fill="white" stroke="#666666" points="307.5,-790.5 163.5,-790.5 163.5,-760.5 307.5,-760.5 307.5,-790.5"/>
<text text-anchor="start" x="171.5" y="-778.5" font-family="Helvetica,sans-Serif" font-size="10.00">ARDOUR::EventRingBuffer</text>
<text text-anchor="middle" x="235.5" y="-767.5" font-family="Helvetica,sans-Serif" font-size="10.00">&lt; samplepos_t &gt;</text>
</a>
</g>
</g>
<!-- Node0&#45;&gt;Node5 -->
<g id="edge406_Node000000_Node000005" class="edge">
<title>Node0&#45;&gt;Node5</title>
<g id="a_edge406_Node000000_Node000005"><a xlink:title=" ">
<path fill="none" stroke="#63b8ff" d="M77.36,-640.15C88.43,-653.27 102.14,-670.33 113,-686.5 131.42,-713.91 123.1,-731.01 149,-751.5 153.35,-754.94 158.17,-757.89 163.24,-760.42"/>
<polygon fill="#63b8ff" stroke="#63b8ff" points="80.01,-637.87 70.85,-632.54 74.69,-642.42 80.01,-637.87"/>
</a>
</g>
</g>
<!-- Node8 -->
<g id="Node000008" class="node">
<title>Node8</title>
<g id="a_Node000008"><a xlink:href="classARDOUR_1_1RTMidiBufferBase.html" target="_top" xlink:title=" ">
<polygon fill="white" stroke="#666666" points="319,-608.5 152,-608.5 152,-578.5 319,-578.5 319,-608.5"/>
<text text-anchor="start" x="160" y="-596.5" font-family="Helvetica,sans-Serif" font-size="10.00">ARDOUR::RTMidiBufferBase</text>
<text text-anchor="middle" x="235.5" y="-585.5" font-family="Helvetica,sans-Serif" font-size="10.00">&lt; samplepos_t, samplecnt_t &gt;</text>
</a>
</g>
</g>
<!-- Node0&#45;&gt;Node8 -->
<g id="edge407_Node000000_Node000008" class="edge">
<title>Node0&#45;&gt;Node8</title>
<g id="a_edge407_Node000000_Node000008"><a xlink:title=" ">
<path fill="none" stroke="#63b8ff" d="M121.6,-608.81C131.39,-607.48 141.62,-606.09 151.75,-604.72"/>
<polygon fill="#63b8ff" stroke="#63b8ff" points="121.01,-605.36 111.57,-610.17 121.95,-612.29 121.01,-605.36"/>
</a>
</g>
</g>
<!-- Node6 -->
<g id="Node000006" class="node">
<title>Node6</title>
<g id="a_Node000006"><a xlink:href="classARDOUR_1_1EventRingBuffer.html" target="_top" xlink:title=" ">
<polygon fill="white" stroke="#666666" points="307.5,-704.5 163.5,-704.5 163.5,-674.5 307.5,-674.5 307.5,-704.5"/>
<text text-anchor="start" x="171.5" y="-692.5" font-family="Helvetica,sans-Serif" font-size="10.00">ARDOUR::EventRingBuffer</text>
<text text-anchor="middle" x="235.5" y="-681.5" font-family="Helvetica,sans-Serif" font-size="10.00">&lt; Time &gt;</text>
</a>
</g>
</g>
<!-- Node0&#45;&gt;Node6 -->
<g id="edge408_Node000000_Node000006" class="edge">
<title>Node0&#45;&gt;Node6</title>
<g id="a_edge408_Node000000_Node000006"><a xlink:title=" ">
<path fill="none" stroke="#63b8ff" d="M91.76,-637.66C108.61,-647 129.45,-657.73 149,-665.5 157.17,-668.75 165.93,-671.74 174.63,-674.42"/>
<polygon fill="#63b8ff" stroke="#63b8ff" points="93.28,-634.5 82.85,-632.64 89.84,-640.6 93.28,-634.5"/>
</a>
</g>
</g>
<!-- Node9 -->
<g id="Node000009" class="node">
<title>Node9</title>
<g id="a_Node000009"><a xlink:href="classCCTestSink.html" target="_top" xlink:title=" ">
<polygon fill="white" stroke="#666666" points="294.5,-560 176.5,-560 176.5,-541 294.5,-541 294.5,-560"/>
<text text-anchor="middle" x="235.5" y="-548" font-family="Helvetica,sans-Serif" font-size="10.00">CCTestSink&lt; Time &gt;</text>
</a>
</g>
</g>
<!-- Node0&#45;&gt;Node9 -->
<g id="edge410_Node000000_Node000009" class="edge">
<title>Node0&#45;&gt;Node9</title>
<g id="a_edge410_Node000000_Node000009"><a xlink:title=" ">
<path fill="none" stroke="#63b8ff" d="M90.86,-597.27C107.78,-587.72 128.96,-576.84 149,-569.5 159.28,-565.74 170.54,-562.59 181.42,-560"/>
<polygon fill="#63b8ff" stroke="#63b8ff" points="88.85,-594.39 81.92,-602.41 92.34,-600.46 88.85,-594.39"/>
</a>
</g>
</g>
<!-- Node10 -->
<g id="Node000010" class="node">
<title>Node10</title>
<g id="a_Node000010"><a xlink:href="classEvoral_1_1EventList.html" target="_top" xlink:title=" ">
<polygon fill="white" stroke="#666666" points="289,-485.5 182,-485.5 182,-455.5 289,-455.5 289,-485.5"/>
<text text-anchor="start" x="190" y="-473.5" font-family="Helvetica,sans-Serif" font-size="10.00">Evoral::EventList&lt;</text>
<text text-anchor="middle" x="235.5" y="-462.5" font-family="Helvetica,sans-Serif" font-size="10.00"> Time &gt;</text>
</a>
</g>
</g>
<!-- Node0&#45;&gt;Node10 -->
<g id="edge411_Node000000_Node000010" class="edge">
<title>Node0&#45;&gt;Node10</title>
<g id="a_edge411_Node000000_Node000010"><a xlink:title=" ">
<path fill="none" stroke="#63b8ff" d="M69.5,-593.23C84.4,-565.55 112.4,-520.86 149,-495.5 158.79,-488.72 170.42,-483.75 181.91,-480.13"/>
<polygon fill="#63b8ff" stroke="#63b8ff" points="66.31,-591.77 64.78,-602.25 72.51,-595.01 66.31,-591.77"/>
</a>
</g>
</g>
<!-- Node26 -->
<g id="Node000026" class="node">
<title>Node26</title>
<g id="a_Node000026"><a xlink:href="classTestSink.html" target="_top" xlink:title=" ">
<polygon fill="white" stroke="#666666" points="287.5,-523 183.5,-523 183.5,-504 287.5,-504 287.5,-523"/>
<text text-anchor="middle" x="235.5" y="-511" font-family="Helvetica,sans-Serif" font-size="10.00">TestSink&lt; Time &gt;</text>
</a>
</g>
</g>
<!-- Node0&#45;&gt;Node26 -->
<g id="edge412_Node000000_Node000026" class="edge">
<title>Node0&#45;&gt;Node26</title>
<g id="a_edge412_Node000000_Node000026"><a xlink:title=" ">
<path fill="none" stroke="#63b8ff" d="M76,-594.5C92.95,-575.01 119.77,-547.85 149,-532.5 159.5,-526.98 171.54,-523.07 183.2,-520.28"/>
<polygon fill="#63b8ff" stroke="#63b8ff" points="73.17,-592.43 69.37,-602.32 78.51,-596.96 73.17,-592.43"/>
</a>
</g>
</g>
<!-- Node2 -->
<g id="Node000002" class="node">
<title>Node2</title>
<g id="a_Node000002"><a xlink:href="classARDOUR_1_1MidiRingBuffer.html" target="_top" xlink:title=" ">
<polygon fill="white" stroke="#666666" points="524,-742 358,-742 358,-723 524,-723 524,-742"/>
<text text-anchor="middle" x="441" y="-730" font-family="Helvetica,sans-Serif" font-size="10.00">ARDOUR::MidiRingBuffer&lt; T &gt;</text>
</a>
</g>
</g>
<!-- Node1&#45;&gt;Node2 -->
<g id="edge404_Node000001_Node000002" class="edge">
<title>Node1&#45;&gt;Node2</title>
<g id="a_edge404_Node000001_Node000002"><a xlink:title=" ">
<path fill="none" stroke="#63b8ff" d="M332.26,-732.5C340.85,-732.5 349.5,-732.5 357.96,-732.5"/>
<polygon fill="#63b8ff" stroke="#63b8ff" points="332.21,-729 322.21,-732.5 332.21,-736 332.21,-729"/>
</a>
</g>
</g>
<!-- Node7 -->
<g id="Node000007" class="node">
<title>Node7</title>
<g id="a_Node000007"><a xlink:href="classARDOUR_1_1MidiRingBuffer.html" target="_top" xlink:title=" ">
<polygon fill="white" stroke="#666666" points="509.5,-704.5 372.5,-704.5 372.5,-674.5 509.5,-674.5 509.5,-704.5"/>
<text text-anchor="start" x="380.5" y="-692.5" font-family="Helvetica,sans-Serif" font-size="10.00">ARDOUR::MidiRingBuffer</text>
<text text-anchor="middle" x="441" y="-681.5" font-family="Helvetica,sans-Serif" font-size="10.00">&lt; samplepos_t &gt;</text>
</a>
</g>
</g>
<!-- Node6&#45;&gt;Node7 -->
<g id="edge409_Node000006_Node000007" class="edge">
<title>Node6&#45;&gt;Node7</title>
<g id="a_edge409_Node000006_Node000007"><a xlink:title=" ">
<path fill="none" stroke="#63b8ff" d="M317.88,-689.5C335.93,-689.5 354.86,-689.5 372.29,-689.5"/>
<polygon fill="#63b8ff" stroke="#63b8ff" points="317.67,-686 307.67,-689.5 317.67,-693 317.67,-686"/>
</a>
</g>
</g>
<!-- Node11 -->
<g id="Node000011" class="node">
<title>Node11</title>
<g id="a_Node000011"><a xlink:title=" ">
<polygon fill="#e0e0e0" stroke="#999999" points="97,-241 16,-241 16,-222 97,-222 97,-241"/>
<text text-anchor="middle" x="56.5" y="-229" font-family="Helvetica,sans-Serif" font-size="10.00">std::list&lt; T &gt;</text>
</a>
</g>
</g>
<!-- Node11&#45;&gt;Node10 -->
<g id="edge416_Node000011_Node000010" class="edge">
<title>Node11&#45;&gt;Node10</title>
<g id="a_edge416_Node000011_Node000010"><a xlink:title=" ">
<path fill="none" stroke="#63b8ff" d="M60.19,-251.53C66.96,-294 88.71,-393.51 149,-446.5 158.26,-454.64 170.09,-460.04 181.97,-463.61"/>
<polygon fill="#63b8ff" stroke="#63b8ff" points="63.61,-250.75 58.68,-241.37 56.68,-251.77 63.61,-250.75"/>
</a>
</g>
</g>
<!-- Node12 -->
<g id="Node000012" class="node">
<title>Node12</title>
<g id="a_Node000012"><a xlink:href="classAutomationLine_1_1ContiguousControlPoints.html" target="_top" xlink:title=" ">
<polygon fill="white" stroke="#666666" points="313,-437.5 158,-437.5 158,-407.5 313,-407.5 313,-437.5"/>
<text text-anchor="start" x="166" y="-425.5" font-family="Helvetica,sans-Serif" font-size="10.00">AutomationLine::Contiguous</text>
<text text-anchor="middle" x="235.5" y="-414.5" font-family="Helvetica,sans-Serif" font-size="10.00">ControlPoints</text>
</a>
</g>
</g>
<!-- Node11&#45;&gt;Node12 -->
<g id="edge413_Node000011_Node000012" class="edge">
<title>Node11&#45;&gt;Node12</title>
<g id="a_edge413_Node000011_Node000012"><a xlink:title=" ">
<path fill="none" stroke="#63b8ff" d="M62.74,-251.06C73.13,-286.05 99.73,-359.33 149,-398.5 153.34,-401.95 158.16,-404.91 163.22,-407.44"/>
<polygon fill="#63b8ff" stroke="#63b8ff" points="66.02,-249.81 59.93,-241.14 59.29,-251.72 66.02,-249.81"/>
</a>
</g>
</g>
<!-- Node13 -->
<g id="Node000013" class="node">
<title>Node13</title>
<g id="a_Node000013"><a xlink:href="classAutomationSelection.html" target="_top" xlink:title=" ">
<polygon fill="white" stroke="#666666" points="295,-389 176,-389 176,-370 295,-370 295,-389"/>
<text text-anchor="middle" x="235.5" y="-377" font-family="Helvetica,sans-Serif" font-size="10.00">AutomationSelection</text>
</a>
</g>
</g>
<!-- Node11&#45;&gt;Node13 -->
<g id="edge414_Node000011_Node000013" class="edge">
<title>Node11&#45;&gt;Node13</title>
<g id="a_edge414_Node000011_Node000013"><a xlink:title=" ">
<path fill="none" stroke="#63b8ff" d="M65.38,-250.61C78.32,-279.48 106.92,-333.78 149,-361.5 156.98,-366.76 166.21,-370.52 175.59,-373.2"/>
<polygon fill="#63b8ff" stroke="#63b8ff" points="68.5,-249.01 61.32,-241.22 62.07,-251.78 68.5,-249.01"/>
</a>
</g>
</g>
<!-- Node14 -->
<g id="Node000014" class="node">
<title>Node14</title>
<g id="a_Node000014"><a xlink:href="structCrossfadeEditor_1_1Preset.html" target="_top" xlink:title=" ">
<polygon fill="white" stroke="#666666" points="301,-352 170,-352 170,-333 301,-333 301,-352"/>
<text text-anchor="middle" x="235.5" y="-340" font-family="Helvetica,sans-Serif" font-size="10.00">CrossfadeEditor::Preset</text>
</a>
</g>
</g>
<!-- Node11&#45;&gt;Node14 -->
<g id="edge415_Node000011_Node000014" class="edge">
<title>Node11&#45;&gt;Node14</title>
<g id="a_edge415_Node000011_Node000014"><a xlink:title=" ">
<path fill="none" stroke="#63b8ff" d="M69.93,-249.44C85.74,-270.82 115.09,-305.95 149,-324.5 155.52,-328.07 162.68,-330.93 169.99,-333.22"/>
<polygon fill="#63b8ff" stroke="#63b8ff" points="72.69,-247.29 64.01,-241.21 67.01,-251.38 72.69,-247.29"/>
</a>
</g>
</g>
<!-- Node15 -->
<g id="Node000015" class="node">
<title>Node15</title>
<g id="a_Node000015"><a xlink:href="classMarkerSelection.html" target="_top" xlink:title=" ">
<polygon fill="white" stroke="#666666" points="283,-315 188,-315 188,-296 283,-296 283,-315"/>
<text text-anchor="middle" x="235.5" y="-303" font-family="Helvetica,sans-Serif" font-size="10.00">MarkerSelection</text>
</a>
</g>
</g>
<!-- Node11&#45;&gt;Node15 -->
<g id="edge417_Node000011_Node000015" class="edge">
<title>Node11&#45;&gt;Node15</title>
<g id="a_edge417_Node000011_Node000015"><a xlink:title=" ">
<path fill="none" stroke="#63b8ff" d="M78.57,-247.29C96.44,-259.95 123.21,-277.25 149,-287.5 161.26,-292.37 175.07,-296.02 187.95,-298.7"/>
<polygon fill="#63b8ff" stroke="#63b8ff" points="80.24,-244.18 70.09,-241.16 76.14,-249.85 80.24,-244.18"/>
</a>
</g>
</g>
<!-- Node16 -->
<g id="Node000016" class="node">
<title>Node16</title>
<g id="a_Node000016"><a xlink:href="structMidiNoteSelection.html" target="_top" xlink:title=" ">
<polygon fill="white" stroke="#666666" points="288.5,-278 182.5,-278 182.5,-259 288.5,-259 288.5,-278"/>
<text text-anchor="middle" x="235.5" y="-266" font-family="Helvetica,sans-Serif" font-size="10.00">MidiNoteSelection</text>
</a>
</g>
</g>
<!-- Node11&#45;&gt;Node16 -->
<g id="edge418_Node000011_Node000016" class="edge">
<title>Node11&#45;&gt;Node16</title>
<g id="a_edge418_Node000011_Node000016"><a xlink:title=" ">
<path fill="none" stroke="#63b8ff" d="M107.13,-241.87C132.8,-247.24 163.92,-253.75 188.98,-258.98"/>
<polygon fill="#63b8ff" stroke="#63b8ff" points="107.73,-238.42 97.22,-239.8 106.29,-245.28 107.73,-238.42"/>
</a>
</g>
</g>
<!-- Node17 -->
<g id="Node000017" class="node">
<title>Node17</title>
<g id="a_Node000017"><a xlink:href="structMixerStripSelection.html" target="_top" xlink:title=" ">
<polygon fill="white" stroke="#666666" points="291,-241 180,-241 180,-222 291,-222 291,-241"/>
<text text-anchor="middle" x="235.5" y="-229" font-family="Helvetica,sans-Serif" font-size="10.00">MixerStripSelection</text>
</a>
</g>
</g>
<!-- Node11&#45;&gt;Node17 -->
<g id="edge419_Node000011_Node000017" class="edge">
<title>Node11&#45;&gt;Node17</title>
<g id="a_edge419_Node000011_Node000017"><a xlink:title=" ">
<path fill="none" stroke="#63b8ff" d="M107.28,-231.5C129.87,-231.5 156.66,-231.5 179.81,-231.5"/>
<polygon fill="#63b8ff" stroke="#63b8ff" points="107.22,-228 97.22,-231.5 107.22,-235 107.22,-228"/>
</a>
</g>
</g>
<!-- Node18 -->
<g id="Node000018" class="node">
<title>Node18</title>
<g id="a_Node000018"><a xlink:href="structPlaylistSelection.html" target="_top" xlink:title=" ">
<polygon fill="white" stroke="#666666" points="284.5,-204 186.5,-204 186.5,-185 284.5,-185 284.5,-204"/>
<text text-anchor="middle" x="235.5" y="-192" font-family="Helvetica,sans-Serif" font-size="10.00">PlaylistSelection</text>
</a>
</g>
</g>
<!-- Node11&#45;&gt;Node18 -->
<g id="edge420_Node000011_Node000018" class="edge">
<title>Node11&#45;&gt;Node18</title>
<g id="a_edge420_Node000011_Node000018"><a xlink:title=" ">
<path fill="none" stroke="#63b8ff" d="M107.13,-221.13C132.8,-215.76 163.92,-209.25 188.98,-204.02"/>
<polygon fill="#63b8ff" stroke="#63b8ff" points="106.29,-217.72 97.22,-223.2 107.73,-224.58 106.29,-217.72"/>
</a>
</g>
</g>
<!-- Node19 -->
<g id="Node000019" class="node">
<title>Node19</title>
<g id="a_Node000019"><a xlink:href="classPointSelection.html" target="_top" xlink:title=" ">
<polygon fill="white" stroke="#666666" points="278.5,-167 192.5,-167 192.5,-148 278.5,-148 278.5,-167"/>
<text text-anchor="middle" x="235.5" y="-155" font-family="Helvetica,sans-Serif" font-size="10.00">PointSelection</text>
</a>
</g>
</g>
<!-- Node11&#45;&gt;Node19 -->
<g id="edge421_Node000011_Node000019" class="edge">
<title>Node11&#45;&gt;Node19</title>
<g id="a_edge421_Node000011_Node000019"><a xlink:title=" ">
<path fill="none" stroke="#63b8ff" d="M78.95,-215.87C96.86,-203.51 123.5,-186.69 149,-176.5 162.7,-171.03 178.29,-166.98 192.38,-164.05"/>
<polygon fill="#63b8ff" stroke="#63b8ff" points="76.59,-213.25 70.43,-221.87 80.62,-218.97 76.59,-213.25"/>
</a>
</g>
</g>
<!-- Node20 -->
<g id="Node000020" class="node">
<title>Node20</title>
<g id="a_Node000020"><a xlink:href="classRegionSelection.html" target="_top" xlink:title=" ">
<polygon fill="white" stroke="#666666" points="283,-130 188,-130 188,-111 283,-111 283,-130"/>
<text text-anchor="middle" x="235.5" y="-118" font-family="Helvetica,sans-Serif" font-size="10.00">RegionSelection</text>
</a>
</g>
</g>
<!-- Node11&#45;&gt;Node20 -->
<g id="edge422_Node000011_Node000020" class="edge">
<title>Node11&#45;&gt;Node20</title>
<g id="a_edge422_Node000011_Node000020"><a xlink:title=" ">
<path fill="none" stroke="#63b8ff" d="M70.01,-213.81C85.9,-192.74 115.33,-158.04 149,-139.5 160.85,-132.97 174.8,-128.69 187.95,-125.87"/>
<polygon fill="#63b8ff" stroke="#63b8ff" points="67.15,-211.8 64.06,-221.93 72.79,-215.94 67.15,-211.8"/>
</a>
</g>
</g>
<!-- Node22 -->
<g id="Node000022" class="node">
<title>Node22</title>
<g id="a_Node000022"><a xlink:href="classTimeSelection.html" target="_top" xlink:title=" ">
<polygon fill="white" stroke="#666666" points="278.5,-93 192.5,-93 192.5,-74 278.5,-74 278.5,-93"/>
<text text-anchor="middle" x="235.5" y="-81" font-family="Helvetica,sans-Serif" font-size="10.00">TimeSelection</text>
</a>
</g>
</g>
<!-- Node11&#45;&gt;Node22 -->
<g id="edge424_Node000011_Node000022" class="edge">
<title>Node11&#45;&gt;Node22</title>
<g id="a_edge424_Node000011_Node000022"><a xlink:title=" ">
<path fill="none" stroke="#63b8ff" d="M65.46,-212.6C78.5,-184.02 107.24,-130.24 149,-102.5 161.79,-94 177.8,-89.25 192.49,-86.62"/>
<polygon fill="#63b8ff" stroke="#63b8ff" points="62.19,-211.33 61.36,-221.89 68.6,-214.15 62.19,-211.33"/>
</a>
</g>
</g>
<!-- Node23 -->
<g id="Node000023" class="node">
<title>Node23</title>
<g id="a_Node000023"><a xlink:href="classTrackViewList.html" target="_top" xlink:title=" ">
<polygon fill="white" stroke="#666666" points="277,-56 194,-56 194,-37 277,-37 277,-56"/>
<text text-anchor="middle" x="235.5" y="-44" font-family="Helvetica,sans-Serif" font-size="10.00">TrackViewList</text>
</a>
</g>
</g>
<!-- Node11&#45;&gt;Node23 -->
<g id="edge425_Node000011_Node000023" class="edge">
<title>Node11&#45;&gt;Node23</title>
<g id="a_edge425_Node000011_Node000023"><a xlink:title=" ">
<path fill="none" stroke="#63b8ff" d="M62.49,-211.61C72.48,-176.1 98.46,-102.02 149,-64.5 161.79,-55.01 178.47,-50.27 193.7,-47.99"/>
<polygon fill="#63b8ff" stroke="#63b8ff" points="59,-211.12 59.8,-221.69 65.76,-212.93 59,-211.12"/>
</a>
</g>
</g>
<!-- Node25 -->
<g id="Node000025" class="node">
<title>Node25</title>
<g id="a_Node000025"><a xlink:href="classTriggerSelection.html" target="_top" xlink:title=" ">
<polygon fill="white" stroke="#666666" points="283,-19 188,-19 188,0 283,0 283,-19"/>
<text text-anchor="middle" x="235.5" y="-7" font-family="Helvetica,sans-Serif" font-size="10.00">TriggerSelection</text>
</a>
</g>
</g>
<!-- Node11&#45;&gt;Node25 -->
<g id="edge427_Node000011_Node000025" class="edge">
<title>Node11&#45;&gt;Node25</title>
<g id="a_edge427_Node000011_Node000025"><a xlink:title=" ">
<path fill="none" stroke="#63b8ff" d="M60.31,-211.91C67.27,-170.84 89.33,-75.59 149,-27.5 159.87,-18.74 173.96,-13.96 187.57,-11.42"/>
<polygon fill="#63b8ff" stroke="#63b8ff" points="56.82,-211.55 58.72,-221.97 63.73,-212.63 56.82,-211.55"/>
</a>
</g>
</g>
<!-- Node21 -->
<g id="Node000021" class="node">
<title>Node21</title>
<g id="a_Node000021"><a xlink:href="classMidiRegionSelection.html" target="_top" xlink:title=" ">
<polygon fill="white" stroke="#666666" points="499,-130 383,-130 383,-111 499,-111 499,-130"/>
<text text-anchor="middle" x="441" y="-118" font-family="Helvetica,sans-Serif" font-size="10.00">MidiRegionSelection</text>
</a>
</g>
</g>
<!-- Node20&#45;&gt;Node21 -->
<g id="edge423_Node000020_Node000021" class="edge">
<title>Node20&#45;&gt;Node21</title>
<g id="a_edge423_Node000020_Node000021"><a xlink:title=" ">
<path fill="none" stroke="#63b8ff" d="M293.19,-120.5C321.08,-120.5 354.64,-120.5 382.63,-120.5"/>
<polygon fill="#63b8ff" stroke="#63b8ff" points="293.19,-117 283.19,-120.5 293.19,-124 293.19,-117"/>
</a>
</g>
</g>
<!-- Node24 -->
<g id="Node000024" class="node">
<title>Node24</title>
<g id="a_Node000024"><a xlink:href="classTrackSelection.html" target="_top" xlink:title=" ">
<polygon fill="white" stroke="#666666" points="484.5,-56 397.5,-56 397.5,-37 484.5,-37 484.5,-56"/>
<text text-anchor="middle" x="441" y="-44" font-family="Helvetica,sans-Serif" font-size="10.00">TrackSelection</text>
</a>
</g>
</g>
<!-- Node23&#45;&gt;Node24 -->
<g id="edge426_Node000023_Node000024" class="edge">
<title>Node23&#45;&gt;Node24</title>
<g id="a_edge426_Node000023_Node000024"><a xlink:title=" ">
<path fill="none" stroke="#63b8ff" d="M287.35,-46.5C321.22,-46.5 365.22,-46.5 397.27,-46.5"/>
<polygon fill="#63b8ff" stroke="#63b8ff" points="287.19,-43 277.19,-46.5 287.19,-50 287.19,-43"/>
</a>
</g>
</g>
<!-- Node3 -->
<g id="Node000003" class="node">
<title>Node3</title>
<g id="a_Node000003"><a xlink:href="classPBD_1_1RingBufferNPT.html" target="_top" xlink:title=" ">
<polygon fill="white" stroke="#666666" points="113,-725.5 0,-725.5 0,-695.5 113,-695.5 113,-725.5"/>
<text text-anchor="start" x="8" y="-713.5" font-family="Helvetica,sans-Serif" font-size="10.00">PBD::RingBufferNPT</text>
<text text-anchor="middle" x="56.5" y="-702.5" font-family="Helvetica,sans-Serif" font-size="10.00">&lt; uint8_t &gt;</text>
</a>
</g>
</g>
<!-- Node3&#45;&gt;Node1 -->
<g id="edge428_Node000003_Node000001" class="edge">
<title>Node3&#45;&gt;Node1</title>
<g id="a_edge428_Node000003_Node000001"><a xlink:title=" ">
<path fill="none" stroke="#63b8ff" d="M123.19,-718.67C134.46,-720.07 146.25,-721.53 157.78,-722.96"/>
<polygon fill="#63b8ff" stroke="#63b8ff" points="123.37,-715.16 113.02,-717.4 122.51,-722.11 123.37,-715.16"/>
</a>
</g>
</g>
<!-- Node3&#45;&gt;Node4 -->
<g id="edge429_Node000003_Node000004" class="edge">
<title>Node3&#45;&gt;Node4</title>
<g id="a_edge429_Node000003_Node000004"><a xlink:title=" ">
<path fill="none" stroke="#63b8ff" d="M94.2,-690.53C110.65,-682.09 130.48,-672.58 149,-665.5 157.35,-662.31 166.31,-659.33 175.17,-656.63"/>
<polygon fill="#63b8ff" stroke="#63b8ff" points="92.19,-687.63 84.94,-695.36 95.43,-693.84 92.19,-687.63"/>
</a>
</g>
</g>
<!-- Node3&#45;&gt;Node5 -->
<g id="edge430_Node000003_Node000005" class="edge">
<title>Node3&#45;&gt;Node5</title>
<g id="a_edge430_Node000003_Node000005"><a xlink:title=" ">
<path fill="none" stroke="#63b8ff" d="M97.43,-729.93C113.27,-737.23 131.79,-745.27 149,-751.5 157.7,-754.65 167.01,-757.64 176.18,-760.38"/>
<polygon fill="#63b8ff" stroke="#63b8ff" points="98.49,-726.57 87.95,-725.51 95.53,-732.91 98.49,-726.57"/>
</a>
</g>
</g>
<!-- Node3&#45;&gt;Node6 -->
<g id="edge431_Node000003_Node000006" class="edge">
<title>Node3&#45;&gt;Node6</title>
<g id="a_edge431_Node000003_Node000006"><a xlink:title=" ">
<path fill="none" stroke="#63b8ff" d="M123.29,-702.69C136.31,-701.15 150.04,-699.52 163.24,-697.95"/>
<polygon fill="#63b8ff" stroke="#63b8ff" points="122.54,-699.26 113.02,-703.91 123.36,-706.21 122.54,-699.26"/>
</a>
</g>
</g>
</g>
</svg>
