<?xml version="1.0" encoding="UTF-8" standalone="no"?>
<!DOCTYPE svg PUBLIC "-//W3C//DTD SVG 1.1//EN"
 "http://www.w3.org/Graphics/SVG/1.1/DTD/svg11.dtd">
<!-- Generated by graphviz version 2.43.0 (0)
 -->
<!-- Title: Graphical Class Hierarchy Pages: 1 -->
<svg width="353pt" height="278pt"
 viewBox="0.00 0.00 353.00 278.00" xmlns="http://www.w3.org/2000/svg" xmlns:xlink="http://www.w3.org/1999/xlink">
<g id="graph0" class="graph" transform="scale(1 1) rotate(0) translate(4 274)">
<title>Graphical Class Hierarchy</title>
<!-- Node0 -->
<g id="Node000000" class="node">
<title>Node0</title>
<g id="a_Node000000"><a xlink:href="classArdourSurface_1_1MACKIE__NAMESPACE_1_1Subview.html" target="_top" xlink:title=" ">
<polygon fill="white" stroke="#666666" points="130,-150 0,-150 0,-120 130,-120 130,-150"/>
<text text-anchor="start" x="8" y="-138" font-family="Helvetica,sans-Serif" font-size="10.00">ArdourSurface::MACKIE</text>
<text text-anchor="middle" x="65" y="-127" font-family="Helvetica,sans-Serif" font-size="10.00">_NAMESPACE::Subview</text>
</a>
</g>
</g>
<!-- Node1 -->
<g id="Node000001" class="node">
<title>Node1</title>
<g id="a_Node000001"><a xlink:href="classArdourSurface_1_1MACKIE__NAMESPACE_1_1DynamicsSubview.html" target="_top" xlink:title=" ">
<polygon fill="white" stroke="#666666" points="344.5,-270 166.5,-270 166.5,-240 344.5,-240 344.5,-270"/>
<text text-anchor="start" x="174.5" y="-258" font-family="Helvetica,sans-Serif" font-size="10.00">ArdourSurface::MACKIE</text>
<text text-anchor="middle" x="255.5" y="-247" font-family="Helvetica,sans-Serif" font-size="10.00">_NAMESPACE::DynamicsSubview</text>
</a>
</g>
</g>
<!-- Node0&#45;&gt;Node1 -->
<g id="edge142_Node000000_Node000001" class="edge">
<title>Node0&#45;&gt;Node1</title>
<g id="a_edge142_Node000000_Node000001"><a xlink:title=" ">
<path fill="none" stroke="#63b8ff" d="M83.94,-157.9C102.29,-179.8 132.75,-212.19 166,-231 172.1,-234.45 178.71,-237.42 185.49,-239.98"/>
<polygon fill="#63b8ff" stroke="#63b8ff" points="86.57,-155.59 77.52,-150.07 81.16,-160.02 86.57,-155.59"/>
</a>
</g>
</g>
<!-- Node2 -->
<g id="Node000002" class="node">
<title>Node2</title>
<g id="a_Node000002"><a xlink:href="classArdourSurface_1_1MACKIE__NAMESPACE_1_1EQSubview.html" target="_top" xlink:title=" ">
<polygon fill="white" stroke="#666666" points="327,-222 184,-222 184,-192 327,-192 327,-222"/>
<text text-anchor="start" x="192" y="-210" font-family="Helvetica,sans-Serif" font-size="10.00">ArdourSurface::MACKIE</text>
<text text-anchor="middle" x="255.5" y="-199" font-family="Helvetica,sans-Serif" font-size="10.00">_NAMESPACE::EQSubview</text>
</a>
</g>
</g>
<!-- Node0&#45;&gt;Node2 -->
<g id="edge143_Node000000_Node000002" class="edge">
<title>Node0&#45;&gt;Node2</title>
<g id="a_edge143_Node000000_Node000002"><a xlink:title=" ">
<path fill="none" stroke="#63b8ff" d="M102.85,-154.68C121.44,-164.09 144.54,-175.02 166,-183 174.65,-186.22 183.93,-189.21 193.1,-191.92"/>
<polygon fill="#63b8ff" stroke="#63b8ff" points="104.34,-151.51 93.85,-150.07 101.15,-157.74 104.34,-151.51"/>
</a>
</g>
</g>
<!-- Node3 -->
<g id="Node000003" class="node">
<title>Node3</title>
<g id="a_Node000003"><a xlink:href="classArdourSurface_1_1MACKIE__NAMESPACE_1_1NoneSubview.html" target="_top" xlink:title=" ">
<polygon fill="white" stroke="#666666" points="333,-174 178,-174 178,-144 333,-144 333,-174"/>
<text text-anchor="start" x="186" y="-162" font-family="Helvetica,sans-Serif" font-size="10.00">ArdourSurface::MACKIE</text>
<text text-anchor="middle" x="255.5" y="-151" font-family="Helvetica,sans-Serif" font-size="10.00">_NAMESPACE::NoneSubview</text>
</a>
</g>
</g>
<!-- Node0&#45;&gt;Node3 -->
<g id="edge144_Node000000_Node000003" class="edge">
<title>Node0&#45;&gt;Node3</title>
<g id="a_edge144_Node000000_Node000003"><a xlink:title=" ">
<path fill="none" stroke="#63b8ff" d="M140.32,-144.46C152.66,-146.03 165.49,-147.67 177.89,-149.25"/>
<polygon fill="#63b8ff" stroke="#63b8ff" points="140.44,-140.95 130.08,-143.16 139.56,-147.89 140.44,-140.95"/>
</a>
</g>
</g>
<!-- Node4 -->
<g id="Node000004" class="node">
<title>Node4</title>
<g id="a_Node000004"><a xlink:href="classArdourSurface_1_1MACKIE__NAMESPACE_1_1PluginSubview.html" target="_top" xlink:title=" ">
<polygon fill="white" stroke="#666666" points="335,-126 176,-126 176,-96 335,-96 335,-126"/>
<text text-anchor="start" x="184" y="-114" font-family="Helvetica,sans-Serif" font-size="10.00">ArdourSurface::MACKIE</text>
<text text-anchor="middle" x="255.5" y="-103" font-family="Helvetica,sans-Serif" font-size="10.00">_NAMESPACE::PluginSubview</text>
</a>
</g>
</g>
<!-- Node0&#45;&gt;Node4 -->
<g id="edge145_Node000000_Node000004" class="edge">
<title>Node0&#45;&gt;Node4</title>
<g id="a_edge145_Node000000_Node000004"><a xlink:title=" ">
<path fill="none" stroke="#63b8ff" d="M140.24,-125.55C151.95,-124.06 164.1,-122.51 175.9,-121.01"/>
<polygon fill="#63b8ff" stroke="#63b8ff" points="139.56,-122.11 130.08,-126.84 140.44,-129.05 139.56,-122.11"/>
</a>
</g>
</g>
<!-- Node5 -->
<g id="Node000005" class="node">
<title>Node5</title>
<g id="a_Node000005"><a xlink:href="classArdourSurface_1_1MACKIE__NAMESPACE_1_1SendsSubview.html" target="_top" xlink:title=" ">
<polygon fill="white" stroke="#666666" points="334.5,-78 176.5,-78 176.5,-48 334.5,-48 334.5,-78"/>
<text text-anchor="start" x="184.5" y="-66" font-family="Helvetica,sans-Serif" font-size="10.00">ArdourSurface::MACKIE</text>
<text text-anchor="middle" x="255.5" y="-55" font-family="Helvetica,sans-Serif" font-size="10.00">_NAMESPACE::SendsSubview</text>
</a>
</g>
</g>
<!-- Node0&#45;&gt;Node5 -->
<g id="edge146_Node000000_Node000005" class="edge">
<title>Node0&#45;&gt;Node5</title>
<g id="a_edge146_Node000000_Node000005"><a xlink:title=" ">
<path fill="none" stroke="#63b8ff" d="M102.85,-115.32C121.44,-105.91 144.54,-94.98 166,-87 174.65,-83.78 183.93,-80.79 193.1,-78.08"/>
<polygon fill="#63b8ff" stroke="#63b8ff" points="101.15,-112.26 93.85,-119.93 104.34,-118.49 101.15,-112.26"/>
</a>
</g>
</g>
<!-- Node6 -->
<g id="Node000006" class="node">
<title>Node6</title>
<g id="a_Node000006"><a xlink:href="classArdourSurface_1_1MACKIE__NAMESPACE_1_1TrackViewSubview.html" target="_top" xlink:title=" ">
<polygon fill="white" stroke="#666666" points="345,-30 166,-30 166,0 345,0 345,-30"/>
<text text-anchor="start" x="174" y="-18" font-family="Helvetica,sans-Serif" font-size="10.00">ArdourSurface::MACKIE</text>
<text text-anchor="middle" x="255.5" y="-7" font-family="Helvetica,sans-Serif" font-size="10.00">_NAMESPACE::TrackViewSubview</text>
</a>
</g>
</g>
<!-- Node0&#45;&gt;Node6 -->
<g id="edge147_Node000000_Node000006" class="edge">
<title>Node0&#45;&gt;Node6</title>
<g id="a_edge147_Node000000_Node000006"><a xlink:title=" ">
<path fill="none" stroke="#63b8ff" d="M83.94,-112.1C102.29,-90.2 132.75,-57.81 166,-39 172.1,-35.55 178.71,-32.58 185.49,-30.02"/>
<polygon fill="#63b8ff" stroke="#63b8ff" points="81.16,-109.98 77.52,-119.93 86.57,-114.41 81.16,-109.98"/>
</a>
</g>
</g>
</g>
</svg>
