<?xml version="1.0" encoding="UTF-8" standalone="no"?>
<!DOCTYPE svg PUBLIC "-//W3C//DTD SVG 1.1//EN"
 "http://www.w3.org/Graphics/SVG/1.1/DTD/svg11.dtd">
<!-- Generated by graphviz version 2.43.0 (0)
 -->
<!-- Title: Graphical Class Hierarchy Pages: 1 -->
<svg width="327pt" height="64pt"
 viewBox="0.00 0.00 327.00 64.00" xmlns="http://www.w3.org/2000/svg" xmlns:xlink="http://www.w3.org/1999/xlink">
<g id="graph0" class="graph" transform="scale(1 1) rotate(0) translate(4 60)">
<title>Graphical Class Hierarchy</title>
<!-- Node0 -->
<g id="Node000000" class="node">
<title>Node0</title>
<g id="a_Node000000"><a xlink:href="structArdourCanvas_1_1Ruler_1_1Metric.html" target="_top" xlink:title=" ">
<polygon fill="white" stroke="#666666" points="116,-42.5 0,-42.5 0,-12.5 116,-12.5 116,-42.5"/>
<text text-anchor="start" x="8" y="-30.5" font-family="Helvetica,sans-Serif" font-size="10.00">ArdourCanvas::Ruler</text>
<text text-anchor="middle" x="58" y="-19.5" font-family="Helvetica,sans-Serif" font-size="10.00">::Metric</text>
</a>
</g>
</g>
<!-- Node1 -->
<g id="Node000001" class="node">
<title>Node1</title>
<g id="a_Node000001"><a xlink:href="classAudioClipEditor_1_1ClipBBTMetric.html" target="_top" xlink:title=" ">
<polygon fill="white" stroke="#666666" points="319,-56 152,-56 152,-37 319,-37 319,-56"/>
<text text-anchor="middle" x="235.5" y="-44" font-family="Helvetica,sans-Serif" font-size="10.00">AudioClipEditor::ClipBBTMetric</text>
</a>
</g>
</g>
<!-- Node0&#45;&gt;Node1 -->
<g id="edge100_Node000000_Node000001" class="edge">
<title>Node0&#45;&gt;Node1</title>
<g id="a_edge100_Node000000_Node000001"><a xlink:title=" ">
<path fill="none" stroke="#63b8ff" d="M126.43,-34.8C134.72,-35.7 143.27,-36.62 151.76,-37.54"/>
<polygon fill="#63b8ff" stroke="#63b8ff" points="126.78,-31.32 116.47,-33.72 126.03,-38.28 126.78,-31.32"/>
</a>
</g>
</g>
<!-- Node2 -->
<g id="Node000002" class="node">
<title>Node2</title>
<g id="a_Node000002"><a xlink:href="classPianoroll_1_1BBTMetric.html" target="_top" xlink:title=" ">
<polygon fill="white" stroke="#666666" points="293.5,-19 177.5,-19 177.5,0 293.5,0 293.5,-19"/>
<text text-anchor="middle" x="235.5" y="-7" font-family="Helvetica,sans-Serif" font-size="10.00">Pianoroll::BBTMetric</text>
</a>
</g>
</g>
<!-- Node0&#45;&gt;Node2 -->
<g id="edge101_Node000000_Node000002" class="edge">
<title>Node0&#45;&gt;Node2</title>
<g id="a_edge101_Node000000_Node000002"><a xlink:title=" ">
<path fill="none" stroke="#63b8ff" d="M126.69,-20.56C143.37,-18.85 161.07,-17.03 177.21,-15.38"/>
<polygon fill="#63b8ff" stroke="#63b8ff" points="126.06,-17.1 116.47,-21.61 126.77,-24.07 126.06,-17.1"/>
</a>
</g>
</g>
</g>
</svg>
