<?xml version="1.0" encoding="UTF-8" standalone="no"?>
<!DOCTYPE svg PUBLIC "-//W3C//DTD SVG 1.1//EN"
 "http://www.w3.org/Graphics/SVG/1.1/DTD/svg11.dtd">
<!-- Generated by graphviz version 2.43.0 (0)
 -->
<!-- Title: Graphical Class Hierarchy Pages: 1 -->
<svg width="760pt" height="196pt"
 viewBox="0.00 0.00 760.00 195.81" xmlns="http://www.w3.org/2000/svg" xmlns:xlink="http://www.w3.org/1999/xlink">
<g id="graph0" class="graph" transform="scale(1 1) rotate(0) translate(4 191.81)">
<title>Graphical Class Hierarchy</title>
<!-- Node0 -->
<g id="Node000000" class="node">
<title>Node0</title>
<g id="a_Node000000"><a xlink:href="structArdourSurface_1_1LaunchControlXL_1_1Button.html" target="_top" xlink:title=" ">
<polygon fill="white" stroke="#666666" points="161,-126 0,-126 0,-96 161,-96 161,-126"/>
<text text-anchor="start" x="8" y="-114" font-family="Helvetica,sans-Serif" font-size="10.00">ArdourSurface::LaunchControl</text>
<text text-anchor="middle" x="80.5" y="-103" font-family="Helvetica,sans-Serif" font-size="10.00">XL::Button</text>
</a>
</g>
</g>
<!-- Node1 -->
<g id="Node000001" class="node">
<title>Node1</title>
<g id="a_Node000001"><a xlink:href="structArdourSurface_1_1LaunchControlXL_1_1ControllerButton.html" target="_top" xlink:title=" ">
<polygon fill="white" stroke="#666666" points="358,-78 197,-78 197,-48 358,-48 358,-78"/>
<text text-anchor="start" x="205" y="-66" font-family="Helvetica,sans-Serif" font-size="10.00">ArdourSurface::LaunchControl</text>
<text text-anchor="middle" x="277.5" y="-55" font-family="Helvetica,sans-Serif" font-size="10.00">XL::ControllerButton</text>
</a>
</g>
</g>
<!-- Node0&#45;&gt;Node1 -->
<g id="edge118_Node000000_Node000001" class="edge">
<title>Node0&#45;&gt;Node1</title>
<g id="a_edge118_Node000000_Node000001"><a xlink:title=" ">
<path fill="none" stroke="#63b8ff" d="M152.64,-93.49C173.27,-88.41 195.6,-82.91 215.55,-78"/>
<polygon fill="#63b8ff" stroke="#63b8ff" points="151.54,-90.16 142.66,-95.94 153.21,-96.95 151.54,-90.16"/>
</a>
</g>
</g>
<!-- Node9 -->
<g id="Node000009" class="node">
<title>Node9</title>
<g id="a_Node000009"><a xlink:href="structArdourSurface_1_1LaunchControlXL_1_1NoteButton.html" target="_top" xlink:title=" ">
<polygon fill="white" stroke="#666666" points="358,-174 197,-174 197,-144 358,-144 358,-174"/>
<text text-anchor="start" x="205" y="-162" font-family="Helvetica,sans-Serif" font-size="10.00">ArdourSurface::LaunchControl</text>
<text text-anchor="middle" x="277.5" y="-151" font-family="Helvetica,sans-Serif" font-size="10.00">XL::NoteButton</text>
</a>
</g>
</g>
<!-- Node0&#45;&gt;Node9 -->
<g id="edge120_Node000000_Node000009" class="edge">
<title>Node0&#45;&gt;Node9</title>
<g id="a_edge120_Node000000_Node000009"><a xlink:title=" ">
<path fill="none" stroke="#63b8ff" d="M152.64,-128.51C173.27,-133.59 195.6,-139.09 215.55,-144"/>
<polygon fill="#63b8ff" stroke="#63b8ff" points="153.21,-125.05 142.66,-126.06 151.54,-131.84 153.21,-125.05"/>
</a>
</g>
</g>
<!-- Node2 -->
<g id="Node000002" class="node">
<title>Node2</title>
<g id="a_Node000002"><a xlink:href="structArdourSurface_1_1LaunchControlXL_1_1SelectButton.html" target="_top" xlink:title=" ">
<polygon fill="white" stroke="#666666" points="555,-78 394,-78 394,-48 555,-48 555,-78"/>
<text text-anchor="start" x="402" y="-66" font-family="Helvetica,sans-Serif" font-size="10.00">ArdourSurface::LaunchControl</text>
<text text-anchor="middle" x="474.5" y="-55" font-family="Helvetica,sans-Serif" font-size="10.00">XL::SelectButton</text>
</a>
</g>
</g>
<!-- Node1&#45;&gt;Node2 -->
<g id="edge119_Node000001_Node000002" class="edge">
<title>Node1&#45;&gt;Node2</title>
<g id="a_edge119_Node000001_Node000002"><a xlink:title=" ">
<path fill="none" stroke="#63b8ff" d="M368.12,-63C376.7,-63 385.36,-63 393.84,-63"/>
<polygon fill="#63b8ff" stroke="#63b8ff" points="368.1,-59.5 358.1,-63 368.1,-66.5 368.1,-59.5"/>
</a>
</g>
</g>
<!-- Node8 -->
<g id="Node000008" class="node">
<title>Node8</title>
<g id="a_Node000008"><a xlink:href="structArdourSurface_1_1LaunchControlXL_1_1TrackButton.html" target="_top" xlink:title=" ">
<polygon fill="white" stroke="#666666" points="752,-183 591,-183 591,-153 752,-153 752,-183"/>
<text text-anchor="start" x="599" y="-171" font-family="Helvetica,sans-Serif" font-size="10.00">ArdourSurface::LaunchControl</text>
<text text-anchor="middle" x="671.5" y="-160" font-family="Helvetica,sans-Serif" font-size="10.00">XL::TrackButton</text>
</a>
</g>
</g>
<!-- Node9&#45;&gt;Node8 -->
<g id="edge121_Node000009_Node000008" class="edge">
<title>Node9&#45;&gt;Node8</title>
<g id="a_edge121_Node000009_Node000008"><a xlink:title=" ">
<path fill="none" stroke="#63b8ff" d="M349.31,-176.1C363.99,-178.97 379.43,-181.5 394,-183 465.18,-190.32 483.59,-187.62 555,-183 566.6,-182.25 578.82,-181.08 590.79,-179.72"/>
<polygon fill="#63b8ff" stroke="#63b8ff" points="349.77,-172.62 339.28,-174.06 348.38,-179.48 349.77,-172.62"/>
</a>
</g>
</g>
<!-- Node10 -->
<g id="Node000010" class="node">
<title>Node10</title>
<g id="a_Node000010"><a xlink:href="structArdourSurface_1_1LaunchControlXL_1_1TrackStateButton.html" target="_top" xlink:title=" ">
<polygon fill="white" stroke="#666666" points="555,-174 394,-174 394,-144 555,-144 555,-174"/>
<text text-anchor="start" x="402" y="-162" font-family="Helvetica,sans-Serif" font-size="10.00">ArdourSurface::LaunchControl</text>
<text text-anchor="middle" x="474.5" y="-151" font-family="Helvetica,sans-Serif" font-size="10.00">XL::TrackStateButton</text>
</a>
</g>
</g>
<!-- Node9&#45;&gt;Node10 -->
<g id="edge122_Node000009_Node000010" class="edge">
<title>Node9&#45;&gt;Node10</title>
<g id="a_edge122_Node000009_Node000010"><a xlink:title=" ">
<path fill="none" stroke="#63b8ff" d="M368.12,-159C376.7,-159 385.36,-159 393.84,-159"/>
<polygon fill="#63b8ff" stroke="#63b8ff" points="368.1,-155.5 358.1,-159 368.1,-162.5 368.1,-155.5"/>
</a>
</g>
</g>
<!-- Node6 -->
<g id="Node000006" class="node">
<title>Node6</title>
<g id="a_Node000006"><a xlink:href="structArdourSurface_1_1LaunchControlXL_1_1Controller.html" target="_top" xlink:title=" ">
<polygon fill="white" stroke="#666666" points="555,-30 394,-30 394,0 555,0 555,-30"/>
<text text-anchor="start" x="402" y="-18" font-family="Helvetica,sans-Serif" font-size="10.00">ArdourSurface::LaunchControl</text>
<text text-anchor="middle" x="474.5" y="-7" font-family="Helvetica,sans-Serif" font-size="10.00">XL::Controller</text>
</a>
</g>
</g>
<!-- Node7 -->
<g id="Node000007" class="node">
<title>Node7</title>
<g id="a_Node000007"><a xlink:href="structArdourSurface_1_1LaunchControlXL_1_1Fader.html" target="_top" xlink:title=" ">
<polygon fill="white" stroke="#666666" points="752,-30 591,-30 591,0 752,0 752,-30"/>
<text text-anchor="start" x="599" y="-18" font-family="Helvetica,sans-Serif" font-size="10.00">ArdourSurface::LaunchControl</text>
<text text-anchor="middle" x="671.5" y="-7" font-family="Helvetica,sans-Serif" font-size="10.00">XL::Fader</text>
</a>
</g>
</g>
<!-- Node6&#45;&gt;Node7 -->
<g id="edge123_Node000006_Node000007" class="edge">
<title>Node6&#45;&gt;Node7</title>
<g id="a_edge123_Node000006_Node000007"><a xlink:title=" ">
<path fill="none" stroke="#63b8ff" d="M565.12,-15C573.7,-15 582.36,-15 590.84,-15"/>
<polygon fill="#63b8ff" stroke="#63b8ff" points="565.1,-11.5 555.1,-15 565.1,-18.5 565.1,-11.5"/>
</a>
</g>
</g>
<!-- Node5 -->
<g id="Node000005" class="node">
<title>Node5</title>
<g id="a_Node000005"><a xlink:href="structArdourSurface_1_1LaunchControlXL_1_1Knob.html" target="_top" xlink:title=" ">
<polygon fill="white" stroke="#666666" points="752,-102 591,-102 591,-72 752,-72 752,-102"/>
<text text-anchor="start" x="599" y="-90" font-family="Helvetica,sans-Serif" font-size="10.00">ArdourSurface::LaunchControl</text>
<text text-anchor="middle" x="671.5" y="-79" font-family="Helvetica,sans-Serif" font-size="10.00">XL::Knob</text>
</a>
</g>
</g>
<!-- Node6&#45;&gt;Node5 -->
<g id="edge124_Node000006_Node000005" class="edge">
<title>Node6&#45;&gt;Node5</title>
<g id="a_edge124_Node000006_Node000005"><a xlink:title=" ">
<path fill="none" stroke="#63b8ff" d="M537.76,-33.14C543.61,-35.04 549.43,-37.01 555,-39 582.81,-48.95 613.67,-61.87 636.49,-71.8"/>
<polygon fill="#63b8ff" stroke="#63b8ff" points="538.51,-29.7 527.92,-30.01 536.38,-36.37 538.51,-29.7"/>
</a>
</g>
</g>
<!-- Node3 -->
<g id="Node000003" class="node">
<title>Node3</title>
<g id="a_Node000003"><a xlink:href="structArdourSurface_1_1LaunchControlXL_1_1LED.html" target="_top" xlink:title=" ">
<polygon fill="white" stroke="#666666" points="358,-126 197,-126 197,-96 358,-96 358,-126"/>
<text text-anchor="start" x="205" y="-114" font-family="Helvetica,sans-Serif" font-size="10.00">ArdourSurface::LaunchControl</text>
<text text-anchor="middle" x="277.5" y="-103" font-family="Helvetica,sans-Serif" font-size="10.00">XL::LED</text>
</a>
</g>
</g>
<!-- Node3&#45;&gt;Node2 -->
<g id="edge128_Node000003_Node000002" class="edge">
<title>Node3&#45;&gt;Node2</title>
<g id="a_edge128_Node000003_Node000002"><a xlink:title=" ">
<path fill="none" stroke="#63b8ff" d="M349.64,-93.49C370.27,-88.41 392.6,-82.91 412.55,-78"/>
<polygon fill="#63b8ff" stroke="#63b8ff" points="348.54,-90.16 339.66,-95.94 350.21,-96.95 348.54,-90.16"/>
</a>
</g>
</g>
<!-- Node3&#45;&gt;Node10 -->
<g id="edge129_Node000003_Node000010" class="edge">
<title>Node3&#45;&gt;Node10</title>
<g id="a_edge129_Node000003_Node000010"><a xlink:title=" ">
<path fill="none" stroke="#63b8ff" d="M349.64,-128.51C370.27,-133.59 392.6,-139.09 412.55,-144"/>
<polygon fill="#63b8ff" stroke="#63b8ff" points="350.21,-125.05 339.66,-126.06 348.54,-131.84 350.21,-125.05"/>
</a>
</g>
</g>
<!-- Node4 -->
<g id="Node000004" class="node">
<title>Node4</title>
<g id="a_Node000004"><a xlink:href="structArdourSurface_1_1LaunchControlXL_1_1MultiColorLED.html" target="_top" xlink:title=" ">
<polygon fill="white" stroke="#666666" points="555,-126 394,-126 394,-96 555,-96 555,-126"/>
<text text-anchor="start" x="402" y="-114" font-family="Helvetica,sans-Serif" font-size="10.00">ArdourSurface::LaunchControl</text>
<text text-anchor="middle" x="474.5" y="-103" font-family="Helvetica,sans-Serif" font-size="10.00">XL::MultiColorLED</text>
</a>
</g>
</g>
<!-- Node3&#45;&gt;Node4 -->
<g id="edge125_Node000003_Node000004" class="edge">
<title>Node3&#45;&gt;Node4</title>
<g id="a_edge125_Node000003_Node000004"><a xlink:title=" ">
<path fill="none" stroke="#63b8ff" d="M368.12,-111C376.7,-111 385.36,-111 393.84,-111"/>
<polygon fill="#63b8ff" stroke="#63b8ff" points="368.1,-107.5 358.1,-111 368.1,-114.5 368.1,-107.5"/>
</a>
</g>
</g>
<!-- Node4&#45;&gt;Node8 -->
<g id="edge127_Node000004_Node000008" class="edge">
<title>Node4&#45;&gt;Node8</title>
<g id="a_edge127_Node000004_Node000008"><a xlink:title=" ">
<path fill="none" stroke="#63b8ff" d="M536.89,-128.95C563.31,-136.67 593.85,-145.6 619.06,-152.96"/>
<polygon fill="#63b8ff" stroke="#63b8ff" points="537.57,-125.5 526.99,-126.05 535.61,-132.22 537.57,-125.5"/>
</a>
</g>
</g>
<!-- Node4&#45;&gt;Node5 -->
<g id="edge126_Node000004_Node000005" class="edge">
<title>Node4&#45;&gt;Node5</title>
<g id="a_edge126_Node000004_Node000005"><a xlink:title=" ">
<path fill="none" stroke="#63b8ff" d="M565.12,-99.97C573.7,-98.91 582.36,-97.85 590.84,-96.8"/>
<polygon fill="#63b8ff" stroke="#63b8ff" points="564.59,-96.51 555.1,-101.2 565.45,-103.46 564.59,-96.51"/>
</a>
</g>
</g>
</g>
</svg>
