<?xml version="1.0" encoding="UTF-8" standalone="no"?>
<!DOCTYPE svg PUBLIC "-//W3C//DTD SVG 1.1//EN"
 "http://www.w3.org/Graphics/SVG/1.1/DTD/svg11.dtd">
<!-- Generated by graphviz version 2.43.0 (0)
 -->
<!-- Title: Graphical Class Hierarchy Pages: 1 -->
<svg width="304pt" height="134pt"
 viewBox="0.00 0.00 304.00 134.00" xmlns="http://www.w3.org/2000/svg" xmlns:xlink="http://www.w3.org/1999/xlink">
<g id="graph0" class="graph" transform="scale(1 1) rotate(0) translate(4 130)">
<title>Graphical Class Hierarchy</title>
<!-- Node0 -->
<g id="Node000000" class="node">
<title>Node0</title>
<g id="a_Node000000"><a xlink:title=" ">
<polygon fill="#e0e0e0" stroke="#999999" points="124,-72.5 0,-72.5 0,-53.5 124,-53.5 124,-72.5"/>
<text text-anchor="middle" x="62" y="-60.5" font-family="Helvetica,sans-Serif" font-size="10.00">std::vector&lt; double &gt;</text>
</a>
</g>
</g>
<!-- Node1 -->
<g id="Node000001" class="node">
<title>Node1</title>
<g id="a_Node000001"><a xlink:href="structARDOUR_1_1VBAPSpeakers_1_1threeDmatrix.html" target="_top" xlink:title=" ">
<polygon fill="white" stroke="#666666" points="296,-126 160,-126 160,-96 296,-96 296,-126"/>
<text text-anchor="start" x="168" y="-114" font-family="Helvetica,sans-Serif" font-size="10.00">ARDOUR::VBAPSpeakers</text>
<text text-anchor="middle" x="228" y="-103" font-family="Helvetica,sans-Serif" font-size="10.00">::threeDmatrix</text>
</a>
</g>
</g>
<!-- Node0&#45;&gt;Node1 -->
<g id="edge2374_Node000000_Node000001" class="edge">
<title>Node0&#45;&gt;Node1</title>
<g id="a_edge2374_Node000000_Node000001"><a xlink:title=" ">
<path fill="none" stroke="#63b8ff" d="M105.57,-75.46C126.95,-81.72 153.03,-89.35 175.53,-95.94"/>
<polygon fill="#63b8ff" stroke="#63b8ff" points="106.37,-72.05 95.79,-72.6 104.41,-78.77 106.37,-72.05"/>
</a>
</g>
</g>
<!-- Node2 -->
<g id="Node000002" class="node">
<title>Node2</title>
<g id="a_Node000002"><a xlink:href="structARDOUR_1_1VBAPSpeakers_1_1tmatrix.html" target="_top" xlink:title=" ">
<polygon fill="white" stroke="#666666" points="296,-78 160,-78 160,-48 296,-48 296,-78"/>
<text text-anchor="start" x="168" y="-66" font-family="Helvetica,sans-Serif" font-size="10.00">ARDOUR::VBAPSpeakers</text>
<text text-anchor="middle" x="228" y="-55" font-family="Helvetica,sans-Serif" font-size="10.00">::tmatrix</text>
</a>
</g>
</g>
<!-- Node0&#45;&gt;Node2 -->
<g id="edge2375_Node000000_Node000002" class="edge">
<title>Node0&#45;&gt;Node2</title>
<g id="a_edge2375_Node000000_Node000002"><a xlink:title=" ">
<path fill="none" stroke="#63b8ff" d="M134.3,-63C142.78,-63 151.41,-63 159.82,-63"/>
<polygon fill="#63b8ff" stroke="#63b8ff" points="134.07,-59.5 124.07,-63 134.07,-66.5 134.07,-59.5"/>
</a>
</g>
</g>
<!-- Node3 -->
<g id="Node000003" class="node">
<title>Node3</title>
<g id="a_Node000003"><a xlink:href="structARDOUR_1_1VBAPSpeakers_1_1twoDmatrix.html" target="_top" xlink:title=" ">
<polygon fill="white" stroke="#666666" points="296,-30 160,-30 160,0 296,0 296,-30"/>
<text text-anchor="start" x="168" y="-18" font-family="Helvetica,sans-Serif" font-size="10.00">ARDOUR::VBAPSpeakers</text>
<text text-anchor="middle" x="228" y="-7" font-family="Helvetica,sans-Serif" font-size="10.00">::twoDmatrix</text>
</a>
</g>
</g>
<!-- Node0&#45;&gt;Node3 -->
<g id="edge2376_Node000000_Node000003" class="edge">
<title>Node0&#45;&gt;Node3</title>
<g id="a_edge2376_Node000000_Node000003"><a xlink:title=" ">
<path fill="none" stroke="#63b8ff" d="M105.57,-50.54C126.95,-44.28 153.03,-36.65 175.53,-30.06"/>
<polygon fill="#63b8ff" stroke="#63b8ff" points="104.41,-47.23 95.79,-53.4 106.37,-53.95 104.41,-47.23"/>
</a>
</g>
</g>
</g>
</svg>
