<?xml version="1.0" encoding="UTF-8" standalone="no"?>
<!DOCTYPE svg PUBLIC "-//W3C//DTD SVG 1.1//EN"
 "http://www.w3.org/Graphics/SVG/1.1/DTD/svg11.dtd">
<!-- Generated by graphviz version 2.43.0 (0)
 -->
<!-- Title: Graphical Class Hierarchy Pages: 1 -->
<svg width="357pt" height="64pt"
 viewBox="0.00 0.00 357.00 64.00" xmlns="http://www.w3.org/2000/svg" xmlns:xlink="http://www.w3.org/1999/xlink">
<g id="graph0" class="graph" transform="scale(1 1) rotate(0) translate(4 60)">
<title>Graphical Class Hierarchy</title>
<!-- Node0 -->
<g id="Node000000" class="node">
<title>Node0</title>
<g id="a_Node000000"><a xlink:title=" ">
<polygon fill="#e0e0e0" stroke="#999999" points="167,-56 0,-56 0,-37 167,-37 167,-56"/>
<text text-anchor="middle" x="83.5" y="-44" font-family="Helvetica,sans-Serif" font-size="10.00">Presonus::IContextInfoProvider</text>
</a>
</g>
</g>
<!-- Node1 -->
<g id="Node000001" class="node">
<title>Node1</title>
<g id="a_Node000001"><a xlink:href="classSteinberg_1_1HostApplication.html" target="_top" xlink:title=" ">
<polygon fill="white" stroke="#666666" points="349,-37 203,-37 203,-18 349,-18 349,-37"/>
<text text-anchor="middle" x="276" y="-25" font-family="Helvetica,sans-Serif" font-size="10.00">Steinberg::HostApplication</text>
</a>
</g>
</g>
<!-- Node0&#45;&gt;Node1 -->
<g id="edge2318_Node000000_Node000001" class="edge">
<title>Node0&#45;&gt;Node1</title>
<g id="a_edge2318_Node000000_Node000001"><a xlink:title=" ">
<path fill="none" stroke="#63b8ff" d="M177.27,-37.25C185.85,-36.39 194.45,-35.53 202.81,-34.7"/>
<polygon fill="#63b8ff" stroke="#63b8ff" points="176.83,-33.77 167.22,-38.25 177.52,-40.74 176.83,-33.77"/>
</a>
</g>
</g>
<!-- Node2 -->
<g id="Node000002" class="node">
<title>Node2</title>
<g id="a_Node000002"><a xlink:title=" ">
<polygon fill="#e0e0e0" stroke="#999999" points="143,-19 24,-19 24,0 143,0 143,-19"/>
<text text-anchor="middle" x="83.5" y="-7" font-family="Helvetica,sans-Serif" font-size="10.00">Vst::IHostApplication</text>
</a>
</g>
</g>
<!-- Node2&#45;&gt;Node1 -->
<g id="edge2319_Node000002_Node000001" class="edge">
<title>Node2&#45;&gt;Node1</title>
<g id="a_edge2319_Node000002_Node000001"><a xlink:title=" ">
<path fill="none" stroke="#63b8ff" d="M153.54,-16.02C169.53,-17.53 186.59,-19.15 202.71,-20.67"/>
<polygon fill="#63b8ff" stroke="#63b8ff" points="153.5,-12.5 143.21,-15.05 152.84,-19.47 153.5,-12.5"/>
</a>
</g>
</g>
</g>
</svg>
