<?xml version="1.0" encoding="UTF-8" standalone="no"?>
<!DOCTYPE svg PUBLIC "-//W3C//DTD SVG 1.1//EN"
 "http://www.w3.org/Graphics/SVG/1.1/DTD/svg11.dtd">
<!-- Generated by graphviz version 2.43.0 (0)
 -->
<!-- Title: Graphical Class Hierarchy Pages: 1 -->
<svg width="571pt" height="124pt"
 viewBox="0.00 0.00 571.00 124.00" xmlns="http://www.w3.org/2000/svg" xmlns:xlink="http://www.w3.org/1999/xlink">
<g id="graph0" class="graph" transform="scale(1 1) rotate(0) translate(4 120)">
<title>Graphical Class Hierarchy</title>
<!-- Node0 -->
<g id="Node000000" class="node">
<title>Node0</title>
<g id="a_Node000000"><a xlink:href="classArdourSurface_1_1M2ButtonInterface.html" target="_top" xlink:title=" ">
<polygon fill="white" stroke="#666666" points="182,-67.5 0,-67.5 0,-48.5 182,-48.5 182,-67.5"/>
<text text-anchor="middle" x="91" y="-55.5" font-family="Helvetica,sans-Serif" font-size="10.00">ArdourSurface::M2ButtonInterface</text>
</a>
</g>
</g>
<!-- Node1 -->
<g id="Node000001" class="node">
<title>Node1</title>
<g id="a_Node000001"><a xlink:href="classArdourSurface_1_1M2Button.html" target="_top" xlink:title=" ">
<polygon fill="white" stroke="#666666" points="357,-67.5 218,-67.5 218,-48.5 357,-48.5 357,-67.5"/>
<text text-anchor="middle" x="287.5" y="-55.5" font-family="Helvetica,sans-Serif" font-size="10.00">ArdourSurface::M2Button</text>
</a>
</g>
</g>
<!-- Node0&#45;&gt;Node1 -->
<g id="edge130_Node000000_Node000001" class="edge">
<title>Node0&#45;&gt;Node1</title>
<g id="a_edge130_Node000000_Node000001"><a xlink:title=" ">
<path fill="none" stroke="#63b8ff" d="M192.3,-58C200.96,-58 209.58,-58 217.9,-58"/>
<polygon fill="#63b8ff" stroke="#63b8ff" points="192.13,-54.5 182.13,-58 192.13,-61.5 192.13,-54.5"/>
</a>
</g>
</g>
<!-- Node2 -->
<g id="Node000002" class="node">
<title>Node2</title>
<g id="a_Node000002"><a xlink:href="classArdourSurface_1_1M2StatelessButton.html" target="_top" xlink:title=" ">
<polygon fill="white" stroke="#666666" points="554,-116 402,-116 402,-86 554,-86 554,-116"/>
<text text-anchor="start" x="410" y="-104" font-family="Helvetica,sans-Serif" font-size="10.00">ArdourSurface::M2Stateless</text>
<text text-anchor="middle" x="478" y="-93" font-family="Helvetica,sans-Serif" font-size="10.00">Button</text>
</a>
</g>
</g>
<!-- Node1&#45;&gt;Node2 -->
<g id="edge131_Node000001_Node000002" class="edge">
<title>Node1&#45;&gt;Node2</title>
<g id="a_edge131_Node000001_Node000002"><a xlink:title=" ">
<path fill="none" stroke="#63b8ff" d="M340.12,-69.78C362.07,-74.78 387.92,-80.68 411.22,-85.99"/>
<polygon fill="#63b8ff" stroke="#63b8ff" points="340.86,-66.35 330.33,-67.54 339.31,-73.18 340.86,-66.35"/>
</a>
</g>
</g>
<!-- Node3 -->
<g id="Node000003" class="node">
<title>Node3</title>
<g id="a_Node000003"><a xlink:href="classArdourSurface_1_1M2ToggleButton.html" target="_top" xlink:title=" ">
<polygon fill="white" stroke="#666666" points="563,-67.5 393,-67.5 393,-48.5 563,-48.5 563,-67.5"/>
<text text-anchor="middle" x="478" y="-55.5" font-family="Helvetica,sans-Serif" font-size="10.00">ArdourSurface::M2ToggleButton</text>
</a>
</g>
</g>
<!-- Node1&#45;&gt;Node3 -->
<g id="edge132_Node000001_Node000003" class="edge">
<title>Node1&#45;&gt;Node3</title>
<g id="a_edge132_Node000001_Node000003"><a xlink:title=" ">
<path fill="none" stroke="#63b8ff" d="M367.25,-58C375.67,-58 384.25,-58 392.73,-58"/>
<polygon fill="#63b8ff" stroke="#63b8ff" points="367.09,-54.5 357.09,-58 367.09,-61.5 367.09,-54.5"/>
</a>
</g>
</g>
<!-- Node4 -->
<g id="Node000004" class="node">
<title>Node4</title>
<g id="a_Node000004"><a xlink:href="classArdourSurface_1_1M2ToggleHoldButton.html" target="_top" xlink:title=" ">
<polygon fill="white" stroke="#666666" points="558.5,-30 397.5,-30 397.5,0 558.5,0 558.5,-30"/>
<text text-anchor="start" x="405.5" y="-18" font-family="Helvetica,sans-Serif" font-size="10.00">ArdourSurface::M2ToggleHold</text>
<text text-anchor="middle" x="478" y="-7" font-family="Helvetica,sans-Serif" font-size="10.00">Button</text>
</a>
</g>
</g>
<!-- Node1&#45;&gt;Node4 -->
<g id="edge133_Node000001_Node000004" class="edge">
<title>Node1&#45;&gt;Node4</title>
<g id="a_edge133_Node000001_Node000004"><a xlink:title=" ">
<path fill="none" stroke="#63b8ff" d="M340.12,-46.22C362.07,-41.22 387.92,-35.32 411.22,-30.01"/>
<polygon fill="#63b8ff" stroke="#63b8ff" points="339.31,-42.82 330.33,-48.46 340.86,-49.65 339.31,-42.82"/>
</a>
</g>
</g>
</g>
</svg>
