<?xml version="1.0" encoding="UTF-8" standalone="no"?>
<!DOCTYPE svg PUBLIC "-//W3C//DTD SVG 1.1//EN"
 "http://www.w3.org/Graphics/SVG/1.1/DTD/svg11.dtd">
<!-- Generated by graphviz version 2.43.0 (0)
 -->
<!-- Title: Graphical Class Hierarchy Pages: 1 -->
<svg width="378pt" height="64pt"
 viewBox="0.00 0.00 378.00 64.00" xmlns="http://www.w3.org/2000/svg" xmlns:xlink="http://www.w3.org/1999/xlink">
<g id="graph0" class="graph" transform="scale(1 1) rotate(0) translate(4 60)">
<title>Graphical Class Hierarchy</title>
<!-- Node0 -->
<g id="Node000000" class="node">
<title>Node0</title>
<g id="a_Node000000"><a xlink:href="classARDOUR_1_1AlsaAudioSlave.html" target="_top" xlink:title=" ">
<polygon fill="white" stroke="#666666" points="160,-56 19,-56 19,-37 160,-37 160,-56"/>
<text text-anchor="middle" x="89.5" y="-44" font-family="Helvetica,sans-Serif" font-size="10.00">ARDOUR::AlsaAudioSlave</text>
</a>
</g>
</g>
<!-- Node1 -->
<g id="Node000001" class="node">
<title>Node1</title>
<g id="a_Node000001"><a xlink:href="classARDOUR_1_1AlsaAudioBackend_1_1AudioSlave.html" target="_top" xlink:title=" ">
<polygon fill="white" stroke="#666666" points="370,-42.5 215,-42.5 215,-12.5 370,-12.5 370,-42.5"/>
<text text-anchor="start" x="223" y="-30.5" font-family="Helvetica,sans-Serif" font-size="10.00">ARDOUR::AlsaAudioBackend</text>
<text text-anchor="middle" x="292.5" y="-19.5" font-family="Helvetica,sans-Serif" font-size="10.00">::AudioSlave</text>
</a>
</g>
</g>
<!-- Node0&#45;&gt;Node1 -->
<g id="edge5_Node000000_Node000001" class="edge">
<title>Node0&#45;&gt;Node1</title>
<g id="a_edge5_Node000000_Node000001"><a xlink:title=" ">
<path fill="none" stroke="#63b8ff" d="M170.25,-38.96C184.88,-37.58 200.13,-36.14 214.68,-34.76"/>
<polygon fill="#63b8ff" stroke="#63b8ff" points="169.86,-35.48 160.24,-39.91 170.52,-42.45 169.86,-35.48"/>
</a>
</g>
</g>
<!-- Node2 -->
<g id="Node000002" class="node">
<title>Node2</title>
<g id="a_Node000002"><a xlink:href="classARDOUR_1_1AlsaDeviceReservation.html" target="_top" xlink:title=" ">
<polygon fill="white" stroke="#666666" points="179,-19 0,-19 0,0 179,0 179,-19"/>
<text text-anchor="middle" x="89.5" y="-7" font-family="Helvetica,sans-Serif" font-size="10.00">ARDOUR::AlsaDeviceReservation</text>
</a>
</g>
</g>
<!-- Node2&#45;&gt;Node1 -->
<g id="edge6_Node000002_Node000001" class="edge">
<title>Node2&#45;&gt;Node1</title>
<g id="a_edge6_Node000002_Node000001"><a xlink:title=" ">
<path fill="none" stroke="#63b8ff" d="M189.31,-18.35C197.9,-19.12 206.51,-19.89 214.89,-20.64"/>
<polygon fill="#63b8ff" stroke="#63b8ff" points="189.52,-14.85 179.25,-17.45 188.89,-21.83 189.52,-14.85"/>
</a>
</g>
</g>
</g>
</svg>
