<?xml version="1.0" encoding="UTF-8" standalone="no"?>
<!DOCTYPE svg PUBLIC "-//W3C//DTD SVG 1.1//EN"
 "http://www.w3.org/Graphics/SVG/1.1/DTD/svg11.dtd">
<!-- Generated by graphviz version 2.43.0 (0)
 -->
<!-- Title: interleaver.h Pages: 1 -->
<!--zoomable 489 -->

<svg id="main" version="1.1" xmlns="http://www.w3.org/2000/svg" xmlns:xlink="http://www.w3.org/1999/xlink" xml:space="preserve" onload="init(evt)">
<style type="text/css"><![CDATA[
.node, .edge {opacity: 0.7;}
.node.selected, .edge.selected {opacity: 1;}
.edge:hover path { stroke: red; }
.edge:hover polygon { stroke: red; fill: red; }
]]></style>

<defs>
  <circle id="rim" cx="0" cy="0" r="7"/>
  <circle id="rim2" cx="0" cy="0" r="3.5"/>
  <g id="zoomPlus">
    <use xlink:href="#rim" fill="#404040"><set attributeName="fill" to="#808080" begin="zoomplus.mouseover" end="zoomplus.mouseout"/></use>
    <path d="M-4,0h8M0,-4v8" fill="none" stroke="white" stroke-width="1.5" pointer-events="none"/>
  </g>
  <g id="zoomMin">
    <use xlink:href="#rim" fill="#404040"><set attributeName="fill" to="#808080" begin="zoomminus.mouseover" end="zoomminus.mouseout"/></use>
    <path d="M-4,0h8" fill="none" stroke="white" stroke-width="1.5" pointer-events="none"/>
  </g>
  <g id="arrowUp" transform="translate(30 24)">
    <use xlink:href="#rim"/>
    <path pointer-events="none" fill="none" stroke="white" stroke-width="1.5" d="M0,-3.0v7 M-2.5,-0.5L0,-3.0L2.5,-0.5"/>
  </g>
  <g id="arrowRight" transform="rotate(90) translate(36 -43)">
    <use xlink:href="#rim"/>
    <path pointer-events="none" fill="none" stroke="white" stroke-width="1.5" d="M0,-3.0v7 M-2.5,-0.5L0,-3.0L2.5,-0.5"/>
  </g>
  <g id="arrowDown" transform="rotate(180) translate(-30 -48)">
    <use xlink:href="#rim"/>
    <path pointer-events="none" fill="none" stroke="white" stroke-width="1.5" d="M0,-3.0v7 M-2.5,-0.5L0,-3.0L2.5,-0.5"/>
  </g>
  <g id="arrowLeft" transform="rotate(270) translate(-36 17)">
    <use xlink:href="#rim"/>
    <path pointer-events="none" fill="none" stroke="white" stroke-width="1.5" d="M0,-3.0v7 M-2.5,-0.5L0,-3.0L2.5,-0.5"/>
  </g>
  <g id="resetDef">
    <use xlink:href="#rim2" fill="#404040"><set attributeName="fill" to="#808080" begin="reset.mouseover" end="reset.mouseout"/></use>
  </g>
</defs>
<script type="application/ecmascript">
var viewWidth = 1138;
var viewHeight = 489;
var sectionId = 'dynsection-0';
</script>
<script type="application/ecmascript" xlink:href="svg.min.js"/>
<svg id="graph" class="graph">
<g id="viewport">
<title>interleaver.h</title>
<!-- Node1 -->
<g id="Node000001" class="node">
<title>Node1</title>
<g id="a_Node000001"><a xlink:title=" ">
<polygon fill="#999999" stroke="#666666" points="482,-481 404,-481 404,-462 482,-462 482,-481"/>
<text text-anchor="middle" x="443" y="-469" font-family="Helvetica,sans-Serif" font-size="10.00">interleaver.h</text>
</a>
</g>
</g>
<!-- Node2 -->
<g id="Node000002" class="node">
<title>Node2</title>
<g id="a_Node000002"><a xlink:href="audiographer_2audiographer_2visibility_8h.html" target="_top" xlink:title=" ">
<polygon fill="white" stroke="#666666" points="399,-19 265,-19 265,0 399,0 399,-19"/>
<text text-anchor="middle" x="332" y="-7" font-family="Helvetica,sans-Serif" font-size="10.00">audiographer/visibility.h</text>
</a>
</g>
</g>
<!-- Node1&#45;&gt;Node2 -->
<g id="edge1_Node000001_Node000002" class="edge">
<title>Node1&#45;&gt;Node2</title>
<g id="a_edge1_Node000001_Node000002"><a xlink:title=" ">
<path fill="none" stroke="#63b8ff" d="M403.84,-468.92C321.49,-465.09 133.27,-453.53 76,-426 33.37,-405.51 0,-398.8 0,-351.5 0,-351.5 0,-351.5 0,-124 0,-69.8 160.42,-36.11 258.24,-20.6"/>
<polygon fill="#63b8ff" stroke="#63b8ff" points="259.04,-24.02 268.38,-19.03 257.96,-17.1 259.04,-24.02"/>
</a>
</g>
</g>
<!-- Node3 -->
<g id="Node000003" class="node">
<title>Node3</title>
<g id="a_Node000003"><a xlink:href="audiographer_2audiographer_2types_8h.html" target="_top" xlink:title=" ">
<polygon fill="white" stroke="#666666" points="172,-134.5 52,-134.5 52,-115.5 172,-115.5 172,-134.5"/>
<text text-anchor="middle" x="112" y="-122.5" font-family="Helvetica,sans-Serif" font-size="10.00">audiographer/types.h</text>
</a>
</g>
</g>
<!-- Node1&#45;&gt;Node3 -->
<g id="edge2_Node000001_Node000003" class="edge">
<title>Node1&#45;&gt;Node3</title>
<g id="a_edge2_Node000001_Node000003"><a xlink:title=" ">
<path fill="none" stroke="#63b8ff" d="M403.8,-467.39C302.16,-458.27 38,-427.26 38,-351.5 38,-351.5 38,-351.5 38,-239.5 38,-199.03 71.41,-161.7 93.34,-141.56"/>
<polygon fill="#63b8ff" stroke="#63b8ff" points="95.91,-143.96 101.08,-134.72 91.27,-138.72 95.91,-143.96"/>
</a>
</g>
</g>
<!-- Node5 -->
<g id="Node000005" class="node">
<title>Node5</title>
<g id="a_Node000005"><a xlink:href="sink_8h.html" target="_top" xlink:title=" ">
<polygon fill="white" stroke="#666666" points="484.5,-305 371.5,-305 371.5,-286 484.5,-286 484.5,-305"/>
<text text-anchor="middle" x="428" y="-293" font-family="Helvetica,sans-Serif" font-size="10.00">audiographer/sink.h</text>
</a>
</g>
</g>
<!-- Node1&#45;&gt;Node5 -->
<g id="edge5_Node000001_Node000005" class="edge">
<title>Node1&#45;&gt;Node5</title>
<g id="a_edge5_Node000001_Node000005"><a xlink:title=" ">
<path fill="none" stroke="#63b8ff" d="M442.24,-461.63C439.9,-434.52 432.81,-352.32 429.61,-315.13"/>
<polygon fill="#63b8ff" stroke="#63b8ff" points="433.09,-314.81 428.75,-305.14 426.12,-315.41 433.09,-314.81"/>
</a>
</g>
</g>
<!-- Node14 -->
<g id="Node000014" class="node">
<title>Node14</title>
<g id="a_Node000014"><a xlink:href="exception_8h.html" target="_top" xlink:title=" ">
<polygon fill="white" stroke="#666666" points="839,-195 765,-195 765,-176 839,-176 839,-195"/>
<text text-anchor="middle" x="802" y="-183" font-family="Helvetica,sans-Serif" font-size="10.00">exception.h</text>
</a>
</g>
</g>
<!-- Node1&#45;&gt;Node14 -->
<g id="edge42_Node000001_Node000014" class="edge">
<title>Node1&#45;&gt;Node14</title>
<g id="a_edge42_Node000001_Node000014"><a xlink:title=" ">
<path fill="none" stroke="#63b8ff" d="M482.24,-468.21C549.34,-461.94 679,-438.57 679,-351.5 679,-351.5 679,-351.5 679,-294.5 679,-246.63 732.25,-215 768.68,-198.96"/>
<polygon fill="#63b8ff" stroke="#63b8ff" points="770.14,-202.14 777.99,-195.03 767.42,-195.69 770.14,-202.14"/>
</a>
</g>
</g>
<!-- Node22 -->
<g id="Node000022" class="node">
<title>Node22</title>
<g id="a_Node000022"><a xlink:href="throwing_8h.html" target="_top" xlink:title=" ">
<polygon fill="white" stroke="#666666" points="210,-195 142,-195 142,-176 210,-176 210,-195"/>
<text text-anchor="middle" x="176" y="-183" font-family="Helvetica,sans-Serif" font-size="10.00">throwing.h</text>
</a>
</g>
</g>
<!-- Node1&#45;&gt;Node22 -->
<g id="edge43_Node000001_Node000022" class="edge">
<title>Node1&#45;&gt;Node22</title>
<g id="a_edge43_Node000001_Node000022"><a xlink:title=" ">
<path fill="none" stroke="#63b8ff" d="M403.93,-471.26C333.07,-470.19 185.92,-455.96 134,-360 105.68,-307.65 143.48,-236.21 164.14,-203.78"/>
<polygon fill="#63b8ff" stroke="#63b8ff" points="167.1,-205.64 169.68,-195.37 161.26,-201.79 167.1,-205.64"/>
</a>
</g>
</g>
<!-- Node26 -->
<g id="Node000026" class="node">
<title>Node26</title>
<g id="a_Node000026"><a xlink:href="listed__source_8h.html" target="_top" xlink:title=" ">
<polygon fill="white" stroke="#666666" points="348.5,-426 243.5,-426 243.5,-396 348.5,-396 348.5,-426"/>
<text text-anchor="start" x="251.5" y="-414" font-family="Helvetica,sans-Serif" font-size="10.00">audiographer/utils</text>
<text text-anchor="middle" x="296" y="-403" font-family="Helvetica,sans-Serif" font-size="10.00">/listed_source.h</text>
</a>
</g>
</g>
<!-- Node1&#45;&gt;Node26 -->
<g id="edge44_Node000001_Node000026" class="edge">
<title>Node1&#45;&gt;Node26</title>
<g id="a_edge44_Node000001_Node000026"><a xlink:title=" ">
<path fill="none" stroke="#63b8ff" d="M421.62,-461.99C400.56,-453.61 367.73,-440.55 340.92,-429.87"/>
<polygon fill="#63b8ff" stroke="#63b8ff" points="341.93,-426.51 331.34,-426.06 339.34,-433.01 341.93,-426.51"/>
</a>
</g>
</g>
<!-- Node28 -->
<g id="Node000028" class="node">
<title>Node28</title>
<g id="a_Node000028"><a xlink:title=" ">
<polygon fill="#e0e0e0" stroke="#999999" points="754.5,-420.5 707.5,-420.5 707.5,-401.5 754.5,-401.5 754.5,-420.5"/>
<text text-anchor="middle" x="731" y="-408.5" font-family="Helvetica,sans-Serif" font-size="10.00">vector</text>
</a>
</g>
</g>
<!-- Node1&#45;&gt;Node28 -->
<g id="edge53_Node000001_Node000028" class="edge">
<title>Node1&#45;&gt;Node28</title>
<g id="a_edge53_Node000001_Node000028"><a xlink:title=" ">
<path fill="none" stroke="#63b8ff" d="M482.01,-465.73C531.61,-459.18 619.6,-445.89 693,-426 695.43,-425.34 697.93,-424.59 700.43,-423.79"/>
<polygon fill="#63b8ff" stroke="#63b8ff" points="701.6,-427.09 709.91,-420.52 699.32,-420.47 701.6,-427.09"/>
</a>
</g>
</g>
<!-- Node29 -->
<g id="Node000029" class="node">
<title>Node29</title>
<g id="a_Node000029"><a xlink:title=" ">
<polygon fill="#e0e0e0" stroke="#999999" points="819.5,-420.5 772.5,-420.5 772.5,-401.5 819.5,-401.5 819.5,-420.5"/>
<text text-anchor="middle" x="796" y="-408.5" font-family="Helvetica,sans-Serif" font-size="10.00">cmath</text>
</a>
</g>
</g>
<!-- Node1&#45;&gt;Node29 -->
<g id="edge54_Node000001_Node000029" class="edge">
<title>Node1&#45;&gt;Node29</title>
<g id="a_edge54_Node000001_Node000029"><a xlink:title=" ">
<path fill="none" stroke="#63b8ff" d="M482.25,-468.53C543.46,-464.69 664.91,-453.97 764,-426 765.69,-425.52 767.4,-424.98 769.11,-424.38"/>
<polygon fill="#63b8ff" stroke="#63b8ff" points="770.7,-427.52 778.71,-420.59 768.13,-421.01 770.7,-427.52"/>
</a>
</g>
</g>
<!-- Node3&#45;&gt;Node2 -->
<g id="edge4_Node000003_Node000002" class="edge">
<title>Node3&#45;&gt;Node2</title>
<g id="a_edge4_Node000003_Node000002"><a xlink:title=" ">
<path fill="none" stroke="#63b8ff" d="M118.83,-115.47C130.89,-100.98 157.39,-71.5 186,-55 213.5,-39.14 247.23,-28.38 275.34,-21.42"/>
<polygon fill="#63b8ff" stroke="#63b8ff" points="276.5,-24.74 285.42,-19.02 274.88,-17.93 276.5,-24.74"/>
</a>
</g>
</g>
<!-- Node4 -->
<g id="Node000004" class="node">
<title>Node4</title>
<g id="a_Node000004"><a xlink:title=" ">
<polygon fill="#e0e0e0" stroke="#999999" points="664.5,-19 611.5,-19 611.5,0 664.5,0 664.5,-19"/>
<text text-anchor="middle" x="638" y="-7" font-family="Helvetica,sans-Serif" font-size="10.00">stdint.h</text>
</a>
</g>
</g>
<!-- Node3&#45;&gt;Node4 -->
<g id="edge3_Node000003_Node000004" class="edge">
<title>Node3&#45;&gt;Node4</title>
<g id="a_edge3_Node000003_Node000004"><a xlink:title=" ">
<path fill="none" stroke="#63b8ff" d="M150.77,-115.4C210.2,-102.26 327.38,-76.41 427,-55 488.2,-41.84 559.47,-26.89 601.55,-18.1"/>
<polygon fill="#63b8ff" stroke="#63b8ff" points="602.27,-21.52 611.34,-16.05 600.83,-14.67 602.27,-21.52"/>
</a>
</g>
</g>
<!-- Node5&#45;&gt;Node2 -->
<g id="edge41_Node000005_Node000002" class="edge">
<title>Node5&#45;&gt;Node2</title>
<g id="a_edge41_Node000005_Node000002"><a xlink:title=" ">
<path fill="none" stroke="#63b8ff" d="M425.85,-285.83C422.76,-273.56 416.82,-250.46 411,-231 394.78,-176.73 390.23,-163.28 371,-110 360.64,-81.3 347.5,-48.42 339.42,-28.56"/>
<polygon fill="#63b8ff" stroke="#63b8ff" points="342.63,-27.16 335.6,-19.22 336.15,-29.8 342.63,-27.16"/>
</a>
</g>
</g>
<!-- Node6 -->
<g id="Node000006" class="node">
<title>Node6</title>
<g id="a_Node000006"><a xlink:title=" ">
<polygon fill="#e0e0e0" stroke="#999999" points="362,-134.5 304,-134.5 304,-115.5 362,-115.5 362,-134.5"/>
<text text-anchor="middle" x="333" y="-122.5" font-family="Helvetica,sans-Serif" font-size="10.00">memory</text>
</a>
</g>
</g>
<!-- Node5&#45;&gt;Node6 -->
<g id="edge6_Node000005_Node000006" class="edge">
<title>Node5&#45;&gt;Node6</title>
<g id="a_edge6_Node000005_Node000006"><a xlink:title=" ">
<path fill="none" stroke="#63b8ff" d="M423.16,-285.91C408.3,-259.55 363.12,-179.43 342.93,-143.62"/>
<polygon fill="#63b8ff" stroke="#63b8ff" points="345.91,-141.76 337.95,-134.77 339.81,-145.2 345.91,-141.76"/>
</a>
</g>
</g>
<!-- Node7 -->
<g id="Node000007" class="node">
<title>Node7</title>
<g id="a_Node000007"><a xlink:href="process__context_8h.html" target="_top" xlink:title=" ">
<polygon fill="white" stroke="#666666" points="612.5,-250 507.5,-250 507.5,-231 612.5,-231 612.5,-250"/>
<text text-anchor="middle" x="560" y="-238" font-family="Helvetica,sans-Serif" font-size="10.00">process_context.h</text>
</a>
</g>
</g>
<!-- Node5&#45;&gt;Node7 -->
<g id="edge7_Node000005_Node000007" class="edge">
<title>Node5&#45;&gt;Node7</title>
<g id="a_edge7_Node000005_Node000007"><a xlink:title=" ">
<path fill="none" stroke="#63b8ff" d="M449.21,-285.98C470.73,-277.34 504.28,-263.87 528.83,-254.02"/>
<polygon fill="#63b8ff" stroke="#63b8ff" points="530.43,-257.14 538.41,-250.17 527.82,-250.65 530.43,-257.14"/>
</a>
</g>
</g>
<!-- Node7&#45;&gt;Node2 -->
<g id="edge14_Node000007_Node000002" class="edge">
<title>Node7&#45;&gt;Node2</title>
<g id="a_edge14_Node000007_Node000002"><a xlink:title=" ">
<path fill="none" stroke="#63b8ff" d="M581.7,-230.85C643.37,-205.13 811.16,-126.41 747,-55 724.88,-30.38 522.88,-18.23 409.08,-13.3"/>
<polygon fill="#63b8ff" stroke="#63b8ff" points="409.16,-9.8 399.02,-12.87 408.87,-16.79 409.16,-9.8"/>
</a>
</g>
</g>
<!-- Node7&#45;&gt;Node3 -->
<g id="edge31_Node000007_Node000003" class="edge">
<title>Node7&#45;&gt;Node3</title>
<g id="a_edge31_Node000007_Node000003"><a xlink:title=" ">
<path fill="none" stroke="#63b8ff" d="M526.33,-230.97C446.29,-210.69 244.69,-159.62 155.55,-137.03"/>
<polygon fill="#63b8ff" stroke="#63b8ff" points="156.31,-133.62 145.76,-134.55 154.59,-140.4 156.31,-133.62"/>
</a>
</g>
</g>
<!-- Node8 -->
<g id="Node000008" class="node">
<title>Node8</title>
<g id="a_Node000008"><a xlink:href="compose_8h.html" target="_top" xlink:title=" ">
<polygon fill="white" stroke="#666666" points="697.5,-134.5 606.5,-134.5 606.5,-115.5 697.5,-115.5 697.5,-134.5"/>
<text text-anchor="middle" x="652" y="-122.5" font-family="Helvetica,sans-Serif" font-size="10.00">pbd/compose.h</text>
</a>
</g>
</g>
<!-- Node7&#45;&gt;Node8 -->
<g id="edge8_Node000007_Node000008" class="edge">
<title>Node7&#45;&gt;Node8</title>
<g id="a_edge8_Node000007_Node000008"><a xlink:title=" ">
<path fill="none" stroke="#63b8ff" d="M566.91,-230.97C582.1,-212.24 618.59,-167.22 638.49,-142.66"/>
<polygon fill="#63b8ff" stroke="#63b8ff" points="641.43,-144.6 645,-134.63 635.99,-140.19 641.43,-144.6"/>
</a>
</g>
</g>
<!-- Node7&#45;&gt;Node14 -->
<g id="edge15_Node000007_Node000014" class="edge">
<title>Node7&#45;&gt;Node14</title>
<g id="a_edge15_Node000007_Node000014"><a xlink:title=" ">
<path fill="none" stroke="#63b8ff" d="M598.88,-230.98C641.36,-221.68 709.41,-206.78 754.89,-196.82"/>
<polygon fill="#63b8ff" stroke="#63b8ff" points="755.78,-200.2 764.8,-194.65 754.29,-193.37 755.78,-200.2"/>
</a>
</g>
</g>
<!-- Node16 -->
<g id="Node000016" class="node">
<title>Node16</title>
<g id="a_Node000016"><a xlink:href="debug__utils_8h.html" target="_top" xlink:title=" ">
<polygon fill="white" stroke="#666666" points="944,-140 830,-140 830,-110 944,-110 944,-140"/>
<text text-anchor="start" x="838" y="-128" font-family="Helvetica,sans-Serif" font-size="10.00">audiographer/debug</text>
<text text-anchor="middle" x="887" y="-117" font-family="Helvetica,sans-Serif" font-size="10.00">_utils.h</text>
</a>
</g>
</g>
<!-- Node7&#45;&gt;Node16 -->
<g id="edge30_Node000007_Node000016" class="edge">
<title>Node7&#45;&gt;Node16</title>
<g id="a_edge30_Node000007_Node000016"><a xlink:title=" ">
<path fill="none" stroke="#63b8ff" d="M584.58,-230.97C637.99,-212.43 765.55,-168.16 836.76,-143.44"/>
<polygon fill="#63b8ff" stroke="#63b8ff" points="838.12,-146.67 846.42,-140.09 835.82,-140.06 838.12,-146.67"/>
</a>
</g>
</g>
<!-- Node17 -->
<g id="Node000017" class="node">
<title>Node17</title>
<g id="a_Node000017"><a xlink:href="flag__field_8h.html" target="_top" xlink:title=" ">
<polygon fill="white" stroke="#666666" points="1070,-74 1000,-74 1000,-55 1070,-55 1070,-74"/>
<text text-anchor="middle" x="1035" y="-62" font-family="Helvetica,sans-Serif" font-size="10.00">flag_field.h</text>
</a>
</g>
</g>
<!-- Node7&#45;&gt;Node17 -->
<g id="edge32_Node000007_Node000017" class="edge">
<title>Node7&#45;&gt;Node17</title>
<g id="a_edge32_Node000007_Node000017"><a xlink:title=" ">
<path fill="none" stroke="#63b8ff" d="M612.82,-237.68C732.49,-232.3 1018.35,-212.02 1075,-140 1089.59,-121.46 1070.1,-96.84 1053.57,-81.08"/>
<polygon fill="#63b8ff" stroke="#63b8ff" points="1055.62,-78.22 1045.85,-74.12 1050.93,-83.41 1055.62,-78.22"/>
</a>
</g>
</g>
<!-- Node7&#45;&gt;Node22 -->
<g id="edge33_Node000007_Node000022" class="edge">
<title>Node7&#45;&gt;Node22</title>
<g id="a_edge33_Node000007_Node000022"><a xlink:title=" ">
<path fill="none" stroke="#63b8ff" d="M507.41,-232.24C431.16,-221.72 291.25,-202.41 220.08,-192.58"/>
<polygon fill="#63b8ff" stroke="#63b8ff" points="220.48,-189.11 210.1,-191.21 219.52,-196.04 220.48,-189.11"/>
</a>
</g>
</g>
<!-- Node23 -->
<g id="Node000023" class="node">
<title>Node23</title>
<g id="a_Node000023"><a xlink:href="type__utils_8h.html" target="_top" xlink:title=" ">
<polygon fill="white" stroke="#666666" points="530,-195 456,-195 456,-176 530,-176 530,-195"/>
<text text-anchor="middle" x="493" y="-183" font-family="Helvetica,sans-Serif" font-size="10.00">type_utils.h</text>
</a>
</g>
</g>
<!-- Node7&#45;&gt;Node23 -->
<g id="edge35_Node000007_Node000023" class="edge">
<title>Node7&#45;&gt;Node23</title>
<g id="a_edge35_Node000007_Node000023"><a xlink:title=" ">
<path fill="none" stroke="#63b8ff" d="M549.24,-230.98C539.23,-223.07 524.11,-211.11 512.07,-201.58"/>
<polygon fill="#63b8ff" stroke="#63b8ff" points="513.97,-198.63 503.96,-195.17 509.63,-204.12 513.97,-198.63"/>
</a>
</g>
</g>
<!-- Node9 -->
<g id="Node000009" class="node">
<title>Node9</title>
<g id="a_Node000009"><a xlink:title=" ">
<polygon fill="#e0e0e0" stroke="#999999" points="492,-74 436,-74 436,-55 492,-55 492,-74"/>
<text text-anchor="middle" x="464" y="-62" font-family="Helvetica,sans-Serif" font-size="10.00">sstream</text>
</a>
</g>
</g>
<!-- Node8&#45;&gt;Node9 -->
<g id="edge9_Node000008_Node000009" class="edge">
<title>Node8&#45;&gt;Node9</title>
<g id="a_edge9_Node000008_Node000009"><a xlink:title=" ">
<path fill="none" stroke="#63b8ff" d="M624.66,-115.49C592.08,-105.36 537.49,-88.37 501.11,-77.05"/>
<polygon fill="#63b8ff" stroke="#63b8ff" points="501.96,-73.65 491.37,-74.02 499.88,-80.33 501.96,-73.65"/>
</a>
</g>
</g>
<!-- Node10 -->
<g id="Node000010" class="node">
<title>Node10</title>
<g id="a_Node000010"><a xlink:title=" ">
<polygon fill="#e0e0e0" stroke="#999999" points="838,-74 794,-74 794,-55 838,-55 838,-74"/>
<text text-anchor="middle" x="816" y="-62" font-family="Helvetica,sans-Serif" font-size="10.00">string</text>
</a>
</g>
</g>
<!-- Node8&#45;&gt;Node10 -->
<g id="edge10_Node000008_Node000010" class="edge">
<title>Node8&#45;&gt;Node10</title>
<g id="a_edge10_Node000008_Node000010"><a xlink:title=" ">
<path fill="none" stroke="#63b8ff" d="M675.85,-115.49C704.46,-105.29 752.55,-88.13 784.28,-76.81"/>
<polygon fill="#63b8ff" stroke="#63b8ff" points="785.72,-80.02 793.96,-73.36 783.37,-73.42 785.72,-80.02"/>
</a>
</g>
</g>
<!-- Node11 -->
<g id="Node000011" class="node">
<title>Node11</title>
<g id="a_Node000011"><a xlink:title=" ">
<polygon fill="#e0e0e0" stroke="#999999" points="738,-74 706,-74 706,-55 738,-55 738,-74"/>
<text text-anchor="middle" x="722" y="-62" font-family="Helvetica,sans-Serif" font-size="10.00">list</text>
</a>
</g>
</g>
<!-- Node8&#45;&gt;Node11 -->
<g id="edge11_Node000008_Node000011" class="edge">
<title>Node8&#45;&gt;Node11</title>
<g id="a_edge11_Node000008_Node000011"><a xlink:title=" ">
<path fill="none" stroke="#63b8ff" d="M662.33,-115.37C673.19,-106.3 690.49,-91.84 703.67,-80.82"/>
<polygon fill="#63b8ff" stroke="#63b8ff" points="706.2,-83.27 711.63,-74.17 701.71,-77.89 706.2,-83.27"/>
</a>
</g>
</g>
<!-- Node12 -->
<g id="Node000012" class="node">
<title>Node12</title>
<g id="a_Node000012"><a xlink:title=" ">
<polygon fill="#e0e0e0" stroke="#999999" points="548,-74 510,-74 510,-55 548,-55 548,-74"/>
<text text-anchor="middle" x="529" y="-62" font-family="Helvetica,sans-Serif" font-size="10.00">map</text>
</a>
</g>
</g>
<!-- Node8&#45;&gt;Node12 -->
<g id="edge12_Node000008_Node000012" class="edge">
<title>Node8&#45;&gt;Node12</title>
<g id="a_edge12_Node000008_Node000012"><a xlink:title=" ">
<path fill="none" stroke="#63b8ff" d="M634.11,-115.49C613.62,-105.75 579.81,-89.66 556.08,-78.38"/>
<polygon fill="#63b8ff" stroke="#63b8ff" points="557.44,-75.15 546.91,-74.02 554.43,-81.47 557.44,-75.15"/>
</a>
</g>
</g>
<!-- Node13 -->
<g id="Node000013" class="node">
<title>Node13</title>
<g id="a_Node000013"><a xlink:href="libpbd__visibility_8h.html" target="_top" xlink:title=" ">
<polygon fill="white" stroke="#666666" points="688,-74 566,-74 566,-55 688,-55 688,-74"/>
<text text-anchor="middle" x="627" y="-62" font-family="Helvetica,sans-Serif" font-size="10.00">pbd/libpbd_visibility.h</text>
</a>
</g>
</g>
<!-- Node8&#45;&gt;Node13 -->
<g id="edge13_Node000008_Node000013" class="edge">
<title>Node8&#45;&gt;Node13</title>
<g id="a_edge13_Node000008_Node000013"><a xlink:title=" ">
<path fill="none" stroke="#63b8ff" d="M648.31,-115.37C644.73,-106.99 639.18,-94.01 634.65,-83.39"/>
<polygon fill="#63b8ff" stroke="#63b8ff" points="637.85,-81.99 630.7,-74.17 631.42,-84.74 637.85,-81.99"/>
</a>
</g>
</g>
<!-- Node14&#45;&gt;Node2 -->
<g id="edge19_Node000014_Node000002" class="edge">
<title>Node14&#45;&gt;Node2</title>
<g id="a_edge19_Node000014_Node000002"><a xlink:title=" ">
<path fill="none" stroke="#63b8ff" d="M839.06,-185.18C874.7,-183.59 926.89,-174.91 953,-140 975.62,-109.75 978.74,-82.65 953,-55 934.74,-35.38 571.81,-19.44 409.41,-13.27"/>
<polygon fill="#63b8ff" stroke="#63b8ff" points="409.13,-9.75 399.01,-12.87 408.87,-16.75 409.13,-9.75"/>
</a>
</g>
</g>
<!-- Node14&#45;&gt;Node8 -->
<g id="edge18_Node000014_Node000008" class="edge">
<title>Node14&#45;&gt;Node8</title>
<g id="a_edge18_Node000014_Node000008"><a xlink:title=" ">
<path fill="none" stroke="#63b8ff" d="M780.19,-175.99C754.75,-166.07 712.49,-149.59 683.49,-138.28"/>
<polygon fill="#63b8ff" stroke="#63b8ff" points="684.43,-134.89 673.84,-134.52 681.88,-141.41 684.43,-134.89"/>
</a>
</g>
</g>
<!-- Node14&#45;&gt;Node10 -->
<g id="edge17_Node000014_Node000010" class="edge">
<title>Node14&#45;&gt;Node10</title>
<g id="a_edge17_Node000014_Node000010"><a xlink:title=" ">
<path fill="none" stroke="#63b8ff" d="M803.01,-175.94C805.25,-156.91 810.68,-110.69 813.77,-84.47"/>
<polygon fill="#63b8ff" stroke="#63b8ff" points="817.27,-84.64 814.96,-74.3 810.32,-83.82 817.27,-84.64"/>
</a>
</g>
</g>
<!-- Node15 -->
<g id="Node000015" class="node">
<title>Node15</title>
<g id="a_Node000015"><a xlink:title=" ">
<polygon fill="#e0e0e0" stroke="#999999" points="1065.5,-134.5 1000.5,-134.5 1000.5,-115.5 1065.5,-115.5 1065.5,-134.5"/>
<text text-anchor="middle" x="1033" y="-122.5" font-family="Helvetica,sans-Serif" font-size="10.00">exception</text>
</a>
</g>
</g>
<!-- Node14&#45;&gt;Node15 -->
<g id="edge16_Node000014_Node000015" class="edge">
<title>Node14&#45;&gt;Node15</title>
<g id="a_edge16_Node000014_Node000015"><a xlink:title=" ">
<path fill="none" stroke="#63b8ff" d="M839.15,-176.12C876.42,-167.56 935.39,-153.65 986,-140 989.12,-139.16 992.36,-138.26 995.59,-137.33"/>
<polygon fill="#63b8ff" stroke="#63b8ff" points="996.61,-140.68 1005.23,-134.53 994.65,-133.96 996.61,-140.68"/>
</a>
</g>
</g>
<!-- Node14&#45;&gt;Node16 -->
<g id="edge20_Node000014_Node000016" class="edge">
<title>Node14&#45;&gt;Node16</title>
<g id="a_edge20_Node000014_Node000016"><a xlink:title=" ">
<path fill="none" stroke="#63b8ff" d="M814.54,-175.87C825.97,-168 843.27,-156.09 858.11,-145.89"/>
<polygon fill="#63b8ff" stroke="#63b8ff" points="860.24,-148.67 866.49,-140.11 856.27,-142.9 860.24,-148.67"/>
</a>
</g>
</g>
<!-- Node16&#45;&gt;Node2 -->
<g id="edge29_Node000016_Node000002" class="edge">
<title>Node16&#45;&gt;Node2</title>
<g id="a_edge29_Node000016_Node000002"><a xlink:title=" ">
<path fill="none" stroke="#63b8ff" d="M883.13,-109.86C877.86,-93.6 866.75,-67.55 847,-55 810.98,-32.13 544.28,-18.68 409.5,-13.28"/>
<polygon fill="#63b8ff" stroke="#63b8ff" points="409.37,-9.77 399.24,-12.87 409.1,-16.76 409.37,-9.77"/>
</a>
</g>
</g>
<!-- Node16&#45;&gt;Node10 -->
<g id="edge28_Node000016_Node000010" class="edge">
<title>Node16&#45;&gt;Node10</title>
<g id="a_edge28_Node000016_Node000010"><a xlink:title=" ">
<path fill="none" stroke="#63b8ff" d="M869.81,-109.84C859.19,-101.09 845.56,-89.85 834.67,-80.88"/>
<polygon fill="#63b8ff" stroke="#63b8ff" points="836.58,-77.92 826.64,-74.27 832.13,-83.33 836.58,-77.92"/>
</a>
</g>
</g>
<!-- Node16&#45;&gt;Node17 -->
<g id="edge21_Node000016_Node000017" class="edge">
<title>Node16&#45;&gt;Node17</title>
<g id="a_edge21_Node000016_Node000017"><a xlink:title=" ">
<path fill="none" stroke="#63b8ff" d="M922.45,-109.99C947.14,-100.23 979.78,-87.33 1003.55,-77.93"/>
<polygon fill="#63b8ff" stroke="#63b8ff" points="1005.13,-81.07 1013.14,-74.14 1002.56,-74.56 1005.13,-81.07"/>
</a>
</g>
</g>
<!-- Node21 -->
<g id="Node000021" class="node">
<title>Node21</title>
<g id="a_Node000021"><a xlink:title=" ">
<polygon fill="#e0e0e0" stroke="#999999" points="943.5,-74 894.5,-74 894.5,-55 943.5,-55 943.5,-74"/>
<text text-anchor="middle" x="919" y="-62" font-family="Helvetica,sans-Serif" font-size="10.00">cstdlib</text>
</a>
</g>
</g>
<!-- Node16&#45;&gt;Node21 -->
<g id="edge27_Node000016_Node000021" class="edge">
<title>Node16&#45;&gt;Node21</title>
<g id="a_edge27_Node000016_Node000021"><a xlink:title=" ">
<path fill="none" stroke="#63b8ff" d="M894.75,-109.84C899.15,-101.78 904.71,-91.62 909.4,-83.06"/>
<polygon fill="#63b8ff" stroke="#63b8ff" points="912.48,-84.72 914.2,-74.27 906.34,-81.36 912.48,-84.72"/>
</a>
</g>
</g>
<!-- Node17&#45;&gt;Node2 -->
<g id="edge26_Node000017_Node000002" class="edge">
<title>Node17&#45;&gt;Node2</title>
<g id="a_edge26_Node000017_Node000002"><a xlink:title=" ">
<path fill="none" stroke="#63b8ff" d="M999.74,-56.93C995.13,-56.21 990.46,-55.54 986,-55 778.29,-29.99 531.65,-17.95 409.1,-13.15"/>
<polygon fill="#63b8ff" stroke="#63b8ff" points="409.19,-9.65 399.06,-12.76 408.92,-16.65 409.19,-9.65"/>
</a>
</g>
</g>
<!-- Node17&#45;&gt;Node4 -->
<g id="edge22_Node000017_Node000004" class="edge">
<title>Node17&#45;&gt;Node4</title>
<g id="a_edge22_Node000017_Node000004"><a xlink:title=" ">
<path fill="none" stroke="#63b8ff" d="M999.97,-57.23C995.28,-56.45 990.52,-55.68 986,-55 872.98,-37.98 738.68,-22 675.01,-14.68"/>
<polygon fill="#63b8ff" stroke="#63b8ff" points="675.02,-11.16 664.69,-13.5 674.22,-18.12 675.02,-11.16"/>
</a>
</g>
</g>
<!-- Node18 -->
<g id="Node000018" class="node">
<title>Node18</title>
<g id="a_Node000018"><a xlink:title=" ">
<polygon fill="#e0e0e0" stroke="#999999" points="1061.5,-19 1008.5,-19 1008.5,0 1061.5,0 1061.5,-19"/>
<text text-anchor="middle" x="1035" y="-7" font-family="Helvetica,sans-Serif" font-size="10.00">iterator</text>
</a>
</g>
</g>
<!-- Node17&#45;&gt;Node18 -->
<g id="edge23_Node000017_Node000018" class="edge">
<title>Node17&#45;&gt;Node18</title>
<g id="a_edge23_Node000017_Node000018"><a xlink:title=" ">
<path fill="none" stroke="#63b8ff" d="M1035,-54.75C1035,-47.8 1035,-37.85 1035,-29.13"/>
<polygon fill="#63b8ff" stroke="#63b8ff" points="1038.5,-29.09 1035,-19.09 1031.5,-29.09 1038.5,-29.09"/>
</a>
</g>
</g>
<!-- Node19 -->
<g id="Node000019" class="node">
<title>Node19</title>
<g id="a_Node000019"><a xlink:title=" ">
<polygon fill="#e0e0e0" stroke="#999999" points="1130,-19 1080,-19 1080,0 1130,0 1130,-19"/>
<text text-anchor="middle" x="1105" y="-7" font-family="Helvetica,sans-Serif" font-size="10.00">climits</text>
</a>
</g>
</g>
<!-- Node17&#45;&gt;Node19 -->
<g id="edge24_Node000017_Node000019" class="edge">
<title>Node17&#45;&gt;Node19</title>
<g id="a_edge24_Node000017_Node000019"><a xlink:title=" ">
<path fill="none" stroke="#63b8ff" d="M1046.25,-54.98C1056.8,-47 1072.8,-34.88 1085.44,-25.31"/>
<polygon fill="#63b8ff" stroke="#63b8ff" points="1087.69,-28 1093.55,-19.17 1083.46,-22.42 1087.69,-28"/>
</a>
</g>
</g>
<!-- Node20 -->
<g id="Node000020" class="node">
<title>Node20</title>
<g id="a_Node000020"><a xlink:title=" ">
<polygon fill="#e0e0e0" stroke="#999999" points="990,-19 876,-19 876,0 990,0 990,-19"/>
<text text-anchor="middle" x="933" y="-7" font-family="Helvetica,sans-Serif" font-size="10.00">boost/operators.hpp</text>
</a>
</g>
</g>
<!-- Node17&#45;&gt;Node20 -->
<g id="edge25_Node000017_Node000020" class="edge">
<title>Node17&#45;&gt;Node20</title>
<g id="a_edge25_Node000017_Node000020"><a xlink:title=" ">
<path fill="none" stroke="#63b8ff" d="M1018.61,-54.98C1002.43,-46.57 977.43,-33.59 958.62,-23.81"/>
<polygon fill="#63b8ff" stroke="#63b8ff" points="960.17,-20.68 949.69,-19.17 956.95,-26.89 960.17,-20.68"/>
</a>
</g>
</g>
<!-- Node22&#45;&gt;Node2 -->
<g id="edge34_Node000022_Node000002" class="edge">
<title>Node22&#45;&gt;Node2</title>
<g id="a_edge34_Node000022_Node000002"><a xlink:title=" ">
<path fill="none" stroke="#63b8ff" d="M176.85,-175.68C179.52,-152.74 189.71,-90.55 224,-55 239.25,-39.2 260.92,-28.8 280.85,-22.07"/>
<polygon fill="#63b8ff" stroke="#63b8ff" points="281.97,-25.38 290.46,-19.05 279.87,-18.7 281.97,-25.38"/>
</a>
</g>
</g>
<!-- Node23&#45;&gt;Node2 -->
<g id="edge39_Node000023_Node000002" class="edge">
<title>Node23&#45;&gt;Node2</title>
<g id="a_edge39_Node000023_Node000002"><a xlink:title=" ">
<path fill="none" stroke="#63b8ff" d="M483.63,-175.84C474.19,-167.01 459.3,-152.84 447,-140 409.22,-100.58 367.18,-51.92 345.92,-26.97"/>
<polygon fill="#63b8ff" stroke="#63b8ff" points="348.46,-24.54 339.32,-19.19 343.12,-29.07 348.46,-24.54"/>
</a>
</g>
</g>
<!-- Node23&#45;&gt;Node3 -->
<g id="edge40_Node000023_Node000003" class="edge">
<title>Node23&#45;&gt;Node3</title>
<g id="a_edge40_Node000023_Node000003"><a xlink:title=" ">
<path fill="none" stroke="#63b8ff" d="M455.77,-178.78C391.22,-168.87 257.73,-148.38 177.42,-136.04"/>
<polygon fill="#63b8ff" stroke="#63b8ff" points="177.83,-132.57 167.41,-134.51 176.76,-139.49 177.83,-132.57"/>
</a>
</g>
</g>
<!-- Node23&#45;&gt;Node6 -->
<g id="edge36_Node000023_Node000006" class="edge">
<title>Node23&#45;&gt;Node6</title>
<g id="a_edge36_Node000023_Node000006"><a xlink:title=" ">
<path fill="none" stroke="#63b8ff" d="M469.73,-175.99C442.36,-165.99 396.73,-149.3 365.78,-137.99"/>
<polygon fill="#63b8ff" stroke="#63b8ff" points="366.89,-134.66 356.29,-134.52 364.48,-141.24 366.89,-134.66"/>
</a>
</g>
</g>
<!-- Node24 -->
<g id="Node000024" class="node">
<title>Node24</title>
<g id="a_Node000024"><a xlink:title=" ">
<polygon fill="#e0e0e0" stroke="#999999" points="520,-134.5 456,-134.5 456,-115.5 520,-115.5 520,-134.5"/>
<text text-anchor="middle" x="488" y="-122.5" font-family="Helvetica,sans-Serif" font-size="10.00">algorithm</text>
</a>
</g>
</g>
<!-- Node23&#45;&gt;Node24 -->
<g id="edge37_Node000023_Node000024" class="edge">
<title>Node23&#45;&gt;Node24</title>
<g id="a_edge37_Node000023_Node000024"><a xlink:title=" ">
<path fill="none" stroke="#63b8ff" d="M492.26,-175.87C491.57,-167.75 490.5,-155.31 489.61,-144.89"/>
<polygon fill="#63b8ff" stroke="#63b8ff" points="493.08,-144.33 488.74,-134.67 486.11,-144.93 493.08,-144.33"/>
</a>
</g>
</g>
<!-- Node25 -->
<g id="Node000025" class="node">
<title>Node25</title>
<g id="a_Node000025"><a xlink:title=" ">
<polygon fill="#e0e0e0" stroke="#999999" points="588,-134.5 538,-134.5 538,-115.5 588,-115.5 588,-134.5"/>
<text text-anchor="middle" x="563" y="-122.5" font-family="Helvetica,sans-Serif" font-size="10.00">cstring</text>
</a>
</g>
</g>
<!-- Node23&#45;&gt;Node25 -->
<g id="edge38_Node000023_Node000025" class="edge">
<title>Node23&#45;&gt;Node25</title>
<g id="a_edge38_Node000023_Node000025"><a xlink:title=" ">
<path fill="none" stroke="#63b8ff" d="M503.33,-175.87C514.19,-166.8 531.49,-152.34 544.67,-141.32"/>
<polygon fill="#63b8ff" stroke="#63b8ff" points="547.2,-143.77 552.63,-134.67 542.71,-138.39 547.2,-143.77"/>
</a>
</g>
</g>
<!-- Node26&#45;&gt;Node2 -->
<g id="edge45_Node000026_Node000002" class="edge">
<title>Node26&#45;&gt;Node2</title>
<g id="a_edge45_Node000026_Node000002"><a xlink:title=" ">
<path fill="none" stroke="#63b8ff" d="M293.13,-395.64C287.6,-366.64 276,-298.94 276,-241.5 276,-241.5 276,-241.5 276,-124 276,-86.32 301.13,-48.18 317.72,-27.12"/>
<polygon fill="#63b8ff" stroke="#63b8ff" points="320.59,-29.14 324.21,-19.18 315.17,-24.71 320.59,-29.14"/>
</a>
</g>
</g>
<!-- Node26&#45;&gt;Node3 -->
<g id="edge46_Node000026_Node000003" class="edge">
<title>Node26&#45;&gt;Node3</title>
<g id="a_edge46_Node000026_Node000003"><a xlink:title=" ">
<path fill="none" stroke="#63b8ff" d="M243.15,-408.29C206.67,-404.1 160.18,-392.2 134,-360 82.25,-296.35 98.21,-188.36 107.45,-144.93"/>
<polygon fill="#63b8ff" stroke="#63b8ff" points="110.92,-145.43 109.71,-134.91 104.1,-143.89 110.92,-145.43"/>
</a>
</g>
</g>
<!-- Node26&#45;&gt;Node11 -->
<g id="edge52_Node000026_Node000011" class="edge">
<title>Node26&#45;&gt;Node11</title>
<g id="a_edge52_Node000026_Node000011"><a xlink:title=" ">
<path fill="none" stroke="#63b8ff" d="M339.14,-396C405.14,-373.09 532.87,-322.76 622,-250 669.86,-210.93 681.34,-196.2 707,-140 715.12,-122.21 718.87,-100.05 720.58,-84.54"/>
<polygon fill="#63b8ff" stroke="#63b8ff" points="724.11,-84.44 721.53,-74.16 717.13,-83.79 724.11,-84.44"/>
</a>
</g>
</g>
<!-- Node27 -->
<g id="Node000027" class="node">
<title>Node27</title>
<g id="a_Node000027"><a xlink:href="audiographer_2audiographer_2source_8h.html" target="_top" xlink:title=" ">
<polygon fill="white" stroke="#666666" points="267.5,-360 142.5,-360 142.5,-341 267.5,-341 267.5,-360"/>
<text text-anchor="middle" x="205" y="-348" font-family="Helvetica,sans-Serif" font-size="10.00">audiographer/source.h</text>
</a>
</g>
</g>
<!-- Node26&#45;&gt;Node27 -->
<g id="edge47_Node000026_Node000027" class="edge">
<title>Node26&#45;&gt;Node27</title>
<g id="a_edge47_Node000026_Node000027"><a xlink:title=" ">
<path fill="none" stroke="#63b8ff" d="M273.97,-395.84C259.73,-386.68 241.27,-374.82 227.03,-365.66"/>
<polygon fill="#63b8ff" stroke="#63b8ff" points="228.67,-362.56 218.37,-360.09 224.89,-368.45 228.67,-362.56"/>
</a>
</g>
</g>
<!-- Node27&#45;&gt;Node2 -->
<g id="edge51_Node000027_Node000002" class="edge">
<title>Node27&#45;&gt;Node2</title>
<g id="a_edge51_Node000027_Node000002"><a xlink:title=" ">
<path fill="none" stroke="#63b8ff" d="M209.59,-340.82C218.66,-322.82 238,-279.93 238,-241.5 238,-241.5 238,-241.5 238,-124 238,-91.53 241.85,-80.46 262,-55 272.53,-41.7 288.19,-31.21 302.04,-23.77"/>
<polygon fill="#63b8ff" stroke="#63b8ff" points="303.9,-26.75 311.24,-19.11 300.74,-20.51 303.9,-26.75"/>
</a>
</g>
</g>
<!-- Node27&#45;&gt;Node3 -->
<g id="edge49_Node000027_Node000003" class="edge">
<title>Node27&#45;&gt;Node3</title>
<g id="a_edge49_Node000027_Node000003"><a xlink:title=" ">
<path fill="none" stroke="#63b8ff" d="M200.5,-340.97C188.46,-317.91 154.91,-252.2 133,-195 126.57,-178.21 120.74,-158.54 116.87,-144.51"/>
<polygon fill="#63b8ff" stroke="#63b8ff" points="120.19,-143.37 114.21,-134.63 113.43,-145.19 120.19,-143.37"/>
</a>
</g>
</g>
<!-- Node27&#45;&gt;Node5 -->
<g id="edge50_Node000027_Node000005" class="edge">
<title>Node27&#45;&gt;Node5</title>
<g id="a_edge50_Node000027_Node000005"><a xlink:title=" ">
<path fill="none" stroke="#63b8ff" d="M240.83,-340.98C279.16,-331.87 340.08,-317.4 381.95,-307.45"/>
<polygon fill="#63b8ff" stroke="#63b8ff" points="382.97,-310.8 391.89,-305.08 381.35,-303.99 382.97,-310.8"/>
</a>
</g>
</g>
<!-- Node27&#45;&gt;Node6 -->
<g id="edge48_Node000027_Node000006" class="edge">
<title>Node27&#45;&gt;Node6</title>
<g id="a_edge48_Node000027_Node000006"><a xlink:title=" ">
<path fill="none" stroke="#63b8ff" d="M216.26,-340.97C226.6,-332.68 241.83,-319.28 252,-305 289.69,-252.08 316.13,-178.82 327.2,-144.78"/>
<polygon fill="#63b8ff" stroke="#63b8ff" points="330.67,-145.42 330.36,-134.83 324,-143.3 330.67,-145.42"/>
</a>
</g>
</g>
</g>
</svg>

<g id="navigator" transform="translate(0 0)" fill="#404254">
  <rect fill="#f2f5e9" fill-opacity="0.5" stroke="#606060" stroke-width=".5" x="0" y="0" width="60" height="60"/>
  <use id="zoomplus" xlink:href="#zoomPlus" x="17" y="9" onmousedown="handleZoom(evt,'in')"/>
  <use id="zoomminus" xlink:href="#zoomMin" x="42" y="9" onmousedown="handleZoom(evt,'out')"/>
  <use id="reset" xlink:href="#resetDef" x="30" y="36" onmousedown="handleReset()"/>
   <use id="arrowup" xlink:href="#arrowUp" x="0" y="0" onmousedown="handlePan(0,-1)"/>
  <use id="arrowright" xlink:href="#arrowRight" x="0" y="0" onmousedown="handlePan(1,0)"/>
  <use id="arrowdown" xlink:href="#arrowDown" x="0" y="0" onmousedown="handlePan(0,1)"/>
  <use id="arrowleft" xlink:href="#arrowLeft" x="0" y="0" onmousedown="handlePan(-1,0)"/>
</g>
<svg viewBox="0 0 15 15" width="100%" height="30px" preserveAspectRatio="xMaxYMin meet">
 <g id="arrow_out" transform="scale(0.3 0.3)">
  <a xlink:href="interleaver_8h__incl_org.svg" target="_base">
   <rect id="button" ry="5" rx="5" y="6" x="6" height="38" width="38"
        fill="#f2f5e9" fill-opacity="0.5" stroke="#606060" stroke-width="1.0"/>
   <path id="arrow"
     d="M 11.500037,31.436501 C 11.940474,20.09759 22.043105,11.32322 32.158766,21.979434 L 37.068811,17.246167 C 37.068811,17.246167 37.088388,32 37.088388,32 L 22.160133,31.978069 C 22.160133,31.978069 26.997745,27.140456 26.997745,27.140456 C 18.528582,18.264221 13.291696,25.230495 11.500037,31.436501 z"
     style="fill:#404040;"/>
  </a>
 </g>
</svg>

<style type='text/css'>
<![CDATA[
[data-mouse-over-selected='false'] { opacity: 0.7; }
[data-mouse-over-selected='true']  { opacity: 1.0; }
]]>
</style>
<script type="application/ecmascript"><![CDATA[
document.addEventListener('DOMContentLoaded', (event) => {
  highlightEdges();
  highlightAdjacentNodes();
});
]]></script>
</svg>
