<?xml version="1.0" encoding="UTF-8" standalone="no"?>
<!DOCTYPE svg PUBLIC "-//W3C//DTD SVG 1.1//EN"
 "http://www.w3.org/Graphics/SVG/1.1/DTD/svg11.dtd">
<!-- Generated by graphviz version 2.43.0 (0)
 -->
<!-- Title: io_button.h Pages: 1 -->
<svg width="801pt" height="137pt"
 viewBox="0.00 0.00 801.00 137.00" xmlns="http://www.w3.org/2000/svg" xmlns:xlink="http://www.w3.org/1999/xlink">
<g id="graph0" class="graph" transform="scale(1 1) rotate(0) translate(4 133)">
<title>io_button.h</title>
<!-- Node1 -->
<g id="Node000001" class="node">
<title>Node1</title>
<g id="a_Node000001"><a xlink:title=" ">
<polygon fill="#999999" stroke="#666666" points="429,-129 358,-129 358,-110 429,-110 429,-129"/>
<text text-anchor="middle" x="393.5" y="-117" font-family="Helvetica,sans-Serif" font-size="10.00">io_button.h</text>
</a>
</g>
</g>
<!-- Node2 -->
<g id="Node000002" class="node">
<title>Node2</title>
<g id="a_Node000002"><a xlink:href="foldback__strip_8h.html" target="_top" xlink:title=" ">
<polygon fill="white" stroke="#666666" points="95,-74 0,-74 0,-55 95,-55 95,-74"/>
<text text-anchor="middle" x="47.5" y="-62" font-family="Helvetica,sans-Serif" font-size="10.00">foldback_strip.h</text>
</a>
</g>
</g>
<!-- Node1&#45;&gt;Node2 -->
<g id="edge1_Node000001_Node000002" class="edge">
<title>Node1&#45;&gt;Node2</title>
<g id="a_edge1_Node000001_Node000002"><a xlink:title=" ">
<path fill="none" stroke="#63b8ff" d="M347.72,-111.49C282.07,-101.43 161.77,-83 95.11,-72.79"/>
<polygon fill="#63b8ff" stroke="#63b8ff" points="347.36,-114.97 357.78,-113.03 348.42,-108.05 347.36,-114.97"/>
</a>
</g>
</g>
<!-- Node3 -->
<g id="Node000003" class="node">
<title>Node3</title>
<g id="a_Node000003"><a xlink:href="io__plugin__window_8h.html" target="_top" xlink:title=" ">
<polygon fill="white" stroke="#666666" points="225.5,-74 113.5,-74 113.5,-55 225.5,-55 225.5,-74"/>
<text text-anchor="middle" x="169.5" y="-62" font-family="Helvetica,sans-Serif" font-size="10.00">io_plugin_window.h</text>
</a>
</g>
</g>
<!-- Node1&#45;&gt;Node3 -->
<g id="edge2_Node000001_Node000003" class="edge">
<title>Node1&#45;&gt;Node3</title>
<g id="a_edge2_Node000001_Node000003"><a xlink:title=" ">
<path fill="none" stroke="#63b8ff" d="M347.55,-107.63C305.59,-97.7 244.38,-83.22 205.77,-74.08"/>
<polygon fill="#63b8ff" stroke="#63b8ff" points="346.97,-111.09 357.51,-109.98 348.59,-104.28 346.97,-111.09"/>
</a>
</g>
</g>
<!-- Node4 -->
<g id="Node000004" class="node">
<title>Node4</title>
<g id="a_Node000004"><a xlink:href="mixer__strip_8h.html" target="_top" xlink:title=" ">
<polygon fill="white" stroke="#666666" points="323.5,-74 243.5,-74 243.5,-55 323.5,-55 323.5,-74"/>
<text text-anchor="middle" x="283.5" y="-62" font-family="Helvetica,sans-Serif" font-size="10.00">mixer_strip.h</text>
</a>
</g>
</g>
<!-- Node1&#45;&gt;Node4 -->
<g id="edge3_Node000001_Node000004" class="edge">
<title>Node1&#45;&gt;Node4</title>
<g id="a_edge3_Node000001_Node000004"><a xlink:title=" ">
<path fill="none" stroke="#63b8ff" d="M366.8,-105.63C346.53,-95.87 319.23,-82.71 301.49,-74.17"/>
<polygon fill="#63b8ff" stroke="#63b8ff" points="365.3,-108.8 375.83,-109.98 368.34,-102.49 365.3,-108.8"/>
</a>
</g>
</g>
<!-- Node6 -->
<g id="Node000006" class="node">
<title>Node6</title>
<g id="a_Node000006"><a xlink:href="monitor__section_8h.html" target="_top" xlink:title=" ">
<polygon fill="white" stroke="#666666" points="445.5,-74 341.5,-74 341.5,-55 445.5,-55 445.5,-74"/>
<text text-anchor="middle" x="393.5" y="-62" font-family="Helvetica,sans-Serif" font-size="10.00">monitor_section.h</text>
</a>
</g>
</g>
<!-- Node1&#45;&gt;Node6 -->
<g id="edge5_Node000001_Node000006" class="edge">
<title>Node1&#45;&gt;Node6</title>
<g id="a_edge5_Node000001_Node000006"><a xlink:title=" ">
<path fill="none" stroke="#63b8ff" d="M393.5,-99.66C393.5,-90.93 393.5,-80.99 393.5,-74.09"/>
<polygon fill="#63b8ff" stroke="#63b8ff" points="390,-99.75 393.5,-109.75 397,-99.75 390,-99.75"/>
</a>
</g>
</g>
<!-- Node8 -->
<g id="Node000008" class="node">
<title>Node8</title>
<g id="a_Node000008"><a xlink:href="surround__strip_8h.html" target="_top" xlink:title=" ">
<polygon fill="white" stroke="#666666" points="559,-74 464,-74 464,-55 559,-55 559,-74"/>
<text text-anchor="middle" x="511.5" y="-62" font-family="Helvetica,sans-Serif" font-size="10.00">surround_strip.h</text>
</a>
</g>
</g>
<!-- Node1&#45;&gt;Node8 -->
<g id="edge7_Node000001_Node000008" class="edge">
<title>Node1&#45;&gt;Node8</title>
<g id="a_edge7_Node000001_Node000008"><a xlink:title=" ">
<path fill="none" stroke="#63b8ff" d="M421.85,-105.77C443.62,-95.99 473.09,-82.75 492.2,-74.17"/>
<polygon fill="#63b8ff" stroke="#63b8ff" points="420.15,-102.69 412.46,-109.98 423.01,-109.08 420.15,-102.69"/>
</a>
</g>
</g>
<!-- Node9 -->
<g id="Node000009" class="node">
<title>Node9</title>
<g id="a_Node000009"><a xlink:href="track__record__axis_8h.html" target="_top" xlink:title=" ">
<polygon fill="white" stroke="#666666" points="689.5,-74 577.5,-74 577.5,-55 689.5,-55 689.5,-74"/>
<text text-anchor="middle" x="633.5" y="-62" font-family="Helvetica,sans-Serif" font-size="10.00">track_record_axis.h</text>
</a>
</g>
</g>
<!-- Node1&#45;&gt;Node9 -->
<g id="edge8_Node000001_Node000009" class="edge">
<title>Node1&#45;&gt;Node9</title>
<g id="a_edge8_Node000001_Node000009"><a xlink:title=" ">
<path fill="none" stroke="#63b8ff" d="M438.98,-108.46C484.04,-98.51 552.32,-83.43 594.85,-74.04"/>
<polygon fill="#63b8ff" stroke="#63b8ff" points="438.18,-105.05 429.17,-110.62 439.69,-111.88 438.18,-105.05"/>
</a>
</g>
</g>
<!-- Node10 -->
<g id="Node000010" class="node">
<title>Node10</title>
<g id="a_Node000010"><a xlink:href="trigger__strip_8h.html" target="_top" xlink:title=" ">
<polygon fill="white" stroke="#666666" points="793,-74 708,-74 708,-55 793,-55 793,-74"/>
<text text-anchor="middle" x="750.5" y="-62" font-family="Helvetica,sans-Serif" font-size="10.00">trigger_strip.h</text>
</a>
</g>
</g>
<!-- Node1&#45;&gt;Node10 -->
<g id="edge9_Node000001_Node000010" class="edge">
<title>Node1&#45;&gt;Node10</title>
<g id="a_edge9_Node000001_Node000010"><a xlink:title=" ">
<path fill="none" stroke="#63b8ff" d="M439.44,-112.05C499.17,-103.6 606.71,-88.2 698.5,-74 701.57,-73.52 704.75,-73.03 707.94,-72.52"/>
<polygon fill="#63b8ff" stroke="#63b8ff" points="438.63,-108.63 429.22,-113.49 439.61,-115.56 438.63,-108.63"/>
</a>
</g>
</g>
<!-- Node5 -->
<g id="Node000005" class="node">
<title>Node5</title>
<g id="a_Node000005"><a xlink:href="strip__selection_8h.html" target="_top" xlink:title=" ">
<polygon fill="white" stroke="#666666" points="332,-19 235,-19 235,0 332,0 332,-19"/>
<text text-anchor="middle" x="283.5" y="-7" font-family="Helvetica,sans-Serif" font-size="10.00">strip_selection.h</text>
</a>
</g>
</g>
<!-- Node4&#45;&gt;Node5 -->
<g id="edge4_Node000004_Node000005" class="edge">
<title>Node4&#45;&gt;Node5</title>
<g id="a_edge4_Node000004_Node000005"><a xlink:title=" ">
<path fill="none" stroke="#63b8ff" d="M283.5,-44.66C283.5,-35.93 283.5,-25.99 283.5,-19.09"/>
<polygon fill="#63b8ff" stroke="#63b8ff" points="280,-44.75 283.5,-54.75 287,-44.75 280,-44.75"/>
</a>
</g>
</g>
<!-- Node7 -->
<g id="Node000007" class="node">
<title>Node7</title>
<g id="a_Node000007"><a xlink:href="mixer__ui_8h.html" target="_top" xlink:title=" ">
<polygon fill="white" stroke="#666666" points="427.5,-19 359.5,-19 359.5,0 427.5,0 427.5,-19"/>
<text text-anchor="middle" x="393.5" y="-7" font-family="Helvetica,sans-Serif" font-size="10.00">mixer_ui.h</text>
</a>
</g>
</g>
<!-- Node6&#45;&gt;Node7 -->
<g id="edge6_Node000006_Node000007" class="edge">
<title>Node6&#45;&gt;Node7</title>
<g id="a_edge6_Node000006_Node000007"><a xlink:title=" ">
<path fill="none" stroke="#63b8ff" d="M393.5,-44.66C393.5,-35.93 393.5,-25.99 393.5,-19.09"/>
<polygon fill="#63b8ff" stroke="#63b8ff" points="390,-44.75 393.5,-54.75 397,-44.75 390,-44.75"/>
</a>
</g>
</g>
</g>
</svg>
