<?xml version="1.0" encoding="UTF-8" standalone="no"?>
<!DOCTYPE svg PUBLIC "-//W3C//DTD SVG 1.1//EN"
 "http://www.w3.org/Graphics/SVG/1.1/DTD/svg11.dtd">
<!-- Generated by graphviz version 2.43.0 (0)
 -->
<!-- Title: jack_connection.h Pages: 1 -->
<!--zoomable 214 -->

<svg id="main" version="1.1" xmlns="http://www.w3.org/2000/svg" xmlns:xlink="http://www.w3.org/1999/xlink" xml:space="preserve" onload="init(evt)">
<style type="text/css"><![CDATA[
.node, .edge {opacity: 0.7;}
.node.selected, .edge.selected {opacity: 1;}
.edge:hover path { stroke: red; }
.edge:hover polygon { stroke: red; fill: red; }
]]></style>

<defs>
  <circle id="rim" cx="0" cy="0" r="7"/>
  <circle id="rim2" cx="0" cy="0" r="3.5"/>
  <g id="zoomPlus">
    <use xlink:href="#rim" fill="#404040"><set attributeName="fill" to="#808080" begin="zoomplus.mouseover" end="zoomplus.mouseout"/></use>
    <path d="M-4,0h8M0,-4v8" fill="none" stroke="white" stroke-width="1.5" pointer-events="none"/>
  </g>
  <g id="zoomMin">
    <use xlink:href="#rim" fill="#404040"><set attributeName="fill" to="#808080" begin="zoomminus.mouseover" end="zoomminus.mouseout"/></use>
    <path d="M-4,0h8" fill="none" stroke="white" stroke-width="1.5" pointer-events="none"/>
  </g>
  <g id="arrowUp" transform="translate(30 24)">
    <use xlink:href="#rim"/>
    <path pointer-events="none" fill="none" stroke="white" stroke-width="1.5" d="M0,-3.0v7 M-2.5,-0.5L0,-3.0L2.5,-0.5"/>
  </g>
  <g id="arrowRight" transform="rotate(90) translate(36 -43)">
    <use xlink:href="#rim"/>
    <path pointer-events="none" fill="none" stroke="white" stroke-width="1.5" d="M0,-3.0v7 M-2.5,-0.5L0,-3.0L2.5,-0.5"/>
  </g>
  <g id="arrowDown" transform="rotate(180) translate(-30 -48)">
    <use xlink:href="#rim"/>
    <path pointer-events="none" fill="none" stroke="white" stroke-width="1.5" d="M0,-3.0v7 M-2.5,-0.5L0,-3.0L2.5,-0.5"/>
  </g>
  <g id="arrowLeft" transform="rotate(270) translate(-36 17)">
    <use xlink:href="#rim"/>
    <path pointer-events="none" fill="none" stroke="white" stroke-width="1.5" d="M0,-3.0v7 M-2.5,-0.5L0,-3.0L2.5,-0.5"/>
  </g>
  <g id="resetDef">
    <use xlink:href="#rim2" fill="#404040"><set attributeName="fill" to="#808080" begin="reset.mouseover" end="reset.mouseout"/></use>
  </g>
</defs>
<script type="application/ecmascript">
var viewWidth = 1793;
var viewHeight = 214;
var sectionId = 'dynsection-0';
</script>
<script type="application/ecmascript" xlink:href="svg.min.js"/>
<svg id="graph" class="graph">
<g id="viewport">
<title>jack_connection.h</title>
<!-- Node1 -->
<g id="Node000001" class="node">
<title>Node1</title>
<g id="a_Node000001"><a xlink:title=" ">
<polygon fill="#999999" stroke="#666666" points="631,-206 527,-206 527,-187 631,-187 631,-206"/>
<text text-anchor="middle" x="579" y="-194" font-family="Helvetica,sans-Serif" font-size="10.00">jack_connection.h</text>
</a>
</g>
</g>
<!-- Node2 -->
<g id="Node000002" class="node">
<title>Node2</title>
<g id="a_Node000002"><a xlink:title=" ">
<polygon fill="#e0e0e0" stroke="#999999" points="44,-24.5 0,-24.5 0,-5.5 44,-5.5 44,-24.5"/>
<text text-anchor="middle" x="22" y="-12.5" font-family="Helvetica,sans-Serif" font-size="10.00">string</text>
</a>
</g>
</g>
<!-- Node1&#45;&gt;Node2 -->
<g id="edge1_Node000001_Node000002" class="edge">
<title>Node1&#45;&gt;Node2</title>
<g id="a_edge1_Node000001_Node000002"><a xlink:title=" ">
<path fill="none" stroke="#63b8ff" d="M526.62,-190.97C411.19,-180.11 139.32,-149.43 66,-96 45.23,-80.86 33.11,-52.8 27.03,-34.26"/>
<polygon fill="#63b8ff" stroke="#63b8ff" points="30.36,-33.18 24.12,-24.62 23.66,-35.2 30.36,-33.18"/>
</a>
</g>
</g>
<!-- Node3 -->
<g id="Node000003" class="node">
<title>Node3</title>
<g id="a_Node000003"><a xlink:href="weak__libjack_8h.html" target="_top" xlink:title=" ">
<polygon fill="white" stroke="#666666" points="1414.5,-151 1325.5,-151 1325.5,-132 1414.5,-132 1414.5,-151"/>
<text text-anchor="middle" x="1370" y="-139" font-family="Helvetica,sans-Serif" font-size="10.00">weak_libjack.h</text>
</a>
</g>
</g>
<!-- Node1&#45;&gt;Node3 -->
<g id="edge2_Node000001_Node000003" class="edge">
<title>Node1&#45;&gt;Node3</title>
<g id="a_edge2_Node000001_Node000003"><a xlink:title=" ">
<path fill="none" stroke="#63b8ff" d="M631.21,-192C773.97,-182.44 1169.88,-155.91 1315.41,-146.16"/>
<polygon fill="#63b8ff" stroke="#63b8ff" points="1315.71,-149.65 1325.45,-145.48 1315.24,-142.66 1315.71,-149.65"/>
</a>
</g>
</g>
<!-- Node11 -->
<g id="Node000011" class="node">
<title>Node11</title>
<g id="a_Node000011"><a xlink:href="signals_8h.html" target="_top" xlink:title=" ">
<polygon fill="white" stroke="#666666" points="619.5,-151 538.5,-151 538.5,-132 619.5,-132 619.5,-151"/>
<text text-anchor="middle" x="579" y="-139" font-family="Helvetica,sans-Serif" font-size="10.00">pbd/signals.h</text>
</a>
</g>
</g>
<!-- Node1&#45;&gt;Node11 -->
<g id="edge10_Node000001_Node000011" class="edge">
<title>Node1&#45;&gt;Node11</title>
<g id="a_edge10_Node000001_Node000011"><a xlink:title=" ">
<path fill="none" stroke="#63b8ff" d="M579,-186.75C579,-179.8 579,-169.85 579,-161.13"/>
<polygon fill="#63b8ff" stroke="#63b8ff" points="582.5,-161.09 579,-151.09 575.5,-161.09 582.5,-161.09"/>
</a>
</g>
</g>
<!-- Node4 -->
<g id="Node000004" class="node">
<title>Node4</title>
<g id="a_Node000004"><a xlink:title=" ">
<polygon fill="#e0e0e0" stroke="#999999" points="1138.5,-90.5 1069.5,-90.5 1069.5,-71.5 1138.5,-71.5 1138.5,-90.5"/>
<text text-anchor="middle" x="1104" y="-78.5" font-family="Helvetica,sans-Serif" font-size="10.00">jack/jack.h</text>
</a>
</g>
</g>
<!-- Node3&#45;&gt;Node4 -->
<g id="edge3_Node000003_Node000004" class="edge">
<title>Node3&#45;&gt;Node4</title>
<g id="a_edge3_Node000003_Node000004"><a xlink:title=" ">
<path fill="none" stroke="#63b8ff" d="M1325.22,-133.16C1279.94,-125.37 1208.11,-111.99 1147,-96 1144.22,-95.27 1141.36,-94.47 1138.5,-93.62"/>
<polygon fill="#63b8ff" stroke="#63b8ff" points="1139.45,-90.26 1128.86,-90.65 1137.38,-96.94 1139.45,-90.26"/>
</a>
</g>
</g>
<!-- Node5 -->
<g id="Node000005" class="node">
<title>Node5</title>
<g id="a_Node000005"><a xlink:title=" ">
<polygon fill="#e0e0e0" stroke="#999999" points="1249.5,-90.5 1156.5,-90.5 1156.5,-71.5 1249.5,-71.5 1249.5,-90.5"/>
<text text-anchor="middle" x="1203" y="-78.5" font-family="Helvetica,sans-Serif" font-size="10.00">jack/transport.h</text>
</a>
</g>
</g>
<!-- Node3&#45;&gt;Node5 -->
<g id="edge4_Node000003_Node000005" class="edge">
<title>Node3&#45;&gt;Node5</title>
<g id="a_edge4_Node000003_Node000005"><a xlink:title=" ">
<path fill="none" stroke="#63b8ff" d="M1345.72,-131.99C1317.02,-121.94 1269.11,-105.16 1236.8,-93.84"/>
<polygon fill="#63b8ff" stroke="#63b8ff" points="1237.91,-90.52 1227.31,-90.52 1235.59,-97.13 1237.91,-90.52"/>
</a>
</g>
</g>
<!-- Node6 -->
<g id="Node000006" class="node">
<title>Node6</title>
<g id="a_Node000006"><a xlink:title=" ">
<polygon fill="#e0e0e0" stroke="#999999" points="1362.5,-90.5 1267.5,-90.5 1267.5,-71.5 1362.5,-71.5 1362.5,-90.5"/>
<text text-anchor="middle" x="1315" y="-78.5" font-family="Helvetica,sans-Serif" font-size="10.00">jack/ringbuffer.h</text>
</a>
</g>
</g>
<!-- Node3&#45;&gt;Node6 -->
<g id="edge5_Node000003_Node000006" class="edge">
<title>Node3&#45;&gt;Node6</title>
<g id="a_edge5_Node000003_Node000006"><a xlink:title=" ">
<path fill="none" stroke="#63b8ff" d="M1361.88,-131.87C1353.6,-123.05 1340.53,-109.16 1330.3,-98.27"/>
<polygon fill="#63b8ff" stroke="#63b8ff" points="1332.55,-95.56 1323.15,-90.67 1327.45,-100.35 1332.55,-95.56"/>
</a>
</g>
</g>
<!-- Node7 -->
<g id="Node000007" class="node">
<title>Node7</title>
<g id="a_Node000007"><a xlink:title=" ">
<polygon fill="#e0e0e0" stroke="#999999" points="1471,-90.5 1381,-90.5 1381,-71.5 1471,-71.5 1471,-90.5"/>
<text text-anchor="middle" x="1426" y="-78.5" font-family="Helvetica,sans-Serif" font-size="10.00">jack/midiport.h</text>
</a>
</g>
</g>
<!-- Node3&#45;&gt;Node7 -->
<g id="edge6_Node000003_Node000007" class="edge">
<title>Node3&#45;&gt;Node7</title>
<g id="a_edge6_Node000003_Node000007"><a xlink:title=" ">
<path fill="none" stroke="#63b8ff" d="M1378.26,-131.87C1386.78,-122.97 1400.26,-108.89 1410.73,-97.95"/>
<polygon fill="#63b8ff" stroke="#63b8ff" points="1413.32,-100.31 1417.7,-90.67 1408.26,-95.47 1413.32,-100.31"/>
</a>
</g>
</g>
<!-- Node8 -->
<g id="Node000008" class="node">
<title>Node8</title>
<g id="a_Node000008"><a xlink:title=" ">
<polygon fill="#e0e0e0" stroke="#999999" points="1575,-90.5 1489,-90.5 1489,-71.5 1575,-71.5 1575,-90.5"/>
<text text-anchor="middle" x="1532" y="-78.5" font-family="Helvetica,sans-Serif" font-size="10.00">jack/session.h</text>
</a>
</g>
</g>
<!-- Node3&#45;&gt;Node8 -->
<g id="edge7_Node000003_Node000008" class="edge">
<title>Node3&#45;&gt;Node8</title>
<g id="a_edge7_Node000003_Node000008"><a xlink:title=" ">
<path fill="none" stroke="#63b8ff" d="M1393.56,-131.99C1421.27,-121.99 1467.47,-105.3 1498.81,-93.99"/>
<polygon fill="#63b8ff" stroke="#63b8ff" points="1500.2,-97.21 1508.42,-90.52 1497.82,-90.62 1500.2,-97.21"/>
</a>
</g>
</g>
<!-- Node9 -->
<g id="Node000009" class="node">
<title>Node9</title>
<g id="a_Node000009"><a xlink:title=" ">
<polygon fill="#e0e0e0" stroke="#999999" points="1673,-90.5 1593,-90.5 1593,-71.5 1673,-71.5 1673,-90.5"/>
<text text-anchor="middle" x="1633" y="-78.5" font-family="Helvetica,sans-Serif" font-size="10.00">jack/thread.h</text>
</a>
</g>
</g>
<!-- Node3&#45;&gt;Node9 -->
<g id="edge8_Node000003_Node000009" class="edge">
<title>Node3&#45;&gt;Node9</title>
<g id="a_edge8_Node000003_Node000009"><a xlink:title=" ">
<path fill="none" stroke="#63b8ff" d="M1414.89,-132.16C1458.34,-123.85 1525.97,-110.3 1584,-96 1587.41,-95.16 1590.94,-94.24 1594.47,-93.29"/>
<polygon fill="#63b8ff" stroke="#63b8ff" points="1595.63,-96.61 1604.33,-90.57 1593.76,-89.86 1595.63,-96.61"/>
</a>
</g>
</g>
<!-- Node10 -->
<g id="Node000010" class="node">
<title>Node10</title>
<g id="a_Node000010"><a xlink:title=" ">
<polygon fill="#e0e0e0" stroke="#999999" points="1784.5,-90.5 1691.5,-90.5 1691.5,-71.5 1784.5,-71.5 1784.5,-90.5"/>
<text text-anchor="middle" x="1738" y="-78.5" font-family="Helvetica,sans-Serif" font-size="10.00">jack/statistics.h</text>
</a>
</g>
</g>
<!-- Node3&#45;&gt;Node10 -->
<g id="edge9_Node000003_Node000010" class="edge">
<title>Node3&#45;&gt;Node10</title>
<g id="a_edge9_Node000003_Node000010"><a xlink:title=" ">
<path fill="none" stroke="#63b8ff" d="M1414.68,-135.6C1475.47,-128.6 1587.5,-114.5 1682,-96 1686.67,-95.09 1691.54,-94.03 1696.36,-92.91"/>
<polygon fill="#63b8ff" stroke="#63b8ff" points="1697.24,-96.3 1706.14,-90.57 1695.6,-89.5 1697.24,-96.3"/>
</a>
</g>
</g>
<!-- Node12 -->
<g id="Node000012" class="node">
<title>Node12</title>
<g id="a_Node000012"><a xlink:title=" ">
<polygon fill="#e0e0e0" stroke="#999999" points="658.5,-90.5 607.5,-90.5 607.5,-71.5 658.5,-71.5 658.5,-90.5"/>
<text text-anchor="middle" x="633" y="-78.5" font-family="Helvetica,sans-Serif" font-size="10.00">csignal</text>
</a>
</g>
</g>
<!-- Node11&#45;&gt;Node12 -->
<g id="edge11_Node000011_Node000012" class="edge">
<title>Node11&#45;&gt;Node12</title>
<g id="a_edge11_Node000011_Node000012"><a xlink:title=" ">
<path fill="none" stroke="#63b8ff" d="M586.97,-131.87C595.1,-123.05 607.93,-109.16 617.98,-98.27"/>
<polygon fill="#63b8ff" stroke="#63b8ff" points="620.79,-100.39 625,-90.67 615.64,-95.64 620.79,-100.39"/>
</a>
</g>
</g>
<!-- Node13 -->
<g id="Node000013" class="node">
<title>Node13</title>
<g id="a_Node000013"><a xlink:title=" ">
<polygon fill="#e0e0e0" stroke="#999999" points="1206,-24.5 1174,-24.5 1174,-5.5 1206,-5.5 1206,-24.5"/>
<text text-anchor="middle" x="1190" y="-12.5" font-family="Helvetica,sans-Serif" font-size="10.00">list</text>
</a>
</g>
</g>
<!-- Node11&#45;&gt;Node13 -->
<g id="edge12_Node000011_Node000013" class="edge">
<title>Node11&#45;&gt;Node13</title>
<g id="a_edge12_Node000011_Node000013"><a xlink:title=" ">
<path fill="none" stroke="#63b8ff" d="M619.8,-139.31C715.07,-136.08 949.53,-125.3 1022,-96 1041.95,-87.93 1041.12,-76.33 1060,-66 1102.91,-42.52 1119.21,-49.66 1164,-30 1164.69,-29.7 1165.38,-29.39 1166.08,-29.06"/>
<polygon fill="#63b8ff" stroke="#63b8ff" points="1167.7,-32.16 1175.08,-24.56 1164.57,-25.9 1167.7,-32.16"/>
</a>
</g>
</g>
<!-- Node14 -->
<g id="Node000014" class="node">
<title>Node14</title>
<g id="a_Node000014"><a xlink:title=" ">
<polygon fill="#e0e0e0" stroke="#999999" points="225,-24.5 187,-24.5 187,-5.5 225,-5.5 225,-24.5"/>
<text text-anchor="middle" x="206" y="-12.5" font-family="Helvetica,sans-Serif" font-size="10.00">map</text>
</a>
</g>
</g>
<!-- Node11&#45;&gt;Node14 -->
<g id="edge13_Node000011_Node000014" class="edge">
<title>Node11&#45;&gt;Node14</title>
<g id="a_edge13_Node000011_Node000014"><a xlink:title=" ">
<path fill="none" stroke="#63b8ff" d="M538.31,-139.9C425.72,-137.83 116.29,-129.15 86,-96 77.01,-86.16 78.6,-77.09 86,-66 91.36,-57.96 143.27,-38.3 177.03,-26.16"/>
<polygon fill="#63b8ff" stroke="#63b8ff" points="178.62,-29.31 186.86,-22.66 176.26,-22.72 178.62,-29.31"/>
</a>
</g>
</g>
<!-- Node15 -->
<g id="Node000015" class="node">
<title>Node15</title>
<g id="a_Node000015"><a xlink:title=" ">
<polygon fill="#e0e0e0" stroke="#999999" points="150,-24.5 100,-24.5 100,-5.5 150,-5.5 150,-24.5"/>
<text text-anchor="middle" x="125" y="-12.5" font-family="Helvetica,sans-Serif" font-size="10.00">atomic</text>
</a>
</g>
</g>
<!-- Node11&#45;&gt;Node15 -->
<g id="edge14_Node000011_Node000015" class="edge">
<title>Node11&#45;&gt;Node15</title>
<g id="a_edge14_Node000011_Node000015"><a xlink:title=" ">
<path fill="none" stroke="#63b8ff" d="M538.31,-139.98C424.13,-138.11 107,-129.87 76,-96 57.63,-75.94 84.08,-48.01 104.69,-31.01"/>
<polygon fill="#63b8ff" stroke="#63b8ff" points="107.06,-33.6 112.74,-24.66 102.72,-28.1 107.06,-33.6"/>
</a>
</g>
</g>
<!-- Node16 -->
<g id="Node000016" class="node">
<title>Node16</title>
<g id="a_Node000016"><a xlink:title=" ">
<polygon fill="#e0e0e0" stroke="#999999" points="572.5,-24.5 469.5,-24.5 469.5,-5.5 572.5,-5.5 572.5,-24.5"/>
<text text-anchor="middle" x="521" y="-12.5" font-family="Helvetica,sans-Serif" font-size="10.00">glibmm/threads.h</text>
</a>
</g>
</g>
<!-- Node11&#45;&gt;Node16 -->
<g id="edge15_Node000011_Node000016" class="edge">
<title>Node11&#45;&gt;Node16</title>
<g id="a_edge15_Node000011_Node000016"><a xlink:title=" ">
<path fill="none" stroke="#63b8ff" d="M577.79,-131.85C575.56,-117.56 569.97,-88.36 559,-66 552.97,-53.71 543.71,-41.45 535.85,-32.14"/>
<polygon fill="#63b8ff" stroke="#63b8ff" points="538.37,-29.71 529.14,-24.51 533.11,-34.33 538.37,-29.71"/>
</a>
</g>
</g>
<!-- Node17 -->
<g id="Node000017" class="node">
<title>Node17</title>
<g id="a_Node000017"><a xlink:title=" ">
<polygon fill="#e0e0e0" stroke="#999999" points="221,-90.5 95,-90.5 95,-71.5 221,-71.5 221,-90.5"/>
<text text-anchor="middle" x="158" y="-78.5" font-family="Helvetica,sans-Serif" font-size="10.00">boost/bind/protect.hpp</text>
</a>
</g>
</g>
<!-- Node11&#45;&gt;Node17 -->
<g id="edge16_Node000011_Node000017" class="edge">
<title>Node11&#45;&gt;Node17</title>
<g id="a_edge16_Node000011_Node000017"><a xlink:title=" ">
<path fill="none" stroke="#63b8ff" d="M538.31,-136.18C473.07,-129.07 341.11,-113.87 230,-96 223.33,-94.93 216.33,-93.7 209.42,-92.42"/>
<polygon fill="#63b8ff" stroke="#63b8ff" points="209.89,-88.95 199.42,-90.53 208.59,-95.83 209.89,-88.95"/>
</a>
</g>
</g>
<!-- Node18 -->
<g id="Node000018" class="node">
<title>Node18</title>
<g id="a_Node000018"><a xlink:title=" ">
<polygon fill="#e0e0e0" stroke="#999999" points="357,-96 239,-96 239,-66 357,-66 357,-96"/>
<text text-anchor="start" x="247" y="-84" font-family="Helvetica,sans-Serif" font-size="10.00">boost/enable_shared</text>
<text text-anchor="middle" x="298" y="-73" font-family="Helvetica,sans-Serif" font-size="10.00">_from_this.hpp</text>
</a>
</g>
</g>
<!-- Node11&#45;&gt;Node18 -->
<g id="edge17_Node000011_Node000018" class="edge">
<title>Node11&#45;&gt;Node18</title>
<g id="a_edge17_Node000011_Node000018"><a xlink:title=" ">
<path fill="none" stroke="#63b8ff" d="M538.44,-132.06C493.66,-122.73 420.78,-107.56 366.98,-96.36"/>
<polygon fill="#63b8ff" stroke="#63b8ff" points="367.68,-92.93 357.17,-94.32 366.25,-99.78 367.68,-92.93"/>
</a>
</g>
</g>
<!-- Node19 -->
<g id="Node000019" class="node">
<title>Node19</title>
<g id="a_Node000019"><a xlink:title=" ">
<polygon fill="#e0e0e0" stroke="#999999" points="431,-90.5 375,-90.5 375,-71.5 431,-71.5 431,-90.5"/>
<text text-anchor="middle" x="403" y="-78.5" font-family="Helvetica,sans-Serif" font-size="10.00">optional</text>
</a>
</g>
</g>
<!-- Node11&#45;&gt;Node19 -->
<g id="edge18_Node000011_Node000019" class="edge">
<title>Node11&#45;&gt;Node19</title>
<g id="a_edge18_Node000011_Node000019"><a xlink:title=" ">
<path fill="none" stroke="#63b8ff" d="M550.9,-131.97C522.73,-123.31 478.16,-109.32 440,-96 438.35,-95.42 436.66,-94.82 434.96,-94.21"/>
<polygon fill="#63b8ff" stroke="#63b8ff" points="435.83,-90.8 425.24,-90.63 433.41,-97.37 435.83,-90.8"/>
</a>
</g>
</g>
<!-- Node20 -->
<g id="Node000020" class="node">
<title>Node20</title>
<g id="a_Node000020"><a xlink:href="libpbd__visibility_8h.html" target="_top" xlink:title=" ">
<polygon fill="white" stroke="#666666" points="713,-24.5 591,-24.5 591,-5.5 713,-5.5 713,-24.5"/>
<text text-anchor="middle" x="652" y="-12.5" font-family="Helvetica,sans-Serif" font-size="10.00">pbd/libpbd_visibility.h</text>
</a>
</g>
</g>
<!-- Node11&#45;&gt;Node20 -->
<g id="edge19_Node000011_Node000020" class="edge">
<title>Node11&#45;&gt;Node20</title>
<g id="a_edge19_Node000011_Node000020"><a xlink:title=" ">
<path fill="none" stroke="#63b8ff" d="M615.29,-131.94C634.21,-125.44 655.7,-114.38 667,-96 678.76,-76.88 670.15,-50.69 661.92,-33.56"/>
<polygon fill="#63b8ff" stroke="#63b8ff" points="665,-31.9 657.28,-24.65 658.8,-35.14 665,-31.9"/>
</a>
</g>
</g>
<!-- Node21 -->
<g id="Node000021" class="node">
<title>Node21</title>
<g id="a_Node000021"><a xlink:href="event__loop_8h.html" target="_top" xlink:title=" ">
<polygon fill="white" stroke="#666666" points="550.5,-90.5 449.5,-90.5 449.5,-71.5 550.5,-71.5 550.5,-90.5"/>
<text text-anchor="middle" x="500" y="-78.5" font-family="Helvetica,sans-Serif" font-size="10.00">pbd/event_loop.h</text>
</a>
</g>
</g>
<!-- Node11&#45;&gt;Node21 -->
<g id="edge20_Node000011_Node000021" class="edge">
<title>Node11&#45;&gt;Node21</title>
<g id="a_edge20_Node000011_Node000021"><a xlink:title=" ">
<path fill="none" stroke="#63b8ff" d="M567.34,-131.87C554.86,-122.62 534.82,-107.78 519.84,-96.69"/>
<polygon fill="#63b8ff" stroke="#63b8ff" points="521.82,-93.81 511.7,-90.67 517.66,-99.43 521.82,-93.81"/>
</a>
</g>
</g>
<!-- Node25 -->
<g id="Node000025" class="node">
<title>Node25</title>
<g id="a_Node000025"><a xlink:href="stack__allocator_8h.html" target="_top" xlink:title=" ">
<polygon fill="white" stroke="#666666" points="835,-90.5 715,-90.5 715,-71.5 835,-71.5 835,-90.5"/>
<text text-anchor="middle" x="775" y="-78.5" font-family="Helvetica,sans-Serif" font-size="10.00">pbd/stack_allocator.h</text>
</a>
</g>
</g>
<!-- Node11&#45;&gt;Node25 -->
<g id="edge29_Node000011_Node000025" class="edge">
<title>Node11&#45;&gt;Node25</title>
<g id="a_edge29_Node000011_Node000025"><a xlink:title=" ">
<path fill="none" stroke="#63b8ff" d="M607.5,-131.99C641.61,-121.81 698.87,-104.72 736.79,-93.4"/>
<polygon fill="#63b8ff" stroke="#63b8ff" points="737.88,-96.73 746.47,-90.52 735.88,-90.02 737.88,-96.73"/>
</a>
</g>
</g>
<!-- Node28 -->
<g id="Node000028" class="node">
<title>Node28</title>
<g id="a_Node000028"><a xlink:href="stacktrace_8h.html" target="_top" xlink:title=" ">
<polygon fill="white" stroke="#666666" points="1013,-90.5 915,-90.5 915,-71.5 1013,-71.5 1013,-90.5"/>
<text text-anchor="middle" x="964" y="-78.5" font-family="Helvetica,sans-Serif" font-size="10.00">pbd/stacktrace.h</text>
</a>
</g>
</g>
<!-- Node11&#45;&gt;Node28 -->
<g id="edge33_Node000011_Node000028" class="edge">
<title>Node11&#45;&gt;Node28</title>
<g id="a_edge33_Node000011_Node000028"><a xlink:title=" ">
<path fill="none" stroke="#63b8ff" d="M619.62,-135.4C679.41,-127.73 794.57,-112.39 892,-96 898.58,-94.89 905.48,-93.65 912.3,-92.38"/>
<polygon fill="#63b8ff" stroke="#63b8ff" points="913.01,-95.81 922.19,-90.5 911.71,-88.93 913.01,-95.81"/>
</a>
</g>
</g>
<!-- Node30 -->
<g id="Node000030" class="node">
<title>Node30</title>
<g id="a_Node000030"><a xlink:title=" ">
<polygon fill="#e0e0e0" stroke="#999999" points="1009,-24.5 949,-24.5 949,-5.5 1009,-5.5 1009,-24.5"/>
<text text-anchor="middle" x="979" y="-12.5" font-family="Helvetica,sans-Serif" font-size="10.00">iostream</text>
</a>
</g>
</g>
<!-- Node11&#45;&gt;Node30 -->
<g id="edge40_Node000011_Node000030" class="edge">
<title>Node11&#45;&gt;Node30</title>
<g id="a_edge40_Node000011_Node000030"><a xlink:title=" ">
<path fill="none" stroke="#63b8ff" d="M619.68,-138.31C672.74,-134.42 767.77,-123.88 844,-96 888.21,-79.83 934.24,-49.04 959.49,-30.74"/>
<polygon fill="#63b8ff" stroke="#63b8ff" points="961.84,-33.36 967.81,-24.61 957.69,-27.72 961.84,-33.36"/>
</a>
</g>
</g>
<!-- Node21&#45;&gt;Node2 -->
<g id="edge22_Node000021_Node000002" class="edge">
<title>Node21&#45;&gt;Node2</title>
<g id="a_edge22_Node000021_Node000002"><a xlink:title=" ">
<path fill="none" stroke="#63b8ff" d="M466.83,-71.47C458.14,-69.45 448.76,-67.47 440,-66 286.21,-40.23 245.15,-53.53 91,-30 78.97,-28.16 65.87,-25.64 54.34,-23.24"/>
<polygon fill="#63b8ff" stroke="#63b8ff" points="54.79,-19.76 44.28,-21.09 53.33,-26.6 54.79,-19.76"/>
</a>
</g>
</g>
<!-- Node21&#45;&gt;Node14 -->
<g id="edge24_Node000021_Node000014" class="edge">
<title>Node21&#45;&gt;Node14</title>
<g id="a_edge24_Node000021_Node000014"><a xlink:title=" ">
<path fill="none" stroke="#63b8ff" d="M464.85,-71.5C456.7,-69.61 448.06,-67.68 440,-66 352.86,-47.88 328.75,-53.85 243,-30 240.36,-29.27 237.65,-28.42 234.94,-27.52"/>
<polygon fill="#63b8ff" stroke="#63b8ff" points="235.96,-24.16 225.37,-24.08 233.6,-30.75 235.96,-24.16"/>
</a>
</g>
</g>
<!-- Node21&#45;&gt;Node15 -->
<g id="edge21_Node000021_Node000015" class="edge">
<title>Node21&#45;&gt;Node15</title>
<g id="a_edge21_Node000021_Node000015"><a xlink:title=" ">
<path fill="none" stroke="#63b8ff" d="M465.85,-71.45C457.43,-69.51 448.41,-67.56 440,-66 324.42,-44.62 293.26,-53.05 178,-30 172.14,-28.83 165.97,-27.39 159.99,-25.88"/>
<polygon fill="#63b8ff" stroke="#63b8ff" points="160.75,-22.47 150.19,-23.33 158.99,-29.24 160.75,-22.47"/>
</a>
</g>
</g>
<!-- Node21&#45;&gt;Node16 -->
<g id="edge27_Node000021_Node000016" class="edge">
<title>Node21&#45;&gt;Node16</title>
<g id="a_edge27_Node000021_Node000016"><a xlink:title=" ">
<path fill="none" stroke="#63b8ff" d="M502.83,-71.37C505.91,-61.97 510.94,-46.67 514.92,-34.53"/>
<polygon fill="#63b8ff" stroke="#63b8ff" points="518.29,-35.5 518.08,-24.91 511.63,-33.32 518.29,-35.5"/>
</a>
</g>
</g>
<!-- Node21&#45;&gt;Node20 -->
<g id="edge28_Node000021_Node000020" class="edge">
<title>Node21&#45;&gt;Node20</title>
<g id="a_edge28_Node000021_Node000020"><a xlink:title=" ">
<path fill="none" stroke="#63b8ff" d="M520.5,-71.37C546.56,-60.39 591.78,-41.36 621.79,-28.72"/>
<polygon fill="#63b8ff" stroke="#63b8ff" points="623.48,-31.81 631.34,-24.7 620.77,-25.35 623.48,-31.81"/>
</a>
</g>
</g>
<!-- Node22 -->
<g id="Node000022" class="node">
<title>Node22</title>
<g id="a_Node000022"><a xlink:title=" ">
<polygon fill="#e0e0e0" stroke="#999999" points="451.5,-24.5 404.5,-24.5 404.5,-5.5 451.5,-5.5 451.5,-24.5"/>
<text text-anchor="middle" x="428" y="-12.5" font-family="Helvetica,sans-Serif" font-size="10.00">vector</text>
</a>
</g>
</g>
<!-- Node21&#45;&gt;Node22 -->
<g id="edge23_Node000021_Node000022" class="edge">
<title>Node21&#45;&gt;Node22</title>
<g id="a_edge23_Node000021_Node000022"><a xlink:title=" ">
<path fill="none" stroke="#63b8ff" d="M490.29,-71.37C478.87,-61.21 459.68,-44.16 445.61,-31.65"/>
<polygon fill="#63b8ff" stroke="#63b8ff" points="447.82,-28.93 438.02,-24.91 443.17,-34.16 447.82,-28.93"/>
</a>
</g>
</g>
<!-- Node23 -->
<g id="Node000023" class="node">
<title>Node23</title>
<g id="a_Node000023"><a xlink:title=" ">
<polygon fill="#e0e0e0" stroke="#999999" points="305.5,-24.5 252.5,-24.5 252.5,-5.5 305.5,-5.5 305.5,-24.5"/>
<text text-anchor="middle" x="279" y="-12.5" font-family="Helvetica,sans-Serif" font-size="10.00">stdint.h</text>
</a>
</g>
</g>
<!-- Node21&#45;&gt;Node23 -->
<g id="edge25_Node000021_Node000023" class="edge">
<title>Node21&#45;&gt;Node23</title>
<g id="a_edge25_Node000021_Node000023"><a xlink:title=" ">
<path fill="none" stroke="#63b8ff" d="M463.27,-71.48C425.48,-62.4 365.08,-47.01 314,-30 312.34,-29.45 310.64,-28.85 308.93,-28.24"/>
<polygon fill="#63b8ff" stroke="#63b8ff" points="309.8,-24.83 299.21,-24.55 307.32,-31.37 309.8,-24.83"/>
</a>
</g>
</g>
<!-- Node24 -->
<g id="Node000024" class="node">
<title>Node24</title>
<g id="a_Node000024"><a xlink:title=" ">
<polygon fill="#e0e0e0" stroke="#999999" points="386.5,-24.5 323.5,-24.5 323.5,-5.5 386.5,-5.5 386.5,-24.5"/>
<text text-anchor="middle" x="355" y="-12.5" font-family="Helvetica,sans-Serif" font-size="10.00">pthread.h</text>
</a>
</g>
</g>
<!-- Node21&#45;&gt;Node24 -->
<g id="edge26_Node000021_Node000024" class="edge">
<title>Node21&#45;&gt;Node24</title>
<g id="a_edge26_Node000021_Node000024"><a xlink:title=" ">
<path fill="none" stroke="#63b8ff" d="M480.44,-71.37C455.69,-60.44 412.83,-41.52 384.19,-28.88"/>
<polygon fill="#63b8ff" stroke="#63b8ff" points="385.27,-25.54 374.71,-24.7 382.44,-31.94 385.27,-25.54"/>
</a>
</g>
</g>
<!-- Node25&#45;&gt;Node20 -->
<g id="edge32_Node000025_Node000020" class="edge">
<title>Node25&#45;&gt;Node20</title>
<g id="a_edge32_Node000025_Node000020"><a xlink:title=" ">
<path fill="none" stroke="#63b8ff" d="M758.41,-71.37C737.69,-60.59 702,-42.02 677.72,-29.38"/>
<polygon fill="#63b8ff" stroke="#63b8ff" points="679.2,-26.21 668.72,-24.7 675.97,-32.42 679.2,-26.21"/>
</a>
</g>
</g>
<!-- Node26 -->
<g id="Node000026" class="node">
<title>Node26</title>
<g id="a_Node000026"><a xlink:title=" ">
<polygon fill="#e0e0e0" stroke="#999999" points="931,-30 793,-30 793,0 931,0 931,-30"/>
<text text-anchor="start" x="801" y="-18" font-family="Helvetica,sans-Serif" font-size="10.00">boost/type_traits/aligned</text>
<text text-anchor="middle" x="862" y="-7" font-family="Helvetica,sans-Serif" font-size="10.00">_storage.hpp</text>
</a>
</g>
</g>
<!-- Node25&#45;&gt;Node26 -->
<g id="edge30_Node000025_Node000026" class="edge">
<title>Node25&#45;&gt;Node26</title>
<g id="a_edge30_Node000025_Node000026"><a xlink:title=" ">
<path fill="none" stroke="#63b8ff" d="M786.73,-71.37C798.98,-62.36 818.6,-47.92 834.75,-36.05"/>
<polygon fill="#63b8ff" stroke="#63b8ff" points="836.83,-38.86 842.81,-30.12 832.68,-33.22 836.83,-38.86"/>
</a>
</g>
</g>
<!-- Node27 -->
<g id="Node000027" class="node">
<title>Node27</title>
<g id="a_Node000027"><a xlink:title=" ">
<polygon fill="#e0e0e0" stroke="#999999" points="775,-24.5 731,-24.5 731,-5.5 775,-5.5 775,-24.5"/>
<text text-anchor="middle" x="753" y="-12.5" font-family="Helvetica,sans-Serif" font-size="10.00">limits</text>
</a>
</g>
</g>
<!-- Node25&#45;&gt;Node27 -->
<g id="edge31_Node000025_Node000027" class="edge">
<title>Node25&#45;&gt;Node27</title>
<g id="a_edge31_Node000025_Node000027"><a xlink:title=" ">
<path fill="none" stroke="#63b8ff" d="M772.03,-71.37C768.8,-61.97 763.54,-46.67 759.37,-34.53"/>
<polygon fill="#63b8ff" stroke="#63b8ff" points="762.62,-33.22 756.06,-24.91 756,-35.5 762.62,-33.22"/>
</a>
</g>
</g>
<!-- Node28&#45;&gt;Node13 -->
<g id="edge38_Node000028_Node000013" class="edge">
<title>Node28&#45;&gt;Node13</title>
<g id="a_edge38_Node000028_Node000013"><a xlink:title=" ">
<path fill="none" stroke="#63b8ff" d="M1000.23,-71.46C1053.61,-58.8 1148.77,-35.9 1164,-30 1164.86,-29.67 1165.72,-29.31 1166.59,-28.94"/>
<polygon fill="#63b8ff" stroke="#63b8ff" points="1168.26,-32.02 1175.73,-24.51 1165.2,-25.72 1168.26,-32.02"/>
</a>
</g>
</g>
<!-- Node28&#45;&gt;Node16 -->
<g id="edge37_Node000028_Node000016" class="edge">
<title>Node28&#45;&gt;Node16</title>
<g id="a_edge37_Node000028_Node000016"><a xlink:title=" ">
<path fill="none" stroke="#63b8ff" d="M914.78,-74.15C826.57,-63.57 644.87,-41.3 582,-30 576.65,-29.04 571.07,-27.92 565.54,-26.74"/>
<polygon fill="#63b8ff" stroke="#63b8ff" points="566.24,-23.31 555.72,-24.57 564.73,-30.14 566.24,-23.31"/>
</a>
</g>
</g>
<!-- Node28&#45;&gt;Node20 -->
<g id="edge39_Node000028_Node000020" class="edge">
<title>Node28&#45;&gt;Node20</title>
<g id="a_edge39_Node000028_Node000020"><a xlink:title=" ">
<path fill="none" stroke="#63b8ff" d="M922.25,-71.44C865.62,-59.82 764.54,-39.09 703.34,-26.53"/>
<polygon fill="#63b8ff" stroke="#63b8ff" points="704.01,-23.1 693.51,-24.51 702.6,-29.95 704.01,-23.1"/>
</a>
</g>
</g>
<!-- Node29 -->
<g id="Node000029" class="node">
<title>Node29</title>
<g id="a_Node000029"><a xlink:title=" ">
<polygon fill="#e0e0e0" stroke="#999999" points="1080.5,-24.5 1027.5,-24.5 1027.5,-5.5 1080.5,-5.5 1080.5,-24.5"/>
<text text-anchor="middle" x="1054" y="-12.5" font-family="Helvetica,sans-Serif" font-size="10.00">cstddef</text>
</a>
</g>
</g>
<!-- Node28&#45;&gt;Node29 -->
<g id="edge34_Node000028_Node000029" class="edge">
<title>Node28&#45;&gt;Node29</title>
<g id="a_edge34_Node000028_Node000029"><a xlink:title=" ">
<path fill="none" stroke="#63b8ff" d="M976.14,-71.37C990.77,-60.97 1015.58,-43.32 1033.26,-30.75"/>
<polygon fill="#63b8ff" stroke="#63b8ff" points="1035.65,-33.35 1041.77,-24.7 1031.59,-27.64 1035.65,-33.35"/>
</a>
</g>
</g>
<!-- Node28&#45;&gt;Node30 -->
<g id="edge35_Node000028_Node000030" class="edge">
<title>Node28&#45;&gt;Node30</title>
<g id="a_edge35_Node000028_Node000030"><a xlink:title=" ">
<path fill="none" stroke="#63b8ff" d="M966.02,-71.37C968.2,-62.07 971.74,-46.98 974.57,-34.9"/>
<polygon fill="#63b8ff" stroke="#63b8ff" points="978.04,-35.44 976.91,-24.91 971.22,-33.84 978.04,-35.44"/>
</a>
</g>
</g>
<!-- Node31 -->
<g id="Node000031" class="node">
<title>Node31</title>
<g id="a_Node000031"><a xlink:title=" ">
<polygon fill="#e0e0e0" stroke="#999999" points="1155.5,-24.5 1098.5,-24.5 1098.5,-5.5 1155.5,-5.5 1155.5,-24.5"/>
<text text-anchor="middle" x="1127" y="-12.5" font-family="Helvetica,sans-Serif" font-size="10.00">ostream</text>
</a>
</g>
</g>
<!-- Node28&#45;&gt;Node31 -->
<g id="edge36_Node000028_Node000031" class="edge">
<title>Node28&#45;&gt;Node31</title>
<g id="a_edge36_Node000028_Node000031"><a xlink:title=" ">
<path fill="none" stroke="#63b8ff" d="M985.98,-71.37C1014.25,-60.27 1063.54,-40.92 1095.71,-28.28"/>
<polygon fill="#63b8ff" stroke="#63b8ff" points="1097.08,-31.51 1105.11,-24.6 1094.52,-24.99 1097.08,-31.51"/>
</a>
</g>
</g>
</g>
</svg>

<g id="navigator" transform="translate(0 0)" fill="#404254">
  <rect fill="#f2f5e9" fill-opacity="0.5" stroke="#606060" stroke-width=".5" x="0" y="0" width="60" height="60"/>
  <use id="zoomplus" xlink:href="#zoomPlus" x="17" y="9" onmousedown="handleZoom(evt,'in')"/>
  <use id="zoomminus" xlink:href="#zoomMin" x="42" y="9" onmousedown="handleZoom(evt,'out')"/>
  <use id="reset" xlink:href="#resetDef" x="30" y="36" onmousedown="handleReset()"/>
   <use id="arrowup" xlink:href="#arrowUp" x="0" y="0" onmousedown="handlePan(0,-1)"/>
  <use id="arrowright" xlink:href="#arrowRight" x="0" y="0" onmousedown="handlePan(1,0)"/>
  <use id="arrowdown" xlink:href="#arrowDown" x="0" y="0" onmousedown="handlePan(0,1)"/>
  <use id="arrowleft" xlink:href="#arrowLeft" x="0" y="0" onmousedown="handlePan(-1,0)"/>
</g>
<svg viewBox="0 0 15 15" width="100%" height="30px" preserveAspectRatio="xMaxYMin meet">
 <g id="arrow_out" transform="scale(0.3 0.3)">
  <a xlink:href="jack__connection_8h__incl_org.svg" target="_base">
   <rect id="button" ry="5" rx="5" y="6" x="6" height="38" width="38"
        fill="#f2f5e9" fill-opacity="0.5" stroke="#606060" stroke-width="1.0"/>
   <path id="arrow"
     d="M 11.500037,31.436501 C 11.940474,20.09759 22.043105,11.32322 32.158766,21.979434 L 37.068811,17.246167 C 37.068811,17.246167 37.088388,32 37.088388,32 L 22.160133,31.978069 C 22.160133,31.978069 26.997745,27.140456 26.997745,27.140456 C 18.528582,18.264221 13.291696,25.230495 11.500037,31.436501 z"
     style="fill:#404040;"/>
  </a>
 </g>
</svg>

<style type='text/css'>
<![CDATA[
[data-mouse-over-selected='false'] { opacity: 0.7; }
[data-mouse-over-selected='true']  { opacity: 1.0; }
]]>
</style>
<script type="application/ecmascript"><![CDATA[
document.addEventListener('DOMContentLoaded', (event) => {
  highlightEdges();
  highlightAdjacentNodes();
});
]]></script>
</svg>
