<?xml version="1.0" encoding="UTF-8" standalone="no"?>
<!DOCTYPE svg PUBLIC "-//W3C//DTD SVG 1.1//EN"
 "http://www.w3.org/Graphics/SVG/1.1/DTD/svg11.dtd">
<!-- Generated by graphviz version 2.43.0 (0)
 -->
<!-- Title: kiss_fft.h Pages: 1 -->
<svg width="312pt" height="137pt"
 viewBox="0.00 0.00 312.00 137.00" xmlns="http://www.w3.org/2000/svg" xmlns:xlink="http://www.w3.org/1999/xlink">
<g id="graph0" class="graph" transform="scale(1 1) rotate(0) translate(4 133)">
<title>kiss_fft.h</title>
<!-- Node1 -->
<g id="Node000001" class="node">
<title>Node1</title>
<g id="a_Node000001"><a xlink:title=" ">
<polygon fill="#999999" stroke="#666666" points="209.5,-129 148.5,-129 148.5,-110 209.5,-110 209.5,-129"/>
<text text-anchor="middle" x="179" y="-117" font-family="Helvetica,sans-Serif" font-size="10.00">kiss_fft.h</text>
</a>
</g>
</g>
<!-- Node2 -->
<g id="Node000002" class="node">
<title>Node2</title>
<g id="a_Node000002"><a xlink:href="__kiss__fft__guts_8h.html" target="_top" xlink:title=" ">
<polygon fill="white" stroke="#666666" points="92,-74 0,-74 0,-55 92,-55 92,-74"/>
<text text-anchor="middle" x="46" y="-62" font-family="Helvetica,sans-Serif" font-size="10.00">_kiss_fft_guts.h</text>
</a>
</g>
</g>
<!-- Node1&#45;&gt;Node2 -->
<g id="edge1_Node000001_Node000002" class="edge">
<title>Node1&#45;&gt;Node2</title>
<g id="a_edge1_Node000001_Node000002"><a xlink:title=" ">
<path fill="none" stroke="#63b8ff" d="M148.03,-106.16C123.41,-96.35 89.59,-82.87 67.76,-74.17"/>
<polygon fill="#63b8ff" stroke="#63b8ff" points="147.05,-109.53 157.63,-109.98 149.64,-103.03 147.05,-109.53"/>
</a>
</g>
</g>
<!-- Node3 -->
<g id="Node000003" class="node">
<title>Node3</title>
<g id="a_Node000003"><a xlink:href="kiss__fftnd_8h.html" target="_top" xlink:title=" ">
<polygon fill="white" stroke="#666666" points="183.5,-74 110.5,-74 110.5,-55 183.5,-55 183.5,-74"/>
<text text-anchor="middle" x="147" y="-62" font-family="Helvetica,sans-Serif" font-size="10.00">kiss_fftnd.h</text>
</a>
</g>
</g>
<!-- Node1&#45;&gt;Node3 -->
<g id="edge2_Node000001_Node000003" class="edge">
<title>Node1&#45;&gt;Node3</title>
<g id="a_edge2_Node000001_Node000003"><a xlink:title=" ">
<path fill="none" stroke="#63b8ff" d="M168.5,-101.1C163.03,-92.04 156.58,-81.37 152.19,-74.09"/>
<polygon fill="#63b8ff" stroke="#63b8ff" points="165.55,-103 173.72,-109.75 171.54,-99.38 165.55,-103"/>
</a>
</g>
</g>
<!-- Node4 -->
<g id="Node000004" class="node">
<title>Node4</title>
<g id="a_Node000004"><a xlink:href="kiss__fftndr_8h.html" target="_top" xlink:title=" ">
<polygon fill="white" stroke="#666666" points="250,-19 174,-19 174,0 250,0 250,-19"/>
<text text-anchor="middle" x="212" y="-7" font-family="Helvetica,sans-Serif" font-size="10.00">kiss_fftndr.h</text>
</a>
</g>
</g>
<!-- Node1&#45;&gt;Node4 -->
<g id="edge4_Node000001_Node000004" class="edge">
<title>Node1&#45;&gt;Node4</title>
<g id="a_edge4_Node000001_Node000004"><a xlink:title=" ">
<path fill="none" stroke="#63b8ff" d="M184.82,-100.2C187.36,-92.17 190.35,-82.62 193,-74 199.01,-54.42 205.85,-31.37 209.46,-19.14"/>
<polygon fill="#63b8ff" stroke="#63b8ff" points="181.41,-99.39 181.72,-109.98 188.08,-101.51 181.41,-99.39"/>
</a>
</g>
</g>
<!-- Node5 -->
<g id="Node000005" class="node">
<title>Node5</title>
<g id="a_Node000005"><a xlink:href="kiss__fftr_8h.html" target="_top" xlink:title=" ">
<polygon fill="white" stroke="#666666" points="304,-74 240,-74 240,-55 304,-55 304,-74"/>
<text text-anchor="middle" x="272" y="-62" font-family="Helvetica,sans-Serif" font-size="10.00">kiss_fftr.h</text>
</a>
</g>
</g>
<!-- Node1&#45;&gt;Node5 -->
<g id="edge5_Node000001_Node000005" class="edge">
<title>Node1&#45;&gt;Node5</title>
<g id="a_edge5_Node000001_Node000005"><a xlink:title=" ">
<path fill="none" stroke="#63b8ff" d="M202.75,-104.97C219.75,-95.28 242.13,-82.52 256.79,-74.17"/>
<polygon fill="#63b8ff" stroke="#63b8ff" points="200.9,-101.99 193.94,-109.98 204.36,-108.07 200.9,-101.99"/>
</a>
</g>
</g>
<!-- Node3&#45;&gt;Node4 -->
<g id="edge3_Node000003_Node000004" class="edge">
<title>Node3&#45;&gt;Node4</title>
<g id="a_edge3_Node000003_Node000004"><a xlink:title=" ">
<path fill="none" stroke="#63b8ff" d="M165.27,-48.6C176.92,-39.11 191.6,-27.13 201.37,-19.17"/>
<polygon fill="#63b8ff" stroke="#63b8ff" points="162.98,-45.95 157.44,-54.98 167.41,-51.38 162.98,-45.95"/>
</a>
</g>
</g>
<!-- Node5&#45;&gt;Node4 -->
<g id="edge6_Node000005_Node000004" class="edge">
<title>Node5&#45;&gt;Node4</title>
<g id="a_edge6_Node000005_Node000004"><a xlink:title=" ">
<path fill="none" stroke="#63b8ff" d="M254.82,-48.32C244.12,-38.87 230.74,-27.06 221.82,-19.17"/>
<polygon fill="#63b8ff" stroke="#63b8ff" points="252.55,-50.99 262.36,-54.98 257.18,-45.74 252.55,-50.99"/>
</a>
</g>
</g>
</g>
</svg>
