<?xml version="1.0" encoding="UTF-8" standalone="no"?>
<!DOCTYPE svg PUBLIC "-//W3C//DTD SVG 1.1//EN"
 "http://www.w3.org/Graphics/SVG/1.1/DTD/svg11.dtd">
<!-- Generated by graphviz version 2.43.0 (0)
 -->
<!-- Title: lauxlib.h Pages: 1 -->
<svg width="206pt" height="192pt"
 viewBox="0.00 0.00 205.56 192.00" xmlns="http://www.w3.org/2000/svg" xmlns:xlink="http://www.w3.org/1999/xlink">

<svg id="main" version="1.1" xmlns="http://www.w3.org/2000/svg" xmlns:xlink="http://www.w3.org/1999/xlink" xml:space="preserve" onload="init(evt)">
<style type="text/css"><![CDATA[
.node, .edge {opacity: 0.7;}
.node.selected, .edge.selected {opacity: 1;}
.edge:hover path { stroke: red; }
.edge:hover polygon { stroke: red; fill: red; }
]]></style>
<script type="application/ecmascript" xlink:href="svg.min.js"/>
<svg id="graph" class="graph">
<g id="graph0" class="graph" transform="scale(1 1) rotate(0) translate(4 188)">
<title>lauxlib.h</title>
<!-- Node1 -->
<g id="Node000001" class="node">
<title>Node1</title>
<g id="a_Node000001"><a xlink:title=" ">
<polygon fill="#999999" stroke="#666666" points="67.56,-184 8.56,-184 8.56,-165 67.56,-165 67.56,-184"/>
<text text-anchor="middle" x="38.06" y="-172" font-family="Helvetica,sans-Serif" font-size="10.00">lauxlib.h</text>
</a>
</g>
</g>
<!-- Node2 -->
<g id="Node000002" class="node">
<title>Node2</title>
<g id="a_Node000002"><a xlink:title=" ">
<polygon fill="#e0e0e0" stroke="#999999" points="62.06,-19 6.06,-19 6.06,0 62.06,0 62.06,-19"/>
<text text-anchor="middle" x="34.06" y="-7" font-family="Helvetica,sans-Serif" font-size="10.00">stddef.h</text>
</a>
</g>
</g>
<!-- Node1&#45;&gt;Node2 -->
<g id="edge1_Node000001_Node000002" class="edge">
<title>Node1&#45;&gt;Node2</title>
<g id="a_edge1_Node000001_Node000002"><a xlink:title=" ">
<path fill="none" stroke="#63b8ff" d="M28.45,-164.69C20.18,-156.41 8.86,-143.18 4.06,-129 -7.84,-93.82 10.55,-51.36 23.37,-28.02"/>
<polygon fill="#63b8ff" stroke="#63b8ff" points="26.46,-29.67 28.43,-19.26 20.4,-26.17 26.46,-29.67"/>
</a>
</g>
</g>
<!-- Node3 -->
<g id="Node000003" class="node">
<title>Node3</title>
<g id="a_Node000003"><a xlink:title=" ">
<polygon fill="#e0e0e0" stroke="#999999" points="63.06,-129 13.06,-129 13.06,-110 63.06,-110 63.06,-129"/>
<text text-anchor="middle" x="38.06" y="-117" font-family="Helvetica,sans-Serif" font-size="10.00">stdio.h</text>
</a>
</g>
</g>
<!-- Node1&#45;&gt;Node3 -->
<g id="edge2_Node000001_Node000003" class="edge">
<title>Node1&#45;&gt;Node3</title>
<g id="a_edge2_Node000001_Node000003"><a xlink:title=" ">
<path fill="none" stroke="#63b8ff" d="M38.06,-164.75C38.06,-157.8 38.06,-147.85 38.06,-139.13"/>
<polygon fill="#63b8ff" stroke="#63b8ff" points="41.56,-139.09 38.06,-129.09 34.56,-139.09 41.56,-139.09"/>
</a>
</g>
</g>
<!-- Node4 -->
<g id="Node000004" class="node">
<title>Node4</title>
<g id="a_Node000004"><a xlink:href="lua-5_83_85_2lua_8h.html" target="_top" xlink:title=" ">
<polygon fill="white" stroke="#666666" points="122.56,-129 81.56,-129 81.56,-110 122.56,-110 122.56,-129"/>
<text text-anchor="middle" x="102.06" y="-117" font-family="Helvetica,sans-Serif" font-size="10.00">lua.h</text>
</a>
</g>
</g>
<!-- Node1&#45;&gt;Node4 -->
<g id="edge3_Node000001_Node000004" class="edge">
<title>Node1&#45;&gt;Node4</title>
<g id="a_edge3_Node000001_Node000004"><a xlink:title=" ">
<path fill="none" stroke="#63b8ff" d="M48.34,-164.98C57.89,-157.07 72.34,-145.11 83.84,-135.58"/>
<polygon fill="#63b8ff" stroke="#63b8ff" points="86.12,-138.24 91.59,-129.17 81.65,-132.85 86.12,-138.24"/>
</a>
</g>
</g>
<!-- Node4&#45;&gt;Node2 -->
<g id="edge5_Node000004_Node000002" class="edge">
<title>Node4&#45;&gt;Node2</title>
<g id="a_edge5_Node000004_Node000002"><a xlink:title=" ">
<path fill="none" stroke="#63b8ff" d="M88.98,-109.75C77.9,-101.7 62.37,-88.78 53.06,-74 44.43,-60.31 39.55,-42.5 36.9,-29.22"/>
<polygon fill="#63b8ff" stroke="#63b8ff" points="40.34,-28.58 35.17,-19.33 33.45,-29.79 40.34,-28.58"/>
</a>
</g>
</g>
<!-- Node5 -->
<g id="Node000005" class="node">
<title>Node5</title>
<g id="a_Node000005"><a xlink:title=" ">
<polygon fill="#e0e0e0" stroke="#999999" points="118.06,-74 62.06,-74 62.06,-55 118.06,-55 118.06,-74"/>
<text text-anchor="middle" x="90.06" y="-62" font-family="Helvetica,sans-Serif" font-size="10.00">stdarg.h</text>
</a>
</g>
</g>
<!-- Node4&#45;&gt;Node5 -->
<g id="edge4_Node000004_Node000005" class="edge">
<title>Node4&#45;&gt;Node5</title>
<g id="a_edge4_Node000004_Node000005"><a xlink:title=" ">
<path fill="none" stroke="#63b8ff" d="M100.08,-109.75C98.49,-102.72 96.2,-92.62 94.21,-83.84"/>
<polygon fill="#63b8ff" stroke="#63b8ff" points="97.62,-83.07 92,-74.09 90.8,-84.62 97.62,-83.07"/>
</a>
</g>
</g>
<!-- Node6 -->
<g id="Node000006" class="node">
<title>Node6</title>
<g id="a_Node000006"><a xlink:href="luaconf_8h.html" target="_top" xlink:title=" ">
<polygon fill="white" stroke="#666666" points="197.56,-74 136.56,-74 136.56,-55 197.56,-55 197.56,-74"/>
<text text-anchor="middle" x="167.06" y="-62" font-family="Helvetica,sans-Serif" font-size="10.00">luaconf.h</text>
</a>
</g>
</g>
<!-- Node4&#45;&gt;Node6 -->
<g id="edge6_Node000004_Node000006" class="edge">
<title>Node4&#45;&gt;Node6</title>
<g id="a_edge6_Node000004_Node000006"><a xlink:title=" ">
<path fill="none" stroke="#63b8ff" d="M112.5,-109.98C122.2,-102.07 136.87,-90.11 148.56,-80.58"/>
<polygon fill="#63b8ff" stroke="#63b8ff" points="150.89,-83.2 156.42,-74.17 146.46,-77.78 150.89,-83.2"/>
</a>
</g>
</g>
<!-- Node6&#45;&gt;Node2 -->
<g id="edge8_Node000006_Node000002" class="edge">
<title>Node6&#45;&gt;Node2</title>
<g id="a_edge8_Node000006_Node000002"><a xlink:title=" ">
<path fill="none" stroke="#63b8ff" d="M145.69,-54.98C123.91,-46.3 89.9,-32.75 65.14,-22.88"/>
<polygon fill="#63b8ff" stroke="#63b8ff" points="66.4,-19.62 55.82,-19.17 63.81,-26.12 66.4,-19.62"/>
</a>
</g>
</g>
<!-- Node7 -->
<g id="Node000007" class="node">
<title>Node7</title>
<g id="a_Node000007"><a xlink:title=" ">
<polygon fill="#e0e0e0" stroke="#999999" points="193.56,-19 140.56,-19 140.56,0 193.56,0 193.56,-19"/>
<text text-anchor="middle" x="167.06" y="-7" font-family="Helvetica,sans-Serif" font-size="10.00">limits.h</text>
</a>
</g>
</g>
<!-- Node6&#45;&gt;Node7 -->
<g id="edge7_Node000006_Node000007" class="edge">
<title>Node6&#45;&gt;Node7</title>
<g id="a_edge7_Node000006_Node000007"><a xlink:title=" ">
<path fill="none" stroke="#63b8ff" d="M167.06,-54.75C167.06,-47.8 167.06,-37.85 167.06,-29.13"/>
<polygon fill="#63b8ff" stroke="#63b8ff" points="170.56,-29.09 167.06,-19.09 163.56,-29.09 170.56,-29.09"/>
</a>
</g>
</g>
</g>
</svg>
</svg>

<style type='text/css'>
<![CDATA[
[data-mouse-over-selected='false'] { opacity: 0.7; }
[data-mouse-over-selected='true']  { opacity: 1.0; }
]]>
</style>
<script type="application/ecmascript"><![CDATA[
document.addEventListener('DOMContentLoaded', (event) => {
  highlightEdges();
  highlightAdjacentNodes();
});
]]></script>
</svg>
