<?xml version="1.0" encoding="UTF-8" standalone="no"?>
<!DOCTYPE svg PUBLIC "-//W3C//DTD SVG 1.1//EN"
 "http://www.w3.org/Graphics/SVG/1.1/DTD/svg11.dtd">
<!-- Generated by graphviz version 2.43.0 (0)
 -->
<!-- Title: debug.h Pages: 1 -->
<!--zoomable 247 -->

<svg id="main" version="1.1" xmlns="http://www.w3.org/2000/svg" xmlns:xlink="http://www.w3.org/1999/xlink" xml:space="preserve" onload="init(evt)">
<style type="text/css"><![CDATA[
.node, .edge {opacity: 0.7;}
.node.selected, .edge.selected {opacity: 1;}
.edge:hover path { stroke: red; }
.edge:hover polygon { stroke: red; fill: red; }
]]></style>

<defs>
  <circle id="rim" cx="0" cy="0" r="7"/>
  <circle id="rim2" cx="0" cy="0" r="3.5"/>
  <g id="zoomPlus">
    <use xlink:href="#rim" fill="#404040"><set attributeName="fill" to="#808080" begin="zoomplus.mouseover" end="zoomplus.mouseout"/></use>
    <path d="M-4,0h8M0,-4v8" fill="none" stroke="white" stroke-width="1.5" pointer-events="none"/>
  </g>
  <g id="zoomMin">
    <use xlink:href="#rim" fill="#404040"><set attributeName="fill" to="#808080" begin="zoomminus.mouseover" end="zoomminus.mouseout"/></use>
    <path d="M-4,0h8" fill="none" stroke="white" stroke-width="1.5" pointer-events="none"/>
  </g>
  <g id="arrowUp" transform="translate(30 24)">
    <use xlink:href="#rim"/>
    <path pointer-events="none" fill="none" stroke="white" stroke-width="1.5" d="M0,-3.0v7 M-2.5,-0.5L0,-3.0L2.5,-0.5"/>
  </g>
  <g id="arrowRight" transform="rotate(90) translate(36 -43)">
    <use xlink:href="#rim"/>
    <path pointer-events="none" fill="none" stroke="white" stroke-width="1.5" d="M0,-3.0v7 M-2.5,-0.5L0,-3.0L2.5,-0.5"/>
  </g>
  <g id="arrowDown" transform="rotate(180) translate(-30 -48)">
    <use xlink:href="#rim"/>
    <path pointer-events="none" fill="none" stroke="white" stroke-width="1.5" d="M0,-3.0v7 M-2.5,-0.5L0,-3.0L2.5,-0.5"/>
  </g>
  <g id="arrowLeft" transform="rotate(270) translate(-36 17)">
    <use xlink:href="#rim"/>
    <path pointer-events="none" fill="none" stroke="white" stroke-width="1.5" d="M0,-3.0v7 M-2.5,-0.5L0,-3.0L2.5,-0.5"/>
  </g>
  <g id="resetDef">
    <use xlink:href="#rim2" fill="#404040"><set attributeName="fill" to="#808080" begin="reset.mouseover" end="reset.mouseout"/></use>
  </g>
</defs>
<script type="application/ecmascript">
var viewWidth = 689;
var viewHeight = 247;
var sectionId = 'dynsection-0';
</script>
<script type="application/ecmascript" xlink:href="svg.min.js"/>
<svg id="graph" class="graph">
<g id="viewport">
<title>debug.h</title>
<!-- Node1 -->
<g id="Node000001" class="node">
<title>Node1</title>
<g id="a_Node000001"><a xlink:title=" ">
<polygon fill="#999999" stroke="#666666" points="555,-239 499,-239 499,-220 555,-220 555,-239"/>
<text text-anchor="middle" x="527" y="-227" font-family="Helvetica,sans-Serif" font-size="10.00">debug.h</text>
</a>
</g>
</g>
<!-- Node2 -->
<g id="Node000002" class="node">
<title>Node2</title>
<g id="a_Node000002"><a xlink:title=" ">
<polygon fill="#e0e0e0" stroke="#999999" points="592.5,-74 539.5,-74 539.5,-55 592.5,-55 592.5,-74"/>
<text text-anchor="middle" x="566" y="-62" font-family="Helvetica,sans-Serif" font-size="10.00">stdint.h</text>
</a>
</g>
</g>
<!-- Node1&#45;&gt;Node2 -->
<g id="edge1_Node000001_Node000002" class="edge">
<title>Node1&#45;&gt;Node2</title>
<g id="a_edge1_Node000001_Node000002"><a xlink:title=" ">
<path fill="none" stroke="#63b8ff" d="M529.1,-219.74C535.21,-194.2 553.1,-119.43 561.52,-84.23"/>
<polygon fill="#63b8ff" stroke="#63b8ff" points="564.97,-84.85 563.89,-74.31 558.16,-83.22 564.97,-84.85"/>
</a>
</g>
</g>
<!-- Node3 -->
<g id="Node000003" class="node">
<title>Node3</title>
<g id="a_Node000003"><a xlink:href="libs_2pbd_2pbd_2debug_8h.html" target="_top" xlink:title=" ">
<polygon fill="white" stroke="#666666" points="339.5,-184 262.5,-184 262.5,-165 339.5,-165 339.5,-184"/>
<text text-anchor="middle" x="301" y="-172" font-family="Helvetica,sans-Serif" font-size="10.00">pbd/debug.h</text>
</a>
</g>
</g>
<!-- Node1&#45;&gt;Node3 -->
<g id="edge2_Node000001_Node000003" class="edge">
<title>Node1&#45;&gt;Node3</title>
<g id="a_edge2_Node000001_Node000003"><a xlink:title=" ">
<path fill="none" stroke="#63b8ff" d="M498.83,-221.89C460.88,-212.99 392.84,-197.04 347.31,-186.36"/>
<polygon fill="#63b8ff" stroke="#63b8ff" points="347.92,-182.91 337.38,-184.03 346.32,-189.72 347.92,-182.91"/>
</a>
</g>
</g>
<!-- Node16 -->
<g id="Node000016" class="node">
<title>Node16</title>
<g id="a_Node000016"><a xlink:href="gtkmm2ext_2gtkmm2ext_2visibility_8h.html" target="_top" xlink:title=" ">
<polygon fill="white" stroke="#666666" points="681,-184 555,-184 555,-165 681,-165 681,-184"/>
<text text-anchor="middle" x="618" y="-172" font-family="Helvetica,sans-Serif" font-size="10.00">gtkmm2ext/visibility.h</text>
</a>
</g>
</g>
<!-- Node1&#45;&gt;Node16 -->
<g id="edge19_Node000001_Node000016" class="edge">
<title>Node1&#45;&gt;Node16</title>
<g id="a_edge19_Node000001_Node000016"><a xlink:title=" ">
<path fill="none" stroke="#63b8ff" d="M541.62,-219.98C555.86,-211.69 577.75,-198.94 594.45,-189.22"/>
<polygon fill="#63b8ff" stroke="#63b8ff" points="596.23,-192.23 603.11,-184.17 592.71,-186.18 596.23,-192.23"/>
</a>
</g>
</g>
<!-- Node3&#45;&gt;Node2 -->
<g id="edge4_Node000003_Node000002" class="edge">
<title>Node3&#45;&gt;Node2</title>
<g id="a_edge4_Node000003_Node000002"><a xlink:title=" ">
<path fill="none" stroke="#63b8ff" d="M310.38,-164.72C325.53,-151.01 356.84,-124.58 388,-110 394.48,-106.97 479.5,-86.28 529.65,-74.21"/>
<polygon fill="#63b8ff" stroke="#63b8ff" points="530.58,-77.59 539.49,-71.85 528.94,-70.78 530.58,-77.59"/>
</a>
</g>
</g>
<!-- Node4 -->
<g id="Node000004" class="node">
<title>Node4</title>
<g id="a_Node000004"><a xlink:title=" ">
<polygon fill="#e0e0e0" stroke="#999999" points="170,-129 126,-129 126,-110 170,-110 170,-129"/>
<text text-anchor="middle" x="148" y="-117" font-family="Helvetica,sans-Serif" font-size="10.00">bitset</text>
</a>
</g>
</g>
<!-- Node3&#45;&gt;Node4 -->
<g id="edge3_Node000003_Node000004" class="edge">
<title>Node3&#45;&gt;Node4</title>
<g id="a_edge3_Node000003_Node000004"><a xlink:title=" ">
<path fill="none" stroke="#63b8ff" d="M276.42,-164.98C250.12,-155.88 208.33,-141.4 179.61,-131.45"/>
<polygon fill="#63b8ff" stroke="#63b8ff" points="180.63,-128.1 170.04,-128.13 178.34,-134.71 180.63,-128.1"/>
</a>
</g>
</g>
<!-- Node5 -->
<g id="Node000005" class="node">
<title>Node5</title>
<g id="a_Node000005"><a xlink:title=" ">
<polygon fill="#e0e0e0" stroke="#999999" points="244,-129 188,-129 188,-110 244,-110 244,-129"/>
<text text-anchor="middle" x="216" y="-117" font-family="Helvetica,sans-Serif" font-size="10.00">sstream</text>
</a>
</g>
</g>
<!-- Node3&#45;&gt;Node5 -->
<g id="edge5_Node000003_Node000005" class="edge">
<title>Node3&#45;&gt;Node5</title>
<g id="a_edge5_Node000003_Node000005"><a xlink:title=" ">
<path fill="none" stroke="#63b8ff" d="M287.34,-164.98C274.16,-156.77 253.97,-144.18 238.43,-134.49"/>
<polygon fill="#63b8ff" stroke="#63b8ff" points="240.24,-131.49 229.91,-129.17 236.54,-137.43 240.24,-131.49"/>
</a>
</g>
</g>
<!-- Node6 -->
<g id="Node000006" class="node">
<title>Node6</title>
<g id="a_Node000006"><a xlink:href="libpbd__visibility_8h.html" target="_top" xlink:title=" ">
<polygon fill="white" stroke="#666666" points="122,-19 0,-19 0,0 122,0 122,-19"/>
<text text-anchor="middle" x="61" y="-7" font-family="Helvetica,sans-Serif" font-size="10.00">pbd/libpbd_visibility.h</text>
</a>
</g>
</g>
<!-- Node3&#45;&gt;Node6 -->
<g id="edge6_Node000003_Node000006" class="edge">
<title>Node3&#45;&gt;Node6</title>
<g id="a_edge6_Node000003_Node000006"><a xlink:title=" ">
<path fill="none" stroke="#63b8ff" d="M262.34,-170.59C223.37,-166.23 162.64,-155.45 117,-129 87.9,-112.13 78.41,-104.85 65,-74 58.87,-59.9 58.22,-42.35 58.91,-29.28"/>
<polygon fill="#63b8ff" stroke="#63b8ff" points="62.41,-29.4 59.75,-19.15 55.44,-28.82 62.41,-29.4"/>
</a>
</g>
</g>
<!-- Node7 -->
<g id="Node000007" class="node">
<title>Node7</title>
<g id="a_Node000007"><a xlink:href="timing_8h.html" target="_top" xlink:title=" ">
<polygon fill="white" stroke="#666666" points="340,-129 262,-129 262,-110 340,-110 340,-129"/>
<text text-anchor="middle" x="301" y="-117" font-family="Helvetica,sans-Serif" font-size="10.00">pbd/timing.h</text>
</a>
</g>
</g>
<!-- Node3&#45;&gt;Node7 -->
<g id="edge7_Node000003_Node000007" class="edge">
<title>Node3&#45;&gt;Node7</title>
<g id="a_edge7_Node000003_Node000007"><a xlink:title=" ">
<path fill="none" stroke="#63b8ff" d="M301,-164.75C301,-157.8 301,-147.85 301,-139.13"/>
<polygon fill="#63b8ff" stroke="#63b8ff" points="304.5,-139.09 301,-129.09 297.5,-139.09 304.5,-139.09"/>
</a>
</g>
</g>
<!-- Node15 -->
<g id="Node000015" class="node">
<title>Node15</title>
<g id="a_Node000015"><a xlink:title=" ">
<polygon fill="#e0e0e0" stroke="#999999" points="459.5,-129 396.5,-129 396.5,-110 459.5,-110 459.5,-129"/>
<text text-anchor="middle" x="428" y="-117" font-family="Helvetica,sans-Serif" font-size="10.00">pthread.h</text>
</a>
</g>
</g>
<!-- Node3&#45;&gt;Node15 -->
<g id="edge18_Node000003_Node000015" class="edge">
<title>Node3&#45;&gt;Node15</title>
<g id="a_edge18_Node000003_Node000015"><a xlink:title=" ">
<path fill="none" stroke="#63b8ff" d="M321.4,-164.98C342.02,-156.38 374.11,-142.99 397.69,-133.15"/>
<polygon fill="#63b8ff" stroke="#63b8ff" points="399.34,-136.25 407.22,-129.17 396.65,-129.79 399.34,-136.25"/>
</a>
</g>
</g>
<!-- Node7&#45;&gt;Node2 -->
<g id="edge9_Node000007_Node000002" class="edge">
<title>Node7&#45;&gt;Node2</title>
<g id="a_edge9_Node000007_Node000002"><a xlink:title=" ">
<path fill="none" stroke="#63b8ff" d="M340.4,-111.34C384.06,-103.29 456.77,-89.57 529.09,-74.12"/>
<polygon fill="#63b8ff" stroke="#63b8ff" points="530.25,-77.45 539.29,-71.93 528.78,-70.61 530.25,-77.45"/>
</a>
</g>
</g>
<!-- Node7&#45;&gt;Node6 -->
<g id="edge17_Node000007_Node000006" class="edge">
<title>Node7&#45;&gt;Node6</title>
<g id="a_edge17_Node000007_Node000006"><a xlink:title=" ">
<path fill="none" stroke="#63b8ff" d="M261.98,-111.17C199.43,-99.35 83.38,-77.08 80,-74 67.66,-62.74 63.2,-43.83 61.66,-29.57"/>
<polygon fill="#63b8ff" stroke="#63b8ff" points="65.13,-29.09 60.95,-19.36 58.15,-29.58 65.13,-29.09"/>
</a>
</g>
</g>
<!-- Node8 -->
<g id="Node000008" class="node">
<title>Node8</title>
<g id="a_Node000008"><a xlink:title=" ">
<polygon fill="#e0e0e0" stroke="#999999" points="133,-74 89,-74 89,-55 133,-55 133,-74"/>
<text text-anchor="middle" x="111" y="-62" font-family="Helvetica,sans-Serif" font-size="10.00">glib.h</text>
</a>
</g>
</g>
<!-- Node7&#45;&gt;Node8 -->
<g id="edge8_Node000007_Node000008" class="edge">
<title>Node7&#45;&gt;Node8</title>
<g id="a_edge8_Node000007_Node000008"><a xlink:title=" ">
<path fill="none" stroke="#63b8ff" d="M270.47,-109.98C235.53,-100.24 178.55,-84.34 143,-74.43"/>
<polygon fill="#63b8ff" stroke="#63b8ff" points="143.71,-70.99 133.14,-71.68 141.83,-77.73 143.71,-70.99"/>
</a>
</g>
</g>
<!-- Node9 -->
<g id="Node000009" class="node">
<title>Node9</title>
<g id="a_Node000009"><a xlink:title=" ">
<polygon fill="#e0e0e0" stroke="#999999" points="198.5,-74 151.5,-74 151.5,-55 198.5,-55 198.5,-74"/>
<text text-anchor="middle" x="175" y="-62" font-family="Helvetica,sans-Serif" font-size="10.00">cmath</text>
</a>
</g>
</g>
<!-- Node7&#45;&gt;Node9 -->
<g id="edge10_Node000007_Node000009" class="edge">
<title>Node7&#45;&gt;Node9</title>
<g id="a_edge10_Node000007_Node000009"><a xlink:title=" ">
<path fill="none" stroke="#63b8ff" d="M280.76,-109.98C260.3,-101.38 228.47,-87.99 205.07,-78.15"/>
<polygon fill="#63b8ff" stroke="#63b8ff" points="206.19,-74.82 195.61,-74.17 203.47,-81.27 206.19,-74.82"/>
</a>
</g>
</g>
<!-- Node10 -->
<g id="Node000010" class="node">
<title>Node10</title>
<g id="a_Node000010"><a xlink:title=" ">
<polygon fill="#e0e0e0" stroke="#999999" points="261,-74 217,-74 217,-55 261,-55 261,-74"/>
<text text-anchor="middle" x="239" y="-62" font-family="Helvetica,sans-Serif" font-size="10.00">limits</text>
</a>
</g>
</g>
<!-- Node7&#45;&gt;Node10 -->
<g id="edge11_Node000007_Node000010" class="edge">
<title>Node7&#45;&gt;Node10</title>
<g id="a_edge11_Node000007_Node000010"><a xlink:title=" ">
<path fill="none" stroke="#63b8ff" d="M291.04,-109.98C281.87,-102.15 268.06,-90.34 256.97,-80.86"/>
<polygon fill="#63b8ff" stroke="#63b8ff" points="259.02,-78.01 249.14,-74.17 254.47,-83.33 259.02,-78.01"/>
</a>
</g>
</g>
<!-- Node11 -->
<g id="Node000011" class="node">
<title>Node11</title>
<g id="a_Node000011"><a xlink:title=" ">
<polygon fill="#e0e0e0" stroke="#999999" points="323,-74 279,-74 279,-55 323,-55 323,-74"/>
<text text-anchor="middle" x="301" y="-62" font-family="Helvetica,sans-Serif" font-size="10.00">string</text>
</a>
</g>
</g>
<!-- Node7&#45;&gt;Node11 -->
<g id="edge12_Node000007_Node000011" class="edge">
<title>Node7&#45;&gt;Node11</title>
<g id="a_edge12_Node000007_Node000011"><a xlink:title=" ">
<path fill="none" stroke="#63b8ff" d="M301,-109.75C301,-102.8 301,-92.85 301,-84.13"/>
<polygon fill="#63b8ff" stroke="#63b8ff" points="304.5,-84.09 301,-74.09 297.5,-84.09 304.5,-84.09"/>
</a>
</g>
</g>
<!-- Node12 -->
<g id="Node000012" class="node">
<title>Node12</title>
<g id="a_Node000012"><a xlink:title=" ">
<polygon fill="#e0e0e0" stroke="#999999" points="388.5,-74 341.5,-74 341.5,-55 388.5,-55 388.5,-74"/>
<text text-anchor="middle" x="365" y="-62" font-family="Helvetica,sans-Serif" font-size="10.00">vector</text>
</a>
</g>
</g>
<!-- Node7&#45;&gt;Node12 -->
<g id="edge13_Node000007_Node000012" class="edge">
<title>Node7&#45;&gt;Node12</title>
<g id="a_edge13_Node000007_Node000012"><a xlink:title=" ">
<path fill="none" stroke="#63b8ff" d="M311.28,-109.98C320.84,-102.07 335.28,-90.11 346.78,-80.58"/>
<polygon fill="#63b8ff" stroke="#63b8ff" points="349.06,-83.24 354.53,-74.17 344.6,-77.85 349.06,-83.24"/>
</a>
</g>
</g>
<!-- Node13 -->
<g id="Node000013" class="node">
<title>Node13</title>
<g id="a_Node000013"><a xlink:href="microseconds_8h.html" target="_top" xlink:title=" ">
<polygon fill="white" stroke="#666666" points="521,-74 407,-74 407,-55 521,-55 521,-74"/>
<text text-anchor="middle" x="464" y="-62" font-family="Helvetica,sans-Serif" font-size="10.00">pbd/microseconds.h</text>
</a>
</g>
</g>
<!-- Node7&#45;&gt;Node13 -->
<g id="edge14_Node000007_Node000013" class="edge">
<title>Node7&#45;&gt;Node13</title>
<g id="a_edge14_Node000007_Node000013"><a xlink:title=" ">
<path fill="none" stroke="#63b8ff" d="M327.19,-109.98C354.44,-101.13 397.3,-87.19 427.78,-77.28"/>
<polygon fill="#63b8ff" stroke="#63b8ff" points="429.18,-80.5 437.61,-74.08 427.01,-73.85 429.18,-80.5"/>
</a>
</g>
</g>
<!-- Node13&#45;&gt;Node6 -->
<g id="edge16_Node000013_Node000006" class="edge">
<title>Node13&#45;&gt;Node6</title>
<g id="a_edge16_Node000013_Node000006"><a xlink:title=" ">
<path fill="none" stroke="#63b8ff" d="M406.69,-55.96C334.52,-46.47 210.54,-30.17 132.32,-19.88"/>
<polygon fill="#63b8ff" stroke="#63b8ff" points="132.44,-16.37 122.07,-18.53 131.53,-23.31 132.44,-16.37"/>
</a>
</g>
</g>
<!-- Node14 -->
<g id="Node000014" class="node">
<title>Node14</title>
<g id="a_Node000014"><a xlink:title=" ">
<polygon fill="#e0e0e0" stroke="#999999" points="496.5,-19 431.5,-19 431.5,0 496.5,0 496.5,-19"/>
<text text-anchor="middle" x="464" y="-7" font-family="Helvetica,sans-Serif" font-size="10.00">inttypes.h</text>
</a>
</g>
</g>
<!-- Node13&#45;&gt;Node14 -->
<g id="edge15_Node000013_Node000014" class="edge">
<title>Node13&#45;&gt;Node14</title>
<g id="a_edge15_Node000013_Node000014"><a xlink:title=" ">
<path fill="none" stroke="#63b8ff" d="M464,-54.75C464,-47.8 464,-37.85 464,-29.13"/>
<polygon fill="#63b8ff" stroke="#63b8ff" points="467.5,-29.09 464,-19.09 460.5,-29.09 467.5,-29.09"/>
</a>
</g>
</g>
</g>
</svg>

<g id="navigator" transform="translate(0 0)" fill="#404254">
  <rect fill="#f2f5e9" fill-opacity="0.5" stroke="#606060" stroke-width=".5" x="0" y="0" width="60" height="60"/>
  <use id="zoomplus" xlink:href="#zoomPlus" x="17" y="9" onmousedown="handleZoom(evt,'in')"/>
  <use id="zoomminus" xlink:href="#zoomMin" x="42" y="9" onmousedown="handleZoom(evt,'out')"/>
  <use id="reset" xlink:href="#resetDef" x="30" y="36" onmousedown="handleReset()"/>
   <use id="arrowup" xlink:href="#arrowUp" x="0" y="0" onmousedown="handlePan(0,-1)"/>
  <use id="arrowright" xlink:href="#arrowRight" x="0" y="0" onmousedown="handlePan(1,0)"/>
  <use id="arrowdown" xlink:href="#arrowDown" x="0" y="0" onmousedown="handlePan(0,1)"/>
  <use id="arrowleft" xlink:href="#arrowLeft" x="0" y="0" onmousedown="handlePan(-1,0)"/>
</g>
<svg viewBox="0 0 15 15" width="100%" height="30px" preserveAspectRatio="xMaxYMin meet">
 <g id="arrow_out" transform="scale(0.3 0.3)">
  <a xlink:href="libs_2gtkmm2ext_2gtkmm2ext_2debug_8h__incl_org.svg" target="_base">
   <rect id="button" ry="5" rx="5" y="6" x="6" height="38" width="38"
        fill="#f2f5e9" fill-opacity="0.5" stroke="#606060" stroke-width="1.0"/>
   <path id="arrow"
     d="M 11.500037,31.436501 C 11.940474,20.09759 22.043105,11.32322 32.158766,21.979434 L 37.068811,17.246167 C 37.068811,17.246167 37.088388,32 37.088388,32 L 22.160133,31.978069 C 22.160133,31.978069 26.997745,27.140456 26.997745,27.140456 C 18.528582,18.264221 13.291696,25.230495 11.500037,31.436501 z"
     style="fill:#404040;"/>
  </a>
 </g>
</svg>

<style type='text/css'>
<![CDATA[
[data-mouse-over-selected='false'] { opacity: 0.7; }
[data-mouse-over-selected='true']  { opacity: 1.0; }
]]>
</style>
<script type="application/ecmascript"><![CDATA[
document.addEventListener('DOMContentLoaded', (event) => {
  highlightEdges();
  highlightAdjacentNodes();
});
]]></script>
</svg>
