<?xml version="1.0" encoding="UTF-8" standalone="no"?>
<!DOCTYPE svg PUBLIC "-//W3C//DTD SVG 1.1//EN"
 "http://www.w3.org/Graphics/SVG/1.1/DTD/svg11.dtd">
<!-- Generated by graphviz version 2.43.0 (0)
 -->
<!-- Title: line.h Pages: 1 -->
<svg width="947pt" height="764pt"
 viewBox="0.00 0.00 946.50 764.00" xmlns="http://www.w3.org/2000/svg" xmlns:xlink="http://www.w3.org/1999/xlink">
<g id="graph0" class="graph" transform="scale(1 1) rotate(0) translate(4 760)">
<title>line.h</title>
<!-- Node1 -->
<g id="Node000001" class="node">
<title>Node1</title>
<g id="a_Node000001"><a xlink:title=" ">
<polygon fill="#999999" stroke="#666666" points="174,-756 130,-756 130,-737 174,-737 174,-756"/>
<text text-anchor="middle" x="152" y="-744" font-family="Helvetica,sans-Serif" font-size="10.00">line.h</text>
</a>
</g>
</g>
<!-- Node2 -->
<g id="Node000002" class="node">
<title>Node2</title>
<g id="a_Node000002"><a xlink:href="audio__clip__editor_8h.html" target="_top" xlink:title=" ">
<polygon fill="white" stroke="#666666" points="108,-79.5 0,-79.5 0,-60.5 108,-60.5 108,-79.5"/>
<text text-anchor="middle" x="54" y="-67.5" font-family="Helvetica,sans-Serif" font-size="10.00">audio_clip_editor.h</text>
</a>
</g>
</g>
<!-- Node1&#45;&gt;Node2 -->
<g id="edge1_Node000001_Node000002" class="edge">
<title>Node1&#45;&gt;Node2</title>
<g id="a_edge1_Node000001_Node000002"><a xlink:title=" ">
<path fill="none" stroke="#63b8ff" d="M127.58,-731.36C116.23,-723.68 103.41,-713.25 95,-701 76.86,-674.57 74,-664.06 74,-632 74,-632 74,-632 74,-184.5 74,-144.88 62.04,-98.65 56.61,-79.74"/>
<polygon fill="#63b8ff" stroke="#63b8ff" points="125.95,-734.47 136.26,-736.91 129.72,-728.58 125.95,-734.47"/>
</a>
</g>
</g>
<!-- Node4 -->
<g id="Node000004" class="node">
<title>Node4</title>
<g id="a_Node000004"><a xlink:href="editor__cursors_8h.html" target="_top" xlink:title=" ">
<polygon fill="white" stroke="#666666" points="199.5,-701 104.5,-701 104.5,-682 199.5,-682 199.5,-701"/>
<text text-anchor="middle" x="152" y="-689" font-family="Helvetica,sans-Serif" font-size="10.00">editor_cursors.h</text>
</a>
</g>
</g>
<!-- Node1&#45;&gt;Node4 -->
<g id="edge3_Node000001_Node000004" class="edge">
<title>Node1&#45;&gt;Node4</title>
<g id="a_edge3_Node000001_Node000004"><a xlink:title=" ">
<path fill="none" stroke="#63b8ff" d="M152,-726.66C152,-717.93 152,-707.99 152,-701.09"/>
<polygon fill="#63b8ff" stroke="#63b8ff" points="148.5,-726.75 152,-736.75 155.5,-726.75 148.5,-726.75"/>
</a>
</g>
</g>
<!-- Node5 -->
<g id="Node000005" class="node">
<title>Node5</title>
<g id="a_Node000005"><a xlink:href="time__axis__view_8h.html" target="_top" xlink:title=" ">
<polygon fill="white" stroke="#666666" points="319.5,-701 218.5,-701 218.5,-682 319.5,-682 319.5,-701"/>
<text text-anchor="middle" x="269" y="-689" font-family="Helvetica,sans-Serif" font-size="10.00">time_axis_view.h</text>
</a>
</g>
</g>
<!-- Node1&#45;&gt;Node5 -->
<g id="edge4_Node000001_Node000005" class="edge">
<title>Node1&#45;&gt;Node5</title>
<g id="a_edge4_Node000001_Node000005"><a xlink:title=" ">
<path fill="none" stroke="#63b8ff" d="M180.11,-732.77C201.69,-722.99 230.91,-709.75 249.86,-701.17"/>
<polygon fill="#63b8ff" stroke="#63b8ff" points="178.46,-729.67 170.8,-736.98 181.35,-736.05 178.46,-729.67"/>
</a>
</g>
</g>
<!-- Node3 -->
<g id="Node000003" class="node">
<title>Node3</title>
<g id="a_Node000003"><a xlink:href="trigger__page_8h.html" target="_top" xlink:title=" ">
<polygon fill="white" stroke="#666666" points="97.5,-19 10.5,-19 10.5,0 97.5,0 97.5,-19"/>
<text text-anchor="middle" x="54" y="-7" font-family="Helvetica,sans-Serif" font-size="10.00">trigger_page.h</text>
</a>
</g>
</g>
<!-- Node2&#45;&gt;Node3 -->
<g id="edge2_Node000002_Node000003" class="edge">
<title>Node2&#45;&gt;Node3</title>
<g id="a_edge2_Node000002_Node000003"><a xlink:title=" ">
<path fill="none" stroke="#63b8ff" d="M54,-50.16C54,-39.74 54,-27.3 54,-19.17"/>
<polygon fill="#63b8ff" stroke="#63b8ff" points="50.5,-50.37 54,-60.37 57.5,-50.37 50.5,-50.37"/>
</a>
</g>
</g>
<!-- Node6 -->
<g id="Node000006" class="node">
<title>Node6</title>
<g id="a_Node000006"><a xlink:href="automation__time__axis_8h.html" target="_top" xlink:title=" ">
<polygon fill="white" stroke="#666666" points="279.5,-640.5 144.5,-640.5 144.5,-621.5 279.5,-621.5 279.5,-640.5"/>
<text text-anchor="middle" x="212" y="-628.5" font-family="Helvetica,sans-Serif" font-size="10.00">automation_time_axis.h</text>
</a>
</g>
</g>
<!-- Node5&#45;&gt;Node6 -->
<g id="edge5_Node000005_Node000006" class="edge">
<title>Node5&#45;&gt;Node6</title>
<g id="a_edge5_Node000005_Node000006"><a xlink:title=" ">
<path fill="none" stroke="#63b8ff" d="M253.5,-674.59C242.85,-663.67 229.13,-649.58 220.45,-640.67"/>
<polygon fill="#63b8ff" stroke="#63b8ff" points="251.1,-677.15 260.59,-681.87 256.12,-672.26 251.1,-677.15"/>
</a>
</g>
</g>
<!-- Node8 -->
<g id="Node000008" class="node">
<title>Node8</title>
<g id="a_Node000008"><a xlink:href="stripable__time__axis_8h.html" target="_top" xlink:title=" ">
<polygon fill="white" stroke="#666666" points="397,-580 275,-580 275,-561 397,-561 397,-580"/>
<text text-anchor="middle" x="336" y="-568" font-family="Helvetica,sans-Serif" font-size="10.00">stripable_time_axis.h</text>
</a>
</g>
</g>
<!-- Node5&#45;&gt;Node8 -->
<g id="edge37_Node000005_Node000008" class="edge">
<title>Node5&#45;&gt;Node8</title>
<g id="a_edge37_Node000005_Node000008"><a xlink:title=" ">
<path fill="none" stroke="#63b8ff" d="M278.91,-672.9C293.46,-647.06 320.05,-599.82 331.04,-580.3"/>
<polygon fill="#63b8ff" stroke="#63b8ff" points="275.67,-671.51 273.82,-681.94 281.77,-674.95 275.67,-671.51"/>
</a>
</g>
</g>
<!-- Node32 -->
<g id="Node000032" class="node">
<title>Node32</title>
<g id="a_Node000032"><a xlink:href="region__layering__order__editor_8h.html" target="_top" xlink:title=" ">
<polygon fill="white" stroke="#666666" points="459.5,-646 336.5,-646 336.5,-616 459.5,-616 459.5,-646"/>
<text text-anchor="start" x="344.5" y="-634" font-family="Helvetica,sans-Serif" font-size="10.00">region_layering_order</text>
<text text-anchor="middle" x="398" y="-623" font-family="Helvetica,sans-Serif" font-size="10.00">_editor.h</text>
</a>
</g>
</g>
<!-- Node5&#45;&gt;Node32 -->
<g id="edge36_Node000005_Node000032" class="edge">
<title>Node5&#45;&gt;Node32</title>
<g id="a_edge36_Node000005_Node000032"><a xlink:title=" ">
<path fill="none" stroke="#63b8ff" d="M296.91,-677.84C317.47,-668.52 345.43,-655.84 366.74,-646.18"/>
<polygon fill="#63b8ff" stroke="#63b8ff" points="295.42,-674.68 287.76,-681.99 298.31,-681.05 295.42,-674.68"/>
</a>
</g>
</g>
<!-- Node7 -->
<g id="Node000007" class="node">
<title>Node7</title>
<g id="a_Node000007"><a xlink:href="automation__region__view_8h.html" target="_top" xlink:title=" ">
<polygon fill="white" stroke="#666666" points="257,-580 111,-580 111,-561 257,-561 257,-580"/>
<text text-anchor="middle" x="184" y="-568" font-family="Helvetica,sans-Serif" font-size="10.00">automation_region_view.h</text>
</a>
</g>
</g>
<!-- Node6&#45;&gt;Node7 -->
<g id="edge6_Node000006_Node000007" class="edge">
<title>Node6&#45;&gt;Node7</title>
<g id="a_edge6_Node000006_Node000007"><a xlink:title=" ">
<path fill="none" stroke="#63b8ff" d="M203.46,-612.15C198.38,-601.54 192.17,-588.56 188.15,-580.17"/>
<polygon fill="#63b8ff" stroke="#63b8ff" points="200.39,-613.86 207.87,-621.37 206.71,-610.84 200.39,-613.86"/>
</a>
</g>
</g>
<!-- Node6&#45;&gt;Node8 -->
<g id="edge7_Node000006_Node000008" class="edge">
<title>Node6&#45;&gt;Node8</title>
<g id="a_edge7_Node000006_Node000008"><a xlink:title=" ">
<path fill="none" stroke="#63b8ff" d="M239.27,-617.13C263.19,-605.85 297.28,-589.77 317.95,-580.02"/>
<polygon fill="#63b8ff" stroke="#63b8ff" points="237.58,-614.06 230.03,-621.49 240.57,-620.39 237.58,-614.06"/>
</a>
</g>
</g>
<!-- Node9 -->
<g id="Node000009" class="node">
<title>Node9</title>
<g id="a_Node000009"><a xlink:href="route__time__axis_8h.html" target="_top" xlink:title=" ">
<polygon fill="white" stroke="#666666" points="388,-525 284,-525 284,-506 388,-506 388,-525"/>
<text text-anchor="middle" x="336" y="-513" font-family="Helvetica,sans-Serif" font-size="10.00">route_time_axis.h</text>
</a>
</g>
</g>
<!-- Node8&#45;&gt;Node9 -->
<g id="edge8_Node000008_Node000009" class="edge">
<title>Node8&#45;&gt;Node9</title>
<g id="a_edge8_Node000008_Node000009"><a xlink:title=" ">
<path fill="none" stroke="#63b8ff" d="M336,-550.66C336,-541.93 336,-531.99 336,-525.09"/>
<polygon fill="#63b8ff" stroke="#63b8ff" points="332.5,-550.75 336,-560.75 339.5,-550.75 332.5,-550.75"/>
</a>
</g>
</g>
<!-- Node31 -->
<g id="Node000031" class="node">
<title>Node31</title>
<g id="a_Node000031"><a xlink:href="vca__time__axis_8h.html" target="_top" xlink:title=" ">
<polygon fill="white" stroke="#666666" points="502,-525 406,-525 406,-506 502,-506 502,-525"/>
<text text-anchor="middle" x="454" y="-513" font-family="Helvetica,sans-Serif" font-size="10.00">vca_time_axis.h</text>
</a>
</g>
</g>
<!-- Node8&#45;&gt;Node31 -->
<g id="edge35_Node000008_Node000031" class="edge">
<title>Node8&#45;&gt;Node31</title>
<g id="a_edge35_Node000008_Node000031"><a xlink:title=" ">
<path fill="none" stroke="#63b8ff" d="M364.35,-556.77C386.12,-546.99 415.59,-533.75 434.7,-525.17"/>
<polygon fill="#63b8ff" stroke="#63b8ff" points="362.65,-553.69 354.96,-560.98 365.51,-560.08 362.65,-553.69"/>
</a>
</g>
</g>
<!-- Node10 -->
<g id="Node000010" class="node">
<title>Node10</title>
<g id="a_Node000010"><a xlink:href="audio__time__axis_8h.html" target="_top" xlink:title=" ">
<polygon fill="white" stroke="#666666" points="370,-415 264,-415 264,-396 370,-396 370,-415"/>
<text text-anchor="middle" x="317" y="-403" font-family="Helvetica,sans-Serif" font-size="10.00">audio_time_axis.h</text>
</a>
</g>
</g>
<!-- Node9&#45;&gt;Node10 -->
<g id="edge9_Node000009_Node000010" class="edge">
<title>Node9&#45;&gt;Node10</title>
<g id="a_edge9_Node000009_Node000010"><a xlink:title=" ">
<path fill="none" stroke="#63b8ff" d="M295.14,-502.12C279.76,-495.26 263.86,-484.98 255,-470 241.51,-447.19 274.13,-426.37 297,-415.16"/>
<polygon fill="#63b8ff" stroke="#63b8ff" points="294,-505.44 304.58,-505.97 296.64,-498.96 294,-505.44"/>
</a>
</g>
</g>
<!-- Node27 -->
<g id="Node000027" class="node">
<title>Node27</title>
<g id="a_Node000027"><a xlink:href="automation__streamview_8h.html" target="_top" xlink:title=" ">
<polygon fill="white" stroke="#666666" points="408,-470 264,-470 264,-451 408,-451 408,-470"/>
<text text-anchor="middle" x="336" y="-458" font-family="Helvetica,sans-Serif" font-size="10.00">automation_streamview.h</text>
</a>
</g>
</g>
<!-- Node9&#45;&gt;Node27 -->
<g id="edge28_Node000009_Node000027" class="edge">
<title>Node9&#45;&gt;Node27</title>
<g id="a_edge28_Node000009_Node000027"><a xlink:title=" ">
<path fill="none" stroke="#63b8ff" d="M336,-495.66C336,-486.93 336,-476.99 336,-470.09"/>
<polygon fill="#63b8ff" stroke="#63b8ff" points="332.5,-495.75 336,-505.75 339.5,-495.75 332.5,-495.75"/>
</a>
</g>
</g>
<!-- Node28 -->
<g id="Node000028" class="node">
<title>Node28</title>
<g id="a_Node000028"><a xlink:href="midi__streamview_8h.html" target="_top" xlink:title=" ">
<polygon fill="white" stroke="#666666" points="536,-470 426,-470 426,-451 536,-451 536,-470"/>
<text text-anchor="middle" x="481" y="-458" font-family="Helvetica,sans-Serif" font-size="10.00">midi_streamview.h</text>
</a>
</g>
</g>
<!-- Node9&#45;&gt;Node28 -->
<g id="edge29_Node000009_Node000028" class="edge">
<title>Node9&#45;&gt;Node28</title>
<g id="a_edge29_Node000009_Node000028"><a xlink:title=" ">
<path fill="none" stroke="#63b8ff" d="M368.69,-502.55C395.62,-492.71 433.16,-478.98 457.28,-470.17"/>
<polygon fill="#63b8ff" stroke="#63b8ff" points="367.49,-499.26 359.3,-505.98 369.89,-505.84 367.49,-499.26"/>
</a>
</g>
</g>
<!-- Node29 -->
<g id="Node000029" class="node">
<title>Node29</title>
<g id="a_Node000029"><a xlink:href="midi__time__axis_8h.html" target="_top" xlink:title=" ">
<polygon fill="white" stroke="#666666" points="561.5,-415 460.5,-415 460.5,-396 561.5,-396 561.5,-415"/>
<text text-anchor="middle" x="511" y="-403" font-family="Helvetica,sans-Serif" font-size="10.00">midi_time_axis.h</text>
</a>
</g>
</g>
<!-- Node9&#45;&gt;Node29 -->
<g id="edge34_Node000009_Node000029" class="edge">
<title>Node9&#45;&gt;Node29</title>
<g id="a_edge34_Node000009_Node000029"><a xlink:title=" ">
<path fill="none" stroke="#63b8ff" d="M398.3,-505.27C456.46,-496.01 535.67,-481.53 545,-470 559.16,-452.5 536.6,-428.22 521.96,-415.34"/>
<polygon fill="#63b8ff" stroke="#63b8ff" points="397.41,-501.87 388.07,-506.88 398.49,-508.78 397.41,-501.87"/>
</a>
</g>
</g>
<!-- Node11 -->
<g id="Node000011" class="node">
<title>Node11</title>
<g id="a_Node000011"><a xlink:href="track__view__list_8h.html" target="_top" xlink:title=" ">
<polygon fill="white" stroke="#666666" points="416.5,-360 317.5,-360 317.5,-341 416.5,-341 416.5,-360"/>
<text text-anchor="middle" x="367" y="-348" font-family="Helvetica,sans-Serif" font-size="10.00">track_view_list.h</text>
</a>
</g>
</g>
<!-- Node10&#45;&gt;Node11 -->
<g id="edge10_Node000010_Node000011" class="edge">
<title>Node10&#45;&gt;Node11</title>
<g id="a_edge10_Node000010_Node000011"><a xlink:title=" ">
<path fill="none" stroke="#63b8ff" d="M332.34,-388.24C341.1,-378.95 351.74,-367.68 358.9,-360.09"/>
<polygon fill="#63b8ff" stroke="#63b8ff" points="329.57,-386.07 325.26,-395.75 334.66,-390.88 329.57,-386.07"/>
</a>
</g>
</g>
<!-- Node12 -->
<g id="Node000012" class="node">
<title>Node12</title>
<g id="a_Node000012"><a xlink:href="track__selection_8h.html" target="_top" xlink:title=" ">
<polygon fill="white" stroke="#666666" points="417,-305 317,-305 317,-286 417,-286 417,-305"/>
<text text-anchor="middle" x="367" y="-293" font-family="Helvetica,sans-Serif" font-size="10.00">track_selection.h</text>
</a>
</g>
</g>
<!-- Node11&#45;&gt;Node12 -->
<g id="edge11_Node000011_Node000012" class="edge">
<title>Node11&#45;&gt;Node12</title>
<g id="a_edge11_Node000011_Node000012"><a xlink:title=" ">
<path fill="none" stroke="#63b8ff" d="M367,-330.66C367,-321.93 367,-311.99 367,-305.09"/>
<polygon fill="#63b8ff" stroke="#63b8ff" points="363.5,-330.75 367,-340.75 370.5,-330.75 363.5,-330.75"/>
</a>
</g>
</g>
<!-- Node13 -->
<g id="Node000013" class="node">
<title>Node13</title>
<g id="a_Node000013"><a xlink:href="editor__drag_8h.html" target="_top" xlink:title=" ">
<polygon fill="white" stroke="#666666" points="366.5,-250 285.5,-250 285.5,-231 366.5,-231 366.5,-250"/>
<text text-anchor="middle" x="326" y="-238" font-family="Helvetica,sans-Serif" font-size="10.00">editor_drag.h</text>
</a>
</g>
</g>
<!-- Node12&#45;&gt;Node13 -->
<g id="edge12_Node000012_Node000013" class="edge">
<title>Node12&#45;&gt;Node13</title>
<g id="a_edge12_Node000012_Node000013"><a xlink:title=" ">
<path fill="none" stroke="#63b8ff" d="M353.98,-277.67C346.88,-268.5 338.4,-257.52 332.64,-250.09"/>
<polygon fill="#63b8ff" stroke="#63b8ff" points="351.34,-279.98 360.23,-285.75 356.88,-275.7 351.34,-279.98"/>
</a>
</g>
</g>
<!-- Node14 -->
<g id="Node000014" class="node">
<title>Node14</title>
<g id="a_Node000014"><a xlink:href="gtk2__ardour_2selection_8h.html" target="_top" xlink:title=" ">
<polygon fill="white" stroke="#666666" points="455,-250 385,-250 385,-231 455,-231 455,-250"/>
<text text-anchor="middle" x="420" y="-238" font-family="Helvetica,sans-Serif" font-size="10.00">selection.h</text>
</a>
</g>
</g>
<!-- Node12&#45;&gt;Node14 -->
<g id="edge13_Node000012_Node000014" class="edge">
<title>Node12&#45;&gt;Node14</title>
<g id="a_edge13_Node000012_Node000014"><a xlink:title=" ">
<path fill="none" stroke="#63b8ff" d="M382.98,-278.52C392.32,-269.18 403.75,-257.75 411.41,-250.09"/>
<polygon fill="#63b8ff" stroke="#63b8ff" points="380.35,-276.2 375.75,-285.75 385.3,-281.15 380.35,-276.2"/>
</a>
</g>
</g>
<!-- Node15 -->
<g id="Node000015" class="node">
<title>Node15</title>
<g id="a_Node000015"><a xlink:href="editing__context_8h.html" target="_top" xlink:title=" ">
<polygon fill="white" stroke="#666666" points="331.5,-195 230.5,-195 230.5,-176 331.5,-176 331.5,-195"/>
<text text-anchor="middle" x="281" y="-183" font-family="Helvetica,sans-Serif" font-size="10.00">editing_context.h</text>
</a>
</g>
</g>
<!-- Node14&#45;&gt;Node15 -->
<g id="edge14_Node000014_Node000015" class="edge">
<title>Node14&#45;&gt;Node15</title>
<g id="a_edge14_Node000014_Node000015"><a xlink:title=" ">
<path fill="none" stroke="#63b8ff" d="M388.32,-227.42C362.53,-217.59 326.76,-203.95 303.74,-195.17"/>
<polygon fill="#63b8ff" stroke="#63b8ff" points="387.08,-230.69 397.67,-230.98 389.57,-224.15 387.08,-230.69"/>
</a>
</g>
</g>
<!-- Node18 -->
<g id="Node000018" class="node">
<title>Node18</title>
<g id="a_Node000018"><a xlink:href="public__editor_8h.html" target="_top" xlink:title=" ">
<polygon fill="white" stroke="#666666" points="435,-140 347,-140 347,-121 435,-121 435,-140"/>
<text text-anchor="middle" x="391" y="-128" font-family="Helvetica,sans-Serif" font-size="10.00">public_editor.h</text>
</a>
</g>
</g>
<!-- Node14&#45;&gt;Node18 -->
<g id="edge26_Node000014_Node000018" class="edge">
<title>Node14&#45;&gt;Node18</title>
<g id="a_edge26_Node000014_Node000018"><a xlink:title=" ">
<path fill="none" stroke="#63b8ff" d="M400.64,-223.82C392.64,-216.09 384.24,-206.06 380,-195 372.87,-176.4 380.97,-152.97 386.57,-140.41"/>
<polygon fill="#63b8ff" stroke="#63b8ff" points="398.58,-226.67 408.36,-230.73 403.25,-221.45 398.58,-226.67"/>
</a>
</g>
</g>
<!-- Node25 -->
<g id="Node000025" class="node">
<title>Node25</title>
<g id="a_Node000025"><a xlink:href="gtk2__ardour_2keyboard_8h.html" target="_top" xlink:title=" ">
<polygon fill="white" stroke="#666666" points="459.5,-195 388.5,-195 388.5,-176 459.5,-176 459.5,-195"/>
<text text-anchor="middle" x="424" y="-183" font-family="Helvetica,sans-Serif" font-size="10.00">keyboard.h</text>
</a>
</g>
</g>
<!-- Node14&#45;&gt;Node25 -->
<g id="edge25_Node000014_Node000025" class="edge">
<title>Node14&#45;&gt;Node25</title>
<g id="a_edge25_Node000014_Node000025"><a xlink:title=" ">
<path fill="none" stroke="#63b8ff" d="M421.42,-220.66C422.08,-211.93 422.83,-201.99 423.35,-195.09"/>
<polygon fill="#63b8ff" stroke="#63b8ff" points="417.92,-220.51 420.66,-230.75 424.9,-221.04 417.92,-220.51"/>
</a>
</g>
</g>
<!-- Node26 -->
<g id="Node000026" class="node">
<title>Node26</title>
<g id="a_Node000026"><a xlink:href="selection__templates_8h.html" target="_top" xlink:title=" ">
<polygon fill="white" stroke="#666666" points="602.5,-195 477.5,-195 477.5,-176 602.5,-176 602.5,-195"/>
<text text-anchor="middle" x="540" y="-183" font-family="Helvetica,sans-Serif" font-size="10.00">selection_templates.h</text>
</a>
</g>
</g>
<!-- Node14&#45;&gt;Node26 -->
<g id="edge27_Node000014_Node000026" class="edge">
<title>Node14&#45;&gt;Node26</title>
<g id="a_edge27_Node000014_Node000026"><a xlink:title=" ">
<path fill="none" stroke="#63b8ff" d="M448.53,-226.9C470.7,-217.11 500.85,-203.79 520.37,-195.17"/>
<polygon fill="#63b8ff" stroke="#63b8ff" points="447.01,-223.74 439.28,-230.98 449.84,-230.15 447.01,-223.74"/>
</a>
</g>
</g>
<!-- Node16 -->
<g id="Node000016" class="node">
<title>Node16</title>
<g id="a_Node000016"><a xlink:href="cue__editor_8h.html" target="_top" xlink:title=" ">
<polygon fill="white" stroke="#666666" points="198,-140 122,-140 122,-121 198,-121 198,-140"/>
<text text-anchor="middle" x="160" y="-128" font-family="Helvetica,sans-Serif" font-size="10.00">cue_editor.h</text>
</a>
</g>
</g>
<!-- Node15&#45;&gt;Node16 -->
<g id="edge15_Node000015_Node000016" class="edge">
<title>Node15&#45;&gt;Node16</title>
<g id="a_edge15_Node000015_Node000016"><a xlink:title=" ">
<path fill="none" stroke="#63b8ff" d="M252.23,-171.9C229.88,-162.11 199.48,-148.79 179.79,-140.17"/>
<polygon fill="#63b8ff" stroke="#63b8ff" points="251,-175.18 261.56,-175.98 253.8,-168.77 251,-175.18"/>
</a>
</g>
</g>
<!-- Node15&#45;&gt;Node18 -->
<g id="edge18_Node000015_Node000018" class="edge">
<title>Node15&#45;&gt;Node18</title>
<g id="a_edge18_Node000015_Node000018"><a xlink:title=" ">
<path fill="none" stroke="#63b8ff" d="M307.7,-171.63C327.97,-161.87 355.27,-148.71 373.01,-140.17"/>
<polygon fill="#63b8ff" stroke="#63b8ff" points="306.16,-168.49 298.67,-175.98 309.2,-174.8 306.16,-168.49"/>
</a>
</g>
</g>
<!-- Node16&#45;&gt;Node2 -->
<g id="edge16_Node000016_Node000002" class="edge">
<title>Node16&#45;&gt;Node2</title>
<g id="a_edge16_Node000016_Node000002"><a xlink:title=" ">
<path fill="none" stroke="#63b8ff" d="M135.4,-115.92C115.14,-104.74 87.03,-89.23 69.7,-79.67"/>
<polygon fill="#63b8ff" stroke="#63b8ff" points="133.91,-119.1 144.36,-120.87 137.3,-112.97 133.91,-119.1"/>
</a>
</g>
</g>
<!-- Node17 -->
<g id="Node000017" class="node">
<title>Node17</title>
<g id="a_Node000017"><a xlink:href="pianoroll_8h.html" target="_top" xlink:title=" ">
<polygon fill="white" stroke="#666666" points="194,-79.5 126,-79.5 126,-60.5 194,-60.5 194,-79.5"/>
<text text-anchor="middle" x="160" y="-67.5" font-family="Helvetica,sans-Serif" font-size="10.00">pianoroll.h</text>
</a>
</g>
</g>
<!-- Node16&#45;&gt;Node17 -->
<g id="edge17_Node000016_Node000017" class="edge">
<title>Node16&#45;&gt;Node17</title>
<g id="a_edge17_Node000016_Node000017"><a xlink:title=" ">
<path fill="none" stroke="#63b8ff" d="M160,-110.66C160,-100.24 160,-87.8 160,-79.67"/>
<polygon fill="#63b8ff" stroke="#63b8ff" points="156.5,-110.87 160,-120.87 163.5,-110.87 156.5,-110.87"/>
</a>
</g>
</g>
<!-- Node19 -->
<g id="Node000019" class="node">
<title>Node19</title>
<g id="a_Node000019"><a xlink:href="editor_8h.html" target="_top" xlink:title=" ">
<polygon fill="white" stroke="#666666" points="265.5,-79.5 212.5,-79.5 212.5,-60.5 265.5,-60.5 265.5,-79.5"/>
<text text-anchor="middle" x="239" y="-67.5" font-family="Helvetica,sans-Serif" font-size="10.00">editor.h</text>
</a>
</g>
</g>
<!-- Node18&#45;&gt;Node19 -->
<g id="edge19_Node000018_Node000019" class="edge">
<title>Node18&#45;&gt;Node19</title>
<g id="a_edge19_Node000018_Node000019"><a xlink:title=" ">
<path fill="none" stroke="#63b8ff" d="M359.35,-117.4C336.02,-108.48 303.52,-96.02 275,-85 270.5,-83.26 265.68,-81.39 261.08,-79.6"/>
<polygon fill="#63b8ff" stroke="#63b8ff" points="358.16,-120.7 368.75,-121 360.66,-114.16 358.16,-120.7"/>
</a>
</g>
</g>
<!-- Node20 -->
<g id="Node000020" class="node">
<title>Node20</title>
<g id="a_Node000020"><a xlink:href="export__dialog_8h.html" target="_top" xlink:title=" ">
<polygon fill="white" stroke="#666666" points="376,-79.5 284,-79.5 284,-60.5 376,-60.5 376,-79.5"/>
<text text-anchor="middle" x="330" y="-67.5" font-family="Helvetica,sans-Serif" font-size="10.00">export_dialog.h</text>
</a>
</g>
</g>
<!-- Node18&#45;&gt;Node20 -->
<g id="edge20_Node000018_Node000020" class="edge">
<title>Node18&#45;&gt;Node20</title>
<g id="a_edge20_Node000018_Node000020"><a xlink:title=" ">
<path fill="none" stroke="#63b8ff" d="M374.74,-113.91C363.3,-102.94 348.42,-88.67 339.04,-79.67"/>
<polygon fill="#63b8ff" stroke="#63b8ff" points="372.36,-116.47 382,-120.87 377.2,-111.42 372.36,-116.47"/>
</a>
</g>
</g>
<!-- Node21 -->
<g id="Node000021" class="node">
<title>Node21</title>
<g id="a_Node000021"><a xlink:href="insert__remove__time__dialog_8h.html" target="_top" xlink:title=" ">
<polygon fill="white" stroke="#666666" points="509.5,-85 394.5,-85 394.5,-55 509.5,-55 509.5,-85"/>
<text text-anchor="start" x="402.5" y="-73" font-family="Helvetica,sans-Serif" font-size="10.00">insert_remove_time</text>
<text text-anchor="middle" x="452" y="-62" font-family="Helvetica,sans-Serif" font-size="10.00">_dialog.h</text>
</a>
</g>
</g>
<!-- Node18&#45;&gt;Node21 -->
<g id="edge21_Node000018_Node000021" class="edge">
<title>Node18&#45;&gt;Node21</title>
<g id="a_edge21_Node000018_Node000021"><a xlink:title=" ">
<path fill="none" stroke="#63b8ff" d="M407.48,-113.7C416.77,-104.78 428.29,-93.74 437.28,-85.11"/>
<polygon fill="#63b8ff" stroke="#63b8ff" points="404.8,-111.42 400,-120.87 409.64,-116.47 404.8,-111.42"/>
</a>
</g>
</g>
<!-- Node22 -->
<g id="Node000022" class="node">
<title>Node22</title>
<g id="a_Node000022"><a xlink:href="midi__export__dialog_8h.html" target="_top" xlink:title=" ">
<polygon fill="white" stroke="#666666" points="646.5,-79.5 527.5,-79.5 527.5,-60.5 646.5,-60.5 646.5,-79.5"/>
<text text-anchor="middle" x="587" y="-67.5" font-family="Helvetica,sans-Serif" font-size="10.00">midi_export_dialog.h</text>
</a>
</g>
</g>
<!-- Node18&#45;&gt;Node22 -->
<g id="edge22_Node000018_Node000022" class="edge">
<title>Node18&#45;&gt;Node22</title>
<g id="a_edge22_Node000018_Node000022"><a xlink:title=" ">
<path fill="none" stroke="#63b8ff" d="M429.17,-118.11C467.08,-106.79 524.34,-89.7 558.47,-79.52"/>
<polygon fill="#63b8ff" stroke="#63b8ff" points="428.08,-114.78 419.5,-120.99 430.08,-121.49 428.08,-114.78"/>
</a>
</g>
</g>
<!-- Node23 -->
<g id="Node000023" class="node">
<title>Node23</title>
<g id="a_Node000023"><a xlink:href="simple__export__dialog_8h.html" target="_top" xlink:title=" ">
<polygon fill="white" stroke="#666666" points="795.5,-79.5 664.5,-79.5 664.5,-60.5 795.5,-60.5 795.5,-79.5"/>
<text text-anchor="middle" x="730" y="-67.5" font-family="Helvetica,sans-Serif" font-size="10.00">simple_export_dialog.h</text>
</a>
</g>
</g>
<!-- Node18&#45;&gt;Node23 -->
<g id="edge23_Node000018_Node000023" class="edge">
<title>Node18&#45;&gt;Node23</title>
<g id="a_edge23_Node000018_Node000023"><a xlink:title=" ">
<path fill="none" stroke="#63b8ff" d="M445.09,-120.75C498.69,-112 583.09,-98.02 656,-85 665.65,-83.28 676,-81.36 685.81,-79.51"/>
<polygon fill="#63b8ff" stroke="#63b8ff" points="444.43,-117.31 435.12,-122.38 445.56,-124.22 444.43,-117.31"/>
</a>
</g>
</g>
<!-- Node24 -->
<g id="Node000024" class="node">
<title>Node24</title>
<g id="a_Node000024"><a xlink:href="tempo__map__change_8h.html" target="_top" xlink:title=" ">
<polygon fill="white" stroke="#666666" points="938.5,-79.5 813.5,-79.5 813.5,-60.5 938.5,-60.5 938.5,-79.5"/>
<text text-anchor="middle" x="876" y="-67.5" font-family="Helvetica,sans-Serif" font-size="10.00">tempo_map_change.h</text>
</a>
</g>
</g>
<!-- Node18&#45;&gt;Node24 -->
<g id="edge24_Node000018_Node000024" class="edge">
<title>Node18&#45;&gt;Node24</title>
<g id="a_edge24_Node000018_Node000024"><a xlink:title=" ">
<path fill="none" stroke="#63b8ff" d="M445.52,-125.17C524.89,-118.53 676.76,-104.5 805,-85 815.06,-83.47 825.86,-81.51 835.93,-79.54"/>
<polygon fill="#63b8ff" stroke="#63b8ff" points="444.96,-121.71 435.28,-126.02 445.53,-128.68 444.96,-121.71"/>
</a>
</g>
</g>
<!-- Node28&#45;&gt;Node29 -->
<g id="edge30_Node000028_Node000029" class="edge">
<title>Node28&#45;&gt;Node29</title>
<g id="a_edge30_Node000028_Node000029"><a xlink:title=" ">
<path fill="none" stroke="#63b8ff" d="M491.01,-441.82C496.1,-432.82 502.06,-422.29 506.14,-415.09"/>
<polygon fill="#63b8ff" stroke="#63b8ff" points="487.83,-440.32 485.95,-450.75 493.93,-443.77 487.83,-440.32"/>
</a>
</g>
</g>
<!-- Node29&#45;&gt;Node11 -->
<g id="edge33_Node000029_Node000011" class="edge">
<title>Node29&#45;&gt;Node11</title>
<g id="a_edge33_Node000029_Node000011"><a xlink:title=" ">
<path fill="none" stroke="#63b8ff" d="M478.18,-392.42C451.47,-382.59 414.4,-368.95 390.56,-360.17"/>
<polygon fill="#63b8ff" stroke="#63b8ff" points="477.27,-395.82 487.86,-395.98 479.69,-389.25 477.27,-395.82"/>
</a>
</g>
</g>
<!-- Node30 -->
<g id="Node000030" class="node">
<title>Node30</title>
<g id="a_Node000030"><a xlink:href="midi__region__view_8h.html" target="_top" xlink:title=" ">
<polygon fill="white" stroke="#666666" points="589.5,-305 478.5,-305 478.5,-286 589.5,-286 589.5,-305"/>
<text text-anchor="middle" x="534" y="-293" font-family="Helvetica,sans-Serif" font-size="10.00">midi_region_view.h</text>
</a>
</g>
</g>
<!-- Node29&#45;&gt;Node30 -->
<g id="edge31_Node000029_Node000030" class="edge">
<title>Node29&#45;&gt;Node30</title>
<g id="a_edge31_Node000029_Node000030"><a xlink:title=" ">
<path fill="none" stroke="#63b8ff" d="M514.98,-385.8C520.01,-362.2 528.45,-322.58 532.16,-305.16"/>
<polygon fill="#63b8ff" stroke="#63b8ff" points="511.54,-385.15 512.88,-395.66 518.39,-386.61 511.54,-385.15"/>
</a>
</g>
</g>
<!-- Node30&#45;&gt;Node26 -->
<g id="edge32_Node000030_Node000026" class="edge">
<title>Node30&#45;&gt;Node26</title>
<g id="a_edge32_Node000030_Node000026"><a xlink:title=" ">
<path fill="none" stroke="#63b8ff" d="M535.06,-275.48C536.37,-251.84 538.56,-212.5 539.52,-195.16"/>
<polygon fill="#63b8ff" stroke="#63b8ff" points="531.55,-275.48 534.49,-285.66 538.54,-275.87 531.55,-275.48"/>
</a>
</g>
</g>
</g>
</svg>
