<?xml version="1.0" encoding="UTF-8" standalone="no"?>
<!DOCTYPE svg PUBLIC "-//W3C//DTD SVG 1.1//EN"
 "http://www.w3.org/Graphics/SVG/1.1/DTD/svg11.dtd">
<!-- Generated by graphviz version 2.43.0 (0)
 -->
<!-- Title: linux_vst_support.h Pages: 1 -->
<svg width="520pt" height="192pt"
 viewBox="0.00 0.00 520.00 192.00" xmlns="http://www.w3.org/2000/svg" xmlns:xlink="http://www.w3.org/1999/xlink">
<g id="graph0" class="graph" transform="scale(1 1) rotate(0) translate(4 188)">
<title>linux_vst_support.h</title>
<!-- Node1 -->
<g id="Node000001" class="node">
<title>Node1</title>
<g id="a_Node000001"><a xlink:title=" ">
<polygon fill="#999999" stroke="#666666" points="242.5,-184 130.5,-184 130.5,-165 242.5,-165 242.5,-184"/>
<text text-anchor="middle" x="186.5" y="-172" font-family="Helvetica,sans-Serif" font-size="10.00">linux_vst_support.h</text>
</a>
</g>
</g>
<!-- Node2 -->
<g id="Node000002" class="node">
<title>Node2</title>
<g id="a_Node000002"><a xlink:title=" ">
<polygon fill="#e0e0e0" stroke="#999999" points="59,-129 0,-129 0,-110 59,-110 59,-129"/>
<text text-anchor="middle" x="29.5" y="-117" font-family="Helvetica,sans-Serif" font-size="10.00">setjmp.h</text>
</a>
</g>
</g>
<!-- Node1&#45;&gt;Node2 -->
<g id="edge1_Node000001_Node000002" class="edge">
<title>Node1&#45;&gt;Node2</title>
<g id="a_edge1_Node000001_Node000002"><a xlink:title=" ">
<path fill="none" stroke="#63b8ff" d="M161.28,-164.98C135.14,-156.16 94.1,-142.31 64.77,-132.41"/>
<polygon fill="#63b8ff" stroke="#63b8ff" points="65.52,-128.96 54.92,-129.08 63.28,-135.6 65.52,-128.96"/>
</a>
</g>
</g>
<!-- Node3 -->
<g id="Node000003" class="node">
<title>Node3</title>
<g id="a_Node000003"><a xlink:title=" ">
<polygon fill="#e0e0e0" stroke="#999999" points="132,-129 77,-129 77,-110 132,-110 132,-129"/>
<text text-anchor="middle" x="104.5" y="-117" font-family="Helvetica,sans-Serif" font-size="10.00">signal.h</text>
</a>
</g>
</g>
<!-- Node1&#45;&gt;Node3 -->
<g id="edge2_Node000001_Node000003" class="edge">
<title>Node1&#45;&gt;Node3</title>
<g id="a_edge2_Node000001_Node000003"><a xlink:title=" ">
<path fill="none" stroke="#63b8ff" d="M173.33,-164.98C160.73,-156.84 141.5,-144.41 126.56,-134.76"/>
<polygon fill="#63b8ff" stroke="#63b8ff" points="128.21,-131.66 117.91,-129.17 124.41,-137.54 128.21,-131.66"/>
</a>
</g>
</g>
<!-- Node4 -->
<g id="Node000004" class="node">
<title>Node4</title>
<g id="a_Node000004"><a xlink:title=" ">
<polygon fill="#e0e0e0" stroke="#999999" points="192,-74 129,-74 129,-55 192,-55 192,-74"/>
<text text-anchor="middle" x="160.5" y="-62" font-family="Helvetica,sans-Serif" font-size="10.00">pthread.h</text>
</a>
</g>
</g>
<!-- Node1&#45;&gt;Node4 -->
<g id="edge3_Node000001_Node000004" class="edge">
<title>Node1&#45;&gt;Node4</title>
<g id="a_edge3_Node000001_Node000004"><a xlink:title=" ">
<path fill="none" stroke="#63b8ff" d="M184.37,-164.66C180.14,-147.09 170.6,-107.45 164.94,-83.95"/>
<polygon fill="#63b8ff" stroke="#63b8ff" points="168.33,-83.06 162.58,-74.16 161.52,-84.7 168.33,-83.06"/>
</a>
</g>
</g>
<!-- Node5 -->
<g id="Node000005" class="node">
<title>Node5</title>
<g id="a_Node000005"><a xlink:title=" ">
<polygon fill="#e0e0e0" stroke="#999999" points="238.5,-129 188.5,-129 188.5,-110 238.5,-110 238.5,-129"/>
<text text-anchor="middle" x="213.5" y="-117" font-family="Helvetica,sans-Serif" font-size="10.00">stdio.h</text>
</a>
</g>
</g>
<!-- Node1&#45;&gt;Node5 -->
<g id="edge4_Node000001_Node000005" class="edge">
<title>Node1&#45;&gt;Node5</title>
<g id="a_edge4_Node000001_Node000005"><a xlink:title=" ">
<path fill="none" stroke="#63b8ff" d="M190.96,-164.75C194.62,-157.57 199.91,-147.18 204.45,-138.27"/>
<polygon fill="#63b8ff" stroke="#63b8ff" points="207.7,-139.59 209.12,-129.09 201.47,-136.41 207.7,-139.59"/>
</a>
</g>
</g>
<!-- Node6 -->
<g id="Node000006" class="node">
<title>Node6</title>
<g id="a_Node000006"><a xlink:href="libardour__visibility_8h.html" target="_top" xlink:title=" ">
<polygon fill="white" stroke="#666666" points="512,-74 363,-74 363,-55 512,-55 512,-74"/>
<text text-anchor="middle" x="437.5" y="-62" font-family="Helvetica,sans-Serif" font-size="10.00">ardour/libardour_visibility.h</text>
</a>
</g>
</g>
<!-- Node1&#45;&gt;Node6 -->
<g id="edge5_Node000001_Node000006" class="edge">
<title>Node1&#45;&gt;Node6</title>
<g id="a_edge5_Node000001_Node000006"><a xlink:title=" ">
<path fill="none" stroke="#63b8ff" d="M242.64,-168.02C281.1,-162.42 332.24,-151.22 372.5,-129 393.55,-117.39 412.57,-97.1 424.52,-82.58"/>
<polygon fill="#63b8ff" stroke="#63b8ff" points="427.52,-84.42 431,-74.42 422.04,-80.07 427.52,-84.42"/>
</a>
</g>
</g>
<!-- Node7 -->
<g id="Node000007" class="node">
<title>Node7</title>
<g id="a_Node000007"><a xlink:href="vst__types_8h.html" target="_top" xlink:title=" ">
<polygon fill="white" stroke="#666666" points="364,-129 257,-129 257,-110 364,-110 364,-129"/>
<text text-anchor="middle" x="310.5" y="-117" font-family="Helvetica,sans-Serif" font-size="10.00">ardour/vst_types.h</text>
</a>
</g>
</g>
<!-- Node1&#45;&gt;Node7 -->
<g id="edge6_Node000001_Node000007" class="edge">
<title>Node1&#45;&gt;Node7</title>
<g id="a_edge6_Node000001_Node000007"><a xlink:title=" ">
<path fill="none" stroke="#63b8ff" d="M206.42,-164.98C226.55,-156.38 257.88,-142.99 280.91,-133.15"/>
<polygon fill="#63b8ff" stroke="#63b8ff" points="282.4,-136.32 290.21,-129.17 279.64,-129.88 282.4,-136.32"/>
</a>
</g>
</g>
<!-- Node7&#45;&gt;Node4 -->
<g id="edge7_Node000007_Node000004" class="edge">
<title>Node7&#45;&gt;Node4</title>
<g id="a_edge7_Node000007_Node000004"><a xlink:title=" ">
<path fill="none" stroke="#63b8ff" d="M286.4,-109.98C261.62,-101.23 222.8,-87.51 194.81,-77.62"/>
<polygon fill="#63b8ff" stroke="#63b8ff" points="195.63,-74.2 185.04,-74.17 193.3,-80.8 195.63,-74.2"/>
</a>
</g>
</g>
<!-- Node7&#45;&gt;Node6 -->
<g id="edge8_Node000007_Node000006" class="edge">
<title>Node7&#45;&gt;Node6</title>
<g id="a_edge8_Node000007_Node000006"><a xlink:title=" ">
<path fill="none" stroke="#63b8ff" d="M330.9,-109.98C351.52,-101.38 383.61,-87.99 407.19,-78.15"/>
<polygon fill="#63b8ff" stroke="#63b8ff" points="408.84,-81.25 416.72,-74.17 406.15,-74.79 408.84,-81.25"/>
</a>
</g>
</g>
<!-- Node8 -->
<g id="Node000008" class="node">
<title>Node8</title>
<g id="a_Node000008"><a xlink:href="vestige_8h.html" target="_top" xlink:title=" ">
<polygon fill="white" stroke="#666666" points="345,-74 210,-74 210,-55 345,-55 345,-74"/>
<text text-anchor="middle" x="277.5" y="-62" font-family="Helvetica,sans-Serif" font-size="10.00">ardour/vestige/vestige.h</text>
</a>
</g>
</g>
<!-- Node7&#45;&gt;Node8 -->
<g id="edge9_Node000007_Node000008" class="edge">
<title>Node7&#45;&gt;Node8</title>
<g id="a_edge9_Node000007_Node000008"><a xlink:title=" ">
<path fill="none" stroke="#63b8ff" d="M305.05,-109.75C300.49,-102.42 293.83,-91.73 288.21,-82.7"/>
<polygon fill="#63b8ff" stroke="#63b8ff" points="291.1,-80.73 282.85,-74.09 285.16,-84.43 291.1,-80.73"/>
</a>
</g>
</g>
<!-- Node9 -->
<g id="Node000009" class="node">
<title>Node9</title>
<g id="a_Node000009"><a xlink:title=" ">
<polygon fill="#e0e0e0" stroke="#999999" points="304,-19 251,-19 251,0 304,0 304,-19"/>
<text text-anchor="middle" x="277.5" y="-7" font-family="Helvetica,sans-Serif" font-size="10.00">stdint.h</text>
</a>
</g>
</g>
<!-- Node8&#45;&gt;Node9 -->
<g id="edge10_Node000008_Node000009" class="edge">
<title>Node8&#45;&gt;Node9</title>
<g id="a_edge10_Node000008_Node000009"><a xlink:title=" ">
<path fill="none" stroke="#63b8ff" d="M277.5,-54.75C277.5,-47.8 277.5,-37.85 277.5,-29.13"/>
<polygon fill="#63b8ff" stroke="#63b8ff" points="281,-29.09 277.5,-19.09 274,-29.09 281,-29.09"/>
</a>
</g>
</g>
</g>
</svg>
