<?xml version="1.0" encoding="UTF-8" standalone="no"?>
<!DOCTYPE svg PUBLIC "-//W3C//DTD SVG 1.1//EN"
 "http://www.w3.org/Graphics/SVG/1.1/DTD/svg11.dtd">
<!-- Generated by graphviz version 2.43.0 (0)
 -->
<!-- Title: listed_source.h Pages: 1 -->
<svg width="1441pt" height="412pt"
 viewBox="0.00 0.00 1440.50 412.00" xmlns="http://www.w3.org/2000/svg" xmlns:xlink="http://www.w3.org/1999/xlink">
<g id="graph0" class="graph" transform="scale(1 1) rotate(0) translate(4 408)">
<title>listed_source.h</title>
<!-- Node1 -->
<g id="Node000001" class="node">
<title>Node1</title>
<g id="a_Node000001"><a xlink:title=" ">
<polygon fill="#999999" stroke="#666666" points="625.5,-404 535.5,-404 535.5,-385 625.5,-385 625.5,-404"/>
<text text-anchor="middle" x="580.5" y="-392" font-family="Helvetica,sans-Serif" font-size="10.00">listed_source.h</text>
</a>
</g>
</g>
<!-- Node2 -->
<g id="Node000002" class="node">
<title>Node2</title>
<g id="a_Node000002"><a xlink:href="chunker_8h.html" target="_top" xlink:title=" ">
<polygon fill="white" stroke="#666666" points="63,-349 0,-349 0,-330 63,-330 63,-349"/>
<text text-anchor="middle" x="31.5" y="-337" font-family="Helvetica,sans-Serif" font-size="10.00">chunker.h</text>
</a>
</g>
</g>
<!-- Node1&#45;&gt;Node2 -->
<g id="edge1_Node000001_Node000002" class="edge">
<title>Node1&#45;&gt;Node2</title>
<g id="a_edge1_Node000001_Node000002"><a xlink:title=" ">
<path fill="none" stroke="#63b8ff" d="M525.24,-390.89C431.51,-385.96 235.55,-373.51 71.5,-349 68.83,-348.6 66.07,-348.13 63.31,-347.63"/>
<polygon fill="#63b8ff" stroke="#63b8ff" points="525.18,-394.39 535.34,-391.41 525.54,-387.4 525.18,-394.39"/>
</a>
</g>
</g>
<!-- Node3 -->
<g id="Node000003" class="node">
<title>Node3</title>
<g id="a_Node000003"><a xlink:href="demo__noise_8h.html" target="_top" xlink:title=" ">
<polygon fill="white" stroke="#666666" points="166,-349 81,-349 81,-330 166,-330 166,-349"/>
<text text-anchor="middle" x="123.5" y="-337" font-family="Helvetica,sans-Serif" font-size="10.00">demo_noise.h</text>
</a>
</g>
</g>
<!-- Node1&#45;&gt;Node3 -->
<g id="edge2_Node000001_Node000003" class="edge">
<title>Node1&#45;&gt;Node3</title>
<g id="a_edge2_Node000001_Node000003"><a xlink:title=" ">
<path fill="none" stroke="#63b8ff" d="M525.37,-388.37C447.33,-380.9 300.26,-366.04 175.5,-349 172.42,-348.58 169.24,-348.12 166.04,-347.64"/>
<polygon fill="#63b8ff" stroke="#63b8ff" points="525.17,-391.87 535.46,-389.33 525.83,-384.9 525.17,-391.87"/>
</a>
</g>
</g>
<!-- Node4 -->
<g id="Node000004" class="node">
<title>Node4</title>
<g id="a_Node000004"><a xlink:href="identity__vertex_8h.html" target="_top" xlink:title=" ">
<polygon fill="white" stroke="#666666" points="284.5,-349 184.5,-349 184.5,-330 284.5,-330 284.5,-349"/>
<text text-anchor="middle" x="234.5" y="-337" font-family="Helvetica,sans-Serif" font-size="10.00">identity_vertex.h</text>
</a>
</g>
</g>
<!-- Node1&#45;&gt;Node4 -->
<g id="edge3_Node000001_Node000004" class="edge">
<title>Node1&#45;&gt;Node4</title>
<g id="a_edge3_Node000001_Node000004"><a xlink:title=" ">
<path fill="none" stroke="#63b8ff" d="M525,-385C458.59,-374.83 348.38,-357.94 284.51,-348.16"/>
<polygon fill="#63b8ff" stroke="#63b8ff" points="524.85,-388.52 535.27,-386.57 525.91,-381.6 524.85,-388.52"/>
</a>
</g>
</g>
<!-- Node7 -->
<g id="Node000007" class="node">
<title>Node7</title>
<g id="a_Node000007"><a xlink:href="interleaver_8h.html" target="_top" xlink:title=" ">
<polygon fill="white" stroke="#666666" points="380.5,-349 302.5,-349 302.5,-330 380.5,-330 380.5,-349"/>
<text text-anchor="middle" x="341.5" y="-337" font-family="Helvetica,sans-Serif" font-size="10.00">interleaver.h</text>
</a>
</g>
</g>
<!-- Node1&#45;&gt;Node7 -->
<g id="edge6_Node000001_Node000007" class="edge">
<title>Node1&#45;&gt;Node7</title>
<g id="a_edge6_Node000001_Node000007"><a xlink:title=" ">
<path fill="none" stroke="#63b8ff" d="M532.32,-382.82C487.53,-372.88 421.66,-358.28 380.2,-349.08"/>
<polygon fill="#63b8ff" stroke="#63b8ff" points="531.58,-386.24 542.1,-384.98 533.1,-379.4 531.58,-386.24"/>
</a>
</g>
</g>
<!-- Node8 -->
<g id="Node000008" class="node">
<title>Node8</title>
<g id="a_Node000008"><a xlink:href="audiographer_2general_2limiter_8h.html" target="_top" xlink:title=" ">
<polygon fill="white" stroke="#666666" points="456,-349 399,-349 399,-330 456,-330 456,-349"/>
<text text-anchor="middle" x="427.5" y="-337" font-family="Helvetica,sans-Serif" font-size="10.00">limiter.h</text>
</a>
</g>
</g>
<!-- Node1&#45;&gt;Node8 -->
<g id="edge7_Node000001_Node000008" class="edge">
<title>Node1&#45;&gt;Node8</title>
<g id="a_edge7_Node000001_Node000008"><a xlink:title=" ">
<path fill="none" stroke="#63b8ff" d="M546.35,-381.67C517.82,-371.79 477.81,-357.93 452.27,-349.08"/>
<polygon fill="#63b8ff" stroke="#63b8ff" points="545.32,-385.02 555.92,-384.98 547.61,-378.4 545.32,-385.02"/>
</a>
</g>
</g>
<!-- Node9 -->
<g id="Node000009" class="node">
<title>Node9</title>
<g id="a_Node000009"><a xlink:href="loudness__reader_8h.html" target="_top" xlink:title=" ">
<polygon fill="white" stroke="#666666" points="579,-349 474,-349 474,-330 579,-330 579,-349"/>
<text text-anchor="middle" x="526.5" y="-337" font-family="Helvetica,sans-Serif" font-size="10.00">loudness_reader.h</text>
</a>
</g>
</g>
<!-- Node1&#45;&gt;Node9 -->
<g id="edge8_Node000001_Node000009" class="edge">
<title>Node1&#45;&gt;Node9</title>
<g id="a_edge8_Node000001_Node000009"><a xlink:title=" ">
<path fill="none" stroke="#63b8ff" d="M564.22,-377.52C554.7,-368.18 543.06,-356.75 535.25,-349.09"/>
<polygon fill="#63b8ff" stroke="#63b8ff" points="561.99,-380.24 571.58,-384.75 566.9,-375.25 561.99,-380.24"/>
</a>
</g>
</g>
<!-- Node11 -->
<g id="Node000011" class="node">
<title>Node11</title>
<g id="a_Node000011"><a xlink:href="normalizer_8h.html" target="_top" xlink:title=" ">
<polygon fill="white" stroke="#666666" points="674,-349 597,-349 597,-330 674,-330 674,-349"/>
<text text-anchor="middle" x="635.5" y="-337" font-family="Helvetica,sans-Serif" font-size="10.00">normalizer.h</text>
</a>
</g>
</g>
<!-- Node1&#45;&gt;Node11 -->
<g id="edge10_Node000001_Node000011" class="edge">
<title>Node1&#45;&gt;Node11</title>
<g id="a_edge10_Node000001_Node000011"><a xlink:title=" ">
<path fill="none" stroke="#63b8ff" d="M596.79,-377.8C606.54,-368.41 618.55,-356.83 626.59,-349.09"/>
<polygon fill="#63b8ff" stroke="#63b8ff" points="594.35,-375.29 589.58,-384.75 599.21,-380.33 594.35,-375.29"/>
</a>
</g>
</g>
<!-- Node12 -->
<g id="Node000012" class="node">
<title>Node12</title>
<g id="a_Node000012"><a xlink:href="peak__reader_8h.html" target="_top" xlink:title=" ">
<polygon fill="white" stroke="#666666" points="778.5,-349 692.5,-349 692.5,-330 778.5,-330 778.5,-349"/>
<text text-anchor="middle" x="735.5" y="-337" font-family="Helvetica,sans-Serif" font-size="10.00">peak_reader.h</text>
</a>
</g>
</g>
<!-- Node1&#45;&gt;Node12 -->
<g id="edge11_Node000001_Node000012" class="edge">
<title>Node1&#45;&gt;Node12</title>
<g id="a_edge11_Node000001_Node000012"><a xlink:title=" ">
<path fill="none" stroke="#63b8ff" d="M615.1,-381.67C644,-371.79 684.53,-357.93 710.4,-349.08"/>
<polygon fill="#63b8ff" stroke="#63b8ff" points="613.73,-378.44 605.4,-384.98 616,-385.06 613.73,-378.44"/>
</a>
</g>
</g>
<!-- Node13 -->
<g id="Node000013" class="node">
<title>Node13</title>
<g id="a_Node000013"><a xlink:href="sample__format__converter_8h.html" target="_top" xlink:title=" ">
<polygon fill="white" stroke="#666666" points="772,-294 621,-294 621,-275 772,-275 772,-294"/>
<text text-anchor="middle" x="696.5" y="-282" font-family="Helvetica,sans-Serif" font-size="10.00">sample_format_converter.h</text>
</a>
</g>
</g>
<!-- Node1&#45;&gt;Node13 -->
<g id="edge12_Node000001_Node000013" class="edge">
<title>Node1&#45;&gt;Node13</title>
<g id="a_edge12_Node000001_Node000013"><a xlink:title=" ">
<path fill="none" stroke="#63b8ff" d="M636.11,-389.28C690.81,-383.84 768.78,-372.17 787.5,-349 807.78,-323.9 762.56,-304.46 728.88,-294.02"/>
<polygon fill="#63b8ff" stroke="#63b8ff" points="635.47,-385.83 625.84,-390.26 636.13,-392.79 635.47,-385.83"/>
</a>
</g>
</g>
<!-- Node20 -->
<g id="Node000020" class="node">
<title>Node20</title>
<g id="a_Node000020"><a xlink:href="silence__trimmer_8h.html" target="_top" xlink:title=" ">
<polygon fill="white" stroke="#666666" points="1050.5,-349 946.5,-349 946.5,-330 1050.5,-330 1050.5,-349"/>
<text text-anchor="middle" x="998.5" y="-337" font-family="Helvetica,sans-Serif" font-size="10.00">silence_trimmer.h</text>
</a>
</g>
</g>
<!-- Node1&#45;&gt;Node20 -->
<g id="edge22_Node000001_Node000020" class="edge">
<title>Node1&#45;&gt;Node20</title>
<g id="a_edge22_Node000001_Node000020"><a xlink:title=" ">
<path fill="none" stroke="#63b8ff" d="M635.55,-386.89C705.7,-378.4 830.68,-363.1 937.5,-349 940.36,-348.62 943.3,-348.23 946.26,-347.83"/>
<polygon fill="#63b8ff" stroke="#63b8ff" points="635.12,-383.41 625.61,-388.09 635.96,-390.36 635.12,-383.41"/>
</a>
</g>
</g>
<!-- Node21 -->
<g id="Node000021" class="node">
<title>Node21</title>
<g id="a_Node000021"><a xlink:href="sndfile__reader_8h.html" target="_top" xlink:title=" ">
<polygon fill="white" stroke="#666666" points="928.5,-349 834.5,-349 834.5,-330 928.5,-330 928.5,-349"/>
<text text-anchor="middle" x="881.5" y="-337" font-family="Helvetica,sans-Serif" font-size="10.00">sndfile_reader.h</text>
</a>
</g>
</g>
<!-- Node1&#45;&gt;Node21 -->
<g id="edge23_Node000001_Node000021" class="edge">
<title>Node1&#45;&gt;Node21</title>
<g id="a_edge23_Node000001_Node000021"><a xlink:title=" ">
<path fill="none" stroke="#63b8ff" d="M635.47,-383.82C692.43,-373.79 780.52,-358.28 834.39,-348.8"/>
<polygon fill="#63b8ff" stroke="#63b8ff" points="634.8,-380.38 625.56,-385.57 636.02,-387.28 634.8,-380.38"/>
</a>
</g>
</g>
<!-- Node34 -->
<g id="Node000034" class="node">
<title>Node34</title>
<g id="a_Node000034"><a xlink:href="sr__converter_8h.html" target="_top" xlink:title=" ">
<polygon fill="white" stroke="#666666" points="1154.5,-349 1068.5,-349 1068.5,-330 1154.5,-330 1154.5,-349"/>
<text text-anchor="middle" x="1111.5" y="-337" font-family="Helvetica,sans-Serif" font-size="10.00">sr_converter.h</text>
</a>
</g>
</g>
<!-- Node1&#45;&gt;Node34 -->
<g id="edge46_Node000001_Node000034" class="edge">
<title>Node1&#45;&gt;Node34</title>
<g id="a_edge46_Node000001_Node000034"><a xlink:title=" ">
<path fill="none" stroke="#63b8ff" d="M635.68,-389.62C724.96,-383.07 906.5,-368.59 1059.5,-349 1062.4,-348.63 1065.39,-348.22 1068.4,-347.78"/>
<polygon fill="#63b8ff" stroke="#63b8ff" points="635.24,-386.15 625.52,-390.36 635.75,-393.13 635.24,-386.15"/>
</a>
</g>
</g>
<!-- Node5 -->
<g id="Node000005" class="node">
<title>Node5</title>
<g id="a_Node000005"><a xlink:href="deinterleaver_8h.html" target="_top" xlink:title=" ">
<polygon fill="white" stroke="#666666" points="343.5,-294 253.5,-294 253.5,-275 343.5,-275 343.5,-294"/>
<text text-anchor="middle" x="298.5" y="-282" font-family="Helvetica,sans-Serif" font-size="10.00">deinterleaver.h</text>
</a>
</g>
</g>
<!-- Node4&#45;&gt;Node5 -->
<g id="edge4_Node000004_Node000005" class="edge">
<title>Node4&#45;&gt;Node5</title>
<g id="a_edge4_Node000004_Node000005"><a xlink:title=" ">
<path fill="none" stroke="#63b8ff" d="M252.49,-323.6C263.96,-314.11 278.41,-302.13 288.03,-294.17"/>
<polygon fill="#63b8ff" stroke="#63b8ff" points="250.25,-320.91 244.78,-329.98 254.72,-326.3 250.25,-320.91"/>
</a>
</g>
</g>
<!-- Node6 -->
<g id="Node000006" class="node">
<title>Node6</title>
<g id="a_Node000006"><a xlink:href="export__graph__builder_8h.html" target="_top" xlink:title=" ">
<polygon fill="white" stroke="#666666" points="235.5,-294 107.5,-294 107.5,-275 235.5,-275 235.5,-294"/>
<text text-anchor="middle" x="171.5" y="-282" font-family="Helvetica,sans-Serif" font-size="10.00">export_graph_builder.h</text>
</a>
</g>
</g>
<!-- Node4&#45;&gt;Node6 -->
<g id="edge5_Node000004_Node000006" class="edge">
<title>Node4&#45;&gt;Node6</title>
<g id="a_edge5_Node000004_Node000006"><a xlink:title=" ">
<path fill="none" stroke="#63b8ff" d="M216.46,-323.32C205.23,-313.87 191.18,-302.06 181.81,-294.17"/>
<polygon fill="#63b8ff" stroke="#63b8ff" points="214.47,-326.23 224.38,-329.98 218.98,-320.87 214.47,-326.23"/>
</a>
</g>
</g>
<!-- Node10 -->
<g id="Node000010" class="node">
<title>Node10</title>
<g id="a_Node000010"><a xlink:href="audiographer_2audiographer_2general_2analyser_8h.html" target="_top" xlink:title=" ">
<polygon fill="white" stroke="#666666" points="560,-294 493,-294 493,-275 560,-275 560,-294"/>
<text text-anchor="middle" x="526.5" y="-282" font-family="Helvetica,sans-Serif" font-size="10.00">analyser.h</text>
</a>
</g>
</g>
<!-- Node9&#45;&gt;Node10 -->
<g id="edge9_Node000009_Node000010" class="edge">
<title>Node9&#45;&gt;Node10</title>
<g id="a_edge9_Node000009_Node000010"><a xlink:title=" ">
<path fill="none" stroke="#63b8ff" d="M526.5,-319.66C526.5,-310.93 526.5,-300.99 526.5,-294.09"/>
<polygon fill="#63b8ff" stroke="#63b8ff" points="523,-319.75 526.5,-329.75 530,-319.75 523,-319.75"/>
</a>
</g>
</g>
<!-- Node14 -->
<g id="Node000014" class="node">
<title>Node14</title>
<g id="a_Node000014"><a xlink:href="export__format__base_8h.html" target="_top" xlink:title=" ">
<polygon fill="white" stroke="#666666" points="755.5,-239 631.5,-239 631.5,-220 755.5,-220 755.5,-239"/>
<text text-anchor="middle" x="693.5" y="-227" font-family="Helvetica,sans-Serif" font-size="10.00">export_format_base.h</text>
</a>
</g>
</g>
<!-- Node13&#45;&gt;Node14 -->
<g id="edge13_Node000013_Node000014" class="edge">
<title>Node13&#45;&gt;Node14</title>
<g id="a_edge13_Node000013_Node000014"><a xlink:title=" ">
<path fill="none" stroke="#63b8ff" d="M695.43,-264.66C694.94,-255.93 694.38,-245.99 693.99,-239.09"/>
<polygon fill="#63b8ff" stroke="#63b8ff" points="691.94,-264.96 696,-274.75 698.93,-264.57 691.94,-264.96"/>
</a>
</g>
</g>
<!-- Node15 -->
<g id="Node000015" class="node">
<title>Node15</title>
<g id="a_Node000015"><a xlink:href="export__format__compatibility_8h.html" target="_top" xlink:title=" ">
<polygon fill="white" stroke="#666666" points="594.5,-184 430.5,-184 430.5,-165 594.5,-165 594.5,-184"/>
<text text-anchor="middle" x="512.5" y="-172" font-family="Helvetica,sans-Serif" font-size="10.00">export_format_compatibility.h</text>
</a>
</g>
</g>
<!-- Node14&#45;&gt;Node15 -->
<g id="edge14_Node000014_Node000015" class="edge">
<title>Node14&#45;&gt;Node15</title>
<g id="a_edge14_Node000014_Node000015"><a xlink:title=" ">
<path fill="none" stroke="#63b8ff" d="M654.42,-217.06C620.59,-207.15 572.42,-193.04 541.81,-184.08"/>
<polygon fill="#63b8ff" stroke="#63b8ff" points="653.84,-220.53 664.42,-219.98 655.81,-213.82 653.84,-220.53"/>
</a>
</g>
</g>
<!-- Node17 -->
<g id="Node000017" class="node">
<title>Node17</title>
<g id="a_Node000017"><a xlink:href="export__formats_8h.html" target="_top" xlink:title=" ">
<polygon fill="white" stroke="#666666" points="458,-129 357,-129 357,-110 458,-110 458,-129"/>
<text text-anchor="middle" x="407.5" y="-117" font-family="Helvetica,sans-Serif" font-size="10.00">export_formats.h</text>
</a>
</g>
</g>
<!-- Node14&#45;&gt;Node17 -->
<g id="edge21_Node000014_Node000017" class="edge">
<title>Node14&#45;&gt;Node17</title>
<g id="a_edge21_Node000014_Node000017"><a xlink:title=" ">
<path fill="none" stroke="#63b8ff" d="M621.21,-225.65C550.54,-221.33 449.57,-210.57 421.5,-184 406.41,-169.72 405.78,-143.16 406.62,-129.35"/>
<polygon fill="#63b8ff" stroke="#63b8ff" points="621.22,-229.15 631.41,-226.24 621.63,-222.17 621.22,-229.15"/>
</a>
</g>
</g>
<!-- Node19 -->
<g id="Node000019" class="node">
<title>Node19</title>
<g id="a_Node000019"><a xlink:href="export__format__specification_8h.html" target="_top" xlink:title=" ">
<polygon fill="white" stroke="#666666" points="774.5,-184 612.5,-184 612.5,-165 774.5,-165 774.5,-184"/>
<text text-anchor="middle" x="693.5" y="-172" font-family="Helvetica,sans-Serif" font-size="10.00">export_format_specification.h</text>
</a>
</g>
</g>
<!-- Node14&#45;&gt;Node19 -->
<g id="edge20_Node000014_Node000019" class="edge">
<title>Node14&#45;&gt;Node19</title>
<g id="a_edge20_Node000014_Node000019"><a xlink:title=" ">
<path fill="none" stroke="#63b8ff" d="M693.5,-209.66C693.5,-200.93 693.5,-190.99 693.5,-184.09"/>
<polygon fill="#63b8ff" stroke="#63b8ff" points="690,-209.75 693.5,-219.75 697,-209.75 690,-209.75"/>
</a>
</g>
</g>
<!-- Node16 -->
<g id="Node000016" class="node">
<title>Node16</title>
<g id="a_Node000016"><a xlink:href="export__format__dialog_8h.html" target="_top" xlink:title=" ">
<polygon fill="white" stroke="#666666" points="478,-19 347,-19 347,0 478,0 478,-19"/>
<text text-anchor="middle" x="412.5" y="-7" font-family="Helvetica,sans-Serif" font-size="10.00">export_format_dialog.h</text>
</a>
</g>
</g>
<!-- Node15&#45;&gt;Node16 -->
<g id="edge15_Node000015_Node000016" class="edge">
<title>Node15&#45;&gt;Node16</title>
<g id="a_edge15_Node000015_Node000016"><a xlink:title=" ">
<path fill="none" stroke="#63b8ff" d="M514.07,-154.82C515.2,-129.77 513.7,-85 492.5,-55 480.03,-37.35 458.23,-25.89 440.53,-19.03"/>
<polygon fill="#63b8ff" stroke="#63b8ff" points="510.58,-154.61 513.43,-164.81 517.56,-155.06 510.58,-154.61"/>
</a>
</g>
</g>
<!-- Node15&#45;&gt;Node17 -->
<g id="edge16_Node000015_Node000017" class="edge">
<title>Node15&#45;&gt;Node17</title>
<g id="a_edge16_Node000015_Node000017"><a xlink:title=" ">
<path fill="none" stroke="#63b8ff" d="M486.48,-160.37C467.2,-150.63 441.45,-137.64 424.68,-129.17"/>
<polygon fill="#63b8ff" stroke="#63b8ff" points="485.13,-163.6 495.63,-164.98 488.28,-157.35 485.13,-163.6"/>
</a>
</g>
</g>
<!-- Node17&#45;&gt;Node16 -->
<g id="edge17_Node000017_Node000016" class="edge">
<title>Node17&#45;&gt;Node16</title>
<g id="a_edge17_Node000017_Node000016"><a xlink:title=" ">
<path fill="none" stroke="#63b8ff" d="M372.25,-106.19C346.58,-95.09 318.4,-77.14 331.5,-55 342.2,-36.91 363.16,-25.68 381.08,-19.03"/>
<polygon fill="#63b8ff" stroke="#63b8ff" points="370.94,-109.43 381.52,-109.96 373.58,-102.95 370.94,-109.43"/>
</a>
</g>
</g>
<!-- Node18 -->
<g id="Node000018" class="node">
<title>Node18</title>
<g id="a_Node000018"><a xlink:href="export__format__manager_8h.html" target="_top" xlink:title=" ">
<polygon fill="white" stroke="#666666" points="484,-74 341,-74 341,-55 484,-55 484,-74"/>
<text text-anchor="middle" x="412.5" y="-62" font-family="Helvetica,sans-Serif" font-size="10.00">export_format_manager.h</text>
</a>
</g>
</g>
<!-- Node17&#45;&gt;Node18 -->
<g id="edge18_Node000017_Node000018" class="edge">
<title>Node17&#45;&gt;Node18</title>
<g id="a_edge18_Node000017_Node000018"><a xlink:title=" ">
<path fill="none" stroke="#63b8ff" d="M409.28,-99.66C410.1,-90.93 411.04,-80.99 411.69,-74.09"/>
<polygon fill="#63b8ff" stroke="#63b8ff" points="405.78,-99.46 408.33,-109.75 412.75,-100.12 405.78,-99.46"/>
</a>
</g>
</g>
<!-- Node18&#45;&gt;Node16 -->
<g id="edge19_Node000018_Node000016" class="edge">
<title>Node18&#45;&gt;Node16</title>
<g id="a_edge19_Node000018_Node000016"><a xlink:title=" ">
<path fill="none" stroke="#63b8ff" d="M412.5,-44.66C412.5,-35.93 412.5,-25.99 412.5,-19.09"/>
<polygon fill="#63b8ff" stroke="#63b8ff" points="409,-44.75 412.5,-54.75 416,-44.75 409,-44.75"/>
</a>
</g>
</g>
<!-- Node22 -->
<g id="Node000022" class="node">
<title>Node22</title>
<g id="a_Node000022"><a xlink:href="sndfile_8h.html" target="_top" xlink:title=" ">
<polygon fill="white" stroke="#666666" points="1027.5,-294 969.5,-294 969.5,-275 1027.5,-275 1027.5,-294"/>
<text text-anchor="middle" x="998.5" y="-282" font-family="Helvetica,sans-Serif" font-size="10.00">sndfile.h</text>
</a>
</g>
</g>
<!-- Node21&#45;&gt;Node22 -->
<g id="edge24_Node000021_Node000022" class="edge">
<title>Node21&#45;&gt;Node22</title>
<g id="a_edge24_Node000021_Node000022"><a xlink:title=" ">
<path fill="none" stroke="#63b8ff" d="M909.61,-325.77C931.19,-315.99 960.41,-302.75 979.36,-294.17"/>
<polygon fill="#63b8ff" stroke="#63b8ff" points="907.96,-322.67 900.3,-329.98 910.85,-329.05 907.96,-322.67"/>
</a>
</g>
</g>
<!-- Node27 -->
<g id="Node000027" class="node">
<title>Node27</title>
<g id="a_Node000027"><a xlink:href="tmp__file_8h.html" target="_top" xlink:title=" ">
<polygon fill="white" stroke="#666666" points="1051,-74 986,-74 986,-55 1051,-55 1051,-74"/>
<text text-anchor="middle" x="1018.5" y="-62" font-family="Helvetica,sans-Serif" font-size="10.00">tmp_file.h</text>
</a>
</g>
</g>
<!-- Node21&#45;&gt;Node27 -->
<g id="edge43_Node000021_Node000027" class="edge">
<title>Node21&#45;&gt;Node27</title>
<g id="a_edge43_Node000021_Node000027"><a xlink:title=" ">
<path fill="none" stroke="#63b8ff" d="M938.92,-329.41C1072.82,-307.82 1394.5,-253.56 1394.5,-230.5 1394.5,-230.5 1394.5,-230.5 1394.5,-173.5 1394.5,-140.15 1382.58,-128 1354.5,-110 1304.66,-78.04 1125.53,-68.83 1051.19,-66.35"/>
<polygon fill="#63b8ff" stroke="#63b8ff" points="938.16,-325.99 928.84,-331.03 939.27,-332.9 938.16,-325.99"/>
</a>
</g>
</g>
<!-- Node28 -->
<g id="Node000028" class="node">
<title>Node28</title>
<g id="a_Node000028"><a xlink:href="tmp__file__rt_8h.html" target="_top" xlink:title=" ">
<polygon fill="white" stroke="#666666" points="996.5,-19 918.5,-19 918.5,0 996.5,0 996.5,-19"/>
<text text-anchor="middle" x="957.5" y="-7" font-family="Helvetica,sans-Serif" font-size="10.00">tmp_file_rt.h</text>
</a>
</g>
</g>
<!-- Node21&#45;&gt;Node28 -->
<g id="edge44_Node000021_Node000028" class="edge">
<title>Node21&#45;&gt;Node28</title>
<g id="a_edge44_Node000021_Node000028"><a xlink:title=" ">
<path fill="none" stroke="#63b8ff" d="M861.16,-323.83C837.75,-305.07 802.5,-270.22 802.5,-230.5 802.5,-230.5 802.5,-230.5 802.5,-118.5 802.5,-61.43 874.11,-32.05 919.98,-19.08"/>
<polygon fill="#63b8ff" stroke="#63b8ff" points="859.1,-326.66 869.16,-329.99 863.37,-321.11 859.1,-326.66"/>
</a>
</g>
</g>
<!-- Node29 -->
<g id="Node000029" class="node">
<title>Node29</title>
<g id="a_Node000029"><a xlink:href="tmp__file__sync_8h.html" target="_top" xlink:title=" ">
<polygon fill="white" stroke="#666666" points="1126,-19 1033,-19 1033,0 1126,0 1126,-19"/>
<text text-anchor="middle" x="1079.5" y="-7" font-family="Helvetica,sans-Serif" font-size="10.00">tmp_file_sync.h</text>
</a>
</g>
</g>
<!-- Node21&#45;&gt;Node29 -->
<g id="edge45_Node000021_Node000029" class="edge">
<title>Node21&#45;&gt;Node29</title>
<g id="a_edge45_Node000021_Node000029"><a xlink:title=" ">
<path fill="none" stroke="#63b8ff" d="M938.58,-330.03C1068.57,-315.67 1432.5,-339.74 1432.5,-230.5 1432.5,-230.5 1432.5,-230.5 1432.5,-118.5 1432.5,-55.13 1221.87,-25.22 1126.01,-14.89"/>
<polygon fill="#63b8ff" stroke="#63b8ff" points="938.03,-326.58 928.54,-331.29 938.9,-333.52 938.03,-326.58"/>
</a>
</g>
</g>
<!-- Node22&#45;&gt;Node14 -->
<g id="edge35_Node000022_Node000014" class="edge">
<title>Node22&#45;&gt;Node14</title>
<g id="a_edge35_Node000022_Node000014"><a xlink:title=" ">
<path fill="none" stroke="#63b8ff" d="M959.14,-276.66C903.75,-267.03 802.86,-249.5 742.63,-239.04"/>
<polygon fill="#63b8ff" stroke="#63b8ff" points="958.8,-280.15 969.26,-278.42 960,-273.26 958.8,-280.15"/>
</a>
</g>
</g>
<!-- Node23 -->
<g id="Node000023" class="node">
<title>Node23</title>
<g id="a_Node000023"><a xlink:href="audiographer_2audiographer_2broadcast__info_8h.html" target="_top" xlink:title=" ">
<polygon fill="white" stroke="#666666" points="1086.5,-239 988.5,-239 988.5,-220 1086.5,-220 1086.5,-239"/>
<text text-anchor="middle" x="1037.5" y="-227" font-family="Helvetica,sans-Serif" font-size="10.00">broadcast_info.h</text>
</a>
</g>
</g>
<!-- Node22&#45;&gt;Node23 -->
<g id="edge25_Node000022_Node000023" class="edge">
<title>Node22&#45;&gt;Node23</title>
<g id="a_edge25_Node000022_Node000023"><a xlink:title=" ">
<path fill="none" stroke="#63b8ff" d="M1010.88,-266.67C1017.64,-257.5 1025.71,-246.52 1031.18,-239.09"/>
<polygon fill="#63b8ff" stroke="#63b8ff" points="1008.05,-264.62 1004.94,-274.75 1013.69,-268.77 1008.05,-264.62"/>
</a>
</g>
</g>
<!-- Node25 -->
<g id="Node000025" class="node">
<title>Node25</title>
<g id="a_Node000025"><a xlink:href="sndfilesource_8h.html" target="_top" xlink:title=" ">
<polygon fill="white" stroke="#666666" points="1345.5,-129 1255.5,-129 1255.5,-110 1345.5,-110 1345.5,-129"/>
<text text-anchor="middle" x="1300.5" y="-117" font-family="Helvetica,sans-Serif" font-size="10.00">sndfilesource.h</text>
</a>
</g>
</g>
<!-- Node22&#45;&gt;Node25 -->
<g id="edge42_Node000022_Node000025" class="edge">
<title>Node22&#45;&gt;Node25</title>
<g id="a_edge42_Node000022_Node000025"><a xlink:title=" ">
<path fill="none" stroke="#63b8ff" d="M1037.68,-281.22C1122.67,-275.87 1317.96,-261.27 1337.5,-239 1366.5,-205.95 1325.78,-150.32 1308.05,-129.09"/>
<polygon fill="#63b8ff" stroke="#63b8ff" points="1037.4,-277.73 1027.64,-281.84 1037.83,-284.72 1037.4,-277.73"/>
</a>
</g>
</g>
<!-- Node30 -->
<g id="Node000030" class="node">
<title>Node30</title>
<g id="a_Node000030"><a xlink:href="ltc__file__reader_8h.html" target="_top" xlink:title=" ">
<polygon fill="white" stroke="#666666" points="1198.5,-239 1104.5,-239 1104.5,-220 1198.5,-220 1198.5,-239"/>
<text text-anchor="middle" x="1151.5" y="-227" font-family="Helvetica,sans-Serif" font-size="10.00">ltc_file_reader.h</text>
</a>
</g>
</g>
<!-- Node22&#45;&gt;Node30 -->
<g id="edge36_Node000022_Node000030" class="edge">
<title>Node22&#45;&gt;Node30</title>
<g id="a_edge36_Node000022_Node000030"><a xlink:title=" ">
<path fill="none" stroke="#63b8ff" d="M1032.65,-271.67C1061.18,-261.79 1101.19,-247.93 1126.73,-239.08"/>
<polygon fill="#63b8ff" stroke="#63b8ff" points="1031.39,-268.4 1023.08,-274.98 1033.68,-275.02 1031.39,-268.4"/>
</a>
</g>
</g>
<!-- Node31 -->
<g id="Node000031" class="node">
<title>Node31</title>
<g id="a_Node000031"><a xlink:href="sndfile_8hh.html" target="_top" xlink:title=" ">
<polygon fill="white" stroke="#666666" points="932.5,-239 868.5,-239 868.5,-220 932.5,-220 932.5,-239"/>
<text text-anchor="middle" x="900.5" y="-227" font-family="Helvetica,sans-Serif" font-size="10.00">sndfile.hh</text>
</a>
</g>
</g>
<!-- Node22&#45;&gt;Node31 -->
<g id="edge37_Node000022_Node000031" class="edge">
<title>Node22&#45;&gt;Node31</title>
<g id="a_edge37_Node000022_Node000031"><a xlink:title=" ">
<path fill="none" stroke="#63b8ff" d="M973.47,-269.97C955.56,-260.28 931.97,-247.52 916.53,-239.17"/>
<polygon fill="#63b8ff" stroke="#63b8ff" points="972.29,-273.31 982.75,-274.98 975.62,-267.15 972.29,-273.31"/>
</a>
</g>
</g>
<!-- Node33 -->
<g id="Node000033" class="node">
<title>Node33</title>
<g id="a_Node000033"><a xlink:href="sndfileimportable_8h.html" target="_top" xlink:title=" ">
<polygon fill="white" stroke="#666666" points="1328,-239 1217,-239 1217,-220 1328,-220 1328,-239"/>
<text text-anchor="middle" x="1272.5" y="-227" font-family="Helvetica,sans-Serif" font-size="10.00">sndfileimportable.h</text>
</a>
</g>
</g>
<!-- Node22&#45;&gt;Node33 -->
<g id="edge41_Node000022_Node000033" class="edge">
<title>Node22&#45;&gt;Node33</title>
<g id="a_edge41_Node000022_Node000033"><a xlink:title=" ">
<path fill="none" stroke="#63b8ff" d="M1037.44,-275.97C1087.88,-266.21 1175.61,-249.24 1228.45,-239.02"/>
<polygon fill="#63b8ff" stroke="#63b8ff" points="1036.72,-272.54 1027.56,-277.88 1038.05,-279.42 1036.72,-272.54"/>
</a>
</g>
</g>
<!-- Node24 -->
<g id="Node000024" class="node">
<title>Node24</title>
<g id="a_Node000024"><a xlink:href="ardour_2ardour_2broadcast__info_8h.html" target="_top" xlink:title=" ">
<polygon fill="white" stroke="#666666" points="1236.5,-184 1138.5,-184 1138.5,-165 1236.5,-165 1236.5,-184"/>
<text text-anchor="middle" x="1187.5" y="-172" font-family="Helvetica,sans-Serif" font-size="10.00">broadcast_info.h</text>
</a>
</g>
</g>
<!-- Node23&#45;&gt;Node24 -->
<g id="edge26_Node000023_Node000024" class="edge">
<title>Node23&#45;&gt;Node24</title>
<g id="a_edge26_Node000023_Node000024"><a xlink:title=" ">
<path fill="none" stroke="#63b8ff" d="M1071.32,-216.55C1099.18,-206.71 1138.01,-192.98 1162.96,-184.17"/>
<polygon fill="#63b8ff" stroke="#63b8ff" points="1069.86,-213.35 1061.6,-219.98 1072.19,-219.95 1069.86,-213.35"/>
</a>
</g>
</g>
<!-- Node26 -->
<g id="Node000026" class="node">
<title>Node26</title>
<g id="a_Node000026"><a xlink:href="sndfile__writer_8h.html" target="_top" xlink:title=" ">
<polygon fill="white" stroke="#666666" points="1034,-129 943,-129 943,-110 1034,-110 1034,-129"/>
<text text-anchor="middle" x="988.5" y="-117" font-family="Helvetica,sans-Serif" font-size="10.00">sndfile_writer.h</text>
</a>
</g>
</g>
<!-- Node23&#45;&gt;Node26 -->
<g id="edge28_Node000023_Node000026" class="edge">
<title>Node23&#45;&gt;Node26</title>
<g id="a_edge28_Node000023_Node000026"><a xlink:title=" ">
<path fill="none" stroke="#63b8ff" d="M1029.31,-210.44C1018.64,-186.92 1000.4,-146.73 992.43,-129.16"/>
<polygon fill="#63b8ff" stroke="#63b8ff" points="1026.17,-212 1033.49,-219.66 1032.55,-209.11 1026.17,-212"/>
</a>
</g>
</g>
<!-- Node24&#45;&gt;Node25 -->
<g id="edge27_Node000024_Node000025" class="edge">
<title>Node24&#45;&gt;Node25</title>
<g id="a_edge27_Node000024_Node000025"><a xlink:title=" ">
<path fill="none" stroke="#63b8ff" d="M1214.93,-160.63C1235.75,-150.87 1263.8,-137.71 1282.01,-129.17"/>
<polygon fill="#63b8ff" stroke="#63b8ff" points="1213.22,-157.57 1205.66,-164.98 1216.2,-163.91 1213.22,-157.57"/>
</a>
</g>
</g>
<!-- Node26&#45;&gt;Node22 -->
<g id="edge29_Node000026_Node000022" class="edge">
<title>Node26&#45;&gt;Node22</title>
<g id="a_edge29_Node000026_Node000022"><a xlink:title=" ">
<path fill="none" stroke="#63b8ff" d="M983.92,-139.22C978.89,-162.75 972.39,-204.26 979.5,-239 982.19,-252.17 988.94,-266.26 993.62,-274.98"/>
<polygon fill="#63b8ff" stroke="#63b8ff" points="987.39,-139.76 986.21,-129.23 980.57,-138.19 987.39,-139.76"/>
</a>
</g>
</g>
<!-- Node26&#45;&gt;Node27 -->
<g id="edge30_Node000026_Node000027" class="edge">
<title>Node26&#45;&gt;Node27</title>
<g id="a_edge30_Node000026_Node000027"><a xlink:title=" ">
<path fill="none" stroke="#63b8ff" d="M998.51,-100.82C1003.6,-91.82 1009.56,-81.29 1013.64,-74.09"/>
<polygon fill="#63b8ff" stroke="#63b8ff" points="995.33,-99.32 993.45,-109.75 1001.43,-102.77 995.33,-99.32"/>
</a>
</g>
</g>
<!-- Node26&#45;&gt;Node28 -->
<g id="edge33_Node000026_Node000028" class="edge">
<title>Node26&#45;&gt;Node28</title>
<g id="a_edge33_Node000026_Node000028"><a xlink:title=" ">
<path fill="none" stroke="#63b8ff" d="M983.13,-99.8C976.36,-76.2 964.99,-36.58 959.99,-19.16"/>
<polygon fill="#63b8ff" stroke="#63b8ff" points="979.84,-101.02 985.96,-109.66 986.57,-99.08 979.84,-101.02"/>
</a>
</g>
</g>
<!-- Node26&#45;&gt;Node29 -->
<g id="edge34_Node000026_Node000029" class="edge">
<title>Node26&#45;&gt;Node29</title>
<g id="a_edge34_Node000026_Node000029"><a xlink:title=" ">
<path fill="none" stroke="#63b8ff" d="M1019.77,-105.51C1034.02,-98.17 1050.01,-87.68 1060.5,-74 1073.24,-57.38 1077.47,-32.3 1078.85,-19.18"/>
<polygon fill="#63b8ff" stroke="#63b8ff" points="1018.2,-102.38 1010.73,-109.89 1021.25,-108.68 1018.2,-102.38"/>
</a>
</g>
</g>
<!-- Node27&#45;&gt;Node28 -->
<g id="edge31_Node000027_Node000028" class="edge">
<title>Node27&#45;&gt;Node28</title>
<g id="a_edge31_Node000027_Node000028"><a xlink:title=" ">
<path fill="none" stroke="#63b8ff" d="M1001.03,-48.32C990.16,-38.87 976.56,-27.06 967.48,-19.17"/>
<polygon fill="#63b8ff" stroke="#63b8ff" points="998.85,-51.07 1008.7,-54.98 1003.45,-45.78 998.85,-51.07"/>
</a>
</g>
</g>
<!-- Node27&#45;&gt;Node29 -->
<g id="edge32_Node000027_Node000029" class="edge">
<title>Node27&#45;&gt;Node29</title>
<g id="a_edge32_Node000027_Node000029"><a xlink:title=" ">
<path fill="none" stroke="#63b8ff" d="M1035.97,-48.32C1046.84,-38.87 1060.44,-27.06 1069.52,-19.17"/>
<polygon fill="#63b8ff" stroke="#63b8ff" points="1033.55,-45.78 1028.3,-54.98 1038.15,-51.07 1033.55,-45.78"/>
</a>
</g>
</g>
<!-- Node32 -->
<g id="Node000032" class="node">
<title>Node32</title>
<g id="a_Node000032"><a xlink:href="sndfile__base_8h.html" target="_top" xlink:title=" ">
<polygon fill="white" stroke="#666666" points="932.5,-184 846.5,-184 846.5,-165 932.5,-165 932.5,-184"/>
<text text-anchor="middle" x="889.5" y="-172" font-family="Helvetica,sans-Serif" font-size="10.00">sndfile_base.h</text>
</a>
</g>
</g>
<!-- Node31&#45;&gt;Node32 -->
<g id="edge38_Node000031_Node000032" class="edge">
<title>Node31&#45;&gt;Node32</title>
<g id="a_edge38_Node000031_Node000032"><a xlink:title=" ">
<path fill="none" stroke="#63b8ff" d="M896.65,-209.95C894.82,-201.15 892.73,-191.06 891.28,-184.09"/>
<polygon fill="#63b8ff" stroke="#63b8ff" points="893.22,-210.67 898.68,-219.75 900.08,-209.25 893.22,-210.67"/>
</a>
</g>
</g>
<!-- Node32&#45;&gt;Node21 -->
<g id="edge39_Node000032_Node000021" class="edge">
<title>Node32&#45;&gt;Node21</title>
<g id="a_edge39_Node000032_Node000021"><a xlink:title=" ">
<path fill="none" stroke="#63b8ff" d="M874.81,-192.15C868.82,-200.02 862.59,-209.9 859.5,-220 847.27,-260.02 867.58,-309.84 877.05,-329.71"/>
<polygon fill="#63b8ff" stroke="#63b8ff" points="877.68,-194.16 881.29,-184.2 872.26,-189.74 877.68,-194.16"/>
</a>
</g>
</g>
<!-- Node32&#45;&gt;Node26 -->
<g id="edge40_Node000032_Node000026" class="edge">
<title>Node32&#45;&gt;Node26</title>
<g id="a_edge40_Node000032_Node000026"><a xlink:title=" ">
<path fill="none" stroke="#63b8ff" d="M914.28,-160.23C932.44,-150.51 956.56,-137.6 972.3,-129.17"/>
<polygon fill="#63b8ff" stroke="#63b8ff" points="912.57,-157.18 905.41,-164.98 915.87,-163.35 912.57,-157.18"/>
</a>
</g>
</g>
</g>
</svg>
