<?xml version="1.0" encoding="UTF-8" standalone="no"?>
<!DOCTYPE svg PUBLIC "-//W3C//DTD SVG 1.1//EN"
 "http://www.w3.org/Graphics/SVG/1.1/DTD/svg11.dtd">
<!-- Generated by graphviz version 2.43.0 (0)
 -->
<!-- Title: ltm.h Pages: 1 -->
<svg width="301pt" height="192pt"
 viewBox="0.00 0.00 300.92 192.00" xmlns="http://www.w3.org/2000/svg" xmlns:xlink="http://www.w3.org/1999/xlink">
<g id="graph0" class="graph" transform="scale(1 1) rotate(0) translate(4 188)">
<title>ltm.h</title>
<!-- Node1 -->
<g id="Node000001" class="node">
<title>Node1</title>
<g id="a_Node000001"><a xlink:title=" ">
<polygon fill="#999999" stroke="#666666" points="258.5,-184 216.5,-184 216.5,-165 258.5,-165 258.5,-184"/>
<text text-anchor="middle" x="237.5" y="-172" font-family="Helvetica,sans-Serif" font-size="10.00">ltm.h</text>
</a>
</g>
</g>
<!-- Node2 -->
<g id="Node000002" class="node">
<title>Node2</title>
<g id="a_Node000002"><a xlink:href="lstate_8h.html" target="_top" xlink:title=" ">
<polygon fill="white" stroke="#666666" points="197,-129 144,-129 144,-110 197,-110 197,-129"/>
<text text-anchor="middle" x="170.5" y="-117" font-family="Helvetica,sans-Serif" font-size="10.00">lstate.h</text>
</a>
</g>
</g>
<!-- Node1&#45;&gt;Node2 -->
<g id="edge1_Node000001_Node000002" class="edge">
<title>Node1&#45;&gt;Node2</title>
<g id="a_edge1_Node000001_Node000002"><a xlink:title=" ">
<path fill="none" stroke="#63b8ff" d="M218.67,-158.6C206.66,-149.11 191.53,-137.13 181.46,-129.17"/>
<polygon fill="#63b8ff" stroke="#63b8ff" points="216.72,-161.53 226.74,-164.98 221.06,-156.04 216.72,-161.53"/>
</a>
</g>
</g>
<!-- Node6 -->
<g id="Node000006" class="node">
<title>Node6</title>
<g id="a_Node000006"><a xlink:href="lvm_8h.html" target="_top" xlink:title=" ">
<polygon fill="white" stroke="#666666" points="232.5,-19 188.5,-19 188.5,0 232.5,0 232.5,-19"/>
<text text-anchor="middle" x="210.5" y="-7" font-family="Helvetica,sans-Serif" font-size="10.00">lvm.h</text>
</a>
</g>
</g>
<!-- Node1&#45;&gt;Node6 -->
<g id="edge9_Node000001_Node000006" class="edge">
<title>Node1&#45;&gt;Node6</title>
<g id="a_edge9_Node000001_Node000006"><a xlink:title=" ">
<path fill="none" stroke="#63b8ff" d="M253.23,-157.48C274.18,-134.13 306.41,-89.73 286.5,-55 275.02,-34.97 250.64,-23.09 232.57,-16.71"/>
<polygon fill="#63b8ff" stroke="#63b8ff" points="250.65,-155.12 246.4,-164.82 255.77,-159.89 250.65,-155.12"/>
</a>
</g>
</g>
<!-- Node3 -->
<g id="Node000003" class="node">
<title>Node3</title>
<g id="a_Node000003"><a xlink:href="lapi_8h.html" target="_top" xlink:title=" ">
<polygon fill="white" stroke="#666666" points="277.5,-74 233.5,-74 233.5,-55 277.5,-55 277.5,-74"/>
<text text-anchor="middle" x="255.5" y="-62" font-family="Helvetica,sans-Serif" font-size="10.00">lapi.h</text>
</a>
</g>
</g>
<!-- Node2&#45;&gt;Node3 -->
<g id="edge2_Node000002_Node000003" class="edge">
<title>Node2&#45;&gt;Node3</title>
<g id="a_edge2_Node000002_Node000003"><a xlink:title=" ">
<path fill="none" stroke="#63b8ff" d="M193.07,-104.42C208.5,-94.81 228.45,-82.37 241.59,-74.17"/>
<polygon fill="#63b8ff" stroke="#63b8ff" points="190.79,-101.72 184.16,-109.98 194.49,-107.66 190.79,-101.72"/>
</a>
</g>
</g>
<!-- Node4 -->
<g id="Node000004" class="node">
<title>Node4</title>
<g id="a_Node000004"><a xlink:href="ldebug_8h.html" target="_top" xlink:title=" ">
<polygon fill="white" stroke="#666666" points="59,-74 0,-74 0,-55 59,-55 59,-74"/>
<text text-anchor="middle" x="29.5" y="-62" font-family="Helvetica,sans-Serif" font-size="10.00">ldebug.h</text>
</a>
</g>
</g>
<!-- Node2&#45;&gt;Node4 -->
<g id="edge3_Node000002_Node000004" class="edge">
<title>Node2&#45;&gt;Node4</title>
<g id="a_edge3_Node000002_Node000004"><a xlink:title=" ">
<path fill="none" stroke="#63b8ff" d="M138.36,-106.42C112.21,-96.59 75.91,-82.95 52.57,-74.17"/>
<polygon fill="#63b8ff" stroke="#63b8ff" points="137.25,-109.74 147.85,-109.98 139.72,-103.19 137.25,-109.74"/>
</a>
</g>
</g>
<!-- Node5 -->
<g id="Node000005" class="node">
<title>Node5</title>
<g id="a_Node000005"><a xlink:href="ldo_8h.html" target="_top" xlink:title=" ">
<polygon fill="white" stroke="#666666" points="215,-74 174,-74 174,-55 215,-55 215,-74"/>
<text text-anchor="middle" x="194.5" y="-62" font-family="Helvetica,sans-Serif" font-size="10.00">ldo.h</text>
</a>
</g>
</g>
<!-- Node2&#45;&gt;Node5 -->
<g id="edge4_Node000002_Node000005" class="edge">
<title>Node2&#45;&gt;Node5</title>
<g id="a_edge4_Node000002_Node000005"><a xlink:title=" ">
<path fill="none" stroke="#63b8ff" d="M178.64,-100.53C182.68,-91.6 187.38,-81.22 190.61,-74.09"/>
<polygon fill="#63b8ff" stroke="#63b8ff" points="175.4,-99.19 174.46,-109.75 181.78,-102.08 175.4,-99.19"/>
</a>
</g>
</g>
<!-- Node7 -->
<g id="Node000007" class="node">
<title>Node7</title>
<g id="a_Node000007"><a xlink:href="lgc_8h.html" target="_top" xlink:title=" ">
<polygon fill="white" stroke="#666666" points="117.5,-74 77.5,-74 77.5,-55 117.5,-55 117.5,-74"/>
<text text-anchor="middle" x="97.5" y="-62" font-family="Helvetica,sans-Serif" font-size="10.00">lgc.h</text>
</a>
</g>
</g>
<!-- Node2&#45;&gt;Node7 -->
<g id="edge6_Node000002_Node000007" class="edge">
<title>Node2&#45;&gt;Node7</title>
<g id="a_edge6_Node000002_Node000007"><a xlink:title=" ">
<path fill="none" stroke="#63b8ff" d="M150.36,-103.88C137.22,-94.34 120.52,-82.21 109.44,-74.17"/>
<polygon fill="#63b8ff" stroke="#63b8ff" points="148.62,-106.94 158.77,-109.98 152.74,-101.28 148.62,-106.94"/>
</a>
</g>
</g>
<!-- Node8 -->
<g id="Node000008" class="node">
<title>Node8</title>
<g id="a_Node000008"><a xlink:href="lstring_8h.html" target="_top" xlink:title=" ">
<polygon fill="white" stroke="#666666" points="156.5,-19 100.5,-19 100.5,0 156.5,0 156.5,-19"/>
<text text-anchor="middle" x="128.5" y="-7" font-family="Helvetica,sans-Serif" font-size="10.00">lstring.h</text>
</a>
</g>
</g>
<!-- Node2&#45;&gt;Node8 -->
<g id="edge8_Node000002_Node000008" class="edge">
<title>Node2&#45;&gt;Node8</title>
<g id="a_edge8_Node000002_Node000008"><a xlink:title=" ">
<path fill="none" stroke="#63b8ff" d="M163.35,-100.12C154.19,-76.56 138.67,-36.66 131.87,-19.16"/>
<polygon fill="#63b8ff" stroke="#63b8ff" points="160.18,-101.61 167.06,-109.66 166.7,-99.07 160.18,-101.61"/>
</a>
</g>
</g>
<!-- Node5&#45;&gt;Node6 -->
<g id="edge5_Node000005_Node000006" class="edge">
<title>Node5&#45;&gt;Node6</title>
<g id="a_edge5_Node000005_Node000006"><a xlink:title=" ">
<path fill="none" stroke="#63b8ff" d="M200.1,-44.95C202.76,-36.15 205.8,-26.06 207.91,-19.09"/>
<polygon fill="#63b8ff" stroke="#63b8ff" points="196.68,-44.16 197.14,-54.75 203.38,-46.19 196.68,-44.16"/>
</a>
</g>
</g>
<!-- Node7&#45;&gt;Node8 -->
<g id="edge7_Node000007_Node000008" class="edge">
<title>Node7&#45;&gt;Node8</title>
<g id="a_edge7_Node000007_Node000008"><a xlink:title=" ">
<path fill="none" stroke="#63b8ff" d="M107.68,-46.1C112.97,-37.04 119.22,-26.37 123.48,-19.09"/>
<polygon fill="#63b8ff" stroke="#63b8ff" points="104.65,-44.35 102.62,-54.75 110.69,-47.88 104.65,-44.35"/>
</a>
</g>
</g>
</g>
</svg>
