<?xml version="1.0" encoding="UTF-8" standalone="no"?>
<!DOCTYPE svg PUBLIC "-//W3C//DTD SVG 1.1//EN"
 "http://www.w3.org/Graphics/SVG/1.1/DTD/svg11.dtd">
<!-- Generated by graphviz version 2.43.0 (0)
 -->
<!-- Title: lua_script_params.h Pages: 1 -->
<!--zoomable 434 -->

<svg id="main" version="1.1" xmlns="http://www.w3.org/2000/svg" xmlns:xlink="http://www.w3.org/1999/xlink" xml:space="preserve" onload="init(evt)">
<style type="text/css"><![CDATA[
.node, .edge {opacity: 0.7;}
.node.selected, .edge.selected {opacity: 1;}
.edge:hover path { stroke: red; }
.edge:hover polygon { stroke: red; fill: red; }
]]></style>

<defs>
  <circle id="rim" cx="0" cy="0" r="7"/>
  <circle id="rim2" cx="0" cy="0" r="3.5"/>
  <g id="zoomPlus">
    <use xlink:href="#rim" fill="#404040"><set attributeName="fill" to="#808080" begin="zoomplus.mouseover" end="zoomplus.mouseout"/></use>
    <path d="M-4,0h8M0,-4v8" fill="none" stroke="white" stroke-width="1.5" pointer-events="none"/>
  </g>
  <g id="zoomMin">
    <use xlink:href="#rim" fill="#404040"><set attributeName="fill" to="#808080" begin="zoomminus.mouseover" end="zoomminus.mouseout"/></use>
    <path d="M-4,0h8" fill="none" stroke="white" stroke-width="1.5" pointer-events="none"/>
  </g>
  <g id="arrowUp" transform="translate(30 24)">
    <use xlink:href="#rim"/>
    <path pointer-events="none" fill="none" stroke="white" stroke-width="1.5" d="M0,-3.0v7 M-2.5,-0.5L0,-3.0L2.5,-0.5"/>
  </g>
  <g id="arrowRight" transform="rotate(90) translate(36 -43)">
    <use xlink:href="#rim"/>
    <path pointer-events="none" fill="none" stroke="white" stroke-width="1.5" d="M0,-3.0v7 M-2.5,-0.5L0,-3.0L2.5,-0.5"/>
  </g>
  <g id="arrowDown" transform="rotate(180) translate(-30 -48)">
    <use xlink:href="#rim"/>
    <path pointer-events="none" fill="none" stroke="white" stroke-width="1.5" d="M0,-3.0v7 M-2.5,-0.5L0,-3.0L2.5,-0.5"/>
  </g>
  <g id="arrowLeft" transform="rotate(270) translate(-36 17)">
    <use xlink:href="#rim"/>
    <path pointer-events="none" fill="none" stroke="white" stroke-width="1.5" d="M0,-3.0v7 M-2.5,-0.5L0,-3.0L2.5,-0.5"/>
  </g>
  <g id="resetDef">
    <use xlink:href="#rim2" fill="#404040"><set attributeName="fill" to="#808080" begin="reset.mouseover" end="reset.mouseout"/></use>
  </g>
</defs>
<script type="application/ecmascript">
var viewWidth = 1641;
var viewHeight = 434;
var sectionId = 'dynsection-0';
</script>
<script type="application/ecmascript" xlink:href="svg.min.js"/>
<svg id="graph" class="graph">
<g id="viewport">
<title>lua_script_params.h</title>
<!-- Node1 -->
<g id="Node000001" class="node">
<title>Node1</title>
<g id="a_Node000001"><a xlink:title=" ">
<polygon fill="#999999" stroke="#666666" points="501,-426 386,-426 386,-407 501,-407 501,-426"/>
<text text-anchor="middle" x="443.5" y="-414" font-family="Helvetica,sans-Serif" font-size="10.00">lua_script_params.h</text>
</a>
</g>
</g>
<!-- Node2 -->
<g id="Node000002" class="node">
<title>Node2</title>
<g id="a_Node000002"><a xlink:href="luastate_8h.html" target="_top" xlink:title=" ">
<polygon fill="white" stroke="#666666" points="325,-371 242,-371 242,-352 325,-352 325,-371"/>
<text text-anchor="middle" x="283.5" y="-359" font-family="Helvetica,sans-Serif" font-size="10.00">lua/luastate.h</text>
</a>
</g>
</g>
<!-- Node1&#45;&gt;Node2 -->
<g id="edge1_Node000001_Node000002" class="edge">
<title>Node1&#45;&gt;Node2</title>
<g id="a_edge1_Node000001_Node000002"><a xlink:title=" ">
<path fill="none" stroke="#63b8ff" d="M417.79,-406.98C391.05,-398.13 348.97,-384.19 319.05,-374.28"/>
<polygon fill="#63b8ff" stroke="#63b8ff" points="320,-370.9 309.41,-371.08 317.8,-377.55 320,-370.9"/>
</a>
</g>
</g>
<!-- Node16 -->
<g id="Node000016" class="node">
<title>Node16</title>
<g id="a_Node000016"><a xlink:href="libardour__visibility_8h.html" target="_top" xlink:title=" ">
<polygon fill="white" stroke="#666666" points="518,-316 369,-316 369,-297 518,-297 518,-316"/>
<text text-anchor="middle" x="443.5" y="-304" font-family="Helvetica,sans-Serif" font-size="10.00">ardour/libardour_visibility.h</text>
</a>
</g>
</g>
<!-- Node1&#45;&gt;Node16 -->
<g id="edge19_Node000001_Node000016" class="edge">
<title>Node1&#45;&gt;Node16</title>
<g id="a_edge19_Node000001_Node000016"><a xlink:title=" ">
<path fill="none" stroke="#63b8ff" d="M443.5,-406.66C443.5,-389.17 443.5,-349.8 443.5,-326.27"/>
<polygon fill="#63b8ff" stroke="#63b8ff" points="447,-326.16 443.5,-316.16 440,-326.16 447,-326.16"/>
</a>
</g>
</g>
<!-- Node17 -->
<g id="Node000017" class="node">
<title>Node17</title>
<g id="a_Node000017"><a xlink:href="luascripting_8h.html" target="_top" xlink:title=" ">
<polygon fill="white" stroke="#666666" points="870,-371 753,-371 753,-352 870,-352 870,-371"/>
<text text-anchor="middle" x="811.5" y="-359" font-family="Helvetica,sans-Serif" font-size="10.00">ardour/luascripting.h</text>
</a>
</g>
</g>
<!-- Node1&#45;&gt;Node17 -->
<g id="edge20_Node000001_Node000017" class="edge">
<title>Node1&#45;&gt;Node17</title>
<g id="a_edge20_Node000001_Node000017"><a xlink:title=" ">
<path fill="none" stroke="#63b8ff" d="M501,-407.22C566.41,-397.8 673.17,-382.42 742.88,-372.38"/>
<polygon fill="#63b8ff" stroke="#63b8ff" points="743.49,-375.83 752.88,-370.94 742.49,-368.9 743.49,-375.83"/>
</a>
</g>
</g>
<!-- Node3 -->
<g id="Node000003" class="node">
<title>Node3</title>
<g id="a_Node000003"><a xlink:title=" ">
<polygon fill="#e0e0e0" stroke="#999999" points="447.5,-189.5 403.5,-189.5 403.5,-170.5 447.5,-170.5 447.5,-189.5"/>
<text text-anchor="middle" x="425.5" y="-177.5" font-family="Helvetica,sans-Serif" font-size="10.00">string</text>
</a>
</g>
</g>
<!-- Node2&#45;&gt;Node3 -->
<g id="edge2_Node000002_Node000003" class="edge">
<title>Node2&#45;&gt;Node3</title>
<g id="a_edge2_Node000002_Node000003"><a xlink:title=" ">
<path fill="none" stroke="#63b8ff" d="M291.45,-351.79C299.46,-342.92 312.09,-328.72 322.5,-316 356.42,-274.54 394.07,-223.93 413.07,-198.04"/>
<polygon fill="#63b8ff" stroke="#63b8ff" points="416.11,-199.82 419.19,-189.69 410.46,-195.69 416.11,-199.82"/>
</a>
</g>
</g>
<!-- Node4 -->
<g id="Node000004" class="node">
<title>Node4</title>
<g id="a_Node000004"><a xlink:title=" ">
<polygon fill="#e0e0e0" stroke="#999999" points="101,-316 0,-316 0,-297 101,-297 101,-316"/>
<text text-anchor="middle" x="50.5" y="-304" font-family="Helvetica,sans-Serif" font-size="10.00">sigc++/sigc++.h</text>
</a>
</g>
</g>
<!-- Node2&#45;&gt;Node4 -->
<g id="edge3_Node000002_Node000004" class="edge">
<title>Node2&#45;&gt;Node4</title>
<g id="a_edge3_Node000002_Node000004"><a xlink:title=" ">
<path fill="none" stroke="#63b8ff" d="M246.06,-351.98C205.85,-342.84 141.82,-328.27 98.06,-318.32"/>
<polygon fill="#63b8ff" stroke="#63b8ff" points="98.76,-314.89 88.23,-316.08 97.2,-321.71 98.76,-314.89"/>
</a>
</g>
</g>
<!-- Node5 -->
<g id="Node000005" class="node">
<title>Node5</title>
<g id="a_Node000005"><a xlink:href="liblua__visibility_8h.html" target="_top" xlink:title=" ">
<polygon fill="white" stroke="#666666" points="235.5,-316 119.5,-316 119.5,-297 235.5,-297 235.5,-316"/>
<text text-anchor="middle" x="177.5" y="-304" font-family="Helvetica,sans-Serif" font-size="10.00">lua/liblua_visibility.h</text>
</a>
</g>
</g>
<!-- Node2&#45;&gt;Node5 -->
<g id="edge4_Node000002_Node000005" class="edge">
<title>Node2&#45;&gt;Node5</title>
<g id="a_edge4_Node000002_Node000005"><a xlink:title=" ">
<path fill="none" stroke="#63b8ff" d="M266.47,-351.98C249.57,-343.54 223.44,-330.47 203.86,-320.68"/>
<polygon fill="#63b8ff" stroke="#63b8ff" points="205.35,-317.51 194.84,-316.17 202.22,-323.77 205.35,-317.51"/>
</a>
</g>
</g>
<!-- Node6 -->
<g id="Node000006" class="node">
<title>Node6</title>
<g id="a_Node000006"><a xlink:href="lua_2lua_8h.html" target="_top" xlink:title=" ">
<polygon fill="white" stroke="#666666" points="313,-316 254,-316 254,-297 313,-297 313,-316"/>
<text text-anchor="middle" x="283.5" y="-304" font-family="Helvetica,sans-Serif" font-size="10.00">lua/lua.h</text>
</a>
</g>
</g>
<!-- Node2&#45;&gt;Node6 -->
<g id="edge5_Node000002_Node000006" class="edge">
<title>Node2&#45;&gt;Node6</title>
<g id="a_edge5_Node000002_Node000006"><a xlink:title=" ">
<path fill="none" stroke="#63b8ff" d="M283.5,-351.75C283.5,-344.8 283.5,-334.85 283.5,-326.13"/>
<polygon fill="#63b8ff" stroke="#63b8ff" points="287,-326.09 283.5,-316.09 280,-326.09 287,-326.09"/>
</a>
</g>
</g>
<!-- Node7 -->
<g id="Node000007" class="node">
<title>Node7</title>
<g id="a_Node000007"><a xlink:href="lua_8hpp.html" target="_top" xlink:title=" ">
<polygon fill="white" stroke="#666666" points="313.5,-255.5 215.5,-255.5 215.5,-236.5 313.5,-236.5 313.5,-255.5"/>
<text text-anchor="middle" x="264.5" y="-243.5" font-family="Helvetica,sans-Serif" font-size="10.00">lua&#45;5.3.5/lua.hpp</text>
</a>
</g>
</g>
<!-- Node6&#45;&gt;Node7 -->
<g id="edge6_Node000006_Node000007" class="edge">
<title>Node6&#45;&gt;Node7</title>
<g id="a_edge6_Node000006_Node000007"><a xlink:title=" ">
<path fill="none" stroke="#63b8ff" d="M280.7,-296.87C278,-288.57 273.85,-275.78 270.42,-265.22"/>
<polygon fill="#63b8ff" stroke="#63b8ff" points="273.73,-264.1 267.32,-255.67 267.08,-266.26 273.73,-264.1"/>
</a>
</g>
</g>
<!-- Node8 -->
<g id="Node000008" class="node">
<title>Node8</title>
<g id="a_Node000008"><a xlink:href="lua-5_83_85_2lua_8h.html" target="_top" xlink:title=" ">
<polygon fill="white" stroke="#666666" points="285,-129 244,-129 244,-110 285,-110 285,-129"/>
<text text-anchor="middle" x="264.5" y="-117" font-family="Helvetica,sans-Serif" font-size="10.00">lua.h</text>
</a>
</g>
</g>
<!-- Node7&#45;&gt;Node8 -->
<g id="edge7_Node000007_Node000008" class="edge">
<title>Node7&#45;&gt;Node8</title>
<g id="a_edge7_Node000007_Node000008"><a xlink:title=" ">
<path fill="none" stroke="#63b8ff" d="M273.35,-236.4C282.18,-227.13 295.18,-211.49 300.5,-195 304.59,-182.31 304.95,-177.57 300.5,-165 296.75,-154.41 289.29,-144.49 282.13,-136.71"/>
<polygon fill="#63b8ff" stroke="#63b8ff" points="284.19,-133.82 274.66,-129.19 279.22,-138.76 284.19,-133.82"/>
</a>
</g>
</g>
<!-- Node13 -->
<g id="Node000013" class="node">
<title>Node13</title>
<g id="a_Node000013"><a xlink:href="lualib_8h.html" target="_top" xlink:title=" ">
<polygon fill="white" stroke="#666666" points="291,-189.5 238,-189.5 238,-170.5 291,-170.5 291,-189.5"/>
<text text-anchor="middle" x="264.5" y="-177.5" font-family="Helvetica,sans-Serif" font-size="10.00">lualib.h</text>
</a>
</g>
</g>
<!-- Node7&#45;&gt;Node13 -->
<g id="edge13_Node000007_Node000013" class="edge">
<title>Node7&#45;&gt;Node13</title>
<g id="a_edge13_Node000007_Node000013"><a xlink:title=" ">
<path fill="none" stroke="#63b8ff" d="M264.5,-236.37C264.5,-227.16 264.5,-212.29 264.5,-200.27"/>
<polygon fill="#63b8ff" stroke="#63b8ff" points="268,-199.91 264.5,-189.91 261,-199.91 268,-199.91"/>
</a>
</g>
</g>
<!-- Node14 -->
<g id="Node000014" class="node">
<title>Node14</title>
<g id="a_Node000014"><a xlink:href="lauxlib_8h.html" target="_top" xlink:title=" ">
<polygon fill="white" stroke="#666666" points="220,-189.5 161,-189.5 161,-170.5 220,-170.5 220,-189.5"/>
<text text-anchor="middle" x="190.5" y="-177.5" font-family="Helvetica,sans-Serif" font-size="10.00">lauxlib.h</text>
</a>
</g>
</g>
<!-- Node7&#45;&gt;Node14 -->
<g id="edge15_Node000007_Node000014" class="edge">
<title>Node7&#45;&gt;Node14</title>
<g id="a_edge15_Node000007_Node000014"><a xlink:title=" ">
<path fill="none" stroke="#63b8ff" d="M254.52,-236.37C242.78,-226.21 223.06,-209.16 208.6,-196.65"/>
<polygon fill="#63b8ff" stroke="#63b8ff" points="210.65,-193.8 200.8,-189.91 206.07,-199.09 210.65,-193.8"/>
</a>
</g>
</g>
<!-- Node9 -->
<g id="Node000009" class="node">
<title>Node9</title>
<g id="a_Node000009"><a xlink:title=" ">
<polygon fill="#e0e0e0" stroke="#999999" points="280.5,-74 224.5,-74 224.5,-55 280.5,-55 280.5,-74"/>
<text text-anchor="middle" x="252.5" y="-62" font-family="Helvetica,sans-Serif" font-size="10.00">stdarg.h</text>
</a>
</g>
</g>
<!-- Node8&#45;&gt;Node9 -->
<g id="edge8_Node000008_Node000009" class="edge">
<title>Node8&#45;&gt;Node9</title>
<g id="a_edge8_Node000008_Node000009"><a xlink:title=" ">
<path fill="none" stroke="#63b8ff" d="M262.52,-109.75C260.93,-102.72 258.64,-92.62 256.65,-83.84"/>
<polygon fill="#63b8ff" stroke="#63b8ff" points="260.07,-83.07 254.44,-74.09 253.24,-84.62 260.07,-83.07"/>
</a>
</g>
</g>
<!-- Node10 -->
<g id="Node000010" class="node">
<title>Node10</title>
<g id="a_Node000010"><a xlink:title=" ">
<polygon fill="#e0e0e0" stroke="#999999" points="224.5,-19 168.5,-19 168.5,0 224.5,0 224.5,-19"/>
<text text-anchor="middle" x="196.5" y="-7" font-family="Helvetica,sans-Serif" font-size="10.00">stddef.h</text>
</a>
</g>
</g>
<!-- Node8&#45;&gt;Node10 -->
<g id="edge9_Node000008_Node000010" class="edge">
<title>Node8&#45;&gt;Node10</title>
<g id="a_edge9_Node000008_Node000010"><a xlink:title=" ">
<path fill="none" stroke="#63b8ff" d="M251.42,-109.75C240.34,-101.7 224.81,-88.78 215.5,-74 206.88,-60.31 201.99,-42.5 199.34,-29.22"/>
<polygon fill="#63b8ff" stroke="#63b8ff" points="202.78,-28.58 197.61,-19.33 195.89,-29.79 202.78,-28.58"/>
</a>
</g>
</g>
<!-- Node11 -->
<g id="Node000011" class="node">
<title>Node11</title>
<g id="a_Node000011"><a xlink:href="luaconf_8h.html" target="_top" xlink:title=" ">
<polygon fill="white" stroke="#666666" points="360,-74 299,-74 299,-55 360,-55 360,-74"/>
<text text-anchor="middle" x="329.5" y="-62" font-family="Helvetica,sans-Serif" font-size="10.00">luaconf.h</text>
</a>
</g>
</g>
<!-- Node8&#45;&gt;Node11 -->
<g id="edge10_Node000008_Node000011" class="edge">
<title>Node8&#45;&gt;Node11</title>
<g id="a_edge10_Node000008_Node000011"><a xlink:title=" ">
<path fill="none" stroke="#63b8ff" d="M274.94,-109.98C284.65,-102.07 299.32,-90.11 311,-80.58"/>
<polygon fill="#63b8ff" stroke="#63b8ff" points="313.33,-83.2 318.87,-74.17 308.9,-77.78 313.33,-83.2"/>
</a>
</g>
</g>
<!-- Node11&#45;&gt;Node10 -->
<g id="edge12_Node000011_Node000010" class="edge">
<title>Node11&#45;&gt;Node10</title>
<g id="a_edge12_Node000011_Node000010"><a xlink:title=" ">
<path fill="none" stroke="#63b8ff" d="M308.13,-54.98C286.35,-46.3 252.34,-32.75 227.58,-22.88"/>
<polygon fill="#63b8ff" stroke="#63b8ff" points="228.84,-19.62 218.26,-19.17 226.25,-26.12 228.84,-19.62"/>
</a>
</g>
</g>
<!-- Node12 -->
<g id="Node000012" class="node">
<title>Node12</title>
<g id="a_Node000012"><a xlink:title=" ">
<polygon fill="#e0e0e0" stroke="#999999" points="356,-19 303,-19 303,0 356,0 356,-19"/>
<text text-anchor="middle" x="329.5" y="-7" font-family="Helvetica,sans-Serif" font-size="10.00">limits.h</text>
</a>
</g>
</g>
<!-- Node11&#45;&gt;Node12 -->
<g id="edge11_Node000011_Node000012" class="edge">
<title>Node11&#45;&gt;Node12</title>
<g id="a_edge11_Node000011_Node000012"><a xlink:title=" ">
<path fill="none" stroke="#63b8ff" d="M329.5,-54.75C329.5,-47.8 329.5,-37.85 329.5,-29.13"/>
<polygon fill="#63b8ff" stroke="#63b8ff" points="333,-29.09 329.5,-19.09 326,-29.09 333,-29.09"/>
</a>
</g>
</g>
<!-- Node13&#45;&gt;Node8 -->
<g id="edge14_Node000013_Node000008" class="edge">
<title>Node13&#45;&gt;Node8</title>
<g id="a_edge14_Node000013_Node000008"><a xlink:title=" ">
<path fill="none" stroke="#63b8ff" d="M264.5,-170.37C264.5,-162.25 264.5,-149.81 264.5,-139.39"/>
<polygon fill="#63b8ff" stroke="#63b8ff" points="268,-139.17 264.5,-129.17 261,-139.17 268,-139.17"/>
</a>
</g>
</g>
<!-- Node14&#45;&gt;Node8 -->
<g id="edge18_Node000014_Node000008" class="edge">
<title>Node14&#45;&gt;Node8</title>
<g id="a_edge18_Node000014_Node000008"><a xlink:title=" ">
<path fill="none" stroke="#63b8ff" d="M201.42,-170.37C213.01,-161.21 231.53,-146.56 245.52,-135.51"/>
<polygon fill="#63b8ff" stroke="#63b8ff" points="247.86,-138.11 253.54,-129.17 243.52,-132.62 247.86,-138.11"/>
</a>
</g>
</g>
<!-- Node14&#45;&gt;Node10 -->
<g id="edge16_Node000014_Node000010" class="edge">
<title>Node14&#45;&gt;Node10</title>
<g id="a_edge16_Node000014_Node000010"><a xlink:title=" ">
<path fill="none" stroke="#63b8ff" d="M184.79,-170.23C178.87,-160.59 170,-144.4 166.5,-129 158.3,-92.95 175.15,-51.08 186.76,-28.02"/>
<polygon fill="#63b8ff" stroke="#63b8ff" points="189.9,-29.57 191.47,-19.09 183.71,-26.3 189.9,-29.57"/>
</a>
</g>
</g>
<!-- Node15 -->
<g id="Node000015" class="node">
<title>Node15</title>
<g id="a_Node000015"><a xlink:title=" ">
<polygon fill="#e0e0e0" stroke="#999999" points="225.5,-129 175.5,-129 175.5,-110 225.5,-110 225.5,-129"/>
<text text-anchor="middle" x="200.5" y="-117" font-family="Helvetica,sans-Serif" font-size="10.00">stdio.h</text>
</a>
</g>
</g>
<!-- Node14&#45;&gt;Node15 -->
<g id="edge17_Node000014_Node000015" class="edge">
<title>Node14&#45;&gt;Node15</title>
<g id="a_edge17_Node000014_Node000015"><a xlink:title=" ">
<path fill="none" stroke="#63b8ff" d="M191.98,-170.37C193.38,-162.16 195.54,-149.54 197.33,-139.05"/>
<polygon fill="#63b8ff" stroke="#63b8ff" points="200.78,-139.61 199.02,-129.17 193.88,-138.43 200.78,-139.61"/>
</a>
</g>
</g>
<!-- Node17&#45;&gt;Node16 -->
<g id="edge55_Node000017_Node000016" class="edge">
<title>Node17&#45;&gt;Node16</title>
<g id="a_edge55_Node000017_Node000016"><a xlink:title=" ">
<path fill="none" stroke="#63b8ff" d="M752.78,-352.04C687.41,-342.63 581.86,-327.43 512.57,-317.45"/>
<polygon fill="#63b8ff" stroke="#63b8ff" points="513.01,-313.98 502.62,-316.01 512.02,-320.9 513.01,-313.98"/>
</a>
</g>
</g>
<!-- Node18 -->
<g id="Node000018" class="node">
<title>Node18</title>
<g id="a_Node000018"><a xlink:title=" ">
<polygon fill="#e0e0e0" stroke="#999999" points="1485.5,-316 1427.5,-316 1427.5,-297 1485.5,-297 1485.5,-316"/>
<text text-anchor="middle" x="1456.5" y="-304" font-family="Helvetica,sans-Serif" font-size="10.00">memory</text>
</a>
</g>
</g>
<!-- Node17&#45;&gt;Node18 -->
<g id="edge21_Node000017_Node000018" class="edge">
<title>Node17&#45;&gt;Node18</title>
<g id="a_edge21_Node000017_Node000018"><a xlink:title=" ">
<path fill="none" stroke="#63b8ff" d="M870.28,-358.52C978.29,-354.37 1215.4,-342.8 1413.5,-316 1414.77,-315.83 1416.06,-315.64 1417.37,-315.44"/>
<polygon fill="#63b8ff" stroke="#63b8ff" points="1418.16,-318.86 1427.44,-313.74 1416.99,-311.96 1418.16,-318.86"/>
</a>
</g>
</g>
<!-- Node19 -->
<g id="Node000019" class="node">
<title>Node19</title>
<g id="a_Node000019"><a xlink:title=" ">
<polygon fill="#e0e0e0" stroke="#999999" points="541,-189.5 494,-189.5 494,-170.5 541,-170.5 541,-189.5"/>
<text text-anchor="middle" x="517.5" y="-177.5" font-family="Helvetica,sans-Serif" font-size="10.00">vector</text>
</a>
</g>
</g>
<!-- Node17&#45;&gt;Node19 -->
<g id="edge22_Node000017_Node000019" class="edge">
<title>Node17&#45;&gt;Node19</title>
<g id="a_edge22_Node000017_Node000019"><a xlink:title=" ">
<path fill="none" stroke="#63b8ff" d="M772.32,-351.93C721.31,-339.19 631.49,-311.2 570.5,-261 549.85,-244.01 534.26,-216.88 525.5,-199"/>
<polygon fill="#63b8ff" stroke="#63b8ff" points="528.56,-197.26 521.15,-189.69 522.22,-200.23 528.56,-197.26"/>
</a>
</g>
</g>
<!-- Node20 -->
<g id="Node000020" class="node">
<title>Node20</title>
<g id="a_Node000020"><a xlink:title=" ">
<polygon fill="#e0e0e0" stroke="#999999" points="1358,-189.5 1255,-189.5 1255,-170.5 1358,-170.5 1358,-189.5"/>
<text text-anchor="middle" x="1306.5" y="-177.5" font-family="Helvetica,sans-Serif" font-size="10.00">glibmm/threads.h</text>
</a>
</g>
</g>
<!-- Node17&#45;&gt;Node20 -->
<g id="edge23_Node000017_Node000020" class="edge">
<title>Node17&#45;&gt;Node20</title>
<g id="a_edge23_Node000017_Node000020"><a xlink:title=" ">
<path fill="none" stroke="#63b8ff" d="M870.34,-359.63C1002.84,-356.28 1317.92,-340 1380.5,-261 1400.03,-236.35 1363,-209.99 1334.63,-194.52"/>
<polygon fill="#63b8ff" stroke="#63b8ff" points="1335.92,-191.25 1325.43,-189.72 1332.67,-197.45 1335.92,-191.25"/>
</a>
</g>
</g>
<!-- Node21 -->
<g id="Node000021" class="node">
<title>Node21</title>
<g id="a_Node000021"><a xlink:href="signals_8h.html" target="_top" xlink:title=" ">
<polygon fill="white" stroke="#666666" points="1137,-316 1056,-316 1056,-297 1137,-297 1137,-316"/>
<text text-anchor="middle" x="1096.5" y="-304" font-family="Helvetica,sans-Serif" font-size="10.00">pbd/signals.h</text>
</a>
</g>
</g>
<!-- Node17&#45;&gt;Node21 -->
<g id="edge24_Node000017_Node000021" class="edge">
<title>Node17&#45;&gt;Node21</title>
<g id="a_edge24_Node000017_Node000021"><a xlink:title=" ">
<path fill="none" stroke="#63b8ff" d="M857.29,-351.98C908.88,-342.39 992.49,-326.84 1045.96,-316.9"/>
<polygon fill="#63b8ff" stroke="#63b8ff" points="1046.71,-320.32 1055.9,-315.05 1045.43,-313.44 1046.71,-320.32"/>
</a>
</g>
</g>
<!-- Node21&#45;&gt;Node20 -->
<g id="edge29_Node000021_Node000020" class="edge">
<title>Node21&#45;&gt;Node20</title>
<g id="a_edge29_Node000021_Node000020"><a xlink:title=" ">
<path fill="none" stroke="#63b8ff" d="M1137.13,-305.19C1176.13,-302.81 1234.56,-293.5 1272.5,-261 1290.82,-245.31 1299.52,-218.03 1303.47,-199.74"/>
<polygon fill="#63b8ff" stroke="#63b8ff" points="1306.94,-200.18 1305.36,-189.71 1300.07,-198.89 1306.94,-200.18"/>
</a>
</g>
</g>
<!-- Node22 -->
<g id="Node000022" class="node">
<title>Node22</title>
<g id="a_Node000022"><a xlink:title=" ">
<polygon fill="#e0e0e0" stroke="#999999" points="1371,-255.5 1320,-255.5 1320,-236.5 1371,-236.5 1371,-255.5"/>
<text text-anchor="middle" x="1345.5" y="-243.5" font-family="Helvetica,sans-Serif" font-size="10.00">csignal</text>
</a>
</g>
</g>
<!-- Node21&#45;&gt;Node22 -->
<g id="edge25_Node000021_Node000022" class="edge">
<title>Node21&#45;&gt;Node22</title>
<g id="a_edge25_Node000021_Node000022"><a xlink:title=" ">
<path fill="none" stroke="#63b8ff" d="M1137.33,-298.39C1179.73,-290.65 1247.81,-277.17 1305.5,-261 1307.98,-260.31 1310.53,-259.54 1313.08,-258.73"/>
<polygon fill="#63b8ff" stroke="#63b8ff" points="1314.43,-261.97 1322.81,-255.5 1312.22,-255.33 1314.43,-261.97"/>
</a>
</g>
</g>
<!-- Node23 -->
<g id="Node000023" class="node">
<title>Node23</title>
<g id="a_Node000023"><a xlink:title=" ">
<polygon fill="#e0e0e0" stroke="#999999" points="1632.5,-189.5 1600.5,-189.5 1600.5,-170.5 1632.5,-170.5 1632.5,-189.5"/>
<text text-anchor="middle" x="1616.5" y="-177.5" font-family="Helvetica,sans-Serif" font-size="10.00">list</text>
</a>
</g>
</g>
<!-- Node21&#45;&gt;Node23 -->
<g id="edge26_Node000021_Node000023" class="edge">
<title>Node21&#45;&gt;Node23</title>
<g id="a_edge26_Node000021_Node000023"><a xlink:title=" ">
<path fill="none" stroke="#63b8ff" d="M1137.15,-305.65C1235.65,-305.38 1484.24,-300.67 1555.5,-261 1580.72,-246.96 1598.81,-217.7 1608.45,-198.72"/>
<polygon fill="#63b8ff" stroke="#63b8ff" points="1611.64,-200.17 1612.83,-189.64 1605.34,-197.13 1611.64,-200.17"/>
</a>
</g>
</g>
<!-- Node24 -->
<g id="Node000024" class="node">
<title>Node24</title>
<g id="a_Node000024"><a xlink:title=" ">
<polygon fill="#e0e0e0" stroke="#999999" points="853.5,-189.5 815.5,-189.5 815.5,-170.5 853.5,-170.5 853.5,-189.5"/>
<text text-anchor="middle" x="834.5" y="-177.5" font-family="Helvetica,sans-Serif" font-size="10.00">map</text>
</a>
</g>
</g>
<!-- Node21&#45;&gt;Node24 -->
<g id="edge27_Node000021_Node000024" class="edge">
<title>Node21&#45;&gt;Node24</title>
<g id="a_edge27_Node000021_Node000024"><a xlink:title=" ">
<path fill="none" stroke="#63b8ff" d="M1094.65,-296.79C1090.84,-281.03 1080.52,-247.86 1058.5,-231 996.83,-183.79 963.07,-212.92 887.5,-195 879.64,-193.14 871.18,-190.97 863.36,-188.91"/>
<polygon fill="#63b8ff" stroke="#63b8ff" points="864.14,-185.49 853.58,-186.29 862.33,-192.26 864.14,-185.49"/>
</a>
</g>
</g>
<!-- Node25 -->
<g id="Node000025" class="node">
<title>Node25</title>
<g id="a_Node000025"><a xlink:title=" ">
<polygon fill="#e0e0e0" stroke="#999999" points="609.5,-189.5 559.5,-189.5 559.5,-170.5 609.5,-170.5 609.5,-189.5"/>
<text text-anchor="middle" x="584.5" y="-177.5" font-family="Helvetica,sans-Serif" font-size="10.00">atomic</text>
</a>
</g>
</g>
<!-- Node21&#45;&gt;Node25 -->
<g id="edge28_Node000021_Node000025" class="edge">
<title>Node21&#45;&gt;Node25</title>
<g id="a_edge28_Node000021_Node000025"><a xlink:title=" ">
<path fill="none" stroke="#63b8ff" d="M1055.6,-305.02C940.02,-303.24 617.27,-295.22 585.5,-261 570.4,-244.74 573.76,-217.62 578.42,-199.53"/>
<polygon fill="#63b8ff" stroke="#63b8ff" points="581.8,-200.42 581.25,-189.84 575.08,-198.45 581.8,-200.42"/>
</a>
</g>
</g>
<!-- Node26 -->
<g id="Node000026" class="node">
<title>Node26</title>
<g id="a_Node000026"><a xlink:title=" ">
<polygon fill="#e0e0e0" stroke="#999999" points="839.5,-255.5 713.5,-255.5 713.5,-236.5 839.5,-236.5 839.5,-255.5"/>
<text text-anchor="middle" x="776.5" y="-243.5" font-family="Helvetica,sans-Serif" font-size="10.00">boost/bind/protect.hpp</text>
</a>
</g>
</g>
<!-- Node21&#45;&gt;Node26 -->
<g id="edge30_Node000021_Node000026" class="edge">
<title>Node21&#45;&gt;Node26</title>
<g id="a_edge30_Node000021_Node000026"><a xlink:title=" ">
<path fill="none" stroke="#63b8ff" d="M1055.65,-298.36C1006.47,-289.72 921.38,-274.62 848.5,-261 842.42,-259.86 836.06,-258.65 829.74,-257.44"/>
<polygon fill="#63b8ff" stroke="#63b8ff" points="830.37,-254 819.88,-255.54 829.04,-260.87 830.37,-254"/>
</a>
</g>
</g>
<!-- Node27 -->
<g id="Node000027" class="node">
<title>Node27</title>
<g id="a_Node000027"><a xlink:title=" ">
<polygon fill="#e0e0e0" stroke="#999999" points="975.5,-261 857.5,-261 857.5,-231 975.5,-231 975.5,-261"/>
<text text-anchor="start" x="865.5" y="-249" font-family="Helvetica,sans-Serif" font-size="10.00">boost/enable_shared</text>
<text text-anchor="middle" x="916.5" y="-238" font-family="Helvetica,sans-Serif" font-size="10.00">_from_this.hpp</text>
</a>
</g>
</g>
<!-- Node21&#45;&gt;Node27 -->
<g id="edge31_Node000021_Node000027" class="edge">
<title>Node21&#45;&gt;Node27</title>
<g id="a_edge31_Node000021_Node000027"><a xlink:title=" ">
<path fill="none" stroke="#63b8ff" d="M1070.33,-296.99C1043.97,-288.43 1002.57,-274.97 969.35,-264.18"/>
<polygon fill="#63b8ff" stroke="#63b8ff" points="970.37,-260.83 959.77,-261.06 968.2,-267.48 970.37,-260.83"/>
</a>
</g>
</g>
<!-- Node28 -->
<g id="Node000028" class="node">
<title>Node28</title>
<g id="a_Node000028"><a xlink:title=" ">
<polygon fill="#e0e0e0" stroke="#999999" points="1049.5,-255.5 993.5,-255.5 993.5,-236.5 1049.5,-236.5 1049.5,-255.5"/>
<text text-anchor="middle" x="1021.5" y="-243.5" font-family="Helvetica,sans-Serif" font-size="10.00">optional</text>
</a>
</g>
</g>
<!-- Node21&#45;&gt;Node28 -->
<g id="edge32_Node000021_Node000028" class="edge">
<title>Node21&#45;&gt;Node28</title>
<g id="a_edge32_Node000021_Node000028"><a xlink:title=" ">
<path fill="none" stroke="#63b8ff" d="M1085.43,-296.87C1073.69,-287.71 1054.91,-273.06 1040.74,-262.01"/>
<polygon fill="#63b8ff" stroke="#63b8ff" points="1042.65,-259.06 1032.61,-255.67 1038.34,-264.58 1042.65,-259.06"/>
</a>
</g>
</g>
<!-- Node29 -->
<g id="Node000029" class="node">
<title>Node29</title>
<g id="a_Node000029"><a xlink:href="libpbd__visibility_8h.html" target="_top" xlink:title=" ">
<polygon fill="white" stroke="#666666" points="1018.5,-189.5 896.5,-189.5 896.5,-170.5 1018.5,-170.5 1018.5,-189.5"/>
<text text-anchor="middle" x="957.5" y="-177.5" font-family="Helvetica,sans-Serif" font-size="10.00">pbd/libpbd_visibility.h</text>
</a>
</g>
</g>
<!-- Node21&#45;&gt;Node29 -->
<g id="edge33_Node000021_Node000029" class="edge">
<title>Node21&#45;&gt;Node29</title>
<g id="a_edge33_Node000021_Node000029"><a xlink:title=" ">
<path fill="none" stroke="#63b8ff" d="M1098.71,-296.66C1101.93,-281.56 1106.06,-250.54 1091.5,-231 1080.5,-216.23 1037.24,-201.79 1002.82,-192.25"/>
<polygon fill="#63b8ff" stroke="#63b8ff" points="1003.48,-188.81 992.92,-189.58 1001.66,-195.57 1003.48,-188.81"/>
</a>
</g>
</g>
<!-- Node30 -->
<g id="Node000030" class="node">
<title>Node30</title>
<g id="a_Node000030"><a xlink:href="event__loop_8h.html" target="_top" xlink:title=" ">
<polygon fill="white" stroke="#666666" points="695,-255.5 594,-255.5 594,-236.5 695,-236.5 695,-255.5"/>
<text text-anchor="middle" x="644.5" y="-243.5" font-family="Helvetica,sans-Serif" font-size="10.00">pbd/event_loop.h</text>
</a>
</g>
</g>
<!-- Node21&#45;&gt;Node30 -->
<g id="edge34_Node000021_Node000030" class="edge">
<title>Node21&#45;&gt;Node30</title>
<g id="a_edge34_Node000021_Node000030"><a xlink:title=" ">
<path fill="none" stroke="#63b8ff" d="M1055.93,-302.46C984.53,-296.76 831.89,-283.02 704.5,-261 699.1,-260.07 693.45,-258.95 687.88,-257.75"/>
<polygon fill="#63b8ff" stroke="#63b8ff" points="688.52,-254.31 678,-255.54 686.99,-261.14 688.52,-254.31"/>
</a>
</g>
</g>
<!-- Node33 -->
<g id="Node000033" class="node">
<title>Node33</title>
<g id="a_Node000033"><a xlink:href="stack__allocator_8h.html" target="_top" xlink:title=" ">
<polygon fill="white" stroke="#666666" points="1263.5,-255.5 1143.5,-255.5 1143.5,-236.5 1263.5,-236.5 1263.5,-255.5"/>
<text text-anchor="middle" x="1203.5" y="-243.5" font-family="Helvetica,sans-Serif" font-size="10.00">pbd/stack_allocator.h</text>
</a>
</g>
</g>
<!-- Node21&#45;&gt;Node33 -->
<g id="edge43_Node000021_Node000033" class="edge">
<title>Node21&#45;&gt;Node33</title>
<g id="a_edge43_Node000021_Node000033"><a xlink:title=" ">
<path fill="none" stroke="#63b8ff" d="M1112.29,-296.87C1129.83,-287.28 1158.38,-271.67 1178.87,-260.47"/>
<polygon fill="#63b8ff" stroke="#63b8ff" points="1180.55,-263.54 1187.65,-255.67 1177.19,-257.39 1180.55,-263.54"/>
</a>
</g>
</g>
<!-- Node36 -->
<g id="Node000036" class="node">
<title>Node36</title>
<g id="a_Node000036"><a xlink:href="stacktrace_8h.html" target="_top" xlink:title=" ">
<polygon fill="white" stroke="#666666" points="1525.5,-255.5 1427.5,-255.5 1427.5,-236.5 1525.5,-236.5 1525.5,-255.5"/>
<text text-anchor="middle" x="1476.5" y="-243.5" font-family="Helvetica,sans-Serif" font-size="10.00">pbd/stacktrace.h</text>
</a>
</g>
</g>
<!-- Node21&#45;&gt;Node36 -->
<g id="edge47_Node000021_Node000036" class="edge">
<title>Node21&#45;&gt;Node36</title>
<g id="a_edge47_Node000021_Node000036"><a xlink:title=" ">
<path fill="none" stroke="#63b8ff" d="M1137.17,-299.24C1204.51,-288.87 1339.45,-268.1 1417.35,-256.11"/>
<polygon fill="#63b8ff" stroke="#63b8ff" points="1418.13,-259.53 1427.48,-254.55 1417.07,-252.61 1418.13,-259.53"/>
</a>
</g>
</g>
<!-- Node38 -->
<g id="Node000038" class="node">
<title>Node38</title>
<g id="a_Node000038"><a xlink:title=" ">
<polygon fill="#e0e0e0" stroke="#999999" points="1582.5,-189.5 1522.5,-189.5 1522.5,-170.5 1582.5,-170.5 1582.5,-189.5"/>
<text text-anchor="middle" x="1552.5" y="-177.5" font-family="Helvetica,sans-Serif" font-size="10.00">iostream</text>
</a>
</g>
</g>
<!-- Node21&#45;&gt;Node38 -->
<g id="edge54_Node000021_Node000038" class="edge">
<title>Node21&#45;&gt;Node38</title>
<g id="a_edge54_Node000021_Node000038"><a xlink:title=" ">
<path fill="none" stroke="#63b8ff" d="M1137.1,-304.04C1240.02,-299.98 1505.08,-287.08 1534.5,-261 1551.61,-245.83 1554.34,-218.19 1553.99,-199.71"/>
<polygon fill="#63b8ff" stroke="#63b8ff" points="1557.48,-199.39 1553.48,-189.58 1550.49,-199.74 1557.48,-199.39"/>
</a>
</g>
</g>
<!-- Node30&#45;&gt;Node3 -->
<g id="edge36_Node000030_Node000003" class="edge">
<title>Node30&#45;&gt;Node3</title>
<g id="a_edge36_Node000030_Node000003"><a xlink:title=" ">
<path fill="none" stroke="#63b8ff" d="M614.96,-236.37C573.87,-224.36 499.74,-202.69 457.41,-190.33"/>
<polygon fill="#63b8ff" stroke="#63b8ff" points="458.21,-186.91 447.63,-187.47 456.24,-193.63 458.21,-186.91"/>
</a>
</g>
</g>
<!-- Node30&#45;&gt;Node19 -->
<g id="edge37_Node000030_Node000019" class="edge">
<title>Node30&#45;&gt;Node19</title>
<g id="a_edge37_Node000030_Node000019"><a xlink:title=" ">
<path fill="none" stroke="#63b8ff" d="M627.37,-236.37C605.88,-225.54 568.8,-206.85 543.73,-194.22"/>
<polygon fill="#63b8ff" stroke="#63b8ff" points="545.27,-191.07 534.76,-189.7 542.12,-197.32 545.27,-191.07"/>
</a>
</g>
</g>
<!-- Node30&#45;&gt;Node20 -->
<g id="edge41_Node000030_Node000020" class="edge">
<title>Node30&#45;&gt;Node20</title>
<g id="a_edge41_Node000030_Node000020"><a xlink:title=" ">
<path fill="none" stroke="#63b8ff" d="M676.7,-236.47C685.64,-234.38 695.4,-232.36 704.5,-231 942.85,-195.5 1007.09,-230.06 1245.5,-195 1251.42,-194.13 1257.62,-192.98 1263.7,-191.72"/>
<polygon fill="#63b8ff" stroke="#63b8ff" points="1264.74,-195.08 1273.76,-189.52 1263.24,-188.24 1264.74,-195.08"/>
</a>
</g>
</g>
<!-- Node30&#45;&gt;Node24 -->
<g id="edge38_Node000030_Node000024" class="edge">
<title>Node30&#45;&gt;Node24</title>
<g id="a_edge38_Node000030_Node000024"><a xlink:title=" ">
<path fill="none" stroke="#63b8ff" d="M670.12,-236.37C705.4,-224.49 768.74,-203.15 805.64,-190.72"/>
<polygon fill="#63b8ff" stroke="#63b8ff" points="806.94,-193.98 815.3,-187.47 804.71,-187.34 806.94,-193.98"/>
</a>
</g>
</g>
<!-- Node30&#45;&gt;Node25 -->
<g id="edge35_Node000030_Node000025" class="edge">
<title>Node30&#45;&gt;Node25</title>
<g id="a_edge35_Node000030_Node000025"><a xlink:title=" ">
<path fill="none" stroke="#63b8ff" d="M636.41,-236.37C627.07,-226.4 611.49,-209.79 599.84,-197.36"/>
<polygon fill="#63b8ff" stroke="#63b8ff" points="602.24,-194.81 592.85,-189.91 597.13,-199.59 602.24,-194.81"/>
</a>
</g>
</g>
<!-- Node30&#45;&gt;Node29 -->
<g id="edge42_Node000030_Node000029" class="edge">
<title>Node30&#45;&gt;Node29</title>
<g id="a_edge42_Node000030_Node000029"><a xlink:title=" ">
<path fill="none" stroke="#63b8ff" d="M680.31,-236.43C688.26,-234.59 696.66,-232.69 704.5,-231 772.21,-216.42 850.46,-201.2 901.8,-191.44"/>
<polygon fill="#63b8ff" stroke="#63b8ff" points="902.53,-194.87 911.7,-189.56 901.22,-187.99 902.53,-194.87"/>
</a>
</g>
</g>
<!-- Node31 -->
<g id="Node000031" class="node">
<title>Node31</title>
<g id="a_Node000031"><a xlink:title=" ">
<polygon fill="#e0e0e0" stroke="#999999" points="681,-189.5 628,-189.5 628,-170.5 681,-170.5 681,-189.5"/>
<text text-anchor="middle" x="654.5" y="-177.5" font-family="Helvetica,sans-Serif" font-size="10.00">stdint.h</text>
</a>
</g>
</g>
<!-- Node30&#45;&gt;Node31 -->
<g id="edge39_Node000030_Node000031" class="edge">
<title>Node30&#45;&gt;Node31</title>
<g id="a_edge39_Node000030_Node000031"><a xlink:title=" ">
<path fill="none" stroke="#63b8ff" d="M645.85,-236.37C647.3,-227.07 649.66,-211.98 651.55,-199.9"/>
<polygon fill="#63b8ff" stroke="#63b8ff" points="655.02,-200.33 653.11,-189.91 648.11,-199.25 655.02,-200.33"/>
</a>
</g>
</g>
<!-- Node32 -->
<g id="Node000032" class="node">
<title>Node32</title>
<g id="a_Node000032"><a xlink:title=" ">
<polygon fill="#e0e0e0" stroke="#999999" points="762,-189.5 699,-189.5 699,-170.5 762,-170.5 762,-189.5"/>
<text text-anchor="middle" x="730.5" y="-177.5" font-family="Helvetica,sans-Serif" font-size="10.00">pthread.h</text>
</a>
</g>
</g>
<!-- Node30&#45;&gt;Node32 -->
<g id="edge40_Node000030_Node000032" class="edge">
<title>Node30&#45;&gt;Node32</title>
<g id="a_edge40_Node000030_Node000032"><a xlink:title=" ">
<path fill="none" stroke="#63b8ff" d="M656.1,-236.37C670.08,-225.97 693.79,-208.32 710.68,-195.75"/>
<polygon fill="#63b8ff" stroke="#63b8ff" points="712.88,-198.48 718.81,-189.7 708.7,-192.86 712.88,-198.48"/>
</a>
</g>
</g>
<!-- Node33&#45;&gt;Node29 -->
<g id="edge46_Node000033_Node000029" class="edge">
<title>Node33&#45;&gt;Node29</title>
<g id="a_edge46_Node000033_Node000029"><a xlink:title=" ">
<path fill="none" stroke="#63b8ff" d="M1170.58,-236.44C1126.58,-224.99 1048.53,-204.68 1000.09,-192.08"/>
<polygon fill="#63b8ff" stroke="#63b8ff" points="1000.79,-188.64 990.23,-189.51 999.02,-195.42 1000.79,-188.64"/>
</a>
</g>
</g>
<!-- Node34 -->
<g id="Node000034" class="node">
<title>Node34</title>
<g id="a_Node000034"><a xlink:title=" ">
<polygon fill="#e0e0e0" stroke="#999999" points="1174.5,-195 1036.5,-195 1036.5,-165 1174.5,-165 1174.5,-195"/>
<text text-anchor="start" x="1044.5" y="-183" font-family="Helvetica,sans-Serif" font-size="10.00">boost/type_traits/aligned</text>
<text text-anchor="middle" x="1105.5" y="-172" font-family="Helvetica,sans-Serif" font-size="10.00">_storage.hpp</text>
</a>
</g>
</g>
<!-- Node33&#45;&gt;Node34 -->
<g id="edge44_Node000033_Node000034" class="edge">
<title>Node33&#45;&gt;Node34</title>
<g id="a_edge44_Node000033_Node000034"><a xlink:title=" ">
<path fill="none" stroke="#63b8ff" d="M1190.28,-236.37C1176.36,-227.28 1153.98,-212.66 1135.7,-200.72"/>
<polygon fill="#63b8ff" stroke="#63b8ff" points="1137.4,-197.65 1127.11,-195.12 1133.57,-203.51 1137.4,-197.65"/>
</a>
</g>
</g>
<!-- Node35 -->
<g id="Node000035" class="node">
<title>Node35</title>
<g id="a_Node000035"><a xlink:title=" ">
<polygon fill="#e0e0e0" stroke="#999999" points="1236.5,-189.5 1192.5,-189.5 1192.5,-170.5 1236.5,-170.5 1236.5,-189.5"/>
<text text-anchor="middle" x="1214.5" y="-177.5" font-family="Helvetica,sans-Serif" font-size="10.00">limits</text>
</a>
</g>
</g>
<!-- Node33&#45;&gt;Node35 -->
<g id="edge45_Node000033_Node000035" class="edge">
<title>Node33&#45;&gt;Node35</title>
<g id="a_edge45_Node000033_Node000035"><a xlink:title=" ">
<path fill="none" stroke="#63b8ff" d="M1204.98,-236.37C1206.58,-227.07 1209.18,-211.98 1211.25,-199.9"/>
<polygon fill="#63b8ff" stroke="#63b8ff" points="1214.72,-200.35 1212.97,-189.91 1207.83,-199.17 1214.72,-200.35"/>
</a>
</g>
</g>
<!-- Node36&#45;&gt;Node20 -->
<g id="edge51_Node000036_Node000020" class="edge">
<title>Node36&#45;&gt;Node20</title>
<g id="a_edge51_Node000036_Node000020"><a xlink:title=" ">
<path fill="none" stroke="#63b8ff" d="M1453.57,-236.37C1423.96,-225.22 1372.25,-205.75 1338.7,-193.12"/>
<polygon fill="#63b8ff" stroke="#63b8ff" points="1339.93,-189.84 1329.33,-189.6 1337.46,-196.4 1339.93,-189.84"/>
</a>
</g>
</g>
<!-- Node36&#45;&gt;Node23 -->
<g id="edge52_Node000036_Node000023" class="edge">
<title>Node36&#45;&gt;Node23</title>
<g id="a_edge52_Node000036_Node000023"><a xlink:title=" ">
<path fill="none" stroke="#63b8ff" d="M1497.99,-236.41C1521.31,-226.92 1559.51,-210.86 1591.5,-195 1591.92,-194.79 1592.35,-194.58 1592.78,-194.36"/>
<polygon fill="#63b8ff" stroke="#63b8ff" points="1594.65,-197.33 1601.83,-189.54 1591.35,-191.15 1594.65,-197.33"/>
</a>
</g>
</g>
<!-- Node36&#45;&gt;Node29 -->
<g id="edge53_Node000036_Node000029" class="edge">
<title>Node36&#45;&gt;Node29</title>
<g id="a_edge53_Node000036_Node000029"><a xlink:title=" ">
<path fill="none" stroke="#63b8ff" d="M1427.22,-237.4C1412.24,-235.2 1395.71,-232.88 1380.5,-231 1223.99,-211.62 1183.44,-218.49 1027.5,-195 1020.75,-193.98 1013.66,-192.76 1006.69,-191.45"/>
<polygon fill="#63b8ff" stroke="#63b8ff" points="1007.11,-187.97 996.63,-189.51 1005.78,-194.84 1007.11,-187.97"/>
</a>
</g>
</g>
<!-- Node37 -->
<g id="Node000037" class="node">
<title>Node37</title>
<g id="a_Node000037"><a xlink:title=" ">
<polygon fill="#e0e0e0" stroke="#999999" points="1504,-189.5 1451,-189.5 1451,-170.5 1504,-170.5 1504,-189.5"/>
<text text-anchor="middle" x="1477.5" y="-177.5" font-family="Helvetica,sans-Serif" font-size="10.00">cstddef</text>
</a>
</g>
</g>
<!-- Node36&#45;&gt;Node37 -->
<g id="edge48_Node000036_Node000037" class="edge">
<title>Node36&#45;&gt;Node37</title>
<g id="a_edge48_Node000036_Node000037"><a xlink:title=" ">
<path fill="none" stroke="#63b8ff" d="M1476.63,-236.37C1476.78,-227.16 1477.01,-212.29 1477.2,-200.27"/>
<polygon fill="#63b8ff" stroke="#63b8ff" points="1480.7,-199.96 1477.36,-189.91 1473.7,-199.85 1480.7,-199.96"/>
</a>
</g>
</g>
<!-- Node36&#45;&gt;Node38 -->
<g id="edge49_Node000036_Node000038" class="edge">
<title>Node36&#45;&gt;Node38</title>
<g id="a_edge49_Node000036_Node000038"><a xlink:title=" ">
<path fill="none" stroke="#63b8ff" d="M1486.75,-236.37C1498.81,-226.21 1519.06,-209.16 1533.91,-196.65"/>
<polygon fill="#63b8ff" stroke="#63b8ff" points="1536.53,-199.02 1541.93,-189.91 1532.02,-193.67 1536.53,-199.02"/>
</a>
</g>
</g>
<!-- Node39 -->
<g id="Node000039" class="node">
<title>Node39</title>
<g id="a_Node000039"><a xlink:title=" ">
<polygon fill="#e0e0e0" stroke="#999999" points="1433,-189.5 1376,-189.5 1376,-170.5 1433,-170.5 1433,-189.5"/>
<text text-anchor="middle" x="1404.5" y="-177.5" font-family="Helvetica,sans-Serif" font-size="10.00">ostream</text>
</a>
</g>
</g>
<!-- Node36&#45;&gt;Node39 -->
<g id="edge50_Node000036_Node000039" class="edge">
<title>Node36&#45;&gt;Node39</title>
<g id="a_edge50_Node000036_Node000039"><a xlink:title=" ">
<path fill="none" stroke="#63b8ff" d="M1466.79,-236.37C1455.37,-226.21 1436.18,-209.16 1422.11,-196.65"/>
<polygon fill="#63b8ff" stroke="#63b8ff" points="1424.32,-193.93 1414.52,-189.91 1419.67,-199.16 1424.32,-193.93"/>
</a>
</g>
</g>
</g>
</svg>

<g id="navigator" transform="translate(0 0)" fill="#404254">
  <rect fill="#f2f5e9" fill-opacity="0.5" stroke="#606060" stroke-width=".5" x="0" y="0" width="60" height="60"/>
  <use id="zoomplus" xlink:href="#zoomPlus" x="17" y="9" onmousedown="handleZoom(evt,'in')"/>
  <use id="zoomminus" xlink:href="#zoomMin" x="42" y="9" onmousedown="handleZoom(evt,'out')"/>
  <use id="reset" xlink:href="#resetDef" x="30" y="36" onmousedown="handleReset()"/>
   <use id="arrowup" xlink:href="#arrowUp" x="0" y="0" onmousedown="handlePan(0,-1)"/>
  <use id="arrowright" xlink:href="#arrowRight" x="0" y="0" onmousedown="handlePan(1,0)"/>
  <use id="arrowdown" xlink:href="#arrowDown" x="0" y="0" onmousedown="handlePan(0,1)"/>
  <use id="arrowleft" xlink:href="#arrowLeft" x="0" y="0" onmousedown="handlePan(-1,0)"/>
</g>
<svg viewBox="0 0 15 15" width="100%" height="30px" preserveAspectRatio="xMaxYMin meet">
 <g id="arrow_out" transform="scale(0.3 0.3)">
  <a xlink:href="lua__script__params_8h__incl_org.svg" target="_base">
   <rect id="button" ry="5" rx="5" y="6" x="6" height="38" width="38"
        fill="#f2f5e9" fill-opacity="0.5" stroke="#606060" stroke-width="1.0"/>
   <path id="arrow"
     d="M 11.500037,31.436501 C 11.940474,20.09759 22.043105,11.32322 32.158766,21.979434 L 37.068811,17.246167 C 37.068811,17.246167 37.088388,32 37.088388,32 L 22.160133,31.978069 C 22.160133,31.978069 26.997745,27.140456 26.997745,27.140456 C 18.528582,18.264221 13.291696,25.230495 11.500037,31.436501 z"
     style="fill:#404040;"/>
  </a>
 </g>
</svg>

<style type='text/css'>
<![CDATA[
[data-mouse-over-selected='false'] { opacity: 0.7; }
[data-mouse-over-selected='true']  { opacity: 1.0; }
]]>
</style>
<script type="application/ecmascript"><![CDATA[
document.addEventListener('DOMContentLoaded', (event) => {
  highlightEdges();
  highlightAdjacentNodes();
});
]]></script>
</svg>
