<?xml version="1.0" encoding="UTF-8" standalone="no"?>
<!DOCTYPE svg PUBLIC "-//W3C//DTD SVG 1.1//EN"
 "http://www.w3.org/Graphics/SVG/1.1/DTD/svg11.dtd">
<!-- Generated by graphviz version 2.43.0 (0)
 -->
<!-- Title: luasignal.h Pages: 1 -->
<svg width="190pt" height="82pt"
 viewBox="0.00 0.00 189.50 82.00" xmlns="http://www.w3.org/2000/svg" xmlns:xlink="http://www.w3.org/1999/xlink">
<g id="graph0" class="graph" transform="scale(1 1) rotate(0) translate(4 78)">
<title>luasignal.h</title>
<!-- Node1 -->
<g id="Node000001" class="node">
<title>Node1</title>
<g id="a_Node000001"><a xlink:title=" ">
<polygon fill="#999999" stroke="#666666" points="107,-74 37,-74 37,-55 107,-55 107,-74"/>
<text text-anchor="middle" x="72" y="-62" font-family="Helvetica,sans-Serif" font-size="10.00">luasignal.h</text>
</a>
</g>
</g>
<!-- Node2 -->
<g id="Node000002" class="node">
<title>Node2</title>
<g id="a_Node000002"><a xlink:title=" ">
<polygon fill="#e0e0e0" stroke="#999999" points="44,-19 0,-19 0,0 44,0 44,-19"/>
<text text-anchor="middle" x="22" y="-7" font-family="Helvetica,sans-Serif" font-size="10.00">string</text>
</a>
</g>
</g>
<!-- Node1&#45;&gt;Node2 -->
<g id="edge1_Node000001_Node000002" class="edge">
<title>Node1&#45;&gt;Node2</title>
<g id="a_edge1_Node000001_Node000002"><a xlink:title=" ">
<path fill="none" stroke="#63b8ff" d="M63.74,-54.75C56.54,-47.11 45.89,-35.82 37.15,-26.56"/>
<polygon fill="#63b8ff" stroke="#63b8ff" points="39.51,-23.96 30.1,-19.09 34.42,-28.76 39.51,-23.96"/>
</a>
</g>
</g>
<!-- Node3 -->
<g id="Node000003" class="node">
<title>Node3</title>
<g id="a_Node000003"><a xlink:href="luasignal__syms_8inc_8h.html" target="_top" xlink:title=" ">
<polygon fill="white" stroke="#666666" points="181.5,-19 62.5,-19 62.5,0 181.5,0 181.5,-19"/>
<text text-anchor="middle" x="122" y="-7" font-family="Helvetica,sans-Serif" font-size="10.00">luasignal_syms.inc.h</text>
</a>
</g>
</g>
<!-- Node1&#45;&gt;Node3 -->
<g id="edge2_Node000001_Node000003" class="edge">
<title>Node1&#45;&gt;Node3</title>
<g id="a_edge2_Node000001_Node000003"><a xlink:title=" ">
<path fill="none" stroke="#63b8ff" d="M80.26,-54.75C87.46,-47.11 98.11,-35.82 106.85,-26.56"/>
<polygon fill="#63b8ff" stroke="#63b8ff" points="109.58,-28.76 113.9,-19.09 104.49,-23.96 109.58,-28.76"/>
</a>
</g>
</g>
</g>
</svg>
