<?xml version="1.0" encoding="UTF-8" standalone="no"?>
<!DOCTYPE svg PUBLIC "-//W3C//DTD SVG 1.1//EN"
 "http://www.w3.org/Graphics/SVG/1.1/DTD/svg11.dtd">
<!-- Generated by graphviz version 2.43.0 (0)
 -->
<!-- Title: luastate.h Pages: 1 -->
<svg width="450pt" height="357pt"
 viewBox="0.00 0.00 449.50 357.00" xmlns="http://www.w3.org/2000/svg" xmlns:xlink="http://www.w3.org/1999/xlink">
<g id="graph0" class="graph" transform="scale(1 1) rotate(0) translate(4 353)">
<title>luastate.h</title>
<!-- Node1 -->
<g id="Node000001" class="node">
<title>Node1</title>
<g id="a_Node000001"><a xlink:title=" ">
<polygon fill="#999999" stroke="#666666" points="208.5,-349 143.5,-349 143.5,-330 208.5,-330 208.5,-349"/>
<text text-anchor="middle" x="176" y="-337" font-family="Helvetica,sans-Serif" font-size="10.00">luastate.h</text>
</a>
</g>
</g>
<!-- Node2 -->
<g id="Node000002" class="node">
<title>Node2</title>
<g id="a_Node000002"><a xlink:title=" ">
<polygon fill="#e0e0e0" stroke="#999999" points="44,-294 0,-294 0,-275 44,-275 44,-294"/>
<text text-anchor="middle" x="22" y="-282" font-family="Helvetica,sans-Serif" font-size="10.00">string</text>
</a>
</g>
</g>
<!-- Node1&#45;&gt;Node2 -->
<g id="edge1_Node000001_Node000002" class="edge">
<title>Node1&#45;&gt;Node2</title>
<g id="a_edge1_Node000001_Node000002"><a xlink:title=" ">
<path fill="none" stroke="#63b8ff" d="M151.26,-329.98C124.79,-320.88 82.72,-306.4 53.81,-296.45"/>
<polygon fill="#63b8ff" stroke="#63b8ff" points="54.78,-293.08 44.18,-293.13 52.5,-299.7 54.78,-293.08"/>
</a>
</g>
</g>
<!-- Node3 -->
<g id="Node000003" class="node">
<title>Node3</title>
<g id="a_Node000003"><a xlink:title=" ">
<polygon fill="#e0e0e0" stroke="#999999" points="163.5,-294 62.5,-294 62.5,-275 163.5,-275 163.5,-294"/>
<text text-anchor="middle" x="113" y="-282" font-family="Helvetica,sans-Serif" font-size="10.00">sigc++/sigc++.h</text>
</a>
</g>
</g>
<!-- Node1&#45;&gt;Node3 -->
<g id="edge2_Node000001_Node000003" class="edge">
<title>Node1&#45;&gt;Node3</title>
<g id="a_edge2_Node000001_Node000003"><a xlink:title=" ">
<path fill="none" stroke="#63b8ff" d="M165.88,-329.98C156.56,-322.15 142.53,-310.34 131.26,-300.86"/>
<polygon fill="#63b8ff" stroke="#63b8ff" points="133.21,-297.93 123.31,-294.17 128.71,-303.29 133.21,-297.93"/>
</a>
</g>
</g>
<!-- Node4 -->
<g id="Node000004" class="node">
<title>Node4</title>
<g id="a_Node000004"><a xlink:href="liblua__visibility_8h.html" target="_top" xlink:title=" ">
<polygon fill="white" stroke="#666666" points="298,-294 182,-294 182,-275 298,-275 298,-294"/>
<text text-anchor="middle" x="240" y="-282" font-family="Helvetica,sans-Serif" font-size="10.00">lua/liblua_visibility.h</text>
</a>
</g>
</g>
<!-- Node1&#45;&gt;Node4 -->
<g id="edge3_Node000001_Node000004" class="edge">
<title>Node1&#45;&gt;Node4</title>
<g id="a_edge3_Node000001_Node000004"><a xlink:title=" ">
<path fill="none" stroke="#63b8ff" d="M186.28,-329.98C195.84,-322.07 210.28,-310.11 221.78,-300.58"/>
<polygon fill="#63b8ff" stroke="#63b8ff" points="224.06,-303.24 229.53,-294.17 219.6,-297.85 224.06,-303.24"/>
</a>
</g>
</g>
<!-- Node5 -->
<g id="Node000005" class="node">
<title>Node5</title>
<g id="a_Node000005"><a xlink:href="lua_2lua_8h.html" target="_top" xlink:title=" ">
<polygon fill="white" stroke="#666666" points="375.5,-294 316.5,-294 316.5,-275 375.5,-275 375.5,-294"/>
<text text-anchor="middle" x="346" y="-282" font-family="Helvetica,sans-Serif" font-size="10.00">lua/lua.h</text>
</a>
</g>
</g>
<!-- Node1&#45;&gt;Node5 -->
<g id="edge4_Node000001_Node000005" class="edge">
<title>Node1&#45;&gt;Node5</title>
<g id="a_edge4_Node000001_Node000005"><a xlink:title=" ">
<path fill="none" stroke="#63b8ff" d="M203.31,-329.98C231.85,-321.09 276.83,-307.07 308.64,-297.15"/>
<polygon fill="#63b8ff" stroke="#63b8ff" points="309.97,-300.4 318.47,-294.08 307.88,-293.72 309.97,-300.4"/>
</a>
</g>
</g>
<!-- Node6 -->
<g id="Node000006" class="node">
<title>Node6</title>
<g id="a_Node000006"><a xlink:href="lua_8hpp.html" target="_top" xlink:title=" ">
<polygon fill="white" stroke="#666666" points="395,-239 297,-239 297,-220 395,-220 395,-239"/>
<text text-anchor="middle" x="346" y="-227" font-family="Helvetica,sans-Serif" font-size="10.00">lua&#45;5.3.5/lua.hpp</text>
</a>
</g>
</g>
<!-- Node5&#45;&gt;Node6 -->
<g id="edge5_Node000005_Node000006" class="edge">
<title>Node5&#45;&gt;Node6</title>
<g id="a_edge5_Node000005_Node000006"><a xlink:title=" ">
<path fill="none" stroke="#63b8ff" d="M346,-274.75C346,-267.8 346,-257.85 346,-249.13"/>
<polygon fill="#63b8ff" stroke="#63b8ff" points="349.5,-249.09 346,-239.09 342.5,-249.09 349.5,-249.09"/>
</a>
</g>
</g>
<!-- Node7 -->
<g id="Node000007" class="node">
<title>Node7</title>
<g id="a_Node000007"><a xlink:href="lua-5_83_85_2lua_8h.html" target="_top" xlink:title=" ">
<polygon fill="white" stroke="#666666" points="366.5,-129 325.5,-129 325.5,-110 366.5,-110 366.5,-129"/>
<text text-anchor="middle" x="346" y="-117" font-family="Helvetica,sans-Serif" font-size="10.00">lua.h</text>
</a>
</g>
</g>
<!-- Node6&#45;&gt;Node7 -->
<g id="edge6_Node000006_Node000007" class="edge">
<title>Node6&#45;&gt;Node7</title>
<g id="a_edge6_Node000006_Node000007"><a xlink:title=" ">
<path fill="none" stroke="#63b8ff" d="M356.53,-219.93C369.63,-208.16 389.44,-186.03 382,-165 378.25,-154.41 370.79,-144.49 363.63,-136.71"/>
<polygon fill="#63b8ff" stroke="#63b8ff" points="365.69,-133.82 356.16,-129.19 360.72,-138.76 365.69,-133.82"/>
</a>
</g>
</g>
<!-- Node12 -->
<g id="Node000012" class="node">
<title>Node12</title>
<g id="a_Node000012"><a xlink:href="lualib_8h.html" target="_top" xlink:title=" ">
<polygon fill="white" stroke="#666666" points="372.5,-184 319.5,-184 319.5,-165 372.5,-165 372.5,-184"/>
<text text-anchor="middle" x="346" y="-172" font-family="Helvetica,sans-Serif" font-size="10.00">lualib.h</text>
</a>
</g>
</g>
<!-- Node6&#45;&gt;Node12 -->
<g id="edge12_Node000006_Node000012" class="edge">
<title>Node6&#45;&gt;Node12</title>
<g id="a_edge12_Node000006_Node000012"><a xlink:title=" ">
<path fill="none" stroke="#63b8ff" d="M346,-219.75C346,-212.8 346,-202.85 346,-194.13"/>
<polygon fill="#63b8ff" stroke="#63b8ff" points="349.5,-194.09 346,-184.09 342.5,-194.09 349.5,-194.09"/>
</a>
</g>
</g>
<!-- Node13 -->
<g id="Node000013" class="node">
<title>Node13</title>
<g id="a_Node000013"><a xlink:href="lauxlib_8h.html" target="_top" xlink:title=" ">
<polygon fill="white" stroke="#666666" points="301.5,-184 242.5,-184 242.5,-165 301.5,-165 301.5,-184"/>
<text text-anchor="middle" x="272" y="-172" font-family="Helvetica,sans-Serif" font-size="10.00">lauxlib.h</text>
</a>
</g>
</g>
<!-- Node6&#45;&gt;Node13 -->
<g id="edge14_Node000006_Node000013" class="edge">
<title>Node6&#45;&gt;Node13</title>
<g id="a_edge14_Node000006_Node000013"><a xlink:title=" ">
<path fill="none" stroke="#63b8ff" d="M334.11,-219.98C322.85,-211.92 305.71,-199.65 292.29,-190.03"/>
<polygon fill="#63b8ff" stroke="#63b8ff" points="294.27,-187.15 284.11,-184.17 290.2,-192.84 294.27,-187.15"/>
</a>
</g>
</g>
<!-- Node8 -->
<g id="Node000008" class="node">
<title>Node8</title>
<g id="a_Node000008"><a xlink:title=" ">
<polygon fill="#e0e0e0" stroke="#999999" points="362,-74 306,-74 306,-55 362,-55 362,-74"/>
<text text-anchor="middle" x="334" y="-62" font-family="Helvetica,sans-Serif" font-size="10.00">stdarg.h</text>
</a>
</g>
</g>
<!-- Node7&#45;&gt;Node8 -->
<g id="edge7_Node000007_Node000008" class="edge">
<title>Node7&#45;&gt;Node8</title>
<g id="a_edge7_Node000007_Node000008"><a xlink:title=" ">
<path fill="none" stroke="#63b8ff" d="M344.02,-109.75C342.43,-102.72 340.14,-92.62 338.15,-83.84"/>
<polygon fill="#63b8ff" stroke="#63b8ff" points="341.57,-83.07 335.94,-74.09 334.74,-84.62 341.57,-83.07"/>
</a>
</g>
</g>
<!-- Node9 -->
<g id="Node000009" class="node">
<title>Node9</title>
<g id="a_Node000009"><a xlink:title=" ">
<polygon fill="#e0e0e0" stroke="#999999" points="306,-19 250,-19 250,0 306,0 306,-19"/>
<text text-anchor="middle" x="278" y="-7" font-family="Helvetica,sans-Serif" font-size="10.00">stddef.h</text>
</a>
</g>
</g>
<!-- Node7&#45;&gt;Node9 -->
<g id="edge8_Node000007_Node000009" class="edge">
<title>Node7&#45;&gt;Node9</title>
<g id="a_edge8_Node000007_Node000009"><a xlink:title=" ">
<path fill="none" stroke="#63b8ff" d="M332.92,-109.75C321.84,-101.7 306.31,-88.78 297,-74 288.38,-60.31 283.49,-42.5 280.84,-29.22"/>
<polygon fill="#63b8ff" stroke="#63b8ff" points="284.28,-28.58 279.11,-19.33 277.39,-29.79 284.28,-28.58"/>
</a>
</g>
</g>
<!-- Node10 -->
<g id="Node000010" class="node">
<title>Node10</title>
<g id="a_Node000010"><a xlink:href="luaconf_8h.html" target="_top" xlink:title=" ">
<polygon fill="white" stroke="#666666" points="441.5,-74 380.5,-74 380.5,-55 441.5,-55 441.5,-74"/>
<text text-anchor="middle" x="411" y="-62" font-family="Helvetica,sans-Serif" font-size="10.00">luaconf.h</text>
</a>
</g>
</g>
<!-- Node7&#45;&gt;Node10 -->
<g id="edge9_Node000007_Node000010" class="edge">
<title>Node7&#45;&gt;Node10</title>
<g id="a_edge9_Node000007_Node000010"><a xlink:title=" ">
<path fill="none" stroke="#63b8ff" d="M356.44,-109.98C366.15,-102.07 380.82,-90.11 392.5,-80.58"/>
<polygon fill="#63b8ff" stroke="#63b8ff" points="394.83,-83.2 400.37,-74.17 390.4,-77.78 394.83,-83.2"/>
</a>
</g>
</g>
<!-- Node10&#45;&gt;Node9 -->
<g id="edge11_Node000010_Node000009" class="edge">
<title>Node10&#45;&gt;Node9</title>
<g id="a_edge11_Node000010_Node000009"><a xlink:title=" ">
<path fill="none" stroke="#63b8ff" d="M389.63,-54.98C367.85,-46.3 333.84,-32.75 309.08,-22.88"/>
<polygon fill="#63b8ff" stroke="#63b8ff" points="310.34,-19.62 299.76,-19.17 307.75,-26.12 310.34,-19.62"/>
</a>
</g>
</g>
<!-- Node11 -->
<g id="Node000011" class="node">
<title>Node11</title>
<g id="a_Node000011"><a xlink:title=" ">
<polygon fill="#e0e0e0" stroke="#999999" points="437.5,-19 384.5,-19 384.5,0 437.5,0 437.5,-19"/>
<text text-anchor="middle" x="411" y="-7" font-family="Helvetica,sans-Serif" font-size="10.00">limits.h</text>
</a>
</g>
</g>
<!-- Node10&#45;&gt;Node11 -->
<g id="edge10_Node000010_Node000011" class="edge">
<title>Node10&#45;&gt;Node11</title>
<g id="a_edge10_Node000010_Node000011"><a xlink:title=" ">
<path fill="none" stroke="#63b8ff" d="M411,-54.75C411,-47.8 411,-37.85 411,-29.13"/>
<polygon fill="#63b8ff" stroke="#63b8ff" points="414.5,-29.09 411,-19.09 407.5,-29.09 414.5,-29.09"/>
</a>
</g>
</g>
<!-- Node12&#45;&gt;Node7 -->
<g id="edge13_Node000012_Node000007" class="edge">
<title>Node12&#45;&gt;Node7</title>
<g id="a_edge13_Node000012_Node000007"><a xlink:title=" ">
<path fill="none" stroke="#63b8ff" d="M346,-164.75C346,-157.8 346,-147.85 346,-139.13"/>
<polygon fill="#63b8ff" stroke="#63b8ff" points="349.5,-139.09 346,-129.09 342.5,-139.09 349.5,-139.09"/>
</a>
</g>
</g>
<!-- Node13&#45;&gt;Node7 -->
<g id="edge17_Node000013_Node000007" class="edge">
<title>Node13&#45;&gt;Node7</title>
<g id="a_edge17_Node000013_Node000007"><a xlink:title=" ">
<path fill="none" stroke="#63b8ff" d="M283.89,-164.98C295.15,-156.92 312.29,-144.65 325.71,-135.03"/>
<polygon fill="#63b8ff" stroke="#63b8ff" points="327.8,-137.84 333.89,-129.17 323.73,-132.15 327.8,-137.84"/>
</a>
</g>
</g>
<!-- Node13&#45;&gt;Node9 -->
<g id="edge15_Node000013_Node000009" class="edge">
<title>Node13&#45;&gt;Node9</title>
<g id="a_edge15_Node000013_Node000009"><a xlink:title=" ">
<path fill="none" stroke="#63b8ff" d="M265.63,-164.84C259.74,-156.25 251.39,-142.45 248,-129 238.95,-93.15 256.11,-51.21 268,-28.08"/>
<polygon fill="#63b8ff" stroke="#63b8ff" points="271.16,-29.59 272.83,-19.12 265,-26.26 271.16,-29.59"/>
</a>
</g>
</g>
<!-- Node14 -->
<g id="Node000014" class="node">
<title>Node14</title>
<g id="a_Node000014"><a xlink:title=" ">
<polygon fill="#e0e0e0" stroke="#999999" points="307,-129 257,-129 257,-110 307,-110 307,-129"/>
<text text-anchor="middle" x="282" y="-117" font-family="Helvetica,sans-Serif" font-size="10.00">stdio.h</text>
</a>
</g>
</g>
<!-- Node13&#45;&gt;Node14 -->
<g id="edge16_Node000013_Node000014" class="edge">
<title>Node13&#45;&gt;Node14</title>
<g id="a_edge16_Node000013_Node000014"><a xlink:title=" ">
<path fill="none" stroke="#63b8ff" d="M273.65,-164.75C274.96,-157.8 276.84,-147.85 278.48,-139.13"/>
<polygon fill="#63b8ff" stroke="#63b8ff" points="281.96,-139.56 280.38,-129.09 275.09,-138.27 281.96,-139.56"/>
</a>
</g>
</g>
</g>
</svg>
