<?xml version="1.0" encoding="UTF-8" standalone="no"?>
<!DOCTYPE svg PUBLIC "-//W3C//DTD SVG 1.1//EN"
 "http://www.w3.org/Graphics/SVG/1.1/DTD/svg11.dtd">
<!-- Generated by graphviz version 2.43.0 (0)
 -->
<!-- Title: lvm.h Pages: 1 -->
<svg width="304pt" height="467pt"
 viewBox="0.00 0.00 303.61 467.00" xmlns="http://www.w3.org/2000/svg" xmlns:xlink="http://www.w3.org/1999/xlink">
<g id="graph0" class="graph" transform="scale(1 1) rotate(0) translate(4 463)">
<title>lvm.h</title>
<!-- Node1 -->
<g id="Node000001" class="node">
<title>Node1</title>
<g id="a_Node000001"><a xlink:title=" ">
<polygon fill="#999999" stroke="#666666" points="63.56,-459 19.56,-459 19.56,-440 63.56,-440 63.56,-459"/>
<text text-anchor="middle" x="41.56" y="-447" font-family="Helvetica,sans-Serif" font-size="10.00">lvm.h</text>
</a>
</g>
</g>
<!-- Node2 -->
<g id="Node000002" class="node">
<title>Node2</title>
<g id="a_Node000002"><a xlink:href="ldo_8h.html" target="_top" xlink:title=" ">
<polygon fill="white" stroke="#666666" points="114.06,-404 73.06,-404 73.06,-385 114.06,-385 114.06,-404"/>
<text text-anchor="middle" x="93.56" y="-392" font-family="Helvetica,sans-Serif" font-size="10.00">ldo.h</text>
</a>
</g>
</g>
<!-- Node1&#45;&gt;Node2 -->
<g id="edge1_Node000001_Node000002" class="edge">
<title>Node1&#45;&gt;Node2</title>
<g id="a_edge1_Node000001_Node000002"><a xlink:title=" ">
<path fill="none" stroke="#63b8ff" d="M50.14,-439.75C57.72,-432.03 68.93,-420.6 78.07,-411.28"/>
<polygon fill="#63b8ff" stroke="#63b8ff" points="80.62,-413.68 85.13,-404.09 75.63,-408.78 80.62,-413.68"/>
</a>
</g>
</g>
<!-- Node3 -->
<g id="Node000003" class="node">
<title>Node3</title>
<g id="a_Node000003"><a xlink:href="lobject_8h.html" target="_top" xlink:title=" ">
<polygon fill="white" stroke="#666666" points="71.06,-239 12.06,-239 12.06,-220 71.06,-220 71.06,-239"/>
<text text-anchor="middle" x="41.56" y="-227" font-family="Helvetica,sans-Serif" font-size="10.00">lobject.h</text>
</a>
</g>
</g>
<!-- Node1&#45;&gt;Node3 -->
<g id="edge27_Node000001_Node000003" class="edge">
<title>Node1&#45;&gt;Node3</title>
<g id="a_edge27_Node000001_Node000003"><a xlink:title=" ">
<path fill="none" stroke="#63b8ff" d="M36.73,-439.98C22.88,-414.41 -14.65,-336.27 6.56,-275 10.23,-264.38 17.6,-254.38 24.64,-246.55"/>
<polygon fill="#63b8ff" stroke="#63b8ff" points="27.25,-248.88 31.67,-239.25 22.21,-244.02 27.25,-248.88"/>
</a>
</g>
</g>
<!-- Node11 -->
<g id="Node000011" class="node">
<title>Node11</title>
<g id="a_Node000011"><a xlink:href="ltm_8h.html" target="_top" xlink:title=" ">
<polygon fill="white" stroke="#666666" points="62.56,-294 20.56,-294 20.56,-275 62.56,-275 62.56,-294"/>
<text text-anchor="middle" x="41.56" y="-282" font-family="Helvetica,sans-Serif" font-size="10.00">ltm.h</text>
</a>
</g>
</g>
<!-- Node1&#45;&gt;Node11 -->
<g id="edge28_Node000001_Node000011" class="edge">
<title>Node1&#45;&gt;Node11</title>
<g id="a_edge28_Node000001_Node000011"><a xlink:title=" ">
<path fill="none" stroke="#63b8ff" d="M41.56,-439.74C41.56,-414.31 41.56,-340.08 41.56,-304.69"/>
<polygon fill="#63b8ff" stroke="#63b8ff" points="45.06,-304.31 41.56,-294.31 38.06,-304.31 45.06,-304.31"/>
</a>
</g>
</g>
<!-- Node2&#45;&gt;Node3 -->
<g id="edge2_Node000002_Node000003" class="edge">
<title>Node2&#45;&gt;Node3</title>
<g id="a_edge2_Node000002_Node000003"><a xlink:title=" ">
<path fill="none" stroke="#63b8ff" d="M82.58,-384.8C63.73,-369.08 25.85,-333.82 11.56,-294 5.67,-277.59 15.72,-259.7 25.74,-247.1"/>
<polygon fill="#63b8ff" stroke="#63b8ff" points="28.58,-249.16 32.47,-239.31 23.29,-244.59 28.58,-249.16"/>
</a>
</g>
</g>
<!-- Node10 -->
<g id="Node000010" class="node">
<title>Node10</title>
<g id="a_Node000010"><a xlink:href="lstate_8h.html" target="_top" xlink:title=" ">
<polygon fill="white" stroke="#666666" points="148.06,-349 95.06,-349 95.06,-330 148.06,-330 148.06,-349"/>
<text text-anchor="middle" x="121.56" y="-337" font-family="Helvetica,sans-Serif" font-size="10.00">lstate.h</text>
</a>
</g>
</g>
<!-- Node2&#45;&gt;Node10 -->
<g id="edge14_Node000002_Node000010" class="edge">
<title>Node2&#45;&gt;Node10</title>
<g id="a_edge14_Node000002_Node000010"><a xlink:title=" ">
<path fill="none" stroke="#63b8ff" d="M98.18,-384.75C102.01,-377.49 107.58,-366.95 112.32,-357.98"/>
<polygon fill="#63b8ff" stroke="#63b8ff" points="115.44,-359.57 117.02,-349.09 109.25,-356.3 115.44,-359.57"/>
</a>
</g>
</g>
<!-- Node12 -->
<g id="Node000012" class="node">
<title>Node12</title>
<g id="a_Node000012"><a xlink:href="lzio_8h.html" target="_top" xlink:title=" ">
<polygon fill="white" stroke="#666666" points="277.06,-294 234.06,-294 234.06,-275 277.06,-275 277.06,-294"/>
<text text-anchor="middle" x="255.56" y="-282" font-family="Helvetica,sans-Serif" font-size="10.00">lzio.h</text>
</a>
</g>
</g>
<!-- Node2&#45;&gt;Node12 -->
<g id="edge26_Node000002_Node000012" class="edge">
<title>Node2&#45;&gt;Node12</title>
<g id="a_edge26_Node000002_Node000012"><a xlink:title=" ">
<path fill="none" stroke="#63b8ff" d="M106.54,-384.84C134.38,-366.28 200.08,-322.49 234.18,-299.75"/>
<polygon fill="#63b8ff" stroke="#63b8ff" points="236.13,-302.66 242.51,-294.2 232.25,-296.83 236.13,-302.66"/>
</a>
</g>
</g>
<!-- Node4 -->
<g id="Node000004" class="node">
<title>Node4</title>
<g id="a_Node000004"><a xlink:title=" ">
<polygon fill="#e0e0e0" stroke="#999999" points="89.56,-74 33.56,-74 33.56,-55 89.56,-55 89.56,-74"/>
<text text-anchor="middle" x="61.56" y="-62" font-family="Helvetica,sans-Serif" font-size="10.00">stdarg.h</text>
</a>
</g>
</g>
<!-- Node3&#45;&gt;Node4 -->
<g id="edge3_Node000003_Node000004" class="edge">
<title>Node3&#45;&gt;Node4</title>
<g id="a_edge3_Node000003_Node000004"><a xlink:title=" ">
<path fill="none" stroke="#63b8ff" d="M42.63,-219.74C45.75,-194.31 54.86,-120.08 59.2,-84.69"/>
<polygon fill="#63b8ff" stroke="#63b8ff" points="62.73,-84.66 60.48,-74.31 55.78,-83.81 62.73,-84.66"/>
</a>
</g>
</g>
<!-- Node5 -->
<g id="Node000005" class="node">
<title>Node5</title>
<g id="a_Node000005"><a xlink:href="llimits_8h.html" target="_top" xlink:title=" ">
<polygon fill="white" stroke="#666666" points="136.56,-184 80.56,-184 80.56,-165 136.56,-165 136.56,-184"/>
<text text-anchor="middle" x="108.56" y="-172" font-family="Helvetica,sans-Serif" font-size="10.00">llimits.h</text>
</a>
</g>
</g>
<!-- Node3&#45;&gt;Node5 -->
<g id="edge4_Node000003_Node000005" class="edge">
<title>Node3&#45;&gt;Node5</title>
<g id="a_edge4_Node000003_Node000005"><a xlink:title=" ">
<path fill="none" stroke="#63b8ff" d="M52.32,-219.98C62.32,-212.07 77.44,-200.11 89.49,-190.58"/>
<polygon fill="#63b8ff" stroke="#63b8ff" points="91.92,-193.12 97.6,-184.17 87.58,-187.63 91.92,-193.12"/>
</a>
</g>
</g>
<!-- Node8 -->
<g id="Node000008" class="node">
<title>Node8</title>
<g id="a_Node000008"><a xlink:href="lua-5_83_85_2lua_8h.html" target="_top" xlink:title=" ">
<polygon fill="white" stroke="#666666" points="250.06,-129 209.06,-129 209.06,-110 250.06,-110 250.06,-129"/>
<text text-anchor="middle" x="229.56" y="-117" font-family="Helvetica,sans-Serif" font-size="10.00">lua.h</text>
</a>
</g>
</g>
<!-- Node3&#45;&gt;Node8 -->
<g id="edge13_Node000003_Node000008" class="edge">
<title>Node3&#45;&gt;Node8</title>
<g id="a_edge13_Node000003_Node000008"><a xlink:title=" ">
<path fill="none" stroke="#63b8ff" d="M66.32,-219.85C87.91,-211.86 119.74,-198.98 145.56,-184 170.06,-169.78 195.68,-149.5 212.09,-135.72"/>
<polygon fill="#63b8ff" stroke="#63b8ff" points="214.43,-138.32 219.77,-129.16 209.89,-132.99 214.43,-138.32"/>
</a>
</g>
</g>
<!-- Node6 -->
<g id="Node000006" class="node">
<title>Node6</title>
<g id="a_Node000006"><a xlink:title=" ">
<polygon fill="#e0e0e0" stroke="#999999" points="111.06,-19 58.06,-19 58.06,0 111.06,0 111.06,-19"/>
<text text-anchor="middle" x="84.56" y="-7" font-family="Helvetica,sans-Serif" font-size="10.00">limits.h</text>
</a>
</g>
</g>
<!-- Node5&#45;&gt;Node6 -->
<g id="edge5_Node000005_Node000006" class="edge">
<title>Node5&#45;&gt;Node6</title>
<g id="a_edge5_Node000005_Node000006"><a xlink:title=" ">
<path fill="none" stroke="#63b8ff" d="M97.32,-164.87C78.02,-149.24 39.23,-114.13 24.56,-74 21.66,-66.07 20.76,-62.54 24.56,-55 31.25,-41.71 44,-31.39 56.03,-24.05"/>
<polygon fill="#63b8ff" stroke="#63b8ff" points="57.97,-26.97 64.97,-19.02 54.54,-20.87 57.97,-26.97"/>
</a>
</g>
</g>
<!-- Node7 -->
<g id="Node000007" class="node">
<title>Node7</title>
<g id="a_Node000007"><a xlink:title=" ">
<polygon fill="#e0e0e0" stroke="#999999" points="244.56,-19 188.56,-19 188.56,0 244.56,0 244.56,-19"/>
<text text-anchor="middle" x="216.56" y="-7" font-family="Helvetica,sans-Serif" font-size="10.00">stddef.h</text>
</a>
</g>
</g>
<!-- Node5&#45;&gt;Node7 -->
<g id="edge6_Node000005_Node000007" class="edge">
<title>Node5&#45;&gt;Node7</title>
<g id="a_edge6_Node000005_Node000007"><a xlink:title=" ">
<path fill="none" stroke="#63b8ff" d="M114.96,-164.86C127.54,-147.78 156.23,-108.36 178.56,-74 188.49,-58.72 199.08,-40.88 206.55,-28"/>
<polygon fill="#63b8ff" stroke="#63b8ff" points="209.63,-29.66 211.59,-19.25 203.57,-26.17 209.63,-29.66"/>
</a>
</g>
</g>
<!-- Node5&#45;&gt;Node8 -->
<g id="edge7_Node000005_Node000008" class="edge">
<title>Node5&#45;&gt;Node8</title>
<g id="a_edge7_Node000005_Node000008"><a xlink:title=" ">
<path fill="none" stroke="#63b8ff" d="M128,-164.98C147.55,-156.42 177.94,-143.11 200.38,-133.28"/>
<polygon fill="#63b8ff" stroke="#63b8ff" points="202.01,-136.39 209.76,-129.17 199.2,-129.98 202.01,-136.39"/>
</a>
</g>
</g>
<!-- Node8&#45;&gt;Node4 -->
<g id="edge8_Node000008_Node000004" class="edge">
<title>Node8&#45;&gt;Node4</title>
<g id="a_edge8_Node000008_Node000004"><a xlink:title=" ">
<path fill="none" stroke="#63b8ff" d="M208.96,-112C181.44,-103.32 132.24,-87.8 98.29,-77.09"/>
<polygon fill="#63b8ff" stroke="#63b8ff" points="99.31,-73.74 88.72,-74.07 97.21,-80.42 99.31,-73.74"/>
</a>
</g>
</g>
<!-- Node8&#45;&gt;Node7 -->
<g id="edge9_Node000008_Node000007" class="edge">
<title>Node8&#45;&gt;Node7</title>
<g id="a_edge9_Node000008_Node000007"><a xlink:title=" ">
<path fill="none" stroke="#63b8ff" d="M228.49,-109.66C226.39,-92.17 221.65,-52.8 218.82,-29.27"/>
<polygon fill="#63b8ff" stroke="#63b8ff" points="222.27,-28.67 217.6,-19.16 215.32,-29.51 222.27,-28.67"/>
</a>
</g>
</g>
<!-- Node9 -->
<g id="Node000009" class="node">
<title>Node9</title>
<g id="a_Node000009"><a xlink:href="luaconf_8h.html" target="_top" xlink:title=" ">
<polygon fill="white" stroke="#666666" points="169.06,-74 108.06,-74 108.06,-55 169.06,-55 169.06,-74"/>
<text text-anchor="middle" x="138.56" y="-62" font-family="Helvetica,sans-Serif" font-size="10.00">luaconf.h</text>
</a>
</g>
</g>
<!-- Node8&#45;&gt;Node9 -->
<g id="edge10_Node000008_Node000009" class="edge">
<title>Node8&#45;&gt;Node9</title>
<g id="a_edge10_Node000008_Node000009"><a xlink:title=" ">
<path fill="none" stroke="#63b8ff" d="M214.94,-109.98C200.69,-101.69 178.81,-88.94 162.11,-79.22"/>
<polygon fill="#63b8ff" stroke="#63b8ff" points="163.85,-76.18 153.44,-74.17 160.32,-82.23 163.85,-76.18"/>
</a>
</g>
</g>
<!-- Node9&#45;&gt;Node6 -->
<g id="edge11_Node000009_Node000006" class="edge">
<title>Node9&#45;&gt;Node6</title>
<g id="a_edge11_Node000009_Node000006"><a xlink:title=" ">
<path fill="none" stroke="#63b8ff" d="M129.64,-54.75C121.78,-47.03 110.13,-35.6 100.64,-26.28"/>
<polygon fill="#63b8ff" stroke="#63b8ff" points="102.9,-23.6 93.31,-19.09 97.99,-28.59 102.9,-23.6"/>
</a>
</g>
</g>
<!-- Node9&#45;&gt;Node7 -->
<g id="edge12_Node000009_Node000007" class="edge">
<title>Node9&#45;&gt;Node7</title>
<g id="a_edge12_Node000009_Node000007"><a xlink:title=" ">
<path fill="none" stroke="#63b8ff" d="M151.09,-54.98C162.96,-46.92 181.02,-34.65 195.17,-25.03"/>
<polygon fill="#63b8ff" stroke="#63b8ff" points="197.49,-27.69 203.8,-19.17 193.56,-21.9 197.49,-27.69"/>
</a>
</g>
</g>
<!-- Node10&#45;&gt;Node3 -->
<g id="edge16_Node000010_Node000003" class="edge">
<title>Node10&#45;&gt;Node3</title>
<g id="a_edge16_Node000010_Node000003"><a xlink:title=" ">
<path fill="none" stroke="#63b8ff" d="M115.01,-329.66C101.7,-311.69 71.29,-270.64 54.06,-247.38"/>
<polygon fill="#63b8ff" stroke="#63b8ff" points="56.74,-245.11 47.97,-239.16 51.11,-249.28 56.74,-245.11"/>
</a>
</g>
</g>
<!-- Node10&#45;&gt;Node8 -->
<g id="edge15_Node000010_Node000008" class="edge">
<title>Node10&#45;&gt;Node8</title>
<g id="a_edge15_Node000010_Node000008"><a xlink:title=" ">
<path fill="none" stroke="#63b8ff" d="M139.69,-329.89C153.7,-322.33 172.5,-310.03 183.56,-294 217.11,-245.35 226.19,-173.57 228.65,-139.62"/>
<polygon fill="#63b8ff" stroke="#63b8ff" points="232.16,-139.49 229.27,-129.29 225.18,-139.07 232.16,-139.49"/>
</a>
</g>
</g>
<!-- Node10&#45;&gt;Node11 -->
<g id="edge17_Node000010_Node000011" class="edge">
<title>Node10&#45;&gt;Node11</title>
<g id="a_edge17_Node000010_Node000011"><a xlink:title=" ">
<path fill="none" stroke="#63b8ff" d="M108.7,-329.98C96.41,-321.84 77.65,-309.41 63.08,-299.76"/>
<polygon fill="#63b8ff" stroke="#63b8ff" points="64.91,-296.78 54.64,-294.17 61.05,-302.61 64.91,-296.78"/>
</a>
</g>
</g>
<!-- Node10&#45;&gt;Node12 -->
<g id="edge19_Node000010_Node000012" class="edge">
<title>Node10&#45;&gt;Node12</title>
<g id="a_edge19_Node000010_Node000012"><a xlink:title=" ">
<path fill="none" stroke="#63b8ff" d="M143.09,-329.98C165.03,-321.3 199.3,-307.75 224.24,-297.88"/>
<polygon fill="#63b8ff" stroke="#63b8ff" points="225.62,-301.1 233.64,-294.17 223.05,-294.59 225.62,-301.1"/>
</a>
</g>
</g>
<!-- Node14 -->
<g id="Node000014" class="node">
<title>Node14</title>
<g id="a_Node000014"><a xlink:title=" ">
<polygon fill="#e0e0e0" stroke="#999999" points="174.06,-294 119.06,-294 119.06,-275 174.06,-275 174.06,-294"/>
<text text-anchor="middle" x="146.56" y="-282" font-family="Helvetica,sans-Serif" font-size="10.00">signal.h</text>
</a>
</g>
</g>
<!-- Node10&#45;&gt;Node14 -->
<g id="edge25_Node000010_Node000014" class="edge">
<title>Node10&#45;&gt;Node14</title>
<g id="a_edge25_Node000010_Node000014"><a xlink:title=" ">
<path fill="none" stroke="#63b8ff" d="M125.69,-329.75C129.07,-322.57 133.97,-312.18 138.18,-303.27"/>
<polygon fill="#63b8ff" stroke="#63b8ff" points="141.4,-304.63 142.51,-294.09 135.07,-301.64 141.4,-304.63"/>
</a>
</g>
</g>
<!-- Node11&#45;&gt;Node3 -->
<g id="edge18_Node000011_Node000003" class="edge">
<title>Node11&#45;&gt;Node3</title>
<g id="a_edge18_Node000011_Node000003"><a xlink:title=" ">
<path fill="none" stroke="#63b8ff" d="M41.56,-274.75C41.56,-267.8 41.56,-257.85 41.56,-249.13"/>
<polygon fill="#63b8ff" stroke="#63b8ff" points="45.06,-249.09 41.56,-239.09 38.06,-249.09 45.06,-249.09"/>
</a>
</g>
</g>
<!-- Node12&#45;&gt;Node8 -->
<g id="edge20_Node000012_Node000008" class="edge">
<title>Node12&#45;&gt;Node8</title>
<g id="a_edge20_Node000012_Node000008"><a xlink:title=" ">
<path fill="none" stroke="#63b8ff" d="M266.27,-274.93C275.49,-266.8 288.14,-253.68 293.56,-239 296.48,-231.08 295.94,-228.1 293.56,-220 284.01,-187.51 260.21,-155.59 244.48,-136.99"/>
<polygon fill="#63b8ff" stroke="#63b8ff" points="246.91,-134.45 237.7,-129.21 241.63,-139.05 246.91,-134.45"/>
</a>
</g>
</g>
<!-- Node13 -->
<g id="Node000013" class="node">
<title>Node13</title>
<g id="a_Node000013"><a xlink:href="lmem_8h.html" target="_top" xlink:title=" ">
<polygon fill="white" stroke="#666666" points="284.56,-239 230.56,-239 230.56,-220 284.56,-220 284.56,-239"/>
<text text-anchor="middle" x="257.56" y="-227" font-family="Helvetica,sans-Serif" font-size="10.00">lmem.h</text>
</a>
</g>
</g>
<!-- Node12&#45;&gt;Node13 -->
<g id="edge21_Node000012_Node000013" class="edge">
<title>Node12&#45;&gt;Node13</title>
<g id="a_edge21_Node000012_Node000013"><a xlink:title=" ">
<path fill="none" stroke="#63b8ff" d="M255.89,-274.75C256.15,-267.8 256.52,-257.85 256.85,-249.13"/>
<polygon fill="#63b8ff" stroke="#63b8ff" points="260.35,-249.21 257.23,-239.09 253.36,-248.95 260.35,-249.21"/>
</a>
</g>
</g>
<!-- Node13&#45;&gt;Node5 -->
<g id="edge23_Node000013_Node000005" class="edge">
<title>Node13&#45;&gt;Node5</title>
<g id="a_edge23_Node000013_Node000005"><a xlink:title=" ">
<path fill="none" stroke="#63b8ff" d="M233.62,-219.98C209,-211.23 170.44,-197.51 142.64,-187.62"/>
<polygon fill="#63b8ff" stroke="#63b8ff" points="143.53,-184.22 132.93,-184.17 141.18,-190.82 143.53,-184.22"/>
</a>
</g>
</g>
<!-- Node13&#45;&gt;Node7 -->
<g id="edge22_Node000013_Node000007" class="edge">
<title>Node13&#45;&gt;Node7</title>
<g id="a_edge22_Node000013_Node000007"><a xlink:title=" ">
<path fill="none" stroke="#63b8ff" d="M258.96,-219.76C261.88,-199.98 267.65,-150.35 259.56,-110 254.34,-84.02 247.1,-79.31 236.56,-55 232.72,-46.15 228.34,-36.36 224.65,-28.23"/>
<polygon fill="#63b8ff" stroke="#63b8ff" points="227.78,-26.66 220.46,-19 221.41,-29.55 227.78,-26.66"/>
</a>
</g>
</g>
<!-- Node13&#45;&gt;Node8 -->
<g id="edge24_Node000013_Node000008" class="edge">
<title>Node13&#45;&gt;Node8</title>
<g id="a_edge24_Node000013_Node000008"><a xlink:title=" ">
<path fill="none" stroke="#63b8ff" d="M255.27,-219.66C250.71,-202.09 240.43,-162.45 234.34,-138.95"/>
<polygon fill="#63b8ff" stroke="#63b8ff" points="237.7,-137.96 231.8,-129.16 230.92,-139.72 237.7,-137.96"/>
</a>
</g>
</g>
</g>
</svg>
