<?xml version="1.0" encoding="UTF-8" standalone="no"?>
<!DOCTYPE svg PUBLIC "-//W3C//DTD SVG 1.1//EN"
 "http://www.w3.org/Graphics/SVG/1.1/DTD/svg11.dtd">
<!-- Generated by graphviz version 2.43.0 (0)
 -->
<!-- Title: controls.h Pages: 1 -->
<svg width="433pt" height="302pt"
 viewBox="0.00 0.00 432.55 302.00" xmlns="http://www.w3.org/2000/svg" xmlns:xlink="http://www.w3.org/1999/xlink">
<g id="graph0" class="graph" transform="scale(1 1) rotate(0) translate(4 298)">
<title>controls.h</title>
<!-- Node1 -->
<g id="Node000001" class="node">
<title>Node1</title>
<g id="a_Node000001"><a xlink:title=" ">
<polygon fill="#999999" stroke="#666666" points="210.05,-294 145.05,-294 145.05,-275 210.05,-275 210.05,-294"/>
<text text-anchor="middle" x="177.55" y="-282" font-family="Helvetica,sans-Serif" font-size="10.00">controls.h</text>
</a>
</g>
</g>
<!-- Node2 -->
<g id="Node000002" class="node">
<title>Node2</title>
<g id="a_Node000002"><a xlink:href="surfaces_2mackie_2button_8h.html" target="_top" xlink:title=" ">
<polygon fill="white" stroke="#666666" points="182.05,-184 125.05,-184 125.05,-165 182.05,-165 182.05,-184"/>
<text text-anchor="middle" x="153.55" y="-172" font-family="Helvetica,sans-Serif" font-size="10.00">button.h</text>
</a>
</g>
</g>
<!-- Node1&#45;&gt;Node2 -->
<g id="edge1_Node000001_Node000002" class="edge">
<title>Node1&#45;&gt;Node2</title>
<g id="a_edge1_Node000001_Node000002"><a xlink:title=" ">
<path fill="none" stroke="#63b8ff" d="M134.72,-280.04C107.17,-275.34 73.32,-264.39 55.55,-239 35.1,-209.76 89.09,-190.71 124.83,-181.66"/>
<polygon fill="#63b8ff" stroke="#63b8ff" points="134.52,-283.55 144.92,-281.56 135.55,-276.63 134.52,-283.55"/>
</a>
</g>
</g>
<!-- Node4 -->
<g id="Node000004" class="node">
<title>Node4</title>
<g id="a_Node000004"><a xlink:href="mackie__control__protocol_8h.html" target="_top" xlink:title=" ">
<polygon fill="white" stroke="#666666" points="175.55,-74 29.55,-74 29.55,-55 175.55,-55 175.55,-74"/>
<text text-anchor="middle" x="102.55" y="-62" font-family="Helvetica,sans-Serif" font-size="10.00">mackie_control_protocol.h</text>
</a>
</g>
</g>
<!-- Node1&#45;&gt;Node4 -->
<g id="edge13_Node000001_Node000004" class="edge">
<title>Node1&#45;&gt;Node4</title>
<g id="a_edge13_Node000001_Node000004"><a xlink:title=" ">
<path fill="none" stroke="#63b8ff" d="M134.73,-278.98C106.4,-273.81 70.39,-262.73 47.55,-239 6.52,-196.36 -16.44,-160.41 14.55,-110 25.85,-91.62 47.35,-80.56 66.26,-74.06"/>
<polygon fill="#63b8ff" stroke="#63b8ff" points="134.35,-282.46 144.79,-280.63 135.49,-275.55 134.35,-282.46"/>
</a>
</g>
</g>
<!-- Node8 -->
<g id="Node000008" class="node">
<title>Node8</title>
<g id="a_Node000008"><a xlink:href="mackie_2fader_8h.html" target="_top" xlink:title=" ">
<polygon fill="white" stroke="#666666" points="114.55,-239 64.55,-239 64.55,-220 114.55,-220 114.55,-239"/>
<text text-anchor="middle" x="89.55" y="-227" font-family="Helvetica,sans-Serif" font-size="10.00">fader.h</text>
</a>
</g>
</g>
<!-- Node1&#45;&gt;Node8 -->
<g id="edge9_Node000001_Node000008" class="edge">
<title>Node1&#45;&gt;Node8</title>
<g id="a_edge9_Node000001_Node000008"><a xlink:title=" ">
<path fill="none" stroke="#63b8ff" d="M154.63,-269.7C138.6,-260.04 117.69,-247.44 103.95,-239.17"/>
<polygon fill="#63b8ff" stroke="#63b8ff" points="153.04,-272.82 163.42,-274.98 156.65,-266.83 153.04,-272.82"/>
</a>
</g>
</g>
<!-- Node9 -->
<g id="Node000009" class="node">
<title>Node9</title>
<g id="a_Node000009"><a xlink:href="mackie_2jog_8h.html" target="_top" xlink:title=" ">
<polygon fill="white" stroke="#666666" points="292.05,-184 251.05,-184 251.05,-165 292.05,-165 292.05,-184"/>
<text text-anchor="middle" x="271.55" y="-172" font-family="Helvetica,sans-Serif" font-size="10.00">jog.h</text>
</a>
</g>
</g>
<!-- Node1&#45;&gt;Node9 -->
<g id="edge10_Node000001_Node000009" class="edge">
<title>Node1&#45;&gt;Node9</title>
<g id="a_edge10_Node000001_Node000009"><a xlink:title=" ">
<path fill="none" stroke="#63b8ff" d="M187.95,-266.21C196.28,-252.96 208.68,-234.54 221.55,-220 233.73,-206.25 249.92,-192.52 260.53,-184.03"/>
<polygon fill="#63b8ff" stroke="#63b8ff" points="184.92,-264.46 182.65,-274.81 190.88,-268.13 184.92,-264.46"/>
</a>
</g>
</g>
<!-- Node10 -->
<g id="Node000010" class="node">
<title>Node10</title>
<g id="a_Node000010"><a xlink:href="libs_2surfaces_2mackie_2led_8h.html" target="_top" xlink:title=" ">
<polygon fill="white" stroke="#666666" points="174.05,-239 133.05,-239 133.05,-220 174.05,-220 174.05,-239"/>
<text text-anchor="middle" x="153.55" y="-227" font-family="Helvetica,sans-Serif" font-size="10.00">led.h</text>
</a>
</g>
</g>
<!-- Node1&#45;&gt;Node10 -->
<g id="edge11_Node000001_Node000010" class="edge">
<title>Node1&#45;&gt;Node10</title>
<g id="a_edge11_Node000001_Node000010"><a xlink:title=" ">
<path fill="none" stroke="#63b8ff" d="M169.42,-265.53C165.37,-256.6 160.67,-246.22 157.44,-239.09"/>
<polygon fill="#63b8ff" stroke="#63b8ff" points="166.28,-267.08 173.59,-274.75 172.65,-264.19 166.28,-267.08"/>
</a>
</g>
</g>
<!-- Node11 -->
<g id="Node000011" class="node">
<title>Node11</title>
<g id="a_Node000011"><a xlink:href="surfaces_2mackie_2meter_8h.html" target="_top" xlink:title=" ">
<polygon fill="white" stroke="#666666" points="284.55,-239 230.55,-239 230.55,-220 284.55,-220 284.55,-239"/>
<text text-anchor="middle" x="257.55" y="-227" font-family="Helvetica,sans-Serif" font-size="10.00">meter.h</text>
</a>
</g>
</g>
<!-- Node1&#45;&gt;Node11 -->
<g id="edge14_Node000001_Node000011" class="edge">
<title>Node1&#45;&gt;Node11</title>
<g id="a_edge14_Node000001_Node000011"><a xlink:title=" ">
<path fill="none" stroke="#63b8ff" d="M198.8,-269.42C213.32,-259.81 232.1,-247.37 244.47,-239.17"/>
<polygon fill="#63b8ff" stroke="#63b8ff" points="196.81,-266.54 190.41,-274.98 200.68,-272.38 196.81,-266.54"/>
</a>
</g>
</g>
<!-- Node12 -->
<g id="Node000012" class="node">
<title>Node12</title>
<g id="a_Node000012"><a xlink:href="mackie_2pot_8h.html" target="_top" xlink:title=" ">
<polygon fill="white" stroke="#666666" points="344.05,-239 303.05,-239 303.05,-220 344.05,-220 344.05,-239"/>
<text text-anchor="middle" x="323.55" y="-227" font-family="Helvetica,sans-Serif" font-size="10.00">pot.h</text>
</a>
</g>
</g>
<!-- Node1&#45;&gt;Node12 -->
<g id="edge15_Node000001_Node000012" class="edge">
<title>Node1&#45;&gt;Node12</title>
<g id="a_edge15_Node000001_Node000012"><a xlink:title=" ">
<path fill="none" stroke="#63b8ff" d="M210.52,-271.53C238.9,-261.23 278.96,-246.69 302.99,-237.97"/>
<polygon fill="#63b8ff" stroke="#63b8ff" points="209.22,-268.28 201.01,-274.98 211.61,-274.86 209.22,-268.28"/>
</a>
</g>
</g>
<!-- Node13 -->
<g id="Node000013" class="node">
<title>Node13</title>
<g id="a_Node000013"><a xlink:href="mackie_2surface_8h.html" target="_top" xlink:title=" ">
<polygon fill="white" stroke="#666666" points="424.55,-239 362.55,-239 362.55,-220 424.55,-220 424.55,-239"/>
<text text-anchor="middle" x="393.55" y="-227" font-family="Helvetica,sans-Serif" font-size="10.00">surface.h</text>
</a>
</g>
</g>
<!-- Node1&#45;&gt;Node13 -->
<g id="edge17_Node000001_Node000013" class="edge">
<title>Node1&#45;&gt;Node13</title>
<g id="a_edge17_Node000001_Node000013"><a xlink:title=" ">
<path fill="none" stroke="#63b8ff" d="M220.28,-273.02C262.22,-262.72 325.19,-247.28 362.55,-238.11"/>
<polygon fill="#63b8ff" stroke="#63b8ff" points="219.24,-269.67 210.36,-275.45 220.91,-276.47 219.24,-269.67"/>
</a>
</g>
</g>
<!-- Node3 -->
<g id="Node000003" class="node">
<title>Node3</title>
<g id="a_Node000003"><a xlink:href="mackie_2device__info_8h.html" target="_top" xlink:title=" ">
<polygon fill="white" stroke="#666666" points="277.55,-129 195.55,-129 195.55,-110 277.55,-110 277.55,-129"/>
<text text-anchor="middle" x="236.55" y="-117" font-family="Helvetica,sans-Serif" font-size="10.00">device_info.h</text>
</a>
</g>
</g>
<!-- Node2&#45;&gt;Node3 -->
<g id="edge2_Node000002_Node000003" class="edge">
<title>Node2&#45;&gt;Node3</title>
<g id="a_edge2_Node000002_Node000003"><a xlink:title=" ">
<path fill="none" stroke="#63b8ff" d="M175.6,-159.42C190.66,-149.81 210.14,-137.37 222.98,-129.17"/>
<polygon fill="#63b8ff" stroke="#63b8ff" points="173.43,-156.65 166.89,-164.98 177.2,-162.55 173.43,-156.65"/>
</a>
</g>
</g>
<!-- Node6 -->
<g id="Node000006" class="node">
<title>Node6</title>
<g id="a_Node000006"><a xlink:href="mackie_2device__profile_8h.html" target="_top" xlink:title=" ">
<polygon fill="white" stroke="#666666" points="117.55,-129 23.55,-129 23.55,-110 117.55,-110 117.55,-129"/>
<text text-anchor="middle" x="70.55" y="-117" font-family="Helvetica,sans-Serif" font-size="10.00">device_profile.h</text>
</a>
</g>
</g>
<!-- Node2&#45;&gt;Node6 -->
<g id="edge6_Node000002_Node000006" class="edge">
<title>Node2&#45;&gt;Node6</title>
<g id="a_edge6_Node000002_Node000006"><a xlink:title=" ">
<path fill="none" stroke="#63b8ff" d="M131.51,-159.42C116.45,-149.81 96.97,-137.37 84.13,-129.17"/>
<polygon fill="#63b8ff" stroke="#63b8ff" points="129.91,-162.55 140.22,-164.98 133.67,-156.65 129.91,-162.55"/>
</a>
</g>
</g>
<!-- Node7 -->
<g id="Node000007" class="node">
<title>Node7</title>
<g id="a_Node000007"><a xlink:href="mackie_2gui_8h.html" target="_top" xlink:title=" ">
<polygon fill="white" stroke="#666666" points="177.05,-129 136.05,-129 136.05,-110 177.05,-110 177.05,-129"/>
<text text-anchor="middle" x="156.55" y="-117" font-family="Helvetica,sans-Serif" font-size="10.00">gui.h</text>
</a>
</g>
</g>
<!-- Node2&#45;&gt;Node7 -->
<g id="edge8_Node000002_Node000007" class="edge">
<title>Node2&#45;&gt;Node7</title>
<g id="a_edge8_Node000002_Node000007"><a xlink:title=" ">
<path fill="none" stroke="#63b8ff" d="M154.62,-154.66C155.11,-145.93 155.68,-135.99 156.07,-129.09"/>
<polygon fill="#63b8ff" stroke="#63b8ff" points="151.12,-154.57 154.05,-164.75 158.11,-154.96 151.12,-154.57"/>
</a>
</g>
</g>
<!-- Node3&#45;&gt;Node4 -->
<g id="edge3_Node000003_Node000004" class="edge">
<title>Node3&#45;&gt;Node4</title>
<g id="a_edge3_Node000003_Node000004"><a xlink:title=" ">
<path fill="none" stroke="#63b8ff" d="M205.68,-106.29C180.85,-96.47 146.57,-82.91 124.48,-74.17"/>
<polygon fill="#63b8ff" stroke="#63b8ff" points="204.44,-109.56 215.02,-109.98 207.01,-103.05 204.44,-109.56"/>
</a>
</g>
</g>
<!-- Node5 -->
<g id="Node000005" class="node">
<title>Node5</title>
<g id="a_Node000005"><a xlink:href="mackie_2strip_8h.html" target="_top" xlink:title=" ">
<polygon fill="white" stroke="#666666" points="176.05,-19 129.05,-19 129.05,0 176.05,0 176.05,-19"/>
<text text-anchor="middle" x="152.55" y="-7" font-family="Helvetica,sans-Serif" font-size="10.00">strip.h</text>
</a>
</g>
</g>
<!-- Node3&#45;&gt;Node5 -->
<g id="edge5_Node000003_Node000005" class="edge">
<title>Node3&#45;&gt;Node5</title>
<g id="a_edge5_Node000003_Node000005"><a xlink:title=" ">
<path fill="none" stroke="#63b8ff" d="M223.48,-101.69C205.34,-78.37 173.2,-37.05 159.29,-19.16"/>
<polygon fill="#63b8ff" stroke="#63b8ff" points="220.78,-103.92 229.68,-109.66 226.3,-99.62 220.78,-103.92"/>
</a>
</g>
</g>
<!-- Node4&#45;&gt;Node5 -->
<g id="edge4_Node000004_Node000005" class="edge">
<title>Node4&#45;&gt;Node5</title>
<g id="a_edge4_Node000004_Node000005"><a xlink:title=" ">
<path fill="none" stroke="#63b8ff" d="M117.9,-47.24C126.66,-37.95 137.29,-26.68 144.45,-19.09"/>
<polygon fill="#63b8ff" stroke="#63b8ff" points="115.13,-45.07 110.81,-54.75 120.22,-49.88 115.13,-45.07"/>
</a>
</g>
</g>
<!-- Node6&#45;&gt;Node4 -->
<g id="edge7_Node000006_Node000004" class="edge">
<title>Node6&#45;&gt;Node4</title>
<g id="a_edge7_Node000006_Node000004"><a xlink:title=" ">
<path fill="none" stroke="#63b8ff" d="M81.06,-101.1C86.53,-92.04 92.97,-81.37 97.37,-74.09"/>
<polygon fill="#63b8ff" stroke="#63b8ff" points="78.01,-99.38 75.84,-109.75 84,-103 78.01,-99.38"/>
</a>
</g>
</g>
<!-- Node10&#45;&gt;Node2 -->
<g id="edge12_Node000010_Node000002" class="edge">
<title>Node10&#45;&gt;Node2</title>
<g id="a_edge12_Node000010_Node000002"><a xlink:title=" ">
<path fill="none" stroke="#63b8ff" d="M153.55,-209.66C153.55,-200.93 153.55,-190.99 153.55,-184.09"/>
<polygon fill="#63b8ff" stroke="#63b8ff" points="150.05,-209.75 153.55,-219.75 157.05,-209.75 150.05,-209.75"/>
</a>
</g>
</g>
<!-- Node12&#45;&gt;Node9 -->
<g id="edge16_Node000012_Node000009" class="edge">
<title>Node12&#45;&gt;Node9</title>
<g id="a_edge16_Node000012_Node000009"><a xlink:title=" ">
<path fill="none" stroke="#63b8ff" d="M307.87,-212.52C298.71,-203.18 287.5,-191.75 279.98,-184.09"/>
<polygon fill="#63b8ff" stroke="#63b8ff" points="305.47,-215.06 314.97,-219.75 310.46,-210.16 305.47,-215.06"/>
</a>
</g>
</g>
</g>
</svg>
