<?xml version="1.0" encoding="UTF-8" standalone="no"?>
<!DOCTYPE svg PUBLIC "-//W3C//DTD SVG 1.1//EN"
 "http://www.w3.org/Graphics/SVG/1.1/DTD/svg11.dtd">
<!-- Generated by graphviz version 2.43.0 (0)
 -->
<!-- Title: menuitem_p.h Pages: 1 -->
<svg width="333pt" height="357pt"
 viewBox="0.00 0.00 332.50 357.00" xmlns="http://www.w3.org/2000/svg" xmlns:xlink="http://www.w3.org/1999/xlink">
<g id="graph0" class="graph" transform="scale(1 1) rotate(0) translate(4 353)">
<title>menuitem_p.h</title>
<!-- Node1 -->
<g id="Node000001" class="node">
<title>Node1</title>
<g id="a_Node000001"><a xlink:title=" ">
<polygon fill="#999999" stroke="#666666" points="320,-349 233,-349 233,-330 320,-330 320,-349"/>
<text text-anchor="middle" x="276.5" y="-337" font-family="Helvetica,sans-Serif" font-size="10.00">menuitem_p.h</text>
</a>
</g>
</g>
<!-- Node2 -->
<g id="Node000002" class="node">
<title>Node2</title>
<g id="a_Node000002"><a xlink:href="item__p_8h.html" target="_top" xlink:title=" ">
<polygon fill="white" stroke="#666666" points="296,-294 161,-294 161,-275 296,-275 296,-294"/>
<text text-anchor="middle" x="228.5" y="-282" font-family="Helvetica,sans-Serif" font-size="10.00">ytkmm/private/item_p.h</text>
</a>
</g>
</g>
<!-- Node1&#45;&gt;Node2 -->
<g id="edge1_Node000001_Node000002" class="edge">
<title>Node1&#45;&gt;Node2</title>
<g id="a_edge1_Node000001_Node000002"><a xlink:title=" ">
<path fill="none" stroke="#63b8ff" d="M268.57,-329.75C261.65,-322.11 251.43,-310.82 243.05,-301.56"/>
<polygon fill="#63b8ff" stroke="#63b8ff" points="245.59,-299.15 236.28,-294.09 240.4,-303.85 245.59,-299.15"/>
</a>
</g>
</g>
<!-- Node8 -->
<g id="Node000008" class="node">
<title>Node8</title>
<g id="a_Node000008"><a xlink:title=" ">
<polygon fill="#e0e0e0" stroke="#999999" points="275,-19 184,-19 184,0 275,0 275,-19"/>
<text text-anchor="middle" x="229.5" y="-7" font-family="Helvetica,sans-Serif" font-size="10.00">glibmm/class.h</text>
</a>
</g>
</g>
<!-- Node1&#45;&gt;Node8 -->
<g id="edge12_Node000001_Node000008" class="edge">
<title>Node1&#45;&gt;Node8</title>
<g id="a_edge12_Node000001_Node000008"><a xlink:title=" ">
<path fill="none" stroke="#63b8ff" d="M283.38,-329.84C296.65,-312.23 324.5,-270.51 324.5,-230.5 324.5,-230.5 324.5,-230.5 324.5,-118.5 324.5,-75.91 282.34,-42.14 254.19,-24.33"/>
<polygon fill="#63b8ff" stroke="#63b8ff" points="255.98,-21.32 245.62,-19.12 252.34,-27.31 255.98,-21.32"/>
</a>
</g>
</g>
<!-- Node3 -->
<g id="Node000003" class="node">
<title>Node3</title>
<g id="a_Node000003"><a xlink:href="bin__p_8h.html" target="_top" xlink:title=" ">
<polygon fill="white" stroke="#666666" points="258.5,-239 130.5,-239 130.5,-220 258.5,-220 258.5,-239"/>
<text text-anchor="middle" x="194.5" y="-227" font-family="Helvetica,sans-Serif" font-size="10.00">ytkmm/private/bin_p.h</text>
</a>
</g>
</g>
<!-- Node2&#45;&gt;Node3 -->
<g id="edge2_Node000002_Node000003" class="edge">
<title>Node2&#45;&gt;Node3</title>
<g id="a_edge2_Node000002_Node000003"><a xlink:title=" ">
<path fill="none" stroke="#63b8ff" d="M222.89,-274.75C218.18,-267.42 211.33,-256.73 205.53,-247.7"/>
<polygon fill="#63b8ff" stroke="#63b8ff" points="208.36,-245.62 200.01,-239.09 202.46,-249.4 208.36,-245.62"/>
</a>
</g>
</g>
<!-- Node2&#45;&gt;Node8 -->
<g id="edge11_Node000002_Node000008" class="edge">
<title>Node2&#45;&gt;Node8</title>
<g id="a_edge11_Node000002_Node000008"><a xlink:title=" ">
<path fill="none" stroke="#63b8ff" d="M238.15,-274.85C246.96,-266.48 259.74,-253.02 267.5,-239 281.76,-213.22 286.5,-204.96 286.5,-175.5 286.5,-175.5 286.5,-175.5 286.5,-118.5 286.5,-82.51 261.44,-46.76 244.55,-26.76"/>
<polygon fill="#63b8ff" stroke="#63b8ff" points="247.14,-24.4 237.91,-19.2 241.88,-29.02 247.14,-24.4"/>
</a>
</g>
</g>
<!-- Node4 -->
<g id="Node000004" class="node">
<title>Node4</title>
<g id="a_Node000004"><a xlink:href="container__p_8h.html" target="_top" xlink:title=" ">
<polygon fill="white" stroke="#666666" points="220.5,-184 62.5,-184 62.5,-165 220.5,-165 220.5,-184"/>
<text text-anchor="middle" x="141.5" y="-172" font-family="Helvetica,sans-Serif" font-size="10.00">ytkmm/private/container_p.h</text>
</a>
</g>
</g>
<!-- Node3&#45;&gt;Node4 -->
<g id="edge3_Node000003_Node000004" class="edge">
<title>Node3&#45;&gt;Node4</title>
<g id="a_edge3_Node000003_Node000004"><a xlink:title=" ">
<path fill="none" stroke="#63b8ff" d="M185.75,-219.75C178.03,-212.03 166.6,-200.6 157.28,-191.28"/>
<polygon fill="#63b8ff" stroke="#63b8ff" points="159.64,-188.69 150.09,-184.09 154.69,-193.64 159.64,-188.69"/>
</a>
</g>
</g>
<!-- Node3&#45;&gt;Node8 -->
<g id="edge10_Node000003_Node000008" class="edge">
<title>Node3&#45;&gt;Node8</title>
<g id="a_edge10_Node000003_Node000008"><a xlink:title=" ">
<path fill="none" stroke="#63b8ff" d="M204.32,-219.73C212.79,-211.47 224.42,-198.26 229.5,-184 248.58,-130.45 239.53,-61.55 233.45,-29.04"/>
<polygon fill="#63b8ff" stroke="#63b8ff" points="236.87,-28.27 231.48,-19.15 230,-29.64 236.87,-28.27"/>
</a>
</g>
</g>
<!-- Node5 -->
<g id="Node000005" class="node">
<title>Node5</title>
<g id="a_Node000005"><a xlink:href="widget__p_8h.html" target="_top" xlink:title=" ">
<polygon fill="white" stroke="#666666" points="182.5,-129 36.5,-129 36.5,-110 182.5,-110 182.5,-129"/>
<text text-anchor="middle" x="109.5" y="-117" font-family="Helvetica,sans-Serif" font-size="10.00">ytkmm/private/widget_p.h</text>
</a>
</g>
</g>
<!-- Node4&#45;&gt;Node5 -->
<g id="edge4_Node000004_Node000005" class="edge">
<title>Node4&#45;&gt;Node5</title>
<g id="a_edge4_Node000004_Node000005"><a xlink:title=" ">
<path fill="none" stroke="#63b8ff" d="M136.22,-164.75C131.79,-157.42 125.34,-146.73 119.88,-137.7"/>
<polygon fill="#63b8ff" stroke="#63b8ff" points="122.85,-135.84 114.69,-129.09 116.86,-139.46 122.85,-135.84"/>
</a>
</g>
</g>
<!-- Node4&#45;&gt;Node8 -->
<g id="edge9_Node000004_Node000008" class="edge">
<title>Node4&#45;&gt;Node8</title>
<g id="a_edge9_Node000004_Node000008"><a xlink:title=" ">
<path fill="none" stroke="#63b8ff" d="M154.78,-164.76C166.05,-156.72 181.87,-143.8 191.5,-129 212.05,-97.42 222.24,-53.88 226.64,-29.33"/>
<polygon fill="#63b8ff" stroke="#63b8ff" points="230.14,-29.65 228.32,-19.21 223.23,-28.5 230.14,-29.65"/>
</a>
</g>
</g>
<!-- Node6 -->
<g id="Node000006" class="node">
<title>Node6</title>
<g id="a_Node000006"><a xlink:href="object__p_8h.html" target="_top" xlink:title=" ">
<polygon fill="white" stroke="#666666" points="144,-74 1,-74 1,-55 144,-55 144,-74"/>
<text text-anchor="middle" x="72.5" y="-62" font-family="Helvetica,sans-Serif" font-size="10.00">ytkmm/private/object_p.h</text>
</a>
</g>
</g>
<!-- Node5&#45;&gt;Node6 -->
<g id="edge5_Node000005_Node000006" class="edge">
<title>Node5&#45;&gt;Node6</title>
<g id="a_edge5_Node000005_Node000006"><a xlink:title=" ">
<path fill="none" stroke="#63b8ff" d="M103.39,-109.75C98.22,-102.34 90.65,-91.5 84.31,-82.41"/>
<polygon fill="#63b8ff" stroke="#63b8ff" points="87.09,-80.29 78.5,-74.09 81.35,-84.29 87.09,-80.29"/>
</a>
</g>
</g>
<!-- Node5&#45;&gt;Node8 -->
<g id="edge8_Node000005_Node000008" class="edge">
<title>Node5&#45;&gt;Node8</title>
<g id="a_edge8_Node000005_Node000008"><a xlink:title=" ">
<path fill="none" stroke="#63b8ff" d="M119.32,-109.66C139.73,-91.3 186.93,-48.81 212.43,-25.87"/>
<polygon fill="#63b8ff" stroke="#63b8ff" points="214.79,-28.45 219.88,-19.16 210.11,-23.25 214.79,-28.45"/>
</a>
</g>
</g>
<!-- Node7 -->
<g id="Node000007" class="node">
<title>Node7</title>
<g id="a_Node000007"><a xlink:title=" ">
<polygon fill="#e0e0e0" stroke="#999999" points="145,-19 0,-19 0,0 145,0 145,-19"/>
<text text-anchor="middle" x="72.5" y="-7" font-family="Helvetica,sans-Serif" font-size="10.00">glibmm/private/object_p.h</text>
</a>
</g>
</g>
<!-- Node6&#45;&gt;Node7 -->
<g id="edge6_Node000006_Node000007" class="edge">
<title>Node6&#45;&gt;Node7</title>
<g id="a_edge6_Node000006_Node000007"><a xlink:title=" ">
<path fill="none" stroke="#63b8ff" d="M72.5,-54.75C72.5,-47.8 72.5,-37.85 72.5,-29.13"/>
<polygon fill="#63b8ff" stroke="#63b8ff" points="76,-29.09 72.5,-19.09 69,-29.09 76,-29.09"/>
</a>
</g>
</g>
<!-- Node6&#45;&gt;Node8 -->
<g id="edge7_Node000006_Node000008" class="edge">
<title>Node6&#45;&gt;Node8</title>
<g id="a_edge7_Node000006_Node000008"><a xlink:title=" ">
<path fill="none" stroke="#63b8ff" d="M97.72,-54.98C123.86,-46.16 164.9,-32.31 194.23,-22.41"/>
<polygon fill="#63b8ff" stroke="#63b8ff" points="195.72,-25.6 204.08,-19.08 193.48,-18.96 195.72,-25.6"/>
</a>
</g>
</g>
</g>
</svg>
