<?xml version="1.0" encoding="UTF-8" standalone="no"?>
<!DOCTYPE svg PUBLIC "-//W3C//DTD SVG 1.1//EN"
 "http://www.w3.org/Graphics/SVG/1.1/DTD/svg11.dtd">
<!-- Generated by graphviz version 2.43.0 (0)
 -->
<!-- Title: port.h Pages: 1 -->
<svg width="907pt" height="357pt"
 viewBox="0.00 0.00 907.00 357.00" xmlns="http://www.w3.org/2000/svg" xmlns:xlink="http://www.w3.org/1999/xlink">
<g id="graph0" class="graph" transform="scale(1 1) rotate(0) translate(4 353)">
<title>port.h</title>
<!-- Node1 -->
<g id="Node000001" class="node">
<title>Node1</title>
<g id="a_Node000001"><a xlink:title=" ">
<polygon fill="#999999" stroke="#666666" points="466,-349 421,-349 421,-330 466,-330 466,-349"/>
<text text-anchor="middle" x="443.5" y="-337" font-family="Helvetica,sans-Serif" font-size="10.00">port.h</text>
</a>
</g>
</g>
<!-- Node2 -->
<g id="Node000002" class="node">
<title>Node2</title>
<g id="a_Node000002"><a xlink:href="async__midi__port_8h.html" target="_top" xlink:title=" ">
<polygon fill="white" stroke="#666666" points="384.5,-294 278.5,-294 278.5,-275 384.5,-275 384.5,-294"/>
<text text-anchor="middle" x="331.5" y="-282" font-family="Helvetica,sans-Serif" font-size="10.00">async_midi_port.h</text>
</a>
</g>
</g>
<!-- Node1&#45;&gt;Node2 -->
<g id="edge1_Node000001_Node000002" class="edge">
<title>Node1&#45;&gt;Node2</title>
<g id="a_edge1_Node000001_Node000002"><a xlink:title=" ">
<path fill="none" stroke="#63b8ff" d="M416.31,-325.63C395.68,-315.87 367.88,-302.71 349.82,-294.17"/>
<polygon fill="#63b8ff" stroke="#63b8ff" points="414.97,-328.87 425.51,-329.98 417.96,-322.54 414.97,-328.87"/>
</a>
</g>
</g>
<!-- Node5 -->
<g id="Node000005" class="node">
<title>Node5</title>
<g id="a_Node000005"><a xlink:href="ipmidi__port_8h.html" target="_top" xlink:title=" ">
<polygon fill="white" stroke="#666666" points="484,-294 403,-294 403,-275 484,-275 484,-294"/>
<text text-anchor="middle" x="443.5" y="-282" font-family="Helvetica,sans-Serif" font-size="10.00">ipmidi_port.h</text>
</a>
</g>
</g>
<!-- Node1&#45;&gt;Node5 -->
<g id="edge4_Node000001_Node000005" class="edge">
<title>Node1&#45;&gt;Node5</title>
<g id="a_edge4_Node000001_Node000005"><a xlink:title=" ">
<path fill="none" stroke="#63b8ff" d="M443.5,-319.66C443.5,-310.93 443.5,-300.99 443.5,-294.09"/>
<polygon fill="#63b8ff" stroke="#63b8ff" points="440,-319.75 443.5,-329.75 447,-319.75 440,-319.75"/>
</a>
</g>
</g>
<!-- Node6 -->
<g id="Node000006" class="node">
<title>Node6</title>
<g id="a_Node000006"><a xlink:href="midiport__manager_8h.html" target="_top" xlink:title=" ">
<polygon fill="white" stroke="#666666" points="617,-294 502,-294 502,-275 617,-275 617,-294"/>
<text text-anchor="middle" x="559.5" y="-282" font-family="Helvetica,sans-Serif" font-size="10.00">midiport_manager.h</text>
</a>
</g>
</g>
<!-- Node1&#45;&gt;Node6 -->
<g id="edge5_Node000001_Node000006" class="edge">
<title>Node1&#45;&gt;Node6</title>
<g id="a_edge5_Node000001_Node000006"><a xlink:title=" ">
<path fill="none" stroke="#63b8ff" d="M471.37,-325.77C492.77,-315.99 521.74,-302.75 540.52,-294.17"/>
<polygon fill="#63b8ff" stroke="#63b8ff" points="469.78,-322.65 462.14,-329.98 472.69,-329.01 469.78,-322.65"/>
</a>
</g>
</g>
<!-- Node3 -->
<g id="Node000003" class="node">
<title>Node3</title>
<g id="a_Node000003"><a xlink:href="faderport8_8h.html" target="_top" xlink:title=" ">
<polygon fill="white" stroke="#666666" points="370,-239 293,-239 293,-220 370,-220 370,-239"/>
<text text-anchor="middle" x="331.5" y="-227" font-family="Helvetica,sans-Serif" font-size="10.00">faderport8.h</text>
</a>
</g>
</g>
<!-- Node2&#45;&gt;Node3 -->
<g id="edge2_Node000002_Node000003" class="edge">
<title>Node2&#45;&gt;Node3</title>
<g id="a_edge2_Node000002_Node000003"><a xlink:title=" ">
<path fill="none" stroke="#63b8ff" d="M331.5,-264.66C331.5,-255.93 331.5,-245.99 331.5,-239.09"/>
<polygon fill="#63b8ff" stroke="#63b8ff" points="328,-264.75 331.5,-274.75 335,-264.75 328,-264.75"/>
</a>
</g>
</g>
<!-- Node4 -->
<g id="Node000004" class="node">
<title>Node4</title>
<g id="a_Node000004"><a xlink:href="faderport8_2gui_8h.html" target="_top" xlink:title=" ">
<polygon fill="white" stroke="#666666" points="352,-184 311,-184 311,-165 352,-165 352,-184"/>
<text text-anchor="middle" x="331.5" y="-172" font-family="Helvetica,sans-Serif" font-size="10.00">gui.h</text>
</a>
</g>
</g>
<!-- Node3&#45;&gt;Node4 -->
<g id="edge3_Node000003_Node000004" class="edge">
<title>Node3&#45;&gt;Node4</title>
<g id="a_edge3_Node000003_Node000004"><a xlink:title=" ">
<path fill="none" stroke="#63b8ff" d="M331.5,-209.66C331.5,-200.93 331.5,-190.99 331.5,-184.09"/>
<polygon fill="#63b8ff" stroke="#63b8ff" points="328,-209.75 331.5,-219.75 335,-209.75 328,-209.75"/>
</a>
</g>
</g>
<!-- Node7 -->
<g id="Node000007" class="node">
<title>Node7</title>
<g id="a_Node000007"><a xlink:href="port__manager_8h.html" target="_top" xlink:title=" ">
<polygon fill="white" stroke="#666666" points="606,-239 513,-239 513,-220 606,-220 606,-239"/>
<text text-anchor="middle" x="559.5" y="-227" font-family="Helvetica,sans-Serif" font-size="10.00">port_manager.h</text>
</a>
</g>
</g>
<!-- Node6&#45;&gt;Node7 -->
<g id="edge6_Node000006_Node000007" class="edge">
<title>Node6&#45;&gt;Node7</title>
<g id="a_edge6_Node000006_Node000007"><a xlink:title=" ">
<path fill="none" stroke="#63b8ff" d="M559.5,-264.66C559.5,-255.93 559.5,-245.99 559.5,-239.09"/>
<polygon fill="#63b8ff" stroke="#63b8ff" points="556,-264.75 559.5,-274.75 563,-264.75 556,-264.75"/>
</a>
</g>
</g>
<!-- Node8 -->
<g id="Node000008" class="node">
<title>Node8</title>
<g id="a_Node000008"><a xlink:href="audioengine_8h.html" target="_top" xlink:title=" ">
<polygon fill="white" stroke="#666666" points="556.5,-184 470.5,-184 470.5,-165 556.5,-165 556.5,-184"/>
<text text-anchor="middle" x="513.5" y="-172" font-family="Helvetica,sans-Serif" font-size="10.00">audioengine.h</text>
</a>
</g>
</g>
<!-- Node7&#45;&gt;Node8 -->
<g id="edge7_Node000007_Node000008" class="edge">
<title>Node7&#45;&gt;Node8</title>
<g id="a_edge7_Node000007_Node000008"><a xlink:title=" ">
<path fill="none" stroke="#63b8ff" d="M545.14,-211.96C537.13,-202.72 527.47,-191.6 520.95,-184.09"/>
<polygon fill="#63b8ff" stroke="#63b8ff" points="542.71,-214.49 551.9,-219.75 547.99,-209.9 542.71,-214.49"/>
</a>
</g>
</g>
<!-- Node19 -->
<g id="Node000019" class="node">
<title>Node19</title>
<g id="a_Node000019"><a xlink:href="io__plug_8h.html" target="_top" xlink:title=" ">
<polygon fill="white" stroke="#666666" points="636,-184 575,-184 575,-165 636,-165 636,-184"/>
<text text-anchor="middle" x="605.5" y="-172" font-family="Helvetica,sans-Serif" font-size="10.00">io_plug.h</text>
</a>
</g>
</g>
<!-- Node7&#45;&gt;Node19 -->
<g id="edge18_Node000007_Node000019" class="edge">
<title>Node7&#45;&gt;Node19</title>
<g id="a_edge18_Node000007_Node000019"><a xlink:title=" ">
<path fill="none" stroke="#63b8ff" d="M573.86,-211.96C581.87,-202.72 591.53,-191.6 598.05,-184.09"/>
<polygon fill="#63b8ff" stroke="#63b8ff" points="571.01,-209.9 567.1,-219.75 576.29,-214.49 571.01,-209.9"/>
</a>
</g>
</g>
<!-- Node9 -->
<g id="Node000009" class="node">
<title>Node9</title>
<g id="a_Node000009"><a xlink:href="audio__backend_8h.html" target="_top" xlink:title=" ">
<polygon fill="white" stroke="#666666" points="504.5,-129 406.5,-129 406.5,-110 504.5,-110 504.5,-129"/>
<text text-anchor="middle" x="455.5" y="-117" font-family="Helvetica,sans-Serif" font-size="10.00">audio_backend.h</text>
</a>
</g>
</g>
<!-- Node8&#45;&gt;Node9 -->
<g id="edge8_Node000008_Node000009" class="edge">
<title>Node8&#45;&gt;Node9</title>
<g id="a_edge8_Node000008_Node000009"><a xlink:title=" ">
<path fill="none" stroke="#63b8ff" d="M496.59,-158.04C486.3,-148.64 473.53,-136.98 464.99,-129.17"/>
<polygon fill="#63b8ff" stroke="#63b8ff" points="494.44,-160.82 504.18,-164.98 499.16,-155.66 494.44,-160.82"/>
</a>
</g>
</g>
<!-- Node18 -->
<g id="Node000018" class="node">
<title>Node18</title>
<g id="a_Node000018"><a xlink:href="rt__safe__delete_8h.html" target="_top" xlink:title=" ">
<polygon fill="white" stroke="#666666" points="618,-129 523,-129 523,-110 618,-110 618,-129"/>
<text text-anchor="middle" x="570.5" y="-117" font-family="Helvetica,sans-Serif" font-size="10.00">rt_safe_delete.h</text>
</a>
</g>
</g>
<!-- Node8&#45;&gt;Node18 -->
<g id="edge17_Node000008_Node000018" class="edge">
<title>Node8&#45;&gt;Node18</title>
<g id="a_edge17_Node000008_Node000018"><a xlink:title=" ">
<path fill="none" stroke="#63b8ff" d="M530.12,-158.04C540.23,-148.64 552.78,-136.98 561.18,-129.17"/>
<polygon fill="#63b8ff" stroke="#63b8ff" points="527.6,-155.61 522.66,-164.98 532.36,-160.74 527.6,-155.61"/>
</a>
</g>
</g>
<!-- Node10 -->
<g id="Node000010" class="node">
<title>Node10</title>
<g id="a_Node000010"><a xlink:href="alsa__audiobackend_8h.html" target="_top" xlink:title=" ">
<polygon fill="white" stroke="#666666" points="119,-74 0,-74 0,-55 119,-55 119,-74"/>
<text text-anchor="middle" x="59.5" y="-62" font-family="Helvetica,sans-Serif" font-size="10.00">alsa_audiobackend.h</text>
</a>
</g>
</g>
<!-- Node9&#45;&gt;Node10 -->
<g id="edge9_Node000009_Node000010" class="edge">
<title>Node9&#45;&gt;Node10</title>
<g id="a_edge9_Node000009_Node000010"><a xlink:title=" ">
<path fill="none" stroke="#63b8ff" d="M395.97,-110.53C321.28,-100.54 193.95,-83.49 119.19,-73.49"/>
<polygon fill="#63b8ff" stroke="#63b8ff" points="395.77,-114.04 406.15,-111.89 396.7,-107.1 395.77,-114.04"/>
</a>
</g>
</g>
<!-- Node11 -->
<g id="Node000011" class="node">
<title>Node11</title>
<g id="a_Node000011"><a xlink:href="coreaudio__backend_8h.html" target="_top" xlink:title=" ">
<polygon fill="white" stroke="#666666" points="256,-74 137,-74 137,-55 256,-55 256,-74"/>
<text text-anchor="middle" x="196.5" y="-62" font-family="Helvetica,sans-Serif" font-size="10.00">coreaudio_backend.h</text>
</a>
</g>
</g>
<!-- Node9&#45;&gt;Node11 -->
<g id="edge10_Node000009_Node000011" class="edge">
<title>Node9&#45;&gt;Node11</title>
<g id="a_edge10_Node000009_Node000011"><a xlink:title=" ">
<path fill="none" stroke="#63b8ff" d="M403.9,-107.94C355.35,-98.01 283.56,-83.31 238.44,-74.08"/>
<polygon fill="#63b8ff" stroke="#63b8ff" points="403.39,-111.41 413.89,-109.98 404.79,-104.55 403.39,-111.41"/>
</a>
</g>
</g>
<!-- Node12 -->
<g id="Node000012" class="node">
<title>Node12</title>
<g id="a_Node000012"><a xlink:href="dummy__audiobackend_8h.html" target="_top" xlink:title=" ">
<polygon fill="white" stroke="#666666" points="410.5,-74 274.5,-74 274.5,-55 410.5,-55 410.5,-74"/>
<text text-anchor="middle" x="342.5" y="-62" font-family="Helvetica,sans-Serif" font-size="10.00">dummy_audiobackend.h</text>
</a>
</g>
</g>
<!-- Node9&#45;&gt;Node12 -->
<g id="edge11_Node000009_Node000012" class="edge">
<title>Node9&#45;&gt;Node12</title>
<g id="a_edge11_Node000009_Node000012"><a xlink:title=" ">
<path fill="none" stroke="#63b8ff" d="M428.07,-105.63C407.25,-95.87 379.2,-82.71 360.99,-74.17"/>
<polygon fill="#63b8ff" stroke="#63b8ff" points="426.8,-108.91 437.34,-109.98 429.78,-102.57 426.8,-108.91"/>
</a>
</g>
</g>
<!-- Node14 -->
<g id="Node000014" class="node">
<title>Node14</title>
<g id="a_Node000014"><a xlink:href="graph_8h.html" target="_top" xlink:title=" ">
<polygon fill="white" stroke="#666666" points="482,-74 429,-74 429,-55 482,-55 482,-74"/>
<text text-anchor="middle" x="455.5" y="-62" font-family="Helvetica,sans-Serif" font-size="10.00">graph.h</text>
</a>
</g>
</g>
<!-- Node9&#45;&gt;Node14 -->
<g id="edge13_Node000009_Node000014" class="edge">
<title>Node9&#45;&gt;Node14</title>
<g id="a_edge13_Node000009_Node000014"><a xlink:title=" ">
<path fill="none" stroke="#63b8ff" d="M455.5,-99.66C455.5,-90.93 455.5,-80.99 455.5,-74.09"/>
<polygon fill="#63b8ff" stroke="#63b8ff" points="452,-99.75 455.5,-109.75 459,-99.75 452,-99.75"/>
</a>
</g>
</g>
<!-- Node15 -->
<g id="Node000015" class="node">
<title>Node15</title>
<g id="a_Node000015"><a xlink:href="jack__audiobackend_8h.html" target="_top" xlink:title=" ">
<polygon fill="white" stroke="#666666" points="619,-74 500,-74 500,-55 619,-55 619,-74"/>
<text text-anchor="middle" x="559.5" y="-62" font-family="Helvetica,sans-Serif" font-size="10.00">jack_audiobackend.h</text>
</a>
</g>
</g>
<!-- Node9&#45;&gt;Node15 -->
<g id="edge14_Node000009_Node000015" class="edge">
<title>Node9&#45;&gt;Node15</title>
<g id="a_edge14_Node000009_Node000015"><a xlink:title=" ">
<path fill="none" stroke="#63b8ff" d="M481.27,-105.37C500.37,-95.63 525.87,-82.64 542.49,-74.17"/>
<polygon fill="#63b8ff" stroke="#63b8ff" points="479.53,-102.33 472.21,-109.98 482.71,-108.56 479.53,-102.33"/>
</a>
</g>
</g>
<!-- Node16 -->
<g id="Node000016" class="node">
<title>Node16</title>
<g id="a_Node000016"><a xlink:href="portaudio__backend_8h.html" target="_top" xlink:title=" ">
<polygon fill="white" stroke="#666666" points="755.5,-74 637.5,-74 637.5,-55 755.5,-55 755.5,-74"/>
<text text-anchor="middle" x="696.5" y="-62" font-family="Helvetica,sans-Serif" font-size="10.00">portaudio_backend.h</text>
</a>
</g>
</g>
<!-- Node9&#45;&gt;Node16 -->
<g id="edge15_Node000009_Node000016" class="edge">
<title>Node9&#45;&gt;Node16</title>
<g id="a_edge15_Node000009_Node000016"><a xlink:title=" ">
<path fill="none" stroke="#63b8ff" d="M504.08,-107.82C549.25,-97.88 615.67,-83.28 657.48,-74.08"/>
<polygon fill="#63b8ff" stroke="#63b8ff" points="503.24,-104.42 494.22,-109.98 504.74,-111.26 503.24,-104.42"/>
</a>
</g>
</g>
<!-- Node17 -->
<g id="Node000017" class="node">
<title>Node17</title>
<g id="a_Node000017"><a xlink:href="pulseaudio__backend_8h.html" target="_top" xlink:title=" ">
<polygon fill="white" stroke="#666666" points="899,-74 774,-74 774,-55 899,-55 899,-74"/>
<text text-anchor="middle" x="836.5" y="-62" font-family="Helvetica,sans-Serif" font-size="10.00">pulseaudio_backend.h</text>
</a>
</g>
</g>
<!-- Node9&#45;&gt;Node17 -->
<g id="edge16_Node000009_Node000017" class="edge">
<title>Node9&#45;&gt;Node17</title>
<g id="a_edge16_Node000009_Node000017"><a xlink:title=" ">
<path fill="none" stroke="#63b8ff" d="M514.73,-109.98C611.64,-96.31 711.43,-82.59 774.15,-74.01"/>
<polygon fill="#63b8ff" stroke="#63b8ff" points="514.17,-106.52 504.75,-111.38 515.14,-113.45 514.17,-106.52"/>
</a>
</g>
</g>
<!-- Node13 -->
<g id="Node000013" class="node">
<title>Node13</title>
<g id="a_Node000013"><a xlink:href="dummy__midi__seq_8h.html" target="_top" xlink:title=" ">
<polygon fill="white" stroke="#666666" points="399,-19 286,-19 286,0 399,0 399,-19"/>
<text text-anchor="middle" x="342.5" y="-7" font-family="Helvetica,sans-Serif" font-size="10.00">dummy_midi_seq.h</text>
</a>
</g>
</g>
<!-- Node12&#45;&gt;Node13 -->
<g id="edge12_Node000012_Node000013" class="edge">
<title>Node12&#45;&gt;Node13</title>
<g id="a_edge12_Node000012_Node000013"><a xlink:title=" ">
<path fill="none" stroke="#63b8ff" d="M342.5,-44.66C342.5,-35.93 342.5,-25.99 342.5,-19.09"/>
<polygon fill="#63b8ff" stroke="#63b8ff" points="339,-44.75 342.5,-54.75 346,-44.75 339,-44.75"/>
</a>
</g>
</g>
</g>
</svg>
