<?xml version="1.0" encoding="UTF-8" standalone="no"?>
<!DOCTYPE svg PUBLIC "-//W3C//DTD SVG 1.1//EN"
 "http://www.w3.org/Graphics/SVG/1.1/DTD/svg11.dtd">
<!-- Generated by graphviz version 2.43.0 (0)
 -->
<!-- Title: Note.h Pages: 1 -->
<svg width="878pt" height="357pt"
 viewBox="0.00 0.00 878.00 357.00" xmlns="http://www.w3.org/2000/svg" xmlns:xlink="http://www.w3.org/1999/xlink">
<g id="graph0" class="graph" transform="scale(1 1) rotate(0) translate(4 353)">
<title>Note.h</title>
<!-- Node1 -->
<g id="Node000001" class="node">
<title>Node1</title>
<g id="a_Node000001"><a xlink:title=" ">
<polygon fill="#999999" stroke="#666666" points="611.5,-349 562.5,-349 562.5,-330 611.5,-330 611.5,-349"/>
<text text-anchor="middle" x="587" y="-337" font-family="Helvetica,sans-Serif" font-size="10.00">Note.h</text>
</a>
</g>
</g>
<!-- Node2 -->
<g id="Node000002" class="node">
<title>Node2</title>
<g id="a_Node000002"><a xlink:title=" ">
<polygon fill="#e0e0e0" stroke="#999999" points="92,-239 28,-239 28,-220 92,-220 92,-239"/>
<text text-anchor="middle" x="60" y="-227" font-family="Helvetica,sans-Serif" font-size="10.00">algorithm</text>
</a>
</g>
</g>
<!-- Node1&#45;&gt;Node2 -->
<g id="edge1_Node000001_Node000002" class="edge">
<title>Node1&#45;&gt;Node2</title>
<g id="a_edge1_Node000001_Node000002"><a xlink:title=" ">
<path fill="none" stroke="#63b8ff" d="M562.29,-333.44C478.89,-316.34 207.15,-260.66 102.04,-239.12"/>
<polygon fill="#63b8ff" stroke="#63b8ff" points="102.61,-235.66 92.11,-237.08 101.2,-242.52 102.61,-235.66"/>
</a>
</g>
</g>
<!-- Node3 -->
<g id="Node000003" class="node">
<title>Node3</title>
<g id="a_Node000003"><a xlink:href="assert_8h.html" target="_top" xlink:title=" ">
<polygon fill="white" stroke="#666666" points="870,-294 814,-294 814,-275 870,-275 870,-294"/>
<text text-anchor="middle" x="842" y="-282" font-family="Helvetica,sans-Serif" font-size="10.00">assert.h</text>
</a>
</g>
</g>
<!-- Node1&#45;&gt;Node3 -->
<g id="edge2_Node000001_Node000003" class="edge">
<title>Node1&#45;&gt;Node3</title>
<g id="a_edge2_Node000001_Node000003"><a xlink:title=" ">
<path fill="none" stroke="#63b8ff" d="M611.91,-333.32C656.68,-324.02 750.96,-304.42 803.89,-293.42"/>
<polygon fill="#63b8ff" stroke="#63b8ff" points="804.82,-296.8 813.9,-291.34 803.39,-289.95 804.82,-296.8"/>
</a>
</g>
</g>
<!-- Node4 -->
<g id="Node000004" class="node">
<title>Node4</title>
<g id="a_Node000004"><a xlink:title=" ">
<polygon fill="#e0e0e0" stroke="#999999" points="794,-74 750,-74 750,-55 794,-55 794,-74"/>
<text text-anchor="middle" x="772" y="-62" font-family="Helvetica,sans-Serif" font-size="10.00">glib.h</text>
</a>
</g>
</g>
<!-- Node1&#45;&gt;Node4 -->
<g id="edge3_Node000001_Node000004" class="edge">
<title>Node1&#45;&gt;Node4</title>
<g id="a_edge3_Node000001_Node000004"><a xlink:title=" ">
<path fill="none" stroke="#63b8ff" d="M611.8,-336.5C665.15,-330.7 786,-308.92 786,-230.5 786,-230.5 786,-230.5 786,-173.5 786,-141.93 780.04,-105.59 775.9,-84.14"/>
<polygon fill="#63b8ff" stroke="#63b8ff" points="779.29,-83.24 773.89,-74.13 772.43,-84.62 779.29,-83.24"/>
</a>
</g>
</g>
<!-- Node5 -->
<g id="Node000005" class="node">
<title>Node5</title>
<g id="a_Node000005"><a xlink:title=" ">
<polygon fill="#e0e0e0" stroke="#999999" points="234.5,-74 181.5,-74 181.5,-55 234.5,-55 234.5,-74"/>
<text text-anchor="middle" x="208" y="-62" font-family="Helvetica,sans-Serif" font-size="10.00">stdint.h</text>
</a>
</g>
</g>
<!-- Node1&#45;&gt;Node5 -->
<g id="edge4_Node000001_Node000005" class="edge">
<title>Node1&#45;&gt;Node5</title>
<g id="a_edge4_Node000001_Node000005"><a xlink:title=" ">
<path fill="none" stroke="#63b8ff" d="M562.15,-336.61C450.43,-327.78 0,-288.59 0,-230.5 0,-230.5 0,-230.5 0,-173.5 0,-97.31 111.29,-74.79 171.06,-68.2"/>
<polygon fill="#63b8ff" stroke="#63b8ff" points="171.63,-71.66 181.23,-67.17 170.93,-64.69 171.63,-71.66"/>
</a>
</g>
</g>
<!-- Node6 -->
<g id="Node000006" class="node">
<title>Node6</title>
<g id="a_Node000006"><a xlink:href="evoral_2evoral_2visibility_8h.html" target="_top" xlink:title=" ">
<polygon fill="white" stroke="#666666" points="720,-184 620,-184 620,-165 720,-165 720,-184"/>
<text text-anchor="middle" x="670" y="-172" font-family="Helvetica,sans-Serif" font-size="10.00">evoral/visibility.h</text>
</a>
</g>
</g>
<!-- Node1&#45;&gt;Node6 -->
<g id="edge5_Node000001_Node000006" class="edge">
<title>Node1&#45;&gt;Node6</title>
<g id="a_edge5_Node000001_Node000006"><a xlink:title=" ">
<path fill="none" stroke="#63b8ff" d="M596.86,-329.82C614.22,-313.84 649.85,-277.86 665,-239 670.59,-224.66 671.58,-207.13 671.32,-194.13"/>
<polygon fill="#63b8ff" stroke="#63b8ff" points="674.81,-193.89 670.85,-184.06 667.82,-194.21 674.81,-193.89"/>
</a>
</g>
</g>
<!-- Node7 -->
<g id="Node000007" class="node">
<title>Node7</title>
<g id="a_Node000007"><a xlink:href="Event_8h.html" target="_top" xlink:title=" ">
<polygon fill="white" stroke="#666666" points="482.5,-294 395.5,-294 395.5,-275 482.5,-275 482.5,-294"/>
<text text-anchor="middle" x="439" y="-282" font-family="Helvetica,sans-Serif" font-size="10.00">evoral/Event.h</text>
</a>
</g>
</g>
<!-- Node1&#45;&gt;Node7 -->
<g id="edge6_Node000001_Node000007" class="edge">
<title>Node1&#45;&gt;Node7</title>
<g id="a_edge6_Node000001_Node000007"><a xlink:title=" ">
<path fill="none" stroke="#63b8ff" d="M563.22,-329.98C538.77,-321.23 500.47,-307.51 472.85,-297.62"/>
<polygon fill="#63b8ff" stroke="#63b8ff" points="473.81,-294.25 463.21,-294.17 471.45,-300.84 473.81,-294.25"/>
</a>
</g>
</g>
<!-- Node7&#45;&gt;Node2 -->
<g id="edge7_Node000007_Node000002" class="edge">
<title>Node7&#45;&gt;Node2</title>
<g id="a_edge7_Node000007_Node000002"><a xlink:title=" ">
<path fill="none" stroke="#63b8ff" d="M395.26,-278.36C331.51,-270.71 209.4,-255.45 106,-239 104.74,-238.8 103.45,-238.59 102.16,-238.38"/>
<polygon fill="#63b8ff" stroke="#63b8ff" points="102.58,-234.9 92.14,-236.65 101.4,-241.8 102.58,-234.9"/>
</a>
</g>
</g>
<!-- Node7&#45;&gt;Node5 -->
<g id="edge12_Node000007_Node000005" class="edge">
<title>Node7&#45;&gt;Node5</title>
<g id="a_edge12_Node000007_Node000005"><a xlink:title=" ">
<path fill="none" stroke="#63b8ff" d="M395.44,-280.39C352.98,-275.9 287.61,-265.04 237,-239 172.08,-205.59 144.67,-195.71 115,-129 102.52,-100.95 140.33,-83.42 171.44,-74.06"/>
<polygon fill="#63b8ff" stroke="#63b8ff" points="172.55,-77.38 181.23,-71.3 170.66,-70.65 172.55,-77.38"/>
</a>
</g>
</g>
<!-- Node7&#45;&gt;Node6 -->
<g id="edge39_Node000007_Node000006" class="edge">
<title>Node7&#45;&gt;Node6</title>
<g id="a_edge39_Node000007_Node000006"><a xlink:title=" ">
<path fill="none" stroke="#63b8ff" d="M482.78,-278.91C535.78,-272.53 620.95,-259.43 645,-239 658.11,-227.86 664.39,-208.93 667.37,-194.63"/>
<polygon fill="#63b8ff" stroke="#63b8ff" points="670.89,-194.84 669.12,-184.39 663.99,-193.66 670.89,-194.84"/>
</a>
</g>
</g>
<!-- Node8 -->
<g id="Node000008" class="node">
<title>Node8</title>
<g id="a_Node000008"><a xlink:title=" ">
<polygon fill="#e0e0e0" stroke="#999999" points="429.5,-239 380.5,-239 380.5,-220 429.5,-220 429.5,-239"/>
<text text-anchor="middle" x="405" y="-227" font-family="Helvetica,sans-Serif" font-size="10.00">cstdlib</text>
</a>
</g>
</g>
<!-- Node7&#45;&gt;Node8 -->
<g id="edge8_Node000007_Node000008" class="edge">
<title>Node7&#45;&gt;Node8</title>
<g id="a_edge8_Node000007_Node000008"><a xlink:title=" ">
<path fill="none" stroke="#63b8ff" d="M433.39,-274.75C428.68,-267.42 421.83,-256.73 416.03,-247.7"/>
<polygon fill="#63b8ff" stroke="#63b8ff" points="418.86,-245.62 410.51,-239.09 412.96,-249.4 418.86,-245.62"/>
</a>
</g>
</g>
<!-- Node9 -->
<g id="Node000009" class="node">
<title>Node9</title>
<g id="a_Node000009"><a xlink:title=" ">
<polygon fill="#e0e0e0" stroke="#999999" points="498,-239 448,-239 448,-220 498,-220 498,-239"/>
<text text-anchor="middle" x="473" y="-227" font-family="Helvetica,sans-Serif" font-size="10.00">cstring</text>
</a>
</g>
</g>
<!-- Node7&#45;&gt;Node9 -->
<g id="edge9_Node000007_Node000009" class="edge">
<title>Node7&#45;&gt;Node9</title>
<g id="a_edge9_Node000007_Node000009"><a xlink:title=" ">
<path fill="none" stroke="#63b8ff" d="M444.61,-274.75C449.32,-267.42 456.17,-256.73 461.97,-247.7"/>
<polygon fill="#63b8ff" stroke="#63b8ff" points="465.04,-249.4 467.49,-239.09 459.14,-245.62 465.04,-249.4"/>
</a>
</g>
</g>
<!-- Node10 -->
<g id="Node000010" class="node">
<title>Node10</title>
<g id="a_Node000010"><a xlink:title=" ">
<polygon fill="#e0e0e0" stroke="#999999" points="723.5,-74 676.5,-74 676.5,-55 723.5,-55 723.5,-74"/>
<text text-anchor="middle" x="700" y="-62" font-family="Helvetica,sans-Serif" font-size="10.00">cmath</text>
</a>
</g>
</g>
<!-- Node7&#45;&gt;Node10 -->
<g id="edge10_Node000007_Node000010" class="edge">
<title>Node7&#45;&gt;Node10</title>
<g id="a_edge10_Node000007_Node000010"><a xlink:title=" ">
<path fill="none" stroke="#63b8ff" d="M482.73,-281.49C529.85,-277.86 606.01,-267.65 665,-239 698.74,-222.61 713.35,-218.08 729,-184 744.61,-150 724.87,-106.49 711.13,-82.79"/>
<polygon fill="#63b8ff" stroke="#63b8ff" points="714.09,-80.92 705.9,-74.2 708.11,-84.56 714.09,-80.92"/>
</a>
</g>
</g>
<!-- Node11 -->
<g id="Node000011" class="node">
<title>Node11</title>
<g id="a_Node000011"><a xlink:title=" ">
<polygon fill="#e0e0e0" stroke="#999999" points="180,-129 124,-129 124,-110 180,-110 180,-129"/>
<text text-anchor="middle" x="152" y="-117" font-family="Helvetica,sans-Serif" font-size="10.00">sstream</text>
</a>
</g>
</g>
<!-- Node7&#45;&gt;Node11 -->
<g id="edge11_Node000007_Node000011" class="edge">
<title>Node7&#45;&gt;Node11</title>
<g id="a_edge11_Node000007_Node000011"><a xlink:title=" ">
<path fill="none" stroke="#63b8ff" d="M395.36,-277.75C359.38,-271.74 307.81,-260.13 267,-239 220.29,-214.82 181.47,-164.43 163.21,-137.82"/>
<polygon fill="#63b8ff" stroke="#63b8ff" points="165.91,-135.56 157.45,-129.19 160.09,-139.45 165.91,-135.56"/>
</a>
</g>
</g>
<!-- Node12 -->
<g id="Node000012" class="node">
<title>Node12</title>
<g id="a_Node000012"><a xlink:href="midi__events_8h.html" target="_top" xlink:title=" ">
<polygon fill="white" stroke="#666666" points="635.5,-239 516.5,-239 516.5,-220 635.5,-220 635.5,-239"/>
<text text-anchor="middle" x="576" y="-227" font-family="Helvetica,sans-Serif" font-size="10.00">evoral/midi_events.h</text>
</a>
</g>
</g>
<!-- Node7&#45;&gt;Node12 -->
<g id="edge13_Node000007_Node000012" class="edge">
<title>Node7&#45;&gt;Node12</title>
<g id="a_edge13_Node000007_Node000012"><a xlink:title=" ">
<path fill="none" stroke="#63b8ff" d="M461.01,-274.98C483.45,-266.3 518.48,-252.75 543.99,-242.88"/>
<polygon fill="#63b8ff" stroke="#63b8ff" points="545.52,-246.04 553.59,-239.17 543,-239.51 545.52,-246.04"/>
</a>
</g>
</g>
<!-- Node13 -->
<g id="Node000013" class="node">
<title>Node13</title>
<g id="a_Node000013"><a xlink:href="evoral_2evoral_2types_8h.html" target="_top" xlink:title=" ">
<polygon fill="white" stroke="#666666" points="362,-239 276,-239 276,-220 362,-220 362,-239"/>
<text text-anchor="middle" x="319" y="-227" font-family="Helvetica,sans-Serif" font-size="10.00">evoral/types.h</text>
</a>
</g>
</g>
<!-- Node7&#45;&gt;Node13 -->
<g id="edge14_Node000007_Node000013" class="edge">
<title>Node7&#45;&gt;Node13</title>
<g id="a_edge14_Node000007_Node000013"><a xlink:title=" ">
<path fill="none" stroke="#63b8ff" d="M419.72,-274.98C400.33,-266.42 370.19,-253.11 347.93,-243.28"/>
<polygon fill="#63b8ff" stroke="#63b8ff" points="349.19,-240.01 338.63,-239.17 346.36,-246.41 349.19,-240.01"/>
</a>
</g>
</g>
<!-- Node13&#45;&gt;Node5 -->
<g id="edge17_Node000013_Node000005" class="edge">
<title>Node13&#45;&gt;Node5</title>
<g id="a_edge17_Node000013_Node000005"><a xlink:title=" ">
<path fill="none" stroke="#63b8ff" d="M276,-221.17C254.04,-215.07 229.06,-204 215,-184 194.14,-154.32 198.66,-109.42 203.52,-84.27"/>
<polygon fill="#63b8ff" stroke="#63b8ff" points="206.99,-84.75 205.68,-74.23 200.15,-83.27 206.99,-84.75"/>
</a>
</g>
</g>
<!-- Node13&#45;&gt;Node6 -->
<g id="edge21_Node000013_Node000006" class="edge">
<title>Node13&#45;&gt;Node6</title>
<g id="a_edge21_Node000013_Node000006"><a xlink:title=" ">
<path fill="none" stroke="#63b8ff" d="M362.12,-221.4C365.13,-220.92 368.11,-220.45 371,-220 453.72,-207.08 549.45,-192.99 609.85,-184.19"/>
<polygon fill="#63b8ff" stroke="#63b8ff" points="610.58,-187.63 619.97,-182.72 609.57,-180.7 610.58,-187.63"/>
</a>
</g>
</g>
<!-- Node14 -->
<g id="Node000014" class="node">
<title>Node14</title>
<g id="a_Node000014"><a xlink:title=" ">
<polygon fill="#e0e0e0" stroke="#999999" points="416.5,-184 369.5,-184 369.5,-165 416.5,-165 416.5,-184"/>
<text text-anchor="middle" x="393" y="-172" font-family="Helvetica,sans-Serif" font-size="10.00">float.h</text>
</a>
</g>
</g>
<!-- Node13&#45;&gt;Node14 -->
<g id="edge15_Node000013_Node000014" class="edge">
<title>Node13&#45;&gt;Node14</title>
<g id="a_edge15_Node000013_Node000014"><a xlink:title=" ">
<path fill="none" stroke="#63b8ff" d="M330.89,-219.98C342.15,-211.92 359.29,-199.65 372.71,-190.03"/>
<polygon fill="#63b8ff" stroke="#63b8ff" points="374.8,-192.84 380.89,-184.17 370.73,-187.15 374.8,-192.84"/>
</a>
</g>
</g>
<!-- Node15 -->
<g id="Node000015" class="node">
<title>Node15</title>
<g id="a_Node000015"><a xlink:title=" ">
<polygon fill="#e0e0e0" stroke="#999999" points="485.5,-184 434.5,-184 434.5,-165 485.5,-165 485.5,-184"/>
<text text-anchor="middle" x="460" y="-172" font-family="Helvetica,sans-Serif" font-size="10.00">math.h</text>
</a>
</g>
</g>
<!-- Node13&#45;&gt;Node15 -->
<g id="edge16_Node000013_Node000015" class="edge">
<title>Node13&#45;&gt;Node15</title>
<g id="a_edge16_Node000013_Node000015"><a xlink:title=" ">
<path fill="none" stroke="#63b8ff" d="M341.65,-219.98C364.85,-211.27 401.12,-197.63 427.4,-187.75"/>
<polygon fill="#63b8ff" stroke="#63b8ff" points="428.8,-190.97 436.93,-184.17 426.34,-184.41 428.8,-190.97"/>
</a>
</g>
</g>
<!-- Node16 -->
<g id="Node000016" class="node">
<title>Node16</title>
<g id="a_Node000016"><a xlink:title=" ">
<polygon fill="#e0e0e0" stroke="#999999" points="564,-184 504,-184 504,-165 564,-165 564,-184"/>
<text text-anchor="middle" x="534" y="-172" font-family="Helvetica,sans-Serif" font-size="10.00">iostream</text>
</a>
</g>
</g>
<!-- Node13&#45;&gt;Node16 -->
<g id="edge18_Node000013_Node000016" class="edge">
<title>Node13&#45;&gt;Node16</title>
<g id="a_edge18_Node000013_Node000016"><a xlink:title=" ">
<path fill="none" stroke="#63b8ff" d="M353.54,-219.98C391.84,-210.54 453.54,-195.34 493.93,-185.38"/>
<polygon fill="#63b8ff" stroke="#63b8ff" points="494.84,-188.76 503.71,-182.97 493.17,-181.96 494.84,-188.76"/>
</a>
</g>
</g>
<!-- Node17 -->
<g id="Node000017" class="node">
<title>Node17</title>
<g id="a_Node000017"><a xlink:title=" ">
<polygon fill="#e0e0e0" stroke="#999999" points="643,-74 599,-74 599,-55 643,-55 643,-74"/>
<text text-anchor="middle" x="621" y="-62" font-family="Helvetica,sans-Serif" font-size="10.00">limits</text>
</a>
</g>
</g>
<!-- Node13&#45;&gt;Node17 -->
<g id="edge19_Node000013_Node000017" class="edge">
<title>Node13&#45;&gt;Node17</title>
<g id="a_edge19_Node000013_Node000017"><a xlink:title=" ">
<path fill="none" stroke="#63b8ff" d="M362.24,-221.2C434.2,-209 570.95,-185.66 573,-184 603.98,-158.96 615.11,-110.8 619,-84.24"/>
<polygon fill="#63b8ff" stroke="#63b8ff" points="622.51,-84.37 620.29,-74.01 615.57,-83.49 622.51,-84.37"/>
</a>
</g>
</g>
<!-- Node18 -->
<g id="Node000018" class="node">
<title>Node18</title>
<g id="a_Node000018"><a xlink:title=" ">
<polygon fill="#e0e0e0" stroke="#999999" points="256,-184 224,-184 224,-165 256,-165 256,-184"/>
<text text-anchor="middle" x="240" y="-172" font-family="Helvetica,sans-Serif" font-size="10.00">list</text>
</a>
</g>
</g>
<!-- Node13&#45;&gt;Node18 -->
<g id="edge20_Node000013_Node000018" class="edge">
<title>Node13&#45;&gt;Node18</title>
<g id="a_edge20_Node000013_Node000018"><a xlink:title=" ">
<path fill="none" stroke="#63b8ff" d="M306.31,-219.98C294.17,-211.84 275.64,-199.41 261.25,-189.76"/>
<polygon fill="#63b8ff" stroke="#63b8ff" points="263.18,-186.84 252.92,-184.17 259.28,-192.65 263.18,-186.84"/>
</a>
</g>
</g>
<!-- Node19 -->
<g id="Node000019" class="node">
<title>Node19</title>
<g id="a_Node000019"><a xlink:href="libs_2pbd_2pbd_2debug_8h.html" target="_top" xlink:title=" ">
<polygon fill="white" stroke="#666666" points="351.5,-184 274.5,-184 274.5,-165 351.5,-165 351.5,-184"/>
<text text-anchor="middle" x="313" y="-172" font-family="Helvetica,sans-Serif" font-size="10.00">pbd/debug.h</text>
</a>
</g>
</g>
<!-- Node13&#45;&gt;Node19 -->
<g id="edge22_Node000013_Node000019" class="edge">
<title>Node13&#45;&gt;Node19</title>
<g id="a_edge22_Node000013_Node000019"><a xlink:title=" ">
<path fill="none" stroke="#63b8ff" d="M318.01,-219.75C317.22,-212.8 316.1,-202.85 315.11,-194.13"/>
<polygon fill="#63b8ff" stroke="#63b8ff" points="318.58,-193.63 313.97,-184.09 311.62,-194.42 318.58,-193.63"/>
</a>
</g>
</g>
<!-- Node19&#45;&gt;Node5 -->
<g id="edge24_Node000019_Node000005" class="edge">
<title>Node19&#45;&gt;Node5</title>
<g id="a_edge24_Node000019_Node000005"><a xlink:title=" ">
<path fill="none" stroke="#63b8ff" d="M304.41,-164.66C286.71,-146.46 245.96,-104.55 223.52,-81.47"/>
<polygon fill="#63b8ff" stroke="#63b8ff" points="225.9,-78.89 216.42,-74.16 220.88,-83.77 225.9,-78.89"/>
</a>
</g>
</g>
<!-- Node19&#45;&gt;Node11 -->
<g id="edge25_Node000019_Node000011" class="edge">
<title>Node19&#45;&gt;Node11</title>
<g id="a_edge25_Node000019_Node000011"><a xlink:title=" ">
<path fill="none" stroke="#63b8ff" d="M287.13,-164.98C260.22,-156.13 217.88,-142.19 187.77,-132.28"/>
<polygon fill="#63b8ff" stroke="#63b8ff" points="188.66,-128.88 178.07,-129.08 186.47,-135.53 188.66,-128.88"/>
</a>
</g>
</g>
<!-- Node20 -->
<g id="Node000020" class="node">
<title>Node20</title>
<g id="a_Node000020"><a xlink:title=" ">
<polygon fill="#e0e0e0" stroke="#999999" points="482,-129 438,-129 438,-110 482,-110 482,-129"/>
<text text-anchor="middle" x="460" y="-117" font-family="Helvetica,sans-Serif" font-size="10.00">bitset</text>
</a>
</g>
</g>
<!-- Node19&#45;&gt;Node20 -->
<g id="edge23_Node000019_Node000020" class="edge">
<title>Node19&#45;&gt;Node20</title>
<g id="a_edge23_Node000019_Node000020"><a xlink:title=" ">
<path fill="none" stroke="#63b8ff" d="M336.62,-164.98C361.48,-156.02 400.77,-141.86 428.31,-131.92"/>
<polygon fill="#63b8ff" stroke="#63b8ff" points="429.66,-135.16 437.88,-128.47 427.29,-128.57 429.66,-135.16"/>
</a>
</g>
</g>
<!-- Node21 -->
<g id="Node000021" class="node">
<title>Node21</title>
<g id="a_Node000021"><a xlink:href="libpbd__visibility_8h.html" target="_top" xlink:title=" ">
<polygon fill="white" stroke="#666666" points="486,-19 364,-19 364,0 486,0 486,-19"/>
<text text-anchor="middle" x="425" y="-7" font-family="Helvetica,sans-Serif" font-size="10.00">pbd/libpbd_visibility.h</text>
</a>
</g>
</g>
<!-- Node19&#45;&gt;Node21 -->
<g id="edge26_Node000019_Node000021" class="edge">
<title>Node19&#45;&gt;Node21</title>
<g id="a_edge26_Node000019_Node000021"><a xlink:title=" ">
<path fill="none" stroke="#63b8ff" d="M307.49,-164.79C294.94,-143.77 267.22,-89.42 292,-55 306.5,-34.85 330.55,-23.7 354.24,-17.56"/>
<polygon fill="#63b8ff" stroke="#63b8ff" points="355.03,-20.97 363.98,-15.3 353.45,-14.15 355.03,-20.97"/>
</a>
</g>
</g>
<!-- Node22 -->
<g id="Node000022" class="node">
<title>Node22</title>
<g id="a_Node000022"><a xlink:href="timing_8h.html" target="_top" xlink:title=" ">
<polygon fill="white" stroke="#666666" points="420,-129 342,-129 342,-110 420,-110 420,-129"/>
<text text-anchor="middle" x="381" y="-117" font-family="Helvetica,sans-Serif" font-size="10.00">pbd/timing.h</text>
</a>
</g>
</g>
<!-- Node19&#45;&gt;Node22 -->
<g id="edge27_Node000019_Node000022" class="edge">
<title>Node19&#45;&gt;Node22</title>
<g id="a_edge27_Node000019_Node000022"><a xlink:title=" ">
<path fill="none" stroke="#63b8ff" d="M323.93,-164.98C334.08,-157.07 349.42,-145.11 361.65,-135.58"/>
<polygon fill="#63b8ff" stroke="#63b8ff" points="364.14,-138.08 369.88,-129.17 359.84,-132.56 364.14,-138.08"/>
</a>
</g>
</g>
<!-- Node27 -->
<g id="Node000027" class="node">
<title>Node27</title>
<g id="a_Node000027"><a xlink:title=" ">
<polygon fill="#e0e0e0" stroke="#999999" points="563.5,-129 500.5,-129 500.5,-110 563.5,-110 563.5,-129"/>
<text text-anchor="middle" x="532" y="-117" font-family="Helvetica,sans-Serif" font-size="10.00">pthread.h</text>
</a>
</g>
</g>
<!-- Node19&#45;&gt;Node27 -->
<g id="edge38_Node000019_Node000027" class="edge">
<title>Node19&#45;&gt;Node27</title>
<g id="a_edge38_Node000019_Node000027"><a xlink:title=" ">
<path fill="none" stroke="#63b8ff" d="M348.19,-164.98C386.98,-155.6 449.32,-140.51 490.48,-130.55"/>
<polygon fill="#63b8ff" stroke="#63b8ff" points="491.56,-133.89 500.46,-128.13 489.91,-127.08 491.56,-133.89"/>
</a>
</g>
</g>
<!-- Node22&#45;&gt;Node4 -->
<g id="edge28_Node000022_Node000004" class="edge">
<title>Node22&#45;&gt;Node4</title>
<g id="a_edge28_Node000022_Node000004"><a xlink:title=" ">
<path fill="none" stroke="#63b8ff" d="M420,-111.4C423.04,-110.91 426.07,-110.43 429,-110 563.6,-90.13 598.82,-96.51 733,-74 735.22,-73.63 737.51,-73.21 739.81,-72.77"/>
<polygon fill="#63b8ff" stroke="#63b8ff" points="740.7,-76.16 749.8,-70.73 739.3,-69.3 740.7,-76.16"/>
</a>
</g>
</g>
<!-- Node22&#45;&gt;Node5 -->
<g id="edge29_Node000022_Node000005" class="edge">
<title>Node22&#45;&gt;Node5</title>
<g id="a_edge29_Node000022_Node000005"><a xlink:title=" ">
<path fill="none" stroke="#63b8ff" d="M353.2,-109.98C323.6,-100.92 276.63,-86.53 244.16,-76.58"/>
<polygon fill="#63b8ff" stroke="#63b8ff" points="245.18,-73.23 234.59,-73.65 243.13,-79.92 245.18,-73.23"/>
</a>
</g>
</g>
<!-- Node22&#45;&gt;Node10 -->
<g id="edge30_Node000022_Node000010" class="edge">
<title>Node22&#45;&gt;Node10</title>
<g id="a_edge30_Node000022_Node000010"><a xlink:title=" ">
<path fill="none" stroke="#63b8ff" d="M420.02,-111.54C423.06,-111.01 426.08,-110.49 429,-110 527.99,-93.25 553.01,-90.75 652,-74 656.53,-73.23 661.31,-72.41 666.01,-71.58"/>
<polygon fill="#63b8ff" stroke="#63b8ff" points="666.85,-74.99 676.09,-69.81 665.63,-68.1 666.85,-74.99"/>
</a>
</g>
</g>
<!-- Node22&#45;&gt;Node17 -->
<g id="edge31_Node000022_Node000017" class="edge">
<title>Node22&#45;&gt;Node17</title>
<g id="a_edge31_Node000022_Node000017"><a xlink:title=" ">
<path fill="none" stroke="#63b8ff" d="M420.06,-110.89C460.1,-102.92 524.4,-89.71 588.78,-74.19"/>
<polygon fill="#63b8ff" stroke="#63b8ff" points="589.8,-77.55 598.69,-71.78 588.15,-70.74 589.8,-77.55"/>
</a>
</g>
</g>
<!-- Node22&#45;&gt;Node21 -->
<g id="edge37_Node000022_Node000021" class="edge">
<title>Node22&#45;&gt;Node21</title>
<g id="a_edge37_Node000022_Node000021"><a xlink:title=" ">
<path fill="none" stroke="#63b8ff" d="M391.71,-109.88C400.99,-101.72 413.85,-88.58 420,-74 425.98,-59.81 426.94,-42.28 426.56,-29.23"/>
<polygon fill="#63b8ff" stroke="#63b8ff" points="430.05,-28.9 425.98,-19.12 423.06,-29.3 430.05,-28.9"/>
</a>
</g>
</g>
<!-- Node23 -->
<g id="Node000023" class="node">
<title>Node23</title>
<g id="a_Node000023"><a xlink:title=" ">
<polygon fill="#e0e0e0" stroke="#999999" points="345,-74 301,-74 301,-55 345,-55 345,-74"/>
<text text-anchor="middle" x="323" y="-62" font-family="Helvetica,sans-Serif" font-size="10.00">string</text>
</a>
</g>
</g>
<!-- Node22&#45;&gt;Node23 -->
<g id="edge32_Node000022_Node000023" class="edge">
<title>Node22&#45;&gt;Node23</title>
<g id="a_edge32_Node000022_Node000023"><a xlink:title=" ">
<path fill="none" stroke="#63b8ff" d="M371.68,-109.98C363.19,-102.23 350.44,-90.58 340.12,-81.14"/>
<polygon fill="#63b8ff" stroke="#63b8ff" points="342.23,-78.33 332.49,-74.17 337.51,-83.5 342.23,-78.33"/>
</a>
</g>
</g>
<!-- Node24 -->
<g id="Node000024" class="node">
<title>Node24</title>
<g id="a_Node000024"><a xlink:title=" ">
<polygon fill="#e0e0e0" stroke="#999999" points="410.5,-74 363.5,-74 363.5,-55 410.5,-55 410.5,-74"/>
<text text-anchor="middle" x="387" y="-62" font-family="Helvetica,sans-Serif" font-size="10.00">vector</text>
</a>
</g>
</g>
<!-- Node22&#45;&gt;Node24 -->
<g id="edge33_Node000022_Node000024" class="edge">
<title>Node22&#45;&gt;Node24</title>
<g id="a_edge33_Node000022_Node000024"><a xlink:title=" ">
<path fill="none" stroke="#63b8ff" d="M381.99,-109.75C382.78,-102.8 383.9,-92.85 384.89,-84.13"/>
<polygon fill="#63b8ff" stroke="#63b8ff" points="388.38,-84.42 386.03,-74.09 381.42,-83.63 388.38,-84.42"/>
</a>
</g>
</g>
<!-- Node25 -->
<g id="Node000025" class="node">
<title>Node25</title>
<g id="a_Node000025"><a xlink:href="microseconds_8h.html" target="_top" xlink:title=" ">
<polygon fill="white" stroke="#666666" points="581,-74 467,-74 467,-55 581,-55 581,-74"/>
<text text-anchor="middle" x="524" y="-62" font-family="Helvetica,sans-Serif" font-size="10.00">pbd/microseconds.h</text>
</a>
</g>
</g>
<!-- Node22&#45;&gt;Node25 -->
<g id="edge34_Node000022_Node000025" class="edge">
<title>Node22&#45;&gt;Node25</title>
<g id="a_edge34_Node000022_Node000025"><a xlink:title=" ">
<path fill="none" stroke="#63b8ff" d="M403.98,-109.98C427.5,-101.27 464.29,-87.63 490.94,-77.75"/>
<polygon fill="#63b8ff" stroke="#63b8ff" points="492.45,-80.93 500.61,-74.17 490.01,-74.36 492.45,-80.93"/>
</a>
</g>
</g>
<!-- Node25&#45;&gt;Node21 -->
<g id="edge36_Node000025_Node000021" class="edge">
<title>Node25&#45;&gt;Node21</title>
<g id="a_edge36_Node000025_Node000021"><a xlink:title=" ">
<path fill="none" stroke="#63b8ff" d="M508.09,-54.98C492.45,-46.61 468.34,-33.7 450.12,-23.95"/>
<polygon fill="#63b8ff" stroke="#63b8ff" points="451.66,-20.8 441.2,-19.17 448.36,-26.98 451.66,-20.8"/>
</a>
</g>
</g>
<!-- Node26 -->
<g id="Node000026" class="node">
<title>Node26</title>
<g id="a_Node000026"><a xlink:title=" ">
<polygon fill="#e0e0e0" stroke="#999999" points="569.5,-19 504.5,-19 504.5,0 569.5,0 569.5,-19"/>
<text text-anchor="middle" x="537" y="-7" font-family="Helvetica,sans-Serif" font-size="10.00">inttypes.h</text>
</a>
</g>
</g>
<!-- Node25&#45;&gt;Node26 -->
<g id="edge35_Node000025_Node000026" class="edge">
<title>Node25&#45;&gt;Node26</title>
<g id="a_edge35_Node000025_Node000026"><a xlink:title=" ">
<path fill="none" stroke="#63b8ff" d="M526.15,-54.75C527.87,-47.72 530.35,-37.62 532.5,-28.84"/>
<polygon fill="#63b8ff" stroke="#63b8ff" points="535.91,-29.63 534.89,-19.09 529.11,-27.97 535.91,-29.63"/>
</a>
</g>
</g>
</g>
</svg>
