<?xml version="1.0" encoding="UTF-8" standalone="no"?>
<!DOCTYPE svg PUBLIC "-//W3C//DTD SVG 1.1//EN"
 "http://www.w3.org/Graphics/SVG/1.1/DTD/svg11.dtd">
<!-- Generated by graphviz version 2.43.0 (0)
 -->
<!-- Title: note_player.h Pages: 1 -->
<!--zoomable 412 -->

<svg id="main" version="1.1" xmlns="http://www.w3.org/2000/svg" xmlns:xlink="http://www.w3.org/1999/xlink" xml:space="preserve" onload="init(evt)">
<style type="text/css"><![CDATA[
.node, .edge {opacity: 0.7;}
.node.selected, .edge.selected {opacity: 1;}
.edge:hover path { stroke: red; }
.edge:hover polygon { stroke: red; fill: red; }
]]></style>

<defs>
  <circle id="rim" cx="0" cy="0" r="7"/>
  <circle id="rim2" cx="0" cy="0" r="3.5"/>
  <g id="zoomPlus">
    <use xlink:href="#rim" fill="#404040"><set attributeName="fill" to="#808080" begin="zoomplus.mouseover" end="zoomplus.mouseout"/></use>
    <path d="M-4,0h8M0,-4v8" fill="none" stroke="white" stroke-width="1.5" pointer-events="none"/>
  </g>
  <g id="zoomMin">
    <use xlink:href="#rim" fill="#404040"><set attributeName="fill" to="#808080" begin="zoomminus.mouseover" end="zoomminus.mouseout"/></use>
    <path d="M-4,0h8" fill="none" stroke="white" stroke-width="1.5" pointer-events="none"/>
  </g>
  <g id="arrowUp" transform="translate(30 24)">
    <use xlink:href="#rim"/>
    <path pointer-events="none" fill="none" stroke="white" stroke-width="1.5" d="M0,-3.0v7 M-2.5,-0.5L0,-3.0L2.5,-0.5"/>
  </g>
  <g id="arrowRight" transform="rotate(90) translate(36 -43)">
    <use xlink:href="#rim"/>
    <path pointer-events="none" fill="none" stroke="white" stroke-width="1.5" d="M0,-3.0v7 M-2.5,-0.5L0,-3.0L2.5,-0.5"/>
  </g>
  <g id="arrowDown" transform="rotate(180) translate(-30 -48)">
    <use xlink:href="#rim"/>
    <path pointer-events="none" fill="none" stroke="white" stroke-width="1.5" d="M0,-3.0v7 M-2.5,-0.5L0,-3.0L2.5,-0.5"/>
  </g>
  <g id="arrowLeft" transform="rotate(270) translate(-36 17)">
    <use xlink:href="#rim"/>
    <path pointer-events="none" fill="none" stroke="white" stroke-width="1.5" d="M0,-3.0v7 M-2.5,-0.5L0,-3.0L2.5,-0.5"/>
  </g>
  <g id="resetDef">
    <use xlink:href="#rim2" fill="#404040"><set attributeName="fill" to="#808080" begin="reset.mouseover" end="reset.mouseout"/></use>
  </g>
</defs>
<script type="application/ecmascript">
var viewWidth = 962;
var viewHeight = 412;
var sectionId = 'dynsection-0';
</script>
<script type="application/ecmascript" xlink:href="svg.min.js"/>
<svg id="graph" class="graph">
<g id="viewport">
<title>note_player.h</title>
<!-- Node1 -->
<g id="Node000001" class="node">
<title>Node1</title>
<g id="a_Node000001"><a xlink:title=" ">
<polygon fill="#999999" stroke="#666666" points="168.5,-404 85.5,-404 85.5,-385 168.5,-385 168.5,-404"/>
<text text-anchor="middle" x="127" y="-392" font-family="Helvetica,sans-Serif" font-size="10.00">note_player.h</text>
</a>
</g>
</g>
<!-- Node2 -->
<g id="Node000002" class="node">
<title>Node2</title>
<g id="a_Node000002"><a xlink:title=" ">
<polygon fill="#e0e0e0" stroke="#999999" points="58,-349 0,-349 0,-330 58,-330 58,-349"/>
<text text-anchor="middle" x="29" y="-337" font-family="Helvetica,sans-Serif" font-size="10.00">memory</text>
</a>
</g>
</g>
<!-- Node1&#45;&gt;Node2 -->
<g id="edge1_Node000001_Node000002" class="edge">
<title>Node1&#45;&gt;Node2</title>
<g id="a_edge1_Node000001_Node000002"><a xlink:title=" ">
<path fill="none" stroke="#63b8ff" d="M111.25,-384.98C95.77,-376.61 71.91,-363.7 53.86,-353.95"/>
<polygon fill="#63b8ff" stroke="#63b8ff" points="55.49,-350.85 45.03,-349.17 52.16,-357.01 55.49,-350.85"/>
</a>
</g>
</g>
<!-- Node3 -->
<g id="Node000003" class="node">
<title>Node3</title>
<g id="a_Node000003"><a xlink:title=" ">
<polygon fill="#e0e0e0" stroke="#999999" points="105.5,-74 58.5,-74 58.5,-55 105.5,-55 105.5,-74"/>
<text text-anchor="middle" x="82" y="-62" font-family="Helvetica,sans-Serif" font-size="10.00">vector</text>
</a>
</g>
</g>
<!-- Node1&#45;&gt;Node3 -->
<g id="edge2_Node000001_Node000003" class="edge">
<title>Node1&#45;&gt;Node3</title>
<g id="a_edge2_Node000001_Node000003"><a xlink:title=" ">
<path fill="none" stroke="#63b8ff" d="M121.3,-384.96C110.03,-367.23 86,-324.81 86,-285.5 86,-285.5 86,-285.5 86,-173.5 86,-142.17 84.3,-105.76 83.11,-84.23"/>
<polygon fill="#63b8ff" stroke="#63b8ff" points="86.6,-83.96 82.54,-74.18 79.62,-84.36 86.6,-83.96"/>
</a>
</g>
</g>
<!-- Node4 -->
<g id="Node000004" class="node">
<title>Node4</title>
<g id="a_Node000004"><a xlink:title=" ">
<polygon fill="#e0e0e0" stroke="#999999" points="224,-349 114,-349 114,-330 224,-330 224,-349"/>
<text text-anchor="middle" x="169" y="-337" font-family="Helvetica,sans-Serif" font-size="10.00">sigc++/trackable.h</text>
</a>
</g>
</g>
<!-- Node1&#45;&gt;Node4 -->
<g id="edge3_Node000001_Node000004" class="edge">
<title>Node1&#45;&gt;Node4</title>
<g id="a_edge3_Node000001_Node000004"><a xlink:title=" ">
<path fill="none" stroke="#63b8ff" d="M133.94,-384.75C139.87,-377.26 148.57,-366.28 155.82,-357.13"/>
<polygon fill="#63b8ff" stroke="#63b8ff" points="158.73,-359.1 162.19,-349.09 153.24,-354.75 158.73,-359.1"/>
</a>
</g>
</g>
<!-- Node5 -->
<g id="Node000005" class="node">
<title>Node5</title>
<g id="a_Node000005"><a xlink:href="Note_8h.html" target="_top" xlink:title=" ">
<polygon fill="white" stroke="#666666" points="456.5,-349 373.5,-349 373.5,-330 456.5,-330 456.5,-349"/>
<text text-anchor="middle" x="415" y="-337" font-family="Helvetica,sans-Serif" font-size="10.00">evoral/Note.h</text>
</a>
</g>
</g>
<!-- Node1&#45;&gt;Node5 -->
<g id="edge4_Node000001_Node000005" class="edge">
<title>Node1&#45;&gt;Node5</title>
<g id="a_edge4_Node000001_Node000005"><a xlink:title=" ">
<path fill="none" stroke="#63b8ff" d="M168.57,-385.85C220.04,-376.38 307.72,-360.24 363.43,-349.99"/>
<polygon fill="#63b8ff" stroke="#63b8ff" points="364.24,-353.4 373.44,-348.15 362.97,-346.52 364.24,-353.4"/>
</a>
</g>
</g>
<!-- Node6 -->
<g id="Node000006" class="node">
<title>Node6</title>
<g id="a_Node000006"><a xlink:title=" ">
<polygon fill="#e0e0e0" stroke="#999999" points="842,-239 778,-239 778,-220 842,-220 842,-239"/>
<text text-anchor="middle" x="810" y="-227" font-family="Helvetica,sans-Serif" font-size="10.00">algorithm</text>
</a>
</g>
</g>
<!-- Node5&#45;&gt;Node6 -->
<g id="edge5_Node000005_Node000006" class="edge">
<title>Node5&#45;&gt;Node6</title>
<g id="a_edge5_Node000005_Node000006"><a xlink:title=" ">
<path fill="none" stroke="#63b8ff" d="M446.33,-329.94C517.05,-310.6 689.11,-263.55 768.55,-241.83"/>
<polygon fill="#63b8ff" stroke="#63b8ff" points="769.95,-245.08 778.67,-239.07 768.1,-238.33 769.95,-245.08"/>
</a>
</g>
</g>
<!-- Node7 -->
<g id="Node000007" class="node">
<title>Node7</title>
<g id="a_Node000007"><a xlink:href="assert_8h.html" target="_top" xlink:title=" ">
<polygon fill="white" stroke="#666666" points="954,-294 898,-294 898,-275 954,-275 954,-294"/>
<text text-anchor="middle" x="926" y="-282" font-family="Helvetica,sans-Serif" font-size="10.00">assert.h</text>
</a>
</g>
</g>
<!-- Node5&#45;&gt;Node7 -->
<g id="edge6_Node000005_Node000007" class="edge">
<title>Node5&#45;&gt;Node7</title>
<g id="a_edge6_Node000005_Node000007"><a xlink:title=" ">
<path fill="none" stroke="#63b8ff" d="M456.58,-336.03C538.64,-330.82 727.04,-317.26 884,-294 885.1,-293.84 886.22,-293.66 887.35,-293.48"/>
<polygon fill="#63b8ff" stroke="#63b8ff" points="888.37,-296.86 897.6,-291.67 887.15,-289.96 888.37,-296.86"/>
</a>
</g>
</g>
<!-- Node8 -->
<g id="Node000008" class="node">
<title>Node8</title>
<g id="a_Node000008"><a xlink:title=" ">
<polygon fill="#e0e0e0" stroke="#999999" points="168,-74 124,-74 124,-55 168,-55 168,-74"/>
<text text-anchor="middle" x="146" y="-62" font-family="Helvetica,sans-Serif" font-size="10.00">glib.h</text>
</a>
</g>
</g>
<!-- Node5&#45;&gt;Node8 -->
<g id="edge7_Node000005_Node000008" class="edge">
<title>Node5&#45;&gt;Node8</title>
<g id="a_edge7_Node000005_Node000008"><a xlink:title=" ">
<path fill="none" stroke="#63b8ff" d="M373.43,-331.84C293.67,-317.88 127,-282.5 127,-230.5 127,-230.5 127,-230.5 127,-173.5 127,-141.56 135.16,-105.1 140.78,-83.77"/>
<polygon fill="#63b8ff" stroke="#63b8ff" points="144.17,-84.66 143.44,-74.09 137.42,-82.81 144.17,-84.66"/>
</a>
</g>
</g>
<!-- Node9 -->
<g id="Node000009" class="node">
<title>Node9</title>
<g id="a_Node000009"><a xlink:title=" ">
<polygon fill="#e0e0e0" stroke="#999999" points="746.5,-74 693.5,-74 693.5,-55 746.5,-55 746.5,-74"/>
<text text-anchor="middle" x="720" y="-62" font-family="Helvetica,sans-Serif" font-size="10.00">stdint.h</text>
</a>
</g>
</g>
<!-- Node5&#45;&gt;Node9 -->
<g id="edge8_Node000005_Node000009" class="edge">
<title>Node5&#45;&gt;Node9</title>
<g id="a_edge8_Node000005_Node000009"><a xlink:title=" ">
<path fill="none" stroke="#63b8ff" d="M456.58,-337.45C568.91,-333.5 870,-315.04 870,-230.5 870,-230.5 870,-230.5 870,-173.5 870,-117.83 801.11,-88.01 756.7,-74.58"/>
<polygon fill="#63b8ff" stroke="#63b8ff" points="757.39,-71.13 746.82,-71.73 755.46,-77.86 757.39,-71.13"/>
</a>
</g>
</g>
<!-- Node10 -->
<g id="Node000010" class="node">
<title>Node10</title>
<g id="a_Node000010"><a xlink:href="evoral_2evoral_2visibility_8h.html" target="_top" xlink:title=" ">
<polygon fill="white" stroke="#666666" points="331,-184 231,-184 231,-165 331,-165 331,-184"/>
<text text-anchor="middle" x="281" y="-172" font-family="Helvetica,sans-Serif" font-size="10.00">evoral/visibility.h</text>
</a>
</g>
</g>
<!-- Node5&#45;&gt;Node10 -->
<g id="edge9_Node000005_Node000010" class="edge">
<title>Node5&#45;&gt;Node10</title>
<g id="a_edge9_Node000005_Node000010"><a xlink:title=" ">
<path fill="none" stroke="#63b8ff" d="M373.33,-330.21C327.36,-318.59 255.58,-292.57 223,-239 211.24,-219.66 233.74,-200.96 254.05,-188.93"/>
<polygon fill="#63b8ff" stroke="#63b8ff" points="255.78,-191.97 262.81,-184.04 252.37,-185.86 255.78,-191.97"/>
</a>
</g>
</g>
<!-- Node11 -->
<g id="Node000011" class="node">
<title>Node11</title>
<g id="a_Node000011"><a xlink:href="Event_8h.html" target="_top" xlink:title=" ">
<polygon fill="white" stroke="#666666" points="458.5,-294 371.5,-294 371.5,-275 458.5,-275 458.5,-294"/>
<text text-anchor="middle" x="415" y="-282" font-family="Helvetica,sans-Serif" font-size="10.00">evoral/Event.h</text>
</a>
</g>
</g>
<!-- Node5&#45;&gt;Node11 -->
<g id="edge10_Node000005_Node000011" class="edge">
<title>Node5&#45;&gt;Node11</title>
<g id="a_edge10_Node000005_Node000011"><a xlink:title=" ">
<path fill="none" stroke="#63b8ff" d="M415,-329.75C415,-322.8 415,-312.85 415,-304.13"/>
<polygon fill="#63b8ff" stroke="#63b8ff" points="418.5,-304.09 415,-294.09 411.5,-304.09 418.5,-304.09"/>
</a>
</g>
</g>
<!-- Node11&#45;&gt;Node6 -->
<g id="edge11_Node000011_Node000006" class="edge">
<title>Node11&#45;&gt;Node6</title>
<g id="a_edge11_Node000011_Node000006"><a xlink:title=" ">
<path fill="none" stroke="#63b8ff" d="M458.64,-278.73C524.82,-271.32 654.46,-256.09 764,-239 765.26,-238.8 766.55,-238.6 767.84,-238.39"/>
<polygon fill="#63b8ff" stroke="#63b8ff" points="768.6,-241.81 777.87,-236.67 767.42,-234.91 768.6,-241.81"/>
</a>
</g>
</g>
<!-- Node11&#45;&gt;Node9 -->
<g id="edge16_Node000011_Node000009" class="edge">
<title>Node11&#45;&gt;Node9</title>
<g id="a_edge16_Node000011_Node000009"><a xlink:title=" ">
<path fill="none" stroke="#63b8ff" d="M458.72,-279.93C554.06,-271.05 775.18,-244.25 813,-184 838.34,-143.64 780.49,-100.7 745.04,-79.3"/>
<polygon fill="#63b8ff" stroke="#63b8ff" points="746.54,-76.13 736.15,-74.1 743.01,-82.17 746.54,-76.13"/>
</a>
</g>
</g>
<!-- Node11&#45;&gt;Node10 -->
<g id="edge43_Node000011_Node000010" class="edge">
<title>Node11&#45;&gt;Node10</title>
<g id="a_edge43_Node000011_Node000010"><a xlink:title=" ">
<path fill="none" stroke="#63b8ff" d="M408.71,-274.91C398.91,-261.92 378.94,-236.99 358,-220 342.81,-207.67 323.79,-196.65 308.46,-188.66"/>
<polygon fill="#63b8ff" stroke="#63b8ff" points="309.96,-185.49 299.46,-184.09 306.79,-191.73 309.96,-185.49"/>
</a>
</g>
</g>
<!-- Node12 -->
<g id="Node000012" class="node">
<title>Node12</title>
<g id="a_Node000012"><a xlink:title=" ">
<polygon fill="#e0e0e0" stroke="#999999" points="280.5,-239 231.5,-239 231.5,-220 280.5,-220 280.5,-239"/>
<text text-anchor="middle" x="256" y="-227" font-family="Helvetica,sans-Serif" font-size="10.00">cstdlib</text>
</a>
</g>
</g>
<!-- Node11&#45;&gt;Node12 -->
<g id="edge12_Node000011_Node000012" class="edge">
<title>Node11&#45;&gt;Node12</title>
<g id="a_edge12_Node000011_Node000012"><a xlink:title=" ">
<path fill="none" stroke="#63b8ff" d="M389.45,-274.98C362.56,-266.02 320.07,-251.86 290.27,-241.92"/>
<polygon fill="#63b8ff" stroke="#63b8ff" points="291.29,-238.57 280.7,-238.73 289.08,-245.22 291.29,-238.57"/>
</a>
</g>
</g>
<!-- Node13 -->
<g id="Node000013" class="node">
<title>Node13</title>
<g id="a_Node000013"><a xlink:title=" ">
<polygon fill="#e0e0e0" stroke="#999999" points="349,-239 299,-239 299,-220 349,-220 349,-239"/>
<text text-anchor="middle" x="324" y="-227" font-family="Helvetica,sans-Serif" font-size="10.00">cstring</text>
</a>
</g>
</g>
<!-- Node11&#45;&gt;Node13 -->
<g id="edge13_Node000011_Node000013" class="edge">
<title>Node11&#45;&gt;Node13</title>
<g id="a_edge13_Node000011_Node000013"><a xlink:title=" ">
<path fill="none" stroke="#63b8ff" d="M400.38,-274.98C386.14,-266.69 364.25,-253.94 347.55,-244.22"/>
<polygon fill="#63b8ff" stroke="#63b8ff" points="349.29,-241.18 338.89,-239.17 345.77,-247.23 349.29,-241.18"/>
</a>
</g>
</g>
<!-- Node14 -->
<g id="Node000014" class="node">
<title>Node14</title>
<g id="a_Node000014"><a xlink:title=" ">
<polygon fill="#e0e0e0" stroke="#999999" points="233.5,-74 186.5,-74 186.5,-55 233.5,-55 233.5,-74"/>
<text text-anchor="middle" x="210" y="-62" font-family="Helvetica,sans-Serif" font-size="10.00">cmath</text>
</a>
</g>
</g>
<!-- Node11&#45;&gt;Node14 -->
<g id="edge14_Node000011_Node000014" class="edge">
<title>Node11&#45;&gt;Node14</title>
<g id="a_edge14_Node000011_Node000014"><a xlink:title=" ">
<path fill="none" stroke="#63b8ff" d="M371.41,-279.33C320.85,-273.53 241.99,-261.14 223,-239 185.03,-194.72 196.94,-118.53 205.09,-83.76"/>
<polygon fill="#63b8ff" stroke="#63b8ff" points="208.5,-84.57 207.54,-74.02 201.71,-82.86 208.5,-84.57"/>
</a>
</g>
</g>
<!-- Node15 -->
<g id="Node000015" class="node">
<title>Node15</title>
<g id="a_Node000015"><a xlink:title=" ">
<polygon fill="#e0e0e0" stroke="#999999" points="338,-129 282,-129 282,-110 338,-110 338,-129"/>
<text text-anchor="middle" x="310" y="-117" font-family="Helvetica,sans-Serif" font-size="10.00">sstream</text>
</a>
</g>
</g>
<!-- Node11&#45;&gt;Node15 -->
<g id="edge15_Node000011_Node000015" class="edge">
<title>Node11&#45;&gt;Node15</title>
<g id="a_edge15_Node000011_Node000015"><a xlink:title=" ">
<path fill="none" stroke="#63b8ff" d="M410.72,-274.67C404.59,-262.22 392.74,-238.91 381,-220 362.25,-189.81 337.65,-156.53 322.87,-137.13"/>
<polygon fill="#63b8ff" stroke="#63b8ff" points="325.52,-134.83 316.65,-129.03 319.96,-139.09 325.52,-134.83"/>
</a>
</g>
</g>
<!-- Node16 -->
<g id="Node000016" class="node">
<title>Node16</title>
<g id="a_Node000016"><a xlink:href="midi__events_8h.html" target="_top" xlink:title=" ">
<polygon fill="white" stroke="#666666" points="689.5,-239 570.5,-239 570.5,-220 689.5,-220 689.5,-239"/>
<text text-anchor="middle" x="630" y="-227" font-family="Helvetica,sans-Serif" font-size="10.00">evoral/midi_events.h</text>
</a>
</g>
</g>
<!-- Node11&#45;&gt;Node16 -->
<g id="edge17_Node000011_Node000016" class="edge">
<title>Node11&#45;&gt;Node16</title>
<g id="a_edge17_Node000011_Node000016"><a xlink:title=" ">
<path fill="none" stroke="#63b8ff" d="M449.54,-274.98C486.42,-265.89 544.99,-251.46 585.34,-241.51"/>
<polygon fill="#63b8ff" stroke="#63b8ff" points="586.31,-244.87 595.19,-239.08 584.64,-238.08 586.31,-244.87"/>
</a>
</g>
</g>
<!-- Node17 -->
<g id="Node000017" class="node">
<title>Node17</title>
<g id="a_Node000017"><a xlink:href="evoral_2evoral_2types_8h.html" target="_top" xlink:title=" ">
<polygon fill="white" stroke="#666666" points="552,-239 466,-239 466,-220 552,-220 552,-239"/>
<text text-anchor="middle" x="509" y="-227" font-family="Helvetica,sans-Serif" font-size="10.00">evoral/types.h</text>
</a>
</g>
</g>
<!-- Node11&#45;&gt;Node17 -->
<g id="edge18_Node000011_Node000017" class="edge">
<title>Node11&#45;&gt;Node17</title>
<g id="a_edge18_Node000011_Node000017"><a xlink:title=" ">
<path fill="none" stroke="#63b8ff" d="M430.1,-274.98C444.82,-266.69 467.42,-253.94 484.67,-244.22"/>
<polygon fill="#63b8ff" stroke="#63b8ff" points="486.63,-247.13 493.62,-239.17 483.19,-241.03 486.63,-247.13"/>
</a>
</g>
</g>
<!-- Node17&#45;&gt;Node9 -->
<g id="edge21_Node000017_Node000009" class="edge">
<title>Node17&#45;&gt;Node9</title>
<g id="a_edge21_Node000017_Node000009"><a xlink:title=" ">
<path fill="none" stroke="#63b8ff" d="M512.23,-219.57C517.73,-205.65 530.29,-178.95 550,-165 606.32,-125.15 650.85,-176.38 701,-129 713.14,-117.53 717.62,-98.64 719.23,-84.44"/>
<polygon fill="#63b8ff" stroke="#63b8ff" points="722.73,-84.53 719.99,-74.29 715.75,-84 722.73,-84.53"/>
</a>
</g>
</g>
<!-- Node17&#45;&gt;Node10 -->
<g id="edge25_Node000017_Node000010" class="edge">
<title>Node17&#45;&gt;Node10</title>
<g id="a_edge25_Node000017_Node000010"><a xlink:title=" ">
<path fill="none" stroke="#63b8ff" d="M472.37,-219.98C433.09,-210.86 370.63,-196.33 327.81,-186.38"/>
<polygon fill="#63b8ff" stroke="#63b8ff" points="328.45,-182.94 317.92,-184.08 326.87,-189.76 328.45,-182.94"/>
</a>
</g>
</g>
<!-- Node18 -->
<g id="Node000018" class="node">
<title>Node18</title>
<g id="a_Node000018"><a xlink:title=" ">
<polygon fill="#e0e0e0" stroke="#999999" points="656.5,-184 609.5,-184 609.5,-165 656.5,-165 656.5,-184"/>
<text text-anchor="middle" x="633" y="-172" font-family="Helvetica,sans-Serif" font-size="10.00">float.h</text>
</a>
</g>
</g>
<!-- Node17&#45;&gt;Node18 -->
<g id="edge19_Node000017_Node000018" class="edge">
<title>Node17&#45;&gt;Node18</title>
<g id="a_edge19_Node000017_Node000018"><a xlink:title=" ">
<path fill="none" stroke="#63b8ff" d="M528.92,-219.98C549.05,-211.38 580.38,-197.99 603.41,-188.15"/>
<polygon fill="#63b8ff" stroke="#63b8ff" points="604.9,-191.32 612.71,-184.17 602.14,-184.88 604.9,-191.32"/>
</a>
</g>
</g>
<!-- Node19 -->
<g id="Node000019" class="node">
<title>Node19</title>
<g id="a_Node000019"><a xlink:title=" ">
<polygon fill="#e0e0e0" stroke="#999999" points="725.5,-184 674.5,-184 674.5,-165 725.5,-165 725.5,-184"/>
<text text-anchor="middle" x="700" y="-172" font-family="Helvetica,sans-Serif" font-size="10.00">math.h</text>
</a>
</g>
</g>
<!-- Node17&#45;&gt;Node19 -->
<g id="edge20_Node000017_Node000019" class="edge">
<title>Node17&#45;&gt;Node19</title>
<g id="a_edge20_Node000017_Node000019"><a xlink:title=" ">
<path fill="none" stroke="#63b8ff" d="M539.69,-219.98C573.66,-210.56 628.36,-195.38 664.25,-185.42"/>
<polygon fill="#63b8ff" stroke="#63b8ff" points="665.59,-188.68 674.29,-182.63 663.72,-181.94 665.59,-188.68"/>
</a>
</g>
</g>
<!-- Node20 -->
<g id="Node000020" class="node">
<title>Node20</title>
<g id="a_Node000020"><a xlink:title=" ">
<polygon fill="#e0e0e0" stroke="#999999" points="804,-184 744,-184 744,-165 804,-165 804,-184"/>
<text text-anchor="middle" x="774" y="-172" font-family="Helvetica,sans-Serif" font-size="10.00">iostream</text>
</a>
</g>
</g>
<!-- Node17&#45;&gt;Node20 -->
<g id="edge22_Node000017_Node000020" class="edge">
<title>Node17&#45;&gt;Node20</title>
<g id="a_edge22_Node000017_Node000020"><a xlink:title=" ">
<path fill="none" stroke="#63b8ff" d="M552.38,-220.23C595.78,-211.89 664.72,-198.49 733.62,-184.25"/>
<polygon fill="#63b8ff" stroke="#63b8ff" points="734.7,-187.61 743.78,-182.15 733.28,-180.75 734.7,-187.61"/>
</a>
</g>
</g>
<!-- Node21 -->
<g id="Node000021" class="node">
<title>Node21</title>
<g id="a_Node000021"><a xlink:title=" ">
<polygon fill="#e0e0e0" stroke="#999999" points="296,-74 252,-74 252,-55 296,-55 296,-74"/>
<text text-anchor="middle" x="274" y="-62" font-family="Helvetica,sans-Serif" font-size="10.00">limits</text>
</a>
</g>
</g>
<!-- Node17&#45;&gt;Node21 -->
<g id="edge23_Node000017_Node000021" class="edge">
<title>Node17&#45;&gt;Node21</title>
<g id="a_edge23_Node000017_Node000021"><a xlink:title=" ">
<path fill="none" stroke="#63b8ff" d="M485.4,-219.86C466,-212.13 438.33,-199.61 417,-184 380.47,-157.26 382.19,-138.48 347,-110 332.33,-98.13 314.22,-87.07 299.71,-78.95"/>
<polygon fill="#63b8ff" stroke="#63b8ff" points="301.22,-75.79 290.77,-74.06 297.86,-81.93 301.22,-75.79"/>
</a>
</g>
</g>
<!-- Node22 -->
<g id="Node000022" class="node">
<title>Node22</title>
<g id="a_Node000022"><a xlink:title=" ">
<polygon fill="#e0e0e0" stroke="#999999" points="591,-184 559,-184 559,-165 591,-165 591,-184"/>
<text text-anchor="middle" x="575" y="-172" font-family="Helvetica,sans-Serif" font-size="10.00">list</text>
</a>
</g>
</g>
<!-- Node17&#45;&gt;Node22 -->
<g id="edge24_Node000017_Node000022" class="edge">
<title>Node17&#45;&gt;Node22</title>
<g id="a_edge24_Node000017_Node000022"><a xlink:title=" ">
<path fill="none" stroke="#63b8ff" d="M519.6,-219.98C529.46,-212.07 544.35,-200.11 556.22,-190.58"/>
<polygon fill="#63b8ff" stroke="#63b8ff" points="558.6,-193.16 564.2,-184.17 554.21,-187.7 558.6,-193.16"/>
</a>
</g>
</g>
<!-- Node23 -->
<g id="Node000023" class="node">
<title>Node23</title>
<g id="a_Node000023"><a xlink:href="libs_2pbd_2pbd_2debug_8h.html" target="_top" xlink:title=" ">
<polygon fill="white" stroke="#666666" points="502.5,-184 425.5,-184 425.5,-165 502.5,-165 502.5,-184"/>
<text text-anchor="middle" x="464" y="-172" font-family="Helvetica,sans-Serif" font-size="10.00">pbd/debug.h</text>
</a>
</g>
</g>
<!-- Node17&#45;&gt;Node23 -->
<g id="edge26_Node000017_Node000023" class="edge">
<title>Node17&#45;&gt;Node23</title>
<g id="a_edge26_Node000017_Node000023"><a xlink:title=" ">
<path fill="none" stroke="#63b8ff" d="M501.57,-219.75C495.15,-212.18 485.69,-201.05 477.88,-191.84"/>
<polygon fill="#63b8ff" stroke="#63b8ff" points="480.43,-189.45 471.29,-184.09 475.1,-193.98 480.43,-189.45"/>
</a>
</g>
</g>
<!-- Node23&#45;&gt;Node9 -->
<g id="edge28_Node000023_Node000009" class="edge">
<title>Node23&#45;&gt;Node9</title>
<g id="a_edge28_Node000023_Node000009"><a xlink:title=" ">
<path fill="none" stroke="#63b8ff" d="M495.59,-164.96C523.73,-156.95 565.79,-143.97 601,-129 610.51,-124.95 663.51,-96.28 695.49,-78.88"/>
<polygon fill="#63b8ff" stroke="#63b8ff" points="697.17,-81.95 704.28,-74.09 693.82,-75.8 697.17,-81.95"/>
</a>
</g>
</g>
<!-- Node23&#45;&gt;Node15 -->
<g id="edge29_Node000023_Node000015" class="edge">
<title>Node23&#45;&gt;Node15</title>
<g id="a_edge29_Node000023_Node000015"><a xlink:title=" ">
<path fill="none" stroke="#63b8ff" d="M439.26,-164.98C413.63,-156.16 373.37,-142.31 344.59,-132.41"/>
<polygon fill="#63b8ff" stroke="#63b8ff" points="345.53,-129.03 334.94,-129.08 343.25,-135.65 345.53,-129.03"/>
</a>
</g>
</g>
<!-- Node24 -->
<g id="Node000024" class="node">
<title>Node24</title>
<g id="a_Node000024"><a xlink:title=" ">
<polygon fill="#e0e0e0" stroke="#999999" points="692,-129 648,-129 648,-110 692,-110 692,-129"/>
<text text-anchor="middle" x="670" y="-117" font-family="Helvetica,sans-Serif" font-size="10.00">bitset</text>
</a>
</g>
</g>
<!-- Node23&#45;&gt;Node24 -->
<g id="edge27_Node000023_Node000024" class="edge">
<title>Node23&#45;&gt;Node24</title>
<g id="a_edge27_Node000023_Node000024"><a xlink:title=" ">
<path fill="none" stroke="#63b8ff" d="M497.1,-164.98C535.77,-155.03 599.34,-138.68 637.67,-128.82"/>
<polygon fill="#63b8ff" stroke="#63b8ff" points="638.96,-132.1 647.78,-126.22 637.22,-125.32 638.96,-132.1"/>
</a>
</g>
</g>
<!-- Node25 -->
<g id="Node000025" class="node">
<title>Node25</title>
<g id="a_Node000025"><a xlink:href="libpbd__visibility_8h.html" target="_top" xlink:title=" ">
<polygon fill="white" stroke="#666666" points="592,-19 470,-19 470,0 592,0 592,-19"/>
<text text-anchor="middle" x="531" y="-7" font-family="Helvetica,sans-Serif" font-size="10.00">pbd/libpbd_visibility.h</text>
</a>
</g>
</g>
<!-- Node23&#45;&gt;Node25 -->
<g id="edge30_Node000023_Node000025" class="edge">
<title>Node23&#45;&gt;Node25</title>
<g id="a_edge30_Node000023_Node000025"><a xlink:title=" ">
<path fill="none" stroke="#63b8ff" d="M470.01,-164.9C481.38,-148.19 506.09,-109.84 519,-74 524.24,-59.47 527.31,-42.2 529.03,-29.34"/>
<polygon fill="#63b8ff" stroke="#63b8ff" points="532.52,-29.7 530.22,-19.36 525.57,-28.88 532.52,-29.7"/>
</a>
</g>
</g>
<!-- Node26 -->
<g id="Node000026" class="node">
<title>Node26</title>
<g id="a_Node000026"><a xlink:href="timing_8h.html" target="_top" xlink:title=" ">
<polygon fill="white" stroke="#666666" points="472,-129 394,-129 394,-110 472,-110 472,-129"/>
<text text-anchor="middle" x="433" y="-117" font-family="Helvetica,sans-Serif" font-size="10.00">pbd/timing.h</text>
</a>
</g>
</g>
<!-- Node23&#45;&gt;Node26 -->
<g id="edge31_Node000023_Node000026" class="edge">
<title>Node23&#45;&gt;Node26</title>
<g id="a_edge31_Node000023_Node000026"><a xlink:title=" ">
<path fill="none" stroke="#63b8ff" d="M458.88,-164.75C454.64,-157.49 448.47,-146.95 443.22,-137.98"/>
<polygon fill="#63b8ff" stroke="#63b8ff" points="446.09,-135.95 438.02,-129.09 440.05,-139.49 446.09,-135.95"/>
</a>
</g>
</g>
<!-- Node30 -->
<g id="Node000030" class="node">
<title>Node30</title>
<g id="a_Node000030"><a xlink:title=" ">
<polygon fill="#e0e0e0" stroke="#999999" points="591.5,-129 528.5,-129 528.5,-110 591.5,-110 591.5,-129"/>
<text text-anchor="middle" x="560" y="-117" font-family="Helvetica,sans-Serif" font-size="10.00">pthread.h</text>
</a>
</g>
</g>
<!-- Node23&#45;&gt;Node30 -->
<g id="edge42_Node000023_Node000030" class="edge">
<title>Node23&#45;&gt;Node30</title>
<g id="a_edge42_Node000023_Node000030"><a xlink:title=" ">
<path fill="none" stroke="#63b8ff" d="M479.42,-164.98C494.45,-156.69 517.54,-143.94 535.16,-134.22"/>
<polygon fill="#63b8ff" stroke="#63b8ff" points="537.23,-137.07 544.3,-129.17 533.85,-130.94 537.23,-137.07"/>
</a>
</g>
</g>
<!-- Node26&#45;&gt;Node3 -->
<g id="edge37_Node000026_Node000003" class="edge">
<title>Node26&#45;&gt;Node3</title>
<g id="a_edge37_Node000026_Node000003"><a xlink:title=" ">
<path fill="none" stroke="#63b8ff" d="M393.6,-114.44C335.09,-108.09 221.66,-94.57 115.63,-73.91"/>
<polygon fill="#63b8ff" stroke="#63b8ff" points="116.21,-70.45 105.72,-71.95 114.85,-77.32 116.21,-70.45"/>
</a>
</g>
</g>
<!-- Node26&#45;&gt;Node8 -->
<g id="edge32_Node000026_Node000008" class="edge">
<title>Node26&#45;&gt;Node8</title>
<g id="a_edge32_Node000026_Node000008"><a xlink:title=" ">
<path fill="none" stroke="#63b8ff" d="M393.74,-112.87C345.27,-105.65 260.14,-92.13 178.26,-74.11"/>
<polygon fill="#63b8ff" stroke="#63b8ff" points="178.81,-70.64 168.29,-71.88 177.29,-77.48 178.81,-70.64"/>
</a>
</g>
</g>
<!-- Node26&#45;&gt;Node9 -->
<g id="edge33_Node000026_Node000009" class="edge">
<title>Node26&#45;&gt;Node9</title>
<g id="a_edge33_Node000026_Node000009"><a xlink:title=" ">
<path fill="none" stroke="#63b8ff" d="M472,-111.3C527.73,-101.01 629.36,-82.24 683.61,-72.22"/>
<polygon fill="#63b8ff" stroke="#63b8ff" points="684.28,-75.66 693.48,-70.4 683.01,-68.77 684.28,-75.66"/>
</a>
</g>
</g>
<!-- Node26&#45;&gt;Node14 -->
<g id="edge34_Node000026_Node000014" class="edge">
<title>Node26&#45;&gt;Node14</title>
<g id="a_edge34_Node000026_Node000014"><a xlink:title=" ">
<path fill="none" stroke="#63b8ff" d="M395.45,-109.96C359.1,-101.64 302.2,-88.46 243.58,-74.1"/>
<polygon fill="#63b8ff" stroke="#63b8ff" points="244.32,-70.68 233.78,-71.69 242.65,-77.48 244.32,-70.68"/>
</a>
</g>
</g>
<!-- Node26&#45;&gt;Node21 -->
<g id="edge35_Node000026_Node000021" class="edge">
<title>Node26&#45;&gt;Node21</title>
<g id="a_edge35_Node000026_Node000021"><a xlink:title=" ">
<path fill="none" stroke="#63b8ff" d="M407.45,-109.98C379.77,-100.76 335.56,-86.02 305.69,-76.06"/>
<polygon fill="#63b8ff" stroke="#63b8ff" points="306.74,-72.72 296.15,-72.88 304.53,-79.37 306.74,-72.72"/>
</a>
</g>
</g>
<!-- Node26&#45;&gt;Node25 -->
<g id="edge41_Node000026_Node000025" class="edge">
<title>Node26&#45;&gt;Node25</title>
<g id="a_edge41_Node000026_Node000025"><a xlink:title=" ">
<path fill="none" stroke="#63b8ff" d="M450.53,-109.93C464.99,-102.16 485.3,-89.55 499,-74 510.72,-60.7 519.36,-42.34 524.69,-28.78"/>
<polygon fill="#63b8ff" stroke="#63b8ff" points="528.07,-29.72 528.25,-19.12 521.5,-27.3 528.07,-29.72"/>
</a>
</g>
</g>
<!-- Node27 -->
<g id="Node000027" class="node">
<title>Node27</title>
<g id="a_Node000027"><a xlink:title=" ">
<polygon fill="#e0e0e0" stroke="#999999" points="358,-74 314,-74 314,-55 358,-55 358,-74"/>
<text text-anchor="middle" x="336" y="-62" font-family="Helvetica,sans-Serif" font-size="10.00">string</text>
</a>
</g>
</g>
<!-- Node26&#45;&gt;Node27 -->
<g id="edge36_Node000026_Node000027" class="edge">
<title>Node26&#45;&gt;Node27</title>
<g id="a_edge36_Node000026_Node000027"><a xlink:title=" ">
<path fill="none" stroke="#63b8ff" d="M417.42,-109.98C402.23,-101.69 378.9,-88.94 361.1,-79.22"/>
<polygon fill="#63b8ff" stroke="#63b8ff" points="362.32,-75.89 351.87,-74.17 358.97,-82.04 362.32,-75.89"/>
</a>
</g>
</g>
<!-- Node28 -->
<g id="Node000028" class="node">
<title>Node28</title>
<g id="a_Node000028"><a xlink:href="microseconds_8h.html" target="_top" xlink:title=" ">
<polygon fill="white" stroke="#666666" points="490,-74 376,-74 376,-55 490,-55 490,-74"/>
<text text-anchor="middle" x="433" y="-62" font-family="Helvetica,sans-Serif" font-size="10.00">pbd/microseconds.h</text>
</a>
</g>
</g>
<!-- Node26&#45;&gt;Node28 -->
<g id="edge38_Node000026_Node000028" class="edge">
<title>Node26&#45;&gt;Node28</title>
<g id="a_edge38_Node000026_Node000028"><a xlink:title=" ">
<path fill="none" stroke="#63b8ff" d="M433,-109.75C433,-102.8 433,-92.85 433,-84.13"/>
<polygon fill="#63b8ff" stroke="#63b8ff" points="436.5,-84.09 433,-74.09 429.5,-84.09 436.5,-84.09"/>
</a>
</g>
</g>
<!-- Node28&#45;&gt;Node25 -->
<g id="edge40_Node000028_Node000025" class="edge">
<title>Node28&#45;&gt;Node25</title>
<g id="a_edge40_Node000028_Node000025"><a xlink:title=" ">
<path fill="none" stroke="#63b8ff" d="M448.75,-54.98C464.23,-46.61 488.09,-33.7 506.14,-23.95"/>
<polygon fill="#63b8ff" stroke="#63b8ff" points="507.84,-27.01 514.97,-19.17 504.51,-20.85 507.84,-27.01"/>
</a>
</g>
</g>
<!-- Node29 -->
<g id="Node000029" class="node">
<title>Node29</title>
<g id="a_Node000029"><a xlink:title=" ">
<polygon fill="#e0e0e0" stroke="#999999" points="451.5,-19 386.5,-19 386.5,0 451.5,0 451.5,-19"/>
<text text-anchor="middle" x="419" y="-7" font-family="Helvetica,sans-Serif" font-size="10.00">inttypes.h</text>
</a>
</g>
</g>
<!-- Node28&#45;&gt;Node29 -->
<g id="edge39_Node000028_Node000029" class="edge">
<title>Node28&#45;&gt;Node29</title>
<g id="a_edge39_Node000028_Node000029"><a xlink:title=" ">
<path fill="none" stroke="#63b8ff" d="M430.69,-54.75C428.83,-47.72 426.16,-37.62 423.85,-28.84"/>
<polygon fill="#63b8ff" stroke="#63b8ff" points="427.21,-27.86 421.27,-19.09 420.44,-29.65 427.21,-27.86"/>
</a>
</g>
</g>
</g>
</svg>

<g id="navigator" transform="translate(0 0)" fill="#404254">
  <rect fill="#f2f5e9" fill-opacity="0.5" stroke="#606060" stroke-width=".5" x="0" y="0" width="60" height="60"/>
  <use id="zoomplus" xlink:href="#zoomPlus" x="17" y="9" onmousedown="handleZoom(evt,'in')"/>
  <use id="zoomminus" xlink:href="#zoomMin" x="42" y="9" onmousedown="handleZoom(evt,'out')"/>
  <use id="reset" xlink:href="#resetDef" x="30" y="36" onmousedown="handleReset()"/>
   <use id="arrowup" xlink:href="#arrowUp" x="0" y="0" onmousedown="handlePan(0,-1)"/>
  <use id="arrowright" xlink:href="#arrowRight" x="0" y="0" onmousedown="handlePan(1,0)"/>
  <use id="arrowdown" xlink:href="#arrowDown" x="0" y="0" onmousedown="handlePan(0,1)"/>
  <use id="arrowleft" xlink:href="#arrowLeft" x="0" y="0" onmousedown="handlePan(-1,0)"/>
</g>
<svg viewBox="0 0 15 15" width="100%" height="30px" preserveAspectRatio="xMaxYMin meet">
 <g id="arrow_out" transform="scale(0.3 0.3)">
  <a xlink:href="note__player_8h__incl_org.svg" target="_base">
   <rect id="button" ry="5" rx="5" y="6" x="6" height="38" width="38"
        fill="#f2f5e9" fill-opacity="0.5" stroke="#606060" stroke-width="1.0"/>
   <path id="arrow"
     d="M 11.500037,31.436501 C 11.940474,20.09759 22.043105,11.32322 32.158766,21.979434 L 37.068811,17.246167 C 37.068811,17.246167 37.088388,32 37.088388,32 L 22.160133,31.978069 C 22.160133,31.978069 26.997745,27.140456 26.997745,27.140456 C 18.528582,18.264221 13.291696,25.230495 11.500037,31.436501 z"
     style="fill:#404040;"/>
  </a>
 </g>
</svg>

<style type='text/css'>
<![CDATA[
[data-mouse-over-selected='false'] { opacity: 0.7; }
[data-mouse-over-selected='true']  { opacity: 1.0; }
]]>
</style>
<script type="application/ecmascript"><![CDATA[
document.addEventListener('DOMContentLoaded', (event) => {
  highlightEdges();
  highlightAdjacentNodes();
});
]]></script>
</svg>
