<?xml version="1.0" encoding="UTF-8" standalone="no"?>
<!DOCTYPE svg PUBLIC "-//W3C//DTD SVG 1.1//EN"
 "http://www.w3.org/Graphics/SVG/1.1/DTD/svg11.dtd">
<!-- Generated by graphviz version 2.43.0 (0)
 -->
<!-- Title: pane.h Pages: 1 -->
<!--zoomable 203 -->

<svg id="main" version="1.1" xmlns="http://www.w3.org/2000/svg" xmlns:xlink="http://www.w3.org/1999/xlink" xml:space="preserve" onload="init(evt)">
<style type="text/css"><![CDATA[
.node, .edge {opacity: 0.7;}
.node.selected, .edge.selected {opacity: 1;}
.edge:hover path { stroke: red; }
.edge:hover polygon { stroke: red; fill: red; }
]]></style>

<defs>
  <circle id="rim" cx="0" cy="0" r="7"/>
  <circle id="rim2" cx="0" cy="0" r="3.5"/>
  <g id="zoomPlus">
    <use xlink:href="#rim" fill="#404040"><set attributeName="fill" to="#808080" begin="zoomplus.mouseover" end="zoomplus.mouseout"/></use>
    <path d="M-4,0h8M0,-4v8" fill="none" stroke="white" stroke-width="1.5" pointer-events="none"/>
  </g>
  <g id="zoomMin">
    <use xlink:href="#rim" fill="#404040"><set attributeName="fill" to="#808080" begin="zoomminus.mouseover" end="zoomminus.mouseout"/></use>
    <path d="M-4,0h8" fill="none" stroke="white" stroke-width="1.5" pointer-events="none"/>
  </g>
  <g id="arrowUp" transform="translate(30 24)">
    <use xlink:href="#rim"/>
    <path pointer-events="none" fill="none" stroke="white" stroke-width="1.5" d="M0,-3.0v7 M-2.5,-0.5L0,-3.0L2.5,-0.5"/>
  </g>
  <g id="arrowRight" transform="rotate(90) translate(36 -43)">
    <use xlink:href="#rim"/>
    <path pointer-events="none" fill="none" stroke="white" stroke-width="1.5" d="M0,-3.0v7 M-2.5,-0.5L0,-3.0L2.5,-0.5"/>
  </g>
  <g id="arrowDown" transform="rotate(180) translate(-30 -48)">
    <use xlink:href="#rim"/>
    <path pointer-events="none" fill="none" stroke="white" stroke-width="1.5" d="M0,-3.0v7 M-2.5,-0.5L0,-3.0L2.5,-0.5"/>
  </g>
  <g id="arrowLeft" transform="rotate(270) translate(-36 17)">
    <use xlink:href="#rim"/>
    <path pointer-events="none" fill="none" stroke="white" stroke-width="1.5" d="M0,-3.0v7 M-2.5,-0.5L0,-3.0L2.5,-0.5"/>
  </g>
  <g id="resetDef">
    <use xlink:href="#rim2" fill="#404040"><set attributeName="fill" to="#808080" begin="reset.mouseover" end="reset.mouseout"/></use>
  </g>
</defs>
<script type="application/ecmascript">
var viewWidth = 874;
var viewHeight = 203;
var sectionId = 'dynsection-1';
</script>
<script type="application/ecmascript" xlink:href="svg.min.js"/>
<svg id="graph" class="graph">
<g id="viewport">
<title>pane.h</title>
<!-- Node1 -->
<g id="Node000001" class="node">
<title>Node1</title>
<g id="a_Node000001"><a xlink:title=" ">
<polygon fill="#999999" stroke="#666666" points="502.5,-195 452.5,-195 452.5,-176 502.5,-176 502.5,-195"/>
<text text-anchor="middle" x="477.5" y="-183" font-family="Helvetica,sans-Serif" font-size="10.00">pane.h</text>
</a>
</g>
</g>
<!-- Node2 -->
<g id="Node000002" class="node">
<title>Node2</title>
<g id="a_Node000002"><a xlink:href="editor_8h.html" target="_top" xlink:title=" ">
<polygon fill="white" stroke="#666666" points="53,-24.5 0,-24.5 0,-5.5 53,-5.5 53,-24.5"/>
<text text-anchor="middle" x="26.5" y="-12.5" font-family="Helvetica,sans-Serif" font-size="10.00">editor.h</text>
</a>
</g>
</g>
<!-- Node1&#45;&gt;Node2 -->
<g id="edge1_Node000001_Node000002" class="edge">
<title>Node1&#45;&gt;Node2</title>
<g id="a_edge1_Node000001_Node000002"><a xlink:title=" ">
<path fill="none" stroke="#63b8ff" d="M442.2,-177.56C379.9,-164.53 247.19,-133.3 143.5,-85 103.74,-66.48 59.99,-38.45 39.04,-24.5"/>
<polygon fill="#63b8ff" stroke="#63b8ff" points="441.79,-181.04 452.29,-179.63 443.2,-174.19 441.79,-181.04"/>
</a>
</g>
</g>
<!-- Node3 -->
<g id="Node000003" class="node">
<title>Node3</title>
<g id="a_Node000003"><a xlink:href="location__ui_8h.html" target="_top" xlink:title=" ">
<polygon fill="white" stroke="#666666" points="604,-140 525,-140 525,-121 604,-121 604,-140"/>
<text text-anchor="middle" x="564.5" y="-128" font-family="Helvetica,sans-Serif" font-size="10.00">location_ui.h</text>
</a>
</g>
</g>
<!-- Node1&#45;&gt;Node3 -->
<g id="edge2_Node000001_Node000003" class="edge">
<title>Node1&#45;&gt;Node3</title>
<g id="a_edge2_Node000001_Node000003"><a xlink:title=" ">
<path fill="none" stroke="#63b8ff" d="M500.16,-170.7C516.01,-161.04 536.69,-148.44 550.27,-140.17"/>
<polygon fill="#63b8ff" stroke="#63b8ff" points="498.2,-167.79 491.48,-175.98 501.84,-173.77 498.2,-167.79"/>
</a>
</g>
</g>
<!-- Node4 -->
<g id="Node000004" class="node">
<title>Node4</title>
<g id="a_Node000004"><a xlink:href="mixer__ui_8h.html" target="_top" xlink:title=" ">
<polygon fill="white" stroke="#666666" points="220.5,-85 152.5,-85 152.5,-66 220.5,-66 220.5,-85"/>
<text text-anchor="middle" x="186.5" y="-73" font-family="Helvetica,sans-Serif" font-size="10.00">mixer_ui.h</text>
</a>
</g>
</g>
<!-- Node1&#45;&gt;Node4 -->
<g id="edge3_Node000001_Node000004" class="edge">
<title>Node1&#45;&gt;Node4</title>
<g id="a_edge3_Node000001_Node000004"><a xlink:title=" ">
<path fill="none" stroke="#63b8ff" d="M443.49,-172.49C418.54,-163.63 383.86,-151.22 353.5,-140 301.42,-120.76 240.52,-97.38 208.6,-85.06"/>
<polygon fill="#63b8ff" stroke="#63b8ff" points="442.62,-175.89 453.22,-175.94 444.96,-169.3 442.62,-175.89"/>
</a>
</g>
</g>
<!-- Node5 -->
<g id="Node000005" class="node">
<title>Node5</title>
<g id="a_Node000005"><a xlink:href="plugin__manager__ui_8h.html" target="_top" xlink:title=" ">
<polygon fill="white" stroke="#666666" points="741,-140 622,-140 622,-121 741,-121 741,-140"/>
<text text-anchor="middle" x="681.5" y="-128" font-family="Helvetica,sans-Serif" font-size="10.00">plugin_manager_ui.h</text>
</a>
</g>
</g>
<!-- Node1&#45;&gt;Node5 -->
<g id="edge4_Node000001_Node000005" class="edge">
<title>Node1&#45;&gt;Node5</title>
<g id="a_edge4_Node000001_Node000005"><a xlink:title=" ">
<path fill="none" stroke="#63b8ff" d="M512.64,-175.37C550.79,-165.46 611.23,-149.76 648.51,-140.07"/>
<polygon fill="#63b8ff" stroke="#63b8ff" points="511.31,-172.1 502.51,-178 513.07,-178.87 511.31,-172.1"/>
</a>
</g>
</g>
<!-- Node6 -->
<g id="Node000006" class="node">
<title>Node6</title>
<g id="a_Node000006"><a xlink:href="recorder__ui_8h.html" target="_top" xlink:title=" ">
<polygon fill="white" stroke="#666666" points="546.5,-85 466.5,-85 466.5,-66 546.5,-66 546.5,-85"/>
<text text-anchor="middle" x="506.5" y="-73" font-family="Helvetica,sans-Serif" font-size="10.00">recorder_ui.h</text>
</a>
</g>
</g>
<!-- Node1&#45;&gt;Node6 -->
<g id="edge5_Node000001_Node000006" class="edge">
<title>Node1&#45;&gt;Node6</title>
<g id="a_edge5_Node000001_Node000006"><a xlink:title=" ">
<path fill="none" stroke="#63b8ff" d="M476.96,-165.31C477.1,-152.52 478.24,-135.46 482.5,-121 486.42,-107.7 494.64,-93.86 500.37,-85.22"/>
<polygon fill="#63b8ff" stroke="#63b8ff" points="473.47,-165.7 477.06,-175.67 480.47,-165.63 473.47,-165.7"/>
</a>
</g>
</g>
<!-- Node7 -->
<g id="Node000007" class="node">
<title>Node7</title>
<g id="a_Node000007"><a xlink:href="route__params__ui_8h.html" target="_top" xlink:title=" ">
<polygon fill="white" stroke="#666666" points="866,-140 759,-140 759,-121 866,-121 866,-140"/>
<text text-anchor="middle" x="812.5" y="-128" font-family="Helvetica,sans-Serif" font-size="10.00">route_params_ui.h</text>
</a>
</g>
</g>
<!-- Node1&#45;&gt;Node7 -->
<g id="edge6_Node000001_Node000007" class="edge">
<title>Node1&#45;&gt;Node7</title>
<g id="a_edge6_Node000001_Node000007"><a xlink:title=" ">
<path fill="none" stroke="#63b8ff" d="M512.58,-178.95C571.24,-169.67 689.63,-150.94 758.83,-139.99"/>
<polygon fill="#63b8ff" stroke="#63b8ff" points="512.01,-175.5 502.68,-180.52 513.1,-182.41 512.01,-175.5"/>
</a>
</g>
</g>
<!-- Node8 -->
<g id="Node000008" class="node">
<title>Node8</title>
<g id="a_Node000008"><a xlink:href="tabbable_8h.html" target="_top" xlink:title=" ">
<polygon fill="white" stroke="#666666" points="430.5,-140 362.5,-140 362.5,-121 430.5,-121 430.5,-140"/>
<text text-anchor="middle" x="396.5" y="-128" font-family="Helvetica,sans-Serif" font-size="10.00">tabbable.h</text>
</a>
</g>
</g>
<!-- Node1&#45;&gt;Node8 -->
<g id="edge7_Node000001_Node000008" class="edge">
<title>Node1&#45;&gt;Node8</title>
<g id="a_edge7_Node000001_Node000008"><a xlink:title=" ">
<path fill="none" stroke="#63b8ff" d="M455.99,-170.42C441.29,-160.81 422.28,-148.37 409.75,-140.17"/>
<polygon fill="#63b8ff" stroke="#63b8ff" points="454.2,-173.44 464.49,-175.98 458.03,-167.58 454.2,-173.44"/>
</a>
</g>
</g>
<!-- Node16 -->
<g id="Node000016" class="node">
<title>Node16</title>
<g id="a_Node000016"><a xlink:href="trigger__page_8h.html" target="_top" xlink:title=" ">
<polygon fill="white" stroke="#666666" points="652,-85 565,-85 565,-66 652,-66 652,-85"/>
<text text-anchor="middle" x="608.5" y="-73" font-family="Helvetica,sans-Serif" font-size="10.00">trigger_page.h</text>
</a>
</g>
</g>
<!-- Node1&#45;&gt;Node16 -->
<g id="edge19_Node000001_Node000016" class="edge">
<title>Node1&#45;&gt;Node16</title>
<g id="a_edge19_Node000001_Node000016"><a xlink:title=" ">
<path fill="none" stroke="#63b8ff" d="M485.29,-166.14C491.92,-152.29 502.58,-133.59 516.5,-121 535.19,-104.1 561.45,-92.26 581.13,-85.06"/>
<polygon fill="#63b8ff" stroke="#63b8ff" points="481.94,-165.05 481.01,-175.61 488.32,-167.93 481.94,-165.05"/>
</a>
</g>
</g>
<!-- Node8&#45;&gt;Node4 -->
<g id="edge8_Node000008_Node000004" class="edge">
<title>Node8&#45;&gt;Node4</title>
<g id="a_edge8_Node000008_Node000004"><a xlink:title=" ">
<path fill="none" stroke="#63b8ff" d="M352.92,-118.5C313.6,-108.58 256.55,-94.18 220.5,-85.08"/>
<polygon fill="#63b8ff" stroke="#63b8ff" points="352.21,-121.93 362.76,-120.98 353.92,-115.14 352.21,-121.93"/>
</a>
</g>
</g>
<!-- Node8&#45;&gt;Node6 -->
<g id="edge17_Node000008_Node000006" class="edge">
<title>Node8&#45;&gt;Node6</title>
<g id="a_edge17_Node000008_Node000006"><a xlink:title=" ">
<path fill="none" stroke="#63b8ff" d="M423.2,-116.63C443.47,-106.87 470.77,-93.71 488.51,-85.17"/>
<polygon fill="#63b8ff" stroke="#63b8ff" points="421.66,-113.49 414.17,-120.98 424.7,-119.8 421.66,-113.49"/>
</a>
</g>
</g>
<!-- Node9 -->
<g id="Node000009" class="node">
<title>Node9</title>
<g id="a_Node000009"><a xlink:href="public__editor_8h.html" target="_top" xlink:title=" ">
<polygon fill="white" stroke="#666666" points="326.5,-85 238.5,-85 238.5,-66 326.5,-66 326.5,-85"/>
<text text-anchor="middle" x="282.5" y="-73" font-family="Helvetica,sans-Serif" font-size="10.00">public_editor.h</text>
</a>
</g>
</g>
<!-- Node8&#45;&gt;Node9 -->
<g id="edge9_Node000008_Node000009" class="edge">
<title>Node8&#45;&gt;Node9</title>
<g id="a_edge9_Node000008_Node000009"><a xlink:title=" ">
<path fill="none" stroke="#63b8ff" d="M369.11,-116.77C348.08,-106.99 319.61,-93.75 301.15,-85.17"/>
<polygon fill="#63b8ff" stroke="#63b8ff" points="367.64,-119.94 378.18,-120.98 370.59,-113.6 367.64,-119.94"/>
</a>
</g>
</g>
<!-- Node15 -->
<g id="Node000015" class="node">
<title>Node15</title>
<g id="a_Node000015"><a xlink:href="rc__option__editor_8h.html" target="_top" xlink:title="Editing of options which are obtained from and written back to one of the .rc files.">
<polygon fill="white" stroke="#666666" points="448.5,-85 344.5,-85 344.5,-66 448.5,-66 448.5,-85"/>
<text text-anchor="middle" x="396.5" y="-73" font-family="Helvetica,sans-Serif" font-size="10.00">rc_option_editor.h</text>
</a>
</g>
</g>
<!-- Node8&#45;&gt;Node15 -->
<g id="edge16_Node000008_Node000015" class="edge">
<title>Node8&#45;&gt;Node15</title>
<g id="a_edge16_Node000008_Node000015"><a xlink:title=" ">
<path fill="none" stroke="#63b8ff" d="M396.5,-110.66C396.5,-101.93 396.5,-91.99 396.5,-85.09"/>
<polygon fill="#63b8ff" stroke="#63b8ff" points="393,-110.75 396.5,-120.75 400,-110.75 393,-110.75"/>
</a>
</g>
</g>
<!-- Node8&#45;&gt;Node16 -->
<g id="edge18_Node000008_Node000016" class="edge">
<title>Node8&#45;&gt;Node16</title>
<g id="a_edge18_Node000008_Node000016"><a xlink:title=" ">
<path fill="none" stroke="#63b8ff" d="M440.5,-118.5C480.19,-108.58 537.78,-94.18 574.17,-85.08"/>
<polygon fill="#63b8ff" stroke="#63b8ff" points="439.41,-115.16 430.56,-120.98 441.11,-121.95 439.41,-115.16"/>
</a>
</g>
</g>
<!-- Node9&#45;&gt;Node2 -->
<g id="edge10_Node000009_Node000002" class="edge">
<title>Node9&#45;&gt;Node2</title>
<g id="a_edge10_Node000009_Node000002"><a xlink:title=" ">
<path fill="none" stroke="#63b8ff" d="M228.16,-64.73C173.17,-54.63 92.04,-39.1 61.5,-30 56.48,-28.5 51.18,-26.58 46.27,-24.63"/>
<polygon fill="#63b8ff" stroke="#63b8ff" points="227.64,-68.19 238.1,-66.55 228.9,-61.31 227.64,-68.19"/>
</a>
</g>
</g>
<!-- Node10 -->
<g id="Node000010" class="node">
<title>Node10</title>
<g id="a_Node000010"><a xlink:href="export__dialog_8h.html" target="_top" xlink:title=" ">
<polygon fill="white" stroke="#666666" points="455.5,-24.5 363.5,-24.5 363.5,-5.5 455.5,-5.5 455.5,-24.5"/>
<text text-anchor="middle" x="409.5" y="-12.5" font-family="Helvetica,sans-Serif" font-size="10.00">export_dialog.h</text>
</a>
</g>
</g>
<!-- Node9&#45;&gt;Node10 -->
<g id="edge11_Node000009_Node000010" class="edge">
<title>Node9&#45;&gt;Node10</title>
<g id="a_edge11_Node000009_Node000010"><a xlink:title=" ">
<path fill="none" stroke="#63b8ff" d="M310.11,-61.78C334.62,-50.49 369.74,-34.31 391.01,-24.52"/>
<polygon fill="#63b8ff" stroke="#63b8ff" points="308.59,-58.63 300.97,-65.99 311.51,-64.99 308.59,-58.63"/>
</a>
</g>
</g>
<!-- Node11 -->
<g id="Node000011" class="node">
<title>Node11</title>
<g id="a_Node000011"><a xlink:href="insert__remove__time__dialog_8h.html" target="_top" xlink:title=" ">
<polygon fill="white" stroke="#666666" points="589,-30 474,-30 474,0 589,0 589,-30"/>
<text text-anchor="start" x="482" y="-18" font-family="Helvetica,sans-Serif" font-size="10.00">insert_remove_time</text>
<text text-anchor="middle" x="531.5" y="-7" font-family="Helvetica,sans-Serif" font-size="10.00">_dialog.h</text>
</a>
</g>
</g>
<!-- Node9&#45;&gt;Node11 -->
<g id="edge12_Node000009_Node000011" class="edge">
<title>Node9&#45;&gt;Node11</title>
<g id="a_edge12_Node000009_Node000011"><a xlink:title=" ">
<path fill="none" stroke="#63b8ff" d="M328.67,-63.65C369.57,-54.04 429.45,-39.98 473.55,-29.61"/>
<polygon fill="#63b8ff" stroke="#63b8ff" points="327.64,-60.3 318.71,-65.99 329.24,-67.11 327.64,-60.3"/>
</a>
</g>
</g>
<!-- Node12 -->
<g id="Node000012" class="node">
<title>Node12</title>
<g id="a_Node000012"><a xlink:href="midi__export__dialog_8h.html" target="_top" xlink:title=" ">
<polygon fill="white" stroke="#666666" points="726,-24.5 607,-24.5 607,-5.5 726,-5.5 726,-24.5"/>
<text text-anchor="middle" x="666.5" y="-12.5" font-family="Helvetica,sans-Serif" font-size="10.00">midi_export_dialog.h</text>
</a>
</g>
</g>
<!-- Node9&#45;&gt;Node12 -->
<g id="edge13_Node000009_Node000012" class="edge">
<title>Node9&#45;&gt;Node12</title>
<g id="a_edge13_Node000009_Node000012"><a xlink:title=" ">
<path fill="none" stroke="#63b8ff" d="M336.82,-65.84C453.9,-48.71 485.39,-49.36 598.5,-30 607.89,-28.39 617.95,-26.45 627.39,-24.52"/>
<polygon fill="#63b8ff" stroke="#63b8ff" points="336.12,-62.41 326.73,-67.33 337.14,-69.33 336.12,-62.41"/>
</a>
</g>
</g>
<!-- Node13 -->
<g id="Node000013" class="node">
<title>Node13</title>
<g id="a_Node000013"><a xlink:href="simple__export__dialog_8h.html" target="_top" xlink:title=" ">
<polygon fill="white" stroke="#666666" points="202,-24.5 71,-24.5 71,-5.5 202,-5.5 202,-24.5"/>
<text text-anchor="middle" x="136.5" y="-12.5" font-family="Helvetica,sans-Serif" font-size="10.00">simple_export_dialog.h</text>
</a>
</g>
</g>
<!-- Node9&#45;&gt;Node13 -->
<g id="edge14_Node000009_Node000013" class="edge">
<title>Node9&#45;&gt;Node13</title>
<g id="a_edge14_Node000009_Node000013"><a xlink:title=" ">
<path fill="none" stroke="#63b8ff" d="M251.88,-62.23C223.66,-50.92 182.53,-34.44 157.76,-24.52"/>
<polygon fill="#63b8ff" stroke="#63b8ff" points="250.69,-65.52 261.27,-65.99 253.29,-59.03 250.69,-65.52"/>
</a>
</g>
</g>
<!-- Node14 -->
<g id="Node000014" class="node">
<title>Node14</title>
<g id="a_Node000014"><a xlink:href="tempo__map__change_8h.html" target="_top" xlink:title=" ">
<polygon fill="white" stroke="#666666" points="345,-24.5 220,-24.5 220,-5.5 345,-5.5 345,-24.5"/>
<text text-anchor="middle" x="282.5" y="-12.5" font-family="Helvetica,sans-Serif" font-size="10.00">tempo_map_change.h</text>
</a>
</g>
</g>
<!-- Node9&#45;&gt;Node14 -->
<g id="edge15_Node000009_Node000014" class="edge">
<title>Node9&#45;&gt;Node14</title>
<g id="a_edge15_Node000009_Node000014"><a xlink:title=" ">
<path fill="none" stroke="#63b8ff" d="M282.5,-55.66C282.5,-45.24 282.5,-32.8 282.5,-24.67"/>
<polygon fill="#63b8ff" stroke="#63b8ff" points="279,-55.87 282.5,-65.87 286,-55.87 279,-55.87"/>
</a>
</g>
</g>
</g>
</svg>

<g id="navigator" transform="translate(0 0)" fill="#404254">
  <rect fill="#f2f5e9" fill-opacity="0.5" stroke="#606060" stroke-width=".5" x="0" y="0" width="60" height="60"/>
  <use id="zoomplus" xlink:href="#zoomPlus" x="17" y="9" onmousedown="handleZoom(evt,'in')"/>
  <use id="zoomminus" xlink:href="#zoomMin" x="42" y="9" onmousedown="handleZoom(evt,'out')"/>
  <use id="reset" xlink:href="#resetDef" x="30" y="36" onmousedown="handleReset()"/>
   <use id="arrowup" xlink:href="#arrowUp" x="0" y="0" onmousedown="handlePan(0,-1)"/>
  <use id="arrowright" xlink:href="#arrowRight" x="0" y="0" onmousedown="handlePan(1,0)"/>
  <use id="arrowdown" xlink:href="#arrowDown" x="0" y="0" onmousedown="handlePan(0,1)"/>
  <use id="arrowleft" xlink:href="#arrowLeft" x="0" y="0" onmousedown="handlePan(-1,0)"/>
</g>
<svg viewBox="0 0 15 15" width="100%" height="30px" preserveAspectRatio="xMaxYMin meet">
 <g id="arrow_out" transform="scale(0.3 0.3)">
  <a xlink:href="pane_8h__dep__incl_org.svg" target="_base">
   <rect id="button" ry="5" rx="5" y="6" x="6" height="38" width="38"
        fill="#f2f5e9" fill-opacity="0.5" stroke="#606060" stroke-width="1.0"/>
   <path id="arrow"
     d="M 11.500037,31.436501 C 11.940474,20.09759 22.043105,11.32322 32.158766,21.979434 L 37.068811,17.246167 C 37.068811,17.246167 37.088388,32 37.088388,32 L 22.160133,31.978069 C 22.160133,31.978069 26.997745,27.140456 26.997745,27.140456 C 18.528582,18.264221 13.291696,25.230495 11.500037,31.436501 z"
     style="fill:#404040;"/>
  </a>
 </g>
</svg>

<style type='text/css'>
<![CDATA[
[data-mouse-over-selected='false'] { opacity: 0.7; }
[data-mouse-over-selected='true']  { opacity: 1.0; }
]]>
</style>
<script type="application/ecmascript"><![CDATA[
document.addEventListener('DOMContentLoaded', (event) => {
  highlightEdges();
  highlightAdjacentNodes();
});
]]></script>
</svg>
