<?xml version="1.0" encoding="UTF-8" standalone="no"?>
<!DOCTYPE svg PUBLIC "-//W3C//DTD SVG 1.1//EN"
 "http://www.w3.org/Graphics/SVG/1.1/DTD/svg11.dtd">
<!-- Generated by graphviz version 2.43.0 (0)
 -->
<!-- Title: parser.h Pages: 1 -->
<!--zoomable 214 -->

<svg id="main" version="1.1" xmlns="http://www.w3.org/2000/svg" xmlns:xlink="http://www.w3.org/1999/xlink" xml:space="preserve" onload="init(evt)">
<style type="text/css"><![CDATA[
.node, .edge {opacity: 0.7;}
.node.selected, .edge.selected {opacity: 1;}
.edge:hover path { stroke: red; }
.edge:hover polygon { stroke: red; fill: red; }
]]></style>

<defs>
  <circle id="rim" cx="0" cy="0" r="7"/>
  <circle id="rim2" cx="0" cy="0" r="3.5"/>
  <g id="zoomPlus">
    <use xlink:href="#rim" fill="#404040"><set attributeName="fill" to="#808080" begin="zoomplus.mouseover" end="zoomplus.mouseout"/></use>
    <path d="M-4,0h8M0,-4v8" fill="none" stroke="white" stroke-width="1.5" pointer-events="none"/>
  </g>
  <g id="zoomMin">
    <use xlink:href="#rim" fill="#404040"><set attributeName="fill" to="#808080" begin="zoomminus.mouseover" end="zoomminus.mouseout"/></use>
    <path d="M-4,0h8" fill="none" stroke="white" stroke-width="1.5" pointer-events="none"/>
  </g>
  <g id="arrowUp" transform="translate(30 24)">
    <use xlink:href="#rim"/>
    <path pointer-events="none" fill="none" stroke="white" stroke-width="1.5" d="M0,-3.0v7 M-2.5,-0.5L0,-3.0L2.5,-0.5"/>
  </g>
  <g id="arrowRight" transform="rotate(90) translate(36 -43)">
    <use xlink:href="#rim"/>
    <path pointer-events="none" fill="none" stroke="white" stroke-width="1.5" d="M0,-3.0v7 M-2.5,-0.5L0,-3.0L2.5,-0.5"/>
  </g>
  <g id="arrowDown" transform="rotate(180) translate(-30 -48)">
    <use xlink:href="#rim"/>
    <path pointer-events="none" fill="none" stroke="white" stroke-width="1.5" d="M0,-3.0v7 M-2.5,-0.5L0,-3.0L2.5,-0.5"/>
  </g>
  <g id="arrowLeft" transform="rotate(270) translate(-36 17)">
    <use xlink:href="#rim"/>
    <path pointer-events="none" fill="none" stroke="white" stroke-width="1.5" d="M0,-3.0v7 M-2.5,-0.5L0,-3.0L2.5,-0.5"/>
  </g>
  <g id="resetDef">
    <use xlink:href="#rim2" fill="#404040"><set attributeName="fill" to="#808080" begin="reset.mouseover" end="reset.mouseout"/></use>
  </g>
</defs>
<script type="application/ecmascript">
var viewWidth = 1377;
var viewHeight = 214;
var sectionId = 'dynsection-0';
</script>
<script type="application/ecmascript" xlink:href="svg.min.js"/>
<svg id="graph" class="graph">
<g id="viewport">
<title>parser.h</title>
<!-- Node1 -->
<g id="Node000001" class="node">
<title>Node1</title>
<g id="a_Node000001"><a xlink:title=" ">
<polygon fill="#999999" stroke="#666666" points="1139,-206 1083,-206 1083,-187 1139,-187 1139,-206"/>
<text text-anchor="middle" x="1111" y="-194" font-family="Helvetica,sans-Serif" font-size="10.00">parser.h</text>
</a>
</g>
</g>
<!-- Node2 -->
<g id="Node000002" class="node">
<title>Node2</title>
<g id="a_Node000002"><a xlink:title=" ">
<polygon fill="#e0e0e0" stroke="#999999" points="44,-24.5 0,-24.5 0,-5.5 44,-5.5 44,-24.5"/>
<text text-anchor="middle" x="22" y="-12.5" font-family="Helvetica,sans-Serif" font-size="10.00">string</text>
</a>
</g>
</g>
<!-- Node1&#45;&gt;Node2 -->
<g id="edge1_Node000001_Node000002" class="edge">
<title>Node1&#45;&gt;Node2</title>
<g id="a_edge1_Node000001_Node000002"><a xlink:title=" ">
<path fill="none" stroke="#63b8ff" d="M1082.76,-195.75C936.21,-196.6 262.37,-194.97 84,-96 58.6,-81.91 40.15,-52.66 30.27,-33.71"/>
<polygon fill="#63b8ff" stroke="#63b8ff" points="33.35,-32.04 25.78,-24.63 27.08,-35.15 33.35,-32.04"/>
</a>
</g>
</g>
<!-- Node3 -->
<g id="Node000003" class="node">
<title>Node3</title>
<g id="a_Node000003"><a xlink:title=" ">
<polygon fill="#e0e0e0" stroke="#999999" points="936,-24.5 876,-24.5 876,-5.5 936,-5.5 936,-24.5"/>
<text text-anchor="middle" x="906" y="-12.5" font-family="Helvetica,sans-Serif" font-size="10.00">iostream</text>
</a>
</g>
</g>
<!-- Node1&#45;&gt;Node3 -->
<g id="edge2_Node000001_Node000003" class="edge">
<title>Node1&#45;&gt;Node3</title>
<g id="a_edge2_Node000001_Node000003"><a xlink:title=" ">
<path fill="none" stroke="#63b8ff" d="M1112.66,-186.91C1116.54,-163.99 1123.65,-100.79 1092,-66 1046.74,-16.24 1009.41,-49.39 945,-30 942.73,-29.32 940.4,-28.58 938.07,-27.81"/>
<polygon fill="#63b8ff" stroke="#63b8ff" points="939.15,-24.48 928.55,-24.55 936.88,-31.1 939.15,-24.48"/>
</a>
</g>
</g>
<!-- Node4 -->
<g id="Node000004" class="node">
<title>Node4</title>
<g id="a_Node000004"><a xlink:href="signals_8h.html" target="_top" xlink:title=" ">
<polygon fill="white" stroke="#666666" points="713.5,-151 632.5,-151 632.5,-132 713.5,-132 713.5,-151"/>
<text text-anchor="middle" x="673" y="-139" font-family="Helvetica,sans-Serif" font-size="10.00">pbd/signals.h</text>
</a>
</g>
</g>
<!-- Node1&#45;&gt;Node4 -->
<g id="edge3_Node000001_Node000004" class="edge">
<title>Node1&#45;&gt;Node4</title>
<g id="a_edge3_Node000001_Node000004"><a xlink:title=" ">
<path fill="none" stroke="#63b8ff" d="M1082.93,-192.1C1010.5,-183.34 816.48,-159.86 723.73,-148.64"/>
<polygon fill="#63b8ff" stroke="#63b8ff" points="724.09,-145.16 713.74,-147.43 723.25,-152.11 724.09,-145.16"/>
</a>
</g>
</g>
<!-- Node24 -->
<g id="Node000024" class="node">
<title>Node24</title>
<g id="a_Node000024"><a xlink:href="libmidi__visibility_8h.html" target="_top" xlink:title=" ">
<polygon fill="white" stroke="#666666" points="1285,-90.5 1139,-90.5 1139,-71.5 1285,-71.5 1285,-90.5"/>
<text text-anchor="middle" x="1212" y="-78.5" font-family="Helvetica,sans-Serif" font-size="10.00">midi++/libmidi_visibility.h</text>
</a>
</g>
</g>
<!-- Node1&#45;&gt;Node24 -->
<g id="edge34_Node000001_Node000024" class="edge">
<title>Node1&#45;&gt;Node24</title>
<g id="a_edge34_Node000001_Node000024"><a xlink:title=" ">
<path fill="none" stroke="#63b8ff" d="M1118.59,-186.97C1135.33,-168.15 1175.67,-122.82 1197.46,-98.34"/>
<polygon fill="#63b8ff" stroke="#63b8ff" points="1200.29,-100.43 1204.32,-90.63 1195.06,-95.77 1200.29,-100.43"/>
</a>
</g>
</g>
<!-- Node25 -->
<g id="Node000025" class="node">
<title>Node25</title>
<g id="a_Node000025"><a xlink:href="midi_09_092_2midi_09_09_2types_8h.html" target="_top" xlink:title=" ">
<polygon fill="white" stroke="#666666" points="1271,-151 1177,-151 1177,-132 1271,-132 1271,-151"/>
<text text-anchor="middle" x="1224" y="-139" font-family="Helvetica,sans-Serif" font-size="10.00">midi++/types.h</text>
</a>
</g>
</g>
<!-- Node1&#45;&gt;Node25 -->
<g id="edge35_Node000001_Node000025" class="edge">
<title>Node1&#45;&gt;Node25</title>
<g id="a_edge35_Node000001_Node000025"><a xlink:title=" ">
<path fill="none" stroke="#63b8ff" d="M1129.16,-186.98C1147.25,-178.5 1175.28,-165.35 1196.19,-155.54"/>
<polygon fill="#63b8ff" stroke="#63b8ff" points="1197.95,-158.59 1205.51,-151.17 1194.97,-152.25 1197.95,-158.59"/>
</a>
</g>
</g>
<!-- Node4&#45;&gt;Node3 -->
<g id="edge33_Node000004_Node000003" class="edge">
<title>Node4&#45;&gt;Node3</title>
<g id="a_edge33_Node000004_Node000003"><a xlink:title=" ">
<path fill="none" stroke="#63b8ff" d="M699.99,-131.85C723.56,-123.85 758.39,-110.97 787,-96 824.19,-76.54 864.02,-48.01 886.87,-30.8"/>
<polygon fill="#63b8ff" stroke="#63b8ff" points="889.19,-33.43 895.03,-24.59 884.95,-27.86 889.19,-33.43"/>
</a>
</g>
</g>
<!-- Node5 -->
<g id="Node000005" class="node">
<title>Node5</title>
<g id="a_Node000005"><a xlink:title=" ">
<polygon fill="#e0e0e0" stroke="#999999" points="906.5,-90.5 855.5,-90.5 855.5,-71.5 906.5,-71.5 906.5,-90.5"/>
<text text-anchor="middle" x="881" y="-78.5" font-family="Helvetica,sans-Serif" font-size="10.00">csignal</text>
</a>
</g>
</g>
<!-- Node4&#45;&gt;Node5 -->
<g id="edge4_Node000004_Node000005" class="edge">
<title>Node4&#45;&gt;Node5</title>
<g id="a_edge4_Node000004_Node000005"><a xlink:title=" ">
<path fill="none" stroke="#63b8ff" d="M708.3,-132C742.45,-123.57 795.57,-109.94 841,-96 843.26,-95.31 845.57,-94.57 847.9,-93.81"/>
<polygon fill="#63b8ff" stroke="#63b8ff" points="849.06,-97.11 857.41,-90.6 846.82,-90.48 849.06,-97.11"/>
</a>
</g>
</g>
<!-- Node6 -->
<g id="Node000006" class="node">
<title>Node6</title>
<g id="a_Node000006"><a xlink:title=" ">
<polygon fill="#e0e0e0" stroke="#999999" points="858,-24.5 826,-24.5 826,-5.5 858,-5.5 858,-24.5"/>
<text text-anchor="middle" x="842" y="-12.5" font-family="Helvetica,sans-Serif" font-size="10.00">list</text>
</a>
</g>
</g>
<!-- Node4&#45;&gt;Node6 -->
<g id="edge5_Node000004_Node000006" class="edge">
<title>Node4&#45;&gt;Node6</title>
<g id="a_edge5_Node000004_Node000006"><a xlink:title=" ">
<path fill="none" stroke="#63b8ff" d="M713.69,-139.09C775.83,-135.98 889.85,-126.2 915,-96 923.53,-85.75 921.22,-77.79 915,-66 912.16,-60.61 884.84,-42.72 864.45,-29.88"/>
<polygon fill="#63b8ff" stroke="#63b8ff" points="866.29,-26.9 855.96,-24.57 862.58,-32.84 866.29,-26.9"/>
</a>
</g>
</g>
<!-- Node7 -->
<g id="Node000007" class="node">
<title>Node7</title>
<g id="a_Node000007"><a xlink:title=" ">
<polygon fill="#e0e0e0" stroke="#999999" points="386,-24.5 348,-24.5 348,-5.5 386,-5.5 386,-24.5"/>
<text text-anchor="middle" x="367" y="-12.5" font-family="Helvetica,sans-Serif" font-size="10.00">map</text>
</a>
</g>
</g>
<!-- Node4&#45;&gt;Node7 -->
<g id="edge6_Node000004_Node000007" class="edge">
<title>Node4&#45;&gt;Node7</title>
<g id="a_edge6_Node000004_Node000007"><a xlink:title=" ">
<path fill="none" stroke="#63b8ff" d="M669.12,-131.87C661.48,-115.94 642.83,-82.07 616,-66 530.62,-14.87 489.7,-60.6 395,-30 393.78,-29.61 392.54,-29.16 391.31,-28.69"/>
<polygon fill="#63b8ff" stroke="#63b8ff" points="392.61,-25.44 382.05,-24.57 389.76,-31.83 392.61,-25.44"/>
</a>
</g>
</g>
<!-- Node8 -->
<g id="Node000008" class="node">
<title>Node8</title>
<g id="a_Node000008"><a xlink:title=" ">
<polygon fill="#e0e0e0" stroke="#999999" points="112,-24.5 62,-24.5 62,-5.5 112,-5.5 112,-24.5"/>
<text text-anchor="middle" x="87" y="-12.5" font-family="Helvetica,sans-Serif" font-size="10.00">atomic</text>
</a>
</g>
</g>
<!-- Node4&#45;&gt;Node8 -->
<g id="edge7_Node000004_Node000008" class="edge">
<title>Node4&#45;&gt;Node8</title>
<g id="a_edge7_Node000004_Node000008"><a xlink:title=" ">
<path fill="none" stroke="#63b8ff" d="M632.29,-140.08C508.65,-138.44 143.54,-130.66 104,-96 86.85,-80.96 84.53,-53.29 85.18,-34.77"/>
<polygon fill="#63b8ff" stroke="#63b8ff" points="88.68,-34.82 85.86,-24.61 81.7,-34.35 88.68,-34.82"/>
</a>
</g>
</g>
<!-- Node9 -->
<g id="Node000009" class="node">
<title>Node9</title>
<g id="a_Node000009"><a xlink:title=" ">
<polygon fill="#e0e0e0" stroke="#999999" points="507.5,-24.5 404.5,-24.5 404.5,-5.5 507.5,-5.5 507.5,-24.5"/>
<text text-anchor="middle" x="456" y="-12.5" font-family="Helvetica,sans-Serif" font-size="10.00">glibmm/threads.h</text>
</a>
</g>
</g>
<!-- Node4&#45;&gt;Node9 -->
<g id="edge8_Node000004_Node000009" class="edge">
<title>Node4&#45;&gt;Node9</title>
<g id="a_edge8_Node000004_Node000009"><a xlink:title=" ">
<path fill="none" stroke="#63b8ff" d="M632.41,-139.12C533.53,-135.35 286.48,-123.27 262,-96 253.09,-86.08 253.83,-76.54 262,-66 264.33,-62.99 354.12,-40.73 410.72,-26.95"/>
<polygon fill="#63b8ff" stroke="#63b8ff" points="411.64,-30.33 420.53,-24.56 409.98,-23.52 411.64,-30.33"/>
</a>
</g>
</g>
<!-- Node10 -->
<g id="Node000010" class="node">
<title>Node10</title>
<g id="a_Node000010"><a xlink:title=" ">
<polygon fill="#e0e0e0" stroke="#999999" points="397,-90.5 271,-90.5 271,-71.5 397,-71.5 397,-90.5"/>
<text text-anchor="middle" x="334" y="-78.5" font-family="Helvetica,sans-Serif" font-size="10.00">boost/bind/protect.hpp</text>
</a>
</g>
</g>
<!-- Node4&#45;&gt;Node10 -->
<g id="edge9_Node000004_Node000010" class="edge">
<title>Node4&#45;&gt;Node10</title>
<g id="a_edge9_Node000004_Node000010"><a xlink:title=" ">
<path fill="none" stroke="#63b8ff" d="M632.23,-134.05C579.81,-125.69 486.01,-110.44 406,-96 399.83,-94.89 393.37,-93.68 386.97,-92.47"/>
<polygon fill="#63b8ff" stroke="#63b8ff" points="387.47,-89 376.99,-90.55 386.15,-95.87 387.47,-89"/>
</a>
</g>
</g>
<!-- Node11 -->
<g id="Node000011" class="node">
<title>Node11</title>
<g id="a_Node000011"><a xlink:title=" ">
<polygon fill="#e0e0e0" stroke="#999999" points="533,-96 415,-96 415,-66 533,-66 533,-96"/>
<text text-anchor="start" x="423" y="-84" font-family="Helvetica,sans-Serif" font-size="10.00">boost/enable_shared</text>
<text text-anchor="middle" x="474" y="-73" font-family="Helvetica,sans-Serif" font-size="10.00">_from_this.hpp</text>
</a>
</g>
</g>
<!-- Node4&#45;&gt;Node11 -->
<g id="edge10_Node000004_Node000011" class="edge">
<title>Node4&#45;&gt;Node11</title>
<g id="a_edge10_Node000004_Node000011"><a xlink:title=" ">
<path fill="none" stroke="#63b8ff" d="M644.06,-131.99C614.67,-123.35 568.36,-109.74 531.48,-98.9"/>
<polygon fill="#63b8ff" stroke="#63b8ff" points="532.42,-95.53 521.84,-96.06 530.45,-102.24 532.42,-95.53"/>
</a>
</g>
</g>
<!-- Node12 -->
<g id="Node000012" class="node">
<title>Node12</title>
<g id="a_Node000012"><a xlink:title=" ">
<polygon fill="#e0e0e0" stroke="#999999" points="607,-90.5 551,-90.5 551,-71.5 607,-71.5 607,-90.5"/>
<text text-anchor="middle" x="579" y="-78.5" font-family="Helvetica,sans-Serif" font-size="10.00">optional</text>
</a>
</g>
</g>
<!-- Node4&#45;&gt;Node12 -->
<g id="edge11_Node000004_Node000012" class="edge">
<title>Node4&#45;&gt;Node12</title>
<g id="a_edge11_Node000004_Node000012"><a xlink:title=" ">
<path fill="none" stroke="#63b8ff" d="M659.13,-131.87C644,-122.45 619.54,-107.23 601.62,-96.08"/>
<polygon fill="#63b8ff" stroke="#63b8ff" points="603.27,-92.98 592.93,-90.67 599.57,-98.92 603.27,-92.98"/>
</a>
</g>
</g>
<!-- Node13 -->
<g id="Node000013" class="node">
<title>Node13</title>
<g id="a_Node000013"><a xlink:href="libpbd__visibility_8h.html" target="_top" xlink:title=" ">
<polygon fill="white" stroke="#666666" points="808,-24.5 686,-24.5 686,-5.5 808,-5.5 808,-24.5"/>
<text text-anchor="middle" x="747" y="-12.5" font-family="Helvetica,sans-Serif" font-size="10.00">pbd/libpbd_visibility.h</text>
</a>
</g>
</g>
<!-- Node4&#45;&gt;Node13 -->
<g id="edge12_Node000004_Node000013" class="edge">
<title>Node4&#45;&gt;Node13</title>
<g id="a_edge12_Node000004_Node000013"><a xlink:title=" ">
<path fill="none" stroke="#63b8ff" d="M713.88,-132.63C734.45,-126.38 757.6,-115.34 770,-96 782.51,-76.5 770.33,-50.05 759.48,-33"/>
<polygon fill="#63b8ff" stroke="#63b8ff" points="762.28,-30.89 753.75,-24.6 756.5,-34.84 762.28,-30.89"/>
</a>
</g>
</g>
<!-- Node14 -->
<g id="Node000014" class="node">
<title>Node14</title>
<g id="a_Node000014"><a xlink:href="event__loop_8h.html" target="_top" xlink:title=" ">
<polygon fill="white" stroke="#666666" points="214.5,-90.5 113.5,-90.5 113.5,-71.5 214.5,-71.5 214.5,-90.5"/>
<text text-anchor="middle" x="164" y="-78.5" font-family="Helvetica,sans-Serif" font-size="10.00">pbd/event_loop.h</text>
</a>
</g>
</g>
<!-- Node4&#45;&gt;Node14 -->
<g id="edge13_Node000004_Node000014" class="edge">
<title>Node4&#45;&gt;Node14</title>
<g id="a_edge13_Node000004_Node000014"><a xlink:title=" ">
<path fill="none" stroke="#63b8ff" d="M632.4,-137.96C554.05,-132.73 376.7,-119.23 229,-96 222.86,-95.03 216.43,-93.86 210.11,-92.6"/>
<polygon fill="#63b8ff" stroke="#63b8ff" points="210.81,-89.17 200.31,-90.57 209.39,-96.02 210.81,-89.17"/>
</a>
</g>
</g>
<!-- Node18 -->
<g id="Node000018" class="node">
<title>Node18</title>
<g id="a_Node000018"><a xlink:href="stack__allocator_8h.html" target="_top" xlink:title=" ">
<polygon fill="white" stroke="#666666" points="1083,-90.5 963,-90.5 963,-71.5 1083,-71.5 1083,-90.5"/>
<text text-anchor="middle" x="1023" y="-78.5" font-family="Helvetica,sans-Serif" font-size="10.00">pbd/stack_allocator.h</text>
</a>
</g>
</g>
<!-- Node4&#45;&gt;Node18 -->
<g id="edge22_Node000004_Node000018" class="edge">
<title>Node4&#45;&gt;Node18</title>
<g id="a_edge22_Node000004_Node000018"><a xlink:title=" ">
<path fill="none" stroke="#63b8ff" d="M713.74,-134.28C767.64,-125.98 865.58,-110.61 949,-96 955.34,-94.89 961.98,-93.69 968.56,-92.47"/>
<polygon fill="#63b8ff" stroke="#63b8ff" points="969.63,-95.83 978.82,-90.56 968.35,-88.95 969.63,-95.83"/>
</a>
</g>
</g>
<!-- Node21 -->
<g id="Node000021" class="node">
<title>Node21</title>
<g id="a_Node000021"><a xlink:href="stacktrace_8h.html" target="_top" xlink:title=" ">
<polygon fill="white" stroke="#666666" points="761,-90.5 663,-90.5 663,-71.5 761,-71.5 761,-90.5"/>
<text text-anchor="middle" x="712" y="-78.5" font-family="Helvetica,sans-Serif" font-size="10.00">pbd/stacktrace.h</text>
</a>
</g>
</g>
<!-- Node4&#45;&gt;Node21 -->
<g id="edge26_Node000004_Node000021" class="edge">
<title>Node4&#45;&gt;Node21</title>
<g id="a_edge26_Node000004_Node000021"><a xlink:title=" ">
<path fill="none" stroke="#63b8ff" d="M678.75,-131.87C684.46,-123.31 693.35,-109.97 700.51,-99.24"/>
<polygon fill="#63b8ff" stroke="#63b8ff" points="703.59,-100.93 706.22,-90.67 697.76,-97.05 703.59,-100.93"/>
</a>
</g>
</g>
<!-- Node14&#45;&gt;Node2 -->
<g id="edge15_Node000014_Node000002" class="edge">
<title>Node14&#45;&gt;Node2</title>
<g id="a_edge15_Node000014_Node000002"><a xlink:title=" ">
<path fill="none" stroke="#63b8ff" d="M144.75,-71.33C122.61,-61.37 85.18,-44.51 53,-30 52.15,-29.62 51.29,-29.23 50.42,-28.84"/>
<polygon fill="#63b8ff" stroke="#63b8ff" points="51.57,-25.52 41.02,-24.59 48.69,-31.9 51.57,-25.52"/>
</a>
</g>
</g>
<!-- Node14&#45;&gt;Node7 -->
<g id="edge17_Node000014_Node000007" class="edge">
<title>Node14&#45;&gt;Node7</title>
<g id="a_edge17_Node000014_Node000007"><a xlink:title=" ">
<path fill="none" stroke="#63b8ff" d="M200.58,-71.42C236.2,-62.61 291.61,-47.72 338,-30 339.02,-29.61 340.05,-29.2 341.09,-28.77"/>
<polygon fill="#63b8ff" stroke="#63b8ff" points="342.64,-31.91 350.34,-24.64 339.79,-25.52 342.64,-31.91"/>
</a>
</g>
</g>
<!-- Node14&#45;&gt;Node8 -->
<g id="edge14_Node000014_Node000008" class="edge">
<title>Node14&#45;&gt;Node8</title>
<g id="a_edge14_Node000014_Node000008"><a xlink:title=" ">
<path fill="none" stroke="#63b8ff" d="M153.62,-71.37C141.28,-61.12 120.49,-43.84 105.41,-31.31"/>
<polygon fill="#63b8ff" stroke="#63b8ff" points="107.64,-28.61 97.71,-24.91 103.17,-33.99 107.64,-28.61"/>
</a>
</g>
</g>
<!-- Node14&#45;&gt;Node9 -->
<g id="edge20_Node000014_Node000009" class="edge">
<title>Node14&#45;&gt;Node9</title>
<g id="a_edge20_Node000014_Node000009"><a xlink:title=" ">
<path fill="none" stroke="#63b8ff" d="M203.67,-71.44C264.7,-58.27 376.53,-34.12 395,-30 399.66,-28.96 404.52,-27.87 409.37,-26.77"/>
<polygon fill="#63b8ff" stroke="#63b8ff" points="410.27,-30.15 419.24,-24.51 408.72,-23.32 410.27,-30.15"/>
</a>
</g>
</g>
<!-- Node14&#45;&gt;Node13 -->
<g id="edge21_Node000014_Node000013" class="edge">
<title>Node14&#45;&gt;Node13</title>
<g id="a_edge21_Node000014_Node000013"><a xlink:title=" ">
<path fill="none" stroke="#63b8ff" d="M214.54,-72.24C229.77,-70.04 246.55,-67.77 262,-66 445.49,-44.93 493.13,-55.9 676,-30 683.1,-28.99 690.56,-27.74 697.87,-26.4"/>
<polygon fill="#63b8ff" stroke="#63b8ff" points="698.52,-29.84 707.7,-24.54 697.22,-22.96 698.52,-29.84"/>
</a>
</g>
</g>
<!-- Node15 -->
<g id="Node000015" class="node">
<title>Node15</title>
<g id="a_Node000015"><a xlink:title=" ">
<polygon fill="#e0e0e0" stroke="#999999" points="258.5,-24.5 211.5,-24.5 211.5,-5.5 258.5,-5.5 258.5,-24.5"/>
<text text-anchor="middle" x="235" y="-12.5" font-family="Helvetica,sans-Serif" font-size="10.00">vector</text>
</a>
</g>
</g>
<!-- Node14&#45;&gt;Node15 -->
<g id="edge16_Node000014_Node000015" class="edge">
<title>Node14&#45;&gt;Node15</title>
<g id="a_edge16_Node000014_Node000015"><a xlink:title=" ">
<path fill="none" stroke="#63b8ff" d="M173.58,-71.37C184.84,-61.21 203.76,-44.16 217.63,-31.65"/>
<polygon fill="#63b8ff" stroke="#63b8ff" points="220.04,-34.2 225.12,-24.91 215.35,-29 220.04,-34.2"/>
</a>
</g>
</g>
<!-- Node16 -->
<g id="Node000016" class="node">
<title>Node16</title>
<g id="a_Node000016"><a xlink:title=" ">
<polygon fill="#e0e0e0" stroke="#999999" points="329.5,-24.5 276.5,-24.5 276.5,-5.5 329.5,-5.5 329.5,-24.5"/>
<text text-anchor="middle" x="303" y="-12.5" font-family="Helvetica,sans-Serif" font-size="10.00">stdint.h</text>
</a>
</g>
</g>
<!-- Node14&#45;&gt;Node16 -->
<g id="edge18_Node000014_Node000016" class="edge">
<title>Node14&#45;&gt;Node16</title>
<g id="a_edge18_Node000014_Node000016"><a xlink:title=" ">
<path fill="none" stroke="#63b8ff" d="M182.75,-71.37C206.48,-60.44 247.57,-41.52 275.02,-28.88"/>
<polygon fill="#63b8ff" stroke="#63b8ff" points="276.49,-32.06 284.11,-24.7 273.56,-25.7 276.49,-32.06"/>
</a>
</g>
</g>
<!-- Node17 -->
<g id="Node000017" class="node">
<title>Node17</title>
<g id="a_Node000017"><a xlink:title=" ">
<polygon fill="#e0e0e0" stroke="#999999" points="193.5,-24.5 130.5,-24.5 130.5,-5.5 193.5,-5.5 193.5,-24.5"/>
<text text-anchor="middle" x="162" y="-12.5" font-family="Helvetica,sans-Serif" font-size="10.00">pthread.h</text>
</a>
</g>
</g>
<!-- Node14&#45;&gt;Node17 -->
<g id="edge19_Node000014_Node000017" class="edge">
<title>Node14&#45;&gt;Node17</title>
<g id="a_edge19_Node000014_Node000017"><a xlink:title=" ">
<path fill="none" stroke="#63b8ff" d="M163.73,-71.37C163.44,-62.16 162.98,-47.29 162.6,-35.27"/>
<polygon fill="#63b8ff" stroke="#63b8ff" points="166.09,-34.79 162.28,-24.91 159.09,-35.01 166.09,-34.79"/>
</a>
</g>
</g>
<!-- Node18&#45;&gt;Node13 -->
<g id="edge25_Node000018_Node000013" class="edge">
<title>Node18&#45;&gt;Node13</title>
<g id="a_edge25_Node000018_Node000013"><a xlink:title=" ">
<path fill="none" stroke="#63b8ff" d="M986.06,-71.44C936.39,-59.92 848.03,-39.43 793.76,-26.84"/>
<polygon fill="#63b8ff" stroke="#63b8ff" points="794.25,-23.36 783.72,-24.51 792.67,-30.18 794.25,-23.36"/>
</a>
</g>
</g>
<!-- Node19 -->
<g id="Node000019" class="node">
<title>Node19</title>
<g id="a_Node000019"><a xlink:title=" ">
<polygon fill="#e0e0e0" stroke="#999999" points="1092,-30 954,-30 954,0 1092,0 1092,-30"/>
<text text-anchor="start" x="962" y="-18" font-family="Helvetica,sans-Serif" font-size="10.00">boost/type_traits/aligned</text>
<text text-anchor="middle" x="1023" y="-7" font-family="Helvetica,sans-Serif" font-size="10.00">_storage.hpp</text>
</a>
</g>
</g>
<!-- Node18&#45;&gt;Node19 -->
<g id="edge23_Node000018_Node000019" class="edge">
<title>Node18&#45;&gt;Node19</title>
<g id="a_edge23_Node000018_Node000019"><a xlink:title=" ">
<path fill="none" stroke="#63b8ff" d="M1023,-71.37C1023,-63.49 1023,-51.45 1023,-40.6"/>
<polygon fill="#63b8ff" stroke="#63b8ff" points="1026.5,-40.36 1023,-30.36 1019.5,-40.36 1026.5,-40.36"/>
</a>
</g>
</g>
<!-- Node20 -->
<g id="Node000020" class="node">
<title>Node20</title>
<g id="a_Node000020"><a xlink:title=" ">
<polygon fill="#e0e0e0" stroke="#999999" points="1154,-24.5 1110,-24.5 1110,-5.5 1154,-5.5 1154,-24.5"/>
<text text-anchor="middle" x="1132" y="-12.5" font-family="Helvetica,sans-Serif" font-size="10.00">limits</text>
</a>
</g>
</g>
<!-- Node18&#45;&gt;Node20 -->
<g id="edge24_Node000018_Node000020" class="edge">
<title>Node18&#45;&gt;Node20</title>
<g id="a_edge24_Node000018_Node000020"><a xlink:title=" ">
<path fill="none" stroke="#63b8ff" d="M1037.7,-71.37C1055.82,-60.73 1086.85,-42.51 1108.34,-29.89"/>
<polygon fill="#63b8ff" stroke="#63b8ff" points="1110.33,-32.78 1117.18,-24.7 1106.79,-26.74 1110.33,-32.78"/>
</a>
</g>
</g>
<!-- Node21&#45;&gt;Node3 -->
<g id="edge28_Node000021_Node000003" class="edge">
<title>Node21&#45;&gt;Node3</title>
<g id="a_edge28_Node000021_Node000003"><a xlink:title=" ">
<path fill="none" stroke="#63b8ff" d="M739.53,-71.42C770.59,-61.67 822.57,-45.14 867,-30 868.89,-29.36 870.83,-28.69 872.78,-28.01"/>
<polygon fill="#63b8ff" stroke="#63b8ff" points="874.27,-31.19 882.53,-24.56 871.94,-24.59 874.27,-31.19"/>
</a>
</g>
</g>
<!-- Node21&#45;&gt;Node6 -->
<g id="edge31_Node000021_Node000006" class="edge">
<title>Node21&#45;&gt;Node6</title>
<g id="a_edge31_Node000021_Node000006"><a xlink:title=" ">
<path fill="none" stroke="#63b8ff" d="M731.15,-71.34C752.35,-61.65 787.41,-45.31 817,-30 817.31,-29.84 817.61,-29.68 817.92,-29.52"/>
<polygon fill="#63b8ff" stroke="#63b8ff" points="819.89,-32.44 827.02,-24.6 816.56,-26.28 819.89,-32.44"/>
</a>
</g>
</g>
<!-- Node21&#45;&gt;Node9 -->
<g id="edge30_Node000021_Node000009" class="edge">
<title>Node21&#45;&gt;Node9</title>
<g id="a_edge30_Node000021_Node000009"><a xlink:title=" ">
<path fill="none" stroke="#63b8ff" d="M677.74,-71.44C631.85,-59.96 550.39,-39.6 500.01,-27"/>
<polygon fill="#63b8ff" stroke="#63b8ff" points="500.61,-23.54 490.06,-24.51 498.91,-30.34 500.61,-23.54"/>
</a>
</g>
</g>
<!-- Node21&#45;&gt;Node13 -->
<g id="edge32_Node000021_Node000013" class="edge">
<title>Node21&#45;&gt;Node13</title>
<g id="a_edge32_Node000021_Node000013"><a xlink:title=" ">
<path fill="none" stroke="#63b8ff" d="M716.72,-71.37C721.96,-61.78 730.57,-46.05 737.27,-33.8"/>
<polygon fill="#63b8ff" stroke="#63b8ff" points="740.4,-35.36 742.13,-24.91 734.26,-32 740.4,-35.36"/>
</a>
</g>
</g>
<!-- Node22 -->
<g id="Node000022" class="node">
<title>Node22</title>
<g id="a_Node000022"><a xlink:title=" ">
<polygon fill="#e0e0e0" stroke="#999999" points="592.5,-24.5 539.5,-24.5 539.5,-5.5 592.5,-5.5 592.5,-24.5"/>
<text text-anchor="middle" x="566" y="-12.5" font-family="Helvetica,sans-Serif" font-size="10.00">cstddef</text>
</a>
</g>
</g>
<!-- Node21&#45;&gt;Node22 -->
<g id="edge27_Node000021_Node000022" class="edge">
<title>Node21&#45;&gt;Node22</title>
<g id="a_edge27_Node000021_Node000022"><a xlink:title=" ">
<path fill="none" stroke="#63b8ff" d="M692.31,-71.37C667.27,-60.39 623.85,-41.36 595.02,-28.72"/>
<polygon fill="#63b8ff" stroke="#63b8ff" points="596.41,-25.51 585.84,-24.7 593.6,-31.92 596.41,-25.51"/>
</a>
</g>
</g>
<!-- Node23 -->
<g id="Node000023" class="node">
<title>Node23</title>
<g id="a_Node000023"><a xlink:title=" ">
<polygon fill="#e0e0e0" stroke="#999999" points="667.5,-24.5 610.5,-24.5 610.5,-5.5 667.5,-5.5 667.5,-24.5"/>
<text text-anchor="middle" x="639" y="-12.5" font-family="Helvetica,sans-Serif" font-size="10.00">ostream</text>
</a>
</g>
</g>
<!-- Node21&#45;&gt;Node23 -->
<g id="edge29_Node000021_Node000023" class="edge">
<title>Node21&#45;&gt;Node23</title>
<g id="a_edge29_Node000021_Node000023"><a xlink:title=" ">
<path fill="none" stroke="#63b8ff" d="M702.15,-71.37C690.57,-61.21 671.12,-44.16 656.86,-31.65"/>
<polygon fill="#63b8ff" stroke="#63b8ff" points="658.98,-28.87 649.16,-24.91 654.37,-34.13 658.98,-28.87"/>
</a>
</g>
</g>
<!-- Node25&#45;&gt;Node24 -->
<g id="edge37_Node000025_Node000024" class="edge">
<title>Node25&#45;&gt;Node24</title>
<g id="a_edge37_Node000025_Node000024"><a xlink:title=" ">
<path fill="none" stroke="#63b8ff" d="M1222.23,-131.87C1220.55,-123.66 1217.96,-111.04 1215.81,-100.55"/>
<polygon fill="#63b8ff" stroke="#63b8ff" points="1219.22,-99.76 1213.78,-90.67 1212.36,-101.17 1219.22,-99.76"/>
</a>
</g>
</g>
<!-- Node26 -->
<g id="Node000026" class="node">
<title>Node26</title>
<g id="a_Node000026"><a xlink:title=" ">
<polygon fill="#e0e0e0" stroke="#999999" points="1368.5,-90.5 1303.5,-90.5 1303.5,-71.5 1368.5,-71.5 1368.5,-90.5"/>
<text text-anchor="middle" x="1336" y="-78.5" font-family="Helvetica,sans-Serif" font-size="10.00">inttypes.h</text>
</a>
</g>
</g>
<!-- Node25&#45;&gt;Node26 -->
<g id="edge36_Node000025_Node000026" class="edge">
<title>Node25&#45;&gt;Node26</title>
<g id="a_edge36_Node000025_Node000026"><a xlink:title=" ">
<path fill="none" stroke="#63b8ff" d="M1240.53,-131.87C1258.97,-122.23 1289.04,-106.53 1310.51,-95.31"/>
<polygon fill="#63b8ff" stroke="#63b8ff" points="1312.16,-98.4 1319.41,-90.67 1308.92,-92.19 1312.16,-98.4"/>
</a>
</g>
</g>
</g>
</svg>

<g id="navigator" transform="translate(0 0)" fill="#404254">
  <rect fill="#f2f5e9" fill-opacity="0.5" stroke="#606060" stroke-width=".5" x="0" y="0" width="60" height="60"/>
  <use id="zoomplus" xlink:href="#zoomPlus" x="17" y="9" onmousedown="handleZoom(evt,'in')"/>
  <use id="zoomminus" xlink:href="#zoomMin" x="42" y="9" onmousedown="handleZoom(evt,'out')"/>
  <use id="reset" xlink:href="#resetDef" x="30" y="36" onmousedown="handleReset()"/>
   <use id="arrowup" xlink:href="#arrowUp" x="0" y="0" onmousedown="handlePan(0,-1)"/>
  <use id="arrowright" xlink:href="#arrowRight" x="0" y="0" onmousedown="handlePan(1,0)"/>
  <use id="arrowdown" xlink:href="#arrowDown" x="0" y="0" onmousedown="handlePan(0,1)"/>
  <use id="arrowleft" xlink:href="#arrowLeft" x="0" y="0" onmousedown="handlePan(-1,0)"/>
</g>
<svg viewBox="0 0 15 15" width="100%" height="30px" preserveAspectRatio="xMaxYMin meet">
 <g id="arrow_out" transform="scale(0.3 0.3)">
  <a xlink:href="parser_8h__incl_org.svg" target="_base">
   <rect id="button" ry="5" rx="5" y="6" x="6" height="38" width="38"
        fill="#f2f5e9" fill-opacity="0.5" stroke="#606060" stroke-width="1.0"/>
   <path id="arrow"
     d="M 11.500037,31.436501 C 11.940474,20.09759 22.043105,11.32322 32.158766,21.979434 L 37.068811,17.246167 C 37.068811,17.246167 37.088388,32 37.088388,32 L 22.160133,31.978069 C 22.160133,31.978069 26.997745,27.140456 26.997745,27.140456 C 18.528582,18.264221 13.291696,25.230495 11.500037,31.436501 z"
     style="fill:#404040;"/>
  </a>
 </g>
</svg>

<style type='text/css'>
<![CDATA[
[data-mouse-over-selected='false'] { opacity: 0.7; }
[data-mouse-over-selected='true']  { opacity: 1.0; }
]]>
</style>
<script type="application/ecmascript"><![CDATA[
document.addEventListener('DOMContentLoaded', (event) => {
  highlightEdges();
  highlightAdjacentNodes();
});
]]></script>
</svg>
