<?xml version="1.0" encoding="UTF-8" standalone="no"?>
<!DOCTYPE svg PUBLIC "-//W3C//DTD SVG 1.1//EN"
 "http://www.w3.org/Graphics/SVG/1.1/DTD/svg11.dtd">
<!-- Generated by graphviz version 2.43.0 (0)
 -->
<!-- Title: system_exec.h Pages: 1 -->
<!--zoomable 214 -->

<svg id="main" version="1.1" xmlns="http://www.w3.org/2000/svg" xmlns:xlink="http://www.w3.org/1999/xlink" xml:space="preserve" onload="init(evt)">
<style type="text/css"><![CDATA[
.node, .edge {opacity: 0.7;}
.node.selected, .edge.selected {opacity: 1;}
.edge:hover path { stroke: red; }
.edge:hover polygon { stroke: red; fill: red; }
]]></style>

<defs>
  <circle id="rim" cx="0" cy="0" r="7"/>
  <circle id="rim2" cx="0" cy="0" r="3.5"/>
  <g id="zoomPlus">
    <use xlink:href="#rim" fill="#404040"><set attributeName="fill" to="#808080" begin="zoomplus.mouseover" end="zoomplus.mouseout"/></use>
    <path d="M-4,0h8M0,-4v8" fill="none" stroke="white" stroke-width="1.5" pointer-events="none"/>
  </g>
  <g id="zoomMin">
    <use xlink:href="#rim" fill="#404040"><set attributeName="fill" to="#808080" begin="zoomminus.mouseover" end="zoomminus.mouseout"/></use>
    <path d="M-4,0h8" fill="none" stroke="white" stroke-width="1.5" pointer-events="none"/>
  </g>
  <g id="arrowUp" transform="translate(30 24)">
    <use xlink:href="#rim"/>
    <path pointer-events="none" fill="none" stroke="white" stroke-width="1.5" d="M0,-3.0v7 M-2.5,-0.5L0,-3.0L2.5,-0.5"/>
  </g>
  <g id="arrowRight" transform="rotate(90) translate(36 -43)">
    <use xlink:href="#rim"/>
    <path pointer-events="none" fill="none" stroke="white" stroke-width="1.5" d="M0,-3.0v7 M-2.5,-0.5L0,-3.0L2.5,-0.5"/>
  </g>
  <g id="arrowDown" transform="rotate(180) translate(-30 -48)">
    <use xlink:href="#rim"/>
    <path pointer-events="none" fill="none" stroke="white" stroke-width="1.5" d="M0,-3.0v7 M-2.5,-0.5L0,-3.0L2.5,-0.5"/>
  </g>
  <g id="arrowLeft" transform="rotate(270) translate(-36 17)">
    <use xlink:href="#rim"/>
    <path pointer-events="none" fill="none" stroke="white" stroke-width="1.5" d="M0,-3.0v7 M-2.5,-0.5L0,-3.0L2.5,-0.5"/>
  </g>
  <g id="resetDef">
    <use xlink:href="#rim2" fill="#404040"><set attributeName="fill" to="#808080" begin="reset.mouseover" end="reset.mouseout"/></use>
  </g>
</defs>
<script type="application/ecmascript">
var viewWidth = 1339;
var viewHeight = 214;
var sectionId = 'dynsection-0';
</script>
<script type="application/ecmascript" xlink:href="svg.min.js"/>
<svg id="graph" class="graph">
<g id="viewport">
<title>system_exec.h</title>
<!-- Node1 -->
<g id="Node000001" class="node">
<title>Node1</title>
<g id="a_Node000001"><a xlink:title=" ">
<polygon fill="#999999" stroke="#666666" points="266.5,-206 177.5,-206 177.5,-187 266.5,-187 266.5,-206"/>
<text text-anchor="middle" x="222" y="-194" font-family="Helvetica,sans-Serif" font-size="10.00">system_exec.h</text>
</a>
</g>
</g>
<!-- Node2 -->
<g id="Node000002" class="node">
<title>Node2</title>
<g id="a_Node000002"><a xlink:title=" ">
<polygon fill="#e0e0e0" stroke="#999999" points="72,-151 0,-151 0,-132 72,-132 72,-151"/>
<text text-anchor="middle" x="36" y="-139" font-family="Helvetica,sans-Serif" font-size="10.00">sys/types.h</text>
</a>
</g>
</g>
<!-- Node1&#45;&gt;Node2 -->
<g id="edge1_Node000001_Node000002" class="edge">
<title>Node1&#45;&gt;Node2</title>
<g id="a_edge1_Node000001_Node000002"><a xlink:title=" ">
<path fill="none" stroke="#63b8ff" d="M192.12,-186.98C160.62,-178.01 110.83,-163.82 75.97,-153.89"/>
<polygon fill="#63b8ff" stroke="#63b8ff" points="76.69,-150.46 66.12,-151.08 74.78,-157.19 76.69,-150.46"/>
</a>
</g>
</g>
<!-- Node3 -->
<g id="Node000003" class="node">
<title>Node3</title>
<g id="a_Node000003"><a xlink:title=" ">
<polygon fill="#e0e0e0" stroke="#999999" points="156,-151 90,-151 90,-132 156,-132 156,-151"/>
<text text-anchor="middle" x="123" y="-139" font-family="Helvetica,sans-Serif" font-size="10.00">sys/wait.h</text>
</a>
</g>
</g>
<!-- Node1&#45;&gt;Node3 -->
<g id="edge2_Node000001_Node000003" class="edge">
<title>Node1&#45;&gt;Node3</title>
<g id="a_edge2_Node000001_Node000003"><a xlink:title=" ">
<path fill="none" stroke="#63b8ff" d="M206.09,-186.98C190.45,-178.61 166.34,-165.7 148.12,-155.95"/>
<polygon fill="#63b8ff" stroke="#63b8ff" points="149.66,-152.8 139.2,-151.17 146.36,-158.98 149.66,-152.8"/>
</a>
</g>
</g>
<!-- Node4 -->
<g id="Node000004" class="node">
<title>Node4</title>
<g id="a_Node000004"><a xlink:title=" ">
<polygon fill="#e0e0e0" stroke="#999999" points="160,-24.5 116,-24.5 116,-5.5 160,-5.5 160,-24.5"/>
<text text-anchor="middle" x="138" y="-12.5" font-family="Helvetica,sans-Serif" font-size="10.00">string</text>
</a>
</g>
</g>
<!-- Node1&#45;&gt;Node4 -->
<g id="edge3_Node000001_Node000004" class="edge">
<title>Node1&#45;&gt;Node4</title>
<g id="a_edge3_Node000001_Node000004"><a xlink:title=" ">
<path fill="none" stroke="#63b8ff" d="M217.95,-186.84C204.95,-159.06 164.1,-71.77 146.36,-33.86"/>
<polygon fill="#63b8ff" stroke="#63b8ff" points="149.42,-32.14 142.01,-24.57 143.08,-35.11 149.42,-32.14"/>
</a>
</g>
</g>
<!-- Node5 -->
<g id="Node000005" class="node">
<title>Node5</title>
<g id="a_Node000005"><a xlink:title=" ">
<polygon fill="#e0e0e0" stroke="#999999" points="241.5,-24.5 178.5,-24.5 178.5,-5.5 241.5,-5.5 241.5,-24.5"/>
<text text-anchor="middle" x="210" y="-12.5" font-family="Helvetica,sans-Serif" font-size="10.00">pthread.h</text>
</a>
</g>
</g>
<!-- Node1&#45;&gt;Node5 -->
<g id="edge4_Node000001_Node000005" class="edge">
<title>Node1&#45;&gt;Node5</title>
<g id="a_edge4_Node000001_Node000005"><a xlink:title=" ">
<path fill="none" stroke="#63b8ff" d="M221.42,-186.84C219.58,-159.3 213.83,-73.26 211.26,-34.84"/>
<polygon fill="#63b8ff" stroke="#63b8ff" points="214.73,-34.32 210.57,-24.57 207.75,-34.78 214.73,-34.32"/>
</a>
</g>
</g>
<!-- Node6 -->
<g id="Node000006" class="node">
<title>Node6</title>
<g id="a_Node000006"><a xlink:title=" ">
<polygon fill="#e0e0e0" stroke="#999999" points="305.5,-151 250.5,-151 250.5,-132 305.5,-132 305.5,-151"/>
<text text-anchor="middle" x="278" y="-139" font-family="Helvetica,sans-Serif" font-size="10.00">signal.h</text>
</a>
</g>
</g>
<!-- Node1&#45;&gt;Node6 -->
<g id="edge5_Node000001_Node000006" class="edge">
<title>Node1&#45;&gt;Node6</title>
<g id="a_edge5_Node000001_Node000006"><a xlink:title=" ">
<path fill="none" stroke="#63b8ff" d="M231,-186.98C239.19,-179.23 251.51,-167.58 261.47,-158.14"/>
<polygon fill="#63b8ff" stroke="#63b8ff" points="263.98,-160.59 268.84,-151.17 259.17,-155.5 263.98,-160.59"/>
</a>
</g>
</g>
<!-- Node7 -->
<g id="Node000007" class="node">
<title>Node7</title>
<g id="a_Node000007"><a xlink:title=" ">
<polygon fill="#e0e0e0" stroke="#999999" points="503,-24.5 465,-24.5 465,-5.5 503,-5.5 503,-24.5"/>
<text text-anchor="middle" x="484" y="-12.5" font-family="Helvetica,sans-Serif" font-size="10.00">map</text>
</a>
</g>
</g>
<!-- Node1&#45;&gt;Node7 -->
<g id="edge6_Node000001_Node000007" class="edge">
<title>Node1&#45;&gt;Node7</title>
<g id="a_edge6_Node000001_Node000007"><a xlink:title=" ">
<path fill="none" stroke="#63b8ff" d="M244.57,-186.9C281.74,-172.05 357.09,-139.02 411,-96 434.9,-76.93 457.9,-49.8 471.49,-32.55"/>
<polygon fill="#63b8ff" stroke="#63b8ff" points="474.35,-34.57 477.7,-24.52 468.81,-30.29 474.35,-34.57"/>
</a>
</g>
</g>
<!-- Node8 -->
<g id="Node000008" class="node">
<title>Node8</title>
<g id="a_Node000008"><a xlink:href="signals_8h.html" target="_top" xlink:title=" ">
<polygon fill="white" stroke="#666666" points="873.5,-151 792.5,-151 792.5,-132 873.5,-132 873.5,-151"/>
<text text-anchor="middle" x="833" y="-139" font-family="Helvetica,sans-Serif" font-size="10.00">pbd/signals.h</text>
</a>
</g>
</g>
<!-- Node1&#45;&gt;Node8 -->
<g id="edge7_Node000001_Node000008" class="edge">
<title>Node1&#45;&gt;Node8</title>
<g id="a_edge7_Node000001_Node000008"><a xlink:title=" ">
<path fill="none" stroke="#63b8ff" d="M266.93,-191.6C378.08,-181.96 665.39,-157.04 782.34,-146.89"/>
<polygon fill="#63b8ff" stroke="#63b8ff" points="782.8,-150.37 792.46,-146.02 782.19,-143.39 782.8,-150.37"/>
</a>
</g>
</g>
<!-- Node8&#45;&gt;Node7 -->
<g id="edge10_Node000008_Node000007" class="edge">
<title>Node8&#45;&gt;Node7</title>
<g id="a_edge10_Node000008_Node000007"><a xlink:title=" ">
<path fill="none" stroke="#63b8ff" d="M792.34,-138.15C705.55,-132.71 508.4,-118.06 488,-96 472.99,-79.77 475.08,-52.84 478.82,-34.76"/>
<polygon fill="#63b8ff" stroke="#63b8ff" points="482.28,-35.37 481.23,-24.82 475.47,-33.72 482.28,-35.37"/>
</a>
</g>
</g>
<!-- Node9 -->
<g id="Node000009" class="node">
<title>Node9</title>
<g id="a_Node000009"><a xlink:title=" ">
<polygon fill="#e0e0e0" stroke="#999999" points="1270.5,-90.5 1219.5,-90.5 1219.5,-71.5 1270.5,-71.5 1270.5,-90.5"/>
<text text-anchor="middle" x="1245" y="-78.5" font-family="Helvetica,sans-Serif" font-size="10.00">csignal</text>
</a>
</g>
</g>
<!-- Node8&#45;&gt;Node9 -->
<g id="edge8_Node000008_Node000009" class="edge">
<title>Node8&#45;&gt;Node9</title>
<g id="a_edge8_Node000008_Node000009"><a xlink:title=" ">
<path fill="none" stroke="#63b8ff" d="M873.68,-138.53C942.63,-134.56 1086.51,-123.48 1205,-96 1207.82,-95.35 1210.72,-94.56 1213.61,-93.7"/>
<polygon fill="#63b8ff" stroke="#63b8ff" points="1214.81,-96.99 1223.25,-90.58 1212.65,-90.33 1214.81,-96.99"/>
</a>
</g>
</g>
<!-- Node10 -->
<g id="Node000010" class="node">
<title>Node10</title>
<g id="a_Node000010"><a xlink:title=" ">
<polygon fill="#e0e0e0" stroke="#999999" points="1331,-24.5 1299,-24.5 1299,-5.5 1331,-5.5 1331,-24.5"/>
<text text-anchor="middle" x="1315" y="-12.5" font-family="Helvetica,sans-Serif" font-size="10.00">list</text>
</a>
</g>
</g>
<!-- Node8&#45;&gt;Node10 -->
<g id="edge9_Node000008_Node000010" class="edge">
<title>Node8&#45;&gt;Node10</title>
<g id="a_edge9_Node000008_Node000010"><a xlink:title=" ">
<path fill="none" stroke="#63b8ff" d="M873.78,-138.77C977.87,-134.04 1247.52,-119.62 1280,-96 1299.89,-81.53 1308.63,-53.27 1312.36,-34.51"/>
<polygon fill="#63b8ff" stroke="#63b8ff" points="1315.84,-34.94 1314.06,-24.5 1308.93,-33.77 1315.84,-34.94"/>
</a>
</g>
</g>
<!-- Node11 -->
<g id="Node000011" class="node">
<title>Node11</title>
<g id="a_Node000011"><a xlink:title=" ">
<polygon fill="#e0e0e0" stroke="#999999" points="310,-24.5 260,-24.5 260,-5.5 310,-5.5 310,-24.5"/>
<text text-anchor="middle" x="285" y="-12.5" font-family="Helvetica,sans-Serif" font-size="10.00">atomic</text>
</a>
</g>
</g>
<!-- Node8&#45;&gt;Node11 -->
<g id="edge11_Node000008_Node000011" class="edge">
<title>Node8&#45;&gt;Node11</title>
<g id="a_edge11_Node000008_Node000011"><a xlink:title=" ">
<path fill="none" stroke="#63b8ff" d="M792.42,-140.11C672.73,-138.57 327.28,-131.1 292,-96 276.21,-80.29 277.4,-53.04 280.53,-34.76"/>
<polygon fill="#63b8ff" stroke="#63b8ff" points="283.96,-35.46 282.54,-24.96 277.1,-34.05 283.96,-35.46"/>
</a>
</g>
</g>
<!-- Node12 -->
<g id="Node000012" class="node">
<title>Node12</title>
<g id="a_Node000012"><a xlink:title=" ">
<polygon fill="#e0e0e0" stroke="#999999" points="697.5,-24.5 594.5,-24.5 594.5,-5.5 697.5,-5.5 697.5,-24.5"/>
<text text-anchor="middle" x="646" y="-12.5" font-family="Helvetica,sans-Serif" font-size="10.00">glibmm/threads.h</text>
</a>
</g>
</g>
<!-- Node8&#45;&gt;Node12 -->
<g id="edge12_Node000008_Node000012" class="edge">
<title>Node8&#45;&gt;Node12</title>
<g id="a_edge12_Node000008_Node000012"><a xlink:title=" ">
<path fill="none" stroke="#63b8ff" d="M837.75,-131.62C845.13,-116.45 857.03,-85.34 842,-66 839.64,-62.97 748.92,-40.72 691.75,-26.94"/>
<polygon fill="#63b8ff" stroke="#63b8ff" points="692.38,-23.49 681.84,-24.56 690.74,-30.3 692.38,-23.49"/>
</a>
</g>
</g>
<!-- Node13 -->
<g id="Node000013" class="node">
<title>Node13</title>
<g id="a_Node000013"><a xlink:title=" ">
<polygon fill="#e0e0e0" stroke="#999999" points="623,-90.5 497,-90.5 497,-71.5 623,-71.5 623,-90.5"/>
<text text-anchor="middle" x="560" y="-78.5" font-family="Helvetica,sans-Serif" font-size="10.00">boost/bind/protect.hpp</text>
</a>
</g>
</g>
<!-- Node8&#45;&gt;Node13 -->
<g id="edge13_Node000008_Node000013" class="edge">
<title>Node8&#45;&gt;Node13</title>
<g id="a_edge13_Node000008_Node000013"><a xlink:title=" ">
<path fill="none" stroke="#63b8ff" d="M793.3,-131.99C744.68,-121.57 662.29,-103.92 609.55,-92.62"/>
<polygon fill="#63b8ff" stroke="#63b8ff" points="610.26,-89.19 599.74,-90.52 608.79,-96.03 610.26,-89.19"/>
</a>
</g>
</g>
<!-- Node14 -->
<g id="Node000014" class="node">
<title>Node14</title>
<g id="a_Node000014"><a xlink:title=" ">
<polygon fill="#e0e0e0" stroke="#999999" points="759,-96 641,-96 641,-66 759,-66 759,-96"/>
<text text-anchor="start" x="649" y="-84" font-family="Helvetica,sans-Serif" font-size="10.00">boost/enable_shared</text>
<text text-anchor="middle" x="700" y="-73" font-family="Helvetica,sans-Serif" font-size="10.00">_from_this.hpp</text>
</a>
</g>
</g>
<!-- Node8&#45;&gt;Node14 -->
<g id="edge14_Node000008_Node000014" class="edge">
<title>Node8&#45;&gt;Node14</title>
<g id="a_edge14_Node000008_Node000014"><a xlink:title=" ">
<path fill="none" stroke="#63b8ff" d="M813.66,-131.99C794.77,-123.68 765.42,-110.78 741.28,-100.16"/>
<polygon fill="#63b8ff" stroke="#63b8ff" points="742.54,-96.89 731.98,-96.06 739.72,-103.29 742.54,-96.89"/>
</a>
</g>
</g>
<!-- Node15 -->
<g id="Node000015" class="node">
<title>Node15</title>
<g id="a_Node000015"><a xlink:title=" ">
<polygon fill="#e0e0e0" stroke="#999999" points="833,-90.5 777,-90.5 777,-71.5 833,-71.5 833,-90.5"/>
<text text-anchor="middle" x="805" y="-78.5" font-family="Helvetica,sans-Serif" font-size="10.00">optional</text>
</a>
</g>
</g>
<!-- Node8&#45;&gt;Node15 -->
<g id="edge15_Node000008_Node000015" class="edge">
<title>Node8&#45;&gt;Node15</title>
<g id="a_edge15_Node000008_Node000015"><a xlink:title=" ">
<path fill="none" stroke="#63b8ff" d="M828.87,-131.87C824.86,-123.49 818.65,-110.51 813.56,-99.89"/>
<polygon fill="#63b8ff" stroke="#63b8ff" points="816.62,-98.18 809.15,-90.67 810.31,-101.2 816.62,-98.18"/>
</a>
</g>
</g>
<!-- Node16 -->
<g id="Node000016" class="node">
<title>Node16</title>
<g id="a_Node000016"><a xlink:href="libpbd__visibility_8h.html" target="_top" xlink:title=" ">
<polygon fill="white" stroke="#666666" points="838,-24.5 716,-24.5 716,-5.5 838,-5.5 838,-24.5"/>
<text text-anchor="middle" x="777" y="-12.5" font-family="Helvetica,sans-Serif" font-size="10.00">pbd/libpbd_visibility.h</text>
</a>
</g>
</g>
<!-- Node8&#45;&gt;Node16 -->
<g id="edge16_Node000008_Node000016" class="edge">
<title>Node8&#45;&gt;Node16</title>
<g id="a_edge16_Node000008_Node000016"><a xlink:title=" ">
<path fill="none" stroke="#63b8ff" d="M845.21,-131.86C855.35,-123.88 869.04,-111.01 875,-96 879.92,-83.61 881.96,-77.37 875,-66 863.65,-47.47 843.03,-35.53 823.62,-27.99"/>
<polygon fill="#63b8ff" stroke="#63b8ff" points="824.54,-24.6 813.94,-24.53 822.18,-31.19 824.54,-24.6"/>
</a>
</g>
</g>
<!-- Node17 -->
<g id="Node000017" class="node">
<title>Node17</title>
<g id="a_Node000017"><a xlink:href="event__loop_8h.html" target="_top" xlink:title=" ">
<polygon fill="white" stroke="#666666" points="402.5,-90.5 301.5,-90.5 301.5,-71.5 402.5,-71.5 402.5,-90.5"/>
<text text-anchor="middle" x="352" y="-78.5" font-family="Helvetica,sans-Serif" font-size="10.00">pbd/event_loop.h</text>
</a>
</g>
</g>
<!-- Node8&#45;&gt;Node17 -->
<g id="edge17_Node000008_Node000017" class="edge">
<title>Node8&#45;&gt;Node17</title>
<g id="a_edge17_Node000008_Node000017"><a xlink:title=" ">
<path fill="none" stroke="#63b8ff" d="M792.42,-135.96C723.16,-128.17 577.75,-111.57 455,-96 441.24,-94.26 426.46,-92.3 412.51,-90.41"/>
<polygon fill="#63b8ff" stroke="#63b8ff" points="412.91,-86.93 402.53,-89.05 411.97,-93.87 412.91,-86.93"/>
</a>
</g>
</g>
<!-- Node20 -->
<g id="Node000020" class="node">
<title>Node20</title>
<g id="a_Node000020"><a xlink:href="stack__allocator_8h.html" target="_top" xlink:title=" ">
<polygon fill="white" stroke="#666666" points="1047,-90.5 927,-90.5 927,-71.5 1047,-71.5 1047,-90.5"/>
<text text-anchor="middle" x="987" y="-78.5" font-family="Helvetica,sans-Serif" font-size="10.00">pbd/stack_allocator.h</text>
</a>
</g>
</g>
<!-- Node8&#45;&gt;Node20 -->
<g id="edge26_Node000008_Node000020" class="edge">
<title>Node8&#45;&gt;Node20</title>
<g id="a_edge26_Node000008_Node000020"><a xlink:title=" ">
<path fill="none" stroke="#63b8ff" d="M855.39,-131.99C881.62,-122.03 925.28,-105.45 955.06,-94.13"/>
<polygon fill="#63b8ff" stroke="#63b8ff" points="956.47,-97.34 964.58,-90.52 953.99,-90.8 956.47,-97.34"/>
</a>
</g>
</g>
<!-- Node23 -->
<g id="Node000023" class="node">
<title>Node23</title>
<g id="a_Node000023"><a xlink:href="stacktrace_8h.html" target="_top" xlink:title=" ">
<polygon fill="white" stroke="#666666" points="1163,-90.5 1065,-90.5 1065,-71.5 1163,-71.5 1163,-90.5"/>
<text text-anchor="middle" x="1114" y="-78.5" font-family="Helvetica,sans-Serif" font-size="10.00">pbd/stacktrace.h</text>
</a>
</g>
</g>
<!-- Node8&#45;&gt;Node23 -->
<g id="edge30_Node000008_Node000023" class="edge">
<title>Node8&#45;&gt;Node23</title>
<g id="a_edge30_Node000008_Node000023"><a xlink:title=" ">
<path fill="none" stroke="#63b8ff" d="M873.79,-132.87C918.59,-124.37 992.58,-109.98 1056,-96 1060.44,-95.02 1065.07,-93.96 1069.69,-92.89"/>
<polygon fill="#63b8ff" stroke="#63b8ff" points="1070.78,-96.23 1079.7,-90.52 1069.17,-89.42 1070.78,-96.23"/>
</a>
</g>
</g>
<!-- Node25 -->
<g id="Node000025" class="node">
<title>Node25</title>
<g id="a_Node000025"><a xlink:title=" ">
<polygon fill="#e0e0e0" stroke="#999999" points="1281,-24.5 1221,-24.5 1221,-5.5 1281,-5.5 1281,-24.5"/>
<text text-anchor="middle" x="1251" y="-12.5" font-family="Helvetica,sans-Serif" font-size="10.00">iostream</text>
</a>
</g>
</g>
<!-- Node8&#45;&gt;Node25 -->
<g id="edge37_Node000008_Node000025" class="edge">
<title>Node8&#45;&gt;Node25</title>
<g id="a_edge37_Node000008_Node000025"><a xlink:title=" ">
<path fill="none" stroke="#63b8ff" d="M873.64,-138.46C951.91,-134 1120.37,-121.65 1172,-96 1187.36,-88.37 1218.88,-53.5 1237.12,-32.39"/>
<polygon fill="#63b8ff" stroke="#63b8ff" points="1239.98,-34.43 1243.82,-24.56 1234.66,-29.88 1239.98,-34.43"/>
</a>
</g>
</g>
<!-- Node17&#45;&gt;Node4 -->
<g id="edge19_Node000017_Node000004" class="edge">
<title>Node17&#45;&gt;Node4</title>
<g id="a_edge19_Node000017_Node000004"><a xlink:title=" ">
<path fill="none" stroke="#63b8ff" d="M313.96,-71.46C276.56,-62.63 218.12,-47.68 169,-30 167.78,-29.56 166.54,-29.1 165.3,-28.61"/>
<polygon fill="#63b8ff" stroke="#63b8ff" points="166.41,-25.28 155.83,-24.63 163.7,-31.73 166.41,-25.28"/>
</a>
</g>
</g>
<!-- Node17&#45;&gt;Node5 -->
<g id="edge23_Node000017_Node000005" class="edge">
<title>Node17&#45;&gt;Node5</title>
<g id="a_edge23_Node000017_Node000005"><a xlink:title=" ">
<path fill="none" stroke="#63b8ff" d="M332.85,-71.37C308.61,-60.44 266.63,-41.52 238.59,-28.88"/>
<polygon fill="#63b8ff" stroke="#63b8ff" points="239.86,-25.62 229.3,-24.7 236.98,-32 239.86,-25.62"/>
</a>
</g>
</g>
<!-- Node17&#45;&gt;Node7 -->
<g id="edge21_Node000017_Node000007" class="edge">
<title>Node17&#45;&gt;Node7</title>
<g id="a_edge21_Node000017_Node000007"><a xlink:title=" ">
<path fill="none" stroke="#63b8ff" d="M369.8,-71.37C392.14,-60.54 430.68,-41.85 456.74,-29.22"/>
<polygon fill="#63b8ff" stroke="#63b8ff" points="458.59,-32.21 466.06,-24.7 455.53,-25.91 458.59,-32.21"/>
</a>
</g>
</g>
<!-- Node17&#45;&gt;Node11 -->
<g id="edge18_Node000017_Node000011" class="edge">
<title>Node17&#45;&gt;Node11</title>
<g id="a_edge18_Node000017_Node000011"><a xlink:title=" ">
<path fill="none" stroke="#63b8ff" d="M342.96,-71.37C332.43,-61.31 314.81,-44.48 301.76,-32.01"/>
<polygon fill="#63b8ff" stroke="#63b8ff" points="303.97,-29.28 294.32,-24.91 299.14,-34.34 303.97,-29.28"/>
</a>
</g>
</g>
<!-- Node17&#45;&gt;Node12 -->
<g id="edge24_Node000017_Node000012" class="edge">
<title>Node17&#45;&gt;Node12</title>
<g id="a_edge24_Node000017_Node000012"><a xlink:title=" ">
<path fill="none" stroke="#63b8ff" d="M391.35,-71.44C444.48,-59.87 539.17,-39.26 596.9,-26.69"/>
<polygon fill="#63b8ff" stroke="#63b8ff" points="597.86,-30.06 606.89,-24.51 596.37,-23.22 597.86,-30.06"/>
</a>
</g>
</g>
<!-- Node17&#45;&gt;Node16 -->
<g id="edge25_Node000017_Node000016" class="edge">
<title>Node17&#45;&gt;Node16</title>
<g id="a_edge25_Node000017_Node000016"><a xlink:title=" ">
<path fill="none" stroke="#63b8ff" d="M402.55,-73.74C471.36,-65.02 598.29,-48.21 706,-30 712.34,-28.93 718.98,-27.72 725.56,-26.49"/>
<polygon fill="#63b8ff" stroke="#63b8ff" points="726.61,-29.85 735.77,-24.52 725.29,-22.97 726.61,-29.85"/>
</a>
</g>
</g>
<!-- Node18 -->
<g id="Node000018" class="node">
<title>Node18</title>
<g id="a_Node000018"><a xlink:title=" ">
<polygon fill="#e0e0e0" stroke="#999999" points="375.5,-24.5 328.5,-24.5 328.5,-5.5 375.5,-5.5 375.5,-24.5"/>
<text text-anchor="middle" x="352" y="-12.5" font-family="Helvetica,sans-Serif" font-size="10.00">vector</text>
</a>
</g>
</g>
<!-- Node17&#45;&gt;Node18 -->
<g id="edge20_Node000017_Node000018" class="edge">
<title>Node17&#45;&gt;Node18</title>
<g id="a_edge20_Node000017_Node000018"><a xlink:title=" ">
<path fill="none" stroke="#63b8ff" d="M352,-71.37C352,-62.16 352,-47.29 352,-35.27"/>
<polygon fill="#63b8ff" stroke="#63b8ff" points="355.5,-34.91 352,-24.91 348.5,-34.91 355.5,-34.91"/>
</a>
</g>
</g>
<!-- Node19 -->
<g id="Node000019" class="node">
<title>Node19</title>
<g id="a_Node000019"><a xlink:title=" ">
<polygon fill="#e0e0e0" stroke="#999999" points="446.5,-24.5 393.5,-24.5 393.5,-5.5 446.5,-5.5 446.5,-24.5"/>
<text text-anchor="middle" x="420" y="-12.5" font-family="Helvetica,sans-Serif" font-size="10.00">stdint.h</text>
</a>
</g>
</g>
<!-- Node17&#45;&gt;Node19 -->
<g id="edge22_Node000017_Node000019" class="edge">
<title>Node17&#45;&gt;Node19</title>
<g id="a_edge22_Node000017_Node000019"><a xlink:title=" ">
<path fill="none" stroke="#63b8ff" d="M361.17,-71.37C371.86,-61.31 389.74,-44.48 402.99,-32.01"/>
<polygon fill="#63b8ff" stroke="#63b8ff" points="405.65,-34.31 410.54,-24.91 400.86,-29.21 405.65,-34.31"/>
</a>
</g>
</g>
<!-- Node20&#45;&gt;Node16 -->
<g id="edge29_Node000020_Node000016" class="edge">
<title>Node20&#45;&gt;Node16</title>
<g id="a_edge29_Node000020_Node000016"><a xlink:title=" ">
<path fill="none" stroke="#63b8ff" d="M958.68,-71.37C921.55,-60.05 856.29,-40.16 814.92,-27.56"/>
<polygon fill="#63b8ff" stroke="#63b8ff" points="815.79,-24.16 805.21,-24.6 813.75,-30.86 815.79,-24.16"/>
</a>
</g>
</g>
<!-- Node21 -->
<g id="Node000021" class="node">
<title>Node21</title>
<g id="a_Node000021"><a xlink:title=" ">
<polygon fill="#e0e0e0" stroke="#999999" points="1056,-30 918,-30 918,0 1056,0 1056,-30"/>
<text text-anchor="start" x="926" y="-18" font-family="Helvetica,sans-Serif" font-size="10.00">boost/type_traits/aligned</text>
<text text-anchor="middle" x="987" y="-7" font-family="Helvetica,sans-Serif" font-size="10.00">_storage.hpp</text>
</a>
</g>
</g>
<!-- Node20&#45;&gt;Node21 -->
<g id="edge27_Node000020_Node000021" class="edge">
<title>Node20&#45;&gt;Node21</title>
<g id="a_edge27_Node000020_Node000021"><a xlink:title=" ">
<path fill="none" stroke="#63b8ff" d="M987,-71.37C987,-63.49 987,-51.45 987,-40.6"/>
<polygon fill="#63b8ff" stroke="#63b8ff" points="990.5,-40.36 987,-30.36 983.5,-40.36 990.5,-40.36"/>
</a>
</g>
</g>
<!-- Node22 -->
<g id="Node000022" class="node">
<title>Node22</title>
<g id="a_Node000022"><a xlink:title=" ">
<polygon fill="#e0e0e0" stroke="#999999" points="900,-24.5 856,-24.5 856,-5.5 900,-5.5 900,-24.5"/>
<text text-anchor="middle" x="878" y="-12.5" font-family="Helvetica,sans-Serif" font-size="10.00">limits</text>
</a>
</g>
</g>
<!-- Node20&#45;&gt;Node22 -->
<g id="edge28_Node000020_Node000022" class="edge">
<title>Node20&#45;&gt;Node22</title>
<g id="a_edge28_Node000020_Node000022"><a xlink:title=" ">
<path fill="none" stroke="#63b8ff" d="M972.3,-71.37C954.18,-60.73 923.15,-42.51 901.66,-29.89"/>
<polygon fill="#63b8ff" stroke="#63b8ff" points="903.21,-26.74 892.82,-24.7 899.67,-32.78 903.21,-26.74"/>
</a>
</g>
</g>
<!-- Node23&#45;&gt;Node10 -->
<g id="edge35_Node000023_Node000010" class="edge">
<title>Node23&#45;&gt;Node10</title>
<g id="a_edge35_Node000023_Node000010"><a xlink:title=" ">
<path fill="none" stroke="#63b8ff" d="M1154.04,-71.45C1190.31,-63.05 1244.82,-48.76 1290,-30 1290.69,-29.71 1291.38,-29.41 1292.08,-29.1"/>
<polygon fill="#63b8ff" stroke="#63b8ff" points="1293.66,-32.22 1301.01,-24.59 1290.51,-25.97 1293.66,-32.22"/>
</a>
</g>
</g>
<!-- Node23&#45;&gt;Node12 -->
<g id="edge34_Node000023_Node000012" class="edge">
<title>Node23&#45;&gt;Node12</title>
<g id="a_edge34_Node000023_Node000012"><a xlink:title=" ">
<path fill="none" stroke="#63b8ff" d="M1081.95,-71.45C1073.55,-69.44 1064.47,-67.45 1056,-66 902.31,-39.65 860.84,-55.49 707,-30 701.44,-29.08 695.63,-27.96 689.89,-26.75"/>
<polygon fill="#63b8ff" stroke="#63b8ff" points="690.25,-23.25 679.73,-24.52 688.75,-30.08 690.25,-23.25"/>
</a>
</g>
</g>
<!-- Node23&#45;&gt;Node16 -->
<g id="edge36_Node000023_Node000016" class="edge">
<title>Node23&#45;&gt;Node16</title>
<g id="a_edge36_Node000023_Node000016"><a xlink:title=" ">
<path fill="none" stroke="#63b8ff" d="M1080.35,-71.48C1072.39,-69.57 1063.91,-67.63 1056,-66 963.69,-46.93 939.67,-47.24 847,-30 841.15,-28.91 835.02,-27.74 828.94,-26.55"/>
<polygon fill="#63b8ff" stroke="#63b8ff" points="829.28,-23.05 818.79,-24.55 827.93,-29.92 829.28,-23.05"/>
</a>
</g>
</g>
<!-- Node24 -->
<g id="Node000024" class="node">
<title>Node24</title>
<g id="a_Node000024"><a xlink:title=" ">
<polygon fill="#e0e0e0" stroke="#999999" points="1202.5,-24.5 1149.5,-24.5 1149.5,-5.5 1202.5,-5.5 1202.5,-24.5"/>
<text text-anchor="middle" x="1176" y="-12.5" font-family="Helvetica,sans-Serif" font-size="10.00">cstddef</text>
</a>
</g>
</g>
<!-- Node23&#45;&gt;Node24 -->
<g id="edge31_Node000023_Node000024" class="edge">
<title>Node23&#45;&gt;Node24</title>
<g id="a_edge31_Node000023_Node000024"><a xlink:title=" ">
<path fill="none" stroke="#63b8ff" d="M1122.36,-71.37C1132.01,-61.4 1148.11,-44.79 1160.15,-32.36"/>
<polygon fill="#63b8ff" stroke="#63b8ff" points="1162.93,-34.52 1167.37,-24.91 1157.9,-29.65 1162.93,-34.52"/>
</a>
</g>
</g>
<!-- Node23&#45;&gt;Node25 -->
<g id="edge32_Node000023_Node000025" class="edge">
<title>Node23&#45;&gt;Node25</title>
<g id="a_edge32_Node000023_Node000025"><a xlink:title=" ">
<path fill="none" stroke="#63b8ff" d="M1132.48,-71.37C1155.76,-60.49 1196.01,-41.69 1223.06,-29.05"/>
<polygon fill="#63b8ff" stroke="#63b8ff" points="1224.8,-32.1 1232.38,-24.7 1221.84,-25.76 1224.8,-32.1"/>
</a>
</g>
</g>
<!-- Node26 -->
<g id="Node000026" class="node">
<title>Node26</title>
<g id="a_Node000026"><a xlink:title=" ">
<polygon fill="#e0e0e0" stroke="#999999" points="1131.5,-24.5 1074.5,-24.5 1074.5,-5.5 1131.5,-5.5 1131.5,-24.5"/>
<text text-anchor="middle" x="1103" y="-12.5" font-family="Helvetica,sans-Serif" font-size="10.00">ostream</text>
</a>
</g>
</g>
<!-- Node23&#45;&gt;Node26 -->
<g id="edge33_Node000023_Node000026" class="edge">
<title>Node23&#45;&gt;Node26</title>
<g id="a_edge33_Node000023_Node000026"><a xlink:title=" ">
<path fill="none" stroke="#63b8ff" d="M1112.52,-71.37C1110.92,-62.07 1108.32,-46.98 1106.25,-34.9"/>
<polygon fill="#63b8ff" stroke="#63b8ff" points="1109.67,-34.17 1104.53,-24.91 1102.78,-35.35 1109.67,-34.17"/>
</a>
</g>
</g>
</g>
</svg>

<g id="navigator" transform="translate(0 0)" fill="#404254">
  <rect fill="#f2f5e9" fill-opacity="0.5" stroke="#606060" stroke-width=".5" x="0" y="0" width="60" height="60"/>
  <use id="zoomplus" xlink:href="#zoomPlus" x="17" y="9" onmousedown="handleZoom(evt,'in')"/>
  <use id="zoomminus" xlink:href="#zoomMin" x="42" y="9" onmousedown="handleZoom(evt,'out')"/>
  <use id="reset" xlink:href="#resetDef" x="30" y="36" onmousedown="handleReset()"/>
   <use id="arrowup" xlink:href="#arrowUp" x="0" y="0" onmousedown="handlePan(0,-1)"/>
  <use id="arrowright" xlink:href="#arrowRight" x="0" y="0" onmousedown="handlePan(1,0)"/>
  <use id="arrowdown" xlink:href="#arrowDown" x="0" y="0" onmousedown="handlePan(0,1)"/>
  <use id="arrowleft" xlink:href="#arrowLeft" x="0" y="0" onmousedown="handlePan(-1,0)"/>
</g>
<svg viewBox="0 0 15 15" width="100%" height="30px" preserveAspectRatio="xMaxYMin meet">
 <g id="arrow_out" transform="scale(0.3 0.3)">
  <a xlink:href="pbd_2pbd_2system__exec_8h__incl_org.svg" target="_base">
   <rect id="button" ry="5" rx="5" y="6" x="6" height="38" width="38"
        fill="#f2f5e9" fill-opacity="0.5" stroke="#606060" stroke-width="1.0"/>
   <path id="arrow"
     d="M 11.500037,31.436501 C 11.940474,20.09759 22.043105,11.32322 32.158766,21.979434 L 37.068811,17.246167 C 37.068811,17.246167 37.088388,32 37.088388,32 L 22.160133,31.978069 C 22.160133,31.978069 26.997745,27.140456 26.997745,27.140456 C 18.528582,18.264221 13.291696,25.230495 11.500037,31.436501 z"
     style="fill:#404040;"/>
  </a>
 </g>
</svg>

<style type='text/css'>
<![CDATA[
[data-mouse-over-selected='false'] { opacity: 0.7; }
[data-mouse-over-selected='true']  { opacity: 1.0; }
]]>
</style>
<script type="application/ecmascript"><![CDATA[
document.addEventListener('DOMContentLoaded', (event) => {
  highlightEdges();
  highlightAdjacentNodes();
});
]]></script>
</svg>
