<?xml version="1.0" encoding="UTF-8" standalone="no"?>
<!DOCTYPE svg PUBLIC "-//W3C//DTD SVG 1.1//EN"
 "http://www.w3.org/Graphics/SVG/1.1/DTD/svg11.dtd">
<!-- Generated by graphviz version 2.43.0 (0)
 -->
<!-- Title: port_set.h Pages: 1 -->
<svg width="1061pt" height="247pt"
 viewBox="0.00 0.00 1061.00 247.00" xmlns="http://www.w3.org/2000/svg" xmlns:xlink="http://www.w3.org/1999/xlink">
<g id="graph0" class="graph" transform="scale(1 1) rotate(0) translate(4 243)">
<title>port_set.h</title>
<!-- Node1 -->
<g id="Node000001" class="node">
<title>Node1</title>
<g id="a_Node000001"><a xlink:title=" ">
<polygon fill="#999999" stroke="#666666" points="297,-239 232,-239 232,-220 297,-220 297,-239"/>
<text text-anchor="middle" x="264.5" y="-227" font-family="Helvetica,sans-Serif" font-size="10.00">port_set.h</text>
</a>
</g>
</g>
<!-- Node2 -->
<g id="Node000002" class="node">
<title>Node2</title>
<g id="a_Node000002"><a xlink:title=" ">
<polygon fill="#e0e0e0" stroke="#999999" points="47,-74 0,-74 0,-55 47,-55 47,-74"/>
<text text-anchor="middle" x="23.5" y="-62" font-family="Helvetica,sans-Serif" font-size="10.00">vector</text>
</a>
</g>
</g>
<!-- Node1&#45;&gt;Node2 -->
<g id="edge1_Node000001_Node000002" class="edge">
<title>Node1&#45;&gt;Node2</title>
<g id="a_edge1_Node000001_Node000002"><a xlink:title=" ">
<path fill="none" stroke="#63b8ff" d="M251.88,-219.97C212.85,-193.57 93.76,-113.02 44.83,-79.93"/>
<polygon fill="#63b8ff" stroke="#63b8ff" points="46.53,-76.85 36.28,-74.15 42.61,-82.65 46.53,-76.85"/>
</a>
</g>
</g>
<!-- Node3 -->
<g id="Node000003" class="node">
<title>Node3</title>
<g id="a_Node000003"><a xlink:href="chan__count_8h.html" target="_top" xlink:title=" ">
<polygon fill="white" stroke="#666666" points="543.5,-184 427.5,-184 427.5,-165 543.5,-165 543.5,-184"/>
<text text-anchor="middle" x="485.5" y="-172" font-family="Helvetica,sans-Serif" font-size="10.00">ardour/chan_count.h</text>
</a>
</g>
</g>
<!-- Node1&#45;&gt;Node3 -->
<g id="edge2_Node000001_Node000003" class="edge">
<title>Node1&#45;&gt;Node3</title>
<g id="a_edge2_Node000001_Node000003"><a xlink:title=" ">
<path fill="none" stroke="#63b8ff" d="M297.11,-220.68C334.9,-211.62 397.43,-196.62 439.99,-186.41"/>
<polygon fill="#63b8ff" stroke="#63b8ff" points="440.92,-189.79 449.82,-184.06 439.28,-182.98 440.92,-189.79"/>
</a>
</g>
</g>
<!-- Node4 -->
<g id="Node000004" class="node">
<title>Node4</title>
<g id="a_Node000004"><a xlink:title=" ">
<polygon fill="#e0e0e0" stroke="#999999" points="565.5,-129 513.5,-129 513.5,-110 565.5,-110 565.5,-129"/>
<text text-anchor="middle" x="539.5" y="-117" font-family="Helvetica,sans-Serif" font-size="10.00">cassert</text>
</a>
</g>
</g>
<!-- Node3&#45;&gt;Node4 -->
<g id="edge3_Node000003_Node000004" class="edge">
<title>Node3&#45;&gt;Node4</title>
<g id="a_edge3_Node000003_Node000004"><a xlink:title=" ">
<path fill="none" stroke="#63b8ff" d="M494.42,-164.75C502.28,-157.03 513.93,-145.6 523.42,-136.28"/>
<polygon fill="#63b8ff" stroke="#63b8ff" points="526.06,-138.59 530.75,-129.09 521.16,-133.6 526.06,-138.59"/>
</a>
</g>
</g>
<!-- Node5 -->
<g id="Node000005" class="node">
<title>Node5</title>
<g id="a_Node000005"><a xlink:title=" ">
<polygon fill="#e0e0e0" stroke="#999999" points="641,-129 584,-129 584,-110 641,-110 641,-129"/>
<text text-anchor="middle" x="612.5" y="-117" font-family="Helvetica,sans-Serif" font-size="10.00">ostream</text>
</a>
</g>
</g>
<!-- Node3&#45;&gt;Node5 -->
<g id="edge4_Node000003_Node000005" class="edge">
<title>Node3&#45;&gt;Node5</title>
<g id="a_edge4_Node000003_Node000005"><a xlink:title=" ">
<path fill="none" stroke="#63b8ff" d="M505.9,-164.98C526.52,-156.38 558.61,-142.99 582.19,-133.15"/>
<polygon fill="#63b8ff" stroke="#63b8ff" points="583.84,-136.25 591.72,-129.17 581.15,-129.79 583.84,-136.25"/>
</a>
</g>
</g>
<!-- Node6 -->
<g id="Node000006" class="node">
<title>Node6</title>
<g id="a_Node000006"><a xlink:href="xml_09_09_8h.html" target="_top" xlink:title=" ">
<polygon fill="white" stroke="#666666" points="457.5,-129 375.5,-129 375.5,-110 457.5,-110 457.5,-129"/>
<text text-anchor="middle" x="416.5" y="-117" font-family="Helvetica,sans-Serif" font-size="10.00">pbd/xml++.h</text>
</a>
</g>
</g>
<!-- Node3&#45;&gt;Node6 -->
<g id="edge5_Node000003_Node000006" class="edge">
<title>Node3&#45;&gt;Node6</title>
<g id="a_edge5_Node000003_Node000006"><a xlink:title=" ">
<path fill="none" stroke="#63b8ff" d="M474.41,-164.98C464.01,-157 448.24,-144.88 435.78,-135.31"/>
<polygon fill="#63b8ff" stroke="#63b8ff" points="437.85,-132.49 427.79,-129.17 433.59,-138.04 437.85,-132.49"/>
</a>
</g>
</g>
<!-- Node17 -->
<g id="Node000017" class="node">
<title>Node17</title>
<g id="a_Node000017"><a xlink:href="data__type_8h.html" target="_top" xlink:title=" ">
<polygon fill="white" stroke="#666666" points="919,-74 810,-74 810,-55 919,-55 919,-74"/>
<text text-anchor="middle" x="864.5" y="-62" font-family="Helvetica,sans-Serif" font-size="10.00">ardour/data_type.h</text>
</a>
</g>
</g>
<!-- Node3&#45;&gt;Node17 -->
<g id="edge19_Node000003_Node000017" class="edge">
<title>Node3&#45;&gt;Node17</title>
<g id="a_edge19_Node000003_Node000017"><a xlink:title=" ">
<path fill="none" stroke="#63b8ff" d="M485.31,-164.95C485.52,-151.07 488.14,-123.8 504.5,-110 552.98,-69.12 719.57,-81.17 799.47,-73.92"/>
<polygon fill="#63b8ff" stroke="#63b8ff" points="800.12,-77.37 809.69,-72.82 799.38,-70.41 800.12,-77.37"/>
</a>
</g>
</g>
<!-- Node6&#45;&gt;Node2 -->
<g id="edge10_Node000006_Node000002" class="edge">
<title>Node6&#45;&gt;Node2</title>
<g id="a_edge10_Node000006_Node000002"><a xlink:title=" ">
<path fill="none" stroke="#63b8ff" d="M375.34,-115.27C309.86,-109.74 177.83,-96.95 57.32,-74.13"/>
<polygon fill="#63b8ff" stroke="#63b8ff" points="57.66,-70.63 47.18,-72.18 56.34,-77.5 57.66,-70.63"/>
</a>
</g>
</g>
<!-- Node7 -->
<g id="Node000007" class="node">
<title>Node7</title>
<g id="a_Node000007"><a xlink:title=" ">
<polygon fill="#e0e0e0" stroke="#999999" points="517,-74 464,-74 464,-55 517,-55 517,-74"/>
<text text-anchor="middle" x="490.5" y="-62" font-family="Helvetica,sans-Serif" font-size="10.00">cstdarg</text>
</a>
</g>
</g>
<!-- Node6&#45;&gt;Node7 -->
<g id="edge6_Node000006_Node000007" class="edge">
<title>Node6&#45;&gt;Node7</title>
<g id="a_edge6_Node000006_Node000007"><a xlink:title=" ">
<path fill="none" stroke="#63b8ff" d="M428.39,-109.98C439.65,-101.92 456.79,-89.65 470.21,-80.03"/>
<polygon fill="#63b8ff" stroke="#63b8ff" points="472.3,-82.84 478.39,-74.17 468.23,-77.15 472.3,-82.84"/>
</a>
</g>
</g>
<!-- Node8 -->
<g id="Node000008" class="node">
<title>Node8</title>
<g id="a_Node000008"><a xlink:title=" ">
<polygon fill="#e0e0e0" stroke="#999999" points="581.5,-74 535.5,-74 535.5,-55 581.5,-55 581.5,-74"/>
<text text-anchor="middle" x="558.5" y="-62" font-family="Helvetica,sans-Serif" font-size="10.00">cstdio</text>
</a>
</g>
</g>
<!-- Node6&#45;&gt;Node8 -->
<g id="edge7_Node000006_Node000008" class="edge">
<title>Node6&#45;&gt;Node8</title>
<g id="a_edge7_Node000006_Node000008"><a xlink:title=" ">
<path fill="none" stroke="#63b8ff" d="M439.31,-109.98C462.67,-101.27 499.2,-87.63 525.67,-77.75"/>
<polygon fill="#63b8ff" stroke="#63b8ff" points="527.13,-80.95 535.27,-74.17 524.68,-74.39 527.13,-80.95"/>
</a>
</g>
</g>
<!-- Node9 -->
<g id="Node000009" class="node">
<title>Node9</title>
<g id="a_Node000009"><a xlink:title=" ">
<polygon fill="#e0e0e0" stroke="#999999" points="657.5,-74 599.5,-74 599.5,-55 657.5,-55 657.5,-74"/>
<text text-anchor="middle" x="628.5" y="-62" font-family="Helvetica,sans-Serif" font-size="10.00">memory</text>
</a>
</g>
</g>
<!-- Node6&#45;&gt;Node9 -->
<g id="edge8_Node000006_Node000009" class="edge">
<title>Node6&#45;&gt;Node9</title>
<g id="a_edge8_Node000006_Node000009"><a xlink:title=" ">
<path fill="none" stroke="#63b8ff" d="M450.56,-109.98C488.46,-100.51 549.6,-85.23 589.42,-75.27"/>
<polygon fill="#63b8ff" stroke="#63b8ff" points="590.45,-78.62 599.3,-72.8 588.75,-71.83 590.45,-78.62"/>
</a>
</g>
</g>
<!-- Node10 -->
<g id="Node000010" class="node">
<title>Node10</title>
<g id="a_Node000010"><a xlink:title=" ">
<polygon fill="#e0e0e0" stroke="#999999" points="752.5,-19 708.5,-19 708.5,0 752.5,0 752.5,-19"/>
<text text-anchor="middle" x="730.5" y="-7" font-family="Helvetica,sans-Serif" font-size="10.00">string</text>
</a>
</g>
</g>
<!-- Node6&#45;&gt;Node10 -->
<g id="edge9_Node000006_Node000010" class="edge">
<title>Node6&#45;&gt;Node10</title>
<g id="a_edge9_Node000006_Node000010"><a xlink:title=" ">
<path fill="none" stroke="#63b8ff" d="M419.17,-109.86C423.98,-95.85 435.51,-68.39 455.5,-55 494.72,-28.73 634.02,-16.65 697.98,-12.39"/>
<polygon fill="#63b8ff" stroke="#63b8ff" points="698.53,-15.86 708.28,-11.73 698.08,-8.88 698.53,-15.86"/>
</a>
</g>
</g>
<!-- Node11 -->
<g id="Node000011" class="node">
<title>Node11</title>
<g id="a_Node000011"><a xlink:title=" ">
<polygon fill="#e0e0e0" stroke="#999999" points="154,-74 65,-74 65,-55 154,-55 154,-74"/>
<text text-anchor="middle" x="109.5" y="-62" font-family="Helvetica,sans-Serif" font-size="10.00">libxml/parser.h</text>
</a>
</g>
</g>
<!-- Node6&#45;&gt;Node11 -->
<g id="edge11_Node000006_Node000011" class="edge">
<title>Node6&#45;&gt;Node11</title>
<g id="a_edge11_Node000006_Node000011"><a xlink:title=" ">
<path fill="none" stroke="#63b8ff" d="M375.42,-111.41C320.97,-102.01 224.76,-85.4 164.21,-74.94"/>
<polygon fill="#63b8ff" stroke="#63b8ff" points="164.52,-71.45 154.07,-73.19 163.33,-78.35 164.52,-71.45"/>
</a>
</g>
</g>
<!-- Node12 -->
<g id="Node000012" class="node">
<title>Node12</title>
<g id="a_Node000012"><a xlink:title=" ">
<polygon fill="#e0e0e0" stroke="#999999" points="251,-74 172,-74 172,-55 251,-55 251,-74"/>
<text text-anchor="middle" x="211.5" y="-62" font-family="Helvetica,sans-Serif" font-size="10.00">libxml/tree.h</text>
</a>
</g>
</g>
<!-- Node6&#45;&gt;Node12 -->
<g id="edge12_Node000006_Node000012" class="edge">
<title>Node6&#45;&gt;Node12</title>
<g id="a_edge12_Node000006_Node000012"><a xlink:title=" ">
<path fill="none" stroke="#63b8ff" d="M383.56,-109.98C348.55,-100.93 293.03,-86.58 254.57,-76.64"/>
<polygon fill="#63b8ff" stroke="#63b8ff" points="255.25,-73.2 244.69,-74.08 253.5,-79.97 255.25,-73.2"/>
</a>
</g>
</g>
<!-- Node13 -->
<g id="Node000013" class="node">
<title>Node13</title>
<g id="a_Node000013"><a xlink:title=" ">
<polygon fill="#e0e0e0" stroke="#999999" points="369.5,-74 269.5,-74 269.5,-55 369.5,-55 369.5,-74"/>
<text text-anchor="middle" x="319.5" y="-62" font-family="Helvetica,sans-Serif" font-size="10.00">glibmm/ustring.h</text>
</a>
</g>
</g>
<!-- Node6&#45;&gt;Node13 -->
<g id="edge13_Node000006_Node000013" class="edge">
<title>Node6&#45;&gt;Node13</title>
<g id="a_edge13_Node000006_Node000013"><a xlink:title=" ">
<path fill="none" stroke="#63b8ff" d="M400.92,-109.98C385.73,-101.69 362.4,-88.94 344.6,-79.22"/>
<polygon fill="#63b8ff" stroke="#63b8ff" points="345.82,-75.89 335.37,-74.17 342.47,-82.04 345.82,-75.89"/>
</a>
</g>
</g>
<!-- Node14 -->
<g id="Node000014" class="node">
<title>Node14</title>
<g id="a_Node000014"><a xlink:href="string__convert_8h.html" target="_top" xlink:title=" ">
<polygon fill="white" stroke="#666666" points="791.5,-74 675.5,-74 675.5,-55 791.5,-55 791.5,-74"/>
<text text-anchor="middle" x="733.5" y="-62" font-family="Helvetica,sans-Serif" font-size="10.00">pbd/string_convert.h</text>
</a>
</g>
</g>
<!-- Node6&#45;&gt;Node14 -->
<g id="edge14_Node000006_Node000014" class="edge">
<title>Node6&#45;&gt;Node14</title>
<g id="a_edge14_Node000006_Node000014"><a xlink:title=" ">
<path fill="none" stroke="#63b8ff" d="M457.62,-111.63C512.21,-102.5 609.06,-86.31 672.27,-75.74"/>
<polygon fill="#63b8ff" stroke="#63b8ff" points="673.21,-79.13 682.5,-74.03 672.06,-72.22 673.21,-79.13"/>
</a>
</g>
</g>
<!-- Node16 -->
<g id="Node000016" class="node">
<title>Node16</title>
<g id="a_Node000016"><a xlink:href="libpbd__visibility_8h.html" target="_top" xlink:title=" ">
<polygon fill="white" stroke="#666666" points="574.5,-19 452.5,-19 452.5,0 574.5,0 574.5,-19"/>
<text text-anchor="middle" x="513.5" y="-7" font-family="Helvetica,sans-Serif" font-size="10.00">pbd/libpbd_visibility.h</text>
</a>
</g>
</g>
<!-- Node6&#45;&gt;Node16 -->
<g id="edge18_Node000006_Node000016" class="edge">
<title>Node6&#45;&gt;Node16</title>
<g id="a_edge18_Node000006_Node000016"><a xlink:title=" ">
<path fill="none" stroke="#63b8ff" d="M414.67,-109.82C412.41,-96.7 410.15,-71.62 421.5,-55 431.96,-39.69 449.21,-29.47 465.96,-22.73"/>
<polygon fill="#63b8ff" stroke="#63b8ff" points="467.53,-25.88 475.71,-19.15 465.12,-19.31 467.53,-25.88"/>
</a>
</g>
</g>
<!-- Node14&#45;&gt;Node10 -->
<g id="edge15_Node000014_Node000010" class="edge">
<title>Node14&#45;&gt;Node10</title>
<g id="a_edge15_Node000014_Node000010"><a xlink:title=" ">
<path fill="none" stroke="#63b8ff" d="M733,-54.75C732.61,-47.8 732.05,-37.85 731.55,-29.13"/>
<polygon fill="#63b8ff" stroke="#63b8ff" points="735.05,-28.88 730.99,-19.09 728.06,-29.27 735.05,-28.88"/>
</a>
</g>
</g>
<!-- Node15 -->
<g id="Node000015" class="node">
<title>Node15</title>
<g id="a_Node000015"><a xlink:title=" ">
<polygon fill="#e0e0e0" stroke="#999999" points="824,-19 771,-19 771,0 824,0 824,-19"/>
<text text-anchor="middle" x="797.5" y="-7" font-family="Helvetica,sans-Serif" font-size="10.00">stdint.h</text>
</a>
</g>
</g>
<!-- Node14&#45;&gt;Node15 -->
<g id="edge16_Node000014_Node000015" class="edge">
<title>Node14&#45;&gt;Node15</title>
<g id="a_edge16_Node000014_Node000015"><a xlink:title=" ">
<path fill="none" stroke="#63b8ff" d="M743.78,-54.98C753.34,-47.07 767.78,-35.11 779.28,-25.58"/>
<polygon fill="#63b8ff" stroke="#63b8ff" points="781.56,-28.24 787.03,-19.17 777.1,-22.85 781.56,-28.24"/>
</a>
</g>
</g>
<!-- Node14&#45;&gt;Node16 -->
<g id="edge17_Node000014_Node000016" class="edge">
<title>Node14&#45;&gt;Node16</title>
<g id="a_edge17_Node000014_Node000016"><a xlink:title=" ">
<path fill="none" stroke="#63b8ff" d="M698.15,-54.98C660.34,-45.87 600.24,-31.4 558.93,-21.45"/>
<polygon fill="#63b8ff" stroke="#63b8ff" points="559.67,-18.02 549.12,-19.08 558.03,-24.83 559.67,-18.02"/>
</a>
</g>
</g>
<!-- Node17&#45;&gt;Node10 -->
<g id="edge20_Node000017_Node000010" class="edge">
<title>Node17&#45;&gt;Node10</title>
<g id="a_edge20_Node000017_Node000010"><a xlink:title=" ">
<path fill="none" stroke="#63b8ff" d="M842.97,-54.98C821.03,-46.3 786.76,-32.75 761.81,-22.88"/>
<polygon fill="#63b8ff" stroke="#63b8ff" points="763.01,-19.59 752.42,-19.17 760.43,-26.1 763.01,-19.59"/>
</a>
</g>
</g>
<!-- Node17&#45;&gt;Node15 -->
<g id="edge21_Node000017_Node000015" class="edge">
<title>Node17&#45;&gt;Node15</title>
<g id="a_edge21_Node000017_Node000015"><a xlink:title=" ">
<path fill="none" stroke="#63b8ff" d="M853.74,-54.98C843.73,-47.07 828.61,-35.11 816.57,-25.58"/>
<polygon fill="#63b8ff" stroke="#63b8ff" points="818.47,-22.63 808.46,-19.17 814.13,-28.12 818.47,-22.63"/>
</a>
</g>
</g>
<!-- Node18 -->
<g id="Node000018" class="node">
<title>Node18</title>
<g id="a_Node000018"><a xlink:title=" ">
<polygon fill="#e0e0e0" stroke="#999999" points="886.5,-19 842.5,-19 842.5,0 886.5,0 886.5,-19"/>
<text text-anchor="middle" x="864.5" y="-7" font-family="Helvetica,sans-Serif" font-size="10.00">glib.h</text>
</a>
</g>
</g>
<!-- Node17&#45;&gt;Node18 -->
<g id="edge22_Node000017_Node000018" class="edge">
<title>Node17&#45;&gt;Node18</title>
<g id="a_edge22_Node000017_Node000018"><a xlink:title=" ">
<path fill="none" stroke="#63b8ff" d="M864.5,-54.75C864.5,-47.8 864.5,-37.85 864.5,-29.13"/>
<polygon fill="#63b8ff" stroke="#63b8ff" points="868,-29.09 864.5,-19.09 861,-29.09 868,-29.09"/>
</a>
</g>
</g>
<!-- Node19 -->
<g id="Node000019" class="node">
<title>Node19</title>
<g id="a_Node000019"><a xlink:href="libardour__visibility_8h.html" target="_top" xlink:title=" ">
<polygon fill="white" stroke="#666666" points="1053,-19 904,-19 904,0 1053,0 1053,-19"/>
<text text-anchor="middle" x="978.5" y="-7" font-family="Helvetica,sans-Serif" font-size="10.00">ardour/libardour_visibility.h</text>
</a>
</g>
</g>
<!-- Node17&#45;&gt;Node19 -->
<g id="edge23_Node000017_Node000019" class="edge">
<title>Node17&#45;&gt;Node19</title>
<g id="a_edge23_Node000017_Node000019"><a xlink:title=" ">
<path fill="none" stroke="#63b8ff" d="M882.82,-54.98C901.16,-46.46 929.61,-33.23 950.73,-23.41"/>
<polygon fill="#63b8ff" stroke="#63b8ff" points="952.26,-26.56 959.85,-19.17 949.31,-20.21 952.26,-26.56"/>
</a>
</g>
</g>
</g>
</svg>
