<?xml version="1.0" encoding="UTF-8" standalone="no"?>
<!DOCTYPE svg PUBLIC "-//W3C//DTD SVG 1.1//EN"
 "http://www.w3.org/Graphics/SVG/1.1/DTD/svg11.dtd">
<!-- Generated by graphviz version 2.43.0 (0)
 -->
<!-- Title: receiver.h Pages: 1 -->
<!--zoomable 269 -->

<svg id="main" version="1.1" xmlns="http://www.w3.org/2000/svg" xmlns:xlink="http://www.w3.org/1999/xlink" xml:space="preserve" onload="init(evt)">
<style type="text/css"><![CDATA[
.node, .edge {opacity: 0.7;}
.node.selected, .edge.selected {opacity: 1;}
.edge:hover path { stroke: red; }
.edge:hover polygon { stroke: red; fill: red; }
]]></style>

<defs>
  <circle id="rim" cx="0" cy="0" r="7"/>
  <circle id="rim2" cx="0" cy="0" r="3.5"/>
  <g id="zoomPlus">
    <use xlink:href="#rim" fill="#404040"><set attributeName="fill" to="#808080" begin="zoomplus.mouseover" end="zoomplus.mouseout"/></use>
    <path d="M-4,0h8M0,-4v8" fill="none" stroke="white" stroke-width="1.5" pointer-events="none"/>
  </g>
  <g id="zoomMin">
    <use xlink:href="#rim" fill="#404040"><set attributeName="fill" to="#808080" begin="zoomminus.mouseover" end="zoomminus.mouseout"/></use>
    <path d="M-4,0h8" fill="none" stroke="white" stroke-width="1.5" pointer-events="none"/>
  </g>
  <g id="arrowUp" transform="translate(30 24)">
    <use xlink:href="#rim"/>
    <path pointer-events="none" fill="none" stroke="white" stroke-width="1.5" d="M0,-3.0v7 M-2.5,-0.5L0,-3.0L2.5,-0.5"/>
  </g>
  <g id="arrowRight" transform="rotate(90) translate(36 -43)">
    <use xlink:href="#rim"/>
    <path pointer-events="none" fill="none" stroke="white" stroke-width="1.5" d="M0,-3.0v7 M-2.5,-0.5L0,-3.0L2.5,-0.5"/>
  </g>
  <g id="arrowDown" transform="rotate(180) translate(-30 -48)">
    <use xlink:href="#rim"/>
    <path pointer-events="none" fill="none" stroke="white" stroke-width="1.5" d="M0,-3.0v7 M-2.5,-0.5L0,-3.0L2.5,-0.5"/>
  </g>
  <g id="arrowLeft" transform="rotate(270) translate(-36 17)">
    <use xlink:href="#rim"/>
    <path pointer-events="none" fill="none" stroke="white" stroke-width="1.5" d="M0,-3.0v7 M-2.5,-0.5L0,-3.0L2.5,-0.5"/>
  </g>
  <g id="resetDef">
    <use xlink:href="#rim2" fill="#404040"><set attributeName="fill" to="#808080" begin="reset.mouseover" end="reset.mouseout"/></use>
  </g>
</defs>
<script type="application/ecmascript">
var viewWidth = 1342;
var viewHeight = 269;
var sectionId = 'dynsection-0';
</script>
<script type="application/ecmascript" xlink:href="svg.min.js"/>
<svg id="graph" class="graph">
<g id="viewport">
<title>receiver.h</title>
<!-- Node1 -->
<g id="Node000001" class="node">
<title>Node1</title>
<g id="a_Node000001"><a xlink:title=" ">
<polygon fill="#999999" stroke="#666666" points="512,-261 447,-261 447,-242 512,-242 512,-261"/>
<text text-anchor="middle" x="479.5" y="-249" font-family="Helvetica,sans-Serif" font-size="10.00">receiver.h</text>
</a>
</g>
</g>
<!-- Node2 -->
<g id="Node000002" class="node">
<title>Node2</title>
<g id="a_Node000002"><a xlink:title=" ">
<polygon fill="#e0e0e0" stroke="#999999" points="47,-24.5 0,-24.5 0,-5.5 47,-5.5 47,-24.5"/>
<text text-anchor="middle" x="23.5" y="-12.5" font-family="Helvetica,sans-Serif" font-size="10.00">vector</text>
</a>
</g>
</g>
<!-- Node1&#45;&gt;Node2 -->
<g id="edge1_Node000001_Node000002" class="edge">
<title>Node1&#45;&gt;Node2</title>
<g id="a_edge1_Node000001_Node000002"><a xlink:title=" ">
<path fill="none" stroke="#63b8ff" d="M453.97,-241.89C394.21,-221.21 241.51,-165.27 125.5,-96 93.35,-76.8 59.91,-48.77 40.43,-31.49"/>
<polygon fill="#63b8ff" stroke="#63b8ff" points="42.53,-28.67 32.75,-24.59 37.85,-33.88 42.53,-28.67"/>
</a>
</g>
</g>
<!-- Node3 -->
<g id="Node000003" class="node">
<title>Node3</title>
<g id="a_Node000003"><a xlink:title=" ">
<polygon fill="#e0e0e0" stroke="#999999" points="491,-206 390,-206 390,-187 491,-187 491,-206"/>
<text text-anchor="middle" x="440.5" y="-194" font-family="Helvetica,sans-Serif" font-size="10.00">sigc++/sigc++.h</text>
</a>
</g>
</g>
<!-- Node1&#45;&gt;Node3 -->
<g id="edge2_Node000001_Node000003" class="edge">
<title>Node1&#45;&gt;Node3</title>
<g id="a_edge2_Node000001_Node000003"><a xlink:title=" ">
<path fill="none" stroke="#63b8ff" d="M473.06,-241.75C467.61,-234.34 459.64,-223.5 452.94,-214.41"/>
<polygon fill="#63b8ff" stroke="#63b8ff" points="455.57,-212.07 446.82,-206.09 449.93,-216.22 455.57,-212.07"/>
</a>
</g>
</g>
<!-- Node4 -->
<g id="Node000004" class="node">
<title>Node4</title>
<g id="a_Node000004"><a xlink:href="libpbd__visibility_8h.html" target="_top" xlink:title=" ">
<polygon fill="white" stroke="#666666" points="865.5,-24.5 743.5,-24.5 743.5,-5.5 865.5,-5.5 865.5,-24.5"/>
<text text-anchor="middle" x="804.5" y="-12.5" font-family="Helvetica,sans-Serif" font-size="10.00">pbd/libpbd_visibility.h</text>
</a>
</g>
</g>
<!-- Node1&#45;&gt;Node4 -->
<g id="edge3_Node000001_Node000004" class="edge">
<title>Node1&#45;&gt;Node4</title>
<g id="a_edge3_Node000001_Node000004"><a xlink:title=" ">
<path fill="none" stroke="#63b8ff" d="M483.54,-241.98C487.78,-233.02 494.63,-218.53 500.5,-206 529.58,-143.87 511.78,-108.66 565.5,-66 567.35,-64.53 682.78,-40.81 752.53,-26.57"/>
<polygon fill="#63b8ff" stroke="#63b8ff" points="753.37,-29.98 762.47,-24.55 751.97,-23.12 753.37,-29.98"/>
</a>
</g>
</g>
<!-- Node5 -->
<g id="Node000005" class="node">
<title>Node5</title>
<g id="a_Node000005"><a xlink:href="transmitter_8h.html" target="_top" xlink:title=" ">
<polygon fill="white" stroke="#666666" points="1027.5,-206 947.5,-206 947.5,-187 1027.5,-187 1027.5,-206"/>
<text text-anchor="middle" x="987.5" y="-194" font-family="Helvetica,sans-Serif" font-size="10.00">transmitter.h</text>
</a>
</g>
</g>
<!-- Node1&#45;&gt;Node5 -->
<g id="edge4_Node000001_Node000005" class="edge">
<title>Node1&#45;&gt;Node5</title>
<g id="a_edge4_Node000001_Node000005"><a xlink:title=" ">
<path fill="none" stroke="#63b8ff" d="M512.05,-247.1C598.32,-238.1 833.34,-213.58 937.1,-202.76"/>
<polygon fill="#63b8ff" stroke="#63b8ff" points="937.74,-206.21 947.32,-201.69 937.01,-199.25 937.74,-206.21"/>
</a>
</g>
</g>
<!-- Node5&#45;&gt;Node4 -->
<g id="edge38_Node000005_Node000004" class="edge">
<title>Node5&#45;&gt;Node4</title>
<g id="a_edge38_Node000005_Node000004"><a xlink:title=" ">
<path fill="none" stroke="#63b8ff" d="M986.06,-186.96C981.78,-164.18 967.11,-101.29 930.5,-66 910.77,-46.98 882.91,-34.92 858.41,-27.42"/>
<polygon fill="#63b8ff" stroke="#63b8ff" points="859.08,-23.97 848.5,-24.57 857.15,-30.7 859.08,-23.97"/>
</a>
</g>
</g>
<!-- Node6 -->
<g id="Node000006" class="node">
<title>Node6</title>
<g id="a_Node000006"><a xlink:title=" ">
<polygon fill="#e0e0e0" stroke="#999999" points="1333.5,-151 1277.5,-151 1277.5,-132 1333.5,-132 1333.5,-151"/>
<text text-anchor="middle" x="1305.5" y="-139" font-family="Helvetica,sans-Serif" font-size="10.00">sstream</text>
</a>
</g>
</g>
<!-- Node5&#45;&gt;Node6 -->
<g id="edge5_Node000005_Node000006" class="edge">
<title>Node5&#45;&gt;Node6</title>
<g id="a_edge5_Node000005_Node000006"><a xlink:title=" ">
<path fill="none" stroke="#63b8ff" d="M1027.81,-189.52C1081.64,-181.41 1179.93,-166.19 1263.5,-151 1264.6,-150.8 1265.71,-150.6 1266.83,-150.39"/>
<polygon fill="#63b8ff" stroke="#63b8ff" points="1267.91,-153.74 1277.06,-148.41 1266.58,-146.87 1267.91,-153.74"/>
</a>
</g>
</g>
<!-- Node7 -->
<g id="Node000007" class="node">
<title>Node7</title>
<g id="a_Node000007"><a xlink:title=" ">
<polygon fill="#e0e0e0" stroke="#999999" points="1241.5,-24.5 1181.5,-24.5 1181.5,-5.5 1241.5,-5.5 1241.5,-24.5"/>
<text text-anchor="middle" x="1211.5" y="-12.5" font-family="Helvetica,sans-Serif" font-size="10.00">iostream</text>
</a>
</g>
</g>
<!-- Node5&#45;&gt;Node7 -->
<g id="edge6_Node000005_Node000007" class="edge">
<title>Node5&#45;&gt;Node7</title>
<g id="a_edge6_Node000005_Node000007"><a xlink:title=" ">
<path fill="none" stroke="#63b8ff" d="M1027.56,-191.07C1080.79,-182.78 1172.95,-159.57 1214.5,-96 1226.41,-77.77 1222.62,-51.89 1217.88,-34.55"/>
<polygon fill="#63b8ff" stroke="#63b8ff" points="1221.09,-33.07 1214.79,-24.56 1214.4,-35.14 1221.09,-33.07"/>
</a>
</g>
</g>
<!-- Node8 -->
<g id="Node000008" class="node">
<title>Node8</title>
<g id="a_Node000008"><a xlink:href="signals_8h.html" target="_top" xlink:title=" ">
<polygon fill="white" stroke="#666666" points="759,-151 678,-151 678,-132 759,-132 759,-151"/>
<text text-anchor="middle" x="718.5" y="-139" font-family="Helvetica,sans-Serif" font-size="10.00">pbd/signals.h</text>
</a>
</g>
</g>
<!-- Node5&#45;&gt;Node8 -->
<g id="edge7_Node000005_Node000008" class="edge">
<title>Node5&#45;&gt;Node8</title>
<g id="a_edge7_Node000005_Node000008"><a xlink:title=" ">
<path fill="none" stroke="#63b8ff" d="M947.23,-187.57C899.69,-178.2 820.58,-162.61 768.98,-152.45"/>
<polygon fill="#63b8ff" stroke="#63b8ff" points="769.54,-148.99 759.05,-150.49 768.18,-155.86 769.54,-148.99"/>
</a>
</g>
</g>
<!-- Node8&#45;&gt;Node4 -->
<g id="edge16_Node000008_Node000004" class="edge">
<title>Node8&#45;&gt;Node4</title>
<g id="a_edge16_Node000008_Node000004"><a xlink:title=" ">
<path fill="none" stroke="#63b8ff" d="M677.9,-134.64C625.77,-125.43 545.53,-104.5 576.5,-66 579.3,-62.52 686.26,-40.14 752.67,-26.53"/>
<polygon fill="#63b8ff" stroke="#63b8ff" points="753.46,-29.94 762.56,-24.51 752.06,-23.08 753.46,-29.94"/>
</a>
</g>
</g>
<!-- Node8&#45;&gt;Node7 -->
<g id="edge37_Node000008_Node000007" class="edge">
<title>Node8&#45;&gt;Node7</title>
<g id="a_edge37_Node000008_Node000007"><a xlink:title=" ">
<path fill="none" stroke="#63b8ff" d="M759.21,-139.35C868.13,-135.92 1160.1,-124.16 1192.5,-96 1209.81,-80.95 1212.88,-53.29 1212.76,-34.76"/>
<polygon fill="#63b8ff" stroke="#63b8ff" points="1216.25,-34.47 1212.37,-24.61 1209.26,-34.73 1216.25,-34.47"/>
</a>
</g>
</g>
<!-- Node9 -->
<g id="Node000009" class="node">
<title>Node9</title>
<g id="a_Node000009"><a xlink:title=" ">
<polygon fill="#e0e0e0" stroke="#999999" points="1183,-90.5 1132,-90.5 1132,-71.5 1183,-71.5 1183,-90.5"/>
<text text-anchor="middle" x="1157.5" y="-78.5" font-family="Helvetica,sans-Serif" font-size="10.00">csignal</text>
</a>
</g>
</g>
<!-- Node8&#45;&gt;Node9 -->
<g id="edge8_Node000008_Node000009" class="edge">
<title>Node8&#45;&gt;Node9</title>
<g id="a_edge8_Node000008_Node000009"><a xlink:title=" ">
<path fill="none" stroke="#63b8ff" d="M759.28,-139.64C832.9,-137.29 992.44,-128.53 1122.5,-96 1124.8,-95.42 1127.16,-94.73 1129.5,-93.96"/>
<polygon fill="#63b8ff" stroke="#63b8ff" points="1130.73,-97.24 1138.92,-90.51 1128.33,-90.67 1130.73,-97.24"/>
</a>
</g>
</g>
<!-- Node10 -->
<g id="Node000010" class="node">
<title>Node10</title>
<g id="a_Node000010"><a xlink:title=" ">
<polygon fill="#e0e0e0" stroke="#999999" points="978.5,-24.5 946.5,-24.5 946.5,-5.5 978.5,-5.5 978.5,-24.5"/>
<text text-anchor="middle" x="962.5" y="-12.5" font-family="Helvetica,sans-Serif" font-size="10.00">list</text>
</a>
</g>
</g>
<!-- Node8&#45;&gt;Node10 -->
<g id="edge9_Node000008_Node000010" class="edge">
<title>Node8&#45;&gt;Node10</title>
<g id="a_edge9_Node000008_Node000010"><a xlink:title=" ">
<path fill="none" stroke="#63b8ff" d="M759.32,-136.52C813.43,-130.48 905.01,-117.41 930.5,-96 948.9,-80.54 956.81,-52.98 960.15,-34.59"/>
<polygon fill="#63b8ff" stroke="#63b8ff" points="963.64,-34.93 961.69,-24.52 956.72,-33.88 963.64,-34.93"/>
</a>
</g>
</g>
<!-- Node11 -->
<g id="Node000011" class="node">
<title>Node11</title>
<g id="a_Node000011"><a xlink:title=" ">
<polygon fill="#e0e0e0" stroke="#999999" points="103.5,-24.5 65.5,-24.5 65.5,-5.5 103.5,-5.5 103.5,-24.5"/>
<text text-anchor="middle" x="84.5" y="-12.5" font-family="Helvetica,sans-Serif" font-size="10.00">map</text>
</a>
</g>
</g>
<!-- Node8&#45;&gt;Node11 -->
<g id="edge10_Node000008_Node000011" class="edge">
<title>Node8&#45;&gt;Node11</title>
<g id="a_edge10_Node000008_Node000011"><a xlink:title=" ">
<path fill="none" stroke="#63b8ff" d="M677.91,-140.62C567.06,-140.4 261.45,-136.09 170.5,-96 139.09,-82.15 111.8,-51.93 96.8,-32.85"/>
<polygon fill="#63b8ff" stroke="#63b8ff" points="99.46,-30.57 90.62,-24.73 93.89,-34.81 99.46,-30.57"/>
</a>
</g>
</g>
<!-- Node12 -->
<g id="Node000012" class="node">
<title>Node12</title>
<g id="a_Node000012"><a xlink:title=" ">
<polygon fill="#e0e0e0" stroke="#999999" points="171.5,-24.5 121.5,-24.5 121.5,-5.5 171.5,-5.5 171.5,-24.5"/>
<text text-anchor="middle" x="146.5" y="-12.5" font-family="Helvetica,sans-Serif" font-size="10.00">atomic</text>
</a>
</g>
</g>
<!-- Node8&#45;&gt;Node12 -->
<g id="edge11_Node000008_Node000012" class="edge">
<title>Node8&#45;&gt;Node12</title>
<g id="a_edge11_Node000008_Node000012"><a xlink:title=" ">
<path fill="none" stroke="#63b8ff" d="M677.83,-138.92C563.56,-134.2 245.33,-119.1 204.5,-96 179.93,-82.1 162.99,-53.02 154.01,-34.02"/>
<polygon fill="#63b8ff" stroke="#63b8ff" points="157.11,-32.37 149.85,-24.66 150.72,-35.22 157.11,-32.37"/>
</a>
</g>
</g>
<!-- Node13 -->
<g id="Node000013" class="node">
<title>Node13</title>
<g id="a_Node000013"><a xlink:title=" ">
<polygon fill="#e0e0e0" stroke="#999999" points="507,-24.5 404,-24.5 404,-5.5 507,-5.5 507,-24.5"/>
<text text-anchor="middle" x="455.5" y="-12.5" font-family="Helvetica,sans-Serif" font-size="10.00">glibmm/threads.h</text>
</a>
</g>
</g>
<!-- Node8&#45;&gt;Node13 -->
<g id="edge12_Node000008_Node000013" class="edge">
<title>Node8&#45;&gt;Node13</title>
<g id="a_edge12_Node000008_Node000013"><a xlink:title=" ">
<path fill="none" stroke="#63b8ff" d="M677.81,-138.4C588.8,-133.38 383.11,-119.35 362.5,-96 338.86,-69.22 386.12,-43.19 421.52,-28.42"/>
<polygon fill="#63b8ff" stroke="#63b8ff" points="423.15,-31.54 431.12,-24.57 420.54,-25.05 423.15,-31.54"/>
</a>
</g>
</g>
<!-- Node14 -->
<g id="Node000014" class="node">
<title>Node14</title>
<g id="a_Node000014"><a xlink:title=" ">
<polygon fill="#e0e0e0" stroke="#999999" points="711.5,-90.5 585.5,-90.5 585.5,-71.5 711.5,-71.5 711.5,-90.5"/>
<text text-anchor="middle" x="648.5" y="-78.5" font-family="Helvetica,sans-Serif" font-size="10.00">boost/bind/protect.hpp</text>
</a>
</g>
</g>
<!-- Node8&#45;&gt;Node14 -->
<g id="edge13_Node000008_Node000014" class="edge">
<title>Node8&#45;&gt;Node14</title>
<g id="a_edge13_Node000008_Node000014"><a xlink:title=" ">
<path fill="none" stroke="#63b8ff" d="M708.17,-131.87C697.31,-122.8 680.01,-108.34 666.83,-97.32"/>
<polygon fill="#63b8ff" stroke="#63b8ff" points="668.79,-94.39 658.87,-90.67 664.3,-99.77 668.79,-94.39"/>
</a>
</g>
</g>
<!-- Node15 -->
<g id="Node000015" class="node">
<title>Node15</title>
<g id="a_Node000015"><a xlink:title=" ">
<polygon fill="#e0e0e0" stroke="#999999" points="847.5,-96 729.5,-96 729.5,-66 847.5,-66 847.5,-96"/>
<text text-anchor="start" x="737.5" y="-84" font-family="Helvetica,sans-Serif" font-size="10.00">boost/enable_shared</text>
<text text-anchor="middle" x="788.5" y="-73" font-family="Helvetica,sans-Serif" font-size="10.00">_from_this.hpp</text>
</a>
</g>
</g>
<!-- Node8&#45;&gt;Node15 -->
<g id="edge14_Node000008_Node000015" class="edge">
<title>Node8&#45;&gt;Node15</title>
<g id="a_edge14_Node000008_Node000015"><a xlink:title=" ">
<path fill="none" stroke="#63b8ff" d="M728.83,-131.87C737.98,-124.22 751.69,-112.76 763.67,-102.75"/>
<polygon fill="#63b8ff" stroke="#63b8ff" points="766.18,-105.21 771.61,-96.11 761.69,-99.84 766.18,-105.21"/>
</a>
</g>
</g>
<!-- Node16 -->
<g id="Node000016" class="node">
<title>Node16</title>
<g id="a_Node000016"><a xlink:title=" ">
<polygon fill="#e0e0e0" stroke="#999999" points="921.5,-90.5 865.5,-90.5 865.5,-71.5 921.5,-71.5 921.5,-90.5"/>
<text text-anchor="middle" x="893.5" y="-78.5" font-family="Helvetica,sans-Serif" font-size="10.00">optional</text>
</a>
</g>
</g>
<!-- Node8&#45;&gt;Node16 -->
<g id="edge15_Node000008_Node000016" class="edge">
<title>Node8&#45;&gt;Node16</title>
<g id="a_edge15_Node000008_Node000016"><a xlink:title=" ">
<path fill="none" stroke="#63b8ff" d="M746.39,-131.95C774.36,-123.28 818.61,-109.27 856.5,-96 858.15,-95.42 859.84,-94.82 861.54,-94.21"/>
<polygon fill="#63b8ff" stroke="#63b8ff" points="863.09,-97.36 871.26,-90.62 860.67,-90.8 863.09,-97.36"/>
</a>
</g>
</g>
<!-- Node17 -->
<g id="Node000017" class="node">
<title>Node17</title>
<g id="a_Node000017"><a xlink:href="event__loop_8h.html" target="_top" xlink:title=" ">
<polygon fill="white" stroke="#666666" points="315,-90.5 214,-90.5 214,-71.5 315,-71.5 315,-90.5"/>
<text text-anchor="middle" x="264.5" y="-78.5" font-family="Helvetica,sans-Serif" font-size="10.00">pbd/event_loop.h</text>
</a>
</g>
</g>
<!-- Node8&#45;&gt;Node17 -->
<g id="edge17_Node000008_Node000017" class="edge">
<title>Node8&#45;&gt;Node17</title>
<g id="a_edge17_Node000008_Node000017"><a xlink:title=" ">
<path fill="none" stroke="#63b8ff" d="M678,-137.19C607.08,-131.09 455.93,-116.8 329.5,-96 323.59,-95.03 317.4,-93.87 311.3,-92.65"/>
<polygon fill="#63b8ff" stroke="#63b8ff" points="311.66,-89.15 301.16,-90.55 310.24,-96.01 311.66,-89.15"/>
</a>
</g>
</g>
<!-- Node21 -->
<g id="Node000021" class="node">
<title>Node21</title>
<g id="a_Node000021"><a xlink:href="stack__allocator_8h.html" target="_top" xlink:title=" ">
<polygon fill="white" stroke="#666666" points="491.5,-90.5 371.5,-90.5 371.5,-71.5 491.5,-71.5 491.5,-90.5"/>
<text text-anchor="middle" x="431.5" y="-78.5" font-family="Helvetica,sans-Serif" font-size="10.00">pbd/stack_allocator.h</text>
</a>
</g>
</g>
<!-- Node8&#45;&gt;Node21 -->
<g id="edge26_Node000008_Node000021" class="edge">
<title>Node8&#45;&gt;Node21</title>
<g id="a_edge26_Node000008_Node000021"><a xlink:title=" ">
<path fill="none" stroke="#63b8ff" d="M677.99,-132.24C626.93,-121.84 539.11,-103.93 483.25,-92.55"/>
<polygon fill="#63b8ff" stroke="#63b8ff" points="483.7,-89.07 473.2,-90.5 482.3,-95.93 483.7,-89.07"/>
</a>
</g>
</g>
<!-- Node24 -->
<g id="Node000024" class="node">
<title>Node24</title>
<g id="a_Node000024"><a xlink:href="stacktrace_8h.html" target="_top" xlink:title=" ">
<polygon fill="white" stroke="#666666" points="1113.5,-90.5 1015.5,-90.5 1015.5,-71.5 1113.5,-71.5 1113.5,-90.5"/>
<text text-anchor="middle" x="1064.5" y="-78.5" font-family="Helvetica,sans-Serif" font-size="10.00">pbd/stacktrace.h</text>
</a>
</g>
</g>
<!-- Node8&#45;&gt;Node24 -->
<g id="edge30_Node000008_Node000024" class="edge">
<title>Node8&#45;&gt;Node24</title>
<g id="a_edge30_Node000008_Node000024"><a xlink:title=" ">
<path fill="none" stroke="#63b8ff" d="M759.21,-133.62C820.08,-123.33 935.14,-103.87 1005.31,-92.01"/>
<polygon fill="#63b8ff" stroke="#63b8ff" points="1006.05,-95.43 1015.33,-90.31 1004.88,-88.53 1006.05,-95.43"/>
</a>
</g>
</g>
<!-- Node17&#45;&gt;Node2 -->
<g id="edge20_Node000017_Node000002" class="edge">
<title>Node17&#45;&gt;Node2</title>
<g id="a_edge20_Node000017_Node000002"><a xlink:title=" ">
<path fill="none" stroke="#63b8ff" d="M219.68,-71.46C177.14,-62.84 111.7,-48.2 56.5,-30 54.87,-29.46 53.22,-28.88 51.55,-28.27"/>
<polygon fill="#63b8ff" stroke="#63b8ff" points="52.73,-24.97 42.14,-24.54 50.15,-31.48 52.73,-24.97"/>
</a>
</g>
</g>
<!-- Node17&#45;&gt;Node4 -->
<g id="edge25_Node000017_Node000004" class="edge">
<title>Node17&#45;&gt;Node4</title>
<g id="a_edge25_Node000017_Node000004"><a xlink:title=" ">
<path fill="none" stroke="#63b8ff" d="M315.05,-72.33C330.28,-70.14 347.06,-67.85 362.5,-66 527.43,-46.25 570.18,-54.32 734.5,-30 741.25,-29 748.34,-27.78 755.31,-26.49"/>
<polygon fill="#63b8ff" stroke="#63b8ff" points="756.22,-29.88 765.38,-24.55 754.9,-23 756.22,-29.88"/>
</a>
</g>
</g>
<!-- Node17&#45;&gt;Node11 -->
<g id="edge21_Node000017_Node000011" class="edge">
<title>Node17&#45;&gt;Node11</title>
<g id="a_edge21_Node000017_Node000011"><a xlink:title=" ">
<path fill="none" stroke="#63b8ff" d="M234.32,-71.49C203.31,-62.42 153.85,-47.03 112.5,-30 111.64,-29.65 110.78,-29.28 109.9,-28.9"/>
<polygon fill="#63b8ff" stroke="#63b8ff" points="111.14,-25.61 100.6,-24.55 108.18,-31.96 111.14,-25.61"/>
</a>
</g>
</g>
<!-- Node17&#45;&gt;Node12 -->
<g id="edge18_Node000017_Node000012" class="edge">
<title>Node17&#45;&gt;Node12</title>
<g id="a_edge18_Node000017_Node000012"><a xlink:title=" ">
<path fill="none" stroke="#63b8ff" d="M248.59,-71.37C228.79,-60.63 194.77,-42.18 171.49,-29.55"/>
<polygon fill="#63b8ff" stroke="#63b8ff" points="173,-26.39 162.54,-24.7 169.66,-32.54 173,-26.39"/>
</a>
</g>
</g>
<!-- Node17&#45;&gt;Node13 -->
<g id="edge24_Node000017_Node000013" class="edge">
<title>Node17&#45;&gt;Node13</title>
<g id="a_edge24_Node000017_Node000013"><a xlink:title=" ">
<path fill="none" stroke="#63b8ff" d="M290.26,-71.37C323.82,-60.12 382.63,-40.42 420.29,-27.8"/>
<polygon fill="#63b8ff" stroke="#63b8ff" points="421.47,-31.09 429.84,-24.6 419.25,-24.46 421.47,-31.09"/>
</a>
</g>
</g>
<!-- Node18 -->
<g id="Node000018" class="node">
<title>Node18</title>
<g id="a_Node000018"><a xlink:title=" ">
<polygon fill="#e0e0e0" stroke="#999999" points="233.5,-24.5 189.5,-24.5 189.5,-5.5 233.5,-5.5 233.5,-24.5"/>
<text text-anchor="middle" x="211.5" y="-12.5" font-family="Helvetica,sans-Serif" font-size="10.00">string</text>
</a>
</g>
</g>
<!-- Node17&#45;&gt;Node18 -->
<g id="edge19_Node000017_Node000018" class="edge">
<title>Node17&#45;&gt;Node18</title>
<g id="a_edge19_Node000017_Node000018"><a xlink:title=" ">
<path fill="none" stroke="#63b8ff" d="M257.35,-71.37C249.18,-61.5 235.61,-45.11 225.34,-32.72"/>
<polygon fill="#63b8ff" stroke="#63b8ff" points="227.95,-30.37 218.87,-24.91 222.56,-34.84 227.95,-30.37"/>
</a>
</g>
</g>
<!-- Node19 -->
<g id="Node000019" class="node">
<title>Node19</title>
<g id="a_Node000019"><a xlink:title=" ">
<polygon fill="#e0e0e0" stroke="#999999" points="305,-24.5 252,-24.5 252,-5.5 305,-5.5 305,-24.5"/>
<text text-anchor="middle" x="278.5" y="-12.5" font-family="Helvetica,sans-Serif" font-size="10.00">stdint.h</text>
</a>
</g>
</g>
<!-- Node17&#45;&gt;Node19 -->
<g id="edge22_Node000017_Node000019" class="edge">
<title>Node17&#45;&gt;Node19</title>
<g id="a_edge22_Node000017_Node000019"><a xlink:title=" ">
<path fill="none" stroke="#63b8ff" d="M266.39,-71.37C268.42,-62.07 271.72,-46.98 274.37,-34.9"/>
<polygon fill="#63b8ff" stroke="#63b8ff" points="277.83,-35.42 276.55,-24.91 271,-33.93 277.83,-35.42"/>
</a>
</g>
</g>
<!-- Node20 -->
<g id="Node000020" class="node">
<title>Node20</title>
<g id="a_Node000020"><a xlink:title=" ">
<polygon fill="#e0e0e0" stroke="#999999" points="386,-24.5 323,-24.5 323,-5.5 386,-5.5 386,-24.5"/>
<text text-anchor="middle" x="354.5" y="-12.5" font-family="Helvetica,sans-Serif" font-size="10.00">pthread.h</text>
</a>
</g>
</g>
<!-- Node17&#45;&gt;Node20 -->
<g id="edge23_Node000017_Node000020" class="edge">
<title>Node17&#45;&gt;Node20</title>
<g id="a_edge23_Node000017_Node000020"><a xlink:title=" ">
<path fill="none" stroke="#63b8ff" d="M276.64,-71.37C291.27,-60.97 316.08,-43.32 333.76,-30.75"/>
<polygon fill="#63b8ff" stroke="#63b8ff" points="336.15,-33.35 342.27,-24.7 332.09,-27.64 336.15,-33.35"/>
</a>
</g>
</g>
<!-- Node21&#45;&gt;Node4 -->
<g id="edge29_Node000021_Node000004" class="edge">
<title>Node21&#45;&gt;Node4</title>
<g id="a_edge29_Node000021_Node000004"><a xlink:title=" ">
<path fill="none" stroke="#63b8ff" d="M475.28,-71.48C485.21,-69.62 495.71,-67.7 505.5,-66 607.02,-48.42 633.08,-48.11 734.5,-30 740.67,-28.9 747.12,-27.69 753.52,-26.45"/>
<polygon fill="#63b8ff" stroke="#63b8ff" points="754.33,-29.86 763.47,-24.5 752.98,-22.99 754.33,-29.86"/>
</a>
</g>
</g>
<!-- Node22 -->
<g id="Node000022" class="node">
<title>Node22</title>
<g id="a_Node000022"><a xlink:title=" ">
<polygon fill="#e0e0e0" stroke="#999999" points="663.5,-30 525.5,-30 525.5,0 663.5,0 663.5,-30"/>
<text text-anchor="start" x="533.5" y="-18" font-family="Helvetica,sans-Serif" font-size="10.00">boost/type_traits/aligned</text>
<text text-anchor="middle" x="594.5" y="-7" font-family="Helvetica,sans-Serif" font-size="10.00">_storage.hpp</text>
</a>
</g>
</g>
<!-- Node21&#45;&gt;Node22 -->
<g id="edge27_Node000021_Node000022" class="edge">
<title>Node21&#45;&gt;Node22</title>
<g id="a_edge27_Node000021_Node000022"><a xlink:title=" ">
<path fill="none" stroke="#63b8ff" d="M453.48,-71.37C477.9,-61.78 517.98,-46.05 549.18,-33.8"/>
<polygon fill="#63b8ff" stroke="#63b8ff" points="550.52,-37.03 558.55,-30.12 547.96,-30.51 550.52,-37.03"/>
</a>
</g>
</g>
<!-- Node23 -->
<g id="Node000023" class="node">
<title>Node23</title>
<g id="a_Node000023"><a xlink:title=" ">
<polygon fill="#e0e0e0" stroke="#999999" points="725.5,-24.5 681.5,-24.5 681.5,-5.5 725.5,-5.5 725.5,-24.5"/>
<text text-anchor="middle" x="703.5" y="-12.5" font-family="Helvetica,sans-Serif" font-size="10.00">limits</text>
</a>
</g>
</g>
<!-- Node21&#45;&gt;Node23 -->
<g id="edge28_Node000021_Node000023" class="edge">
<title>Node21&#45;&gt;Node23</title>
<g id="a_edge28_Node000021_Node000023"><a xlink:title=" ">
<path fill="none" stroke="#63b8ff" d="M475.11,-71.49C539.37,-58.87 653.96,-36.03 672.5,-30 673.94,-29.53 675.4,-29.02 676.87,-28.47"/>
<polygon fill="#63b8ff" stroke="#63b8ff" points="678.48,-31.59 686.39,-24.54 675.81,-25.12 678.48,-31.59"/>
</a>
</g>
</g>
<!-- Node24&#45;&gt;Node4 -->
<g id="edge36_Node000024_Node000004" class="edge">
<title>Node24&#45;&gt;Node4</title>
<g id="a_edge36_Node000024_Node000004"><a xlink:title=" ">
<path fill="none" stroke="#63b8ff" d="M1029.71,-71.44C983,-59.94 900.02,-39.51 848.87,-26.92"/>
<polygon fill="#63b8ff" stroke="#63b8ff" points="849.64,-23.51 839.09,-24.51 847.96,-30.3 849.64,-23.51"/>
</a>
</g>
</g>
<!-- Node24&#45;&gt;Node7 -->
<g id="edge32_Node000024_Node000007" class="edge">
<title>Node24&#45;&gt;Node7</title>
<g id="a_edge32_Node000024_Node000007"><a xlink:title=" ">
<path fill="none" stroke="#63b8ff" d="M1084.33,-71.37C1109.53,-60.39 1153.26,-41.36 1182.29,-28.72"/>
<polygon fill="#63b8ff" stroke="#63b8ff" points="1183.75,-31.9 1191.52,-24.7 1180.95,-25.48 1183.75,-31.9"/>
</a>
</g>
</g>
<!-- Node24&#45;&gt;Node10 -->
<g id="edge35_Node000024_Node000010" class="edge">
<title>Node24&#45;&gt;Node10</title>
<g id="a_edge35_Node000024_Node000010"><a xlink:title=" ">
<path fill="none" stroke="#63b8ff" d="M1050.74,-71.37C1033.86,-60.78 1005.01,-42.67 984.91,-30.06"/>
<polygon fill="#63b8ff" stroke="#63b8ff" points="986.69,-27.05 976.36,-24.7 982.97,-32.98 986.69,-27.05"/>
</a>
</g>
</g>
<!-- Node24&#45;&gt;Node13 -->
<g id="edge34_Node000024_Node000013" class="edge">
<title>Node24&#45;&gt;Node13</title>
<g id="a_edge34_Node000024_Node000013"><a xlink:title=" ">
<path fill="none" stroke="#63b8ff" d="M1015.2,-74.64C989.89,-71.94 958.56,-68.69 930.5,-66 746.65,-48.4 698.95,-58.73 516.5,-30 510.72,-29.09 504.68,-27.94 498.74,-26.7"/>
<polygon fill="#63b8ff" stroke="#63b8ff" points="499.41,-23.27 488.9,-24.54 497.92,-30.11 499.41,-23.27"/>
</a>
</g>
</g>
<!-- Node25 -->
<g id="Node000025" class="node">
<title>Node25</title>
<g id="a_Node000025"><a xlink:title=" ">
<polygon fill="#e0e0e0" stroke="#999999" points="1150,-24.5 1097,-24.5 1097,-5.5 1150,-5.5 1150,-24.5"/>
<text text-anchor="middle" x="1123.5" y="-12.5" font-family="Helvetica,sans-Serif" font-size="10.00">cstddef</text>
</a>
</g>
</g>
<!-- Node24&#45;&gt;Node25 -->
<g id="edge31_Node000024_Node000025" class="edge">
<title>Node24&#45;&gt;Node25</title>
<g id="a_edge31_Node000024_Node000025"><a xlink:title=" ">
<path fill="none" stroke="#63b8ff" d="M1072.46,-71.37C1081.64,-61.4 1096.96,-44.79 1108.42,-32.36"/>
<polygon fill="#63b8ff" stroke="#63b8ff" points="1111.09,-34.63 1115.29,-24.91 1105.94,-29.89 1111.09,-34.63"/>
</a>
</g>
</g>
<!-- Node26 -->
<g id="Node000026" class="node">
<title>Node26</title>
<g id="a_Node000026"><a xlink:title=" ">
<polygon fill="#e0e0e0" stroke="#999999" points="1079,-24.5 1022,-24.5 1022,-5.5 1079,-5.5 1079,-24.5"/>
<text text-anchor="middle" x="1050.5" y="-12.5" font-family="Helvetica,sans-Serif" font-size="10.00">ostream</text>
</a>
</g>
</g>
<!-- Node24&#45;&gt;Node26 -->
<g id="edge33_Node000024_Node000026" class="edge">
<title>Node24&#45;&gt;Node26</title>
<g id="a_edge33_Node000024_Node000026"><a xlink:title=" ">
<path fill="none" stroke="#63b8ff" d="M1062.61,-71.37C1060.58,-62.07 1057.28,-46.98 1054.63,-34.9"/>
<polygon fill="#63b8ff" stroke="#63b8ff" points="1058,-33.93 1052.45,-24.91 1051.17,-35.42 1058,-33.93"/>
</a>
</g>
</g>
</g>
</svg>

<g id="navigator" transform="translate(0 0)" fill="#404254">
  <rect fill="#f2f5e9" fill-opacity="0.5" stroke="#606060" stroke-width=".5" x="0" y="0" width="60" height="60"/>
  <use id="zoomplus" xlink:href="#zoomPlus" x="17" y="9" onmousedown="handleZoom(evt,'in')"/>
  <use id="zoomminus" xlink:href="#zoomMin" x="42" y="9" onmousedown="handleZoom(evt,'out')"/>
  <use id="reset" xlink:href="#resetDef" x="30" y="36" onmousedown="handleReset()"/>
   <use id="arrowup" xlink:href="#arrowUp" x="0" y="0" onmousedown="handlePan(0,-1)"/>
  <use id="arrowright" xlink:href="#arrowRight" x="0" y="0" onmousedown="handlePan(1,0)"/>
  <use id="arrowdown" xlink:href="#arrowDown" x="0" y="0" onmousedown="handlePan(0,1)"/>
  <use id="arrowleft" xlink:href="#arrowLeft" x="0" y="0" onmousedown="handlePan(-1,0)"/>
</g>
<svg viewBox="0 0 15 15" width="100%" height="30px" preserveAspectRatio="xMaxYMin meet">
 <g id="arrow_out" transform="scale(0.3 0.3)">
  <a xlink:href="receiver_8h__incl_org.svg" target="_base">
   <rect id="button" ry="5" rx="5" y="6" x="6" height="38" width="38"
        fill="#f2f5e9" fill-opacity="0.5" stroke="#606060" stroke-width="1.0"/>
   <path id="arrow"
     d="M 11.500037,31.436501 C 11.940474,20.09759 22.043105,11.32322 32.158766,21.979434 L 37.068811,17.246167 C 37.068811,17.246167 37.088388,32 37.088388,32 L 22.160133,31.978069 C 22.160133,31.978069 26.997745,27.140456 26.997745,27.140456 C 18.528582,18.264221 13.291696,25.230495 11.500037,31.436501 z"
     style="fill:#404040;"/>
  </a>
 </g>
</svg>

<style type='text/css'>
<![CDATA[
[data-mouse-over-selected='false'] { opacity: 0.7; }
[data-mouse-over-selected='true']  { opacity: 1.0; }
]]>
</style>
<script type="application/ecmascript"><![CDATA[
document.addEventListener('DOMContentLoaded', (event) => {
  highlightEdges();
  highlightAdjacentNodes();
});
]]></script>
</svg>
