<?xml version="1.0" encoding="UTF-8" standalone="no"?>
<!DOCTYPE svg PUBLIC "-//W3C//DTD SVG 1.1//EN"
 "http://www.w3.org/Graphics/SVG/1.1/DTD/svg11.dtd">
<!-- Generated by graphviz version 2.43.0 (0)
 -->
<!-- Title: resampler&#45;table.h Pages: 1 -->
<!--zoomable 412 -->

<svg id="main" version="1.1" xmlns="http://www.w3.org/2000/svg" xmlns:xlink="http://www.w3.org/1999/xlink" xml:space="preserve" onload="init(evt)">
<style type="text/css"><![CDATA[
.node, .edge {opacity: 0.7;}
.node.selected, .edge.selected {opacity: 1;}
.edge:hover path { stroke: red; }
.edge:hover polygon { stroke: red; fill: red; }
]]></style>

<defs>
  <circle id="rim" cx="0" cy="0" r="7"/>
  <circle id="rim2" cx="0" cy="0" r="3.5"/>
  <g id="zoomPlus">
    <use xlink:href="#rim" fill="#404040"><set attributeName="fill" to="#808080" begin="zoomplus.mouseover" end="zoomplus.mouseout"/></use>
    <path d="M-4,0h8M0,-4v8" fill="none" stroke="white" stroke-width="1.5" pointer-events="none"/>
  </g>
  <g id="zoomMin">
    <use xlink:href="#rim" fill="#404040"><set attributeName="fill" to="#808080" begin="zoomminus.mouseover" end="zoomminus.mouseout"/></use>
    <path d="M-4,0h8" fill="none" stroke="white" stroke-width="1.5" pointer-events="none"/>
  </g>
  <g id="arrowUp" transform="translate(30 24)">
    <use xlink:href="#rim"/>
    <path pointer-events="none" fill="none" stroke="white" stroke-width="1.5" d="M0,-3.0v7 M-2.5,-0.5L0,-3.0L2.5,-0.5"/>
  </g>
  <g id="arrowRight" transform="rotate(90) translate(36 -43)">
    <use xlink:href="#rim"/>
    <path pointer-events="none" fill="none" stroke="white" stroke-width="1.5" d="M0,-3.0v7 M-2.5,-0.5L0,-3.0L2.5,-0.5"/>
  </g>
  <g id="arrowDown" transform="rotate(180) translate(-30 -48)">
    <use xlink:href="#rim"/>
    <path pointer-events="none" fill="none" stroke="white" stroke-width="1.5" d="M0,-3.0v7 M-2.5,-0.5L0,-3.0L2.5,-0.5"/>
  </g>
  <g id="arrowLeft" transform="rotate(270) translate(-36 17)">
    <use xlink:href="#rim"/>
    <path pointer-events="none" fill="none" stroke="white" stroke-width="1.5" d="M0,-3.0v7 M-2.5,-0.5L0,-3.0L2.5,-0.5"/>
  </g>
  <g id="resetDef">
    <use xlink:href="#rim2" fill="#404040"><set attributeName="fill" to="#808080" begin="reset.mouseover" end="reset.mouseout"/></use>
  </g>
</defs>
<script type="application/ecmascript">
var viewWidth = 907;
var viewHeight = 412;
var sectionId = 'dynsection-1';
</script>
<script type="application/ecmascript" xlink:href="svg.min.js"/>
<svg id="graph" class="graph">
<g id="viewport">
<title>resampler&#45;table.h</title>
<!-- Node1 -->
<g id="Node000001" class="node">
<title>Node1</title>
<g id="a_Node000001"><a xlink:title=" ">
<polygon fill="#999999" stroke="#666666" points="728.5,-404 624.5,-404 624.5,-385 728.5,-385 728.5,-404"/>
<text text-anchor="middle" x="676.5" y="-392" font-family="Helvetica,sans-Serif" font-size="10.00">resampler&#45;table.h</text>
</a>
</g>
</g>
<!-- Node2 -->
<g id="Node000002" class="node">
<title>Node2</title>
<g id="a_Node000002"><a xlink:href="resampler_8h.html" target="_top" xlink:title=" ">
<polygon fill="white" stroke="#666666" points="613.5,-349 539.5,-349 539.5,-330 613.5,-330 613.5,-349"/>
<text text-anchor="middle" x="576.5" y="-337" font-family="Helvetica,sans-Serif" font-size="10.00">resampler.h</text>
</a>
</g>
</g>
<!-- Node1&#45;&gt;Node2 -->
<g id="edge1_Node000001_Node000002" class="edge">
<title>Node1&#45;&gt;Node2</title>
<g id="a_edge1_Node000001_Node000002"><a xlink:title=" ">
<path fill="none" stroke="#63b8ff" d="M651.47,-380.23C633.13,-370.51 608.76,-357.6 592.86,-349.17"/>
<polygon fill="#63b8ff" stroke="#63b8ff" points="649.96,-383.39 660.43,-384.98 653.24,-377.21 649.96,-383.39"/>
</a>
</g>
</g>
<!-- Node3 -->
<g id="Node000003" class="node">
<title>Node3</title>
<g id="a_Node000003"><a xlink:href="vmresampler_8h.html" target="_top" xlink:title=" ">
<polygon fill="white" stroke="#666666" points="721.5,-349 631.5,-349 631.5,-330 721.5,-330 721.5,-349"/>
<text text-anchor="middle" x="676.5" y="-337" font-family="Helvetica,sans-Serif" font-size="10.00">vmresampler.h</text>
</a>
</g>
</g>
<!-- Node1&#45;&gt;Node3 -->
<g id="edge2_Node000001_Node000003" class="edge">
<title>Node1&#45;&gt;Node3</title>
<g id="a_edge2_Node000001_Node000003"><a xlink:title=" ">
<path fill="none" stroke="#63b8ff" d="M676.5,-374.66C676.5,-365.93 676.5,-355.99 676.5,-349.09"/>
<polygon fill="#63b8ff" stroke="#63b8ff" points="673,-374.75 676.5,-384.75 680,-374.75 673,-374.75"/>
</a>
</g>
</g>
<!-- Node19 -->
<g id="Node000019" class="node">
<title>Node19</title>
<g id="a_Node000019"><a xlink:href="vresampler_8h.html" target="_top" xlink:title=" ">
<polygon fill="white" stroke="#666666" points="821.5,-349 741.5,-349 741.5,-330 821.5,-330 821.5,-349"/>
<text text-anchor="middle" x="781.5" y="-337" font-family="Helvetica,sans-Serif" font-size="10.00">vresampler.h</text>
</a>
</g>
</g>
<!-- Node1&#45;&gt;Node19 -->
<g id="edge18_Node000001_Node000019" class="edge">
<title>Node1&#45;&gt;Node19</title>
<g id="a_edge18_Node000001_Node000019"><a xlink:title=" ">
<path fill="none" stroke="#63b8ff" d="M702.52,-380.37C721.8,-370.63 747.55,-357.64 764.32,-349.17"/>
<polygon fill="#63b8ff" stroke="#63b8ff" points="700.72,-377.35 693.37,-384.98 703.87,-383.6 700.72,-377.35"/>
</a>
</g>
</g>
<!-- Node4 -->
<g id="Node000004" class="node">
<title>Node4</title>
<g id="a_Node000004"><a xlink:href="audio__port_8h.html" target="_top" xlink:title=" ">
<polygon fill="white" stroke="#666666" points="614,-294 537,-294 537,-275 614,-275 614,-294"/>
<text text-anchor="middle" x="575.5" y="-282" font-family="Helvetica,sans-Serif" font-size="10.00">audio_port.h</text>
</a>
</g>
</g>
<!-- Node3&#45;&gt;Node4 -->
<g id="edge3_Node000003_Node000004" class="edge">
<title>Node3&#45;&gt;Node4</title>
<g id="a_edge3_Node000003_Node000004"><a xlink:title=" ">
<path fill="none" stroke="#63b8ff" d="M651.22,-325.23C632.7,-315.51 608.08,-302.6 592.02,-294.17"/>
<polygon fill="#63b8ff" stroke="#63b8ff" points="649.79,-328.44 660.27,-329.98 653.04,-322.24 649.79,-328.44"/>
</a>
</g>
</g>
<!-- Node5 -->
<g id="Node000005" class="node">
<title>Node5</title>
<g id="a_Node000005"><a xlink:href="monitor__port_8h.html" target="_top" xlink:title=" ">
<polygon fill="white" stroke="#666666" points="721,-294 632,-294 632,-275 721,-275 721,-294"/>
<text text-anchor="middle" x="676.5" y="-282" font-family="Helvetica,sans-Serif" font-size="10.00">monitor_port.h</text>
</a>
</g>
</g>
<!-- Node3&#45;&gt;Node5 -->
<g id="edge4_Node000003_Node000005" class="edge">
<title>Node3&#45;&gt;Node5</title>
<g id="a_edge4_Node000003_Node000005"><a xlink:title=" ">
<path fill="none" stroke="#63b8ff" d="M676.5,-319.66C676.5,-310.93 676.5,-300.99 676.5,-294.09"/>
<polygon fill="#63b8ff" stroke="#63b8ff" points="673,-319.75 676.5,-329.75 680,-319.75 673,-319.75"/>
</a>
</g>
</g>
<!-- Node6 -->
<g id="Node000006" class="node">
<title>Node6</title>
<g id="a_Node000006"><a xlink:href="port__manager_8h.html" target="_top" xlink:title=" ">
<polygon fill="white" stroke="#666666" points="723,-239 630,-239 630,-220 723,-220 723,-239"/>
<text text-anchor="middle" x="676.5" y="-227" font-family="Helvetica,sans-Serif" font-size="10.00">port_manager.h</text>
</a>
</g>
</g>
<!-- Node5&#45;&gt;Node6 -->
<g id="edge5_Node000005_Node000006" class="edge">
<title>Node5&#45;&gt;Node6</title>
<g id="a_edge5_Node000005_Node000006"><a xlink:title=" ">
<path fill="none" stroke="#63b8ff" d="M676.5,-264.66C676.5,-255.93 676.5,-245.99 676.5,-239.09"/>
<polygon fill="#63b8ff" stroke="#63b8ff" points="673,-264.75 676.5,-274.75 680,-264.75 673,-264.75"/>
</a>
</g>
</g>
<!-- Node7 -->
<g id="Node000007" class="node">
<title>Node7</title>
<g id="a_Node000007"><a xlink:href="audioengine_8h.html" target="_top" xlink:title=" ">
<polygon fill="white" stroke="#666666" points="600.5,-184 514.5,-184 514.5,-165 600.5,-165 600.5,-184"/>
<text text-anchor="middle" x="557.5" y="-172" font-family="Helvetica,sans-Serif" font-size="10.00">audioengine.h</text>
</a>
</g>
</g>
<!-- Node6&#45;&gt;Node7 -->
<g id="edge6_Node000006_Node000007" class="edge">
<title>Node6&#45;&gt;Node7</title>
<g id="a_edge6_Node000006_Node000007"><a xlink:title=" ">
<path fill="none" stroke="#63b8ff" d="M648.2,-215.9C626.22,-206.11 596.32,-192.79 576.97,-184.17"/>
<polygon fill="#63b8ff" stroke="#63b8ff" points="646.82,-219.11 657.38,-219.98 649.67,-212.72 646.82,-219.11"/>
</a>
</g>
</g>
<!-- Node18 -->
<g id="Node000018" class="node">
<title>Node18</title>
<g id="a_Node000018"><a xlink:href="io__plug_8h.html" target="_top" xlink:title=" ">
<polygon fill="white" stroke="#666666" points="707,-184 646,-184 646,-165 707,-165 707,-184"/>
<text text-anchor="middle" x="676.5" y="-172" font-family="Helvetica,sans-Serif" font-size="10.00">io_plug.h</text>
</a>
</g>
</g>
<!-- Node6&#45;&gt;Node18 -->
<g id="edge17_Node000006_Node000018" class="edge">
<title>Node6&#45;&gt;Node18</title>
<g id="a_edge17_Node000006_Node000018"><a xlink:title=" ">
<path fill="none" stroke="#63b8ff" d="M676.5,-209.66C676.5,-200.93 676.5,-190.99 676.5,-184.09"/>
<polygon fill="#63b8ff" stroke="#63b8ff" points="673,-209.75 676.5,-219.75 680,-209.75 673,-209.75"/>
</a>
</g>
</g>
<!-- Node8 -->
<g id="Node000008" class="node">
<title>Node8</title>
<g id="a_Node000008"><a xlink:href="audio__backend_8h.html" target="_top" xlink:title=" ">
<polygon fill="white" stroke="#666666" points="484.5,-129 386.5,-129 386.5,-110 484.5,-110 484.5,-129"/>
<text text-anchor="middle" x="435.5" y="-117" font-family="Helvetica,sans-Serif" font-size="10.00">audio_backend.h</text>
</a>
</g>
</g>
<!-- Node7&#45;&gt;Node8 -->
<g id="edge7_Node000007_Node000008" class="edge">
<title>Node7&#45;&gt;Node8</title>
<g id="a_edge7_Node000007_Node000008"><a xlink:title=" ">
<path fill="none" stroke="#63b8ff" d="M528.49,-160.9C505.96,-151.11 475.3,-137.79 455.46,-129.17"/>
<polygon fill="#63b8ff" stroke="#63b8ff" points="527.33,-164.21 537.9,-164.98 530.12,-157.79 527.33,-164.21"/>
</a>
</g>
</g>
<!-- Node17 -->
<g id="Node000017" class="node">
<title>Node17</title>
<g id="a_Node000017"><a xlink:href="rt__safe__delete_8h.html" target="_top" xlink:title=" ">
<polygon fill="white" stroke="#666666" points="605,-129 510,-129 510,-110 605,-110 605,-129"/>
<text text-anchor="middle" x="557.5" y="-117" font-family="Helvetica,sans-Serif" font-size="10.00">rt_safe_delete.h</text>
</a>
</g>
</g>
<!-- Node7&#45;&gt;Node17 -->
<g id="edge16_Node000007_Node000017" class="edge">
<title>Node7&#45;&gt;Node17</title>
<g id="a_edge16_Node000007_Node000017"><a xlink:title=" ">
<path fill="none" stroke="#63b8ff" d="M557.5,-154.66C557.5,-145.93 557.5,-135.99 557.5,-129.09"/>
<polygon fill="#63b8ff" stroke="#63b8ff" points="554,-154.75 557.5,-164.75 561,-154.75 554,-154.75"/>
</a>
</g>
</g>
<!-- Node9 -->
<g id="Node000009" class="node">
<title>Node9</title>
<g id="a_Node000009"><a xlink:href="alsa__audiobackend_8h.html" target="_top" xlink:title=" ">
<polygon fill="white" stroke="#666666" points="899,-74 780,-74 780,-55 899,-55 899,-74"/>
<text text-anchor="middle" x="839.5" y="-62" font-family="Helvetica,sans-Serif" font-size="10.00">alsa_audiobackend.h</text>
</a>
</g>
</g>
<!-- Node8&#45;&gt;Node9 -->
<g id="edge8_Node000008_Node000009" class="edge">
<title>Node8&#45;&gt;Node9</title>
<g id="a_edge8_Node000008_Node000009"><a xlink:title=" ">
<path fill="none" stroke="#63b8ff" d="M494.58,-110.75C570.96,-100.73 703.26,-83.37 779.9,-73.32"/>
<polygon fill="#63b8ff" stroke="#63b8ff" points="494.09,-107.28 484.63,-112.05 495,-114.22 494.09,-107.28"/>
</a>
</g>
</g>
<!-- Node10 -->
<g id="Node000010" class="node">
<title>Node10</title>
<g id="a_Node000010"><a xlink:href="coreaudio__backend_8h.html" target="_top" xlink:title=" ">
<polygon fill="white" stroke="#666666" points="119,-74 0,-74 0,-55 119,-55 119,-74"/>
<text text-anchor="middle" x="59.5" y="-62" font-family="Helvetica,sans-Serif" font-size="10.00">coreaudio_backend.h</text>
</a>
</g>
</g>
<!-- Node8&#45;&gt;Node10 -->
<g id="edge9_Node000008_Node000010" class="edge">
<title>Node8&#45;&gt;Node10</title>
<g id="a_edge9_Node000008_Node000010"><a xlink:title=" ">
<path fill="none" stroke="#63b8ff" d="M376.33,-110.16C306.11,-100.26 189.68,-83.85 119.21,-73.92"/>
<polygon fill="#63b8ff" stroke="#63b8ff" points="375.95,-113.64 386.34,-111.57 376.93,-106.71 375.95,-113.64"/>
</a>
</g>
</g>
<!-- Node11 -->
<g id="Node000011" class="node">
<title>Node11</title>
<g id="a_Node000011"><a xlink:href="dummy__audiobackend_8h.html" target="_top" xlink:title=" ">
<polygon fill="white" stroke="#666666" points="273.5,-74 137.5,-74 137.5,-55 273.5,-55 273.5,-74"/>
<text text-anchor="middle" x="205.5" y="-62" font-family="Helvetica,sans-Serif" font-size="10.00">dummy_audiobackend.h</text>
</a>
</g>
</g>
<!-- Node8&#45;&gt;Node11 -->
<g id="edge10_Node000008_Node000011" class="edge">
<title>Node8&#45;&gt;Node11</title>
<g id="a_edge10_Node000008_Node000011"><a xlink:title=" ">
<path fill="none" stroke="#63b8ff" d="M388.59,-107.69C345.5,-97.76 282.47,-83.24 242.74,-74.08"/>
<polygon fill="#63b8ff" stroke="#63b8ff" points="388.02,-111.15 398.55,-109.98 389.59,-104.33 388.02,-111.15"/>
</a>
</g>
</g>
<!-- Node13 -->
<g id="Node000013" class="node">
<title>Node13</title>
<g id="a_Node000013"><a xlink:href="graph_8h.html" target="_top" xlink:title=" ">
<polygon fill="white" stroke="#666666" points="345,-74 292,-74 292,-55 345,-55 345,-74"/>
<text text-anchor="middle" x="318.5" y="-62" font-family="Helvetica,sans-Serif" font-size="10.00">graph.h</text>
</a>
</g>
</g>
<!-- Node8&#45;&gt;Node13 -->
<g id="edge12_Node000008_Node000013" class="edge">
<title>Node8&#45;&gt;Node13</title>
<g id="a_edge12_Node000008_Node000013"><a xlink:title=" ">
<path fill="none" stroke="#63b8ff" d="M407.39,-105.77C385.81,-95.99 356.59,-82.75 337.64,-74.17"/>
<polygon fill="#63b8ff" stroke="#63b8ff" points="406.15,-109.05 416.7,-109.98 409.04,-102.67 406.15,-109.05"/>
</a>
</g>
</g>
<!-- Node14 -->
<g id="Node000014" class="node">
<title>Node14</title>
<g id="a_Node000014"><a xlink:href="jack__audiobackend_8h.html" target="_top" xlink:title=" ">
<polygon fill="white" stroke="#666666" points="482,-74 363,-74 363,-55 482,-55 482,-74"/>
<text text-anchor="middle" x="422.5" y="-62" font-family="Helvetica,sans-Serif" font-size="10.00">jack_audiobackend.h</text>
</a>
</g>
</g>
<!-- Node8&#45;&gt;Node14 -->
<g id="edge13_Node000008_Node000014" class="edge">
<title>Node8&#45;&gt;Node14</title>
<g id="a_edge13_Node000008_Node000014"><a xlink:title=" ">
<path fill="none" stroke="#63b8ff" d="M430.95,-99.95C428.79,-91.15 426.32,-81.06 424.61,-74.09"/>
<polygon fill="#63b8ff" stroke="#63b8ff" points="427.57,-100.87 433.35,-109.75 434.37,-99.2 427.57,-100.87"/>
</a>
</g>
</g>
<!-- Node15 -->
<g id="Node000015" class="node">
<title>Node15</title>
<g id="a_Node000015"><a xlink:href="portaudio__backend_8h.html" target="_top" xlink:title=" ">
<polygon fill="white" stroke="#666666" points="618.5,-74 500.5,-74 500.5,-55 618.5,-55 618.5,-74"/>
<text text-anchor="middle" x="559.5" y="-62" font-family="Helvetica,sans-Serif" font-size="10.00">portaudio_backend.h</text>
</a>
</g>
</g>
<!-- Node8&#45;&gt;Node15 -->
<g id="edge14_Node000008_Node000015" class="edge">
<title>Node8&#45;&gt;Node15</title>
<g id="a_edge14_Node000008_Node000015"><a xlink:title=" ">
<path fill="none" stroke="#63b8ff" d="M464.68,-106.03C487.61,-96.23 518.95,-82.83 539.21,-74.17"/>
<polygon fill="#63b8ff" stroke="#63b8ff" points="463.24,-102.84 455.42,-109.98 465.99,-109.27 463.24,-102.84"/>
</a>
</g>
</g>
<!-- Node16 -->
<g id="Node000016" class="node">
<title>Node16</title>
<g id="a_Node000016"><a xlink:href="pulseaudio__backend_8h.html" target="_top" xlink:title=" ">
<polygon fill="white" stroke="#666666" points="762,-74 637,-74 637,-55 762,-55 762,-74"/>
<text text-anchor="middle" x="699.5" y="-62" font-family="Helvetica,sans-Serif" font-size="10.00">pulseaudio_backend.h</text>
</a>
</g>
</g>
<!-- Node8&#45;&gt;Node16 -->
<g id="edge15_Node000008_Node000016" class="edge">
<title>Node8&#45;&gt;Node16</title>
<g id="a_edge15_Node000008_Node000016"><a xlink:title=" ">
<path fill="none" stroke="#63b8ff" d="M487.79,-108C537.28,-98.07 610.67,-83.33 656.75,-74.08"/>
<polygon fill="#63b8ff" stroke="#63b8ff" points="487.03,-104.58 477.92,-109.98 488.41,-111.45 487.03,-104.58"/>
</a>
</g>
</g>
<!-- Node12 -->
<g id="Node000012" class="node">
<title>Node12</title>
<g id="a_Node000012"><a xlink:href="dummy__midi__seq_8h.html" target="_top" xlink:title=" ">
<polygon fill="white" stroke="#666666" points="262,-19 149,-19 149,0 262,0 262,-19"/>
<text text-anchor="middle" x="205.5" y="-7" font-family="Helvetica,sans-Serif" font-size="10.00">dummy_midi_seq.h</text>
</a>
</g>
</g>
<!-- Node11&#45;&gt;Node12 -->
<g id="edge11_Node000011_Node000012" class="edge">
<title>Node11&#45;&gt;Node12</title>
<g id="a_edge11_Node000011_Node000012"><a xlink:title=" ">
<path fill="none" stroke="#63b8ff" d="M205.5,-44.66C205.5,-35.93 205.5,-25.99 205.5,-19.09"/>
<polygon fill="#63b8ff" stroke="#63b8ff" points="202,-44.75 205.5,-54.75 209,-44.75 202,-44.75"/>
</a>
</g>
</g>
<!-- Node20 -->
<g id="Node000020" class="node">
<title>Node20</title>
<g id="a_Node000020"><a xlink:href="alsa__slave_8h.html" target="_top" xlink:title=" ">
<polygon fill="white" stroke="#666666" points="824,-239 747,-239 747,-220 824,-220 824,-239"/>
<text text-anchor="middle" x="785.5" y="-227" font-family="Helvetica,sans-Serif" font-size="10.00">alsa_slave.h</text>
</a>
</g>
</g>
<!-- Node19&#45;&gt;Node20 -->
<g id="edge19_Node000019_Node000020" class="edge">
<title>Node19&#45;&gt;Node20</title>
<g id="a_edge19_Node000019_Node000020"><a xlink:title=" ">
<path fill="none" stroke="#63b8ff" d="M782.2,-319.48C783.08,-295.84 784.54,-256.5 785.18,-239.16"/>
<polygon fill="#63b8ff" stroke="#63b8ff" points="778.7,-319.54 781.83,-329.66 785.7,-319.8 778.7,-319.54"/>
</a>
</g>
</g>
<!-- Node20&#45;&gt;Node9 -->
<g id="edge20_Node000020_Node000009" class="edge">
<title>Node20&#45;&gt;Node9</title>
<g id="a_edge20_Node000020_Node000009"><a xlink:title=" ">
<path fill="none" stroke="#63b8ff" d="M791.69,-209.83C803.33,-174.67 828.1,-99.9 836.58,-74.31"/>
<polygon fill="#63b8ff" stroke="#63b8ff" points="788.23,-209.14 788.4,-219.74 794.87,-211.34 788.23,-209.14"/>
</a>
</g>
</g>
</g>
</svg>

<g id="navigator" transform="translate(0 0)" fill="#404254">
  <rect fill="#f2f5e9" fill-opacity="0.5" stroke="#606060" stroke-width=".5" x="0" y="0" width="60" height="60"/>
  <use id="zoomplus" xlink:href="#zoomPlus" x="17" y="9" onmousedown="handleZoom(evt,'in')"/>
  <use id="zoomminus" xlink:href="#zoomMin" x="42" y="9" onmousedown="handleZoom(evt,'out')"/>
  <use id="reset" xlink:href="#resetDef" x="30" y="36" onmousedown="handleReset()"/>
   <use id="arrowup" xlink:href="#arrowUp" x="0" y="0" onmousedown="handlePan(0,-1)"/>
  <use id="arrowright" xlink:href="#arrowRight" x="0" y="0" onmousedown="handlePan(1,0)"/>
  <use id="arrowdown" xlink:href="#arrowDown" x="0" y="0" onmousedown="handlePan(0,1)"/>
  <use id="arrowleft" xlink:href="#arrowLeft" x="0" y="0" onmousedown="handlePan(-1,0)"/>
</g>
<svg viewBox="0 0 15 15" width="100%" height="30px" preserveAspectRatio="xMaxYMin meet">
 <g id="arrow_out" transform="scale(0.3 0.3)">
  <a xlink:href="resampler-table_8h__dep__incl_org.svg" target="_base">
   <rect id="button" ry="5" rx="5" y="6" x="6" height="38" width="38"
        fill="#f2f5e9" fill-opacity="0.5" stroke="#606060" stroke-width="1.0"/>
   <path id="arrow"
     d="M 11.500037,31.436501 C 11.940474,20.09759 22.043105,11.32322 32.158766,21.979434 L 37.068811,17.246167 C 37.068811,17.246167 37.088388,32 37.088388,32 L 22.160133,31.978069 C 22.160133,31.978069 26.997745,27.140456 26.997745,27.140456 C 18.528582,18.264221 13.291696,25.230495 11.500037,31.436501 z"
     style="fill:#404040;"/>
  </a>
 </g>
</svg>

<style type='text/css'>
<![CDATA[
[data-mouse-over-selected='false'] { opacity: 0.7; }
[data-mouse-over-selected='true']  { opacity: 1.0; }
]]>
</style>
<script type="application/ecmascript"><![CDATA[
document.addEventListener('DOMContentLoaded', (event) => {
  highlightEdges();
  highlightAdjacentNodes();
});
]]></script>
</svg>
