<?xml version="1.0" encoding="UTF-8" standalone="no"?>
<!DOCTYPE svg PUBLIC "-//W3C//DTD SVG 1.1//EN"
 "http://www.w3.org/Graphics/SVG/1.1/DTD/svg11.dtd">
<!-- Generated by graphviz version 2.43.0 (0)
 -->
<!-- Title: sample_format_converter.h Pages: 1 -->
<svg width="1374pt" height="489pt"
 viewBox="0.00 0.00 1373.50 489.00" xmlns="http://www.w3.org/2000/svg" xmlns:xlink="http://www.w3.org/1999/xlink">
<g id="graph0" class="graph" transform="scale(1 1) rotate(0) translate(4 485)">
<title>sample_format_converter.h</title>
<!-- Node1 -->
<g id="Node000001" class="node">
<title>Node1</title>
<g id="a_Node000001"><a xlink:title=" ">
<polygon fill="#999999" stroke="#666666" points="1196,-481 1045,-481 1045,-462 1196,-462 1196,-481"/>
<text text-anchor="middle" x="1120.5" y="-469" font-family="Helvetica,sans-Serif" font-size="10.00">sample_format_converter.h</text>
</a>
</g>
</g>
<!-- Node2 -->
<g id="Node000002" class="node">
<title>Node2</title>
<g id="a_Node000002"><a xlink:href="audiographer_2audiographer_2visibility_8h.html" target="_top" xlink:title=" ">
<polygon fill="white" stroke="#666666" points="597.5,-19 463.5,-19 463.5,0 597.5,0 597.5,-19"/>
<text text-anchor="middle" x="530.5" y="-7" font-family="Helvetica,sans-Serif" font-size="10.00">audiographer/visibility.h</text>
</a>
</g>
</g>
<!-- Node1&#45;&gt;Node2 -->
<g id="edge1_Node000001_Node000002" class="edge">
<title>Node1&#45;&gt;Node2</title>
<g id="a_edge1_Node000001_Node000002"><a xlink:title=" ">
<path fill="none" stroke="#63b8ff" d="M1044.92,-467.45C841.46,-458.25 297.5,-426.62 297.5,-351.5 297.5,-351.5 297.5,-351.5 297.5,-124 297.5,-53.28 385.34,-26.61 453.15,-16.56"/>
<polygon fill="#63b8ff" stroke="#63b8ff" points="453.99,-19.98 463.42,-15.15 453.03,-13.05 453.99,-19.98"/>
</a>
</g>
</g>
<!-- Node3 -->
<g id="Node000003" class="node">
<title>Node3</title>
<g id="a_Node000003"><a xlink:href="sink_8h.html" target="_top" xlink:title=" ">
<polygon fill="white" stroke="#666666" points="1298,-305 1185,-305 1185,-286 1298,-286 1298,-305"/>
<text text-anchor="middle" x="1241.5" y="-293" font-family="Helvetica,sans-Serif" font-size="10.00">audiographer/sink.h</text>
</a>
</g>
</g>
<!-- Node1&#45;&gt;Node3 -->
<g id="edge2_Node000001_Node000003" class="edge">
<title>Node1&#45;&gt;Node3</title>
<g id="a_edge2_Node000001_Node000003"><a xlink:title=" ">
<path fill="none" stroke="#63b8ff" d="M1126.67,-461.63C1145.76,-434.17 1204.17,-350.18 1229.53,-313.71"/>
<polygon fill="#63b8ff" stroke="#63b8ff" points="1232.65,-315.35 1235.49,-305.14 1226.91,-311.36 1232.65,-315.35"/>
</a>
</g>
</g>
<!-- Node26 -->
<g id="Node000026" class="node">
<title>Node26</title>
<g id="a_Node000026"><a xlink:href="listed__source_8h.html" target="_top" xlink:title=" ">
<polygon fill="white" stroke="#666666" points="1082,-426 977,-426 977,-396 1082,-396 1082,-426"/>
<text text-anchor="start" x="985" y="-414" font-family="Helvetica,sans-Serif" font-size="10.00">audiographer/utils</text>
<text text-anchor="middle" x="1029.5" y="-403" font-family="Helvetica,sans-Serif" font-size="10.00">/listed_source.h</text>
</a>
</g>
</g>
<!-- Node1&#45;&gt;Node26 -->
<g id="edge41_Node000001_Node000026" class="edge">
<title>Node1&#45;&gt;Node26</title>
<g id="a_edge41_Node000001_Node000026"><a xlink:title=" ">
<path fill="none" stroke="#63b8ff" d="M1107.07,-461.87C1094.73,-453.93 1075.97,-441.87 1059.99,-431.6"/>
<polygon fill="#63b8ff" stroke="#63b8ff" points="1061.76,-428.58 1051.46,-426.11 1057.98,-434.47 1061.76,-428.58"/>
</a>
</g>
</g>
<!-- Node28 -->
<g id="Node000028" class="node">
<title>Node28</title>
<g id="a_Node000028"><a xlink:href="gdither__types_8h.html" target="_top" xlink:title=" ">
<polygon fill="white" stroke="#666666" points="1365.5,-426 1239.5,-426 1239.5,-396 1365.5,-396 1365.5,-426"/>
<text text-anchor="start" x="1247.5" y="-414" font-family="Helvetica,sans-Serif" font-size="10.00">private/gdither/gdither</text>
<text text-anchor="middle" x="1302.5" y="-403" font-family="Helvetica,sans-Serif" font-size="10.00">_types.h</text>
</a>
</g>
</g>
<!-- Node1&#45;&gt;Node28 -->
<g id="edge50_Node000001_Node000028" class="edge">
<title>Node1&#45;&gt;Node28</title>
<g id="a_edge50_Node000001_Node000028"><a xlink:title=" ">
<path fill="none" stroke="#63b8ff" d="M1146.96,-461.99C1173.61,-453.43 1215.48,-439.97 1249.06,-429.18"/>
<polygon fill="#63b8ff" stroke="#63b8ff" points="1250.3,-432.46 1258.74,-426.06 1248.15,-425.79 1250.3,-432.46"/>
</a>
</g>
</g>
<!-- Node3&#45;&gt;Node2 -->
<g id="edge40_Node000003_Node000002" class="edge">
<title>Node3&#45;&gt;Node2</title>
<g id="a_edge40_Node000003_Node000002"><a xlink:title=" ">
<path fill="none" stroke="#63b8ff" d="M1245.01,-285.99C1252.1,-267.97 1267.5,-224.49 1267.5,-186.5 1267.5,-186.5 1267.5,-186.5 1267.5,-124 1267.5,-111.49 1309.35,-104.14 1144.5,-55 1046.2,-25.7 750.13,-15.32 608.12,-11.96"/>
<polygon fill="#63b8ff" stroke="#63b8ff" points="607.83,-8.45 597.75,-11.72 607.67,-15.45 607.83,-8.45"/>
</a>
</g>
</g>
<!-- Node4 -->
<g id="Node000004" class="node">
<title>Node4</title>
<g id="a_Node000004"><a xlink:title=" ">
<polygon fill="#e0e0e0" stroke="#999999" points="1234.5,-134.5 1176.5,-134.5 1176.5,-115.5 1234.5,-115.5 1234.5,-134.5"/>
<text text-anchor="middle" x="1205.5" y="-122.5" font-family="Helvetica,sans-Serif" font-size="10.00">memory</text>
</a>
</g>
</g>
<!-- Node3&#45;&gt;Node4 -->
<g id="edge3_Node000003_Node000004" class="edge">
<title>Node3&#45;&gt;Node4</title>
<g id="a_edge3_Node000003_Node000004"><a xlink:title=" ">
<path fill="none" stroke="#63b8ff" d="M1239.67,-285.91C1234.11,-259.89 1217.35,-181.47 1209.56,-145.01"/>
<polygon fill="#63b8ff" stroke="#63b8ff" points="1212.89,-143.82 1207.37,-134.77 1206.04,-145.28 1212.89,-143.82"/>
</a>
</g>
</g>
<!-- Node5 -->
<g id="Node000005" class="node">
<title>Node5</title>
<g id="a_Node000005"><a xlink:href="process__context_8h.html" target="_top" xlink:title=" ">
<polygon fill="white" stroke="#666666" points="825,-250 720,-250 720,-231 825,-231 825,-250"/>
<text text-anchor="middle" x="772.5" y="-238" font-family="Helvetica,sans-Serif" font-size="10.00">process_context.h</text>
</a>
</g>
</g>
<!-- Node3&#45;&gt;Node5 -->
<g id="edge4_Node000003_Node000005" class="edge">
<title>Node3&#45;&gt;Node5</title>
<g id="a_edge4_Node000003_Node000005"><a xlink:title=" ">
<path fill="none" stroke="#63b8ff" d="M1184.93,-288.11C1096.75,-278.14 927.14,-258.98 835.3,-248.6"/>
<polygon fill="#63b8ff" stroke="#63b8ff" points="835.63,-245.11 825.3,-247.47 834.85,-252.07 835.63,-245.11"/>
</a>
</g>
</g>
<!-- Node5&#45;&gt;Node2 -->
<g id="edge11_Node000005_Node000002" class="edge">
<title>Node5&#45;&gt;Node2</title>
<g id="a_edge11_Node000005_Node000002"><a xlink:title=" ">
<path fill="none" stroke="#63b8ff" d="M825.44,-237.06C869.67,-233.03 933.11,-222.48 981.5,-195 1038.57,-162.59 1074.53,-101.79 1028.5,-55 999.65,-25.67 740.47,-15.38 607.89,-12.01"/>
<polygon fill="#63b8ff" stroke="#63b8ff" points="607.87,-8.51 597.79,-11.76 607.7,-15.51 607.87,-8.51"/>
</a>
</g>
</g>
<!-- Node6 -->
<g id="Node000006" class="node">
<title>Node6</title>
<g id="a_Node000006"><a xlink:href="compose_8h.html" target="_top" xlink:title=" ">
<polygon fill="white" stroke="#666666" points="818,-134.5 727,-134.5 727,-115.5 818,-115.5 818,-134.5"/>
<text text-anchor="middle" x="772.5" y="-122.5" font-family="Helvetica,sans-Serif" font-size="10.00">pbd/compose.h</text>
</a>
</g>
</g>
<!-- Node5&#45;&gt;Node6 -->
<g id="edge5_Node000005_Node000006" class="edge">
<title>Node5&#45;&gt;Node6</title>
<g id="a_edge5_Node000005_Node000006"><a xlink:title=" ">
<path fill="none" stroke="#63b8ff" d="M772.5,-230.97C772.5,-212.73 772.5,-169.57 772.5,-144.64"/>
<polygon fill="#63b8ff" stroke="#63b8ff" points="776,-144.63 772.5,-134.63 769,-144.63 776,-144.63"/>
</a>
</g>
</g>
<!-- Node12 -->
<g id="Node000012" class="node">
<title>Node12</title>
<g id="a_Node000012"><a xlink:href="exception_8h.html" target="_top" xlink:title=" ">
<polygon fill="white" stroke="#666666" points="741.5,-195 667.5,-195 667.5,-176 741.5,-176 741.5,-195"/>
<text text-anchor="middle" x="704.5" y="-183" font-family="Helvetica,sans-Serif" font-size="10.00">exception.h</text>
</a>
</g>
</g>
<!-- Node5&#45;&gt;Node12 -->
<g id="edge12_Node000005_Node000012" class="edge">
<title>Node5&#45;&gt;Node12</title>
<g id="a_edge12_Node000005_Node000012"><a xlink:title=" ">
<path fill="none" stroke="#63b8ff" d="M761.57,-230.98C751.42,-223.07 736.08,-211.11 723.85,-201.58"/>
<polygon fill="#63b8ff" stroke="#63b8ff" points="725.66,-198.56 715.62,-195.17 721.36,-204.08 725.66,-198.56"/>
</a>
</g>
</g>
<!-- Node14 -->
<g id="Node000014" class="node">
<title>Node14</title>
<g id="a_Node000014"><a xlink:href="debug__utils_8h.html" target="_top" xlink:title=" ">
<polygon fill="white" stroke="#666666" points="587.5,-140 473.5,-140 473.5,-110 587.5,-110 587.5,-140"/>
<text text-anchor="start" x="481.5" y="-128" font-family="Helvetica,sans-Serif" font-size="10.00">audiographer/debug</text>
<text text-anchor="middle" x="530.5" y="-117" font-family="Helvetica,sans-Serif" font-size="10.00">_utils.h</text>
</a>
</g>
</g>
<!-- Node5&#45;&gt;Node14 -->
<g id="edge27_Node000005_Node000014" class="edge">
<title>Node5&#45;&gt;Node14</title>
<g id="a_edge27_Node000005_Node000014"><a xlink:title=" ">
<path fill="none" stroke="#63b8ff" d="M748.12,-230.97C724.79,-222.57 688.77,-209 658.5,-195 625.44,-179.71 588.99,-159.73 563.47,-145.22"/>
<polygon fill="#63b8ff" stroke="#63b8ff" points="565,-142.06 554.59,-140.13 561.53,-148.14 565,-142.06"/>
</a>
</g>
</g>
<!-- Node15 -->
<g id="Node000015" class="node">
<title>Node15</title>
<g id="a_Node000015"><a xlink:href="flag__field_8h.html" target="_top" xlink:title=" ">
<polygon fill="white" stroke="#666666" points="231.5,-74 161.5,-74 161.5,-55 231.5,-55 231.5,-74"/>
<text text-anchor="middle" x="196.5" y="-62" font-family="Helvetica,sans-Serif" font-size="10.00">flag_field.h</text>
</a>
</g>
</g>
<!-- Node5&#45;&gt;Node15 -->
<g id="edge31_Node000005_Node000015" class="edge">
<title>Node5&#45;&gt;Node15</title>
<g id="a_edge31_Node000005_Node000015"><a xlink:title=" ">
<path fill="none" stroke="#63b8ff" d="M723.92,-230.96C680.5,-222.94 615.33,-209.97 559.5,-195 484.02,-174.76 466.15,-166.11 392.5,-140 333.92,-119.23 266.29,-93.03 227.74,-77.87"/>
<polygon fill="#63b8ff" stroke="#63b8ff" points="228.72,-74.5 218.13,-74.09 226.16,-81.01 228.72,-74.5"/>
</a>
</g>
</g>
<!-- Node21 -->
<g id="Node000021" class="node">
<title>Node21</title>
<g id="a_Node000021"><a xlink:href="audiographer_2audiographer_2types_8h.html" target="_top" xlink:title=" ">
<polygon fill="white" stroke="#666666" points="455,-134.5 402,-134.5 402,-115.5 455,-115.5 455,-134.5"/>
<text text-anchor="middle" x="428.5" y="-122.5" font-family="Helvetica,sans-Serif" font-size="10.00">types.h</text>
</a>
</g>
</g>
<!-- Node5&#45;&gt;Node21 -->
<g id="edge28_Node000005_Node000021" class="edge">
<title>Node5&#45;&gt;Node21</title>
<g id="a_edge28_Node000005_Node000021"><a xlink:title=" ">
<path fill="none" stroke="#63b8ff" d="M741.28,-230.99C710.24,-222.4 661.36,-208.5 619.5,-195 549.93,-172.56 533.02,-165.47 464.5,-140 462.9,-139.41 461.26,-138.79 459.61,-138.17"/>
<polygon fill="#63b8ff" stroke="#63b8ff" points="460.75,-134.85 450.16,-134.54 458.25,-141.39 460.75,-134.85"/>
</a>
</g>
</g>
<!-- Node22 -->
<g id="Node000022" class="node">
<title>Node22</title>
<g id="a_Node000022"><a xlink:href="throwing_8h.html" target="_top" xlink:title=" ">
<polygon fill="white" stroke="#666666" points="1163.5,-195 1095.5,-195 1095.5,-176 1163.5,-176 1163.5,-195"/>
<text text-anchor="middle" x="1129.5" y="-183" font-family="Helvetica,sans-Serif" font-size="10.00">throwing.h</text>
</a>
</g>
</g>
<!-- Node5&#45;&gt;Node22 -->
<g id="edge32_Node000005_Node000022" class="edge">
<title>Node5&#45;&gt;Node22</title>
<g id="a_edge32_Node000005_Node000022"><a xlink:title=" ">
<path fill="none" stroke="#63b8ff" d="M825.07,-232.46C886.62,-224.09 991.6,-209.43 1081.5,-195 1082.77,-194.8 1084.06,-194.59 1085.36,-194.37"/>
<polygon fill="#63b8ff" stroke="#63b8ff" points="1086.16,-197.79 1095.43,-192.67 1084.99,-190.89 1086.16,-197.79"/>
</a>
</g>
</g>
<!-- Node23 -->
<g id="Node000023" class="node">
<title>Node23</title>
<g id="a_Node000023"><a xlink:href="type__utils_8h.html" target="_top" xlink:title=" ">
<polygon fill="white" stroke="#666666" points="972.5,-195 898.5,-195 898.5,-176 972.5,-176 972.5,-195"/>
<text text-anchor="middle" x="935.5" y="-183" font-family="Helvetica,sans-Serif" font-size="10.00">type_utils.h</text>
</a>
</g>
</g>
<!-- Node5&#45;&gt;Node23 -->
<g id="edge34_Node000005_Node000023" class="edge">
<title>Node5&#45;&gt;Node23</title>
<g id="a_edge34_Node000005_Node000023"><a xlink:title=" ">
<path fill="none" stroke="#63b8ff" d="M798.69,-230.98C825.94,-222.13 868.8,-208.19 899.28,-198.28"/>
<polygon fill="#63b8ff" stroke="#63b8ff" points="900.68,-201.5 909.11,-195.08 898.51,-194.85 900.68,-201.5"/>
</a>
</g>
</g>
<!-- Node7 -->
<g id="Node000007" class="node">
<title>Node7</title>
<g id="a_Node000007"><a xlink:title=" ">
<polygon fill="#e0e0e0" stroke="#999999" points="872.5,-74 816.5,-74 816.5,-55 872.5,-55 872.5,-74"/>
<text text-anchor="middle" x="844.5" y="-62" font-family="Helvetica,sans-Serif" font-size="10.00">sstream</text>
</a>
</g>
</g>
<!-- Node6&#45;&gt;Node7 -->
<g id="edge6_Node000006_Node000007" class="edge">
<title>Node6&#45;&gt;Node7</title>
<g id="a_edge6_Node000006_Node000007"><a xlink:title=" ">
<path fill="none" stroke="#63b8ff" d="M783.12,-115.37C794.4,-106.21 812.42,-91.56 826.03,-80.51"/>
<polygon fill="#63b8ff" stroke="#63b8ff" points="828.28,-83.19 833.83,-74.17 823.86,-77.76 828.28,-83.19"/>
</a>
</g>
</g>
<!-- Node8 -->
<g id="Node000008" class="node">
<title>Node8</title>
<g id="a_Node000008"><a xlink:title=" ">
<polygon fill="#e0e0e0" stroke="#999999" points="602.5,-74 558.5,-74 558.5,-55 602.5,-55 602.5,-74"/>
<text text-anchor="middle" x="580.5" y="-62" font-family="Helvetica,sans-Serif" font-size="10.00">string</text>
</a>
</g>
</g>
<!-- Node6&#45;&gt;Node8 -->
<g id="edge7_Node000006_Node000008" class="edge">
<title>Node6&#45;&gt;Node8</title>
<g id="a_edge7_Node000006_Node000008"><a xlink:title=" ">
<path fill="none" stroke="#63b8ff" d="M744.58,-115.49C709.5,-104.81 649.43,-86.5 612.52,-75.26"/>
<polygon fill="#63b8ff" stroke="#63b8ff" points="613.35,-71.85 602.77,-72.28 611.31,-78.55 613.35,-71.85"/>
</a>
</g>
</g>
<!-- Node9 -->
<g id="Node000009" class="node">
<title>Node9</title>
<g id="a_Node000009"><a xlink:title=" ">
<polygon fill="#e0e0e0" stroke="#999999" points="1002.5,-74 970.5,-74 970.5,-55 1002.5,-55 1002.5,-74"/>
<text text-anchor="middle" x="986.5" y="-62" font-family="Helvetica,sans-Serif" font-size="10.00">list</text>
</a>
</g>
</g>
<!-- Node6&#45;&gt;Node9 -->
<g id="edge8_Node000006_Node000009" class="edge">
<title>Node6&#45;&gt;Node9</title>
<g id="a_edge8_Node000006_Node000009"><a xlink:title=" ">
<path fill="none" stroke="#63b8ff" d="M803.62,-115.49C846.08,-103.89 921.38,-83.3 960.81,-72.52"/>
<polygon fill="#63b8ff" stroke="#63b8ff" points="961.74,-75.9 970.47,-69.88 959.9,-69.14 961.74,-75.9"/>
</a>
</g>
</g>
<!-- Node10 -->
<g id="Node000010" class="node">
<title>Node10</title>
<g id="a_Node000010"><a xlink:title=" ">
<polygon fill="#e0e0e0" stroke="#999999" points="658.5,-74 620.5,-74 620.5,-55 658.5,-55 658.5,-74"/>
<text text-anchor="middle" x="639.5" y="-62" font-family="Helvetica,sans-Serif" font-size="10.00">map</text>
</a>
</g>
</g>
<!-- Node6&#45;&gt;Node10 -->
<g id="edge9_Node000006_Node000010" class="edge">
<title>Node6&#45;&gt;Node10</title>
<g id="a_edge9_Node000006_Node000010"><a xlink:title=" ">
<path fill="none" stroke="#63b8ff" d="M753.16,-115.49C730.8,-105.66 693.79,-89.38 668.1,-78.08"/>
<polygon fill="#63b8ff" stroke="#63b8ff" points="669.43,-74.84 658.86,-74.02 666.61,-81.25 669.43,-74.84"/>
</a>
</g>
</g>
<!-- Node11 -->
<g id="Node000011" class="node">
<title>Node11</title>
<g id="a_Node000011"><a xlink:href="libpbd__visibility_8h.html" target="_top" xlink:title=" ">
<polygon fill="white" stroke="#666666" points="798.5,-74 676.5,-74 676.5,-55 798.5,-55 798.5,-74"/>
<text text-anchor="middle" x="737.5" y="-62" font-family="Helvetica,sans-Serif" font-size="10.00">pbd/libpbd_visibility.h</text>
</a>
</g>
</g>
<!-- Node6&#45;&gt;Node11 -->
<g id="edge10_Node000006_Node000011" class="edge">
<title>Node6&#45;&gt;Node11</title>
<g id="a_edge10_Node000006_Node000011"><a xlink:title=" ">
<path fill="none" stroke="#63b8ff" d="M767.34,-115.37C762.27,-106.9 754.4,-93.74 748.01,-83.07"/>
<polygon fill="#63b8ff" stroke="#63b8ff" points="750.82,-80.95 742.69,-74.17 744.82,-84.55 750.82,-80.95"/>
</a>
</g>
</g>
<!-- Node12&#45;&gt;Node2 -->
<g id="edge16_Node000012_Node000002" class="edge">
<title>Node12&#45;&gt;Node2</title>
<g id="a_edge16_Node000012_Node000002"><a xlink:title=" ">
<path fill="none" stroke="#63b8ff" d="M741.59,-176.41C767.1,-169.6 800.87,-158.03 826.5,-140 844.9,-127.06 896.37,-71.88 881.5,-55 863.7,-34.8 705.7,-21.4 607.85,-14.96"/>
<polygon fill="#63b8ff" stroke="#63b8ff" points="607.9,-11.45 597.7,-14.3 607.45,-18.44 607.9,-11.45"/>
</a>
</g>
</g>
<!-- Node12&#45;&gt;Node6 -->
<g id="edge15_Node000012_Node000006" class="edge">
<title>Node12&#45;&gt;Node6</title>
<g id="a_edge15_Node000012_Node000006"><a xlink:title=" ">
<path fill="none" stroke="#63b8ff" d="M714.53,-175.87C725.08,-166.8 741.89,-152.34 754.69,-141.32"/>
<polygon fill="#63b8ff" stroke="#63b8ff" points="757.13,-143.84 762.43,-134.67 752.56,-138.54 757.13,-143.84"/>
</a>
</g>
</g>
<!-- Node12&#45;&gt;Node8 -->
<g id="edge14_Node000012_Node000008" class="edge">
<title>Node12&#45;&gt;Node8</title>
<g id="a_edge14_Node000012_Node000008"><a xlink:title=" ">
<path fill="none" stroke="#63b8ff" d="M687.12,-175.86C672.13,-167.87 650.44,-155 634.5,-140 616.39,-122.96 600.33,-99.09 590.53,-83"/>
<polygon fill="#63b8ff" stroke="#63b8ff" points="593.38,-80.94 585.28,-74.12 587.36,-84.51 593.38,-80.94"/>
</a>
</g>
</g>
<!-- Node13 -->
<g id="Node000013" class="node">
<title>Node13</title>
<g id="a_Node000013"><a xlink:title=" ">
<polygon fill="#e0e0e0" stroke="#999999" points="709,-134.5 644,-134.5 644,-115.5 709,-115.5 709,-134.5"/>
<text text-anchor="middle" x="676.5" y="-122.5" font-family="Helvetica,sans-Serif" font-size="10.00">exception</text>
</a>
</g>
</g>
<!-- Node12&#45;&gt;Node13 -->
<g id="edge13_Node000012_Node000013" class="edge">
<title>Node12&#45;&gt;Node13</title>
<g id="a_edge13_Node000012_Node000013"><a xlink:title=" ">
<path fill="none" stroke="#63b8ff" d="M700.37,-175.87C696.36,-167.49 690.15,-154.51 685.06,-143.89"/>
<polygon fill="#63b8ff" stroke="#63b8ff" points="688.12,-142.18 680.65,-134.67 681.81,-145.2 688.12,-142.18"/>
</a>
</g>
</g>
<!-- Node12&#45;&gt;Node14 -->
<g id="edge17_Node000012_Node000014" class="edge">
<title>Node12&#45;&gt;Node14</title>
<g id="a_edge17_Node000012_Node000014"><a xlink:title=" ">
<path fill="none" stroke="#63b8ff" d="M679.2,-175.99C653.83,-167.46 614.04,-154.09 582,-143.32"/>
<polygon fill="#63b8ff" stroke="#63b8ff" points="582.93,-139.93 572.33,-140.06 580.7,-146.57 582.93,-139.93"/>
</a>
</g>
</g>
<!-- Node14&#45;&gt;Node2 -->
<g id="edge26_Node000014_Node000002" class="edge">
<title>Node14&#45;&gt;Node2</title>
<g id="a_edge26_Node000014_Node000002"><a xlink:title=" ">
<path fill="none" stroke="#63b8ff" d="M530.5,-109.63C530.5,-89.21 530.5,-51.81 530.5,-29.24"/>
<polygon fill="#63b8ff" stroke="#63b8ff" points="534,-29.23 530.5,-19.23 527,-29.23 534,-29.23"/>
</a>
</g>
</g>
<!-- Node14&#45;&gt;Node8 -->
<g id="edge25_Node000014_Node000008" class="edge">
<title>Node14&#45;&gt;Node8</title>
<g id="a_edge25_Node000014_Node000008"><a xlink:title=" ">
<path fill="none" stroke="#63b8ff" d="M542.6,-109.84C549.79,-101.43 558.93,-90.74 566.43,-81.96"/>
<polygon fill="#63b8ff" stroke="#63b8ff" points="569.17,-84.14 573.01,-74.27 563.85,-79.59 569.17,-84.14"/>
</a>
</g>
</g>
<!-- Node14&#45;&gt;Node15 -->
<g id="edge18_Node000014_Node000015" class="edge">
<title>Node14&#45;&gt;Node15</title>
<g id="a_edge18_Node000014_Node000015"><a xlink:title=" ">
<path fill="none" stroke="#63b8ff" d="M473.15,-111.86C469.89,-111.21 466.65,-110.59 463.5,-110 385.78,-95.41 294.86,-80.77 241.69,-72.45"/>
<polygon fill="#63b8ff" stroke="#63b8ff" points="241.99,-68.96 231.57,-70.88 240.91,-75.88 241.99,-68.96"/>
</a>
</g>
</g>
<!-- Node20 -->
<g id="Node000020" class="node">
<title>Node20</title>
<g id="a_Node000020"><a xlink:title=" ">
<polygon fill="#e0e0e0" stroke="#999999" points="502,-74 453,-74 453,-55 502,-55 502,-74"/>
<text text-anchor="middle" x="477.5" y="-62" font-family="Helvetica,sans-Serif" font-size="10.00">cstdlib</text>
</a>
</g>
</g>
<!-- Node14&#45;&gt;Node20 -->
<g id="edge24_Node000014_Node000020" class="edge">
<title>Node14&#45;&gt;Node20</title>
<g id="a_edge24_Node000014_Node000020"><a xlink:title=" ">
<path fill="none" stroke="#63b8ff" d="M517.67,-109.84C509.98,-101.35 500.17,-90.52 492.17,-81.69"/>
<polygon fill="#63b8ff" stroke="#63b8ff" points="494.75,-79.33 485.44,-74.27 489.56,-84.03 494.75,-79.33"/>
</a>
</g>
</g>
<!-- Node15&#45;&gt;Node2 -->
<g id="edge23_Node000015_Node000002" class="edge">
<title>Node15&#45;&gt;Node2</title>
<g id="a_edge23_Node000015_Node000002"><a xlink:title=" ">
<path fill="none" stroke="#63b8ff" d="M231.61,-57.93C287.33,-49.09 396.81,-31.72 466.67,-20.63"/>
<polygon fill="#63b8ff" stroke="#63b8ff" points="467.35,-24.06 476.68,-19.04 466.26,-17.15 467.35,-24.06"/>
</a>
</g>
</g>
<!-- Node16 -->
<g id="Node000016" class="node">
<title>Node16</title>
<g id="a_Node000016"><a xlink:title=" ">
<polygon fill="#e0e0e0" stroke="#999999" points="325,-19 272,-19 272,0 325,0 325,-19"/>
<text text-anchor="middle" x="298.5" y="-7" font-family="Helvetica,sans-Serif" font-size="10.00">stdint.h</text>
</a>
</g>
</g>
<!-- Node15&#45;&gt;Node16 -->
<g id="edge19_Node000015_Node000016" class="edge">
<title>Node15&#45;&gt;Node16</title>
<g id="a_edge19_Node000015_Node000016"><a xlink:title=" ">
<path fill="none" stroke="#63b8ff" d="M212.89,-54.98C229.07,-46.57 254.07,-33.59 272.88,-23.81"/>
<polygon fill="#63b8ff" stroke="#63b8ff" points="274.55,-26.89 281.81,-19.17 271.33,-20.68 274.55,-26.89"/>
</a>
</g>
</g>
<!-- Node17 -->
<g id="Node000017" class="node">
<title>Node17</title>
<g id="a_Node000017"><a xlink:title=" ">
<polygon fill="#e0e0e0" stroke="#999999" points="53,-19 0,-19 0,0 53,0 53,-19"/>
<text text-anchor="middle" x="26.5" y="-7" font-family="Helvetica,sans-Serif" font-size="10.00">iterator</text>
</a>
</g>
</g>
<!-- Node15&#45;&gt;Node17 -->
<g id="edge20_Node000015_Node000017" class="edge">
<title>Node15&#45;&gt;Node17</title>
<g id="a_edge20_Node000015_Node000017"><a xlink:title=" ">
<path fill="none" stroke="#63b8ff" d="M169.19,-54.98C140.39,-46.01 94.87,-31.82 63.01,-21.88"/>
<polygon fill="#63b8ff" stroke="#63b8ff" points="63.77,-18.45 53.19,-18.82 61.69,-25.14 63.77,-18.45"/>
</a>
</g>
</g>
<!-- Node18 -->
<g id="Node000018" class="node">
<title>Node18</title>
<g id="a_Node000018"><a xlink:title=" ">
<polygon fill="#e0e0e0" stroke="#999999" points="121.5,-19 71.5,-19 71.5,0 121.5,0 121.5,-19"/>
<text text-anchor="middle" x="96.5" y="-7" font-family="Helvetica,sans-Serif" font-size="10.00">climits</text>
</a>
</g>
</g>
<!-- Node15&#45;&gt;Node18 -->
<g id="edge21_Node000015_Node000018" class="edge">
<title>Node15&#45;&gt;Node18</title>
<g id="a_edge21_Node000015_Node000018"><a xlink:title=" ">
<path fill="none" stroke="#63b8ff" d="M180.43,-54.98C164.64,-46.61 140.28,-33.7 121.87,-23.95"/>
<polygon fill="#63b8ff" stroke="#63b8ff" points="123.33,-20.76 112.86,-19.17 120.06,-26.95 123.33,-20.76"/>
</a>
</g>
</g>
<!-- Node19 -->
<g id="Node000019" class="node">
<title>Node19</title>
<g id="a_Node000019"><a xlink:title=" ">
<polygon fill="#e0e0e0" stroke="#999999" points="253.5,-19 139.5,-19 139.5,0 253.5,0 253.5,-19"/>
<text text-anchor="middle" x="196.5" y="-7" font-family="Helvetica,sans-Serif" font-size="10.00">boost/operators.hpp</text>
</a>
</g>
</g>
<!-- Node15&#45;&gt;Node19 -->
<g id="edge22_Node000015_Node000019" class="edge">
<title>Node15&#45;&gt;Node19</title>
<g id="a_edge22_Node000015_Node000019"><a xlink:title=" ">
<path fill="none" stroke="#63b8ff" d="M196.5,-54.75C196.5,-47.8 196.5,-37.85 196.5,-29.13"/>
<polygon fill="#63b8ff" stroke="#63b8ff" points="200,-29.09 196.5,-19.09 193,-29.09 200,-29.09"/>
</a>
</g>
</g>
<!-- Node21&#45;&gt;Node2 -->
<g id="edge30_Node000021_Node000002" class="edge">
<title>Node21&#45;&gt;Node2</title>
<g id="a_edge30_Node000021_Node000002"><a xlink:title=" ">
<path fill="none" stroke="#63b8ff" d="M428.13,-115.4C427.98,-101.31 429.59,-73.07 443.5,-55 455.01,-40.05 472.93,-29.7 489.52,-22.76"/>
<polygon fill="#63b8ff" stroke="#63b8ff" points="491.02,-25.94 499.08,-19.06 488.49,-19.41 491.02,-25.94"/>
</a>
</g>
</g>
<!-- Node21&#45;&gt;Node16 -->
<g id="edge29_Node000021_Node000016" class="edge">
<title>Node21&#45;&gt;Node16</title>
<g id="a_edge29_Node000021_Node000016"><a xlink:title=" ">
<path fill="none" stroke="#63b8ff" d="M418.73,-115.47C396.9,-96.41 343.89,-50.13 316.13,-25.89"/>
<polygon fill="#63b8ff" stroke="#63b8ff" points="318.22,-23.07 308.38,-19.13 313.62,-28.34 318.22,-23.07"/>
</a>
</g>
</g>
<!-- Node22&#45;&gt;Node2 -->
<g id="edge33_Node000022_Node000002" class="edge">
<title>Node22&#45;&gt;Node2</title>
<g id="a_edge33_Node000022_Node000002"><a xlink:title=" ">
<path fill="none" stroke="#63b8ff" d="M1132.57,-175.77C1140.15,-152.5 1156.83,-88.52 1124.5,-55 1089.37,-18.57 760.65,-11.83 607.88,-10.68"/>
<polygon fill="#63b8ff" stroke="#63b8ff" points="607.65,-7.18 597.63,-10.61 607.6,-14.18 607.65,-7.18"/>
</a>
</g>
</g>
<!-- Node23&#45;&gt;Node2 -->
<g id="edge38_Node000023_Node000002" class="edge">
<title>Node23&#45;&gt;Node2</title>
<g id="a_edge38_Node000023_Node000002"><a xlink:title=" ">
<path fill="none" stroke="#63b8ff" d="M966.55,-175.87C984.25,-169.18 1004.95,-157.95 1015.5,-140 1023.17,-126.95 1019.31,-62.96 1011.5,-55 983.88,-26.83 737.03,-16.03 608.12,-12.28"/>
<polygon fill="#63b8ff" stroke="#63b8ff" points="608.01,-8.78 597.92,-12 607.82,-15.78 608.01,-8.78"/>
</a>
</g>
</g>
<!-- Node23&#45;&gt;Node4 -->
<g id="edge35_Node000023_Node000004" class="edge">
<title>Node23&#45;&gt;Node4</title>
<g id="a_edge35_Node000023_Node000004"><a xlink:title=" ">
<path fill="none" stroke="#63b8ff" d="M972.76,-176.43C1023.75,-165.38 1114.85,-145.64 1166.66,-134.42"/>
<polygon fill="#63b8ff" stroke="#63b8ff" points="1167.44,-137.83 1176.47,-132.29 1165.96,-130.99 1167.44,-137.83"/>
</a>
</g>
</g>
<!-- Node23&#45;&gt;Node21 -->
<g id="edge39_Node000023_Node000021" class="edge">
<title>Node23&#45;&gt;Node21</title>
<g id="a_edge39_Node000023_Node000021"><a xlink:title=" ">
<path fill="none" stroke="#63b8ff" d="M898.39,-182.32C802.26,-176.47 546.92,-159.52 464.5,-140 462.13,-139.44 459.71,-138.76 457.3,-138"/>
<polygon fill="#63b8ff" stroke="#63b8ff" points="458.21,-134.61 447.62,-134.56 455.87,-141.2 458.21,-134.61"/>
</a>
</g>
</g>
<!-- Node24 -->
<g id="Node000024" class="node">
<title>Node24</title>
<g id="a_Node000024"><a xlink:title=" ">
<polygon fill="#e0e0e0" stroke="#999999" points="938.5,-134.5 874.5,-134.5 874.5,-115.5 938.5,-115.5 938.5,-134.5"/>
<text text-anchor="middle" x="906.5" y="-122.5" font-family="Helvetica,sans-Serif" font-size="10.00">algorithm</text>
</a>
</g>
</g>
<!-- Node23&#45;&gt;Node24 -->
<g id="edge36_Node000023_Node000024" class="edge">
<title>Node23&#45;&gt;Node24</title>
<g id="a_edge36_Node000023_Node000024"><a xlink:title=" ">
<path fill="none" stroke="#63b8ff" d="M931.22,-175.87C927.07,-167.49 920.63,-154.51 915.37,-143.89"/>
<polygon fill="#63b8ff" stroke="#63b8ff" points="918.37,-142.07 910.8,-134.67 912.1,-145.18 918.37,-142.07"/>
</a>
</g>
</g>
<!-- Node25 -->
<g id="Node000025" class="node">
<title>Node25</title>
<g id="a_Node000025"><a xlink:title=" ">
<polygon fill="#e0e0e0" stroke="#999999" points="1006.5,-134.5 956.5,-134.5 956.5,-115.5 1006.5,-115.5 1006.5,-134.5"/>
<text text-anchor="middle" x="981.5" y="-122.5" font-family="Helvetica,sans-Serif" font-size="10.00">cstring</text>
</a>
</g>
</g>
<!-- Node23&#45;&gt;Node25 -->
<g id="edge37_Node000023_Node000025" class="edge">
<title>Node23&#45;&gt;Node25</title>
<g id="a_edge37_Node000023_Node000025"><a xlink:title=" ">
<path fill="none" stroke="#63b8ff" d="M942.29,-175.87C949.15,-167.14 959.93,-153.43 968.45,-142.59"/>
<polygon fill="#63b8ff" stroke="#63b8ff" points="971.25,-144.69 974.68,-134.67 965.75,-140.36 971.25,-144.69"/>
</a>
</g>
</g>
<!-- Node26&#45;&gt;Node2 -->
<g id="edge42_Node000026_Node000002" class="edge">
<title>Node26&#45;&gt;Node2</title>
<g id="a_edge42_Node000026_Node000002"><a xlink:title=" ">
<path fill="none" stroke="#63b8ff" d="M976.87,-407.47C857.67,-401.39 570.21,-384.59 476.5,-360 410.02,-342.55 335.5,-365.23 335.5,-296.5 335.5,-296.5 335.5,-296.5 335.5,-124 335.5,-63.4 406.72,-34.59 463.08,-21.28"/>
<polygon fill="#63b8ff" stroke="#63b8ff" points="464.05,-24.65 473.05,-19.05 462.53,-17.82 464.05,-24.65"/>
</a>
</g>
</g>
<!-- Node26&#45;&gt;Node9 -->
<g id="edge49_Node000026_Node000009" class="edge">
<title>Node26&#45;&gt;Node9</title>
<g id="a_edge49_Node000026_Node000009"><a xlink:title=" ">
<path fill="none" stroke="#63b8ff" d="M1029.5,-395.67C1029.5,-374.14 1029.5,-332.17 1029.5,-296.5 1029.5,-296.5 1029.5,-296.5 1029.5,-239.5 1029.5,-181.61 1034.95,-164.53 1015.5,-110 1011.94,-100.03 1005.75,-90.05 999.99,-82.08"/>
<polygon fill="#63b8ff" stroke="#63b8ff" points="1002.7,-79.86 993.84,-74.04 997.13,-84.11 1002.7,-79.86"/>
</a>
</g>
</g>
<!-- Node26&#45;&gt;Node21 -->
<g id="edge43_Node000026_Node000021" class="edge">
<title>Node26&#45;&gt;Node21</title>
<g id="a_edge43_Node000026_Node000021"><a xlink:title=" ">
<path fill="none" stroke="#63b8ff" d="M976.75,-410.78C833.77,-411.47 449.5,-403.4 449.5,-296.5 449.5,-296.5 449.5,-296.5 449.5,-239.5 449.5,-205.56 440.31,-166.84 434.09,-144.53"/>
<polygon fill="#63b8ff" stroke="#63b8ff" points="437.39,-143.36 431.25,-134.73 430.67,-145.31 437.39,-143.36"/>
</a>
</g>
</g>
<!-- Node27 -->
<g id="Node000027" class="node">
<title>Node27</title>
<g id="a_Node000027"><a xlink:href="audiographer_2audiographer_2source_8h.html" target="_top" xlink:title=" ">
<polygon fill="white" stroke="#666666" points="1183,-360 1058,-360 1058,-341 1183,-341 1183,-360"/>
<text text-anchor="middle" x="1120.5" y="-348" font-family="Helvetica,sans-Serif" font-size="10.00">audiographer/source.h</text>
</a>
</g>
</g>
<!-- Node26&#45;&gt;Node27 -->
<g id="edge44_Node000026_Node000027" class="edge">
<title>Node26&#45;&gt;Node27</title>
<g id="a_edge44_Node000026_Node000027"><a xlink:title=" ">
<path fill="none" stroke="#63b8ff" d="M1051.53,-395.84C1065.77,-386.68 1084.23,-374.82 1098.47,-365.66"/>
<polygon fill="#63b8ff" stroke="#63b8ff" points="1100.61,-368.45 1107.13,-360.09 1096.83,-362.56 1100.61,-368.45"/>
</a>
</g>
</g>
<!-- Node27&#45;&gt;Node2 -->
<g id="edge48_Node000027_Node000002" class="edge">
<title>Node27&#45;&gt;Node2</title>
<g id="a_edge48_Node000027_Node000002"><a xlink:title=" ">
<path fill="none" stroke="#63b8ff" d="M1057.92,-343.18C997.42,-336.35 903.42,-323.86 823.5,-305 623.87,-257.9 504.59,-311.78 392.5,-140 369.89,-105.34 398.65,-81.42 430.5,-55 448.14,-40.37 471.36,-29.64 490.98,-22.4"/>
<polygon fill="#63b8ff" stroke="#63b8ff" points="492.31,-25.64 500.58,-19.02 489.98,-19.04 492.31,-25.64"/>
</a>
</g>
</g>
<!-- Node27&#45;&gt;Node3 -->
<g id="edge47_Node000027_Node000003" class="edge">
<title>Node27&#45;&gt;Node3</title>
<g id="a_edge47_Node000027_Node000003"><a xlink:title=" ">
<path fill="none" stroke="#63b8ff" d="M1139.94,-340.98C1159.49,-332.42 1189.88,-319.11 1212.32,-309.28"/>
<polygon fill="#63b8ff" stroke="#63b8ff" points="1213.95,-312.39 1221.71,-305.17 1211.14,-305.98 1213.95,-312.39"/>
</a>
</g>
</g>
<!-- Node27&#45;&gt;Node4 -->
<g id="edge45_Node000027_Node000004" class="edge">
<title>Node27&#45;&gt;Node4</title>
<g id="a_edge45_Node000027_Node000004"><a xlink:title=" ">
<path fill="none" stroke="#63b8ff" d="M1123.83,-340.74C1136.39,-307.71 1181.04,-190.32 1198.46,-144.5"/>
<polygon fill="#63b8ff" stroke="#63b8ff" points="1201.82,-145.53 1202.1,-134.94 1195.27,-143.05 1201.82,-145.53"/>
</a>
</g>
</g>
<!-- Node27&#45;&gt;Node21 -->
<g id="edge46_Node000027_Node000021" class="edge">
<title>Node27&#45;&gt;Node21</title>
<g id="a_edge46_Node000027_Node000021"><a xlink:title=" ">
<path fill="none" stroke="#63b8ff" d="M1070.8,-340.96C970.83,-322.67 739.61,-274.79 559.5,-195 520.78,-177.84 477.63,-154.19 451.8,-139.51"/>
<polygon fill="#63b8ff" stroke="#63b8ff" points="453.52,-136.46 443.11,-134.53 450.05,-142.54 453.52,-136.46"/>
</a>
</g>
</g>
</g>
</svg>
