<?xml version="1.0" encoding="UTF-8" standalone="no"?>
<!DOCTYPE svg PUBLIC "-//W3C//DTD SVG 1.1//EN"
 "http://www.w3.org/Graphics/SVG/1.1/DTD/svg11.dtd">
<!-- Generated by graphviz version 2.43.0 (0)
 -->
<!-- Title: send.h Pages: 1 -->
<svg width="624pt" height="137pt"
 viewBox="0.00 0.00 624.00 137.00" xmlns="http://www.w3.org/2000/svg" xmlns:xlink="http://www.w3.org/1999/xlink">
<g id="graph0" class="graph" transform="scale(1 1) rotate(0) translate(4 133)">
<title>send.h</title>
<!-- Node1 -->
<g id="Node000001" class="node">
<title>Node1</title>
<g id="a_Node000001"><a xlink:title=" ">
<polygon fill="#999999" stroke="#666666" points="329.5,-129 280.5,-129 280.5,-110 329.5,-110 329.5,-129"/>
<text text-anchor="middle" x="305" y="-117" font-family="Helvetica,sans-Serif" font-size="10.00">send.h</text>
</a>
</g>
</g>
<!-- Node2 -->
<g id="Node000002" class="node">
<title>Node2</title>
<g id="a_Node000002"><a xlink:href="internal__send_8h.html" target="_top" xlink:title=" ">
<polygon fill="white" stroke="#666666" points="266,-74 174,-74 174,-55 266,-55 266,-74"/>
<text text-anchor="middle" x="220" y="-62" font-family="Helvetica,sans-Serif" font-size="10.00">internal_send.h</text>
</a>
</g>
</g>
<!-- Node1&#45;&gt;Node2 -->
<g id="edge1_Node000001_Node000002" class="edge">
<title>Node1&#45;&gt;Node2</title>
<g id="a_edge1_Node000001_Node000002"><a xlink:title=" ">
<path fill="none" stroke="#63b8ff" d="M282.43,-104.42C267,-94.81 247.05,-82.37 233.91,-74.17"/>
<polygon fill="#63b8ff" stroke="#63b8ff" points="281.01,-107.66 291.34,-109.98 284.71,-101.72 281.01,-107.66"/>
</a>
</g>
</g>
<!-- Node3 -->
<g id="Node000003" class="node">
<title>Node3</title>
<g id="a_Node000003"><a xlink:href="osc_8h.html" target="_top" xlink:title=" ">
<polygon fill="white" stroke="#666666" points="326,-74 284,-74 284,-55 326,-55 326,-74"/>
<text text-anchor="middle" x="305" y="-62" font-family="Helvetica,sans-Serif" font-size="10.00">osc.h</text>
</a>
</g>
</g>
<!-- Node1&#45;&gt;Node3 -->
<g id="edge2_Node000001_Node000003" class="edge">
<title>Node1&#45;&gt;Node3</title>
<g id="a_edge2_Node000001_Node000003"><a xlink:title=" ">
<path fill="none" stroke="#63b8ff" d="M305,-99.66C305,-90.93 305,-80.99 305,-74.09"/>
<polygon fill="#63b8ff" stroke="#63b8ff" points="301.5,-99.75 305,-109.75 308.5,-99.75 301.5,-99.75"/>
</a>
</g>
</g>
<!-- Node9 -->
<g id="Node000009" class="node">
<title>Node9</title>
<g id="a_Node000009"><a xlink:href="surround__send_8h.html" target="_top" xlink:title=" ">
<polygon fill="white" stroke="#666666" points="441.5,-74 344.5,-74 344.5,-55 441.5,-55 441.5,-74"/>
<text text-anchor="middle" x="393" y="-62" font-family="Helvetica,sans-Serif" font-size="10.00">surround_send.h</text>
</a>
</g>
</g>
<!-- Node1&#45;&gt;Node9 -->
<g id="edge8_Node000001_Node000009" class="edge">
<title>Node1&#45;&gt;Node9</title>
<g id="a_edge8_Node000001_Node000009"><a xlink:title=" ">
<path fill="none" stroke="#63b8ff" d="M327.92,-104.7C343.95,-95.04 364.87,-82.44 378.6,-74.17"/>
<polygon fill="#63b8ff" stroke="#63b8ff" points="325.9,-101.83 319.14,-109.98 329.51,-107.82 325.9,-101.83"/>
</a>
</g>
</g>
<!-- Node4 -->
<g id="Node000004" class="node">
<title>Node4</title>
<g id="a_Node000004"><a xlink:href="osc__cue__observer_8h.html" target="_top" xlink:title=" ">
<polygon fill="white" stroke="#666666" points="112,-19 0,-19 0,0 112,0 112,-19"/>
<text text-anchor="middle" x="56" y="-7" font-family="Helvetica,sans-Serif" font-size="10.00">osc_cue_observer.h</text>
</a>
</g>
</g>
<!-- Node3&#45;&gt;Node4 -->
<g id="edge3_Node000003_Node000004" class="edge">
<title>Node3&#45;&gt;Node4</title>
<g id="a_edge3_Node000003_Node000004"><a xlink:title=" ">
<path fill="none" stroke="#63b8ff" d="M273.85,-54.86C209.56,-39.42 145.55,-26.91 103.22,-19.03"/>
<polygon fill="#63b8ff" stroke="#63b8ff" points="273.2,-58.31 283.75,-57.26 274.85,-51.51 273.2,-58.31"/>
</a>
</g>
</g>
<!-- Node5 -->
<g id="Node000005" class="node">
<title>Node5</title>
<g id="a_Node000005"><a xlink:href="osc__global__observer_8h.html" target="_top" xlink:title=" ">
<polygon fill="white" stroke="#666666" points="255.5,-19 130.5,-19 130.5,0 255.5,0 255.5,-19"/>
<text text-anchor="middle" x="193" y="-7" font-family="Helvetica,sans-Serif" font-size="10.00">osc_global_observer.h</text>
</a>
</g>
</g>
<!-- Node3&#45;&gt;Node5 -->
<g id="edge4_Node000003_Node000005" class="edge">
<title>Node3&#45;&gt;Node5</title>
<g id="a_edge4_Node000003_Node000005"><a xlink:title=" ">
<path fill="none" stroke="#63b8ff" d="M277.81,-50.63C257.18,-40.87 229.38,-27.71 211.32,-19.17"/>
<polygon fill="#63b8ff" stroke="#63b8ff" points="276.47,-53.87 287.01,-54.98 279.46,-47.54 276.47,-53.87"/>
</a>
</g>
</g>
<!-- Node6 -->
<g id="Node000006" class="node">
<title>Node6</title>
<g id="a_Node000006"><a xlink:href="osc__gui_8h.html" target="_top" xlink:title=" ">
<polygon fill="white" stroke="#666666" points="336,-19 274,-19 274,0 336,0 336,-19"/>
<text text-anchor="middle" x="305" y="-7" font-family="Helvetica,sans-Serif" font-size="10.00">osc_gui.h</text>
</a>
</g>
</g>
<!-- Node3&#45;&gt;Node6 -->
<g id="edge5_Node000003_Node000006" class="edge">
<title>Node3&#45;&gt;Node6</title>
<g id="a_edge5_Node000003_Node000006"><a xlink:title=" ">
<path fill="none" stroke="#63b8ff" d="M305,-44.66C305,-35.93 305,-25.99 305,-19.09"/>
<polygon fill="#63b8ff" stroke="#63b8ff" points="301.5,-44.75 305,-54.75 308.5,-44.75 301.5,-44.75"/>
</a>
</g>
</g>
<!-- Node7 -->
<g id="Node000007" class="node">
<title>Node7</title>
<g id="a_Node000007"><a xlink:href="osc__route__observer_8h.html" target="_top" xlink:title=" ">
<polygon fill="white" stroke="#666666" points="474,-19 354,-19 354,0 474,0 474,-19"/>
<text text-anchor="middle" x="414" y="-7" font-family="Helvetica,sans-Serif" font-size="10.00">osc_route_observer.h</text>
</a>
</g>
</g>
<!-- Node3&#45;&gt;Node7 -->
<g id="edge6_Node000003_Node000007" class="edge">
<title>Node3&#45;&gt;Node7</title>
<g id="a_edge6_Node000003_Node000007"><a xlink:title=" ">
<path fill="none" stroke="#63b8ff" d="M331.73,-50.5C351.79,-40.75 378.68,-27.68 396.17,-19.17"/>
<polygon fill="#63b8ff" stroke="#63b8ff" points="329.98,-47.46 322.51,-54.98 333.04,-53.76 329.98,-47.46"/>
</a>
</g>
</g>
<!-- Node8 -->
<g id="Node000008" class="node">
<title>Node8</title>
<g id="a_Node000008"><a xlink:href="osc__select__observer_8h.html" target="_top" xlink:title=" ">
<polygon fill="white" stroke="#666666" points="616,-19 492,-19 492,0 616,0 616,-19"/>
<text text-anchor="middle" x="554" y="-7" font-family="Helvetica,sans-Serif" font-size="10.00">osc_select_observer.h</text>
</a>
</g>
</g>
<!-- Node3&#45;&gt;Node8 -->
<g id="edge7_Node000003_Node000008" class="edge">
<title>Node3&#45;&gt;Node8</title>
<g id="a_edge7_Node000003_Node000008"><a xlink:title=" ">
<path fill="none" stroke="#63b8ff" d="M335.7,-55.07C335.8,-55.05 335.9,-55.02 336,-55 394.8,-40.95 463.18,-27.45 507.45,-19.08"/>
<polygon fill="#63b8ff" stroke="#63b8ff" points="335.13,-51.61 326.3,-57.46 336.85,-58.39 335.13,-51.61"/>
</a>
</g>
</g>
</g>
</svg>
