<?xml version="1.0" encoding="UTF-8" standalone="no"?>
<!DOCTYPE svg PUBLIC "-//W3C//DTD SVG 1.1//EN"
 "http://www.w3.org/Graphics/SVG/1.1/DTD/svg11.dtd">
<!-- Generated by graphviz version 2.43.0 (0)
 -->
<!-- Title: separator.h Pages: 1 -->
<!--zoomable 357 -->

<svg id="main" version="1.1" xmlns="http://www.w3.org/2000/svg" xmlns:xlink="http://www.w3.org/1999/xlink" xml:space="preserve" onload="init(evt)">
<style type="text/css"><![CDATA[
.node, .edge {opacity: 0.7;}
.node.selected, .edge.selected {opacity: 1;}
.edge:hover path { stroke: red; }
.edge:hover polygon { stroke: red; fill: red; }
]]></style>

<defs>
  <circle id="rim" cx="0" cy="0" r="7"/>
  <circle id="rim2" cx="0" cy="0" r="3.5"/>
  <g id="zoomPlus">
    <use xlink:href="#rim" fill="#404040"><set attributeName="fill" to="#808080" begin="zoomplus.mouseover" end="zoomplus.mouseout"/></use>
    <path d="M-4,0h8M0,-4v8" fill="none" stroke="white" stroke-width="1.5" pointer-events="none"/>
  </g>
  <g id="zoomMin">
    <use xlink:href="#rim" fill="#404040"><set attributeName="fill" to="#808080" begin="zoomminus.mouseover" end="zoomminus.mouseout"/></use>
    <path d="M-4,0h8" fill="none" stroke="white" stroke-width="1.5" pointer-events="none"/>
  </g>
  <g id="arrowUp" transform="translate(30 24)">
    <use xlink:href="#rim"/>
    <path pointer-events="none" fill="none" stroke="white" stroke-width="1.5" d="M0,-3.0v7 M-2.5,-0.5L0,-3.0L2.5,-0.5"/>
  </g>
  <g id="arrowRight" transform="rotate(90) translate(36 -43)">
    <use xlink:href="#rim"/>
    <path pointer-events="none" fill="none" stroke="white" stroke-width="1.5" d="M0,-3.0v7 M-2.5,-0.5L0,-3.0L2.5,-0.5"/>
  </g>
  <g id="arrowDown" transform="rotate(180) translate(-30 -48)">
    <use xlink:href="#rim"/>
    <path pointer-events="none" fill="none" stroke="white" stroke-width="1.5" d="M0,-3.0v7 M-2.5,-0.5L0,-3.0L2.5,-0.5"/>
  </g>
  <g id="arrowLeft" transform="rotate(270) translate(-36 17)">
    <use xlink:href="#rim"/>
    <path pointer-events="none" fill="none" stroke="white" stroke-width="1.5" d="M0,-3.0v7 M-2.5,-0.5L0,-3.0L2.5,-0.5"/>
  </g>
  <g id="resetDef">
    <use xlink:href="#rim2" fill="#404040"><set attributeName="fill" to="#808080" begin="reset.mouseover" end="reset.mouseout"/></use>
  </g>
</defs>
<script type="application/ecmascript">
var viewWidth = 1186;
var viewHeight = 357;
var sectionId = 'dynsection-1';
</script>
<script type="application/ecmascript" xlink:href="svg.min.js"/>
<svg id="graph" class="graph">
<g id="viewport">
<title>separator.h</title>
<!-- Node1 -->
<g id="Node000001" class="node">
<title>Node1</title>
<g id="a_Node000001"><a xlink:title=" ">
<polygon fill="#999999" stroke="#666666" points="317.5,-349 246.5,-349 246.5,-330 317.5,-330 317.5,-349"/>
<text text-anchor="middle" x="282" y="-337" font-family="Helvetica,sans-Serif" font-size="10.00">separator.h</text>
</a>
</g>
</g>
<!-- Node2 -->
<g id="Node000002" class="node">
<title>Node2</title>
<g id="a_Node000002"><a xlink:href="analysis__window_8h.html" target="_top" xlink:title=" ">
<polygon fill="white" stroke="#666666" points="108,-294 0,-294 0,-275 108,-275 108,-294"/>
<text text-anchor="middle" x="54" y="-282" font-family="Helvetica,sans-Serif" font-size="10.00">analysis_window.h</text>
</a>
</g>
</g>
<!-- Node1&#45;&gt;Node2 -->
<g id="edge1_Node000001_Node000002" class="edge">
<title>Node1&#45;&gt;Node2</title>
<g id="a_edge1_Node000001_Node000002"><a xlink:title=" ">
<path fill="none" stroke="#63b8ff" d="M236.51,-327.93C193.76,-317.99 130.58,-303.3 90.89,-294.07"/>
<polygon fill="#63b8ff" stroke="#63b8ff" points="235.84,-331.36 246.38,-330.22 237.43,-324.55 235.84,-331.36"/>
</a>
</g>
</g>
<!-- Node3 -->
<g id="Node000003" class="node">
<title>Node3</title>
<g id="a_Node000003"><a xlink:href="audio__region__editor_8h.html" target="_top" xlink:title=" ">
<polygon fill="white" stroke="#666666" points="243,-239 121,-239 121,-220 243,-220 243,-239"/>
<text text-anchor="middle" x="182" y="-227" font-family="Helvetica,sans-Serif" font-size="10.00">audio_region_editor.h</text>
</a>
</g>
</g>
<!-- Node1&#45;&gt;Node3 -->
<g id="edge2_Node000001_Node000003" class="edge">
<title>Node1&#45;&gt;Node3</title>
<g id="a_edge2_Node000001_Node000003"><a xlink:title=" ">
<path fill="none" stroke="#63b8ff" d="M267.3,-322.26C255.62,-309.39 238.83,-290.98 224,-275 212.43,-262.54 198.92,-248.28 190.41,-239.33"/>
<polygon fill="#63b8ff" stroke="#63b8ff" points="264.85,-324.77 274.16,-329.83 270.04,-320.07 264.85,-324.77"/>
</a>
</g>
</g>
<!-- Node4 -->
<g id="Node000004" class="node">
<title>Node4</title>
<g id="a_Node000004"><a xlink:href="meter__strip_8h.html" target="_top" xlink:title=" ">
<polygon fill="white" stroke="#666666" points="202,-74 120,-74 120,-55 202,-55 202,-74"/>
<text text-anchor="middle" x="161" y="-62" font-family="Helvetica,sans-Serif" font-size="10.00">meter_strip.h</text>
</a>
</g>
</g>
<!-- Node1&#45;&gt;Node4 -->
<g id="edge3_Node000001_Node000004" class="edge">
<title>Node1&#45;&gt;Node4</title>
<g id="a_edge3_Node000001_Node000004"><a xlink:title=" ">
<path fill="none" stroke="#63b8ff" d="M282,-319.77C282,-298.23 282,-261.81 282,-230.5 282,-230.5 282,-230.5 282,-173.5 282,-121.69 219.49,-88.56 184.33,-74.03"/>
<polygon fill="#63b8ff" stroke="#63b8ff" points="278.5,-319.82 282,-329.82 285.5,-319.82 278.5,-319.82"/>
</a>
</g>
</g>
<!-- Node6 -->
<g id="Node000006" class="node">
<title>Node6</title>
<g id="a_Node000006"><a xlink:href="plugin__dspload__ui_8h.html" target="_top" xlink:title=" ">
<polygon fill="white" stroke="#666666" points="502.5,-294 389.5,-294 389.5,-275 502.5,-275 502.5,-294"/>
<text text-anchor="middle" x="446" y="-282" font-family="Helvetica,sans-Serif" font-size="10.00">plugin_dspload_ui.h</text>
</a>
</g>
</g>
<!-- Node1&#45;&gt;Node6 -->
<g id="edge5_Node000001_Node000006" class="edge">
<title>Node1&#45;&gt;Node6</title>
<g id="a_edge5_Node000001_Node000006"><a xlink:title=" ">
<path fill="none" stroke="#63b8ff" d="M318.21,-326.8C348.82,-316.91 391.95,-302.97 419.44,-294.08"/>
<polygon fill="#63b8ff" stroke="#63b8ff" points="316.79,-323.58 308.35,-329.98 318.94,-330.24 316.79,-323.58"/>
</a>
</g>
</g>
<!-- Node7 -->
<g id="Node000007" class="node">
<title>Node7</title>
<g id="a_Node000007"><a xlink:href="region__editor_8h.html" target="_top" xlink:title=" ">
<polygon fill="white" stroke="#666666" points="215.5,-294 126.5,-294 126.5,-275 215.5,-275 215.5,-294"/>
<text text-anchor="middle" x="171" y="-282" font-family="Helvetica,sans-Serif" font-size="10.00">region_editor.h</text>
</a>
</g>
</g>
<!-- Node1&#45;&gt;Node7 -->
<g id="edge6_Node000001_Node000007" class="edge">
<title>Node1&#45;&gt;Node7</title>
<g id="a_edge6_Node000001_Node000007"><a xlink:title=" ">
<path fill="none" stroke="#63b8ff" d="M255.05,-325.63C234.61,-315.87 207.05,-302.71 189.16,-294.17"/>
<polygon fill="#63b8ff" stroke="#63b8ff" points="253.63,-328.83 264.17,-329.98 256.65,-322.52 253.63,-328.83"/>
</a>
</g>
</g>
<!-- Node8 -->
<g id="Node000008" class="node">
<title>Node8</title>
<g id="a_Node000008"><a xlink:href="track__record__axis_8h.html" target="_top" xlink:title=" ">
<polygon fill="white" stroke="#666666" points="633,-294 521,-294 521,-275 633,-275 633,-294"/>
<text text-anchor="middle" x="577" y="-282" font-family="Helvetica,sans-Serif" font-size="10.00">track_record_axis.h</text>
</a>
</g>
</g>
<!-- Node1&#45;&gt;Node8 -->
<g id="edge8_Node000001_Node000008" class="edge">
<title>Node1&#45;&gt;Node8</title>
<g id="a_edge8_Node000001_Node000008"><a xlink:title=" ">
<path fill="none" stroke="#63b8ff" d="M327.71,-330.29C382.55,-320.44 474.02,-304 529.6,-294.02"/>
<polygon fill="#63b8ff" stroke="#63b8ff" points="326.81,-326.89 317.58,-332.11 328.05,-333.78 326.81,-326.89"/>
</a>
</g>
</g>
<!-- Node9 -->
<g id="Node000009" class="node">
<title>Node9</title>
<g id="a_Node000009"><a xlink:href="ytkmm_8h.html" target="_top" xlink:title=" ">
<polygon fill="white" stroke="#666666" points="371.5,-294 310.5,-294 310.5,-275 371.5,-275 371.5,-294"/>
<text text-anchor="middle" x="341" y="-282" font-family="Helvetica,sans-Serif" font-size="10.00">ytkmm.h</text>
</a>
</g>
</g>
<!-- Node1&#45;&gt;Node9 -->
<g id="edge9_Node000001_Node000009" class="edge">
<title>Node1&#45;&gt;Node9</title>
<g id="a_edge9_Node000001_Node000009"><a xlink:title=" ">
<path fill="none" stroke="#63b8ff" d="M299.2,-323.04C309.67,-313.64 322.65,-301.98 331.35,-294.17"/>
<polygon fill="#63b8ff" stroke="#63b8ff" points="296.58,-320.7 291.48,-329.98 301.26,-325.91 296.58,-320.7"/>
</a>
</g>
</g>
<!-- Node5 -->
<g id="Node000005" class="node">
<title>Node5</title>
<g id="a_Node000005"><a xlink:href="meterbridge_8h.html" target="_top" xlink:title=" ">
<polygon fill="white" stroke="#666666" points="204,-19 118,-19 118,0 204,0 204,-19"/>
<text text-anchor="middle" x="161" y="-7" font-family="Helvetica,sans-Serif" font-size="10.00">meterbridge.h</text>
</a>
</g>
</g>
<!-- Node4&#45;&gt;Node5 -->
<g id="edge4_Node000004_Node000005" class="edge">
<title>Node4&#45;&gt;Node5</title>
<g id="a_edge4_Node000004_Node000005"><a xlink:title=" ">
<path fill="none" stroke="#63b8ff" d="M161,-44.66C161,-35.93 161,-25.99 161,-19.09"/>
<polygon fill="#63b8ff" stroke="#63b8ff" points="157.5,-44.75 161,-54.75 164.5,-44.75 157.5,-44.75"/>
</a>
</g>
</g>
<!-- Node7&#45;&gt;Node3 -->
<g id="edge7_Node000007_Node000003" class="edge">
<title>Node7&#45;&gt;Node3</title>
<g id="a_edge7_Node000007_Node000003"><a xlink:title=" ">
<path fill="none" stroke="#63b8ff" d="M174.85,-264.95C176.68,-256.15 178.77,-246.06 180.22,-239.09"/>
<polygon fill="#63b8ff" stroke="#63b8ff" points="171.42,-264.25 172.82,-274.75 178.28,-265.67 171.42,-264.25"/>
</a>
</g>
</g>
<!-- Node10 -->
<g id="Node000010" class="node">
<title>Node10</title>
<g id="a_Node000010"><a xlink:href="persistent__tooltip_8h.html" target="_top" xlink:title=" ">
<polygon fill="white" stroke="#666666" points="650.5,-239 539.5,-239 539.5,-220 650.5,-220 650.5,-239"/>
<text text-anchor="middle" x="595" y="-227" font-family="Helvetica,sans-Serif" font-size="10.00">persistent_tooltip.h</text>
</a>
</g>
</g>
<!-- Node9&#45;&gt;Node10 -->
<g id="edge10_Node000009_Node000010" class="edge">
<title>Node9&#45;&gt;Node10</title>
<g id="a_edge10_Node000009_Node000010"><a xlink:title=" ">
<path fill="none" stroke="#63b8ff" d="M381.67,-274.66C446.76,-260.86 511.71,-247.5 552.95,-239.07"/>
<polygon fill="#63b8ff" stroke="#63b8ff" points="380.71,-271.29 371.65,-276.79 382.16,-278.13 380.71,-271.29"/>
</a>
</g>
</g>
<!-- Node11 -->
<g id="Node000011" class="node">
<title>Node11</title>
<g id="a_Node000011"><a xlink:href="ardour__ctrl__base_8h.html" target="_top" xlink:title=" ">
<polygon fill="white" stroke="#666666" points="525.5,-184 418.5,-184 418.5,-165 525.5,-165 525.5,-184"/>
<text text-anchor="middle" x="472" y="-172" font-family="Helvetica,sans-Serif" font-size="10.00">ardour_ctrl_base.h</text>
</a>
</g>
</g>
<!-- Node10&#45;&gt;Node11 -->
<g id="edge11_Node000010_Node000011" class="edge">
<title>Node10&#45;&gt;Node11</title>
<g id="a_edge11_Node000010_Node000011"><a xlink:title=" ">
<path fill="none" stroke="#63b8ff" d="M565.75,-215.9C543.03,-206.11 512.13,-192.79 492.12,-184.17"/>
<polygon fill="#63b8ff" stroke="#63b8ff" points="564.67,-219.24 575.24,-219.98 567.44,-212.81 564.67,-219.24"/>
</a>
</g>
</g>
<!-- Node22 -->
<g id="Node000022" class="node">
<title>Node22</title>
<g id="a_Node000022"><a xlink:href="virtual__keyboard__window_8h.html" target="_top" xlink:title=" ">
<polygon fill="white" stroke="#666666" points="615.5,-74 466.5,-74 466.5,-55 615.5,-55 615.5,-74"/>
<text text-anchor="middle" x="541" y="-62" font-family="Helvetica,sans-Serif" font-size="10.00">virtual_keyboard_window.h</text>
</a>
</g>
</g>
<!-- Node10&#45;&gt;Node22 -->
<g id="edge34_Node000010_Node000022" class="edge">
<title>Node10&#45;&gt;Node22</title>
<g id="a_edge34_Node000010_Node000022"><a xlink:title=" ">
<path fill="none" stroke="#63b8ff" d="M585.24,-210.78C581.09,-202.76 576.43,-193.07 573,-184 557.85,-143.93 546.76,-93.73 542.7,-74.01"/>
<polygon fill="#63b8ff" stroke="#63b8ff" points="582.3,-212.69 590.1,-219.86 588.47,-209.39 582.3,-212.69"/>
</a>
</g>
</g>
<!-- Node23 -->
<g id="Node000023" class="node">
<title>Node23</title>
<g id="a_Node000023"><a xlink:href="panner__interface_8h.html" target="_top" xlink:title=" ">
<polygon fill="white" stroke="#666666" points="690,-184 582,-184 582,-165 690,-165 690,-184"/>
<text text-anchor="middle" x="636" y="-172" font-family="Helvetica,sans-Serif" font-size="10.00">panner_interface.h</text>
</a>
</g>
</g>
<!-- Node10&#45;&gt;Node23 -->
<g id="edge24_Node000010_Node000023" class="edge">
<title>Node10&#45;&gt;Node23</title>
<g id="a_edge24_Node000010_Node000023"><a xlink:title=" ">
<path fill="none" stroke="#63b8ff" d="M608.02,-211.67C615.12,-202.5 623.6,-191.52 629.36,-184.09"/>
<polygon fill="#63b8ff" stroke="#63b8ff" points="605.12,-209.7 601.77,-219.75 610.66,-213.98 605.12,-209.7"/>
</a>
</g>
</g>
<!-- Node26 -->
<g id="Node000026" class="node">
<title>Node26</title>
<g id="a_Node000026"><a xlink:href="plugin__pin__dialog_8h.html" target="_top" xlink:title=" ">
<polygon fill="white" stroke="#666666" points="819.5,-184 708.5,-184 708.5,-165 819.5,-165 819.5,-184"/>
<text text-anchor="middle" x="764" y="-172" font-family="Helvetica,sans-Serif" font-size="10.00">plugin_pin_dialog.h</text>
</a>
</g>
</g>
<!-- Node10&#45;&gt;Node26 -->
<g id="edge27_Node000010_Node000026" class="edge">
<title>Node10&#45;&gt;Node26</title>
<g id="a_edge27_Node000010_Node000026"><a xlink:title=" ">
<path fill="none" stroke="#63b8ff" d="M631.9,-216.93C663.47,-207.03 708.18,-193.01 736.63,-184.08"/>
<polygon fill="#63b8ff" stroke="#63b8ff" points="630.65,-213.65 622.15,-219.98 632.74,-220.33 630.65,-213.65"/>
</a>
</g>
</g>
<!-- Node27 -->
<g id="Node000027" class="node">
<title>Node27</title>
<g id="a_Node000027"><a xlink:href="processor__box_8h.html" target="_top" xlink:title=" ">
<polygon fill="white" stroke="#666666" points="931,-129 835,-129 835,-110 931,-110 931,-129"/>
<text text-anchor="middle" x="883" y="-117" font-family="Helvetica,sans-Serif" font-size="10.00">processor_box.h</text>
</a>
</g>
</g>
<!-- Node10&#45;&gt;Node27 -->
<g id="edge28_Node000010_Node000027" class="edge">
<title>Node10&#45;&gt;Node27</title>
<g id="a_edge28_Node000010_Node000027"><a xlink:title=" ">
<path fill="none" stroke="#63b8ff" d="M660.86,-227.58C710.14,-224.25 777.61,-213.9 829,-184 852.26,-170.46 870.23,-143.08 878.31,-129.11"/>
<polygon fill="#63b8ff" stroke="#63b8ff" points="660.4,-224.1 650.63,-228.19 660.82,-231.09 660.4,-224.1"/>
</a>
</g>
</g>
<!-- Node12 -->
<g id="Node000012" class="node">
<title>Node12</title>
<g id="a_Node000012"><a xlink:href="ardour__knob_8h.html" target="_top" xlink:title=" ">
<polygon fill="white" stroke="#666666" points="520,-129 434,-129 434,-110 520,-110 520,-129"/>
<text text-anchor="middle" x="477" y="-117" font-family="Helvetica,sans-Serif" font-size="10.00">ardour_knob.h</text>
</a>
</g>
</g>
<!-- Node11&#45;&gt;Node12 -->
<g id="edge12_Node000011_Node000012" class="edge">
<title>Node11&#45;&gt;Node12</title>
<g id="a_edge12_Node000011_Node000012"><a xlink:title=" ">
<path fill="none" stroke="#63b8ff" d="M473.78,-154.66C474.6,-145.93 475.54,-135.99 476.19,-129.09"/>
<polygon fill="#63b8ff" stroke="#63b8ff" points="470.28,-154.46 472.83,-164.75 477.25,-155.12 470.28,-154.46"/>
</a>
</g>
</g>
<!-- Node12&#45;&gt;Node4 -->
<g id="edge14_Node000012_Node000004" class="edge">
<title>Node12&#45;&gt;Node4</title>
<g id="a_edge14_Node000012_Node000004"><a xlink:title=" ">
<path fill="none" stroke="#63b8ff" d="M423.71,-109.63C370,-100.67 284.74,-86.44 211,-74 208.13,-73.52 205.18,-73.02 202.2,-72.51"/>
<polygon fill="#63b8ff" stroke="#63b8ff" points="423.25,-113.1 433.69,-111.29 424.4,-106.19 423.25,-113.1"/>
</a>
</g>
</g>
<!-- Node13 -->
<g id="Node000013" class="node">
<title>Node13</title>
<g id="a_Node000013"><a xlink:href="foldback__strip_8h.html" target="_top" xlink:title=" ">
<polygon fill="white" stroke="#666666" points="728.5,-74 633.5,-74 633.5,-55 728.5,-55 728.5,-74"/>
<text text-anchor="middle" x="681" y="-62" font-family="Helvetica,sans-Serif" font-size="10.00">foldback_strip.h</text>
</a>
</g>
</g>
<!-- Node12&#45;&gt;Node13 -->
<g id="edge13_Node000012_Node000013" class="edge">
<title>Node12&#45;&gt;Node13</title>
<g id="a_edge13_Node000012_Node000013"><a xlink:title=" ">
<path fill="none" stroke="#63b8ff" d="M519.58,-107.44C557.77,-97.52 613.02,-83.16 647.97,-74.08"/>
<polygon fill="#63b8ff" stroke="#63b8ff" points="518.57,-104.08 509.78,-109.98 520.33,-110.86 518.57,-104.08"/>
</a>
</g>
</g>
<!-- Node14 -->
<g id="Node000014" class="node">
<title>Node14</title>
<g id="a_Node000014"><a xlink:href="mixer__strip_8h.html" target="_top" xlink:title=" ">
<polygon fill="white" stroke="#666666" points="827,-74 747,-74 747,-55 827,-55 827,-74"/>
<text text-anchor="middle" x="787" y="-62" font-family="Helvetica,sans-Serif" font-size="10.00">mixer_strip.h</text>
</a>
</g>
</g>
<!-- Node12&#45;&gt;Node14 -->
<g id="edge15_Node000012_Node000014" class="edge">
<title>Node12&#45;&gt;Node14</title>
<g id="a_edge15_Node000012_Node000014"><a xlink:title=" ">
<path fill="none" stroke="#63b8ff" d="M530.56,-109.42C583.32,-100.45 666.23,-86.34 738,-74 740.89,-73.5 743.88,-72.99 746.89,-72.47"/>
<polygon fill="#63b8ff" stroke="#63b8ff" points="529.69,-106.01 520.42,-111.14 530.86,-112.91 529.69,-106.01"/>
</a>
</g>
</g>
<!-- Node16 -->
<g id="Node000016" class="node">
<title>Node16</title>
<g id="a_Node000016"><a xlink:href="monitor__section_8h.html" target="_top" xlink:title=" ">
<polygon fill="white" stroke="#666666" points="949,-74 845,-74 845,-55 949,-55 949,-74"/>
<text text-anchor="middle" x="897" y="-62" font-family="Helvetica,sans-Serif" font-size="10.00">monitor_section.h</text>
</a>
</g>
</g>
<!-- Node12&#45;&gt;Node16 -->
<g id="edge17_Node000012_Node000016" class="edge">
<title>Node12&#45;&gt;Node16</title>
<g id="a_edge17_Node000012_Node000016"><a xlink:title=" ">
<path fill="none" stroke="#63b8ff" d="M530.48,-112.13C600.65,-103.71 727.62,-88.27 836,-74 838.86,-73.62 841.8,-73.23 844.76,-72.83"/>
<polygon fill="#63b8ff" stroke="#63b8ff" points="529.64,-108.7 520.13,-113.37 530.48,-115.65 529.64,-108.7"/>
</a>
</g>
</g>
<!-- Node18 -->
<g id="Node000018" class="node">
<title>Node18</title>
<g id="a_Node000018"><a xlink:href="surround__strip_8h.html" target="_top" xlink:title=" ">
<polygon fill="white" stroke="#666666" points="315.5,-74 220.5,-74 220.5,-55 315.5,-55 315.5,-74"/>
<text text-anchor="middle" x="268" y="-62" font-family="Helvetica,sans-Serif" font-size="10.00">surround_strip.h</text>
</a>
</g>
</g>
<!-- Node12&#45;&gt;Node18 -->
<g id="edge19_Node000012_Node000018" class="edge">
<title>Node12&#45;&gt;Node18</title>
<g id="a_edge19_Node000012_Node000018"><a xlink:title=" ">
<path fill="none" stroke="#63b8ff" d="M433.63,-107.5C394.49,-97.58 337.72,-83.18 301.84,-74.08"/>
<polygon fill="#63b8ff" stroke="#63b8ff" points="432.87,-110.92 443.42,-109.98 434.59,-104.13 432.87,-110.92"/>
</a>
</g>
</g>
<!-- Node19 -->
<g id="Node000019" class="node">
<title>Node19</title>
<g id="a_Node000019"><a xlink:href="trigger__clip__picker_8h.html" target="_top" xlink:title=" ">
<polygon fill="white" stroke="#666666" points="448,-74 334,-74 334,-55 448,-55 448,-74"/>
<text text-anchor="middle" x="391" y="-62" font-family="Helvetica,sans-Serif" font-size="10.00">trigger_clip_picker.h</text>
</a>
</g>
</g>
<!-- Node12&#45;&gt;Node19 -->
<g id="edge20_Node000012_Node000019" class="edge">
<title>Node12&#45;&gt;Node19</title>
<g id="a_edge20_Node000012_Node000019"><a xlink:title=" ">
<path fill="none" stroke="#63b8ff" d="M454.6,-104.7C438.93,-95.04 418.49,-82.44 405.07,-74.17"/>
<polygon fill="#63b8ff" stroke="#63b8ff" points="452.83,-107.72 463.18,-109.98 456.51,-101.76 452.83,-107.72"/>
</a>
</g>
</g>
<!-- Node12&#45;&gt;Node22 -->
<g id="edge23_Node000012_Node000022" class="edge">
<title>Node12&#45;&gt;Node22</title>
<g id="a_edge23_Node000012_Node000022"><a xlink:title=" ">
<path fill="none" stroke="#63b8ff" d="M494.99,-103.6C506.46,-94.11 520.91,-82.13 530.53,-74.17"/>
<polygon fill="#63b8ff" stroke="#63b8ff" points="492.75,-100.91 487.28,-109.98 497.22,-106.3 492.75,-100.91"/>
</a>
</g>
</g>
<!-- Node15 -->
<g id="Node000015" class="node">
<title>Node15</title>
<g id="a_Node000015"><a xlink:href="strip__selection_8h.html" target="_top" xlink:title=" ">
<polygon fill="white" stroke="#666666" points="835.5,-19 738.5,-19 738.5,0 835.5,0 835.5,-19"/>
<text text-anchor="middle" x="787" y="-7" font-family="Helvetica,sans-Serif" font-size="10.00">strip_selection.h</text>
</a>
</g>
</g>
<!-- Node14&#45;&gt;Node15 -->
<g id="edge16_Node000014_Node000015" class="edge">
<title>Node14&#45;&gt;Node15</title>
<g id="a_edge16_Node000014_Node000015"><a xlink:title=" ">
<path fill="none" stroke="#63b8ff" d="M787,-44.66C787,-35.93 787,-25.99 787,-19.09"/>
<polygon fill="#63b8ff" stroke="#63b8ff" points="783.5,-44.75 787,-54.75 790.5,-44.75 783.5,-44.75"/>
</a>
</g>
</g>
<!-- Node17 -->
<g id="Node000017" class="node">
<title>Node17</title>
<g id="a_Node000017"><a xlink:href="mixer__ui_8h.html" target="_top" xlink:title=" ">
<polygon fill="white" stroke="#666666" points="931,-19 863,-19 863,0 931,0 931,-19"/>
<text text-anchor="middle" x="897" y="-7" font-family="Helvetica,sans-Serif" font-size="10.00">mixer_ui.h</text>
</a>
</g>
</g>
<!-- Node16&#45;&gt;Node17 -->
<g id="edge18_Node000016_Node000017" class="edge">
<title>Node16&#45;&gt;Node17</title>
<g id="a_edge18_Node000016_Node000017"><a xlink:title=" ">
<path fill="none" stroke="#63b8ff" d="M897,-44.66C897,-35.93 897,-25.99 897,-19.09"/>
<polygon fill="#63b8ff" stroke="#63b8ff" points="893.5,-44.75 897,-54.75 900.5,-44.75 893.5,-44.75"/>
</a>
</g>
</g>
<!-- Node20 -->
<g id="Node000020" class="node">
<title>Node20</title>
<g id="a_Node000020"><a xlink:href="editor_8h.html" target="_top" xlink:title=" ">
<polygon fill="white" stroke="#666666" points="461.5,-19 408.5,-19 408.5,0 461.5,0 461.5,-19"/>
<text text-anchor="middle" x="435" y="-7" font-family="Helvetica,sans-Serif" font-size="10.00">editor.h</text>
</a>
</g>
</g>
<!-- Node19&#45;&gt;Node20 -->
<g id="edge21_Node000019_Node000020" class="edge">
<title>Node19&#45;&gt;Node20</title>
<g id="a_edge21_Node000019_Node000020"><a xlink:title=" ">
<path fill="none" stroke="#63b8ff" d="M404.73,-46.96C412.4,-37.72 421.63,-26.6 427.87,-19.09"/>
<polygon fill="#63b8ff" stroke="#63b8ff" points="401.96,-44.82 398.27,-54.75 407.35,-49.29 401.96,-44.82"/>
</a>
</g>
</g>
<!-- Node21 -->
<g id="Node000021" class="node">
<title>Node21</title>
<g id="a_Node000021"><a xlink:href="trigger__page_8h.html" target="_top" xlink:title=" ">
<polygon fill="white" stroke="#666666" points="390.5,-19 303.5,-19 303.5,0 390.5,0 390.5,-19"/>
<text text-anchor="middle" x="347" y="-7" font-family="Helvetica,sans-Serif" font-size="10.00">trigger_page.h</text>
</a>
</g>
</g>
<!-- Node19&#45;&gt;Node21 -->
<g id="edge22_Node000019_Node000021" class="edge">
<title>Node19&#45;&gt;Node21</title>
<g id="a_edge22_Node000019_Node000021"><a xlink:title=" ">
<path fill="none" stroke="#63b8ff" d="M377.27,-46.96C369.6,-37.72 360.37,-26.6 354.13,-19.09"/>
<polygon fill="#63b8ff" stroke="#63b8ff" points="374.65,-49.29 383.73,-54.75 380.04,-44.82 374.65,-49.29"/>
</a>
</g>
</g>
<!-- Node24 -->
<g id="Node000024" class="node">
<title>Node24</title>
<g id="a_Node000024"><a xlink:href="mono__panner_8h.html" target="_top" xlink:title=" ">
<polygon fill="white" stroke="#666666" points="791,-129 699,-129 699,-110 791,-110 791,-129"/>
<text text-anchor="middle" x="745" y="-117" font-family="Helvetica,sans-Serif" font-size="10.00">mono_panner.h</text>
</a>
</g>
</g>
<!-- Node23&#45;&gt;Node24 -->
<g id="edge25_Node000023_Node000024" class="edge">
<title>Node23&#45;&gt;Node24</title>
<g id="a_edge25_Node000023_Node000024"><a xlink:title=" ">
<path fill="none" stroke="#63b8ff" d="M662.73,-160.5C682.79,-150.75 709.68,-137.68 727.17,-129.17"/>
<polygon fill="#63b8ff" stroke="#63b8ff" points="660.98,-157.46 653.51,-164.98 664.04,-163.76 660.98,-157.46"/>
</a>
</g>
</g>
<!-- Node25 -->
<g id="Node000025" class="node">
<title>Node25</title>
<g id="a_Node000025"><a xlink:href="stereo__panner_8h.html" target="_top" xlink:title=" ">
<polygon fill="white" stroke="#666666" points="680.5,-129 585.5,-129 585.5,-110 680.5,-110 680.5,-129"/>
<text text-anchor="middle" x="633" y="-117" font-family="Helvetica,sans-Serif" font-size="10.00">stereo_panner.h</text>
</a>
</g>
</g>
<!-- Node23&#45;&gt;Node25 -->
<g id="edge26_Node000023_Node000025" class="edge">
<title>Node23&#45;&gt;Node25</title>
<g id="a_edge26_Node000023_Node000025"><a xlink:title=" ">
<path fill="none" stroke="#63b8ff" d="M634.93,-154.66C634.44,-145.93 633.88,-135.99 633.49,-129.09"/>
<polygon fill="#63b8ff" stroke="#63b8ff" points="631.44,-154.96 635.5,-164.75 638.43,-154.57 631.44,-154.96"/>
</a>
</g>
</g>
<!-- Node27&#45;&gt;Node13 -->
<g id="edge29_Node000027_Node000013" class="edge">
<title>Node27&#45;&gt;Node13</title>
<g id="a_edge29_Node000027_Node000013"><a xlink:title=" ">
<path fill="none" stroke="#63b8ff" d="M840.84,-107.44C803.02,-97.52 748.31,-83.16 713.71,-74.08"/>
<polygon fill="#63b8ff" stroke="#63b8ff" points="839.98,-110.83 850.55,-109.98 841.76,-104.06 839.98,-110.83"/>
</a>
</g>
</g>
<!-- Node27&#45;&gt;Node14 -->
<g id="edge30_Node000027_Node000014" class="edge">
<title>Node27&#45;&gt;Node14</title>
<g id="a_edge30_Node000027_Node000014"><a xlink:title=" ">
<path fill="none" stroke="#63b8ff" d="M858.48,-104.97C840.94,-95.28 817.83,-82.52 802.7,-74.17"/>
<polygon fill="#63b8ff" stroke="#63b8ff" points="857.13,-108.22 867.58,-109.98 860.51,-102.09 857.13,-108.22"/>
</a>
</g>
</g>
<!-- Node27&#45;&gt;Node16 -->
<g id="edge31_Node000027_Node000016" class="edge">
<title>Node27&#45;&gt;Node16</title>
<g id="a_edge31_Node000027_Node000016"><a xlink:title=" ">
<path fill="none" stroke="#63b8ff" d="M887.9,-99.95C890.22,-91.15 892.89,-81.06 894.73,-74.09"/>
<polygon fill="#63b8ff" stroke="#63b8ff" points="884.48,-99.19 885.31,-109.75 891.25,-100.97 884.48,-99.19"/>
</a>
</g>
</g>
<!-- Node28 -->
<g id="Node000028" class="node">
<title>Node28</title>
<g id="a_Node000028"><a xlink:href="route__params__ui_8h.html" target="_top" xlink:title=" ">
<polygon fill="white" stroke="#666666" points="1177.5,-74 1070.5,-74 1070.5,-55 1177.5,-55 1177.5,-74"/>
<text text-anchor="middle" x="1124" y="-62" font-family="Helvetica,sans-Serif" font-size="10.00">route_params_ui.h</text>
</a>
</g>
</g>
<!-- Node27&#45;&gt;Node28 -->
<g id="edge32_Node000027_Node000028" class="edge">
<title>Node27&#45;&gt;Node28</title>
<g id="a_edge32_Node000027_Node000028"><a xlink:title=" ">
<path fill="none" stroke="#63b8ff" d="M931.58,-107.82C976.75,-97.88 1043.17,-83.28 1084.98,-74.08"/>
<polygon fill="#63b8ff" stroke="#63b8ff" points="930.74,-104.42 921.72,-109.98 932.24,-111.26 930.74,-104.42"/>
</a>
</g>
</g>
<!-- Node29 -->
<g id="Node000029" class="node">
<title>Node29</title>
<g id="a_Node000029"><a xlink:href="trigger__strip_8h.html" target="_top" xlink:title=" ">
<polygon fill="white" stroke="#666666" points="1052.5,-74 967.5,-74 967.5,-55 1052.5,-55 1052.5,-74"/>
<text text-anchor="middle" x="1010" y="-62" font-family="Helvetica,sans-Serif" font-size="10.00">trigger_strip.h</text>
</a>
</g>
</g>
<!-- Node27&#45;&gt;Node29 -->
<g id="edge33_Node000027_Node000029" class="edge">
<title>Node27&#45;&gt;Node29</title>
<g id="a_edge33_Node000027_Node000029"><a xlink:title=" ">
<path fill="none" stroke="#63b8ff" d="M912.88,-106.03C936.37,-96.23 968.47,-82.83 989.22,-74.17"/>
<polygon fill="#63b8ff" stroke="#63b8ff" points="911.29,-102.9 903.4,-109.98 913.98,-109.36 911.29,-102.9"/>
</a>
</g>
</g>
</g>
</svg>

<g id="navigator" transform="translate(0 0)" fill="#404254">
  <rect fill="#f2f5e9" fill-opacity="0.5" stroke="#606060" stroke-width=".5" x="0" y="0" width="60" height="60"/>
  <use id="zoomplus" xlink:href="#zoomPlus" x="17" y="9" onmousedown="handleZoom(evt,'in')"/>
  <use id="zoomminus" xlink:href="#zoomMin" x="42" y="9" onmousedown="handleZoom(evt,'out')"/>
  <use id="reset" xlink:href="#resetDef" x="30" y="36" onmousedown="handleReset()"/>
   <use id="arrowup" xlink:href="#arrowUp" x="0" y="0" onmousedown="handlePan(0,-1)"/>
  <use id="arrowright" xlink:href="#arrowRight" x="0" y="0" onmousedown="handlePan(1,0)"/>
  <use id="arrowdown" xlink:href="#arrowDown" x="0" y="0" onmousedown="handlePan(0,1)"/>
  <use id="arrowleft" xlink:href="#arrowLeft" x="0" y="0" onmousedown="handlePan(-1,0)"/>
</g>
<svg viewBox="0 0 15 15" width="100%" height="30px" preserveAspectRatio="xMaxYMin meet">
 <g id="arrow_out" transform="scale(0.3 0.3)">
  <a xlink:href="separator_8h__dep__incl_org.svg" target="_base">
   <rect id="button" ry="5" rx="5" y="6" x="6" height="38" width="38"
        fill="#f2f5e9" fill-opacity="0.5" stroke="#606060" stroke-width="1.0"/>
   <path id="arrow"
     d="M 11.500037,31.436501 C 11.940474,20.09759 22.043105,11.32322 32.158766,21.979434 L 37.068811,17.246167 C 37.068811,17.246167 37.088388,32 37.088388,32 L 22.160133,31.978069 C 22.160133,31.978069 26.997745,27.140456 26.997745,27.140456 C 18.528582,18.264221 13.291696,25.230495 11.500037,31.436501 z"
     style="fill:#404040;"/>
  </a>
 </g>
</svg>

<style type='text/css'>
<![CDATA[
[data-mouse-over-selected='false'] { opacity: 0.7; }
[data-mouse-over-selected='true']  { opacity: 1.0; }
]]>
</style>
<script type="application/ecmascript"><![CDATA[
document.addEventListener('DOMContentLoaded', (event) => {
  highlightEdges();
  highlightAdjacentNodes();
});
]]></script>
</svg>
