<?xml version="1.0" encoding="UTF-8" standalone="no"?>
<!DOCTYPE svg PUBLIC "-//W3C//DTD SVG 1.1//EN"
 "http://www.w3.org/Graphics/SVG/1.1/DTD/svg11.dtd">
<!-- Generated by graphviz version 2.43.0 (0)
 -->
<!-- Title: session_handle.h Pages: 1 -->
<svg width="1289pt" height="214pt"
 viewBox="0.00 0.00 1289.00 214.00" xmlns="http://www.w3.org/2000/svg" xmlns:xlink="http://www.w3.org/1999/xlink">
<g id="graph0" class="graph" transform="scale(1 1) rotate(0) translate(4 210)">
<title>session_handle.h</title>
<!-- Node1 -->
<g id="Node000001" class="node">
<title>Node1</title>
<g id="a_Node000001"><a xlink:title=" ">
<polygon fill="#999999" stroke="#666666" points="791.5,-206 690.5,-206 690.5,-187 791.5,-187 791.5,-206"/>
<text text-anchor="middle" x="741" y="-194" font-family="Helvetica,sans-Serif" font-size="10.00">session_handle.h</text>
</a>
</g>
</g>
<!-- Node2 -->
<g id="Node000002" class="node">
<title>Node2</title>
<g id="a_Node000002"><a xlink:href="signals_8h.html" target="_top" xlink:title=" ">
<polygon fill="white" stroke="#666666" points="715.5,-151 634.5,-151 634.5,-132 715.5,-132 715.5,-151"/>
<text text-anchor="middle" x="675" y="-139" font-family="Helvetica,sans-Serif" font-size="10.00">pbd/signals.h</text>
</a>
</g>
</g>
<!-- Node1&#45;&gt;Node2 -->
<g id="edge1_Node000001_Node000002" class="edge">
<title>Node1&#45;&gt;Node2</title>
<g id="a_edge1_Node000001_Node000002"><a xlink:title=" ">
<path fill="none" stroke="#63b8ff" d="M730.4,-186.98C720.54,-179.07 705.65,-167.11 693.78,-157.58"/>
<polygon fill="#63b8ff" stroke="#63b8ff" points="695.79,-154.7 685.8,-151.17 691.4,-160.16 695.79,-154.7"/>
</a>
</g>
</g>
<!-- Node24 -->
<g id="Node000024" class="node">
<title>Node24</title>
<g id="a_Node000024"><a xlink:href="libardour__visibility_8h.html" target="_top" xlink:title=" ">
<polygon fill="white" stroke="#666666" points="882.5,-151 733.5,-151 733.5,-132 882.5,-132 882.5,-151"/>
<text text-anchor="middle" x="808" y="-139" font-family="Helvetica,sans-Serif" font-size="10.00">ardour/libardour_visibility.h</text>
</a>
</g>
</g>
<!-- Node1&#45;&gt;Node24 -->
<g id="edge32_Node000001_Node000024" class="edge">
<title>Node1&#45;&gt;Node24</title>
<g id="a_edge32_Node000001_Node000024"><a xlink:title=" ">
<path fill="none" stroke="#63b8ff" d="M751.76,-186.98C761.77,-179.07 776.89,-167.11 788.93,-157.58"/>
<polygon fill="#63b8ff" stroke="#63b8ff" points="791.37,-160.12 797.04,-151.17 787.03,-154.63 791.37,-160.12"/>
</a>
</g>
</g>
<!-- Node3 -->
<g id="Node000003" class="node">
<title>Node3</title>
<g id="a_Node000003"><a xlink:title=" ">
<polygon fill="#e0e0e0" stroke="#999999" points="180.5,-90.5 129.5,-90.5 129.5,-71.5 180.5,-71.5 180.5,-90.5"/>
<text text-anchor="middle" x="155" y="-78.5" font-family="Helvetica,sans-Serif" font-size="10.00">csignal</text>
</a>
</g>
</g>
<!-- Node2&#45;&gt;Node3 -->
<g id="edge2_Node000002_Node000003" class="edge">
<title>Node2&#45;&gt;Node3</title>
<g id="a_edge2_Node000002_Node000003"><a xlink:title=" ">
<path fill="none" stroke="#63b8ff" d="M634.35,-140.06C550.99,-138.44 355.07,-130.88 195,-96 192.01,-95.35 188.93,-94.54 185.87,-93.64"/>
<polygon fill="#63b8ff" stroke="#63b8ff" points="186.9,-90.29 176.31,-90.54 184.75,-96.95 186.9,-90.29"/>
</a>
</g>
</g>
<!-- Node4 -->
<g id="Node000004" class="node">
<title>Node4</title>
<g id="a_Node000004"><a xlink:title=" ">
<polygon fill="#e0e0e0" stroke="#999999" points="916,-24.5 884,-24.5 884,-5.5 916,-5.5 916,-24.5"/>
<text text-anchor="middle" x="900" y="-12.5" font-family="Helvetica,sans-Serif" font-size="10.00">list</text>
</a>
</g>
</g>
<!-- Node2&#45;&gt;Node4 -->
<g id="edge3_Node000002_Node000004" class="edge">
<title>Node2&#45;&gt;Node4</title>
<g id="a_edge3_Node000002_Node000004"><a xlink:title=" ">
<path fill="none" stroke="#63b8ff" d="M689.27,-131.85C703.41,-123.15 725.56,-109.18 744,-96 761.51,-83.49 763.31,-76.67 782,-66 820.49,-44.02 834.9,-48.87 875,-30 875.43,-29.8 875.86,-29.59 876.29,-29.38"/>
<polygon fill="#63b8ff" stroke="#63b8ff" points="878.13,-32.37 885.38,-24.64 874.89,-26.17 878.13,-32.37"/>
</a>
</g>
</g>
<!-- Node5 -->
<g id="Node000005" class="node">
<title>Node5</title>
<g id="a_Node000005"><a xlink:title=" ">
<polygon fill="#e0e0e0" stroke="#999999" points="38,-24.5 0,-24.5 0,-5.5 38,-5.5 38,-24.5"/>
<text text-anchor="middle" x="19" y="-12.5" font-family="Helvetica,sans-Serif" font-size="10.00">map</text>
</a>
</g>
</g>
<!-- Node2&#45;&gt;Node5 -->
<g id="edge4_Node000002_Node000005" class="edge">
<title>Node2&#45;&gt;Node5</title>
<g id="a_edge4_Node000002_Node000005"><a xlink:title=" ">
<path fill="none" stroke="#63b8ff" d="M634.34,-139.68C537.6,-137.21 296.38,-127.94 223,-96 204.52,-87.96 206.82,-75.41 189,-66 131.42,-35.61 108.03,-52.69 47,-30 45.98,-29.62 44.95,-29.22 43.92,-28.79"/>
<polygon fill="#63b8ff" stroke="#63b8ff" points="45.28,-25.57 34.73,-24.6 42.38,-31.94 45.28,-25.57"/>
</a>
</g>
</g>
<!-- Node6 -->
<g id="Node000006" class="node">
<title>Node6</title>
<g id="a_Node000006"><a xlink:title=" ">
<polygon fill="#e0e0e0" stroke="#999999" points="106,-24.5 56,-24.5 56,-5.5 106,-5.5 106,-24.5"/>
<text text-anchor="middle" x="81" y="-12.5" font-family="Helvetica,sans-Serif" font-size="10.00">atomic</text>
</a>
</g>
</g>
<!-- Node2&#45;&gt;Node6 -->
<g id="edge5_Node000002_Node000006" class="edge">
<title>Node2&#45;&gt;Node6</title>
<g id="a_edge5_Node000002_Node000006"><a xlink:title=" ">
<path fill="none" stroke="#63b8ff" d="M634.45,-138.64C544.89,-134.13 332.88,-121.08 266,-96 244.18,-87.82 243.82,-76.46 223,-66 177.79,-43.29 162.42,-47.64 115,-30 113.58,-29.47 112.13,-28.92 110.67,-28.36"/>
<polygon fill="#63b8ff" stroke="#63b8ff" points="111.63,-24.97 101.05,-24.52 109.04,-31.47 111.63,-24.97"/>
</a>
</g>
</g>
<!-- Node7 -->
<g id="Node000007" class="node">
<title>Node7</title>
<g id="a_Node000007"><a xlink:title=" ">
<polygon fill="#e0e0e0" stroke="#999999" points="507.5,-24.5 404.5,-24.5 404.5,-5.5 507.5,-5.5 507.5,-24.5"/>
<text text-anchor="middle" x="456" y="-12.5" font-family="Helvetica,sans-Serif" font-size="10.00">glibmm/threads.h</text>
</a>
</g>
</g>
<!-- Node2&#45;&gt;Node7 -->
<g id="edge6_Node000002_Node000007" class="edge">
<title>Node2&#45;&gt;Node7</title>
<g id="a_edge6_Node000002_Node000007"><a xlink:title=" ">
<path fill="none" stroke="#63b8ff" d="M657.92,-131.91C640.65,-123.15 613.26,-109.02 590,-96 550.24,-73.75 504.89,-46.21 478.45,-29.93"/>
<polygon fill="#63b8ff" stroke="#63b8ff" points="480.28,-26.94 469.93,-24.67 476.6,-32.9 480.28,-26.94"/>
</a>
</g>
</g>
<!-- Node8 -->
<g id="Node000008" class="node">
<title>Node8</title>
<g id="a_Node000008"><a xlink:title=" ">
<polygon fill="#e0e0e0" stroke="#999999" points="1071,-90.5 945,-90.5 945,-71.5 1071,-71.5 1071,-90.5"/>
<text text-anchor="middle" x="1008" y="-78.5" font-family="Helvetica,sans-Serif" font-size="10.00">boost/bind/protect.hpp</text>
</a>
</g>
</g>
<!-- Node2&#45;&gt;Node8 -->
<g id="edge7_Node000002_Node000008" class="edge">
<title>Node2&#45;&gt;Node8</title>
<g id="a_edge7_Node000002_Node000008"><a xlink:title=" ">
<path fill="none" stroke="#63b8ff" d="M715.81,-133.51C766.34,-124.82 855.05,-109.51 931,-96 937.56,-94.83 944.43,-93.6 951.26,-92.37"/>
<polygon fill="#63b8ff" stroke="#63b8ff" points="951.97,-95.8 961.18,-90.57 950.72,-88.91 951.97,-95.8"/>
</a>
</g>
</g>
<!-- Node9 -->
<g id="Node000009" class="node">
<title>Node9</title>
<g id="a_Node000009"><a xlink:title=" ">
<polygon fill="#e0e0e0" stroke="#999999" points="1207,-96 1089,-96 1089,-66 1207,-66 1207,-96"/>
<text text-anchor="start" x="1097" y="-84" font-family="Helvetica,sans-Serif" font-size="10.00">boost/enable_shared</text>
<text text-anchor="middle" x="1148" y="-73" font-family="Helvetica,sans-Serif" font-size="10.00">_from_this.hpp</text>
</a>
</g>
</g>
<!-- Node2&#45;&gt;Node9 -->
<g id="edge8_Node000002_Node000009" class="edge">
<title>Node2&#45;&gt;Node9</title>
<g id="a_edge8_Node000002_Node000009"><a xlink:title=" ">
<path fill="none" stroke="#63b8ff" d="M715.62,-133.36C718.79,-132.87 721.95,-132.41 725,-132 878.93,-111.14 921.51,-119.65 1078.7,-96.1"/>
<polygon fill="#63b8ff" stroke="#63b8ff" points="1079.36,-99.54 1088.73,-94.57 1078.31,-92.62 1079.36,-99.54"/>
</a>
</g>
</g>
<!-- Node10 -->
<g id="Node000010" class="node">
<title>Node10</title>
<g id="a_Node000010"><a xlink:title=" ">
<polygon fill="#e0e0e0" stroke="#999999" points="1281,-90.5 1225,-90.5 1225,-71.5 1281,-71.5 1281,-90.5"/>
<text text-anchor="middle" x="1253" y="-78.5" font-family="Helvetica,sans-Serif" font-size="10.00">optional</text>
</a>
</g>
</g>
<!-- Node2&#45;&gt;Node10 -->
<g id="edge9_Node000002_Node000010" class="edge">
<title>Node2&#45;&gt;Node10</title>
<g id="a_edge9_Node000002_Node000010"><a xlink:title=" ">
<path fill="none" stroke="#63b8ff" d="M715.61,-133.26C718.78,-132.8 721.94,-132.37 725,-132 942.21,-105.63 1002.35,-143.21 1216,-96 1218.52,-95.44 1221.1,-94.75 1223.67,-93.96"/>
<polygon fill="#63b8ff" stroke="#63b8ff" points="1225.03,-97.2 1233.35,-90.64 1222.76,-90.58 1225.03,-97.2"/>
</a>
</g>
</g>
<!-- Node11 -->
<g id="Node000011" class="node">
<title>Node11</title>
<g id="a_Node000011"><a xlink:href="libpbd__visibility_8h.html" target="_top" xlink:title=" ">
<polygon fill="white" stroke="#666666" points="648,-24.5 526,-24.5 526,-5.5 648,-5.5 648,-24.5"/>
<text text-anchor="middle" x="587" y="-12.5" font-family="Helvetica,sans-Serif" font-size="10.00">pbd/libpbd_visibility.h</text>
</a>
</g>
</g>
<!-- Node2&#45;&gt;Node11 -->
<g id="edge10_Node000002_Node000011" class="edge">
<title>Node2&#45;&gt;Node11</title>
<g id="a_edge10_Node000002_Node000011"><a xlink:title=" ">
<path fill="none" stroke="#63b8ff" d="M653.42,-131.87C637.92,-124.58 617.77,-112.64 606,-96 593.08,-77.74 588.86,-51.86 587.53,-34.54"/>
<polygon fill="#63b8ff" stroke="#63b8ff" points="591.02,-34.35 587.01,-24.55 584.03,-34.72 591.02,-34.35"/>
</a>
</g>
</g>
<!-- Node12 -->
<g id="Node000012" class="node">
<title>Node12</title>
<g id="a_Node000012"><a xlink:href="event__loop_8h.html" target="_top" xlink:title=" ">
<polygon fill="white" stroke="#666666" points="376.5,-90.5 275.5,-90.5 275.5,-71.5 376.5,-71.5 376.5,-90.5"/>
<text text-anchor="middle" x="326" y="-78.5" font-family="Helvetica,sans-Serif" font-size="10.00">pbd/event_loop.h</text>
</a>
</g>
</g>
<!-- Node2&#45;&gt;Node12 -->
<g id="edge11_Node000002_Node000012" class="edge">
<title>Node2&#45;&gt;Node12</title>
<g id="a_edge11_Node000002_Node000012"><a xlink:title=" ">
<path fill="none" stroke="#63b8ff" d="M634.28,-133.67C573.27,-123.45 457.73,-104.08 386.73,-92.18"/>
<polygon fill="#63b8ff" stroke="#63b8ff" points="387.03,-88.68 376.59,-90.48 385.87,-95.59 387.03,-88.68"/>
</a>
</g>
</g>
<!-- Node17 -->
<g id="Node000017" class="node">
<title>Node17</title>
<g id="a_Node000017"><a xlink:href="stack__allocator_8h.html" target="_top" xlink:title=" ">
<polygon fill="white" stroke="#666666" points="735,-90.5 615,-90.5 615,-71.5 735,-71.5 735,-90.5"/>
<text text-anchor="middle" x="675" y="-78.5" font-family="Helvetica,sans-Serif" font-size="10.00">pbd/stack_allocator.h</text>
</a>
</g>
</g>
<!-- Node2&#45;&gt;Node17 -->
<g id="edge20_Node000002_Node000017" class="edge">
<title>Node2&#45;&gt;Node17</title>
<g id="a_edge20_Node000002_Node000017"><a xlink:title=" ">
<path fill="none" stroke="#63b8ff" d="M675,-131.87C675,-123.75 675,-111.31 675,-100.89"/>
<polygon fill="#63b8ff" stroke="#63b8ff" points="678.5,-100.67 675,-90.67 671.5,-100.67 678.5,-100.67"/>
</a>
</g>
</g>
<!-- Node20 -->
<g id="Node000020" class="node">
<title>Node20</title>
<g id="a_Node000020"><a xlink:href="stacktrace_8h.html" target="_top" xlink:title=" ">
<polygon fill="white" stroke="#666666" points="889,-90.5 791,-90.5 791,-71.5 889,-71.5 889,-90.5"/>
<text text-anchor="middle" x="840" y="-78.5" font-family="Helvetica,sans-Serif" font-size="10.00">pbd/stacktrace.h</text>
</a>
</g>
</g>
<!-- Node2&#45;&gt;Node20 -->
<g id="edge24_Node000002_Node000020" class="edge">
<title>Node2&#45;&gt;Node20</title>
<g id="a_edge24_Node000002_Node000020"><a xlink:title=" ">
<path fill="none" stroke="#63b8ff" d="M698.99,-131.99C727.22,-121.99 774.28,-105.3 806.19,-93.99"/>
<polygon fill="#63b8ff" stroke="#63b8ff" points="807.72,-97.16 815.98,-90.52 805.38,-90.56 807.72,-97.16"/>
</a>
</g>
</g>
<!-- Node22 -->
<g id="Node000022" class="node">
<title>Node22</title>
<g id="a_Node000022"><a xlink:title=" ">
<polygon fill="#e0e0e0" stroke="#999999" points="1141,-24.5 1081,-24.5 1081,-5.5 1141,-5.5 1141,-24.5"/>
<text text-anchor="middle" x="1111" y="-12.5" font-family="Helvetica,sans-Serif" font-size="10.00">iostream</text>
</a>
</g>
</g>
<!-- Node2&#45;&gt;Node22 -->
<g id="edge31_Node000002_Node000022" class="edge">
<title>Node2&#45;&gt;Node22</title>
<g id="a_edge31_Node000002_Node000022"><a xlink:title=" ">
<path fill="none" stroke="#63b8ff" d="M715.55,-133.47C775.28,-122.95 881.65,-103.55 898,-96 917.54,-86.98 916.75,-75.62 936,-66 991.93,-38.04 1012.3,-48.58 1072,-30 1074.12,-29.34 1076.3,-28.64 1078.49,-27.91"/>
<polygon fill="#63b8ff" stroke="#63b8ff" points="1079.7,-31.19 1088.01,-24.62 1077.42,-24.57 1079.7,-31.19"/>
</a>
</g>
</g>
<!-- Node12&#45;&gt;Node5 -->
<g id="edge15_Node000012_Node000005" class="edge">
<title>Node12&#45;&gt;Node5</title>
<g id="a_edge15_Node000012_Node000005"><a xlink:title=" ">
<path fill="none" stroke="#63b8ff" d="M275.37,-72.7C206.88,-62.53 88.51,-43.78 47,-30 45.78,-29.6 44.55,-29.15 43.32,-28.66"/>
<polygon fill="#63b8ff" stroke="#63b8ff" points="44.62,-25.41 34.07,-24.52 41.76,-31.8 44.62,-25.41"/>
</a>
</g>
</g>
<!-- Node12&#45;&gt;Node6 -->
<g id="edge12_Node000012_Node000006" class="edge">
<title>Node12&#45;&gt;Node6</title>
<g id="a_edge12_Node000012_Node000006"><a xlink:title=" ">
<path fill="none" stroke="#63b8ff" d="M286.74,-71.48C234.94,-60.09 146.62,-40.19 115,-30 113.33,-29.46 111.62,-28.88 109.91,-28.26"/>
<polygon fill="#63b8ff" stroke="#63b8ff" points="110.81,-24.86 100.22,-24.53 108.3,-31.39 110.81,-24.86"/>
</a>
</g>
</g>
<!-- Node12&#45;&gt;Node7 -->
<g id="edge18_Node000012_Node000007" class="edge">
<title>Node12&#45;&gt;Node7</title>
<g id="a_edge18_Node000012_Node000007"><a xlink:title=" ">
<path fill="none" stroke="#63b8ff" d="M343.53,-71.37C365.53,-60.54 403.49,-41.85 429.15,-29.22"/>
<polygon fill="#63b8ff" stroke="#63b8ff" points="430.9,-32.26 438.33,-24.7 427.81,-25.98 430.9,-32.26"/>
</a>
</g>
</g>
<!-- Node12&#45;&gt;Node11 -->
<g id="edge19_Node000012_Node000011" class="edge">
<title>Node12&#45;&gt;Node11</title>
<g id="a_edge19_Node000012_Node000011"><a xlink:title=" ">
<path fill="none" stroke="#63b8ff" d="M360.93,-71.44C407.81,-59.94 491.12,-39.51 542.46,-26.92"/>
<polygon fill="#63b8ff" stroke="#63b8ff" points="543.4,-30.3 552.28,-24.51 541.73,-23.5 543.4,-30.3"/>
</a>
</g>
</g>
<!-- Node13 -->
<g id="Node000013" class="node">
<title>Node13</title>
<g id="a_Node000013"><a xlink:title=" ">
<polygon fill="#e0e0e0" stroke="#999999" points="250,-24.5 206,-24.5 206,-5.5 250,-5.5 250,-24.5"/>
<text text-anchor="middle" x="228" y="-12.5" font-family="Helvetica,sans-Serif" font-size="10.00">string</text>
</a>
</g>
</g>
<!-- Node12&#45;&gt;Node13 -->
<g id="edge13_Node000012_Node000013" class="edge">
<title>Node12&#45;&gt;Node13</title>
<g id="a_edge13_Node000012_Node000013"><a xlink:title=" ">
<path fill="none" stroke="#63b8ff" d="M312.78,-71.37C296.64,-60.82 269.09,-42.84 249.79,-30.23"/>
<polygon fill="#63b8ff" stroke="#63b8ff" points="251.61,-27.24 241.32,-24.7 247.78,-33.1 251.61,-27.24"/>
</a>
</g>
</g>
<!-- Node14 -->
<g id="Node000014" class="node">
<title>Node14</title>
<g id="a_Node000014"><a xlink:title=" ">
<polygon fill="#e0e0e0" stroke="#999999" points="315.5,-24.5 268.5,-24.5 268.5,-5.5 315.5,-5.5 315.5,-24.5"/>
<text text-anchor="middle" x="292" y="-12.5" font-family="Helvetica,sans-Serif" font-size="10.00">vector</text>
</a>
</g>
</g>
<!-- Node12&#45;&gt;Node14 -->
<g id="edge14_Node000012_Node000014" class="edge">
<title>Node12&#45;&gt;Node14</title>
<g id="a_edge14_Node000012_Node000014"><a xlink:title=" ">
<path fill="none" stroke="#63b8ff" d="M321.41,-71.37C316.32,-61.78 307.96,-46.05 301.46,-33.8"/>
<polygon fill="#63b8ff" stroke="#63b8ff" points="304.51,-32.09 296.73,-24.91 298.33,-35.38 304.51,-32.09"/>
</a>
</g>
</g>
<!-- Node15 -->
<g id="Node000015" class="node">
<title>Node15</title>
<g id="a_Node000015"><a xlink:title=" ">
<polygon fill="#e0e0e0" stroke="#999999" points="386.5,-24.5 333.5,-24.5 333.5,-5.5 386.5,-5.5 386.5,-24.5"/>
<text text-anchor="middle" x="360" y="-12.5" font-family="Helvetica,sans-Serif" font-size="10.00">stdint.h</text>
</a>
</g>
</g>
<!-- Node12&#45;&gt;Node15 -->
<g id="edge16_Node000012_Node000015" class="edge">
<title>Node12&#45;&gt;Node15</title>
<g id="a_edge16_Node000012_Node000015"><a xlink:title=" ">
<path fill="none" stroke="#63b8ff" d="M330.59,-71.37C335.68,-61.78 344.04,-46.05 350.54,-33.8"/>
<polygon fill="#63b8ff" stroke="#63b8ff" points="353.67,-35.38 355.27,-24.91 347.49,-32.09 353.67,-35.38"/>
</a>
</g>
</g>
<!-- Node16 -->
<g id="Node000016" class="node">
<title>Node16</title>
<g id="a_Node000016"><a xlink:title=" ">
<polygon fill="#e0e0e0" stroke="#999999" points="187.5,-24.5 124.5,-24.5 124.5,-5.5 187.5,-5.5 187.5,-24.5"/>
<text text-anchor="middle" x="156" y="-12.5" font-family="Helvetica,sans-Serif" font-size="10.00">pthread.h</text>
</a>
</g>
</g>
<!-- Node12&#45;&gt;Node16 -->
<g id="edge17_Node000012_Node000016" class="edge">
<title>Node12&#45;&gt;Node16</title>
<g id="a_edge17_Node000012_Node000016"><a xlink:title=" ">
<path fill="none" stroke="#63b8ff" d="M303.07,-71.37C273.46,-60.22 221.75,-40.75 188.2,-28.12"/>
<polygon fill="#63b8ff" stroke="#63b8ff" points="189.43,-24.84 178.83,-24.6 186.96,-31.4 189.43,-24.84"/>
</a>
</g>
</g>
<!-- Node17&#45;&gt;Node11 -->
<g id="edge23_Node000017_Node000011" class="edge">
<title>Node17&#45;&gt;Node11</title>
<g id="a_edge23_Node000017_Node000011"><a xlink:title=" ">
<path fill="none" stroke="#63b8ff" d="M663.13,-71.37C648.83,-60.97 624.57,-43.32 607.28,-30.75"/>
<polygon fill="#63b8ff" stroke="#63b8ff" points="609.11,-27.75 598.96,-24.7 604.99,-33.41 609.11,-27.75"/>
</a>
</g>
</g>
<!-- Node18 -->
<g id="Node000018" class="node">
<title>Node18</title>
<g id="a_Node000018"><a xlink:title=" ">
<polygon fill="#e0e0e0" stroke="#999999" points="804,-30 666,-30 666,0 804,0 804,-30"/>
<text text-anchor="start" x="674" y="-18" font-family="Helvetica,sans-Serif" font-size="10.00">boost/type_traits/aligned</text>
<text text-anchor="middle" x="735" y="-7" font-family="Helvetica,sans-Serif" font-size="10.00">_storage.hpp</text>
</a>
</g>
</g>
<!-- Node17&#45;&gt;Node18 -->
<g id="edge21_Node000017_Node000018" class="edge">
<title>Node17&#45;&gt;Node18</title>
<g id="a_edge21_Node000017_Node000018"><a xlink:title=" ">
<path fill="none" stroke="#63b8ff" d="M683.09,-71.37C691.1,-62.83 703.68,-49.41 714.45,-37.92"/>
<polygon fill="#63b8ff" stroke="#63b8ff" points="717.25,-40.05 721.54,-30.36 712.14,-35.26 717.25,-40.05"/>
</a>
</g>
</g>
<!-- Node19 -->
<g id="Node000019" class="node">
<title>Node19</title>
<g id="a_Node000019"><a xlink:title=" ">
<polygon fill="#e0e0e0" stroke="#999999" points="866,-24.5 822,-24.5 822,-5.5 866,-5.5 866,-24.5"/>
<text text-anchor="middle" x="844" y="-12.5" font-family="Helvetica,sans-Serif" font-size="10.00">limits</text>
</a>
</g>
</g>
<!-- Node17&#45;&gt;Node19 -->
<g id="edge22_Node000017_Node000019" class="edge">
<title>Node17&#45;&gt;Node19</title>
<g id="a_edge22_Node000017_Node000019"><a xlink:title=" ">
<path fill="none" stroke="#63b8ff" d="M700.4,-71.45C728.26,-61.92 774.16,-45.78 813,-30 814.17,-29.52 815.36,-29.03 816.56,-28.53"/>
<polygon fill="#63b8ff" stroke="#63b8ff" points="817.97,-31.73 825.74,-24.53 815.18,-25.31 817.97,-31.73"/>
</a>
</g>
</g>
<!-- Node20&#45;&gt;Node4 -->
<g id="edge29_Node000020_Node000004" class="edge">
<title>Node20&#45;&gt;Node4</title>
<g id="a_edge29_Node000020_Node000004"><a xlink:title=" ">
<path fill="none" stroke="#63b8ff" d="M848.09,-71.37C857.43,-61.4 873.01,-44.79 884.66,-32.36"/>
<polygon fill="#63b8ff" stroke="#63b8ff" points="887.37,-34.59 891.65,-24.91 882.26,-29.81 887.37,-34.59"/>
</a>
</g>
</g>
<!-- Node20&#45;&gt;Node7 -->
<g id="edge28_Node000020_Node000007" class="edge">
<title>Node20&#45;&gt;Node7</title>
<g id="a_edge28_Node000020_Node000007"><a xlink:title=" ">
<path fill="none" stroke="#63b8ff" d="M790.83,-72.83C713.88,-61.54 568.48,-39.88 517,-30 511.86,-29.01 506.5,-27.9 501.18,-26.75"/>
<polygon fill="#63b8ff" stroke="#63b8ff" points="501.59,-23.26 491.07,-24.5 500.07,-30.09 501.59,-23.26"/>
</a>
</g>
</g>
<!-- Node20&#45;&gt;Node11 -->
<g id="edge30_Node000020_Node000011" class="edge">
<title>Node20&#45;&gt;Node11</title>
<g id="a_edge30_Node000020_Node000011"><a xlink:title=" ">
<path fill="none" stroke="#63b8ff" d="M806.14,-71.44C760.79,-59.96 680.28,-39.6 630.49,-27"/>
<polygon fill="#63b8ff" stroke="#63b8ff" points="631.21,-23.57 620.66,-24.51 629.49,-30.36 631.21,-23.57"/>
</a>
</g>
</g>
<!-- Node21 -->
<g id="Node000021" class="node">
<title>Node21</title>
<g id="a_Node000021"><a xlink:title=" ">
<polygon fill="#e0e0e0" stroke="#999999" points="987.5,-24.5 934.5,-24.5 934.5,-5.5 987.5,-5.5 987.5,-24.5"/>
<text text-anchor="middle" x="961" y="-12.5" font-family="Helvetica,sans-Serif" font-size="10.00">cstddef</text>
</a>
</g>
</g>
<!-- Node20&#45;&gt;Node21 -->
<g id="edge25_Node000020_Node000021" class="edge">
<title>Node20&#45;&gt;Node21</title>
<g id="a_edge25_Node000020_Node000021"><a xlink:title=" ">
<path fill="none" stroke="#63b8ff" d="M856.32,-71.37C876.71,-60.59 911.81,-42.02 935.7,-29.38"/>
<polygon fill="#63b8ff" stroke="#63b8ff" points="937.35,-32.47 944.55,-24.7 934.08,-26.28 937.35,-32.47"/>
</a>
</g>
</g>
<!-- Node20&#45;&gt;Node22 -->
<g id="edge26_Node000020_Node000022" class="edge">
<title>Node20&#45;&gt;Node22</title>
<g id="a_edge26_Node000020_Node000022"><a xlink:title=" ">
<path fill="none" stroke="#63b8ff" d="M878.3,-71.43C886.45,-69.62 895.01,-67.74 903,-66 978.04,-49.67 998.14,-51.02 1072,-30 1074.42,-29.31 1076.91,-28.55 1079.4,-27.75"/>
<polygon fill="#63b8ff" stroke="#63b8ff" points="1080.55,-31.05 1088.89,-24.52 1078.3,-24.42 1080.55,-31.05"/>
</a>
</g>
</g>
<!-- Node23 -->
<g id="Node000023" class="node">
<title>Node23</title>
<g id="a_Node000023"><a xlink:title=" ">
<polygon fill="#e0e0e0" stroke="#999999" points="1062.5,-24.5 1005.5,-24.5 1005.5,-5.5 1062.5,-5.5 1062.5,-24.5"/>
<text text-anchor="middle" x="1034" y="-12.5" font-family="Helvetica,sans-Serif" font-size="10.00">ostream</text>
</a>
</g>
</g>
<!-- Node20&#45;&gt;Node23 -->
<g id="edge27_Node000020_Node000023" class="edge">
<title>Node20&#45;&gt;Node23</title>
<g id="a_edge27_Node000020_Node000023"><a xlink:title=" ">
<path fill="none" stroke="#63b8ff" d="M868.51,-71.42C900.09,-61.8 952.42,-45.52 997,-30 998.65,-29.43 1000.34,-28.83 1002.04,-28.21"/>
<polygon fill="#63b8ff" stroke="#63b8ff" points="1003.59,-31.37 1011.77,-24.63 1001.17,-24.8 1003.59,-31.37"/>
</a>
</g>
</g>
</g>
</svg>
