<?xml version="1.0" encoding="UTF-8" standalone="no"?>
<!DOCTYPE svg PUBLIC "-//W3C//DTD SVG 1.1//EN"
 "http://www.w3.org/Graphics/SVG/1.1/DTD/svg11.dtd">
<!-- Generated by graphviz version 2.43.0 (0)
 -->
<!-- Title: sndfile.h Pages: 1 -->
<!--zoomable 302 -->

<svg id="main" version="1.1" xmlns="http://www.w3.org/2000/svg" xmlns:xlink="http://www.w3.org/1999/xlink" xml:space="preserve" onload="init(evt)">
<style type="text/css"><![CDATA[
.node, .edge {opacity: 0.7;}
.node.selected, .edge.selected {opacity: 1;}
.edge:hover path { stroke: red; }
.edge:hover polygon { stroke: red; fill: red; }
]]></style>

<defs>
  <circle id="rim" cx="0" cy="0" r="7"/>
  <circle id="rim2" cx="0" cy="0" r="3.5"/>
  <g id="zoomPlus">
    <use xlink:href="#rim" fill="#404040"><set attributeName="fill" to="#808080" begin="zoomplus.mouseover" end="zoomplus.mouseout"/></use>
    <path d="M-4,0h8M0,-4v8" fill="none" stroke="white" stroke-width="1.5" pointer-events="none"/>
  </g>
  <g id="zoomMin">
    <use xlink:href="#rim" fill="#404040"><set attributeName="fill" to="#808080" begin="zoomminus.mouseover" end="zoomminus.mouseout"/></use>
    <path d="M-4,0h8" fill="none" stroke="white" stroke-width="1.5" pointer-events="none"/>
  </g>
  <g id="arrowUp" transform="translate(30 24)">
    <use xlink:href="#rim"/>
    <path pointer-events="none" fill="none" stroke="white" stroke-width="1.5" d="M0,-3.0v7 M-2.5,-0.5L0,-3.0L2.5,-0.5"/>
  </g>
  <g id="arrowRight" transform="rotate(90) translate(36 -43)">
    <use xlink:href="#rim"/>
    <path pointer-events="none" fill="none" stroke="white" stroke-width="1.5" d="M0,-3.0v7 M-2.5,-0.5L0,-3.0L2.5,-0.5"/>
  </g>
  <g id="arrowDown" transform="rotate(180) translate(-30 -48)">
    <use xlink:href="#rim"/>
    <path pointer-events="none" fill="none" stroke="white" stroke-width="1.5" d="M0,-3.0v7 M-2.5,-0.5L0,-3.0L2.5,-0.5"/>
  </g>
  <g id="arrowLeft" transform="rotate(270) translate(-36 17)">
    <use xlink:href="#rim"/>
    <path pointer-events="none" fill="none" stroke="white" stroke-width="1.5" d="M0,-3.0v7 M-2.5,-0.5L0,-3.0L2.5,-0.5"/>
  </g>
  <g id="resetDef">
    <use xlink:href="#rim2" fill="#404040"><set attributeName="fill" to="#808080" begin="reset.mouseover" end="reset.mouseout"/></use>
  </g>
</defs>
<script type="application/ecmascript">
var viewWidth = 758;
var viewHeight = 302;
var sectionId = 'dynsection-1';
</script>
<script type="application/ecmascript" xlink:href="svg.min.js"/>
<svg id="graph" class="graph">
<g id="viewport">
<title>sndfile.h</title>
<!-- Node1 -->
<g id="Node000001" class="node">
<title>Node1</title>
<g id="a_Node000001"><a xlink:title=" ">
<polygon fill="#999999" stroke="#666666" points="338,-294 280,-294 280,-275 338,-275 338,-294"/>
<text text-anchor="middle" x="309" y="-282" font-family="Helvetica,sans-Serif" font-size="10.00">sndfile.h</text>
</a>
</g>
</g>
<!-- Node2 -->
<g id="Node000002" class="node">
<title>Node2</title>
<g id="a_Node000002"><a xlink:href="audiographer_2audiographer_2broadcast__info_8h.html" target="_top" xlink:title=" ">
<polygon fill="white" stroke="#666666" points="170,-239 72,-239 72,-220 170,-220 170,-239"/>
<text text-anchor="middle" x="121" y="-227" font-family="Helvetica,sans-Serif" font-size="10.00">broadcast_info.h</text>
</a>
</g>
</g>
<!-- Node1&#45;&gt;Node2 -->
<g id="edge1_Node000001_Node000002" class="edge">
<title>Node1&#45;&gt;Node2</title>
<g id="a_edge1_Node000001_Node000002"><a xlink:title=" ">
<path fill="none" stroke="#63b8ff" d="M269.69,-272.42C234.49,-262.49 183.59,-248.15 151.41,-239.07"/>
<polygon fill="#63b8ff" stroke="#63b8ff" points="269.05,-275.87 279.62,-275.22 270.95,-269.14 269.05,-275.87"/>
</a>
</g>
</g>
<!-- Node4 -->
<g id="Node000004" class="node">
<title>Node4</title>
<g id="a_Node000004"><a xlink:href="sndfilesource_8h.html" target="_top" xlink:title=" ">
<polygon fill="white" stroke="#666666" points="90,-129 0,-129 0,-110 90,-110 90,-129"/>
<text text-anchor="middle" x="45" y="-117" font-family="Helvetica,sans-Serif" font-size="10.00">sndfilesource.h</text>
</a>
</g>
</g>
<!-- Node1&#45;&gt;Node4 -->
<g id="edge30_Node000001_Node000004" class="edge">
<title>Node1&#45;&gt;Node4</title>
<g id="a_edge30_Node000001_Node000004"><a xlink:title=" ">
<path fill="none" stroke="#63b8ff" d="M269.49,-280.05C208.91,-274.15 96.55,-260.63 63,-239 38.03,-222.9 33.85,-212.36 25,-184 18.87,-164.36 30.94,-141.33 38.86,-129.12"/>
<polygon fill="#63b8ff" stroke="#63b8ff" points="269.53,-283.57 279.81,-281.03 270.19,-276.6 269.53,-283.57"/>
</a>
</g>
</g>
<!-- Node9 -->
<g id="Node000009" class="node">
<title>Node9</title>
<g id="a_Node000009"><a xlink:href="export__format__base_8h.html" target="_top" xlink:title=" ">
<polygon fill="white" stroke="#666666" points="502,-239 378,-239 378,-220 502,-220 502,-239"/>
<text text-anchor="middle" x="440" y="-227" font-family="Helvetica,sans-Serif" font-size="10.00">export_format_base.h</text>
</a>
</g>
</g>
<!-- Node1&#45;&gt;Node9 -->
<g id="edge11_Node000001_Node000009" class="edge">
<title>Node1&#45;&gt;Node9</title>
<g id="a_edge11_Node000001_Node000009"><a xlink:title=" ">
<path fill="none" stroke="#63b8ff" d="M339.5,-271.16C363.75,-261.35 397.07,-247.87 418.57,-239.17"/>
<polygon fill="#63b8ff" stroke="#63b8ff" points="338,-267.99 330.05,-274.98 340.63,-274.48 338,-267.99"/>
</a>
</g>
</g>
<!-- Node15 -->
<g id="Node000015" class="node">
<title>Node15</title>
<g id="a_Node000015"><a xlink:href="ltc__file__reader_8h.html" target="_top" xlink:title=" ">
<polygon fill="white" stroke="#666666" points="614,-239 520,-239 520,-220 614,-220 614,-239"/>
<text text-anchor="middle" x="567" y="-227" font-family="Helvetica,sans-Serif" font-size="10.00">ltc_file_reader.h</text>
</a>
</g>
</g>
<!-- Node1&#45;&gt;Node15 -->
<g id="edge20_Node000001_Node000015" class="edge">
<title>Node1&#45;&gt;Node15</title>
<g id="a_edge20_Node000001_Node000015"><a xlink:title=" ">
<path fill="none" stroke="#63b8ff" d="M348.05,-275.48C395.81,-265.67 476.3,-249.13 525.25,-239.08"/>
<polygon fill="#63b8ff" stroke="#63b8ff" points="347.19,-272.08 338.09,-277.52 348.59,-278.94 347.19,-272.08"/>
</a>
</g>
</g>
<!-- Node16 -->
<g id="Node000016" class="node">
<title>Node16</title>
<g id="a_Node000016"><a xlink:href="sndfile_8hh.html" target="_top" xlink:title=" ">
<polygon fill="white" stroke="#666666" points="306,-239 242,-239 242,-220 306,-220 306,-239"/>
<text text-anchor="middle" x="274" y="-227" font-family="Helvetica,sans-Serif" font-size="10.00">sndfile.hh</text>
</a>
</g>
</g>
<!-- Node1&#45;&gt;Node16 -->
<g id="edge21_Node000001_Node000016" class="edge">
<title>Node1&#45;&gt;Node16</title>
<g id="a_edge21_Node000001_Node000016"><a xlink:title=" ">
<path fill="none" stroke="#63b8ff" d="M297.7,-266.39C291.68,-257.27 284.53,-246.45 279.67,-239.09"/>
<polygon fill="#63b8ff" stroke="#63b8ff" points="294.79,-268.33 303.22,-274.75 300.63,-264.47 294.79,-268.33"/>
</a>
</g>
</g>
<!-- Node19 -->
<g id="Node000019" class="node">
<title>Node19</title>
<g id="a_Node000019"><a xlink:href="sndfileimportable_8h.html" target="_top" xlink:title=" ">
<polygon fill="white" stroke="#666666" points="743.5,-239 632.5,-239 632.5,-220 743.5,-220 743.5,-239"/>
<text text-anchor="middle" x="688" y="-227" font-family="Helvetica,sans-Serif" font-size="10.00">sndfileimportable.h</text>
</a>
</g>
</g>
<!-- Node1&#45;&gt;Node19 -->
<g id="edge29_Node000001_Node000019" class="edge">
<title>Node1&#45;&gt;Node19</title>
<g id="a_edge29_Node000001_Node000019"><a xlink:title=" ">
<path fill="none" stroke="#63b8ff" d="M348.35,-278C416.05,-268.53 554.76,-249.13 632.34,-238.28"/>
<polygon fill="#63b8ff" stroke="#63b8ff" points="347.53,-274.58 338.11,-279.43 348.5,-281.51 347.53,-274.58"/>
</a>
</g>
</g>
<!-- Node3 -->
<g id="Node000003" class="node">
<title>Node3</title>
<g id="a_Node000003"><a xlink:href="ardour_2ardour_2broadcast__info_8h.html" target="_top" xlink:title=" ">
<polygon fill="white" stroke="#666666" points="132,-184 34,-184 34,-165 132,-165 132,-184"/>
<text text-anchor="middle" x="83" y="-172" font-family="Helvetica,sans-Serif" font-size="10.00">broadcast_info.h</text>
</a>
</g>
</g>
<!-- Node2&#45;&gt;Node3 -->
<g id="edge2_Node000002_Node000003" class="edge">
<title>Node2&#45;&gt;Node3</title>
<g id="a_edge2_Node000002_Node000003"><a xlink:title=" ">
<path fill="none" stroke="#63b8ff" d="M108.73,-211.39C102.19,-202.27 94.43,-191.45 89.16,-184.09"/>
<polygon fill="#63b8ff" stroke="#63b8ff" points="106.05,-213.66 114.73,-219.75 111.74,-209.58 106.05,-213.66"/>
</a>
</g>
</g>
<!-- Node5 -->
<g id="Node000005" class="node">
<title>Node5</title>
<g id="a_Node000005"><a xlink:href="sndfile__writer_8h.html" target="_top" xlink:title=" ">
<polygon fill="white" stroke="#666666" points="243.5,-129 152.5,-129 152.5,-110 243.5,-110 243.5,-129"/>
<text text-anchor="middle" x="198" y="-117" font-family="Helvetica,sans-Serif" font-size="10.00">sndfile_writer.h</text>
</a>
</g>
</g>
<!-- Node2&#45;&gt;Node5 -->
<g id="edge4_Node000002_Node000005" class="edge">
<title>Node2&#45;&gt;Node5</title>
<g id="a_edge4_Node000002_Node000005"><a xlink:title=" ">
<path fill="none" stroke="#63b8ff" d="M133.2,-211.38C149.87,-188.01 179.13,-146.97 191.83,-129.16"/>
<polygon fill="#63b8ff" stroke="#63b8ff" points="130.26,-209.49 127.3,-219.66 135.96,-213.55 130.26,-209.49"/>
</a>
</g>
</g>
<!-- Node3&#45;&gt;Node4 -->
<g id="edge3_Node000003_Node000004" class="edge">
<title>Node3&#45;&gt;Node4</title>
<g id="a_edge3_Node000003_Node000004"><a xlink:title=" ">
<path fill="none" stroke="#63b8ff" d="M70.73,-156.39C64.19,-147.27 56.43,-136.45 51.16,-129.09"/>
<polygon fill="#63b8ff" stroke="#63b8ff" points="68.05,-158.66 76.73,-164.75 73.74,-154.58 68.05,-158.66"/>
</a>
</g>
</g>
<!-- Node5&#45;&gt;Node1 -->
<g id="edge5_Node000005_Node000001" class="edge">
<title>Node5&#45;&gt;Node1</title>
<g id="a_edge5_Node000005_Node000001"><a xlink:title=" ">
<path fill="none" stroke="#63b8ff" d="M199.3,-139.26C201.91,-164.39 209.72,-209.26 233,-239 246.29,-255.98 267.99,-267.75 284.81,-274.91"/>
<polygon fill="#63b8ff" stroke="#63b8ff" points="202.78,-138.89 198.43,-129.23 195.81,-139.49 202.78,-138.89"/>
</a>
</g>
</g>
<!-- Node6 -->
<g id="Node000006" class="node">
<title>Node6</title>
<g id="a_Node000006"><a xlink:href="tmp__file_8h.html" target="_top" xlink:title=" ">
<polygon fill="white" stroke="#666666" points="236.5,-74 171.5,-74 171.5,-55 236.5,-55 236.5,-74"/>
<text text-anchor="middle" x="204" y="-62" font-family="Helvetica,sans-Serif" font-size="10.00">tmp_file.h</text>
</a>
</g>
</g>
<!-- Node5&#45;&gt;Node6 -->
<g id="edge6_Node000005_Node000006" class="edge">
<title>Node5&#45;&gt;Node6</title>
<g id="a_edge6_Node000005_Node000006"><a xlink:title=" ">
<path fill="none" stroke="#63b8ff" d="M200.13,-99.66C201.12,-90.93 202.25,-80.99 203.03,-74.09"/>
<polygon fill="#63b8ff" stroke="#63b8ff" points="196.64,-99.42 198.99,-109.75 203.59,-100.21 196.64,-99.42"/>
</a>
</g>
</g>
<!-- Node7 -->
<g id="Node000007" class="node">
<title>Node7</title>
<g id="a_Node000007"><a xlink:href="tmp__file__rt_8h.html" target="_top" xlink:title=" ">
<polygon fill="white" stroke="#666666" points="325,-19 247,-19 247,0 325,0 325,-19"/>
<text text-anchor="middle" x="286" y="-7" font-family="Helvetica,sans-Serif" font-size="10.00">tmp_file_rt.h</text>
</a>
</g>
</g>
<!-- Node5&#45;&gt;Node7 -->
<g id="edge9_Node000005_Node000007" class="edge">
<title>Node5&#45;&gt;Node7</title>
<g id="a_edge9_Node000005_Node000007"><a xlink:title=" ">
<path fill="none" stroke="#63b8ff" d="M216.19,-103.15C225.34,-94.97 236.32,-84.46 245,-74 260.09,-55.83 274.23,-31.82 281.29,-19.16"/>
<polygon fill="#63b8ff" stroke="#63b8ff" points="213.64,-100.72 208.4,-109.93 218.24,-106 213.64,-100.72"/>
</a>
</g>
</g>
<!-- Node8 -->
<g id="Node000008" class="node">
<title>Node8</title>
<g id="a_Node000008"><a xlink:href="tmp__file__sync_8h.html" target="_top" xlink:title=" ">
<polygon fill="white" stroke="#666666" points="228.5,-19 135.5,-19 135.5,0 228.5,0 228.5,-19"/>
<text text-anchor="middle" x="182" y="-7" font-family="Helvetica,sans-Serif" font-size="10.00">tmp_file_sync.h</text>
</a>
</g>
</g>
<!-- Node5&#45;&gt;Node8 -->
<g id="edge10_Node000005_Node000008" class="edge">
<title>Node5&#45;&gt;Node8</title>
<g id="a_edge10_Node000005_Node000008"><a xlink:title=" ">
<path fill="none" stroke="#63b8ff" d="M180.37,-102.29C173.21,-94.51 165.75,-84.59 162,-74 155.14,-54.6 167.49,-31.48 175.65,-19.19"/>
<polygon fill="#63b8ff" stroke="#63b8ff" points="178.31,-105.18 187.84,-109.81 183.28,-100.24 178.31,-105.18"/>
</a>
</g>
</g>
<!-- Node6&#45;&gt;Node7 -->
<g id="edge7_Node000006_Node000007" class="edge">
<title>Node6&#45;&gt;Node7</title>
<g id="a_edge7_Node000006_Node000007"><a xlink:title=" ">
<path fill="none" stroke="#63b8ff" d="M225.78,-49.42C240.66,-39.81 259.91,-27.37 272.59,-19.17"/>
<polygon fill="#63b8ff" stroke="#63b8ff" points="223.67,-46.62 217.17,-54.98 227.47,-52.5 223.67,-46.62"/>
</a>
</g>
</g>
<!-- Node6&#45;&gt;Node8 -->
<g id="edge8_Node000006_Node000008" class="edge">
<title>Node6&#45;&gt;Node8</title>
<g id="a_edge8_Node000006_Node000008"><a xlink:title=" ">
<path fill="none" stroke="#63b8ff" d="M196.42,-45.24C192.74,-36.37 188.49,-26.14 185.57,-19.09"/>
<polygon fill="#63b8ff" stroke="#63b8ff" points="193.3,-46.85 200.37,-54.75 199.77,-44.17 193.3,-46.85"/>
</a>
</g>
</g>
<!-- Node10 -->
<g id="Node000010" class="node">
<title>Node10</title>
<g id="a_Node000010"><a xlink:href="export__format__compatibility_8h.html" target="_top" xlink:title=" ">
<polygon fill="white" stroke="#666666" points="532,-184 368,-184 368,-165 532,-165 532,-184"/>
<text text-anchor="middle" x="450" y="-172" font-family="Helvetica,sans-Serif" font-size="10.00">export_format_compatibility.h</text>
</a>
</g>
</g>
<!-- Node9&#45;&gt;Node10 -->
<g id="edge12_Node000009_Node000010" class="edge">
<title>Node9&#45;&gt;Node10</title>
<g id="a_edge12_Node000009_Node000010"><a xlink:title=" ">
<path fill="none" stroke="#63b8ff" d="M443.55,-209.66C445.2,-200.93 447.08,-190.99 448.38,-184.09"/>
<polygon fill="#63b8ff" stroke="#63b8ff" points="440.07,-209.27 441.65,-219.75 446.94,-210.57 440.07,-209.27"/>
</a>
</g>
</g>
<!-- Node12 -->
<g id="Node000012" class="node">
<title>Node12</title>
<g id="a_Node000012"><a xlink:href="export__formats_8h.html" target="_top" xlink:title=" ">
<polygon fill="white" stroke="#666666" points="605.5,-129 504.5,-129 504.5,-110 605.5,-110 605.5,-129"/>
<text text-anchor="middle" x="555" y="-117" font-family="Helvetica,sans-Serif" font-size="10.00">export_formats.h</text>
</a>
</g>
</g>
<!-- Node9&#45;&gt;Node12 -->
<g id="edge19_Node000009_Node000012" class="edge">
<title>Node9&#45;&gt;Node12</title>
<g id="a_edge19_Node000009_Node000012"><a xlink:title=" ">
<path fill="none" stroke="#63b8ff" d="M490.12,-216.76C508.59,-210.04 528.13,-199.71 541,-184 554.02,-168.11 555.6,-142.72 555.43,-129.37"/>
<polygon fill="#63b8ff" stroke="#63b8ff" points="488.97,-213.45 480.6,-219.94 491.2,-220.09 488.97,-213.45"/>
</a>
</g>
</g>
<!-- Node14 -->
<g id="Node000014" class="node">
<title>Node14</title>
<g id="a_Node000014"><a xlink:href="export__format__specification_8h.html" target="_top" xlink:title=" ">
<polygon fill="white" stroke="#666666" points="750,-184 588,-184 588,-165 750,-165 750,-184"/>
<text text-anchor="middle" x="669" y="-172" font-family="Helvetica,sans-Serif" font-size="10.00">export_format_specification.h</text>
</a>
</g>
</g>
<!-- Node9&#45;&gt;Node14 -->
<g id="edge18_Node000009_Node000014" class="edge">
<title>Node9&#45;&gt;Node14</title>
<g id="a_edge18_Node000009_Node000014"><a xlink:title=" ">
<path fill="none" stroke="#63b8ff" d="M486.71,-217.69C529.61,-207.76 592.36,-193.24 631.92,-184.08"/>
<polygon fill="#63b8ff" stroke="#63b8ff" points="485.75,-214.32 476.79,-219.98 487.32,-221.14 485.75,-214.32"/>
</a>
</g>
</g>
<!-- Node11 -->
<g id="Node000011" class="node">
<title>Node11</title>
<g id="a_Node000011"><a xlink:href="export__format__dialog_8h.html" target="_top" xlink:title=" ">
<polygon fill="white" stroke="#666666" points="615.5,-19 484.5,-19 484.5,0 615.5,0 615.5,-19"/>
<text text-anchor="middle" x="550" y="-7" font-family="Helvetica,sans-Serif" font-size="10.00">export_format_dialog.h</text>
</a>
</g>
</g>
<!-- Node10&#45;&gt;Node11 -->
<g id="edge13_Node000010_Node000011" class="edge">
<title>Node10&#45;&gt;Node11</title>
<g id="a_edge13_Node000010_Node000011"><a xlink:title=" ">
<path fill="none" stroke="#63b8ff" d="M448.22,-154.82C446.82,-129.77 447.88,-84.99 469,-55 481.47,-37.29 503.32,-25.89 521.18,-19.06"/>
<polygon fill="#63b8ff" stroke="#63b8ff" points="444.73,-155.1 448.97,-164.81 451.71,-154.58 444.73,-155.1"/>
</a>
</g>
</g>
<!-- Node10&#45;&gt;Node12 -->
<g id="edge14_Node000010_Node000012" class="edge">
<title>Node10&#45;&gt;Node12</title>
<g id="a_edge14_Node000010_Node000012"><a xlink:title=" ">
<path fill="none" stroke="#63b8ff" d="M476.02,-160.37C495.3,-150.63 521.05,-137.64 537.82,-129.17"/>
<polygon fill="#63b8ff" stroke="#63b8ff" points="474.22,-157.35 466.87,-164.98 477.37,-163.6 474.22,-157.35"/>
</a>
</g>
</g>
<!-- Node12&#45;&gt;Node11 -->
<g id="edge15_Node000012_Node000011" class="edge">
<title>Node12&#45;&gt;Node11</title>
<g id="a_edge15_Node000012_Node000011"><a xlink:title=" ">
<path fill="none" stroke="#63b8ff" d="M590.25,-106.19C615.92,-95.09 644.1,-77.14 631,-55 620.3,-36.91 599.34,-25.68 581.42,-19.03"/>
<polygon fill="#63b8ff" stroke="#63b8ff" points="588.92,-102.95 580.98,-109.96 591.56,-109.43 588.92,-102.95"/>
</a>
</g>
</g>
<!-- Node13 -->
<g id="Node000013" class="node">
<title>Node13</title>
<g id="a_Node000013"><a xlink:href="export__format__manager_8h.html" target="_top" xlink:title=" ">
<polygon fill="white" stroke="#666666" points="621.5,-74 478.5,-74 478.5,-55 621.5,-55 621.5,-74"/>
<text text-anchor="middle" x="550" y="-62" font-family="Helvetica,sans-Serif" font-size="10.00">export_format_manager.h</text>
</a>
</g>
</g>
<!-- Node12&#45;&gt;Node13 -->
<g id="edge16_Node000012_Node000013" class="edge">
<title>Node12&#45;&gt;Node13</title>
<g id="a_edge16_Node000012_Node000013"><a xlink:title=" ">
<path fill="none" stroke="#63b8ff" d="M553.22,-99.66C552.4,-90.93 551.46,-80.99 550.81,-74.09"/>
<polygon fill="#63b8ff" stroke="#63b8ff" points="549.75,-100.12 554.17,-109.75 556.72,-99.46 549.75,-100.12"/>
</a>
</g>
</g>
<!-- Node13&#45;&gt;Node11 -->
<g id="edge17_Node000013_Node000011" class="edge">
<title>Node13&#45;&gt;Node11</title>
<g id="a_edge17_Node000013_Node000011"><a xlink:title=" ">
<path fill="none" stroke="#63b8ff" d="M550,-44.66C550,-35.93 550,-25.99 550,-19.09"/>
<polygon fill="#63b8ff" stroke="#63b8ff" points="546.5,-44.75 550,-54.75 553.5,-44.75 546.5,-44.75"/>
</a>
</g>
</g>
<!-- Node17 -->
<g id="Node000017" class="node">
<title>Node17</title>
<g id="a_Node000017"><a xlink:href="sndfile__base_8h.html" target="_top" xlink:title=" ">
<polygon fill="white" stroke="#666666" points="312,-184 226,-184 226,-165 312,-165 312,-184"/>
<text text-anchor="middle" x="269" y="-172" font-family="Helvetica,sans-Serif" font-size="10.00">sndfile_base.h</text>
</a>
</g>
</g>
<!-- Node16&#45;&gt;Node17 -->
<g id="edge22_Node000016_Node000017" class="edge">
<title>Node16&#45;&gt;Node17</title>
<g id="a_edge22_Node000016_Node000017"><a xlink:title=" ">
<path fill="none" stroke="#63b8ff" d="M272.22,-209.66C271.4,-200.93 270.46,-190.99 269.81,-184.09"/>
<polygon fill="#63b8ff" stroke="#63b8ff" points="268.75,-210.12 273.17,-219.75 275.72,-209.46 268.75,-210.12"/>
</a>
</g>
</g>
<!-- Node17&#45;&gt;Node5 -->
<g id="edge28_Node000017_Node000005" class="edge">
<title>Node17&#45;&gt;Node5</title>
<g id="a_edge28_Node000017_Node000005"><a xlink:title=" ">
<path fill="none" stroke="#63b8ff" d="M249.41,-158.88C236.63,-149.34 220.39,-137.21 209.61,-129.17"/>
<polygon fill="#63b8ff" stroke="#63b8ff" points="247.49,-161.81 257.59,-164.98 251.67,-156.2 247.49,-161.81"/>
</a>
</g>
</g>
<!-- Node18 -->
<g id="Node000018" class="node">
<title>Node18</title>
<g id="a_Node000018"><a xlink:href="sndfile__reader_8h.html" target="_top" xlink:title=" ">
<polygon fill="white" stroke="#666666" points="356,-129 262,-129 262,-110 356,-110 356,-129"/>
<text text-anchor="middle" x="309" y="-117" font-family="Helvetica,sans-Serif" font-size="10.00">sndfile_reader.h</text>
</a>
</g>
</g>
<!-- Node17&#45;&gt;Node18 -->
<g id="edge23_Node000017_Node000018" class="edge">
<title>Node17&#45;&gt;Node18</title>
<g id="a_edge23_Node000017_Node000018"><a xlink:title=" ">
<path fill="none" stroke="#63b8ff" d="M281.7,-156.67C288.63,-147.5 296.91,-136.52 302.52,-129.09"/>
<polygon fill="#63b8ff" stroke="#63b8ff" points="278.84,-154.66 275.61,-164.75 284.42,-158.87 278.84,-154.66"/>
</a>
</g>
</g>
<!-- Node18&#45;&gt;Node1 -->
<g id="edge24_Node000018_Node000001" class="edge">
<title>Node18&#45;&gt;Node1</title>
<g id="a_edge24_Node000018_Node000001"><a xlink:title=" ">
<path fill="none" stroke="#63b8ff" d="M315.13,-138.9C317.47,-146.83 319.84,-156.27 321,-165 326.43,-206 316.05,-255.26 311.25,-274.86"/>
<polygon fill="#63b8ff" stroke="#63b8ff" points="318.43,-137.72 312.09,-129.23 311.75,-139.82 318.43,-137.72"/>
</a>
</g>
</g>
<!-- Node18&#45;&gt;Node6 -->
<g id="edge25_Node000018_Node000006" class="edge">
<title>Node18&#45;&gt;Node6</title>
<g id="a_edge25_Node000018_Node000006"><a xlink:title=" ">
<path fill="none" stroke="#63b8ff" d="M282.98,-105.37C263.7,-95.63 237.95,-82.64 221.18,-74.17"/>
<polygon fill="#63b8ff" stroke="#63b8ff" points="281.63,-108.6 292.13,-109.98 284.78,-102.35 281.63,-108.6"/>
</a>
</g>
</g>
<!-- Node18&#45;&gt;Node7 -->
<g id="edge26_Node000018_Node000007" class="edge">
<title>Node18&#45;&gt;Node7</title>
<g id="a_edge26_Node000018_Node000007"><a xlink:title=" ">
<path fill="none" stroke="#63b8ff" d="M315.38,-100.08C318.87,-87.21 321.63,-69.74 317,-55 312.6,-40.99 302.05,-27.53 294.48,-19.15"/>
<polygon fill="#63b8ff" stroke="#63b8ff" points="312.03,-99.08 312.43,-109.66 318.72,-101.14 312.03,-99.08"/>
</a>
</g>
</g>
<!-- Node18&#45;&gt;Node8 -->
<g id="edge27_Node000018_Node000008" class="edge">
<title>Node18&#45;&gt;Node8</title>
<g id="a_edge27_Node000018_Node000008"><a xlink:title=" ">
<path fill="none" stroke="#63b8ff" d="M294.18,-102.37C281.63,-89.06 262.87,-70 245,-55 228.79,-41.4 208.59,-27.64 195.5,-19.09"/>
<polygon fill="#63b8ff" stroke="#63b8ff" points="291.75,-104.9 301.13,-109.82 296.87,-100.12 291.75,-104.9"/>
</a>
</g>
</g>
</g>
</svg>

<g id="navigator" transform="translate(0 0)" fill="#404254">
  <rect fill="#f2f5e9" fill-opacity="0.5" stroke="#606060" stroke-width=".5" x="0" y="0" width="60" height="60"/>
  <use id="zoomplus" xlink:href="#zoomPlus" x="17" y="9" onmousedown="handleZoom(evt,'in')"/>
  <use id="zoomminus" xlink:href="#zoomMin" x="42" y="9" onmousedown="handleZoom(evt,'out')"/>
  <use id="reset" xlink:href="#resetDef" x="30" y="36" onmousedown="handleReset()"/>
   <use id="arrowup" xlink:href="#arrowUp" x="0" y="0" onmousedown="handlePan(0,-1)"/>
  <use id="arrowright" xlink:href="#arrowRight" x="0" y="0" onmousedown="handlePan(1,0)"/>
  <use id="arrowdown" xlink:href="#arrowDown" x="0" y="0" onmousedown="handlePan(0,1)"/>
  <use id="arrowleft" xlink:href="#arrowLeft" x="0" y="0" onmousedown="handlePan(-1,0)"/>
</g>
<svg viewBox="0 0 15 15" width="100%" height="30px" preserveAspectRatio="xMaxYMin meet">
 <g id="arrow_out" transform="scale(0.3 0.3)">
  <a xlink:href="sndfile_8h__dep__incl_org.svg" target="_base">
   <rect id="button" ry="5" rx="5" y="6" x="6" height="38" width="38"
        fill="#f2f5e9" fill-opacity="0.5" stroke="#606060" stroke-width="1.0"/>
   <path id="arrow"
     d="M 11.500037,31.436501 C 11.940474,20.09759 22.043105,11.32322 32.158766,21.979434 L 37.068811,17.246167 C 37.068811,17.246167 37.088388,32 37.088388,32 L 22.160133,31.978069 C 22.160133,31.978069 26.997745,27.140456 26.997745,27.140456 C 18.528582,18.264221 13.291696,25.230495 11.500037,31.436501 z"
     style="fill:#404040;"/>
  </a>
 </g>
</svg>

<style type='text/css'>
<![CDATA[
[data-mouse-over-selected='false'] { opacity: 0.7; }
[data-mouse-over-selected='true']  { opacity: 1.0; }
]]>
</style>
<script type="application/ecmascript"><![CDATA[
document.addEventListener('DOMContentLoaded', (event) => {
  highlightEdges();
  highlightAdjacentNodes();
});
]]></script>
</svg>
