<?xml version="1.0" encoding="UTF-8" standalone="no"?>
<!DOCTYPE svg PUBLIC "-//W3C//DTD SVG 1.1//EN"
 "http://www.w3.org/Graphics/SVG/1.1/DTD/svg11.dtd">
<!-- Generated by graphviz version 2.43.0 (0)
 -->
<!-- Title: sndfile.hh Pages: 1 -->
<svg width="806pt" height="467pt"
 viewBox="0.00 0.00 806.00 467.00" xmlns="http://www.w3.org/2000/svg" xmlns:xlink="http://www.w3.org/1999/xlink">
<g id="graph0" class="graph" transform="scale(1 1) rotate(0) translate(4 463)">
<title>sndfile.hh</title>
<!-- Node1 -->
<g id="Node000001" class="node">
<title>Node1</title>
<g id="a_Node000001"><a xlink:title=" ">
<polygon fill="#999999" stroke="#666666" points="562,-459 498,-459 498,-440 562,-440 562,-459"/>
<text text-anchor="middle" x="530" y="-447" font-family="Helvetica,sans-Serif" font-size="10.00">sndfile.hh</text>
</a>
</g>
</g>
<!-- Node2 -->
<g id="Node000002" class="node">
<title>Node2</title>
<g id="a_Node000002"><a xlink:href="sndfile__base_8h.html" target="_top" xlink:title=" ">
<polygon fill="white" stroke="#666666" points="647,-404 561,-404 561,-385 647,-385 647,-404"/>
<text text-anchor="middle" x="604" y="-392" font-family="Helvetica,sans-Serif" font-size="10.00">sndfile_base.h</text>
</a>
</g>
</g>
<!-- Node1&#45;&gt;Node2 -->
<g id="edge1_Node000001_Node000002" class="edge">
<title>Node1&#45;&gt;Node2</title>
<g id="a_edge1_Node000001_Node000002"><a xlink:title=" ">
<path fill="none" stroke="#63b8ff" d="M550.03,-434.15C563.41,-424.57 580.56,-412.29 591.89,-404.17"/>
<polygon fill="#63b8ff" stroke="#63b8ff" points="547.98,-431.32 541.89,-439.98 552.06,-437.01 547.98,-431.32"/>
</a>
</g>
</g>
<!-- Node3 -->
<g id="Node000003" class="node">
<title>Node3</title>
<g id="a_Node000003"><a xlink:href="sndfile__reader_8h.html" target="_top" xlink:title=" ">
<polygon fill="white" stroke="#666666" points="726,-349 632,-349 632,-330 726,-330 726,-349"/>
<text text-anchor="middle" x="679" y="-337" font-family="Helvetica,sans-Serif" font-size="10.00">sndfile_reader.h</text>
</a>
</g>
</g>
<!-- Node2&#45;&gt;Node3 -->
<g id="edge2_Node000002_Node000003" class="edge">
<title>Node2&#45;&gt;Node3</title>
<g id="a_edge2_Node000002_Node000003"><a xlink:title=" ">
<path fill="none" stroke="#63b8ff" d="M624.31,-379.15C637.86,-369.57 655.24,-357.29 666.73,-349.17"/>
<polygon fill="#63b8ff" stroke="#63b8ff" points="622.2,-376.36 616.05,-384.98 626.24,-382.07 622.2,-376.36"/>
</a>
</g>
</g>
<!-- Node8 -->
<g id="Node000008" class="node">
<title>Node8</title>
<g id="a_Node000008"><a xlink:href="sndfile__writer_8h.html" target="_top" xlink:title=" ">
<polygon fill="white" stroke="#666666" points="647.5,-184 556.5,-184 556.5,-165 647.5,-165 647.5,-184"/>
<text text-anchor="middle" x="602" y="-172" font-family="Helvetica,sans-Serif" font-size="10.00">sndfile_writer.h</text>
</a>
</g>
</g>
<!-- Node2&#45;&gt;Node8 -->
<g id="edge30_Node000002_Node000008" class="edge">
<title>Node2&#45;&gt;Node8</title>
<g id="a_edge30_Node000002_Node000008"><a xlink:title=" ">
<path fill="none" stroke="#63b8ff" d="M603.83,-374.85C603.42,-329.82 602.38,-216.53 602.08,-184.22"/>
<polygon fill="#63b8ff" stroke="#63b8ff" points="600.33,-374.99 603.92,-384.95 607.33,-374.92 600.33,-374.99"/>
</a>
</g>
</g>
<!-- Node4 -->
<g id="Node000004" class="node">
<title>Node4</title>
<g id="a_Node000004"><a xlink:href="sndfile_8h.html" target="_top" xlink:title=" ">
<polygon fill="white" stroke="#666666" points="480,-294 422,-294 422,-275 480,-275 480,-294"/>
<text text-anchor="middle" x="451" y="-282" font-family="Helvetica,sans-Serif" font-size="10.00">sndfile.h</text>
</a>
</g>
</g>
<!-- Node3&#45;&gt;Node4 -->
<g id="edge3_Node000003_Node000004" class="edge">
<title>Node3&#45;&gt;Node4</title>
<g id="a_edge3_Node000003_Node000004"><a xlink:title=" ">
<path fill="none" stroke="#63b8ff" d="M632.43,-327.67C586.84,-317.08 518.79,-301.26 480.29,-292.31"/>
<polygon fill="#63b8ff" stroke="#63b8ff" points="631.84,-331.13 642.37,-329.98 633.42,-324.31 631.84,-331.13"/>
</a>
</g>
</g>
<!-- Node9 -->
<g id="Node000009" class="node">
<title>Node9</title>
<g id="a_Node000009"><a xlink:href="tmp__file_8h.html" target="_top" xlink:title=" ">
<polygon fill="white" stroke="#666666" points="769.5,-129 704.5,-129 704.5,-110 769.5,-110 769.5,-129"/>
<text text-anchor="middle" x="737" y="-117" font-family="Helvetica,sans-Serif" font-size="10.00">tmp_file.h</text>
</a>
</g>
</g>
<!-- Node3&#45;&gt;Node9 -->
<g id="edge27_Node000003_Node000009" class="edge">
<title>Node3&#45;&gt;Node9</title>
<g id="a_edge27_Node000003_Node000009"><a xlink:title=" ">
<path fill="none" stroke="#63b8ff" d="M683.89,-320.13C695.81,-275.3 726.07,-161.6 734.68,-129.22"/>
<polygon fill="#63b8ff" stroke="#63b8ff" points="680.46,-319.39 681.27,-329.95 687.23,-321.19 680.46,-319.39"/>
</a>
</g>
</g>
<!-- Node10 -->
<g id="Node000010" class="node">
<title>Node10</title>
<g id="a_Node000010"><a xlink:href="tmp__file__rt_8h.html" target="_top" xlink:title=" ">
<polygon fill="white" stroke="#666666" points="797,-74 719,-74 719,-55 797,-55 797,-74"/>
<text text-anchor="middle" x="758" y="-62" font-family="Helvetica,sans-Serif" font-size="10.00">tmp_file_rt.h</text>
</a>
</g>
</g>
<!-- Node3&#45;&gt;Node10 -->
<g id="edge28_Node000003_Node000010" class="edge">
<title>Node3&#45;&gt;Node10</title>
<g id="a_edge28_Node000003_Node000010"><a xlink:title=" ">
<path fill="none" stroke="#63b8ff" d="M711.11,-325.79C746.36,-309.48 798,-277.55 798,-230.5 798,-230.5 798,-230.5 798,-173.5 798,-134.31 774.55,-91.82 763.56,-74.06"/>
<polygon fill="#63b8ff" stroke="#63b8ff" points="709.39,-322.73 701.66,-329.98 712.22,-329.13 709.39,-322.73"/>
</a>
</g>
</g>
<!-- Node11 -->
<g id="Node000011" class="node">
<title>Node11</title>
<g id="a_Node000011"><a xlink:href="tmp__file__sync_8h.html" target="_top" xlink:title=" ">
<polygon fill="white" stroke="#666666" points="700.5,-74 607.5,-74 607.5,-55 700.5,-55 700.5,-74"/>
<text text-anchor="middle" x="654" y="-62" font-family="Helvetica,sans-Serif" font-size="10.00">tmp_file_sync.h</text>
</a>
</g>
</g>
<!-- Node3&#45;&gt;Node11 -->
<g id="edge29_Node000003_Node000011" class="edge">
<title>Node3&#45;&gt;Node11</title>
<g id="a_edge29_Node000003_Node000011"><a xlink:title=" ">
<path fill="none" stroke="#63b8ff" d="M678.16,-319.77C677.28,-298.23 676,-261.82 676,-230.5 676,-230.5 676,-230.5 676,-173.5 676,-135.8 662.97,-92.17 656.97,-74.06"/>
<polygon fill="#63b8ff" stroke="#63b8ff" points="674.67,-319.98 678.6,-329.82 681.66,-319.68 674.67,-319.98"/>
</a>
</g>
</g>
<!-- Node4&#45;&gt;Node1 -->
<g id="edge24_Node000004_Node000001" class="edge">
<title>Node4&#45;&gt;Node1</title>
<g id="a_edge24_Node000004_Node000001"><a xlink:title=" ">
<path fill="none" stroke="#63b8ff" d="M459.64,-303.33C476.51,-338.13 513.27,-413.98 525.75,-439.74"/>
<polygon fill="#63b8ff" stroke="#63b8ff" points="462.78,-301.78 455.27,-294.31 456.48,-304.83 462.78,-301.78"/>
</a>
</g>
</g>
<!-- Node5 -->
<g id="Node000005" class="node">
<title>Node5</title>
<g id="a_Node000005"><a xlink:href="audiographer_2audiographer_2broadcast__info_8h.html" target="_top" xlink:title=" ">
<polygon fill="white" stroke="#666666" points="538,-239 440,-239 440,-220 538,-220 538,-239"/>
<text text-anchor="middle" x="489" y="-227" font-family="Helvetica,sans-Serif" font-size="10.00">broadcast_info.h</text>
</a>
</g>
</g>
<!-- Node4&#45;&gt;Node5 -->
<g id="edge4_Node000004_Node000005" class="edge">
<title>Node4&#45;&gt;Node5</title>
<g id="a_edge4_Node000004_Node000005"><a xlink:title=" ">
<path fill="none" stroke="#63b8ff" d="M463.27,-266.39C469.81,-257.27 477.57,-246.45 482.84,-239.09"/>
<polygon fill="#63b8ff" stroke="#63b8ff" points="460.26,-264.58 457.27,-274.75 465.95,-268.66 460.26,-264.58"/>
</a>
</g>
</g>
<!-- Node7 -->
<g id="Node000007" class="node">
<title>Node7</title>
<g id="a_Node000007"><a xlink:href="sndfilesource_8h.html" target="_top" xlink:title=" ">
<polygon fill="white" stroke="#666666" points="495,-129 405,-129 405,-110 495,-110 495,-129"/>
<text text-anchor="middle" x="450" y="-117" font-family="Helvetica,sans-Serif" font-size="10.00">sndfilesource.h</text>
</a>
</g>
</g>
<!-- Node4&#45;&gt;Node7 -->
<g id="edge26_Node000004_Node000007" class="edge">
<title>Node4&#45;&gt;Node7</title>
<g id="a_edge26_Node000004_Node000007"><a xlink:title=" ">
<path fill="none" stroke="#63b8ff" d="M440.93,-265.71C437,-257.8 432.97,-248.2 431,-239 424.11,-206.84 424.41,-197.22 431,-165 433.69,-151.83 440.44,-137.74 445.12,-129.02"/>
<polygon fill="#63b8ff" stroke="#63b8ff" points="437.91,-267.49 445.68,-274.68 444.09,-264.21 437.91,-267.49"/>
</a>
</g>
</g>
<!-- Node12 -->
<g id="Node000012" class="node">
<title>Node12</title>
<g id="a_Node000012"><a xlink:href="export__format__base_8h.html" target="_top" xlink:title=" ">
<polygon fill="white" stroke="#666666" points="254,-239 130,-239 130,-220 254,-220 254,-239"/>
<text text-anchor="middle" x="192" y="-227" font-family="Helvetica,sans-Serif" font-size="10.00">export_format_base.h</text>
</a>
</g>
</g>
<!-- Node4&#45;&gt;Node12 -->
<g id="edge14_Node000004_Node000012" class="edge">
<title>Node4&#45;&gt;Node12</title>
<g id="a_edge14_Node000004_Node000012"><a xlink:title=" ">
<path fill="none" stroke="#63b8ff" d="M411.8,-275.48C363.86,-265.67 283.05,-249.13 233.91,-239.08"/>
<polygon fill="#63b8ff" stroke="#63b8ff" points="411.29,-278.95 421.79,-277.52 412.7,-272.09 411.29,-278.95"/>
</a>
</g>
</g>
<!-- Node18 -->
<g id="Node000018" class="node">
<title>Node18</title>
<g id="a_Node000018"><a xlink:href="ltc__file__reader_8h.html" target="_top" xlink:title=" ">
<polygon fill="white" stroke="#666666" points="112,-239 18,-239 18,-220 112,-220 112,-239"/>
<text text-anchor="middle" x="65" y="-227" font-family="Helvetica,sans-Serif" font-size="10.00">ltc_file_reader.h</text>
</a>
</g>
</g>
<!-- Node4&#45;&gt;Node18 -->
<g id="edge23_Node000004_Node000018" class="edge">
<title>Node4&#45;&gt;Node18</title>
<g id="a_edge23_Node000004_Node000018"><a xlink:title=" ">
<path fill="none" stroke="#63b8ff" d="M411.75,-278.42C349.88,-270.37 225.95,-254.04 121,-239 118.08,-238.58 115.07,-238.14 112.05,-237.7"/>
<polygon fill="#63b8ff" stroke="#63b8ff" points="411.47,-281.91 421.84,-279.73 412.38,-274.97 411.47,-281.91"/>
</a>
</g>
</g>
<!-- Node19 -->
<g id="Node000019" class="node">
<title>Node19</title>
<g id="a_Node000019"><a xlink:href="sndfileimportable_8h.html" target="_top" xlink:title=" ">
<polygon fill="white" stroke="#666666" points="383.5,-239 272.5,-239 272.5,-220 383.5,-220 383.5,-239"/>
<text text-anchor="middle" x="328" y="-227" font-family="Helvetica,sans-Serif" font-size="10.00">sndfileimportable.h</text>
</a>
</g>
</g>
<!-- Node4&#45;&gt;Node19 -->
<g id="edge25_Node000004_Node000019" class="edge">
<title>Node4&#45;&gt;Node19</title>
<g id="a_edge25_Node000004_Node000019"><a xlink:title=" ">
<path fill="none" stroke="#63b8ff" d="M421.75,-270.9C399.03,-261.11 368.13,-247.79 348.12,-239.17"/>
<polygon fill="#63b8ff" stroke="#63b8ff" points="420.67,-274.24 431.24,-274.98 423.44,-267.81 420.67,-274.24"/>
</a>
</g>
</g>
<!-- Node6 -->
<g id="Node000006" class="node">
<title>Node6</title>
<g id="a_Node000006"><a xlink:href="ardour_2ardour_2broadcast__info_8h.html" target="_top" xlink:title=" ">
<polygon fill="white" stroke="#666666" points="538,-184 440,-184 440,-165 538,-165 538,-184"/>
<text text-anchor="middle" x="489" y="-172" font-family="Helvetica,sans-Serif" font-size="10.00">broadcast_info.h</text>
</a>
</g>
</g>
<!-- Node5&#45;&gt;Node6 -->
<g id="edge5_Node000005_Node000006" class="edge">
<title>Node5&#45;&gt;Node6</title>
<g id="a_edge5_Node000005_Node000006"><a xlink:title=" ">
<path fill="none" stroke="#63b8ff" d="M489,-209.66C489,-200.93 489,-190.99 489,-184.09"/>
<polygon fill="#63b8ff" stroke="#63b8ff" points="485.5,-209.75 489,-219.75 492.5,-209.75 485.5,-209.75"/>
</a>
</g>
</g>
<!-- Node5&#45;&gt;Node8 -->
<g id="edge7_Node000005_Node000008" class="edge">
<title>Node5&#45;&gt;Node8</title>
<g id="a_edge7_Node000005_Node000008"><a xlink:title=" ">
<path fill="none" stroke="#63b8ff" d="M516.43,-215.63C537.25,-205.87 565.3,-192.71 583.51,-184.17"/>
<polygon fill="#63b8ff" stroke="#63b8ff" points="514.72,-212.57 507.16,-219.98 517.7,-218.91 514.72,-212.57"/>
</a>
</g>
</g>
<!-- Node6&#45;&gt;Node7 -->
<g id="edge6_Node000006_Node000007" class="edge">
<title>Node6&#45;&gt;Node7</title>
<g id="a_edge6_Node000006_Node000007"><a xlink:title=" ">
<path fill="none" stroke="#63b8ff" d="M476.62,-156.67C469.86,-147.5 461.79,-136.52 456.32,-129.09"/>
<polygon fill="#63b8ff" stroke="#63b8ff" points="473.81,-158.77 482.56,-164.75 479.45,-154.62 473.81,-158.77"/>
</a>
</g>
</g>
<!-- Node8&#45;&gt;Node4 -->
<g id="edge8_Node000008_Node000004" class="edge">
<title>Node8&#45;&gt;Node4</title>
<g id="a_edge8_Node000008_Node000004"><a xlink:title=" ">
<path fill="none" stroke="#63b8ff" d="M590.36,-192.57C580.21,-206.48 564.39,-225.9 547,-239 525.58,-255.14 497.36,-267.34 477.08,-274.85"/>
<polygon fill="#63b8ff" stroke="#63b8ff" points="593.27,-194.53 596.18,-184.35 587.55,-190.49 593.27,-194.53"/>
</a>
</g>
</g>
<!-- Node8&#45;&gt;Node9 -->
<g id="edge9_Node000008_Node000009" class="edge">
<title>Node8&#45;&gt;Node9</title>
<g id="a_edge9_Node000008_Node000009"><a xlink:title=" ">
<path fill="none" stroke="#63b8ff" d="M633.1,-161.29C658.12,-151.47 692.66,-137.91 714.92,-129.17"/>
<polygon fill="#63b8ff" stroke="#63b8ff" points="631.72,-158.07 623.69,-164.98 634.28,-164.59 631.72,-158.07"/>
</a>
</g>
</g>
<!-- Node8&#45;&gt;Node10 -->
<g id="edge12_Node000008_Node000010" class="edge">
<title>Node8&#45;&gt;Node10</title>
<g id="a_edge12_Node000008_Node000010"><a xlink:title=" ">
<path fill="none" stroke="#63b8ff" d="M622.94,-159.01C655.85,-136.22 718.68,-92.72 745.44,-74.2"/>
<polygon fill="#63b8ff" stroke="#63b8ff" points="620.73,-156.27 614.5,-164.84 624.72,-162.03 620.73,-156.27"/>
</a>
</g>
</g>
<!-- Node8&#45;&gt;Node11 -->
<g id="edge13_Node000008_Node000011" class="edge">
<title>Node8&#45;&gt;Node11</title>
<g id="a_edge13_Node000008_Node000011"><a xlink:title=" ">
<path fill="none" stroke="#63b8ff" d="M607.04,-154.94C610.88,-142 616.75,-124.51 624,-110 630.58,-96.83 640.47,-82.97 647.07,-74.28"/>
<polygon fill="#63b8ff" stroke="#63b8ff" points="603.67,-154.01 604.3,-164.58 610.4,-155.92 603.67,-154.01"/>
</a>
</g>
</g>
<!-- Node9&#45;&gt;Node10 -->
<g id="edge10_Node000009_Node000010" class="edge">
<title>Node9&#45;&gt;Node10</title>
<g id="a_edge10_Node000009_Node000010"><a xlink:title=" ">
<path fill="none" stroke="#63b8ff" d="M744.24,-100.24C747.75,-91.37 751.8,-81.14 754.6,-74.09"/>
<polygon fill="#63b8ff" stroke="#63b8ff" points="740.9,-99.16 740.47,-109.75 747.41,-101.74 740.9,-99.16"/>
</a>
</g>
</g>
<!-- Node9&#45;&gt;Node11 -->
<g id="edge11_Node000009_Node000011" class="edge">
<title>Node9&#45;&gt;Node11</title>
<g id="a_edge11_Node000009_Node000011"><a xlink:title=" ">
<path fill="none" stroke="#63b8ff" d="M714.96,-104.42C699.89,-94.81 680.41,-82.37 667.58,-74.17"/>
<polygon fill="#63b8ff" stroke="#63b8ff" points="713.35,-107.55 723.66,-109.98 717.12,-101.65 713.35,-107.55"/>
</a>
</g>
</g>
<!-- Node13 -->
<g id="Node000013" class="node">
<title>Node13</title>
<g id="a_Node000013"><a xlink:href="export__format__compatibility_8h.html" target="_top" xlink:title=" ">
<polygon fill="white" stroke="#666666" points="164,-184 0,-184 0,-165 164,-165 164,-184"/>
<text text-anchor="middle" x="82" y="-172" font-family="Helvetica,sans-Serif" font-size="10.00">export_format_compatibility.h</text>
</a>
</g>
</g>
<!-- Node12&#45;&gt;Node13 -->
<g id="edge15_Node000012_Node000013" class="edge">
<title>Node12&#45;&gt;Node13</title>
<g id="a_edge15_Node000012_Node000013"><a xlink:title=" ">
<path fill="none" stroke="#63b8ff" d="M165.3,-215.63C145.03,-205.87 117.73,-192.71 99.99,-184.17"/>
<polygon fill="#63b8ff" stroke="#63b8ff" points="163.8,-218.8 174.33,-219.98 166.84,-212.49 163.8,-218.8"/>
</a>
</g>
</g>
<!-- Node15 -->
<g id="Node000015" class="node">
<title>Node15</title>
<g id="a_Node000015"><a xlink:href="export__formats_8h.html" target="_top" xlink:title=" ">
<polygon fill="white" stroke="#666666" points="226.5,-129 125.5,-129 125.5,-110 226.5,-110 226.5,-129"/>
<text text-anchor="middle" x="176" y="-117" font-family="Helvetica,sans-Serif" font-size="10.00">export_formats.h</text>
</a>
</g>
</g>
<!-- Node12&#45;&gt;Node15 -->
<g id="edge22_Node000012_Node000015" class="edge">
<title>Node12&#45;&gt;Node15</title>
<g id="a_edge22_Node000012_Node000015"><a xlink:title=" ">
<path fill="none" stroke="#63b8ff" d="M189.18,-209.48C185.68,-185.84 179.85,-146.5 177.28,-129.16"/>
<polygon fill="#63b8ff" stroke="#63b8ff" points="185.76,-210.28 190.69,-219.66 192.69,-209.26 185.76,-210.28"/>
</a>
</g>
</g>
<!-- Node17 -->
<g id="Node000017" class="node">
<title>Node17</title>
<g id="a_Node000017"><a xlink:href="export__format__specification_8h.html" target="_top" xlink:title=" ">
<polygon fill="white" stroke="#666666" points="382,-184 220,-184 220,-165 382,-165 382,-184"/>
<text text-anchor="middle" x="301" y="-172" font-family="Helvetica,sans-Serif" font-size="10.00">export_format_specification.h</text>
</a>
</g>
</g>
<!-- Node12&#45;&gt;Node17 -->
<g id="edge21_Node000012_Node000017" class="edge">
<title>Node12&#45;&gt;Node17</title>
<g id="a_edge21_Node000012_Node000017"><a xlink:title=" ">
<path fill="none" stroke="#63b8ff" d="M218.73,-215.5C238.79,-205.75 265.68,-192.68 283.17,-184.17"/>
<polygon fill="#63b8ff" stroke="#63b8ff" points="216.98,-212.46 209.51,-219.98 220.04,-218.76 216.98,-212.46"/>
</a>
</g>
</g>
<!-- Node14 -->
<g id="Node000014" class="node">
<title>Node14</title>
<g id="a_Node000014"><a xlink:href="export__format__dialog_8h.html" target="_top" xlink:title=" ">
<polygon fill="white" stroke="#666666" points="185.5,-19 54.5,-19 54.5,0 185.5,0 185.5,-19"/>
<text text-anchor="middle" x="120" y="-7" font-family="Helvetica,sans-Serif" font-size="10.00">export_format_dialog.h</text>
</a>
</g>
</g>
<!-- Node13&#45;&gt;Node14 -->
<g id="edge16_Node000013_Node000014" class="edge">
<title>Node13&#45;&gt;Node14</title>
<g id="a_edge16_Node000013_Node000014"><a xlink:title=" ">
<path fill="none" stroke="#63b8ff" d="M86.35,-154.83C94.55,-119.67 111.98,-44.9 117.95,-19.31"/>
<polygon fill="#63b8ff" stroke="#63b8ff" points="82.9,-154.2 84.04,-164.74 89.72,-155.79 82.9,-154.2"/>
</a>
</g>
</g>
<!-- Node13&#45;&gt;Node15 -->
<g id="edge17_Node000013_Node000015" class="edge">
<title>Node13&#45;&gt;Node15</title>
<g id="a_edge17_Node000013_Node000015"><a xlink:title=" ">
<path fill="none" stroke="#63b8ff" d="M106,-159.97C123.19,-150.28 145.81,-137.52 160.62,-129.17"/>
<polygon fill="#63b8ff" stroke="#63b8ff" points="104.09,-157.02 97.1,-164.98 107.53,-163.12 104.09,-157.02"/>
</a>
</g>
</g>
<!-- Node15&#45;&gt;Node14 -->
<g id="edge18_Node000015_Node000014" class="edge">
<title>Node15&#45;&gt;Node14</title>
<g id="a_edge18_Node000015_Node000014"><a xlink:title=" ">
<path fill="none" stroke="#63b8ff" d="M159.81,-102.3C152.59,-94.33 144.5,-84.25 139,-74 129.21,-55.75 123.8,-31.77 121.44,-19.14"/>
<polygon fill="#63b8ff" stroke="#63b8ff" points="157.45,-104.9 166.86,-109.76 162.53,-100.09 157.45,-104.9"/>
</a>
</g>
</g>
<!-- Node16 -->
<g id="Node000016" class="node">
<title>Node16</title>
<g id="a_Node000016"><a xlink:href="export__format__manager_8h.html" target="_top" xlink:title=" ">
<polygon fill="white" stroke="#666666" points="291.5,-74 148.5,-74 148.5,-55 291.5,-55 291.5,-74"/>
<text text-anchor="middle" x="220" y="-62" font-family="Helvetica,sans-Serif" font-size="10.00">export_format_manager.h</text>
</a>
</g>
</g>
<!-- Node15&#45;&gt;Node16 -->
<g id="edge19_Node000015_Node000016" class="edge">
<title>Node15&#45;&gt;Node16</title>
<g id="a_edge19_Node000015_Node000016"><a xlink:title=" ">
<path fill="none" stroke="#63b8ff" d="M189.73,-101.96C197.4,-92.72 206.63,-81.6 212.87,-74.09"/>
<polygon fill="#63b8ff" stroke="#63b8ff" points="186.96,-99.82 183.27,-109.75 192.35,-104.29 186.96,-99.82"/>
</a>
</g>
</g>
<!-- Node16&#45;&gt;Node14 -->
<g id="edge20_Node000016_Node000014" class="edge">
<title>Node16&#45;&gt;Node14</title>
<g id="a_edge20_Node000016_Node000014"><a xlink:title=" ">
<path fill="none" stroke="#63b8ff" d="M194.97,-50.23C176.63,-40.51 152.26,-27.6 136.36,-19.17"/>
<polygon fill="#63b8ff" stroke="#63b8ff" points="193.46,-53.39 203.93,-54.98 196.74,-47.21 193.46,-53.39"/>
</a>
</g>
</g>
</g>
</svg>
