<?xml version="1.0" encoding="UTF-8" standalone="no"?>
<!DOCTYPE svg PUBLIC "-//W3C//DTD SVG 1.1//EN"
 "http://www.w3.org/Graphics/SVG/1.1/DTD/svg11.dtd">
<!-- Generated by graphviz version 2.43.0 (0)
 -->
<!-- Title: soundcloud_export_selector.h Pages: 1 -->
<svg width="199pt" height="137pt"
 viewBox="0.00 0.00 198.50 137.00" xmlns="http://www.w3.org/2000/svg" xmlns:xlink="http://www.w3.org/1999/xlink">
<g id="graph0" class="graph" transform="scale(1 1) rotate(0) translate(4 133)">
<title>soundcloud_export_selector.h</title>
<!-- Node1 -->
<g id="Node000001" class="node">
<title>Node1</title>
<g id="a_Node000001"><a xlink:title=" ">
<polygon fill="#999999" stroke="#666666" points="161,-129 0,-129 0,-110 161,-110 161,-129"/>
<text text-anchor="middle" x="80.5" y="-117" font-family="Helvetica,sans-Serif" font-size="10.00">soundcloud_export_selector.h</text>
</a>
</g>
</g>
<!-- Node2 -->
<g id="Node000002" class="node">
<title>Node2</title>
<g id="a_Node000002"><a xlink:href="export__dialog_8h.html" target="_top" xlink:title=" ">
<polygon fill="white" stroke="#666666" points="126.5,-19 34.5,-19 34.5,0 126.5,0 126.5,-19"/>
<text text-anchor="middle" x="80.5" y="-7" font-family="Helvetica,sans-Serif" font-size="10.00">export_dialog.h</text>
</a>
</g>
</g>
<!-- Node1&#45;&gt;Node2 -->
<g id="edge1_Node000001_Node000002" class="edge">
<title>Node1&#45;&gt;Node2</title>
<g id="a_edge1_Node000001_Node000002"><a xlink:title=" ">
<path fill="none" stroke="#63b8ff" d="M67.29,-101.68C61.89,-93.75 56.26,-83.88 53.5,-74 47.82,-53.7 62.71,-31.3 72.57,-19.28"/>
<polygon fill="#63b8ff" stroke="#63b8ff" points="64.63,-103.96 73.35,-109.97 70.28,-99.83 64.63,-103.96"/>
</a>
</g>
</g>
<!-- Node3 -->
<g id="Node000003" class="node">
<title>Node3</title>
<g id="a_Node000003"><a xlink:href="export__file__notebook_8h.html" target="_top" xlink:title=" ">
<polygon fill="white" stroke="#666666" points="190.5,-74 62.5,-74 62.5,-55 190.5,-55 190.5,-74"/>
<text text-anchor="middle" x="126.5" y="-62" font-family="Helvetica,sans-Serif" font-size="10.00">export_file_notebook.h</text>
</a>
</g>
</g>
<!-- Node1&#45;&gt;Node3 -->
<g id="edge2_Node000001_Node000003" class="edge">
<title>Node1&#45;&gt;Node3</title>
<g id="a_edge2_Node000001_Node000003"><a xlink:title=" ">
<path fill="none" stroke="#63b8ff" d="M94.86,-101.96C102.87,-92.72 112.53,-81.6 119.05,-74.09"/>
<polygon fill="#63b8ff" stroke="#63b8ff" points="92.01,-99.9 88.1,-109.75 97.29,-104.49 92.01,-99.9"/>
</a>
</g>
</g>
<!-- Node3&#45;&gt;Node2 -->
<g id="edge3_Node000003_Node000002" class="edge">
<title>Node3&#45;&gt;Node2</title>
<g id="a_edge3_Node000003_Node000002"><a xlink:title=" ">
<path fill="none" stroke="#63b8ff" d="M112.14,-46.96C104.13,-37.72 94.47,-26.6 87.95,-19.09"/>
<polygon fill="#63b8ff" stroke="#63b8ff" points="109.71,-49.49 118.9,-54.75 114.99,-44.9 109.71,-49.49"/>
</a>
</g>
</g>
</g>
</svg>
