<?xml version="1.0" encoding="UTF-8" standalone="no"?>
<!DOCTYPE svg PUBLIC "-//W3C//DTD SVG 1.1//EN"
 "http://www.w3.org/Graphics/SVG/1.1/DTD/svg11.dtd">
<!-- Generated by graphviz version 2.43.0 (0)
 -->
<!-- Title: source_list_base.h Pages: 1 -->
<svg width="240pt" height="137pt"
 viewBox="0.00 0.00 239.50 137.00" xmlns="http://www.w3.org/2000/svg" xmlns:xlink="http://www.w3.org/1999/xlink">
<g id="graph0" class="graph" transform="scale(1 1) rotate(0) translate(4 133)">
<title>source_list_base.h</title>
<!-- Node1 -->
<g id="Node000001" class="node">
<title>Node1</title>
<g id="a_Node000001"><a xlink:title=" ">
<polygon fill="#999999" stroke="#666666" points="164,-129 57,-129 57,-110 164,-110 164,-129"/>
<text text-anchor="middle" x="110.5" y="-117" font-family="Helvetica,sans-Serif" font-size="10.00">source_list_base.h</text>
</a>
</g>
</g>
<!-- Node2 -->
<g id="Node000002" class="node">
<title>Node2</title>
<g id="a_Node000002"><a xlink:href="editor__sources_8h.html" target="_top" xlink:title=" ">
<polygon fill="white" stroke="#666666" points="97,-74 0,-74 0,-55 97,-55 97,-74"/>
<text text-anchor="middle" x="48.5" y="-62" font-family="Helvetica,sans-Serif" font-size="10.00">editor_sources.h</text>
</a>
</g>
</g>
<!-- Node1&#45;&gt;Node2 -->
<g id="edge1_Node000001_Node000002" class="edge">
<title>Node1&#45;&gt;Node2</title>
<g id="a_edge1_Node000001_Node000002"><a xlink:title=" ">
<path fill="none" stroke="#63b8ff" d="M92.75,-103.32C81.69,-93.87 67.87,-82.06 58.64,-74.17"/>
<polygon fill="#63b8ff" stroke="#63b8ff" points="90.66,-106.15 100.54,-109.98 95.21,-100.83 90.66,-106.15"/>
</a>
</g>
</g>
<!-- Node3 -->
<g id="Node000003" class="node">
<title>Node3</title>
<g id="a_Node000003"><a xlink:href="trigger__source__list_8h.html" target="_top" xlink:title=" ">
<polygon fill="white" stroke="#666666" points="231.5,-74 115.5,-74 115.5,-55 231.5,-55 231.5,-74"/>
<text text-anchor="middle" x="173.5" y="-62" font-family="Helvetica,sans-Serif" font-size="10.00">trigger_source_list.h</text>
</a>
</g>
</g>
<!-- Node1&#45;&gt;Node3 -->
<g id="edge2_Node000001_Node000003" class="edge">
<title>Node1&#45;&gt;Node3</title>
<g id="a_edge2_Node000001_Node000003"><a xlink:title=" ">
<path fill="none" stroke="#63b8ff" d="M128.54,-103.32C139.77,-93.87 153.82,-82.06 163.19,-74.17"/>
<polygon fill="#63b8ff" stroke="#63b8ff" points="126.02,-100.87 120.62,-109.98 130.53,-106.23 126.02,-100.87"/>
</a>
</g>
</g>
<!-- Node4 -->
<g id="Node000004" class="node">
<title>Node4</title>
<g id="a_Node000004"><a xlink:href="trigger__page_8h.html" target="_top" xlink:title=" ">
<polygon fill="white" stroke="#666666" points="217,-19 130,-19 130,0 217,0 217,-19"/>
<text text-anchor="middle" x="173.5" y="-7" font-family="Helvetica,sans-Serif" font-size="10.00">trigger_page.h</text>
</a>
</g>
</g>
<!-- Node3&#45;&gt;Node4 -->
<g id="edge3_Node000003_Node000004" class="edge">
<title>Node3&#45;&gt;Node4</title>
<g id="a_edge3_Node000003_Node000004"><a xlink:title=" ">
<path fill="none" stroke="#63b8ff" d="M173.5,-44.66C173.5,-35.93 173.5,-25.99 173.5,-19.09"/>
<polygon fill="#63b8ff" stroke="#63b8ff" points="170,-44.75 173.5,-54.75 177,-44.75 170,-44.75"/>
</a>
</g>
</g>
</g>
</svg>
