<?xml version="1.0" encoding="UTF-8" standalone="no"?>
<!DOCTYPE svg PUBLIC "-//W3C//DTD SVG 1.1//EN"
 "http://www.w3.org/Graphics/SVG/1.1/DTD/svg11.dtd">
<!-- Generated by graphviz version 2.43.0 (0)
 -->
<!-- Title: speaker.h Pages: 1 -->
<svg width="1188pt" height="214pt"
 viewBox="0.00 0.00 1187.50 214.00" xmlns="http://www.w3.org/2000/svg" xmlns:xlink="http://www.w3.org/1999/xlink">
<g id="graph0" class="graph" transform="scale(1 1) rotate(0) translate(4 210)">
<title>speaker.h</title>
<!-- Node1 -->
<g id="Node000001" class="node">
<title>Node1</title>
<g id="a_Node000001"><a xlink:title=" ">
<polygon fill="#999999" stroke="#666666" points="686,-206 623,-206 623,-187 686,-187 686,-206"/>
<text text-anchor="middle" x="654.5" y="-194" font-family="Helvetica,sans-Serif" font-size="10.00">speaker.h</text>
</a>
</g>
</g>
<!-- Node2 -->
<g id="Node000002" class="node">
<title>Node2</title>
<g id="a_Node000002"><a xlink:href="cartesian_8h.html" target="_top" xlink:title=" ">
<polygon fill="white" stroke="#666666" points="256.5,-151 164.5,-151 164.5,-132 256.5,-132 256.5,-151"/>
<text text-anchor="middle" x="210.5" y="-139" font-family="Helvetica,sans-Serif" font-size="10.00">pbd/cartesian.h</text>
</a>
</g>
</g>
<!-- Node1&#45;&gt;Node2 -->
<g id="edge1_Node000001_Node000002" class="edge">
<title>Node1&#45;&gt;Node2</title>
<g id="a_edge1_Node000001_Node000002"><a xlink:title=" ">
<path fill="none" stroke="#63b8ff" d="M622.92,-191.73C548.47,-182.84 361.12,-160.48 266.72,-149.21"/>
<polygon fill="#63b8ff" stroke="#63b8ff" points="267.12,-145.73 256.78,-148.02 266.29,-152.68 267.12,-145.73"/>
</a>
</g>
</g>
<!-- Node6 -->
<g id="Node000006" class="node">
<title>Node6</title>
<g id="a_Node000006"><a xlink:href="signals_8h.html" target="_top" xlink:title=" ">
<polygon fill="white" stroke="#666666" points="695,-151 614,-151 614,-132 695,-132 695,-151"/>
<text text-anchor="middle" x="654.5" y="-139" font-family="Helvetica,sans-Serif" font-size="10.00">pbd/signals.h</text>
</a>
</g>
</g>
<!-- Node1&#45;&gt;Node6 -->
<g id="edge5_Node000001_Node000006" class="edge">
<title>Node1&#45;&gt;Node6</title>
<g id="a_edge5_Node000001_Node000006"><a xlink:title=" ">
<path fill="none" stroke="#63b8ff" d="M654.5,-186.75C654.5,-179.8 654.5,-169.85 654.5,-161.13"/>
<polygon fill="#63b8ff" stroke="#63b8ff" points="658,-161.09 654.5,-151.09 651,-161.09 658,-161.09"/>
</a>
</g>
</g>
<!-- Node27 -->
<g id="Node000027" class="node">
<title>Node27</title>
<g id="a_Node000027"><a xlink:href="libardour__visibility_8h.html" target="_top" xlink:title=" ">
<polygon fill="white" stroke="#666666" points="862,-151 713,-151 713,-132 862,-132 862,-151"/>
<text text-anchor="middle" x="787.5" y="-139" font-family="Helvetica,sans-Serif" font-size="10.00">ardour/libardour_visibility.h</text>
</a>
</g>
</g>
<!-- Node1&#45;&gt;Node27 -->
<g id="edge36_Node000001_Node000027" class="edge">
<title>Node1&#45;&gt;Node27</title>
<g id="a_edge36_Node000001_Node000027"><a xlink:title=" ">
<path fill="none" stroke="#63b8ff" d="M675.87,-186.98C697.65,-178.3 731.66,-164.75 756.42,-154.88"/>
<polygon fill="#63b8ff" stroke="#63b8ff" points="757.75,-158.12 765.74,-151.17 755.16,-151.62 757.75,-158.12"/>
</a>
</g>
</g>
<!-- Node3 -->
<g id="Node000003" class="node">
<title>Node3</title>
<g id="a_Node000003"><a xlink:title=" ">
<polygon fill="#e0e0e0" stroke="#999999" points="109.5,-90.5 65.5,-90.5 65.5,-71.5 109.5,-71.5 109.5,-90.5"/>
<text text-anchor="middle" x="87.5" y="-78.5" font-family="Helvetica,sans-Serif" font-size="10.00">cfloat</text>
</a>
</g>
</g>
<!-- Node2&#45;&gt;Node3 -->
<g id="edge2_Node000002_Node000003" class="edge">
<title>Node2&#45;&gt;Node3</title>
<g id="a_edge2_Node000002_Node000003"><a xlink:title=" ">
<path fill="none" stroke="#63b8ff" d="M192.61,-131.99C172.12,-122.25 138.31,-106.16 114.58,-94.88"/>
<polygon fill="#63b8ff" stroke="#63b8ff" points="115.94,-91.65 105.41,-90.52 112.93,-97.97 115.94,-91.65"/>
</a>
</g>
</g>
<!-- Node4 -->
<g id="Node000004" class="node">
<title>Node4</title>
<g id="a_Node000004"><a xlink:title=" ">
<polygon fill="#e0e0e0" stroke="#999999" points="47,-90.5 0,-90.5 0,-71.5 47,-71.5 47,-90.5"/>
<text text-anchor="middle" x="23.5" y="-78.5" font-family="Helvetica,sans-Serif" font-size="10.00">cmath</text>
</a>
</g>
</g>
<!-- Node2&#45;&gt;Node4 -->
<g id="edge3_Node000002_Node000004" class="edge">
<title>Node2&#45;&gt;Node4</title>
<g id="a_edge3_Node000002_Node000004"><a xlink:title=" ">
<path fill="none" stroke="#63b8ff" d="M176.48,-131.93C145.03,-123.7 97.15,-110.44 56.5,-96 55.07,-95.49 53.61,-94.95 52.15,-94.4"/>
<polygon fill="#63b8ff" stroke="#63b8ff" points="53.13,-91.02 42.54,-90.54 50.52,-97.51 53.13,-91.02"/>
</a>
</g>
</g>
<!-- Node5 -->
<g id="Node000005" class="node">
<title>Node5</title>
<g id="a_Node000005"><a xlink:href="libpbd__visibility_8h.html" target="_top" xlink:title=" ">
<polygon fill="white" stroke="#666666" points="686.5,-24.5 564.5,-24.5 564.5,-5.5 686.5,-5.5 686.5,-24.5"/>
<text text-anchor="middle" x="625.5" y="-12.5" font-family="Helvetica,sans-Serif" font-size="10.00">pbd/libpbd_visibility.h</text>
</a>
</g>
</g>
<!-- Node2&#45;&gt;Node5 -->
<g id="edge4_Node000002_Node000005" class="edge">
<title>Node2&#45;&gt;Node5</title>
<g id="a_edge4_Node000002_Node000005"><a xlink:title=" ">
<path fill="none" stroke="#63b8ff" d="M230.01,-131.89C269.7,-114.47 358.77,-75.85 390.5,-66 407.78,-60.64 509.54,-39.58 573.36,-26.57"/>
<polygon fill="#63b8ff" stroke="#63b8ff" points="574.16,-29.98 583.26,-24.55 572.76,-23.12 574.16,-29.98"/>
</a>
</g>
</g>
<!-- Node6&#45;&gt;Node5 -->
<g id="edge14_Node000006_Node000005" class="edge">
<title>Node6&#45;&gt;Node5</title>
<g id="a_edge14_Node000006_Node000005"><a xlink:title=" ">
<path fill="none" stroke="#63b8ff" d="M692.51,-131.85C711.62,-125.37 733.1,-114.36 744.5,-96 751.53,-84.67 751.88,-77.11 744.5,-66 731.7,-46.74 709.88,-34.88 688.4,-27.59"/>
<polygon fill="#63b8ff" stroke="#63b8ff" points="689.17,-24.17 678.58,-24.55 687.1,-30.85 689.17,-24.17"/>
</a>
</g>
</g>
<!-- Node7 -->
<g id="Node000007" class="node">
<title>Node7</title>
<g id="a_Node000007"><a xlink:title=" ">
<polygon fill="#e0e0e0" stroke="#999999" points="1135,-90.5 1084,-90.5 1084,-71.5 1135,-71.5 1135,-90.5"/>
<text text-anchor="middle" x="1109.5" y="-78.5" font-family="Helvetica,sans-Serif" font-size="10.00">csignal</text>
</a>
</g>
</g>
<!-- Node6&#45;&gt;Node7 -->
<g id="edge6_Node000006_Node000007" class="edge">
<title>Node6&#45;&gt;Node7</title>
<g id="a_edge6_Node000006_Node000007"><a xlink:title=" ">
<path fill="none" stroke="#63b8ff" d="M695.12,-133.35C698.29,-132.87 701.45,-132.41 704.5,-132 866.06,-110.33 910.33,-131.17 1069.5,-96 1072.49,-95.34 1075.57,-94.52 1078.63,-93.62"/>
<polygon fill="#63b8ff" stroke="#63b8ff" points="1079.75,-96.93 1088.18,-90.52 1077.59,-90.27 1079.75,-96.93"/>
</a>
</g>
</g>
<!-- Node8 -->
<g id="Node000008" class="node">
<title>Node8</title>
<g id="a_Node000008"><a xlink:title=" ">
<polygon fill="#e0e0e0" stroke="#999999" points="1179.5,-24.5 1147.5,-24.5 1147.5,-5.5 1179.5,-5.5 1179.5,-24.5"/>
<text text-anchor="middle" x="1163.5" y="-12.5" font-family="Helvetica,sans-Serif" font-size="10.00">list</text>
</a>
</g>
</g>
<!-- Node6&#45;&gt;Node8 -->
<g id="edge7_Node000006_Node000008" class="edge">
<title>Node6&#45;&gt;Node8</title>
<g id="a_edge7_Node000006_Node000008"><a xlink:title=" ">
<path fill="none" stroke="#63b8ff" d="M695.12,-133.29C698.29,-132.82 701.44,-132.38 704.5,-132 753.17,-125.88 1107.29,-127.96 1144.5,-96 1161.9,-81.06 1164.94,-53.36 1164.8,-34.81"/>
<polygon fill="#63b8ff" stroke="#63b8ff" points="1168.29,-34.48 1164.39,-24.63 1161.29,-34.76 1168.29,-34.48"/>
</a>
</g>
</g>
<!-- Node9 -->
<g id="Node000009" class="node">
<title>Node9</title>
<g id="a_Node000009"><a xlink:title=" ">
<polygon fill="#e0e0e0" stroke="#999999" points="76.5,-24.5 38.5,-24.5 38.5,-5.5 76.5,-5.5 76.5,-24.5"/>
<text text-anchor="middle" x="57.5" y="-12.5" font-family="Helvetica,sans-Serif" font-size="10.00">map</text>
</a>
</g>
</g>
<!-- Node6&#45;&gt;Node9 -->
<g id="edge8_Node000006_Node000009" class="edge">
<title>Node6&#45;&gt;Node9</title>
<g id="a_edge8_Node000006_Node000009"><a xlink:title=" ">
<path fill="none" stroke="#63b8ff" d="M613.74,-140.06C509.62,-138.43 236.29,-130.87 153.5,-96 134.62,-88.05 134.2,-79.16 118.5,-66 104.48,-54.25 88.48,-41.15 76.39,-31.31"/>
<polygon fill="#63b8ff" stroke="#63b8ff" points="78.33,-28.37 68.36,-24.78 73.91,-33.8 78.33,-28.37"/>
</a>
</g>
</g>
<!-- Node10 -->
<g id="Node000010" class="node">
<title>Node10</title>
<g id="a_Node000010"><a xlink:title=" ">
<polygon fill="#e0e0e0" stroke="#999999" points="144.5,-24.5 94.5,-24.5 94.5,-5.5 144.5,-5.5 144.5,-24.5"/>
<text text-anchor="middle" x="119.5" y="-12.5" font-family="Helvetica,sans-Serif" font-size="10.00">atomic</text>
</a>
</g>
</g>
<!-- Node6&#45;&gt;Node10 -->
<g id="edge9_Node000006_Node000010" class="edge">
<title>Node6&#45;&gt;Node10</title>
<g id="a_edge9_Node000006_Node000010"><a xlink:title=" ">
<path fill="none" stroke="#63b8ff" d="M613.64,-140.2C515.22,-138.9 267.76,-132.03 194.5,-96 166,-81.99 142.8,-52.27 130.09,-33.26"/>
<polygon fill="#63b8ff" stroke="#63b8ff" points="132.92,-31.19 124.57,-24.67 127.03,-34.98 132.92,-31.19"/>
</a>
</g>
</g>
<!-- Node11 -->
<g id="Node000011" class="node">
<title>Node11</title>
<g id="a_Node000011"><a xlink:title=" ">
<polygon fill="#e0e0e0" stroke="#999999" points="546,-24.5 443,-24.5 443,-5.5 546,-5.5 546,-24.5"/>
<text text-anchor="middle" x="494.5" y="-12.5" font-family="Helvetica,sans-Serif" font-size="10.00">glibmm/threads.h</text>
</a>
</g>
</g>
<!-- Node6&#45;&gt;Node11 -->
<g id="edge10_Node000006_Node000011" class="edge">
<title>Node6&#45;&gt;Node11</title>
<g id="a_edge10_Node000006_Node000011"><a xlink:title=" ">
<path fill="none" stroke="#63b8ff" d="M613.95,-139.79C547.18,-137.68 418.64,-129.27 390.5,-96 366.03,-67.06 417.31,-41.94 456.2,-27.9"/>
<polygon fill="#63b8ff" stroke="#63b8ff" points="457.47,-31.17 465.77,-24.58 455.18,-24.55 457.47,-31.17"/>
</a>
</g>
</g>
<!-- Node12 -->
<g id="Node000012" class="node">
<title>Node12</title>
<g id="a_Node000012"><a xlink:title=" ">
<polygon fill="#e0e0e0" stroke="#999999" points="525.5,-90.5 399.5,-90.5 399.5,-71.5 525.5,-71.5 525.5,-90.5"/>
<text text-anchor="middle" x="462.5" y="-78.5" font-family="Helvetica,sans-Serif" font-size="10.00">boost/bind/protect.hpp</text>
</a>
</g>
</g>
<!-- Node6&#45;&gt;Node12 -->
<g id="edge11_Node000006_Node000012" class="edge">
<title>Node6&#45;&gt;Node12</title>
<g id="a_edge11_Node000006_Node000012"><a xlink:title=" ">
<path fill="none" stroke="#63b8ff" d="M626.58,-131.99C593.31,-121.86 537.55,-104.87 500.4,-93.55"/>
<polygon fill="#63b8ff" stroke="#63b8ff" points="501.04,-90.08 490.45,-90.52 499,-96.78 501.04,-90.08"/>
</a>
</g>
</g>
<!-- Node13 -->
<g id="Node000013" class="node">
<title>Node13</title>
<g id="a_Node000013"><a xlink:title=" ">
<polygon fill="#e0e0e0" stroke="#999999" points="661.5,-96 543.5,-96 543.5,-66 661.5,-66 661.5,-96"/>
<text text-anchor="start" x="551.5" y="-84" font-family="Helvetica,sans-Serif" font-size="10.00">boost/enable_shared</text>
<text text-anchor="middle" x="602.5" y="-73" font-family="Helvetica,sans-Serif" font-size="10.00">_from_this.hpp</text>
</a>
</g>
</g>
<!-- Node6&#45;&gt;Node13 -->
<g id="edge12_Node000006_Node000013" class="edge">
<title>Node6&#45;&gt;Node13</title>
<g id="a_edge12_Node000006_Node000013"><a xlink:title=" ">
<path fill="none" stroke="#63b8ff" d="M646.83,-131.87C640.23,-124.44 630.43,-113.42 621.72,-103.62"/>
<polygon fill="#63b8ff" stroke="#63b8ff" points="624.31,-101.26 615.05,-96.11 619.07,-105.91 624.31,-101.26"/>
</a>
</g>
</g>
<!-- Node14 -->
<g id="Node000014" class="node">
<title>Node14</title>
<g id="a_Node000014"><a xlink:title=" ">
<polygon fill="#e0e0e0" stroke="#999999" points="735.5,-90.5 679.5,-90.5 679.5,-71.5 735.5,-71.5 735.5,-90.5"/>
<text text-anchor="middle" x="707.5" y="-78.5" font-family="Helvetica,sans-Serif" font-size="10.00">optional</text>
</a>
</g>
</g>
<!-- Node6&#45;&gt;Node14 -->
<g id="edge13_Node000006_Node000014" class="edge">
<title>Node6&#45;&gt;Node14</title>
<g id="a_edge13_Node000006_Node000014"><a xlink:title=" ">
<path fill="none" stroke="#63b8ff" d="M662.32,-131.87C670.31,-123.05 682.89,-109.16 692.76,-98.27"/>
<polygon fill="#63b8ff" stroke="#63b8ff" points="695.53,-100.43 699.65,-90.67 690.34,-95.73 695.53,-100.43"/>
</a>
</g>
</g>
<!-- Node15 -->
<g id="Node000015" class="node">
<title>Node15</title>
<g id="a_Node000015"><a xlink:href="event__loop_8h.html" target="_top" xlink:title=" ">
<polygon fill="white" stroke="#666666" points="305,-90.5 204,-90.5 204,-71.5 305,-71.5 305,-90.5"/>
<text text-anchor="middle" x="254.5" y="-78.5" font-family="Helvetica,sans-Serif" font-size="10.00">pbd/event_loop.h</text>
</a>
</g>
</g>
<!-- Node6&#45;&gt;Node15 -->
<g id="edge15_Node000006_Node000015" class="edge">
<title>Node6&#45;&gt;Node15</title>
<g id="a_edge15_Node000006_Node000015"><a xlink:title=" ">
<path fill="none" stroke="#63b8ff" d="M613.94,-134.57C543.4,-124.25 397.75,-102.95 315.15,-90.87"/>
<polygon fill="#63b8ff" stroke="#63b8ff" points="315.55,-87.39 305.15,-89.41 314.54,-94.32 315.55,-87.39"/>
</a>
</g>
</g>
<!-- Node20 -->
<g id="Node000020" class="node">
<title>Node20</title>
<g id="a_Node000020"><a xlink:href="stack__allocator_8h.html" target="_top" xlink:title=" ">
<polygon fill="white" stroke="#666666" points="911.5,-90.5 791.5,-90.5 791.5,-71.5 911.5,-71.5 911.5,-90.5"/>
<text text-anchor="middle" x="851.5" y="-78.5" font-family="Helvetica,sans-Serif" font-size="10.00">pbd/stack_allocator.h</text>
</a>
</g>
</g>
<!-- Node6&#45;&gt;Node20 -->
<g id="edge24_Node000006_Node000020" class="edge">
<title>Node6&#45;&gt;Node20</title>
<g id="a_edge24_Node000006_Node000020"><a xlink:title=" ">
<path fill="none" stroke="#63b8ff" d="M683.15,-131.99C717.43,-121.81 774.98,-104.72 813.1,-93.4"/>
<polygon fill="#63b8ff" stroke="#63b8ff" points="814.23,-96.72 822.82,-90.52 812.24,-90.01 814.23,-96.72"/>
</a>
</g>
</g>
<!-- Node23 -->
<g id="Node000023" class="node">
<title>Node23</title>
<g id="a_Node000023"><a xlink:href="stacktrace_8h.html" target="_top" xlink:title=" ">
<polygon fill="white" stroke="#666666" points="1027.5,-90.5 929.5,-90.5 929.5,-71.5 1027.5,-71.5 1027.5,-90.5"/>
<text text-anchor="middle" x="978.5" y="-78.5" font-family="Helvetica,sans-Serif" font-size="10.00">pbd/stacktrace.h</text>
</a>
</g>
</g>
<!-- Node6&#45;&gt;Node23 -->
<g id="edge28_Node000006_Node000023" class="edge">
<title>Node6&#45;&gt;Node23</title>
<g id="a_edge28_Node000006_Node000023"><a xlink:title=" ">
<path fill="none" stroke="#63b8ff" d="M695.16,-133.58C698.32,-133.04 701.46,-132.51 704.5,-132 800.47,-115.84 825.14,-115.43 920.5,-96 925.2,-95.04 930.1,-93.97 934.97,-92.86"/>
<polygon fill="#63b8ff" stroke="#63b8ff" points="935.91,-96.24 944.85,-90.55 934.32,-89.42 935.91,-96.24"/>
</a>
</g>
</g>
<!-- Node25 -->
<g id="Node000025" class="node">
<title>Node25</title>
<g id="a_Node000025"><a xlink:title=" ">
<polygon fill="#e0e0e0" stroke="#999999" points="1129.5,-24.5 1069.5,-24.5 1069.5,-5.5 1129.5,-5.5 1129.5,-24.5"/>
<text text-anchor="middle" x="1099.5" y="-12.5" font-family="Helvetica,sans-Serif" font-size="10.00">iostream</text>
</a>
</g>
</g>
<!-- Node6&#45;&gt;Node25 -->
<g id="edge35_Node000006_Node000025" class="edge">
<title>Node6&#45;&gt;Node25</title>
<g id="a_edge35_Node000006_Node000025"><a xlink:title=" ">
<path fill="none" stroke="#63b8ff" d="M695.13,-133.38C698.3,-132.89 701.45,-132.42 704.5,-132 778,-121.78 971.58,-131.96 1036.5,-96 1062.06,-81.84 1080.88,-52.61 1091,-33.68"/>
<polygon fill="#63b8ff" stroke="#63b8ff" points="1094.2,-35.12 1095.61,-24.62 1087.96,-31.95 1094.2,-35.12"/>
</a>
</g>
</g>
<!-- Node15&#45;&gt;Node5 -->
<g id="edge23_Node000015_Node000005" class="edge">
<title>Node15&#45;&gt;Node5</title>
<g id="a_edge23_Node000015_Node000005"><a xlink:title=" ">
<path fill="none" stroke="#63b8ff" d="M292.23,-71.47C301.15,-69.57 310.64,-67.63 319.5,-66 423.42,-46.87 450.42,-48.22 554.5,-30 560.75,-28.9 567.3,-27.7 573.79,-26.46"/>
<polygon fill="#63b8ff" stroke="#63b8ff" points="574.73,-29.85 583.88,-24.51 573.4,-22.97 574.73,-29.85"/>
</a>
</g>
</g>
<!-- Node15&#45;&gt;Node9 -->
<g id="edge19_Node000015_Node000009" class="edge">
<title>Node15&#45;&gt;Node9</title>
<g id="a_edge19_Node000015_Node000009"><a xlink:title=" ">
<path fill="none" stroke="#63b8ff" d="M218.93,-71.43C184.31,-62.63 130.47,-47.74 85.5,-30 84.64,-29.66 83.77,-29.3 82.89,-28.93"/>
<polygon fill="#63b8ff" stroke="#63b8ff" points="84.11,-25.64 73.57,-24.64 81.18,-32 84.11,-25.64"/>
</a>
</g>
</g>
<!-- Node15&#45;&gt;Node10 -->
<g id="edge16_Node000015_Node000010" class="edge">
<title>Node15&#45;&gt;Node10</title>
<g id="a_edge16_Node000015_Node000010"><a xlink:title=" ">
<path fill="none" stroke="#63b8ff" d="M236.29,-71.37C213.35,-60.49 173.69,-41.69 147.03,-29.05"/>
<polygon fill="#63b8ff" stroke="#63b8ff" points="148.38,-25.82 137.85,-24.7 145.39,-32.15 148.38,-25.82"/>
</a>
</g>
</g>
<!-- Node15&#45;&gt;Node11 -->
<g id="edge22_Node000015_Node000011" class="edge">
<title>Node15&#45;&gt;Node11</title>
<g id="a_edge22_Node000015_Node000011"><a xlink:title=" ">
<path fill="none" stroke="#63b8ff" d="M286.87,-71.37C329.66,-59.96 405.15,-39.83 452.35,-27.24"/>
<polygon fill="#63b8ff" stroke="#63b8ff" points="453.5,-30.56 462.26,-24.6 451.7,-23.79 453.5,-30.56"/>
</a>
</g>
</g>
<!-- Node16 -->
<g id="Node000016" class="node">
<title>Node16</title>
<g id="a_Node000016"><a xlink:title=" ">
<polygon fill="#e0e0e0" stroke="#999999" points="424.5,-24.5 380.5,-24.5 380.5,-5.5 424.5,-5.5 424.5,-24.5"/>
<text text-anchor="middle" x="402.5" y="-12.5" font-family="Helvetica,sans-Serif" font-size="10.00">string</text>
</a>
</g>
</g>
<!-- Node15&#45;&gt;Node16 -->
<g id="edge17_Node000015_Node000016" class="edge">
<title>Node15&#45;&gt;Node16</title>
<g id="a_edge17_Node000015_Node000016"><a xlink:title=" ">
<path fill="none" stroke="#63b8ff" d="M274.63,-71.36C297.78,-61.42 336.91,-44.59 370.5,-30 371.5,-29.57 372.52,-29.12 373.55,-28.67"/>
<polygon fill="#63b8ff" stroke="#63b8ff" points="375.11,-31.81 382.88,-24.61 372.31,-25.4 375.11,-31.81"/>
</a>
</g>
</g>
<!-- Node17 -->
<g id="Node000017" class="node">
<title>Node17</title>
<g id="a_Node000017"><a xlink:title=" ">
<polygon fill="#e0e0e0" stroke="#999999" points="210,-24.5 163,-24.5 163,-5.5 210,-5.5 210,-24.5"/>
<text text-anchor="middle" x="186.5" y="-12.5" font-family="Helvetica,sans-Serif" font-size="10.00">vector</text>
</a>
</g>
</g>
<!-- Node15&#45;&gt;Node17 -->
<g id="edge18_Node000015_Node000017" class="edge">
<title>Node15&#45;&gt;Node17</title>
<g id="a_edge18_Node000015_Node000017"><a xlink:title=" ">
<path fill="none" stroke="#63b8ff" d="M245.33,-71.37C234.64,-61.31 216.76,-44.48 203.51,-32.01"/>
<polygon fill="#63b8ff" stroke="#63b8ff" points="205.64,-29.21 195.96,-24.91 200.85,-34.31 205.64,-29.21"/>
</a>
</g>
</g>
<!-- Node18 -->
<g id="Node000018" class="node">
<title>Node18</title>
<g id="a_Node000018"><a xlink:title=" ">
<polygon fill="#e0e0e0" stroke="#999999" points="281,-24.5 228,-24.5 228,-5.5 281,-5.5 281,-24.5"/>
<text text-anchor="middle" x="254.5" y="-12.5" font-family="Helvetica,sans-Serif" font-size="10.00">stdint.h</text>
</a>
</g>
</g>
<!-- Node15&#45;&gt;Node18 -->
<g id="edge20_Node000015_Node000018" class="edge">
<title>Node15&#45;&gt;Node18</title>
<g id="a_edge20_Node000015_Node000018"><a xlink:title=" ">
<path fill="none" stroke="#63b8ff" d="M254.5,-71.37C254.5,-62.16 254.5,-47.29 254.5,-35.27"/>
<polygon fill="#63b8ff" stroke="#63b8ff" points="258,-34.91 254.5,-24.91 251,-34.91 258,-34.91"/>
</a>
</g>
</g>
<!-- Node19 -->
<g id="Node000019" class="node">
<title>Node19</title>
<g id="a_Node000019"><a xlink:title=" ">
<polygon fill="#e0e0e0" stroke="#999999" points="362,-24.5 299,-24.5 299,-5.5 362,-5.5 362,-24.5"/>
<text text-anchor="middle" x="330.5" y="-12.5" font-family="Helvetica,sans-Serif" font-size="10.00">pthread.h</text>
</a>
</g>
</g>
<!-- Node15&#45;&gt;Node19 -->
<g id="edge21_Node000015_Node000019" class="edge">
<title>Node15&#45;&gt;Node19</title>
<g id="a_edge21_Node000015_Node000019"><a xlink:title=" ">
<path fill="none" stroke="#63b8ff" d="M264.75,-71.37C276.81,-61.21 297.06,-44.16 311.91,-31.65"/>
<polygon fill="#63b8ff" stroke="#63b8ff" points="314.53,-34.02 319.93,-24.91 310.02,-28.67 314.53,-34.02"/>
</a>
</g>
</g>
<!-- Node20&#45;&gt;Node5 -->
<g id="edge27_Node000020_Node000005" class="edge">
<title>Node20&#45;&gt;Node5</title>
<g id="a_edge27_Node000020_Node000005"><a xlink:title=" ">
<path fill="none" stroke="#63b8ff" d="M821.02,-71.37C780.89,-60 710.24,-40 665.75,-27.4"/>
<polygon fill="#63b8ff" stroke="#63b8ff" points="666.43,-23.95 655.86,-24.6 664.52,-30.69 666.43,-23.95"/>
</a>
</g>
</g>
<!-- Node21 -->
<g id="Node000021" class="node">
<title>Node21</title>
<g id="a_Node000021"><a xlink:title=" ">
<polygon fill="#e0e0e0" stroke="#999999" points="842.5,-30 704.5,-30 704.5,0 842.5,0 842.5,-30"/>
<text text-anchor="start" x="712.5" y="-18" font-family="Helvetica,sans-Serif" font-size="10.00">boost/type_traits/aligned</text>
<text text-anchor="middle" x="773.5" y="-7" font-family="Helvetica,sans-Serif" font-size="10.00">_storage.hpp</text>
</a>
</g>
</g>
<!-- Node20&#45;&gt;Node21 -->
<g id="edge25_Node000020_Node000021" class="edge">
<title>Node20&#45;&gt;Node21</title>
<g id="a_edge25_Node000020_Node000021"><a xlink:title=" ">
<path fill="none" stroke="#63b8ff" d="M840.98,-71.37C830.2,-62.53 813.05,-48.45 798.73,-36.71"/>
<polygon fill="#63b8ff" stroke="#63b8ff" points="800.65,-33.75 790.7,-30.12 796.21,-39.16 800.65,-33.75"/>
</a>
</g>
</g>
<!-- Node22 -->
<g id="Node000022" class="node">
<title>Node22</title>
<g id="a_Node000022"><a xlink:title=" ">
<polygon fill="#e0e0e0" stroke="#999999" points="904.5,-24.5 860.5,-24.5 860.5,-5.5 904.5,-5.5 904.5,-24.5"/>
<text text-anchor="middle" x="882.5" y="-12.5" font-family="Helvetica,sans-Serif" font-size="10.00">limits</text>
</a>
</g>
</g>
<!-- Node20&#45;&gt;Node22 -->
<g id="edge26_Node000020_Node000022" class="edge">
<title>Node20&#45;&gt;Node22</title>
<g id="a_edge26_Node000020_Node000022"><a xlink:title=" ">
<path fill="none" stroke="#63b8ff" d="M855.68,-71.37C860.28,-61.88 867.79,-46.36 873.7,-34.16"/>
<polygon fill="#63b8ff" stroke="#63b8ff" points="876.98,-35.43 878.19,-24.91 870.68,-32.38 876.98,-35.43"/>
</a>
</g>
</g>
<!-- Node23&#45;&gt;Node5 -->
<g id="edge34_Node000023_Node000005" class="edge">
<title>Node23&#45;&gt;Node5</title>
<g id="a_edge34_Node000023_Node000005"><a xlink:title=" ">
<path fill="none" stroke="#63b8ff" d="M945.17,-71.48C937.12,-69.56 928.52,-67.61 920.5,-66 821.2,-46.1 795.17,-47.93 695.5,-30 689.42,-28.91 683.05,-27.71 676.73,-26.48"/>
<polygon fill="#63b8ff" stroke="#63b8ff" points="677.39,-23.05 666.91,-24.56 676.05,-29.92 677.39,-23.05"/>
</a>
</g>
</g>
<!-- Node23&#45;&gt;Node8 -->
<g id="edge33_Node000023_Node000008" class="edge">
<title>Node23&#45;&gt;Node8</title>
<g id="a_edge33_Node000023_Node000008"><a xlink:title=" ">
<path fill="none" stroke="#63b8ff" d="M1012.95,-71.46C1045.87,-62.78 1096.54,-48.07 1138.5,-30 1139.19,-29.7 1139.88,-29.4 1140.57,-29.08"/>
<polygon fill="#63b8ff" stroke="#63b8ff" points="1142.17,-32.19 1149.48,-24.52 1138.98,-25.96 1142.17,-32.19"/>
</a>
</g>
</g>
<!-- Node23&#45;&gt;Node11 -->
<g id="edge32_Node000023_Node000011" class="edge">
<title>Node23&#45;&gt;Node11</title>
<g id="a_edge32_Node000023_Node000011"><a xlink:title=" ">
<path fill="none" stroke="#63b8ff" d="M946.75,-71.5C938.27,-69.46 929.08,-67.45 920.5,-66 759.77,-38.81 716.38,-56.29 555.5,-30 549.94,-29.09 544.12,-27.98 538.39,-26.77"/>
<polygon fill="#63b8ff" stroke="#63b8ff" points="538.74,-23.27 528.23,-24.55 537.25,-30.11 538.74,-23.27"/>
</a>
</g>
</g>
<!-- Node24 -->
<g id="Node000024" class="node">
<title>Node24</title>
<g id="a_Node000024"><a xlink:title=" ">
<polygon fill="#e0e0e0" stroke="#999999" points="1051,-24.5 998,-24.5 998,-5.5 1051,-5.5 1051,-24.5"/>
<text text-anchor="middle" x="1024.5" y="-12.5" font-family="Helvetica,sans-Serif" font-size="10.00">cstddef</text>
</a>
</g>
</g>
<!-- Node23&#45;&gt;Node24 -->
<g id="edge29_Node000023_Node000024" class="edge">
<title>Node23&#45;&gt;Node24</title>
<g id="a_edge29_Node000023_Node000024"><a xlink:title=" ">
<path fill="none" stroke="#63b8ff" d="M984.7,-71.37C991.73,-61.59 1003.35,-45.42 1012.23,-33.08"/>
<polygon fill="#63b8ff" stroke="#63b8ff" points="1015.11,-35.07 1018.1,-24.91 1009.42,-30.98 1015.11,-35.07"/>
</a>
</g>
</g>
<!-- Node23&#45;&gt;Node25 -->
<g id="edge30_Node000023_Node000025" class="edge">
<title>Node23&#45;&gt;Node25</title>
<g id="a_edge30_Node000023_Node000025"><a xlink:title=" ">
<path fill="none" stroke="#63b8ff" d="M994.82,-71.37C1015.21,-60.59 1050.31,-42.02 1074.2,-29.38"/>
<polygon fill="#63b8ff" stroke="#63b8ff" points="1075.85,-32.47 1083.05,-24.7 1072.58,-26.28 1075.85,-32.47"/>
</a>
</g>
</g>
<!-- Node26 -->
<g id="Node000026" class="node">
<title>Node26</title>
<g id="a_Node000026"><a xlink:title=" ">
<polygon fill="#e0e0e0" stroke="#999999" points="980,-24.5 923,-24.5 923,-5.5 980,-5.5 980,-24.5"/>
<text text-anchor="middle" x="951.5" y="-12.5" font-family="Helvetica,sans-Serif" font-size="10.00">ostream</text>
</a>
</g>
</g>
<!-- Node23&#45;&gt;Node26 -->
<g id="edge31_Node000023_Node000026" class="edge">
<title>Node23&#45;&gt;Node26</title>
<g id="a_edge31_Node000023_Node000026"><a xlink:title=" ">
<path fill="none" stroke="#63b8ff" d="M974.86,-71.37C970.86,-61.88 964.31,-46.36 959.16,-34.16"/>
<polygon fill="#63b8ff" stroke="#63b8ff" points="962.37,-32.76 955.26,-24.91 955.92,-35.48 962.37,-32.76"/>
</a>
</g>
</g>
</g>
</svg>
