<?xml version="1.0" encoding="UTF-8" standalone="no"?>
<!DOCTYPE svg PUBLIC "-//W3C//DTD SVG 1.1//EN"
 "http://www.w3.org/Graphics/SVG/1.1/DTD/svg11.dtd">
<!-- Generated by graphviz version 2.43.0 (0)
 -->
<!-- Title: stateful_diff_command.h Pages: 1 -->
<svg width="2307pt" height="434pt"
 viewBox="0.00 0.00 2307.21 434.00" xmlns="http://www.w3.org/2000/svg" xmlns:xlink="http://www.w3.org/1999/xlink">
<g id="graph0" class="graph" transform="scale(1 1) rotate(0) translate(4 430)">
<title>stateful_diff_command.h</title>
<!-- Node1 -->
<g id="Node000001" class="node">
<title>Node1</title>
<g id="a_Node000001"><a xlink:title=" ">
<polygon fill="#999999" stroke="#666666" points="1207.21,-426 1069.21,-426 1069.21,-407 1207.21,-407 1207.21,-426"/>
<text text-anchor="middle" x="1138.21" y="-414" font-family="Helvetica,sans-Serif" font-size="10.00">stateful_diff_command.h</text>
</a>
</g>
</g>
<!-- Node2 -->
<g id="Node000002" class="node">
<title>Node2</title>
<g id="a_Node000002"><a xlink:title=" ">
<polygon fill="#e0e0e0" stroke="#999999" points="87.21,-90.5 29.21,-90.5 29.21,-71.5 87.21,-71.5 87.21,-90.5"/>
<text text-anchor="middle" x="58.21" y="-78.5" font-family="Helvetica,sans-Serif" font-size="10.00">memory</text>
</a>
</g>
</g>
<!-- Node1&#45;&gt;Node2 -->
<g id="edge1_Node000001_Node000002" class="edge">
<title>Node1&#45;&gt;Node2</title>
<g id="a_edge1_Node000001_Node000002"><a xlink:title=" ">
<path fill="none" stroke="#63b8ff" d="M1069.04,-415.99C827.95,-416.78 39.21,-411.45 39.21,-307.5 39.21,-307.5 39.21,-307.5 39.21,-195.5 39.21,-161.66 47.53,-122.91 53.15,-100.57"/>
<polygon fill="#63b8ff" stroke="#63b8ff" points="56.58,-101.31 55.72,-90.75 49.81,-99.53 56.58,-101.31"/>
</a>
</g>
</g>
<!-- Node3 -->
<g id="Node000003" class="node">
<title>Node3</title>
<g id="a_Node000003"><a xlink:href="command_8h.html" target="_top" xlink:title=" ">
<polygon fill="white" stroke="#666666" points="1185.71,-371 1090.71,-371 1090.71,-352 1185.71,-352 1185.71,-371"/>
<text text-anchor="middle" x="1138.21" y="-359" font-family="Helvetica,sans-Serif" font-size="10.00">pbd/command.h</text>
</a>
</g>
</g>
<!-- Node1&#45;&gt;Node3 -->
<g id="edge2_Node000001_Node000003" class="edge">
<title>Node1&#45;&gt;Node3</title>
<g id="a_edge2_Node000001_Node000003"><a xlink:title=" ">
<path fill="none" stroke="#63b8ff" d="M1138.21,-406.75C1138.21,-399.8 1138.21,-389.85 1138.21,-381.13"/>
<polygon fill="#63b8ff" stroke="#63b8ff" points="1141.71,-381.09 1138.21,-371.09 1134.71,-381.09 1141.71,-381.09"/>
</a>
</g>
</g>
<!-- Node5 -->
<g id="Node000005" class="node">
<title>Node5</title>
<g id="a_Node000005"><a xlink:href="libpbd__visibility_8h.html" target="_top" xlink:title=" ">
<polygon fill="white" stroke="#666666" points="1147.21,-24.5 1025.21,-24.5 1025.21,-5.5 1147.21,-5.5 1147.21,-24.5"/>
<text text-anchor="middle" x="1086.21" y="-12.5" font-family="Helvetica,sans-Serif" font-size="10.00">pbd/libpbd_visibility.h</text>
</a>
</g>
</g>
<!-- Node1&#45;&gt;Node5 -->
<g id="edge74_Node000001_Node000005" class="edge">
<title>Node1&#45;&gt;Node5</title>
<g id="a_edge74_Node000001_Node000005"><a xlink:title=" ">
<path fill="none" stroke="#63b8ff" d="M1157.52,-407C1188.58,-391.86 1246.21,-357.09 1246.21,-307.5 1246.21,-307.5 1246.21,-307.5 1246.21,-250.5 1246.21,-157.65 1208.13,-136.92 1148.21,-66 1136.61,-52.27 1120.8,-39.59 1108.05,-30.43"/>
<polygon fill="#63b8ff" stroke="#63b8ff" points="1110.01,-27.53 1099.8,-24.69 1106.01,-33.28 1110.01,-27.53"/>
</a>
</g>
</g>
<!-- Node4 -->
<g id="Node000004" class="node">
<title>Node4</title>
<g id="a_Node000004"><a xlink:title=" ">
<polygon fill="#e0e0e0" stroke="#999999" points="218.21,-24.5 174.21,-24.5 174.21,-5.5 218.21,-5.5 218.21,-24.5"/>
<text text-anchor="middle" x="196.21" y="-12.5" font-family="Helvetica,sans-Serif" font-size="10.00">string</text>
</a>
</g>
</g>
<!-- Node3&#45;&gt;Node4 -->
<g id="edge3_Node000003_Node000004" class="edge">
<title>Node3&#45;&gt;Node4</title>
<g id="a_edge3_Node000003_Node000004"><a xlink:title=" ">
<path fill="none" stroke="#63b8ff" d="M1090.44,-358.77C874.64,-350.35 1.21,-309.36 1.21,-197.5 1.21,-197.5 1.21,-197.5 1.21,-140.5 1.21,-106.33 -3.62,-90.49 20.21,-66 58.26,-26.9 124.47,-17.76 163.93,-15.98"/>
<polygon fill="#63b8ff" stroke="#63b8ff" points="164.19,-19.47 174.07,-15.66 163.96,-12.48 164.19,-19.47"/>
</a>
</g>
</g>
<!-- Node3&#45;&gt;Node5 -->
<g id="edge4_Node000003_Node000005" class="edge">
<title>Node3&#45;&gt;Node5</title>
<g id="a_edge4_Node000003_Node000005"><a xlink:title=" ">
<path fill="none" stroke="#63b8ff" d="M1144.27,-351.86C1161.23,-326.58 1206.86,-250.52 1189.21,-187 1171.8,-124.36 1124.6,-61.7 1100.61,-32.69"/>
<polygon fill="#63b8ff" stroke="#63b8ff" points="1103.09,-30.2 1093.97,-24.8 1097.74,-34.7 1103.09,-30.2"/>
</a>
</g>
</g>
<!-- Node6 -->
<g id="Node000006" class="node">
<title>Node6</title>
<g id="a_Node000006"><a xlink:href="signals_8h.html" target="_top" xlink:title=" ">
<polygon fill="white" stroke="#666666" points="1617.71,-151 1536.71,-151 1536.71,-132 1617.71,-132 1617.71,-151"/>
<text text-anchor="middle" x="1577.21" y="-139" font-family="Helvetica,sans-Serif" font-size="10.00">pbd/signals.h</text>
</a>
</g>
</g>
<!-- Node3&#45;&gt;Node6 -->
<g id="edge5_Node000003_Node000006" class="edge">
<title>Node3&#45;&gt;Node6</title>
<g id="a_edge5_Node000003_Node000006"><a xlink:title=" ">
<path fill="none" stroke="#63b8ff" d="M1155.42,-351.95C1222.75,-318.52 1468.63,-196.42 1550.49,-155.77"/>
<polygon fill="#63b8ff" stroke="#63b8ff" points="1552.24,-158.81 1559.64,-151.22 1549.13,-152.54 1552.24,-158.81"/>
</a>
</g>
</g>
<!-- Node26 -->
<g id="Node000026" class="node">
<title>Node26</title>
<g id="a_Node000026"><a xlink:href="statefuldestructible_8h.html" target="_top" xlink:title=" ">
<polygon fill="white" stroke="#666666" points="1148.21,-316 1006.21,-316 1006.21,-297 1148.21,-297 1148.21,-316"/>
<text text-anchor="middle" x="1077.21" y="-304" font-family="Helvetica,sans-Serif" font-size="10.00">pbd/statefuldestructible.h</text>
</a>
</g>
</g>
<!-- Node3&#45;&gt;Node26 -->
<g id="edge36_Node000003_Node000026" class="edge">
<title>Node3&#45;&gt;Node26</title>
<g id="a_edge36_Node000003_Node000026"><a xlink:title=" ">
<path fill="none" stroke="#63b8ff" d="M1128.41,-351.98C1119.39,-344.15 1105.8,-332.34 1094.89,-322.86"/>
<polygon fill="#63b8ff" stroke="#63b8ff" points="1097.03,-320.09 1087.19,-316.17 1092.44,-325.37 1097.03,-320.09"/>
</a>
</g>
</g>
<!-- Node6&#45;&gt;Node5 -->
<g id="edge14_Node000006_Node000005" class="edge">
<title>Node6&#45;&gt;Node5</title>
<g id="a_edge14_Node000006_Node000005"><a xlink:title=" ">
<path fill="none" stroke="#63b8ff" d="M1536.7,-137.86C1455.86,-132.19 1277.39,-117.6 1220.21,-96 1198.07,-87.64 1196.35,-78.43 1176.21,-66 1154.83,-52.81 1129.81,-39.04 1111.58,-29.3"/>
<polygon fill="#63b8ff" stroke="#63b8ff" points="1113.2,-26.19 1102.72,-24.59 1109.92,-32.37 1113.2,-26.19"/>
</a>
</g>
</g>
<!-- Node7 -->
<g id="Node000007" class="node">
<title>Node7</title>
<g id="a_Node000007"><a xlink:title=" ">
<polygon fill="#e0e0e0" stroke="#999999" points="1549.71,-90.5 1498.71,-90.5 1498.71,-71.5 1549.71,-71.5 1549.71,-90.5"/>
<text text-anchor="middle" x="1524.21" y="-78.5" font-family="Helvetica,sans-Serif" font-size="10.00">csignal</text>
</a>
</g>
</g>
<!-- Node6&#45;&gt;Node7 -->
<g id="edge6_Node000006_Node000007" class="edge">
<title>Node6&#45;&gt;Node7</title>
<g id="a_edge6_Node000006_Node000007"><a xlink:title=" ">
<path fill="none" stroke="#63b8ff" d="M1569.39,-131.87C1561.4,-123.05 1548.81,-109.16 1538.95,-98.27"/>
<polygon fill="#63b8ff" stroke="#63b8ff" points="1541.37,-95.73 1532.06,-90.67 1536.18,-100.43 1541.37,-95.73"/>
</a>
</g>
</g>
<!-- Node8 -->
<g id="Node000008" class="node">
<title>Node8</title>
<g id="a_Node000008"><a xlink:title=" ">
<polygon fill="#e0e0e0" stroke="#999999" points="2299.21,-24.5 2267.21,-24.5 2267.21,-5.5 2299.21,-5.5 2299.21,-24.5"/>
<text text-anchor="middle" x="2283.21" y="-12.5" font-family="Helvetica,sans-Serif" font-size="10.00">list</text>
</a>
</g>
</g>
<!-- Node6&#45;&gt;Node8 -->
<g id="edge7_Node000006_Node000008" class="edge">
<title>Node6&#45;&gt;Node8</title>
<g id="a_edge7_Node000006_Node000008"><a xlink:title=" ">
<path fill="none" stroke="#63b8ff" d="M1617.84,-140.72C1736.82,-140.85 2082.52,-137.57 2186.21,-96 2220.62,-82.2 2252.07,-51.49 2269.34,-32.39"/>
<polygon fill="#63b8ff" stroke="#63b8ff" points="2272.07,-34.59 2276.04,-24.76 2266.81,-29.97 2272.07,-34.59"/>
</a>
</g>
</g>
<!-- Node9 -->
<g id="Node000009" class="node">
<title>Node9</title>
<g id="a_Node000009"><a xlink:title=" ">
<polygon fill="#e0e0e0" stroke="#999999" points="1341.21,-24.5 1303.21,-24.5 1303.21,-5.5 1341.21,-5.5 1341.21,-24.5"/>
<text text-anchor="middle" x="1322.21" y="-12.5" font-family="Helvetica,sans-Serif" font-size="10.00">map</text>
</a>
</g>
</g>
<!-- Node6&#45;&gt;Node9 -->
<g id="edge8_Node000006_Node000009" class="edge">
<title>Node6&#45;&gt;Node9</title>
<g id="a_edge8_Node000006_Node000009"><a xlink:title=" ">
<path fill="none" stroke="#63b8ff" d="M1557.99,-131.91C1539.99,-123.58 1512.57,-110.15 1490.21,-96 1471.73,-84.31 1470.41,-76.47 1451.21,-66 1409.37,-43.19 1394.05,-48.69 1350.21,-30 1349.38,-29.65 1348.54,-29.28 1347.69,-28.9"/>
<polygon fill="#63b8ff" stroke="#63b8ff" points="1349.17,-25.73 1338.63,-24.63 1346.18,-32.06 1349.17,-25.73"/>
</a>
</g>
</g>
<!-- Node10 -->
<g id="Node000010" class="node">
<title>Node10</title>
<g id="a_Node000010"><a xlink:title=" ">
<polygon fill="#e0e0e0" stroke="#999999" points="1409.21,-24.5 1359.21,-24.5 1359.21,-5.5 1409.21,-5.5 1409.21,-24.5"/>
<text text-anchor="middle" x="1384.21" y="-12.5" font-family="Helvetica,sans-Serif" font-size="10.00">atomic</text>
</a>
</g>
</g>
<!-- Node6&#45;&gt;Node10 -->
<g id="edge9_Node000006_Node000010" class="edge">
<title>Node6&#45;&gt;Node10</title>
<g id="a_edge9_Node000006_Node000010"><a xlink:title=" ">
<path fill="none" stroke="#63b8ff" d="M1617.72,-139.74C1684.07,-137.53 1811.34,-129 1839.21,-96 1847.81,-85.81 1848.11,-75.93 1839.21,-66 1825.19,-50.35 1523.81,-26.44 1419.42,-18.59"/>
<polygon fill="#63b8ff" stroke="#63b8ff" points="1419.62,-15.1 1409.38,-17.84 1419.1,-22.08 1419.62,-15.1"/>
</a>
</g>
</g>
<!-- Node11 -->
<g id="Node000011" class="node">
<title>Node11</title>
<g id="a_Node000011"><a xlink:title=" ">
<polygon fill="#e0e0e0" stroke="#999999" points="1678.71,-24.5 1575.71,-24.5 1575.71,-5.5 1678.71,-5.5 1678.71,-24.5"/>
<text text-anchor="middle" x="1627.21" y="-12.5" font-family="Helvetica,sans-Serif" font-size="10.00">glibmm/threads.h</text>
</a>
</g>
</g>
<!-- Node6&#45;&gt;Node11 -->
<g id="edge10_Node000006_Node000011" class="edge">
<title>Node6&#45;&gt;Node11</title>
<g id="a_edge10_Node000006_Node000011"><a xlink:title=" ">
<path fill="none" stroke="#63b8ff" d="M1617.79,-140.61C1690.83,-139.84 1839.86,-133.59 1872.21,-96 1880.9,-85.89 1880.64,-76.33 1872.21,-66 1849.5,-38.19 1753.86,-25.44 1689.01,-19.91"/>
<polygon fill="#63b8ff" stroke="#63b8ff" points="1689.14,-16.4 1678.89,-19.08 1688.57,-23.38 1689.14,-16.4"/>
</a>
</g>
</g>
<!-- Node12 -->
<g id="Node000012" class="node">
<title>Node12</title>
<g id="a_Node000012"><a xlink:title=" ">
<polygon fill="#e0e0e0" stroke="#999999" points="1694.21,-90.5 1568.21,-90.5 1568.21,-71.5 1694.21,-71.5 1694.21,-90.5"/>
<text text-anchor="middle" x="1631.21" y="-78.5" font-family="Helvetica,sans-Serif" font-size="10.00">boost/bind/protect.hpp</text>
</a>
</g>
</g>
<!-- Node6&#45;&gt;Node12 -->
<g id="edge11_Node000006_Node000012" class="edge">
<title>Node6&#45;&gt;Node12</title>
<g id="a_edge11_Node000006_Node000012"><a xlink:title=" ">
<path fill="none" stroke="#63b8ff" d="M1585.18,-131.87C1593.31,-123.05 1606.14,-109.16 1616.19,-98.27"/>
<polygon fill="#63b8ff" stroke="#63b8ff" points="1619,-100.39 1623.21,-90.67 1613.85,-95.64 1619,-100.39"/>
</a>
</g>
</g>
<!-- Node13 -->
<g id="Node000013" class="node">
<title>Node13</title>
<g id="a_Node000013"><a xlink:title=" ">
<polygon fill="#e0e0e0" stroke="#999999" points="1830.21,-96 1712.21,-96 1712.21,-66 1830.21,-66 1830.21,-96"/>
<text text-anchor="start" x="1720.21" y="-84" font-family="Helvetica,sans-Serif" font-size="10.00">boost/enable_shared</text>
<text text-anchor="middle" x="1771.21" y="-73" font-family="Helvetica,sans-Serif" font-size="10.00">_from_this.hpp</text>
</a>
</g>
</g>
<!-- Node6&#45;&gt;Node13 -->
<g id="edge12_Node000006_Node000013" class="edge">
<title>Node6&#45;&gt;Node13</title>
<g id="a_edge12_Node000006_Node000013"><a xlink:title=" ">
<path fill="none" stroke="#63b8ff" d="M1605.42,-131.99C1633.95,-123.39 1678.83,-109.86 1714.71,-99.04"/>
<polygon fill="#63b8ff" stroke="#63b8ff" points="1716,-102.3 1724.57,-96.06 1713.98,-95.6 1716,-102.3"/>
</a>
</g>
</g>
<!-- Node14 -->
<g id="Node000014" class="node">
<title>Node14</title>
<g id="a_Node000014"><a xlink:title=" ">
<polygon fill="#e0e0e0" stroke="#999999" points="1442.21,-90.5 1386.21,-90.5 1386.21,-71.5 1442.21,-71.5 1442.21,-90.5"/>
<text text-anchor="middle" x="1414.21" y="-78.5" font-family="Helvetica,sans-Serif" font-size="10.00">optional</text>
</a>
</g>
</g>
<!-- Node6&#45;&gt;Node14 -->
<g id="edge13_Node000006_Node000014" class="edge">
<title>Node6&#45;&gt;Node14</title>
<g id="a_edge13_Node000006_Node000014"><a xlink:title=" ">
<path fill="none" stroke="#63b8ff" d="M1553.51,-131.99C1525.62,-121.99 1479.14,-105.3 1447.61,-93.99"/>
<polygon fill="#63b8ff" stroke="#63b8ff" points="1448.53,-90.6 1437.94,-90.52 1446.17,-97.19 1448.53,-90.6"/>
</a>
</g>
</g>
<!-- Node15 -->
<g id="Node000015" class="node">
<title>Node15</title>
<g id="a_Node000015"><a xlink:href="event__loop_8h.html" target="_top" xlink:title=" ">
<polygon fill="white" stroke="#666666" points="1329.71,-90.5 1228.71,-90.5 1228.71,-71.5 1329.71,-71.5 1329.71,-90.5"/>
<text text-anchor="middle" x="1279.21" y="-78.5" font-family="Helvetica,sans-Serif" font-size="10.00">pbd/event_loop.h</text>
</a>
</g>
</g>
<!-- Node6&#45;&gt;Node15 -->
<g id="edge15_Node000006_Node000015" class="edge">
<title>Node6&#45;&gt;Node15</title>
<g id="a_edge15_Node000006_Node000015"><a xlink:title=" ">
<path fill="none" stroke="#63b8ff" d="M1536.4,-132.49C1483.62,-122.13 1391.54,-104.05 1333.06,-92.57"/>
<polygon fill="#63b8ff" stroke="#63b8ff" points="1333.4,-89.07 1322.91,-90.58 1332.05,-95.94 1333.4,-89.07"/>
</a>
</g>
</g>
<!-- Node19 -->
<g id="Node000019" class="node">
<title>Node19</title>
<g id="a_Node000019"><a xlink:href="stack__allocator_8h.html" target="_top" xlink:title=" ">
<polygon fill="white" stroke="#666666" points="2044.21,-90.5 1924.21,-90.5 1924.21,-71.5 2044.21,-71.5 2044.21,-90.5"/>
<text text-anchor="middle" x="1984.21" y="-78.5" font-family="Helvetica,sans-Serif" font-size="10.00">pbd/stack_allocator.h</text>
</a>
</g>
</g>
<!-- Node6&#45;&gt;Node19 -->
<g id="edge24_Node000006_Node000019" class="edge">
<title>Node6&#45;&gt;Node19</title>
<g id="a_edge24_Node000006_Node000019"><a xlink:title=" ">
<path fill="none" stroke="#63b8ff" d="M1617.81,-135.79C1680.63,-128.35 1805.12,-112.95 1910.21,-96 1916.97,-94.91 1924.07,-93.68 1931.08,-92.41"/>
<polygon fill="#63b8ff" stroke="#63b8ff" points="1932.03,-95.79 1941.23,-90.54 1930.77,-88.91 1932.03,-95.79"/>
</a>
</g>
</g>
<!-- Node22 -->
<g id="Node000022" class="node">
<title>Node22</title>
<g id="a_Node000022"><a xlink:href="stacktrace_8h.html" target="_top" xlink:title=" ">
<polygon fill="white" stroke="#666666" points="2160.21,-90.5 2062.21,-90.5 2062.21,-71.5 2160.21,-71.5 2160.21,-90.5"/>
<text text-anchor="middle" x="2111.21" y="-78.5" font-family="Helvetica,sans-Serif" font-size="10.00">pbd/stacktrace.h</text>
</a>
</g>
</g>
<!-- Node6&#45;&gt;Node22 -->
<g id="edge28_Node000006_Node000022" class="edge">
<title>Node6&#45;&gt;Node22</title>
<g id="a_edge28_Node000006_Node000022"><a xlink:title=" ">
<path fill="none" stroke="#63b8ff" d="M1617.9,-138.67C1700.45,-134.52 1893.35,-122.62 2053.21,-96 2058.57,-95.11 2064.18,-93.99 2069.69,-92.78"/>
<polygon fill="#63b8ff" stroke="#63b8ff" points="2070.51,-96.19 2079.47,-90.53 2068.94,-89.36 2070.51,-96.19"/>
</a>
</g>
</g>
<!-- Node24 -->
<g id="Node000024" class="node">
<title>Node24</title>
<g id="a_Node000024"><a xlink:title=" ">
<polygon fill="#e0e0e0" stroke="#999999" points="2173.21,-24.5 2113.21,-24.5 2113.21,-5.5 2173.21,-5.5 2173.21,-24.5"/>
<text text-anchor="middle" x="2143.21" y="-12.5" font-family="Helvetica,sans-Serif" font-size="10.00">iostream</text>
</a>
</g>
</g>
<!-- Node6&#45;&gt;Node24 -->
<g id="edge35_Node000006_Node000024" class="edge">
<title>Node6&#45;&gt;Node24</title>
<g id="a_edge35_Node000006_Node000024"><a xlink:title=" ">
<path fill="none" stroke="#63b8ff" d="M1618.09,-140.56C1745.94,-140.33 2131.84,-136.28 2169.21,-96 2185.45,-78.49 2170.34,-50.72 2157.3,-32.93"/>
<polygon fill="#63b8ff" stroke="#63b8ff" points="2159.75,-30.38 2150.85,-24.65 2154.23,-34.69 2159.75,-30.38"/>
</a>
</g>
</g>
<!-- Node15&#45;&gt;Node4 -->
<g id="edge17_Node000015_Node000004" class="edge">
<title>Node15&#45;&gt;Node4</title>
<g id="a_edge17_Node000015_Node000004"><a xlink:title=" ">
<path fill="none" stroke="#63b8ff" d="M1228.52,-78.72C1084.23,-74.78 658.98,-61.19 307.21,-30 280.61,-27.64 250.56,-23.78 228.44,-20.71"/>
<polygon fill="#63b8ff" stroke="#63b8ff" points="228.66,-17.2 218.27,-19.27 227.68,-24.13 228.66,-17.2"/>
</a>
</g>
</g>
<!-- Node15&#45;&gt;Node5 -->
<g id="edge23_Node000015_Node000005" class="edge">
<title>Node15&#45;&gt;Node5</title>
<g id="a_edge23_Node000015_Node000005"><a xlink:title=" ">
<path fill="none" stroke="#63b8ff" d="M1253.18,-71.37C1219.27,-60.12 1159.84,-40.42 1121.79,-27.8"/>
<polygon fill="#63b8ff" stroke="#63b8ff" points="1122.73,-24.42 1112.13,-24.6 1120.52,-31.07 1122.73,-24.42"/>
</a>
</g>
</g>
<!-- Node15&#45;&gt;Node9 -->
<g id="edge19_Node000015_Node000009" class="edge">
<title>Node15&#45;&gt;Node9</title>
<g id="a_edge19_Node000015_Node000009"><a xlink:title=" ">
<path fill="none" stroke="#63b8ff" d="M1285.01,-71.37C1291.51,-61.69 1302.23,-45.74 1310.49,-33.44"/>
<polygon fill="#63b8ff" stroke="#63b8ff" points="1313.55,-35.16 1316.23,-24.91 1307.74,-31.25 1313.55,-35.16"/>
</a>
</g>
</g>
<!-- Node15&#45;&gt;Node10 -->
<g id="edge16_Node000015_Node000010" class="edge">
<title>Node15&#45;&gt;Node10</title>
<g id="a_edge16_Node000015_Node000010"><a xlink:title=" ">
<path fill="none" stroke="#63b8ff" d="M1293.37,-71.37C1310.75,-60.78 1340.45,-42.67 1361.14,-30.06"/>
<polygon fill="#63b8ff" stroke="#63b8ff" points="1363.22,-32.89 1369.94,-24.7 1359.58,-26.92 1363.22,-32.89"/>
</a>
</g>
</g>
<!-- Node15&#45;&gt;Node11 -->
<g id="edge22_Node000015_Node000011" class="edge">
<title>Node15&#45;&gt;Node11</title>
<g id="a_edge22_Node000015_Node000011"><a xlink:title=" ">
<path fill="none" stroke="#63b8ff" d="M1325.78,-71.44C1389.2,-59.77 1502.61,-38.91 1570.78,-26.38"/>
<polygon fill="#63b8ff" stroke="#63b8ff" points="1571.71,-29.77 1580.91,-24.51 1570.44,-22.88 1571.71,-29.77"/>
</a>
</g>
</g>
<!-- Node16 -->
<g id="Node000016" class="node">
<title>Node16</title>
<g id="a_Node000016"><a xlink:title=" ">
<polygon fill="#e0e0e0" stroke="#999999" points="919.71,-24.5 872.71,-24.5 872.71,-5.5 919.71,-5.5 919.71,-24.5"/>
<text text-anchor="middle" x="896.21" y="-12.5" font-family="Helvetica,sans-Serif" font-size="10.00">vector</text>
</a>
</g>
</g>
<!-- Node15&#45;&gt;Node16 -->
<g id="edge18_Node000015_Node000016" class="edge">
<title>Node15&#45;&gt;Node16</title>
<g id="a_edge18_Node000015_Node000016"><a xlink:title=" ">
<path fill="none" stroke="#63b8ff" d="M1228.35,-71.5C1148.96,-58.24 997.72,-32.96 930.21,-21.68"/>
<polygon fill="#63b8ff" stroke="#63b8ff" points="930.56,-18.19 920.12,-20 929.41,-25.1 930.56,-18.19"/>
</a>
</g>
</g>
<!-- Node17 -->
<g id="Node000017" class="node">
<title>Node17</title>
<g id="a_Node000017"><a xlink:title=" ">
<polygon fill="#e0e0e0" stroke="#999999" points="369.71,-24.5 316.71,-24.5 316.71,-5.5 369.71,-5.5 369.71,-24.5"/>
<text text-anchor="middle" x="343.21" y="-12.5" font-family="Helvetica,sans-Serif" font-size="10.00">stdint.h</text>
</a>
</g>
</g>
<!-- Node15&#45;&gt;Node17 -->
<g id="edge20_Node000015_Node000017" class="edge">
<title>Node15&#45;&gt;Node17</title>
<g id="a_edge20_Node000015_Node000017"><a xlink:title=" ">
<path fill="none" stroke="#63b8ff" d="M1228.55,-76.54C1060.72,-65.06 525.26,-28.45 379.91,-18.51"/>
<polygon fill="#63b8ff" stroke="#63b8ff" points="379.96,-15 369.75,-17.81 379.48,-21.99 379.96,-15"/>
</a>
</g>
</g>
<!-- Node18 -->
<g id="Node000018" class="node">
<title>Node18</title>
<g id="a_Node000018"><a xlink:title=" ">
<polygon fill="#e0e0e0" stroke="#999999" points="1284.71,-24.5 1221.71,-24.5 1221.71,-5.5 1284.71,-5.5 1284.71,-24.5"/>
<text text-anchor="middle" x="1253.21" y="-12.5" font-family="Helvetica,sans-Serif" font-size="10.00">pthread.h</text>
</a>
</g>
</g>
<!-- Node15&#45;&gt;Node18 -->
<g id="edge21_Node000015_Node000018" class="edge">
<title>Node15&#45;&gt;Node18</title>
<g id="a_edge21_Node000015_Node000018"><a xlink:title=" ">
<path fill="none" stroke="#63b8ff" d="M1275.7,-71.37C1271.89,-61.97 1265.67,-46.67 1260.74,-34.53"/>
<polygon fill="#63b8ff" stroke="#63b8ff" points="1263.83,-32.85 1256.83,-24.91 1257.35,-35.49 1263.83,-32.85"/>
</a>
</g>
</g>
<!-- Node19&#45;&gt;Node5 -->
<g id="edge27_Node000019_Node000005" class="edge">
<title>Node19&#45;&gt;Node5</title>
<g id="a_edge27_Node000019_Node000005"><a xlink:title=" ">
<path fill="none" stroke="#63b8ff" d="M1923.94,-73.65C1897.9,-71.05 1867.07,-68.15 1839.21,-66 1561.35,-44.6 1490.92,-53.28 1213.21,-30 1195.2,-28.49 1175.79,-26.52 1157.7,-24.54"/>
<polygon fill="#63b8ff" stroke="#63b8ff" points="1157.84,-21.04 1147.51,-23.41 1157.06,-28 1157.84,-21.04"/>
</a>
</g>
</g>
<!-- Node20 -->
<g id="Node000020" class="node">
<title>Node20</title>
<g id="a_Node000020"><a xlink:title=" ">
<polygon fill="#e0e0e0" stroke="#999999" points="1950.21,-30 1812.21,-30 1812.21,0 1950.21,0 1950.21,-30"/>
<text text-anchor="start" x="1820.21" y="-18" font-family="Helvetica,sans-Serif" font-size="10.00">boost/type_traits/aligned</text>
<text text-anchor="middle" x="1881.21" y="-7" font-family="Helvetica,sans-Serif" font-size="10.00">_storage.hpp</text>
</a>
</g>
</g>
<!-- Node19&#45;&gt;Node20 -->
<g id="edge25_Node000019_Node000020" class="edge">
<title>Node19&#45;&gt;Node20</title>
<g id="a_edge25_Node000019_Node000020"><a xlink:title=" ">
<path fill="none" stroke="#63b8ff" d="M1970.32,-71.37C1955.56,-62.2 1931.73,-47.39 1912.43,-35.4"/>
<polygon fill="#63b8ff" stroke="#63b8ff" points="1914.27,-32.42 1903.93,-30.12 1910.57,-38.37 1914.27,-32.42"/>
</a>
</g>
</g>
<!-- Node21 -->
<g id="Node000021" class="node">
<title>Node21</title>
<g id="a_Node000021"><a xlink:title=" ">
<polygon fill="#e0e0e0" stroke="#999999" points="2012.21,-24.5 1968.21,-24.5 1968.21,-5.5 2012.21,-5.5 2012.21,-24.5"/>
<text text-anchor="middle" x="1990.21" y="-12.5" font-family="Helvetica,sans-Serif" font-size="10.00">limits</text>
</a>
</g>
</g>
<!-- Node19&#45;&gt;Node21 -->
<g id="edge26_Node000019_Node000021" class="edge">
<title>Node19&#45;&gt;Node21</title>
<g id="a_edge26_Node000019_Node000021"><a xlink:title=" ">
<path fill="none" stroke="#63b8ff" d="M1985.02,-71.37C1985.89,-62.07 1987.3,-46.98 1988.44,-34.9"/>
<polygon fill="#63b8ff" stroke="#63b8ff" points="1991.92,-35.19 1989.37,-24.91 1984.96,-34.53 1991.92,-35.19"/>
</a>
</g>
</g>
<!-- Node22&#45;&gt;Node5 -->
<g id="edge34_Node000022_Node000005" class="edge">
<title>Node22&#45;&gt;Node5</title>
<g id="a_edge34_Node000022_Node000005"><a xlink:title=" ">
<path fill="none" stroke="#63b8ff" d="M2080.72,-71.47C2071.91,-69.32 2062.23,-67.27 2053.21,-66 1683.18,-13.92 1585.8,-58.49 1213.21,-30 1195.19,-28.62 1175.78,-26.7 1157.69,-24.73"/>
<polygon fill="#63b8ff" stroke="#63b8ff" points="1157.82,-21.22 1147.5,-23.59 1157.05,-28.18 1157.82,-21.22"/>
</a>
</g>
</g>
<!-- Node22&#45;&gt;Node8 -->
<g id="edge33_Node000022_Node000008" class="edge">
<title>Node22&#45;&gt;Node8</title>
<g id="a_edge33_Node000022_Node000008"><a xlink:title=" ">
<path fill="none" stroke="#63b8ff" d="M2141.67,-71.42C2171.83,-62.51 2219.06,-47.44 2258.21,-30 2258.76,-29.75 2259.32,-29.5 2259.88,-29.24"/>
<polygon fill="#63b8ff" stroke="#63b8ff" points="2261.6,-32.29 2268.9,-24.6 2258.4,-26.06 2261.6,-32.29"/>
</a>
</g>
</g>
<!-- Node22&#45;&gt;Node11 -->
<g id="edge32_Node000022_Node000011" class="edge">
<title>Node22&#45;&gt;Node11</title>
<g id="a_edge32_Node000022_Node000011"><a xlink:title=" ">
<path fill="none" stroke="#63b8ff" d="M2078.84,-71.46C2070.53,-69.47 2061.57,-67.49 2053.21,-66 1924.61,-43.02 1772.21,-28.05 1689.02,-20.91"/>
<polygon fill="#63b8ff" stroke="#63b8ff" points="1689.24,-17.42 1678.98,-20.06 1688.65,-24.39 1689.24,-17.42"/>
</a>
</g>
</g>
<!-- Node23 -->
<g id="Node000023" class="node">
<title>Node23</title>
<g id="a_Node000023"><a xlink:title=" ">
<polygon fill="#e0e0e0" stroke="#999999" points="2094.71,-24.5 2041.71,-24.5 2041.71,-5.5 2094.71,-5.5 2094.71,-24.5"/>
<text text-anchor="middle" x="2068.21" y="-12.5" font-family="Helvetica,sans-Serif" font-size="10.00">cstddef</text>
</a>
</g>
</g>
<!-- Node22&#45;&gt;Node23 -->
<g id="edge29_Node000022_Node000023" class="edge">
<title>Node22&#45;&gt;Node23</title>
<g id="a_edge29_Node000022_Node000023"><a xlink:title=" ">
<path fill="none" stroke="#63b8ff" d="M2105.41,-71.37C2098.91,-61.69 2088.19,-45.74 2079.92,-33.44"/>
<polygon fill="#63b8ff" stroke="#63b8ff" points="2082.67,-31.25 2074.19,-24.91 2076.86,-35.16 2082.67,-31.25"/>
</a>
</g>
</g>
<!-- Node22&#45;&gt;Node24 -->
<g id="edge30_Node000022_Node000024" class="edge">
<title>Node22&#45;&gt;Node24</title>
<g id="a_edge30_Node000022_Node000024"><a xlink:title=" ">
<path fill="none" stroke="#63b8ff" d="M2115.52,-71.37C2120.27,-61.88 2128.03,-46.36 2134.13,-34.16"/>
<polygon fill="#63b8ff" stroke="#63b8ff" points="2137.41,-35.41 2138.76,-24.91 2131.15,-32.28 2137.41,-35.41"/>
</a>
</g>
</g>
<!-- Node25 -->
<g id="Node000025" class="node">
<title>Node25</title>
<g id="a_Node000025"><a xlink:title=" ">
<polygon fill="#e0e0e0" stroke="#999999" points="2248.71,-24.5 2191.71,-24.5 2191.71,-5.5 2248.71,-5.5 2248.71,-24.5"/>
<text text-anchor="middle" x="2220.21" y="-12.5" font-family="Helvetica,sans-Serif" font-size="10.00">ostream</text>
</a>
</g>
</g>
<!-- Node22&#45;&gt;Node25 -->
<g id="edge31_Node000022_Node000025" class="edge">
<title>Node22&#45;&gt;Node25</title>
<g id="a_edge31_Node000022_Node000025"><a xlink:title=" ">
<path fill="none" stroke="#63b8ff" d="M2125.91,-71.37C2144.03,-60.73 2175.06,-42.51 2196.55,-29.89"/>
<polygon fill="#63b8ff" stroke="#63b8ff" points="2198.54,-32.78 2205.39,-24.7 2195,-26.74 2198.54,-32.78"/>
</a>
</g>
</g>
<!-- Node26&#45;&gt;Node5 -->
<g id="edge37_Node000026_Node000005" class="edge">
<title>Node26&#45;&gt;Node5</title>
<g id="a_edge37_Node000026_Node000005"><a xlink:title=" ">
<path fill="none" stroke="#63b8ff" d="M1073.18,-296.75C1065.21,-278.64 1048.21,-235.55 1048.21,-197.5 1048.21,-197.5 1048.21,-197.5 1048.21,-140.5 1048.21,-101.13 1065.81,-57.68 1077.05,-33.95"/>
<polygon fill="#63b8ff" stroke="#63b8ff" points="1080.29,-35.3 1081.55,-24.78 1074,-32.21 1080.29,-35.3"/>
</a>
</g>
</g>
<!-- Node27 -->
<g id="Node000027" class="node">
<title>Node27</title>
<g id="a_Node000027"><a xlink:href="stateful_8h.html" target="_top" xlink:title=" ">
<polygon fill="white" stroke="#666666" points="931.21,-261 847.21,-261 847.21,-242 931.21,-242 931.21,-261"/>
<text text-anchor="middle" x="889.21" y="-249" font-family="Helvetica,sans-Serif" font-size="10.00">pbd/stateful.h</text>
</a>
</g>
</g>
<!-- Node26&#45;&gt;Node27 -->
<g id="edge38_Node000026_Node000027" class="edge">
<title>Node26&#45;&gt;Node27</title>
<g id="a_edge38_Node000026_Node000027"><a xlink:title=" ">
<path fill="none" stroke="#63b8ff" d="M1047,-296.98C1015.17,-288.01 964.84,-273.82 929.61,-263.89"/>
<polygon fill="#63b8ff" stroke="#63b8ff" points="930.23,-260.43 919.65,-261.08 928.33,-267.16 930.23,-260.43"/>
</a>
</g>
</g>
<!-- Node40 -->
<g id="Node000040" class="node">
<title>Node40</title>
<g id="a_Node000040"><a xlink:href="destructible_8h.html" target="_top" xlink:title=" ">
<polygon fill="white" stroke="#666666" points="1180.21,-206 1076.21,-206 1076.21,-187 1180.21,-187 1180.21,-206"/>
<text text-anchor="middle" x="1128.21" y="-194" font-family="Helvetica,sans-Serif" font-size="10.00">pbd/destructible.h</text>
</a>
</g>
</g>
<!-- Node26&#45;&gt;Node40 -->
<g id="edge71_Node000026_Node000040" class="edge">
<title>Node26&#45;&gt;Node40</title>
<g id="a_edge71_Node000026_Node000040"><a xlink:title=" ">
<path fill="none" stroke="#63b8ff" d="M1081.38,-296.66C1089.75,-278.93 1108.74,-238.73 1119.79,-215.32"/>
<polygon fill="#63b8ff" stroke="#63b8ff" points="1123.01,-216.7 1124.12,-206.16 1116.68,-213.71 1123.01,-216.7"/>
</a>
</g>
</g>
<!-- Node27&#45;&gt;Node4 -->
<g id="edge40_Node000027_Node000004" class="edge">
<title>Node27&#45;&gt;Node4</title>
<g id="a_edge40_Node000027_Node000004"><a xlink:title=" ">
<path fill="none" stroke="#63b8ff" d="M847.18,-248.04C777.39,-243.4 633.47,-231.43 514.21,-206 353.49,-171.73 258.6,-228.36 161.21,-96 146.54,-76.06 164.82,-49.01 179.99,-32.03"/>
<polygon fill="#63b8ff" stroke="#63b8ff" points="182.7,-34.26 187.02,-24.58 177.61,-29.45 182.7,-34.26"/>
</a>
</g>
</g>
<!-- Node27&#45;&gt;Node5 -->
<g id="edge43_Node000027_Node000005" class="edge">
<title>Node27&#45;&gt;Node5</title>
<g id="a_edge43_Node000027_Node000005"><a xlink:title=" ">
<path fill="none" stroke="#63b8ff" d="M895.45,-241.7C914.85,-214.54 976.26,-130.04 1034.21,-66 1045.08,-53.98 1058.25,-41.34 1068.61,-31.77"/>
<polygon fill="#63b8ff" stroke="#63b8ff" points="1071.2,-34.15 1076.23,-24.83 1066.48,-28.98 1071.2,-34.15"/>
</a>
</g>
</g>
<!-- Node27&#45;&gt;Node6 -->
<g id="edge70_Node000027_Node000006" class="edge">
<title>Node27&#45;&gt;Node6</title>
<g id="a_edge70_Node000027_Node000006"><a xlink:title=" ">
<path fill="none" stroke="#63b8ff" d="M907.97,-242C939.92,-227.93 1007.26,-200.08 1067.21,-187 1232.55,-150.92 1434.08,-143.89 1526.49,-142.66"/>
<polygon fill="#63b8ff" stroke="#63b8ff" points="1526.72,-146.16 1536.68,-142.54 1526.64,-139.16 1526.72,-146.16"/>
</a>
</g>
</g>
<!-- Node27&#45;&gt;Node8 -->
<g id="edge41_Node000027_Node000008" class="edge">
<title>Node27&#45;&gt;Node8</title>
<g id="a_edge41_Node000027_Node000008"><a xlink:title=" ">
<path fill="none" stroke="#63b8ff" d="M931.29,-246.4C1062.41,-233.53 1475.15,-192.34 1816.21,-151 1997.42,-129.04 2065.79,-188.4 2223.21,-96 2247.84,-81.54 2265.6,-52.62 2275.14,-33.8"/>
<polygon fill="#63b8ff" stroke="#63b8ff" points="2278.41,-35.07 2279.58,-24.54 2272.1,-32.04 2278.41,-35.07"/>
</a>
</g>
</g>
<!-- Node27&#45;&gt;Node10 -->
<g id="edge39_Node000027_Node000010" class="edge">
<title>Node27&#45;&gt;Node10</title>
<g id="a_edge39_Node000027_Node000010"><a xlink:title=" ">
<path fill="none" stroke="#63b8ff" d="M901.4,-241.93C920.97,-228.51 961,-202.47 998.21,-187 1143.04,-126.76 1215.25,-192.12 1339.21,-96 1359.52,-80.25 1372.11,-52.57 1378.63,-34.26"/>
<polygon fill="#63b8ff" stroke="#63b8ff" points="1381.97,-35.32 1381.79,-24.73 1375.33,-33.12 1381.97,-35.32"/>
</a>
</g>
</g>
<!-- Node28 -->
<g id="Node000028" class="node">
<title>Node28</title>
<g id="a_Node000028"><a xlink:title=" ">
<polygon fill="#e0e0e0" stroke="#999999" points="575.21,-206 523.21,-206 523.21,-187 575.21,-187 575.21,-206"/>
<text text-anchor="middle" x="549.21" y="-194" font-family="Helvetica,sans-Serif" font-size="10.00">cassert</text>
</a>
</g>
</g>
<!-- Node27&#45;&gt;Node28 -->
<g id="edge42_Node000027_Node000028" class="edge">
<title>Node27&#45;&gt;Node28</title>
<g id="a_edge42_Node000027_Node000028"><a xlink:title=" ">
<path fill="none" stroke="#63b8ff" d="M846.84,-245.06C788.62,-237.39 680.67,-222.48 589.21,-206 587.95,-205.77 586.67,-205.54 585.38,-205.29"/>
<polygon fill="#63b8ff" stroke="#63b8ff" points="585.9,-201.83 575.41,-203.31 584.54,-208.69 585.9,-201.83"/>
</a>
</g>
</g>
<!-- Node29 -->
<g id="Node000029" class="node">
<title>Node29</title>
<g id="a_Node000029"><a xlink:href="id_8h.html" target="_top" xlink:title=" ">
<polygon fill="white" stroke="#666666" points="371.21,-90.5 315.21,-90.5 315.21,-71.5 371.21,-71.5 371.21,-90.5"/>
<text text-anchor="middle" x="343.21" y="-78.5" font-family="Helvetica,sans-Serif" font-size="10.00">pbd/id.h</text>
</a>
</g>
</g>
<!-- Node27&#45;&gt;Node29 -->
<g id="edge44_Node000027_Node000029" class="edge">
<title>Node27&#45;&gt;Node29</title>
<g id="a_edge44_Node000027_Node000029"><a xlink:title=" ">
<path fill="none" stroke="#63b8ff" d="M859.95,-241.99C829.51,-233.1 780.47,-218.72 738.21,-206 578.82,-158.03 537.68,-149.92 380.21,-96 378.36,-95.37 376.46,-94.7 374.55,-94.02"/>
<polygon fill="#63b8ff" stroke="#63b8ff" points="375.63,-90.69 365.04,-90.52 373.22,-97.26 375.63,-90.69"/>
</a>
</g>
</g>
<!-- Node30 -->
<g id="Node000030" class="node">
<title>Node30</title>
<g id="a_Node000030"><a xlink:href="xml_09_09_8h.html" target="_top" xlink:title=" ">
<polygon fill="white" stroke="#666666" points="713.21,-151 631.21,-151 631.21,-132 713.21,-132 713.21,-151"/>
<text text-anchor="middle" x="672.21" y="-139" font-family="Helvetica,sans-Serif" font-size="10.00">pbd/xml++.h</text>
</a>
</g>
</g>
<!-- Node27&#45;&gt;Node30 -->
<g id="edge49_Node000027_Node000030" class="edge">
<title>Node27&#45;&gt;Node30</title>
<g id="a_edge49_Node000027_Node000030"><a xlink:title=" ">
<path fill="none" stroke="#63b8ff" d="M862.32,-241.86C838.39,-233.77 802.72,-220.76 773.21,-206 743.97,-191.38 712.4,-170.65 692.48,-156.9"/>
<polygon fill="#63b8ff" stroke="#63b8ff" points="694.4,-153.97 684.2,-151.12 690.39,-159.72 694.4,-153.97"/>
</a>
</g>
</g>
<!-- Node37 -->
<g id="Node000037" class="node">
<title>Node37</title>
<g id="a_Node000037"><a xlink:href="property__basics_8h.html" target="_top" xlink:title=" ">
<polygon fill="white" stroke="#666666" points="906.21,-206 782.21,-206 782.21,-187 906.21,-187 906.21,-206"/>
<text text-anchor="middle" x="844.21" y="-194" font-family="Helvetica,sans-Serif" font-size="10.00">pbd/property_basics.h</text>
</a>
</g>
</g>
<!-- Node27&#45;&gt;Node37 -->
<g id="edge63_Node000027_Node000037" class="edge">
<title>Node27&#45;&gt;Node37</title>
<g id="a_edge63_Node000027_Node000037"><a xlink:title=" ">
<path fill="none" stroke="#63b8ff" d="M881.78,-241.75C875.36,-234.18 865.9,-223.05 858.09,-213.84"/>
<polygon fill="#63b8ff" stroke="#63b8ff" points="860.64,-211.45 851.5,-206.09 855.31,-215.98 860.64,-211.45"/>
</a>
</g>
</g>
<!-- Node29&#45;&gt;Node4 -->
<g id="edge46_Node000029_Node000004" class="edge">
<title>Node29&#45;&gt;Node4</title>
<g id="a_edge46_Node000029_Node000004"><a xlink:title=" ">
<path fill="none" stroke="#63b8ff" d="M323.38,-71.37C298.18,-60.39 254.45,-41.36 225.42,-28.72"/>
<polygon fill="#63b8ff" stroke="#63b8ff" points="226.75,-25.48 216.19,-24.7 223.96,-31.9 226.75,-25.48"/>
</a>
</g>
</g>
<!-- Node29&#45;&gt;Node5 -->
<g id="edge48_Node000029_Node000005" class="edge">
<title>Node29&#45;&gt;Node5</title>
<g id="a_edge48_Node000029_Node000005"><a xlink:title=" ">
<path fill="none" stroke="#63b8ff" d="M362.47,-71.48C368.08,-69.34 374.3,-67.28 380.21,-66 618.74,-14.24 684.85,-48.77 928.21,-30 956.57,-27.81 987.77,-25.11 1014.9,-22.67"/>
<polygon fill="#63b8ff" stroke="#63b8ff" points="1015.44,-26.13 1025.08,-21.74 1014.81,-19.16 1015.44,-26.13"/>
</a>
</g>
</g>
<!-- Node29&#45;&gt;Node11 -->
<g id="edge47_Node000029_Node000011" class="edge">
<title>Node29&#45;&gt;Node11</title>
<g id="a_edge47_Node000029_Node000011"><a xlink:title=" ">
<path fill="none" stroke="#63b8ff" d="M362.44,-71.36C368.06,-69.22 374.28,-67.19 380.21,-66 606.5,-20.55 1187.7,-41.71 1418.21,-30 1467.87,-27.48 1524.1,-23.65 1565.72,-20.64"/>
<polygon fill="#63b8ff" stroke="#63b8ff" points="1565.98,-24.13 1575.7,-19.91 1565.47,-17.15 1565.98,-24.13"/>
</a>
</g>
</g>
<!-- Node29&#45;&gt;Node17 -->
<g id="edge45_Node000029_Node000017" class="edge">
<title>Node29&#45;&gt;Node17</title>
<g id="a_edge45_Node000029_Node000017"><a xlink:title=" ">
<path fill="none" stroke="#63b8ff" d="M343.21,-71.37C343.21,-62.16 343.21,-47.29 343.21,-35.27"/>
<polygon fill="#63b8ff" stroke="#63b8ff" points="346.71,-34.91 343.21,-24.91 339.71,-34.91 346.71,-34.91"/>
</a>
</g>
</g>
<!-- Node30&#45;&gt;Node2 -->
<g id="edge52_Node000030_Node000002" class="edge">
<title>Node30&#45;&gt;Node2</title>
<g id="a_edge52_Node000030_Node000002"><a xlink:title=" ">
<path fill="none" stroke="#63b8ff" d="M630.95,-138.29C541.24,-133.23 321.81,-119.36 139.21,-96 125.58,-94.26 110.75,-91.85 97.54,-89.51"/>
<polygon fill="#63b8ff" stroke="#63b8ff" points="97.82,-86.01 87.36,-87.68 96.58,-92.9 97.82,-86.01"/>
</a>
</g>
</g>
<!-- Node30&#45;&gt;Node4 -->
<g id="edge53_Node000030_Node000004" class="edge">
<title>Node30&#45;&gt;Node4</title>
<g id="a_edge53_Node000030_Node000004"><a xlink:title=" ">
<path fill="none" stroke="#63b8ff" d="M630.94,-139.95C516.75,-138 202.95,-129.6 172.21,-96 156.2,-78.51 170.43,-50.73 182.8,-32.94"/>
<polygon fill="#63b8ff" stroke="#63b8ff" points="185.8,-34.77 188.93,-24.65 180.17,-30.61 185.8,-34.77"/>
</a>
</g>
</g>
<!-- Node30&#45;&gt;Node5 -->
<g id="edge62_Node000030_Node000005" class="edge">
<title>Node30&#45;&gt;Node5</title>
<g id="a_edge62_Node000030_Node000005"><a xlink:title=" ">
<path fill="none" stroke="#63b8ff" d="M713.52,-132.73C753.46,-124.84 815.51,-111.58 868.21,-96 904.18,-85.36 1003.05,-47.92 1054.37,-28.26"/>
<polygon fill="#63b8ff" stroke="#63b8ff" points="1055.88,-31.43 1063.96,-24.58 1053.37,-24.89 1055.88,-31.43"/>
</a>
</g>
</g>
<!-- Node30&#45;&gt;Node16 -->
<g id="edge54_Node000030_Node000016" class="edge">
<title>Node30&#45;&gt;Node16</title>
<g id="a_edge54_Node000030_Node000016"><a xlink:title=" ">
<path fill="none" stroke="#63b8ff" d="M713.23,-137.39C749.2,-132.94 801.48,-122.15 839.21,-96 862.03,-80.18 878.88,-52.12 888.13,-33.79"/>
<polygon fill="#63b8ff" stroke="#63b8ff" points="891.29,-35.27 892.47,-24.74 884.98,-32.24 891.29,-35.27"/>
</a>
</g>
</g>
<!-- Node31 -->
<g id="Node000031" class="node">
<title>Node31</title>
<g id="a_Node000031"><a xlink:title=" ">
<polygon fill="#e0e0e0" stroke="#999999" points="442.71,-90.5 389.71,-90.5 389.71,-71.5 442.71,-71.5 442.71,-90.5"/>
<text text-anchor="middle" x="416.21" y="-78.5" font-family="Helvetica,sans-Serif" font-size="10.00">cstdarg</text>
</a>
</g>
</g>
<!-- Node30&#45;&gt;Node31 -->
<g id="edge50_Node000030_Node000031" class="edge">
<title>Node30&#45;&gt;Node31</title>
<g id="a_edge50_Node000030_Node000031"><a xlink:title=" ">
<path fill="none" stroke="#63b8ff" d="M630.82,-133.01C576.76,-123.06 485.11,-105.65 452.21,-96 450.28,-95.43 448.31,-94.81 446.33,-94.14"/>
<polygon fill="#63b8ff" stroke="#63b8ff" points="447.15,-90.72 436.56,-90.61 444.77,-97.3 447.15,-90.72"/>
</a>
</g>
</g>
<!-- Node32 -->
<g id="Node000032" class="node">
<title>Node32</title>
<g id="a_Node000032"><a xlink:title=" ">
<polygon fill="#e0e0e0" stroke="#999999" points="507.21,-90.5 461.21,-90.5 461.21,-71.5 507.21,-71.5 507.21,-90.5"/>
<text text-anchor="middle" x="484.21" y="-78.5" font-family="Helvetica,sans-Serif" font-size="10.00">cstdio</text>
</a>
</g>
</g>
<!-- Node30&#45;&gt;Node32 -->
<g id="edge51_Node000030_Node000032" class="edge">
<title>Node30&#45;&gt;Node32</title>
<g id="a_edge51_Node000030_Node000032"><a xlink:title=" ">
<path fill="none" stroke="#63b8ff" d="M637.09,-131.92C605.19,-123.8 557.02,-110.67 516.21,-96 514.82,-95.5 513.4,-94.97 511.98,-94.42"/>
<polygon fill="#63b8ff" stroke="#63b8ff" points="513.23,-91.15 502.65,-90.57 510.56,-97.62 513.23,-91.15"/>
</a>
</g>
</g>
<!-- Node33 -->
<g id="Node000033" class="node">
<title>Node33</title>
<g id="a_Node000033"><a xlink:title=" ">
<polygon fill="#e0e0e0" stroke="#999999" points="614.71,-90.5 525.71,-90.5 525.71,-71.5 614.71,-71.5 614.71,-90.5"/>
<text text-anchor="middle" x="570.21" y="-78.5" font-family="Helvetica,sans-Serif" font-size="10.00">libxml/parser.h</text>
</a>
</g>
</g>
<!-- Node30&#45;&gt;Node33 -->
<g id="edge55_Node000030_Node000033" class="edge">
<title>Node30&#45;&gt;Node33</title>
<g id="a_edge55_Node000030_Node000033"><a xlink:title=" ">
<path fill="none" stroke="#63b8ff" d="M657.16,-131.87C640.58,-122.36 613.71,-106.95 594.22,-95.77"/>
<polygon fill="#63b8ff" stroke="#63b8ff" points="595.74,-92.61 585.32,-90.67 592.25,-98.68 595.74,-92.61"/>
</a>
</g>
</g>
<!-- Node34 -->
<g id="Node000034" class="node">
<title>Node34</title>
<g id="a_Node000034"><a xlink:title=" ">
<polygon fill="#e0e0e0" stroke="#999999" points="711.71,-90.5 632.71,-90.5 632.71,-71.5 711.71,-71.5 711.71,-90.5"/>
<text text-anchor="middle" x="672.21" y="-78.5" font-family="Helvetica,sans-Serif" font-size="10.00">libxml/tree.h</text>
</a>
</g>
</g>
<!-- Node30&#45;&gt;Node34 -->
<g id="edge56_Node000030_Node000034" class="edge">
<title>Node30&#45;&gt;Node34</title>
<g id="a_edge56_Node000030_Node000034"><a xlink:title=" ">
<path fill="none" stroke="#63b8ff" d="M672.21,-131.87C672.21,-123.75 672.21,-111.31 672.21,-100.89"/>
<polygon fill="#63b8ff" stroke="#63b8ff" points="675.71,-100.67 672.21,-90.67 668.71,-100.67 675.71,-100.67"/>
</a>
</g>
</g>
<!-- Node35 -->
<g id="Node000035" class="node">
<title>Node35</title>
<g id="a_Node000035"><a xlink:title=" ">
<polygon fill="#e0e0e0" stroke="#999999" points="830.21,-90.5 730.21,-90.5 730.21,-71.5 830.21,-71.5 830.21,-90.5"/>
<text text-anchor="middle" x="780.21" y="-78.5" font-family="Helvetica,sans-Serif" font-size="10.00">glibmm/ustring.h</text>
</a>
</g>
</g>
<!-- Node30&#45;&gt;Node35 -->
<g id="edge57_Node000030_Node000035" class="edge">
<title>Node30&#45;&gt;Node35</title>
<g id="a_edge57_Node000030_Node000035"><a xlink:title=" ">
<path fill="none" stroke="#63b8ff" d="M688.14,-131.87C705.85,-122.28 734.67,-106.67 755.35,-95.47"/>
<polygon fill="#63b8ff" stroke="#63b8ff" points="757.08,-98.51 764.21,-90.67 753.75,-92.35 757.08,-98.51"/>
</a>
</g>
</g>
<!-- Node36 -->
<g id="Node000036" class="node">
<title>Node36</title>
<g id="a_Node000036"><a xlink:href="string__convert_8h.html" target="_top" xlink:title=" ">
<polygon fill="white" stroke="#666666" points="297.21,-90.5 181.21,-90.5 181.21,-71.5 297.21,-71.5 297.21,-90.5"/>
<text text-anchor="middle" x="239.21" y="-78.5" font-family="Helvetica,sans-Serif" font-size="10.00">pbd/string_convert.h</text>
</a>
</g>
</g>
<!-- Node30&#45;&gt;Node36 -->
<g id="edge58_Node000030_Node000036" class="edge">
<title>Node30&#45;&gt;Node36</title>
<g id="a_edge58_Node000030_Node000036"><a xlink:title=" ">
<path fill="none" stroke="#63b8ff" d="M631.15,-136.66C563.28,-130.05 423.52,-115.35 306.21,-96 300.05,-94.98 293.6,-93.8 287.24,-92.55"/>
<polygon fill="#63b8ff" stroke="#63b8ff" points="287.86,-89.11 277.37,-90.56 286.48,-95.97 287.86,-89.11"/>
</a>
</g>
</g>
<!-- Node36&#45;&gt;Node4 -->
<g id="edge59_Node000036_Node000004" class="edge">
<title>Node36&#45;&gt;Node4</title>
<g id="a_edge59_Node000036_Node000004"><a xlink:title=" ">
<path fill="none" stroke="#63b8ff" d="M233.41,-71.37C226.91,-61.69 216.19,-45.74 207.92,-33.44"/>
<polygon fill="#63b8ff" stroke="#63b8ff" points="210.67,-31.25 202.19,-24.91 204.86,-35.16 210.67,-31.25"/>
</a>
</g>
</g>
<!-- Node36&#45;&gt;Node5 -->
<g id="edge61_Node000036_Node000005" class="edge">
<title>Node36&#45;&gt;Node5</title>
<g id="a_edge61_Node000036_Node000005"><a xlink:title=" ">
<path fill="none" stroke="#63b8ff" d="M275.2,-71.46C285.19,-69.37 296.08,-67.34 306.21,-66 580.71,-29.58 652.04,-50.22 928.21,-30 956.58,-27.92 987.78,-25.24 1014.91,-22.78"/>
<polygon fill="#63b8ff" stroke="#63b8ff" points="1015.45,-26.25 1025.09,-21.85 1014.82,-19.28 1015.45,-26.25"/>
</a>
</g>
</g>
<!-- Node36&#45;&gt;Node17 -->
<g id="edge60_Node000036_Node000017" class="edge">
<title>Node36&#45;&gt;Node17</title>
<g id="a_edge60_Node000036_Node000017"><a xlink:title=" ">
<path fill="none" stroke="#63b8ff" d="M253.23,-71.37C270.45,-60.78 299.87,-42.67 320.36,-30.06"/>
<polygon fill="#63b8ff" stroke="#63b8ff" points="322.39,-32.92 329.07,-24.7 318.72,-26.96 322.39,-32.92"/>
</a>
</g>
</g>
<!-- Node37&#45;&gt;Node5 -->
<g id="edge68_Node000037_Node000005" class="edge">
<title>Node37&#45;&gt;Node5</title>
<g id="a_edge68_Node000037_Node000005"><a xlink:title=" ">
<path fill="none" stroke="#63b8ff" d="M860.49,-186.84C875.4,-178.57 897.74,-165.26 915.21,-151 955.63,-118 954.93,-97.92 996.21,-66 1015.35,-51.19 1039.42,-38.06 1057.85,-28.98"/>
<polygon fill="#63b8ff" stroke="#63b8ff" points="1059.43,-32.1 1066.92,-24.61 1056.39,-25.8 1059.43,-32.1"/>
</a>
</g>
</g>
<!-- Node37&#45;&gt;Node16 -->
<g id="edge66_Node000037_Node000016" class="edge">
<title>Node37&#45;&gt;Node16</title>
<g id="a_edge66_Node000037_Node000016"><a xlink:title=" ">
<path fill="none" stroke="#63b8ff" d="M831.54,-186.81C815.53,-174.71 791.42,-152.01 803.21,-132 819.97,-103.55 846.91,-121.24 868.21,-96 883.08,-78.38 890.23,-52.36 893.55,-34.82"/>
<polygon fill="#63b8ff" stroke="#63b8ff" points="897.04,-35.13 895.21,-24.7 890.14,-34 897.04,-35.13"/>
</a>
</g>
</g>
<!-- Node37&#45;&gt;Node25 -->
<g id="edge67_Node000037_Node000025" class="edge">
<title>Node37&#45;&gt;Node25</title>
<g id="a_edge67_Node000037_Node000025"><a xlink:title=" ">
<path fill="none" stroke="#63b8ff" d="M906.61,-192.71C1164.22,-180.97 2133.99,-134.36 2186.21,-96 2205.84,-81.58 2214.23,-53.54 2217.75,-34.79"/>
<polygon fill="#63b8ff" stroke="#63b8ff" points="2221.24,-35.18 2219.34,-24.75 2214.32,-34.08 2221.24,-35.18"/>
</a>
</g>
</g>
<!-- Node37&#45;&gt;Node30 -->
<g id="edge69_Node000037_Node000030" class="edge">
<title>Node37&#45;&gt;Node30</title>
<g id="a_edge69_Node000037_Node000030"><a xlink:title=" ">
<path fill="none" stroke="#63b8ff" d="M816.57,-186.98C787.7,-178.09 742.2,-164.07 710.01,-154.15"/>
<polygon fill="#63b8ff" stroke="#63b8ff" points="710.65,-150.68 700.06,-151.08 708.59,-157.37 710.65,-150.68"/>
</a>
</g>
</g>
<!-- Node38 -->
<g id="Node000038" class="node">
<title>Node38</title>
<g id="a_Node000038"><a xlink:title=" ">
<polygon fill="#e0e0e0" stroke="#999999" points="856.21,-151 812.21,-151 812.21,-132 856.21,-132 856.21,-151"/>
<text text-anchor="middle" x="834.21" y="-139" font-family="Helvetica,sans-Serif" font-size="10.00">glib.h</text>
</a>
</g>
</g>
<!-- Node37&#45;&gt;Node38 -->
<g id="edge64_Node000037_Node000038" class="edge">
<title>Node37&#45;&gt;Node38</title>
<g id="a_edge64_Node000037_Node000038"><a xlink:title=" ">
<path fill="none" stroke="#63b8ff" d="M842.56,-186.75C841.25,-179.8 839.37,-169.85 837.72,-161.13"/>
<polygon fill="#63b8ff" stroke="#63b8ff" points="841.12,-160.27 835.83,-151.09 834.24,-161.56 841.12,-160.27"/>
</a>
</g>
</g>
<!-- Node39 -->
<g id="Node000039" class="node">
<title>Node39</title>
<g id="a_Node000039"><a xlink:title=" ">
<polygon fill="#e0e0e0" stroke="#999999" points="906.21,-151 874.21,-151 874.21,-132 906.21,-132 906.21,-151"/>
<text text-anchor="middle" x="890.21" y="-139" font-family="Helvetica,sans-Serif" font-size="10.00">set</text>
</a>
</g>
</g>
<!-- Node37&#45;&gt;Node39 -->
<g id="edge65_Node000037_Node000039" class="edge">
<title>Node37&#45;&gt;Node39</title>
<g id="a_edge65_Node000037_Node000039"><a xlink:title=" ">
<path fill="none" stroke="#63b8ff" d="M851.8,-186.75C858.37,-179.18 868.03,-168.05 876.02,-158.84"/>
<polygon fill="#63b8ff" stroke="#63b8ff" points="878.84,-160.94 882.75,-151.09 873.56,-156.35 878.84,-160.94"/>
</a>
</g>
</g>
<!-- Node40&#45;&gt;Node5 -->
<g id="edge73_Node000040_Node000005" class="edge">
<title>Node40&#45;&gt;Node5</title>
<g id="a_edge73_Node000040_Node000005"><a xlink:title=" ">
<path fill="none" stroke="#63b8ff" d="M1126.18,-186.84C1119.71,-159.18 1099.43,-72.51 1090.5,-34.35"/>
<polygon fill="#63b8ff" stroke="#63b8ff" points="1093.9,-33.51 1088.21,-24.57 1087.08,-35.11 1093.9,-33.51"/>
</a>
</g>
</g>
<!-- Node40&#45;&gt;Node6 -->
<g id="edge72_Node000040_Node000006" class="edge">
<title>Node40&#45;&gt;Node6</title>
<g id="a_edge72_Node000040_Node000006"><a xlink:title=" ">
<path fill="none" stroke="#63b8ff" d="M1180.59,-189.32C1267.62,-179.04 1440.89,-158.59 1526.68,-148.46"/>
<polygon fill="#63b8ff" stroke="#63b8ff" points="1527.17,-151.93 1536.69,-147.28 1526.35,-144.98 1527.17,-151.93"/>
</a>
</g>
</g>
</g>
</svg>
