<?xml version="1.0" encoding="UTF-8" standalone="no"?>
<!DOCTYPE svg PUBLIC "-//W3C//DTD SVG 1.1//EN"
 "http://www.w3.org/Graphics/SVG/1.1/DTD/svg11.dtd">
<!-- Generated by graphviz version 2.43.0 (0)
 -->
<!-- Title: stateful.h Pages: 1 -->
<!--zoomable 269 -->

<svg id="main" version="1.1" xmlns="http://www.w3.org/2000/svg" xmlns:xlink="http://www.w3.org/1999/xlink" xml:space="preserve" onload="init(evt)">
<style type="text/css"><![CDATA[
.node, .edge {opacity: 0.7;}
.node.selected, .edge.selected {opacity: 1;}
.edge:hover path { stroke: red; }
.edge:hover polygon { stroke: red; fill: red; }
]]></style>

<defs>
  <circle id="rim" cx="0" cy="0" r="7"/>
  <circle id="rim2" cx="0" cy="0" r="3.5"/>
  <g id="zoomPlus">
    <use xlink:href="#rim" fill="#404040"><set attributeName="fill" to="#808080" begin="zoomplus.mouseover" end="zoomplus.mouseout"/></use>
    <path d="M-4,0h8M0,-4v8" fill="none" stroke="white" stroke-width="1.5" pointer-events="none"/>
  </g>
  <g id="zoomMin">
    <use xlink:href="#rim" fill="#404040"><set attributeName="fill" to="#808080" begin="zoomminus.mouseover" end="zoomminus.mouseout"/></use>
    <path d="M-4,0h8" fill="none" stroke="white" stroke-width="1.5" pointer-events="none"/>
  </g>
  <g id="arrowUp" transform="translate(30 24)">
    <use xlink:href="#rim"/>
    <path pointer-events="none" fill="none" stroke="white" stroke-width="1.5" d="M0,-3.0v7 M-2.5,-0.5L0,-3.0L2.5,-0.5"/>
  </g>
  <g id="arrowRight" transform="rotate(90) translate(36 -43)">
    <use xlink:href="#rim"/>
    <path pointer-events="none" fill="none" stroke="white" stroke-width="1.5" d="M0,-3.0v7 M-2.5,-0.5L0,-3.0L2.5,-0.5"/>
  </g>
  <g id="arrowDown" transform="rotate(180) translate(-30 -48)">
    <use xlink:href="#rim"/>
    <path pointer-events="none" fill="none" stroke="white" stroke-width="1.5" d="M0,-3.0v7 M-2.5,-0.5L0,-3.0L2.5,-0.5"/>
  </g>
  <g id="arrowLeft" transform="rotate(270) translate(-36 17)">
    <use xlink:href="#rim"/>
    <path pointer-events="none" fill="none" stroke="white" stroke-width="1.5" d="M0,-3.0v7 M-2.5,-0.5L0,-3.0L2.5,-0.5"/>
  </g>
  <g id="resetDef">
    <use xlink:href="#rim2" fill="#404040"><set attributeName="fill" to="#808080" begin="reset.mouseover" end="reset.mouseout"/></use>
  </g>
</defs>
<script type="application/ecmascript">
var viewWidth = 2109;
var viewHeight = 269;
var sectionId = 'dynsection-0';
</script>
<script type="application/ecmascript" xlink:href="svg.min.js"/>
<svg id="graph" class="graph">
<g id="viewport">
<title>stateful.h</title>
<!-- Node1 -->
<g id="Node000001" class="node">
<title>Node1</title>
<g id="a_Node000001"><a xlink:title=" ">
<polygon fill="#999999" stroke="#666666" points="885.38,-261 822.38,-261 822.38,-242 885.38,-242 885.38,-261"/>
<text text-anchor="middle" x="853.88" y="-249" font-family="Helvetica,sans-Serif" font-size="10.00">stateful.h</text>
</a>
</g>
</g>
<!-- Node2 -->
<g id="Node000002" class="node">
<title>Node2</title>
<g id="a_Node000002"><a xlink:title=" ">
<polygon fill="#e0e0e0" stroke="#999999" points="1648.88,-24.5 1598.88,-24.5 1598.88,-5.5 1648.88,-5.5 1648.88,-24.5"/>
<text text-anchor="middle" x="1623.88" y="-12.5" font-family="Helvetica,sans-Serif" font-size="10.00">atomic</text>
</a>
</g>
</g>
<!-- Node1&#45;&gt;Node2 -->
<g id="edge1_Node000001_Node000002" class="edge">
<title>Node1&#45;&gt;Node2</title>
<g id="a_edge1_Node000001_Node000002"><a xlink:title=" ">
<path fill="none" stroke="#63b8ff" d="M885.49,-250.75C1039.62,-251.26 1710.17,-244.78 1836.88,-96 1887.65,-36.38 1732.05,-21.12 1659.26,-17.27"/>
<polygon fill="#63b8ff" stroke="#63b8ff" points="1659.31,-13.77 1649.15,-16.79 1658.97,-20.76 1659.31,-13.77"/>
</a>
</g>
</g>
<!-- Node3 -->
<g id="Node000003" class="node">
<title>Node3</title>
<g id="a_Node000003"><a xlink:title=" ">
<polygon fill="#e0e0e0" stroke="#999999" points="104.88,-24.5 60.88,-24.5 60.88,-5.5 104.88,-5.5 104.88,-24.5"/>
<text text-anchor="middle" x="82.88" y="-12.5" font-family="Helvetica,sans-Serif" font-size="10.00">string</text>
</a>
</g>
</g>
<!-- Node1&#45;&gt;Node3 -->
<g id="edge2_Node000001_Node000003" class="edge">
<title>Node1&#45;&gt;Node3</title>
<g id="a_edge2_Node000001_Node000003"><a xlink:title=" ">
<path fill="none" stroke="#63b8ff" d="M821.96,-249.92C680.45,-246.62 112.13,-225.38 5.88,-96 -14.54,-71.13 24.41,-44.68 53.99,-29.28"/>
<polygon fill="#63b8ff" stroke="#63b8ff" points="55.8,-32.29 63.17,-24.69 52.66,-26.03 55.8,-32.29"/>
</a>
</g>
</g>
<!-- Node4 -->
<g id="Node000004" class="node">
<title>Node4</title>
<g id="a_Node000004"><a xlink:title=" ">
<polygon fill="#e0e0e0" stroke="#999999" points="1871.88,-24.5 1839.88,-24.5 1839.88,-5.5 1871.88,-5.5 1871.88,-24.5"/>
<text text-anchor="middle" x="1855.88" y="-12.5" font-family="Helvetica,sans-Serif" font-size="10.00">list</text>
</a>
</g>
</g>
<!-- Node1&#45;&gt;Node4 -->
<g id="edge3_Node000001_Node000004" class="edge">
<title>Node1&#45;&gt;Node4</title>
<g id="a_edge3_Node000001_Node000004"><a xlink:title=" ">
<path fill="none" stroke="#63b8ff" d="M885.38,-250.72C989.35,-251.01 1330.78,-248.43 1608.88,-206 1809,-175.47 1926.21,-255.5 2050.88,-96 2123.9,-2.59 2063.65,-82.53 1891.88,-30 1888.51,-28.97 1885,-27.77 1881.56,-26.52"/>
<polygon fill="#63b8ff" stroke="#63b8ff" points="1882.78,-23.24 1872.19,-22.93 1880.28,-29.77 1882.78,-23.24"/>
</a>
</g>
</g>
<!-- Node5 -->
<g id="Node000005" class="node">
<title>Node5</title>
<g id="a_Node000005"><a xlink:title=" ">
<polygon fill="#e0e0e0" stroke="#999999" points="825.88,-206 773.88,-206 773.88,-187 825.88,-187 825.88,-206"/>
<text text-anchor="middle" x="799.88" y="-194" font-family="Helvetica,sans-Serif" font-size="10.00">cassert</text>
</a>
</g>
</g>
<!-- Node1&#45;&gt;Node5 -->
<g id="edge4_Node000001_Node000005" class="edge">
<title>Node1&#45;&gt;Node5</title>
<g id="a_edge4_Node000001_Node000005"><a xlink:title=" ">
<path fill="none" stroke="#63b8ff" d="M844.96,-241.75C837.1,-234.03 825.45,-222.6 815.96,-213.28"/>
<polygon fill="#63b8ff" stroke="#63b8ff" points="818.22,-210.6 808.63,-206.09 813.32,-215.59 818.22,-210.6"/>
</a>
</g>
</g>
<!-- Node6 -->
<g id="Node000006" class="node">
<title>Node6</title>
<g id="a_Node000006"><a xlink:href="libpbd__visibility_8h.html" target="_top" xlink:title=" ">
<polygon fill="white" stroke="#666666" points="923.88,-24.5 801.88,-24.5 801.88,-5.5 923.88,-5.5 923.88,-24.5"/>
<text text-anchor="middle" x="862.88" y="-12.5" font-family="Helvetica,sans-Serif" font-size="10.00">pbd/libpbd_visibility.h</text>
</a>
</g>
</g>
<!-- Node1&#45;&gt;Node6 -->
<g id="edge5_Node000001_Node000006" class="edge">
<title>Node1&#45;&gt;Node6</title>
<g id="a_edge5_Node000001_Node000006"><a xlink:title=" ">
<path fill="none" stroke="#63b8ff" d="M854.21,-241.88C855.51,-207.98 860.29,-83.43 862.14,-35.22"/>
<polygon fill="#63b8ff" stroke="#63b8ff" points="865.65,-35.08 862.54,-24.95 858.65,-34.81 865.65,-35.08"/>
</a>
</g>
</g>
<!-- Node7 -->
<g id="Node000007" class="node">
<title>Node7</title>
<g id="a_Node000007"><a xlink:href="id_8h.html" target="_top" xlink:title=" ">
<polygon fill="white" stroke="#666666" points="214.88,-90.5 158.88,-90.5 158.88,-71.5 214.88,-71.5 214.88,-90.5"/>
<text text-anchor="middle" x="186.88" y="-78.5" font-family="Helvetica,sans-Serif" font-size="10.00">pbd/id.h</text>
</a>
</g>
</g>
<!-- Node1&#45;&gt;Node7 -->
<g id="edge6_Node000001_Node000007" class="edge">
<title>Node1&#45;&gt;Node7</title>
<g id="a_edge6_Node000001_Node000007"><a xlink:title=" ">
<path fill="none" stroke="#63b8ff" d="M822.37,-244.19C729.65,-225.31 450,-166.22 223.88,-96 221.96,-95.4 220,-94.76 218.03,-94.09"/>
<polygon fill="#63b8ff" stroke="#63b8ff" points="218.84,-90.67 208.25,-90.59 216.48,-97.26 218.84,-90.67"/>
</a>
</g>
</g>
<!-- Node10 -->
<g id="Node000010" class="node">
<title>Node10</title>
<g id="a_Node000010"><a xlink:href="xml_09_09_8h.html" target="_top" xlink:title=" ">
<polygon fill="white" stroke="#666666" points="581.88,-151 499.88,-151 499.88,-132 581.88,-132 581.88,-151"/>
<text text-anchor="middle" x="540.88" y="-139" font-family="Helvetica,sans-Serif" font-size="10.00">pbd/xml++.h</text>
</a>
</g>
</g>
<!-- Node1&#45;&gt;Node10 -->
<g id="edge11_Node000001_Node000010" class="edge">
<title>Node1&#45;&gt;Node10</title>
<g id="a_edge11_Node000001_Node000010"><a xlink:title=" ">
<path fill="none" stroke="#63b8ff" d="M829.06,-241.94C773.47,-222.76 638.89,-176.32 575.28,-154.37"/>
<polygon fill="#63b8ff" stroke="#63b8ff" points="576.3,-151.02 565.7,-151.07 574.02,-157.64 576.3,-151.02"/>
</a>
</g>
</g>
<!-- Node19 -->
<g id="Node000019" class="node">
<title>Node19</title>
<g id="a_Node000019"><a xlink:href="property__basics_8h.html" target="_top" xlink:title=" ">
<polygon fill="white" stroke="#666666" points="1005.88,-206 881.88,-206 881.88,-187 1005.88,-187 1005.88,-206"/>
<text text-anchor="middle" x="943.88" y="-194" font-family="Helvetica,sans-Serif" font-size="10.00">pbd/property_basics.h</text>
</a>
</g>
</g>
<!-- Node1&#45;&gt;Node19 -->
<g id="edge25_Node000001_Node000019" class="edge">
<title>Node1&#45;&gt;Node19</title>
<g id="a_edge25_Node000001_Node000019"><a xlink:title=" ">
<path fill="none" stroke="#63b8ff" d="M868.34,-241.98C882.3,-233.77 903.67,-221.18 920.13,-211.49"/>
<polygon fill="#63b8ff" stroke="#63b8ff" points="922.32,-214.26 929.16,-206.17 918.76,-208.23 922.32,-214.26"/>
</a>
</g>
</g>
<!-- Node23 -->
<g id="Node000023" class="node">
<title>Node23</title>
<g id="a_Node000023"><a xlink:href="signals_8h.html" target="_top" xlink:title=" ">
<polygon fill="white" stroke="#666666" points="1468.38,-151 1387.38,-151 1387.38,-132 1468.38,-132 1468.38,-151"/>
<text text-anchor="middle" x="1427.88" y="-139" font-family="Helvetica,sans-Serif" font-size="10.00">pbd/signals.h</text>
</a>
</g>
</g>
<!-- Node1&#45;&gt;Node23 -->
<g id="edge32_Node000001_Node000023" class="edge">
<title>Node1&#45;&gt;Node23</title>
<g id="a_edge32_Node000001_Node000023"><a xlink:title=" ">
<path fill="none" stroke="#63b8ff" d="M885.56,-244.54C980.24,-226.73 1261.66,-173.78 1377.35,-152.01"/>
<polygon fill="#63b8ff" stroke="#63b8ff" points="1378.18,-155.41 1387.36,-150.12 1376.89,-148.53 1378.18,-155.41"/>
</a>
</g>
</g>
<!-- Node7&#45;&gt;Node3 -->
<g id="edge8_Node000007_Node000003" class="edge">
<title>Node7&#45;&gt;Node3</title>
<g id="a_edge8_Node000007_Node000003"><a xlink:title=" ">
<path fill="none" stroke="#63b8ff" d="M172.85,-71.37C155.64,-60.78 126.22,-42.67 105.73,-30.06"/>
<polygon fill="#63b8ff" stroke="#63b8ff" points="107.37,-26.96 97.02,-24.7 103.7,-32.92 107.37,-26.96"/>
</a>
</g>
</g>
<!-- Node7&#45;&gt;Node6 -->
<g id="edge10_Node000007_Node000006" class="edge">
<title>Node7&#45;&gt;Node6</title>
<g id="a_edge10_Node000007_Node000006"><a xlink:title=" ">
<path fill="none" stroke="#63b8ff" d="M206.53,-71.38C212.05,-69.29 218.12,-67.29 223.88,-66 426.22,-20.77 672.51,-14.89 791.6,-15.04"/>
<polygon fill="#63b8ff" stroke="#63b8ff" points="791.67,-18.54 801.68,-15.07 791.69,-11.54 791.67,-18.54"/>
</a>
</g>
</g>
<!-- Node8 -->
<g id="Node000008" class="node">
<title>Node8</title>
<g id="a_Node000008"><a xlink:title=" ">
<polygon fill="#e0e0e0" stroke="#999999" points="213.38,-24.5 160.38,-24.5 160.38,-5.5 213.38,-5.5 213.38,-24.5"/>
<text text-anchor="middle" x="186.88" y="-12.5" font-family="Helvetica,sans-Serif" font-size="10.00">stdint.h</text>
</a>
</g>
</g>
<!-- Node7&#45;&gt;Node8 -->
<g id="edge7_Node000007_Node000008" class="edge">
<title>Node7&#45;&gt;Node8</title>
<g id="a_edge7_Node000007_Node000008"><a xlink:title=" ">
<path fill="none" stroke="#63b8ff" d="M186.88,-71.37C186.88,-62.16 186.88,-47.29 186.88,-35.27"/>
<polygon fill="#63b8ff" stroke="#63b8ff" points="190.38,-34.91 186.88,-24.91 183.38,-34.91 190.38,-34.91"/>
</a>
</g>
</g>
<!-- Node9 -->
<g id="Node000009" class="node">
<title>Node9</title>
<g id="a_Node000009"><a xlink:title=" ">
<polygon fill="#e0e0e0" stroke="#999999" points="1207.38,-24.5 1104.38,-24.5 1104.38,-5.5 1207.38,-5.5 1207.38,-24.5"/>
<text text-anchor="middle" x="1155.88" y="-12.5" font-family="Helvetica,sans-Serif" font-size="10.00">glibmm/threads.h</text>
</a>
</g>
</g>
<!-- Node7&#45;&gt;Node9 -->
<g id="edge9_Node000007_Node000009" class="edge">
<title>Node7&#45;&gt;Node9</title>
<g id="a_edge9_Node000007_Node000009"><a xlink:title=" ">
<path fill="none" stroke="#63b8ff" d="M206.12,-71.39C211.74,-69.24 217.96,-67.21 223.88,-66 599.99,10.91 705.79,-76.31 1086.88,-30 1094.14,-29.12 1101.77,-27.88 1109.21,-26.51"/>
<polygon fill="#63b8ff" stroke="#63b8ff" points="1110.02,-29.92 1119.17,-24.57 1108.69,-23.05 1110.02,-29.92"/>
</a>
</g>
</g>
<!-- Node10&#45;&gt;Node3 -->
<g id="edge15_Node000010_Node000003" class="edge">
<title>Node10&#45;&gt;Node3</title>
<g id="a_edge15_Node000010_Node000003"><a xlink:title=" ">
<path fill="none" stroke="#63b8ff" d="M499.69,-140.14C381.63,-138.67 48.41,-131.4 15.88,-96 -4.73,-73.57 30.65,-46.08 57.35,-29.87"/>
<polygon fill="#63b8ff" stroke="#63b8ff" points="59.46,-32.69 66.33,-24.63 55.93,-26.64 59.46,-32.69"/>
</a>
</g>
</g>
<!-- Node10&#45;&gt;Node6 -->
<g id="edge24_Node000010_Node000006" class="edge">
<title>Node10&#45;&gt;Node6</title>
<g id="a_edge24_Node000010_Node000006"><a xlink:title=" ">
<path fill="none" stroke="#63b8ff" d="M581.96,-137.67C627.1,-133.31 700.91,-122.48 758.88,-96 768.32,-91.69 817.04,-52.96 844.32,-31.01"/>
<polygon fill="#63b8ff" stroke="#63b8ff" points="846.76,-33.54 852.35,-24.54 842.36,-28.09 846.76,-33.54"/>
</a>
</g>
</g>
<!-- Node11 -->
<g id="Node000011" class="node">
<title>Node11</title>
<g id="a_Node000011"><a xlink:title=" ">
<polygon fill="#e0e0e0" stroke="#999999" points="286.38,-90.5 233.38,-90.5 233.38,-71.5 286.38,-71.5 286.38,-90.5"/>
<text text-anchor="middle" x="259.88" y="-78.5" font-family="Helvetica,sans-Serif" font-size="10.00">cstdarg</text>
</a>
</g>
</g>
<!-- Node10&#45;&gt;Node11 -->
<g id="edge12_Node000010_Node000011" class="edge">
<title>Node10&#45;&gt;Node11</title>
<g id="a_edge12_Node000010_Node000011"><a xlink:title=" ">
<path fill="none" stroke="#63b8ff" d="M499.58,-135.46C450.44,-128.89 366.19,-115.86 295.88,-96 293.73,-95.39 291.53,-94.71 289.33,-93.97"/>
<polygon fill="#63b8ff" stroke="#63b8ff" points="290.43,-90.65 279.83,-90.54 288.05,-97.23 290.43,-90.65"/>
</a>
</g>
</g>
<!-- Node12 -->
<g id="Node000012" class="node">
<title>Node12</title>
<g id="a_Node000012"><a xlink:title=" ">
<polygon fill="#e0e0e0" stroke="#999999" points="350.88,-90.5 304.88,-90.5 304.88,-71.5 350.88,-71.5 350.88,-90.5"/>
<text text-anchor="middle" x="327.88" y="-78.5" font-family="Helvetica,sans-Serif" font-size="10.00">cstdio</text>
</a>
</g>
</g>
<!-- Node10&#45;&gt;Node12 -->
<g id="edge13_Node000010_Node000012" class="edge">
<title>Node10&#45;&gt;Node12</title>
<g id="a_edge13_Node000010_Node000012"><a xlink:title=" ">
<path fill="none" stroke="#63b8ff" d="M499.69,-132.48C462.63,-124.77 406.92,-111.94 359.88,-96 358.44,-95.51 356.98,-94.99 355.52,-94.44"/>
<polygon fill="#63b8ff" stroke="#63b8ff" points="356.52,-91.07 345.94,-90.55 353.89,-97.55 356.52,-91.07"/>
</a>
</g>
</g>
<!-- Node13 -->
<g id="Node000013" class="node">
<title>Node13</title>
<g id="a_Node000013"><a xlink:title=" ">
<polygon fill="#e0e0e0" stroke="#999999" points="426.88,-90.5 368.88,-90.5 368.88,-71.5 426.88,-71.5 426.88,-90.5"/>
<text text-anchor="middle" x="397.88" y="-78.5" font-family="Helvetica,sans-Serif" font-size="10.00">memory</text>
</a>
</g>
</g>
<!-- Node10&#45;&gt;Node13 -->
<g id="edge14_Node000010_Node000013" class="edge">
<title>Node10&#45;&gt;Node13</title>
<g id="a_edge14_Node000010_Node000013"><a xlink:title=" ">
<path fill="none" stroke="#63b8ff" d="M520.09,-131.99C495.94,-122.12 455.9,-105.73 428.26,-94.43"/>
<polygon fill="#63b8ff" stroke="#63b8ff" points="429.28,-91.06 418.7,-90.52 426.63,-97.54 429.28,-91.06"/>
</a>
</g>
</g>
<!-- Node14 -->
<g id="Node000014" class="node">
<title>Node14</title>
<g id="a_Node000014"><a xlink:title=" ">
<polygon fill="#e0e0e0" stroke="#999999" points="989.38,-24.5 942.38,-24.5 942.38,-5.5 989.38,-5.5 989.38,-24.5"/>
<text text-anchor="middle" x="965.88" y="-12.5" font-family="Helvetica,sans-Serif" font-size="10.00">vector</text>
</a>
</g>
</g>
<!-- Node10&#45;&gt;Node14 -->
<g id="edge16_Node000010_Node000014" class="edge">
<title>Node10&#45;&gt;Node14</title>
<g id="a_edge16_Node000010_Node000014"><a xlink:title=" ">
<path fill="none" stroke="#63b8ff" d="M582.25,-136.51C632.82,-130.88 720.6,-118.67 792.88,-96 848.34,-78.6 909.14,-47.41 941.85,-29.55"/>
<polygon fill="#63b8ff" stroke="#63b8ff" points="943.61,-32.57 950.68,-24.68 940.23,-26.45 943.61,-32.57"/>
</a>
</g>
</g>
<!-- Node15 -->
<g id="Node000015" class="node">
<title>Node15</title>
<g id="a_Node000015"><a xlink:title=" ">
<polygon fill="#e0e0e0" stroke="#999999" points="534.38,-90.5 445.38,-90.5 445.38,-71.5 534.38,-71.5 534.38,-90.5"/>
<text text-anchor="middle" x="489.88" y="-78.5" font-family="Helvetica,sans-Serif" font-size="10.00">libxml/parser.h</text>
</a>
</g>
</g>
<!-- Node10&#45;&gt;Node15 -->
<g id="edge17_Node000010_Node000015" class="edge">
<title>Node10&#45;&gt;Node15</title>
<g id="a_edge17_Node000010_Node000015"><a xlink:title=" ">
<path fill="none" stroke="#63b8ff" d="M533.35,-131.87C525.67,-123.05 513.56,-109.16 504.07,-98.27"/>
<polygon fill="#63b8ff" stroke="#63b8ff" points="506.65,-95.91 497.44,-90.67 501.37,-100.51 506.65,-95.91"/>
</a>
</g>
</g>
<!-- Node16 -->
<g id="Node000016" class="node">
<title>Node16</title>
<g id="a_Node000016"><a xlink:title=" ">
<polygon fill="#e0e0e0" stroke="#999999" points="631.38,-90.5 552.38,-90.5 552.38,-71.5 631.38,-71.5 631.38,-90.5"/>
<text text-anchor="middle" x="591.88" y="-78.5" font-family="Helvetica,sans-Serif" font-size="10.00">libxml/tree.h</text>
</a>
</g>
</g>
<!-- Node10&#45;&gt;Node16 -->
<g id="edge18_Node000010_Node000016" class="edge">
<title>Node10&#45;&gt;Node16</title>
<g id="a_edge18_Node000010_Node000016"><a xlink:title=" ">
<path fill="none" stroke="#63b8ff" d="M548.4,-131.87C556.09,-123.05 568.2,-109.16 577.69,-98.27"/>
<polygon fill="#63b8ff" stroke="#63b8ff" points="580.39,-100.51 584.32,-90.67 575.11,-95.91 580.39,-100.51"/>
</a>
</g>
</g>
<!-- Node17 -->
<g id="Node000017" class="node">
<title>Node17</title>
<g id="a_Node000017"><a xlink:title=" ">
<polygon fill="#e0e0e0" stroke="#999999" points="749.88,-90.5 649.88,-90.5 649.88,-71.5 749.88,-71.5 749.88,-90.5"/>
<text text-anchor="middle" x="699.88" y="-78.5" font-family="Helvetica,sans-Serif" font-size="10.00">glibmm/ustring.h</text>
</a>
</g>
</g>
<!-- Node10&#45;&gt;Node17 -->
<g id="edge19_Node000010_Node000017" class="edge">
<title>Node10&#45;&gt;Node17</title>
<g id="a_edge19_Node000010_Node000017"><a xlink:title=" ">
<path fill="none" stroke="#63b8ff" d="M564,-131.99C591.2,-121.99 636.55,-105.3 667.3,-93.99"/>
<polygon fill="#63b8ff" stroke="#63b8ff" points="668.56,-97.25 676.73,-90.52 666.14,-90.68 668.56,-97.25"/>
</a>
</g>
</g>
<!-- Node18 -->
<g id="Node000018" class="node">
<title>Node18</title>
<g id="a_Node000018"><a xlink:href="string__convert_8h.html" target="_top" xlink:title=" ">
<polygon fill="white" stroke="#666666" points="140.88,-90.5 24.88,-90.5 24.88,-71.5 140.88,-71.5 140.88,-90.5"/>
<text text-anchor="middle" x="82.88" y="-78.5" font-family="Helvetica,sans-Serif" font-size="10.00">pbd/string_convert.h</text>
</a>
</g>
</g>
<!-- Node10&#45;&gt;Node18 -->
<g id="edge20_Node000010_Node000018" class="edge">
<title>Node10&#45;&gt;Node18</title>
<g id="a_edge20_Node000010_Node000018"><a xlink:title=" ">
<path fill="none" stroke="#63b8ff" d="M499.61,-137.07C428.12,-130.85 276.69,-116.42 149.88,-96 143.64,-95 137.11,-93.8 130.67,-92.55"/>
<polygon fill="#63b8ff" stroke="#63b8ff" points="131.17,-89.08 120.68,-90.54 129.79,-95.94 131.17,-89.08"/>
</a>
</g>
</g>
<!-- Node18&#45;&gt;Node3 -->
<g id="edge21_Node000018_Node000003" class="edge">
<title>Node18&#45;&gt;Node3</title>
<g id="a_edge21_Node000018_Node000003"><a xlink:title=" ">
<path fill="none" stroke="#63b8ff" d="M82.88,-71.37C82.88,-62.16 82.88,-47.29 82.88,-35.27"/>
<polygon fill="#63b8ff" stroke="#63b8ff" points="86.38,-34.91 82.88,-24.91 79.38,-34.91 86.38,-34.91"/>
</a>
</g>
</g>
<!-- Node18&#45;&gt;Node6 -->
<g id="edge23_Node000018_Node000006" class="edge">
<title>Node18&#45;&gt;Node6</title>
<g id="a_edge23_Node000018_Node000006"><a xlink:title=" ">
<path fill="none" stroke="#63b8ff" d="M119.23,-71.47C129.13,-69.4 139.87,-67.39 149.88,-66 383.23,-33.59 662.63,-21.75 791.42,-17.8"/>
<polygon fill="#63b8ff" stroke="#63b8ff" points="791.66,-21.29 801.55,-17.49 791.45,-14.3 791.66,-21.29"/>
</a>
</g>
</g>
<!-- Node18&#45;&gt;Node8 -->
<g id="edge22_Node000018_Node000008" class="edge">
<title>Node18&#45;&gt;Node8</title>
<g id="a_edge22_Node000018_Node000008"><a xlink:title=" ">
<path fill="none" stroke="#63b8ff" d="M96.91,-71.37C114.12,-60.78 143.54,-42.67 164.03,-30.06"/>
<polygon fill="#63b8ff" stroke="#63b8ff" points="166.06,-32.92 172.74,-24.7 162.39,-26.96 166.06,-32.92"/>
</a>
</g>
</g>
<!-- Node19&#45;&gt;Node6 -->
<g id="edge30_Node000019_Node000006" class="edge">
<title>Node19&#45;&gt;Node6</title>
<g id="a_edge30_Node000019_Node000006"><a xlink:title=" ">
<path fill="none" stroke="#63b8ff" d="M939.97,-186.84C927.44,-159.06 888.05,-71.77 870.94,-33.86"/>
<polygon fill="#63b8ff" stroke="#63b8ff" points="874.05,-32.25 866.75,-24.57 867.67,-35.13 874.05,-32.25"/>
</a>
</g>
</g>
<!-- Node19&#45;&gt;Node10 -->
<g id="edge31_Node000019_Node000010" class="edge">
<title>Node19&#45;&gt;Node10</title>
<g id="a_edge31_Node000019_Node000010"><a xlink:title=" ">
<path fill="none" stroke="#63b8ff" d="M881.79,-187.33C802.3,-176.88 666.01,-158.96 592.12,-149.24"/>
<polygon fill="#63b8ff" stroke="#63b8ff" points="592.5,-145.76 582.12,-147.92 591.58,-152.7 592.5,-145.76"/>
</a>
</g>
</g>
<!-- Node19&#45;&gt;Node14 -->
<g id="edge28_Node000019_Node000014" class="edge">
<title>Node19&#45;&gt;Node14</title>
<g id="a_edge28_Node000019_Node000014"><a xlink:title=" ">
<path fill="none" stroke="#63b8ff" d="M944.94,-186.84C948.32,-159.3 958.86,-73.26 963.57,-34.84"/>
<polygon fill="#63b8ff" stroke="#63b8ff" points="967.09,-34.92 964.83,-24.57 960.14,-34.07 967.09,-34.92"/>
</a>
</g>
</g>
<!-- Node20 -->
<g id="Node000020" class="node">
<title>Node20</title>
<g id="a_Node000020"><a xlink:title=" ">
<polygon fill="#e0e0e0" stroke="#999999" points="1197.88,-151 1153.88,-151 1153.88,-132 1197.88,-132 1197.88,-151"/>
<text text-anchor="middle" x="1175.88" y="-139" font-family="Helvetica,sans-Serif" font-size="10.00">glib.h</text>
</a>
</g>
</g>
<!-- Node19&#45;&gt;Node20 -->
<g id="edge26_Node000019_Node000020" class="edge">
<title>Node19&#45;&gt;Node20</title>
<g id="a_edge26_Node000019_Node000020"><a xlink:title=" ">
<path fill="none" stroke="#63b8ff" d="M981.84,-186.98C1021.34,-178.1 1084.98,-163.71 1139.88,-151 1141.15,-150.71 1142.44,-150.41 1143.74,-150.1"/>
<polygon fill="#63b8ff" stroke="#63b8ff" points="1144.86,-153.43 1153.8,-147.74 1143.27,-146.62 1144.86,-153.43"/>
</a>
</g>
</g>
<!-- Node21 -->
<g id="Node000021" class="node">
<title>Node21</title>
<g id="a_Node000021"><a xlink:title=" ">
<polygon fill="#e0e0e0" stroke="#999999" points="1247.88,-151 1215.88,-151 1215.88,-132 1247.88,-132 1247.88,-151"/>
<text text-anchor="middle" x="1231.88" y="-139" font-family="Helvetica,sans-Serif" font-size="10.00">set</text>
</a>
</g>
</g>
<!-- Node19&#45;&gt;Node21 -->
<g id="edge27_Node000019_Node000021" class="edge">
<title>Node19&#45;&gt;Node21</title>
<g id="a_edge27_Node000019_Node000021"><a xlink:title=" ">
<path fill="none" stroke="#63b8ff" d="M1006.1,-187.83C1057.46,-180.86 1132.32,-169.2 1205.95,-150.88"/>
<polygon fill="#63b8ff" stroke="#63b8ff" points="1207.02,-154.22 1215.86,-148.37 1205.3,-147.43 1207.02,-154.22"/>
</a>
</g>
</g>
<!-- Node22 -->
<g id="Node000022" class="node">
<title>Node22</title>
<g id="a_Node000022"><a xlink:title=" ">
<polygon fill="#e0e0e0" stroke="#999999" points="1400.38,-24.5 1343.38,-24.5 1343.38,-5.5 1400.38,-5.5 1400.38,-24.5"/>
<text text-anchor="middle" x="1371.88" y="-12.5" font-family="Helvetica,sans-Serif" font-size="10.00">ostream</text>
</a>
</g>
</g>
<!-- Node19&#45;&gt;Node22 -->
<g id="edge29_Node000019_Node000022" class="edge">
<title>Node19&#45;&gt;Node22</title>
<g id="a_edge29_Node000019_Node000022"><a xlink:title=" ">
<path fill="none" stroke="#63b8ff" d="M957.07,-186.88C992.34,-164.16 1092.29,-101.93 1182.88,-66 1233.42,-45.96 1294.71,-31.42 1333.51,-23.35"/>
<polygon fill="#63b8ff" stroke="#63b8ff" points="1334.25,-26.77 1343.35,-21.34 1332.85,-19.91 1334.25,-26.77"/>
</a>
</g>
</g>
<!-- Node23&#45;&gt;Node2 -->
<g id="edge36_Node000023_Node000002" class="edge">
<title>Node23&#45;&gt;Node2</title>
<g id="a_edge36_Node000023_Node000002"><a xlink:title=" ">
<path fill="none" stroke="#63b8ff" d="M1468.51,-135.16C1498.85,-129.53 1540.05,-118.23 1569.88,-96 1591.55,-79.86 1607.34,-52.31 1616.07,-34.13"/>
<polygon fill="#63b8ff" stroke="#63b8ff" points="1619.31,-35.45 1620.28,-24.9 1612.95,-32.54 1619.31,-35.45"/>
</a>
</g>
</g>
<!-- Node23&#45;&gt;Node4 -->
<g id="edge34_Node000023_Node000004" class="edge">
<title>Node23&#45;&gt;Node4</title>
<g id="a_edge34_Node000023_Node000004"><a xlink:title=" ">
<path fill="none" stroke="#63b8ff" d="M1468.63,-138.7C1566.66,-134.01 1809.6,-120.07 1836.88,-96 1854.08,-80.83 1857.17,-53.19 1857.09,-34.71"/>
<polygon fill="#63b8ff" stroke="#63b8ff" points="1860.59,-34.45 1856.73,-24.58 1853.59,-34.7 1860.59,-34.45"/>
</a>
</g>
</g>
<!-- Node23&#45;&gt;Node6 -->
<g id="edge41_Node000023_Node000006" class="edge">
<title>Node23&#45;&gt;Node6</title>
<g id="a_edge41_Node000023_Node000006"><a xlink:title=" ">
<path fill="none" stroke="#63b8ff" d="M1387.08,-138.82C1292.4,-134.54 1060.23,-121.68 986.88,-96 945.07,-81.36 903.17,-50 880.38,-31.19"/>
<polygon fill="#63b8ff" stroke="#63b8ff" points="882.52,-28.41 872.61,-24.65 878.01,-33.77 882.52,-28.41"/>
</a>
</g>
</g>
<!-- Node23&#45;&gt;Node9 -->
<g id="edge37_Node000023_Node000009" class="edge">
<title>Node23&#45;&gt;Node9</title>
<g id="a_edge37_Node000023_Node000009"><a xlink:title=" ">
<path fill="none" stroke="#63b8ff" d="M1387.28,-138.05C1325.76,-133.55 1212.89,-121.93 1182.88,-96 1165.06,-80.6 1158.97,-53.03 1156.91,-34.62"/>
<polygon fill="#63b8ff" stroke="#63b8ff" points="1160.39,-34.21 1156.08,-24.53 1153.41,-34.79 1160.39,-34.21"/>
</a>
</g>
</g>
<!-- Node24 -->
<g id="Node000024" class="node">
<title>Node24</title>
<g id="a_Node000024"><a xlink:title=" ">
<polygon fill="#e0e0e0" stroke="#999999" points="1243.38,-90.5 1192.38,-90.5 1192.38,-71.5 1243.38,-71.5 1243.38,-90.5"/>
<text text-anchor="middle" x="1217.88" y="-78.5" font-family="Helvetica,sans-Serif" font-size="10.00">csignal</text>
</a>
</g>
</g>
<!-- Node23&#45;&gt;Node24 -->
<g id="edge33_Node000023_Node000024" class="edge">
<title>Node23&#45;&gt;Node24</title>
<g id="a_edge33_Node000023_Node000024"><a xlink:title=" ">
<path fill="none" stroke="#63b8ff" d="M1391.82,-131.96C1357.25,-123.56 1303.69,-109.99 1257.88,-96 1255.62,-95.31 1253.3,-94.58 1250.98,-93.81"/>
<polygon fill="#63b8ff" stroke="#63b8ff" points="1252.06,-90.49 1241.46,-90.61 1249.82,-97.12 1252.06,-90.49"/>
</a>
</g>
</g>
<!-- Node25 -->
<g id="Node000025" class="node">
<title>Node25</title>
<g id="a_Node000025"><a xlink:title=" ">
<polygon fill="#e0e0e0" stroke="#999999" points="1277.88,-24.5 1239.88,-24.5 1239.88,-5.5 1277.88,-5.5 1277.88,-24.5"/>
<text text-anchor="middle" x="1258.88" y="-12.5" font-family="Helvetica,sans-Serif" font-size="10.00">map</text>
</a>
</g>
</g>
<!-- Node23&#45;&gt;Node25 -->
<g id="edge35_Node000023_Node000025" class="edge">
<title>Node23&#45;&gt;Node25</title>
<g id="a_edge35_Node000023_Node000025"><a xlink:title=" ">
<path fill="none" stroke="#63b8ff" d="M1387.26,-136.53C1357.24,-131.61 1317.18,-120.6 1290.88,-96 1273.51,-79.75 1265.37,-52.82 1261.7,-34.75"/>
<polygon fill="#63b8ff" stroke="#63b8ff" points="1265.13,-34.06 1259.95,-24.82 1258.24,-35.28 1265.13,-34.06"/>
</a>
</g>
</g>
<!-- Node26 -->
<g id="Node000026" class="node">
<title>Node26</title>
<g id="a_Node000026"><a xlink:title=" ">
<polygon fill="#e0e0e0" stroke="#999999" points="1425.88,-90.5 1299.88,-90.5 1299.88,-71.5 1425.88,-71.5 1425.88,-90.5"/>
<text text-anchor="middle" x="1362.88" y="-78.5" font-family="Helvetica,sans-Serif" font-size="10.00">boost/bind/protect.hpp</text>
</a>
</g>
</g>
<!-- Node23&#45;&gt;Node26 -->
<g id="edge38_Node000023_Node000026" class="edge">
<title>Node23&#45;&gt;Node26</title>
<g id="a_edge38_Node000023_Node000026"><a xlink:title=" ">
<path fill="none" stroke="#63b8ff" d="M1418.29,-131.87C1408.3,-122.88 1392.45,-108.61 1380.25,-97.64"/>
<polygon fill="#63b8ff" stroke="#63b8ff" points="1382.28,-94.76 1372.51,-90.67 1377.6,-99.96 1382.28,-94.76"/>
</a>
</g>
</g>
<!-- Node27 -->
<g id="Node000027" class="node">
<title>Node27</title>
<g id="a_Node000027"><a xlink:title=" ">
<polygon fill="#e0e0e0" stroke="#999999" points="1753.88,-96 1635.88,-96 1635.88,-66 1753.88,-66 1753.88,-96"/>
<text text-anchor="start" x="1643.88" y="-84" font-family="Helvetica,sans-Serif" font-size="10.00">boost/enable_shared</text>
<text text-anchor="middle" x="1694.88" y="-73" font-family="Helvetica,sans-Serif" font-size="10.00">_from_this.hpp</text>
</a>
</g>
</g>
<!-- Node23&#45;&gt;Node27 -->
<g id="edge39_Node000023_Node000027" class="edge">
<title>Node23&#45;&gt;Node27</title>
<g id="a_edge39_Node000023_Node000027"><a xlink:title=" ">
<path fill="none" stroke="#63b8ff" d="M1466.7,-131.99C1508.33,-122.87 1575.26,-108.21 1625.89,-97.12"/>
<polygon fill="#63b8ff" stroke="#63b8ff" points="1626.77,-100.51 1635.79,-94.95 1625.27,-93.67 1626.77,-100.51"/>
</a>
</g>
</g>
<!-- Node28 -->
<g id="Node000028" class="node">
<title>Node28</title>
<g id="a_Node000028"><a xlink:title=" ">
<polygon fill="#e0e0e0" stroke="#999999" points="1827.88,-90.5 1771.88,-90.5 1771.88,-71.5 1827.88,-71.5 1827.88,-90.5"/>
<text text-anchor="middle" x="1799.88" y="-78.5" font-family="Helvetica,sans-Serif" font-size="10.00">optional</text>
</a>
</g>
</g>
<!-- Node23&#45;&gt;Node28 -->
<g id="edge40_Node000023_Node000028" class="edge">
<title>Node23&#45;&gt;Node28</title>
<g id="a_edge40_Node000023_Node000028"><a xlink:title=" ">
<path fill="none" stroke="#63b8ff" d="M1468.41,-138.13C1531.97,-133.74 1658.63,-122.28 1762.88,-96 1765.33,-95.38 1767.83,-94.65 1770.33,-93.86"/>
<polygon fill="#63b8ff" stroke="#63b8ff" points="1771.5,-97.16 1779.79,-90.56 1769.2,-90.55 1771.5,-97.16"/>
</a>
</g>
</g>
<!-- Node29 -->
<g id="Node000029" class="node">
<title>Node29</title>
<g id="a_Node000029"><a xlink:href="event__loop_8h.html" target="_top" xlink:title=" ">
<polygon fill="white" stroke="#666666" points="1097.38,-90.5 996.38,-90.5 996.38,-71.5 1097.38,-71.5 1097.38,-90.5"/>
<text text-anchor="middle" x="1046.88" y="-78.5" font-family="Helvetica,sans-Serif" font-size="10.00">pbd/event_loop.h</text>
</a>
</g>
</g>
<!-- Node23&#45;&gt;Node29 -->
<g id="edge42_Node000023_Node000029" class="edge">
<title>Node23&#45;&gt;Node29</title>
<g id="a_edge42_Node000023_Node000029"><a xlink:title=" ">
<path fill="none" stroke="#63b8ff" d="M1387.11,-134.24C1320.05,-123.94 1186.12,-103.38 1107.79,-91.35"/>
<polygon fill="#63b8ff" stroke="#63b8ff" points="1108,-87.84 1097.58,-89.79 1106.94,-94.76 1108,-87.84"/>
</a>
</g>
</g>
<!-- Node31 -->
<g id="Node000031" class="node">
<title>Node31</title>
<g id="a_Node000031"><a xlink:href="stack__allocator_8h.html" target="_top" xlink:title=" ">
<polygon fill="white" stroke="#666666" points="2041.88,-90.5 1921.88,-90.5 1921.88,-71.5 2041.88,-71.5 2041.88,-90.5"/>
<text text-anchor="middle" x="1981.88" y="-78.5" font-family="Helvetica,sans-Serif" font-size="10.00">pbd/stack_allocator.h</text>
</a>
</g>
</g>
<!-- Node23&#45;&gt;Node31 -->
<g id="edge51_Node000023_Node000031" class="edge">
<title>Node23&#45;&gt;Node31</title>
<g id="a_edge51_Node000023_Node000031"><a xlink:title=" ">
<path fill="none" stroke="#63b8ff" d="M1468.44,-136.75C1546.31,-129.46 1722.16,-112.67 1869.88,-96 1883.43,-94.47 1897.9,-92.74 1911.77,-91.03"/>
<polygon fill="#63b8ff" stroke="#63b8ff" points="1912.26,-94.49 1921.75,-89.79 1911.4,-87.55 1912.26,-94.49"/>
</a>
</g>
</g>
<!-- Node34 -->
<g id="Node000034" class="node">
<title>Node34</title>
<g id="a_Node000034"><a xlink:href="stacktrace_8h.html" target="_top" xlink:title=" ">
<polygon fill="white" stroke="#666666" points="1541.88,-90.5 1443.88,-90.5 1443.88,-71.5 1541.88,-71.5 1541.88,-90.5"/>
<text text-anchor="middle" x="1492.88" y="-78.5" font-family="Helvetica,sans-Serif" font-size="10.00">pbd/stacktrace.h</text>
</a>
</g>
</g>
<!-- Node23&#45;&gt;Node34 -->
<g id="edge55_Node000023_Node000034" class="edge">
<title>Node23&#45;&gt;Node34</title>
<g id="a_edge55_Node000023_Node000034"><a xlink:title=" ">
<path fill="none" stroke="#63b8ff" d="M1437.47,-131.87C1447.46,-122.88 1463.31,-108.61 1475.51,-97.64"/>
<polygon fill="#63b8ff" stroke="#63b8ff" points="1478.16,-99.96 1483.25,-90.67 1473.47,-94.76 1478.16,-99.96"/>
</a>
</g>
</g>
<!-- Node36 -->
<g id="Node000036" class="node">
<title>Node36</title>
<g id="a_Node000036"><a xlink:title=" ">
<polygon fill="#e0e0e0" stroke="#999999" points="1580.88,-24.5 1520.88,-24.5 1520.88,-5.5 1580.88,-5.5 1580.88,-24.5"/>
<text text-anchor="middle" x="1550.88" y="-12.5" font-family="Helvetica,sans-Serif" font-size="10.00">iostream</text>
</a>
</g>
</g>
<!-- Node23&#45;&gt;Node36 -->
<g id="edge62_Node000023_Node000036" class="edge">
<title>Node23&#45;&gt;Node36</title>
<g id="a_edge62_Node000023_Node000036"><a xlink:title=" ">
<path fill="none" stroke="#63b8ff" d="M1468.61,-137.54C1496.79,-133.13 1532.42,-122.3 1550.88,-96 1563.38,-78.19 1560.58,-52.21 1556.52,-34.74"/>
<polygon fill="#63b8ff" stroke="#63b8ff" points="1559.79,-33.41 1553.83,-24.65 1553.03,-35.22 1559.79,-33.41"/>
</a>
</g>
</g>
<!-- Node29&#45;&gt;Node2 -->
<g id="edge43_Node000029_Node000002" class="edge">
<title>Node29&#45;&gt;Node2</title>
<g id="a_edge43_Node000029_Node000002"><a xlink:title=" ">
<path fill="none" stroke="#63b8ff" d="M1097.56,-74.61C1123.13,-71.93 1154.64,-68.7 1182.88,-66 1363.65,-48.7 1413.46,-73.06 1589.88,-30 1592.05,-29.47 1594.25,-28.83 1596.45,-28.11"/>
<polygon fill="#63b8ff" stroke="#63b8ff" points="1597.72,-31.37 1605.87,-24.6 1595.28,-24.81 1597.72,-31.37"/>
</a>
</g>
</g>
<!-- Node29&#45;&gt;Node3 -->
<g id="edge44_Node000029_Node000003" class="edge">
<title>Node29&#45;&gt;Node3</title>
<g id="a_edge44_Node000029_Node000003"><a xlink:title=" ">
<path fill="none" stroke="#63b8ff" d="M996.3,-77.38C813.12,-67.88 192.98,-35.48 150.88,-30 139.07,-28.46 126.26,-26.03 114.97,-23.62"/>
<polygon fill="#63b8ff" stroke="#63b8ff" points="115.62,-20.18 105.1,-21.44 114.11,-27.01 115.62,-20.18"/>
</a>
</g>
</g>
<!-- Node29&#45;&gt;Node6 -->
<g id="edge50_Node000029_Node000006" class="edge">
<title>Node29&#45;&gt;Node6</title>
<g id="a_edge50_Node000029_Node000006"><a xlink:title=" ">
<path fill="none" stroke="#63b8ff" d="M1022.06,-71.37C989.88,-60.17 933.56,-40.58 897.26,-27.96"/>
<polygon fill="#63b8ff" stroke="#63b8ff" points="898.19,-24.58 887.59,-24.6 895.89,-31.19 898.19,-24.58"/>
</a>
</g>
</g>
<!-- Node29&#45;&gt;Node8 -->
<g id="edge47_Node000029_Node000008" class="edge">
<title>Node29&#45;&gt;Node8</title>
<g id="a_edge47_Node000029_Node000008"><a xlink:title=" ">
<path fill="none" stroke="#63b8ff" d="M996.29,-76.24C839.07,-64.53 361.26,-28.98 224.07,-18.77"/>
<polygon fill="#63b8ff" stroke="#63b8ff" points="223.92,-15.25 213.69,-18 223.4,-22.23 223.92,-15.25"/>
</a>
</g>
</g>
<!-- Node29&#45;&gt;Node9 -->
<g id="edge49_Node000029_Node000009" class="edge">
<title>Node29&#45;&gt;Node9</title>
<g id="a_edge49_Node000029_Node000009"><a xlink:title=" ">
<path fill="none" stroke="#63b8ff" d="M1061.58,-71.37C1079.7,-60.73 1110.73,-42.51 1132.22,-29.89"/>
<polygon fill="#63b8ff" stroke="#63b8ff" points="1134.21,-32.78 1141.06,-24.7 1130.67,-26.74 1134.21,-32.78"/>
</a>
</g>
</g>
<!-- Node29&#45;&gt;Node14 -->
<g id="edge45_Node000029_Node000014" class="edge">
<title>Node29&#45;&gt;Node14</title>
<g id="a_edge45_Node000029_Node000014"><a xlink:title=" ">
<path fill="none" stroke="#63b8ff" d="M1035.96,-71.37C1022.91,-61.06 1000.87,-43.65 984.98,-31.09"/>
<polygon fill="#63b8ff" stroke="#63b8ff" points="986.91,-28.15 976.89,-24.7 982.57,-33.64 986.91,-28.15"/>
</a>
</g>
</g>
<!-- Node29&#45;&gt;Node25 -->
<g id="edge46_Node000029_Node000025" class="edge">
<title>Node29&#45;&gt;Node25</title>
<g id="a_edge46_Node000029_Node000025"><a xlink:title=" ">
<path fill="none" stroke="#63b8ff" d="M1076.57,-71.48C1110.37,-61.72 1167.23,-45.11 1215.88,-30 1220.39,-28.6 1225.15,-27.08 1229.8,-25.59"/>
<polygon fill="#63b8ff" stroke="#63b8ff" points="1231.22,-28.8 1239.65,-22.38 1229.06,-22.15 1231.22,-28.8"/>
</a>
</g>
</g>
<!-- Node30 -->
<g id="Node000030" class="node">
<title>Node30</title>
<g id="a_Node000030"><a xlink:title=" ">
<polygon fill="#e0e0e0" stroke="#999999" points="1078.38,-24.5 1015.38,-24.5 1015.38,-5.5 1078.38,-5.5 1078.38,-24.5"/>
<text text-anchor="middle" x="1046.88" y="-12.5" font-family="Helvetica,sans-Serif" font-size="10.00">pthread.h</text>
</a>
</g>
</g>
<!-- Node29&#45;&gt;Node30 -->
<g id="edge48_Node000029_Node000030" class="edge">
<title>Node29&#45;&gt;Node30</title>
<g id="a_edge48_Node000029_Node000030"><a xlink:title=" ">
<path fill="none" stroke="#63b8ff" d="M1046.88,-71.37C1046.88,-62.16 1046.88,-47.29 1046.88,-35.27"/>
<polygon fill="#63b8ff" stroke="#63b8ff" points="1050.38,-34.91 1046.88,-24.91 1043.38,-34.91 1050.38,-34.91"/>
</a>
</g>
</g>
<!-- Node31&#45;&gt;Node6 -->
<g id="edge54_Node000031_Node000006" class="edge">
<title>Node31&#45;&gt;Node6</title>
<g id="a_edge54_Node000031_Node000006"><a xlink:title=" ">
<path fill="none" stroke="#63b8ff" d="M1921.62,-73.41C1895.59,-70.77 1864.76,-67.9 1836.88,-66 1435.71,-38.67 1332.15,-77.58 932.88,-30 925.35,-29.1 917.42,-27.83 909.71,-26.42"/>
<polygon fill="#63b8ff" stroke="#63b8ff" points="910.24,-22.96 899.76,-24.51 908.92,-29.84 910.24,-22.96"/>
</a>
</g>
</g>
<!-- Node32 -->
<g id="Node000032" class="node">
<title>Node32</title>
<g id="a_Node000032"><a xlink:title=" ">
<polygon fill="#e0e0e0" stroke="#999999" points="2038.88,-30 1900.88,-30 1900.88,0 2038.88,0 2038.88,-30"/>
<text text-anchor="start" x="1908.88" y="-18" font-family="Helvetica,sans-Serif" font-size="10.00">boost/type_traits/aligned</text>
<text text-anchor="middle" x="1969.88" y="-7" font-family="Helvetica,sans-Serif" font-size="10.00">_storage.hpp</text>
</a>
</g>
</g>
<!-- Node31&#45;&gt;Node32 -->
<g id="edge52_Node000031_Node000032" class="edge">
<title>Node31&#45;&gt;Node32</title>
<g id="a_edge52_Node000031_Node000032"><a xlink:title=" ">
<path fill="none" stroke="#63b8ff" d="M1980.26,-71.37C1978.77,-63.4 1976.48,-51.2 1974.43,-40.27"/>
<polygon fill="#63b8ff" stroke="#63b8ff" points="1977.86,-39.54 1972.57,-30.36 1970.98,-40.83 1977.86,-39.54"/>
</a>
</g>
</g>
<!-- Node33 -->
<g id="Node000033" class="node">
<title>Node33</title>
<g id="a_Node000033"><a xlink:title=" ">
<polygon fill="#e0e0e0" stroke="#999999" points="2100.88,-24.5 2056.88,-24.5 2056.88,-5.5 2100.88,-5.5 2100.88,-24.5"/>
<text text-anchor="middle" x="2078.88" y="-12.5" font-family="Helvetica,sans-Serif" font-size="10.00">limits</text>
</a>
</g>
</g>
<!-- Node31&#45;&gt;Node33 -->
<g id="edge53_Node000031_Node000033" class="edge">
<title>Node31&#45;&gt;Node33</title>
<g id="a_edge53_Node000031_Node000033"><a xlink:title=" ">
<path fill="none" stroke="#63b8ff" d="M1994.96,-71.37C2010.94,-60.82 2038.21,-42.84 2057.31,-30.23"/>
<polygon fill="#63b8ff" stroke="#63b8ff" points="2059.28,-33.13 2065.7,-24.7 2055.42,-27.28 2059.28,-33.13"/>
</a>
</g>
</g>
<!-- Node34&#45;&gt;Node4 -->
<g id="edge60_Node000034_Node000004" class="edge">
<title>Node34&#45;&gt;Node4</title>
<g id="a_edge60_Node000034_Node000004"><a xlink:title=" ">
<path fill="none" stroke="#63b8ff" d="M1541.46,-71.44C1619.28,-57.71 1769.27,-31.27 1829.7,-20.62"/>
<polygon fill="#63b8ff" stroke="#63b8ff" points="1830.34,-24.06 1839.58,-18.87 1829.12,-17.16 1830.34,-24.06"/>
</a>
</g>
</g>
<!-- Node34&#45;&gt;Node6 -->
<g id="edge61_Node000034_Node000006" class="edge">
<title>Node34&#45;&gt;Node6</title>
<g id="a_edge61_Node000034_Node000006"><a xlink:title=" ">
<path fill="none" stroke="#63b8ff" d="M1461.76,-71.49C1453.12,-69.4 1443.68,-67.37 1434.88,-66 1213.85,-31.64 1154.54,-59.99 932.88,-30 925.7,-29.03 918.15,-27.77 910.78,-26.41"/>
<polygon fill="#63b8ff" stroke="#63b8ff" points="911.36,-22.96 900.88,-24.5 910.04,-29.83 911.36,-22.96"/>
</a>
</g>
</g>
<!-- Node34&#45;&gt;Node9 -->
<g id="edge59_Node000034_Node000009" class="edge">
<title>Node34&#45;&gt;Node9</title>
<g id="a_edge59_Node000034_Node000009"><a xlink:title=" ">
<path fill="none" stroke="#63b8ff" d="M1458.92,-71.43C1451.05,-69.55 1442.69,-67.63 1434.88,-66 1344.75,-47.19 1321.47,-46.45 1230.88,-30 1224.55,-28.85 1217.92,-27.63 1211.34,-26.42"/>
<polygon fill="#63b8ff" stroke="#63b8ff" points="1211.55,-22.9 1201.08,-24.51 1210.27,-29.78 1211.55,-22.9"/>
</a>
</g>
</g>
<!-- Node34&#45;&gt;Node22 -->
<g id="edge58_Node000034_Node000022" class="edge">
<title>Node34&#45;&gt;Node22</title>
<g id="a_edge58_Node000034_Node000022"><a xlink:title=" ">
<path fill="none" stroke="#63b8ff" d="M1476.56,-71.37C1456.17,-60.59 1421.07,-42.02 1397.18,-29.38"/>
<polygon fill="#63b8ff" stroke="#63b8ff" points="1398.8,-26.28 1388.33,-24.7 1395.53,-32.47 1398.8,-26.28"/>
</a>
</g>
</g>
<!-- Node35 -->
<g id="Node000035" class="node">
<title>Node35</title>
<g id="a_Node000035"><a xlink:title=" ">
<polygon fill="#e0e0e0" stroke="#999999" points="1502.38,-24.5 1449.38,-24.5 1449.38,-5.5 1502.38,-5.5 1502.38,-24.5"/>
<text text-anchor="middle" x="1475.88" y="-12.5" font-family="Helvetica,sans-Serif" font-size="10.00">cstddef</text>
</a>
</g>
</g>
<!-- Node34&#45;&gt;Node35 -->
<g id="edge56_Node000034_Node000035" class="edge">
<title>Node34&#45;&gt;Node35</title>
<g id="a_edge56_Node000034_Node000035"><a xlink:title=" ">
<path fill="none" stroke="#63b8ff" d="M1490.59,-71.37C1488.12,-62.07 1484.11,-46.98 1480.9,-34.9"/>
<polygon fill="#63b8ff" stroke="#63b8ff" points="1484.2,-33.67 1478.25,-24.91 1477.43,-35.47 1484.2,-33.67"/>
</a>
</g>
</g>
<!-- Node34&#45;&gt;Node36 -->
<g id="edge57_Node000034_Node000036" class="edge">
<title>Node34&#45;&gt;Node36</title>
<g id="a_edge57_Node000034_Node000036"><a xlink:title=" ">
<path fill="none" stroke="#63b8ff" d="M1500.7,-71.37C1509.73,-61.4 1524.78,-44.79 1536.05,-32.36"/>
<polygon fill="#63b8ff" stroke="#63b8ff" points="1538.69,-34.67 1542.81,-24.91 1533.5,-29.96 1538.69,-34.67"/>
</a>
</g>
</g>
</g>
</svg>

<g id="navigator" transform="translate(0 0)" fill="#404254">
  <rect fill="#f2f5e9" fill-opacity="0.5" stroke="#606060" stroke-width=".5" x="0" y="0" width="60" height="60"/>
  <use id="zoomplus" xlink:href="#zoomPlus" x="17" y="9" onmousedown="handleZoom(evt,'in')"/>
  <use id="zoomminus" xlink:href="#zoomMin" x="42" y="9" onmousedown="handleZoom(evt,'out')"/>
  <use id="reset" xlink:href="#resetDef" x="30" y="36" onmousedown="handleReset()"/>
   <use id="arrowup" xlink:href="#arrowUp" x="0" y="0" onmousedown="handlePan(0,-1)"/>
  <use id="arrowright" xlink:href="#arrowRight" x="0" y="0" onmousedown="handlePan(1,0)"/>
  <use id="arrowdown" xlink:href="#arrowDown" x="0" y="0" onmousedown="handlePan(0,1)"/>
  <use id="arrowleft" xlink:href="#arrowLeft" x="0" y="0" onmousedown="handlePan(-1,0)"/>
</g>
<svg viewBox="0 0 15 15" width="100%" height="30px" preserveAspectRatio="xMaxYMin meet">
 <g id="arrow_out" transform="scale(0.3 0.3)">
  <a xlink:href="stateful_8h__incl_org.svg" target="_base">
   <rect id="button" ry="5" rx="5" y="6" x="6" height="38" width="38"
        fill="#f2f5e9" fill-opacity="0.5" stroke="#606060" stroke-width="1.0"/>
   <path id="arrow"
     d="M 11.500037,31.436501 C 11.940474,20.09759 22.043105,11.32322 32.158766,21.979434 L 37.068811,17.246167 C 37.068811,17.246167 37.088388,32 37.088388,32 L 22.160133,31.978069 C 22.160133,31.978069 26.997745,27.140456 26.997745,27.140456 C 18.528582,18.264221 13.291696,25.230495 11.500037,31.436501 z"
     style="fill:#404040;"/>
  </a>
 </g>
</svg>

<style type='text/css'>
<![CDATA[
[data-mouse-over-selected='false'] { opacity: 0.7; }
[data-mouse-over-selected='true']  { opacity: 1.0; }
]]>
</style>
<script type="application/ecmascript"><![CDATA[
document.addEventListener('DOMContentLoaded', (event) => {
  highlightEdges();
  highlightAdjacentNodes();
});
]]></script>
</svg>
