<?xml version="1.0" encoding="UTF-8" standalone="no"?>
<!DOCTYPE svg PUBLIC "-//W3C//DTD SVG 1.1//EN"
 "http://www.w3.org/Graphics/SVG/1.1/DTD/svg11.dtd">
<!-- Generated by graphviz version 2.43.0 (0)
 -->
<!-- Title: stateful_diff_command.h Pages: 1 -->
<!--zoomable 709 -->

<svg id="main" version="1.1" xmlns="http://www.w3.org/2000/svg" xmlns:xlink="http://www.w3.org/1999/xlink" xml:space="preserve" onload="init(evt)">
<style type="text/css"><![CDATA[
.node, .edge {opacity: 0.7;}
.node.selected, .edge.selected {opacity: 1;}
.edge:hover path { stroke: red; }
.edge:hover polygon { stroke: red; fill: red; }
]]></style>

<defs>
  <circle id="rim" cx="0" cy="0" r="7"/>
  <circle id="rim2" cx="0" cy="0" r="3.5"/>
  <g id="zoomPlus">
    <use xlink:href="#rim" fill="#404040"><set attributeName="fill" to="#808080" begin="zoomplus.mouseover" end="zoomplus.mouseout"/></use>
    <path d="M-4,0h8M0,-4v8" fill="none" stroke="white" stroke-width="1.5" pointer-events="none"/>
  </g>
  <g id="zoomMin">
    <use xlink:href="#rim" fill="#404040"><set attributeName="fill" to="#808080" begin="zoomminus.mouseover" end="zoomminus.mouseout"/></use>
    <path d="M-4,0h8" fill="none" stroke="white" stroke-width="1.5" pointer-events="none"/>
  </g>
  <g id="arrowUp" transform="translate(30 24)">
    <use xlink:href="#rim"/>
    <path pointer-events="none" fill="none" stroke="white" stroke-width="1.5" d="M0,-3.0v7 M-2.5,-0.5L0,-3.0L2.5,-0.5"/>
  </g>
  <g id="arrowRight" transform="rotate(90) translate(36 -43)">
    <use xlink:href="#rim"/>
    <path pointer-events="none" fill="none" stroke="white" stroke-width="1.5" d="M0,-3.0v7 M-2.5,-0.5L0,-3.0L2.5,-0.5"/>
  </g>
  <g id="arrowDown" transform="rotate(180) translate(-30 -48)">
    <use xlink:href="#rim"/>
    <path pointer-events="none" fill="none" stroke="white" stroke-width="1.5" d="M0,-3.0v7 M-2.5,-0.5L0,-3.0L2.5,-0.5"/>
  </g>
  <g id="arrowLeft" transform="rotate(270) translate(-36 17)">
    <use xlink:href="#rim"/>
    <path pointer-events="none" fill="none" stroke="white" stroke-width="1.5" d="M0,-3.0v7 M-2.5,-0.5L0,-3.0L2.5,-0.5"/>
  </g>
  <g id="resetDef">
    <use xlink:href="#rim2" fill="#404040"><set attributeName="fill" to="#808080" begin="reset.mouseover" end="reset.mouseout"/></use>
  </g>
</defs>
<script type="application/ecmascript">
var viewWidth = 960;
var viewHeight = 709;
var sectionId = 'dynsection-1';
</script>
<script type="application/ecmascript" xlink:href="svg.min.js"/>
<svg id="graph" class="graph">
<g id="viewport">
<title>stateful_diff_command.h</title>
<!-- Node1 -->
<g id="Node000001" class="node">
<title>Node1</title>
<g id="a_Node000001"><a xlink:title=" ">
<polygon fill="#999999" stroke="#666666" points="456.5,-701 318.5,-701 318.5,-682 456.5,-682 456.5,-701"/>
<text text-anchor="middle" x="387.5" y="-689" font-family="Helvetica,sans-Serif" font-size="10.00">stateful_diff_command.h</text>
</a>
</g>
</g>
<!-- Node2 -->
<g id="Node000002" class="node">
<title>Node2</title>
<g id="a_Node000002"><a xlink:href="sequence__property_8h.html" target="_top" xlink:title=" ">
<polygon fill="white" stroke="#666666" points="446,-646 329,-646 329,-627 446,-627 446,-646"/>
<text text-anchor="middle" x="387.5" y="-634" font-family="Helvetica,sans-Serif" font-size="10.00">sequence_property.h</text>
</a>
</g>
</g>
<!-- Node1&#45;&gt;Node2 -->
<g id="edge1_Node000001_Node000002" class="edge">
<title>Node1&#45;&gt;Node2</title>
<g id="a_edge1_Node000001_Node000002"><a xlink:title=" ">
<path fill="none" stroke="#63b8ff" d="M387.5,-671.66C387.5,-662.93 387.5,-652.99 387.5,-646.09"/>
<polygon fill="#63b8ff" stroke="#63b8ff" points="384,-671.75 387.5,-681.75 391,-671.75 384,-671.75"/>
</a>
</g>
</g>
<!-- Node3 -->
<g id="Node000003" class="node">
<title>Node3</title>
<g id="a_Node000003"><a xlink:href="playlist_8h.html" target="_top" xlink:title=" ">
<polygon fill="white" stroke="#666666" points="418.5,-591 356.5,-591 356.5,-572 418.5,-572 418.5,-591"/>
<text text-anchor="middle" x="387.5" y="-579" font-family="Helvetica,sans-Serif" font-size="10.00">playlist.h</text>
</a>
</g>
</g>
<!-- Node2&#45;&gt;Node3 -->
<g id="edge2_Node000002_Node000003" class="edge">
<title>Node2&#45;&gt;Node3</title>
<g id="a_edge2_Node000002_Node000003"><a xlink:title=" ">
<path fill="none" stroke="#63b8ff" d="M387.5,-616.66C387.5,-607.93 387.5,-597.99 387.5,-591.09"/>
<polygon fill="#63b8ff" stroke="#63b8ff" points="384,-616.75 387.5,-626.75 391,-616.75 384,-616.75"/>
</a>
</g>
</g>
<!-- Node4 -->
<g id="Node000004" class="node">
<title>Node4</title>
<g id="a_Node000004"><a xlink:href="audioplaylist_8h.html" target="_top" xlink:title=" ">
<polygon fill="white" stroke="#666666" points="94,-530.5 5,-530.5 5,-511.5 94,-511.5 94,-530.5"/>
<text text-anchor="middle" x="49.5" y="-518.5" font-family="Helvetica,sans-Serif" font-size="10.00">audioplaylist.h</text>
</a>
</g>
</g>
<!-- Node3&#45;&gt;Node4 -->
<g id="edge3_Node000003_Node000004" class="edge">
<title>Node3&#45;&gt;Node4</title>
<g id="a_edge3_Node000003_Node000004"><a xlink:title=" ">
<path fill="none" stroke="#63b8ff" d="M345.92,-575.38C290.2,-568.2 188.38,-554 102.5,-536 95.05,-534.44 87.08,-532.49 79.64,-530.54"/>
<polygon fill="#63b8ff" stroke="#63b8ff" points="345.74,-578.88 356.1,-576.68 346.62,-571.94 345.74,-578.88"/>
</a>
</g>
</g>
<!-- Node6 -->
<g id="Node000006" class="node">
<title>Node6</title>
<g id="a_Node000006"><a xlink:href="midi__playlist_8h.html" target="_top" xlink:title=" ">
<polygon fill="white" stroke="#666666" points="201,-530.5 112,-530.5 112,-511.5 201,-511.5 201,-530.5"/>
<text text-anchor="middle" x="156.5" y="-518.5" font-family="Helvetica,sans-Serif" font-size="10.00">midi_playlist.h</text>
</a>
</g>
</g>
<!-- Node3&#45;&gt;Node6 -->
<g id="edge5_Node000003_Node000006" class="edge">
<title>Node3&#45;&gt;Node6</title>
<g id="a_edge5_Node000003_Node000006"><a xlink:title=" ">
<path fill="none" stroke="#63b8ff" d="M346.38,-570.25C310.49,-561.29 257.02,-547.88 210.5,-536 203.65,-534.25 196.32,-532.36 189.33,-530.55"/>
<polygon fill="#63b8ff" stroke="#63b8ff" points="345.92,-573.75 356.47,-572.77 347.61,-566.95 345.92,-573.75"/>
</a>
</g>
</g>
<!-- Node7 -->
<g id="Node000007" class="node">
<title>Node7</title>
<g id="a_Node000007"><a xlink:href="playlist__factory_8h.html" target="_top" xlink:title=" ">
<polygon fill="white" stroke="#666666" points="319.5,-530.5 219.5,-530.5 219.5,-511.5 319.5,-511.5 319.5,-530.5"/>
<text text-anchor="middle" x="269.5" y="-518.5" font-family="Helvetica,sans-Serif" font-size="10.00">playlist_factory.h</text>
</a>
</g>
</g>
<!-- Node3&#45;&gt;Node7 -->
<g id="edge6_Node000003_Node000007" class="edge">
<title>Node3&#45;&gt;Node7</title>
<g id="a_edge6_Node000003_Node000007"><a xlink:title=" ">
<path fill="none" stroke="#63b8ff" d="M361.24,-567.48C338.5,-556.21 306.26,-540.23 286.68,-530.52"/>
<polygon fill="#63b8ff" stroke="#63b8ff" points="359.83,-570.69 370.34,-571.99 362.94,-564.42 359.83,-570.69"/>
</a>
</g>
</g>
<!-- Node8 -->
<g id="Node000008" class="node">
<title>Node8</title>
<g id="a_Node000008"><a xlink:href="playlist__selection_8h.html" target="_top" xlink:title=" ">
<polygon fill="white" stroke="#666666" points="450,-415 339,-415 339,-396 450,-396 450,-415"/>
<text text-anchor="middle" x="394.5" y="-403" font-family="Helvetica,sans-Serif" font-size="10.00">playlist_selection.h</text>
</a>
</g>
</g>
<!-- Node3&#45;&gt;Node8 -->
<g id="edge7_Node000003_Node000008" class="edge">
<title>Node3&#45;&gt;Node8</title>
<g id="a_edge7_Node000003_Node000008"><a xlink:title=" ">
<path fill="none" stroke="#63b8ff" d="M376.93,-562.77C372.8,-554.86 368.58,-545.26 366.5,-536 356.34,-490.66 379.65,-436.24 389.93,-415.3"/>
<polygon fill="#63b8ff" stroke="#63b8ff" points="373.99,-564.69 381.92,-571.72 380.1,-561.28 373.99,-564.69"/>
</a>
</g>
</g>
<!-- Node24 -->
<g id="Node000024" class="node">
<title>Node24</title>
<g id="a_Node000024"><a xlink:href="playlist__selector_8h.html" target="_top" xlink:title=" ">
<polygon fill="white" stroke="#666666" points="481,-530.5 376,-530.5 376,-511.5 481,-511.5 481,-530.5"/>
<text text-anchor="middle" x="428.5" y="-518.5" font-family="Helvetica,sans-Serif" font-size="10.00">playlist_selector.h</text>
</a>
</g>
</g>
<!-- Node3&#45;&gt;Node24 -->
<g id="edge24_Node000003_Node000024" class="edge">
<title>Node3&#45;&gt;Node24</title>
<g id="a_edge24_Node000003_Node000024"><a xlink:title=" ">
<path fill="none" stroke="#63b8ff" d="M399.32,-563.63C406.88,-552.85 416.36,-539.32 422.43,-530.67"/>
<polygon fill="#63b8ff" stroke="#63b8ff" points="396.42,-561.67 393.55,-571.87 402.16,-565.69 396.42,-561.67"/>
</a>
</g>
</g>
<!-- Node25 -->
<g id="Node000025" class="node">
<title>Node25</title>
<g id="a_Node000025"><a xlink:href="region__layering__order__editor_8h.html" target="_top" xlink:title=" ">
<polygon fill="white" stroke="#666666" points="622,-536 499,-536 499,-506 622,-506 622,-536"/>
<text text-anchor="start" x="507" y="-524" font-family="Helvetica,sans-Serif" font-size="10.00">region_layering_order</text>
<text text-anchor="middle" x="560.5" y="-513" font-family="Helvetica,sans-Serif" font-size="10.00">_editor.h</text>
</a>
</g>
</g>
<!-- Node3&#45;&gt;Node25 -->
<g id="edge25_Node000003_Node000025" class="edge">
<title>Node3&#45;&gt;Node25</title>
<g id="a_edge25_Node000003_Node000025"><a xlink:title=" ">
<path fill="none" stroke="#63b8ff" d="M422.38,-568.71C450.25,-559.28 489.4,-546.04 518.91,-536.06"/>
<polygon fill="#63b8ff" stroke="#63b8ff" points="421.01,-565.47 412.66,-571.99 423.25,-572.11 421.01,-565.47"/>
</a>
</g>
</g>
<!-- Node26 -->
<g id="Node000026" class="node">
<title>Node26</title>
<g id="a_Node000026"><a xlink:href="route__time__axis_8h.html" target="_top" xlink:title=" ">
<polygon fill="white" stroke="#666666" points="744.5,-530.5 640.5,-530.5 640.5,-511.5 744.5,-511.5 744.5,-530.5"/>
<text text-anchor="middle" x="692.5" y="-518.5" font-family="Helvetica,sans-Serif" font-size="10.00">route_time_axis.h</text>
</a>
</g>
</g>
<!-- Node3&#45;&gt;Node26 -->
<g id="edge26_Node000003_Node000026" class="edge">
<title>Node3&#45;&gt;Node26</title>
<g id="a_edge26_Node000003_Node000026"><a xlink:title=" ">
<path fill="none" stroke="#63b8ff" d="M428.74,-573.48C477.16,-565.11 559.84,-550.44 630.5,-536 638.72,-534.32 647.52,-532.4 655.84,-530.54"/>
<polygon fill="#63b8ff" stroke="#63b8ff" points="427.91,-570.07 418.65,-575.22 429.1,-576.97 427.91,-570.07"/>
</a>
</g>
</g>
<!-- Node35 -->
<g id="Node000035" class="node">
<title>Node35</title>
<g id="a_Node000035"><a xlink:href="session__playlist_8h.html" target="_top" xlink:title=" ">
<polygon fill="white" stroke="#666666" points="866.5,-530.5 762.5,-530.5 762.5,-511.5 866.5,-511.5 866.5,-530.5"/>
<text text-anchor="middle" x="814.5" y="-518.5" font-family="Helvetica,sans-Serif" font-size="10.00">session_playlist.h</text>
</a>
</g>
</g>
<!-- Node3&#45;&gt;Node35 -->
<g id="edge39_Node000003_Node000035" class="edge">
<title>Node3&#45;&gt;Node35</title>
<g id="a_edge39_Node000003_Node000035"><a xlink:title=" ">
<path fill="none" stroke="#63b8ff" d="M428.79,-576.9C496.8,-570.65 636.5,-556.48 753.5,-536 762.17,-534.48 771.46,-532.52 780.11,-530.55"/>
<polygon fill="#63b8ff" stroke="#63b8ff" points="428.15,-573.44 418.51,-577.83 428.78,-580.41 428.15,-573.44"/>
</a>
</g>
</g>
<!-- Node5 -->
<g id="Node000005" class="node">
<title>Node5</title>
<g id="a_Node000005"><a xlink:href="analysis__graph_8h.html" target="_top" xlink:title=" ">
<polygon fill="white" stroke="#666666" points="99,-470 0,-470 0,-451 99,-451 99,-470"/>
<text text-anchor="middle" x="49.5" y="-458" font-family="Helvetica,sans-Serif" font-size="10.00">analysis_graph.h</text>
</a>
</g>
</g>
<!-- Node4&#45;&gt;Node5 -->
<g id="edge4_Node000004_Node000005" class="edge">
<title>Node4&#45;&gt;Node5</title>
<g id="a_edge4_Node000004_Node000005"><a xlink:title=" ">
<path fill="none" stroke="#63b8ff" d="M49.5,-501.16C49.5,-490.74 49.5,-478.3 49.5,-470.17"/>
<polygon fill="#63b8ff" stroke="#63b8ff" points="46,-501.37 49.5,-511.37 53,-501.37 46,-501.37"/>
</a>
</g>
</g>
<!-- Node9 -->
<g id="Node000009" class="node">
<title>Node9</title>
<g id="a_Node000009"><a xlink:href="gtk2__ardour_2selection_8h.html" target="_top" xlink:title=" ">
<polygon fill="white" stroke="#666666" points="500.5,-250 430.5,-250 430.5,-231 500.5,-231 500.5,-250"/>
<text text-anchor="middle" x="465.5" y="-238" font-family="Helvetica,sans-Serif" font-size="10.00">selection.h</text>
</a>
</g>
</g>
<!-- Node8&#45;&gt;Node9 -->
<g id="edge8_Node000008_Node000009" class="edge">
<title>Node8&#45;&gt;Node9</title>
<g id="a_edge8_Node000008_Node000009"><a xlink:title=" ">
<path fill="none" stroke="#63b8ff" d="M402.44,-386.28C417.66,-351.32 450.47,-276.01 461.66,-250.31"/>
<polygon fill="#63b8ff" stroke="#63b8ff" points="399.1,-385.17 398.32,-395.74 405.52,-387.97 399.1,-385.17"/>
</a>
</g>
</g>
<!-- Node10 -->
<g id="Node000010" class="node">
<title>Node10</title>
<g id="a_Node000010"><a xlink:href="editing__context_8h.html" target="_top" xlink:title=" ">
<polygon fill="white" stroke="#666666" points="437,-195 336,-195 336,-176 437,-176 437,-195"/>
<text text-anchor="middle" x="386.5" y="-183" font-family="Helvetica,sans-Serif" font-size="10.00">editing_context.h</text>
</a>
</g>
</g>
<!-- Node9&#45;&gt;Node10 -->
<g id="edge9_Node000009_Node000010" class="edge">
<title>Node9&#45;&gt;Node10</title>
<g id="a_edge9_Node000009_Node000010"><a xlink:title=" ">
<path fill="none" stroke="#63b8ff" d="M444.11,-225.15C429.83,-215.57 411.53,-203.29 399.42,-195.17"/>
<polygon fill="#63b8ff" stroke="#63b8ff" points="442.55,-228.32 452.81,-230.98 446.45,-222.51 442.55,-228.32"/>
</a>
</g>
</g>
<!-- Node15 -->
<g id="Node000015" class="node">
<title>Node15</title>
<g id="a_Node000015"><a xlink:href="public__editor_8h.html" target="_top" xlink:title=" ">
<polygon fill="white" stroke="#666666" points="509.5,-140 421.5,-140 421.5,-121 509.5,-121 509.5,-140"/>
<text text-anchor="middle" x="465.5" y="-128" font-family="Helvetica,sans-Serif" font-size="10.00">public_editor.h</text>
</a>
</g>
</g>
<!-- Node9&#45;&gt;Node15 -->
<g id="edge22_Node000009_Node000015" class="edge">
<title>Node9&#45;&gt;Node15</title>
<g id="a_edge22_Node000009_Node000015"><a xlink:title=" ">
<path fill="none" stroke="#63b8ff" d="M465.5,-220.48C465.5,-196.84 465.5,-157.5 465.5,-140.16"/>
<polygon fill="#63b8ff" stroke="#63b8ff" points="462,-220.66 465.5,-230.66 469,-220.66 462,-220.66"/>
</a>
</g>
</g>
<!-- Node22 -->
<g id="Node000022" class="node">
<title>Node22</title>
<g id="a_Node000022"><a xlink:href="gtk2__ardour_2keyboard_8h.html" target="_top" xlink:title=" ">
<polygon fill="white" stroke="#666666" points="565,-195 494,-195 494,-176 565,-176 565,-195"/>
<text text-anchor="middle" x="529.5" y="-183" font-family="Helvetica,sans-Serif" font-size="10.00">keyboard.h</text>
</a>
</g>
</g>
<!-- Node9&#45;&gt;Node22 -->
<g id="edge21_Node000009_Node000022" class="edge">
<title>Node9&#45;&gt;Node22</title>
<g id="a_edge21_Node000009_Node000022"><a xlink:title=" ">
<path fill="none" stroke="#63b8ff" d="M483.49,-224.6C494.96,-215.11 509.41,-203.13 519.03,-195.17"/>
<polygon fill="#63b8ff" stroke="#63b8ff" points="481.25,-221.91 475.78,-230.98 485.72,-227.3 481.25,-221.91"/>
</a>
</g>
</g>
<!-- Node23 -->
<g id="Node000023" class="node">
<title>Node23</title>
<g id="a_Node000023"><a xlink:href="selection__templates_8h.html" target="_top" xlink:title=" ">
<polygon fill="white" stroke="#666666" points="723,-195 598,-195 598,-176 723,-176 723,-195"/>
<text text-anchor="middle" x="660.5" y="-183" font-family="Helvetica,sans-Serif" font-size="10.00">selection_templates.h</text>
</a>
</g>
</g>
<!-- Node9&#45;&gt;Node23 -->
<g id="edge23_Node000009_Node000023" class="edge">
<title>Node9&#45;&gt;Node23</title>
<g id="a_edge23_Node000009_Node000023"><a xlink:title=" ">
<path fill="none" stroke="#63b8ff" d="M506.67,-228.31C543.16,-218.39 595.67,-204.12 628.92,-195.08"/>
<polygon fill="#63b8ff" stroke="#63b8ff" points="505.56,-224.98 496.83,-230.98 507.4,-231.74 505.56,-224.98"/>
</a>
</g>
</g>
<!-- Node11 -->
<g id="Node000011" class="node">
<title>Node11</title>
<g id="a_Node000011"><a xlink:href="cue__editor_8h.html" target="_top" xlink:title=" ">
<polygon fill="white" stroke="#666666" points="211.5,-140 135.5,-140 135.5,-121 211.5,-121 211.5,-140"/>
<text text-anchor="middle" x="173.5" y="-128" font-family="Helvetica,sans-Serif" font-size="10.00">cue_editor.h</text>
</a>
</g>
</g>
<!-- Node10&#45;&gt;Node11 -->
<g id="edge10_Node000010_Node000011" class="edge">
<title>Node10&#45;&gt;Node11</title>
<g id="a_edge10_Node000010_Node000011"><a xlink:title=" ">
<path fill="none" stroke="#63b8ff" d="M342.55,-173.56C302.66,-163.64 244.63,-149.2 207.99,-140.08"/>
<polygon fill="#63b8ff" stroke="#63b8ff" points="341.73,-176.97 352.28,-175.98 343.42,-170.17 341.73,-176.97"/>
</a>
</g>
</g>
<!-- Node10&#45;&gt;Node15 -->
<g id="edge14_Node000010_Node000015" class="edge">
<title>Node10&#45;&gt;Node15</title>
<g id="a_edge14_Node000010_Node000015"><a xlink:title=" ">
<path fill="none" stroke="#63b8ff" d="M407.89,-170.15C422.17,-160.57 440.47,-148.29 452.58,-140.17"/>
<polygon fill="#63b8ff" stroke="#63b8ff" points="405.55,-167.51 399.19,-175.98 409.45,-173.32 405.55,-167.51"/>
</a>
</g>
</g>
<!-- Node12 -->
<g id="Node000012" class="node">
<title>Node12</title>
<g id="a_Node000012"><a xlink:href="audio__clip__editor_8h.html" target="_top" xlink:title=" ">
<polygon fill="white" stroke="#666666" points="121.5,-79.5 13.5,-79.5 13.5,-60.5 121.5,-60.5 121.5,-79.5"/>
<text text-anchor="middle" x="67.5" y="-67.5" font-family="Helvetica,sans-Serif" font-size="10.00">audio_clip_editor.h</text>
</a>
</g>
</g>
<!-- Node11&#45;&gt;Node12 -->
<g id="edge11_Node000011_Node000012" class="edge">
<title>Node11&#45;&gt;Node12</title>
<g id="a_edge11_Node000011_Node000012"><a xlink:title=" ">
<path fill="none" stroke="#63b8ff" d="M148.9,-115.92C128.64,-104.74 100.53,-89.23 83.2,-79.67"/>
<polygon fill="#63b8ff" stroke="#63b8ff" points="147.41,-119.1 157.86,-120.87 150.8,-112.97 147.41,-119.1"/>
</a>
</g>
</g>
<!-- Node14 -->
<g id="Node000014" class="node">
<title>Node14</title>
<g id="a_Node000014"><a xlink:href="pianoroll_8h.html" target="_top" xlink:title=" ">
<polygon fill="white" stroke="#666666" points="207.5,-79.5 139.5,-79.5 139.5,-60.5 207.5,-60.5 207.5,-79.5"/>
<text text-anchor="middle" x="173.5" y="-67.5" font-family="Helvetica,sans-Serif" font-size="10.00">pianoroll.h</text>
</a>
</g>
</g>
<!-- Node11&#45;&gt;Node14 -->
<g id="edge13_Node000011_Node000014" class="edge">
<title>Node11&#45;&gt;Node14</title>
<g id="a_edge13_Node000011_Node000014"><a xlink:title=" ">
<path fill="none" stroke="#63b8ff" d="M173.5,-110.66C173.5,-100.24 173.5,-87.8 173.5,-79.67"/>
<polygon fill="#63b8ff" stroke="#63b8ff" points="170,-110.87 173.5,-120.87 177,-110.87 170,-110.87"/>
</a>
</g>
</g>
<!-- Node13 -->
<g id="Node000013" class="node">
<title>Node13</title>
<g id="a_Node000013"><a xlink:href="trigger__page_8h.html" target="_top" xlink:title=" ">
<polygon fill="white" stroke="#666666" points="111,-19 24,-19 24,0 111,0 111,-19"/>
<text text-anchor="middle" x="67.5" y="-7" font-family="Helvetica,sans-Serif" font-size="10.00">trigger_page.h</text>
</a>
</g>
</g>
<!-- Node12&#45;&gt;Node13 -->
<g id="edge12_Node000012_Node000013" class="edge">
<title>Node12&#45;&gt;Node13</title>
<g id="a_edge12_Node000012_Node000013"><a xlink:title=" ">
<path fill="none" stroke="#63b8ff" d="M67.5,-50.16C67.5,-39.74 67.5,-27.3 67.5,-19.17"/>
<polygon fill="#63b8ff" stroke="#63b8ff" points="64,-50.37 67.5,-60.37 71,-50.37 64,-50.37"/>
</a>
</g>
</g>
<!-- Node16 -->
<g id="Node000016" class="node">
<title>Node16</title>
<g id="a_Node000016"><a xlink:href="editor_8h.html" target="_top" xlink:title=" ">
<polygon fill="white" stroke="#666666" points="279,-79.5 226,-79.5 226,-60.5 279,-60.5 279,-79.5"/>
<text text-anchor="middle" x="252.5" y="-67.5" font-family="Helvetica,sans-Serif" font-size="10.00">editor.h</text>
</a>
</g>
</g>
<!-- Node15&#45;&gt;Node16 -->
<g id="edge15_Node000015_Node000016" class="edge">
<title>Node15&#45;&gt;Node16</title>
<g id="a_edge15_Node000015_Node000016"><a xlink:title=" ">
<path fill="none" stroke="#63b8ff" d="M415.57,-118.7C379.85,-110.55 330.81,-98.49 288.5,-85 283.52,-83.41 278.23,-81.49 273.28,-79.59"/>
<polygon fill="#63b8ff" stroke="#63b8ff" points="415.21,-122.2 425.74,-120.99 416.75,-115.38 415.21,-122.2"/>
</a>
</g>
</g>
<!-- Node17 -->
<g id="Node000017" class="node">
<title>Node17</title>
<g id="a_Node000017"><a xlink:href="export__dialog_8h.html" target="_top" xlink:title=" ">
<polygon fill="white" stroke="#666666" points="389.5,-79.5 297.5,-79.5 297.5,-60.5 389.5,-60.5 389.5,-79.5"/>
<text text-anchor="middle" x="343.5" y="-67.5" font-family="Helvetica,sans-Serif" font-size="10.00">export_dialog.h</text>
</a>
</g>
</g>
<!-- Node15&#45;&gt;Node17 -->
<g id="edge16_Node000015_Node000017" class="edge">
<title>Node15&#45;&gt;Node17</title>
<g id="a_edge16_Node000015_Node000017"><a xlink:title=" ">
<path fill="none" stroke="#63b8ff" d="M438.67,-116.63C415.14,-105.35 381.6,-89.27 361.26,-79.52"/>
<polygon fill="#63b8ff" stroke="#63b8ff" points="437.23,-119.83 447.76,-120.99 440.26,-113.51 437.23,-119.83"/>
</a>
</g>
</g>
<!-- Node18 -->
<g id="Node000018" class="node">
<title>Node18</title>
<g id="a_Node000018"><a xlink:href="insert__remove__time__dialog_8h.html" target="_top" xlink:title=" ">
<polygon fill="white" stroke="#666666" points="523,-85 408,-85 408,-55 523,-55 523,-85"/>
<text text-anchor="start" x="416" y="-73" font-family="Helvetica,sans-Serif" font-size="10.00">insert_remove_time</text>
<text text-anchor="middle" x="465.5" y="-62" font-family="Helvetica,sans-Serif" font-size="10.00">_dialog.h</text>
</a>
</g>
</g>
<!-- Node15&#45;&gt;Node18 -->
<g id="edge17_Node000015_Node000018" class="edge">
<title>Node15&#45;&gt;Node18</title>
<g id="a_edge17_Node000015_Node000018"><a xlink:title=" ">
<path fill="none" stroke="#63b8ff" d="M465.5,-110.65C465.5,-102.36 465.5,-92.78 465.5,-85.11"/>
<polygon fill="#63b8ff" stroke="#63b8ff" points="462,-110.87 465.5,-120.87 469,-110.87 462,-110.87"/>
</a>
</g>
</g>
<!-- Node19 -->
<g id="Node000019" class="node">
<title>Node19</title>
<g id="a_Node000019"><a xlink:href="midi__export__dialog_8h.html" target="_top" xlink:title=" ">
<polygon fill="white" stroke="#666666" points="660,-79.5 541,-79.5 541,-60.5 660,-60.5 660,-79.5"/>
<text text-anchor="middle" x="600.5" y="-67.5" font-family="Helvetica,sans-Serif" font-size="10.00">midi_export_dialog.h</text>
</a>
</g>
</g>
<!-- Node15&#45;&gt;Node19 -->
<g id="edge18_Node000015_Node000019" class="edge">
<title>Node15&#45;&gt;Node19</title>
<g id="a_edge18_Node000015_Node000019"><a xlink:title=" ">
<path fill="none" stroke="#63b8ff" d="M494.5,-116.93C520.57,-105.64 558.14,-89.36 580.85,-79.52"/>
<polygon fill="#63b8ff" stroke="#63b8ff" points="492.91,-113.81 485.13,-120.99 495.7,-120.23 492.91,-113.81"/>
</a>
</g>
</g>
<!-- Node20 -->
<g id="Node000020" class="node">
<title>Node20</title>
<g id="a_Node000020"><a xlink:href="simple__export__dialog_8h.html" target="_top" xlink:title=" ">
<polygon fill="white" stroke="#666666" points="809,-79.5 678,-79.5 678,-60.5 809,-60.5 809,-79.5"/>
<text text-anchor="middle" x="743.5" y="-67.5" font-family="Helvetica,sans-Serif" font-size="10.00">simple_export_dialog.h</text>
</a>
</g>
</g>
<!-- Node15&#45;&gt;Node20 -->
<g id="edge19_Node000015_Node000020" class="edge">
<title>Node15&#45;&gt;Node20</title>
<g id="a_edge19_Node000015_Node000020"><a xlink:title=" ">
<path fill="none" stroke="#63b8ff" d="M515.91,-118.89C569.59,-107.6 653.49,-89.94 703.03,-79.52"/>
<polygon fill="#63b8ff" stroke="#63b8ff" points="514.99,-115.51 505.92,-120.99 516.43,-122.36 514.99,-115.51"/>
</a>
</g>
</g>
<!-- Node21 -->
<g id="Node000021" class="node">
<title>Node21</title>
<g id="a_Node000021"><a xlink:href="tempo__map__change_8h.html" target="_top" xlink:title=" ">
<polygon fill="white" stroke="#666666" points="952,-79.5 827,-79.5 827,-60.5 952,-60.5 952,-79.5"/>
<text text-anchor="middle" x="889.5" y="-67.5" font-family="Helvetica,sans-Serif" font-size="10.00">tempo_map_change.h</text>
</a>
</g>
</g>
<!-- Node15&#45;&gt;Node21 -->
<g id="edge20_Node000015_Node000021" class="edge">
<title>Node15&#45;&gt;Node21</title>
<g id="a_edge20_Node000015_Node000021"><a xlink:title=" ">
<path fill="none" stroke="#63b8ff" d="M519.93,-123.82C589.4,-116.3 713.22,-101.99 818.5,-85 828.3,-83.42 838.81,-81.48 848.66,-79.55"/>
<polygon fill="#63b8ff" stroke="#63b8ff" points="519.23,-120.38 509.67,-124.93 519.98,-127.34 519.23,-120.38"/>
</a>
</g>
</g>
<!-- Node27 -->
<g id="Node000027" class="node">
<title>Node27</title>
<g id="a_Node000027"><a xlink:href="audio__time__axis_8h.html" target="_top" xlink:title=" ">
<polygon fill="white" stroke="#666666" points="597.5,-415 491.5,-415 491.5,-396 597.5,-396 597.5,-415"/>
<text text-anchor="middle" x="544.5" y="-403" font-family="Helvetica,sans-Serif" font-size="10.00">audio_time_axis.h</text>
</a>
</g>
</g>
<!-- Node26&#45;&gt;Node27 -->
<g id="edge27_Node000026_Node000027" class="edge">
<title>Node26&#45;&gt;Node27</title>
<g id="a_edge27_Node000026_Node000027"><a xlink:title=" ">
<path fill="none" stroke="#63b8ff" d="M644.89,-509.22C640.03,-508.13 635.17,-507.04 630.5,-506 557.66,-489.78 513.27,-528.15 466.5,-470 447.73,-446.66 489.12,-426.1 518.48,-415.06"/>
<polygon fill="#63b8ff" stroke="#63b8ff" points="644.28,-512.67 654.8,-511.45 645.82,-505.84 644.28,-512.67"/>
</a>
</g>
</g>
<!-- Node31 -->
<g id="Node000031" class="node">
<title>Node31</title>
<g id="a_Node000031"><a xlink:href="automation__streamview_8h.html" target="_top" xlink:title=" ">
<polygon fill="white" stroke="#666666" points="619.5,-470 475.5,-470 475.5,-451 619.5,-451 619.5,-470"/>
<text text-anchor="middle" x="547.5" y="-458" font-family="Helvetica,sans-Serif" font-size="10.00">automation_streamview.h</text>
</a>
</g>
</g>
<!-- Node26&#45;&gt;Node31 -->
<g id="edge32_Node000026_Node000031" class="edge">
<title>Node26&#45;&gt;Node31</title>
<g id="a_edge32_Node000026_Node000031"><a xlink:title=" ">
<path fill="none" stroke="#63b8ff" d="M662.09,-507.73C634.07,-496.42 593.21,-479.94 568.61,-470.02"/>
<polygon fill="#63b8ff" stroke="#63b8ff" points="660.83,-511 671.42,-511.49 663.45,-504.51 660.83,-511"/>
</a>
</g>
</g>
<!-- Node32 -->
<g id="Node000032" class="node">
<title>Node32</title>
<g id="a_Node000032"><a xlink:href="midi__streamview_8h.html" target="_top" xlink:title=" ">
<polygon fill="white" stroke="#666666" points="747.5,-470 637.5,-470 637.5,-451 747.5,-451 747.5,-470"/>
<text text-anchor="middle" x="692.5" y="-458" font-family="Helvetica,sans-Serif" font-size="10.00">midi_streamview.h</text>
</a>
</g>
</g>
<!-- Node26&#45;&gt;Node32 -->
<g id="edge33_Node000026_Node000032" class="edge">
<title>Node26&#45;&gt;Node32</title>
<g id="a_edge33_Node000026_Node000032"><a xlink:title=" ">
<path fill="none" stroke="#63b8ff" d="M692.5,-501.16C692.5,-490.74 692.5,-478.3 692.5,-470.17"/>
<polygon fill="#63b8ff" stroke="#63b8ff" points="689,-501.37 692.5,-511.37 696,-501.37 689,-501.37"/>
</a>
</g>
</g>
<!-- Node33 -->
<g id="Node000033" class="node">
<title>Node33</title>
<g id="a_Node000033"><a xlink:href="midi__time__axis_8h.html" target="_top" xlink:title=" ">
<polygon fill="white" stroke="#666666" points="741,-415 640,-415 640,-396 741,-396 741,-415"/>
<text text-anchor="middle" x="690.5" y="-403" font-family="Helvetica,sans-Serif" font-size="10.00">midi_time_axis.h</text>
</a>
</g>
</g>
<!-- Node26&#45;&gt;Node33 -->
<g id="edge38_Node000026_Node000033" class="edge">
<title>Node26&#45;&gt;Node33</title>
<g id="a_edge38_Node000026_Node000033"><a xlink:title=" ">
<path fill="none" stroke="#63b8ff" d="M720.21,-506.62C742.53,-493.86 768.37,-473.31 756.5,-451 747.42,-433.92 728.53,-422.21 713.28,-415.11"/>
<polygon fill="#63b8ff" stroke="#63b8ff" points="718.43,-503.6 711.3,-511.43 721.76,-509.76 718.43,-503.6"/>
</a>
</g>
</g>
<!-- Node28 -->
<g id="Node000028" class="node">
<title>Node28</title>
<g id="a_Node000028"><a xlink:href="track__view__list_8h.html" target="_top" xlink:title=" ">
<polygon fill="white" stroke="#666666" points="595,-360 496,-360 496,-341 595,-341 595,-360"/>
<text text-anchor="middle" x="545.5" y="-348" font-family="Helvetica,sans-Serif" font-size="10.00">track_view_list.h</text>
</a>
</g>
</g>
<!-- Node27&#45;&gt;Node28 -->
<g id="edge28_Node000027_Node000028" class="edge">
<title>Node27&#45;&gt;Node28</title>
<g id="a_edge28_Node000027_Node000028"><a xlink:title=" ">
<path fill="none" stroke="#63b8ff" d="M544.86,-385.66C545.02,-376.93 545.21,-366.99 545.34,-360.09"/>
<polygon fill="#63b8ff" stroke="#63b8ff" points="541.35,-385.68 544.67,-395.75 548.35,-385.82 541.35,-385.68"/>
</a>
</g>
</g>
<!-- Node29 -->
<g id="Node000029" class="node">
<title>Node29</title>
<g id="a_Node000029"><a xlink:href="track__selection_8h.html" target="_top" xlink:title=" ">
<polygon fill="white" stroke="#666666" points="595.5,-305 495.5,-305 495.5,-286 595.5,-286 595.5,-305"/>
<text text-anchor="middle" x="545.5" y="-293" font-family="Helvetica,sans-Serif" font-size="10.00">track_selection.h</text>
</a>
</g>
</g>
<!-- Node28&#45;&gt;Node29 -->
<g id="edge29_Node000028_Node000029" class="edge">
<title>Node28&#45;&gt;Node29</title>
<g id="a_edge29_Node000028_Node000029"><a xlink:title=" ">
<path fill="none" stroke="#63b8ff" d="M545.5,-330.66C545.5,-321.93 545.5,-311.99 545.5,-305.09"/>
<polygon fill="#63b8ff" stroke="#63b8ff" points="542,-330.75 545.5,-340.75 549,-330.75 542,-330.75"/>
</a>
</g>
</g>
<!-- Node29&#45;&gt;Node9 -->
<g id="edge31_Node000029_Node000009" class="edge">
<title>Node29&#45;&gt;Node9</title>
<g id="a_edge31_Node000029_Node000009"><a xlink:title=" ">
<path fill="none" stroke="#63b8ff" d="M524.25,-280.42C509.74,-270.81 490.96,-258.37 478.59,-250.17"/>
<polygon fill="#63b8ff" stroke="#63b8ff" points="522.38,-283.38 532.65,-285.98 526.24,-277.54 522.38,-283.38"/>
</a>
</g>
</g>
<!-- Node30 -->
<g id="Node000030" class="node">
<title>Node30</title>
<g id="a_Node000030"><a xlink:href="editor__drag_8h.html" target="_top" xlink:title=" ">
<polygon fill="white" stroke="#666666" points="600,-250 519,-250 519,-231 600,-231 600,-250"/>
<text text-anchor="middle" x="559.5" y="-238" font-family="Helvetica,sans-Serif" font-size="10.00">editor_drag.h</text>
</a>
</g>
</g>
<!-- Node29&#45;&gt;Node30 -->
<g id="edge30_Node000029_Node000030" class="edge">
<title>Node29&#45;&gt;Node30</title>
<g id="a_edge30_Node000029_Node000030"><a xlink:title=" ">
<path fill="none" stroke="#63b8ff" d="M550.4,-275.95C552.72,-267.15 555.39,-257.06 557.23,-250.09"/>
<polygon fill="#63b8ff" stroke="#63b8ff" points="546.98,-275.19 547.81,-285.75 553.75,-276.97 546.98,-275.19"/>
</a>
</g>
</g>
<!-- Node32&#45;&gt;Node33 -->
<g id="edge34_Node000032_Node000033" class="edge">
<title>Node32&#45;&gt;Node33</title>
<g id="a_edge34_Node000032_Node000033"><a xlink:title=" ">
<path fill="none" stroke="#63b8ff" d="M691.79,-440.66C691.46,-431.93 691.08,-421.99 690.82,-415.09"/>
<polygon fill="#63b8ff" stroke="#63b8ff" points="688.3,-440.89 692.17,-450.75 695.29,-440.62 688.3,-440.89"/>
</a>
</g>
</g>
<!-- Node33&#45;&gt;Node28 -->
<g id="edge37_Node000033_Node000028" class="edge">
<title>Node33&#45;&gt;Node28</title>
<g id="a_edge37_Node000033_Node000028"><a xlink:title=" ">
<path fill="none" stroke="#63b8ff" d="M657.81,-392.55C630.88,-382.71 593.34,-368.98 569.22,-360.17"/>
<polygon fill="#63b8ff" stroke="#63b8ff" points="656.61,-395.84 667.2,-395.98 659.01,-389.26 656.61,-395.84"/>
</a>
</g>
</g>
<!-- Node34 -->
<g id="Node000034" class="node">
<title>Node34</title>
<g id="a_Node000034"><a xlink:href="midi__region__view_8h.html" target="_top" xlink:title=" ">
<polygon fill="white" stroke="#666666" points="731,-305 620,-305 620,-286 731,-286 731,-305"/>
<text text-anchor="middle" x="675.5" y="-293" font-family="Helvetica,sans-Serif" font-size="10.00">midi_region_view.h</text>
</a>
</g>
</g>
<!-- Node33&#45;&gt;Node34 -->
<g id="edge35_Node000033_Node000034" class="edge">
<title>Node33&#45;&gt;Node34</title>
<g id="a_edge35_Node000033_Node000034"><a xlink:title=" ">
<path fill="none" stroke="#63b8ff" d="M687.86,-385.48C684.58,-361.84 679.11,-322.5 676.7,-305.16"/>
<polygon fill="#63b8ff" stroke="#63b8ff" points="684.43,-386.24 689.27,-395.66 691.36,-385.28 684.43,-386.24"/>
</a>
</g>
</g>
<!-- Node34&#45;&gt;Node23 -->
<g id="edge36_Node000034_Node000023" class="edge">
<title>Node34&#45;&gt;Node23</title>
<g id="a_edge36_Node000034_Node000023"><a xlink:title=" ">
<path fill="none" stroke="#63b8ff" d="M672.86,-275.48C669.58,-251.84 664.11,-212.5 661.7,-195.16"/>
<polygon fill="#63b8ff" stroke="#63b8ff" points="669.43,-276.24 674.27,-285.66 676.36,-275.28 669.43,-276.24"/>
</a>
</g>
</g>
</g>
</svg>

<g id="navigator" transform="translate(0 0)" fill="#404254">
  <rect fill="#f2f5e9" fill-opacity="0.5" stroke="#606060" stroke-width=".5" x="0" y="0" width="60" height="60"/>
  <use id="zoomplus" xlink:href="#zoomPlus" x="17" y="9" onmousedown="handleZoom(evt,'in')"/>
  <use id="zoomminus" xlink:href="#zoomMin" x="42" y="9" onmousedown="handleZoom(evt,'out')"/>
  <use id="reset" xlink:href="#resetDef" x="30" y="36" onmousedown="handleReset()"/>
   <use id="arrowup" xlink:href="#arrowUp" x="0" y="0" onmousedown="handlePan(0,-1)"/>
  <use id="arrowright" xlink:href="#arrowRight" x="0" y="0" onmousedown="handlePan(1,0)"/>
  <use id="arrowdown" xlink:href="#arrowDown" x="0" y="0" onmousedown="handlePan(0,1)"/>
  <use id="arrowleft" xlink:href="#arrowLeft" x="0" y="0" onmousedown="handlePan(-1,0)"/>
</g>
<svg viewBox="0 0 15 15" width="100%" height="30px" preserveAspectRatio="xMaxYMin meet">
 <g id="arrow_out" transform="scale(0.3 0.3)">
  <a xlink:href="stateful__diff__command_8h__dep__incl_org.svg" target="_base">
   <rect id="button" ry="5" rx="5" y="6" x="6" height="38" width="38"
        fill="#f2f5e9" fill-opacity="0.5" stroke="#606060" stroke-width="1.0"/>
   <path id="arrow"
     d="M 11.500037,31.436501 C 11.940474,20.09759 22.043105,11.32322 32.158766,21.979434 L 37.068811,17.246167 C 37.068811,17.246167 37.088388,32 37.088388,32 L 22.160133,31.978069 C 22.160133,31.978069 26.997745,27.140456 26.997745,27.140456 C 18.528582,18.264221 13.291696,25.230495 11.500037,31.436501 z"
     style="fill:#404040;"/>
  </a>
 </g>
</svg>

<style type='text/css'>
<![CDATA[
[data-mouse-over-selected='false'] { opacity: 0.7; }
[data-mouse-over-selected='true']  { opacity: 1.0; }
]]>
</style>
<script type="application/ecmascript"><![CDATA[
document.addEventListener('DOMContentLoaded', (event) => {
  highlightEdges();
  highlightAdjacentNodes();
});
]]></script>
</svg>
