<?xml version="1.0" encoding="UTF-8" standalone="no"?>
<!DOCTYPE svg PUBLIC "-//W3C//DTD SVG 1.1//EN"
 "http://www.w3.org/Graphics/SVG/1.1/DTD/svg11.dtd">
<!-- Generated by graphviz version 2.43.0 (0)
 -->
<!-- Title: ARDOUR::MidiTrack::MidiControl Pages: 1 -->
<svg width="850pt" height="177pt"
 viewBox="0.00 0.00 850.00 177.00" xmlns="http://www.w3.org/2000/svg" xmlns:xlink="http://www.w3.org/1999/xlink">
<g id="graph0" class="graph" transform="scale(1 1) rotate(0) translate(4 173)">
<title>ARDOUR::MidiTrack::MidiControl</title>
<!-- Node1 -->
<g id="Node000001" class="node">
<title>Node1</title>
<g id="a_Node000001"><a xlink:title=" ">
<polygon fill="#999999" stroke="#666666" points="842,-79.5 724,-79.5 724,-49.5 842,-49.5 842,-79.5"/>
<text text-anchor="start" x="732" y="-67.5" font-family="Helvetica,sans-Serif" font-size="10.00">ARDOUR::MidiTrack::</text>
<text text-anchor="middle" x="783" y="-56.5" font-family="Helvetica,sans-Serif" font-size="10.00">MidiControl</text>
</a>
</g>
</g>
<!-- Node2 -->
<g id="Node000002" class="node">
<title>Node2</title>
<g id="a_Node000002"><a xlink:href="classARDOUR_1_1AutomationControl.html" target="_top" xlink:title=" ">
<polygon fill="white" stroke="#666666" points="688,-74 530,-74 530,-55 688,-55 688,-74"/>
<text text-anchor="middle" x="609" y="-62" font-family="Helvetica,sans-Serif" font-size="10.00">ARDOUR::AutomationControl</text>
</a>
</g>
</g>
<!-- Node2&#45;&gt;Node1 -->
<g id="edge1_Node000001_Node000002" class="edge">
<title>Node2&#45;&gt;Node1</title>
<g id="a_edge1_Node000001_Node000002"><a xlink:title=" ">
<path fill="none" stroke="#63b8ff" d="M698.33,-64.5C706.97,-64.5 715.58,-64.5 723.81,-64.5"/>
<polygon fill="#63b8ff" stroke="#63b8ff" points="698.2,-61 688.2,-64.5 698.2,-68 698.2,-61"/>
</a>
</g>
</g>
<!-- Node3 -->
<g id="Node000003" class="node">
<title>Node3</title>
<g id="a_Node000003"><a xlink:href="classPBD_1_1Controllable.html" target="_top" xlink:title=" ">
<polygon fill="white" stroke="#666666" points="460,-130 358,-130 358,-111 460,-111 460,-130"/>
<text text-anchor="middle" x="409" y="-118" font-family="Helvetica,sans-Serif" font-size="10.00">PBD::Controllable</text>
</a>
</g>
</g>
<!-- Node3&#45;&gt;Node2 -->
<g id="edge2_Node000002_Node000003" class="edge">
<title>Node3&#45;&gt;Node2</title>
<g id="a_edge2_Node000002_Node000003"><a xlink:title=" ">
<path fill="none" stroke="#63b8ff" d="M468.92,-108.74C477.37,-106.8 485.93,-104.7 494,-102.5 524.59,-94.15 559.05,-82.32 581.99,-74.09"/>
<polygon fill="#63b8ff" stroke="#63b8ff" points="468.08,-105.34 459.08,-110.94 469.6,-112.17 468.08,-105.34"/>
</a>
</g>
</g>
<!-- Node4 -->
<g id="Node000004" class="node">
<title>Node4</title>
<g id="a_Node000004"><a xlink:href="classPBD_1_1StatefulDestructible.html" target="_top" xlink:title=" ">
<polygon fill="white" stroke="#666666" points="283,-151 143,-151 143,-132 283,-132 283,-151"/>
<text text-anchor="middle" x="213" y="-139" font-family="Helvetica,sans-Serif" font-size="10.00">PBD::StatefulDestructible</text>
</a>
</g>
</g>
<!-- Node4&#45;&gt;Node3 -->
<g id="edge3_Node000003_Node000004" class="edge">
<title>Node4&#45;&gt;Node3</title>
<g id="a_edge3_Node000003_Node000004"><a xlink:title=" ">
<path fill="none" stroke="#63b8ff" d="M293.43,-132.9C315.16,-130.55 338.11,-128.07 357.71,-125.94"/>
<polygon fill="#63b8ff" stroke="#63b8ff" points="292.78,-129.45 283.22,-134.01 293.54,-136.41 292.78,-129.45"/>
</a>
</g>
</g>
<!-- Node5 -->
<g id="Node000005" class="node">
<title>Node5</title>
<g id="a_Node000005"><a xlink:href="classPBD_1_1Stateful.html" target="_top" xlink:title=" ">
<polygon fill="white" stroke="#666666" points="91.5,-169 10.5,-169 10.5,-150 91.5,-150 91.5,-169"/>
<text text-anchor="middle" x="51" y="-157" font-family="Helvetica,sans-Serif" font-size="10.00">PBD::Stateful</text>
</a>
</g>
</g>
<!-- Node5&#45;&gt;Node4 -->
<g id="edge4_Node000004_Node000005" class="edge">
<title>Node5&#45;&gt;Node4</title>
<g id="a_edge4_Node000004_Node000005"><a xlink:title=" ">
<path fill="none" stroke="#63b8ff" d="M101.73,-153.91C114.79,-152.44 129.12,-150.82 143,-149.26"/>
<polygon fill="#63b8ff" stroke="#63b8ff" points="101.1,-150.45 91.55,-155.05 101.88,-157.41 101.1,-150.45"/>
</a>
</g>
</g>
<!-- Node6 -->
<g id="Node000006" class="node">
<title>Node6</title>
<g id="a_Node000006"><a xlink:href="classPBD_1_1Destructible.html" target="_top" xlink:title=" ">
<polygon fill="white" stroke="#666666" points="102,-132 0,-132 0,-113 102,-113 102,-132"/>
<text text-anchor="middle" x="51" y="-120" font-family="Helvetica,sans-Serif" font-size="10.00">PBD::Destructible</text>
</a>
</g>
</g>
<!-- Node6&#45;&gt;Node4 -->
<g id="edge5_Node000004_Node000006" class="edge">
<title>Node6&#45;&gt;Node4</title>
<g id="a_edge5_Node000004_Node000006"><a xlink:title=" ">
<path fill="none" stroke="#63b8ff" d="M112.39,-129.67C122.37,-130.86 132.77,-132.09 142.94,-133.3"/>
<polygon fill="#63b8ff" stroke="#63b8ff" points="112.53,-126.16 102.19,-128.46 111.7,-133.11 112.53,-126.16"/>
</a>
</g>
</g>
<!-- Node7 -->
<g id="Node000007" class="node">
<title>Node7</title>
<g id="a_Node000007"><a xlink:title=" ">
<polygon fill="white" stroke="#666666" points="288,-113.5 138,-113.5 138,-83.5 288,-83.5 288,-113.5"/>
<text text-anchor="start" x="146" y="-101.5" font-family="Helvetica,sans-Serif" font-size="10.00">std::enable_shared</text>
<text text-anchor="middle" x="213" y="-90.5" font-family="Helvetica,sans-Serif" font-size="10.00">_from_this&lt; Controllable &gt;</text>
</a>
</g>
</g>
<!-- Node7&#45;&gt;Node3 -->
<g id="edge6_Node000003_Node000007" class="edge">
<title>Node7&#45;&gt;Node3</title>
<g id="a_edge6_Node000003_Node000007"><a xlink:title=" ">
<path fill="none" stroke="#63b8ff" d="M298.38,-108.07C318.69,-110.37 339.75,-112.76 357.91,-114.82"/>
<polygon fill="#63b8ff" stroke="#63b8ff" points="298.5,-104.56 288.17,-106.91 297.72,-111.52 298.5,-104.56"/>
</a>
</g>
</g>
<!-- Node8 -->
<g id="Node000008" class="node">
<title>Node8</title>
<g id="a_Node000008"><a xlink:href="classEvoral_1_1Control.html" target="_top" xlink:title=" ">
<polygon fill="white" stroke="#666666" points="453.5,-93 364.5,-93 364.5,-74 453.5,-74 453.5,-93"/>
<text text-anchor="middle" x="409" y="-81" font-family="Helvetica,sans-Serif" font-size="10.00">Evoral::Control</text>
</a>
</g>
</g>
<!-- Node8&#45;&gt;Node2 -->
<g id="edge7_Node000002_Node000008" class="edge">
<title>Node8&#45;&gt;Node2</title>
<g id="a_edge7_Node000002_Node000008"><a xlink:title=" ">
<path fill="none" stroke="#63b8ff" d="M463.95,-78.32C484.27,-76.37 507.82,-74.11 529.91,-71.99"/>
<polygon fill="#63b8ff" stroke="#63b8ff" points="463.56,-74.84 453.94,-79.28 464.23,-81.81 463.56,-74.84"/>
</a>
</g>
</g>
<!-- Node9 -->
<g id="Node000009" class="node">
<title>Node9</title>
<g id="a_Node000009"><a xlink:href="classARDOUR_1_1ControlGroupMember.html" target="_top" xlink:title=" ">
<polygon fill="white" stroke="#666666" points="494,-56 324,-56 324,-37 494,-37 494,-56"/>
<text text-anchor="middle" x="409" y="-44" font-family="Helvetica,sans-Serif" font-size="10.00">ARDOUR::ControlGroupMember</text>
</a>
</g>
</g>
<!-- Node9&#45;&gt;Node2 -->
<g id="edge8_Node000002_Node000009" class="edge">
<title>Node9&#45;&gt;Node2</title>
<g id="a_edge8_Node000002_Node000009"><a xlink:title=" ">
<path fill="none" stroke="#63b8ff" d="M504.26,-55.07C512.81,-55.85 521.4,-56.63 529.79,-57.39"/>
<polygon fill="#63b8ff" stroke="#63b8ff" points="504.53,-51.58 494.26,-54.16 503.9,-58.55 504.53,-51.58"/>
</a>
</g>
</g>
<!-- Node10 -->
<g id="Node000010" class="node">
<title>Node10</title>
<g id="a_Node000010"><a xlink:href="classARDOUR_1_1SessionHandleRef.html" target="_top" xlink:title=" ">
<polygon fill="white" stroke="#666666" points="486,-19 332,-19 332,0 486,0 486,-19"/>
<text text-anchor="middle" x="409" y="-7" font-family="Helvetica,sans-Serif" font-size="10.00">ARDOUR::SessionHandleRef</text>
</a>
</g>
</g>
<!-- Node10&#45;&gt;Node2 -->
<g id="edge9_Node000002_Node000010" class="edge">
<title>Node10&#45;&gt;Node2</title>
<g id="a_edge9_Node000002_Node000010"><a xlink:title=" ">
<path fill="none" stroke="#63b8ff" d="M468.58,-21.24C477.14,-23.19 485.82,-25.3 494,-27.5 524.14,-35.6 558.1,-46.91 581.05,-54.89"/>
<polygon fill="#63b8ff" stroke="#63b8ff" points="469.14,-17.78 458.62,-19.03 467.62,-24.62 469.14,-17.78"/>
</a>
</g>
</g>
<!-- Node11 -->
<g id="Node000011" class="node">
<title>Node11</title>
<g id="a_Node000011"><a xlink:href="classPBD_1_1ScopedConnectionList.html" target="_top" xlink:title=" ">
<polygon fill="white" stroke="#666666" points="288,-19 138,-19 138,0 288,0 288,-19"/>
<text text-anchor="middle" x="213" y="-7" font-family="Helvetica,sans-Serif" font-size="10.00">PBD::ScopedConnectionList</text>
</a>
</g>
</g>
<!-- Node11&#45;&gt;Node10 -->
<g id="edge10_Node000010_Node000011" class="edge">
<title>Node11&#45;&gt;Node10</title>
<g id="a_edge10_Node000010_Node000011"><a xlink:title=" ">
<path fill="none" stroke="#63b8ff" d="M298.35,-9.5C309.52,-9.5 320.92,-9.5 331.94,-9.5"/>
<polygon fill="#63b8ff" stroke="#63b8ff" points="298.17,-6 288.17,-9.5 298.17,-13 298.17,-6"/>
</a>
</g>
</g>
</g>
</svg>
