<?xml version="1.0" encoding="UTF-8" standalone="no"?>
<!DOCTYPE svg PUBLIC "-//W3C//DTD SVG 1.1//EN"
 "http://www.w3.org/Graphics/SVG/1.1/DTD/svg11.dtd">
<!-- Generated by graphviz version 2.43.0 (0)
 -->
<!-- Title: ArdourSurface::LaunchControlXL::Knob Pages: 1 -->
<svg width="563pt" height="86pt"
 viewBox="0.00 0.00 563.00 86.00" xmlns="http://www.w3.org/2000/svg" xmlns:xlink="http://www.w3.org/1999/xlink">
<g id="graph0" class="graph" transform="scale(1 1) rotate(0) translate(4 82)">
<title>ArdourSurface::LaunchControlXL::Knob</title>
<!-- Node1 -->
<g id="Node000001" class="node">
<title>Node1</title>
<g id="a_Node000001"><a xlink:title=" ">
<polygon fill="#999999" stroke="#666666" points="555,-54 394,-54 394,-24 555,-24 555,-54"/>
<text text-anchor="start" x="402" y="-42" font-family="Helvetica,sans-Serif" font-size="10.00">ArdourSurface::LaunchControl</text>
<text text-anchor="middle" x="474.5" y="-31" font-family="Helvetica,sans-Serif" font-size="10.00">XL::Knob</text>
</a>
</g>
</g>
<!-- Node2 -->
<g id="Node000002" class="node">
<title>Node2</title>
<g id="a_Node000002"><a xlink:href="structArdourSurface_1_1LaunchControlXL_1_1Controller.html" target="_top" xlink:title=" ">
<polygon fill="white" stroke="#666666" points="358,-78 197,-78 197,-48 358,-48 358,-78"/>
<text text-anchor="start" x="205" y="-66" font-family="Helvetica,sans-Serif" font-size="10.00">ArdourSurface::LaunchControl</text>
<text text-anchor="middle" x="277.5" y="-55" font-family="Helvetica,sans-Serif" font-size="10.00">XL::Controller</text>
</a>
</g>
</g>
<!-- Node2&#45;&gt;Node1 -->
<g id="edge1_Node000001_Node000002" class="edge">
<title>Node2&#45;&gt;Node1</title>
<g id="a_edge1_Node000001_Node000002"><a xlink:title=" ">
<path fill="none" stroke="#63b8ff" d="M368.12,-51.97C376.7,-50.91 385.36,-49.85 393.84,-48.8"/>
<polygon fill="#63b8ff" stroke="#63b8ff" points="367.59,-48.51 358.1,-53.2 368.45,-55.46 367.59,-48.51"/>
</a>
</g>
</g>
<!-- Node3 -->
<g id="Node000003" class="node">
<title>Node3</title>
<g id="a_Node000003"><a xlink:href="structArdourSurface_1_1LaunchControlXL_1_1MultiColorLED.html" target="_top" xlink:title=" ">
<polygon fill="white" stroke="#666666" points="358,-30 197,-30 197,0 358,0 358,-30"/>
<text text-anchor="start" x="205" y="-18" font-family="Helvetica,sans-Serif" font-size="10.00">ArdourSurface::LaunchControl</text>
<text text-anchor="middle" x="277.5" y="-7" font-family="Helvetica,sans-Serif" font-size="10.00">XL::MultiColorLED</text>
</a>
</g>
</g>
<!-- Node3&#45;&gt;Node1 -->
<g id="edge2_Node000001_Node000003" class="edge">
<title>Node3&#45;&gt;Node1</title>
<g id="a_edge2_Node000001_Node000003"><a xlink:title=" ">
<path fill="none" stroke="#63b8ff" d="M368.12,-26.03C376.7,-27.09 385.36,-28.15 393.84,-29.2"/>
<polygon fill="#63b8ff" stroke="#63b8ff" points="368.45,-22.54 358.1,-24.8 367.59,-29.49 368.45,-22.54"/>
</a>
</g>
</g>
<!-- Node4 -->
<g id="Node000004" class="node">
<title>Node4</title>
<g id="a_Node000004"><a xlink:href="structArdourSurface_1_1LaunchControlXL_1_1LED.html" target="_top" xlink:title=" ">
<polygon fill="white" stroke="#666666" points="161,-30 0,-30 0,0 161,0 161,-30"/>
<text text-anchor="start" x="8" y="-18" font-family="Helvetica,sans-Serif" font-size="10.00">ArdourSurface::LaunchControl</text>
<text text-anchor="middle" x="80.5" y="-7" font-family="Helvetica,sans-Serif" font-size="10.00">XL::LED</text>
</a>
</g>
</g>
<!-- Node4&#45;&gt;Node3 -->
<g id="edge3_Node000003_Node000004" class="edge">
<title>Node4&#45;&gt;Node3</title>
<g id="a_edge3_Node000003_Node000004"><a xlink:title=" ">
<path fill="none" stroke="#63b8ff" d="M171.12,-15C179.7,-15 188.36,-15 196.84,-15"/>
<polygon fill="#63b8ff" stroke="#63b8ff" points="171.1,-11.5 161.1,-15 171.1,-18.5 171.1,-11.5"/>
</a>
</g>
</g>
</g>
</svg>
