<?xml version="1.0" encoding="UTF-8" standalone="no"?>
<!DOCTYPE svg PUBLIC "-//W3C//DTD SVG 1.1//EN"
 "http://www.w3.org/Graphics/SVG/1.1/DTD/svg11.dtd">
<!-- Generated by graphviz version 2.43.0 (0)
 -->
<!-- Title: ArdourSurface::MixLayout::GainMeter Pages: 1 -->
<svg width="258pt" height="203pt"
 viewBox="0.00 0.00 257.50 203.00" xmlns="http://www.w3.org/2000/svg" xmlns:xlink="http://www.w3.org/1999/xlink">
<g id="graph0" class="graph" transform="scale(1 1) rotate(0) translate(4 199)">
<title>ArdourSurface::MixLayout::GainMeter</title>
<!-- Node1 -->
<g id="Node000001" class="node">
<title>Node1</title>
<g id="a_Node000001"><a xlink:title=" ">
<polygon fill="#999999" stroke="#666666" points="191,-30 48,-30 48,0 191,0 191,-30"/>
<text text-anchor="start" x="56" y="-18" font-family="Helvetica,sans-Serif" font-size="10.00">ArdourSurface::MixLayout</text>
<text text-anchor="middle" x="119.5" y="-7" font-family="Helvetica,sans-Serif" font-size="10.00">::GainMeter</text>
</a>
</g>
</g>
<!-- Node2 -->
<g id="Node000002" class="node">
<title>Node2</title>
<g id="a_Node000002"><a xlink:href="classArdourCanvas_1_1Container.html" target="_top" xlink:title=" ">
<polygon fill="white" stroke="#666666" points="188.5,-85 50.5,-85 50.5,-66 188.5,-66 188.5,-85"/>
<text text-anchor="middle" x="119.5" y="-73" font-family="Helvetica,sans-Serif" font-size="10.00">ArdourCanvas::Container</text>
</a>
</g>
</g>
<!-- Node2&#45;&gt;Node1 -->
<g id="edge1_Node000001_Node000002" class="edge">
<title>Node2&#45;&gt;Node1</title>
<g id="a_edge1_Node000001_Node000002"><a xlink:title=" ">
<path fill="none" stroke="#63b8ff" d="M119.5,-55.65C119.5,-47.36 119.5,-37.78 119.5,-30.11"/>
<polygon fill="#63b8ff" stroke="#63b8ff" points="116,-55.87 119.5,-65.87 123,-55.87 116,-55.87"/>
</a>
</g>
</g>
<!-- Node3 -->
<g id="Node000003" class="node">
<title>Node3</title>
<g id="a_Node000003"><a xlink:href="classArdourCanvas_1_1Item.html" target="_top" xlink:title=" ">
<polygon fill="white" stroke="#666666" points="176,-140 63,-140 63,-121 176,-121 176,-140"/>
<text text-anchor="middle" x="119.5" y="-128" font-family="Helvetica,sans-Serif" font-size="10.00">ArdourCanvas::Item</text>
</a>
</g>
</g>
<!-- Node3&#45;&gt;Node2 -->
<g id="edge2_Node000002_Node000003" class="edge">
<title>Node3&#45;&gt;Node2</title>
<g id="a_edge2_Node000002_Node000003"><a xlink:title=" ">
<path fill="none" stroke="#63b8ff" d="M119.5,-110.66C119.5,-101.93 119.5,-91.99 119.5,-85.09"/>
<polygon fill="#63b8ff" stroke="#63b8ff" points="116,-110.75 119.5,-120.75 123,-110.75 116,-110.75"/>
</a>
</g>
</g>
<!-- Node4 -->
<g id="Node000004" class="node">
<title>Node4</title>
<g id="a_Node000004"><a xlink:href="classArdourCanvas_1_1Fill.html" target="_top" xlink:title=" ">
<polygon fill="white" stroke="#666666" points="105,-195 0,-195 0,-176 105,-176 105,-195"/>
<text text-anchor="middle" x="52.5" y="-183" font-family="Helvetica,sans-Serif" font-size="10.00">ArdourCanvas::Fill</text>
</a>
</g>
</g>
<!-- Node4&#45;&gt;Node3 -->
<g id="edge3_Node000003_Node000004" class="edge">
<title>Node4&#45;&gt;Node3</title>
<g id="a_edge3_Node000003_Node000004"><a xlink:title=" ">
<path fill="none" stroke="#63b8ff" d="M71.33,-169.6C83.34,-160.11 98.47,-148.13 108.54,-140.17"/>
<polygon fill="#63b8ff" stroke="#63b8ff" points="68.94,-167.04 63.26,-175.98 73.28,-172.53 68.94,-167.04"/>
</a>
</g>
</g>
<!-- Node5 -->
<g id="Node000005" class="node">
<title>Node5</title>
<g id="a_Node000005"><a xlink:href="classArdourCanvas_1_1Outline.html" target="_top" xlink:title=" ">
<polygon fill="white" stroke="#666666" points="249.5,-195 123.5,-195 123.5,-176 249.5,-176 249.5,-195"/>
<text text-anchor="middle" x="186.5" y="-183" font-family="Helvetica,sans-Serif" font-size="10.00">ArdourCanvas::Outline</text>
</a>
</g>
</g>
<!-- Node5&#45;&gt;Node3 -->
<g id="edge4_Node000003_Node000005" class="edge">
<title>Node5&#45;&gt;Node3</title>
<g id="a_edge4_Node000003_Node000005"><a xlink:title=" ">
<path fill="none" stroke="#63b8ff" d="M167.67,-169.6C155.66,-160.11 140.53,-148.13 130.46,-140.17"/>
<polygon fill="#63b8ff" stroke="#63b8ff" points="165.72,-172.53 175.74,-175.98 170.06,-167.04 165.72,-172.53"/>
</a>
</g>
</g>
</g>
</svg>
