<?xml version="1.0" encoding="UTF-8" standalone="no"?>
<!DOCTYPE svg PUBLIC "-//W3C//DTD SVG 1.1//EN"
 "http://www.w3.org/Graphics/SVG/1.1/DTD/svg11.dtd">
<!-- Generated by graphviz version 2.43.0 (0)
 -->
<!-- Title: Temporal::TimeDomainSwapper Pages: 1 -->
<svg width="1585pt" height="730pt"
 viewBox="0.00 0.00 1585.00 730.00" xmlns="http://www.w3.org/2000/svg" xmlns:xlink="http://www.w3.org/1999/xlink">
<g id="graph0" class="graph" transform="scale(1 1) rotate(0) translate(4 726)">
<title>Temporal::TimeDomainSwapper</title>
<!-- Node1 -->
<g id="Node000001" class="node">
<title>Node1</title>
<g id="a_Node000001"><a xlink:title=" ">
<polygon fill="#999999" stroke="#666666" points="311,-487 138,-487 138,-468 311,-468 311,-487"/>
<text text-anchor="middle" x="224.5" y="-475" font-family="Helvetica,sans-Serif" font-size="10.00">Temporal::TimeDomainSwapper</text>
</a>
</g>
</g>
<!-- Node3 -->
<g id="Node000003" class="node">
<title>Node3</title>
<g id="a_Node000003"><a xlink:href="classARDOUR_1_1Locations.html" target="_top" xlink:title=" ">
<polygon fill="white" stroke="#666666" points="459,-543 347,-543 347,-524 459,-524 459,-543"/>
<text text-anchor="middle" x="403" y="-531" font-family="Helvetica,sans-Serif" font-size="10.00">ARDOUR::Locations</text>
</a>
</g>
</g>
<!-- Node1&#45;&gt;Node3 -->
<g id="edge2_Node000001_Node000003" class="edge">
<title>Node1&#45;&gt;Node3</title>
<g id="a_edge2_Node000001_Node000003"><a xlink:title=" ">
<path fill="none" stroke="#63b8ff" d="M265.45,-490.18C297.82,-500.45 342.72,-514.69 372.05,-524"/>
<polygon fill="#63b8ff" stroke="#63b8ff" points="266.43,-486.81 255.84,-487.13 264.31,-493.49 266.43,-486.81"/>
</a>
</g>
</g>
<!-- Node4 -->
<g id="Node000004" class="node">
<title>Node4</title>
<g id="a_Node000004"><a xlink:href="classARDOUR_1_1Region.html" target="_top" xlink:title=" ">
<polygon fill="white" stroke="#666666" points="452.5,-506 353.5,-506 353.5,-487 452.5,-487 452.5,-506"/>
<text text-anchor="middle" x="403" y="-494" font-family="Helvetica,sans-Serif" font-size="10.00">ARDOUR::Region</text>
</a>
</g>
</g>
<!-- Node1&#45;&gt;Node4 -->
<g id="edge3_Node000001_Node000004" class="edge">
<title>Node1&#45;&gt;Node4</title>
<g id="a_edge3_Node000001_Node000004"><a xlink:title=" ">
<path fill="none" stroke="#63b8ff" d="M321.29,-487.81C332.28,-489 343.12,-490.16 353.12,-491.24"/>
<polygon fill="#63b8ff" stroke="#63b8ff" points="321.48,-484.31 311.16,-486.72 320.73,-491.27 321.48,-484.31"/>
</a>
</g>
</g>
<!-- Node7 -->
<g id="Node000007" class="node">
<title>Node7</title>
<g id="a_Node000007"><a xlink:href="classEvoral_1_1ControlList.html" target="_top" xlink:title=" ">
<polygon fill="white" stroke="#666666" points="456,-469 350,-469 350,-450 456,-450 456,-469"/>
<text text-anchor="middle" x="403" y="-457" font-family="Helvetica,sans-Serif" font-size="10.00">Evoral::ControlList</text>
</a>
</g>
</g>
<!-- Node1&#45;&gt;Node7 -->
<g id="edge6_Node000001_Node000007" class="edge">
<title>Node1&#45;&gt;Node7</title>
<g id="a_edge6_Node000001_Node000007"><a xlink:title=" ">
<path fill="none" stroke="#63b8ff" d="M321.35,-467.72C331.1,-466.73 340.72,-465.75 349.74,-464.83"/>
<polygon fill="#63b8ff" stroke="#63b8ff" points="320.76,-464.27 311.16,-468.76 321.47,-471.23 320.76,-464.27"/>
</a>
</g>
</g>
<!-- Node9 -->
<g id="Node000009" class="node">
<title>Node9</title>
<g id="a_Node000009"><a xlink:href="classEvoral_1_1ControlSet.html" target="_top" xlink:title=" ">
<polygon fill="white" stroke="#666666" points="455,-309 351,-309 351,-290 455,-290 455,-309"/>
<text text-anchor="middle" x="403" y="-297" font-family="Helvetica,sans-Serif" font-size="10.00">Evoral::ControlSet</text>
</a>
</g>
</g>
<!-- Node1&#45;&gt;Node9 -->
<g id="edge8_Node000001_Node000009" class="edge">
<title>Node1&#45;&gt;Node9</title>
<g id="a_edge8_Node000001_Node000009"><a xlink:title=" ">
<path fill="none" stroke="#63b8ff" d="M242.38,-460.48C278.83,-423.72 363.91,-337.91 392.46,-309.12"/>
<polygon fill="#63b8ff" stroke="#63b8ff" points="239.55,-458.36 234.99,-467.93 244.52,-463.29 239.55,-458.36"/>
</a>
</g>
</g>
<!-- Node2 -->
<g id="Node000002" class="node">
<title>Node2</title>
<g id="a_Node000002"><a xlink:href="classPBD_1_1Destructible.html" target="_top" xlink:title=" ">
<polygon fill="white" stroke="#666666" points="102,-487 0,-487 0,-468 102,-468 102,-487"/>
<text text-anchor="middle" x="51" y="-475" font-family="Helvetica,sans-Serif" font-size="10.00">PBD::Destructible</text>
</a>
</g>
</g>
<!-- Node2&#45;&gt;Node1 -->
<g id="edge1_Node000001_Node000002" class="edge">
<title>Node2&#45;&gt;Node1</title>
<g id="a_edge1_Node000001_Node000002"><a xlink:title=" ">
<path fill="none" stroke="#63b8ff" d="M112.07,-477.5C120.43,-477.5 129.16,-477.5 137.88,-477.5"/>
<polygon fill="#63b8ff" stroke="#63b8ff" points="112.07,-474 102.07,-477.5 112.07,-481 112.07,-474"/>
</a>
</g>
</g>
<!-- Node5 -->
<g id="Node000005" class="node">
<title>Node5</title>
<g id="a_Node000005"><a xlink:href="classARDOUR_1_1AudioRegion.html" target="_top" xlink:title=" ">
<polygon fill="white" stroke="#666666" points="637,-543 510,-543 510,-524 637,-524 637,-543"/>
<text text-anchor="middle" x="573.5" y="-531" font-family="Helvetica,sans-Serif" font-size="10.00">ARDOUR::AudioRegion</text>
</a>
</g>
</g>
<!-- Node4&#45;&gt;Node5 -->
<g id="edge4_Node000004_Node000005" class="edge">
<title>Node4&#45;&gt;Node5</title>
<g id="a_edge4_Node000004_Node000005"><a xlink:title=" ">
<path fill="none" stroke="#63b8ff" d="M457.37,-508.22C480.45,-513.29 507.11,-519.14 528.96,-523.94"/>
<polygon fill="#63b8ff" stroke="#63b8ff" points="457.91,-504.75 447.39,-506.03 456.41,-511.59 457.91,-504.75"/>
</a>
</g>
</g>
<!-- Node6 -->
<g id="Node000006" class="node">
<title>Node6</title>
<g id="a_Node000006"><a xlink:href="classARDOUR_1_1MidiRegion.html" target="_top" xlink:title=" ">
<polygon fill="white" stroke="#666666" points="633.5,-506 513.5,-506 513.5,-487 633.5,-487 633.5,-506"/>
<text text-anchor="middle" x="573.5" y="-494" font-family="Helvetica,sans-Serif" font-size="10.00">ARDOUR::MidiRegion</text>
</a>
</g>
</g>
<!-- Node4&#45;&gt;Node6 -->
<g id="edge5_Node000004_Node000006" class="edge">
<title>Node4&#45;&gt;Node6</title>
<g id="a_edge5_Node000004_Node000006"><a xlink:title=" ">
<path fill="none" stroke="#63b8ff" d="M462.74,-496.5C479.15,-496.5 496.99,-496.5 513.42,-496.5"/>
<polygon fill="#63b8ff" stroke="#63b8ff" points="462.74,-493 452.74,-496.5 462.74,-500 462.74,-493"/>
</a>
</g>
</g>
<!-- Node8 -->
<g id="Node000008" class="node">
<title>Node8</title>
<g id="a_Node000008"><a xlink:href="classARDOUR_1_1AutomationList.html" target="_top" xlink:title=" ">
<polygon fill="white" stroke="#666666" points="643.5,-469 503.5,-469 503.5,-450 643.5,-450 643.5,-469"/>
<text text-anchor="middle" x="573.5" y="-457" font-family="Helvetica,sans-Serif" font-size="10.00">ARDOUR::AutomationList</text>
</a>
</g>
</g>
<!-- Node7&#45;&gt;Node8 -->
<g id="edge7_Node000007_Node000008" class="edge">
<title>Node7&#45;&gt;Node8</title>
<g id="a_edge7_Node000007_Node000008"><a xlink:title=" ">
<path fill="none" stroke="#63b8ff" d="M466.72,-459.5C478.68,-459.5 491.26,-459.5 503.41,-459.5"/>
<polygon fill="#63b8ff" stroke="#63b8ff" points="466.39,-456 456.39,-459.5 466.39,-463 466.39,-456"/>
</a>
</g>
</g>
<!-- Node10 -->
<g id="Node000010" class="node">
<title>Node10</title>
<g id="a_Node000010"><a xlink:href="classEvoral_1_1Sequence.html" target="_top" xlink:title=" ">
<polygon fill="white" stroke="#666666" points="638,-290 509,-290 509,-271 638,-271 638,-290"/>
<text text-anchor="middle" x="573.5" y="-278" font-family="Helvetica,sans-Serif" font-size="10.00">Evoral::Sequence&lt; T &gt;</text>
</a>
</g>
</g>
<!-- Node9&#45;&gt;Node10 -->
<g id="edge9_Node000009_Node000010" class="edge">
<title>Node9&#45;&gt;Node10</title>
<g id="a_edge9_Node000009_Node000010"><a xlink:title=" ">
<path fill="none" stroke="#63b8ff" d="M465.16,-292.6C479.37,-291 494.53,-289.29 508.84,-287.68"/>
<polygon fill="#63b8ff" stroke="#63b8ff" points="464.56,-289.15 455.01,-293.75 465.34,-296.11 464.56,-289.15"/>
</a>
</g>
</g>
<!-- Node12 -->
<g id="Node000012" class="node">
<title>Node12</title>
<g id="a_Node000012"><a xlink:href="classEvoral_1_1Sequence.html" target="_top" xlink:title=" ">
<polygon fill="white" stroke="#666666" points="652,-252.5 495,-252.5 495,-222.5 652,-222.5 652,-252.5"/>
<text text-anchor="start" x="503" y="-240.5" font-family="Helvetica,sans-Serif" font-size="10.00">Evoral::Sequence&lt; Temporal</text>
<text text-anchor="middle" x="573.5" y="-229.5" font-family="Helvetica,sans-Serif" font-size="10.00">::Beats &gt;</text>
</a>
</g>
</g>
<!-- Node9&#45;&gt;Node12 -->
<g id="edge11_Node000009_Node000012" class="edge">
<title>Node9&#45;&gt;Node12</title>
<g id="a_edge11_Node000009_Node000012"><a xlink:title=" ">
<path fill="none" stroke="#63b8ff" d="M434.64,-285.85C452.16,-278.26 474.63,-268.89 495,-261.5 503.47,-258.43 512.56,-255.39 521.41,-252.56"/>
<polygon fill="#63b8ff" stroke="#63b8ff" points="433.23,-282.64 425.47,-289.85 436.03,-289.06 433.23,-282.64"/>
</a>
</g>
</g>
<!-- Node13 -->
<g id="Node000013" class="node">
<title>Node13</title>
<g id="a_Node000013"><a xlink:href="classARDOUR_1_1Automatable.html" target="_top" xlink:title=" ">
<polygon fill="white" stroke="#666666" points="637.5,-327 509.5,-327 509.5,-308 637.5,-308 637.5,-327"/>
<text text-anchor="middle" x="573.5" y="-315" font-family="Helvetica,sans-Serif" font-size="10.00">ARDOUR::Automatable</text>
</a>
</g>
</g>
<!-- Node9&#45;&gt;Node13 -->
<g id="edge12_Node000009_Node000013" class="edge">
<title>Node9&#45;&gt;Node13</title>
<g id="a_edge12_Node000009_Node000013"><a xlink:title=" ">
<path fill="none" stroke="#63b8ff" d="M465.28,-306.05C479.66,-307.58 495,-309.22 509.45,-310.76"/>
<polygon fill="#63b8ff" stroke="#63b8ff" points="465.33,-302.53 455.01,-304.95 464.58,-309.49 465.33,-302.53"/>
</a>
</g>
</g>
<!-- Node51 -->
<g id="Node000051" class="node">
<title>Node51</title>
<g id="a_Node000051"><a xlink:href="classARDOUR_1_1PlugInsertBase.html" target="_top" xlink:title=" ">
<polygon fill="white" stroke="#666666" points="642.5,-192 504.5,-192 504.5,-173 642.5,-173 642.5,-192"/>
<text text-anchor="middle" x="573.5" y="-180" font-family="Helvetica,sans-Serif" font-size="10.00">ARDOUR::PlugInsertBase</text>
</a>
</g>
</g>
<!-- Node9&#45;&gt;Node51 -->
<g id="edge51_Node000009_Node000051" class="edge">
<title>Node9&#45;&gt;Node51</title>
<g id="a_edge51_Node000009_Node000051"><a xlink:title=" ">
<path fill="none" stroke="#63b8ff" d="M418.71,-282.12C435.53,-263.15 464.69,-232.88 495,-213.5 509.16,-204.45 526.4,-197.23 541.02,-192.05"/>
<polygon fill="#63b8ff" stroke="#63b8ff" points="416.01,-279.89 412.09,-289.73 421.29,-284.49 416.01,-279.89"/>
</a>
</g>
</g>
<!-- Node54 -->
<g id="Node000054" class="node">
<title>Node54</title>
<g id="a_Node000054"><a xlink:href="classEvoral_1_1Sequence.html" target="_top" xlink:title=" ">
<polygon fill="white" stroke="#666666" points="647.5,-432 499.5,-432 499.5,-413 647.5,-413 647.5,-432"/>
<text text-anchor="middle" x="573.5" y="-420" font-family="Helvetica,sans-Serif" font-size="10.00">Evoral::Sequence&lt; Time &gt;</text>
</a>
</g>
</g>
<!-- Node9&#45;&gt;Node54 -->
<g id="edge55_Node000009_Node000054" class="edge">
<title>Node9&#45;&gt;Node54</title>
<g id="a_edge55_Node000009_Node000054"><a xlink:title=" ">
<path fill="none" stroke="#63b8ff" d="M425.43,-315.14C460.8,-340.96 530.36,-391.74 559.34,-412.89"/>
<polygon fill="#63b8ff" stroke="#63b8ff" points="427.36,-312.22 417.22,-309.15 423.24,-317.87 427.36,-312.22"/>
</a>
</g>
</g>
<!-- Node11 -->
<g id="Node000011" class="node">
<title>Node11</title>
<g id="a_Node000011"><a xlink:href="classARDOUR_1_1AutomatableSequence.html" target="_top" xlink:title=" ">
<polygon fill="white" stroke="#666666" points="892,-241 688,-241 688,-222 892,-222 892,-241"/>
<text text-anchor="middle" x="790" y="-229" font-family="Helvetica,sans-Serif" font-size="10.00">ARDOUR::AutomatableSequence&lt; T &gt;</text>
</a>
</g>
</g>
<!-- Node10&#45;&gt;Node11 -->
<g id="edge10_Node000010_Node000011" class="edge">
<title>Node10&#45;&gt;Node11</title>
<g id="a_edge10_Node000010_Node000011"><a xlink:title=" ">
<path fill="none" stroke="#63b8ff" d="M625.84,-268.54C634.6,-266.32 643.59,-263.93 652,-261.5 668.2,-256.82 671.65,-253.66 688,-249.5 700.6,-246.3 714.23,-243.45 727.27,-241.03"/>
<polygon fill="#63b8ff" stroke="#63b8ff" points="624.95,-265.15 616.09,-270.96 626.64,-271.94 624.95,-265.15"/>
</a>
</g>
</g>
<!-- Node13&#45;&gt;Node11 -->
<g id="edge16_Node000013_Node000011" class="edge">
<title>Node13&#45;&gt;Node11</title>
<g id="a_edge16_Node000013_Node000011"><a xlink:title=" ">
<path fill="none" stroke="#63b8ff" d="M642.59,-303.85C645.87,-302.26 649.03,-300.48 652,-298.5 674.47,-283.49 665.06,-263.78 688,-249.5 693.44,-246.11 699.35,-243.32 705.49,-241.03"/>
<polygon fill="#63b8ff" stroke="#63b8ff" points="640.95,-300.75 633.1,-307.86 643.67,-307.2 640.95,-300.75"/>
</a>
</g>
</g>
<!-- Node14 -->
<g id="Node000014" class="node">
<title>Node14</title>
<g id="a_Node000014"><a xlink:href="classARDOUR_1_1AutomatableSequence.html" target="_top" xlink:title=" ">
<polygon fill="white" stroke="#666666" points="878,-437.5 702,-437.5 702,-407.5 878,-407.5 878,-437.5"/>
<text text-anchor="start" x="710" y="-425.5" font-family="Helvetica,sans-Serif" font-size="10.00">ARDOUR::AutomatableSequence</text>
<text text-anchor="middle" x="790" y="-414.5" font-family="Helvetica,sans-Serif" font-size="10.00">&lt; Temporal::Beats &gt;</text>
</a>
</g>
</g>
<!-- Node13&#45;&gt;Node14 -->
<g id="edge13_Node000013_Node000014" class="edge">
<title>Node13&#45;&gt;Node14</title>
<g id="a_edge13_Node000013_Node000014"><a xlink:title=" ">
<path fill="none" stroke="#63b8ff" d="M592.89,-333.77C614.3,-351.88 651.41,-380.79 688,-397.5 696.38,-401.33 705.43,-404.62 714.55,-407.44"/>
<polygon fill="#63b8ff" stroke="#63b8ff" points="595.1,-331.05 585.24,-327.18 590.53,-336.36 595.1,-331.05"/>
</a>
</g>
</g>
<!-- Node17 -->
<g id="Node000017" class="node">
<title>Node17</title>
<g id="a_Node000017"><a xlink:href="classARDOUR_1_1Pannable.html" target="_top" xlink:title=" ">
<polygon fill="white" stroke="#666666" points="845,-315 735,-315 735,-296 845,-296 845,-315"/>
<text text-anchor="middle" x="790" y="-303" font-family="Helvetica,sans-Serif" font-size="10.00">ARDOUR::Pannable</text>
</a>
</g>
</g>
<!-- Node13&#45;&gt;Node17 -->
<g id="edge17_Node000013_Node000017" class="edge">
<title>Node13&#45;&gt;Node17</title>
<g id="a_edge17_Node000013_Node000017"><a xlink:title=" ">
<path fill="none" stroke="#63b8ff" d="M648.03,-313.39C676.55,-311.79 708.62,-310 734.96,-308.52"/>
<polygon fill="#63b8ff" stroke="#63b8ff" points="647.49,-309.91 637.7,-313.96 647.88,-316.9 647.49,-309.91"/>
</a>
</g>
</g>
<!-- Node18 -->
<g id="Node000018" class="node">
<title>Node18</title>
<g id="a_Node000018"><a xlink:href="classARDOUR_1_1Processor.html" target="_top" xlink:title=" ">
<polygon fill="white" stroke="#666666" points="846.5,-389 733.5,-389 733.5,-370 846.5,-370 846.5,-389"/>
<text text-anchor="middle" x="790" y="-377" font-family="Helvetica,sans-Serif" font-size="10.00">ARDOUR::Processor</text>
</a>
</g>
</g>
<!-- Node13&#45;&gt;Node18 -->
<g id="edge18_Node000013_Node000018" class="edge">
<title>Node13&#45;&gt;Node18</title>
<g id="a_edge18_Node000013_Node000018"><a xlink:title=" ">
<path fill="none" stroke="#63b8ff" d="M605.68,-331.02C628.21,-340.36 659.55,-352.5 688,-360.5 702.51,-364.58 718.45,-368.04 733.29,-370.84"/>
<polygon fill="#63b8ff" stroke="#63b8ff" points="606.87,-327.72 596.3,-327.08 604.16,-334.18 606.87,-327.72"/>
</a>
</g>
</g>
<!-- Node43 -->
<g id="Node000043" class="node">
<title>Node43</title>
<g id="a_Node000043"><a xlink:href="classARDOUR_1_1Stripable.html" target="_top" xlink:title=" ">
<polygon fill="white" stroke="#666666" points="844.5,-278 735.5,-278 735.5,-259 844.5,-259 844.5,-278"/>
<text text-anchor="middle" x="790" y="-266" font-family="Helvetica,sans-Serif" font-size="10.00">ARDOUR::Stripable</text>
</a>
</g>
</g>
<!-- Node13&#45;&gt;Node43 -->
<g id="edge43_Node000013_Node000043" class="edge">
<title>Node13&#45;&gt;Node43</title>
<g id="a_edge43_Node000013_Node000043"><a xlink:title=" ">
<path fill="none" stroke="#63b8ff" d="M625.84,-305.54C634.6,-303.32 643.59,-300.93 652,-298.5 668.2,-293.82 671.65,-290.66 688,-286.5 703.28,-282.61 720.06,-279.26 735.49,-276.54"/>
<polygon fill="#63b8ff" stroke="#63b8ff" points="624.95,-302.15 616.09,-307.96 626.64,-308.94 624.95,-302.15"/>
</a>
</g>
</g>
<!-- Node50 -->
<g id="Node000050" class="node">
<title>Node50</title>
<g id="a_Node000050"><a xlink:href="classARDOUR_1_1SurroundPannable.html" target="_top" xlink:title=" ">
<polygon fill="white" stroke="#666666" points="866.5,-352 713.5,-352 713.5,-333 866.5,-333 866.5,-352"/>
<text text-anchor="middle" x="790" y="-340" font-family="Helvetica,sans-Serif" font-size="10.00">ARDOUR::SurroundPannable</text>
</a>
</g>
</g>
<!-- Node13&#45;&gt;Node50 -->
<g id="edge50_Node000013_Node000050" class="edge">
<title>Node13&#45;&gt;Node50</title>
<g id="a_edge50_Node000013_Node000050"><a xlink:title=" ">
<path fill="none" stroke="#63b8ff" d="M647.9,-326.05C669.03,-328.52 692.11,-331.21 713.38,-333.69"/>
<polygon fill="#63b8ff" stroke="#63b8ff" points="648.03,-322.55 637.7,-324.87 647.22,-329.5 648.03,-322.55"/>
</a>
</g>
</g>
<!-- Node15 -->
<g id="Node000015" class="node">
<title>Node15</title>
<g id="a_Node000015"><a xlink:href="classARDOUR_1_1MidiModel.html" target="_top" xlink:title=" ">
<polygon fill="white" stroke="#666666" points="1066,-722 950,-722 950,-703 1066,-703 1066,-722"/>
<text text-anchor="middle" x="1008" y="-710" font-family="Helvetica,sans-Serif" font-size="10.00">ARDOUR::MidiModel</text>
</a>
</g>
</g>
<!-- Node14&#45;&gt;Node15 -->
<g id="edge14_Node000014_Node000015" class="edge">
<title>Node14&#45;&gt;Node15</title>
<g id="a_edge14_Node000014_Node000015"><a xlink:title=" ">
<path fill="none" stroke="#63b8ff" d="M886.8,-441.51C888.63,-443.06 890.37,-444.72 892,-446.5 967.17,-528.69 852.45,-612.66 928,-694.5 933.92,-700.91 941.6,-705.27 949.85,-708.2"/>
<polygon fill="#63b8ff" stroke="#63b8ff" points="888.43,-438.37 878.26,-435.42 884.37,-444.07 888.43,-438.37"/>
</a>
</g>
</g>
<!-- Node16 -->
<g id="Node000016" class="node">
<title>Node16</title>
<g id="a_Node000016"><a xlink:href="classMidiCutBuffer.html" target="_top" xlink:title=" ">
<polygon fill="white" stroke="#666666" points="1049.5,-685 966.5,-685 966.5,-666 1049.5,-666 1049.5,-685"/>
<text text-anchor="middle" x="1008" y="-673" font-family="Helvetica,sans-Serif" font-size="10.00">MidiCutBuffer</text>
</a>
</g>
</g>
<!-- Node14&#45;&gt;Node16 -->
<g id="edge15_Node000014_Node000016" class="edge">
<title>Node14&#45;&gt;Node16</title>
<g id="a_edge15_Node000014_Node000016"><a xlink:title=" ">
<path fill="none" stroke="#63b8ff" d="M886.75,-441.56C888.59,-443.09 890.35,-444.74 892,-446.5 957.07,-515.9 862.61,-588.41 928,-657.5 937.86,-667.92 952.41,-672.9 966.34,-675.11"/>
<polygon fill="#63b8ff" stroke="#63b8ff" points="888.34,-438.4 878.14,-435.53 884.32,-444.13 888.34,-438.4"/>
</a>
</g>
</g>
<!-- Node19 -->
<g id="Node000019" class="node">
<title>Node19</title>
<g id="a_Node000019"><a xlink:href="classARDOUR_1_1Amp.html" target="_top" xlink:title=" ">
<polygon fill="white" stroke="#666666" points="1052,-278 964,-278 964,-259 1052,-259 1052,-278"/>
<text text-anchor="middle" x="1008" y="-266" font-family="Helvetica,sans-Serif" font-size="10.00">ARDOUR::Amp</text>
</a>
</g>
</g>
<!-- Node18&#45;&gt;Node19 -->
<g id="edge19_Node000018_Node000019" class="edge">
<title>Node18&#45;&gt;Node19</title>
<g id="a_edge19_Node000018_Node000019"><a xlink:title=" ">
<path fill="none" stroke="#63b8ff" d="M856.8,-376.22C869.4,-373.18 881.82,-368.27 892,-360.5 921.07,-338.31 899.36,-309.24 928,-286.5 938.14,-278.45 951.19,-273.87 963.75,-271.29"/>
<polygon fill="#63b8ff" stroke="#63b8ff" points="855.8,-372.85 846.7,-378.27 857.2,-379.71 855.8,-372.85"/>
</a>
</g>
</g>
<!-- Node20 -->
<g id="Node000020" class="node">
<title>Node20</title>
<g id="a_Node000020"><a xlink:href="classARDOUR_1_1BeatBox.html" target="_top" xlink:title=" ">
<polygon fill="white" stroke="#666666" points="1061.5,-241 954.5,-241 954.5,-222 1061.5,-222 1061.5,-241"/>
<text text-anchor="middle" x="1008" y="-229" font-family="Helvetica,sans-Serif" font-size="10.00">ARDOUR::BeatBox</text>
</a>
</g>
</g>
<!-- Node18&#45;&gt;Node20 -->
<g id="edge20_Node000018_Node000020" class="edge">
<title>Node18&#45;&gt;Node20</title>
<g id="a_edge20_Node000018_Node000020"><a xlink:title=" ">
<path fill="none" stroke="#63b8ff" d="M856.47,-377.58C869.43,-374.5 882.07,-369.23 892,-360.5 930.94,-326.24 889.72,-284.49 928,-249.5 935.37,-242.76 944.73,-238.38 954.41,-235.56"/>
<polygon fill="#63b8ff" stroke="#63b8ff" points="855.68,-374.17 846.55,-379.53 857.03,-381.04 855.68,-374.17"/>
</a>
</g>
</g>
<!-- Node21 -->
<g id="Node000021" class="node">
<title>Node21</title>
<g id="a_Node000021"><a xlink:href="classARDOUR_1_1CapturingProcessor.html" target="_top" xlink:title=" ">
<polygon fill="white" stroke="#666666" points="1088,-204 928,-204 928,-185 1088,-185 1088,-204"/>
<text text-anchor="middle" x="1008" y="-192" font-family="Helvetica,sans-Serif" font-size="10.00">ARDOUR::CapturingProcessor</text>
</a>
</g>
</g>
<!-- Node18&#45;&gt;Node21 -->
<g id="edge21_Node000018_Node000021" class="edge">
<title>Node18&#45;&gt;Node21</title>
<g id="a_edge21_Node000018_Node000021"><a xlink:title=" ">
<path fill="none" stroke="#63b8ff" d="M856.56,-378.24C869.63,-375.14 882.3,-369.7 892,-360.5 941.11,-313.91 879.78,-260.02 928,-212.5 931.41,-209.14 935.3,-206.36 939.5,-204.06"/>
<polygon fill="#63b8ff" stroke="#63b8ff" points="855.69,-374.84 846.53,-380.17 857.01,-381.71 855.69,-374.84"/>
</a>
</g>
</g>
<!-- Node22 -->
<g id="Node000022" class="node">
<title>Node22</title>
<g id="a_Node000022"><a xlink:href="classARDOUR_1_1DelayLine.html" target="_top" xlink:title=" ">
<polygon fill="white" stroke="#666666" points="1065,-167 951,-167 951,-148 1065,-148 1065,-167"/>
<text text-anchor="middle" x="1008" y="-155" font-family="Helvetica,sans-Serif" font-size="10.00">ARDOUR::DelayLine</text>
</a>
</g>
</g>
<!-- Node18&#45;&gt;Node22 -->
<g id="edge22_Node000018_Node000022" class="edge">
<title>Node18&#45;&gt;Node22</title>
<g id="a_edge22_Node000018_Node000022"><a xlink:title=" ">
<path fill="none" stroke="#63b8ff" d="M856.68,-378.62C869.81,-375.51 882.47,-369.97 892,-360.5 951.42,-301.45 869.72,-235.67 928,-175.5 934.26,-169.03 942.33,-164.68 950.91,-161.78"/>
<polygon fill="#63b8ff" stroke="#63b8ff" points="855.76,-375.23 846.59,-380.55 857.07,-382.11 855.76,-375.23"/>
</a>
</g>
</g>
<!-- Node23 -->
<g id="Node000023" class="node">
<title>Node23</title>
<g id="a_Node000023"><a xlink:href="classARDOUR_1_1DiskIOProcessor.html" target="_top" xlink:title=" ">
<polygon fill="white" stroke="#666666" points="1080.5,-648 935.5,-648 935.5,-629 1080.5,-629 1080.5,-648"/>
<text text-anchor="middle" x="1008" y="-636" font-family="Helvetica,sans-Serif" font-size="10.00">ARDOUR::DiskIOProcessor</text>
</a>
</g>
</g>
<!-- Node18&#45;&gt;Node23 -->
<g id="edge23_Node000018_Node000023" class="edge">
<title>Node18&#45;&gt;Node23</title>
<g id="a_edge23_Node000018_Node000023"><a xlink:title=" ">
<path fill="none" stroke="#63b8ff" d="M856.69,-380.11C869.88,-383.22 882.57,-388.83 892,-398.5 961.78,-470.06 859.59,-547.62 928,-620.5 931.08,-623.78 934.63,-626.52 938.47,-628.81"/>
<polygon fill="#63b8ff" stroke="#63b8ff" points="857.03,-376.61 846.56,-378.19 855.73,-383.49 857.03,-376.61"/>
</a>
</g>
</g>
<!-- Node26 -->
<g id="Node000026" class="node">
<title>Node26</title>
<g id="a_Node000026"><a xlink:href="classARDOUR_1_1IOProcessor.html" target="_top" xlink:title=" ">
<polygon fill="white" stroke="#666666" points="1069.5,-611 946.5,-611 946.5,-592 1069.5,-592 1069.5,-611"/>
<text text-anchor="middle" x="1008" y="-599" font-family="Helvetica,sans-Serif" font-size="10.00">ARDOUR::IOProcessor</text>
</a>
</g>
</g>
<!-- Node18&#45;&gt;Node26 -->
<g id="edge26_Node000018_Node000026" class="edge">
<title>Node18&#45;&gt;Node26</title>
<g id="a_edge26_Node000018_Node000026"><a xlink:title=" ">
<path fill="none" stroke="#63b8ff" d="M856.68,-380.38C869.81,-383.49 882.47,-389.03 892,-398.5 951.42,-457.55 869.72,-523.33 928,-583.5 933.09,-588.75 939.37,-592.62 946.15,-595.44"/>
<polygon fill="#63b8ff" stroke="#63b8ff" points="857.07,-376.89 846.59,-378.45 855.76,-383.77 857.07,-376.89"/>
</a>
</g>
</g>
<!-- Node33 -->
<g id="Node000033" class="node">
<title>Node33</title>
<g id="a_Node000033"><a xlink:href="classARDOUR_1_1InternalReturn.html" target="_top" xlink:title=" ">
<polygon fill="white" stroke="#666666" points="1075.5,-574 940.5,-574 940.5,-555 1075.5,-555 1075.5,-574"/>
<text text-anchor="middle" x="1008" y="-562" font-family="Helvetica,sans-Serif" font-size="10.00">ARDOUR::InternalReturn</text>
</a>
</g>
</g>
<!-- Node18&#45;&gt;Node33 -->
<g id="edge33_Node000018_Node000033" class="edge">
<title>Node18&#45;&gt;Node33</title>
<g id="a_edge33_Node000018_Node000033"><a xlink:title=" ">
<path fill="none" stroke="#63b8ff" d="M856.56,-380.76C869.63,-383.86 882.3,-389.3 892,-398.5 941.11,-445.09 879.78,-498.98 928,-546.5 931.61,-550.05 935.76,-552.97 940.24,-555.34"/>
<polygon fill="#63b8ff" stroke="#63b8ff" points="857.01,-377.29 846.53,-378.83 855.69,-384.16 857.01,-377.29"/>
</a>
</g>
</g>
<!-- Node35 -->
<g id="Node000035" class="node">
<title>Node35</title>
<g id="a_Node000035"><a xlink:href="classARDOUR_1_1MonitorProcessor.html" target="_top" xlink:title=" ">
<polygon fill="white" stroke="#666666" points="1083,-537 933,-537 933,-518 1083,-518 1083,-537"/>
<text text-anchor="middle" x="1008" y="-525" font-family="Helvetica,sans-Serif" font-size="10.00">ARDOUR::MonitorProcessor</text>
</a>
</g>
</g>
<!-- Node18&#45;&gt;Node35 -->
<g id="edge35_Node000018_Node000035" class="edge">
<title>Node18&#45;&gt;Node35</title>
<g id="a_edge35_Node000018_Node000035"><a xlink:title=" ">
<path fill="none" stroke="#63b8ff" d="M856.47,-381.42C869.43,-384.5 882.07,-389.77 892,-398.5 930.94,-432.76 889.72,-474.51 928,-509.5 931.63,-512.82 935.75,-515.57 940.15,-517.84"/>
<polygon fill="#63b8ff" stroke="#63b8ff" points="857.03,-377.96 846.55,-379.47 855.68,-384.83 857.03,-377.96"/>
</a>
</g>
</g>
<!-- Node36 -->
<g id="Node000036" class="node">
<title>Node36</title>
<g id="a_Node000036"><a xlink:href="classARDOUR_1_1PeakMeter.html" target="_top" xlink:title=" ">
<polygon fill="white" stroke="#666666" points="1067,-500 949,-500 949,-481 1067,-481 1067,-500"/>
<text text-anchor="middle" x="1008" y="-488" font-family="Helvetica,sans-Serif" font-size="10.00">ARDOUR::PeakMeter</text>
</a>
</g>
</g>
<!-- Node18&#45;&gt;Node36 -->
<g id="edge36_Node000018_Node000036" class="edge">
<title>Node18&#45;&gt;Node36</title>
<g id="a_edge36_Node000018_Node000036"><a xlink:title=" ">
<path fill="none" stroke="#63b8ff" d="M856.77,-382.82C869.37,-385.86 881.8,-390.75 892,-398.5 920.81,-420.37 899.74,-448.91 928,-471.5 934.17,-476.43 941.42,-480.12 948.99,-482.86"/>
<polygon fill="#63b8ff" stroke="#63b8ff" points="857.17,-379.33 846.67,-380.77 855.77,-386.19 857.17,-379.33"/>
</a>
</g>
</g>
<!-- Node37 -->
<g id="Node000037" class="node">
<title>Node37</title>
<g id="a_Node000037"><a xlink:href="classARDOUR_1_1PluginInsert.html" target="_top" xlink:title=" ">
<polygon fill="white" stroke="#666666" points="1069.5,-130 946.5,-130 946.5,-111 1069.5,-111 1069.5,-130"/>
<text text-anchor="middle" x="1008" y="-118" font-family="Helvetica,sans-Serif" font-size="10.00">ARDOUR::PluginInsert</text>
</a>
</g>
</g>
<!-- Node18&#45;&gt;Node37 -->
<g id="edge37_Node000018_Node000037" class="edge">
<title>Node18&#45;&gt;Node37</title>
<g id="a_edge37_Node000018_Node000037"><a xlink:title=" ">
<path fill="none" stroke="#63b8ff" d="M856.69,-378.89C869.88,-375.78 882.57,-370.17 892,-360.5 961.78,-288.94 859.59,-211.38 928,-138.5 933.1,-133.06 939.48,-129.11 946.38,-126.25"/>
<polygon fill="#63b8ff" stroke="#63b8ff" points="855.73,-375.51 846.56,-380.81 857.03,-382.39 855.73,-375.51"/>
</a>
</g>
</g>
<!-- Node38 -->
<g id="Node000038" class="node">
<title>Node38</title>
<g id="a_Node000038"><a xlink:href="classARDOUR_1_1PolarityProcessor.html" target="_top" xlink:title=" ">
<polygon fill="white" stroke="#666666" points="1083,-463 933,-463 933,-444 1083,-444 1083,-463"/>
<text text-anchor="middle" x="1008" y="-451" font-family="Helvetica,sans-Serif" font-size="10.00">ARDOUR::PolarityProcessor</text>
</a>
</g>
</g>
<!-- Node18&#45;&gt;Node38 -->
<g id="edge38_Node000018_Node000038" class="edge">
<title>Node18&#45;&gt;Node38</title>
<g id="a_edge38_Node000018_Node000038"><a xlink:title=" ">
<path fill="none" stroke="#63b8ff" d="M856.86,-385.98C868.99,-388.8 881.21,-392.81 892,-398.5 912.01,-409.06 908.26,-423.44 928,-434.5 934.89,-438.36 942.55,-441.44 950.31,-443.9"/>
<polygon fill="#63b8ff" stroke="#63b8ff" points="857.23,-382.49 846.72,-383.89 855.81,-389.34 857.23,-382.49"/>
</a>
</g>
</g>
<!-- Node39 -->
<g id="Node000039" class="node">
<title>Node39</title>
<g id="a_Node000039"><a xlink:href="classARDOUR_1_1SurroundReturn.html" target="_top" xlink:title=" ">
<polygon fill="white" stroke="#666666" points="1078.5,-426 937.5,-426 937.5,-407 1078.5,-407 1078.5,-426"/>
<text text-anchor="middle" x="1008" y="-414" font-family="Helvetica,sans-Serif" font-size="10.00">ARDOUR::SurroundReturn</text>
</a>
</g>
</g>
<!-- Node18&#45;&gt;Node39 -->
<g id="edge39_Node000018_Node000039" class="edge">
<title>Node18&#45;&gt;Node39</title>
<g id="a_edge39_Node000018_Node000039"><a xlink:title=" ">
<path fill="none" stroke="#63b8ff" d="M856.65,-390.75C886.85,-395.92 922.3,-401.99 951.19,-406.94"/>
<polygon fill="#63b8ff" stroke="#63b8ff" points="857.07,-387.27 846.63,-389.03 855.89,-394.17 857.07,-387.27"/>
</a>
</g>
</g>
<!-- Node40 -->
<g id="Node000040" class="node">
<title>Node40</title>
<g id="a_Node000040"><a xlink:href="classARDOUR_1_1SurroundSend.html" target="_top" xlink:title=" ">
<polygon fill="white" stroke="#666666" points="1074.5,-389 941.5,-389 941.5,-370 1074.5,-370 1074.5,-389"/>
<text text-anchor="middle" x="1008" y="-377" font-family="Helvetica,sans-Serif" font-size="10.00">ARDOUR::SurroundSend</text>
</a>
</g>
</g>
<!-- Node18&#45;&gt;Node40 -->
<g id="edge40_Node000018_Node000040" class="edge">
<title>Node18&#45;&gt;Node40</title>
<g id="a_edge40_Node000018_Node000040"><a xlink:title=" ">
<path fill="none" stroke="#63b8ff" d="M856.67,-379.5C883.47,-379.5 914.39,-379.5 941.2,-379.5"/>
<polygon fill="#63b8ff" stroke="#63b8ff" points="856.63,-376 846.63,-379.5 856.63,-383 856.63,-376"/>
</a>
</g>
</g>
<!-- Node41 -->
<g id="Node000041" class="node">
<title>Node41</title>
<g id="a_Node000041"><a xlink:href="classARDOUR_1_1TriggerBox.html" target="_top" xlink:title=" ">
<polygon fill="white" stroke="#666666" points="1066.5,-352 949.5,-352 949.5,-333 1066.5,-333 1066.5,-352"/>
<text text-anchor="middle" x="1008" y="-340" font-family="Helvetica,sans-Serif" font-size="10.00">ARDOUR::TriggerBox</text>
</a>
</g>
</g>
<!-- Node18&#45;&gt;Node41 -->
<g id="edge41_Node000018_Node000041" class="edge">
<title>Node18&#45;&gt;Node41</title>
<g id="a_edge41_Node000018_Node000041"><a xlink:title=" ">
<path fill="none" stroke="#63b8ff" d="M856.65,-368.25C886.85,-363.08 922.3,-357.01 951.19,-352.06"/>
<polygon fill="#63b8ff" stroke="#63b8ff" points="855.89,-364.83 846.63,-369.97 857.07,-371.73 855.89,-364.83"/>
</a>
</g>
</g>
<!-- Node42 -->
<g id="Node000042" class="node">
<title>Node42</title>
<g id="a_Node000042"><a xlink:href="classARDOUR_1_1UnknownProcessor.html" target="_top" xlink:title=" ">
<polygon fill="white" stroke="#666666" points="1087,-315 929,-315 929,-296 1087,-296 1087,-315"/>
<text text-anchor="middle" x="1008" y="-303" font-family="Helvetica,sans-Serif" font-size="10.00">ARDOUR::UnknownProcessor</text>
</a>
</g>
</g>
<!-- Node18&#45;&gt;Node42 -->
<g id="edge42_Node000018_Node000042" class="edge">
<title>Node18&#45;&gt;Node42</title>
<g id="a_edge42_Node000018_Node000042"><a xlink:title=" ">
<path fill="none" stroke="#63b8ff" d="M856.35,-373.27C868.66,-370.44 881.08,-366.36 892,-360.5 912.22,-349.65 907.99,-334.73 928,-323.5 934.13,-320.06 940.88,-317.27 947.78,-315.02"/>
<polygon fill="#63b8ff" stroke="#63b8ff" points="855.62,-369.85 846.53,-375.28 857.03,-376.7 855.62,-369.85"/>
</a>
</g>
</g>
<!-- Node24 -->
<g id="Node000024" class="node">
<title>Node24</title>
<g id="a_Node000024"><a xlink:href="classARDOUR_1_1DiskReader.html" target="_top" xlink:title=" ">
<polygon fill="white" stroke="#666666" points="1252.5,-685 1130.5,-685 1130.5,-666 1252.5,-666 1252.5,-685"/>
<text text-anchor="middle" x="1191.5" y="-673" font-family="Helvetica,sans-Serif" font-size="10.00">ARDOUR::DiskReader</text>
</a>
</g>
</g>
<!-- Node23&#45;&gt;Node24 -->
<g id="edge24_Node000023_Node000024" class="edge">
<title>Node23&#45;&gt;Node24</title>
<g id="a_edge24_Node000023_Node000024"><a xlink:title=" ">
<path fill="none" stroke="#63b8ff" d="M1065.82,-650.08C1090.83,-655.18 1119.85,-661.1 1143.6,-665.94"/>
<polygon fill="#63b8ff" stroke="#63b8ff" points="1066.24,-646.6 1055.74,-648.03 1064.84,-653.46 1066.24,-646.6"/>
</a>
</g>
</g>
<!-- Node25 -->
<g id="Node000025" class="node">
<title>Node25</title>
<g id="a_Node000025"><a xlink:href="classARDOUR_1_1DiskWriter.html" target="_top" xlink:title=" ">
<polygon fill="white" stroke="#666666" points="1250,-722 1133,-722 1133,-703 1250,-703 1250,-722"/>
<text text-anchor="middle" x="1191.5" y="-710" font-family="Helvetica,sans-Serif" font-size="10.00">ARDOUR::DiskWriter</text>
</a>
</g>
</g>
<!-- Node23&#45;&gt;Node25 -->
<g id="edge25_Node000023_Node000025" class="edge">
<title>Node23&#45;&gt;Node25</title>
<g id="a_edge25_Node000023_Node000025"><a xlink:title=" ">
<path fill="none" stroke="#63b8ff" d="M1075.44,-651.49C1079.8,-653.25 1084.03,-655.24 1088,-657.5 1107.94,-668.85 1104.22,-682.87 1124,-694.5 1129.77,-697.9 1136.2,-700.67 1142.73,-702.93"/>
<polygon fill="#63b8ff" stroke="#63b8ff" points="1076.34,-648.09 1065.74,-648.01 1073.97,-654.68 1076.34,-648.09"/>
</a>
</g>
</g>
<!-- Node27 -->
<g id="Node000027" class="node">
<title>Node27</title>
<g id="a_Node000027"><a xlink:href="classARDOUR_1_1Delivery.html" target="_top" xlink:title=" ">
<polygon fill="white" stroke="#666666" points="1245,-537 1138,-537 1138,-518 1245,-518 1245,-537"/>
<text text-anchor="middle" x="1191.5" y="-525" font-family="Helvetica,sans-Serif" font-size="10.00">ARDOUR::Delivery</text>
</a>
</g>
</g>
<!-- Node26&#45;&gt;Node27 -->
<g id="edge27_Node000026_Node000027" class="edge">
<title>Node26&#45;&gt;Node27</title>
<g id="a_edge27_Node000026_Node000027"><a xlink:title=" ">
<path fill="none" stroke="#63b8ff" d="M1077.77,-588.45C1081.31,-586.97 1084.74,-585.33 1088,-583.5 1108.01,-572.27 1104.31,-558.27 1124,-546.5 1130.39,-542.68 1137.59,-539.6 1144.82,-537.12"/>
<polygon fill="#63b8ff" stroke="#63b8ff" points="1076.39,-585.23 1068.22,-591.98 1078.82,-591.8 1076.39,-585.23"/>
</a>
</g>
</g>
<!-- Node30 -->
<g id="Node000030" class="node">
<title>Node30</title>
<g id="a_Node000030"><a xlink:href="classARDOUR_1_1PortInsert.html" target="_top" xlink:title=" ">
<polygon fill="white" stroke="#666666" points="1248,-648 1135,-648 1135,-629 1248,-629 1248,-648"/>
<text text-anchor="middle" x="1191.5" y="-636" font-family="Helvetica,sans-Serif" font-size="10.00">ARDOUR::PortInsert</text>
</a>
</g>
</g>
<!-- Node26&#45;&gt;Node30 -->
<g id="edge30_Node000026_Node000030" class="edge">
<title>Node26&#45;&gt;Node30</title>
<g id="a_edge30_Node000026_Node000030"><a xlink:title=" ">
<path fill="none" stroke="#63b8ff" d="M1065.82,-613.08C1090.83,-618.18 1119.85,-624.1 1143.6,-628.94"/>
<polygon fill="#63b8ff" stroke="#63b8ff" points="1066.24,-609.6 1055.74,-611.03 1064.84,-616.46 1066.24,-609.6"/>
</a>
</g>
</g>
<!-- Node31 -->
<g id="Node000031" class="node">
<title>Node31</title>
<g id="a_Node000031"><a xlink:href="classARDOUR_1_1Return.html" target="_top" xlink:title=" ">
<polygon fill="white" stroke="#666666" points="1240.5,-611 1142.5,-611 1142.5,-592 1240.5,-592 1240.5,-611"/>
<text text-anchor="middle" x="1191.5" y="-599" font-family="Helvetica,sans-Serif" font-size="10.00">ARDOUR::Return</text>
</a>
</g>
</g>
<!-- Node26&#45;&gt;Node31 -->
<g id="edge31_Node000026_Node000031" class="edge">
<title>Node26&#45;&gt;Node31</title>
<g id="a_edge31_Node000026_Node000031"><a xlink:title=" ">
<path fill="none" stroke="#63b8ff" d="M1079.85,-601.5C1100.84,-601.5 1123.32,-601.5 1142.49,-601.5"/>
<polygon fill="#63b8ff" stroke="#63b8ff" points="1079.69,-598 1069.69,-601.5 1079.69,-605 1079.69,-598"/>
</a>
</g>
</g>
<!-- Node32 -->
<g id="Node000032" class="node">
<title>Node32</title>
<g id="a_Node000032"><a xlink:href="classARDOUR_1_1SideChain.html" target="_top" xlink:title=" ">
<polygon fill="white" stroke="#666666" points="1248.5,-574 1134.5,-574 1134.5,-555 1248.5,-555 1248.5,-574"/>
<text text-anchor="middle" x="1191.5" y="-562" font-family="Helvetica,sans-Serif" font-size="10.00">ARDOUR::SideChain</text>
</a>
</g>
</g>
<!-- Node26&#45;&gt;Node32 -->
<g id="edge32_Node000026_Node000032" class="edge">
<title>Node26&#45;&gt;Node32</title>
<g id="a_edge32_Node000026_Node000032"><a xlink:title=" ">
<path fill="none" stroke="#63b8ff" d="M1065.82,-589.92C1090.83,-584.82 1119.85,-578.9 1143.6,-574.06"/>
<polygon fill="#63b8ff" stroke="#63b8ff" points="1064.84,-586.54 1055.74,-591.97 1066.24,-593.4 1064.84,-586.54"/>
</a>
</g>
</g>
<!-- Node28 -->
<g id="Node000028" class="node">
<title>Node28</title>
<g id="a_Node000028"><a xlink:href="classARDOUR_1_1Send.html" target="_top" xlink:title=" ">
<polygon fill="white" stroke="#666666" points="1399,-537 1310,-537 1310,-518 1399,-518 1399,-537"/>
<text text-anchor="middle" x="1354.5" y="-525" font-family="Helvetica,sans-Serif" font-size="10.00">ARDOUR::Send</text>
</a>
</g>
</g>
<!-- Node27&#45;&gt;Node28 -->
<g id="edge28_Node000027_Node000028" class="edge">
<title>Node27&#45;&gt;Node28</title>
<g id="a_edge28_Node000027_Node000028"><a xlink:title=" ">
<path fill="none" stroke="#63b8ff" d="M1255.46,-527.5C1273.64,-527.5 1293.08,-527.5 1309.81,-527.5"/>
<polygon fill="#63b8ff" stroke="#63b8ff" points="1255.22,-524 1245.22,-527.5 1255.22,-531 1255.22,-524"/>
</a>
</g>
</g>
<!-- Node29 -->
<g id="Node000029" class="node">
<title>Node29</title>
<g id="a_Node000029"><a xlink:href="classARDOUR_1_1InternalSend.html" target="_top" xlink:title=" ">
<polygon fill="white" stroke="#666666" points="1577,-537 1450,-537 1450,-518 1577,-518 1577,-537"/>
<text text-anchor="middle" x="1513.5" y="-525" font-family="Helvetica,sans-Serif" font-size="10.00">ARDOUR::InternalSend</text>
</a>
</g>
</g>
<!-- Node28&#45;&gt;Node29 -->
<g id="edge29_Node000028_Node000029" class="edge">
<title>Node28&#45;&gt;Node29</title>
<g id="a_edge29_Node000028_Node000029"><a xlink:title=" ">
<path fill="none" stroke="#63b8ff" d="M1409.45,-527.5C1422.49,-527.5 1436.53,-527.5 1449.93,-527.5"/>
<polygon fill="#63b8ff" stroke="#63b8ff" points="1409.23,-524 1399.23,-527.5 1409.23,-531 1409.23,-524"/>
</a>
</g>
</g>
<!-- Node34 -->
<g id="Node000034" class="node">
<title>Node34</title>
<g id="a_Node000034"><a xlink:href="classARDOUR_1_1MonitorReturn.html" target="_top" xlink:title=" ">
<polygon fill="white" stroke="#666666" points="1259,-500 1124,-500 1124,-481 1259,-481 1259,-500"/>
<text text-anchor="middle" x="1191.5" y="-488" font-family="Helvetica,sans-Serif" font-size="10.00">ARDOUR::MonitorReturn</text>
</a>
</g>
</g>
<!-- Node33&#45;&gt;Node34 -->
<g id="edge34_Node000033_Node000034" class="edge">
<title>Node33&#45;&gt;Node34</title>
<g id="a_edge34_Node000033_Node000034"><a xlink:title=" ">
<path fill="none" stroke="#63b8ff" d="M1077.77,-551.45C1081.31,-549.97 1084.74,-548.33 1088,-546.5 1108.01,-535.27 1104.31,-521.27 1124,-509.5 1130.39,-505.68 1137.59,-502.6 1144.82,-500.12"/>
<polygon fill="#63b8ff" stroke="#63b8ff" points="1076.39,-548.23 1068.22,-554.98 1078.82,-554.8 1076.39,-548.23"/>
</a>
</g>
</g>
<!-- Node44 -->
<g id="Node000044" class="node">
<title>Node44</title>
<g id="a_Node000044"><a xlink:href="classARDOUR_1_1Route.html" target="_top" xlink:title=" ">
<polygon fill="white" stroke="#666666" points="1055,-56 961,-56 961,-37 1055,-37 1055,-56"/>
<text text-anchor="middle" x="1008" y="-44" font-family="Helvetica,sans-Serif" font-size="10.00">ARDOUR::Route</text>
</a>
</g>
</g>
<!-- Node43&#45;&gt;Node44 -->
<g id="edge44_Node000043_Node000044" class="edge">
<title>Node43&#45;&gt;Node44</title>
<g id="a_edge44_Node000043_Node000044"><a xlink:title=" ">
<path fill="none" stroke="#63b8ff" d="M854.82,-268.04C868.6,-265.03 882.02,-259.42 892,-249.5 951.42,-190.45 869.72,-124.67 928,-64.5 936.61,-55.61 948.64,-50.7 960.71,-48.09"/>
<polygon fill="#63b8ff" stroke="#63b8ff" points="854,-264.63 844.76,-269.81 855.21,-271.53 854,-264.63"/>
</a>
</g>
</g>
<!-- Node49 -->
<g id="Node000049" class="node">
<title>Node49</title>
<g id="a_Node000049"><a xlink:href="classARDOUR_1_1VCA.html" target="_top" xlink:title=" ">
<polygon fill="white" stroke="#666666" points="1051,-93 965,-93 965,-74 1051,-74 1051,-93"/>
<text text-anchor="middle" x="1008" y="-81" font-family="Helvetica,sans-Serif" font-size="10.00">ARDOUR::VCA</text>
</a>
</g>
</g>
<!-- Node43&#45;&gt;Node49 -->
<g id="edge49_Node000043_Node000049" class="edge">
<title>Node43&#45;&gt;Node49</title>
<g id="a_edge49_Node000043_Node000049"><a xlink:title=" ">
<path fill="none" stroke="#63b8ff" d="M854.7,-267.66C868.43,-264.65 881.84,-259.13 892,-249.5 941.11,-202.91 879.78,-149.02 928,-101.5 937.72,-91.92 951.41,-87.02 964.68,-84.62"/>
<polygon fill="#63b8ff" stroke="#63b8ff" points="853.93,-264.24 844.69,-269.44 855.15,-271.14 853.93,-264.24"/>
</a>
</g>
</g>
<!-- Node45 -->
<g id="Node000045" class="node">
<title>Node45</title>
<g id="a_Node000045"><a xlink:href="classARDOUR_1_1Track.html" target="_top" xlink:title=" ">
<polygon fill="white" stroke="#666666" points="1237,-56 1146,-56 1146,-37 1237,-37 1237,-56"/>
<text text-anchor="middle" x="1191.5" y="-44" font-family="Helvetica,sans-Serif" font-size="10.00">ARDOUR::Track</text>
</a>
</g>
</g>
<!-- Node44&#45;&gt;Node45 -->
<g id="edge45_Node000044_Node000045" class="edge">
<title>Node44&#45;&gt;Node45</title>
<g id="a_edge45_Node000044_Node000045"><a xlink:title=" ">
<path fill="none" stroke="#63b8ff" d="M1065.34,-46.5C1091.26,-46.5 1121.58,-46.5 1145.88,-46.5"/>
<polygon fill="#63b8ff" stroke="#63b8ff" points="1065.27,-43 1055.27,-46.5 1065.27,-50 1065.27,-43"/>
</a>
</g>
</g>
<!-- Node46 -->
<g id="Node000046" class="node">
<title>Node46</title>
<g id="a_Node000046"><a xlink:href="classARDOUR_1_1AudioTrack.html" target="_top" xlink:title=" ">
<polygon fill="white" stroke="#666666" points="1414,-19 1295,-19 1295,0 1414,0 1414,-19"/>
<text text-anchor="middle" x="1354.5" y="-7" font-family="Helvetica,sans-Serif" font-size="10.00">ARDOUR::AudioTrack</text>
</a>
</g>
</g>
<!-- Node45&#45;&gt;Node46 -->
<g id="edge46_Node000045_Node000046" class="edge">
<title>Node45&#45;&gt;Node46</title>
<g id="a_edge46_Node000045_Node000046"><a xlink:title=" ">
<path fill="none" stroke="#63b8ff" d="M1243.8,-34.71C1265.77,-29.66 1291.11,-23.84 1311.9,-19.06"/>
<polygon fill="#63b8ff" stroke="#63b8ff" points="1242.92,-31.32 1233.96,-36.97 1244.49,-38.14 1242.92,-31.32"/>
</a>
</g>
</g>
<!-- Node47 -->
<g id="Node000047" class="node">
<title>Node47</title>
<g id="a_Node000047"><a xlink:href="classARDOUR_1_1Auditioner.html" target="_top" xlink:title=" ">
<polygon fill="white" stroke="#666666" points="1412.5,-93 1296.5,-93 1296.5,-74 1412.5,-74 1412.5,-93"/>
<text text-anchor="middle" x="1354.5" y="-81" font-family="Helvetica,sans-Serif" font-size="10.00">ARDOUR::Auditioner</text>
</a>
</g>
</g>
<!-- Node45&#45;&gt;Node47 -->
<g id="edge47_Node000045_Node000047" class="edge">
<title>Node45&#45;&gt;Node47</title>
<g id="a_edge47_Node000045_Node000047"><a xlink:title=" ">
<path fill="none" stroke="#63b8ff" d="M1243.8,-58.29C1265.77,-63.34 1291.11,-69.16 1311.9,-73.94"/>
<polygon fill="#63b8ff" stroke="#63b8ff" points="1244.49,-54.86 1233.96,-56.03 1242.92,-61.68 1244.49,-54.86"/>
</a>
</g>
</g>
<!-- Node48 -->
<g id="Node000048" class="node">
<title>Node48</title>
<g id="a_Node000048"><a xlink:href="classARDOUR_1_1MidiTrack.html" target="_top" xlink:title=" ">
<polygon fill="white" stroke="#666666" points="1410.5,-56 1298.5,-56 1298.5,-37 1410.5,-37 1410.5,-56"/>
<text text-anchor="middle" x="1354.5" y="-44" font-family="Helvetica,sans-Serif" font-size="10.00">ARDOUR::MidiTrack</text>
</a>
</g>
</g>
<!-- Node45&#45;&gt;Node48 -->
<g id="edge48_Node000045_Node000048" class="edge">
<title>Node45&#45;&gt;Node48</title>
<g id="a_edge48_Node000045_Node000048"><a xlink:title=" ">
<path fill="none" stroke="#63b8ff" d="M1247.35,-46.5C1263.79,-46.5 1281.82,-46.5 1298.28,-46.5"/>
<polygon fill="#63b8ff" stroke="#63b8ff" points="1247.35,-43 1237.35,-46.5 1247.35,-50 1247.35,-43"/>
</a>
</g>
</g>
<!-- Node51&#45;&gt;Node37 -->
<g id="edge53_Node000051_Node000037" class="edge">
<title>Node51&#45;&gt;Node37</title>
<g id="a_edge53_Node000051_Node000037"><a xlink:title=" ">
<path fill="none" stroke="#63b8ff" d="M602.9,-168.61C625.4,-158.32 657.95,-145 688,-138.5 776.37,-119.38 881.53,-117.31 946.28,-118.33"/>
<polygon fill="#63b8ff" stroke="#63b8ff" points="601.19,-165.55 593.61,-172.95 604.15,-171.89 601.19,-165.55"/>
</a>
</g>
</g>
<!-- Node52 -->
<g id="Node000052" class="node">
<title>Node52</title>
<g id="a_Node000052"><a xlink:href="classARDOUR_1_1IOPlug.html" target="_top" xlink:title=" ">
<polygon fill="white" stroke="#666666" points="838.5,-204 741.5,-204 741.5,-185 838.5,-185 838.5,-204"/>
<text text-anchor="middle" x="790" y="-192" font-family="Helvetica,sans-Serif" font-size="10.00">ARDOUR::IOPlug</text>
</a>
</g>
</g>
<!-- Node51&#45;&gt;Node52 -->
<g id="edge52_Node000051_Node000052" class="edge">
<title>Node51&#45;&gt;Node52</title>
<g id="a_edge52_Node000051_Node000052"><a xlink:title=" ">
<path fill="none" stroke="#63b8ff" d="M653,-186.89C682.63,-188.55 715.43,-190.38 741.39,-191.84"/>
<polygon fill="#63b8ff" stroke="#63b8ff" points="652.84,-183.38 642.66,-186.31 652.45,-190.37 652.84,-183.38"/>
</a>
</g>
</g>
<!-- Node53 -->
<g id="Node000053" class="node">
<title>Node53</title>
<g id="a_Node000053"><a xlink:href="classARDOUR_1_1RegionFxPlugin.html" target="_top" xlink:title=" ">
<polygon fill="white" stroke="#666666" points="860.5,-167 719.5,-167 719.5,-148 860.5,-148 860.5,-167"/>
<text text-anchor="middle" x="790" y="-155" font-family="Helvetica,sans-Serif" font-size="10.00">ARDOUR::RegionFxPlugin</text>
</a>
</g>
</g>
<!-- Node51&#45;&gt;Node53 -->
<g id="edge54_Node000051_Node000053" class="edge">
<title>Node51&#45;&gt;Node53</title>
<g id="a_edge54_Node000051_Node000053"><a xlink:title=" ">
<path fill="none" stroke="#63b8ff" d="M652.84,-173.37C674.55,-170.84 697.97,-168.11 719.17,-165.64"/>
<polygon fill="#63b8ff" stroke="#63b8ff" points="652.19,-169.92 642.66,-174.56 653,-176.87 652.19,-169.92"/>
</a>
</g>
</g>
<!-- Node54&#45;&gt;Node14 -->
<g id="edge56_Node000054_Node000014" class="edge">
<title>Node54&#45;&gt;Node14</title>
<g id="a_edge56_Node000054_Node000014"><a xlink:title=" ">
<path fill="none" stroke="#63b8ff" d="M658.02,-422.5C672.34,-422.5 687.25,-422.5 701.67,-422.5"/>
<polygon fill="#63b8ff" stroke="#63b8ff" points="657.72,-419 647.72,-422.5 657.72,-426 657.72,-419"/>
</a>
</g>
</g>
<!-- Node55 -->
<g id="Node000055" class="node">
<title>Node55</title>
<g id="a_Node000055"><a xlink:href="classMySequence.html" target="_top" xlink:title=" ">
<polygon fill="white" stroke="#666666" points="857.5,-485.5 722.5,-485.5 722.5,-455.5 857.5,-455.5 857.5,-485.5"/>
<text text-anchor="start" x="730.5" y="-473.5" font-family="Helvetica,sans-Serif" font-size="10.00">MySequence&lt; Temporal</text>
<text text-anchor="middle" x="790" y="-462.5" font-family="Helvetica,sans-Serif" font-size="10.00">::Beats &gt;</text>
</a>
</g>
</g>
<!-- Node54&#45;&gt;Node55 -->
<g id="edge57_Node000054_Node000055" class="edge">
<title>Node54&#45;&gt;Node55</title>
<g id="a_edge57_Node000054_Node000055"><a xlink:title=" ">
<path fill="none" stroke="#63b8ff" d="M626.98,-434.24C655.73,-440.68 691.66,-448.72 722.37,-455.59"/>
<polygon fill="#63b8ff" stroke="#63b8ff" points="627.66,-430.81 617.13,-432.04 626.13,-437.64 627.66,-430.81"/>
</a>
</g>
</g>
<!-- Node56 -->
<g id="Node000056" class="node">
<title>Node56</title>
<g id="a_Node000056"><a xlink:href="classMySequence.html" target="_top" xlink:title=" ">
<polygon fill="white" stroke="#666666" points="853,-523 727,-523 727,-504 853,-504 853,-523"/>
<text text-anchor="middle" x="790" y="-511" font-family="Helvetica,sans-Serif" font-size="10.00">MySequence&lt; Time &gt;</text>
</a>
</g>
</g>
<!-- Node54&#45;&gt;Node56 -->
<g id="edge58_Node000054_Node000056" class="edge">
<title>Node54&#45;&gt;Node56</title>
<g id="a_edge58_Node000054_Node000056"><a xlink:title=" ">
<path fill="none" stroke="#63b8ff" d="M645.3,-436.41C647.62,-437.66 649.86,-439.02 652,-440.5 675.72,-456.92 663.94,-478.59 688,-494.5 699.53,-502.13 713.34,-506.88 726.99,-509.8"/>
<polygon fill="#63b8ff" stroke="#63b8ff" points="646.58,-433.15 636.03,-432.13 643.64,-439.5 646.58,-433.15"/>
</a>
</g>
</g>
</g>
</svg>
