<?xml version="1.0" encoding="UTF-8" standalone="no"?>
<!DOCTYPE svg PUBLIC "-//W3C//DTD SVG 1.1//EN"
 "http://www.w3.org/Graphics/SVG/1.1/DTD/svg11.dtd">
<!-- Generated by graphviz version 2.43.0 (0)
 -->
<!-- Title: ArdourSurface::LaunchControlXL::Button Pages: 1 -->
<svg width="563pt" height="134pt"
 viewBox="0.00 0.00 563.00 134.00" xmlns="http://www.w3.org/2000/svg" xmlns:xlink="http://www.w3.org/1999/xlink">
<g id="graph0" class="graph" transform="scale(1 1) rotate(0) translate(4 130)">
<title>ArdourSurface::LaunchControlXL::Button</title>
<!-- Node1 -->
<g id="Node000001" class="node">
<title>Node1</title>
<g id="a_Node000001"><a xlink:title=" ">
<polygon fill="#999999" stroke="#666666" points="161,-102 0,-102 0,-72 161,-72 161,-102"/>
<text text-anchor="start" x="8" y="-90" font-family="Helvetica,sans-Serif" font-size="10.00">ArdourSurface::LaunchControl</text>
<text text-anchor="middle" x="80.5" y="-79" font-family="Helvetica,sans-Serif" font-size="10.00">XL::Button</text>
</a>
</g>
</g>
<!-- Node2 -->
<g id="Node000002" class="node">
<title>Node2</title>
<g id="a_Node000002"><a xlink:href="structArdourSurface_1_1LaunchControlXL_1_1ControllerButton.html" target="_top" xlink:title=" ">
<polygon fill="white" stroke="#666666" points="358,-126 197,-126 197,-96 358,-96 358,-126"/>
<text text-anchor="start" x="205" y="-114" font-family="Helvetica,sans-Serif" font-size="10.00">ArdourSurface::LaunchControl</text>
<text text-anchor="middle" x="277.5" y="-103" font-family="Helvetica,sans-Serif" font-size="10.00">XL::ControllerButton</text>
</a>
</g>
</g>
<!-- Node1&#45;&gt;Node2 -->
<g id="edge1_Node000001_Node000002" class="edge">
<title>Node1&#45;&gt;Node2</title>
<g id="a_edge1_Node000001_Node000002"><a xlink:title=" ">
<path fill="none" stroke="#63b8ff" d="M171.12,-98.03C179.7,-99.09 188.36,-100.15 196.84,-101.2"/>
<polygon fill="#63b8ff" stroke="#63b8ff" points="171.45,-94.54 161.1,-96.8 170.59,-101.49 171.45,-94.54"/>
</a>
</g>
</g>
<!-- Node4 -->
<g id="Node000004" class="node">
<title>Node4</title>
<g id="a_Node000004"><a xlink:href="structArdourSurface_1_1LaunchControlXL_1_1NoteButton.html" target="_top" xlink:title=" ">
<polygon fill="white" stroke="#666666" points="358,-78 197,-78 197,-48 358,-48 358,-78"/>
<text text-anchor="start" x="205" y="-66" font-family="Helvetica,sans-Serif" font-size="10.00">ArdourSurface::LaunchControl</text>
<text text-anchor="middle" x="277.5" y="-55" font-family="Helvetica,sans-Serif" font-size="10.00">XL::NoteButton</text>
</a>
</g>
</g>
<!-- Node1&#45;&gt;Node4 -->
<g id="edge3_Node000001_Node000004" class="edge">
<title>Node1&#45;&gt;Node4</title>
<g id="a_edge3_Node000001_Node000004"><a xlink:title=" ">
<path fill="none" stroke="#63b8ff" d="M171.12,-75.97C179.7,-74.91 188.36,-73.85 196.84,-72.8"/>
<polygon fill="#63b8ff" stroke="#63b8ff" points="170.59,-72.51 161.1,-77.2 171.45,-79.46 170.59,-72.51"/>
</a>
</g>
</g>
<!-- Node3 -->
<g id="Node000003" class="node">
<title>Node3</title>
<g id="a_Node000003"><a xlink:href="structArdourSurface_1_1LaunchControlXL_1_1SelectButton.html" target="_top" xlink:title=" ">
<polygon fill="white" stroke="#666666" points="555,-126 394,-126 394,-96 555,-96 555,-126"/>
<text text-anchor="start" x="402" y="-114" font-family="Helvetica,sans-Serif" font-size="10.00">ArdourSurface::LaunchControl</text>
<text text-anchor="middle" x="474.5" y="-103" font-family="Helvetica,sans-Serif" font-size="10.00">XL::SelectButton</text>
</a>
</g>
</g>
<!-- Node2&#45;&gt;Node3 -->
<g id="edge2_Node000002_Node000003" class="edge">
<title>Node2&#45;&gt;Node3</title>
<g id="a_edge2_Node000002_Node000003"><a xlink:title=" ">
<path fill="none" stroke="#63b8ff" d="M368.12,-111C376.7,-111 385.36,-111 393.84,-111"/>
<polygon fill="#63b8ff" stroke="#63b8ff" points="368.1,-107.5 358.1,-111 368.1,-114.5 368.1,-107.5"/>
</a>
</g>
</g>
<!-- Node5 -->
<g id="Node000005" class="node">
<title>Node5</title>
<g id="a_Node000005"><a xlink:href="structArdourSurface_1_1LaunchControlXL_1_1TrackButton.html" target="_top" xlink:title=" ">
<polygon fill="white" stroke="#666666" points="555,-78 394,-78 394,-48 555,-48 555,-78"/>
<text text-anchor="start" x="402" y="-66" font-family="Helvetica,sans-Serif" font-size="10.00">ArdourSurface::LaunchControl</text>
<text text-anchor="middle" x="474.5" y="-55" font-family="Helvetica,sans-Serif" font-size="10.00">XL::TrackButton</text>
</a>
</g>
</g>
<!-- Node4&#45;&gt;Node5 -->
<g id="edge4_Node000004_Node000005" class="edge">
<title>Node4&#45;&gt;Node5</title>
<g id="a_edge4_Node000004_Node000005"><a xlink:title=" ">
<path fill="none" stroke="#63b8ff" d="M368.12,-63C376.7,-63 385.36,-63 393.84,-63"/>
<polygon fill="#63b8ff" stroke="#63b8ff" points="368.1,-59.5 358.1,-63 368.1,-66.5 368.1,-59.5"/>
</a>
</g>
</g>
<!-- Node6 -->
<g id="Node000006" class="node">
<title>Node6</title>
<g id="a_Node000006"><a xlink:href="structArdourSurface_1_1LaunchControlXL_1_1TrackStateButton.html" target="_top" xlink:title=" ">
<polygon fill="white" stroke="#666666" points="555,-30 394,-30 394,0 555,0 555,-30"/>
<text text-anchor="start" x="402" y="-18" font-family="Helvetica,sans-Serif" font-size="10.00">ArdourSurface::LaunchControl</text>
<text text-anchor="middle" x="474.5" y="-7" font-family="Helvetica,sans-Serif" font-size="10.00">XL::TrackStateButton</text>
</a>
</g>
</g>
<!-- Node4&#45;&gt;Node6 -->
<g id="edge5_Node000004_Node000006" class="edge">
<title>Node4&#45;&gt;Node6</title>
<g id="a_edge5_Node000004_Node000006"><a xlink:title=" ">
<path fill="none" stroke="#63b8ff" d="M349.64,-45.49C370.27,-40.41 392.6,-34.91 412.55,-30"/>
<polygon fill="#63b8ff" stroke="#63b8ff" points="348.54,-42.16 339.66,-47.94 350.21,-48.95 348.54,-42.16"/>
</a>
</g>
</g>
</g>
</svg>
