<?xml version="1.0" encoding="UTF-8" standalone="no"?>
<!DOCTYPE svg PUBLIC "-//W3C//DTD SVG 1.1//EN"
 "http://www.w3.org/Graphics/SVG/1.1/DTD/svg11.dtd">
<!-- Generated by graphviz version 2.43.0 (0)
 -->
<!-- Title: types.h Pages: 1 -->
<svg width="766pt" height="412pt"
 viewBox="0.00 0.00 765.85 412.00" xmlns="http://www.w3.org/2000/svg" xmlns:xlink="http://www.w3.org/1999/xlink">
<g id="graph0" class="graph" transform="scale(1 1) rotate(0) translate(4 408)">
<title>types.h</title>
<!-- Node1 -->
<g id="Node000001" class="node">
<title>Node1</title>
<g id="a_Node000001"><a xlink:title=" ">
<polygon fill="#999999" stroke="#666666" points="428.5,-404 375.5,-404 375.5,-385 428.5,-385 428.5,-404"/>
<text text-anchor="middle" x="402" y="-392" font-family="Helvetica,sans-Serif" font-size="10.00">types.h</text>
</a>
</g>
</g>
<!-- Node2 -->
<g id="Node000002" class="node">
<title>Node2</title>
<g id="a_Node000002"><a xlink:href="surfaces_2mackie_2control__group_8h.html" target="_top" xlink:title=" ">
<polygon fill="white" stroke="#666666" points="92,-74 0,-74 0,-55 92,-55 92,-74"/>
<text text-anchor="middle" x="46" y="-62" font-family="Helvetica,sans-Serif" font-size="10.00">control_group.h</text>
</a>
</g>
</g>
<!-- Node1&#45;&gt;Node2 -->
<g id="edge1_Node000001_Node000002" class="edge">
<title>Node1&#45;&gt;Node2</title>
<g id="a_edge1_Node000001_Node000002"><a xlink:title=" ">
<path fill="none" stroke="#63b8ff" d="M365.33,-391.68C295.91,-387.63 148.4,-376.05 106,-349 77.47,-330.8 64,-319.34 64,-285.5 64,-285.5 64,-285.5 64,-173.5 64,-136.05 53.34,-92.28 48.43,-74.1"/>
<polygon fill="#63b8ff" stroke="#63b8ff" points="365.2,-395.17 375.38,-392.24 365.6,-388.19 365.2,-395.17"/>
</a>
</g>
</g>
<!-- Node3 -->
<g id="Node000003" class="node">
<title>Node3</title>
<g id="a_Node000003"><a xlink:href="mackie_2strip_8h.html" target="_top" xlink:title=" ">
<polygon fill="white" stroke="#666666" points="184.5,-19 137.5,-19 137.5,0 184.5,0 184.5,-19"/>
<text text-anchor="middle" x="161" y="-7" font-family="Helvetica,sans-Serif" font-size="10.00">strip.h</text>
</a>
</g>
</g>
<!-- Node1&#45;&gt;Node3 -->
<g id="edge25_Node000001_Node000003" class="edge">
<title>Node1&#45;&gt;Node3</title>
<g id="a_edge25_Node000001_Node000003"><a xlink:title=" ">
<path fill="none" stroke="#63b8ff" d="M364.87,-394.15C316.54,-393.35 231.07,-386.16 170,-349 139.31,-330.33 120,-321.42 120,-285.5 120,-285.5 120,-285.5 120,-118.5 120,-79.19 144.03,-36.77 155.3,-19.04"/>
<polygon fill="#63b8ff" stroke="#63b8ff" points="365.14,-397.65 375.17,-394.23 365.2,-390.65 365.14,-397.65"/>
</a>
</g>
</g>
<!-- Node4 -->
<g id="Node000004" class="node">
<title>Node4</title>
<g id="a_Node000004"><a xlink:href="mackie_2device__info_8h.html" target="_top" xlink:title=" ">
<polygon fill="white" stroke="#666666" points="244,-129 162,-129 162,-110 244,-110 244,-129"/>
<text text-anchor="middle" x="203" y="-117" font-family="Helvetica,sans-Serif" font-size="10.00">device_info.h</text>
</a>
</g>
</g>
<!-- Node1&#45;&gt;Node4 -->
<g id="edge3_Node000001_Node000004" class="edge">
<title>Node1&#45;&gt;Node4</title>
<g id="a_edge3_Node000001_Node000004"><a xlink:title=" ">
<path fill="none" stroke="#63b8ff" d="M365.12,-393.35C296.92,-390.92 158,-374.98 158,-285.5 158,-285.5 158,-285.5 158,-228.5 158,-188.89 184.11,-146.96 196.55,-129.23"/>
<polygon fill="#63b8ff" stroke="#63b8ff" points="365.33,-396.85 375.42,-393.63 365.52,-389.86 365.33,-396.85"/>
</a>
</g>
</g>
<!-- Node5 -->
<g id="Node000005" class="node">
<title>Node5</title>
<g id="a_Node000005"><a xlink:href="mackie__control__protocol_8h.html" target="_top" xlink:title=" ">
<polygon fill="white" stroke="#666666" points="605,-74 459,-74 459,-55 605,-55 605,-74"/>
<text text-anchor="middle" x="532" y="-62" font-family="Helvetica,sans-Serif" font-size="10.00">mackie_control_protocol.h</text>
</a>
</g>
</g>
<!-- Node1&#45;&gt;Node5 -->
<g id="edge24_Node000001_Node000005" class="edge">
<title>Node1&#45;&gt;Node5</title>
<g id="a_edge24_Node000001_Node000005"><a xlink:title=" ">
<path fill="none" stroke="#63b8ff" d="M438.89,-393.5C516.59,-392.75 693.63,-386.82 738,-349 760.42,-329.89 757,-314.96 757,-285.5 757,-285.5 757,-285.5 757,-173.5 757,-104.82 670.75,-79.79 605.05,-70.68"/>
<polygon fill="#63b8ff" stroke="#63b8ff" points="438.58,-390.01 428.61,-393.58 438.63,-397.01 438.58,-390.01"/>
</a>
</g>
</g>
<!-- Node6 -->
<g id="Node000006" class="node">
<title>Node6</title>
<g id="a_Node000006"><a xlink:href="libs_2surfaces_2mackie_2led_8h.html" target="_top" xlink:title=" ">
<polygon fill="white" stroke="#666666" points="227.5,-239 186.5,-239 186.5,-220 227.5,-220 227.5,-239"/>
<text text-anchor="middle" x="207" y="-227" font-family="Helvetica,sans-Serif" font-size="10.00">led.h</text>
</a>
</g>
</g>
<!-- Node1&#45;&gt;Node6 -->
<g id="edge7_Node000001_Node000006" class="edge">
<title>Node1&#45;&gt;Node6</title>
<g id="a_edge7_Node000001_Node000006"><a xlink:title=" ">
<path fill="none" stroke="#63b8ff" d="M371.11,-380.72C354,-372.88 332.86,-361.88 316,-349 270.91,-314.55 228.79,-260.22 213.28,-239.21"/>
<polygon fill="#63b8ff" stroke="#63b8ff" points="370.09,-384.09 380.65,-384.96 372.93,-377.7 370.09,-384.09"/>
</a>
</g>
</g>
<!-- Node10 -->
<g id="Node000010" class="node">
<title>Node10</title>
<g id="a_Node000010"><a xlink:href="mackie__control__exception_8h.html" target="_top" xlink:title=" ">
<polygon fill="white" stroke="#666666" points="479,-349 325,-349 325,-330 479,-330 479,-349"/>
<text text-anchor="middle" x="402" y="-337" font-family="Helvetica,sans-Serif" font-size="10.00">mackie_control_exception.h</text>
</a>
</g>
</g>
<!-- Node1&#45;&gt;Node10 -->
<g id="edge13_Node000001_Node000010" class="edge">
<title>Node1&#45;&gt;Node10</title>
<g id="a_edge13_Node000001_Node000010"><a xlink:title=" ">
<path fill="none" stroke="#63b8ff" d="M402,-374.66C402,-365.93 402,-355.99 402,-349.09"/>
<polygon fill="#63b8ff" stroke="#63b8ff" points="398.5,-374.75 402,-384.75 405.5,-374.75 398.5,-374.75"/>
</a>
</g>
</g>
<!-- Node16 -->
<g id="Node000016" class="node">
<title>Node16</title>
<g id="a_Node000016"><a xlink:href="mackie_2surface_8h.html" target="_top" xlink:title=" ">
<polygon fill="white" stroke="#666666" points="660,-239 598,-239 598,-220 660,-220 660,-239"/>
<text text-anchor="middle" x="629" y="-227" font-family="Helvetica,sans-Serif" font-size="10.00">surface.h</text>
</a>
</g>
</g>
<!-- Node1&#45;&gt;Node16 -->
<g id="edge26_Node000001_Node000016" class="edge">
<title>Node1&#45;&gt;Node16</title>
<g id="a_edge26_Node000001_Node000016"><a xlink:title=" ">
<path fill="none" stroke="#63b8ff" d="M438.72,-387.89C474.26,-381.55 529.06,-369.39 573,-349 611.48,-331.15 631.48,-331.66 651,-294 660.67,-275.36 645.86,-251.54 636.22,-239.04"/>
<polygon fill="#63b8ff" stroke="#63b8ff" points="438.05,-384.45 428.79,-389.59 439.24,-391.35 438.05,-384.45"/>
</a>
</g>
</g>
<!-- Node17 -->
<g id="Node000017" class="node">
<title>Node17</title>
<g id="a_Node000017"><a xlink:href="mackie_2surface__port_8h.html" target="_top" xlink:title=" ">
<polygon fill="white" stroke="#666666" points="729,-349 643,-349 643,-330 729,-330 729,-349"/>
<text text-anchor="middle" x="686" y="-337" font-family="Helvetica,sans-Serif" font-size="10.00">surface_port.h</text>
</a>
</g>
</g>
<!-- Node1&#45;&gt;Node17 -->
<g id="edge27_Node000001_Node000017" class="edge">
<title>Node1&#45;&gt;Node17</title>
<g id="a_edge27_Node000001_Node000017"><a xlink:title=" ">
<path fill="none" stroke="#63b8ff" d="M438.57,-386.68C490.84,-376.92 586.78,-359.02 642.59,-348.6"/>
<polygon fill="#63b8ff" stroke="#63b8ff" points="437.91,-383.24 428.72,-388.51 439.19,-390.12 437.91,-383.24"/>
</a>
</g>
</g>
<!-- Node18 -->
<g id="Node000018" class="node">
<title>Node18</title>
<g id="a_Node000018"><a xlink:href="surfaces_2mackie_2timer_8h.html" target="_top" xlink:title=" ">
<polygon fill="white" stroke="#666666" points="563.5,-349 512.5,-349 512.5,-330 563.5,-330 563.5,-349"/>
<text text-anchor="middle" x="538" y="-337" font-family="Helvetica,sans-Serif" font-size="10.00">timer.h</text>
</a>
</g>
</g>
<!-- Node1&#45;&gt;Node18 -->
<g id="edge28_Node000001_Node000018" class="edge">
<title>Node1&#45;&gt;Node18</title>
<g id="a_edge28_Node000001_Node000018"><a xlink:title=" ">
<path fill="none" stroke="#63b8ff" d="M433.33,-381.29C458.54,-371.47 493.33,-357.91 515.75,-349.17"/>
<polygon fill="#63b8ff" stroke="#63b8ff" points="431.9,-378.09 423.85,-384.98 434.44,-384.61 431.9,-378.09"/>
</a>
</g>
</g>
<!-- Node2&#45;&gt;Node3 -->
<g id="edge2_Node000002_Node000003" class="edge">
<title>Node2&#45;&gt;Node3</title>
<g id="a_edge2_Node000002_Node000003"><a xlink:title=" ">
<path fill="none" stroke="#63b8ff" d="M73.63,-50.77C94.84,-40.99 123.56,-27.75 142.19,-19.17"/>
<polygon fill="#63b8ff" stroke="#63b8ff" points="72.09,-47.62 64.48,-54.98 75.02,-53.98 72.09,-47.62"/>
</a>
</g>
</g>
<!-- Node4&#45;&gt;Node3 -->
<g id="edge6_Node000004_Node000003" class="edge">
<title>Node4&#45;&gt;Node3</title>
<g id="a_edge6_Node000004_Node000003"><a xlink:title=" ">
<path fill="none" stroke="#63b8ff" d="M195.85,-100.12C186.69,-76.56 171.17,-36.66 164.37,-19.16"/>
<polygon fill="#63b8ff" stroke="#63b8ff" points="192.68,-101.61 199.56,-109.66 199.2,-99.07 192.68,-101.61"/>
</a>
</g>
</g>
<!-- Node4&#45;&gt;Node5 -->
<g id="edge4_Node000004_Node000005" class="edge">
<title>Node4&#45;&gt;Node5</title>
<g id="a_edge4_Node000004_Node000005"><a xlink:title=" ">
<path fill="none" stroke="#63b8ff" d="M254.19,-110.25C315.34,-100.4 417.12,-84.01 479.04,-74.03"/>
<polygon fill="#63b8ff" stroke="#63b8ff" points="253.32,-106.85 244,-111.89 254.43,-113.76 253.32,-106.85"/>
</a>
</g>
</g>
<!-- Node5&#45;&gt;Node3 -->
<g id="edge5_Node000005_Node000003" class="edge">
<title>Node5&#45;&gt;Node3</title>
<g id="a_edge5_Node000005_Node000003"><a xlink:title=" ">
<path fill="none" stroke="#63b8ff" d="M462.36,-53.55C377.88,-41.48 239.92,-21.77 184.82,-13.9"/>
<polygon fill="#63b8ff" stroke="#63b8ff" points="462,-57.04 472.39,-54.98 462.99,-50.11 462,-57.04"/>
</a>
</g>
</g>
<!-- Node7 -->
<g id="Node000007" class="node">
<title>Node7</title>
<g id="a_Node000007"><a xlink:href="surfaces_2mackie_2button_8h.html" target="_top" xlink:title=" ">
<polygon fill="white" stroke="#666666" points="325.5,-184 268.5,-184 268.5,-165 325.5,-165 325.5,-184"/>
<text text-anchor="middle" x="297" y="-172" font-family="Helvetica,sans-Serif" font-size="10.00">button.h</text>
</a>
</g>
</g>
<!-- Node6&#45;&gt;Node7 -->
<g id="edge8_Node000006_Node000007" class="edge">
<title>Node6&#45;&gt;Node7</title>
<g id="a_edge8_Node000006_Node000007"><a xlink:title=" ">
<path fill="none" stroke="#63b8ff" d="M230.44,-214.7C246.84,-205.04 268.23,-192.44 282.28,-184.17"/>
<polygon fill="#63b8ff" stroke="#63b8ff" points="228.3,-211.89 221.46,-219.98 231.85,-217.93 228.3,-211.89"/>
</a>
</g>
</g>
<!-- Node7&#45;&gt;Node4 -->
<g id="edge9_Node000007_Node000004" class="edge">
<title>Node7&#45;&gt;Node4</title>
<g id="a_edge9_Node000007_Node000004"><a xlink:title=" ">
<path fill="none" stroke="#63b8ff" d="M273,-159.97C255.81,-150.28 233.19,-137.52 218.38,-129.17"/>
<polygon fill="#63b8ff" stroke="#63b8ff" points="271.47,-163.12 281.9,-164.98 274.91,-157.02 271.47,-163.12"/>
</a>
</g>
</g>
<!-- Node8 -->
<g id="Node000008" class="node">
<title>Node8</title>
<g id="a_Node000008"><a xlink:href="mackie_2device__profile_8h.html" target="_top" xlink:title=" ">
<polygon fill="white" stroke="#666666" points="467,-129 373,-129 373,-110 467,-110 467,-129"/>
<text text-anchor="middle" x="420" y="-117" font-family="Helvetica,sans-Serif" font-size="10.00">device_profile.h</text>
</a>
</g>
</g>
<!-- Node7&#45;&gt;Node8 -->
<g id="edge10_Node000007_Node000008" class="edge">
<title>Node7&#45;&gt;Node8</title>
<g id="a_edge10_Node000007_Node000008"><a xlink:title=" ">
<path fill="none" stroke="#63b8ff" d="M326.25,-160.9C348.97,-151.11 379.87,-137.79 399.88,-129.17"/>
<polygon fill="#63b8ff" stroke="#63b8ff" points="324.56,-157.81 316.76,-164.98 327.33,-164.24 324.56,-157.81"/>
</a>
</g>
</g>
<!-- Node9 -->
<g id="Node000009" class="node">
<title>Node9</title>
<g id="a_Node000009"><a xlink:href="mackie_2gui_8h.html" target="_top" xlink:title=" ">
<polygon fill="white" stroke="#666666" points="317.5,-129 276.5,-129 276.5,-110 317.5,-110 317.5,-129"/>
<text text-anchor="middle" x="297" y="-117" font-family="Helvetica,sans-Serif" font-size="10.00">gui.h</text>
</a>
</g>
</g>
<!-- Node7&#45;&gt;Node9 -->
<g id="edge12_Node000007_Node000009" class="edge">
<title>Node7&#45;&gt;Node9</title>
<g id="a_edge12_Node000007_Node000009"><a xlink:title=" ">
<path fill="none" stroke="#63b8ff" d="M297,-154.66C297,-145.93 297,-135.99 297,-129.09"/>
<polygon fill="#63b8ff" stroke="#63b8ff" points="293.5,-154.75 297,-164.75 300.5,-154.75 293.5,-154.75"/>
</a>
</g>
</g>
<!-- Node8&#45;&gt;Node5 -->
<g id="edge11_Node000008_Node000005" class="edge">
<title>Node8&#45;&gt;Node5</title>
<g id="a_edge11_Node000008_Node000005"><a xlink:title=" ">
<path fill="none" stroke="#63b8ff" d="M447.19,-105.63C467.82,-95.87 495.62,-82.71 513.68,-74.17"/>
<polygon fill="#63b8ff" stroke="#63b8ff" points="445.54,-102.54 437.99,-109.98 448.53,-108.87 445.54,-102.54"/>
</a>
</g>
</g>
<!-- Node11 -->
<g id="Node000011" class="node">
<title>Node11</title>
<g id="a_Node000011"><a xlink:href="mackie_2controls_8h.html" target="_top" xlink:title=" ">
<polygon fill="white" stroke="#666666" points="434.5,-294 369.5,-294 369.5,-275 434.5,-275 434.5,-294"/>
<text text-anchor="middle" x="402" y="-282" font-family="Helvetica,sans-Serif" font-size="10.00">controls.h</text>
</a>
</g>
</g>
<!-- Node10&#45;&gt;Node11 -->
<g id="edge14_Node000010_Node000011" class="edge">
<title>Node10&#45;&gt;Node11</title>
<g id="a_edge14_Node000010_Node000011"><a xlink:title=" ">
<path fill="none" stroke="#63b8ff" d="M402,-319.66C402,-310.93 402,-300.99 402,-294.09"/>
<polygon fill="#63b8ff" stroke="#63b8ff" points="398.5,-319.75 402,-329.75 405.5,-319.75 398.5,-319.75"/>
</a>
</g>
</g>
<!-- Node11&#45;&gt;Node5 -->
<g id="edge19_Node000011_Node000005" class="edge">
<title>Node11&#45;&gt;Node5</title>
<g id="a_edge19_Node000011_Node000005"><a xlink:title=" ">
<path fill="none" stroke="#63b8ff" d="M444.16,-271.19C461,-264.28 479.17,-253.95 491,-239 531.92,-187.31 533.13,-101.53 532.38,-74.17"/>
<polygon fill="#63b8ff" stroke="#63b8ff" points="442.56,-268.05 434.45,-274.88 445.04,-274.6 442.56,-268.05"/>
</a>
</g>
</g>
<!-- Node11&#45;&gt;Node6 -->
<g id="edge18_Node000011_Node000006" class="edge">
<title>Node11&#45;&gt;Node6</title>
<g id="a_edge18_Node000011_Node000006"><a xlink:title=" ">
<path fill="none" stroke="#63b8ff" d="M359.85,-272.29C326.49,-263.38 278.72,-250.54 237,-239 233.97,-238.16 230.78,-237.27 227.65,-236.39"/>
<polygon fill="#63b8ff" stroke="#63b8ff" points="359.15,-275.73 369.72,-274.92 360.96,-268.96 359.15,-275.73"/>
</a>
</g>
</g>
<!-- Node11&#45;&gt;Node7 -->
<g id="edge15_Node000011_Node000007" class="edge">
<title>Node11&#45;&gt;Node7</title>
<g id="a_edge15_Node000011_Node000007"><a xlink:title=" ">
<path fill="none" stroke="#63b8ff" d="M380.09,-269.33C368.4,-261.21 354.17,-250.39 343,-239 325.84,-221.51 310.07,-197.22 302.22,-184.34"/>
<polygon fill="#63b8ff" stroke="#63b8ff" points="378.2,-272.27 388.44,-274.98 382.12,-266.47 378.2,-272.27"/>
</a>
</g>
</g>
<!-- Node12 -->
<g id="Node000012" class="node">
<title>Node12</title>
<g id="a_Node000012"><a xlink:href="mackie_2fader_8h.html" target="_top" xlink:title=" ">
<polygon fill="white" stroke="#666666" points="296,-239 246,-239 246,-220 296,-220 296,-239"/>
<text text-anchor="middle" x="271" y="-227" font-family="Helvetica,sans-Serif" font-size="10.00">fader.h</text>
</a>
</g>
</g>
<!-- Node11&#45;&gt;Node12 -->
<g id="edge16_Node000011_Node000012" class="edge">
<title>Node11&#45;&gt;Node12</title>
<g id="a_edge16_Node000011_Node000012"><a xlink:title=" ">
<path fill="none" stroke="#63b8ff" d="M371.5,-271.16C347.25,-261.35 313.93,-247.87 292.43,-239.17"/>
<polygon fill="#63b8ff" stroke="#63b8ff" points="370.37,-274.48 380.95,-274.98 373,-267.99 370.37,-274.48"/>
</a>
</g>
</g>
<!-- Node13 -->
<g id="Node000013" class="node">
<title>Node13</title>
<g id="a_Node000013"><a xlink:href="mackie_2jog_8h.html" target="_top" xlink:title=" ">
<polygon fill="white" stroke="#666666" points="484.5,-184 443.5,-184 443.5,-165 484.5,-165 484.5,-184"/>
<text text-anchor="middle" x="464" y="-172" font-family="Helvetica,sans-Serif" font-size="10.00">jog.h</text>
</a>
</g>
</g>
<!-- Node11&#45;&gt;Node13 -->
<g id="edge17_Node000011_Node000013" class="edge">
<title>Node11&#45;&gt;Node13</title>
<g id="a_edge17_Node000011_Node000013"><a xlink:title=" ">
<path fill="none" stroke="#63b8ff" d="M437.75,-270.78C451.99,-263.74 466.89,-253.44 475,-239 484.86,-221.44 475.42,-197.18 468.94,-184.32"/>
<polygon fill="#63b8ff" stroke="#63b8ff" points="436.23,-267.62 428.57,-274.94 439.12,-274 436.23,-267.62"/>
</a>
</g>
</g>
<!-- Node14 -->
<g id="Node000014" class="node">
<title>Node14</title>
<g id="a_Node000014"><a xlink:href="surfaces_2mackie_2meter_8h.html" target="_top" xlink:title=" ">
<polygon fill="white" stroke="#666666" points="406,-239 352,-239 352,-220 406,-220 406,-239"/>
<text text-anchor="middle" x="379" y="-227" font-family="Helvetica,sans-Serif" font-size="10.00">meter.h</text>
</a>
</g>
</g>
<!-- Node11&#45;&gt;Node14 -->
<g id="edge20_Node000011_Node000014" class="edge">
<title>Node11&#45;&gt;Node14</title>
<g id="a_edge20_Node000011_Node000014"><a xlink:title=" ">
<path fill="none" stroke="#63b8ff" d="M394.2,-265.53C390.32,-256.6 385.82,-246.22 382.73,-239.09"/>
<polygon fill="#63b8ff" stroke="#63b8ff" points="391.01,-266.97 398.2,-274.75 397.43,-264.18 391.01,-266.97"/>
</a>
</g>
</g>
<!-- Node15 -->
<g id="Node000015" class="node">
<title>Node15</title>
<g id="a_Node000015"><a xlink:href="mackie_2pot_8h.html" target="_top" xlink:title=" ">
<polygon fill="white" stroke="#666666" points="465.5,-239 424.5,-239 424.5,-220 465.5,-220 465.5,-239"/>
<text text-anchor="middle" x="445" y="-227" font-family="Helvetica,sans-Serif" font-size="10.00">pot.h</text>
</a>
</g>
</g>
<!-- Node11&#45;&gt;Node15 -->
<g id="edge21_Node000011_Node000015" class="edge">
<title>Node11&#45;&gt;Node15</title>
<g id="a_edge21_Node000011_Node000015"><a xlink:title=" ">
<path fill="none" stroke="#63b8ff" d="M415.42,-266.96C422.91,-257.72 431.94,-246.6 438.03,-239.09"/>
<polygon fill="#63b8ff" stroke="#63b8ff" points="412.68,-264.78 409.1,-274.75 418.12,-269.19 412.68,-264.78"/>
</a>
</g>
</g>
<!-- Node11&#45;&gt;Node16 -->
<g id="edge23_Node000011_Node000016" class="edge">
<title>Node11&#45;&gt;Node16</title>
<g id="a_edge23_Node000011_Node000016"><a xlink:title=" ">
<path fill="none" stroke="#63b8ff" d="M444.48,-273.58C489.11,-263.16 558.24,-247.02 597.99,-237.74"/>
<polygon fill="#63b8ff" stroke="#63b8ff" points="443.47,-270.22 434.52,-275.91 445.06,-277.04 443.47,-270.22"/>
</a>
</g>
</g>
<!-- Node15&#45;&gt;Node13 -->
<g id="edge22_Node000015_Node000013" class="edge">
<title>Node15&#45;&gt;Node13</title>
<g id="a_edge22_Node000015_Node000013"><a xlink:title=" ">
<path fill="none" stroke="#63b8ff" d="M451.55,-210.24C454.72,-201.37 458.39,-191.14 460.92,-184.09"/>
<polygon fill="#63b8ff" stroke="#63b8ff" points="448.22,-209.15 448.14,-219.75 454.81,-211.52 448.22,-209.15"/>
</a>
</g>
</g>
<!-- Node18&#45;&gt;Node5 -->
<g id="edge32_Node000018_Node000005" class="edge">
<title>Node18&#45;&gt;Node5</title>
<g id="a_edge32_Node000018_Node000005"><a xlink:title=" ">
<path fill="none" stroke="#63b8ff" d="M538.73,-319.5C540.09,-282.72 542.99,-199.26 544,-129 544.12,-120.56 545.11,-118.37 544,-110 542.32,-97.31 538.05,-83.1 535.09,-74.23"/>
<polygon fill="#63b8ff" stroke="#63b8ff" points="535.22,-319.6 538.34,-329.72 542.22,-319.86 535.22,-319.6"/>
</a>
</g>
</g>
<!-- Node19 -->
<g id="Node000019" class="node">
<title>Node19</title>
<g id="a_Node000019"><a xlink:href="mackie_2jog__wheel_8h.html" target="_top" xlink:title=" ">
<polygon fill="white" stroke="#666666" points="641.5,-294 566.5,-294 566.5,-275 641.5,-275 641.5,-294"/>
<text text-anchor="middle" x="604" y="-282" font-family="Helvetica,sans-Serif" font-size="10.00">jog_wheel.h</text>
</a>
</g>
</g>
<!-- Node18&#45;&gt;Node19 -->
<g id="edge29_Node000018_Node000019" class="edge">
<title>Node18&#45;&gt;Node19</title>
<g id="a_edge29_Node000018_Node000019"><a xlink:title=" ">
<path fill="none" stroke="#63b8ff" d="M556.55,-323.6C568.38,-314.11 583.29,-302.13 593.2,-294.17"/>
<polygon fill="#63b8ff" stroke="#63b8ff" points="554.21,-320.99 548.6,-329.98 558.59,-326.45 554.21,-320.99"/>
</a>
</g>
</g>
<!-- Node19&#45;&gt;Node5 -->
<g id="edge30_Node000019_Node000005" class="edge">
<title>Node19&#45;&gt;Node5</title>
<g id="a_edge30_Node000019_Node000005"><a xlink:title=" ">
<path fill="none" stroke="#63b8ff" d="M635.28,-270.24C648.17,-263.03 661.76,-252.73 669,-239 672.94,-231.53 671.73,-227.99 669,-220 645.61,-151.47 573.83,-94.89 544.59,-74.08"/>
<polygon fill="#63b8ff" stroke="#63b8ff" points="633.41,-267.27 626.12,-274.95 636.61,-273.49 633.41,-267.27"/>
</a>
</g>
</g>
<!-- Node19&#45;&gt;Node16 -->
<g id="edge31_Node000019_Node000016" class="edge">
<title>Node19&#45;&gt;Node16</title>
<g id="a_edge31_Node000019_Node000016"><a xlink:title=" ">
<path fill="none" stroke="#63b8ff" d="M612.48,-265.53C616.69,-256.6 621.59,-246.22 624.95,-239.09"/>
<polygon fill="#63b8ff" stroke="#63b8ff" points="609.23,-264.21 608.13,-274.75 615.56,-267.2 609.23,-264.21"/>
</a>
</g>
</g>
</g>
</svg>
