<?xml version="1.0" encoding="UTF-8" standalone="no"?>
<!DOCTYPE svg PUBLIC "-//W3C//DTD SVG 1.1//EN"
 "http://www.w3.org/Graphics/SVG/1.1/DTD/svg11.dtd">
<!-- Generated by graphviz version 2.43.0 (0)
 -->
<!-- Title: variant.h Pages: 1 -->
<svg width="1686pt" height="500pt"
 viewBox="0.00 0.00 1686.00 500.00" xmlns="http://www.w3.org/2000/svg" xmlns:xlink="http://www.w3.org/1999/xlink">
<g id="graph0" class="graph" transform="scale(1 1) rotate(0) translate(4 496)">
<title>variant.h</title>
<!-- Node1 -->
<g id="Node000001" class="node">
<title>Node1</title>
<g id="a_Node000001"><a xlink:title=" ">
<polygon fill="#999999" stroke="#666666" points="1303,-492 1243,-492 1243,-473 1303,-473 1303,-492"/>
<text text-anchor="middle" x="1273" y="-480" font-family="Helvetica,sans-Serif" font-size="10.00">variant.h</text>
</a>
</g>
</g>
<!-- Node2 -->
<g id="Node000002" class="node">
<title>Node2</title>
<g id="a_Node000002"><a xlink:title=" ">
<polygon fill="#e0e0e0" stroke="#999999" points="1338.5,-24.5 1285.5,-24.5 1285.5,-5.5 1338.5,-5.5 1338.5,-24.5"/>
<text text-anchor="middle" x="1312" y="-12.5" font-family="Helvetica,sans-Serif" font-size="10.00">stdint.h</text>
</a>
</g>
</g>
<!-- Node1&#45;&gt;Node2 -->
<g id="edge1_Node000001_Node000002" class="edge">
<title>Node1&#45;&gt;Node2</title>
<g id="a_edge1_Node000001_Node000002"><a xlink:title=" ">
<path fill="none" stroke="#63b8ff" d="M1303.19,-478.87C1354.68,-473.79 1456.4,-460.95 1482,-437 1503.42,-416.96 1500,-402.83 1500,-373.5 1500,-373.5 1500,-373.5 1500,-195.5 1500,-132.97 1490.23,-109.18 1445,-66 1411.74,-34.24 1390.99,-46.33 1348,-30 1346.59,-29.46 1345.15,-28.91 1343.69,-28.36"/>
<polygon fill="#63b8ff" stroke="#63b8ff" points="1344.65,-24.98 1334.06,-24.64 1342.13,-31.51 1344.65,-24.98"/>
</a>
</g>
</g>
<!-- Node3 -->
<g id="Node000003" class="node">
<title>Node3</title>
<g id="a_Node000003"><a xlink:title=" ">
<polygon fill="#e0e0e0" stroke="#999999" points="1139.5,-437 1086.5,-437 1086.5,-418 1139.5,-418 1139.5,-437"/>
<text text-anchor="middle" x="1113" y="-425" font-family="Helvetica,sans-Serif" font-size="10.00">limits.h</text>
</a>
</g>
</g>
<!-- Node1&#45;&gt;Node3 -->
<g id="edge2_Node000001_Node000003" class="edge">
<title>Node1&#45;&gt;Node3</title>
<g id="a_edge2_Node000001_Node000003"><a xlink:title=" ">
<path fill="none" stroke="#63b8ff" d="M1247.29,-472.98C1220.55,-464.13 1178.47,-450.19 1148.55,-440.28"/>
<polygon fill="#63b8ff" stroke="#63b8ff" points="1149.5,-436.9 1138.91,-437.08 1147.3,-443.55 1149.5,-436.9"/>
</a>
</g>
</g>
<!-- Node4 -->
<g id="Node000004" class="node">
<title>Node4</title>
<g id="a_Node000004"><a xlink:title=" ">
<polygon fill="#e0e0e0" stroke="#999999" points="1222,-437 1158,-437 1158,-418 1222,-418 1222,-437"/>
<text text-anchor="middle" x="1190" y="-425" font-family="Helvetica,sans-Serif" font-size="10.00">algorithm</text>
</a>
</g>
</g>
<!-- Node1&#45;&gt;Node4 -->
<g id="edge3_Node000001_Node000004" class="edge">
<title>Node1&#45;&gt;Node4</title>
<g id="a_edge3_Node000001_Node000004"><a xlink:title=" ">
<path fill="none" stroke="#63b8ff" d="M1259.66,-472.98C1246.91,-464.84 1227.45,-452.41 1212.33,-442.76"/>
<polygon fill="#63b8ff" stroke="#63b8ff" points="1213.89,-439.6 1203.58,-437.17 1210.12,-445.5 1213.89,-439.6"/>
</a>
</g>
</g>
<!-- Node5 -->
<g id="Node000005" class="node">
<title>Node5</title>
<g id="a_Node000005"><a xlink:title=" ">
<polygon fill="#e0e0e0" stroke="#999999" points="1305.5,-437 1240.5,-437 1240.5,-418 1305.5,-418 1305.5,-437"/>
<text text-anchor="middle" x="1273" y="-425" font-family="Helvetica,sans-Serif" font-size="10.00">stdexcept</text>
</a>
</g>
</g>
<!-- Node1&#45;&gt;Node5 -->
<g id="edge4_Node000001_Node000005" class="edge">
<title>Node1&#45;&gt;Node5</title>
<g id="a_edge4_Node000001_Node000005"><a xlink:title=" ">
<path fill="none" stroke="#63b8ff" d="M1273,-472.75C1273,-465.8 1273,-455.85 1273,-447.13"/>
<polygon fill="#63b8ff" stroke="#63b8ff" points="1276.5,-447.09 1273,-437.09 1269.5,-447.09 1276.5,-447.09"/>
</a>
</g>
</g>
<!-- Node6 -->
<g id="Node000006" class="node">
<title>Node6</title>
<g id="a_Node000006"><a xlink:href="libardour__visibility_8h.html" target="_top" xlink:title=" ">
<polygon fill="white" stroke="#666666" points="1472.5,-437 1323.5,-437 1323.5,-418 1472.5,-418 1472.5,-437"/>
<text text-anchor="middle" x="1398" y="-425" font-family="Helvetica,sans-Serif" font-size="10.00">ardour/libardour_visibility.h</text>
</a>
</g>
</g>
<!-- Node1&#45;&gt;Node6 -->
<g id="edge5_Node000001_Node000006" class="edge">
<title>Node1&#45;&gt;Node6</title>
<g id="a_edge5_Node000001_Node000006"><a xlink:title=" ">
<path fill="none" stroke="#63b8ff" d="M1293.08,-472.98C1313.37,-464.38 1344.96,-450.99 1368.17,-441.15"/>
<polygon fill="#63b8ff" stroke="#63b8ff" points="1369.71,-444.3 1377.55,-437.17 1366.98,-437.85 1369.71,-444.3"/>
</a>
</g>
</g>
<!-- Node7 -->
<g id="Node000007" class="node">
<title>Node7</title>
<g id="a_Node000007"><a xlink:href="beats_8h.html" target="_top" xlink:title=" ">
<polygon fill="white" stroke="#666666" points="698,-437 598,-437 598,-418 698,-418 698,-437"/>
<text text-anchor="middle" x="648" y="-425" font-family="Helvetica,sans-Serif" font-size="10.00">temporal/beats.h</text>
</a>
</g>
</g>
<!-- Node1&#45;&gt;Node7 -->
<g id="edge6_Node000001_Node000007" class="edge">
<title>Node1&#45;&gt;Node7</title>
<g id="a_edge6_Node000001_Node000007"><a xlink:title=" ">
<path fill="none" stroke="#63b8ff" d="M1242.85,-478.94C1145.75,-470.71 839.86,-444.77 708.69,-433.65"/>
<polygon fill="#63b8ff" stroke="#63b8ff" points="708.69,-430.13 698.43,-432.78 708.1,-437.11 708.69,-430.13"/>
</a>
</g>
</g>
<!-- Node45 -->
<g id="Node000045" class="node">
<title>Node45</title>
<g id="a_Node000045"><a xlink:href="compose_8h.html" target="_top" xlink:title=" ">
<polygon fill="white" stroke="#666666" points="1583.5,-90.5 1492.5,-90.5 1492.5,-71.5 1583.5,-71.5 1583.5,-90.5"/>
<text text-anchor="middle" x="1538" y="-78.5" font-family="Helvetica,sans-Serif" font-size="10.00">pbd/compose.h</text>
</a>
</g>
</g>
<!-- Node1&#45;&gt;Node45 -->
<g id="edge70_Node000001_Node000045" class="edge">
<title>Node1&#45;&gt;Node45</title>
<g id="a_edge70_Node000001_Node000045"><a xlink:title=" ">
<path fill="none" stroke="#63b8ff" d="M1303.43,-479.56C1360.89,-475.31 1482.41,-463.39 1514,-437 1537.15,-417.66 1538,-403.67 1538,-373.5 1538,-373.5 1538,-373.5 1538,-195.5 1538,-162.11 1538,-123.19 1538,-100.69"/>
<polygon fill="#63b8ff" stroke="#63b8ff" points="1541.5,-100.54 1538,-90.54 1534.5,-100.54 1541.5,-100.54"/>
</a>
</g>
</g>
<!-- Node7&#45;&gt;Node2 -->
<g id="edge10_Node000007_Node000002" class="edge">
<title>Node7&#45;&gt;Node2</title>
<g id="a_edge10_Node000007_Node000002"><a xlink:title=" ">
<path fill="none" stroke="#63b8ff" d="M698.27,-423.37C849.83,-413.26 1292,-378.62 1292,-318.5 1292,-318.5 1292,-318.5 1292,-140.5 1292,-102.51 1301.19,-58.82 1307.11,-34.61"/>
<polygon fill="#63b8ff" stroke="#63b8ff" points="1310.56,-35.23 1309.63,-24.68 1303.78,-33.51 1310.56,-35.23"/>
</a>
</g>
</g>
<!-- Node8 -->
<g id="Node000008" class="node">
<title>Node8</title>
<g id="a_Node000008"><a xlink:title=" ">
<polygon fill="#e0e0e0" stroke="#999999" points="1264,-327 1212,-327 1212,-308 1264,-308 1264,-327"/>
<text text-anchor="middle" x="1238" y="-315" font-family="Helvetica,sans-Serif" font-size="10.00">cassert</text>
</a>
</g>
</g>
<!-- Node7&#45;&gt;Node8 -->
<g id="edge7_Node000007_Node000008" class="edge">
<title>Node7&#45;&gt;Node8</title>
<g id="a_edge7_Node000007_Node000008"><a xlink:title=" ">
<path fill="none" stroke="#63b8ff" d="M698.15,-417.95C794.95,-401.34 1014.24,-363.14 1198,-327 1199.25,-326.75 1200.53,-326.5 1201.82,-326.24"/>
<polygon fill="#63b8ff" stroke="#63b8ff" points="1202.68,-329.64 1211.77,-324.19 1201.27,-322.78 1202.68,-329.64"/>
</a>
</g>
</g>
<!-- Node9 -->
<g id="Node000009" class="node">
<title>Node9</title>
<g id="a_Node000009"><a xlink:title=" ">
<polygon fill="#e0e0e0" stroke="#999999" points="1433.5,-382 1386.5,-382 1386.5,-363 1433.5,-363 1433.5,-382"/>
<text text-anchor="middle" x="1410" y="-370" font-family="Helvetica,sans-Serif" font-size="10.00">float.h</text>
</a>
</g>
</g>
<!-- Node7&#45;&gt;Node9 -->
<g id="edge8_Node000007_Node000009" class="edge">
<title>Node7&#45;&gt;Node9</title>
<g id="a_edge8_Node000007_Node000009"><a xlink:title=" ">
<path fill="none" stroke="#63b8ff" d="M698.31,-426.15C816.48,-424.72 1120.76,-417.59 1372,-382 1373.46,-381.79 1374.96,-381.56 1376.46,-381.3"/>
<polygon fill="#63b8ff" stroke="#63b8ff" points="1377.23,-384.72 1386.39,-379.39 1375.91,-377.85 1377.23,-384.72"/>
</a>
</g>
</g>
<!-- Node10 -->
<g id="Node000010" class="node">
<title>Node10</title>
<g id="a_Node000010"><a xlink:title=" ">
<polygon fill="#e0e0e0" stroke="#999999" points="394.5,-382 343.5,-382 343.5,-363 394.5,-363 394.5,-382"/>
<text text-anchor="middle" x="369" y="-370" font-family="Helvetica,sans-Serif" font-size="10.00">math.h</text>
</a>
</g>
</g>
<!-- Node7&#45;&gt;Node10 -->
<g id="edge9_Node000007_Node000010" class="edge">
<title>Node7&#45;&gt;Node10</title>
<g id="a_edge9_Node000007_Node000010"><a xlink:title=" ">
<path fill="none" stroke="#63b8ff" d="M597.6,-418.34C550.17,-410.43 476.93,-397.65 404.75,-382.27"/>
<polygon fill="#63b8ff" stroke="#63b8ff" points="405.09,-378.76 394.58,-380.08 403.62,-385.61 405.09,-378.76"/>
</a>
</g>
</g>
<!-- Node11 -->
<g id="Node000011" class="node">
<title>Node11</title>
<g id="a_Node000011"><a xlink:title=" ">
<polygon fill="#e0e0e0" stroke="#999999" points="465.5,-382 412.5,-382 412.5,-363 465.5,-363 465.5,-382"/>
<text text-anchor="middle" x="439" y="-370" font-family="Helvetica,sans-Serif" font-size="10.00">stdlib.h</text>
</a>
</g>
</g>
<!-- Node7&#45;&gt;Node11 -->
<g id="edge11_Node000007_Node000011" class="edge">
<title>Node7&#45;&gt;Node11</title>
<g id="a_edge11_Node000007_Node000011"><a xlink:title=" ">
<path fill="none" stroke="#63b8ff" d="M614.42,-417.98C576.39,-408.34 514.64,-392.68 475.46,-382.75"/>
<polygon fill="#63b8ff" stroke="#63b8ff" points="476.09,-379.29 465.53,-380.23 474.37,-386.08 476.09,-379.29"/>
</a>
</g>
</g>
<!-- Node12 -->
<g id="Node000012" class="node">
<title>Node12</title>
<g id="a_Node000012"><a xlink:title=" ">
<polygon fill="#e0e0e0" stroke="#999999" points="134,-24.5 74,-24.5 74,-5.5 134,-5.5 134,-24.5"/>
<text text-anchor="middle" x="104" y="-12.5" font-family="Helvetica,sans-Serif" font-size="10.00">iostream</text>
</a>
</g>
</g>
<!-- Node7&#45;&gt;Node12 -->
<g id="edge12_Node000007_Node000012" class="edge">
<title>Node7&#45;&gt;Node12</title>
<g id="a_edge12_Node000007_Node000012"><a xlink:title=" ">
<path fill="none" stroke="#63b8ff" d="M597.74,-425.64C511.65,-423.31 330.86,-414.58 182,-382 98.31,-363.68 0,-404.17 0,-318.5 0,-318.5 0,-318.5 0,-140.5 0,-90.77 49.48,-50.41 80.18,-30.16"/>
<polygon fill="#63b8ff" stroke="#63b8ff" points="82.1,-33.08 88.65,-24.76 78.34,-27.18 82.1,-33.08"/>
</a>
</g>
</g>
<!-- Node13 -->
<g id="Node000013" class="node">
<title>Node13</title>
<g id="a_Node000013"><a xlink:title=" ">
<polygon fill="#e0e0e0" stroke="#999999" points="56,-24.5 12,-24.5 12,-5.5 56,-5.5 56,-24.5"/>
<text text-anchor="middle" x="34" y="-12.5" font-family="Helvetica,sans-Serif" font-size="10.00">limits</text>
</a>
</g>
</g>
<!-- Node7&#45;&gt;Node13 -->
<g id="edge13_Node000007_Node000013" class="edge">
<title>Node7&#45;&gt;Node13</title>
<g id="a_edge13_Node000007_Node000013"><a xlink:title=" ">
<path fill="none" stroke="#63b8ff" d="M623.5,-417.96C568.05,-398.46 434.55,-350.55 393,-327 247.22,-244.36 213.02,-214.97 95,-96 75.46,-76.31 56.69,-50.26 45.25,-33.32"/>
<polygon fill="#63b8ff" stroke="#63b8ff" points="47.86,-30.91 39.41,-24.51 42.02,-34.78 47.86,-30.91"/>
</a>
</g>
</g>
<!-- Node14 -->
<g id="Node000014" class="node">
<title>Node14</title>
<g id="a_Node000014"><a xlink:title=" ">
<polygon fill="#e0e0e0" stroke="#999999" points="1678,-24.5 1622,-24.5 1622,-5.5 1678,-5.5 1678,-24.5"/>
<text text-anchor="middle" x="1650" y="-12.5" font-family="Helvetica,sans-Serif" font-size="10.00">sstream</text>
</a>
</g>
</g>
<!-- Node7&#45;&gt;Node14 -->
<g id="edge14_Node000007_Node000014" class="edge">
<title>Node7&#45;&gt;Node14</title>
<g id="a_edge14_Node000007_Node000014"><a xlink:title=" ">
<path fill="none" stroke="#63b8ff" d="M698.02,-425.27C867.87,-420.9 1413.7,-405.12 1443,-382 1466.13,-363.75 1462,-347.96 1462,-318.5 1462,-318.5 1462,-318.5 1462,-195.5 1462,-106.8 1583.67,-168.34 1635,-96 1647.81,-77.94 1650.56,-52.02 1650.76,-34.63"/>
<polygon fill="#63b8ff" stroke="#63b8ff" points="1654.26,-34.54 1650.61,-24.6 1647.26,-34.65 1654.26,-34.54"/>
</a>
</g>
</g>
<!-- Node15 -->
<g id="Node000015" class="node">
<title>Node15</title>
<g id="a_Node000015"><a xlink:href="failed__constructor_8h.html" target="_top" xlink:title=" ">
<polygon fill="white" stroke="#666666" points="325,-382 191,-382 191,-363 325,-363 325,-382"/>
<text text-anchor="middle" x="258" y="-370" font-family="Helvetica,sans-Serif" font-size="10.00">pbd/failed_constructor.h</text>
</a>
</g>
</g>
<!-- Node7&#45;&gt;Node15 -->
<g id="edge15_Node000007_Node000015" class="edge">
<title>Node7&#45;&gt;Node15</title>
<g id="a_edge15_Node000007_Node000015"><a xlink:title=" ">
<path fill="none" stroke="#63b8ff" d="M597.81,-419.68C529.98,-410.46 408.6,-393.97 330.77,-383.39"/>
<polygon fill="#63b8ff" stroke="#63b8ff" points="330.93,-379.88 320.55,-382 329.99,-386.82 330.93,-379.88"/>
</a>
</g>
</g>
<!-- Node18 -->
<g id="Node000018" class="node">
<title>Node18</title>
<g id="a_Node000018"><a xlink:href="integer__division_8h.html" target="_top" xlink:title=" ">
<polygon fill="white" stroke="#666666" points="658.5,-327 533.5,-327 533.5,-308 658.5,-308 658.5,-327"/>
<text text-anchor="middle" x="596" y="-315" font-family="Helvetica,sans-Serif" font-size="10.00">pbd/integer_division.h</text>
</a>
</g>
</g>
<!-- Node7&#45;&gt;Node18 -->
<g id="edge18_Node000007_Node000018" class="edge">
<title>Node7&#45;&gt;Node18</title>
<g id="a_edge18_Node000007_Node000018"><a xlink:title=" ">
<path fill="none" stroke="#63b8ff" d="M643.74,-417.66C635.21,-399.93 615.85,-359.73 604.58,-336.32"/>
<polygon fill="#63b8ff" stroke="#63b8ff" points="607.66,-334.65 600.17,-327.16 601.35,-337.69 607.66,-334.65"/>
</a>
</g>
</g>
<!-- Node41 -->
<g id="Node000041" class="node">
<title>Node41</title>
<g id="a_Node000041"><a xlink:href="string__convert_8h.html" target="_top" xlink:title=" ">
<polygon fill="white" stroke="#666666" points="1436,-90.5 1320,-90.5 1320,-71.5 1436,-71.5 1436,-90.5"/>
<text text-anchor="middle" x="1378" y="-78.5" font-family="Helvetica,sans-Serif" font-size="10.00">pbd/string_convert.h</text>
</a>
</g>
</g>
<!-- Node7&#45;&gt;Node41 -->
<g id="edge58_Node000007_Node000041" class="edge">
<title>Node7&#45;&gt;Node41</title>
<g id="a_edge58_Node000007_Node000041"><a xlink:title=" ">
<path fill="none" stroke="#63b8ff" d="M698.09,-426.47C843.76,-425.92 1259.91,-420.93 1306,-382 1391.77,-309.55 1385.35,-154.61 1380.21,-100.84"/>
<polygon fill="#63b8ff" stroke="#63b8ff" points="1383.67,-100.29 1379.14,-90.71 1376.71,-101.02 1383.67,-100.29"/>
</a>
</g>
</g>
<!-- Node42 -->
<g id="Node000042" class="node">
<title>Node42</title>
<g id="a_Node000042"><a xlink:href="temporal_2temporal_2visibility_8h.html" target="_top" xlink:title=" ">
<polygon fill="white" stroke="#666666" points="515.5,-327 402.5,-327 402.5,-308 515.5,-308 515.5,-327"/>
<text text-anchor="middle" x="459" y="-315" font-family="Helvetica,sans-Serif" font-size="10.00">temporal/visibility.h</text>
</a>
</g>
</g>
<!-- Node7&#45;&gt;Node42 -->
<g id="edge62_Node000007_Node000042" class="edge">
<title>Node7&#45;&gt;Node42</title>
<g id="a_edge62_Node000007_Node000042"><a xlink:title=" ">
<path fill="none" stroke="#63b8ff" d="M632.85,-417.84C600.01,-399.08 522.04,-354.52 482.64,-332.01"/>
<polygon fill="#63b8ff" stroke="#63b8ff" points="484.38,-328.97 473.96,-327.05 480.9,-335.05 484.38,-328.97"/>
</a>
</g>
</g>
<!-- Node43 -->
<g id="Node000043" class="node">
<title>Node43</title>
<g id="a_Node000043"><a xlink:href="temporal_2temporal_2types_8h.html" target="_top" xlink:title=" ">
<polygon fill="white" stroke="#666666" points="737,-382 637,-382 637,-363 737,-363 737,-382"/>
<text text-anchor="middle" x="687" y="-370" font-family="Helvetica,sans-Serif" font-size="10.00">temporal/types.h</text>
</a>
</g>
</g>
<!-- Node7&#45;&gt;Node43 -->
<g id="edge63_Node000007_Node000043" class="edge">
<title>Node7&#45;&gt;Node43</title>
<g id="a_edge63_Node000007_Node000043"><a xlink:title=" ">
<path fill="none" stroke="#63b8ff" d="M654.44,-417.75C659.89,-410.34 667.86,-399.5 674.56,-390.41"/>
<polygon fill="#63b8ff" stroke="#63b8ff" points="677.57,-392.22 680.68,-382.09 671.93,-388.07 677.57,-392.22"/>
</a>
</g>
</g>
<!-- Node16 -->
<g id="Node000016" class="node">
<title>Node16</title>
<g id="a_Node000016"><a xlink:title=" ">
<polygon fill="#e0e0e0" stroke="#999999" points="345.5,-327 280.5,-327 280.5,-308 345.5,-308 345.5,-327"/>
<text text-anchor="middle" x="313" y="-315" font-family="Helvetica,sans-Serif" font-size="10.00">exception</text>
</a>
</g>
</g>
<!-- Node15&#45;&gt;Node16 -->
<g id="edge16_Node000015_Node000016" class="edge">
<title>Node15&#45;&gt;Node16</title>
<g id="a_edge16_Node000015_Node000016"><a xlink:title=" ">
<path fill="none" stroke="#63b8ff" d="M267.08,-362.75C275.09,-355.03 286.96,-343.6 296.62,-334.28"/>
<polygon fill="#63b8ff" stroke="#63b8ff" points="299.31,-336.55 304.09,-327.09 294.46,-331.51 299.31,-336.55"/>
</a>
</g>
</g>
<!-- Node17 -->
<g id="Node000017" class="node">
<title>Node17</title>
<g id="a_Node000017"><a xlink:href="libpbd__visibility_8h.html" target="_top" xlink:title=" ">
<polygon fill="white" stroke="#666666" points="430,-24.5 308,-24.5 308,-5.5 430,-5.5 430,-24.5"/>
<text text-anchor="middle" x="369" y="-12.5" font-family="Helvetica,sans-Serif" font-size="10.00">pbd/libpbd_visibility.h</text>
</a>
</g>
</g>
<!-- Node15&#45;&gt;Node17 -->
<g id="edge17_Node000015_Node000017" class="edge">
<title>Node15&#45;&gt;Node17</title>
<g id="a_edge17_Node000015_Node000017"><a xlink:title=" ">
<path fill="none" stroke="#63b8ff" d="M259.53,-362.82C261.75,-350.54 266.13,-327.43 271,-308 298.28,-199.15 300.92,-170.03 343,-66 347.52,-54.83 353.71,-42.83 358.92,-33.38"/>
<polygon fill="#63b8ff" stroke="#63b8ff" points="362,-35.04 363.88,-24.61 355.91,-31.59 362,-35.04"/>
</a>
</g>
</g>
<!-- Node19 -->
<g id="Node000019" class="node">
<title>Node19</title>
<g id="a_Node000019"><a xlink:title=" ">
<polygon fill="#e0e0e0" stroke="#999999" points="652,-266.5 602,-266.5 602,-247.5 652,-247.5 652,-266.5"/>
<text text-anchor="middle" x="627" y="-254.5" font-family="Helvetica,sans-Serif" font-size="10.00">cstdint</text>
</a>
</g>
</g>
<!-- Node18&#45;&gt;Node19 -->
<g id="edge19_Node000018_Node000019" class="edge">
<title>Node18&#45;&gt;Node19</title>
<g id="a_edge19_Node000018_Node000019"><a xlink:title=" ">
<path fill="none" stroke="#63b8ff" d="M600.57,-307.87C605.06,-299.4 612.03,-286.24 617.69,-275.57"/>
<polygon fill="#63b8ff" stroke="#63b8ff" points="620.82,-277.14 622.41,-266.67 614.63,-273.86 620.82,-277.14"/>
</a>
</g>
</g>
<!-- Node20 -->
<g id="Node000020" class="node">
<title>Node20</title>
<g id="a_Node000020"><a xlink:title=" ">
<polygon fill="#e0e0e0" stroke="#999999" points="584,-272 468,-272 468,-242 584,-242 584,-272"/>
<text text-anchor="start" x="476" y="-260" font-family="Helvetica,sans-Serif" font-size="10.00">boost/multiprecision</text>
<text text-anchor="middle" x="526" y="-249" font-family="Helvetica,sans-Serif" font-size="10.00">/cpp_int.hpp</text>
</a>
</g>
</g>
<!-- Node18&#45;&gt;Node20 -->
<g id="edge20_Node000018_Node000020" class="edge">
<title>Node18&#45;&gt;Node20</title>
<g id="a_edge20_Node000018_Node000020"><a xlink:title=" ">
<path fill="none" stroke="#63b8ff" d="M585.67,-307.87C576.52,-300.22 562.81,-288.76 550.83,-278.75"/>
<polygon fill="#63b8ff" stroke="#63b8ff" points="552.81,-275.84 542.89,-272.11 548.32,-281.21 552.81,-275.84"/>
</a>
</g>
</g>
<!-- Node21 -->
<g id="Node000021" class="node">
<title>Node21</title>
<g id="a_Node000021"><a xlink:href="error_8h.html" target="_top" xlink:title=" ">
<polygon fill="white" stroke="#666666" points="436.5,-266.5 367.5,-266.5 367.5,-247.5 436.5,-247.5 436.5,-266.5"/>
<text text-anchor="middle" x="402" y="-254.5" font-family="Helvetica,sans-Serif" font-size="10.00">pbd/error.h</text>
</a>
</g>
</g>
<!-- Node18&#45;&gt;Node21 -->
<g id="edge21_Node000018_Node000021" class="edge">
<title>Node18&#45;&gt;Node21</title>
<g id="a_edge21_Node000018_Node000021"><a xlink:title=" ">
<path fill="none" stroke="#63b8ff" d="M567.79,-307.99C534.03,-297.81 477.35,-280.72 439.82,-269.4"/>
<polygon fill="#63b8ff" stroke="#63b8ff" points="440.83,-266.05 430.24,-266.52 438.81,-272.75 440.83,-266.05"/>
</a>
</g>
</g>
<!-- Node21&#45;&gt;Node17 -->
<g id="edge22_Node000021_Node000017" class="edge">
<title>Node21&#45;&gt;Node17</title>
<g id="a_edge22_Node000021_Node000017"><a xlink:title=" ">
<path fill="none" stroke="#63b8ff" d="M389.15,-247.44C377.22,-238.66 360.26,-223.78 353,-206 328.95,-147.1 350.03,-69.54 362.03,-34.55"/>
<polygon fill="#63b8ff" stroke="#63b8ff" points="365.46,-35.35 365.54,-24.76 358.87,-32.99 365.46,-35.35"/>
</a>
</g>
</g>
<!-- Node22 -->
<g id="Node000022" class="node">
<title>Node22</title>
<g id="a_Node000022"><a xlink:href="transmitter_8h.html" target="_top" xlink:title=" ">
<polygon fill="white" stroke="#666666" points="442,-206 362,-206 362,-187 442,-187 442,-206"/>
<text text-anchor="middle" x="402" y="-194" font-family="Helvetica,sans-Serif" font-size="10.00">transmitter.h</text>
</a>
</g>
</g>
<!-- Node21&#45;&gt;Node22 -->
<g id="edge23_Node000021_Node000022" class="edge">
<title>Node21&#45;&gt;Node22</title>
<g id="a_edge23_Node000021_Node000022"><a xlink:title=" ">
<path fill="none" stroke="#63b8ff" d="M402,-247.37C402,-239.25 402,-226.81 402,-216.39"/>
<polygon fill="#63b8ff" stroke="#63b8ff" points="405.5,-216.17 402,-206.17 398.5,-216.17 405.5,-216.17"/>
</a>
</g>
</g>
<!-- Node22&#45;&gt;Node12 -->
<g id="edge25_Node000022_Node000012" class="edge">
<title>Node22&#45;&gt;Node12</title>
<g id="a_edge25_Node000022_Node000012"><a xlink:title=" ">
<path fill="none" stroke="#63b8ff" d="M361.81,-187.57C289.09,-172.36 140.29,-136.91 109,-96 95.62,-78.51 96.87,-52.07 99.78,-34.43"/>
<polygon fill="#63b8ff" stroke="#63b8ff" points="103.23,-35.01 101.74,-24.52 96.37,-33.65 103.23,-35.01"/>
</a>
</g>
</g>
<!-- Node22&#45;&gt;Node14 -->
<g id="edge24_Node000022_Node000014" class="edge">
<title>Node22&#45;&gt;Node14</title>
<g id="a_edge24_Node000022_Node000014"><a xlink:title=" ">
<path fill="none" stroke="#63b8ff" d="M442.07,-193.3C645.97,-181.99 1560.46,-129.51 1610,-96 1630.97,-81.82 1641.45,-53.26 1646.3,-34.39"/>
<polygon fill="#63b8ff" stroke="#63b8ff" points="1649.73,-35.1 1648.54,-24.57 1642.9,-33.54 1649.73,-35.1"/>
</a>
</g>
</g>
<!-- Node22&#45;&gt;Node17 -->
<g id="edge57_Node000022_Node000017" class="edge">
<title>Node22&#45;&gt;Node17</title>
<g id="a_edge57_Node000022_Node000017"><a xlink:title=" ">
<path fill="none" stroke="#63b8ff" d="M400.41,-186.84C395.34,-159.3 379.53,-73.26 372.46,-34.84"/>
<polygon fill="#63b8ff" stroke="#63b8ff" points="375.83,-33.77 370.58,-24.57 368.94,-35.04 375.83,-33.77"/>
</a>
</g>
</g>
<!-- Node23 -->
<g id="Node000023" class="node">
<title>Node23</title>
<g id="a_Node000023"><a xlink:href="signals_8h.html" target="_top" xlink:title=" ">
<polygon fill="white" stroke="#666666" points="738.5,-151 657.5,-151 657.5,-132 738.5,-132 738.5,-151"/>
<text text-anchor="middle" x="698" y="-139" font-family="Helvetica,sans-Serif" font-size="10.00">pbd/signals.h</text>
</a>
</g>
</g>
<!-- Node22&#45;&gt;Node23 -->
<g id="edge26_Node000022_Node000023" class="edge">
<title>Node22&#45;&gt;Node23</title>
<g id="a_edge26_Node000022_Node000023"><a xlink:title=" ">
<path fill="none" stroke="#63b8ff" d="M442.23,-188.3C495.46,-178.77 589.33,-161.96 647.34,-151.57"/>
<polygon fill="#63b8ff" stroke="#63b8ff" points="648.16,-154.98 657.39,-149.77 646.92,-148.09 648.16,-154.98"/>
</a>
</g>
</g>
<!-- Node23&#45;&gt;Node12 -->
<g id="edge56_Node000023_Node000012" class="edge">
<title>Node23&#45;&gt;Node12</title>
<g id="a_edge56_Node000023_Node000012"><a xlink:title=" ">
<path fill="none" stroke="#63b8ff" d="M657.34,-139.81C534.73,-137.38 174.49,-127.59 133,-96 114.03,-81.55 107.45,-53.52 105.18,-34.78"/>
<polygon fill="#63b8ff" stroke="#63b8ff" points="108.66,-34.39 104.27,-24.75 101.69,-35.03 108.66,-34.39"/>
</a>
</g>
</g>
<!-- Node23&#45;&gt;Node17 -->
<g id="edge35_Node000023_Node000017" class="edge">
<title>Node23&#45;&gt;Node17</title>
<g id="a_edge35_Node000023_Node000017"><a xlink:title=" ">
<path fill="none" stroke="#63b8ff" d="M657.42,-139.3C608.56,-136.45 525.06,-127 461,-96 428.95,-80.49 399.29,-50.82 382.72,-32.29"/>
<polygon fill="#63b8ff" stroke="#63b8ff" points="385.28,-29.9 376.07,-24.66 380,-34.5 385.28,-29.9"/>
</a>
</g>
</g>
<!-- Node24 -->
<g id="Node000024" class="node">
<title>Node24</title>
<g id="a_Node000024"><a xlink:title=" ">
<polygon fill="#e0e0e0" stroke="#999999" points="675.5,-90.5 624.5,-90.5 624.5,-71.5 675.5,-71.5 675.5,-90.5"/>
<text text-anchor="middle" x="650" y="-78.5" font-family="Helvetica,sans-Serif" font-size="10.00">csignal</text>
</a>
</g>
</g>
<!-- Node23&#45;&gt;Node24 -->
<g id="edge27_Node000023_Node000024" class="edge">
<title>Node23&#45;&gt;Node24</title>
<g id="a_edge27_Node000023_Node000024"><a xlink:title=" ">
<path fill="none" stroke="#63b8ff" d="M690.92,-131.87C683.76,-123.14 672.51,-109.43 663.61,-98.59"/>
<polygon fill="#63b8ff" stroke="#63b8ff" points="666.16,-96.18 657.11,-90.67 660.75,-100.62 666.16,-96.18"/>
</a>
</g>
</g>
<!-- Node25 -->
<g id="Node000025" class="node">
<title>Node25</title>
<g id="a_Node000025"><a xlink:title=" ">
<polygon fill="#e0e0e0" stroke="#999999" points="1053,-24.5 1021,-24.5 1021,-5.5 1053,-5.5 1053,-24.5"/>
<text text-anchor="middle" x="1037" y="-12.5" font-family="Helvetica,sans-Serif" font-size="10.00">list</text>
</a>
</g>
</g>
<!-- Node23&#45;&gt;Node25 -->
<g id="edge28_Node000023_Node000025" class="edge">
<title>Node23&#45;&gt;Node25</title>
<g id="a_edge28_Node000023_Node000025"><a xlink:title=" ">
<path fill="none" stroke="#63b8ff" d="M738.6,-138.16C824.71,-132.79 1019.43,-118.29 1039,-96 1053.64,-79.32 1049.23,-52.31 1043.85,-34.35"/>
<polygon fill="#63b8ff" stroke="#63b8ff" points="1047.12,-33.1 1040.61,-24.74 1040.48,-35.34 1047.12,-33.1"/>
</a>
</g>
</g>
<!-- Node26 -->
<g id="Node000026" class="node">
<title>Node26</title>
<g id="a_Node000026"><a xlink:title=" ">
<polygon fill="#e0e0e0" stroke="#999999" points="1557,-24.5 1519,-24.5 1519,-5.5 1557,-5.5 1557,-24.5"/>
<text text-anchor="middle" x="1538" y="-12.5" font-family="Helvetica,sans-Serif" font-size="10.00">map</text>
</a>
</g>
</g>
<!-- Node23&#45;&gt;Node26 -->
<g id="edge29_Node000023_Node000026" class="edge">
<title>Node23&#45;&gt;Node26</title>
<g id="a_edge29_Node000023_Node000026"><a xlink:title=" ">
<path fill="none" stroke="#63b8ff" d="M738.72,-140.02C909.84,-137.81 1563.19,-127.33 1593,-96 1612.57,-75.43 1582.56,-47.28 1559.75,-30.45"/>
<polygon fill="#63b8ff" stroke="#63b8ff" points="1561.67,-27.51 1551.48,-24.58 1557.62,-33.22 1561.67,-27.51"/>
</a>
</g>
</g>
<!-- Node27 -->
<g id="Node000027" class="node">
<title>Node27</title>
<g id="a_Node000027"><a xlink:title=" ">
<polygon fill="#e0e0e0" stroke="#999999" points="1121,-24.5 1071,-24.5 1071,-5.5 1121,-5.5 1121,-24.5"/>
<text text-anchor="middle" x="1096" y="-12.5" font-family="Helvetica,sans-Serif" font-size="10.00">atomic</text>
</a>
</g>
</g>
<!-- Node23&#45;&gt;Node27 -->
<g id="edge30_Node000023_Node000027" class="edge">
<title>Node23&#45;&gt;Node27</title>
<g id="a_edge30_Node000023_Node000027"><a xlink:title=" ">
<path fill="none" stroke="#63b8ff" d="M738.71,-140.22C821.68,-138.91 1006.73,-131.91 1057,-96 1077.29,-81.5 1087.5,-53.48 1092.27,-34.76"/>
<polygon fill="#63b8ff" stroke="#63b8ff" points="1095.75,-35.26 1094.54,-24.74 1088.92,-33.72 1095.75,-35.26"/>
</a>
</g>
</g>
<!-- Node28 -->
<g id="Node000028" class="node">
<title>Node28</title>
<g id="a_Node000028"><a xlink:title=" ">
<polygon fill="#e0e0e0" stroke="#999999" points="697.5,-24.5 594.5,-24.5 594.5,-5.5 697.5,-5.5 697.5,-24.5"/>
<text text-anchor="middle" x="646" y="-12.5" font-family="Helvetica,sans-Serif" font-size="10.00">glibmm/threads.h</text>
</a>
</g>
</g>
<!-- Node23&#45;&gt;Node28 -->
<g id="edge31_Node000023_Node000028" class="edge">
<title>Node23&#45;&gt;Node28</title>
<g id="a_edge31_Node000023_Node000028"><a xlink:title=" ">
<path fill="none" stroke="#63b8ff" d="M665.79,-131.92C647.75,-125.29 626.77,-114.09 616,-96 603.86,-75.59 618.63,-49.42 631.41,-32.68"/>
<polygon fill="#63b8ff" stroke="#63b8ff" points="634.17,-34.83 637.76,-24.86 628.74,-30.42 634.17,-34.83"/>
</a>
</g>
</g>
<!-- Node29 -->
<g id="Node000029" class="node">
<title>Node29</title>
<g id="a_Node000029"><a xlink:title=" ">
<polygon fill="#e0e0e0" stroke="#999999" points="820,-90.5 694,-90.5 694,-71.5 820,-71.5 820,-90.5"/>
<text text-anchor="middle" x="757" y="-78.5" font-family="Helvetica,sans-Serif" font-size="10.00">boost/bind/protect.hpp</text>
</a>
</g>
</g>
<!-- Node23&#45;&gt;Node29 -->
<g id="edge32_Node000023_Node000029" class="edge">
<title>Node23&#45;&gt;Node29</title>
<g id="a_edge32_Node000023_Node000029"><a xlink:title=" ">
<path fill="none" stroke="#63b8ff" d="M706.71,-131.87C715.68,-122.97 729.88,-108.89 740.91,-97.95"/>
<polygon fill="#63b8ff" stroke="#63b8ff" points="743.62,-100.19 748.26,-90.67 738.69,-95.22 743.62,-100.19"/>
</a>
</g>
</g>
<!-- Node30 -->
<g id="Node000030" class="node">
<title>Node30</title>
<g id="a_Node000030"><a xlink:title=" ">
<polygon fill="#e0e0e0" stroke="#999999" points="956,-96 838,-96 838,-66 956,-66 956,-96"/>
<text text-anchor="start" x="846" y="-84" font-family="Helvetica,sans-Serif" font-size="10.00">boost/enable_shared</text>
<text text-anchor="middle" x="897" y="-73" font-family="Helvetica,sans-Serif" font-size="10.00">_from_this.hpp</text>
</a>
</g>
</g>
<!-- Node23&#45;&gt;Node30 -->
<g id="edge33_Node000023_Node000030" class="edge">
<title>Node23&#45;&gt;Node30</title>
<g id="a_edge33_Node000023_Node000030"><a xlink:title=" ">
<path fill="none" stroke="#63b8ff" d="M726.94,-131.99C756.33,-123.35 802.64,-109.74 839.52,-98.9"/>
<polygon fill="#63b8ff" stroke="#63b8ff" points="840.55,-102.24 849.16,-96.06 838.58,-95.53 840.55,-102.24"/>
</a>
</g>
</g>
<!-- Node31 -->
<g id="Node000031" class="node">
<title>Node31</title>
<g id="a_Node000031"><a xlink:title=" ">
<polygon fill="#e0e0e0" stroke="#999999" points="1030,-90.5 974,-90.5 974,-71.5 1030,-71.5 1030,-90.5"/>
<text text-anchor="middle" x="1002" y="-78.5" font-family="Helvetica,sans-Serif" font-size="10.00">optional</text>
</a>
</g>
</g>
<!-- Node23&#45;&gt;Node31 -->
<g id="edge34_Node000023_Node000031" class="edge">
<title>Node23&#45;&gt;Node31</title>
<g id="a_edge34_Node000023_Node000031"><a xlink:title=" ">
<path fill="none" stroke="#63b8ff" d="M738.79,-136.23C791.62,-130.12 886.28,-117.23 965,-96 967.29,-95.38 969.64,-94.67 971.99,-93.91"/>
<polygon fill="#63b8ff" stroke="#63b8ff" points="973.22,-97.19 981.49,-90.58 970.9,-90.59 973.22,-97.19"/>
</a>
</g>
</g>
<!-- Node32 -->
<g id="Node000032" class="node">
<title>Node32</title>
<g id="a_Node000032"><a xlink:href="event__loop_8h.html" target="_top" xlink:title=" ">
<polygon fill="white" stroke="#666666" points="1225.5,-90.5 1124.5,-90.5 1124.5,-71.5 1225.5,-71.5 1225.5,-90.5"/>
<text text-anchor="middle" x="1175" y="-78.5" font-family="Helvetica,sans-Serif" font-size="10.00">pbd/event_loop.h</text>
</a>
</g>
</g>
<!-- Node23&#45;&gt;Node32 -->
<g id="edge36_Node000023_Node000032" class="edge">
<title>Node23&#45;&gt;Node32</title>
<g id="a_edge36_Node000023_Node000032"><a xlink:title=" ">
<path fill="none" stroke="#63b8ff" d="M738.54,-137.54C812.62,-131.81 974.69,-117.82 1110,-96 1116.13,-95.01 1122.56,-93.82 1128.89,-92.55"/>
<polygon fill="#63b8ff" stroke="#63b8ff" points="1129.6,-95.98 1138.69,-90.52 1128.18,-89.12 1129.6,-95.98"/>
</a>
</g>
</g>
<!-- Node36 -->
<g id="Node000036" class="node">
<title>Node36</title>
<g id="a_Node000036"><a xlink:href="stack__allocator_8h.html" target="_top" xlink:title=" ">
<polygon fill="white" stroke="#666666" points="262,-90.5 142,-90.5 142,-71.5 262,-71.5 262,-90.5"/>
<text text-anchor="middle" x="202" y="-78.5" font-family="Helvetica,sans-Serif" font-size="10.00">pbd/stack_allocator.h</text>
</a>
</g>
</g>
<!-- Node23&#45;&gt;Node36 -->
<g id="edge45_Node000023_Node000036" class="edge">
<title>Node23&#45;&gt;Node36</title>
<g id="a_edge45_Node000023_Node000036"><a xlink:title=" ">
<path fill="none" stroke="#63b8ff" d="M657.41,-135.71C573,-125.76 377.63,-102.71 272.31,-90.29"/>
<polygon fill="#63b8ff" stroke="#63b8ff" points="272.44,-86.78 262.1,-89.09 271.62,-93.74 272.44,-86.78"/>
</a>
</g>
</g>
<!-- Node38 -->
<g id="Node000038" class="node">
<title>Node38</title>
<g id="a_Node000038"><a xlink:href="stacktrace_8h.html" target="_top" xlink:title=" ">
<polygon fill="white" stroke="#666666" points="568,-90.5 470,-90.5 470,-71.5 568,-71.5 568,-90.5"/>
<text text-anchor="middle" x="519" y="-78.5" font-family="Helvetica,sans-Serif" font-size="10.00">pbd/stacktrace.h</text>
</a>
</g>
</g>
<!-- Node23&#45;&gt;Node38 -->
<g id="edge49_Node000023_Node000038" class="edge">
<title>Node23&#45;&gt;Node38</title>
<g id="a_edge49_Node000023_Node000038"><a xlink:title=" ">
<path fill="none" stroke="#63b8ff" d="M671.97,-131.99C641.08,-121.9 589.42,-105.01 554.78,-93.69"/>
<polygon fill="#63b8ff" stroke="#63b8ff" points="555.65,-90.3 545.06,-90.52 553.48,-96.95 555.65,-90.3"/>
</a>
</g>
</g>
<!-- Node32&#45;&gt;Node2 -->
<g id="edge41_Node000032_Node000002" class="edge">
<title>Node32&#45;&gt;Node2</title>
<g id="a_edge41_Node000032_Node000002"><a xlink:title=" ">
<path fill="none" stroke="#63b8ff" d="M1193.48,-71.37C1216.76,-60.49 1257.01,-41.69 1284.06,-29.05"/>
<polygon fill="#63b8ff" stroke="#63b8ff" points="1285.8,-32.1 1293.38,-24.7 1282.84,-25.76 1285.8,-32.1"/>
</a>
</g>
</g>
<!-- Node32&#45;&gt;Node17 -->
<g id="edge44_Node000032_Node000017" class="edge">
<title>Node32&#45;&gt;Node17</title>
<g id="a_edge44_Node000032_Node000017"><a xlink:title=" ">
<path fill="none" stroke="#63b8ff" d="M1124.35,-74.27C1098.78,-71.51 1067.27,-68.3 1039,-66 772.74,-44.32 703.94,-64.28 439,-30 431.73,-29.06 424.09,-27.81 416.63,-26.44"/>
<polygon fill="#63b8ff" stroke="#63b8ff" points="417.11,-22.96 406.62,-24.51 415.78,-29.84 417.11,-22.96"/>
</a>
</g>
</g>
<!-- Node32&#45;&gt;Node26 -->
<g id="edge40_Node000032_Node000026" class="edge">
<title>Node32&#45;&gt;Node26</title>
<g id="a_edge40_Node000032_Node000026"><a xlink:title=" ">
<path fill="none" stroke="#63b8ff" d="M1223.58,-71.44C1300.1,-57.94 1446.4,-32.15 1508.72,-21.16"/>
<polygon fill="#63b8ff" stroke="#63b8ff" points="1509.42,-24.59 1518.66,-19.41 1508.2,-17.7 1509.42,-24.59"/>
</a>
</g>
</g>
<!-- Node32&#45;&gt;Node27 -->
<g id="edge37_Node000032_Node000027" class="edge">
<title>Node32&#45;&gt;Node27</title>
<g id="a_edge37_Node000032_Node000027"><a xlink:title=" ">
<path fill="none" stroke="#63b8ff" d="M1164.35,-71.37C1151.62,-61.06 1130.12,-43.65 1114.63,-31.09"/>
<polygon fill="#63b8ff" stroke="#63b8ff" points="1116.71,-28.27 1106.74,-24.7 1112.3,-33.71 1116.71,-28.27"/>
</a>
</g>
</g>
<!-- Node32&#45;&gt;Node28 -->
<g id="edge43_Node000032_Node000028" class="edge">
<title>Node32&#45;&gt;Node28</title>
<g id="a_edge43_Node000032_Node000028"><a xlink:title=" ">
<path fill="none" stroke="#63b8ff" d="M1124.28,-73.86C1026.8,-62.07 813.61,-36.28 707.93,-23.49"/>
<polygon fill="#63b8ff" stroke="#63b8ff" points="708.08,-19.99 697.74,-22.26 707.24,-26.94 708.08,-19.99"/>
</a>
</g>
</g>
<!-- Node33 -->
<g id="Node000033" class="node">
<title>Node33</title>
<g id="a_Node000033"><a xlink:title=" ">
<polygon fill="#e0e0e0" stroke="#999999" points="1401,-24.5 1357,-24.5 1357,-5.5 1401,-5.5 1401,-24.5"/>
<text text-anchor="middle" x="1379" y="-12.5" font-family="Helvetica,sans-Serif" font-size="10.00">string</text>
</a>
</g>
</g>
<!-- Node32&#45;&gt;Node33 -->
<g id="edge38_Node000032_Node000033" class="edge">
<title>Node32&#45;&gt;Node33</title>
<g id="a_edge38_Node000032_Node000033"><a xlink:title=" ">
<path fill="none" stroke="#63b8ff" d="M1209.93,-71.47C1245.22,-62.49 1301.06,-47.28 1348,-30 1349.22,-29.55 1350.45,-29.08 1351.69,-28.59"/>
<polygon fill="#63b8ff" stroke="#63b8ff" points="1353.3,-31.71 1361.15,-24.58 1350.58,-25.26 1353.3,-31.71"/>
</a>
</g>
</g>
<!-- Node34 -->
<g id="Node000034" class="node">
<title>Node34</title>
<g id="a_Node000034"><a xlink:title=" ">
<polygon fill="#e0e0e0" stroke="#999999" points="1186.5,-24.5 1139.5,-24.5 1139.5,-5.5 1186.5,-5.5 1186.5,-24.5"/>
<text text-anchor="middle" x="1163" y="-12.5" font-family="Helvetica,sans-Serif" font-size="10.00">vector</text>
</a>
</g>
</g>
<!-- Node32&#45;&gt;Node34 -->
<g id="edge39_Node000032_Node000034" class="edge">
<title>Node32&#45;&gt;Node34</title>
<g id="a_edge39_Node000032_Node000034"><a xlink:title=" ">
<path fill="none" stroke="#63b8ff" d="M1173.38,-71.37C1171.64,-62.07 1168.81,-46.98 1166.54,-34.9"/>
<polygon fill="#63b8ff" stroke="#63b8ff" points="1169.95,-34.09 1164.67,-24.91 1163.07,-35.38 1169.95,-34.09"/>
</a>
</g>
</g>
<!-- Node35 -->
<g id="Node000035" class="node">
<title>Node35</title>
<g id="a_Node000035"><a xlink:title=" ">
<polygon fill="#e0e0e0" stroke="#999999" points="1267.5,-24.5 1204.5,-24.5 1204.5,-5.5 1267.5,-5.5 1267.5,-24.5"/>
<text text-anchor="middle" x="1236" y="-12.5" font-family="Helvetica,sans-Serif" font-size="10.00">pthread.h</text>
</a>
</g>
</g>
<!-- Node32&#45;&gt;Node35 -->
<g id="edge42_Node000032_Node000035" class="edge">
<title>Node32&#45;&gt;Node35</title>
<g id="a_edge42_Node000032_Node000035"><a xlink:title=" ">
<path fill="none" stroke="#63b8ff" d="M1183.23,-71.37C1192.72,-61.4 1208.56,-44.79 1220.41,-32.36"/>
<polygon fill="#63b8ff" stroke="#63b8ff" points="1223.15,-34.56 1227.51,-24.91 1218.08,-29.73 1223.15,-34.56"/>
</a>
</g>
</g>
<!-- Node36&#45;&gt;Node13 -->
<g id="edge47_Node000036_Node000013" class="edge">
<title>Node36&#45;&gt;Node13</title>
<g id="a_edge47_Node000036_Node000013"><a xlink:title=" ">
<path fill="none" stroke="#63b8ff" d="M176.79,-71.43C149.14,-61.88 103.57,-45.72 65,-30 63.83,-29.52 62.64,-29.03 61.44,-28.52"/>
<polygon fill="#63b8ff" stroke="#63b8ff" points="62.83,-25.31 52.26,-24.52 60.03,-31.72 62.83,-25.31"/>
</a>
</g>
</g>
<!-- Node36&#45;&gt;Node17 -->
<g id="edge48_Node000036_Node000017" class="edge">
<title>Node36&#45;&gt;Node17</title>
<g id="a_edge48_Node000036_Node000017"><a xlink:title=" ">
<path fill="none" stroke="#63b8ff" d="M224.52,-71.37C253.49,-60.27 303.98,-40.92 336.94,-28.28"/>
<polygon fill="#63b8ff" stroke="#63b8ff" points="338.48,-31.44 346.57,-24.6 335.98,-24.91 338.48,-31.44"/>
</a>
</g>
</g>
<!-- Node37 -->
<g id="Node000037" class="node">
<title>Node37</title>
<g id="a_Node000037"><a xlink:title=" ">
<polygon fill="#e0e0e0" stroke="#999999" points="290,-30 152,-30 152,0 290,0 290,-30"/>
<text text-anchor="start" x="160" y="-18" font-family="Helvetica,sans-Serif" font-size="10.00">boost/type_traits/aligned</text>
<text text-anchor="middle" x="221" y="-7" font-family="Helvetica,sans-Serif" font-size="10.00">_storage.hpp</text>
</a>
</g>
</g>
<!-- Node36&#45;&gt;Node37 -->
<g id="edge46_Node000036_Node000037" class="edge">
<title>Node36&#45;&gt;Node37</title>
<g id="a_edge46_Node000036_Node000037"><a xlink:title=" ">
<path fill="none" stroke="#63b8ff" d="M204.56,-71.37C206.93,-63.4 210.55,-51.2 213.8,-40.27"/>
<polygon fill="#63b8ff" stroke="#63b8ff" points="217.25,-40.94 216.74,-30.36 210.54,-38.95 217.25,-40.94"/>
</a>
</g>
</g>
<!-- Node38&#45;&gt;Node12 -->
<g id="edge51_Node000038_Node000012" class="edge">
<title>Node38&#45;&gt;Node12</title>
<g id="a_edge51_Node000038_Node000012"><a xlink:title=" ">
<path fill="none" stroke="#63b8ff" d="M469.71,-76.8C397.28,-71.34 258.18,-57.99 143,-30 140.34,-29.35 137.61,-28.59 134.88,-27.76"/>
<polygon fill="#63b8ff" stroke="#63b8ff" points="135.8,-24.37 125.21,-24.53 133.59,-31.01 135.8,-24.37"/>
</a>
</g>
</g>
<!-- Node38&#45;&gt;Node17 -->
<g id="edge55_Node000038_Node000017" class="edge">
<title>Node38&#45;&gt;Node17</title>
<g id="a_edge55_Node000038_Node000017"><a xlink:title=" ">
<path fill="none" stroke="#63b8ff" d="M498.77,-71.37C473.05,-60.39 428.43,-41.36 398.81,-28.72"/>
<polygon fill="#63b8ff" stroke="#63b8ff" points="399.96,-25.4 389.39,-24.7 397.21,-31.84 399.96,-25.4"/>
</a>
</g>
</g>
<!-- Node38&#45;&gt;Node25 -->
<g id="edge54_Node000038_Node000025" class="edge">
<title>Node38&#45;&gt;Node25</title>
<g id="a_edge54_Node000038_Node000025"><a xlink:title=" ">
<path fill="none" stroke="#63b8ff" d="M568.31,-72.64C583.59,-70.42 600.48,-68.04 616,-66 765.31,-46.36 944.89,-26.17 1010.97,-18.86"/>
<polygon fill="#63b8ff" stroke="#63b8ff" points="1011.37,-22.34 1020.92,-17.76 1010.6,-15.38 1011.37,-22.34"/>
</a>
</g>
</g>
<!-- Node38&#45;&gt;Node28 -->
<g id="edge53_Node000038_Node000028" class="edge">
<title>Node38&#45;&gt;Node28</title>
<g id="a_edge53_Node000038_Node000028"><a xlink:title=" ">
<path fill="none" stroke="#63b8ff" d="M536.13,-71.37C557.62,-60.54 594.7,-41.85 619.77,-29.22"/>
<polygon fill="#63b8ff" stroke="#63b8ff" points="621.38,-32.32 628.74,-24.7 618.23,-26.07 621.38,-32.32"/>
</a>
</g>
</g>
<!-- Node39 -->
<g id="Node000039" class="node">
<title>Node39</title>
<g id="a_Node000039"><a xlink:title=" ">
<polygon fill="#e0e0e0" stroke="#999999" points="576.5,-24.5 523.5,-24.5 523.5,-5.5 576.5,-5.5 576.5,-24.5"/>
<text text-anchor="middle" x="550" y="-12.5" font-family="Helvetica,sans-Serif" font-size="10.00">cstddef</text>
</a>
</g>
</g>
<!-- Node38&#45;&gt;Node39 -->
<g id="edge50_Node000038_Node000039" class="edge">
<title>Node38&#45;&gt;Node39</title>
<g id="a_edge50_Node000038_Node000039"><a xlink:title=" ">
<path fill="none" stroke="#63b8ff" d="M523.18,-71.37C527.78,-61.88 535.29,-46.36 541.2,-34.16"/>
<polygon fill="#63b8ff" stroke="#63b8ff" points="544.48,-35.43 545.69,-24.91 538.18,-32.38 544.48,-35.43"/>
</a>
</g>
</g>
<!-- Node40 -->
<g id="Node000040" class="node">
<title>Node40</title>
<g id="a_Node000040"><a xlink:title=" ">
<polygon fill="#e0e0e0" stroke="#999999" points="505.5,-24.5 448.5,-24.5 448.5,-5.5 505.5,-5.5 505.5,-24.5"/>
<text text-anchor="middle" x="477" y="-12.5" font-family="Helvetica,sans-Serif" font-size="10.00">ostream</text>
</a>
</g>
</g>
<!-- Node38&#45;&gt;Node40 -->
<g id="edge52_Node000038_Node000040" class="edge">
<title>Node38&#45;&gt;Node40</title>
<g id="a_edge52_Node000038_Node000040"><a xlink:title=" ">
<path fill="none" stroke="#63b8ff" d="M513.34,-71.37C506.98,-61.69 496.52,-45.74 488.44,-33.44"/>
<polygon fill="#63b8ff" stroke="#63b8ff" points="491.26,-31.35 482.84,-24.91 485.4,-35.19 491.26,-31.35"/>
</a>
</g>
</g>
<!-- Node41&#45;&gt;Node2 -->
<g id="edge60_Node000041_Node000002" class="edge">
<title>Node41&#45;&gt;Node2</title>
<g id="a_edge60_Node000041_Node000002"><a xlink:title=" ">
<path fill="none" stroke="#63b8ff" d="M1369.1,-71.37C1358.73,-61.31 1341.37,-44.48 1328.51,-32.01"/>
<polygon fill="#63b8ff" stroke="#63b8ff" points="1330.8,-29.35 1321.18,-24.91 1325.93,-34.38 1330.8,-29.35"/>
</a>
</g>
</g>
<!-- Node41&#45;&gt;Node17 -->
<g id="edge61_Node000041_Node000017" class="edge">
<title>Node41&#45;&gt;Node17</title>
<g id="a_edge61_Node000041_Node000017"><a xlink:title=" ">
<path fill="none" stroke="#63b8ff" d="M1319.96,-73.62C1294,-70.95 1262.99,-68 1235,-66 881.76,-40.74 790.54,-72.85 439,-30 431.56,-29.09 423.72,-27.83 416.1,-26.44"/>
<polygon fill="#63b8ff" stroke="#63b8ff" points="416.73,-22.99 406.25,-24.54 415.41,-29.87 416.73,-22.99"/>
</a>
</g>
</g>
<!-- Node41&#45;&gt;Node33 -->
<g id="edge59_Node000041_Node000033" class="edge">
<title>Node41&#45;&gt;Node33</title>
<g id="a_edge59_Node000041_Node000033"><a xlink:title=" ">
<path fill="none" stroke="#63b8ff" d="M1378.13,-71.37C1378.28,-62.16 1378.51,-47.29 1378.7,-35.27"/>
<polygon fill="#63b8ff" stroke="#63b8ff" points="1382.2,-34.96 1378.86,-24.91 1375.2,-34.85 1382.2,-34.96"/>
</a>
</g>
</g>
<!-- Node43&#45;&gt;Node2 -->
<g id="edge67_Node000043_Node000002" class="edge">
<title>Node43&#45;&gt;Node2</title>
<g id="a_edge67_Node000043_Node000002"><a xlink:title=" ">
<path fill="none" stroke="#63b8ff" d="M710.76,-362.91C790.05,-333.59 1050.92,-231.68 1235,-96 1260.24,-77.4 1284.49,-50.14 1298.82,-32.73"/>
<polygon fill="#63b8ff" stroke="#63b8ff" points="1301.8,-34.61 1305.36,-24.63 1296.36,-30.21 1301.8,-34.61"/>
</a>
</g>
</g>
<!-- Node43&#45;&gt;Node8 -->
<g id="edge64_Node000043_Node000008" class="edge">
<title>Node43&#45;&gt;Node8</title>
<g id="a_edge64_Node000043_Node000008"><a xlink:title=" ">
<path fill="none" stroke="#63b8ff" d="M737.29,-369.17C829.18,-364.45 1030.22,-352.04 1198,-327 1199.26,-326.81 1200.55,-326.61 1201.84,-326.39"/>
<polygon fill="#63b8ff" stroke="#63b8ff" points="1202.64,-329.8 1211.83,-324.54 1201.36,-322.92 1202.64,-329.8"/>
</a>
</g>
</g>
<!-- Node43&#45;&gt;Node18 -->
<g id="edge68_Node000043_Node000018" class="edge">
<title>Node43&#45;&gt;Node18</title>
<g id="a_edge68_Node000043_Node000018"><a xlink:title=" ">
<path fill="none" stroke="#63b8ff" d="M672.38,-362.98C658.14,-354.69 636.25,-341.94 619.55,-332.22"/>
<polygon fill="#63b8ff" stroke="#63b8ff" points="621.29,-329.18 610.89,-327.17 617.77,-335.23 621.29,-329.18"/>
</a>
</g>
</g>
<!-- Node43&#45;&gt;Node40 -->
<g id="edge66_Node000043_Node000040" class="edge">
<title>Node43&#45;&gt;Node40</title>
<g id="a_edge66_Node000043_Node000040"><a xlink:title=" ">
<path fill="none" stroke="#63b8ff" d="M687.33,-362.84C687.77,-340.82 686.34,-281.6 661,-242 601.69,-149.3 510.85,-194.11 461,-96 451.01,-76.34 459.09,-51.01 466.95,-34.17"/>
<polygon fill="#63b8ff" stroke="#63b8ff" points="470.25,-35.41 471.66,-24.91 464.01,-32.24 470.25,-35.41"/>
</a>
</g>
</g>
<!-- Node43&#45;&gt;Node42 -->
<g id="edge69_Node000043_Node000042" class="edge">
<title>Node43&#45;&gt;Node42</title>
<g id="a_edge69_Node000043_Node000042"><a xlink:title=" ">
<path fill="none" stroke="#63b8ff" d="M650.37,-362.98C611.09,-353.86 548.63,-339.33 505.81,-329.38"/>
<polygon fill="#63b8ff" stroke="#63b8ff" points="506.45,-325.94 495.92,-327.08 504.87,-332.76 506.45,-325.94"/>
</a>
</g>
</g>
<!-- Node44 -->
<g id="Node000044" class="node">
<title>Node44</title>
<g id="a_Node000044"><a xlink:title=" ">
<polygon fill="#e0e0e0" stroke="#999999" points="764.5,-327 715.5,-327 715.5,-308 764.5,-308 764.5,-327"/>
<text text-anchor="middle" x="740" y="-315" font-family="Helvetica,sans-Serif" font-size="10.00">cstdlib</text>
</a>
</g>
</g>
<!-- Node43&#45;&gt;Node44 -->
<g id="edge65_Node000043_Node000044" class="edge">
<title>Node43&#45;&gt;Node44</title>
<g id="a_edge65_Node000043_Node000044"><a xlink:title=" ">
<path fill="none" stroke="#63b8ff" d="M695.75,-362.75C703.47,-355.03 714.9,-343.6 724.22,-334.28"/>
<polygon fill="#63b8ff" stroke="#63b8ff" points="726.81,-336.64 731.41,-327.09 721.86,-331.69 726.81,-336.64"/>
</a>
</g>
</g>
<!-- Node45&#45;&gt;Node14 -->
<g id="edge71_Node000045_Node000014" class="edge">
<title>Node45&#45;&gt;Node14</title>
<g id="a_edge71_Node000045_Node000014"><a xlink:title=" ">
<path fill="none" stroke="#63b8ff" d="M1553.1,-71.37C1571.81,-60.68 1603.9,-42.35 1625.99,-29.72"/>
<polygon fill="#63b8ff" stroke="#63b8ff" points="1627.83,-32.7 1634.78,-24.7 1624.36,-26.62 1627.83,-32.7"/>
</a>
</g>
</g>
<!-- Node45&#45;&gt;Node17 -->
<g id="edge75_Node000045_Node000017" class="edge">
<title>Node45&#45;&gt;Node17</title>
<g id="a_edge75_Node000045_Node000017"><a xlink:title=" ">
<path fill="none" stroke="#63b8ff" d="M1492.24,-72.05C1477.23,-69.73 1460.44,-67.43 1445,-66 999.52,-24.63 883.36,-82.04 439,-30 431.47,-29.12 423.54,-27.86 415.83,-26.45"/>
<polygon fill="#63b8ff" stroke="#63b8ff" points="416.36,-22.99 405.88,-24.54 415.04,-29.86 416.36,-22.99"/>
</a>
</g>
</g>
<!-- Node45&#45;&gt;Node25 -->
<g id="edge73_Node000045_Node000025" class="edge">
<title>Node45&#45;&gt;Node25</title>
<g id="a_edge73_Node000045_Node000025"><a xlink:title=" ">
<path fill="none" stroke="#63b8ff" d="M1492.19,-72.58C1477.17,-70.29 1460.4,-67.88 1445,-66 1275.29,-45.27 1225.23,-80.87 1062,-30 1061.11,-29.72 1060.21,-29.41 1059.31,-29.07"/>
<polygon fill="#63b8ff" stroke="#63b8ff" points="1060.56,-25.78 1050.03,-24.64 1057.55,-32.1 1060.56,-25.78"/>
</a>
</g>
</g>
<!-- Node45&#45;&gt;Node26 -->
<g id="edge74_Node000045_Node000026" class="edge">
<title>Node45&#45;&gt;Node26</title>
<g id="a_edge74_Node000045_Node000026"><a xlink:title=" ">
<path fill="none" stroke="#63b8ff" d="M1538,-71.37C1538,-62.16 1538,-47.29 1538,-35.27"/>
<polygon fill="#63b8ff" stroke="#63b8ff" points="1541.5,-34.91 1538,-24.91 1534.5,-34.91 1541.5,-34.91"/>
</a>
</g>
</g>
<!-- Node45&#45;&gt;Node33 -->
<g id="edge72_Node000045_Node000033" class="edge">
<title>Node45&#45;&gt;Node33</title>
<g id="a_edge72_Node000045_Node000033"><a xlink:title=" ">
<path fill="none" stroke="#63b8ff" d="M1516.56,-71.37C1489.1,-60.32 1441.32,-41.08 1409.93,-28.45"/>
<polygon fill="#63b8ff" stroke="#63b8ff" points="1410.94,-25.08 1400.36,-24.6 1408.33,-31.58 1410.94,-25.08"/>
</a>
</g>
</g>
</g>
</svg>
