<?xml version="1.0" encoding="UTF-8" standalone="no"?>
<!DOCTYPE svg PUBLIC "-//W3C//DTD SVG 1.1//EN"
 "http://www.w3.org/Graphics/SVG/1.1/DTD/svg11.dtd">
<!-- Generated by graphviz version 2.43.0 (0)
 -->
<!-- Title: view_background.h Pages: 1 -->
<!--zoomable 588 -->

<svg id="main" version="1.1" xmlns="http://www.w3.org/2000/svg" xmlns:xlink="http://www.w3.org/1999/xlink" xml:space="preserve" onload="init(evt)">
<style type="text/css"><![CDATA[
.node, .edge {opacity: 0.7;}
.node.selected, .edge.selected {opacity: 1;}
.edge:hover path { stroke: red; }
.edge:hover polygon { stroke: red; fill: red; }
]]></style>

<defs>
  <circle id="rim" cx="0" cy="0" r="7"/>
  <circle id="rim2" cx="0" cy="0" r="3.5"/>
  <g id="zoomPlus">
    <use xlink:href="#rim" fill="#404040"><set attributeName="fill" to="#808080" begin="zoomplus.mouseover" end="zoomplus.mouseout"/></use>
    <path d="M-4,0h8M0,-4v8" fill="none" stroke="white" stroke-width="1.5" pointer-events="none"/>
  </g>
  <g id="zoomMin">
    <use xlink:href="#rim" fill="#404040"><set attributeName="fill" to="#808080" begin="zoomminus.mouseover" end="zoomminus.mouseout"/></use>
    <path d="M-4,0h8" fill="none" stroke="white" stroke-width="1.5" pointer-events="none"/>
  </g>
  <g id="arrowUp" transform="translate(30 24)">
    <use xlink:href="#rim"/>
    <path pointer-events="none" fill="none" stroke="white" stroke-width="1.5" d="M0,-3.0v7 M-2.5,-0.5L0,-3.0L2.5,-0.5"/>
  </g>
  <g id="arrowRight" transform="rotate(90) translate(36 -43)">
    <use xlink:href="#rim"/>
    <path pointer-events="none" fill="none" stroke="white" stroke-width="1.5" d="M0,-3.0v7 M-2.5,-0.5L0,-3.0L2.5,-0.5"/>
  </g>
  <g id="arrowDown" transform="rotate(180) translate(-30 -48)">
    <use xlink:href="#rim"/>
    <path pointer-events="none" fill="none" stroke="white" stroke-width="1.5" d="M0,-3.0v7 M-2.5,-0.5L0,-3.0L2.5,-0.5"/>
  </g>
  <g id="arrowLeft" transform="rotate(270) translate(-36 17)">
    <use xlink:href="#rim"/>
    <path pointer-events="none" fill="none" stroke="white" stroke-width="1.5" d="M0,-3.0v7 M-2.5,-0.5L0,-3.0L2.5,-0.5"/>
  </g>
  <g id="resetDef">
    <use xlink:href="#rim2" fill="#404040"><set attributeName="fill" to="#808080" begin="reset.mouseover" end="reset.mouseout"/></use>
  </g>
</defs>
<script type="application/ecmascript">
var viewWidth = 1040;
var viewHeight = 588;
var sectionId = 'dynsection-1';
</script>
<script type="application/ecmascript" xlink:href="svg.min.js"/>
<svg id="graph" class="graph">
<g id="viewport">
<title>view_background.h</title>
<!-- Node1 -->
<g id="Node000001" class="node">
<title>Node1</title>
<g id="a_Node000001"><a xlink:title=" ">
<polygon fill="#999999" stroke="#666666" points="516.5,-580 405.5,-580 405.5,-561 516.5,-561 516.5,-580"/>
<text text-anchor="middle" x="461" y="-568" font-family="Helvetica,sans-Serif" font-size="10.00">view_background.h</text>
</a>
</g>
</g>
<!-- Node2 -->
<g id="Node000002" class="node">
<title>Node2</title>
<g id="a_Node000002"><a xlink:href="midi__view__background_8h.html" target="_top" xlink:title=" ">
<polygon fill="white" stroke="#666666" points="461,-525 323,-525 323,-506 461,-506 461,-525"/>
<text text-anchor="middle" x="392" y="-513" font-family="Helvetica,sans-Serif" font-size="10.00">midi_view_background.h</text>
</a>
</g>
</g>
<!-- Node1&#45;&gt;Node2 -->
<g id="edge1_Node000001_Node000002" class="edge">
<title>Node1&#45;&gt;Node2</title>
<g id="a_edge1_Node000001_Node000002"><a xlink:title=" ">
<path fill="none" stroke="#63b8ff" d="M441.96,-554.88C429.54,-545.34 413.76,-533.21 403.29,-525.17"/>
<polygon fill="#63b8ff" stroke="#63b8ff" points="439.85,-557.67 449.91,-560.98 444.12,-552.12 439.85,-557.67"/>
</a>
</g>
</g>
<!-- Node31 -->
<g id="Node000031" class="node">
<title>Node31</title>
<g id="a_Node000031"><a xlink:href="streamview_8h.html" target="_top" xlink:title=" ">
<polygon fill="white" stroke="#666666" points="637.5,-525 554.5,-525 554.5,-506 637.5,-506 637.5,-525"/>
<text text-anchor="middle" x="596" y="-513" font-family="Helvetica,sans-Serif" font-size="10.00">streamview.h</text>
</a>
</g>
</g>
<!-- Node1&#45;&gt;Node31 -->
<g id="edge33_Node000001_Node000031" class="edge">
<title>Node1&#45;&gt;Node31</title>
<g id="a_edge33_Node000001_Node000031"><a xlink:title=" ">
<path fill="none" stroke="#63b8ff" d="M492.1,-557.29C517.12,-547.47 551.66,-533.91 573.92,-525.17"/>
<polygon fill="#63b8ff" stroke="#63b8ff" points="490.72,-554.07 482.69,-560.98 493.28,-560.59 490.72,-554.07"/>
</a>
</g>
</g>
<!-- Node3 -->
<g id="Node000003" class="node">
<title>Node3</title>
<g id="a_Node000003"><a xlink:href="midi__streamview_8h.html" target="_top" xlink:title=" ">
<polygon fill="white" stroke="#666666" points="586,-470 476,-470 476,-451 586,-451 586,-470"/>
<text text-anchor="middle" x="531" y="-458" font-family="Helvetica,sans-Serif" font-size="10.00">midi_streamview.h</text>
</a>
</g>
</g>
<!-- Node2&#45;&gt;Node3 -->
<g id="edge2_Node000002_Node000003" class="edge">
<title>Node2&#45;&gt;Node3</title>
<g id="a_edge2_Node000002_Node000003"><a xlink:title=" ">
<path fill="none" stroke="#63b8ff" d="M423.68,-502.42C449.47,-492.59 485.24,-478.95 508.26,-470.17"/>
<polygon fill="#63b8ff" stroke="#63b8ff" points="422.43,-499.15 414.33,-505.98 424.92,-505.69 422.43,-499.15"/>
</a>
</g>
</g>
<!-- Node24 -->
<g id="Node000024" class="node">
<title>Node24</title>
<g id="a_Node000024"><a xlink:href="midi__view_8h.html" target="_top" xlink:title=" ">
<polygon fill="white" stroke="#666666" points="308.5,-470 233.5,-470 233.5,-451 308.5,-451 308.5,-470"/>
<text text-anchor="middle" x="271" y="-458" font-family="Helvetica,sans-Serif" font-size="10.00">midi_view.h</text>
</a>
</g>
</g>
<!-- Node2&#45;&gt;Node24 -->
<g id="edge25_Node000002_Node000024" class="edge">
<title>Node2&#45;&gt;Node24</title>
<g id="a_edge25_Node000002_Node000024"><a xlink:title=" ">
<path fill="none" stroke="#63b8ff" d="M363.23,-501.9C340.88,-492.11 310.48,-478.79 290.79,-470.17"/>
<polygon fill="#63b8ff" stroke="#63b8ff" points="362,-505.18 372.56,-505.98 364.8,-498.77 362,-505.18"/>
</a>
</g>
</g>
<!-- Node27 -->
<g id="Node000027" class="node">
<title>Node27</title>
<g id="a_Node000027"><a xlink:href="pianoroll__background_8h.html" target="_top" xlink:title=" ">
<polygon fill="white" stroke="#666666" points="457.5,-470 326.5,-470 326.5,-451 457.5,-451 457.5,-470"/>
<text text-anchor="middle" x="392" y="-458" font-family="Helvetica,sans-Serif" font-size="10.00">pianoroll_background.h</text>
</a>
</g>
</g>
<!-- Node2&#45;&gt;Node27 -->
<g id="edge29_Node000002_Node000027" class="edge">
<title>Node2&#45;&gt;Node27</title>
<g id="a_edge29_Node000002_Node000027"><a xlink:title=" ">
<path fill="none" stroke="#63b8ff" d="M392,-495.66C392,-486.93 392,-476.99 392,-470.09"/>
<polygon fill="#63b8ff" stroke="#63b8ff" points="388.5,-495.75 392,-505.75 395.5,-495.75 388.5,-495.75"/>
</a>
</g>
</g>
<!-- Node28 -->
<g id="Node000028" class="node">
<title>Node28</title>
<g id="a_Node000028"><a xlink:href="prh__base_8h.html" target="_top" xlink:title=" ">
<polygon fill="white" stroke="#666666" points="186,-470 116,-470 116,-451 186,-451 186,-470"/>
<text text-anchor="middle" x="151" y="-458" font-family="Helvetica,sans-Serif" font-size="10.00">prh_base.h</text>
</a>
</g>
</g>
<!-- Node2&#45;&gt;Node28 -->
<g id="edge30_Node000002_Node000028" class="edge">
<title>Node2&#45;&gt;Node28</title>
<g id="a_edge30_Node000002_Node000028"><a xlink:title=" ">
<path fill="none" stroke="#63b8ff" d="M343.41,-503.81C296.8,-493.56 227.57,-478.34 186.1,-469.22"/>
<polygon fill="#63b8ff" stroke="#63b8ff" points="342.76,-507.26 353.28,-505.98 344.26,-500.42 342.76,-507.26"/>
</a>
</g>
</g>
<!-- Node4 -->
<g id="Node000004" class="node">
<title>Node4</title>
<g id="a_Node000004"><a xlink:href="midi__time__axis_8h.html" target="_top" xlink:title=" ">
<polygon fill="white" stroke="#666666" points="581.5,-415 480.5,-415 480.5,-396 581.5,-396 581.5,-415"/>
<text text-anchor="middle" x="531" y="-403" font-family="Helvetica,sans-Serif" font-size="10.00">midi_time_axis.h</text>
</a>
</g>
</g>
<!-- Node3&#45;&gt;Node4 -->
<g id="edge3_Node000003_Node000004" class="edge">
<title>Node3&#45;&gt;Node4</title>
<g id="a_edge3_Node000003_Node000004"><a xlink:title=" ">
<path fill="none" stroke="#63b8ff" d="M531,-440.66C531,-431.93 531,-421.99 531,-415.09"/>
<polygon fill="#63b8ff" stroke="#63b8ff" points="527.5,-440.75 531,-450.75 534.5,-440.75 527.5,-440.75"/>
</a>
</g>
</g>
<!-- Node5 -->
<g id="Node000005" class="node">
<title>Node5</title>
<g id="a_Node000005"><a xlink:href="midi__region__view_8h.html" target="_top" xlink:title=" ">
<polygon fill="white" stroke="#666666" points="432.5,-360 321.5,-360 321.5,-341 432.5,-341 432.5,-360"/>
<text text-anchor="middle" x="377" y="-348" font-family="Helvetica,sans-Serif" font-size="10.00">midi_region_view.h</text>
</a>
</g>
</g>
<!-- Node4&#45;&gt;Node5 -->
<g id="edge4_Node000004_Node000005" class="edge">
<title>Node4&#45;&gt;Node5</title>
<g id="a_edge4_Node000004_Node000005"><a xlink:title=" ">
<path fill="none" stroke="#63b8ff" d="M496.62,-392.67C467.91,-382.79 427.64,-368.93 401.94,-360.08"/>
<polygon fill="#63b8ff" stroke="#63b8ff" points="495.66,-396.04 506.26,-395.98 497.94,-389.42 495.66,-396.04"/>
</a>
</g>
</g>
<!-- Node7 -->
<g id="Node000007" class="node">
<title>Node7</title>
<g id="a_Node000007"><a xlink:href="track__view__list_8h.html" target="_top" xlink:title=" ">
<polygon fill="white" stroke="#666666" points="580.5,-360 481.5,-360 481.5,-341 580.5,-341 580.5,-360"/>
<text text-anchor="middle" x="531" y="-348" font-family="Helvetica,sans-Serif" font-size="10.00">track_view_list.h</text>
</a>
</g>
</g>
<!-- Node4&#45;&gt;Node7 -->
<g id="edge6_Node000004_Node000007" class="edge">
<title>Node4&#45;&gt;Node7</title>
<g id="a_edge6_Node000004_Node000007"><a xlink:title=" ">
<path fill="none" stroke="#63b8ff" d="M531,-385.66C531,-376.93 531,-366.99 531,-360.09"/>
<polygon fill="#63b8ff" stroke="#63b8ff" points="527.5,-385.75 531,-395.75 534.5,-385.75 527.5,-385.75"/>
</a>
</g>
</g>
<!-- Node6 -->
<g id="Node000006" class="node">
<title>Node6</title>
<g id="a_Node000006"><a xlink:href="selection__templates_8h.html" target="_top" xlink:title=" ">
<polygon fill="white" stroke="#666666" points="439.5,-195 314.5,-195 314.5,-176 439.5,-176 439.5,-195"/>
<text text-anchor="middle" x="377" y="-183" font-family="Helvetica,sans-Serif" font-size="10.00">selection_templates.h</text>
</a>
</g>
</g>
<!-- Node5&#45;&gt;Node6 -->
<g id="edge5_Node000005_Node000006" class="edge">
<title>Node5&#45;&gt;Node6</title>
<g id="a_edge5_Node000005_Node000006"><a xlink:title=" ">
<path fill="none" stroke="#63b8ff" d="M377,-330.37C377,-295.03 377,-220.79 377,-195.31"/>
<polygon fill="#63b8ff" stroke="#63b8ff" points="373.5,-330.74 377,-340.74 380.5,-330.74 373.5,-330.74"/>
</a>
</g>
</g>
<!-- Node8 -->
<g id="Node000008" class="node">
<title>Node8</title>
<g id="a_Node000008"><a xlink:href="track__selection_8h.html" target="_top" xlink:title=" ">
<polygon fill="white" stroke="#666666" points="581,-305 481,-305 481,-286 581,-286 581,-305"/>
<text text-anchor="middle" x="531" y="-293" font-family="Helvetica,sans-Serif" font-size="10.00">track_selection.h</text>
</a>
</g>
</g>
<!-- Node7&#45;&gt;Node8 -->
<g id="edge7_Node000007_Node000008" class="edge">
<title>Node7&#45;&gt;Node8</title>
<g id="a_edge7_Node000007_Node000008"><a xlink:title=" ">
<path fill="none" stroke="#63b8ff" d="M531,-330.66C531,-321.93 531,-311.99 531,-305.09"/>
<polygon fill="#63b8ff" stroke="#63b8ff" points="527.5,-330.75 531,-340.75 534.5,-330.75 527.5,-330.75"/>
</a>
</g>
</g>
<!-- Node9 -->
<g id="Node000009" class="node">
<title>Node9</title>
<g id="a_Node000009"><a xlink:href="editor__drag_8h.html" target="_top" xlink:title=" ">
<polygon fill="white" stroke="#666666" points="633.5,-250 552.5,-250 552.5,-231 633.5,-231 633.5,-250"/>
<text text-anchor="middle" x="593" y="-238" font-family="Helvetica,sans-Serif" font-size="10.00">editor_drag.h</text>
</a>
</g>
</g>
<!-- Node8&#45;&gt;Node9 -->
<g id="edge8_Node000008_Node000009" class="edge">
<title>Node8&#45;&gt;Node9</title>
<g id="a_edge8_Node000008_Node000009"><a xlink:title=" ">
<path fill="none" stroke="#63b8ff" d="M548.75,-279.32C559.81,-269.87 573.63,-258.06 582.86,-250.17"/>
<polygon fill="#63b8ff" stroke="#63b8ff" points="546.29,-276.83 540.96,-285.98 550.84,-282.15 546.29,-276.83"/>
</a>
</g>
</g>
<!-- Node10 -->
<g id="Node000010" class="node">
<title>Node10</title>
<g id="a_Node000010"><a xlink:href="gtk2__ardour_2selection_8h.html" target="_top" xlink:title=" ">
<polygon fill="white" stroke="#666666" points="534,-250 464,-250 464,-231 534,-231 534,-250"/>
<text text-anchor="middle" x="499" y="-238" font-family="Helvetica,sans-Serif" font-size="10.00">selection.h</text>
</a>
</g>
</g>
<!-- Node8&#45;&gt;Node10 -->
<g id="edge9_Node000008_Node000010" class="edge">
<title>Node8&#45;&gt;Node10</title>
<g id="a_edge9_Node000008_Node000010"><a xlink:title=" ">
<path fill="none" stroke="#63b8ff" d="M520.5,-277.1C515.03,-268.04 508.58,-257.37 504.19,-250.09"/>
<polygon fill="#63b8ff" stroke="#63b8ff" points="517.55,-279 525.72,-285.75 523.54,-275.38 517.55,-279"/>
</a>
</g>
</g>
<!-- Node10&#45;&gt;Node6 -->
<g id="edge24_Node000010_Node000006" class="edge">
<title>Node10&#45;&gt;Node6</title>
<g id="a_edge24_Node000010_Node000006"><a xlink:title=" ">
<path fill="none" stroke="#63b8ff" d="M469.99,-226.9C447.46,-217.11 416.8,-203.79 396.96,-195.17"/>
<polygon fill="#63b8ff" stroke="#63b8ff" points="468.83,-230.21 479.4,-230.98 471.62,-223.79 468.83,-230.21"/>
</a>
</g>
</g>
<!-- Node11 -->
<g id="Node000011" class="node">
<title>Node11</title>
<g id="a_Node000011"><a xlink:href="editing__context_8h.html" target="_top" xlink:title=" ">
<polygon fill="white" stroke="#666666" points="686.5,-195 585.5,-195 585.5,-176 686.5,-176 686.5,-195"/>
<text text-anchor="middle" x="636" y="-183" font-family="Helvetica,sans-Serif" font-size="10.00">editing_context.h</text>
</a>
</g>
</g>
<!-- Node10&#45;&gt;Node11 -->
<g id="edge10_Node000010_Node000011" class="edge">
<title>Node10&#45;&gt;Node11</title>
<g id="a_edge10_Node000010_Node000011"><a xlink:title=" ">
<path fill="none" stroke="#63b8ff" d="M530.56,-227.29C555.95,-217.47 591,-203.91 613.59,-195.17"/>
<polygon fill="#63b8ff" stroke="#63b8ff" points="529.08,-224.11 521.01,-230.98 531.6,-230.64 529.08,-224.11"/>
</a>
</g>
</g>
<!-- Node16 -->
<g id="Node000016" class="node">
<title>Node16</title>
<g id="a_Node000016"><a xlink:href="public__editor_8h.html" target="_top" xlink:title=" ">
<polygon fill="white" stroke="#666666" points="512,-140 424,-140 424,-121 512,-121 512,-140"/>
<text text-anchor="middle" x="468" y="-128" font-family="Helvetica,sans-Serif" font-size="10.00">public_editor.h</text>
</a>
</g>
</g>
<!-- Node10&#45;&gt;Node16 -->
<g id="edge23_Node000010_Node000016" class="edge">
<title>Node10&#45;&gt;Node16</title>
<g id="a_edge23_Node000010_Node000016"><a xlink:title=" ">
<path fill="none" stroke="#63b8ff" d="M493.63,-220.8C486.86,-197.2 475.49,-157.58 470.49,-140.16"/>
<polygon fill="#63b8ff" stroke="#63b8ff" points="490.34,-222.02 496.46,-230.66 497.07,-220.08 490.34,-222.02"/>
</a>
</g>
</g>
<!-- Node23 -->
<g id="Node000023" class="node">
<title>Node23</title>
<g id="a_Node000023"><a xlink:href="gtk2__ardour_2keyboard_8h.html" target="_top" xlink:title=" ">
<polygon fill="white" stroke="#666666" points="567.5,-195 496.5,-195 496.5,-176 567.5,-176 567.5,-195"/>
<text text-anchor="middle" x="532" y="-183" font-family="Helvetica,sans-Serif" font-size="10.00">keyboard.h</text>
</a>
</g>
</g>
<!-- Node10&#45;&gt;Node23 -->
<g id="edge22_Node000010_Node000023" class="edge">
<title>Node10&#45;&gt;Node23</title>
<g id="a_edge22_Node000010_Node000023"><a xlink:title=" ">
<path fill="none" stroke="#63b8ff" d="M509.83,-222.1C515.47,-213.04 522.12,-202.37 526.65,-195.09"/>
<polygon fill="#63b8ff" stroke="#63b8ff" points="506.76,-220.41 504.45,-230.75 512.71,-224.11 506.76,-220.41"/>
</a>
</g>
</g>
<!-- Node12 -->
<g id="Node000012" class="node">
<title>Node12</title>
<g id="a_Node000012"><a xlink:href="cue__editor_8h.html" target="_top" xlink:title=" ">
<polygon fill="white" stroke="#666666" points="930,-140 854,-140 854,-121 930,-121 930,-140"/>
<text text-anchor="middle" x="892" y="-128" font-family="Helvetica,sans-Serif" font-size="10.00">cue_editor.h</text>
</a>
</g>
</g>
<!-- Node11&#45;&gt;Node12 -->
<g id="edge11_Node000011_Node000012" class="edge">
<title>Node11&#45;&gt;Node12</title>
<g id="a_edge11_Node000011_Node000012"><a xlink:title=" ">
<path fill="none" stroke="#63b8ff" d="M686.94,-173.95C736.15,-163.77 809.56,-148.57 853.9,-139.39"/>
<polygon fill="#63b8ff" stroke="#63b8ff" points="686.21,-170.53 677.13,-175.98 687.63,-177.38 686.21,-170.53"/>
</a>
</g>
</g>
<!-- Node11&#45;&gt;Node16 -->
<g id="edge15_Node000011_Node000016" class="edge">
<title>Node11&#45;&gt;Node16</title>
<g id="a_edge15_Node000011_Node000016"><a xlink:title=" ">
<path fill="none" stroke="#63b8ff" d="M599.32,-172.93C567.94,-163.03 523.49,-149.01 495.2,-140.08"/>
<polygon fill="#63b8ff" stroke="#63b8ff" points="598.42,-176.31 609.01,-175.98 600.52,-169.64 598.42,-176.31"/>
</a>
</g>
</g>
<!-- Node13 -->
<g id="Node000013" class="node">
<title>Node13</title>
<g id="a_Node000013"><a xlink:href="audio__clip__editor_8h.html" target="_top" xlink:title=" ">
<polygon fill="white" stroke="#666666" points="946,-79.5 838,-79.5 838,-60.5 946,-60.5 946,-79.5"/>
<text text-anchor="middle" x="892" y="-67.5" font-family="Helvetica,sans-Serif" font-size="10.00">audio_clip_editor.h</text>
</a>
</g>
</g>
<!-- Node12&#45;&gt;Node13 -->
<g id="edge12_Node000012_Node000013" class="edge">
<title>Node12&#45;&gt;Node13</title>
<g id="a_edge12_Node000012_Node000013"><a xlink:title=" ">
<path fill="none" stroke="#63b8ff" d="M892,-110.66C892,-100.24 892,-87.8 892,-79.67"/>
<polygon fill="#63b8ff" stroke="#63b8ff" points="888.5,-110.87 892,-120.87 895.5,-110.87 888.5,-110.87"/>
</a>
</g>
</g>
<!-- Node15 -->
<g id="Node000015" class="node">
<title>Node15</title>
<g id="a_Node000015"><a xlink:href="pianoroll_8h.html" target="_top" xlink:title=" ">
<polygon fill="white" stroke="#666666" points="1032,-79.5 964,-79.5 964,-60.5 1032,-60.5 1032,-79.5"/>
<text text-anchor="middle" x="998" y="-67.5" font-family="Helvetica,sans-Serif" font-size="10.00">pianoroll.h</text>
</a>
</g>
</g>
<!-- Node12&#45;&gt;Node15 -->
<g id="edge14_Node000012_Node000015" class="edge">
<title>Node12&#45;&gt;Node15</title>
<g id="a_edge14_Node000012_Node000015"><a xlink:title=" ">
<path fill="none" stroke="#63b8ff" d="M916.6,-115.92C936.86,-104.74 964.97,-89.23 982.3,-79.67"/>
<polygon fill="#63b8ff" stroke="#63b8ff" points="914.7,-112.97 907.64,-120.87 918.09,-119.1 914.7,-112.97"/>
</a>
</g>
</g>
<!-- Node14 -->
<g id="Node000014" class="node">
<title>Node14</title>
<g id="a_Node000014"><a xlink:href="trigger__page_8h.html" target="_top" xlink:title=" ">
<polygon fill="white" stroke="#666666" points="935.5,-19 848.5,-19 848.5,0 935.5,0 935.5,-19"/>
<text text-anchor="middle" x="892" y="-7" font-family="Helvetica,sans-Serif" font-size="10.00">trigger_page.h</text>
</a>
</g>
</g>
<!-- Node13&#45;&gt;Node14 -->
<g id="edge13_Node000013_Node000014" class="edge">
<title>Node13&#45;&gt;Node14</title>
<g id="a_edge13_Node000013_Node000014"><a xlink:title=" ">
<path fill="none" stroke="#63b8ff" d="M892,-50.16C892,-39.74 892,-27.3 892,-19.17"/>
<polygon fill="#63b8ff" stroke="#63b8ff" points="888.5,-50.37 892,-60.37 895.5,-50.37 888.5,-50.37"/>
</a>
</g>
</g>
<!-- Node17 -->
<g id="Node000017" class="node">
<title>Node17</title>
<g id="a_Node000017"><a xlink:href="editor_8h.html" target="_top" xlink:title=" ">
<polygon fill="white" stroke="#666666" points="146.5,-79.5 93.5,-79.5 93.5,-60.5 146.5,-60.5 146.5,-79.5"/>
<text text-anchor="middle" x="120" y="-67.5" font-family="Helvetica,sans-Serif" font-size="10.00">editor.h</text>
</a>
</g>
</g>
<!-- Node16&#45;&gt;Node17 -->
<g id="edge16_Node000016_Node000017" class="edge">
<title>Node16&#45;&gt;Node17</title>
<g id="a_edge16_Node000016_Node000017"><a xlink:title=" ">
<path fill="none" stroke="#63b8ff" d="M413.89,-125.57C351.08,-120.14 244.74,-108.25 156,-85 150.55,-83.57 144.8,-81.57 139.54,-79.53"/>
<polygon fill="#63b8ff" stroke="#63b8ff" points="413.71,-129.06 423.97,-126.42 414.3,-122.09 413.71,-129.06"/>
</a>
</g>
</g>
<!-- Node18 -->
<g id="Node000018" class="node">
<title>Node18</title>
<g id="a_Node000018"><a xlink:href="export__dialog_8h.html" target="_top" xlink:title=" ">
<polygon fill="white" stroke="#666666" points="257,-79.5 165,-79.5 165,-60.5 257,-60.5 257,-79.5"/>
<text text-anchor="middle" x="211" y="-67.5" font-family="Helvetica,sans-Serif" font-size="10.00">export_dialog.h</text>
</a>
</g>
</g>
<!-- Node16&#45;&gt;Node18 -->
<g id="edge17_Node000016_Node000018" class="edge">
<title>Node16&#45;&gt;Node18</title>
<g id="a_edge17_Node000016_Node000018"><a xlink:title=" ">
<path fill="none" stroke="#63b8ff" d="M417.94,-118.81C377.22,-110.02 318.31,-97.09 267,-85 259.68,-83.28 251.85,-81.36 244.43,-79.51"/>
<polygon fill="#63b8ff" stroke="#63b8ff" points="417.37,-122.27 427.88,-120.95 418.85,-115.43 417.37,-122.27"/>
</a>
</g>
</g>
<!-- Node19 -->
<g id="Node000019" class="node">
<title>Node19</title>
<g id="a_Node000019"><a xlink:href="insert__remove__time__dialog_8h.html" target="_top" xlink:title=" ">
<polygon fill="white" stroke="#666666" points="390.5,-85 275.5,-85 275.5,-55 390.5,-55 390.5,-85"/>
<text text-anchor="start" x="283.5" y="-73" font-family="Helvetica,sans-Serif" font-size="10.00">insert_remove_time</text>
<text text-anchor="middle" x="333" y="-62" font-family="Helvetica,sans-Serif" font-size="10.00">_dialog.h</text>
</a>
</g>
</g>
<!-- Node16&#45;&gt;Node19 -->
<g id="edge18_Node000016_Node000019" class="edge">
<title>Node16&#45;&gt;Node19</title>
<g id="a_edge18_Node000016_Node000019"><a xlink:title=" ">
<path fill="none" stroke="#63b8ff" d="M439.05,-116.95C417.43,-107.59 387.87,-94.78 365.46,-85.06"/>
<polygon fill="#63b8ff" stroke="#63b8ff" points="437.8,-120.23 448.37,-120.99 440.59,-113.81 437.8,-120.23"/>
</a>
</g>
</g>
<!-- Node20 -->
<g id="Node000020" class="node">
<title>Node20</title>
<g id="a_Node000020"><a xlink:href="midi__export__dialog_8h.html" target="_top" xlink:title=" ">
<polygon fill="white" stroke="#666666" points="527.5,-79.5 408.5,-79.5 408.5,-60.5 527.5,-60.5 527.5,-79.5"/>
<text text-anchor="middle" x="468" y="-67.5" font-family="Helvetica,sans-Serif" font-size="10.00">midi_export_dialog.h</text>
</a>
</g>
</g>
<!-- Node16&#45;&gt;Node20 -->
<g id="edge19_Node000016_Node000020" class="edge">
<title>Node16&#45;&gt;Node20</title>
<g id="a_edge19_Node000016_Node000020"><a xlink:title=" ">
<path fill="none" stroke="#63b8ff" d="M468,-110.66C468,-100.24 468,-87.8 468,-79.67"/>
<polygon fill="#63b8ff" stroke="#63b8ff" points="464.5,-110.87 468,-120.87 471.5,-110.87 464.5,-110.87"/>
</a>
</g>
</g>
<!-- Node21 -->
<g id="Node000021" class="node">
<title>Node21</title>
<g id="a_Node000021"><a xlink:href="simple__export__dialog_8h.html" target="_top" xlink:title=" ">
<polygon fill="white" stroke="#666666" points="676.5,-79.5 545.5,-79.5 545.5,-60.5 676.5,-60.5 676.5,-79.5"/>
<text text-anchor="middle" x="611" y="-67.5" font-family="Helvetica,sans-Serif" font-size="10.00">simple_export_dialog.h</text>
</a>
</g>
</g>
<!-- Node16&#45;&gt;Node21 -->
<g id="edge20_Node000016_Node000021" class="edge">
<title>Node16&#45;&gt;Node21</title>
<g id="a_edge20_Node000016_Node000021"><a xlink:title=" ">
<path fill="none" stroke="#63b8ff" d="M498.36,-117.08C525.98,-105.78 566.02,-89.4 590.18,-79.52"/>
<polygon fill="#63b8ff" stroke="#63b8ff" points="496.72,-113.97 488.79,-120.99 499.37,-120.45 496.72,-113.97"/>
</a>
</g>
</g>
<!-- Node22 -->
<g id="Node000022" class="node">
<title>Node22</title>
<g id="a_Node000022"><a xlink:href="tempo__map__change_8h.html" target="_top" xlink:title=" ">
<polygon fill="white" stroke="#666666" points="819.5,-79.5 694.5,-79.5 694.5,-60.5 819.5,-60.5 819.5,-79.5"/>
<text text-anchor="middle" x="757" y="-67.5" font-family="Helvetica,sans-Serif" font-size="10.00">tempo_map_change.h</text>
</a>
</g>
</g>
<!-- Node16&#45;&gt;Node22 -->
<g id="edge21_Node000016_Node000022" class="edge">
<title>Node16&#45;&gt;Node22</title>
<g id="a_edge21_Node000016_Node000022"><a xlink:title=" ">
<path fill="none" stroke="#63b8ff" d="M520.06,-118.96C575.84,-107.67 663.32,-89.96 714.93,-79.52"/>
<polygon fill="#63b8ff" stroke="#63b8ff" points="519.13,-115.58 510.02,-120.99 520.52,-122.44 519.13,-115.58"/>
</a>
</g>
</g>
<!-- Node24&#45;&gt;Node5 -->
<g id="edge26_Node000024_Node000005" class="edge">
<title>Node24&#45;&gt;Node5</title>
<g id="a_edge26_Node000024_Node000005"><a xlink:title=" ">
<path fill="none" stroke="#63b8ff" d="M289.93,-444.08C299.78,-435.77 311.86,-425.17 322,-415 340.53,-396.4 360.19,-372.56 370.24,-360.05"/>
<polygon fill="#63b8ff" stroke="#63b8ff" points="287.39,-441.63 281.94,-450.71 291.87,-447.01 287.39,-441.63"/>
</a>
</g>
</g>
<!-- Node25 -->
<g id="Node000025" class="node">
<title>Node25</title>
<g id="a_Node000025"><a xlink:href="patch__change_8h.html" target="_top" xlink:title=" ">
<polygon fill="white" stroke="#666666" points="462.5,-415 369.5,-415 369.5,-396 462.5,-396 462.5,-415"/>
<text text-anchor="middle" x="416" y="-403" font-family="Helvetica,sans-Serif" font-size="10.00">patch_change.h</text>
</a>
</g>
</g>
<!-- Node24&#45;&gt;Node25 -->
<g id="edge27_Node000024_Node000025" class="edge">
<title>Node24&#45;&gt;Node25</title>
<g id="a_edge27_Node000024_Node000025"><a xlink:title=" ">
<path fill="none" stroke="#63b8ff" d="M303.69,-447.55C330.62,-437.71 368.16,-423.98 392.28,-415.17"/>
<polygon fill="#63b8ff" stroke="#63b8ff" points="302.49,-444.26 294.3,-450.98 304.89,-450.84 302.49,-444.26"/>
</a>
</g>
</g>
<!-- Node26 -->
<g id="Node000026" class="node">
<title>Node26</title>
<g id="a_Node000026"><a xlink:href="pianoroll__midi__view_8h.html" target="_top" xlink:title=" ">
<polygon fill="white" stroke="#666666" points="312.5,-415 189.5,-415 189.5,-396 312.5,-396 312.5,-415"/>
<text text-anchor="middle" x="251" y="-403" font-family="Helvetica,sans-Serif" font-size="10.00">pianoroll_midi_view.h</text>
</a>
</g>
</g>
<!-- Node24&#45;&gt;Node26 -->
<g id="edge28_Node000024_Node000026" class="edge">
<title>Node24&#45;&gt;Node26</title>
<g id="a_edge28_Node000024_Node000026"><a xlink:title=" ">
<path fill="none" stroke="#63b8ff" d="M264.11,-441.24C260.76,-432.37 256.9,-422.14 254.24,-415.09"/>
<polygon fill="#63b8ff" stroke="#63b8ff" points="260.89,-442.63 267.7,-450.75 267.44,-440.16 260.89,-442.63"/>
</a>
</g>
</g>
<!-- Node29 -->
<g id="Node000029" class="node">
<title>Node29</title>
<g id="a_Node000029"><a xlink:href="piano__roll__header_8h.html" target="_top" xlink:title=" ">
<polygon fill="white" stroke="#666666" points="112,-415 0,-415 0,-396 112,-396 112,-415"/>
<text text-anchor="middle" x="56" y="-403" font-family="Helvetica,sans-Serif" font-size="10.00">piano_roll_header.h</text>
</a>
</g>
</g>
<!-- Node28&#45;&gt;Node29 -->
<g id="edge31_Node000028_Node000029" class="edge">
<title>Node28&#45;&gt;Node29</title>
<g id="a_edge31_Node000028_Node000029"><a xlink:title=" ">
<path fill="none" stroke="#63b8ff" d="M126.74,-445.97C109.37,-436.28 86.51,-423.52 71.54,-415.17"/>
<polygon fill="#63b8ff" stroke="#63b8ff" points="125.3,-449.17 135.74,-450.98 128.71,-443.06 125.3,-449.17"/>
</a>
</g>
</g>
<!-- Node30 -->
<g id="Node000030" class="node">
<title>Node30</title>
<g id="a_Node000030"><a xlink:href="prh_8h.html" target="_top" xlink:title=" ">
<polygon fill="white" stroke="#666666" points="171.5,-415 130.5,-415 130.5,-396 171.5,-396 171.5,-415"/>
<text text-anchor="middle" x="151" y="-403" font-family="Helvetica,sans-Serif" font-size="10.00">prh.h</text>
</a>
</g>
</g>
<!-- Node28&#45;&gt;Node30 -->
<g id="edge32_Node000028_Node000030" class="edge">
<title>Node28&#45;&gt;Node30</title>
<g id="a_edge32_Node000028_Node000030"><a xlink:title=" ">
<path fill="none" stroke="#63b8ff" d="M151,-440.66C151,-431.93 151,-421.99 151,-415.09"/>
<polygon fill="#63b8ff" stroke="#63b8ff" points="147.5,-440.75 151,-450.75 154.5,-440.75 147.5,-440.75"/>
</a>
</g>
</g>
<!-- Node31&#45;&gt;Node3 -->
<g id="edge36_Node000031_Node000003" class="edge">
<title>Node31&#45;&gt;Node3</title>
<g id="a_edge36_Node000031_Node000003"><a xlink:title=" ">
<path fill="none" stroke="#63b8ff" d="M577.73,-499.6C566.08,-490.11 551.4,-478.13 541.63,-470.17"/>
<polygon fill="#63b8ff" stroke="#63b8ff" points="575.59,-502.38 585.56,-505.98 580.02,-496.95 575.59,-502.38"/>
</a>
</g>
</g>
<!-- Node32 -->
<g id="Node000032" class="node">
<title>Node32</title>
<g id="a_Node000032"><a xlink:href="audio__streamview_8h.html" target="_top" xlink:title=" ">
<polygon fill="white" stroke="#666666" points="719.5,-470 604.5,-470 604.5,-451 719.5,-451 719.5,-470"/>
<text text-anchor="middle" x="662" y="-458" font-family="Helvetica,sans-Serif" font-size="10.00">audio_streamview.h</text>
</a>
</g>
</g>
<!-- Node31&#45;&gt;Node32 -->
<g id="edge34_Node000031_Node000032" class="edge">
<title>Node31&#45;&gt;Node32</title>
<g id="a_edge34_Node000031_Node000032"><a xlink:title=" ">
<path fill="none" stroke="#63b8ff" d="M614.55,-499.6C626.38,-490.11 641.29,-478.13 651.2,-470.17"/>
<polygon fill="#63b8ff" stroke="#63b8ff" points="612.21,-496.99 606.6,-505.98 616.59,-502.45 612.21,-496.99"/>
</a>
</g>
</g>
<!-- Node33 -->
<g id="Node000033" class="node">
<title>Node33</title>
<g id="a_Node000033"><a xlink:href="automation__streamview_8h.html" target="_top" xlink:title=" ">
<polygon fill="white" stroke="#666666" points="882,-470 738,-470 738,-451 882,-451 882,-470"/>
<text text-anchor="middle" x="810" y="-458" font-family="Helvetica,sans-Serif" font-size="10.00">automation_streamview.h</text>
</a>
</g>
</g>
<!-- Node31&#45;&gt;Node33 -->
<g id="edge35_Node000031_Node000033" class="edge">
<title>Node31&#45;&gt;Node33</title>
<g id="a_edge35_Node000031_Node000033"><a xlink:title=" ">
<path fill="none" stroke="#63b8ff" d="M640.16,-503.56C680.24,-493.64 738.54,-479.2 775.35,-470.08"/>
<polygon fill="#63b8ff" stroke="#63b8ff" points="639.25,-500.18 630.38,-505.98 640.93,-506.98 639.25,-500.18"/>
</a>
</g>
</g>
</g>
</svg>

<g id="navigator" transform="translate(0 0)" fill="#404254">
  <rect fill="#f2f5e9" fill-opacity="0.5" stroke="#606060" stroke-width=".5" x="0" y="0" width="60" height="60"/>
  <use id="zoomplus" xlink:href="#zoomPlus" x="17" y="9" onmousedown="handleZoom(evt,'in')"/>
  <use id="zoomminus" xlink:href="#zoomMin" x="42" y="9" onmousedown="handleZoom(evt,'out')"/>
  <use id="reset" xlink:href="#resetDef" x="30" y="36" onmousedown="handleReset()"/>
   <use id="arrowup" xlink:href="#arrowUp" x="0" y="0" onmousedown="handlePan(0,-1)"/>
  <use id="arrowright" xlink:href="#arrowRight" x="0" y="0" onmousedown="handlePan(1,0)"/>
  <use id="arrowdown" xlink:href="#arrowDown" x="0" y="0" onmousedown="handlePan(0,1)"/>
  <use id="arrowleft" xlink:href="#arrowLeft" x="0" y="0" onmousedown="handlePan(-1,0)"/>
</g>
<svg viewBox="0 0 15 15" width="100%" height="30px" preserveAspectRatio="xMaxYMin meet">
 <g id="arrow_out" transform="scale(0.3 0.3)">
  <a xlink:href="view__background_8h__dep__incl_org.svg" target="_base">
   <rect id="button" ry="5" rx="5" y="6" x="6" height="38" width="38"
        fill="#f2f5e9" fill-opacity="0.5" stroke="#606060" stroke-width="1.0"/>
   <path id="arrow"
     d="M 11.500037,31.436501 C 11.940474,20.09759 22.043105,11.32322 32.158766,21.979434 L 37.068811,17.246167 C 37.068811,17.246167 37.088388,32 37.088388,32 L 22.160133,31.978069 C 22.160133,31.978069 26.997745,27.140456 26.997745,27.140456 C 18.528582,18.264221 13.291696,25.230495 11.500037,31.436501 z"
     style="fill:#404040;"/>
  </a>
 </g>
</svg>

<style type='text/css'>
<![CDATA[
[data-mouse-over-selected='false'] { opacity: 0.7; }
[data-mouse-over-selected='true']  { opacity: 1.0; }
]]>
</style>
<script type="application/ecmascript"><![CDATA[
document.addEventListener('DOMContentLoaded', (event) => {
  highlightEdges();
  highlightAdjacentNodes();
});
]]></script>
</svg>
