<?xml version="1.0" encoding="UTF-8" standalone="no"?>
<!DOCTYPE svg PUBLIC "-//W3C//DTD SVG 1.1//EN"
 "http://www.w3.org/Graphics/SVG/1.1/DTD/svg11.dtd">
<!-- Generated by graphviz version 2.43.0 (0)
 -->
<!-- Title: vst_plugin.h Pages: 1 -->
<svg width="356pt" height="82pt"
 viewBox="0.00 0.00 355.50 82.00" xmlns="http://www.w3.org/2000/svg" xmlns:xlink="http://www.w3.org/1999/xlink">
<g id="graph0" class="graph" transform="scale(1 1) rotate(0) translate(4 78)">
<title>vst_plugin.h</title>
<!-- Node1 -->
<g id="Node000001" class="node">
<title>Node1</title>
<g id="a_Node000001"><a xlink:title=" ">
<polygon fill="#999999" stroke="#666666" points="192.5,-74 116.5,-74 116.5,-55 192.5,-55 192.5,-74"/>
<text text-anchor="middle" x="154.5" y="-62" font-family="Helvetica,sans-Serif" font-size="10.00">vst_plugin.h</text>
</a>
</g>
</g>
<!-- Node2 -->
<g id="Node000002" class="node">
<title>Node2</title>
<g id="a_Node000002"><a xlink:href="lxvst__plugin_8h.html" target="_top" xlink:title=" ">
<polygon fill="white" stroke="#666666" points="85,-19 0,-19 0,0 85,0 85,-19"/>
<text text-anchor="middle" x="42.5" y="-7" font-family="Helvetica,sans-Serif" font-size="10.00">lxvst_plugin.h</text>
</a>
</g>
</g>
<!-- Node1&#45;&gt;Node2 -->
<g id="edge1_Node000001_Node000002" class="edge">
<title>Node1&#45;&gt;Node2</title>
<g id="a_edge1_Node000001_Node000002"><a xlink:title=" ">
<path fill="none" stroke="#63b8ff" d="M127.31,-50.63C106.68,-40.87 78.88,-27.71 60.82,-19.17"/>
<polygon fill="#63b8ff" stroke="#63b8ff" points="125.97,-53.87 136.51,-54.98 128.96,-47.54 125.97,-53.87"/>
</a>
</g>
</g>
<!-- Node3 -->
<g id="Node000003" class="node">
<title>Node3</title>
<g id="a_Node000003"><a xlink:href="mac__vst__plugin_8h.html" target="_top" xlink:title=" ">
<polygon fill="white" stroke="#666666" points="205.5,-19 103.5,-19 103.5,0 205.5,0 205.5,-19"/>
<text text-anchor="middle" x="154.5" y="-7" font-family="Helvetica,sans-Serif" font-size="10.00">mac_vst_plugin.h</text>
</a>
</g>
</g>
<!-- Node1&#45;&gt;Node3 -->
<g id="edge2_Node000001_Node000003" class="edge">
<title>Node1&#45;&gt;Node3</title>
<g id="a_edge2_Node000001_Node000003"><a xlink:title=" ">
<path fill="none" stroke="#63b8ff" d="M154.5,-44.66C154.5,-35.93 154.5,-25.99 154.5,-19.09"/>
<polygon fill="#63b8ff" stroke="#63b8ff" points="151,-44.75 154.5,-54.75 158,-44.75 151,-44.75"/>
</a>
</g>
</g>
<!-- Node4 -->
<g id="Node000004" class="node">
<title>Node4</title>
<g id="a_Node000004"><a xlink:href="windows__vst__plugin_8h.html" target="_top" xlink:title=" ">
<polygon fill="white" stroke="#666666" points="347.5,-19 223.5,-19 223.5,0 347.5,0 347.5,-19"/>
<text text-anchor="middle" x="285.5" y="-7" font-family="Helvetica,sans-Serif" font-size="10.00">windows_vst_plugin.h</text>
</a>
</g>
</g>
<!-- Node1&#45;&gt;Node4 -->
<g id="edge3_Node000001_Node000004" class="edge">
<title>Node1&#45;&gt;Node4</title>
<g id="a_edge3_Node000001_Node000004"><a xlink:title=" ">
<path fill="none" stroke="#63b8ff" d="M185,-51.16C209.25,-41.35 242.57,-27.87 264.07,-19.17"/>
<polygon fill="#63b8ff" stroke="#63b8ff" points="183.5,-47.99 175.55,-54.98 186.13,-54.48 183.5,-47.99"/>
</a>
</g>
</g>
</g>
</svg>
