<?xml version="1.0" encoding="UTF-8" standalone="no"?>
<!DOCTYPE svg PUBLIC "-//W3C//DTD SVG 1.1//EN"
 "http://www.w3.org/Graphics/SVG/1.1/DTD/svg11.dtd">
<!-- Generated by graphviz version 2.43.0 (0)
 -->
<!-- Title: frame.h Pages: 1 -->
<svg width="931pt" height="269pt"
 viewBox="0.00 0.00 930.50 269.00" xmlns="http://www.w3.org/2000/svg" xmlns:xlink="http://www.w3.org/1999/xlink">
<g id="graph0" class="graph" transform="scale(1 1) rotate(0) translate(4 265)">
<title>frame.h</title>
<!-- Node1 -->
<g id="Node000001" class="node">
<title>Node1</title>
<g id="a_Node000001"><a xlink:title=" ">
<polygon fill="#999999" stroke="#666666" points="319.5,-261 264.5,-261 264.5,-242 319.5,-242 319.5,-261"/>
<text text-anchor="middle" x="292" y="-249" font-family="Helvetica,sans-Serif" font-size="10.00">frame.h</text>
</a>
</g>
</g>
<!-- Node2 -->
<g id="Node000002" class="node">
<title>Node2</title>
<g id="a_Node000002"><a xlink:href="mixer__ui_8h.html" target="_top" xlink:title=" ">
<polygon fill="white" stroke="#666666" points="68,-206 0,-206 0,-187 68,-187 68,-206"/>
<text text-anchor="middle" x="34" y="-194" font-family="Helvetica,sans-Serif" font-size="10.00">mixer_ui.h</text>
</a>
</g>
</g>
<!-- Node1&#45;&gt;Node2 -->
<g id="edge1_Node000001_Node000002" class="edge">
<title>Node1&#45;&gt;Node2</title>
<g id="a_edge1_Node000001_Node000002"><a xlink:title=" ">
<path fill="none" stroke="#63b8ff" d="M254.31,-242.76C204.27,-232.48 116.62,-214.47 68.34,-204.55"/>
<polygon fill="#63b8ff" stroke="#63b8ff" points="253.89,-246.24 264.39,-244.83 255.3,-239.39 253.89,-246.24"/>
</a>
</g>
</g>
<!-- Node3 -->
<g id="Node000003" class="node">
<title>Node3</title>
<g id="a_Node000003"><a xlink:href="recorder__ui_8h.html" target="_top" xlink:title=" ">
<polygon fill="white" stroke="#666666" points="166,-206 86,-206 86,-187 166,-187 166,-206"/>
<text text-anchor="middle" x="126" y="-194" font-family="Helvetica,sans-Serif" font-size="10.00">recorder_ui.h</text>
</a>
</g>
</g>
<!-- Node1&#45;&gt;Node3 -->
<g id="edge2_Node000001_Node000003" class="edge">
<title>Node1&#45;&gt;Node3</title>
<g id="a_edge2_Node000001_Node000003"><a xlink:title=" ">
<path fill="none" stroke="#63b8ff" d="M255.75,-238.93C224.75,-229.03 180.83,-215.01 152.88,-206.08"/>
<polygon fill="#63b8ff" stroke="#63b8ff" points="254.74,-242.28 265.33,-241.98 256.87,-235.61 254.74,-242.28"/>
</a>
</g>
</g>
<!-- Node4 -->
<g id="Node000004" class="node">
<title>Node4</title>
<g id="a_Node000004"><a xlink:href="region__editor_8h.html" target="_top" xlink:title=" ">
<polygon fill="white" stroke="#666666" points="273.5,-206 184.5,-206 184.5,-187 273.5,-187 273.5,-206"/>
<text text-anchor="middle" x="229" y="-194" font-family="Helvetica,sans-Serif" font-size="10.00">region_editor.h</text>
</a>
</g>
</g>
<!-- Node1&#45;&gt;Node4 -->
<g id="edge3_Node000001_Node000004" class="edge">
<title>Node1&#45;&gt;Node4</title>
<g id="a_edge3_Node000001_Node000004"><a xlink:title=" ">
<path fill="none" stroke="#63b8ff" d="M273.96,-235.32C262.73,-225.87 248.68,-214.06 239.31,-206.17"/>
<polygon fill="#63b8ff" stroke="#63b8ff" points="271.97,-238.23 281.88,-241.98 276.48,-232.87 271.97,-238.23"/>
</a>
</g>
</g>
<!-- Node6 -->
<g id="Node000006" class="node">
<title>Node6</title>
<g id="a_Node000006"><a xlink:href="route__properties__box_8h.html" target="_top" xlink:title=" ">
<polygon fill="white" stroke="#666666" points="420.5,-206 291.5,-206 291.5,-187 420.5,-187 420.5,-206"/>
<text text-anchor="middle" x="356" y="-194" font-family="Helvetica,sans-Serif" font-size="10.00">route_properties_box.h</text>
</a>
</g>
</g>
<!-- Node1&#45;&gt;Node6 -->
<g id="edge5_Node000001_Node000006" class="edge">
<title>Node1&#45;&gt;Node6</title>
<g id="a_edge5_Node000001_Node000006"><a xlink:title=" ">
<path fill="none" stroke="#63b8ff" d="M309.99,-235.6C321.46,-226.11 335.91,-214.13 345.53,-206.17"/>
<polygon fill="#63b8ff" stroke="#63b8ff" points="307.75,-232.91 302.28,-241.98 312.22,-238.3 307.75,-232.91"/>
</a>
</g>
</g>
<!-- Node7 -->
<g id="Node000007" class="node">
<title>Node7</title>
<g id="a_Node000007"><a xlink:href="track__record__axis_8h.html" target="_top" xlink:title=" ">
<polygon fill="white" stroke="#666666" points="551,-206 439,-206 439,-187 551,-187 551,-206"/>
<text text-anchor="middle" x="495" y="-194" font-family="Helvetica,sans-Serif" font-size="10.00">track_record_axis.h</text>
</a>
</g>
</g>
<!-- Node1&#45;&gt;Node7 -->
<g id="edge6_Node000001_Node000007" class="edge">
<title>Node1&#45;&gt;Node7</title>
<g id="a_edge6_Node000001_Node000007"><a xlink:title=" ">
<path fill="none" stroke="#63b8ff" d="M329.49,-240.71C367.54,-230.78 425.88,-215.55 462.16,-206.07"/>
<polygon fill="#63b8ff" stroke="#63b8ff" points="328.59,-237.33 319.8,-243.24 330.36,-244.1 328.59,-237.33"/>
</a>
</g>
</g>
<!-- Node8 -->
<g id="Node000008" class="node">
<title>Node8</title>
<g id="a_Node000008"><a xlink:href="trigger__ui_8h.html" target="_top" xlink:title=" ">
<polygon fill="white" stroke="#666666" points="641,-206 569,-206 569,-187 641,-187 641,-206"/>
<text text-anchor="middle" x="605" y="-194" font-family="Helvetica,sans-Serif" font-size="10.00">trigger_ui.h</text>
</a>
</g>
</g>
<!-- Node1&#45;&gt;Node8 -->
<g id="edge7_Node000001_Node000008" class="edge">
<title>Node1&#45;&gt;Node8</title>
<g id="a_edge7_Node000001_Node000008"><a xlink:title=" ">
<path fill="none" stroke="#63b8ff" d="M329.9,-244.48C381.86,-236.16 478.1,-220.53 560,-206 562.82,-205.5 565.73,-204.97 568.66,-204.44"/>
<polygon fill="#63b8ff" stroke="#63b8ff" points="329.14,-241.06 319.81,-246.09 330.24,-247.97 329.14,-241.06"/>
</a>
</g>
</g>
<!-- Node5 -->
<g id="Node000005" class="node">
<title>Node5</title>
<g id="a_Node000005"><a xlink:href="audio__region__editor_8h.html" target="_top" xlink:title=" ">
<polygon fill="white" stroke="#666666" points="290,-145.5 168,-145.5 168,-126.5 290,-126.5 290,-145.5"/>
<text text-anchor="middle" x="229" y="-133.5" font-family="Helvetica,sans-Serif" font-size="10.00">audio_region_editor.h</text>
</a>
</g>
</g>
<!-- Node4&#45;&gt;Node5 -->
<g id="edge4_Node000004_Node000005" class="edge">
<title>Node4&#45;&gt;Node5</title>
<g id="a_edge4_Node000004_Node000005"><a xlink:title=" ">
<path fill="none" stroke="#63b8ff" d="M229,-176.66C229,-166.24 229,-153.8 229,-145.67"/>
<polygon fill="#63b8ff" stroke="#63b8ff" points="225.5,-176.87 229,-186.87 232.5,-176.87 225.5,-176.87"/>
</a>
</g>
</g>
<!-- Node9 -->
<g id="Node000009" class="node">
<title>Node9</title>
<g id="a_Node000009"><a xlink:href="audio__trigger__properties__box_8h.html" target="_top" xlink:title=" ">
<polygon fill="white" stroke="#666666" points="485,-151 349,-151 349,-121 485,-121 485,-151"/>
<text text-anchor="start" x="357" y="-139" font-family="Helvetica,sans-Serif" font-size="10.00">audio_trigger_properties</text>
<text text-anchor="middle" x="417" y="-128" font-family="Helvetica,sans-Serif" font-size="10.00">_box.h</text>
</a>
</g>
</g>
<!-- Node8&#45;&gt;Node9 -->
<g id="edge8_Node000008_Node000009" class="edge">
<title>Node8&#45;&gt;Node9</title>
<g id="a_edge8_Node000008_Node000009"><a xlink:title=" ">
<path fill="none" stroke="#63b8ff" d="M567.89,-183.95C537.56,-174.51 494.54,-161.13 462.2,-151.06"/>
<polygon fill="#63b8ff" stroke="#63b8ff" points="567.07,-187.36 577.66,-186.99 569.15,-180.68 567.07,-187.36"/>
</a>
</g>
</g>
<!-- Node12 -->
<g id="Node000012" class="node">
<title>Node12</title>
<g id="a_Node000012"><a xlink:href="slot__properties__box_8h.html" target="_top" xlink:title=" ">
<polygon fill="white" stroke="#666666" points="625,-145.5 503,-145.5 503,-126.5 625,-126.5 625,-145.5"/>
<text text-anchor="middle" x="564" y="-133.5" font-family="Helvetica,sans-Serif" font-size="10.00">slot_properties_box.h</text>
</a>
</g>
</g>
<!-- Node8&#45;&gt;Node12 -->
<g id="edge12_Node000008_Node000012" class="edge">
<title>Node8&#45;&gt;Node12</title>
<g id="a_edge12_Node000008_Node000012"><a xlink:title=" ">
<path fill="none" stroke="#63b8ff" d="M593.18,-178.63C585.62,-167.85 576.14,-154.32 570.07,-145.67"/>
<polygon fill="#63b8ff" stroke="#63b8ff" points="590.34,-180.69 598.95,-186.87 596.08,-176.67 590.34,-180.69"/>
</a>
</g>
</g>
<!-- Node13 -->
<g id="Node000013" class="node">
<title>Node13</title>
<g id="a_Node000013"><a xlink:href="trigger__jump__dialog_8h.html" target="_top" xlink:title=" ">
<polygon fill="white" stroke="#666666" points="766.5,-145.5 643.5,-145.5 643.5,-126.5 766.5,-126.5 766.5,-145.5"/>
<text text-anchor="middle" x="705" y="-133.5" font-family="Helvetica,sans-Serif" font-size="10.00">trigger_jump_dialog.h</text>
</a>
</g>
</g>
<!-- Node8&#45;&gt;Node13 -->
<g id="edge13_Node000008_Node000013" class="edge">
<title>Node8&#45;&gt;Node13</title>
<g id="a_edge13_Node000008_Node000013"><a xlink:title=" ">
<path fill="none" stroke="#63b8ff" d="M628.47,-181.77C647.56,-170.6 673.91,-155.19 690.18,-145.67"/>
<polygon fill="#63b8ff" stroke="#63b8ff" points="626.62,-178.8 619.76,-186.87 630.15,-184.84 626.62,-178.8"/>
</a>
</g>
</g>
<!-- Node14 -->
<g id="Node000014" class="node">
<title>Node14</title>
<g id="a_Node000014"><a xlink:href="triggerbox__ui_8h.html" target="_top" xlink:title=" ">
<polygon fill="white" stroke="#666666" points="875,-145.5 785,-145.5 785,-126.5 875,-126.5 875,-145.5"/>
<text text-anchor="middle" x="830" y="-133.5" font-family="Helvetica,sans-Serif" font-size="10.00">triggerbox_ui.h</text>
</a>
</g>
</g>
<!-- Node8&#45;&gt;Node14 -->
<g id="edge14_Node000008_Node000014" class="edge">
<title>Node8&#45;&gt;Node14</title>
<g id="a_edge14_Node000008_Node000014"><a xlink:title=" ">
<path fill="none" stroke="#63b8ff" d="M647.44,-184.47C690.93,-173.16 757.65,-155.81 797.24,-145.52"/>
<polygon fill="#63b8ff" stroke="#63b8ff" points="646.51,-181.09 637.72,-186.99 648.28,-187.86 646.51,-181.09"/>
</a>
</g>
</g>
<!-- Node10 -->
<g id="Node000010" class="node">
<title>Node10</title>
<g id="a_Node000010"><a xlink:href="midi__trigger__properties__box_8h.html" target="_top" xlink:title=" ">
<polygon fill="white" stroke="#666666" points="435.5,-85 304.5,-85 304.5,-55 435.5,-55 435.5,-85"/>
<text text-anchor="start" x="312.5" y="-73" font-family="Helvetica,sans-Serif" font-size="10.00">midi_trigger_properties</text>
<text text-anchor="middle" x="370" y="-62" font-family="Helvetica,sans-Serif" font-size="10.00">_box.h</text>
</a>
</g>
</g>
<!-- Node9&#45;&gt;Node10 -->
<g id="edge9_Node000009_Node000010" class="edge">
<title>Node9&#45;&gt;Node10</title>
<g id="a_edge9_Node000009_Node000010"><a xlink:title=" ">
<path fill="none" stroke="#63b8ff" d="M400.5,-112.53C393.81,-103.43 386.3,-93.19 380.4,-85.16"/>
<polygon fill="#63b8ff" stroke="#63b8ff" points="397.83,-114.81 406.57,-120.8 403.47,-110.66 397.83,-114.81"/>
</a>
</g>
</g>
<!-- Node11 -->
<g id="Node000011" class="node">
<title>Node11</title>
<g id="a_Node000011"><a xlink:href="trigger__page_8h.html" target="_top" xlink:title=" ">
<polygon fill="white" stroke="#666666" points="460.5,-19 373.5,-19 373.5,0 460.5,0 460.5,-19"/>
<text text-anchor="middle" x="417" y="-7" font-family="Helvetica,sans-Serif" font-size="10.00">trigger_page.h</text>
</a>
</g>
</g>
<!-- Node9&#45;&gt;Node11 -->
<g id="edge11_Node000009_Node000011" class="edge">
<title>Node9&#45;&gt;Node11</title>
<g id="a_edge11_Node000009_Node000011"><a xlink:title=" ">
<path fill="none" stroke="#63b8ff" d="M432.34,-112.29C437.04,-104.06 441.61,-94.45 444,-85 447.27,-72.07 447.59,-67.84 444,-55 440.15,-41.25 430.77,-27.52 424.15,-19.03"/>
<polygon fill="#63b8ff" stroke="#63b8ff" points="429.29,-110.56 427.07,-120.92 435.27,-114.2 429.29,-110.56"/>
</a>
</g>
</g>
<!-- Node10&#45;&gt;Node11 -->
<g id="edge10_Node000010_Node000011" class="edge">
<title>Node10&#45;&gt;Node11</title>
<g id="a_edge10_Node000010_Node000011"><a xlink:title=" ">
<path fill="none" stroke="#63b8ff" d="M387.84,-46.8C395.54,-37.21 404.11,-26.54 409.96,-19.27"/>
<polygon fill="#63b8ff" stroke="#63b8ff" points="384.91,-44.85 381.38,-54.84 390.37,-49.24 384.91,-44.85"/>
</a>
</g>
</g>
<!-- Node15 -->
<g id="Node000015" class="node">
<title>Node15</title>
<g id="a_Node000015"><a xlink:href="mixer__strip_8h.html" target="_top" xlink:title=" ">
<polygon fill="white" stroke="#666666" points="819,-79.5 739,-79.5 739,-60.5 819,-60.5 819,-79.5"/>
<text text-anchor="middle" x="779" y="-67.5" font-family="Helvetica,sans-Serif" font-size="10.00">mixer_strip.h</text>
</a>
</g>
</g>
<!-- Node14&#45;&gt;Node15 -->
<g id="edge15_Node000014_Node000015" class="edge">
<title>Node14&#45;&gt;Node15</title>
<g id="a_edge15_Node000014_Node000015"><a xlink:title=" ">
<path fill="none" stroke="#63b8ff" d="M816.67,-118.27C806.88,-105.99 793.98,-89.8 786.1,-79.91"/>
<polygon fill="#63b8ff" stroke="#63b8ff" points="814.15,-120.73 823.12,-126.37 819.63,-116.37 814.15,-120.73"/>
</a>
</g>
</g>
<!-- Node17 -->
<g id="Node000017" class="node">
<title>Node17</title>
<g id="a_Node000017"><a xlink:href="trigger__strip_8h.html" target="_top" xlink:title=" ">
<polygon fill="white" stroke="#666666" points="922.5,-79.5 837.5,-79.5 837.5,-60.5 922.5,-60.5 922.5,-79.5"/>
<text text-anchor="middle" x="880" y="-67.5" font-family="Helvetica,sans-Serif" font-size="10.00">trigger_strip.h</text>
</a>
</g>
</g>
<!-- Node14&#45;&gt;Node17 -->
<g id="edge17_Node000014_Node000017" class="edge">
<title>Node14&#45;&gt;Node17</title>
<g id="a_edge17_Node000014_Node000017"><a xlink:title=" ">
<path fill="none" stroke="#63b8ff" d="M843.07,-118.27C852.66,-105.99 865.31,-89.8 873.04,-79.91"/>
<polygon fill="#63b8ff" stroke="#63b8ff" points="840.14,-116.33 836.74,-126.37 845.66,-120.64 840.14,-116.33"/>
</a>
</g>
</g>
<!-- Node16 -->
<g id="Node000016" class="node">
<title>Node16</title>
<g id="a_Node000016"><a xlink:href="strip__selection_8h.html" target="_top" xlink:title=" ">
<polygon fill="white" stroke="#666666" points="827.5,-19 730.5,-19 730.5,0 827.5,0 827.5,-19"/>
<text text-anchor="middle" x="779" y="-7" font-family="Helvetica,sans-Serif" font-size="10.00">strip_selection.h</text>
</a>
</g>
</g>
<!-- Node15&#45;&gt;Node16 -->
<g id="edge16_Node000015_Node000016" class="edge">
<title>Node15&#45;&gt;Node16</title>
<g id="a_edge16_Node000015_Node000016"><a xlink:title=" ">
<path fill="none" stroke="#63b8ff" d="M779,-50.16C779,-39.74 779,-27.3 779,-19.17"/>
<polygon fill="#63b8ff" stroke="#63b8ff" points="775.5,-50.37 779,-60.37 782.5,-50.37 775.5,-50.37"/>
</a>
</g>
</g>
</g>
</svg>
