<?xml version="1.0" encoding="UTF-8" standalone="no"?>
<!DOCTYPE svg PUBLIC "-//W3C//DTD SVG 1.1//EN"
 "http://www.w3.org/Graphics/SVG/1.1/DTD/svg11.dtd">
<!-- Generated by graphviz version 2.43.0 (0)
 -->
<!-- Title: widget_p.h Pages: 1 -->
<svg width="262pt" height="137pt"
 viewBox="0.00 0.00 262.00 137.00" xmlns="http://www.w3.org/2000/svg" xmlns:xlink="http://www.w3.org/1999/xlink">
<g id="graph0" class="graph" transform="scale(1 1) rotate(0) translate(4 133)">
<title>widget_p.h</title>
<!-- Node1 -->
<g id="Node000001" class="node">
<title>Node1</title>
<g id="a_Node000001"><a xlink:title=" ">
<polygon fill="#999999" stroke="#666666" points="193.5,-129 123.5,-129 123.5,-110 193.5,-110 193.5,-129"/>
<text text-anchor="middle" x="158.5" y="-117" font-family="Helvetica,sans-Serif" font-size="10.00">widget_p.h</text>
</a>
</g>
</g>
<!-- Node2 -->
<g id="Node000002" class="node">
<title>Node2</title>
<g id="a_Node000002"><a xlink:href="object__p_8h.html" target="_top" xlink:title=" ">
<polygon fill="white" stroke="#666666" points="180,-74 37,-74 37,-55 180,-55 180,-74"/>
<text text-anchor="middle" x="108.5" y="-62" font-family="Helvetica,sans-Serif" font-size="10.00">ytkmm/private/object_p.h</text>
</a>
</g>
</g>
<!-- Node1&#45;&gt;Node2 -->
<g id="edge1_Node000001_Node000002" class="edge">
<title>Node1&#45;&gt;Node2</title>
<g id="a_edge1_Node000001_Node000002"><a xlink:title=" ">
<path fill="none" stroke="#63b8ff" d="M150.24,-109.75C143.04,-102.11 132.39,-90.82 123.65,-81.56"/>
<polygon fill="#63b8ff" stroke="#63b8ff" points="126.01,-78.96 116.6,-74.09 120.92,-83.76 126.01,-78.96"/>
</a>
</g>
</g>
<!-- Node4 -->
<g id="Node000004" class="node">
<title>Node4</title>
<g id="a_Node000004"><a xlink:title=" ">
<polygon fill="#e0e0e0" stroke="#999999" points="254,-19 163,-19 163,0 254,0 254,-19"/>
<text text-anchor="middle" x="208.5" y="-7" font-family="Helvetica,sans-Serif" font-size="10.00">glibmm/class.h</text>
</a>
</g>
</g>
<!-- Node1&#45;&gt;Node4 -->
<g id="edge4_Node000001_Node000004" class="edge">
<title>Node1&#45;&gt;Node4</title>
<g id="a_edge4_Node000001_Node000004"><a xlink:title=" ">
<path fill="none" stroke="#63b8ff" d="M165.81,-109.82C172.74,-101.21 183.03,-87.4 189.5,-74 196.46,-59.57 201.47,-42.06 204.59,-29.08"/>
<polygon fill="#63b8ff" stroke="#63b8ff" points="208.07,-29.56 206.85,-19.03 201.24,-28.02 208.07,-29.56"/>
</a>
</g>
</g>
<!-- Node3 -->
<g id="Node000003" class="node">
<title>Node3</title>
<g id="a_Node000003"><a xlink:title=" ">
<polygon fill="#e0e0e0" stroke="#999999" points="145,-19 0,-19 0,0 145,0 145,-19"/>
<text text-anchor="middle" x="72.5" y="-7" font-family="Helvetica,sans-Serif" font-size="10.00">glibmm/private/object_p.h</text>
</a>
</g>
</g>
<!-- Node2&#45;&gt;Node3 -->
<g id="edge2_Node000002_Node000003" class="edge">
<title>Node2&#45;&gt;Node3</title>
<g id="a_edge2_Node000002_Node000003"><a xlink:title=" ">
<path fill="none" stroke="#63b8ff" d="M102.56,-54.75C97.52,-47.34 90.16,-36.5 83.99,-27.41"/>
<polygon fill="#63b8ff" stroke="#63b8ff" points="86.85,-25.39 78.33,-19.09 81.06,-29.33 86.85,-25.39"/>
</a>
</g>
</g>
<!-- Node2&#45;&gt;Node4 -->
<g id="edge3_Node000002_Node000004" class="edge">
<title>Node2&#45;&gt;Node4</title>
<g id="a_edge3_Node000002_Node000004"><a xlink:title=" ">
<path fill="none" stroke="#63b8ff" d="M124.57,-54.98C140.36,-46.61 164.72,-33.7 183.13,-23.95"/>
<polygon fill="#63b8ff" stroke="#63b8ff" points="184.94,-26.95 192.14,-19.17 181.67,-20.76 184.94,-26.95"/>
</a>
</g>
</g>
</g>
</svg>
