<?xml version="1.0" encoding="UTF-8" standalone="no"?>
<!DOCTYPE svg PUBLIC "-//W3C//DTD SVG 1.1//EN"
 "http://www.w3.org/Graphics/SVG/1.1/DTD/svg11.dtd">
<!-- Generated by graphviz version 2.43.0 (0)
 -->
<!-- Title: worker.h Pages: 1 -->
<!--zoomable 269 -->

<svg id="main" version="1.1" xmlns="http://www.w3.org/2000/svg" xmlns:xlink="http://www.w3.org/1999/xlink" xml:space="preserve" onload="init(evt)">
<style type="text/css"><![CDATA[
.node, .edge {opacity: 0.7;}
.node.selected, .edge.selected {opacity: 1;}
.edge:hover path { stroke: red; }
.edge:hover polygon { stroke: red; fill: red; }
]]></style>

<defs>
  <circle id="rim" cx="0" cy="0" r="7"/>
  <circle id="rim2" cx="0" cy="0" r="3.5"/>
  <g id="zoomPlus">
    <use xlink:href="#rim" fill="#404040"><set attributeName="fill" to="#808080" begin="zoomplus.mouseover" end="zoomplus.mouseout"/></use>
    <path d="M-4,0h8M0,-4v8" fill="none" stroke="white" stroke-width="1.5" pointer-events="none"/>
  </g>
  <g id="zoomMin">
    <use xlink:href="#rim" fill="#404040"><set attributeName="fill" to="#808080" begin="zoomminus.mouseover" end="zoomminus.mouseout"/></use>
    <path d="M-4,0h8" fill="none" stroke="white" stroke-width="1.5" pointer-events="none"/>
  </g>
  <g id="arrowUp" transform="translate(30 24)">
    <use xlink:href="#rim"/>
    <path pointer-events="none" fill="none" stroke="white" stroke-width="1.5" d="M0,-3.0v7 M-2.5,-0.5L0,-3.0L2.5,-0.5"/>
  </g>
  <g id="arrowRight" transform="rotate(90) translate(36 -43)">
    <use xlink:href="#rim"/>
    <path pointer-events="none" fill="none" stroke="white" stroke-width="1.5" d="M0,-3.0v7 M-2.5,-0.5L0,-3.0L2.5,-0.5"/>
  </g>
  <g id="arrowDown" transform="rotate(180) translate(-30 -48)">
    <use xlink:href="#rim"/>
    <path pointer-events="none" fill="none" stroke="white" stroke-width="1.5" d="M0,-3.0v7 M-2.5,-0.5L0,-3.0L2.5,-0.5"/>
  </g>
  <g id="arrowLeft" transform="rotate(270) translate(-36 17)">
    <use xlink:href="#rim"/>
    <path pointer-events="none" fill="none" stroke="white" stroke-width="1.5" d="M0,-3.0v7 M-2.5,-0.5L0,-3.0L2.5,-0.5"/>
  </g>
  <g id="resetDef">
    <use xlink:href="#rim2" fill="#404040"><set attributeName="fill" to="#808080" begin="reset.mouseover" end="reset.mouseout"/></use>
  </g>
</defs>
<script type="application/ecmascript">
var viewWidth = 1655;
var viewHeight = 269;
var sectionId = 'dynsection-0';
</script>
<script type="application/ecmascript" xlink:href="svg.min.js"/>
<svg id="graph" class="graph">
<g id="viewport">
<title>worker.h</title>
<!-- Node1 -->
<g id="Node000001" class="node">
<title>Node1</title>
<g id="a_Node000001"><a xlink:title=" ">
<polygon fill="#999999" stroke="#666666" points="1461,-261 1403,-261 1403,-242 1461,-242 1461,-261"/>
<text text-anchor="middle" x="1432" y="-249" font-family="Helvetica,sans-Serif" font-size="10.00">worker.h</text>
</a>
</g>
</g>
<!-- Node2 -->
<g id="Node000002" class="node">
<title>Node2</title>
<g id="a_Node000002"><a xlink:title=" ">
<polygon fill="#e0e0e0" stroke="#999999" points="1479.5,-24.5 1426.5,-24.5 1426.5,-5.5 1479.5,-5.5 1479.5,-24.5"/>
<text text-anchor="middle" x="1453" y="-12.5" font-family="Helvetica,sans-Serif" font-size="10.00">stdint.h</text>
</a>
</g>
</g>
<!-- Node1&#45;&gt;Node2 -->
<g id="edge1_Node000001_Node000002" class="edge">
<title>Node1&#45;&gt;Node2</title>
<g id="a_edge1_Node000001_Node000002"><a xlink:title=" ">
<path fill="none" stroke="#63b8ff" d="M1432.77,-241.88C1435.81,-207.91 1447.01,-82.9 1451.31,-34.92"/>
<polygon fill="#63b8ff" stroke="#63b8ff" points="1454.79,-35.23 1452.2,-24.95 1447.82,-34.6 1454.79,-35.23"/>
</a>
</g>
</g>
<!-- Node3 -->
<g id="Node000003" class="node">
<title>Node3</title>
<g id="a_Node000003"><a xlink:href="pthread__utils_8h.html" target="_top" xlink:title=" ">
<polygon fill="white" stroke="#666666" points="1153,-206 1043,-206 1043,-187 1153,-187 1153,-206"/>
<text text-anchor="middle" x="1098" y="-194" font-family="Helvetica,sans-Serif" font-size="10.00">pbd/pthread_utils.h</text>
</a>
</g>
</g>
<!-- Node1&#45;&gt;Node3 -->
<g id="edge2_Node000001_Node000003" class="edge">
<title>Node1&#45;&gt;Node3</title>
<g id="a_edge2_Node000001_Node000003"><a xlink:title=" ">
<path fill="none" stroke="#63b8ff" d="M1402.94,-245.89C1349.44,-237.4 1234.17,-219.11 1161.68,-207.61"/>
<polygon fill="#63b8ff" stroke="#63b8ff" points="1162.18,-204.14 1151.75,-206.03 1161.08,-211.05 1162.18,-204.14"/>
</a>
</g>
</g>
<!-- Node26 -->
<g id="Node000026" class="node">
<title>Node26</title>
<g id="a_Node000026"><a xlink:href="ringbuffer_8h.html" target="_top" xlink:title=" ">
<polygon fill="white" stroke="#666666" points="1403.5,-90.5 1310.5,-90.5 1310.5,-71.5 1403.5,-71.5 1403.5,-90.5"/>
<text text-anchor="middle" x="1357" y="-78.5" font-family="Helvetica,sans-Serif" font-size="10.00">pbd/ringbuffer.h</text>
</a>
</g>
</g>
<!-- Node1&#45;&gt;Node26 -->
<g id="edge39_Node000001_Node000026" class="edge">
<title>Node1&#45;&gt;Node26</title>
<g id="a_edge39_Node000001_Node000026"><a xlink:title=" ">
<path fill="none" stroke="#63b8ff" d="M1428.18,-241.91C1416.5,-215.67 1381.08,-136.11 1365.05,-100.08"/>
<polygon fill="#63b8ff" stroke="#63b8ff" points="1368.17,-98.48 1360.9,-90.77 1361.77,-101.33 1368.17,-98.48"/>
</a>
</g>
</g>
<!-- Node28 -->
<g id="Node000028" class="node">
<title>Node28</title>
<g id="a_Node000028"><a xlink:href="semutils_8h.html" target="_top" xlink:title=" ">
<polygon fill="white" stroke="#666666" points="1253.5,-90.5 1164.5,-90.5 1164.5,-71.5 1253.5,-71.5 1253.5,-90.5"/>
<text text-anchor="middle" x="1209" y="-78.5" font-family="Helvetica,sans-Serif" font-size="10.00">pbd/semutils.h</text>
</a>
</g>
</g>
<!-- Node1&#45;&gt;Node28 -->
<g id="edge43_Node000001_Node000028" class="edge">
<title>Node1&#45;&gt;Node28</title>
<g id="a_edge43_Node000001_Node000028"><a xlink:title=" ">
<path fill="none" stroke="#63b8ff" d="M1420.63,-241.91C1384.77,-214.81 1273.71,-130.89 1228.47,-96.71"/>
<polygon fill="#63b8ff" stroke="#63b8ff" points="1230.43,-93.81 1220.34,-90.57 1226.21,-99.39 1230.43,-93.81"/>
</a>
</g>
</g>
<!-- Node30 -->
<g id="Node000030" class="node">
<title>Node30</title>
<g id="a_Node000030"><a xlink:href="libardour__visibility_8h.html" target="_top" xlink:title=" ">
<polygon fill="white" stroke="#666666" points="1646.5,-206 1497.5,-206 1497.5,-187 1646.5,-187 1646.5,-206"/>
<text text-anchor="middle" x="1572" y="-194" font-family="Helvetica,sans-Serif" font-size="10.00">ardour/libardour_visibility.h</text>
</a>
</g>
</g>
<!-- Node1&#45;&gt;Node30 -->
<g id="edge47_Node000001_Node000030" class="edge">
<title>Node1&#45;&gt;Node30</title>
<g id="a_edge47_Node000001_Node000030"><a xlink:title=" ">
<path fill="none" stroke="#63b8ff" d="M1454.49,-241.98C1477.52,-233.27 1513.54,-219.63 1539.63,-209.75"/>
<polygon fill="#63b8ff" stroke="#63b8ff" points="1540.98,-212.98 1549.1,-206.17 1538.51,-206.44 1540.98,-212.98"/>
</a>
</g>
</g>
<!-- Node3&#45;&gt;Node2 -->
<g id="edge6_Node000003_Node000002" class="edge">
<title>Node3&#45;&gt;Node2</title>
<g id="a_edge6_Node000003_Node000002"><a xlink:title=" ">
<path fill="none" stroke="#63b8ff" d="M1153.28,-190.87C1221.31,-182.53 1337.01,-159.43 1412,-96 1431.04,-79.9 1442.28,-52.74 1448.04,-34.59"/>
<polygon fill="#63b8ff" stroke="#63b8ff" points="1451.44,-35.45 1450.88,-24.87 1444.72,-33.49 1451.44,-35.45"/>
</a>
</g>
</g>
<!-- Node4 -->
<g id="Node000004" class="node">
<title>Node4</title>
<g id="a_Node000004"><a xlink:title=" ">
<polygon fill="#e0e0e0" stroke="#999999" points="1173.5,-24.5 1110.5,-24.5 1110.5,-5.5 1173.5,-5.5 1173.5,-24.5"/>
<text text-anchor="middle" x="1142" y="-12.5" font-family="Helvetica,sans-Serif" font-size="10.00">pthread.h</text>
</a>
</g>
</g>
<!-- Node3&#45;&gt;Node4 -->
<g id="edge3_Node000003_Node000004" class="edge">
<title>Node3&#45;&gt;Node4</title>
<g id="a_edge3_Node000003_Node000004"><a xlink:title=" ">
<path fill="none" stroke="#63b8ff" d="M1100.12,-186.84C1106.9,-159.18 1128.15,-72.51 1137.5,-34.35"/>
<polygon fill="#63b8ff" stroke="#63b8ff" points="1140.92,-35.12 1139.9,-24.57 1134.12,-33.45 1140.92,-35.12"/>
</a>
</g>
</g>
<!-- Node5 -->
<g id="Node000005" class="node">
<title>Node5</title>
<g id="a_Node000005"><a xlink:title=" ">
<polygon fill="#e0e0e0" stroke="#999999" points="1069.5,-151 1014.5,-151 1014.5,-132 1069.5,-132 1069.5,-151"/>
<text text-anchor="middle" x="1042" y="-139" font-family="Helvetica,sans-Serif" font-size="10.00">signal.h</text>
</a>
</g>
</g>
<!-- Node3&#45;&gt;Node5 -->
<g id="edge4_Node000003_Node000005" class="edge">
<title>Node3&#45;&gt;Node5</title>
<g id="a_edge4_Node000003_Node000005"><a xlink:title=" ">
<path fill="none" stroke="#63b8ff" d="M1089,-186.98C1080.81,-179.23 1068.49,-167.58 1058.53,-158.14"/>
<polygon fill="#63b8ff" stroke="#63b8ff" points="1060.83,-155.5 1051.16,-151.17 1056.02,-160.59 1060.83,-155.5"/>
</a>
</g>
</g>
<!-- Node6 -->
<g id="Node000006" class="node">
<title>Node6</title>
<g id="a_Node000006"><a xlink:title=" ">
<polygon fill="#e0e0e0" stroke="#999999" points="1092,-24.5 1048,-24.5 1048,-5.5 1092,-5.5 1092,-24.5"/>
<text text-anchor="middle" x="1070" y="-12.5" font-family="Helvetica,sans-Serif" font-size="10.00">string</text>
</a>
</g>
</g>
<!-- Node3&#45;&gt;Node6 -->
<g id="edge5_Node000003_Node000006" class="edge">
<title>Node3&#45;&gt;Node6</title>
<g id="a_edge5_Node000003_Node000006"><a xlink:title=" ">
<path fill="none" stroke="#63b8ff" d="M1096.66,-186.7C1093.46,-165.78 1085.14,-111.4 1078,-66 1076.39,-55.75 1074.56,-44.33 1073.06,-34.99"/>
<polygon fill="#63b8ff" stroke="#63b8ff" points="1076.48,-34.17 1071.43,-24.85 1069.56,-35.28 1076.48,-34.17"/>
</a>
</g>
</g>
<!-- Node7 -->
<g id="Node000007" class="node">
<title>Node7</title>
<g id="a_Node000007"><a xlink:href="libpbd__visibility_8h.html" target="_top" xlink:title=" ">
<polygon fill="white" stroke="#666666" points="964,-24.5 842,-24.5 842,-5.5 964,-5.5 964,-24.5"/>
<text text-anchor="middle" x="903" y="-12.5" font-family="Helvetica,sans-Serif" font-size="10.00">pbd/libpbd_visibility.h</text>
</a>
</g>
</g>
<!-- Node3&#45;&gt;Node7 -->
<g id="edge7_Node000003_Node000007" class="edge">
<title>Node3&#45;&gt;Node7</title>
<g id="a_edge7_Node000003_Node000007"><a xlink:title=" ">
<path fill="none" stroke="#63b8ff" d="M1073.08,-186.94C1053.36,-179.42 1025.78,-167.14 1005,-151 962.02,-117.62 927.83,-61.86 912.22,-33.59"/>
<polygon fill="#63b8ff" stroke="#63b8ff" points="915.15,-31.65 907.32,-24.51 908.99,-34.97 915.15,-31.65"/>
</a>
</g>
</g>
<!-- Node8 -->
<g id="Node000008" class="node">
<title>Node8</title>
<g id="a_Node000008"><a xlink:href="signals_8h.html" target="_top" xlink:title=" ">
<polygon fill="white" stroke="#666666" points="702.5,-151 621.5,-151 621.5,-132 702.5,-132 702.5,-151"/>
<text text-anchor="middle" x="662" y="-139" font-family="Helvetica,sans-Serif" font-size="10.00">pbd/signals.h</text>
</a>
</g>
</g>
<!-- Node3&#45;&gt;Node8 -->
<g id="edge8_Node000003_Node000008" class="edge">
<title>Node3&#45;&gt;Node8</title>
<g id="a_edge8_Node000003_Node000008"><a xlink:title=" ">
<path fill="none" stroke="#63b8ff" d="M1042.78,-188.79C957.52,-178.42 795.08,-158.68 712.66,-148.66"/>
<polygon fill="#63b8ff" stroke="#63b8ff" points="712.89,-145.16 702.54,-147.43 712.05,-152.11 712.89,-145.16"/>
</a>
</g>
</g>
<!-- Node8&#45;&gt;Node7 -->
<g id="edge17_Node000008_Node000007" class="edge">
<title>Node8&#45;&gt;Node7</title>
<g id="a_edge17_Node000008_Node000007"><a xlink:title=" ">
<path fill="none" stroke="#63b8ff" d="M699.72,-131.96C728.05,-124.68 767.25,-112.73 799,-96 832.86,-78.16 867.07,-49.28 886.58,-31.54"/>
<polygon fill="#63b8ff" stroke="#63b8ff" points="889.04,-34.04 894.01,-24.68 884.29,-28.9 889.04,-34.04"/>
</a>
</g>
</g>
<!-- Node9 -->
<g id="Node000009" class="node">
<title>Node9</title>
<g id="a_Node000009"><a xlink:title=" ">
<polygon fill="#e0e0e0" stroke="#999999" points="911.5,-90.5 860.5,-90.5 860.5,-71.5 911.5,-71.5 911.5,-90.5"/>
<text text-anchor="middle" x="886" y="-78.5" font-family="Helvetica,sans-Serif" font-size="10.00">csignal</text>
</a>
</g>
</g>
<!-- Node8&#45;&gt;Node9 -->
<g id="edge9_Node000008_Node000009" class="edge">
<title>Node8&#45;&gt;Node9</title>
<g id="a_edge9_Node000008_Node000009"><a xlink:title=" ">
<path fill="none" stroke="#63b8ff" d="M702.15,-132C739.63,-123.78 796.98,-110.47 846,-96 848.41,-95.29 850.88,-94.52 853.37,-93.72"/>
<polygon fill="#63b8ff" stroke="#63b8ff" points="854.49,-97.03 862.86,-90.54 852.27,-90.4 854.49,-97.03"/>
</a>
</g>
</g>
<!-- Node10 -->
<g id="Node000010" class="node">
<title>Node10</title>
<g id="a_Node000010"><a xlink:title=" ">
<polygon fill="#e0e0e0" stroke="#999999" points="257,-24.5 225,-24.5 225,-5.5 257,-5.5 257,-24.5"/>
<text text-anchor="middle" x="241" y="-12.5" font-family="Helvetica,sans-Serif" font-size="10.00">list</text>
</a>
</g>
</g>
<!-- Node8&#45;&gt;Node10 -->
<g id="edge10_Node000008_Node000010" class="edge">
<title>Node8&#45;&gt;Node10</title>
<g id="a_edge10_Node000008_Node000010"><a xlink:title=" ">
<path fill="none" stroke="#63b8ff" d="M621.27,-139.11C521.39,-135.28 270.57,-123.05 245,-96 229.74,-79.86 231.97,-52.71 235.8,-34.58"/>
<polygon fill="#63b8ff" stroke="#63b8ff" points="239.2,-35.41 238.19,-24.86 232.4,-33.74 239.2,-35.41"/>
</a>
</g>
</g>
<!-- Node11 -->
<g id="Node000011" class="node">
<title>Node11</title>
<g id="a_Node000011"><a xlink:title=" ">
<polygon fill="#e0e0e0" stroke="#999999" points="824,-24.5 786,-24.5 786,-5.5 824,-5.5 824,-24.5"/>
<text text-anchor="middle" x="805" y="-12.5" font-family="Helvetica,sans-Serif" font-size="10.00">map</text>
</a>
</g>
</g>
<!-- Node8&#45;&gt;Node11 -->
<g id="edge11_Node000008_Node000011" class="edge">
<title>Node8&#45;&gt;Node11</title>
<g id="a_edge11_Node000008_Node000011"><a xlink:title=" ">
<path fill="none" stroke="#63b8ff" d="M702.66,-133.12C726.49,-126.88 755.63,-115.69 775,-96 791.46,-79.27 799.04,-52.65 802.42,-34.76"/>
<polygon fill="#63b8ff" stroke="#63b8ff" points="805.91,-35.13 804.06,-24.69 799,-34 805.91,-35.13"/>
</a>
</g>
</g>
<!-- Node12 -->
<g id="Node000012" class="node">
<title>Node12</title>
<g id="a_Node000012"><a xlink:title=" ">
<polygon fill="#e0e0e0" stroke="#999999" points="1340,-24.5 1290,-24.5 1290,-5.5 1340,-5.5 1340,-24.5"/>
<text text-anchor="middle" x="1315" y="-12.5" font-family="Helvetica,sans-Serif" font-size="10.00">atomic</text>
</a>
</g>
</g>
<!-- Node8&#45;&gt;Node12 -->
<g id="edge12_Node000008_Node000012" class="edge">
<title>Node8&#45;&gt;Node12</title>
<g id="a_edge12_Node000008_Node000012"><a xlink:title=" ">
<path fill="none" stroke="#63b8ff" d="M702.59,-139.55C829.61,-136.28 1213.95,-124.14 1262,-96 1285.65,-82.15 1300.79,-53.05 1308.6,-34.03"/>
<polygon fill="#63b8ff" stroke="#63b8ff" points="1311.88,-35.26 1312.18,-24.67 1305.34,-32.75 1311.88,-35.26"/>
</a>
</g>
</g>
<!-- Node13 -->
<g id="Node000013" class="node">
<title>Node13</title>
<g id="a_Node000013"><a xlink:title=" ">
<polygon fill="#e0e0e0" stroke="#999999" points="549.5,-24.5 446.5,-24.5 446.5,-5.5 549.5,-5.5 549.5,-24.5"/>
<text text-anchor="middle" x="498" y="-12.5" font-family="Helvetica,sans-Serif" font-size="10.00">glibmm/threads.h</text>
</a>
</g>
</g>
<!-- Node8&#45;&gt;Node13 -->
<g id="edge13_Node000008_Node000013" class="edge">
<title>Node8&#45;&gt;Node13</title>
<g id="a_edge13_Node000008_Node000013"><a xlink:title=" ">
<path fill="none" stroke="#63b8ff" d="M656.33,-131.68C646.3,-116.61 624.07,-85.63 599,-66 578.52,-49.96 552.07,-37.1 531.38,-28.44"/>
<polygon fill="#63b8ff" stroke="#63b8ff" points="532.61,-25.16 522.03,-24.64 529.98,-31.64 532.61,-25.16"/>
</a>
</g>
</g>
<!-- Node14 -->
<g id="Node000014" class="node">
<title>Node14</title>
<g id="a_Node000014"><a xlink:title=" ">
<polygon fill="#e0e0e0" stroke="#999999" points="380,-90.5 254,-90.5 254,-71.5 380,-71.5 380,-90.5"/>
<text text-anchor="middle" x="317" y="-78.5" font-family="Helvetica,sans-Serif" font-size="10.00">boost/bind/protect.hpp</text>
</a>
</g>
</g>
<!-- Node8&#45;&gt;Node14 -->
<g id="edge14_Node000008_Node000014" class="edge">
<title>Node8&#45;&gt;Node14</title>
<g id="a_edge14_Node000008_Node000014"><a xlink:title=" ">
<path fill="none" stroke="#63b8ff" d="M621.23,-134.25C567.81,-125.97 471.25,-110.7 389,-96 382.75,-94.88 376.2,-93.67 369.71,-92.44"/>
<polygon fill="#63b8ff" stroke="#63b8ff" points="370.08,-88.95 359.6,-90.51 368.76,-95.82 370.08,-88.95"/>
</a>
</g>
</g>
<!-- Node15 -->
<g id="Node000015" class="node">
<title>Node15</title>
<g id="a_Node000015"><a xlink:title=" ">
<polygon fill="#e0e0e0" stroke="#999999" points="516,-96 398,-96 398,-66 516,-66 516,-96"/>
<text text-anchor="start" x="406" y="-84" font-family="Helvetica,sans-Serif" font-size="10.00">boost/enable_shared</text>
<text text-anchor="middle" x="457" y="-73" font-family="Helvetica,sans-Serif" font-size="10.00">_from_this.hpp</text>
</a>
</g>
</g>
<!-- Node8&#45;&gt;Node15 -->
<g id="edge15_Node000008_Node000015" class="edge">
<title>Node8&#45;&gt;Node15</title>
<g id="a_edge15_Node000008_Node000015"><a xlink:title=" ">
<path fill="none" stroke="#63b8ff" d="M632.19,-131.99C601.92,-123.35 554.21,-109.74 516.22,-98.9"/>
<polygon fill="#63b8ff" stroke="#63b8ff" points="516.86,-95.44 506.28,-96.06 514.94,-102.17 516.86,-95.44"/>
</a>
</g>
</g>
<!-- Node16 -->
<g id="Node000016" class="node">
<title>Node16</title>
<g id="a_Node000016"><a xlink:title=" ">
<polygon fill="#e0e0e0" stroke="#999999" points="590,-90.5 534,-90.5 534,-71.5 590,-71.5 590,-90.5"/>
<text text-anchor="middle" x="562" y="-78.5" font-family="Helvetica,sans-Serif" font-size="10.00">optional</text>
</a>
</g>
</g>
<!-- Node8&#45;&gt;Node16 -->
<g id="edge16_Node000008_Node000016" class="edge">
<title>Node8&#45;&gt;Node16</title>
<g id="a_edge16_Node000008_Node000016"><a xlink:title=" ">
<path fill="none" stroke="#63b8ff" d="M647.24,-131.87C631,-122.36 604.65,-106.95 585.54,-95.77"/>
<polygon fill="#63b8ff" stroke="#63b8ff" points="587.21,-92.7 576.82,-90.67 583.68,-98.74 587.21,-92.7"/>
</a>
</g>
</g>
<!-- Node17 -->
<g id="Node000017" class="node">
<title>Node17</title>
<g id="a_Node000017"><a xlink:href="event__loop_8h.html" target="_top" xlink:title=" ">
<polygon fill="white" stroke="#666666" points="1069.5,-90.5 968.5,-90.5 968.5,-71.5 1069.5,-71.5 1069.5,-90.5"/>
<text text-anchor="middle" x="1019" y="-78.5" font-family="Helvetica,sans-Serif" font-size="10.00">pbd/event_loop.h</text>
</a>
</g>
</g>
<!-- Node8&#45;&gt;Node17 -->
<g id="edge18_Node000008_Node000017" class="edge">
<title>Node8&#45;&gt;Node17</title>
<g id="a_edge18_Node000008_Node000017"><a xlink:title=" ">
<path fill="none" stroke="#63b8ff" d="M702.6,-133.85C765.18,-123.59 885.56,-103.87 958.44,-91.92"/>
<polygon fill="#63b8ff" stroke="#63b8ff" points="959.1,-95.36 968.4,-90.29 957.97,-88.45 959.1,-95.36"/>
</a>
</g>
</g>
<!-- Node19 -->
<g id="Node000019" class="node">
<title>Node19</title>
<g id="a_Node000019"><a xlink:href="stack__allocator_8h.html" target="_top" xlink:title=" ">
<polygon fill="white" stroke="#666666" points="766,-90.5 646,-90.5 646,-71.5 766,-71.5 766,-90.5"/>
<text text-anchor="middle" x="706" y="-78.5" font-family="Helvetica,sans-Serif" font-size="10.00">pbd/stack_allocator.h</text>
</a>
</g>
</g>
<!-- Node8&#45;&gt;Node19 -->
<g id="edge27_Node000008_Node000019" class="edge">
<title>Node8&#45;&gt;Node19</title>
<g id="a_edge27_Node000008_Node000019"><a xlink:title=" ">
<path fill="none" stroke="#63b8ff" d="M668.49,-131.87C674.99,-123.23 685.16,-109.7 693.28,-98.92"/>
<polygon fill="#63b8ff" stroke="#63b8ff" points="696.27,-100.76 699.48,-90.67 690.67,-96.56 696.27,-100.76"/>
</a>
</g>
</g>
<!-- Node22 -->
<g id="Node000022" class="node">
<title>Node22</title>
<g id="a_Node000022"><a xlink:href="stacktrace_8h.html" target="_top" xlink:title=" ">
<polygon fill="white" stroke="#666666" points="198,-90.5 100,-90.5 100,-71.5 198,-71.5 198,-90.5"/>
<text text-anchor="middle" x="149" y="-78.5" font-family="Helvetica,sans-Serif" font-size="10.00">pbd/stacktrace.h</text>
</a>
</g>
</g>
<!-- Node8&#45;&gt;Node22 -->
<g id="edge31_Node000008_Node000022" class="edge">
<title>Node8&#45;&gt;Node22</title>
<g id="a_edge31_Node000008_Node000022"><a xlink:title=" ">
<path fill="none" stroke="#63b8ff" d="M621.45,-138.13C542.34,-133.14 362,-119.99 212,-96 206.12,-95.06 199.96,-93.9 193.9,-92.67"/>
<polygon fill="#63b8ff" stroke="#63b8ff" points="194.36,-89.19 183.85,-90.53 192.9,-96.03 194.36,-89.19"/>
</a>
</g>
</g>
<!-- Node24 -->
<g id="Node000024" class="node">
<title>Node24</title>
<g id="a_Node000024"><a xlink:title=" ">
<polygon fill="#e0e0e0" stroke="#999999" points="60,-24.5 0,-24.5 0,-5.5 60,-5.5 60,-24.5"/>
<text text-anchor="middle" x="30" y="-12.5" font-family="Helvetica,sans-Serif" font-size="10.00">iostream</text>
</a>
</g>
</g>
<!-- Node8&#45;&gt;Node24 -->
<g id="edge38_Node000008_Node000024" class="edge">
<title>Node8&#45;&gt;Node24</title>
<g id="a_edge38_Node000008_Node000024"><a xlink:title=" ">
<path fill="none" stroke="#63b8ff" d="M621.3,-139.24C498.5,-135.18 137.28,-121.2 91,-96 65.64,-82.2 47.6,-52.87 38,-33.81"/>
<polygon fill="#63b8ff" stroke="#63b8ff" points="41.11,-32.21 33.64,-24.69 34.79,-35.22 41.11,-32.21"/>
</a>
</g>
</g>
<!-- Node17&#45;&gt;Node2 -->
<g id="edge23_Node000017_Node000002" class="edge">
<title>Node17&#45;&gt;Node2</title>
<g id="a_edge23_Node000017_Node000002"><a xlink:title=" ">
<path fill="none" stroke="#63b8ff" d="M1069.65,-74.34C1169.29,-63.11 1384,-38.35 1417,-30 1419.3,-29.42 1421.66,-28.73 1424.01,-27.97"/>
<polygon fill="#63b8ff" stroke="#63b8ff" points="1425.24,-31.25 1433.48,-24.6 1422.88,-24.66 1425.24,-31.25"/>
</a>
</g>
</g>
<!-- Node17&#45;&gt;Node4 -->
<g id="edge24_Node000017_Node000004" class="edge">
<title>Node17&#45;&gt;Node4</title>
<g id="a_edge24_Node000017_Node000004"><a xlink:title=" ">
<path fill="none" stroke="#63b8ff" d="M1035.59,-71.37C1056.31,-60.59 1092,-42.02 1116.28,-29.38"/>
<polygon fill="#63b8ff" stroke="#63b8ff" points="1118.03,-32.42 1125.28,-24.7 1114.8,-26.21 1118.03,-32.42"/>
</a>
</g>
</g>
<!-- Node17&#45;&gt;Node6 -->
<g id="edge20_Node000017_Node000006" class="edge">
<title>Node17&#45;&gt;Node6</title>
<g id="a_edge20_Node000017_Node000006"><a xlink:title=" ">
<path fill="none" stroke="#63b8ff" d="M1025.88,-71.37C1033.67,-61.59 1046.55,-45.42 1056.39,-33.08"/>
<polygon fill="#63b8ff" stroke="#63b8ff" points="1059.41,-34.91 1062.9,-24.91 1053.93,-30.54 1059.41,-34.91"/>
</a>
</g>
</g>
<!-- Node17&#45;&gt;Node7 -->
<g id="edge26_Node000017_Node000007" class="edge">
<title>Node17&#45;&gt;Node7</title>
<g id="a_edge26_Node000017_Node000007"><a xlink:title=" ">
<path fill="none" stroke="#63b8ff" d="M1003.36,-71.37C983.9,-60.63 950.45,-42.18 927.56,-29.55"/>
<polygon fill="#63b8ff" stroke="#63b8ff" points="929.21,-26.47 918.77,-24.7 925.83,-32.59 929.21,-26.47"/>
</a>
</g>
</g>
<!-- Node17&#45;&gt;Node11 -->
<g id="edge22_Node000017_Node000011" class="edge">
<title>Node17&#45;&gt;Node11</title>
<g id="a_edge22_Node000017_Node000011"><a xlink:title=" ">
<path fill="none" stroke="#63b8ff" d="M977.98,-71.47C939.79,-62.95 881.61,-48.47 833,-30 831.98,-29.61 830.96,-29.2 829.92,-28.77"/>
<polygon fill="#63b8ff" stroke="#63b8ff" points="831.29,-25.55 820.74,-24.56 828.37,-31.91 831.29,-25.55"/>
</a>
</g>
</g>
<!-- Node17&#45;&gt;Node12 -->
<g id="edge19_Node000017_Node000012" class="edge">
<title>Node17&#45;&gt;Node12</title>
<g id="a_edge19_Node000017_Node000012"><a xlink:title=" ">
<path fill="none" stroke="#63b8ff" d="M1069.95,-73.39C1123.28,-65.75 1209.11,-51.42 1281,-30 1282.88,-29.44 1284.8,-28.81 1286.72,-28.14"/>
<polygon fill="#63b8ff" stroke="#63b8ff" points="1288.08,-31.37 1296.18,-24.54 1285.59,-24.83 1288.08,-31.37"/>
</a>
</g>
</g>
<!-- Node17&#45;&gt;Node13 -->
<g id="edge25_Node000017_Node000013" class="edge">
<title>Node17&#45;&gt;Node13</title>
<g id="a_edge25_Node000017_Node000013"><a xlink:title=" ">
<path fill="none" stroke="#63b8ff" d="M968.43,-72.44C952.91,-70.23 935.77,-67.9 920,-66 759.92,-46.71 718.12,-56.09 559,-30 553.44,-29.09 547.62,-27.97 541.89,-26.77"/>
<polygon fill="#63b8ff" stroke="#63b8ff" points="542.25,-23.26 531.73,-24.54 540.75,-30.1 542.25,-23.26"/>
</a>
</g>
</g>
<!-- Node18 -->
<g id="Node000018" class="node">
<title>Node18</title>
<g id="a_Node000018"><a xlink:title=" ">
<polygon fill="#e0e0e0" stroke="#999999" points="1029.5,-24.5 982.5,-24.5 982.5,-5.5 1029.5,-5.5 1029.5,-24.5"/>
<text text-anchor="middle" x="1006" y="-12.5" font-family="Helvetica,sans-Serif" font-size="10.00">vector</text>
</a>
</g>
</g>
<!-- Node17&#45;&gt;Node18 -->
<g id="edge21_Node000017_Node000018" class="edge">
<title>Node17&#45;&gt;Node18</title>
<g id="a_edge21_Node000017_Node000018"><a xlink:title=" ">
<path fill="none" stroke="#63b8ff" d="M1017.25,-71.37C1015.36,-62.07 1012.29,-46.98 1009.84,-34.9"/>
<polygon fill="#63b8ff" stroke="#63b8ff" points="1013.23,-34.01 1007.81,-24.91 1006.37,-35.4 1013.23,-34.01"/>
</a>
</g>
</g>
<!-- Node19&#45;&gt;Node7 -->
<g id="edge30_Node000019_Node000007" class="edge">
<title>Node19&#45;&gt;Node7</title>
<g id="a_edge30_Node000019_Node000007"><a xlink:title=" ">
<path fill="none" stroke="#63b8ff" d="M732.57,-71.37C767.18,-60.12 827.84,-40.42 866.68,-27.8"/>
<polygon fill="#63b8ff" stroke="#63b8ff" points="868.11,-31.02 876.54,-24.6 865.95,-24.36 868.11,-31.02"/>
</a>
</g>
</g>
<!-- Node20 -->
<g id="Node000020" class="node">
<title>Node20</title>
<g id="a_Node000020"><a xlink:title=" ">
<polygon fill="#e0e0e0" stroke="#999999" points="768,-30 630,-30 630,0 768,0 768,-30"/>
<text text-anchor="start" x="638" y="-18" font-family="Helvetica,sans-Serif" font-size="10.00">boost/type_traits/aligned</text>
<text text-anchor="middle" x="699" y="-7" font-family="Helvetica,sans-Serif" font-size="10.00">_storage.hpp</text>
</a>
</g>
</g>
<!-- Node19&#45;&gt;Node20 -->
<g id="edge28_Node000019_Node000020" class="edge">
<title>Node19&#45;&gt;Node20</title>
<g id="a_edge28_Node000019_Node000020"><a xlink:title=" ">
<path fill="none" stroke="#63b8ff" d="M705.06,-71.37C704.19,-63.49 702.88,-51.45 701.69,-40.6"/>
<polygon fill="#63b8ff" stroke="#63b8ff" points="705.14,-39.92 700.57,-30.36 698.18,-40.68 705.14,-39.92"/>
</a>
</g>
</g>
<!-- Node21 -->
<g id="Node000021" class="node">
<title>Node21</title>
<g id="a_Node000021"><a xlink:title=" ">
<polygon fill="#e0e0e0" stroke="#999999" points="612,-24.5 568,-24.5 568,-5.5 612,-5.5 612,-24.5"/>
<text text-anchor="middle" x="590" y="-12.5" font-family="Helvetica,sans-Serif" font-size="10.00">limits</text>
</a>
</g>
</g>
<!-- Node19&#45;&gt;Node21 -->
<g id="edge29_Node000019_Node000021" class="edge">
<title>Node19&#45;&gt;Node21</title>
<g id="a_edge29_Node000019_Node000021"><a xlink:title=" ">
<path fill="none" stroke="#63b8ff" d="M690.36,-71.37C670.9,-60.63 637.45,-42.18 614.56,-29.55"/>
<polygon fill="#63b8ff" stroke="#63b8ff" points="616.21,-26.47 605.77,-24.7 612.83,-32.59 616.21,-26.47"/>
</a>
</g>
</g>
<!-- Node22&#45;&gt;Node7 -->
<g id="edge37_Node000022_Node000007" class="edge">
<title>Node22&#45;&gt;Node7</title>
<g id="a_edge37_Node000022_Node000007"><a xlink:title=" ">
<path fill="none" stroke="#63b8ff" d="M198.23,-72.01C213.22,-69.8 229.75,-67.58 245,-66 505.44,-39.09 573.36,-63.75 833,-30 840.27,-29.06 847.91,-27.8 855.37,-26.43"/>
<polygon fill="#63b8ff" stroke="#63b8ff" points="856.22,-29.83 865.37,-24.5 854.89,-22.96 856.22,-29.83"/>
</a>
</g>
</g>
<!-- Node22&#45;&gt;Node10 -->
<g id="edge36_Node000022_Node000010" class="edge">
<title>Node22&#45;&gt;Node10</title>
<g id="a_edge36_Node000022_Node000010"><a xlink:title=" ">
<path fill="none" stroke="#63b8ff" d="M161.41,-71.37C176.36,-60.97 201.72,-43.32 219.8,-30.75"/>
<polygon fill="#63b8ff" stroke="#63b8ff" points="222.28,-33.28 228.5,-24.7 218.29,-27.54 222.28,-33.28"/>
</a>
</g>
</g>
<!-- Node22&#45;&gt;Node13 -->
<g id="edge35_Node000022_Node000013" class="edge">
<title>Node22&#45;&gt;Node13</title>
<g id="a_edge35_Node000022_Node000013"><a xlink:title=" ">
<path fill="none" stroke="#63b8ff" d="M195.71,-71.44C259.31,-59.77 373.05,-38.91 441.41,-26.38"/>
<polygon fill="#63b8ff" stroke="#63b8ff" points="442.37,-29.76 451.57,-24.51 441.1,-22.88 442.37,-29.76"/>
</a>
</g>
</g>
<!-- Node23 -->
<g id="Node000023" class="node">
<title>Node23</title>
<g id="a_Node000023"><a xlink:title=" ">
<polygon fill="#e0e0e0" stroke="#999999" points="131.5,-24.5 78.5,-24.5 78.5,-5.5 131.5,-5.5 131.5,-24.5"/>
<text text-anchor="middle" x="105" y="-12.5" font-family="Helvetica,sans-Serif" font-size="10.00">cstddef</text>
</a>
</g>
</g>
<!-- Node22&#45;&gt;Node23 -->
<g id="edge32_Node000022_Node000023" class="edge">
<title>Node22&#45;&gt;Node23</title>
<g id="a_edge32_Node000022_Node000023"><a xlink:title=" ">
<path fill="none" stroke="#63b8ff" d="M143.07,-71.37C136.41,-61.69 125.44,-45.74 116.99,-33.44"/>
<polygon fill="#63b8ff" stroke="#63b8ff" points="119.67,-31.16 111.12,-24.91 113.9,-35.13 119.67,-31.16"/>
</a>
</g>
</g>
<!-- Node22&#45;&gt;Node24 -->
<g id="edge33_Node000022_Node000024" class="edge">
<title>Node22&#45;&gt;Node24</title>
<g id="a_edge33_Node000022_Node000024"><a xlink:title=" ">
<path fill="none" stroke="#63b8ff" d="M132.95,-71.37C112.99,-60.63 78.68,-42.18 55.2,-29.55"/>
<polygon fill="#63b8ff" stroke="#63b8ff" points="56.64,-26.35 46.17,-24.7 53.32,-32.52 56.64,-26.35"/>
</a>
</g>
</g>
<!-- Node25 -->
<g id="Node000025" class="node">
<title>Node25</title>
<g id="a_Node000025"><a xlink:title=" ">
<polygon fill="#e0e0e0" stroke="#999999" points="206.5,-24.5 149.5,-24.5 149.5,-5.5 206.5,-5.5 206.5,-24.5"/>
<text text-anchor="middle" x="178" y="-12.5" font-family="Helvetica,sans-Serif" font-size="10.00">ostream</text>
</a>
</g>
</g>
<!-- Node22&#45;&gt;Node25 -->
<g id="edge34_Node000022_Node000025" class="edge">
<title>Node22&#45;&gt;Node25</title>
<g id="a_edge34_Node000022_Node000025"><a xlink:title=" ">
<path fill="none" stroke="#63b8ff" d="M152.91,-71.37C157.21,-61.88 164.24,-46.36 169.77,-34.16"/>
<polygon fill="#63b8ff" stroke="#63b8ff" points="173.03,-35.46 173.96,-24.91 166.65,-32.57 173.03,-35.46"/>
</a>
</g>
</g>
<!-- Node26&#45;&gt;Node7 -->
<g id="edge42_Node000026_Node000007" class="edge">
<title>Node26&#45;&gt;Node7</title>
<g id="a_edge42_Node000026_Node000007"><a xlink:title=" ">
<path fill="none" stroke="#63b8ff" d="M1310.16,-72.88C1294.82,-70.61 1277.69,-68.13 1262,-66 1133.74,-48.56 1100.77,-50.71 973,-30 966.42,-28.93 959.52,-27.7 952.73,-26.41"/>
<polygon fill="#63b8ff" stroke="#63b8ff" points="953.37,-22.97 942.89,-24.5 952.04,-29.84 953.37,-22.97"/>
</a>
</g>
</g>
<!-- Node26&#45;&gt;Node12 -->
<g id="edge40_Node000026_Node000012" class="edge">
<title>Node26&#45;&gt;Node12</title>
<g id="a_edge40_Node000026_Node000012"><a xlink:title=" ">
<path fill="none" stroke="#63b8ff" d="M1351.34,-71.37C1344.98,-61.69 1334.52,-45.74 1326.44,-33.44"/>
<polygon fill="#63b8ff" stroke="#63b8ff" points="1329.26,-31.35 1320.84,-24.91 1323.4,-35.19 1329.26,-31.35"/>
</a>
</g>
</g>
<!-- Node27 -->
<g id="Node000027" class="node">
<title>Node27</title>
<g id="a_Node000027"><a xlink:title=" ">
<polygon fill="#e0e0e0" stroke="#999999" points="1408,-24.5 1358,-24.5 1358,-5.5 1408,-5.5 1408,-24.5"/>
<text text-anchor="middle" x="1383" y="-12.5" font-family="Helvetica,sans-Serif" font-size="10.00">cstring</text>
</a>
</g>
</g>
<!-- Node26&#45;&gt;Node27 -->
<g id="edge41_Node000026_Node000027" class="edge">
<title>Node26&#45;&gt;Node27</title>
<g id="a_edge41_Node000026_Node000027"><a xlink:title=" ">
<path fill="none" stroke="#63b8ff" d="M1360.51,-71.37C1364.32,-61.97 1370.54,-46.67 1375.47,-34.53"/>
<polygon fill="#63b8ff" stroke="#63b8ff" points="1378.86,-35.49 1379.38,-24.91 1372.38,-32.85 1378.86,-35.49"/>
</a>
</g>
</g>
<!-- Node28&#45;&gt;Node4 -->
<g id="edge44_Node000028_Node000004" class="edge">
<title>Node28&#45;&gt;Node4</title>
<g id="a_edge44_Node000028_Node000004"><a xlink:title=" ">
<path fill="none" stroke="#63b8ff" d="M1199.96,-71.37C1189.43,-61.31 1171.81,-44.48 1158.76,-32.01"/>
<polygon fill="#63b8ff" stroke="#63b8ff" points="1160.97,-29.28 1151.32,-24.91 1156.14,-34.34 1160.97,-29.28"/>
</a>
</g>
</g>
<!-- Node28&#45;&gt;Node7 -->
<g id="edge46_Node000028_Node000007" class="edge">
<title>Node28&#45;&gt;Node7</title>
<g id="a_edge46_Node000028_Node000007"><a xlink:title=" ">
<path fill="none" stroke="#63b8ff" d="M1168.05,-71.44C1112.63,-59.84 1013.78,-39.17 953.73,-26.61"/>
<polygon fill="#63b8ff" stroke="#63b8ff" points="954.21,-23.14 943.71,-24.51 952.78,-29.99 954.21,-23.14"/>
</a>
</g>
</g>
<!-- Node29 -->
<g id="Node000029" class="node">
<title>Node29</title>
<g id="a_Node000029"><a xlink:title=" ">
<polygon fill="#e0e0e0" stroke="#999999" points="1272,-24.5 1192,-24.5 1192,-5.5 1272,-5.5 1272,-24.5"/>
<text text-anchor="middle" x="1232" y="-12.5" font-family="Helvetica,sans-Serif" font-size="10.00">semaphore.h</text>
</a>
</g>
</g>
<!-- Node28&#45;&gt;Node29 -->
<g id="edge45_Node000028_Node000029" class="edge">
<title>Node28&#45;&gt;Node29</title>
<g id="a_edge45_Node000028_Node000029"><a xlink:title=" ">
<path fill="none" stroke="#63b8ff" d="M1212.1,-71.37C1215.48,-61.97 1220.98,-46.67 1225.34,-34.53"/>
<polygon fill="#63b8ff" stroke="#63b8ff" points="1228.71,-35.5 1228.8,-24.91 1222.12,-33.13 1228.71,-35.5"/>
</a>
</g>
</g>
</g>
</svg>

<g id="navigator" transform="translate(0 0)" fill="#404254">
  <rect fill="#f2f5e9" fill-opacity="0.5" stroke="#606060" stroke-width=".5" x="0" y="0" width="60" height="60"/>
  <use id="zoomplus" xlink:href="#zoomPlus" x="17" y="9" onmousedown="handleZoom(evt,'in')"/>
  <use id="zoomminus" xlink:href="#zoomMin" x="42" y="9" onmousedown="handleZoom(evt,'out')"/>
  <use id="reset" xlink:href="#resetDef" x="30" y="36" onmousedown="handleReset()"/>
   <use id="arrowup" xlink:href="#arrowUp" x="0" y="0" onmousedown="handlePan(0,-1)"/>
  <use id="arrowright" xlink:href="#arrowRight" x="0" y="0" onmousedown="handlePan(1,0)"/>
  <use id="arrowdown" xlink:href="#arrowDown" x="0" y="0" onmousedown="handlePan(0,1)"/>
  <use id="arrowleft" xlink:href="#arrowLeft" x="0" y="0" onmousedown="handlePan(-1,0)"/>
</g>
<svg viewBox="0 0 15 15" width="100%" height="30px" preserveAspectRatio="xMaxYMin meet">
 <g id="arrow_out" transform="scale(0.3 0.3)">
  <a xlink:href="worker_8h__incl_org.svg" target="_base">
   <rect id="button" ry="5" rx="5" y="6" x="6" height="38" width="38"
        fill="#f2f5e9" fill-opacity="0.5" stroke="#606060" stroke-width="1.0"/>
   <path id="arrow"
     d="M 11.500037,31.436501 C 11.940474,20.09759 22.043105,11.32322 32.158766,21.979434 L 37.068811,17.246167 C 37.068811,17.246167 37.088388,32 37.088388,32 L 22.160133,31.978069 C 22.160133,31.978069 26.997745,27.140456 26.997745,27.140456 C 18.528582,18.264221 13.291696,25.230495 11.500037,31.436501 z"
     style="fill:#404040;"/>
  </a>
 </g>
</svg>

<style type='text/css'>
<![CDATA[
[data-mouse-over-selected='false'] { opacity: 0.7; }
[data-mouse-over-selected='true']  { opacity: 1.0; }
]]>
</style>
<script type="application/ecmascript"><![CDATA[
document.addEventListener('DOMContentLoaded', (event) => {
  highlightEdges();
  highlightAdjacentNodes();
});
]]></script>
</svg>
